%TF.GenerationSoftware,KiCad,Pcbnew,9.0.5*%
%TF.CreationDate,2025-11-15T17:56:55+00:00*%
%TF.ProjectId,gk,676b2e6b-6963-4616-945f-706362585858,rev?*%
%TF.SameCoordinates,Original*%
%TF.FileFunction,Legend,Bot*%
%TF.FilePolarity,Positive*%
%FSLAX46Y46*%
G04 Gerber Fmt 4.6, Leading zero omitted, Abs format (unit mm)*
G04 Created by KiCad (PCBNEW 9.0.5) date 2025-11-15 17:56:55*
%MOMM*%
%LPD*%
G01*
G04 APERTURE LIST*
G04 Aperture macros list*
%AMRoundRect*
0 Rectangle with rounded corners*
0 $1 Rounding radius*
0 $2 $3 $4 $5 $6 $7 $8 $9 X,Y pos of 4 corners*
0 Add a 4 corners polygon primitive as box body*
4,1,4,$2,$3,$4,$5,$6,$7,$8,$9,$2,$3,0*
0 Add four circle primitives for the rounded corners*
1,1,$1+$1,$2,$3*
1,1,$1+$1,$4,$5*
1,1,$1+$1,$6,$7*
1,1,$1+$1,$8,$9*
0 Add four rect primitives between the rounded corners*
20,1,$1+$1,$2,$3,$4,$5,0*
20,1,$1+$1,$4,$5,$6,$7,0*
20,1,$1+$1,$6,$7,$8,$9,0*
20,1,$1+$1,$8,$9,$2,$3,0*%
G04 Aperture macros list end*
%ADD10C,0.100000*%
%ADD11C,0.150000*%
%ADD12C,0.120000*%
%ADD13RoundRect,0.250000X0.525000X0.250000X-0.525000X0.250000X-0.525000X-0.250000X0.525000X-0.250000X0*%
%ADD14C,2.200000*%
%ADD15C,1.700000*%
%ADD16R,1.700000X1.700000*%
%ADD17R,1.600000X1.500000*%
%ADD18C,1.600000*%
%ADD19C,3.000000*%
%ADD20C,3.200000*%
%ADD21C,1.250000*%
%ADD22C,1.750000*%
%ADD23RoundRect,0.200000X0.450000X-0.200000X0.450000X0.200000X-0.450000X0.200000X-0.450000X-0.200000X0*%
%ADD24O,1.300000X0.800000*%
%ADD25O,2.200000X4.000000*%
%ADD26O,4.000000X2.200000*%
%ADD27R,2.200000X4.000000*%
%ADD28C,0.650000*%
%ADD29O,1.000000X2.100000*%
%ADD30O,1.000000X1.600000*%
%ADD31RoundRect,0.250000X0.600000X0.750000X-0.600000X0.750000X-0.600000X-0.750000X0.600000X-0.750000X0*%
%ADD32O,1.700000X2.000000*%
%ADD33C,2.600000*%
%ADD34C,4.400000*%
%ADD35RoundRect,0.250000X0.350000X0.625000X-0.350000X0.625000X-0.350000X-0.625000X0.350000X-0.625000X0*%
%ADD36O,1.200000X1.750000*%
%ADD37RoundRect,0.140000X0.170000X-0.140000X0.170000X0.140000X-0.170000X0.140000X-0.170000X-0.140000X0*%
%ADD38RoundRect,0.200000X-0.200000X-0.275000X0.200000X-0.275000X0.200000X0.275000X-0.200000X0.275000X0*%
%ADD39RoundRect,0.140000X-0.170000X0.140000X-0.170000X-0.140000X0.170000X-0.140000X0.170000X0.140000X0*%
%ADD40R,0.740000X2.400000*%
%ADD41RoundRect,0.200000X0.275000X-0.200000X0.275000X0.200000X-0.275000X0.200000X-0.275000X-0.200000X0*%
%ADD42RoundRect,0.140000X-0.140000X-0.170000X0.140000X-0.170000X0.140000X0.170000X-0.140000X0.170000X0*%
%ADD43RoundRect,0.140000X0.140000X0.170000X-0.140000X0.170000X-0.140000X-0.170000X0.140000X-0.170000X0*%
%ADD44RoundRect,0.200000X0.200000X0.275000X-0.200000X0.275000X-0.200000X-0.275000X0.200000X-0.275000X0*%
%ADD45RoundRect,0.225000X0.225000X0.250000X-0.225000X0.250000X-0.225000X-0.250000X0.225000X-0.250000X0*%
%ADD46RoundRect,0.200000X-0.275000X0.200000X-0.275000X-0.200000X0.275000X-0.200000X0.275000X0.200000X0*%
%ADD47R,2.400000X0.740000*%
%ADD48R,5.100000X5.100000*%
%ADD49C,17.800000*%
G04 APERTURE END LIST*
D10*
X78788491Y-78004439D02*
X79688491Y-78004439D01*
X79688491Y-79804439D01*
X78788491Y-79804439D01*
X78788491Y-78004439D01*
X79638491Y-84404439D02*
X79838491Y-84404439D01*
X79838491Y-85304439D01*
X79638491Y-85304439D01*
X79638491Y-84404439D01*
G36*
X79638491Y-84404439D02*
G01*
X79838491Y-84404439D01*
X79838491Y-85304439D01*
X79638491Y-85304439D01*
X79638491Y-84404439D01*
G37*
X81388491Y-86004439D02*
X82288491Y-86004439D01*
X82288491Y-86204439D01*
X81388491Y-86204439D01*
X81388491Y-86004439D01*
G36*
X81388491Y-86004439D02*
G01*
X82288491Y-86004439D01*
X82288491Y-86204439D01*
X81388491Y-86204439D01*
X81388491Y-86004439D01*
G37*
X83488491Y-87604439D02*
X84388491Y-87604439D01*
X84388491Y-89404439D01*
X83488491Y-89404439D01*
X83488491Y-87604439D01*
X59338491Y-82154439D02*
X60238491Y-82154439D01*
X60238491Y-83954439D01*
X59338491Y-83954439D01*
X59338491Y-82154439D01*
X57288491Y-81154439D02*
X58188491Y-81154439D01*
X58188491Y-82954439D01*
X57288491Y-82954439D01*
X57288491Y-81154439D01*
X86888491Y-78054439D02*
X87788491Y-78054439D01*
X87788491Y-79854439D01*
X86888491Y-79854439D01*
X86888491Y-78054439D01*
X55438491Y-77304439D02*
X56338491Y-77304439D01*
X56338491Y-79104439D01*
X55438491Y-79104439D01*
X55438491Y-77304439D01*
X55388491Y-80354439D02*
X56288491Y-80354439D01*
X56288491Y-82154439D01*
X55388491Y-82154439D01*
X55388491Y-80354439D01*
X82338491Y-85204439D02*
X83238491Y-85204439D01*
X83238491Y-87004439D01*
X82338491Y-87004439D01*
X82338491Y-85204439D01*
X86088491Y-88004439D02*
X87888491Y-88004439D01*
X87888491Y-88904439D01*
X86088491Y-88904439D01*
X86088491Y-88004439D01*
X87888491Y-78054439D02*
X88788491Y-78054439D01*
X88788491Y-79854439D01*
X87888491Y-79854439D01*
X87888491Y-78054439D01*
X82238491Y-81154439D02*
X84038491Y-81154439D01*
X84038491Y-82054439D01*
X82238491Y-82054439D01*
X82238491Y-81154439D01*
X82088491Y-84104439D02*
X83888491Y-84104439D01*
X83888491Y-85004439D01*
X82088491Y-85004439D01*
X82088491Y-84104439D01*
X80488491Y-86004439D02*
X81388491Y-86004439D01*
X81388491Y-86204439D01*
X80488491Y-86204439D01*
X80488491Y-86004439D01*
G36*
X80488491Y-86004439D02*
G01*
X81388491Y-86004439D01*
X81388491Y-86204439D01*
X80488491Y-86204439D01*
X80488491Y-86004439D01*
G37*
X86188491Y-82154439D02*
X86388491Y-82154439D01*
X86388491Y-83054439D01*
X86188491Y-83054439D01*
X86188491Y-82154439D01*
G36*
X86188491Y-82154439D02*
G01*
X86388491Y-82154439D01*
X86388491Y-83054439D01*
X86188491Y-83054439D01*
X86188491Y-82154439D01*
G37*
X87988491Y-81304439D02*
X88188491Y-81304439D01*
X88188491Y-82204439D01*
X87988491Y-82204439D01*
X87988491Y-81304439D01*
G36*
X87988491Y-81304439D02*
G01*
X88188491Y-81304439D01*
X88188491Y-82204439D01*
X87988491Y-82204439D01*
X87988491Y-81304439D01*
G37*
X63138491Y-80504439D02*
X64038491Y-80504439D01*
X64038491Y-82304439D01*
X63138491Y-82304439D01*
X63138491Y-80504439D01*
X77438491Y-77154439D02*
X78338491Y-77154439D01*
X78338491Y-78954439D01*
X77438491Y-78954439D01*
X77438491Y-77154439D01*
X86188491Y-83104439D02*
X86388491Y-83104439D01*
X86388491Y-84004439D01*
X86188491Y-84004439D01*
X86188491Y-83104439D01*
G36*
X86188491Y-83104439D02*
G01*
X86388491Y-83104439D01*
X86388491Y-84004439D01*
X86188491Y-84004439D01*
X86188491Y-83104439D01*
G37*
X84388491Y-82904439D02*
X85288491Y-82904439D01*
X85288491Y-83104439D01*
X84388491Y-83104439D01*
X84388491Y-82904439D01*
G36*
X84388491Y-82904439D02*
G01*
X85288491Y-82904439D01*
X85288491Y-83104439D01*
X84388491Y-83104439D01*
X84388491Y-82904439D01*
G37*
X83038491Y-82104439D02*
X83238491Y-82104439D01*
X83238491Y-83004439D01*
X83038491Y-83004439D01*
X83038491Y-82104439D01*
G36*
X83038491Y-82104439D02*
G01*
X83238491Y-82104439D01*
X83238491Y-83004439D01*
X83038491Y-83004439D01*
X83038491Y-82104439D01*
G37*
X84288491Y-80254439D02*
X85188491Y-80254439D01*
X85188491Y-82054439D01*
X84288491Y-82054439D01*
X84288491Y-80254439D01*
X83288491Y-85204439D02*
X84188491Y-85204439D01*
X84188491Y-87004439D01*
X83288491Y-87004439D01*
X83288491Y-85204439D01*
X87888491Y-78854439D02*
X88788491Y-78854439D01*
X88788491Y-79054439D01*
X87888491Y-79054439D01*
X87888491Y-78854439D01*
G36*
X87888491Y-78854439D02*
G01*
X88788491Y-78854439D01*
X88788491Y-79054439D01*
X87888491Y-79054439D01*
X87888491Y-78854439D01*
G37*
X87188491Y-81304439D02*
X88988491Y-81304439D01*
X88988491Y-82204439D01*
X87188491Y-82204439D01*
X87188491Y-81304439D01*
X80238491Y-81204439D02*
X80438491Y-81204439D01*
X80438491Y-82104439D01*
X80238491Y-82104439D01*
X80238491Y-81204439D01*
G36*
X80238491Y-81204439D02*
G01*
X80438491Y-81204439D01*
X80438491Y-82104439D01*
X80238491Y-82104439D01*
X80238491Y-81204439D01*
G37*
X81388491Y-85204439D02*
X82288491Y-85204439D01*
X82288491Y-87004439D01*
X81388491Y-87004439D01*
X81388491Y-85204439D01*
X81288491Y-80354439D02*
X82188491Y-80354439D01*
X82188491Y-82154439D01*
X81288491Y-82154439D01*
X81288491Y-80354439D01*
X85388491Y-83104439D02*
X87188491Y-83104439D01*
X87188491Y-84004439D01*
X85388491Y-84004439D01*
X85388491Y-83104439D01*
X81288491Y-82754439D02*
X82188491Y-82754439D01*
X82188491Y-84554439D01*
X81288491Y-84554439D01*
X81288491Y-82754439D01*
X88438491Y-76204439D02*
X89338491Y-76204439D01*
X89338491Y-78004439D01*
X88438491Y-78004439D01*
X88438491Y-76204439D01*
X83038491Y-83054439D02*
X83238491Y-83054439D01*
X83238491Y-83954439D01*
X83038491Y-83954439D01*
X83038491Y-83054439D01*
G36*
X83038491Y-83054439D02*
G01*
X83238491Y-83054439D01*
X83238491Y-83954439D01*
X83038491Y-83954439D01*
X83038491Y-83054439D01*
G37*
X85388491Y-82154439D02*
X87188491Y-82154439D01*
X87188491Y-83054439D01*
X85388491Y-83054439D01*
X85388491Y-82154439D01*
X85988491Y-87054439D02*
X87788491Y-87054439D01*
X87788491Y-87954439D01*
X85988491Y-87954439D01*
X85988491Y-87054439D01*
X82338491Y-86004439D02*
X83238491Y-86004439D01*
X83238491Y-86204439D01*
X82338491Y-86204439D01*
X82338491Y-86004439D01*
G36*
X82338491Y-86004439D02*
G01*
X83238491Y-86004439D01*
X83238491Y-86204439D01*
X82338491Y-86204439D01*
X82338491Y-86004439D01*
G37*
X84488491Y-86104439D02*
X86288491Y-86104439D01*
X86288491Y-87004439D01*
X84488491Y-87004439D01*
X84488491Y-86104439D01*
X83938491Y-84104439D02*
X85738491Y-84104439D01*
X85738491Y-85004439D01*
X83938491Y-85004439D01*
X83938491Y-84104439D01*
X87738491Y-84104439D02*
X89538491Y-84104439D01*
X89538491Y-85004439D01*
X87738491Y-85004439D01*
X87738491Y-84104439D01*
X79438491Y-80204439D02*
X79638491Y-80204439D01*
X79638491Y-81104439D01*
X79438491Y-81104439D01*
X79438491Y-80204439D01*
G36*
X79438491Y-80204439D02*
G01*
X79638491Y-80204439D01*
X79638491Y-81104439D01*
X79438491Y-81104439D01*
X79438491Y-80204439D01*
G37*
X84488491Y-87604439D02*
X85388491Y-87604439D01*
X85388491Y-89404439D01*
X84488491Y-89404439D01*
X84488491Y-87604439D01*
X80488491Y-85204439D02*
X81388491Y-85204439D01*
X81388491Y-87004439D01*
X80488491Y-87004439D01*
X80488491Y-85204439D01*
X86488491Y-85204439D02*
X87388491Y-85204439D01*
X87388491Y-87004439D01*
X86488491Y-87004439D01*
X86488491Y-85204439D01*
X82238491Y-80204439D02*
X84038491Y-80204439D01*
X84038491Y-81104439D01*
X82238491Y-81104439D01*
X82238491Y-80204439D01*
X83288491Y-86004439D02*
X84188491Y-86004439D01*
X84188491Y-86204439D01*
X83288491Y-86204439D01*
X83288491Y-86004439D01*
G36*
X83288491Y-86004439D02*
G01*
X84188491Y-86004439D01*
X84188491Y-86204439D01*
X83288491Y-86204439D01*
X83288491Y-86004439D01*
G37*
X59338491Y-75554439D02*
X60238491Y-75554439D01*
X60238491Y-77354439D01*
X59338491Y-77354439D01*
X59338491Y-75554439D01*
X82238491Y-83054439D02*
X84038491Y-83054439D01*
X84038491Y-83954439D01*
X82238491Y-83954439D01*
X82238491Y-83054439D01*
X84288491Y-81054439D02*
X85188491Y-81054439D01*
X85188491Y-81254439D01*
X84288491Y-81254439D01*
X84288491Y-81054439D01*
G36*
X84288491Y-81054439D02*
G01*
X85188491Y-81054439D01*
X85188491Y-81254439D01*
X84288491Y-81254439D01*
X84288491Y-81054439D01*
G37*
X86188491Y-81054439D02*
X87088491Y-81054439D01*
X87088491Y-81254439D01*
X86188491Y-81254439D01*
X86188491Y-81054439D01*
G36*
X86188491Y-81054439D02*
G01*
X87088491Y-81054439D01*
X87088491Y-81254439D01*
X86188491Y-81254439D01*
X86188491Y-81054439D01*
G37*
X81288491Y-81154439D02*
X82188491Y-81154439D01*
X82188491Y-81354439D01*
X81288491Y-81354439D01*
X81288491Y-81154439D01*
G36*
X81288491Y-81154439D02*
G01*
X82188491Y-81154439D01*
X82188491Y-81354439D01*
X81288491Y-81354439D01*
X81288491Y-81154439D01*
G37*
X83038491Y-80204439D02*
X83238491Y-80204439D01*
X83238491Y-81104439D01*
X83038491Y-81104439D01*
X83038491Y-80204439D01*
G36*
X83038491Y-80204439D02*
G01*
X83238491Y-80204439D01*
X83238491Y-81104439D01*
X83038491Y-81104439D01*
X83038491Y-80204439D01*
G37*
X86488491Y-86004439D02*
X87388491Y-86004439D01*
X87388491Y-86204439D01*
X86488491Y-86204439D01*
X86488491Y-86004439D01*
G36*
X86488491Y-86004439D02*
G01*
X87388491Y-86004439D01*
X87388491Y-86204439D01*
X86488491Y-86204439D01*
X86488491Y-86004439D01*
G37*
X84388491Y-82104439D02*
X85288491Y-82104439D01*
X85288491Y-83904439D01*
X84388491Y-83904439D01*
X84388491Y-82104439D01*
X81288491Y-83554439D02*
X82188491Y-83554439D01*
X82188491Y-83754439D01*
X81288491Y-83754439D01*
X81288491Y-83554439D01*
G36*
X81288491Y-83554439D02*
G01*
X82188491Y-83554439D01*
X82188491Y-83754439D01*
X81288491Y-83754439D01*
X81288491Y-83554439D01*
G37*
X57338491Y-76554439D02*
X58238491Y-76554439D01*
X58238491Y-78354439D01*
X57338491Y-78354439D01*
X57338491Y-76554439D01*
X85288491Y-86104439D02*
X85488491Y-86104439D01*
X85488491Y-87004439D01*
X85288491Y-87004439D01*
X85288491Y-86104439D01*
G36*
X85288491Y-86104439D02*
G01*
X85488491Y-86104439D01*
X85488491Y-87004439D01*
X85288491Y-87004439D01*
X85288491Y-86104439D01*
G37*
X82238491Y-82104439D02*
X84038491Y-82104439D01*
X84038491Y-83004439D01*
X82238491Y-83004439D01*
X82238491Y-82104439D01*
X82888491Y-84104439D02*
X83088491Y-84104439D01*
X83088491Y-85004439D01*
X82888491Y-85004439D01*
X82888491Y-84104439D01*
G36*
X82888491Y-84104439D02*
G01*
X83088491Y-84104439D01*
X83088491Y-85004439D01*
X82888491Y-85004439D01*
X82888491Y-84104439D01*
G37*
X78838491Y-84404439D02*
X80638491Y-84404439D01*
X80638491Y-85304439D01*
X78838491Y-85304439D01*
X78838491Y-84404439D01*
X83038491Y-81154439D02*
X83238491Y-81154439D01*
X83238491Y-82054439D01*
X83038491Y-82054439D01*
X83038491Y-81154439D01*
G36*
X83038491Y-81154439D02*
G01*
X83238491Y-81154439D01*
X83238491Y-82054439D01*
X83038491Y-82054439D01*
X83038491Y-81154439D01*
G37*
X63138491Y-77204439D02*
X64038491Y-77204439D01*
X64038491Y-79004439D01*
X63138491Y-79004439D01*
X63138491Y-77204439D01*
X61238491Y-77304439D02*
X62138491Y-77304439D01*
X62138491Y-79104439D01*
X61238491Y-79104439D01*
X61238491Y-77304439D01*
X78088491Y-87204439D02*
X79888491Y-87204439D01*
X79888491Y-88104439D01*
X78088491Y-88104439D01*
X78088491Y-87204439D01*
X84738491Y-84104439D02*
X84938491Y-84104439D01*
X84938491Y-85004439D01*
X84738491Y-85004439D01*
X84738491Y-84104439D01*
G36*
X84738491Y-84104439D02*
G01*
X84938491Y-84104439D01*
X84938491Y-85004439D01*
X84738491Y-85004439D01*
X84738491Y-84104439D01*
G37*
X86188491Y-80254439D02*
X87088491Y-80254439D01*
X87088491Y-82054439D01*
X86188491Y-82054439D01*
X86188491Y-80254439D01*
X78638491Y-80204439D02*
X80438491Y-80204439D01*
X80438491Y-81104439D01*
X78638491Y-81104439D01*
X78638491Y-80204439D01*
X87688491Y-85104439D02*
X89488491Y-85104439D01*
X89488491Y-86004439D01*
X87688491Y-86004439D01*
X87688491Y-85104439D01*
X65188491Y-76454439D02*
X66088491Y-76454439D01*
X66088491Y-78254439D01*
X65188491Y-78254439D01*
X65188491Y-76454439D01*
X61238491Y-80354439D02*
X62138491Y-80354439D01*
X62138491Y-82154439D01*
X61238491Y-82154439D01*
X61238491Y-80354439D01*
X79438491Y-81204439D02*
X81238491Y-81204439D01*
X81238491Y-82104439D01*
X79438491Y-82104439D01*
X79438491Y-81204439D01*
X85288491Y-85104439D02*
X85488491Y-85104439D01*
X85488491Y-86004439D01*
X85288491Y-86004439D01*
X85288491Y-85104439D01*
G36*
X85288491Y-85104439D02*
G01*
X85488491Y-85104439D01*
X85488491Y-86004439D01*
X85288491Y-86004439D01*
X85288491Y-85104439D01*
G37*
X85288491Y-81054439D02*
X86188491Y-81054439D01*
X86188491Y-81254439D01*
X85288491Y-81254439D01*
X85288491Y-81054439D01*
G36*
X85288491Y-81054439D02*
G01*
X86188491Y-81054439D01*
X86188491Y-81254439D01*
X85288491Y-81254439D01*
X85288491Y-81054439D01*
G37*
X79738491Y-76454439D02*
X80638491Y-76454439D01*
X80638491Y-78254439D01*
X79738491Y-78254439D01*
X79738491Y-76454439D01*
X85288491Y-80254439D02*
X86188491Y-80254439D01*
X86188491Y-82054439D01*
X85288491Y-82054439D01*
X85288491Y-80254439D01*
X65138491Y-81254439D02*
X66038491Y-81254439D01*
X66038491Y-83054439D01*
X65138491Y-83054439D01*
X65138491Y-81254439D01*
X84488491Y-85104439D02*
X86288491Y-85104439D01*
X86288491Y-86004439D01*
X84488491Y-86004439D01*
X84488491Y-85104439D01*
X87188491Y-80304439D02*
X88988491Y-80304439D01*
X88988491Y-81204439D01*
X87188491Y-81204439D01*
X87188491Y-80304439D01*
X122792375Y-53195905D02*
X123554280Y-53195905D01*
X120792375Y-53245905D02*
X121554280Y-53245905D01*
X121173327Y-53626858D02*
X121173327Y-52864953D01*
D11*
X94719819Y-49243922D02*
X95719819Y-49577255D01*
X95719819Y-49577255D02*
X94719819Y-49910588D01*
X94719819Y-50101065D02*
X94719819Y-50672493D01*
X95719819Y-50386779D02*
X94719819Y-50386779D01*
X95719819Y-51577255D02*
X95243628Y-51243922D01*
X95719819Y-51005827D02*
X94719819Y-51005827D01*
X94719819Y-51005827D02*
X94719819Y-51386779D01*
X94719819Y-51386779D02*
X94767438Y-51482017D01*
X94767438Y-51482017D02*
X94815057Y-51529636D01*
X94815057Y-51529636D02*
X94910295Y-51577255D01*
X94910295Y-51577255D02*
X95053152Y-51577255D01*
X95053152Y-51577255D02*
X95148390Y-51529636D01*
X95148390Y-51529636D02*
X95196009Y-51482017D01*
X95196009Y-51482017D02*
X95243628Y-51386779D01*
X95243628Y-51386779D02*
X95243628Y-51005827D01*
X95196009Y-52005827D02*
X95196009Y-52339160D01*
X95719819Y-52482017D02*
X95719819Y-52005827D01*
X95719819Y-52005827D02*
X94719819Y-52005827D01*
X94719819Y-52005827D02*
X94719819Y-52482017D01*
X95196009Y-53243922D02*
X95196009Y-52910589D01*
X95719819Y-52910589D02*
X94719819Y-52910589D01*
X94719819Y-52910589D02*
X94719819Y-53386779D01*
X92167438Y-49710588D02*
X92119819Y-49615350D01*
X92119819Y-49615350D02*
X92119819Y-49472493D01*
X92119819Y-49472493D02*
X92167438Y-49329636D01*
X92167438Y-49329636D02*
X92262676Y-49234398D01*
X92262676Y-49234398D02*
X92357914Y-49186779D01*
X92357914Y-49186779D02*
X92548390Y-49139160D01*
X92548390Y-49139160D02*
X92691247Y-49139160D01*
X92691247Y-49139160D02*
X92881723Y-49186779D01*
X92881723Y-49186779D02*
X92976961Y-49234398D01*
X92976961Y-49234398D02*
X93072200Y-49329636D01*
X93072200Y-49329636D02*
X93119819Y-49472493D01*
X93119819Y-49472493D02*
X93119819Y-49567731D01*
X93119819Y-49567731D02*
X93072200Y-49710588D01*
X93072200Y-49710588D02*
X93024580Y-49758207D01*
X93024580Y-49758207D02*
X92691247Y-49758207D01*
X92691247Y-49758207D02*
X92691247Y-49567731D01*
X93119819Y-50186779D02*
X92119819Y-50186779D01*
X92119819Y-50186779D02*
X93119819Y-50758207D01*
X93119819Y-50758207D02*
X92119819Y-50758207D01*
X93119819Y-51234398D02*
X92119819Y-51234398D01*
X92119819Y-51234398D02*
X92119819Y-51472493D01*
X92119819Y-51472493D02*
X92167438Y-51615350D01*
X92167438Y-51615350D02*
X92262676Y-51710588D01*
X92262676Y-51710588D02*
X92357914Y-51758207D01*
X92357914Y-51758207D02*
X92548390Y-51805826D01*
X92548390Y-51805826D02*
X92691247Y-51805826D01*
X92691247Y-51805826D02*
X92881723Y-51758207D01*
X92881723Y-51758207D02*
X92976961Y-51710588D01*
X92976961Y-51710588D02*
X93072200Y-51615350D01*
X93072200Y-51615350D02*
X93119819Y-51472493D01*
X93119819Y-51472493D02*
X93119819Y-51234398D01*
X89519819Y-49193922D02*
X89519819Y-49765350D01*
X90519819Y-49479636D02*
X89519819Y-49479636D01*
X89519819Y-50003446D02*
X90519819Y-50670112D01*
X89519819Y-50670112D02*
X90519819Y-50003446D01*
X108565323Y-90736139D02*
X108422466Y-90783758D01*
X108422466Y-90783758D02*
X108184371Y-90783758D01*
X108184371Y-90783758D02*
X108089133Y-90736139D01*
X108089133Y-90736139D02*
X108041514Y-90688519D01*
X108041514Y-90688519D02*
X107993895Y-90593281D01*
X107993895Y-90593281D02*
X107993895Y-90498043D01*
X107993895Y-90498043D02*
X108041514Y-90402805D01*
X108041514Y-90402805D02*
X108089133Y-90355186D01*
X108089133Y-90355186D02*
X108184371Y-90307567D01*
X108184371Y-90307567D02*
X108374847Y-90259948D01*
X108374847Y-90259948D02*
X108470085Y-90212329D01*
X108470085Y-90212329D02*
X108517704Y-90164710D01*
X108517704Y-90164710D02*
X108565323Y-90069472D01*
X108565323Y-90069472D02*
X108565323Y-89974234D01*
X108565323Y-89974234D02*
X108517704Y-89878996D01*
X108517704Y-89878996D02*
X108470085Y-89831377D01*
X108470085Y-89831377D02*
X108374847Y-89783758D01*
X108374847Y-89783758D02*
X108136752Y-89783758D01*
X108136752Y-89783758D02*
X107993895Y-89831377D01*
X107660561Y-89783758D02*
X107422466Y-90783758D01*
X107422466Y-90783758D02*
X107231990Y-90069472D01*
X107231990Y-90069472D02*
X107041514Y-90783758D01*
X107041514Y-90783758D02*
X106803419Y-89783758D01*
X106470085Y-89878996D02*
X106422466Y-89831377D01*
X106422466Y-89831377D02*
X106327228Y-89783758D01*
X106327228Y-89783758D02*
X106089133Y-89783758D01*
X106089133Y-89783758D02*
X105993895Y-89831377D01*
X105993895Y-89831377D02*
X105946276Y-89878996D01*
X105946276Y-89878996D02*
X105898657Y-89974234D01*
X105898657Y-89974234D02*
X105898657Y-90069472D01*
X105898657Y-90069472D02*
X105946276Y-90212329D01*
X105946276Y-90212329D02*
X106517704Y-90783758D01*
X106517704Y-90783758D02*
X105898657Y-90783758D01*
X99484823Y-54604639D02*
X99341966Y-54652258D01*
X99341966Y-54652258D02*
X99103871Y-54652258D01*
X99103871Y-54652258D02*
X99008633Y-54604639D01*
X99008633Y-54604639D02*
X98961014Y-54557019D01*
X98961014Y-54557019D02*
X98913395Y-54461781D01*
X98913395Y-54461781D02*
X98913395Y-54366543D01*
X98913395Y-54366543D02*
X98961014Y-54271305D01*
X98961014Y-54271305D02*
X99008633Y-54223686D01*
X99008633Y-54223686D02*
X99103871Y-54176067D01*
X99103871Y-54176067D02*
X99294347Y-54128448D01*
X99294347Y-54128448D02*
X99389585Y-54080829D01*
X99389585Y-54080829D02*
X99437204Y-54033210D01*
X99437204Y-54033210D02*
X99484823Y-53937972D01*
X99484823Y-53937972D02*
X99484823Y-53842734D01*
X99484823Y-53842734D02*
X99437204Y-53747496D01*
X99437204Y-53747496D02*
X99389585Y-53699877D01*
X99389585Y-53699877D02*
X99294347Y-53652258D01*
X99294347Y-53652258D02*
X99056252Y-53652258D01*
X99056252Y-53652258D02*
X98913395Y-53699877D01*
X98580061Y-53652258D02*
X98341966Y-54652258D01*
X98341966Y-54652258D02*
X98151490Y-53937972D01*
X98151490Y-53937972D02*
X97961014Y-54652258D01*
X97961014Y-54652258D02*
X97722919Y-53652258D01*
X96818157Y-54652258D02*
X97389585Y-54652258D01*
X97103871Y-54652258D02*
X97103871Y-53652258D01*
X97103871Y-53652258D02*
X97199109Y-53795115D01*
X97199109Y-53795115D02*
X97294347Y-53890353D01*
X97294347Y-53890353D02*
X97389585Y-53937972D01*
D12*
X65926155Y-74540153D02*
X65964251Y-74502057D01*
X65964251Y-74502057D02*
X66002346Y-74387772D01*
X66002346Y-74387772D02*
X66002346Y-74311581D01*
X66002346Y-74311581D02*
X65964251Y-74197295D01*
X65964251Y-74197295D02*
X65888060Y-74121105D01*
X65888060Y-74121105D02*
X65811870Y-74083010D01*
X65811870Y-74083010D02*
X65659489Y-74044914D01*
X65659489Y-74044914D02*
X65545203Y-74044914D01*
X65545203Y-74044914D02*
X65392822Y-74083010D01*
X65392822Y-74083010D02*
X65316631Y-74121105D01*
X65316631Y-74121105D02*
X65240441Y-74197295D01*
X65240441Y-74197295D02*
X65202346Y-74311581D01*
X65202346Y-74311581D02*
X65202346Y-74387772D01*
X65202346Y-74387772D02*
X65240441Y-74502057D01*
X65240441Y-74502057D02*
X65278536Y-74540153D01*
X65545203Y-74997295D02*
X65507108Y-74921105D01*
X65507108Y-74921105D02*
X65469012Y-74883010D01*
X65469012Y-74883010D02*
X65392822Y-74844914D01*
X65392822Y-74844914D02*
X65354727Y-74844914D01*
X65354727Y-74844914D02*
X65278536Y-74883010D01*
X65278536Y-74883010D02*
X65240441Y-74921105D01*
X65240441Y-74921105D02*
X65202346Y-74997295D01*
X65202346Y-74997295D02*
X65202346Y-75149676D01*
X65202346Y-75149676D02*
X65240441Y-75225867D01*
X65240441Y-75225867D02*
X65278536Y-75263962D01*
X65278536Y-75263962D02*
X65354727Y-75302057D01*
X65354727Y-75302057D02*
X65392822Y-75302057D01*
X65392822Y-75302057D02*
X65469012Y-75263962D01*
X65469012Y-75263962D02*
X65507108Y-75225867D01*
X65507108Y-75225867D02*
X65545203Y-75149676D01*
X65545203Y-75149676D02*
X65545203Y-74997295D01*
X65545203Y-74997295D02*
X65583298Y-74921105D01*
X65583298Y-74921105D02*
X65621393Y-74883010D01*
X65621393Y-74883010D02*
X65697584Y-74844914D01*
X65697584Y-74844914D02*
X65849965Y-74844914D01*
X65849965Y-74844914D02*
X65926155Y-74883010D01*
X65926155Y-74883010D02*
X65964251Y-74921105D01*
X65964251Y-74921105D02*
X66002346Y-74997295D01*
X66002346Y-74997295D02*
X66002346Y-75149676D01*
X66002346Y-75149676D02*
X65964251Y-75225867D01*
X65964251Y-75225867D02*
X65926155Y-75263962D01*
X65926155Y-75263962D02*
X65849965Y-75302057D01*
X65849965Y-75302057D02*
X65697584Y-75302057D01*
X65697584Y-75302057D02*
X65621393Y-75263962D01*
X65621393Y-75263962D02*
X65583298Y-75225867D01*
X65583298Y-75225867D02*
X65545203Y-75149676D01*
X65202346Y-75797296D02*
X65202346Y-75873486D01*
X65202346Y-75873486D02*
X65240441Y-75949677D01*
X65240441Y-75949677D02*
X65278536Y-75987772D01*
X65278536Y-75987772D02*
X65354727Y-76025867D01*
X65354727Y-76025867D02*
X65507108Y-76063962D01*
X65507108Y-76063962D02*
X65697584Y-76063962D01*
X65697584Y-76063962D02*
X65849965Y-76025867D01*
X65849965Y-76025867D02*
X65926155Y-75987772D01*
X65926155Y-75987772D02*
X65964251Y-75949677D01*
X65964251Y-75949677D02*
X66002346Y-75873486D01*
X66002346Y-75873486D02*
X66002346Y-75797296D01*
X66002346Y-75797296D02*
X65964251Y-75721105D01*
X65964251Y-75721105D02*
X65926155Y-75683010D01*
X65926155Y-75683010D02*
X65849965Y-75644915D01*
X65849965Y-75644915D02*
X65697584Y-75606819D01*
X65697584Y-75606819D02*
X65507108Y-75606819D01*
X65507108Y-75606819D02*
X65354727Y-75644915D01*
X65354727Y-75644915D02*
X65278536Y-75683010D01*
X65278536Y-75683010D02*
X65240441Y-75721105D01*
X65240441Y-75721105D02*
X65202346Y-75797296D01*
D11*
X48231348Y-101009258D02*
X48564681Y-100533067D01*
X48802776Y-101009258D02*
X48802776Y-100009258D01*
X48802776Y-100009258D02*
X48421824Y-100009258D01*
X48421824Y-100009258D02*
X48326586Y-100056877D01*
X48326586Y-100056877D02*
X48278967Y-100104496D01*
X48278967Y-100104496D02*
X48231348Y-100199734D01*
X48231348Y-100199734D02*
X48231348Y-100342591D01*
X48231348Y-100342591D02*
X48278967Y-100437829D01*
X48278967Y-100437829D02*
X48326586Y-100485448D01*
X48326586Y-100485448D02*
X48421824Y-100533067D01*
X48421824Y-100533067D02*
X48802776Y-100533067D01*
X47850395Y-100104496D02*
X47802776Y-100056877D01*
X47802776Y-100056877D02*
X47707538Y-100009258D01*
X47707538Y-100009258D02*
X47469443Y-100009258D01*
X47469443Y-100009258D02*
X47374205Y-100056877D01*
X47374205Y-100056877D02*
X47326586Y-100104496D01*
X47326586Y-100104496D02*
X47278967Y-100199734D01*
X47278967Y-100199734D02*
X47278967Y-100294972D01*
X47278967Y-100294972D02*
X47326586Y-100437829D01*
X47326586Y-100437829D02*
X47898014Y-101009258D01*
X47898014Y-101009258D02*
X47278967Y-101009258D01*
X46945633Y-100009258D02*
X46278967Y-100009258D01*
X46278967Y-100009258D02*
X46707538Y-101009258D01*
D12*
X92776155Y-80540153D02*
X92814251Y-80502057D01*
X92814251Y-80502057D02*
X92852346Y-80387772D01*
X92852346Y-80387772D02*
X92852346Y-80311581D01*
X92852346Y-80311581D02*
X92814251Y-80197295D01*
X92814251Y-80197295D02*
X92738060Y-80121105D01*
X92738060Y-80121105D02*
X92661870Y-80083010D01*
X92661870Y-80083010D02*
X92509489Y-80044914D01*
X92509489Y-80044914D02*
X92395203Y-80044914D01*
X92395203Y-80044914D02*
X92242822Y-80083010D01*
X92242822Y-80083010D02*
X92166631Y-80121105D01*
X92166631Y-80121105D02*
X92090441Y-80197295D01*
X92090441Y-80197295D02*
X92052346Y-80311581D01*
X92052346Y-80311581D02*
X92052346Y-80387772D01*
X92052346Y-80387772D02*
X92090441Y-80502057D01*
X92090441Y-80502057D02*
X92128536Y-80540153D01*
X92052346Y-80806819D02*
X92052346Y-81302057D01*
X92052346Y-81302057D02*
X92357108Y-81035391D01*
X92357108Y-81035391D02*
X92357108Y-81149676D01*
X92357108Y-81149676D02*
X92395203Y-81225867D01*
X92395203Y-81225867D02*
X92433298Y-81263962D01*
X92433298Y-81263962D02*
X92509489Y-81302057D01*
X92509489Y-81302057D02*
X92699965Y-81302057D01*
X92699965Y-81302057D02*
X92776155Y-81263962D01*
X92776155Y-81263962D02*
X92814251Y-81225867D01*
X92814251Y-81225867D02*
X92852346Y-81149676D01*
X92852346Y-81149676D02*
X92852346Y-80921105D01*
X92852346Y-80921105D02*
X92814251Y-80844914D01*
X92814251Y-80844914D02*
X92776155Y-80806819D01*
X92052346Y-82025867D02*
X92052346Y-81644915D01*
X92052346Y-81644915D02*
X92433298Y-81606819D01*
X92433298Y-81606819D02*
X92395203Y-81644915D01*
X92395203Y-81644915D02*
X92357108Y-81721105D01*
X92357108Y-81721105D02*
X92357108Y-81911581D01*
X92357108Y-81911581D02*
X92395203Y-81987772D01*
X92395203Y-81987772D02*
X92433298Y-82025867D01*
X92433298Y-82025867D02*
X92509489Y-82063962D01*
X92509489Y-82063962D02*
X92699965Y-82063962D01*
X92699965Y-82063962D02*
X92776155Y-82025867D01*
X92776155Y-82025867D02*
X92814251Y-81987772D01*
X92814251Y-81987772D02*
X92852346Y-81911581D01*
X92852346Y-81911581D02*
X92852346Y-81721105D01*
X92852346Y-81721105D02*
X92814251Y-81644915D01*
X92814251Y-81644915D02*
X92776155Y-81606819D01*
X90326155Y-76940153D02*
X90364251Y-76902057D01*
X90364251Y-76902057D02*
X90402346Y-76787772D01*
X90402346Y-76787772D02*
X90402346Y-76711581D01*
X90402346Y-76711581D02*
X90364251Y-76597295D01*
X90364251Y-76597295D02*
X90288060Y-76521105D01*
X90288060Y-76521105D02*
X90211870Y-76483010D01*
X90211870Y-76483010D02*
X90059489Y-76444914D01*
X90059489Y-76444914D02*
X89945203Y-76444914D01*
X89945203Y-76444914D02*
X89792822Y-76483010D01*
X89792822Y-76483010D02*
X89716631Y-76521105D01*
X89716631Y-76521105D02*
X89640441Y-76597295D01*
X89640441Y-76597295D02*
X89602346Y-76711581D01*
X89602346Y-76711581D02*
X89602346Y-76787772D01*
X89602346Y-76787772D02*
X89640441Y-76902057D01*
X89640441Y-76902057D02*
X89678536Y-76940153D01*
X89602346Y-77625867D02*
X89602346Y-77473486D01*
X89602346Y-77473486D02*
X89640441Y-77397295D01*
X89640441Y-77397295D02*
X89678536Y-77359200D01*
X89678536Y-77359200D02*
X89792822Y-77283010D01*
X89792822Y-77283010D02*
X89945203Y-77244914D01*
X89945203Y-77244914D02*
X90249965Y-77244914D01*
X90249965Y-77244914D02*
X90326155Y-77283010D01*
X90326155Y-77283010D02*
X90364251Y-77321105D01*
X90364251Y-77321105D02*
X90402346Y-77397295D01*
X90402346Y-77397295D02*
X90402346Y-77549676D01*
X90402346Y-77549676D02*
X90364251Y-77625867D01*
X90364251Y-77625867D02*
X90326155Y-77663962D01*
X90326155Y-77663962D02*
X90249965Y-77702057D01*
X90249965Y-77702057D02*
X90059489Y-77702057D01*
X90059489Y-77702057D02*
X89983298Y-77663962D01*
X89983298Y-77663962D02*
X89945203Y-77625867D01*
X89945203Y-77625867D02*
X89907108Y-77549676D01*
X89907108Y-77549676D02*
X89907108Y-77397295D01*
X89907108Y-77397295D02*
X89945203Y-77321105D01*
X89945203Y-77321105D02*
X89983298Y-77283010D01*
X89983298Y-77283010D02*
X90059489Y-77244914D01*
X89602346Y-77968724D02*
X89602346Y-78463962D01*
X89602346Y-78463962D02*
X89907108Y-78197296D01*
X89907108Y-78197296D02*
X89907108Y-78311581D01*
X89907108Y-78311581D02*
X89945203Y-78387772D01*
X89945203Y-78387772D02*
X89983298Y-78425867D01*
X89983298Y-78425867D02*
X90059489Y-78463962D01*
X90059489Y-78463962D02*
X90249965Y-78463962D01*
X90249965Y-78463962D02*
X90326155Y-78425867D01*
X90326155Y-78425867D02*
X90364251Y-78387772D01*
X90364251Y-78387772D02*
X90402346Y-78311581D01*
X90402346Y-78311581D02*
X90402346Y-78083010D01*
X90402346Y-78083010D02*
X90364251Y-78006819D01*
X90364251Y-78006819D02*
X90326155Y-77968724D01*
D11*
X80875310Y-133637915D02*
X81589595Y-133637915D01*
X81589595Y-133637915D02*
X81732452Y-133590296D01*
X81732452Y-133590296D02*
X81827691Y-133495058D01*
X81827691Y-133495058D02*
X81875310Y-133352201D01*
X81875310Y-133352201D02*
X81875310Y-133256963D01*
X81875310Y-134637915D02*
X81875310Y-134066487D01*
X81875310Y-134352201D02*
X80875310Y-134352201D01*
X80875310Y-134352201D02*
X81018167Y-134256963D01*
X81018167Y-134256963D02*
X81113405Y-134161725D01*
X81113405Y-134161725D02*
X81161024Y-134066487D01*
X81875310Y-135590296D02*
X81875310Y-135018868D01*
X81875310Y-135304582D02*
X80875310Y-135304582D01*
X80875310Y-135304582D02*
X81018167Y-135209344D01*
X81018167Y-135209344D02*
X81113405Y-135114106D01*
X81113405Y-135114106D02*
X81161024Y-135018868D01*
X141093310Y-96961581D02*
X140617119Y-96628248D01*
X141093310Y-96390153D02*
X140093310Y-96390153D01*
X140093310Y-96390153D02*
X140093310Y-96771105D01*
X140093310Y-96771105D02*
X140140929Y-96866343D01*
X140140929Y-96866343D02*
X140188548Y-96913962D01*
X140188548Y-96913962D02*
X140283786Y-96961581D01*
X140283786Y-96961581D02*
X140426643Y-96961581D01*
X140426643Y-96961581D02*
X140521881Y-96913962D01*
X140521881Y-96913962D02*
X140569500Y-96866343D01*
X140569500Y-96866343D02*
X140617119Y-96771105D01*
X140617119Y-96771105D02*
X140617119Y-96390153D01*
X141093310Y-97913962D02*
X141093310Y-97342534D01*
X141093310Y-97628248D02*
X140093310Y-97628248D01*
X140093310Y-97628248D02*
X140236167Y-97533010D01*
X140236167Y-97533010D02*
X140331405Y-97437772D01*
X140331405Y-97437772D02*
X140379024Y-97342534D01*
X140093310Y-98771105D02*
X140093310Y-98580629D01*
X140093310Y-98580629D02*
X140140929Y-98485391D01*
X140140929Y-98485391D02*
X140188548Y-98437772D01*
X140188548Y-98437772D02*
X140331405Y-98342534D01*
X140331405Y-98342534D02*
X140521881Y-98294915D01*
X140521881Y-98294915D02*
X140902833Y-98294915D01*
X140902833Y-98294915D02*
X140998071Y-98342534D01*
X140998071Y-98342534D02*
X141045691Y-98390153D01*
X141045691Y-98390153D02*
X141093310Y-98485391D01*
X141093310Y-98485391D02*
X141093310Y-98675867D01*
X141093310Y-98675867D02*
X141045691Y-98771105D01*
X141045691Y-98771105D02*
X140998071Y-98818724D01*
X140998071Y-98818724D02*
X140902833Y-98866343D01*
X140902833Y-98866343D02*
X140664738Y-98866343D01*
X140664738Y-98866343D02*
X140569500Y-98818724D01*
X140569500Y-98818724D02*
X140521881Y-98771105D01*
X140521881Y-98771105D02*
X140474262Y-98675867D01*
X140474262Y-98675867D02*
X140474262Y-98485391D01*
X140474262Y-98485391D02*
X140521881Y-98390153D01*
X140521881Y-98390153D02*
X140569500Y-98342534D01*
X140569500Y-98342534D02*
X140664738Y-98294915D01*
D12*
X95152776Y-85092103D02*
X95190872Y-85130199D01*
X95190872Y-85130199D02*
X95305157Y-85168294D01*
X95305157Y-85168294D02*
X95381348Y-85168294D01*
X95381348Y-85168294D02*
X95495634Y-85130199D01*
X95495634Y-85130199D02*
X95571824Y-85054008D01*
X95571824Y-85054008D02*
X95609919Y-84977818D01*
X95609919Y-84977818D02*
X95648015Y-84825437D01*
X95648015Y-84825437D02*
X95648015Y-84711151D01*
X95648015Y-84711151D02*
X95609919Y-84558770D01*
X95609919Y-84558770D02*
X95571824Y-84482579D01*
X95571824Y-84482579D02*
X95495634Y-84406389D01*
X95495634Y-84406389D02*
X95381348Y-84368294D01*
X95381348Y-84368294D02*
X95305157Y-84368294D01*
X95305157Y-84368294D02*
X95190872Y-84406389D01*
X95190872Y-84406389D02*
X95152776Y-84444484D01*
X94428967Y-84368294D02*
X94809919Y-84368294D01*
X94809919Y-84368294D02*
X94848015Y-84749246D01*
X94848015Y-84749246D02*
X94809919Y-84711151D01*
X94809919Y-84711151D02*
X94733729Y-84673056D01*
X94733729Y-84673056D02*
X94543253Y-84673056D01*
X94543253Y-84673056D02*
X94467062Y-84711151D01*
X94467062Y-84711151D02*
X94428967Y-84749246D01*
X94428967Y-84749246D02*
X94390872Y-84825437D01*
X94390872Y-84825437D02*
X94390872Y-85015913D01*
X94390872Y-85015913D02*
X94428967Y-85092103D01*
X94428967Y-85092103D02*
X94467062Y-85130199D01*
X94467062Y-85130199D02*
X94543253Y-85168294D01*
X94543253Y-85168294D02*
X94733729Y-85168294D01*
X94733729Y-85168294D02*
X94809919Y-85130199D01*
X94809919Y-85130199D02*
X94848015Y-85092103D01*
X93705157Y-84368294D02*
X93857538Y-84368294D01*
X93857538Y-84368294D02*
X93933729Y-84406389D01*
X93933729Y-84406389D02*
X93971824Y-84444484D01*
X93971824Y-84444484D02*
X94048014Y-84558770D01*
X94048014Y-84558770D02*
X94086110Y-84711151D01*
X94086110Y-84711151D02*
X94086110Y-85015913D01*
X94086110Y-85015913D02*
X94048014Y-85092103D01*
X94048014Y-85092103D02*
X94009919Y-85130199D01*
X94009919Y-85130199D02*
X93933729Y-85168294D01*
X93933729Y-85168294D02*
X93781348Y-85168294D01*
X93781348Y-85168294D02*
X93705157Y-85130199D01*
X93705157Y-85130199D02*
X93667062Y-85092103D01*
X93667062Y-85092103D02*
X93628967Y-85015913D01*
X93628967Y-85015913D02*
X93628967Y-84825437D01*
X93628967Y-84825437D02*
X93667062Y-84749246D01*
X93667062Y-84749246D02*
X93705157Y-84711151D01*
X93705157Y-84711151D02*
X93781348Y-84673056D01*
X93781348Y-84673056D02*
X93933729Y-84673056D01*
X93933729Y-84673056D02*
X94009919Y-84711151D01*
X94009919Y-84711151D02*
X94048014Y-84749246D01*
X94048014Y-84749246D02*
X94086110Y-84825437D01*
X92152776Y-83992103D02*
X92190872Y-84030199D01*
X92190872Y-84030199D02*
X92305157Y-84068294D01*
X92305157Y-84068294D02*
X92381348Y-84068294D01*
X92381348Y-84068294D02*
X92495634Y-84030199D01*
X92495634Y-84030199D02*
X92571824Y-83954008D01*
X92571824Y-83954008D02*
X92609919Y-83877818D01*
X92609919Y-83877818D02*
X92648015Y-83725437D01*
X92648015Y-83725437D02*
X92648015Y-83611151D01*
X92648015Y-83611151D02*
X92609919Y-83458770D01*
X92609919Y-83458770D02*
X92571824Y-83382579D01*
X92571824Y-83382579D02*
X92495634Y-83306389D01*
X92495634Y-83306389D02*
X92381348Y-83268294D01*
X92381348Y-83268294D02*
X92305157Y-83268294D01*
X92305157Y-83268294D02*
X92190872Y-83306389D01*
X92190872Y-83306389D02*
X92152776Y-83344484D01*
X91467062Y-83268294D02*
X91619443Y-83268294D01*
X91619443Y-83268294D02*
X91695634Y-83306389D01*
X91695634Y-83306389D02*
X91733729Y-83344484D01*
X91733729Y-83344484D02*
X91809919Y-83458770D01*
X91809919Y-83458770D02*
X91848015Y-83611151D01*
X91848015Y-83611151D02*
X91848015Y-83915913D01*
X91848015Y-83915913D02*
X91809919Y-83992103D01*
X91809919Y-83992103D02*
X91771824Y-84030199D01*
X91771824Y-84030199D02*
X91695634Y-84068294D01*
X91695634Y-84068294D02*
X91543253Y-84068294D01*
X91543253Y-84068294D02*
X91467062Y-84030199D01*
X91467062Y-84030199D02*
X91428967Y-83992103D01*
X91428967Y-83992103D02*
X91390872Y-83915913D01*
X91390872Y-83915913D02*
X91390872Y-83725437D01*
X91390872Y-83725437D02*
X91428967Y-83649246D01*
X91428967Y-83649246D02*
X91467062Y-83611151D01*
X91467062Y-83611151D02*
X91543253Y-83573056D01*
X91543253Y-83573056D02*
X91695634Y-83573056D01*
X91695634Y-83573056D02*
X91771824Y-83611151D01*
X91771824Y-83611151D02*
X91809919Y-83649246D01*
X91809919Y-83649246D02*
X91848015Y-83725437D01*
X90705157Y-83268294D02*
X90857538Y-83268294D01*
X90857538Y-83268294D02*
X90933729Y-83306389D01*
X90933729Y-83306389D02*
X90971824Y-83344484D01*
X90971824Y-83344484D02*
X91048014Y-83458770D01*
X91048014Y-83458770D02*
X91086110Y-83611151D01*
X91086110Y-83611151D02*
X91086110Y-83915913D01*
X91086110Y-83915913D02*
X91048014Y-83992103D01*
X91048014Y-83992103D02*
X91009919Y-84030199D01*
X91009919Y-84030199D02*
X90933729Y-84068294D01*
X90933729Y-84068294D02*
X90781348Y-84068294D01*
X90781348Y-84068294D02*
X90705157Y-84030199D01*
X90705157Y-84030199D02*
X90667062Y-83992103D01*
X90667062Y-83992103D02*
X90628967Y-83915913D01*
X90628967Y-83915913D02*
X90628967Y-83725437D01*
X90628967Y-83725437D02*
X90667062Y-83649246D01*
X90667062Y-83649246D02*
X90705157Y-83611151D01*
X90705157Y-83611151D02*
X90781348Y-83573056D01*
X90781348Y-83573056D02*
X90933729Y-83573056D01*
X90933729Y-83573056D02*
X91009919Y-83611151D01*
X91009919Y-83611151D02*
X91048014Y-83649246D01*
X91048014Y-83649246D02*
X91086110Y-83725437D01*
X62076155Y-83190153D02*
X62114251Y-83152057D01*
X62114251Y-83152057D02*
X62152346Y-83037772D01*
X62152346Y-83037772D02*
X62152346Y-82961581D01*
X62152346Y-82961581D02*
X62114251Y-82847295D01*
X62114251Y-82847295D02*
X62038060Y-82771105D01*
X62038060Y-82771105D02*
X61961870Y-82733010D01*
X61961870Y-82733010D02*
X61809489Y-82694914D01*
X61809489Y-82694914D02*
X61695203Y-82694914D01*
X61695203Y-82694914D02*
X61542822Y-82733010D01*
X61542822Y-82733010D02*
X61466631Y-82771105D01*
X61466631Y-82771105D02*
X61390441Y-82847295D01*
X61390441Y-82847295D02*
X61352346Y-82961581D01*
X61352346Y-82961581D02*
X61352346Y-83037772D01*
X61352346Y-83037772D02*
X61390441Y-83152057D01*
X61390441Y-83152057D02*
X61428536Y-83190153D01*
X62152346Y-83571105D02*
X62152346Y-83723486D01*
X62152346Y-83723486D02*
X62114251Y-83799676D01*
X62114251Y-83799676D02*
X62076155Y-83837772D01*
X62076155Y-83837772D02*
X61961870Y-83913962D01*
X61961870Y-83913962D02*
X61809489Y-83952057D01*
X61809489Y-83952057D02*
X61504727Y-83952057D01*
X61504727Y-83952057D02*
X61428536Y-83913962D01*
X61428536Y-83913962D02*
X61390441Y-83875867D01*
X61390441Y-83875867D02*
X61352346Y-83799676D01*
X61352346Y-83799676D02*
X61352346Y-83647295D01*
X61352346Y-83647295D02*
X61390441Y-83571105D01*
X61390441Y-83571105D02*
X61428536Y-83533010D01*
X61428536Y-83533010D02*
X61504727Y-83494914D01*
X61504727Y-83494914D02*
X61695203Y-83494914D01*
X61695203Y-83494914D02*
X61771393Y-83533010D01*
X61771393Y-83533010D02*
X61809489Y-83571105D01*
X61809489Y-83571105D02*
X61847584Y-83647295D01*
X61847584Y-83647295D02*
X61847584Y-83799676D01*
X61847584Y-83799676D02*
X61809489Y-83875867D01*
X61809489Y-83875867D02*
X61771393Y-83913962D01*
X61771393Y-83913962D02*
X61695203Y-83952057D01*
X61352346Y-84218724D02*
X61352346Y-84713962D01*
X61352346Y-84713962D02*
X61657108Y-84447296D01*
X61657108Y-84447296D02*
X61657108Y-84561581D01*
X61657108Y-84561581D02*
X61695203Y-84637772D01*
X61695203Y-84637772D02*
X61733298Y-84675867D01*
X61733298Y-84675867D02*
X61809489Y-84713962D01*
X61809489Y-84713962D02*
X61999965Y-84713962D01*
X61999965Y-84713962D02*
X62076155Y-84675867D01*
X62076155Y-84675867D02*
X62114251Y-84637772D01*
X62114251Y-84637772D02*
X62152346Y-84561581D01*
X62152346Y-84561581D02*
X62152346Y-84333010D01*
X62152346Y-84333010D02*
X62114251Y-84256819D01*
X62114251Y-84256819D02*
X62076155Y-84218724D01*
X83602776Y-79942103D02*
X83640872Y-79980199D01*
X83640872Y-79980199D02*
X83755157Y-80018294D01*
X83755157Y-80018294D02*
X83831348Y-80018294D01*
X83831348Y-80018294D02*
X83945634Y-79980199D01*
X83945634Y-79980199D02*
X84021824Y-79904008D01*
X84021824Y-79904008D02*
X84059919Y-79827818D01*
X84059919Y-79827818D02*
X84098015Y-79675437D01*
X84098015Y-79675437D02*
X84098015Y-79561151D01*
X84098015Y-79561151D02*
X84059919Y-79408770D01*
X84059919Y-79408770D02*
X84021824Y-79332579D01*
X84021824Y-79332579D02*
X83945634Y-79256389D01*
X83945634Y-79256389D02*
X83831348Y-79218294D01*
X83831348Y-79218294D02*
X83755157Y-79218294D01*
X83755157Y-79218294D02*
X83640872Y-79256389D01*
X83640872Y-79256389D02*
X83602776Y-79294484D01*
X83298015Y-79294484D02*
X83259919Y-79256389D01*
X83259919Y-79256389D02*
X83183729Y-79218294D01*
X83183729Y-79218294D02*
X82993253Y-79218294D01*
X82993253Y-79218294D02*
X82917062Y-79256389D01*
X82917062Y-79256389D02*
X82878967Y-79294484D01*
X82878967Y-79294484D02*
X82840872Y-79370675D01*
X82840872Y-79370675D02*
X82840872Y-79446865D01*
X82840872Y-79446865D02*
X82878967Y-79561151D01*
X82878967Y-79561151D02*
X83336110Y-80018294D01*
X83336110Y-80018294D02*
X82840872Y-80018294D01*
X82459919Y-80018294D02*
X82307538Y-80018294D01*
X82307538Y-80018294D02*
X82231348Y-79980199D01*
X82231348Y-79980199D02*
X82193252Y-79942103D01*
X82193252Y-79942103D02*
X82117062Y-79827818D01*
X82117062Y-79827818D02*
X82078967Y-79675437D01*
X82078967Y-79675437D02*
X82078967Y-79370675D01*
X82078967Y-79370675D02*
X82117062Y-79294484D01*
X82117062Y-79294484D02*
X82155157Y-79256389D01*
X82155157Y-79256389D02*
X82231348Y-79218294D01*
X82231348Y-79218294D02*
X82383729Y-79218294D01*
X82383729Y-79218294D02*
X82459919Y-79256389D01*
X82459919Y-79256389D02*
X82498014Y-79294484D01*
X82498014Y-79294484D02*
X82536110Y-79370675D01*
X82536110Y-79370675D02*
X82536110Y-79561151D01*
X82536110Y-79561151D02*
X82498014Y-79637341D01*
X82498014Y-79637341D02*
X82459919Y-79675437D01*
X82459919Y-79675437D02*
X82383729Y-79713532D01*
X82383729Y-79713532D02*
X82231348Y-79713532D01*
X82231348Y-79713532D02*
X82155157Y-79675437D01*
X82155157Y-79675437D02*
X82117062Y-79637341D01*
X82117062Y-79637341D02*
X82078967Y-79561151D01*
X81126155Y-87990153D02*
X81164251Y-87952057D01*
X81164251Y-87952057D02*
X81202346Y-87837772D01*
X81202346Y-87837772D02*
X81202346Y-87761581D01*
X81202346Y-87761581D02*
X81164251Y-87647295D01*
X81164251Y-87647295D02*
X81088060Y-87571105D01*
X81088060Y-87571105D02*
X81011870Y-87533010D01*
X81011870Y-87533010D02*
X80859489Y-87494914D01*
X80859489Y-87494914D02*
X80745203Y-87494914D01*
X80745203Y-87494914D02*
X80592822Y-87533010D01*
X80592822Y-87533010D02*
X80516631Y-87571105D01*
X80516631Y-87571105D02*
X80440441Y-87647295D01*
X80440441Y-87647295D02*
X80402346Y-87761581D01*
X80402346Y-87761581D02*
X80402346Y-87837772D01*
X80402346Y-87837772D02*
X80440441Y-87952057D01*
X80440441Y-87952057D02*
X80478536Y-87990153D01*
X80669012Y-88675867D02*
X81202346Y-88675867D01*
X80364251Y-88485391D02*
X80935679Y-88294914D01*
X80935679Y-88294914D02*
X80935679Y-88790153D01*
X80669012Y-89437772D02*
X81202346Y-89437772D01*
X80364251Y-89247296D02*
X80935679Y-89056819D01*
X80935679Y-89056819D02*
X80935679Y-89552058D01*
D11*
X144193310Y-96961581D02*
X143717119Y-96628248D01*
X144193310Y-96390153D02*
X143193310Y-96390153D01*
X143193310Y-96390153D02*
X143193310Y-96771105D01*
X143193310Y-96771105D02*
X143240929Y-96866343D01*
X143240929Y-96866343D02*
X143288548Y-96913962D01*
X143288548Y-96913962D02*
X143383786Y-96961581D01*
X143383786Y-96961581D02*
X143526643Y-96961581D01*
X143526643Y-96961581D02*
X143621881Y-96913962D01*
X143621881Y-96913962D02*
X143669500Y-96866343D01*
X143669500Y-96866343D02*
X143717119Y-96771105D01*
X143717119Y-96771105D02*
X143717119Y-96390153D01*
X144193310Y-97913962D02*
X144193310Y-97342534D01*
X144193310Y-97628248D02*
X143193310Y-97628248D01*
X143193310Y-97628248D02*
X143336167Y-97533010D01*
X143336167Y-97533010D02*
X143431405Y-97437772D01*
X143431405Y-97437772D02*
X143479024Y-97342534D01*
X143193310Y-98247296D02*
X143193310Y-98913962D01*
X143193310Y-98913962D02*
X144193310Y-98485391D01*
D12*
X91702776Y-87092103D02*
X91740872Y-87130199D01*
X91740872Y-87130199D02*
X91855157Y-87168294D01*
X91855157Y-87168294D02*
X91931348Y-87168294D01*
X91931348Y-87168294D02*
X92045634Y-87130199D01*
X92045634Y-87130199D02*
X92121824Y-87054008D01*
X92121824Y-87054008D02*
X92159919Y-86977818D01*
X92159919Y-86977818D02*
X92198015Y-86825437D01*
X92198015Y-86825437D02*
X92198015Y-86711151D01*
X92198015Y-86711151D02*
X92159919Y-86558770D01*
X92159919Y-86558770D02*
X92121824Y-86482579D01*
X92121824Y-86482579D02*
X92045634Y-86406389D01*
X92045634Y-86406389D02*
X91931348Y-86368294D01*
X91931348Y-86368294D02*
X91855157Y-86368294D01*
X91855157Y-86368294D02*
X91740872Y-86406389D01*
X91740872Y-86406389D02*
X91702776Y-86444484D01*
X90940872Y-87168294D02*
X91398015Y-87168294D01*
X91169443Y-87168294D02*
X91169443Y-86368294D01*
X91169443Y-86368294D02*
X91245634Y-86482579D01*
X91245634Y-86482579D02*
X91321824Y-86558770D01*
X91321824Y-86558770D02*
X91398015Y-86596865D01*
X90674205Y-86368294D02*
X90178967Y-86368294D01*
X90178967Y-86368294D02*
X90445633Y-86673056D01*
X90445633Y-86673056D02*
X90331348Y-86673056D01*
X90331348Y-86673056D02*
X90255157Y-86711151D01*
X90255157Y-86711151D02*
X90217062Y-86749246D01*
X90217062Y-86749246D02*
X90178967Y-86825437D01*
X90178967Y-86825437D02*
X90178967Y-87015913D01*
X90178967Y-87015913D02*
X90217062Y-87092103D01*
X90217062Y-87092103D02*
X90255157Y-87130199D01*
X90255157Y-87130199D02*
X90331348Y-87168294D01*
X90331348Y-87168294D02*
X90559919Y-87168294D01*
X90559919Y-87168294D02*
X90636110Y-87130199D01*
X90636110Y-87130199D02*
X90674205Y-87092103D01*
D11*
X139543310Y-96961581D02*
X139067119Y-96628248D01*
X139543310Y-96390153D02*
X138543310Y-96390153D01*
X138543310Y-96390153D02*
X138543310Y-96771105D01*
X138543310Y-96771105D02*
X138590929Y-96866343D01*
X138590929Y-96866343D02*
X138638548Y-96913962D01*
X138638548Y-96913962D02*
X138733786Y-96961581D01*
X138733786Y-96961581D02*
X138876643Y-96961581D01*
X138876643Y-96961581D02*
X138971881Y-96913962D01*
X138971881Y-96913962D02*
X139019500Y-96866343D01*
X139019500Y-96866343D02*
X139067119Y-96771105D01*
X139067119Y-96771105D02*
X139067119Y-96390153D01*
X139543310Y-97913962D02*
X139543310Y-97342534D01*
X139543310Y-97628248D02*
X138543310Y-97628248D01*
X138543310Y-97628248D02*
X138686167Y-97533010D01*
X138686167Y-97533010D02*
X138781405Y-97437772D01*
X138781405Y-97437772D02*
X138829024Y-97342534D01*
X138971881Y-98485391D02*
X138924262Y-98390153D01*
X138924262Y-98390153D02*
X138876643Y-98342534D01*
X138876643Y-98342534D02*
X138781405Y-98294915D01*
X138781405Y-98294915D02*
X138733786Y-98294915D01*
X138733786Y-98294915D02*
X138638548Y-98342534D01*
X138638548Y-98342534D02*
X138590929Y-98390153D01*
X138590929Y-98390153D02*
X138543310Y-98485391D01*
X138543310Y-98485391D02*
X138543310Y-98675867D01*
X138543310Y-98675867D02*
X138590929Y-98771105D01*
X138590929Y-98771105D02*
X138638548Y-98818724D01*
X138638548Y-98818724D02*
X138733786Y-98866343D01*
X138733786Y-98866343D02*
X138781405Y-98866343D01*
X138781405Y-98866343D02*
X138876643Y-98818724D01*
X138876643Y-98818724D02*
X138924262Y-98771105D01*
X138924262Y-98771105D02*
X138971881Y-98675867D01*
X138971881Y-98675867D02*
X138971881Y-98485391D01*
X138971881Y-98485391D02*
X139019500Y-98390153D01*
X139019500Y-98390153D02*
X139067119Y-98342534D01*
X139067119Y-98342534D02*
X139162357Y-98294915D01*
X139162357Y-98294915D02*
X139352833Y-98294915D01*
X139352833Y-98294915D02*
X139448071Y-98342534D01*
X139448071Y-98342534D02*
X139495691Y-98390153D01*
X139495691Y-98390153D02*
X139543310Y-98485391D01*
X139543310Y-98485391D02*
X139543310Y-98675867D01*
X139543310Y-98675867D02*
X139495691Y-98771105D01*
X139495691Y-98771105D02*
X139448071Y-98818724D01*
X139448071Y-98818724D02*
X139352833Y-98866343D01*
X139352833Y-98866343D02*
X139162357Y-98866343D01*
X139162357Y-98866343D02*
X139067119Y-98818724D01*
X139067119Y-98818724D02*
X139019500Y-98771105D01*
X139019500Y-98771105D02*
X138971881Y-98675867D01*
D12*
X84126155Y-93690153D02*
X84164251Y-93652057D01*
X84164251Y-93652057D02*
X84202346Y-93537772D01*
X84202346Y-93537772D02*
X84202346Y-93461581D01*
X84202346Y-93461581D02*
X84164251Y-93347295D01*
X84164251Y-93347295D02*
X84088060Y-93271105D01*
X84088060Y-93271105D02*
X84011870Y-93233010D01*
X84011870Y-93233010D02*
X83859489Y-93194914D01*
X83859489Y-93194914D02*
X83745203Y-93194914D01*
X83745203Y-93194914D02*
X83592822Y-93233010D01*
X83592822Y-93233010D02*
X83516631Y-93271105D01*
X83516631Y-93271105D02*
X83440441Y-93347295D01*
X83440441Y-93347295D02*
X83402346Y-93461581D01*
X83402346Y-93461581D02*
X83402346Y-93537772D01*
X83402346Y-93537772D02*
X83440441Y-93652057D01*
X83440441Y-93652057D02*
X83478536Y-93690153D01*
X83402346Y-94413962D02*
X83402346Y-94033010D01*
X83402346Y-94033010D02*
X83783298Y-93994914D01*
X83783298Y-93994914D02*
X83745203Y-94033010D01*
X83745203Y-94033010D02*
X83707108Y-94109200D01*
X83707108Y-94109200D02*
X83707108Y-94299676D01*
X83707108Y-94299676D02*
X83745203Y-94375867D01*
X83745203Y-94375867D02*
X83783298Y-94413962D01*
X83783298Y-94413962D02*
X83859489Y-94452057D01*
X83859489Y-94452057D02*
X84049965Y-94452057D01*
X84049965Y-94452057D02*
X84126155Y-94413962D01*
X84126155Y-94413962D02*
X84164251Y-94375867D01*
X84164251Y-94375867D02*
X84202346Y-94299676D01*
X84202346Y-94299676D02*
X84202346Y-94109200D01*
X84202346Y-94109200D02*
X84164251Y-94033010D01*
X84164251Y-94033010D02*
X84126155Y-93994914D01*
X83402346Y-94718724D02*
X83402346Y-95252058D01*
X83402346Y-95252058D02*
X84202346Y-94909200D01*
D11*
X48281348Y-108559258D02*
X48614681Y-108083067D01*
X48852776Y-108559258D02*
X48852776Y-107559258D01*
X48852776Y-107559258D02*
X48471824Y-107559258D01*
X48471824Y-107559258D02*
X48376586Y-107606877D01*
X48376586Y-107606877D02*
X48328967Y-107654496D01*
X48328967Y-107654496D02*
X48281348Y-107749734D01*
X48281348Y-107749734D02*
X48281348Y-107892591D01*
X48281348Y-107892591D02*
X48328967Y-107987829D01*
X48328967Y-107987829D02*
X48376586Y-108035448D01*
X48376586Y-108035448D02*
X48471824Y-108083067D01*
X48471824Y-108083067D02*
X48852776Y-108083067D01*
X47900395Y-107654496D02*
X47852776Y-107606877D01*
X47852776Y-107606877D02*
X47757538Y-107559258D01*
X47757538Y-107559258D02*
X47519443Y-107559258D01*
X47519443Y-107559258D02*
X47424205Y-107606877D01*
X47424205Y-107606877D02*
X47376586Y-107654496D01*
X47376586Y-107654496D02*
X47328967Y-107749734D01*
X47328967Y-107749734D02*
X47328967Y-107844972D01*
X47328967Y-107844972D02*
X47376586Y-107987829D01*
X47376586Y-107987829D02*
X47948014Y-108559258D01*
X47948014Y-108559258D02*
X47328967Y-108559258D01*
X46424205Y-107559258D02*
X46900395Y-107559258D01*
X46900395Y-107559258D02*
X46948014Y-108035448D01*
X46948014Y-108035448D02*
X46900395Y-107987829D01*
X46900395Y-107987829D02*
X46805157Y-107940210D01*
X46805157Y-107940210D02*
X46567062Y-107940210D01*
X46567062Y-107940210D02*
X46471824Y-107987829D01*
X46471824Y-107987829D02*
X46424205Y-108035448D01*
X46424205Y-108035448D02*
X46376586Y-108130686D01*
X46376586Y-108130686D02*
X46376586Y-108368781D01*
X46376586Y-108368781D02*
X46424205Y-108464019D01*
X46424205Y-108464019D02*
X46471824Y-108511639D01*
X46471824Y-108511639D02*
X46567062Y-108559258D01*
X46567062Y-108559258D02*
X46805157Y-108559258D01*
X46805157Y-108559258D02*
X46900395Y-108511639D01*
X46900395Y-108511639D02*
X46948014Y-108464019D01*
D12*
X62026155Y-75340153D02*
X62064251Y-75302057D01*
X62064251Y-75302057D02*
X62102346Y-75187772D01*
X62102346Y-75187772D02*
X62102346Y-75111581D01*
X62102346Y-75111581D02*
X62064251Y-74997295D01*
X62064251Y-74997295D02*
X61988060Y-74921105D01*
X61988060Y-74921105D02*
X61911870Y-74883010D01*
X61911870Y-74883010D02*
X61759489Y-74844914D01*
X61759489Y-74844914D02*
X61645203Y-74844914D01*
X61645203Y-74844914D02*
X61492822Y-74883010D01*
X61492822Y-74883010D02*
X61416631Y-74921105D01*
X61416631Y-74921105D02*
X61340441Y-74997295D01*
X61340441Y-74997295D02*
X61302346Y-75111581D01*
X61302346Y-75111581D02*
X61302346Y-75187772D01*
X61302346Y-75187772D02*
X61340441Y-75302057D01*
X61340441Y-75302057D02*
X61378536Y-75340153D01*
X61645203Y-75797295D02*
X61607108Y-75721105D01*
X61607108Y-75721105D02*
X61569012Y-75683010D01*
X61569012Y-75683010D02*
X61492822Y-75644914D01*
X61492822Y-75644914D02*
X61454727Y-75644914D01*
X61454727Y-75644914D02*
X61378536Y-75683010D01*
X61378536Y-75683010D02*
X61340441Y-75721105D01*
X61340441Y-75721105D02*
X61302346Y-75797295D01*
X61302346Y-75797295D02*
X61302346Y-75949676D01*
X61302346Y-75949676D02*
X61340441Y-76025867D01*
X61340441Y-76025867D02*
X61378536Y-76063962D01*
X61378536Y-76063962D02*
X61454727Y-76102057D01*
X61454727Y-76102057D02*
X61492822Y-76102057D01*
X61492822Y-76102057D02*
X61569012Y-76063962D01*
X61569012Y-76063962D02*
X61607108Y-76025867D01*
X61607108Y-76025867D02*
X61645203Y-75949676D01*
X61645203Y-75949676D02*
X61645203Y-75797295D01*
X61645203Y-75797295D02*
X61683298Y-75721105D01*
X61683298Y-75721105D02*
X61721393Y-75683010D01*
X61721393Y-75683010D02*
X61797584Y-75644914D01*
X61797584Y-75644914D02*
X61949965Y-75644914D01*
X61949965Y-75644914D02*
X62026155Y-75683010D01*
X62026155Y-75683010D02*
X62064251Y-75721105D01*
X62064251Y-75721105D02*
X62102346Y-75797295D01*
X62102346Y-75797295D02*
X62102346Y-75949676D01*
X62102346Y-75949676D02*
X62064251Y-76025867D01*
X62064251Y-76025867D02*
X62026155Y-76063962D01*
X62026155Y-76063962D02*
X61949965Y-76102057D01*
X61949965Y-76102057D02*
X61797584Y-76102057D01*
X61797584Y-76102057D02*
X61721393Y-76063962D01*
X61721393Y-76063962D02*
X61683298Y-76025867D01*
X61683298Y-76025867D02*
X61645203Y-75949676D01*
X62102346Y-76483010D02*
X62102346Y-76635391D01*
X62102346Y-76635391D02*
X62064251Y-76711581D01*
X62064251Y-76711581D02*
X62026155Y-76749677D01*
X62026155Y-76749677D02*
X61911870Y-76825867D01*
X61911870Y-76825867D02*
X61759489Y-76863962D01*
X61759489Y-76863962D02*
X61454727Y-76863962D01*
X61454727Y-76863962D02*
X61378536Y-76825867D01*
X61378536Y-76825867D02*
X61340441Y-76787772D01*
X61340441Y-76787772D02*
X61302346Y-76711581D01*
X61302346Y-76711581D02*
X61302346Y-76559200D01*
X61302346Y-76559200D02*
X61340441Y-76483010D01*
X61340441Y-76483010D02*
X61378536Y-76444915D01*
X61378536Y-76444915D02*
X61454727Y-76406819D01*
X61454727Y-76406819D02*
X61645203Y-76406819D01*
X61645203Y-76406819D02*
X61721393Y-76444915D01*
X61721393Y-76444915D02*
X61759489Y-76483010D01*
X61759489Y-76483010D02*
X61797584Y-76559200D01*
X61797584Y-76559200D02*
X61797584Y-76711581D01*
X61797584Y-76711581D02*
X61759489Y-76787772D01*
X61759489Y-76787772D02*
X61721393Y-76825867D01*
X61721393Y-76825867D02*
X61645203Y-76863962D01*
X63926155Y-75240153D02*
X63964251Y-75202057D01*
X63964251Y-75202057D02*
X64002346Y-75087772D01*
X64002346Y-75087772D02*
X64002346Y-75011581D01*
X64002346Y-75011581D02*
X63964251Y-74897295D01*
X63964251Y-74897295D02*
X63888060Y-74821105D01*
X63888060Y-74821105D02*
X63811870Y-74783010D01*
X63811870Y-74783010D02*
X63659489Y-74744914D01*
X63659489Y-74744914D02*
X63545203Y-74744914D01*
X63545203Y-74744914D02*
X63392822Y-74783010D01*
X63392822Y-74783010D02*
X63316631Y-74821105D01*
X63316631Y-74821105D02*
X63240441Y-74897295D01*
X63240441Y-74897295D02*
X63202346Y-75011581D01*
X63202346Y-75011581D02*
X63202346Y-75087772D01*
X63202346Y-75087772D02*
X63240441Y-75202057D01*
X63240441Y-75202057D02*
X63278536Y-75240153D01*
X63202346Y-75506819D02*
X63202346Y-76040153D01*
X63202346Y-76040153D02*
X64002346Y-75697295D01*
X63202346Y-76268724D02*
X63202346Y-76763962D01*
X63202346Y-76763962D02*
X63507108Y-76497296D01*
X63507108Y-76497296D02*
X63507108Y-76611581D01*
X63507108Y-76611581D02*
X63545203Y-76687772D01*
X63545203Y-76687772D02*
X63583298Y-76725867D01*
X63583298Y-76725867D02*
X63659489Y-76763962D01*
X63659489Y-76763962D02*
X63849965Y-76763962D01*
X63849965Y-76763962D02*
X63926155Y-76725867D01*
X63926155Y-76725867D02*
X63964251Y-76687772D01*
X63964251Y-76687772D02*
X64002346Y-76611581D01*
X64002346Y-76611581D02*
X64002346Y-76383010D01*
X64002346Y-76383010D02*
X63964251Y-76306819D01*
X63964251Y-76306819D02*
X63926155Y-76268724D01*
X85076155Y-78290153D02*
X85114251Y-78252057D01*
X85114251Y-78252057D02*
X85152346Y-78137772D01*
X85152346Y-78137772D02*
X85152346Y-78061581D01*
X85152346Y-78061581D02*
X85114251Y-77947295D01*
X85114251Y-77947295D02*
X85038060Y-77871105D01*
X85038060Y-77871105D02*
X84961870Y-77833010D01*
X84961870Y-77833010D02*
X84809489Y-77794914D01*
X84809489Y-77794914D02*
X84695203Y-77794914D01*
X84695203Y-77794914D02*
X84542822Y-77833010D01*
X84542822Y-77833010D02*
X84466631Y-77871105D01*
X84466631Y-77871105D02*
X84390441Y-77947295D01*
X84390441Y-77947295D02*
X84352346Y-78061581D01*
X84352346Y-78061581D02*
X84352346Y-78137772D01*
X84352346Y-78137772D02*
X84390441Y-78252057D01*
X84390441Y-78252057D02*
X84428536Y-78290153D01*
X84352346Y-78975867D02*
X84352346Y-78823486D01*
X84352346Y-78823486D02*
X84390441Y-78747295D01*
X84390441Y-78747295D02*
X84428536Y-78709200D01*
X84428536Y-78709200D02*
X84542822Y-78633010D01*
X84542822Y-78633010D02*
X84695203Y-78594914D01*
X84695203Y-78594914D02*
X84999965Y-78594914D01*
X84999965Y-78594914D02*
X85076155Y-78633010D01*
X85076155Y-78633010D02*
X85114251Y-78671105D01*
X85114251Y-78671105D02*
X85152346Y-78747295D01*
X85152346Y-78747295D02*
X85152346Y-78899676D01*
X85152346Y-78899676D02*
X85114251Y-78975867D01*
X85114251Y-78975867D02*
X85076155Y-79013962D01*
X85076155Y-79013962D02*
X84999965Y-79052057D01*
X84999965Y-79052057D02*
X84809489Y-79052057D01*
X84809489Y-79052057D02*
X84733298Y-79013962D01*
X84733298Y-79013962D02*
X84695203Y-78975867D01*
X84695203Y-78975867D02*
X84657108Y-78899676D01*
X84657108Y-78899676D02*
X84657108Y-78747295D01*
X84657108Y-78747295D02*
X84695203Y-78671105D01*
X84695203Y-78671105D02*
X84733298Y-78633010D01*
X84733298Y-78633010D02*
X84809489Y-78594914D01*
X84352346Y-79318724D02*
X84352346Y-79852058D01*
X84352346Y-79852058D02*
X85152346Y-79509200D01*
X78126155Y-80540153D02*
X78164251Y-80502057D01*
X78164251Y-80502057D02*
X78202346Y-80387772D01*
X78202346Y-80387772D02*
X78202346Y-80311581D01*
X78202346Y-80311581D02*
X78164251Y-80197295D01*
X78164251Y-80197295D02*
X78088060Y-80121105D01*
X78088060Y-80121105D02*
X78011870Y-80083010D01*
X78011870Y-80083010D02*
X77859489Y-80044914D01*
X77859489Y-80044914D02*
X77745203Y-80044914D01*
X77745203Y-80044914D02*
X77592822Y-80083010D01*
X77592822Y-80083010D02*
X77516631Y-80121105D01*
X77516631Y-80121105D02*
X77440441Y-80197295D01*
X77440441Y-80197295D02*
X77402346Y-80311581D01*
X77402346Y-80311581D02*
X77402346Y-80387772D01*
X77402346Y-80387772D02*
X77440441Y-80502057D01*
X77440441Y-80502057D02*
X77478536Y-80540153D01*
X77669012Y-81225867D02*
X78202346Y-81225867D01*
X77364251Y-81035391D02*
X77935679Y-80844914D01*
X77935679Y-80844914D02*
X77935679Y-81340153D01*
X77745203Y-81759200D02*
X77707108Y-81683010D01*
X77707108Y-81683010D02*
X77669012Y-81644915D01*
X77669012Y-81644915D02*
X77592822Y-81606819D01*
X77592822Y-81606819D02*
X77554727Y-81606819D01*
X77554727Y-81606819D02*
X77478536Y-81644915D01*
X77478536Y-81644915D02*
X77440441Y-81683010D01*
X77440441Y-81683010D02*
X77402346Y-81759200D01*
X77402346Y-81759200D02*
X77402346Y-81911581D01*
X77402346Y-81911581D02*
X77440441Y-81987772D01*
X77440441Y-81987772D02*
X77478536Y-82025867D01*
X77478536Y-82025867D02*
X77554727Y-82063962D01*
X77554727Y-82063962D02*
X77592822Y-82063962D01*
X77592822Y-82063962D02*
X77669012Y-82025867D01*
X77669012Y-82025867D02*
X77707108Y-81987772D01*
X77707108Y-81987772D02*
X77745203Y-81911581D01*
X77745203Y-81911581D02*
X77745203Y-81759200D01*
X77745203Y-81759200D02*
X77783298Y-81683010D01*
X77783298Y-81683010D02*
X77821393Y-81644915D01*
X77821393Y-81644915D02*
X77897584Y-81606819D01*
X77897584Y-81606819D02*
X78049965Y-81606819D01*
X78049965Y-81606819D02*
X78126155Y-81644915D01*
X78126155Y-81644915D02*
X78164251Y-81683010D01*
X78164251Y-81683010D02*
X78202346Y-81759200D01*
X78202346Y-81759200D02*
X78202346Y-81911581D01*
X78202346Y-81911581D02*
X78164251Y-81987772D01*
X78164251Y-81987772D02*
X78126155Y-82025867D01*
X78126155Y-82025867D02*
X78049965Y-82063962D01*
X78049965Y-82063962D02*
X77897584Y-82063962D01*
X77897584Y-82063962D02*
X77821393Y-82025867D01*
X77821393Y-82025867D02*
X77783298Y-81987772D01*
X77783298Y-81987772D02*
X77745203Y-81911581D01*
X92002776Y-82942103D02*
X92040872Y-82980199D01*
X92040872Y-82980199D02*
X92155157Y-83018294D01*
X92155157Y-83018294D02*
X92231348Y-83018294D01*
X92231348Y-83018294D02*
X92345634Y-82980199D01*
X92345634Y-82980199D02*
X92421824Y-82904008D01*
X92421824Y-82904008D02*
X92459919Y-82827818D01*
X92459919Y-82827818D02*
X92498015Y-82675437D01*
X92498015Y-82675437D02*
X92498015Y-82561151D01*
X92498015Y-82561151D02*
X92459919Y-82408770D01*
X92459919Y-82408770D02*
X92421824Y-82332579D01*
X92421824Y-82332579D02*
X92345634Y-82256389D01*
X92345634Y-82256389D02*
X92231348Y-82218294D01*
X92231348Y-82218294D02*
X92155157Y-82218294D01*
X92155157Y-82218294D02*
X92040872Y-82256389D01*
X92040872Y-82256389D02*
X92002776Y-82294484D01*
X91317062Y-82218294D02*
X91469443Y-82218294D01*
X91469443Y-82218294D02*
X91545634Y-82256389D01*
X91545634Y-82256389D02*
X91583729Y-82294484D01*
X91583729Y-82294484D02*
X91659919Y-82408770D01*
X91659919Y-82408770D02*
X91698015Y-82561151D01*
X91698015Y-82561151D02*
X91698015Y-82865913D01*
X91698015Y-82865913D02*
X91659919Y-82942103D01*
X91659919Y-82942103D02*
X91621824Y-82980199D01*
X91621824Y-82980199D02*
X91545634Y-83018294D01*
X91545634Y-83018294D02*
X91393253Y-83018294D01*
X91393253Y-83018294D02*
X91317062Y-82980199D01*
X91317062Y-82980199D02*
X91278967Y-82942103D01*
X91278967Y-82942103D02*
X91240872Y-82865913D01*
X91240872Y-82865913D02*
X91240872Y-82675437D01*
X91240872Y-82675437D02*
X91278967Y-82599246D01*
X91278967Y-82599246D02*
X91317062Y-82561151D01*
X91317062Y-82561151D02*
X91393253Y-82523056D01*
X91393253Y-82523056D02*
X91545634Y-82523056D01*
X91545634Y-82523056D02*
X91621824Y-82561151D01*
X91621824Y-82561151D02*
X91659919Y-82599246D01*
X91659919Y-82599246D02*
X91698015Y-82675437D01*
X90783729Y-82561151D02*
X90859919Y-82523056D01*
X90859919Y-82523056D02*
X90898014Y-82484960D01*
X90898014Y-82484960D02*
X90936110Y-82408770D01*
X90936110Y-82408770D02*
X90936110Y-82370675D01*
X90936110Y-82370675D02*
X90898014Y-82294484D01*
X90898014Y-82294484D02*
X90859919Y-82256389D01*
X90859919Y-82256389D02*
X90783729Y-82218294D01*
X90783729Y-82218294D02*
X90631348Y-82218294D01*
X90631348Y-82218294D02*
X90555157Y-82256389D01*
X90555157Y-82256389D02*
X90517062Y-82294484D01*
X90517062Y-82294484D02*
X90478967Y-82370675D01*
X90478967Y-82370675D02*
X90478967Y-82408770D01*
X90478967Y-82408770D02*
X90517062Y-82484960D01*
X90517062Y-82484960D02*
X90555157Y-82523056D01*
X90555157Y-82523056D02*
X90631348Y-82561151D01*
X90631348Y-82561151D02*
X90783729Y-82561151D01*
X90783729Y-82561151D02*
X90859919Y-82599246D01*
X90859919Y-82599246D02*
X90898014Y-82637341D01*
X90898014Y-82637341D02*
X90936110Y-82713532D01*
X90936110Y-82713532D02*
X90936110Y-82865913D01*
X90936110Y-82865913D02*
X90898014Y-82942103D01*
X90898014Y-82942103D02*
X90859919Y-82980199D01*
X90859919Y-82980199D02*
X90783729Y-83018294D01*
X90783729Y-83018294D02*
X90631348Y-83018294D01*
X90631348Y-83018294D02*
X90555157Y-82980199D01*
X90555157Y-82980199D02*
X90517062Y-82942103D01*
X90517062Y-82942103D02*
X90478967Y-82865913D01*
X90478967Y-82865913D02*
X90478967Y-82713532D01*
X90478967Y-82713532D02*
X90517062Y-82637341D01*
X90517062Y-82637341D02*
X90555157Y-82599246D01*
X90555157Y-82599246D02*
X90631348Y-82561151D01*
X87576155Y-76190153D02*
X87614251Y-76152057D01*
X87614251Y-76152057D02*
X87652346Y-76037772D01*
X87652346Y-76037772D02*
X87652346Y-75961581D01*
X87652346Y-75961581D02*
X87614251Y-75847295D01*
X87614251Y-75847295D02*
X87538060Y-75771105D01*
X87538060Y-75771105D02*
X87461870Y-75733010D01*
X87461870Y-75733010D02*
X87309489Y-75694914D01*
X87309489Y-75694914D02*
X87195203Y-75694914D01*
X87195203Y-75694914D02*
X87042822Y-75733010D01*
X87042822Y-75733010D02*
X86966631Y-75771105D01*
X86966631Y-75771105D02*
X86890441Y-75847295D01*
X86890441Y-75847295D02*
X86852346Y-75961581D01*
X86852346Y-75961581D02*
X86852346Y-76037772D01*
X86852346Y-76037772D02*
X86890441Y-76152057D01*
X86890441Y-76152057D02*
X86928536Y-76190153D01*
X86852346Y-76875867D02*
X86852346Y-76723486D01*
X86852346Y-76723486D02*
X86890441Y-76647295D01*
X86890441Y-76647295D02*
X86928536Y-76609200D01*
X86928536Y-76609200D02*
X87042822Y-76533010D01*
X87042822Y-76533010D02*
X87195203Y-76494914D01*
X87195203Y-76494914D02*
X87499965Y-76494914D01*
X87499965Y-76494914D02*
X87576155Y-76533010D01*
X87576155Y-76533010D02*
X87614251Y-76571105D01*
X87614251Y-76571105D02*
X87652346Y-76647295D01*
X87652346Y-76647295D02*
X87652346Y-76799676D01*
X87652346Y-76799676D02*
X87614251Y-76875867D01*
X87614251Y-76875867D02*
X87576155Y-76913962D01*
X87576155Y-76913962D02*
X87499965Y-76952057D01*
X87499965Y-76952057D02*
X87309489Y-76952057D01*
X87309489Y-76952057D02*
X87233298Y-76913962D01*
X87233298Y-76913962D02*
X87195203Y-76875867D01*
X87195203Y-76875867D02*
X87157108Y-76799676D01*
X87157108Y-76799676D02*
X87157108Y-76647295D01*
X87157108Y-76647295D02*
X87195203Y-76571105D01*
X87195203Y-76571105D02*
X87233298Y-76533010D01*
X87233298Y-76533010D02*
X87309489Y-76494914D01*
X86852346Y-77675867D02*
X86852346Y-77294915D01*
X86852346Y-77294915D02*
X87233298Y-77256819D01*
X87233298Y-77256819D02*
X87195203Y-77294915D01*
X87195203Y-77294915D02*
X87157108Y-77371105D01*
X87157108Y-77371105D02*
X87157108Y-77561581D01*
X87157108Y-77561581D02*
X87195203Y-77637772D01*
X87195203Y-77637772D02*
X87233298Y-77675867D01*
X87233298Y-77675867D02*
X87309489Y-77713962D01*
X87309489Y-77713962D02*
X87499965Y-77713962D01*
X87499965Y-77713962D02*
X87576155Y-77675867D01*
X87576155Y-77675867D02*
X87614251Y-77637772D01*
X87614251Y-77637772D02*
X87652346Y-77561581D01*
X87652346Y-77561581D02*
X87652346Y-77371105D01*
X87652346Y-77371105D02*
X87614251Y-77294915D01*
X87614251Y-77294915D02*
X87576155Y-77256819D01*
X81726155Y-76890153D02*
X81764251Y-76852057D01*
X81764251Y-76852057D02*
X81802346Y-76737772D01*
X81802346Y-76737772D02*
X81802346Y-76661581D01*
X81802346Y-76661581D02*
X81764251Y-76547295D01*
X81764251Y-76547295D02*
X81688060Y-76471105D01*
X81688060Y-76471105D02*
X81611870Y-76433010D01*
X81611870Y-76433010D02*
X81459489Y-76394914D01*
X81459489Y-76394914D02*
X81345203Y-76394914D01*
X81345203Y-76394914D02*
X81192822Y-76433010D01*
X81192822Y-76433010D02*
X81116631Y-76471105D01*
X81116631Y-76471105D02*
X81040441Y-76547295D01*
X81040441Y-76547295D02*
X81002346Y-76661581D01*
X81002346Y-76661581D02*
X81002346Y-76737772D01*
X81002346Y-76737772D02*
X81040441Y-76852057D01*
X81040441Y-76852057D02*
X81078536Y-76890153D01*
X81002346Y-77575867D02*
X81002346Y-77423486D01*
X81002346Y-77423486D02*
X81040441Y-77347295D01*
X81040441Y-77347295D02*
X81078536Y-77309200D01*
X81078536Y-77309200D02*
X81192822Y-77233010D01*
X81192822Y-77233010D02*
X81345203Y-77194914D01*
X81345203Y-77194914D02*
X81649965Y-77194914D01*
X81649965Y-77194914D02*
X81726155Y-77233010D01*
X81726155Y-77233010D02*
X81764251Y-77271105D01*
X81764251Y-77271105D02*
X81802346Y-77347295D01*
X81802346Y-77347295D02*
X81802346Y-77499676D01*
X81802346Y-77499676D02*
X81764251Y-77575867D01*
X81764251Y-77575867D02*
X81726155Y-77613962D01*
X81726155Y-77613962D02*
X81649965Y-77652057D01*
X81649965Y-77652057D02*
X81459489Y-77652057D01*
X81459489Y-77652057D02*
X81383298Y-77613962D01*
X81383298Y-77613962D02*
X81345203Y-77575867D01*
X81345203Y-77575867D02*
X81307108Y-77499676D01*
X81307108Y-77499676D02*
X81307108Y-77347295D01*
X81307108Y-77347295D02*
X81345203Y-77271105D01*
X81345203Y-77271105D02*
X81383298Y-77233010D01*
X81383298Y-77233010D02*
X81459489Y-77194914D01*
X81802346Y-78413962D02*
X81802346Y-77956819D01*
X81802346Y-78185391D02*
X81002346Y-78185391D01*
X81002346Y-78185391D02*
X81116631Y-78109200D01*
X81116631Y-78109200D02*
X81192822Y-78033010D01*
X81192822Y-78033010D02*
X81230917Y-77956819D01*
D11*
X48231348Y-102609258D02*
X48564681Y-102133067D01*
X48802776Y-102609258D02*
X48802776Y-101609258D01*
X48802776Y-101609258D02*
X48421824Y-101609258D01*
X48421824Y-101609258D02*
X48326586Y-101656877D01*
X48326586Y-101656877D02*
X48278967Y-101704496D01*
X48278967Y-101704496D02*
X48231348Y-101799734D01*
X48231348Y-101799734D02*
X48231348Y-101942591D01*
X48231348Y-101942591D02*
X48278967Y-102037829D01*
X48278967Y-102037829D02*
X48326586Y-102085448D01*
X48326586Y-102085448D02*
X48421824Y-102133067D01*
X48421824Y-102133067D02*
X48802776Y-102133067D01*
X47850395Y-101704496D02*
X47802776Y-101656877D01*
X47802776Y-101656877D02*
X47707538Y-101609258D01*
X47707538Y-101609258D02*
X47469443Y-101609258D01*
X47469443Y-101609258D02*
X47374205Y-101656877D01*
X47374205Y-101656877D02*
X47326586Y-101704496D01*
X47326586Y-101704496D02*
X47278967Y-101799734D01*
X47278967Y-101799734D02*
X47278967Y-101894972D01*
X47278967Y-101894972D02*
X47326586Y-102037829D01*
X47326586Y-102037829D02*
X47898014Y-102609258D01*
X47898014Y-102609258D02*
X47278967Y-102609258D01*
X46707538Y-102037829D02*
X46802776Y-101990210D01*
X46802776Y-101990210D02*
X46850395Y-101942591D01*
X46850395Y-101942591D02*
X46898014Y-101847353D01*
X46898014Y-101847353D02*
X46898014Y-101799734D01*
X46898014Y-101799734D02*
X46850395Y-101704496D01*
X46850395Y-101704496D02*
X46802776Y-101656877D01*
X46802776Y-101656877D02*
X46707538Y-101609258D01*
X46707538Y-101609258D02*
X46517062Y-101609258D01*
X46517062Y-101609258D02*
X46421824Y-101656877D01*
X46421824Y-101656877D02*
X46374205Y-101704496D01*
X46374205Y-101704496D02*
X46326586Y-101799734D01*
X46326586Y-101799734D02*
X46326586Y-101847353D01*
X46326586Y-101847353D02*
X46374205Y-101942591D01*
X46374205Y-101942591D02*
X46421824Y-101990210D01*
X46421824Y-101990210D02*
X46517062Y-102037829D01*
X46517062Y-102037829D02*
X46707538Y-102037829D01*
X46707538Y-102037829D02*
X46802776Y-102085448D01*
X46802776Y-102085448D02*
X46850395Y-102133067D01*
X46850395Y-102133067D02*
X46898014Y-102228305D01*
X46898014Y-102228305D02*
X46898014Y-102418781D01*
X46898014Y-102418781D02*
X46850395Y-102514019D01*
X46850395Y-102514019D02*
X46802776Y-102561639D01*
X46802776Y-102561639D02*
X46707538Y-102609258D01*
X46707538Y-102609258D02*
X46517062Y-102609258D01*
X46517062Y-102609258D02*
X46421824Y-102561639D01*
X46421824Y-102561639D02*
X46374205Y-102514019D01*
X46374205Y-102514019D02*
X46326586Y-102418781D01*
X46326586Y-102418781D02*
X46326586Y-102228305D01*
X46326586Y-102228305D02*
X46374205Y-102133067D01*
X46374205Y-102133067D02*
X46421824Y-102085448D01*
X46421824Y-102085448D02*
X46517062Y-102037829D01*
D12*
X60076155Y-84840153D02*
X60114251Y-84802057D01*
X60114251Y-84802057D02*
X60152346Y-84687772D01*
X60152346Y-84687772D02*
X60152346Y-84611581D01*
X60152346Y-84611581D02*
X60114251Y-84497295D01*
X60114251Y-84497295D02*
X60038060Y-84421105D01*
X60038060Y-84421105D02*
X59961870Y-84383010D01*
X59961870Y-84383010D02*
X59809489Y-84344914D01*
X59809489Y-84344914D02*
X59695203Y-84344914D01*
X59695203Y-84344914D02*
X59542822Y-84383010D01*
X59542822Y-84383010D02*
X59466631Y-84421105D01*
X59466631Y-84421105D02*
X59390441Y-84497295D01*
X59390441Y-84497295D02*
X59352346Y-84611581D01*
X59352346Y-84611581D02*
X59352346Y-84687772D01*
X59352346Y-84687772D02*
X59390441Y-84802057D01*
X59390441Y-84802057D02*
X59428536Y-84840153D01*
X59352346Y-85106819D02*
X59352346Y-85640153D01*
X59352346Y-85640153D02*
X60152346Y-85297295D01*
X60152346Y-86363962D02*
X60152346Y-85906819D01*
X60152346Y-86135391D02*
X59352346Y-86135391D01*
X59352346Y-86135391D02*
X59466631Y-86059200D01*
X59466631Y-86059200D02*
X59542822Y-85983010D01*
X59542822Y-85983010D02*
X59580917Y-85906819D01*
D11*
X48231348Y-110209258D02*
X48564681Y-109733067D01*
X48802776Y-110209258D02*
X48802776Y-109209258D01*
X48802776Y-109209258D02*
X48421824Y-109209258D01*
X48421824Y-109209258D02*
X48326586Y-109256877D01*
X48326586Y-109256877D02*
X48278967Y-109304496D01*
X48278967Y-109304496D02*
X48231348Y-109399734D01*
X48231348Y-109399734D02*
X48231348Y-109542591D01*
X48231348Y-109542591D02*
X48278967Y-109637829D01*
X48278967Y-109637829D02*
X48326586Y-109685448D01*
X48326586Y-109685448D02*
X48421824Y-109733067D01*
X48421824Y-109733067D02*
X48802776Y-109733067D01*
X47850395Y-109304496D02*
X47802776Y-109256877D01*
X47802776Y-109256877D02*
X47707538Y-109209258D01*
X47707538Y-109209258D02*
X47469443Y-109209258D01*
X47469443Y-109209258D02*
X47374205Y-109256877D01*
X47374205Y-109256877D02*
X47326586Y-109304496D01*
X47326586Y-109304496D02*
X47278967Y-109399734D01*
X47278967Y-109399734D02*
X47278967Y-109494972D01*
X47278967Y-109494972D02*
X47326586Y-109637829D01*
X47326586Y-109637829D02*
X47898014Y-110209258D01*
X47898014Y-110209258D02*
X47278967Y-110209258D01*
X46421824Y-109209258D02*
X46612300Y-109209258D01*
X46612300Y-109209258D02*
X46707538Y-109256877D01*
X46707538Y-109256877D02*
X46755157Y-109304496D01*
X46755157Y-109304496D02*
X46850395Y-109447353D01*
X46850395Y-109447353D02*
X46898014Y-109637829D01*
X46898014Y-109637829D02*
X46898014Y-110018781D01*
X46898014Y-110018781D02*
X46850395Y-110114019D01*
X46850395Y-110114019D02*
X46802776Y-110161639D01*
X46802776Y-110161639D02*
X46707538Y-110209258D01*
X46707538Y-110209258D02*
X46517062Y-110209258D01*
X46517062Y-110209258D02*
X46421824Y-110161639D01*
X46421824Y-110161639D02*
X46374205Y-110114019D01*
X46374205Y-110114019D02*
X46326586Y-110018781D01*
X46326586Y-110018781D02*
X46326586Y-109780686D01*
X46326586Y-109780686D02*
X46374205Y-109685448D01*
X46374205Y-109685448D02*
X46421824Y-109637829D01*
X46421824Y-109637829D02*
X46517062Y-109590210D01*
X46517062Y-109590210D02*
X46707538Y-109590210D01*
X46707538Y-109590210D02*
X46802776Y-109637829D01*
X46802776Y-109637829D02*
X46850395Y-109685448D01*
X46850395Y-109685448D02*
X46898014Y-109780686D01*
D12*
X83552776Y-90642103D02*
X83590872Y-90680199D01*
X83590872Y-90680199D02*
X83705157Y-90718294D01*
X83705157Y-90718294D02*
X83781348Y-90718294D01*
X83781348Y-90718294D02*
X83895634Y-90680199D01*
X83895634Y-90680199D02*
X83971824Y-90604008D01*
X83971824Y-90604008D02*
X84009919Y-90527818D01*
X84009919Y-90527818D02*
X84048015Y-90375437D01*
X84048015Y-90375437D02*
X84048015Y-90261151D01*
X84048015Y-90261151D02*
X84009919Y-90108770D01*
X84009919Y-90108770D02*
X83971824Y-90032579D01*
X83971824Y-90032579D02*
X83895634Y-89956389D01*
X83895634Y-89956389D02*
X83781348Y-89918294D01*
X83781348Y-89918294D02*
X83705157Y-89918294D01*
X83705157Y-89918294D02*
X83590872Y-89956389D01*
X83590872Y-89956389D02*
X83552776Y-89994484D01*
X82867062Y-90184960D02*
X82867062Y-90718294D01*
X83057538Y-89880199D02*
X83248015Y-90451627D01*
X83248015Y-90451627D02*
X82752776Y-90451627D01*
X82524205Y-89918294D02*
X82028967Y-89918294D01*
X82028967Y-89918294D02*
X82295633Y-90223056D01*
X82295633Y-90223056D02*
X82181348Y-90223056D01*
X82181348Y-90223056D02*
X82105157Y-90261151D01*
X82105157Y-90261151D02*
X82067062Y-90299246D01*
X82067062Y-90299246D02*
X82028967Y-90375437D01*
X82028967Y-90375437D02*
X82028967Y-90565913D01*
X82028967Y-90565913D02*
X82067062Y-90642103D01*
X82067062Y-90642103D02*
X82105157Y-90680199D01*
X82105157Y-90680199D02*
X82181348Y-90718294D01*
X82181348Y-90718294D02*
X82409919Y-90718294D01*
X82409919Y-90718294D02*
X82486110Y-90680199D01*
X82486110Y-90680199D02*
X82524205Y-90642103D01*
D11*
X145693310Y-96961581D02*
X145217119Y-96628248D01*
X145693310Y-96390153D02*
X144693310Y-96390153D01*
X144693310Y-96390153D02*
X144693310Y-96771105D01*
X144693310Y-96771105D02*
X144740929Y-96866343D01*
X144740929Y-96866343D02*
X144788548Y-96913962D01*
X144788548Y-96913962D02*
X144883786Y-96961581D01*
X144883786Y-96961581D02*
X145026643Y-96961581D01*
X145026643Y-96961581D02*
X145121881Y-96913962D01*
X145121881Y-96913962D02*
X145169500Y-96866343D01*
X145169500Y-96866343D02*
X145217119Y-96771105D01*
X145217119Y-96771105D02*
X145217119Y-96390153D01*
X144788548Y-97342534D02*
X144740929Y-97390153D01*
X144740929Y-97390153D02*
X144693310Y-97485391D01*
X144693310Y-97485391D02*
X144693310Y-97723486D01*
X144693310Y-97723486D02*
X144740929Y-97818724D01*
X144740929Y-97818724D02*
X144788548Y-97866343D01*
X144788548Y-97866343D02*
X144883786Y-97913962D01*
X144883786Y-97913962D02*
X144979024Y-97913962D01*
X144979024Y-97913962D02*
X145121881Y-97866343D01*
X145121881Y-97866343D02*
X145693310Y-97294915D01*
X145693310Y-97294915D02*
X145693310Y-97913962D01*
X145693310Y-98866343D02*
X145693310Y-98294915D01*
X145693310Y-98580629D02*
X144693310Y-98580629D01*
X144693310Y-98580629D02*
X144836167Y-98485391D01*
X144836167Y-98485391D02*
X144931405Y-98390153D01*
X144931405Y-98390153D02*
X144979024Y-98294915D01*
D12*
X93176155Y-85559733D02*
X93214251Y-85521637D01*
X93214251Y-85521637D02*
X93252346Y-85407352D01*
X93252346Y-85407352D02*
X93252346Y-85331161D01*
X93252346Y-85331161D02*
X93214251Y-85216875D01*
X93214251Y-85216875D02*
X93138060Y-85140685D01*
X93138060Y-85140685D02*
X93061870Y-85102590D01*
X93061870Y-85102590D02*
X92909489Y-85064494D01*
X92909489Y-85064494D02*
X92795203Y-85064494D01*
X92795203Y-85064494D02*
X92642822Y-85102590D01*
X92642822Y-85102590D02*
X92566631Y-85140685D01*
X92566631Y-85140685D02*
X92490441Y-85216875D01*
X92490441Y-85216875D02*
X92452346Y-85331161D01*
X92452346Y-85331161D02*
X92452346Y-85407352D01*
X92452346Y-85407352D02*
X92490441Y-85521637D01*
X92490441Y-85521637D02*
X92528536Y-85559733D01*
X93252346Y-86321637D02*
X93252346Y-85864494D01*
X93252346Y-86093066D02*
X92452346Y-86093066D01*
X92452346Y-86093066D02*
X92566631Y-86016875D01*
X92566631Y-86016875D02*
X92642822Y-85940685D01*
X92642822Y-85940685D02*
X92680917Y-85864494D01*
X92452346Y-87007352D02*
X92452346Y-86854971D01*
X92452346Y-86854971D02*
X92490441Y-86778780D01*
X92490441Y-86778780D02*
X92528536Y-86740685D01*
X92528536Y-86740685D02*
X92642822Y-86664495D01*
X92642822Y-86664495D02*
X92795203Y-86626399D01*
X92795203Y-86626399D02*
X93099965Y-86626399D01*
X93099965Y-86626399D02*
X93176155Y-86664495D01*
X93176155Y-86664495D02*
X93214251Y-86702590D01*
X93214251Y-86702590D02*
X93252346Y-86778780D01*
X93252346Y-86778780D02*
X93252346Y-86931161D01*
X93252346Y-86931161D02*
X93214251Y-87007352D01*
X93214251Y-87007352D02*
X93176155Y-87045447D01*
X93176155Y-87045447D02*
X93099965Y-87083542D01*
X93099965Y-87083542D02*
X92909489Y-87083542D01*
X92909489Y-87083542D02*
X92833298Y-87045447D01*
X92833298Y-87045447D02*
X92795203Y-87007352D01*
X92795203Y-87007352D02*
X92757108Y-86931161D01*
X92757108Y-86931161D02*
X92757108Y-86778780D01*
X92757108Y-86778780D02*
X92795203Y-86702590D01*
X92795203Y-86702590D02*
X92833298Y-86664495D01*
X92833298Y-86664495D02*
X92909489Y-86626399D01*
X83876155Y-91440153D02*
X83914251Y-91402057D01*
X83914251Y-91402057D02*
X83952346Y-91287772D01*
X83952346Y-91287772D02*
X83952346Y-91211581D01*
X83952346Y-91211581D02*
X83914251Y-91097295D01*
X83914251Y-91097295D02*
X83838060Y-91021105D01*
X83838060Y-91021105D02*
X83761870Y-90983010D01*
X83761870Y-90983010D02*
X83609489Y-90944914D01*
X83609489Y-90944914D02*
X83495203Y-90944914D01*
X83495203Y-90944914D02*
X83342822Y-90983010D01*
X83342822Y-90983010D02*
X83266631Y-91021105D01*
X83266631Y-91021105D02*
X83190441Y-91097295D01*
X83190441Y-91097295D02*
X83152346Y-91211581D01*
X83152346Y-91211581D02*
X83152346Y-91287772D01*
X83152346Y-91287772D02*
X83190441Y-91402057D01*
X83190441Y-91402057D02*
X83228536Y-91440153D01*
X83419012Y-92125867D02*
X83952346Y-92125867D01*
X83114251Y-91935391D02*
X83685679Y-91744914D01*
X83685679Y-91744914D02*
X83685679Y-92240153D01*
X83952346Y-92963962D02*
X83952346Y-92506819D01*
X83952346Y-92735391D02*
X83152346Y-92735391D01*
X83152346Y-92735391D02*
X83266631Y-92659200D01*
X83266631Y-92659200D02*
X83342822Y-92583010D01*
X83342822Y-92583010D02*
X83380917Y-92506819D01*
X83602776Y-78892103D02*
X83640872Y-78930199D01*
X83640872Y-78930199D02*
X83755157Y-78968294D01*
X83755157Y-78968294D02*
X83831348Y-78968294D01*
X83831348Y-78968294D02*
X83945634Y-78930199D01*
X83945634Y-78930199D02*
X84021824Y-78854008D01*
X84021824Y-78854008D02*
X84059919Y-78777818D01*
X84059919Y-78777818D02*
X84098015Y-78625437D01*
X84098015Y-78625437D02*
X84098015Y-78511151D01*
X84098015Y-78511151D02*
X84059919Y-78358770D01*
X84059919Y-78358770D02*
X84021824Y-78282579D01*
X84021824Y-78282579D02*
X83945634Y-78206389D01*
X83945634Y-78206389D02*
X83831348Y-78168294D01*
X83831348Y-78168294D02*
X83755157Y-78168294D01*
X83755157Y-78168294D02*
X83640872Y-78206389D01*
X83640872Y-78206389D02*
X83602776Y-78244484D01*
X83298015Y-78244484D02*
X83259919Y-78206389D01*
X83259919Y-78206389D02*
X83183729Y-78168294D01*
X83183729Y-78168294D02*
X82993253Y-78168294D01*
X82993253Y-78168294D02*
X82917062Y-78206389D01*
X82917062Y-78206389D02*
X82878967Y-78244484D01*
X82878967Y-78244484D02*
X82840872Y-78320675D01*
X82840872Y-78320675D02*
X82840872Y-78396865D01*
X82840872Y-78396865D02*
X82878967Y-78511151D01*
X82878967Y-78511151D02*
X83336110Y-78968294D01*
X83336110Y-78968294D02*
X82840872Y-78968294D01*
X82155157Y-78168294D02*
X82307538Y-78168294D01*
X82307538Y-78168294D02*
X82383729Y-78206389D01*
X82383729Y-78206389D02*
X82421824Y-78244484D01*
X82421824Y-78244484D02*
X82498014Y-78358770D01*
X82498014Y-78358770D02*
X82536110Y-78511151D01*
X82536110Y-78511151D02*
X82536110Y-78815913D01*
X82536110Y-78815913D02*
X82498014Y-78892103D01*
X82498014Y-78892103D02*
X82459919Y-78930199D01*
X82459919Y-78930199D02*
X82383729Y-78968294D01*
X82383729Y-78968294D02*
X82231348Y-78968294D01*
X82231348Y-78968294D02*
X82155157Y-78930199D01*
X82155157Y-78930199D02*
X82117062Y-78892103D01*
X82117062Y-78892103D02*
X82078967Y-78815913D01*
X82078967Y-78815913D02*
X82078967Y-78625437D01*
X82078967Y-78625437D02*
X82117062Y-78549246D01*
X82117062Y-78549246D02*
X82155157Y-78511151D01*
X82155157Y-78511151D02*
X82231348Y-78473056D01*
X82231348Y-78473056D02*
X82383729Y-78473056D01*
X82383729Y-78473056D02*
X82459919Y-78511151D01*
X82459919Y-78511151D02*
X82498014Y-78549246D01*
X82498014Y-78549246D02*
X82536110Y-78625437D01*
X76502776Y-82042103D02*
X76540872Y-82080199D01*
X76540872Y-82080199D02*
X76655157Y-82118294D01*
X76655157Y-82118294D02*
X76731348Y-82118294D01*
X76731348Y-82118294D02*
X76845634Y-82080199D01*
X76845634Y-82080199D02*
X76921824Y-82004008D01*
X76921824Y-82004008D02*
X76959919Y-81927818D01*
X76959919Y-81927818D02*
X76998015Y-81775437D01*
X76998015Y-81775437D02*
X76998015Y-81661151D01*
X76998015Y-81661151D02*
X76959919Y-81508770D01*
X76959919Y-81508770D02*
X76921824Y-81432579D01*
X76921824Y-81432579D02*
X76845634Y-81356389D01*
X76845634Y-81356389D02*
X76731348Y-81318294D01*
X76731348Y-81318294D02*
X76655157Y-81318294D01*
X76655157Y-81318294D02*
X76540872Y-81356389D01*
X76540872Y-81356389D02*
X76502776Y-81394484D01*
X76236110Y-81318294D02*
X75740872Y-81318294D01*
X75740872Y-81318294D02*
X76007538Y-81623056D01*
X76007538Y-81623056D02*
X75893253Y-81623056D01*
X75893253Y-81623056D02*
X75817062Y-81661151D01*
X75817062Y-81661151D02*
X75778967Y-81699246D01*
X75778967Y-81699246D02*
X75740872Y-81775437D01*
X75740872Y-81775437D02*
X75740872Y-81965913D01*
X75740872Y-81965913D02*
X75778967Y-82042103D01*
X75778967Y-82042103D02*
X75817062Y-82080199D01*
X75817062Y-82080199D02*
X75893253Y-82118294D01*
X75893253Y-82118294D02*
X76121824Y-82118294D01*
X76121824Y-82118294D02*
X76198015Y-82080199D01*
X76198015Y-82080199D02*
X76236110Y-82042103D01*
X75436110Y-81394484D02*
X75398014Y-81356389D01*
X75398014Y-81356389D02*
X75321824Y-81318294D01*
X75321824Y-81318294D02*
X75131348Y-81318294D01*
X75131348Y-81318294D02*
X75055157Y-81356389D01*
X75055157Y-81356389D02*
X75017062Y-81394484D01*
X75017062Y-81394484D02*
X74978967Y-81470675D01*
X74978967Y-81470675D02*
X74978967Y-81546865D01*
X74978967Y-81546865D02*
X75017062Y-81661151D01*
X75017062Y-81661151D02*
X75474205Y-82118294D01*
X75474205Y-82118294D02*
X74978967Y-82118294D01*
X80352776Y-83842103D02*
X80390872Y-83880199D01*
X80390872Y-83880199D02*
X80505157Y-83918294D01*
X80505157Y-83918294D02*
X80581348Y-83918294D01*
X80581348Y-83918294D02*
X80695634Y-83880199D01*
X80695634Y-83880199D02*
X80771824Y-83804008D01*
X80771824Y-83804008D02*
X80809919Y-83727818D01*
X80809919Y-83727818D02*
X80848015Y-83575437D01*
X80848015Y-83575437D02*
X80848015Y-83461151D01*
X80848015Y-83461151D02*
X80809919Y-83308770D01*
X80809919Y-83308770D02*
X80771824Y-83232579D01*
X80771824Y-83232579D02*
X80695634Y-83156389D01*
X80695634Y-83156389D02*
X80581348Y-83118294D01*
X80581348Y-83118294D02*
X80505157Y-83118294D01*
X80505157Y-83118294D02*
X80390872Y-83156389D01*
X80390872Y-83156389D02*
X80352776Y-83194484D01*
X80048015Y-83194484D02*
X80009919Y-83156389D01*
X80009919Y-83156389D02*
X79933729Y-83118294D01*
X79933729Y-83118294D02*
X79743253Y-83118294D01*
X79743253Y-83118294D02*
X79667062Y-83156389D01*
X79667062Y-83156389D02*
X79628967Y-83194484D01*
X79628967Y-83194484D02*
X79590872Y-83270675D01*
X79590872Y-83270675D02*
X79590872Y-83346865D01*
X79590872Y-83346865D02*
X79628967Y-83461151D01*
X79628967Y-83461151D02*
X80086110Y-83918294D01*
X80086110Y-83918294D02*
X79590872Y-83918294D01*
X79324205Y-83118294D02*
X78790871Y-83118294D01*
X78790871Y-83118294D02*
X79133729Y-83918294D01*
X95002776Y-86142103D02*
X95040872Y-86180199D01*
X95040872Y-86180199D02*
X95155157Y-86218294D01*
X95155157Y-86218294D02*
X95231348Y-86218294D01*
X95231348Y-86218294D02*
X95345634Y-86180199D01*
X95345634Y-86180199D02*
X95421824Y-86104008D01*
X95421824Y-86104008D02*
X95459919Y-86027818D01*
X95459919Y-86027818D02*
X95498015Y-85875437D01*
X95498015Y-85875437D02*
X95498015Y-85761151D01*
X95498015Y-85761151D02*
X95459919Y-85608770D01*
X95459919Y-85608770D02*
X95421824Y-85532579D01*
X95421824Y-85532579D02*
X95345634Y-85456389D01*
X95345634Y-85456389D02*
X95231348Y-85418294D01*
X95231348Y-85418294D02*
X95155157Y-85418294D01*
X95155157Y-85418294D02*
X95040872Y-85456389D01*
X95040872Y-85456389D02*
X95002776Y-85494484D01*
X94278967Y-85418294D02*
X94659919Y-85418294D01*
X94659919Y-85418294D02*
X94698015Y-85799246D01*
X94698015Y-85799246D02*
X94659919Y-85761151D01*
X94659919Y-85761151D02*
X94583729Y-85723056D01*
X94583729Y-85723056D02*
X94393253Y-85723056D01*
X94393253Y-85723056D02*
X94317062Y-85761151D01*
X94317062Y-85761151D02*
X94278967Y-85799246D01*
X94278967Y-85799246D02*
X94240872Y-85875437D01*
X94240872Y-85875437D02*
X94240872Y-86065913D01*
X94240872Y-86065913D02*
X94278967Y-86142103D01*
X94278967Y-86142103D02*
X94317062Y-86180199D01*
X94317062Y-86180199D02*
X94393253Y-86218294D01*
X94393253Y-86218294D02*
X94583729Y-86218294D01*
X94583729Y-86218294D02*
X94659919Y-86180199D01*
X94659919Y-86180199D02*
X94698015Y-86142103D01*
X93478967Y-86218294D02*
X93936110Y-86218294D01*
X93707538Y-86218294D02*
X93707538Y-85418294D01*
X93707538Y-85418294D02*
X93783729Y-85532579D01*
X93783729Y-85532579D02*
X93859919Y-85608770D01*
X93859919Y-85608770D02*
X93936110Y-85646865D01*
X75902776Y-86718294D02*
X76169443Y-86337341D01*
X76359919Y-86718294D02*
X76359919Y-85918294D01*
X76359919Y-85918294D02*
X76055157Y-85918294D01*
X76055157Y-85918294D02*
X75978967Y-85956389D01*
X75978967Y-85956389D02*
X75940872Y-85994484D01*
X75940872Y-85994484D02*
X75902776Y-86070675D01*
X75902776Y-86070675D02*
X75902776Y-86184960D01*
X75902776Y-86184960D02*
X75940872Y-86261151D01*
X75940872Y-86261151D02*
X75978967Y-86299246D01*
X75978967Y-86299246D02*
X76055157Y-86337341D01*
X76055157Y-86337341D02*
X76359919Y-86337341D01*
X75636110Y-85918294D02*
X75140872Y-85918294D01*
X75140872Y-85918294D02*
X75407538Y-86223056D01*
X75407538Y-86223056D02*
X75293253Y-86223056D01*
X75293253Y-86223056D02*
X75217062Y-86261151D01*
X75217062Y-86261151D02*
X75178967Y-86299246D01*
X75178967Y-86299246D02*
X75140872Y-86375437D01*
X75140872Y-86375437D02*
X75140872Y-86565913D01*
X75140872Y-86565913D02*
X75178967Y-86642103D01*
X75178967Y-86642103D02*
X75217062Y-86680199D01*
X75217062Y-86680199D02*
X75293253Y-86718294D01*
X75293253Y-86718294D02*
X75521824Y-86718294D01*
X75521824Y-86718294D02*
X75598015Y-86680199D01*
X75598015Y-86680199D02*
X75636110Y-86642103D01*
X74683729Y-86261151D02*
X74759919Y-86223056D01*
X74759919Y-86223056D02*
X74798014Y-86184960D01*
X74798014Y-86184960D02*
X74836110Y-86108770D01*
X74836110Y-86108770D02*
X74836110Y-86070675D01*
X74836110Y-86070675D02*
X74798014Y-85994484D01*
X74798014Y-85994484D02*
X74759919Y-85956389D01*
X74759919Y-85956389D02*
X74683729Y-85918294D01*
X74683729Y-85918294D02*
X74531348Y-85918294D01*
X74531348Y-85918294D02*
X74455157Y-85956389D01*
X74455157Y-85956389D02*
X74417062Y-85994484D01*
X74417062Y-85994484D02*
X74378967Y-86070675D01*
X74378967Y-86070675D02*
X74378967Y-86108770D01*
X74378967Y-86108770D02*
X74417062Y-86184960D01*
X74417062Y-86184960D02*
X74455157Y-86223056D01*
X74455157Y-86223056D02*
X74531348Y-86261151D01*
X74531348Y-86261151D02*
X74683729Y-86261151D01*
X74683729Y-86261151D02*
X74759919Y-86299246D01*
X74759919Y-86299246D02*
X74798014Y-86337341D01*
X74798014Y-86337341D02*
X74836110Y-86413532D01*
X74836110Y-86413532D02*
X74836110Y-86565913D01*
X74836110Y-86565913D02*
X74798014Y-86642103D01*
X74798014Y-86642103D02*
X74759919Y-86680199D01*
X74759919Y-86680199D02*
X74683729Y-86718294D01*
X74683729Y-86718294D02*
X74531348Y-86718294D01*
X74531348Y-86718294D02*
X74455157Y-86680199D01*
X74455157Y-86680199D02*
X74417062Y-86642103D01*
X74417062Y-86642103D02*
X74378967Y-86565913D01*
X74378967Y-86565913D02*
X74378967Y-86413532D01*
X74378967Y-86413532D02*
X74417062Y-86337341D01*
X74417062Y-86337341D02*
X74455157Y-86299246D01*
X74455157Y-86299246D02*
X74531348Y-86261151D01*
X91952776Y-85042103D02*
X91990872Y-85080199D01*
X91990872Y-85080199D02*
X92105157Y-85118294D01*
X92105157Y-85118294D02*
X92181348Y-85118294D01*
X92181348Y-85118294D02*
X92295634Y-85080199D01*
X92295634Y-85080199D02*
X92371824Y-85004008D01*
X92371824Y-85004008D02*
X92409919Y-84927818D01*
X92409919Y-84927818D02*
X92448015Y-84775437D01*
X92448015Y-84775437D02*
X92448015Y-84661151D01*
X92448015Y-84661151D02*
X92409919Y-84508770D01*
X92409919Y-84508770D02*
X92371824Y-84432579D01*
X92371824Y-84432579D02*
X92295634Y-84356389D01*
X92295634Y-84356389D02*
X92181348Y-84318294D01*
X92181348Y-84318294D02*
X92105157Y-84318294D01*
X92105157Y-84318294D02*
X91990872Y-84356389D01*
X91990872Y-84356389D02*
X91952776Y-84394484D01*
X91190872Y-85118294D02*
X91648015Y-85118294D01*
X91419443Y-85118294D02*
X91419443Y-84318294D01*
X91419443Y-84318294D02*
X91495634Y-84432579D01*
X91495634Y-84432579D02*
X91571824Y-84508770D01*
X91571824Y-84508770D02*
X91648015Y-84546865D01*
X90924205Y-84318294D02*
X90390871Y-84318294D01*
X90390871Y-84318294D02*
X90733729Y-85118294D01*
D11*
X48231348Y-105064019D02*
X48278967Y-105111639D01*
X48278967Y-105111639D02*
X48421824Y-105159258D01*
X48421824Y-105159258D02*
X48517062Y-105159258D01*
X48517062Y-105159258D02*
X48659919Y-105111639D01*
X48659919Y-105111639D02*
X48755157Y-105016400D01*
X48755157Y-105016400D02*
X48802776Y-104921162D01*
X48802776Y-104921162D02*
X48850395Y-104730686D01*
X48850395Y-104730686D02*
X48850395Y-104587829D01*
X48850395Y-104587829D02*
X48802776Y-104397353D01*
X48802776Y-104397353D02*
X48755157Y-104302115D01*
X48755157Y-104302115D02*
X48659919Y-104206877D01*
X48659919Y-104206877D02*
X48517062Y-104159258D01*
X48517062Y-104159258D02*
X48421824Y-104159258D01*
X48421824Y-104159258D02*
X48278967Y-104206877D01*
X48278967Y-104206877D02*
X48231348Y-104254496D01*
X47755157Y-105159258D02*
X47564681Y-105159258D01*
X47564681Y-105159258D02*
X47469443Y-105111639D01*
X47469443Y-105111639D02*
X47421824Y-105064019D01*
X47421824Y-105064019D02*
X47326586Y-104921162D01*
X47326586Y-104921162D02*
X47278967Y-104730686D01*
X47278967Y-104730686D02*
X47278967Y-104349734D01*
X47278967Y-104349734D02*
X47326586Y-104254496D01*
X47326586Y-104254496D02*
X47374205Y-104206877D01*
X47374205Y-104206877D02*
X47469443Y-104159258D01*
X47469443Y-104159258D02*
X47659919Y-104159258D01*
X47659919Y-104159258D02*
X47755157Y-104206877D01*
X47755157Y-104206877D02*
X47802776Y-104254496D01*
X47802776Y-104254496D02*
X47850395Y-104349734D01*
X47850395Y-104349734D02*
X47850395Y-104587829D01*
X47850395Y-104587829D02*
X47802776Y-104683067D01*
X47802776Y-104683067D02*
X47755157Y-104730686D01*
X47755157Y-104730686D02*
X47659919Y-104778305D01*
X47659919Y-104778305D02*
X47469443Y-104778305D01*
X47469443Y-104778305D02*
X47374205Y-104730686D01*
X47374205Y-104730686D02*
X47326586Y-104683067D01*
X47326586Y-104683067D02*
X47278967Y-104587829D01*
X46802776Y-105159258D02*
X46612300Y-105159258D01*
X46612300Y-105159258D02*
X46517062Y-105111639D01*
X46517062Y-105111639D02*
X46469443Y-105064019D01*
X46469443Y-105064019D02*
X46374205Y-104921162D01*
X46374205Y-104921162D02*
X46326586Y-104730686D01*
X46326586Y-104730686D02*
X46326586Y-104349734D01*
X46326586Y-104349734D02*
X46374205Y-104254496D01*
X46374205Y-104254496D02*
X46421824Y-104206877D01*
X46421824Y-104206877D02*
X46517062Y-104159258D01*
X46517062Y-104159258D02*
X46707538Y-104159258D01*
X46707538Y-104159258D02*
X46802776Y-104206877D01*
X46802776Y-104206877D02*
X46850395Y-104254496D01*
X46850395Y-104254496D02*
X46898014Y-104349734D01*
X46898014Y-104349734D02*
X46898014Y-104587829D01*
X46898014Y-104587829D02*
X46850395Y-104683067D01*
X46850395Y-104683067D02*
X46802776Y-104730686D01*
X46802776Y-104730686D02*
X46707538Y-104778305D01*
X46707538Y-104778305D02*
X46517062Y-104778305D01*
X46517062Y-104778305D02*
X46421824Y-104730686D01*
X46421824Y-104730686D02*
X46374205Y-104683067D01*
X46374205Y-104683067D02*
X46326586Y-104587829D01*
D12*
X83902776Y-77742103D02*
X83940872Y-77780199D01*
X83940872Y-77780199D02*
X84055157Y-77818294D01*
X84055157Y-77818294D02*
X84131348Y-77818294D01*
X84131348Y-77818294D02*
X84245634Y-77780199D01*
X84245634Y-77780199D02*
X84321824Y-77704008D01*
X84321824Y-77704008D02*
X84359919Y-77627818D01*
X84359919Y-77627818D02*
X84398015Y-77475437D01*
X84398015Y-77475437D02*
X84398015Y-77361151D01*
X84398015Y-77361151D02*
X84359919Y-77208770D01*
X84359919Y-77208770D02*
X84321824Y-77132579D01*
X84321824Y-77132579D02*
X84245634Y-77056389D01*
X84245634Y-77056389D02*
X84131348Y-77018294D01*
X84131348Y-77018294D02*
X84055157Y-77018294D01*
X84055157Y-77018294D02*
X83940872Y-77056389D01*
X83940872Y-77056389D02*
X83902776Y-77094484D01*
X83636110Y-77018294D02*
X83140872Y-77018294D01*
X83140872Y-77018294D02*
X83407538Y-77323056D01*
X83407538Y-77323056D02*
X83293253Y-77323056D01*
X83293253Y-77323056D02*
X83217062Y-77361151D01*
X83217062Y-77361151D02*
X83178967Y-77399246D01*
X83178967Y-77399246D02*
X83140872Y-77475437D01*
X83140872Y-77475437D02*
X83140872Y-77665913D01*
X83140872Y-77665913D02*
X83178967Y-77742103D01*
X83178967Y-77742103D02*
X83217062Y-77780199D01*
X83217062Y-77780199D02*
X83293253Y-77818294D01*
X83293253Y-77818294D02*
X83521824Y-77818294D01*
X83521824Y-77818294D02*
X83598015Y-77780199D01*
X83598015Y-77780199D02*
X83636110Y-77742103D01*
X82378967Y-77818294D02*
X82836110Y-77818294D01*
X82607538Y-77818294D02*
X82607538Y-77018294D01*
X82607538Y-77018294D02*
X82683729Y-77132579D01*
X82683729Y-77132579D02*
X82759919Y-77208770D01*
X82759919Y-77208770D02*
X82836110Y-77246865D01*
X80852346Y-71440153D02*
X80471393Y-71173486D01*
X80852346Y-70983010D02*
X80052346Y-70983010D01*
X80052346Y-70983010D02*
X80052346Y-71287772D01*
X80052346Y-71287772D02*
X80090441Y-71363962D01*
X80090441Y-71363962D02*
X80128536Y-71402057D01*
X80128536Y-71402057D02*
X80204727Y-71440153D01*
X80204727Y-71440153D02*
X80319012Y-71440153D01*
X80319012Y-71440153D02*
X80395203Y-71402057D01*
X80395203Y-71402057D02*
X80433298Y-71363962D01*
X80433298Y-71363962D02*
X80471393Y-71287772D01*
X80471393Y-71287772D02*
X80471393Y-70983010D01*
X80852346Y-72202057D02*
X80852346Y-71744914D01*
X80852346Y-71973486D02*
X80052346Y-71973486D01*
X80052346Y-71973486D02*
X80166631Y-71897295D01*
X80166631Y-71897295D02*
X80242822Y-71821105D01*
X80242822Y-71821105D02*
X80280917Y-71744914D01*
X80052346Y-72468724D02*
X80052346Y-72963962D01*
X80052346Y-72963962D02*
X80357108Y-72697296D01*
X80357108Y-72697296D02*
X80357108Y-72811581D01*
X80357108Y-72811581D02*
X80395203Y-72887772D01*
X80395203Y-72887772D02*
X80433298Y-72925867D01*
X80433298Y-72925867D02*
X80509489Y-72963962D01*
X80509489Y-72963962D02*
X80699965Y-72963962D01*
X80699965Y-72963962D02*
X80776155Y-72925867D01*
X80776155Y-72925867D02*
X80814251Y-72887772D01*
X80814251Y-72887772D02*
X80852346Y-72811581D01*
X80852346Y-72811581D02*
X80852346Y-72583010D01*
X80852346Y-72583010D02*
X80814251Y-72506819D01*
X80814251Y-72506819D02*
X80776155Y-72468724D01*
D11*
X100549523Y-62479819D02*
X100549523Y-63194104D01*
X100549523Y-63194104D02*
X100597142Y-63336961D01*
X100597142Y-63336961D02*
X100692380Y-63432200D01*
X100692380Y-63432200D02*
X100835237Y-63479819D01*
X100835237Y-63479819D02*
X100930475Y-63479819D01*
X99549523Y-63479819D02*
X100120951Y-63479819D01*
X99835237Y-63479819D02*
X99835237Y-62479819D01*
X99835237Y-62479819D02*
X99930475Y-62622676D01*
X99930475Y-62622676D02*
X100025713Y-62717914D01*
X100025713Y-62717914D02*
X100120951Y-62765533D01*
X98930475Y-62479819D02*
X98835237Y-62479819D01*
X98835237Y-62479819D02*
X98739999Y-62527438D01*
X98739999Y-62527438D02*
X98692380Y-62575057D01*
X98692380Y-62575057D02*
X98644761Y-62670295D01*
X98644761Y-62670295D02*
X98597142Y-62860771D01*
X98597142Y-62860771D02*
X98597142Y-63098866D01*
X98597142Y-63098866D02*
X98644761Y-63289342D01*
X98644761Y-63289342D02*
X98692380Y-63384580D01*
X98692380Y-63384580D02*
X98739999Y-63432200D01*
X98739999Y-63432200D02*
X98835237Y-63479819D01*
X98835237Y-63479819D02*
X98930475Y-63479819D01*
X98930475Y-63479819D02*
X99025713Y-63432200D01*
X99025713Y-63432200D02*
X99073332Y-63384580D01*
X99073332Y-63384580D02*
X99120951Y-63289342D01*
X99120951Y-63289342D02*
X99168570Y-63098866D01*
X99168570Y-63098866D02*
X99168570Y-62860771D01*
X99168570Y-62860771D02*
X99120951Y-62670295D01*
X99120951Y-62670295D02*
X99073332Y-62575057D01*
X99073332Y-62575057D02*
X99025713Y-62527438D01*
X99025713Y-62527438D02*
X98930475Y-62479819D01*
D12*
X94802776Y-81992103D02*
X94840872Y-82030199D01*
X94840872Y-82030199D02*
X94955157Y-82068294D01*
X94955157Y-82068294D02*
X95031348Y-82068294D01*
X95031348Y-82068294D02*
X95145634Y-82030199D01*
X95145634Y-82030199D02*
X95221824Y-81954008D01*
X95221824Y-81954008D02*
X95259919Y-81877818D01*
X95259919Y-81877818D02*
X95298015Y-81725437D01*
X95298015Y-81725437D02*
X95298015Y-81611151D01*
X95298015Y-81611151D02*
X95259919Y-81458770D01*
X95259919Y-81458770D02*
X95221824Y-81382579D01*
X95221824Y-81382579D02*
X95145634Y-81306389D01*
X95145634Y-81306389D02*
X95031348Y-81268294D01*
X95031348Y-81268294D02*
X94955157Y-81268294D01*
X94955157Y-81268294D02*
X94840872Y-81306389D01*
X94840872Y-81306389D02*
X94802776Y-81344484D01*
X94040872Y-82068294D02*
X94498015Y-82068294D01*
X94269443Y-82068294D02*
X94269443Y-81268294D01*
X94269443Y-81268294D02*
X94345634Y-81382579D01*
X94345634Y-81382579D02*
X94421824Y-81458770D01*
X94421824Y-81458770D02*
X94498015Y-81496865D01*
X93736110Y-81344484D02*
X93698014Y-81306389D01*
X93698014Y-81306389D02*
X93621824Y-81268294D01*
X93621824Y-81268294D02*
X93431348Y-81268294D01*
X93431348Y-81268294D02*
X93355157Y-81306389D01*
X93355157Y-81306389D02*
X93317062Y-81344484D01*
X93317062Y-81344484D02*
X93278967Y-81420675D01*
X93278967Y-81420675D02*
X93278967Y-81496865D01*
X93278967Y-81496865D02*
X93317062Y-81611151D01*
X93317062Y-81611151D02*
X93774205Y-82068294D01*
X93774205Y-82068294D02*
X93278967Y-82068294D01*
X76002776Y-80942103D02*
X76040872Y-80980199D01*
X76040872Y-80980199D02*
X76155157Y-81018294D01*
X76155157Y-81018294D02*
X76231348Y-81018294D01*
X76231348Y-81018294D02*
X76345634Y-80980199D01*
X76345634Y-80980199D02*
X76421824Y-80904008D01*
X76421824Y-80904008D02*
X76459919Y-80827818D01*
X76459919Y-80827818D02*
X76498015Y-80675437D01*
X76498015Y-80675437D02*
X76498015Y-80561151D01*
X76498015Y-80561151D02*
X76459919Y-80408770D01*
X76459919Y-80408770D02*
X76421824Y-80332579D01*
X76421824Y-80332579D02*
X76345634Y-80256389D01*
X76345634Y-80256389D02*
X76231348Y-80218294D01*
X76231348Y-80218294D02*
X76155157Y-80218294D01*
X76155157Y-80218294D02*
X76040872Y-80256389D01*
X76040872Y-80256389D02*
X76002776Y-80294484D01*
X75736110Y-80218294D02*
X75240872Y-80218294D01*
X75240872Y-80218294D02*
X75507538Y-80523056D01*
X75507538Y-80523056D02*
X75393253Y-80523056D01*
X75393253Y-80523056D02*
X75317062Y-80561151D01*
X75317062Y-80561151D02*
X75278967Y-80599246D01*
X75278967Y-80599246D02*
X75240872Y-80675437D01*
X75240872Y-80675437D02*
X75240872Y-80865913D01*
X75240872Y-80865913D02*
X75278967Y-80942103D01*
X75278967Y-80942103D02*
X75317062Y-80980199D01*
X75317062Y-80980199D02*
X75393253Y-81018294D01*
X75393253Y-81018294D02*
X75621824Y-81018294D01*
X75621824Y-81018294D02*
X75698015Y-80980199D01*
X75698015Y-80980199D02*
X75736110Y-80942103D01*
X74555157Y-80484960D02*
X74555157Y-81018294D01*
X74745633Y-80180199D02*
X74936110Y-80751627D01*
X74936110Y-80751627D02*
X74440871Y-80751627D01*
X78002776Y-85142103D02*
X78040872Y-85180199D01*
X78040872Y-85180199D02*
X78155157Y-85218294D01*
X78155157Y-85218294D02*
X78231348Y-85218294D01*
X78231348Y-85218294D02*
X78345634Y-85180199D01*
X78345634Y-85180199D02*
X78421824Y-85104008D01*
X78421824Y-85104008D02*
X78459919Y-85027818D01*
X78459919Y-85027818D02*
X78498015Y-84875437D01*
X78498015Y-84875437D02*
X78498015Y-84761151D01*
X78498015Y-84761151D02*
X78459919Y-84608770D01*
X78459919Y-84608770D02*
X78421824Y-84532579D01*
X78421824Y-84532579D02*
X78345634Y-84456389D01*
X78345634Y-84456389D02*
X78231348Y-84418294D01*
X78231348Y-84418294D02*
X78155157Y-84418294D01*
X78155157Y-84418294D02*
X78040872Y-84456389D01*
X78040872Y-84456389D02*
X78002776Y-84494484D01*
X77736110Y-84418294D02*
X77240872Y-84418294D01*
X77240872Y-84418294D02*
X77507538Y-84723056D01*
X77507538Y-84723056D02*
X77393253Y-84723056D01*
X77393253Y-84723056D02*
X77317062Y-84761151D01*
X77317062Y-84761151D02*
X77278967Y-84799246D01*
X77278967Y-84799246D02*
X77240872Y-84875437D01*
X77240872Y-84875437D02*
X77240872Y-85065913D01*
X77240872Y-85065913D02*
X77278967Y-85142103D01*
X77278967Y-85142103D02*
X77317062Y-85180199D01*
X77317062Y-85180199D02*
X77393253Y-85218294D01*
X77393253Y-85218294D02*
X77621824Y-85218294D01*
X77621824Y-85218294D02*
X77698015Y-85180199D01*
X77698015Y-85180199D02*
X77736110Y-85142103D01*
X76974205Y-84418294D02*
X76478967Y-84418294D01*
X76478967Y-84418294D02*
X76745633Y-84723056D01*
X76745633Y-84723056D02*
X76631348Y-84723056D01*
X76631348Y-84723056D02*
X76555157Y-84761151D01*
X76555157Y-84761151D02*
X76517062Y-84799246D01*
X76517062Y-84799246D02*
X76478967Y-84875437D01*
X76478967Y-84875437D02*
X76478967Y-85065913D01*
X76478967Y-85065913D02*
X76517062Y-85142103D01*
X76517062Y-85142103D02*
X76555157Y-85180199D01*
X76555157Y-85180199D02*
X76631348Y-85218294D01*
X76631348Y-85218294D02*
X76859919Y-85218294D01*
X76859919Y-85218294D02*
X76936110Y-85180199D01*
X76936110Y-85180199D02*
X76974205Y-85142103D01*
X85326155Y-93740153D02*
X85364251Y-93702057D01*
X85364251Y-93702057D02*
X85402346Y-93587772D01*
X85402346Y-93587772D02*
X85402346Y-93511581D01*
X85402346Y-93511581D02*
X85364251Y-93397295D01*
X85364251Y-93397295D02*
X85288060Y-93321105D01*
X85288060Y-93321105D02*
X85211870Y-93283010D01*
X85211870Y-93283010D02*
X85059489Y-93244914D01*
X85059489Y-93244914D02*
X84945203Y-93244914D01*
X84945203Y-93244914D02*
X84792822Y-93283010D01*
X84792822Y-93283010D02*
X84716631Y-93321105D01*
X84716631Y-93321105D02*
X84640441Y-93397295D01*
X84640441Y-93397295D02*
X84602346Y-93511581D01*
X84602346Y-93511581D02*
X84602346Y-93587772D01*
X84602346Y-93587772D02*
X84640441Y-93702057D01*
X84640441Y-93702057D02*
X84678536Y-93740153D01*
X84602346Y-94463962D02*
X84602346Y-94083010D01*
X84602346Y-94083010D02*
X84983298Y-94044914D01*
X84983298Y-94044914D02*
X84945203Y-94083010D01*
X84945203Y-94083010D02*
X84907108Y-94159200D01*
X84907108Y-94159200D02*
X84907108Y-94349676D01*
X84907108Y-94349676D02*
X84945203Y-94425867D01*
X84945203Y-94425867D02*
X84983298Y-94463962D01*
X84983298Y-94463962D02*
X85059489Y-94502057D01*
X85059489Y-94502057D02*
X85249965Y-94502057D01*
X85249965Y-94502057D02*
X85326155Y-94463962D01*
X85326155Y-94463962D02*
X85364251Y-94425867D01*
X85364251Y-94425867D02*
X85402346Y-94349676D01*
X85402346Y-94349676D02*
X85402346Y-94159200D01*
X85402346Y-94159200D02*
X85364251Y-94083010D01*
X85364251Y-94083010D02*
X85326155Y-94044914D01*
X84945203Y-94959200D02*
X84907108Y-94883010D01*
X84907108Y-94883010D02*
X84869012Y-94844915D01*
X84869012Y-94844915D02*
X84792822Y-94806819D01*
X84792822Y-94806819D02*
X84754727Y-94806819D01*
X84754727Y-94806819D02*
X84678536Y-94844915D01*
X84678536Y-94844915D02*
X84640441Y-94883010D01*
X84640441Y-94883010D02*
X84602346Y-94959200D01*
X84602346Y-94959200D02*
X84602346Y-95111581D01*
X84602346Y-95111581D02*
X84640441Y-95187772D01*
X84640441Y-95187772D02*
X84678536Y-95225867D01*
X84678536Y-95225867D02*
X84754727Y-95263962D01*
X84754727Y-95263962D02*
X84792822Y-95263962D01*
X84792822Y-95263962D02*
X84869012Y-95225867D01*
X84869012Y-95225867D02*
X84907108Y-95187772D01*
X84907108Y-95187772D02*
X84945203Y-95111581D01*
X84945203Y-95111581D02*
X84945203Y-94959200D01*
X84945203Y-94959200D02*
X84983298Y-94883010D01*
X84983298Y-94883010D02*
X85021393Y-94844915D01*
X85021393Y-94844915D02*
X85097584Y-94806819D01*
X85097584Y-94806819D02*
X85249965Y-94806819D01*
X85249965Y-94806819D02*
X85326155Y-94844915D01*
X85326155Y-94844915D02*
X85364251Y-94883010D01*
X85364251Y-94883010D02*
X85402346Y-94959200D01*
X85402346Y-94959200D02*
X85402346Y-95111581D01*
X85402346Y-95111581D02*
X85364251Y-95187772D01*
X85364251Y-95187772D02*
X85326155Y-95225867D01*
X85326155Y-95225867D02*
X85249965Y-95263962D01*
X85249965Y-95263962D02*
X85097584Y-95263962D01*
X85097584Y-95263962D02*
X85021393Y-95225867D01*
X85021393Y-95225867D02*
X84983298Y-95187772D01*
X84983298Y-95187772D02*
X84945203Y-95111581D01*
X63876155Y-83190153D02*
X63914251Y-83152057D01*
X63914251Y-83152057D02*
X63952346Y-83037772D01*
X63952346Y-83037772D02*
X63952346Y-82961581D01*
X63952346Y-82961581D02*
X63914251Y-82847295D01*
X63914251Y-82847295D02*
X63838060Y-82771105D01*
X63838060Y-82771105D02*
X63761870Y-82733010D01*
X63761870Y-82733010D02*
X63609489Y-82694914D01*
X63609489Y-82694914D02*
X63495203Y-82694914D01*
X63495203Y-82694914D02*
X63342822Y-82733010D01*
X63342822Y-82733010D02*
X63266631Y-82771105D01*
X63266631Y-82771105D02*
X63190441Y-82847295D01*
X63190441Y-82847295D02*
X63152346Y-82961581D01*
X63152346Y-82961581D02*
X63152346Y-83037772D01*
X63152346Y-83037772D02*
X63190441Y-83152057D01*
X63190441Y-83152057D02*
X63228536Y-83190153D01*
X63152346Y-83456819D02*
X63152346Y-83990153D01*
X63152346Y-83990153D02*
X63952346Y-83647295D01*
X63152346Y-84447296D02*
X63152346Y-84523486D01*
X63152346Y-84523486D02*
X63190441Y-84599677D01*
X63190441Y-84599677D02*
X63228536Y-84637772D01*
X63228536Y-84637772D02*
X63304727Y-84675867D01*
X63304727Y-84675867D02*
X63457108Y-84713962D01*
X63457108Y-84713962D02*
X63647584Y-84713962D01*
X63647584Y-84713962D02*
X63799965Y-84675867D01*
X63799965Y-84675867D02*
X63876155Y-84637772D01*
X63876155Y-84637772D02*
X63914251Y-84599677D01*
X63914251Y-84599677D02*
X63952346Y-84523486D01*
X63952346Y-84523486D02*
X63952346Y-84447296D01*
X63952346Y-84447296D02*
X63914251Y-84371105D01*
X63914251Y-84371105D02*
X63876155Y-84333010D01*
X63876155Y-84333010D02*
X63799965Y-84294915D01*
X63799965Y-84294915D02*
X63647584Y-84256819D01*
X63647584Y-84256819D02*
X63457108Y-84256819D01*
X63457108Y-84256819D02*
X63304727Y-84294915D01*
X63304727Y-84294915D02*
X63228536Y-84333010D01*
X63228536Y-84333010D02*
X63190441Y-84371105D01*
X63190441Y-84371105D02*
X63152346Y-84447296D01*
D11*
X48231348Y-106859258D02*
X48564681Y-106383067D01*
X48802776Y-106859258D02*
X48802776Y-105859258D01*
X48802776Y-105859258D02*
X48421824Y-105859258D01*
X48421824Y-105859258D02*
X48326586Y-105906877D01*
X48326586Y-105906877D02*
X48278967Y-105954496D01*
X48278967Y-105954496D02*
X48231348Y-106049734D01*
X48231348Y-106049734D02*
X48231348Y-106192591D01*
X48231348Y-106192591D02*
X48278967Y-106287829D01*
X48278967Y-106287829D02*
X48326586Y-106335448D01*
X48326586Y-106335448D02*
X48421824Y-106383067D01*
X48421824Y-106383067D02*
X48802776Y-106383067D01*
X47850395Y-105954496D02*
X47802776Y-105906877D01*
X47802776Y-105906877D02*
X47707538Y-105859258D01*
X47707538Y-105859258D02*
X47469443Y-105859258D01*
X47469443Y-105859258D02*
X47374205Y-105906877D01*
X47374205Y-105906877D02*
X47326586Y-105954496D01*
X47326586Y-105954496D02*
X47278967Y-106049734D01*
X47278967Y-106049734D02*
X47278967Y-106144972D01*
X47278967Y-106144972D02*
X47326586Y-106287829D01*
X47326586Y-106287829D02*
X47898014Y-106859258D01*
X47898014Y-106859258D02*
X47278967Y-106859258D01*
X46802776Y-106859258D02*
X46612300Y-106859258D01*
X46612300Y-106859258D02*
X46517062Y-106811639D01*
X46517062Y-106811639D02*
X46469443Y-106764019D01*
X46469443Y-106764019D02*
X46374205Y-106621162D01*
X46374205Y-106621162D02*
X46326586Y-106430686D01*
X46326586Y-106430686D02*
X46326586Y-106049734D01*
X46326586Y-106049734D02*
X46374205Y-105954496D01*
X46374205Y-105954496D02*
X46421824Y-105906877D01*
X46421824Y-105906877D02*
X46517062Y-105859258D01*
X46517062Y-105859258D02*
X46707538Y-105859258D01*
X46707538Y-105859258D02*
X46802776Y-105906877D01*
X46802776Y-105906877D02*
X46850395Y-105954496D01*
X46850395Y-105954496D02*
X46898014Y-106049734D01*
X46898014Y-106049734D02*
X46898014Y-106287829D01*
X46898014Y-106287829D02*
X46850395Y-106383067D01*
X46850395Y-106383067D02*
X46802776Y-106430686D01*
X46802776Y-106430686D02*
X46707538Y-106478305D01*
X46707538Y-106478305D02*
X46517062Y-106478305D01*
X46517062Y-106478305D02*
X46421824Y-106430686D01*
X46421824Y-106430686D02*
X46374205Y-106383067D01*
X46374205Y-106383067D02*
X46326586Y-106287829D01*
D12*
X91702776Y-86042103D02*
X91740872Y-86080199D01*
X91740872Y-86080199D02*
X91855157Y-86118294D01*
X91855157Y-86118294D02*
X91931348Y-86118294D01*
X91931348Y-86118294D02*
X92045634Y-86080199D01*
X92045634Y-86080199D02*
X92121824Y-86004008D01*
X92121824Y-86004008D02*
X92159919Y-85927818D01*
X92159919Y-85927818D02*
X92198015Y-85775437D01*
X92198015Y-85775437D02*
X92198015Y-85661151D01*
X92198015Y-85661151D02*
X92159919Y-85508770D01*
X92159919Y-85508770D02*
X92121824Y-85432579D01*
X92121824Y-85432579D02*
X92045634Y-85356389D01*
X92045634Y-85356389D02*
X91931348Y-85318294D01*
X91931348Y-85318294D02*
X91855157Y-85318294D01*
X91855157Y-85318294D02*
X91740872Y-85356389D01*
X91740872Y-85356389D02*
X91702776Y-85394484D01*
X90940872Y-86118294D02*
X91398015Y-86118294D01*
X91169443Y-86118294D02*
X91169443Y-85318294D01*
X91169443Y-85318294D02*
X91245634Y-85432579D01*
X91245634Y-85432579D02*
X91321824Y-85508770D01*
X91321824Y-85508770D02*
X91398015Y-85546865D01*
X90255157Y-85584960D02*
X90255157Y-86118294D01*
X90445633Y-85280199D02*
X90636110Y-85851627D01*
X90636110Y-85851627D02*
X90140871Y-85851627D01*
D11*
X134820705Y-139039704D02*
X134677848Y-139087323D01*
X134677848Y-139087323D02*
X134630229Y-139134942D01*
X134630229Y-139134942D02*
X134582610Y-139230180D01*
X134582610Y-139230180D02*
X134582610Y-139373037D01*
X134582610Y-139373037D02*
X134630229Y-139468275D01*
X134630229Y-139468275D02*
X134677848Y-139515895D01*
X134677848Y-139515895D02*
X134773086Y-139563514D01*
X134773086Y-139563514D02*
X135154038Y-139563514D01*
X135154038Y-139563514D02*
X135154038Y-138563514D01*
X135154038Y-138563514D02*
X134820705Y-138563514D01*
X134820705Y-138563514D02*
X134725467Y-138611133D01*
X134725467Y-138611133D02*
X134677848Y-138658752D01*
X134677848Y-138658752D02*
X134630229Y-138753990D01*
X134630229Y-138753990D02*
X134630229Y-138849228D01*
X134630229Y-138849228D02*
X134677848Y-138944466D01*
X134677848Y-138944466D02*
X134725467Y-138992085D01*
X134725467Y-138992085D02*
X134820705Y-139039704D01*
X134820705Y-139039704D02*
X135154038Y-139039704D01*
X134296895Y-138563514D02*
X133725467Y-138563514D01*
X134011181Y-139563514D02*
X134011181Y-138563514D01*
X132868324Y-139563514D02*
X133439752Y-139563514D01*
X133154038Y-139563514D02*
X133154038Y-138563514D01*
X133154038Y-138563514D02*
X133249276Y-138706371D01*
X133249276Y-138706371D02*
X133344514Y-138801609D01*
X133344514Y-138801609D02*
X133439752Y-138849228D01*
D12*
X76926156Y-78490153D02*
X76964252Y-78452057D01*
X76964252Y-78452057D02*
X77002347Y-78337772D01*
X77002347Y-78337772D02*
X77002347Y-78261581D01*
X77002347Y-78261581D02*
X76964252Y-78147295D01*
X76964252Y-78147295D02*
X76888061Y-78071105D01*
X76888061Y-78071105D02*
X76811871Y-78033010D01*
X76811871Y-78033010D02*
X76659490Y-77994914D01*
X76659490Y-77994914D02*
X76545204Y-77994914D01*
X76545204Y-77994914D02*
X76392823Y-78033010D01*
X76392823Y-78033010D02*
X76316632Y-78071105D01*
X76316632Y-78071105D02*
X76240442Y-78147295D01*
X76240442Y-78147295D02*
X76202347Y-78261581D01*
X76202347Y-78261581D02*
X76202347Y-78337772D01*
X76202347Y-78337772D02*
X76240442Y-78452057D01*
X76240442Y-78452057D02*
X76278537Y-78490153D01*
X76202347Y-79213962D02*
X76202347Y-78833010D01*
X76202347Y-78833010D02*
X76583299Y-78794914D01*
X76583299Y-78794914D02*
X76545204Y-78833010D01*
X76545204Y-78833010D02*
X76507109Y-78909200D01*
X76507109Y-78909200D02*
X76507109Y-79099676D01*
X76507109Y-79099676D02*
X76545204Y-79175867D01*
X76545204Y-79175867D02*
X76583299Y-79213962D01*
X76583299Y-79213962D02*
X76659490Y-79252057D01*
X76659490Y-79252057D02*
X76849966Y-79252057D01*
X76849966Y-79252057D02*
X76926156Y-79213962D01*
X76926156Y-79213962D02*
X76964252Y-79175867D01*
X76964252Y-79175867D02*
X77002347Y-79099676D01*
X77002347Y-79099676D02*
X77002347Y-78909200D01*
X77002347Y-78909200D02*
X76964252Y-78833010D01*
X76964252Y-78833010D02*
X76926156Y-78794914D01*
X76469013Y-79937772D02*
X77002347Y-79937772D01*
X76164252Y-79747296D02*
X76735680Y-79556819D01*
X76735680Y-79556819D02*
X76735680Y-80052058D01*
X58126155Y-74540153D02*
X58164251Y-74502057D01*
X58164251Y-74502057D02*
X58202346Y-74387772D01*
X58202346Y-74387772D02*
X58202346Y-74311581D01*
X58202346Y-74311581D02*
X58164251Y-74197295D01*
X58164251Y-74197295D02*
X58088060Y-74121105D01*
X58088060Y-74121105D02*
X58011870Y-74083010D01*
X58011870Y-74083010D02*
X57859489Y-74044914D01*
X57859489Y-74044914D02*
X57745203Y-74044914D01*
X57745203Y-74044914D02*
X57592822Y-74083010D01*
X57592822Y-74083010D02*
X57516631Y-74121105D01*
X57516631Y-74121105D02*
X57440441Y-74197295D01*
X57440441Y-74197295D02*
X57402346Y-74311581D01*
X57402346Y-74311581D02*
X57402346Y-74387772D01*
X57402346Y-74387772D02*
X57440441Y-74502057D01*
X57440441Y-74502057D02*
X57478536Y-74540153D01*
X57402346Y-74806819D02*
X57402346Y-75340153D01*
X57402346Y-75340153D02*
X58202346Y-74997295D01*
X57402346Y-75568724D02*
X57402346Y-76102058D01*
X57402346Y-76102058D02*
X58202346Y-75759200D01*
X60076155Y-73590153D02*
X60114251Y-73552057D01*
X60114251Y-73552057D02*
X60152346Y-73437772D01*
X60152346Y-73437772D02*
X60152346Y-73361581D01*
X60152346Y-73361581D02*
X60114251Y-73247295D01*
X60114251Y-73247295D02*
X60038060Y-73171105D01*
X60038060Y-73171105D02*
X59961870Y-73133010D01*
X59961870Y-73133010D02*
X59809489Y-73094914D01*
X59809489Y-73094914D02*
X59695203Y-73094914D01*
X59695203Y-73094914D02*
X59542822Y-73133010D01*
X59542822Y-73133010D02*
X59466631Y-73171105D01*
X59466631Y-73171105D02*
X59390441Y-73247295D01*
X59390441Y-73247295D02*
X59352346Y-73361581D01*
X59352346Y-73361581D02*
X59352346Y-73437772D01*
X59352346Y-73437772D02*
X59390441Y-73552057D01*
X59390441Y-73552057D02*
X59428536Y-73590153D01*
X59352346Y-73856819D02*
X59352346Y-74390153D01*
X59352346Y-74390153D02*
X60152346Y-74047295D01*
X59428536Y-74656819D02*
X59390441Y-74694915D01*
X59390441Y-74694915D02*
X59352346Y-74771105D01*
X59352346Y-74771105D02*
X59352346Y-74961581D01*
X59352346Y-74961581D02*
X59390441Y-75037772D01*
X59390441Y-75037772D02*
X59428536Y-75075867D01*
X59428536Y-75075867D02*
X59504727Y-75113962D01*
X59504727Y-75113962D02*
X59580917Y-75113962D01*
X59580917Y-75113962D02*
X59695203Y-75075867D01*
X59695203Y-75075867D02*
X60152346Y-74618724D01*
X60152346Y-74618724D02*
X60152346Y-75113962D01*
X90076155Y-82680153D02*
X90114251Y-82642057D01*
X90114251Y-82642057D02*
X90152346Y-82527772D01*
X90152346Y-82527772D02*
X90152346Y-82451581D01*
X90152346Y-82451581D02*
X90114251Y-82337295D01*
X90114251Y-82337295D02*
X90038060Y-82261105D01*
X90038060Y-82261105D02*
X89961870Y-82223010D01*
X89961870Y-82223010D02*
X89809489Y-82184914D01*
X89809489Y-82184914D02*
X89695203Y-82184914D01*
X89695203Y-82184914D02*
X89542822Y-82223010D01*
X89542822Y-82223010D02*
X89466631Y-82261105D01*
X89466631Y-82261105D02*
X89390441Y-82337295D01*
X89390441Y-82337295D02*
X89352346Y-82451581D01*
X89352346Y-82451581D02*
X89352346Y-82527772D01*
X89352346Y-82527772D02*
X89390441Y-82642057D01*
X89390441Y-82642057D02*
X89428536Y-82680153D01*
X89352346Y-82946819D02*
X89352346Y-83442057D01*
X89352346Y-83442057D02*
X89657108Y-83175391D01*
X89657108Y-83175391D02*
X89657108Y-83289676D01*
X89657108Y-83289676D02*
X89695203Y-83365867D01*
X89695203Y-83365867D02*
X89733298Y-83403962D01*
X89733298Y-83403962D02*
X89809489Y-83442057D01*
X89809489Y-83442057D02*
X89999965Y-83442057D01*
X89999965Y-83442057D02*
X90076155Y-83403962D01*
X90076155Y-83403962D02*
X90114251Y-83365867D01*
X90114251Y-83365867D02*
X90152346Y-83289676D01*
X90152346Y-83289676D02*
X90152346Y-83061105D01*
X90152346Y-83061105D02*
X90114251Y-82984914D01*
X90114251Y-82984914D02*
X90076155Y-82946819D01*
X89352346Y-83937296D02*
X89352346Y-84013486D01*
X89352346Y-84013486D02*
X89390441Y-84089677D01*
X89390441Y-84089677D02*
X89428536Y-84127772D01*
X89428536Y-84127772D02*
X89504727Y-84165867D01*
X89504727Y-84165867D02*
X89657108Y-84203962D01*
X89657108Y-84203962D02*
X89847584Y-84203962D01*
X89847584Y-84203962D02*
X89999965Y-84165867D01*
X89999965Y-84165867D02*
X90076155Y-84127772D01*
X90076155Y-84127772D02*
X90114251Y-84089677D01*
X90114251Y-84089677D02*
X90152346Y-84013486D01*
X90152346Y-84013486D02*
X90152346Y-83937296D01*
X90152346Y-83937296D02*
X90114251Y-83861105D01*
X90114251Y-83861105D02*
X90076155Y-83823010D01*
X90076155Y-83823010D02*
X89999965Y-83784915D01*
X89999965Y-83784915D02*
X89847584Y-83746819D01*
X89847584Y-83746819D02*
X89657108Y-83746819D01*
X89657108Y-83746819D02*
X89504727Y-83784915D01*
X89504727Y-83784915D02*
X89428536Y-83823010D01*
X89428536Y-83823010D02*
X89390441Y-83861105D01*
X89390441Y-83861105D02*
X89352346Y-83937296D01*
X79252346Y-71440153D02*
X78871393Y-71173486D01*
X79252346Y-70983010D02*
X78452346Y-70983010D01*
X78452346Y-70983010D02*
X78452346Y-71287772D01*
X78452346Y-71287772D02*
X78490441Y-71363962D01*
X78490441Y-71363962D02*
X78528536Y-71402057D01*
X78528536Y-71402057D02*
X78604727Y-71440153D01*
X78604727Y-71440153D02*
X78719012Y-71440153D01*
X78719012Y-71440153D02*
X78795203Y-71402057D01*
X78795203Y-71402057D02*
X78833298Y-71363962D01*
X78833298Y-71363962D02*
X78871393Y-71287772D01*
X78871393Y-71287772D02*
X78871393Y-70983010D01*
X78719012Y-72125867D02*
X79252346Y-72125867D01*
X78414251Y-71935391D02*
X78985679Y-71744914D01*
X78985679Y-71744914D02*
X78985679Y-72240153D01*
X79252346Y-72963962D02*
X79252346Y-72506819D01*
X79252346Y-72735391D02*
X78452346Y-72735391D01*
X78452346Y-72735391D02*
X78566631Y-72659200D01*
X78566631Y-72659200D02*
X78642822Y-72583010D01*
X78642822Y-72583010D02*
X78680917Y-72506819D01*
X82776155Y-91390153D02*
X82814251Y-91352057D01*
X82814251Y-91352057D02*
X82852346Y-91237772D01*
X82852346Y-91237772D02*
X82852346Y-91161581D01*
X82852346Y-91161581D02*
X82814251Y-91047295D01*
X82814251Y-91047295D02*
X82738060Y-90971105D01*
X82738060Y-90971105D02*
X82661870Y-90933010D01*
X82661870Y-90933010D02*
X82509489Y-90894914D01*
X82509489Y-90894914D02*
X82395203Y-90894914D01*
X82395203Y-90894914D02*
X82242822Y-90933010D01*
X82242822Y-90933010D02*
X82166631Y-90971105D01*
X82166631Y-90971105D02*
X82090441Y-91047295D01*
X82090441Y-91047295D02*
X82052346Y-91161581D01*
X82052346Y-91161581D02*
X82052346Y-91237772D01*
X82052346Y-91237772D02*
X82090441Y-91352057D01*
X82090441Y-91352057D02*
X82128536Y-91390153D01*
X82319012Y-92075867D02*
X82852346Y-92075867D01*
X82014251Y-91885391D02*
X82585679Y-91694914D01*
X82585679Y-91694914D02*
X82585679Y-92190153D01*
X82052346Y-92837772D02*
X82052346Y-92685391D01*
X82052346Y-92685391D02*
X82090441Y-92609200D01*
X82090441Y-92609200D02*
X82128536Y-92571105D01*
X82128536Y-92571105D02*
X82242822Y-92494915D01*
X82242822Y-92494915D02*
X82395203Y-92456819D01*
X82395203Y-92456819D02*
X82699965Y-92456819D01*
X82699965Y-92456819D02*
X82776155Y-92494915D01*
X82776155Y-92494915D02*
X82814251Y-92533010D01*
X82814251Y-92533010D02*
X82852346Y-92609200D01*
X82852346Y-92609200D02*
X82852346Y-92761581D01*
X82852346Y-92761581D02*
X82814251Y-92837772D01*
X82814251Y-92837772D02*
X82776155Y-92875867D01*
X82776155Y-92875867D02*
X82699965Y-92913962D01*
X82699965Y-92913962D02*
X82509489Y-92913962D01*
X82509489Y-92913962D02*
X82433298Y-92875867D01*
X82433298Y-92875867D02*
X82395203Y-92837772D01*
X82395203Y-92837772D02*
X82357108Y-92761581D01*
X82357108Y-92761581D02*
X82357108Y-92609200D01*
X82357108Y-92609200D02*
X82395203Y-92533010D01*
X82395203Y-92533010D02*
X82433298Y-92494915D01*
X82433298Y-92494915D02*
X82509489Y-92456819D01*
X90326155Y-79290153D02*
X90364251Y-79252057D01*
X90364251Y-79252057D02*
X90402346Y-79137772D01*
X90402346Y-79137772D02*
X90402346Y-79061581D01*
X90402346Y-79061581D02*
X90364251Y-78947295D01*
X90364251Y-78947295D02*
X90288060Y-78871105D01*
X90288060Y-78871105D02*
X90211870Y-78833010D01*
X90211870Y-78833010D02*
X90059489Y-78794914D01*
X90059489Y-78794914D02*
X89945203Y-78794914D01*
X89945203Y-78794914D02*
X89792822Y-78833010D01*
X89792822Y-78833010D02*
X89716631Y-78871105D01*
X89716631Y-78871105D02*
X89640441Y-78947295D01*
X89640441Y-78947295D02*
X89602346Y-79061581D01*
X89602346Y-79061581D02*
X89602346Y-79137772D01*
X89602346Y-79137772D02*
X89640441Y-79252057D01*
X89640441Y-79252057D02*
X89678536Y-79290153D01*
X89602346Y-79975867D02*
X89602346Y-79823486D01*
X89602346Y-79823486D02*
X89640441Y-79747295D01*
X89640441Y-79747295D02*
X89678536Y-79709200D01*
X89678536Y-79709200D02*
X89792822Y-79633010D01*
X89792822Y-79633010D02*
X89945203Y-79594914D01*
X89945203Y-79594914D02*
X90249965Y-79594914D01*
X90249965Y-79594914D02*
X90326155Y-79633010D01*
X90326155Y-79633010D02*
X90364251Y-79671105D01*
X90364251Y-79671105D02*
X90402346Y-79747295D01*
X90402346Y-79747295D02*
X90402346Y-79899676D01*
X90402346Y-79899676D02*
X90364251Y-79975867D01*
X90364251Y-79975867D02*
X90326155Y-80013962D01*
X90326155Y-80013962D02*
X90249965Y-80052057D01*
X90249965Y-80052057D02*
X90059489Y-80052057D01*
X90059489Y-80052057D02*
X89983298Y-80013962D01*
X89983298Y-80013962D02*
X89945203Y-79975867D01*
X89945203Y-79975867D02*
X89907108Y-79899676D01*
X89907108Y-79899676D02*
X89907108Y-79747295D01*
X89907108Y-79747295D02*
X89945203Y-79671105D01*
X89945203Y-79671105D02*
X89983298Y-79633010D01*
X89983298Y-79633010D02*
X90059489Y-79594914D01*
X89869012Y-80737772D02*
X90402346Y-80737772D01*
X89564251Y-80547296D02*
X90135679Y-80356819D01*
X90135679Y-80356819D02*
X90135679Y-80852058D01*
X67176155Y-81590153D02*
X67214251Y-81552057D01*
X67214251Y-81552057D02*
X67252346Y-81437772D01*
X67252346Y-81437772D02*
X67252346Y-81361581D01*
X67252346Y-81361581D02*
X67214251Y-81247295D01*
X67214251Y-81247295D02*
X67138060Y-81171105D01*
X67138060Y-81171105D02*
X67061870Y-81133010D01*
X67061870Y-81133010D02*
X66909489Y-81094914D01*
X66909489Y-81094914D02*
X66795203Y-81094914D01*
X66795203Y-81094914D02*
X66642822Y-81133010D01*
X66642822Y-81133010D02*
X66566631Y-81171105D01*
X66566631Y-81171105D02*
X66490441Y-81247295D01*
X66490441Y-81247295D02*
X66452346Y-81361581D01*
X66452346Y-81361581D02*
X66452346Y-81437772D01*
X66452346Y-81437772D02*
X66490441Y-81552057D01*
X66490441Y-81552057D02*
X66528536Y-81590153D01*
X66452346Y-81856819D02*
X66452346Y-82390153D01*
X66452346Y-82390153D02*
X67252346Y-82047295D01*
X67252346Y-82733010D02*
X67252346Y-82885391D01*
X67252346Y-82885391D02*
X67214251Y-82961581D01*
X67214251Y-82961581D02*
X67176155Y-82999677D01*
X67176155Y-82999677D02*
X67061870Y-83075867D01*
X67061870Y-83075867D02*
X66909489Y-83113962D01*
X66909489Y-83113962D02*
X66604727Y-83113962D01*
X66604727Y-83113962D02*
X66528536Y-83075867D01*
X66528536Y-83075867D02*
X66490441Y-83037772D01*
X66490441Y-83037772D02*
X66452346Y-82961581D01*
X66452346Y-82961581D02*
X66452346Y-82809200D01*
X66452346Y-82809200D02*
X66490441Y-82733010D01*
X66490441Y-82733010D02*
X66528536Y-82694915D01*
X66528536Y-82694915D02*
X66604727Y-82656819D01*
X66604727Y-82656819D02*
X66795203Y-82656819D01*
X66795203Y-82656819D02*
X66871393Y-82694915D01*
X66871393Y-82694915D02*
X66909489Y-82733010D01*
X66909489Y-82733010D02*
X66947584Y-82809200D01*
X66947584Y-82809200D02*
X66947584Y-82961581D01*
X66947584Y-82961581D02*
X66909489Y-83037772D01*
X66909489Y-83037772D02*
X66871393Y-83075867D01*
X66871393Y-83075867D02*
X66795203Y-83113962D01*
X75626155Y-77440153D02*
X75664251Y-77402057D01*
X75664251Y-77402057D02*
X75702346Y-77287772D01*
X75702346Y-77287772D02*
X75702346Y-77211581D01*
X75702346Y-77211581D02*
X75664251Y-77097295D01*
X75664251Y-77097295D02*
X75588060Y-77021105D01*
X75588060Y-77021105D02*
X75511870Y-76983010D01*
X75511870Y-76983010D02*
X75359489Y-76944914D01*
X75359489Y-76944914D02*
X75245203Y-76944914D01*
X75245203Y-76944914D02*
X75092822Y-76983010D01*
X75092822Y-76983010D02*
X75016631Y-77021105D01*
X75016631Y-77021105D02*
X74940441Y-77097295D01*
X74940441Y-77097295D02*
X74902346Y-77211581D01*
X74902346Y-77211581D02*
X74902346Y-77287772D01*
X74902346Y-77287772D02*
X74940441Y-77402057D01*
X74940441Y-77402057D02*
X74978536Y-77440153D01*
X74978536Y-77744914D02*
X74940441Y-77783010D01*
X74940441Y-77783010D02*
X74902346Y-77859200D01*
X74902346Y-77859200D02*
X74902346Y-78049676D01*
X74902346Y-78049676D02*
X74940441Y-78125867D01*
X74940441Y-78125867D02*
X74978536Y-78163962D01*
X74978536Y-78163962D02*
X75054727Y-78202057D01*
X75054727Y-78202057D02*
X75130917Y-78202057D01*
X75130917Y-78202057D02*
X75245203Y-78163962D01*
X75245203Y-78163962D02*
X75702346Y-77706819D01*
X75702346Y-77706819D02*
X75702346Y-78202057D01*
X74902346Y-78468724D02*
X74902346Y-78963962D01*
X74902346Y-78963962D02*
X75207108Y-78697296D01*
X75207108Y-78697296D02*
X75207108Y-78811581D01*
X75207108Y-78811581D02*
X75245203Y-78887772D01*
X75245203Y-78887772D02*
X75283298Y-78925867D01*
X75283298Y-78925867D02*
X75359489Y-78963962D01*
X75359489Y-78963962D02*
X75549965Y-78963962D01*
X75549965Y-78963962D02*
X75626155Y-78925867D01*
X75626155Y-78925867D02*
X75664251Y-78887772D01*
X75664251Y-78887772D02*
X75702346Y-78811581D01*
X75702346Y-78811581D02*
X75702346Y-78583010D01*
X75702346Y-78583010D02*
X75664251Y-78506819D01*
X75664251Y-78506819D02*
X75626155Y-78468724D01*
X90336155Y-74690153D02*
X90374251Y-74652057D01*
X90374251Y-74652057D02*
X90412346Y-74537772D01*
X90412346Y-74537772D02*
X90412346Y-74461581D01*
X90412346Y-74461581D02*
X90374251Y-74347295D01*
X90374251Y-74347295D02*
X90298060Y-74271105D01*
X90298060Y-74271105D02*
X90221870Y-74233010D01*
X90221870Y-74233010D02*
X90069489Y-74194914D01*
X90069489Y-74194914D02*
X89955203Y-74194914D01*
X89955203Y-74194914D02*
X89802822Y-74233010D01*
X89802822Y-74233010D02*
X89726631Y-74271105D01*
X89726631Y-74271105D02*
X89650441Y-74347295D01*
X89650441Y-74347295D02*
X89612346Y-74461581D01*
X89612346Y-74461581D02*
X89612346Y-74537772D01*
X89612346Y-74537772D02*
X89650441Y-74652057D01*
X89650441Y-74652057D02*
X89688536Y-74690153D01*
X89612346Y-75375867D02*
X89612346Y-75223486D01*
X89612346Y-75223486D02*
X89650441Y-75147295D01*
X89650441Y-75147295D02*
X89688536Y-75109200D01*
X89688536Y-75109200D02*
X89802822Y-75033010D01*
X89802822Y-75033010D02*
X89955203Y-74994914D01*
X89955203Y-74994914D02*
X90259965Y-74994914D01*
X90259965Y-74994914D02*
X90336155Y-75033010D01*
X90336155Y-75033010D02*
X90374251Y-75071105D01*
X90374251Y-75071105D02*
X90412346Y-75147295D01*
X90412346Y-75147295D02*
X90412346Y-75299676D01*
X90412346Y-75299676D02*
X90374251Y-75375867D01*
X90374251Y-75375867D02*
X90336155Y-75413962D01*
X90336155Y-75413962D02*
X90259965Y-75452057D01*
X90259965Y-75452057D02*
X90069489Y-75452057D01*
X90069489Y-75452057D02*
X89993298Y-75413962D01*
X89993298Y-75413962D02*
X89955203Y-75375867D01*
X89955203Y-75375867D02*
X89917108Y-75299676D01*
X89917108Y-75299676D02*
X89917108Y-75147295D01*
X89917108Y-75147295D02*
X89955203Y-75071105D01*
X89955203Y-75071105D02*
X89993298Y-75033010D01*
X89993298Y-75033010D02*
X90069489Y-74994914D01*
X89688536Y-75756819D02*
X89650441Y-75794915D01*
X89650441Y-75794915D02*
X89612346Y-75871105D01*
X89612346Y-75871105D02*
X89612346Y-76061581D01*
X89612346Y-76061581D02*
X89650441Y-76137772D01*
X89650441Y-76137772D02*
X89688536Y-76175867D01*
X89688536Y-76175867D02*
X89764727Y-76213962D01*
X89764727Y-76213962D02*
X89840917Y-76213962D01*
X89840917Y-76213962D02*
X89955203Y-76175867D01*
X89955203Y-76175867D02*
X90412346Y-75718724D01*
X90412346Y-75718724D02*
X90412346Y-76213962D01*
X69782346Y-77490153D02*
X69401393Y-77223486D01*
X69782346Y-77033010D02*
X68982346Y-77033010D01*
X68982346Y-77033010D02*
X68982346Y-77337772D01*
X68982346Y-77337772D02*
X69020441Y-77413962D01*
X69020441Y-77413962D02*
X69058536Y-77452057D01*
X69058536Y-77452057D02*
X69134727Y-77490153D01*
X69134727Y-77490153D02*
X69249012Y-77490153D01*
X69249012Y-77490153D02*
X69325203Y-77452057D01*
X69325203Y-77452057D02*
X69363298Y-77413962D01*
X69363298Y-77413962D02*
X69401393Y-77337772D01*
X69401393Y-77337772D02*
X69401393Y-77033010D01*
X69782346Y-78252057D02*
X69782346Y-77794914D01*
X69782346Y-78023486D02*
X68982346Y-78023486D01*
X68982346Y-78023486D02*
X69096631Y-77947295D01*
X69096631Y-77947295D02*
X69172822Y-77871105D01*
X69172822Y-77871105D02*
X69210917Y-77794914D01*
X68982346Y-78975867D02*
X68982346Y-78594915D01*
X68982346Y-78594915D02*
X69363298Y-78556819D01*
X69363298Y-78556819D02*
X69325203Y-78594915D01*
X69325203Y-78594915D02*
X69287108Y-78671105D01*
X69287108Y-78671105D02*
X69287108Y-78861581D01*
X69287108Y-78861581D02*
X69325203Y-78937772D01*
X69325203Y-78937772D02*
X69363298Y-78975867D01*
X69363298Y-78975867D02*
X69439489Y-79013962D01*
X69439489Y-79013962D02*
X69629965Y-79013962D01*
X69629965Y-79013962D02*
X69706155Y-78975867D01*
X69706155Y-78975867D02*
X69744251Y-78937772D01*
X69744251Y-78937772D02*
X69782346Y-78861581D01*
X69782346Y-78861581D02*
X69782346Y-78671105D01*
X69782346Y-78671105D02*
X69744251Y-78594915D01*
X69744251Y-78594915D02*
X69706155Y-78556819D01*
X54826155Y-80740153D02*
X54864251Y-80702057D01*
X54864251Y-80702057D02*
X54902346Y-80587772D01*
X54902346Y-80587772D02*
X54902346Y-80511581D01*
X54902346Y-80511581D02*
X54864251Y-80397295D01*
X54864251Y-80397295D02*
X54788060Y-80321105D01*
X54788060Y-80321105D02*
X54711870Y-80283010D01*
X54711870Y-80283010D02*
X54559489Y-80244914D01*
X54559489Y-80244914D02*
X54445203Y-80244914D01*
X54445203Y-80244914D02*
X54292822Y-80283010D01*
X54292822Y-80283010D02*
X54216631Y-80321105D01*
X54216631Y-80321105D02*
X54140441Y-80397295D01*
X54140441Y-80397295D02*
X54102346Y-80511581D01*
X54102346Y-80511581D02*
X54102346Y-80587772D01*
X54102346Y-80587772D02*
X54140441Y-80702057D01*
X54140441Y-80702057D02*
X54178536Y-80740153D01*
X54445203Y-81197295D02*
X54407108Y-81121105D01*
X54407108Y-81121105D02*
X54369012Y-81083010D01*
X54369012Y-81083010D02*
X54292822Y-81044914D01*
X54292822Y-81044914D02*
X54254727Y-81044914D01*
X54254727Y-81044914D02*
X54178536Y-81083010D01*
X54178536Y-81083010D02*
X54140441Y-81121105D01*
X54140441Y-81121105D02*
X54102346Y-81197295D01*
X54102346Y-81197295D02*
X54102346Y-81349676D01*
X54102346Y-81349676D02*
X54140441Y-81425867D01*
X54140441Y-81425867D02*
X54178536Y-81463962D01*
X54178536Y-81463962D02*
X54254727Y-81502057D01*
X54254727Y-81502057D02*
X54292822Y-81502057D01*
X54292822Y-81502057D02*
X54369012Y-81463962D01*
X54369012Y-81463962D02*
X54407108Y-81425867D01*
X54407108Y-81425867D02*
X54445203Y-81349676D01*
X54445203Y-81349676D02*
X54445203Y-81197295D01*
X54445203Y-81197295D02*
X54483298Y-81121105D01*
X54483298Y-81121105D02*
X54521393Y-81083010D01*
X54521393Y-81083010D02*
X54597584Y-81044914D01*
X54597584Y-81044914D02*
X54749965Y-81044914D01*
X54749965Y-81044914D02*
X54826155Y-81083010D01*
X54826155Y-81083010D02*
X54864251Y-81121105D01*
X54864251Y-81121105D02*
X54902346Y-81197295D01*
X54902346Y-81197295D02*
X54902346Y-81349676D01*
X54902346Y-81349676D02*
X54864251Y-81425867D01*
X54864251Y-81425867D02*
X54826155Y-81463962D01*
X54826155Y-81463962D02*
X54749965Y-81502057D01*
X54749965Y-81502057D02*
X54597584Y-81502057D01*
X54597584Y-81502057D02*
X54521393Y-81463962D01*
X54521393Y-81463962D02*
X54483298Y-81425867D01*
X54483298Y-81425867D02*
X54445203Y-81349676D01*
X54445203Y-81959200D02*
X54407108Y-81883010D01*
X54407108Y-81883010D02*
X54369012Y-81844915D01*
X54369012Y-81844915D02*
X54292822Y-81806819D01*
X54292822Y-81806819D02*
X54254727Y-81806819D01*
X54254727Y-81806819D02*
X54178536Y-81844915D01*
X54178536Y-81844915D02*
X54140441Y-81883010D01*
X54140441Y-81883010D02*
X54102346Y-81959200D01*
X54102346Y-81959200D02*
X54102346Y-82111581D01*
X54102346Y-82111581D02*
X54140441Y-82187772D01*
X54140441Y-82187772D02*
X54178536Y-82225867D01*
X54178536Y-82225867D02*
X54254727Y-82263962D01*
X54254727Y-82263962D02*
X54292822Y-82263962D01*
X54292822Y-82263962D02*
X54369012Y-82225867D01*
X54369012Y-82225867D02*
X54407108Y-82187772D01*
X54407108Y-82187772D02*
X54445203Y-82111581D01*
X54445203Y-82111581D02*
X54445203Y-81959200D01*
X54445203Y-81959200D02*
X54483298Y-81883010D01*
X54483298Y-81883010D02*
X54521393Y-81844915D01*
X54521393Y-81844915D02*
X54597584Y-81806819D01*
X54597584Y-81806819D02*
X54749965Y-81806819D01*
X54749965Y-81806819D02*
X54826155Y-81844915D01*
X54826155Y-81844915D02*
X54864251Y-81883010D01*
X54864251Y-81883010D02*
X54902346Y-81959200D01*
X54902346Y-81959200D02*
X54902346Y-82111581D01*
X54902346Y-82111581D02*
X54864251Y-82187772D01*
X54864251Y-82187772D02*
X54826155Y-82225867D01*
X54826155Y-82225867D02*
X54749965Y-82263962D01*
X54749965Y-82263962D02*
X54597584Y-82263962D01*
X54597584Y-82263962D02*
X54521393Y-82225867D01*
X54521393Y-82225867D02*
X54483298Y-82187772D01*
X54483298Y-82187772D02*
X54445203Y-82111581D01*
X78376155Y-82840153D02*
X78414251Y-82802057D01*
X78414251Y-82802057D02*
X78452346Y-82687772D01*
X78452346Y-82687772D02*
X78452346Y-82611581D01*
X78452346Y-82611581D02*
X78414251Y-82497295D01*
X78414251Y-82497295D02*
X78338060Y-82421105D01*
X78338060Y-82421105D02*
X78261870Y-82383010D01*
X78261870Y-82383010D02*
X78109489Y-82344914D01*
X78109489Y-82344914D02*
X77995203Y-82344914D01*
X77995203Y-82344914D02*
X77842822Y-82383010D01*
X77842822Y-82383010D02*
X77766631Y-82421105D01*
X77766631Y-82421105D02*
X77690441Y-82497295D01*
X77690441Y-82497295D02*
X77652346Y-82611581D01*
X77652346Y-82611581D02*
X77652346Y-82687772D01*
X77652346Y-82687772D02*
X77690441Y-82802057D01*
X77690441Y-82802057D02*
X77728536Y-82840153D01*
X77919012Y-83525867D02*
X78452346Y-83525867D01*
X77614251Y-83335391D02*
X78185679Y-83144914D01*
X78185679Y-83144914D02*
X78185679Y-83640153D01*
X77652346Y-83868724D02*
X77652346Y-84402058D01*
X77652346Y-84402058D02*
X78452346Y-84059200D01*
X82126155Y-87890153D02*
X82164251Y-87852057D01*
X82164251Y-87852057D02*
X82202346Y-87737772D01*
X82202346Y-87737772D02*
X82202346Y-87661581D01*
X82202346Y-87661581D02*
X82164251Y-87547295D01*
X82164251Y-87547295D02*
X82088060Y-87471105D01*
X82088060Y-87471105D02*
X82011870Y-87433010D01*
X82011870Y-87433010D02*
X81859489Y-87394914D01*
X81859489Y-87394914D02*
X81745203Y-87394914D01*
X81745203Y-87394914D02*
X81592822Y-87433010D01*
X81592822Y-87433010D02*
X81516631Y-87471105D01*
X81516631Y-87471105D02*
X81440441Y-87547295D01*
X81440441Y-87547295D02*
X81402346Y-87661581D01*
X81402346Y-87661581D02*
X81402346Y-87737772D01*
X81402346Y-87737772D02*
X81440441Y-87852057D01*
X81440441Y-87852057D02*
X81478536Y-87890153D01*
X81402346Y-88156819D02*
X81402346Y-88652057D01*
X81402346Y-88652057D02*
X81707108Y-88385391D01*
X81707108Y-88385391D02*
X81707108Y-88499676D01*
X81707108Y-88499676D02*
X81745203Y-88575867D01*
X81745203Y-88575867D02*
X81783298Y-88613962D01*
X81783298Y-88613962D02*
X81859489Y-88652057D01*
X81859489Y-88652057D02*
X82049965Y-88652057D01*
X82049965Y-88652057D02*
X82126155Y-88613962D01*
X82126155Y-88613962D02*
X82164251Y-88575867D01*
X82164251Y-88575867D02*
X82202346Y-88499676D01*
X82202346Y-88499676D02*
X82202346Y-88271105D01*
X82202346Y-88271105D02*
X82164251Y-88194914D01*
X82164251Y-88194914D02*
X82126155Y-88156819D01*
X82202346Y-89033010D02*
X82202346Y-89185391D01*
X82202346Y-89185391D02*
X82164251Y-89261581D01*
X82164251Y-89261581D02*
X82126155Y-89299677D01*
X82126155Y-89299677D02*
X82011870Y-89375867D01*
X82011870Y-89375867D02*
X81859489Y-89413962D01*
X81859489Y-89413962D02*
X81554727Y-89413962D01*
X81554727Y-89413962D02*
X81478536Y-89375867D01*
X81478536Y-89375867D02*
X81440441Y-89337772D01*
X81440441Y-89337772D02*
X81402346Y-89261581D01*
X81402346Y-89261581D02*
X81402346Y-89109200D01*
X81402346Y-89109200D02*
X81440441Y-89033010D01*
X81440441Y-89033010D02*
X81478536Y-88994915D01*
X81478536Y-88994915D02*
X81554727Y-88956819D01*
X81554727Y-88956819D02*
X81745203Y-88956819D01*
X81745203Y-88956819D02*
X81821393Y-88994915D01*
X81821393Y-88994915D02*
X81859489Y-89033010D01*
X81859489Y-89033010D02*
X81897584Y-89109200D01*
X81897584Y-89109200D02*
X81897584Y-89261581D01*
X81897584Y-89261581D02*
X81859489Y-89337772D01*
X81859489Y-89337772D02*
X81821393Y-89375867D01*
X81821393Y-89375867D02*
X81745203Y-89413962D01*
X89902776Y-89142103D02*
X89940872Y-89180199D01*
X89940872Y-89180199D02*
X90055157Y-89218294D01*
X90055157Y-89218294D02*
X90131348Y-89218294D01*
X90131348Y-89218294D02*
X90245634Y-89180199D01*
X90245634Y-89180199D02*
X90321824Y-89104008D01*
X90321824Y-89104008D02*
X90359919Y-89027818D01*
X90359919Y-89027818D02*
X90398015Y-88875437D01*
X90398015Y-88875437D02*
X90398015Y-88761151D01*
X90398015Y-88761151D02*
X90359919Y-88608770D01*
X90359919Y-88608770D02*
X90321824Y-88532579D01*
X90321824Y-88532579D02*
X90245634Y-88456389D01*
X90245634Y-88456389D02*
X90131348Y-88418294D01*
X90131348Y-88418294D02*
X90055157Y-88418294D01*
X90055157Y-88418294D02*
X89940872Y-88456389D01*
X89940872Y-88456389D02*
X89902776Y-88494484D01*
X89178967Y-88418294D02*
X89559919Y-88418294D01*
X89559919Y-88418294D02*
X89598015Y-88799246D01*
X89598015Y-88799246D02*
X89559919Y-88761151D01*
X89559919Y-88761151D02*
X89483729Y-88723056D01*
X89483729Y-88723056D02*
X89293253Y-88723056D01*
X89293253Y-88723056D02*
X89217062Y-88761151D01*
X89217062Y-88761151D02*
X89178967Y-88799246D01*
X89178967Y-88799246D02*
X89140872Y-88875437D01*
X89140872Y-88875437D02*
X89140872Y-89065913D01*
X89140872Y-89065913D02*
X89178967Y-89142103D01*
X89178967Y-89142103D02*
X89217062Y-89180199D01*
X89217062Y-89180199D02*
X89293253Y-89218294D01*
X89293253Y-89218294D02*
X89483729Y-89218294D01*
X89483729Y-89218294D02*
X89559919Y-89180199D01*
X89559919Y-89180199D02*
X89598015Y-89142103D01*
X88759919Y-89218294D02*
X88607538Y-89218294D01*
X88607538Y-89218294D02*
X88531348Y-89180199D01*
X88531348Y-89180199D02*
X88493252Y-89142103D01*
X88493252Y-89142103D02*
X88417062Y-89027818D01*
X88417062Y-89027818D02*
X88378967Y-88875437D01*
X88378967Y-88875437D02*
X88378967Y-88570675D01*
X88378967Y-88570675D02*
X88417062Y-88494484D01*
X88417062Y-88494484D02*
X88455157Y-88456389D01*
X88455157Y-88456389D02*
X88531348Y-88418294D01*
X88531348Y-88418294D02*
X88683729Y-88418294D01*
X88683729Y-88418294D02*
X88759919Y-88456389D01*
X88759919Y-88456389D02*
X88798014Y-88494484D01*
X88798014Y-88494484D02*
X88836110Y-88570675D01*
X88836110Y-88570675D02*
X88836110Y-88761151D01*
X88836110Y-88761151D02*
X88798014Y-88837341D01*
X88798014Y-88837341D02*
X88759919Y-88875437D01*
X88759919Y-88875437D02*
X88683729Y-88913532D01*
X88683729Y-88913532D02*
X88531348Y-88913532D01*
X88531348Y-88913532D02*
X88455157Y-88875437D01*
X88455157Y-88875437D02*
X88417062Y-88837341D01*
X88417062Y-88837341D02*
X88378967Y-88761151D01*
X91676155Y-80490153D02*
X91714251Y-80452057D01*
X91714251Y-80452057D02*
X91752346Y-80337772D01*
X91752346Y-80337772D02*
X91752346Y-80261581D01*
X91752346Y-80261581D02*
X91714251Y-80147295D01*
X91714251Y-80147295D02*
X91638060Y-80071105D01*
X91638060Y-80071105D02*
X91561870Y-80033010D01*
X91561870Y-80033010D02*
X91409489Y-79994914D01*
X91409489Y-79994914D02*
X91295203Y-79994914D01*
X91295203Y-79994914D02*
X91142822Y-80033010D01*
X91142822Y-80033010D02*
X91066631Y-80071105D01*
X91066631Y-80071105D02*
X90990441Y-80147295D01*
X90990441Y-80147295D02*
X90952346Y-80261581D01*
X90952346Y-80261581D02*
X90952346Y-80337772D01*
X90952346Y-80337772D02*
X90990441Y-80452057D01*
X90990441Y-80452057D02*
X91028536Y-80490153D01*
X90952346Y-81175867D02*
X90952346Y-81023486D01*
X90952346Y-81023486D02*
X90990441Y-80947295D01*
X90990441Y-80947295D02*
X91028536Y-80909200D01*
X91028536Y-80909200D02*
X91142822Y-80833010D01*
X91142822Y-80833010D02*
X91295203Y-80794914D01*
X91295203Y-80794914D02*
X91599965Y-80794914D01*
X91599965Y-80794914D02*
X91676155Y-80833010D01*
X91676155Y-80833010D02*
X91714251Y-80871105D01*
X91714251Y-80871105D02*
X91752346Y-80947295D01*
X91752346Y-80947295D02*
X91752346Y-81099676D01*
X91752346Y-81099676D02*
X91714251Y-81175867D01*
X91714251Y-81175867D02*
X91676155Y-81213962D01*
X91676155Y-81213962D02*
X91599965Y-81252057D01*
X91599965Y-81252057D02*
X91409489Y-81252057D01*
X91409489Y-81252057D02*
X91333298Y-81213962D01*
X91333298Y-81213962D02*
X91295203Y-81175867D01*
X91295203Y-81175867D02*
X91257108Y-81099676D01*
X91257108Y-81099676D02*
X91257108Y-80947295D01*
X91257108Y-80947295D02*
X91295203Y-80871105D01*
X91295203Y-80871105D02*
X91333298Y-80833010D01*
X91333298Y-80833010D02*
X91409489Y-80794914D01*
X91752346Y-81633010D02*
X91752346Y-81785391D01*
X91752346Y-81785391D02*
X91714251Y-81861581D01*
X91714251Y-81861581D02*
X91676155Y-81899677D01*
X91676155Y-81899677D02*
X91561870Y-81975867D01*
X91561870Y-81975867D02*
X91409489Y-82013962D01*
X91409489Y-82013962D02*
X91104727Y-82013962D01*
X91104727Y-82013962D02*
X91028536Y-81975867D01*
X91028536Y-81975867D02*
X90990441Y-81937772D01*
X90990441Y-81937772D02*
X90952346Y-81861581D01*
X90952346Y-81861581D02*
X90952346Y-81709200D01*
X90952346Y-81709200D02*
X90990441Y-81633010D01*
X90990441Y-81633010D02*
X91028536Y-81594915D01*
X91028536Y-81594915D02*
X91104727Y-81556819D01*
X91104727Y-81556819D02*
X91295203Y-81556819D01*
X91295203Y-81556819D02*
X91371393Y-81594915D01*
X91371393Y-81594915D02*
X91409489Y-81633010D01*
X91409489Y-81633010D02*
X91447584Y-81709200D01*
X91447584Y-81709200D02*
X91447584Y-81861581D01*
X91447584Y-81861581D02*
X91409489Y-81937772D01*
X91409489Y-81937772D02*
X91371393Y-81975867D01*
X91371393Y-81975867D02*
X91295203Y-82013962D01*
X57976155Y-83790153D02*
X58014251Y-83752057D01*
X58014251Y-83752057D02*
X58052346Y-83637772D01*
X58052346Y-83637772D02*
X58052346Y-83561581D01*
X58052346Y-83561581D02*
X58014251Y-83447295D01*
X58014251Y-83447295D02*
X57938060Y-83371105D01*
X57938060Y-83371105D02*
X57861870Y-83333010D01*
X57861870Y-83333010D02*
X57709489Y-83294914D01*
X57709489Y-83294914D02*
X57595203Y-83294914D01*
X57595203Y-83294914D02*
X57442822Y-83333010D01*
X57442822Y-83333010D02*
X57366631Y-83371105D01*
X57366631Y-83371105D02*
X57290441Y-83447295D01*
X57290441Y-83447295D02*
X57252346Y-83561581D01*
X57252346Y-83561581D02*
X57252346Y-83637772D01*
X57252346Y-83637772D02*
X57290441Y-83752057D01*
X57290441Y-83752057D02*
X57328536Y-83790153D01*
X57252346Y-84056819D02*
X57252346Y-84590153D01*
X57252346Y-84590153D02*
X58052346Y-84247295D01*
X57595203Y-85009200D02*
X57557108Y-84933010D01*
X57557108Y-84933010D02*
X57519012Y-84894915D01*
X57519012Y-84894915D02*
X57442822Y-84856819D01*
X57442822Y-84856819D02*
X57404727Y-84856819D01*
X57404727Y-84856819D02*
X57328536Y-84894915D01*
X57328536Y-84894915D02*
X57290441Y-84933010D01*
X57290441Y-84933010D02*
X57252346Y-85009200D01*
X57252346Y-85009200D02*
X57252346Y-85161581D01*
X57252346Y-85161581D02*
X57290441Y-85237772D01*
X57290441Y-85237772D02*
X57328536Y-85275867D01*
X57328536Y-85275867D02*
X57404727Y-85313962D01*
X57404727Y-85313962D02*
X57442822Y-85313962D01*
X57442822Y-85313962D02*
X57519012Y-85275867D01*
X57519012Y-85275867D02*
X57557108Y-85237772D01*
X57557108Y-85237772D02*
X57595203Y-85161581D01*
X57595203Y-85161581D02*
X57595203Y-85009200D01*
X57595203Y-85009200D02*
X57633298Y-84933010D01*
X57633298Y-84933010D02*
X57671393Y-84894915D01*
X57671393Y-84894915D02*
X57747584Y-84856819D01*
X57747584Y-84856819D02*
X57899965Y-84856819D01*
X57899965Y-84856819D02*
X57976155Y-84894915D01*
X57976155Y-84894915D02*
X58014251Y-84933010D01*
X58014251Y-84933010D02*
X58052346Y-85009200D01*
X58052346Y-85009200D02*
X58052346Y-85161581D01*
X58052346Y-85161581D02*
X58014251Y-85237772D01*
X58014251Y-85237772D02*
X57976155Y-85275867D01*
X57976155Y-85275867D02*
X57899965Y-85313962D01*
X57899965Y-85313962D02*
X57747584Y-85313962D01*
X57747584Y-85313962D02*
X57671393Y-85275867D01*
X57671393Y-85275867D02*
X57633298Y-85237772D01*
X57633298Y-85237772D02*
X57595203Y-85161581D01*
X94802776Y-80842103D02*
X94840872Y-80880199D01*
X94840872Y-80880199D02*
X94955157Y-80918294D01*
X94955157Y-80918294D02*
X95031348Y-80918294D01*
X95031348Y-80918294D02*
X95145634Y-80880199D01*
X95145634Y-80880199D02*
X95221824Y-80804008D01*
X95221824Y-80804008D02*
X95259919Y-80727818D01*
X95259919Y-80727818D02*
X95298015Y-80575437D01*
X95298015Y-80575437D02*
X95298015Y-80461151D01*
X95298015Y-80461151D02*
X95259919Y-80308770D01*
X95259919Y-80308770D02*
X95221824Y-80232579D01*
X95221824Y-80232579D02*
X95145634Y-80156389D01*
X95145634Y-80156389D02*
X95031348Y-80118294D01*
X95031348Y-80118294D02*
X94955157Y-80118294D01*
X94955157Y-80118294D02*
X94840872Y-80156389D01*
X94840872Y-80156389D02*
X94802776Y-80194484D01*
X94117062Y-80384960D02*
X94117062Y-80918294D01*
X94307538Y-80080199D02*
X94498015Y-80651627D01*
X94498015Y-80651627D02*
X94002776Y-80651627D01*
X93659919Y-80918294D02*
X93507538Y-80918294D01*
X93507538Y-80918294D02*
X93431348Y-80880199D01*
X93431348Y-80880199D02*
X93393252Y-80842103D01*
X93393252Y-80842103D02*
X93317062Y-80727818D01*
X93317062Y-80727818D02*
X93278967Y-80575437D01*
X93278967Y-80575437D02*
X93278967Y-80270675D01*
X93278967Y-80270675D02*
X93317062Y-80194484D01*
X93317062Y-80194484D02*
X93355157Y-80156389D01*
X93355157Y-80156389D02*
X93431348Y-80118294D01*
X93431348Y-80118294D02*
X93583729Y-80118294D01*
X93583729Y-80118294D02*
X93659919Y-80156389D01*
X93659919Y-80156389D02*
X93698014Y-80194484D01*
X93698014Y-80194484D02*
X93736110Y-80270675D01*
X93736110Y-80270675D02*
X93736110Y-80461151D01*
X93736110Y-80461151D02*
X93698014Y-80537341D01*
X93698014Y-80537341D02*
X93659919Y-80575437D01*
X93659919Y-80575437D02*
X93583729Y-80613532D01*
X93583729Y-80613532D02*
X93431348Y-80613532D01*
X93431348Y-80613532D02*
X93355157Y-80575437D01*
X93355157Y-80575437D02*
X93317062Y-80537341D01*
X93317062Y-80537341D02*
X93278967Y-80461151D01*
D11*
X113878857Y-93189319D02*
X114212190Y-92713128D01*
X114450285Y-93189319D02*
X114450285Y-92189319D01*
X114450285Y-92189319D02*
X114069333Y-92189319D01*
X114069333Y-92189319D02*
X113974095Y-92236938D01*
X113974095Y-92236938D02*
X113926476Y-92284557D01*
X113926476Y-92284557D02*
X113878857Y-92379795D01*
X113878857Y-92379795D02*
X113878857Y-92522652D01*
X113878857Y-92522652D02*
X113926476Y-92617890D01*
X113926476Y-92617890D02*
X113974095Y-92665509D01*
X113974095Y-92665509D02*
X114069333Y-92713128D01*
X114069333Y-92713128D02*
X114450285Y-92713128D01*
X113021714Y-92522652D02*
X113021714Y-93189319D01*
X113259809Y-92141700D02*
X113497904Y-92855985D01*
X113497904Y-92855985D02*
X112878857Y-92855985D01*
X112021714Y-92189319D02*
X112497904Y-92189319D01*
X112497904Y-92189319D02*
X112545523Y-92665509D01*
X112545523Y-92665509D02*
X112497904Y-92617890D01*
X112497904Y-92617890D02*
X112402666Y-92570271D01*
X112402666Y-92570271D02*
X112164571Y-92570271D01*
X112164571Y-92570271D02*
X112069333Y-92617890D01*
X112069333Y-92617890D02*
X112021714Y-92665509D01*
X112021714Y-92665509D02*
X111974095Y-92760747D01*
X111974095Y-92760747D02*
X111974095Y-92998842D01*
X111974095Y-92998842D02*
X112021714Y-93094080D01*
X112021714Y-93094080D02*
X112069333Y-93141700D01*
X112069333Y-93141700D02*
X112164571Y-93189319D01*
X112164571Y-93189319D02*
X112402666Y-93189319D01*
X112402666Y-93189319D02*
X112497904Y-93141700D01*
X112497904Y-93141700D02*
X112545523Y-93094080D01*
D12*
X54990155Y-77706153D02*
X55028251Y-77668057D01*
X55028251Y-77668057D02*
X55066346Y-77553772D01*
X55066346Y-77553772D02*
X55066346Y-77477581D01*
X55066346Y-77477581D02*
X55028251Y-77363295D01*
X55028251Y-77363295D02*
X54952060Y-77287105D01*
X54952060Y-77287105D02*
X54875870Y-77249010D01*
X54875870Y-77249010D02*
X54723489Y-77210914D01*
X54723489Y-77210914D02*
X54609203Y-77210914D01*
X54609203Y-77210914D02*
X54456822Y-77249010D01*
X54456822Y-77249010D02*
X54380631Y-77287105D01*
X54380631Y-77287105D02*
X54304441Y-77363295D01*
X54304441Y-77363295D02*
X54266346Y-77477581D01*
X54266346Y-77477581D02*
X54266346Y-77553772D01*
X54266346Y-77553772D02*
X54304441Y-77668057D01*
X54304441Y-77668057D02*
X54342536Y-77706153D01*
X54609203Y-78163295D02*
X54571108Y-78087105D01*
X54571108Y-78087105D02*
X54533012Y-78049010D01*
X54533012Y-78049010D02*
X54456822Y-78010914D01*
X54456822Y-78010914D02*
X54418727Y-78010914D01*
X54418727Y-78010914D02*
X54342536Y-78049010D01*
X54342536Y-78049010D02*
X54304441Y-78087105D01*
X54304441Y-78087105D02*
X54266346Y-78163295D01*
X54266346Y-78163295D02*
X54266346Y-78315676D01*
X54266346Y-78315676D02*
X54304441Y-78391867D01*
X54304441Y-78391867D02*
X54342536Y-78429962D01*
X54342536Y-78429962D02*
X54418727Y-78468057D01*
X54418727Y-78468057D02*
X54456822Y-78468057D01*
X54456822Y-78468057D02*
X54533012Y-78429962D01*
X54533012Y-78429962D02*
X54571108Y-78391867D01*
X54571108Y-78391867D02*
X54609203Y-78315676D01*
X54609203Y-78315676D02*
X54609203Y-78163295D01*
X54609203Y-78163295D02*
X54647298Y-78087105D01*
X54647298Y-78087105D02*
X54685393Y-78049010D01*
X54685393Y-78049010D02*
X54761584Y-78010914D01*
X54761584Y-78010914D02*
X54913965Y-78010914D01*
X54913965Y-78010914D02*
X54990155Y-78049010D01*
X54990155Y-78049010D02*
X55028251Y-78087105D01*
X55028251Y-78087105D02*
X55066346Y-78163295D01*
X55066346Y-78163295D02*
X55066346Y-78315676D01*
X55066346Y-78315676D02*
X55028251Y-78391867D01*
X55028251Y-78391867D02*
X54990155Y-78429962D01*
X54990155Y-78429962D02*
X54913965Y-78468057D01*
X54913965Y-78468057D02*
X54761584Y-78468057D01*
X54761584Y-78468057D02*
X54685393Y-78429962D01*
X54685393Y-78429962D02*
X54647298Y-78391867D01*
X54647298Y-78391867D02*
X54609203Y-78315676D01*
X54266346Y-78734724D02*
X54266346Y-79268058D01*
X54266346Y-79268058D02*
X55066346Y-78925200D01*
X94452776Y-83992103D02*
X94490872Y-84030199D01*
X94490872Y-84030199D02*
X94605157Y-84068294D01*
X94605157Y-84068294D02*
X94681348Y-84068294D01*
X94681348Y-84068294D02*
X94795634Y-84030199D01*
X94795634Y-84030199D02*
X94871824Y-83954008D01*
X94871824Y-83954008D02*
X94909919Y-83877818D01*
X94909919Y-83877818D02*
X94948015Y-83725437D01*
X94948015Y-83725437D02*
X94948015Y-83611151D01*
X94948015Y-83611151D02*
X94909919Y-83458770D01*
X94909919Y-83458770D02*
X94871824Y-83382579D01*
X94871824Y-83382579D02*
X94795634Y-83306389D01*
X94795634Y-83306389D02*
X94681348Y-83268294D01*
X94681348Y-83268294D02*
X94605157Y-83268294D01*
X94605157Y-83268294D02*
X94490872Y-83306389D01*
X94490872Y-83306389D02*
X94452776Y-83344484D01*
X93690872Y-84068294D02*
X94148015Y-84068294D01*
X93919443Y-84068294D02*
X93919443Y-83268294D01*
X93919443Y-83268294D02*
X93995634Y-83382579D01*
X93995634Y-83382579D02*
X94071824Y-83458770D01*
X94071824Y-83458770D02*
X94148015Y-83496865D01*
X92928967Y-84068294D02*
X93386110Y-84068294D01*
X93157538Y-84068294D02*
X93157538Y-83268294D01*
X93157538Y-83268294D02*
X93233729Y-83382579D01*
X93233729Y-83382579D02*
X93309919Y-83458770D01*
X93309919Y-83458770D02*
X93386110Y-83496865D01*
X79552776Y-89142103D02*
X79590872Y-89180199D01*
X79590872Y-89180199D02*
X79705157Y-89218294D01*
X79705157Y-89218294D02*
X79781348Y-89218294D01*
X79781348Y-89218294D02*
X79895634Y-89180199D01*
X79895634Y-89180199D02*
X79971824Y-89104008D01*
X79971824Y-89104008D02*
X80009919Y-89027818D01*
X80009919Y-89027818D02*
X80048015Y-88875437D01*
X80048015Y-88875437D02*
X80048015Y-88761151D01*
X80048015Y-88761151D02*
X80009919Y-88608770D01*
X80009919Y-88608770D02*
X79971824Y-88532579D01*
X79971824Y-88532579D02*
X79895634Y-88456389D01*
X79895634Y-88456389D02*
X79781348Y-88418294D01*
X79781348Y-88418294D02*
X79705157Y-88418294D01*
X79705157Y-88418294D02*
X79590872Y-88456389D01*
X79590872Y-88456389D02*
X79552776Y-88494484D01*
X78828967Y-88418294D02*
X79209919Y-88418294D01*
X79209919Y-88418294D02*
X79248015Y-88799246D01*
X79248015Y-88799246D02*
X79209919Y-88761151D01*
X79209919Y-88761151D02*
X79133729Y-88723056D01*
X79133729Y-88723056D02*
X78943253Y-88723056D01*
X78943253Y-88723056D02*
X78867062Y-88761151D01*
X78867062Y-88761151D02*
X78828967Y-88799246D01*
X78828967Y-88799246D02*
X78790872Y-88875437D01*
X78790872Y-88875437D02*
X78790872Y-89065913D01*
X78790872Y-89065913D02*
X78828967Y-89142103D01*
X78828967Y-89142103D02*
X78867062Y-89180199D01*
X78867062Y-89180199D02*
X78943253Y-89218294D01*
X78943253Y-89218294D02*
X79133729Y-89218294D01*
X79133729Y-89218294D02*
X79209919Y-89180199D01*
X79209919Y-89180199D02*
X79248015Y-89142103D01*
X78067062Y-88418294D02*
X78448014Y-88418294D01*
X78448014Y-88418294D02*
X78486110Y-88799246D01*
X78486110Y-88799246D02*
X78448014Y-88761151D01*
X78448014Y-88761151D02*
X78371824Y-88723056D01*
X78371824Y-88723056D02*
X78181348Y-88723056D01*
X78181348Y-88723056D02*
X78105157Y-88761151D01*
X78105157Y-88761151D02*
X78067062Y-88799246D01*
X78067062Y-88799246D02*
X78028967Y-88875437D01*
X78028967Y-88875437D02*
X78028967Y-89065913D01*
X78028967Y-89065913D02*
X78067062Y-89142103D01*
X78067062Y-89142103D02*
X78105157Y-89180199D01*
X78105157Y-89180199D02*
X78181348Y-89218294D01*
X78181348Y-89218294D02*
X78371824Y-89218294D01*
X78371824Y-89218294D02*
X78448014Y-89180199D01*
X78448014Y-89180199D02*
X78486110Y-89142103D01*
D11*
X142693310Y-96961581D02*
X142217119Y-96628248D01*
X142693310Y-96390153D02*
X141693310Y-96390153D01*
X141693310Y-96390153D02*
X141693310Y-96771105D01*
X141693310Y-96771105D02*
X141740929Y-96866343D01*
X141740929Y-96866343D02*
X141788548Y-96913962D01*
X141788548Y-96913962D02*
X141883786Y-96961581D01*
X141883786Y-96961581D02*
X142026643Y-96961581D01*
X142026643Y-96961581D02*
X142121881Y-96913962D01*
X142121881Y-96913962D02*
X142169500Y-96866343D01*
X142169500Y-96866343D02*
X142217119Y-96771105D01*
X142217119Y-96771105D02*
X142217119Y-96390153D01*
X141788548Y-97342534D02*
X141740929Y-97390153D01*
X141740929Y-97390153D02*
X141693310Y-97485391D01*
X141693310Y-97485391D02*
X141693310Y-97723486D01*
X141693310Y-97723486D02*
X141740929Y-97818724D01*
X141740929Y-97818724D02*
X141788548Y-97866343D01*
X141788548Y-97866343D02*
X141883786Y-97913962D01*
X141883786Y-97913962D02*
X141979024Y-97913962D01*
X141979024Y-97913962D02*
X142121881Y-97866343D01*
X142121881Y-97866343D02*
X142693310Y-97294915D01*
X142693310Y-97294915D02*
X142693310Y-97913962D01*
X141693310Y-98533010D02*
X141693310Y-98628248D01*
X141693310Y-98628248D02*
X141740929Y-98723486D01*
X141740929Y-98723486D02*
X141788548Y-98771105D01*
X141788548Y-98771105D02*
X141883786Y-98818724D01*
X141883786Y-98818724D02*
X142074262Y-98866343D01*
X142074262Y-98866343D02*
X142312357Y-98866343D01*
X142312357Y-98866343D02*
X142502833Y-98818724D01*
X142502833Y-98818724D02*
X142598071Y-98771105D01*
X142598071Y-98771105D02*
X142645691Y-98723486D01*
X142645691Y-98723486D02*
X142693310Y-98628248D01*
X142693310Y-98628248D02*
X142693310Y-98533010D01*
X142693310Y-98533010D02*
X142645691Y-98437772D01*
X142645691Y-98437772D02*
X142598071Y-98390153D01*
X142598071Y-98390153D02*
X142502833Y-98342534D01*
X142502833Y-98342534D02*
X142312357Y-98294915D01*
X142312357Y-98294915D02*
X142074262Y-98294915D01*
X142074262Y-98294915D02*
X141883786Y-98342534D01*
X141883786Y-98342534D02*
X141788548Y-98390153D01*
X141788548Y-98390153D02*
X141740929Y-98437772D01*
X141740929Y-98437772D02*
X141693310Y-98533010D01*
D12*
X89902776Y-88092103D02*
X89940872Y-88130199D01*
X89940872Y-88130199D02*
X90055157Y-88168294D01*
X90055157Y-88168294D02*
X90131348Y-88168294D01*
X90131348Y-88168294D02*
X90245634Y-88130199D01*
X90245634Y-88130199D02*
X90321824Y-88054008D01*
X90321824Y-88054008D02*
X90359919Y-87977818D01*
X90359919Y-87977818D02*
X90398015Y-87825437D01*
X90398015Y-87825437D02*
X90398015Y-87711151D01*
X90398015Y-87711151D02*
X90359919Y-87558770D01*
X90359919Y-87558770D02*
X90321824Y-87482579D01*
X90321824Y-87482579D02*
X90245634Y-87406389D01*
X90245634Y-87406389D02*
X90131348Y-87368294D01*
X90131348Y-87368294D02*
X90055157Y-87368294D01*
X90055157Y-87368294D02*
X89940872Y-87406389D01*
X89940872Y-87406389D02*
X89902776Y-87444484D01*
X89217062Y-87368294D02*
X89369443Y-87368294D01*
X89369443Y-87368294D02*
X89445634Y-87406389D01*
X89445634Y-87406389D02*
X89483729Y-87444484D01*
X89483729Y-87444484D02*
X89559919Y-87558770D01*
X89559919Y-87558770D02*
X89598015Y-87711151D01*
X89598015Y-87711151D02*
X89598015Y-88015913D01*
X89598015Y-88015913D02*
X89559919Y-88092103D01*
X89559919Y-88092103D02*
X89521824Y-88130199D01*
X89521824Y-88130199D02*
X89445634Y-88168294D01*
X89445634Y-88168294D02*
X89293253Y-88168294D01*
X89293253Y-88168294D02*
X89217062Y-88130199D01*
X89217062Y-88130199D02*
X89178967Y-88092103D01*
X89178967Y-88092103D02*
X89140872Y-88015913D01*
X89140872Y-88015913D02*
X89140872Y-87825437D01*
X89140872Y-87825437D02*
X89178967Y-87749246D01*
X89178967Y-87749246D02*
X89217062Y-87711151D01*
X89217062Y-87711151D02*
X89293253Y-87673056D01*
X89293253Y-87673056D02*
X89445634Y-87673056D01*
X89445634Y-87673056D02*
X89521824Y-87711151D01*
X89521824Y-87711151D02*
X89559919Y-87749246D01*
X89559919Y-87749246D02*
X89598015Y-87825437D01*
X88645633Y-87368294D02*
X88569443Y-87368294D01*
X88569443Y-87368294D02*
X88493252Y-87406389D01*
X88493252Y-87406389D02*
X88455157Y-87444484D01*
X88455157Y-87444484D02*
X88417062Y-87520675D01*
X88417062Y-87520675D02*
X88378967Y-87673056D01*
X88378967Y-87673056D02*
X88378967Y-87863532D01*
X88378967Y-87863532D02*
X88417062Y-88015913D01*
X88417062Y-88015913D02*
X88455157Y-88092103D01*
X88455157Y-88092103D02*
X88493252Y-88130199D01*
X88493252Y-88130199D02*
X88569443Y-88168294D01*
X88569443Y-88168294D02*
X88645633Y-88168294D01*
X88645633Y-88168294D02*
X88721824Y-88130199D01*
X88721824Y-88130199D02*
X88759919Y-88092103D01*
X88759919Y-88092103D02*
X88798014Y-88015913D01*
X88798014Y-88015913D02*
X88836110Y-87863532D01*
X88836110Y-87863532D02*
X88836110Y-87673056D01*
X88836110Y-87673056D02*
X88798014Y-87520675D01*
X88798014Y-87520675D02*
X88759919Y-87444484D01*
X88759919Y-87444484D02*
X88721824Y-87406389D01*
X88721824Y-87406389D02*
X88645633Y-87368294D01*
%TO.C,SW2*%
X109681991Y-91928939D02*
X109681991Y-91978939D01*
X109681991Y-91928939D02*
X104781991Y-91928939D01*
X109681991Y-93628939D02*
X109681991Y-95128939D01*
X109681991Y-96828939D02*
X109681991Y-96778939D01*
X109681991Y-96828939D02*
X104781991Y-96828939D01*
X104781991Y-91928939D02*
X104781991Y-91978939D01*
X104781991Y-93628939D02*
X104781991Y-95128939D01*
X104781991Y-96828939D02*
X104781991Y-96778939D01*
%TO.C,SW1*%
X100601491Y-55797439D02*
X100601491Y-55847439D01*
X100601491Y-55797439D02*
X95701491Y-55797439D01*
X100601491Y-57497439D02*
X100601491Y-58997439D01*
X100601491Y-60697439D02*
X100601491Y-60647439D01*
X100601491Y-60697439D02*
X95701491Y-60697439D01*
X95701491Y-55797439D02*
X95701491Y-55847439D01*
X95701491Y-57497439D02*
X95701491Y-58997439D01*
X95701491Y-60697439D02*
X95701491Y-60647439D01*
%TO.C,C80*%
X65281491Y-77439275D02*
X65281491Y-77223603D01*
X66001491Y-77439275D02*
X66001491Y-77223603D01*
%TO.C,R27*%
X43797733Y-99913939D02*
X44272249Y-99913939D01*
X43797733Y-100958939D02*
X44272249Y-100958939D01*
%TO.C,C35*%
X86328491Y-81046603D02*
X86328491Y-81262275D01*
X87048491Y-81046603D02*
X87048491Y-81262275D01*
%TO.C,C63*%
X88528491Y-76996603D02*
X88528491Y-77212275D01*
X89248491Y-76996603D02*
X89248491Y-77212275D01*
%TO.C,J11*%
X82420491Y-132632439D02*
X82420491Y-136262439D01*
X82420491Y-132632439D02*
X82485491Y-132632439D01*
X82420491Y-136262439D02*
X82485491Y-136262439D01*
X82485491Y-131357439D02*
X82485491Y-132632439D01*
X95275491Y-132632439D02*
X95340491Y-132632439D01*
X95275491Y-136262439D02*
X95340491Y-136262439D01*
X95340491Y-132632439D02*
X95340491Y-136262439D01*
%TO.C,R16*%
X140115991Y-101391697D02*
X140115991Y-100917181D01*
X141160991Y-101391697D02*
X141160991Y-100917181D01*
%TO.C,C56*%
X88530655Y-84194439D02*
X88746327Y-84194439D01*
X88530655Y-84914439D02*
X88746327Y-84914439D01*
%TO.C,C66*%
X86180655Y-83194439D02*
X86396327Y-83194439D01*
X86180655Y-83914439D02*
X86396327Y-83914439D01*
%TO.C,C93*%
X61344491Y-81376275D02*
X61344491Y-81160603D01*
X62064491Y-81376275D02*
X62064491Y-81160603D01*
%TO.C,C29*%
X83246327Y-82194439D02*
X83030655Y-82194439D01*
X83246327Y-82914439D02*
X83030655Y-82914439D01*
%TO.C,C44*%
X80578491Y-86212275D02*
X80578491Y-85996603D01*
X81298491Y-86212275D02*
X81298491Y-85996603D01*
%TO.C,R17*%
X143215991Y-101391697D02*
X143215991Y-100917181D01*
X144260991Y-101391697D02*
X144260991Y-100917181D01*
%TO.C,C13*%
X85496327Y-86194439D02*
X85280655Y-86194439D01*
X85496327Y-86914439D02*
X85280655Y-86914439D01*
%TO.C,R18*%
X138565991Y-101391697D02*
X138565991Y-100917181D01*
X139610991Y-101391697D02*
X139610991Y-100917181D01*
%TO.C,C57*%
X83578491Y-88396603D02*
X83578491Y-88612275D01*
X84298491Y-88396603D02*
X84298491Y-88612275D01*
%TO.C,R25*%
X43847733Y-107563939D02*
X44322249Y-107563939D01*
X43847733Y-108608939D02*
X44322249Y-108608939D01*
%TO.C,C89*%
X61344491Y-78112603D02*
X61344491Y-78328275D01*
X62064491Y-78112603D02*
X62064491Y-78328275D01*
%TO.C,C73*%
X63249491Y-78201275D02*
X63249491Y-77985603D01*
X63969491Y-78201275D02*
X63969491Y-77985603D01*
%TO.C,C67*%
X84378491Y-81046603D02*
X84378491Y-81262275D01*
X85098491Y-81046603D02*
X85098491Y-81262275D01*
%TO.C,C48*%
X81378491Y-81146603D02*
X81378491Y-81362275D01*
X82098491Y-81146603D02*
X82098491Y-81362275D01*
%TO.C,C68*%
X86396327Y-82244439D02*
X86180655Y-82244439D01*
X86396327Y-82964439D02*
X86180655Y-82964439D01*
%TO.C,C65*%
X86978491Y-78846603D02*
X86978491Y-79062275D01*
X87698491Y-78846603D02*
X87698491Y-79062275D01*
%TO.C,C61*%
X79828491Y-77246603D02*
X79828491Y-77462275D01*
X80548491Y-77246603D02*
X80548491Y-77462275D01*
%TO.C,R28*%
X43797733Y-101613939D02*
X44272249Y-101613939D01*
X43797733Y-102658939D02*
X44272249Y-102658939D01*
%TO.C,C71*%
X59439491Y-82938603D02*
X59439491Y-83154275D01*
X60159491Y-82938603D02*
X60159491Y-83154275D01*
%TO.C,R26*%
X43847733Y-109263939D02*
X44322249Y-109263939D01*
X43847733Y-110308939D02*
X44322249Y-110308939D01*
%TO.C,C43*%
X82880655Y-84194439D02*
X83096327Y-84194439D01*
X82880655Y-84914439D02*
X83096327Y-84914439D01*
%TO.C,R21*%
X144765991Y-101391697D02*
X144765991Y-100917181D01*
X145810991Y-101391697D02*
X145810991Y-100917181D01*
%TO.C,C16*%
X86578491Y-86231775D02*
X86578491Y-86016103D01*
X87298491Y-86231775D02*
X87298491Y-86016103D01*
%TO.C,C41*%
X83378491Y-86212275D02*
X83378491Y-85996603D01*
X84098491Y-86212275D02*
X84098491Y-85996603D01*
%TO.C,C26*%
X83030655Y-81244439D02*
X83246327Y-81244439D01*
X83030655Y-81964439D02*
X83246327Y-81964439D01*
%TO.C,C32*%
X80446327Y-81294439D02*
X80230655Y-81294439D01*
X80446327Y-82014439D02*
X80230655Y-82014439D01*
%TO.C,C27*%
X83030655Y-83144439D02*
X83246327Y-83144439D01*
X83030655Y-83864439D02*
X83246327Y-83864439D01*
%TO.C,C51*%
X88480655Y-85194439D02*
X88696327Y-85194439D01*
X88480655Y-85914439D02*
X88696327Y-85914439D01*
%TO.C,R38*%
X78640249Y-85855439D02*
X78165733Y-85855439D01*
X78640249Y-86900439D02*
X78165733Y-86900439D01*
%TO.C,C17*%
X84730655Y-84194439D02*
X84946327Y-84194439D01*
X84730655Y-84914439D02*
X84946327Y-84914439D01*
%TO.C,C99*%
X44225571Y-104176439D02*
X43944411Y-104176439D01*
X44225571Y-105196439D02*
X43944411Y-105196439D01*
%TO.C,C31*%
X83246327Y-80294439D02*
X83030655Y-80294439D01*
X83246327Y-81014439D02*
X83030655Y-81014439D01*
%TO.C,R13*%
X79965991Y-74567181D02*
X79965991Y-75041697D01*
X81010991Y-74567181D02*
X81010991Y-75041697D01*
%TO.C,J10*%
X97925000Y-64025000D02*
X97925000Y-64090000D01*
X97925000Y-70530000D02*
X97925000Y-70595000D01*
X101555000Y-64025000D02*
X97925000Y-64025000D01*
X101555000Y-64025000D02*
X101555000Y-64090000D01*
X101555000Y-70530000D02*
X101555000Y-70595000D01*
X101555000Y-70595000D02*
X97925000Y-70595000D01*
X102830000Y-64090000D02*
X101555000Y-64090000D01*
%TO.C,C12*%
X87980655Y-81394439D02*
X88196327Y-81394439D01*
X87980655Y-82114439D02*
X88196327Y-82114439D01*
%TO.C,C34*%
X79646327Y-80294439D02*
X79430655Y-80294439D01*
X79646327Y-81014439D02*
X79430655Y-81014439D01*
%TO.C,C33*%
X79846327Y-84494439D02*
X79630655Y-84494439D01*
X79846327Y-85214439D02*
X79630655Y-85214439D01*
%TO.C,C58*%
X84578491Y-88396603D02*
X84578491Y-88612275D01*
X85298491Y-88396603D02*
X85298491Y-88612275D01*
%TO.C,C70*%
X63249491Y-81287603D02*
X63249491Y-81503275D01*
X63969491Y-81287603D02*
X63969491Y-81503275D01*
%TO.C,R29*%
X43847733Y-105863939D02*
X44322249Y-105863939D01*
X43847733Y-106908939D02*
X44322249Y-106908939D01*
%TO.C,C14*%
X85280655Y-85194439D02*
X85496327Y-85194439D01*
X85280655Y-85914439D02*
X85496327Y-85914439D01*
%TO.C,BT1*%
X109334991Y-126658695D02*
X114134991Y-126658695D01*
X109334991Y-132158695D02*
X109334991Y-126658695D01*
X114134991Y-132158695D02*
X109334991Y-132158695D01*
X114334991Y-119908695D02*
X121034991Y-119908695D01*
X120934991Y-140258695D02*
X114134991Y-135458695D01*
X128834991Y-140258695D02*
X120934991Y-140258695D01*
X135434991Y-119908695D02*
X128734991Y-119908695D01*
X135634991Y-126658695D02*
X140434991Y-126658695D01*
X135684991Y-135458695D02*
X128834991Y-140258695D01*
X140434991Y-126658695D02*
X140434991Y-132158695D01*
X140434991Y-132158695D02*
X135634991Y-132158695D01*
X121034991Y-119908695D02*
G75*
G02*
X128731376Y-119907231I3850000J-9500000D01*
G01*
%TO.C,C54*%
X78878491Y-79012275D02*
X78878491Y-78796603D01*
X79598491Y-79012275D02*
X79598491Y-78796603D01*
%TO.C,C77*%
X57407491Y-77350603D02*
X57407491Y-77566275D01*
X58127491Y-77350603D02*
X58127491Y-77566275D01*
%TO.C,C72*%
X59439491Y-76550275D02*
X59439491Y-76334603D01*
X60159491Y-76550275D02*
X60159491Y-76334603D01*
%TO.C,C30*%
X84478491Y-82896603D02*
X84478491Y-83112275D01*
X85198491Y-82896603D02*
X85198491Y-83112275D01*
%TO.C,R41*%
X78312791Y-74563982D02*
X78312791Y-75038498D01*
X79357791Y-74563982D02*
X79357791Y-75038498D01*
%TO.C,C46*%
X82428491Y-86212275D02*
X82428491Y-85996603D01*
X83148491Y-86212275D02*
X83148491Y-85996603D01*
%TO.C,C64*%
X87978491Y-78846603D02*
X87978491Y-79062275D01*
X88698491Y-78846603D02*
X88698491Y-79062275D01*
%TO.C,C79*%
X65253491Y-82046603D02*
X65253491Y-82262275D01*
X65973491Y-82046603D02*
X65973491Y-82262275D01*
%TO.C,C23*%
X77528491Y-78162275D02*
X77528491Y-77946603D01*
X78248491Y-78162275D02*
X78248491Y-77946603D01*
%TO.C,C62*%
X88528491Y-75312275D02*
X88528491Y-75096603D01*
X89248491Y-75312275D02*
X89248491Y-75096603D01*
%TO.C,R15*%
X67465991Y-78241697D02*
X67465991Y-77767181D01*
X68510991Y-78241697D02*
X68510991Y-77767181D01*
%TO.C,C88*%
X55502491Y-81376275D02*
X55502491Y-81160603D01*
X56222491Y-81376275D02*
X56222491Y-81160603D01*
%TO.C,C47*%
X81378491Y-83762275D02*
X81378491Y-83546603D01*
X82098491Y-83762275D02*
X82098491Y-83546603D01*
%TO.C,C39*%
X81478491Y-85996603D02*
X81478491Y-86212275D01*
X82198491Y-85996603D02*
X82198491Y-86212275D01*
%TO.C,C59*%
X86880655Y-88094439D02*
X87096327Y-88094439D01*
X86880655Y-88814439D02*
X87096327Y-88814439D01*
%TO.C,C69*%
X85378491Y-81262275D02*
X85378491Y-81046603D01*
X86098491Y-81262275D02*
X86098491Y-81046603D01*
%TO.C,C78*%
X57407491Y-82138275D02*
X57407491Y-81922603D01*
X58127491Y-82138275D02*
X58127491Y-81922603D01*
%TO.C,C49*%
X87980655Y-80394439D02*
X88196327Y-80394439D01*
X87980655Y-81114439D02*
X88196327Y-81114439D01*
%TO.C,R45*%
X116687258Y-93222500D02*
X116212742Y-93222500D01*
X116687258Y-92177500D02*
X116212742Y-92177500D01*
%TO.C,C87*%
X55502491Y-78112603D02*
X55502491Y-78328275D01*
X56222491Y-78112603D02*
X56222491Y-78328275D01*
%TO.C,C11*%
X88080655Y-83194439D02*
X88296327Y-83194439D01*
X88080655Y-83914439D02*
X88296327Y-83914439D01*
%TO.C,C55*%
X79096327Y-87294439D02*
X78880655Y-87294439D01*
X79096327Y-88014439D02*
X78880655Y-88014439D01*
%TO.C,R20*%
X141665991Y-101391697D02*
X141665991Y-100917181D01*
X142710991Y-101391697D02*
X142710991Y-100917181D01*
%TO.C,C60*%
X86780655Y-87144439D02*
X86996327Y-87144439D01*
X86780655Y-87864439D02*
X86996327Y-87864439D01*
%TD*%
%LPC*%
D13*
%TO.C,SW2*%
X109856991Y-92778939D03*
X104606991Y-92778939D03*
X109856991Y-95978939D03*
X104606991Y-95978939D03*
%TD*%
%TO.C,SW1*%
X100776491Y-56647439D03*
X95526491Y-56647439D03*
X100776491Y-59847439D03*
X95526491Y-59847439D03*
%TD*%
D14*
%TO.C,SW_ONOFF1*%
X146488491Y-36679439D03*
X153488491Y-36679439D03*
D15*
X147738491Y-34179439D03*
X152238491Y-34179439D03*
%TD*%
D16*
%TO.C,TP4*%
X46906991Y-123144439D03*
%TD*%
%TO.C,TP2*%
X137013491Y-36657439D03*
%TD*%
D17*
%TO.C,J6*%
X82738491Y-43214439D03*
D18*
X80238491Y-43214439D03*
X78238491Y-43214439D03*
X75738491Y-43214439D03*
D19*
X85808491Y-40504439D03*
X72668491Y-40504439D03*
%TD*%
D20*
%TO.C,H5*%
X48113491Y-134383939D03*
%TD*%
%TO.C,H4*%
X145900969Y-43676207D03*
%TD*%
D16*
%TO.C,TP1*%
X44788491Y-64554439D03*
%TD*%
D14*
%TO.C,SW_VOLDOWN1*%
X156063491Y-63354439D03*
X156063491Y-70354439D03*
D15*
X158563491Y-64604439D03*
X158563491Y-69104439D03*
%TD*%
D21*
%TO.C,J3*%
X137138491Y-102904439D03*
D22*
X157138491Y-102904439D03*
%TD*%
D23*
%TO.C,J13*%
X58986491Y-63825439D03*
D24*
X58986491Y-62575439D03*
%TD*%
D25*
%TO.C,J12*%
X58980991Y-41854439D03*
X56280991Y-40654439D03*
D26*
X53780991Y-33854439D03*
D27*
X49180991Y-37754439D03*
D26*
X49680991Y-45054439D03*
%TD*%
D16*
%TO.C,J14*%
X90100000Y-46900000D03*
D15*
X92640000Y-46900000D03*
X95180000Y-46900000D03*
%TD*%
D28*
%TO.C,J7*%
X104255791Y-36293739D03*
X98475791Y-36293739D03*
D29*
X105685791Y-36823739D03*
D30*
X105685791Y-32643739D03*
D29*
X97045791Y-36823739D03*
D30*
X97045791Y-32643739D03*
%TD*%
D14*
%TO.C,SW_VOLUP1*%
X156063491Y-47504439D03*
X156063491Y-54504439D03*
D15*
X158563491Y-48754439D03*
X158563491Y-53254439D03*
%TD*%
D31*
%TO.C,J1*%
X114768491Y-50898439D03*
D32*
X112268491Y-50898439D03*
%TD*%
D33*
%TO.C,H1*%
X147138491Y-131154439D03*
D34*
X147138491Y-131154439D03*
%TD*%
D20*
%TO.C,H3*%
X60175969Y-53201207D03*
%TD*%
%TO.C,H2*%
X128694991Y-112857439D03*
%TD*%
D35*
%TO.C,J2*%
X123154491Y-50288439D03*
D36*
X121154491Y-50288439D03*
%TD*%
D16*
%TO.C,TP3*%
X111150000Y-135050000D03*
%TD*%
D37*
%TO.C,C80*%
X65641491Y-77811439D03*
X65641491Y-76851439D03*
%TD*%
D38*
%TO.C,R27*%
X43209991Y-100436439D03*
X44859991Y-100436439D03*
%TD*%
D39*
%TO.C,C35*%
X86688491Y-80674439D03*
X86688491Y-81634439D03*
%TD*%
%TO.C,C63*%
X88888491Y-76624439D03*
X88888491Y-77584439D03*
%TD*%
D40*
%TO.C,J11*%
X83165491Y-132497439D03*
X83165491Y-136397439D03*
X84435491Y-132497439D03*
X84435491Y-136397439D03*
X85705491Y-132497439D03*
X85705491Y-136397439D03*
X86975491Y-132497439D03*
X86975491Y-136397439D03*
X88245491Y-132497439D03*
X88245491Y-136397439D03*
X89515491Y-132497439D03*
X89515491Y-136397439D03*
X90785491Y-132497439D03*
X90785491Y-136397439D03*
X92055491Y-132497439D03*
X92055491Y-136397439D03*
X93325491Y-132497439D03*
X93325491Y-136397439D03*
X94595491Y-132497439D03*
X94595491Y-136397439D03*
%TD*%
D41*
%TO.C,R16*%
X140638491Y-101979439D03*
X140638491Y-100329439D03*
%TD*%
D42*
%TO.C,C56*%
X88158491Y-84554439D03*
X89118491Y-84554439D03*
%TD*%
%TO.C,C66*%
X85808491Y-83554439D03*
X86768491Y-83554439D03*
%TD*%
D37*
%TO.C,C93*%
X61704491Y-81748439D03*
X61704491Y-80788439D03*
%TD*%
D43*
%TO.C,C29*%
X83618491Y-82554439D03*
X82658491Y-82554439D03*
%TD*%
D37*
%TO.C,C44*%
X80938491Y-86584439D03*
X80938491Y-85624439D03*
%TD*%
D41*
%TO.C,R17*%
X143738491Y-101979439D03*
X143738491Y-100329439D03*
%TD*%
D43*
%TO.C,C13*%
X85868491Y-86554439D03*
X84908491Y-86554439D03*
%TD*%
D41*
%TO.C,R18*%
X139088491Y-101979439D03*
X139088491Y-100329439D03*
%TD*%
D39*
%TO.C,C57*%
X83938491Y-88024439D03*
X83938491Y-88984439D03*
%TD*%
D38*
%TO.C,R25*%
X43259991Y-108086439D03*
X44909991Y-108086439D03*
%TD*%
D39*
%TO.C,C89*%
X61704491Y-77740439D03*
X61704491Y-78700439D03*
%TD*%
D37*
%TO.C,C73*%
X63609491Y-78573439D03*
X63609491Y-77613439D03*
%TD*%
D39*
%TO.C,C67*%
X84738491Y-80674439D03*
X84738491Y-81634439D03*
%TD*%
%TO.C,C48*%
X81738491Y-80774439D03*
X81738491Y-81734439D03*
%TD*%
D43*
%TO.C,C68*%
X86768491Y-82604439D03*
X85808491Y-82604439D03*
%TD*%
D39*
%TO.C,C65*%
X87338491Y-78474439D03*
X87338491Y-79434439D03*
%TD*%
%TO.C,C61*%
X80188491Y-76874439D03*
X80188491Y-77834439D03*
%TD*%
D38*
%TO.C,R28*%
X43209991Y-102136439D03*
X44859991Y-102136439D03*
%TD*%
D39*
%TO.C,C71*%
X59799491Y-82566439D03*
X59799491Y-83526439D03*
%TD*%
D38*
%TO.C,R26*%
X43259991Y-109786439D03*
X44909991Y-109786439D03*
%TD*%
D42*
%TO.C,C43*%
X82508491Y-84554439D03*
X83468491Y-84554439D03*
%TD*%
D41*
%TO.C,R21*%
X145288491Y-101979439D03*
X145288491Y-100329439D03*
%TD*%
D37*
%TO.C,C16*%
X86938491Y-86603939D03*
X86938491Y-85643939D03*
%TD*%
%TO.C,C41*%
X83738491Y-86584439D03*
X83738491Y-85624439D03*
%TD*%
D42*
%TO.C,C26*%
X82658491Y-81604439D03*
X83618491Y-81604439D03*
%TD*%
D43*
%TO.C,C32*%
X80818491Y-81654439D03*
X79858491Y-81654439D03*
%TD*%
D42*
%TO.C,C27*%
X82658491Y-83504439D03*
X83618491Y-83504439D03*
%TD*%
%TO.C,C51*%
X88108491Y-85554439D03*
X89068491Y-85554439D03*
%TD*%
D44*
%TO.C,R38*%
X79227991Y-86377939D03*
X77577991Y-86377939D03*
%TD*%
D42*
%TO.C,C17*%
X84358491Y-84554439D03*
X85318491Y-84554439D03*
%TD*%
D45*
%TO.C,C99*%
X44859991Y-104686439D03*
X43309991Y-104686439D03*
%TD*%
D43*
%TO.C,C31*%
X83618491Y-80654439D03*
X82658491Y-80654439D03*
%TD*%
D46*
%TO.C,R13*%
X80488491Y-73979439D03*
X80488491Y-75629439D03*
%TD*%
D47*
%TO.C,J10*%
X101690000Y-64770000D03*
X97790000Y-64770000D03*
X101690000Y-66040000D03*
X97790000Y-66040000D03*
X101690000Y-67310000D03*
X97790000Y-67310000D03*
X101690000Y-68580000D03*
X97790000Y-68580000D03*
X101690000Y-69850000D03*
X97790000Y-69850000D03*
%TD*%
D42*
%TO.C,C12*%
X87608491Y-81754439D03*
X88568491Y-81754439D03*
%TD*%
D43*
%TO.C,C34*%
X80018491Y-80654439D03*
X79058491Y-80654439D03*
%TD*%
%TO.C,C33*%
X80218491Y-84854439D03*
X79258491Y-84854439D03*
%TD*%
D39*
%TO.C,C58*%
X84938491Y-88024439D03*
X84938491Y-88984439D03*
%TD*%
%TO.C,C70*%
X63609491Y-80915439D03*
X63609491Y-81875439D03*
%TD*%
D38*
%TO.C,R29*%
X43259991Y-106386439D03*
X44909991Y-106386439D03*
%TD*%
D42*
%TO.C,C14*%
X84908491Y-85554439D03*
X85868491Y-85554439D03*
%TD*%
D48*
%TO.C,BT1*%
X137684991Y-129408695D03*
X112084991Y-129408695D03*
D49*
X124884991Y-129408695D03*
%TD*%
D37*
%TO.C,C54*%
X79238491Y-79384439D03*
X79238491Y-78424439D03*
%TD*%
D39*
%TO.C,C77*%
X57767491Y-76978439D03*
X57767491Y-77938439D03*
%TD*%
D37*
%TO.C,C72*%
X59799491Y-76922439D03*
X59799491Y-75962439D03*
%TD*%
D39*
%TO.C,C30*%
X84838491Y-82524439D03*
X84838491Y-83484439D03*
%TD*%
D46*
%TO.C,R41*%
X78835291Y-73976240D03*
X78835291Y-75626240D03*
%TD*%
D37*
%TO.C,C46*%
X82788491Y-86584439D03*
X82788491Y-85624439D03*
%TD*%
D39*
%TO.C,C64*%
X88338491Y-78474439D03*
X88338491Y-79434439D03*
%TD*%
%TO.C,C79*%
X65613491Y-81674439D03*
X65613491Y-82634439D03*
%TD*%
D37*
%TO.C,C23*%
X77888491Y-78534439D03*
X77888491Y-77574439D03*
%TD*%
%TO.C,C62*%
X88888491Y-75684439D03*
X88888491Y-74724439D03*
%TD*%
D41*
%TO.C,R15*%
X67988491Y-78829439D03*
X67988491Y-77179439D03*
%TD*%
D37*
%TO.C,C88*%
X55862491Y-81748439D03*
X55862491Y-80788439D03*
%TD*%
%TO.C,C47*%
X81738491Y-84134439D03*
X81738491Y-83174439D03*
%TD*%
D39*
%TO.C,C39*%
X81838491Y-85624439D03*
X81838491Y-86584439D03*
%TD*%
D42*
%TO.C,C59*%
X86508491Y-88454439D03*
X87468491Y-88454439D03*
%TD*%
D37*
%TO.C,C69*%
X85738491Y-81634439D03*
X85738491Y-80674439D03*
%TD*%
%TO.C,C78*%
X57767491Y-82510439D03*
X57767491Y-81550439D03*
%TD*%
D42*
%TO.C,C49*%
X87608491Y-80754439D03*
X88568491Y-80754439D03*
%TD*%
D44*
%TO.C,R45*%
X117275000Y-92700000D03*
X115625000Y-92700000D03*
%TD*%
D39*
%TO.C,C87*%
X55862491Y-77740439D03*
X55862491Y-78700439D03*
%TD*%
D42*
%TO.C,C11*%
X87708491Y-83554439D03*
X88668491Y-83554439D03*
%TD*%
D43*
%TO.C,C55*%
X79468491Y-87654439D03*
X78508491Y-87654439D03*
%TD*%
D41*
%TO.C,R20*%
X142188491Y-101979439D03*
X142188491Y-100329439D03*
%TD*%
D42*
%TO.C,C60*%
X86408491Y-87504439D03*
X87368491Y-87504439D03*
%TD*%
%LPD*%
M02*
