%TF.GenerationSoftware,KiCad,Pcbnew,9.0.5*%
%TF.CreationDate,2025-11-15T17:56:55+00:00*%
%TF.ProjectId,gk,676b2e6b-6963-4616-945f-706362585858,rev?*%
%TF.SameCoordinates,Original*%
%TF.FileFunction,Soldermask,Bot*%
%TF.FilePolarity,Negative*%
%FSLAX46Y46*%
G04 Gerber Fmt 4.6, Leading zero omitted, Abs format (unit mm)*
G04 Created by KiCad (PCBNEW 9.0.5) date 2025-11-15 17:56:55*
%MOMM*%
%LPD*%
G01*
G04 APERTURE LIST*
G04 Aperture macros list*
%AMRoundRect*
0 Rectangle with rounded corners*
0 $1 Rounding radius*
0 $2 $3 $4 $5 $6 $7 $8 $9 X,Y pos of 4 corners*
0 Add a 4 corners polygon primitive as box body*
4,1,4,$2,$3,$4,$5,$6,$7,$8,$9,$2,$3,0*
0 Add four circle primitives for the rounded corners*
1,1,$1+$1,$2,$3*
1,1,$1+$1,$4,$5*
1,1,$1+$1,$6,$7*
1,1,$1+$1,$8,$9*
0 Add four rect primitives between the rounded corners*
20,1,$1+$1,$2,$3,$4,$5,0*
20,1,$1+$1,$4,$5,$6,$7,0*
20,1,$1+$1,$6,$7,$8,$9,0*
20,1,$1+$1,$8,$9,$2,$3,0*%
G04 Aperture macros list end*
%ADD10RoundRect,0.250000X0.525000X0.250000X-0.525000X0.250000X-0.525000X-0.250000X0.525000X-0.250000X0*%
%ADD11C,2.200000*%
%ADD12C,1.700000*%
%ADD13R,1.700000X1.700000*%
%ADD14R,1.600000X1.500000*%
%ADD15C,1.600000*%
%ADD16C,3.000000*%
%ADD17C,3.200000*%
%ADD18C,1.250000*%
%ADD19C,1.750000*%
%ADD20RoundRect,0.200000X0.450000X-0.200000X0.450000X0.200000X-0.450000X0.200000X-0.450000X-0.200000X0*%
%ADD21O,1.300000X0.800000*%
%ADD22O,2.200000X4.000000*%
%ADD23O,4.000000X2.200000*%
%ADD24R,2.200000X4.000000*%
%ADD25C,0.650000*%
%ADD26O,1.000000X2.100000*%
%ADD27O,1.000000X1.600000*%
%ADD28RoundRect,0.250000X0.600000X0.750000X-0.600000X0.750000X-0.600000X-0.750000X0.600000X-0.750000X0*%
%ADD29O,1.700000X2.000000*%
%ADD30C,2.600000*%
%ADD31C,4.400000*%
%ADD32RoundRect,0.250000X0.350000X0.625000X-0.350000X0.625000X-0.350000X-0.625000X0.350000X-0.625000X0*%
%ADD33O,1.200000X1.750000*%
%ADD34RoundRect,0.140000X0.170000X-0.140000X0.170000X0.140000X-0.170000X0.140000X-0.170000X-0.140000X0*%
%ADD35RoundRect,0.200000X-0.200000X-0.275000X0.200000X-0.275000X0.200000X0.275000X-0.200000X0.275000X0*%
%ADD36RoundRect,0.140000X-0.170000X0.140000X-0.170000X-0.140000X0.170000X-0.140000X0.170000X0.140000X0*%
%ADD37R,0.740000X2.400000*%
%ADD38RoundRect,0.200000X0.275000X-0.200000X0.275000X0.200000X-0.275000X0.200000X-0.275000X-0.200000X0*%
%ADD39RoundRect,0.140000X-0.140000X-0.170000X0.140000X-0.170000X0.140000X0.170000X-0.140000X0.170000X0*%
%ADD40RoundRect,0.140000X0.140000X0.170000X-0.140000X0.170000X-0.140000X-0.170000X0.140000X-0.170000X0*%
%ADD41RoundRect,0.200000X0.200000X0.275000X-0.200000X0.275000X-0.200000X-0.275000X0.200000X-0.275000X0*%
%ADD42RoundRect,0.225000X0.225000X0.250000X-0.225000X0.250000X-0.225000X-0.250000X0.225000X-0.250000X0*%
%ADD43RoundRect,0.200000X-0.275000X0.200000X-0.275000X-0.200000X0.275000X-0.200000X0.275000X0.200000X0*%
%ADD44R,2.400000X0.740000*%
%ADD45R,5.100000X5.100000*%
%ADD46C,17.800000*%
G04 APERTURE END LIST*
D10*
%TO.C,SW2*%
X109856991Y-92778939D03*
X104606991Y-92778939D03*
X109856991Y-95978939D03*
X104606991Y-95978939D03*
%TD*%
%TO.C,SW1*%
X100776491Y-56647439D03*
X95526491Y-56647439D03*
X100776491Y-59847439D03*
X95526491Y-59847439D03*
%TD*%
D11*
%TO.C,SW_ONOFF1*%
X146488491Y-36679439D03*
X153488491Y-36679439D03*
D12*
X147738491Y-34179439D03*
X152238491Y-34179439D03*
%TD*%
D13*
%TO.C,TP4*%
X46906991Y-123144439D03*
%TD*%
%TO.C,TP2*%
X137013491Y-36657439D03*
%TD*%
D14*
%TO.C,J6*%
X82738491Y-43214439D03*
D15*
X80238491Y-43214439D03*
X78238491Y-43214439D03*
X75738491Y-43214439D03*
D16*
X85808491Y-40504439D03*
X72668491Y-40504439D03*
%TD*%
D17*
%TO.C,H5*%
X48113491Y-134383939D03*
%TD*%
%TO.C,H4*%
X145900969Y-43676207D03*
%TD*%
D13*
%TO.C,TP1*%
X44788491Y-64554439D03*
%TD*%
D11*
%TO.C,SW_VOLDOWN1*%
X156063491Y-63354439D03*
X156063491Y-70354439D03*
D12*
X158563491Y-64604439D03*
X158563491Y-69104439D03*
%TD*%
D18*
%TO.C,J3*%
X137138491Y-102904439D03*
D19*
X157138491Y-102904439D03*
%TD*%
D20*
%TO.C,J13*%
X58986491Y-63825439D03*
D21*
X58986491Y-62575439D03*
%TD*%
D22*
%TO.C,J12*%
X58980991Y-41854439D03*
X56280991Y-40654439D03*
D23*
X53780991Y-33854439D03*
D24*
X49180991Y-37754439D03*
D23*
X49680991Y-45054439D03*
%TD*%
D13*
%TO.C,J14*%
X90100000Y-46900000D03*
D12*
X92640000Y-46900000D03*
X95180000Y-46900000D03*
%TD*%
D25*
%TO.C,J7*%
X104255791Y-36293739D03*
X98475791Y-36293739D03*
D26*
X105685791Y-36823739D03*
D27*
X105685791Y-32643739D03*
D26*
X97045791Y-36823739D03*
D27*
X97045791Y-32643739D03*
%TD*%
D11*
%TO.C,SW_VOLUP1*%
X156063491Y-47504439D03*
X156063491Y-54504439D03*
D12*
X158563491Y-48754439D03*
X158563491Y-53254439D03*
%TD*%
D28*
%TO.C,J1*%
X114768491Y-50898439D03*
D29*
X112268491Y-50898439D03*
%TD*%
D30*
%TO.C,H1*%
X147138491Y-131154439D03*
D31*
X147138491Y-131154439D03*
%TD*%
D17*
%TO.C,H3*%
X60175969Y-53201207D03*
%TD*%
%TO.C,H2*%
X128694991Y-112857439D03*
%TD*%
D32*
%TO.C,J2*%
X123154491Y-50288439D03*
D33*
X121154491Y-50288439D03*
%TD*%
D13*
%TO.C,TP3*%
X111150000Y-135050000D03*
%TD*%
D34*
%TO.C,C80*%
X65641491Y-77811439D03*
X65641491Y-76851439D03*
%TD*%
D35*
%TO.C,R27*%
X43209991Y-100436439D03*
X44859991Y-100436439D03*
%TD*%
D36*
%TO.C,C35*%
X86688491Y-80674439D03*
X86688491Y-81634439D03*
%TD*%
%TO.C,C63*%
X88888491Y-76624439D03*
X88888491Y-77584439D03*
%TD*%
D37*
%TO.C,J11*%
X83165491Y-132497439D03*
X83165491Y-136397439D03*
X84435491Y-132497439D03*
X84435491Y-136397439D03*
X85705491Y-132497439D03*
X85705491Y-136397439D03*
X86975491Y-132497439D03*
X86975491Y-136397439D03*
X88245491Y-132497439D03*
X88245491Y-136397439D03*
X89515491Y-132497439D03*
X89515491Y-136397439D03*
X90785491Y-132497439D03*
X90785491Y-136397439D03*
X92055491Y-132497439D03*
X92055491Y-136397439D03*
X93325491Y-132497439D03*
X93325491Y-136397439D03*
X94595491Y-132497439D03*
X94595491Y-136397439D03*
%TD*%
D38*
%TO.C,R16*%
X140638491Y-101979439D03*
X140638491Y-100329439D03*
%TD*%
D39*
%TO.C,C56*%
X88158491Y-84554439D03*
X89118491Y-84554439D03*
%TD*%
%TO.C,C66*%
X85808491Y-83554439D03*
X86768491Y-83554439D03*
%TD*%
D34*
%TO.C,C93*%
X61704491Y-81748439D03*
X61704491Y-80788439D03*
%TD*%
D40*
%TO.C,C29*%
X83618491Y-82554439D03*
X82658491Y-82554439D03*
%TD*%
D34*
%TO.C,C44*%
X80938491Y-86584439D03*
X80938491Y-85624439D03*
%TD*%
D38*
%TO.C,R17*%
X143738491Y-101979439D03*
X143738491Y-100329439D03*
%TD*%
D40*
%TO.C,C13*%
X85868491Y-86554439D03*
X84908491Y-86554439D03*
%TD*%
D38*
%TO.C,R18*%
X139088491Y-101979439D03*
X139088491Y-100329439D03*
%TD*%
D36*
%TO.C,C57*%
X83938491Y-88024439D03*
X83938491Y-88984439D03*
%TD*%
D35*
%TO.C,R25*%
X43259991Y-108086439D03*
X44909991Y-108086439D03*
%TD*%
D36*
%TO.C,C89*%
X61704491Y-77740439D03*
X61704491Y-78700439D03*
%TD*%
D34*
%TO.C,C73*%
X63609491Y-78573439D03*
X63609491Y-77613439D03*
%TD*%
D36*
%TO.C,C67*%
X84738491Y-80674439D03*
X84738491Y-81634439D03*
%TD*%
%TO.C,C48*%
X81738491Y-80774439D03*
X81738491Y-81734439D03*
%TD*%
D40*
%TO.C,C68*%
X86768491Y-82604439D03*
X85808491Y-82604439D03*
%TD*%
D36*
%TO.C,C65*%
X87338491Y-78474439D03*
X87338491Y-79434439D03*
%TD*%
%TO.C,C61*%
X80188491Y-76874439D03*
X80188491Y-77834439D03*
%TD*%
D35*
%TO.C,R28*%
X43209991Y-102136439D03*
X44859991Y-102136439D03*
%TD*%
D36*
%TO.C,C71*%
X59799491Y-82566439D03*
X59799491Y-83526439D03*
%TD*%
D35*
%TO.C,R26*%
X43259991Y-109786439D03*
X44909991Y-109786439D03*
%TD*%
D39*
%TO.C,C43*%
X82508491Y-84554439D03*
X83468491Y-84554439D03*
%TD*%
D38*
%TO.C,R21*%
X145288491Y-101979439D03*
X145288491Y-100329439D03*
%TD*%
D34*
%TO.C,C16*%
X86938491Y-86603939D03*
X86938491Y-85643939D03*
%TD*%
%TO.C,C41*%
X83738491Y-86584439D03*
X83738491Y-85624439D03*
%TD*%
D39*
%TO.C,C26*%
X82658491Y-81604439D03*
X83618491Y-81604439D03*
%TD*%
D40*
%TO.C,C32*%
X80818491Y-81654439D03*
X79858491Y-81654439D03*
%TD*%
D39*
%TO.C,C27*%
X82658491Y-83504439D03*
X83618491Y-83504439D03*
%TD*%
%TO.C,C51*%
X88108491Y-85554439D03*
X89068491Y-85554439D03*
%TD*%
D41*
%TO.C,R38*%
X79227991Y-86377939D03*
X77577991Y-86377939D03*
%TD*%
D39*
%TO.C,C17*%
X84358491Y-84554439D03*
X85318491Y-84554439D03*
%TD*%
D42*
%TO.C,C99*%
X44859991Y-104686439D03*
X43309991Y-104686439D03*
%TD*%
D40*
%TO.C,C31*%
X83618491Y-80654439D03*
X82658491Y-80654439D03*
%TD*%
D43*
%TO.C,R13*%
X80488491Y-73979439D03*
X80488491Y-75629439D03*
%TD*%
D44*
%TO.C,J10*%
X101690000Y-64770000D03*
X97790000Y-64770000D03*
X101690000Y-66040000D03*
X97790000Y-66040000D03*
X101690000Y-67310000D03*
X97790000Y-67310000D03*
X101690000Y-68580000D03*
X97790000Y-68580000D03*
X101690000Y-69850000D03*
X97790000Y-69850000D03*
%TD*%
D39*
%TO.C,C12*%
X87608491Y-81754439D03*
X88568491Y-81754439D03*
%TD*%
D40*
%TO.C,C34*%
X80018491Y-80654439D03*
X79058491Y-80654439D03*
%TD*%
%TO.C,C33*%
X80218491Y-84854439D03*
X79258491Y-84854439D03*
%TD*%
D36*
%TO.C,C58*%
X84938491Y-88024439D03*
X84938491Y-88984439D03*
%TD*%
%TO.C,C70*%
X63609491Y-80915439D03*
X63609491Y-81875439D03*
%TD*%
D35*
%TO.C,R29*%
X43259991Y-106386439D03*
X44909991Y-106386439D03*
%TD*%
D39*
%TO.C,C14*%
X84908491Y-85554439D03*
X85868491Y-85554439D03*
%TD*%
D45*
%TO.C,BT1*%
X137684991Y-129408695D03*
X112084991Y-129408695D03*
D46*
X124884991Y-129408695D03*
%TD*%
D34*
%TO.C,C54*%
X79238491Y-79384439D03*
X79238491Y-78424439D03*
%TD*%
D36*
%TO.C,C77*%
X57767491Y-76978439D03*
X57767491Y-77938439D03*
%TD*%
D34*
%TO.C,C72*%
X59799491Y-76922439D03*
X59799491Y-75962439D03*
%TD*%
D36*
%TO.C,C30*%
X84838491Y-82524439D03*
X84838491Y-83484439D03*
%TD*%
D43*
%TO.C,R41*%
X78835291Y-73976240D03*
X78835291Y-75626240D03*
%TD*%
D34*
%TO.C,C46*%
X82788491Y-86584439D03*
X82788491Y-85624439D03*
%TD*%
D36*
%TO.C,C64*%
X88338491Y-78474439D03*
X88338491Y-79434439D03*
%TD*%
%TO.C,C79*%
X65613491Y-81674439D03*
X65613491Y-82634439D03*
%TD*%
D34*
%TO.C,C23*%
X77888491Y-78534439D03*
X77888491Y-77574439D03*
%TD*%
%TO.C,C62*%
X88888491Y-75684439D03*
X88888491Y-74724439D03*
%TD*%
D38*
%TO.C,R15*%
X67988491Y-78829439D03*
X67988491Y-77179439D03*
%TD*%
D34*
%TO.C,C88*%
X55862491Y-81748439D03*
X55862491Y-80788439D03*
%TD*%
%TO.C,C47*%
X81738491Y-84134439D03*
X81738491Y-83174439D03*
%TD*%
D36*
%TO.C,C39*%
X81838491Y-85624439D03*
X81838491Y-86584439D03*
%TD*%
D39*
%TO.C,C59*%
X86508491Y-88454439D03*
X87468491Y-88454439D03*
%TD*%
D34*
%TO.C,C69*%
X85738491Y-81634439D03*
X85738491Y-80674439D03*
%TD*%
%TO.C,C78*%
X57767491Y-82510439D03*
X57767491Y-81550439D03*
%TD*%
D39*
%TO.C,C49*%
X87608491Y-80754439D03*
X88568491Y-80754439D03*
%TD*%
D41*
%TO.C,R45*%
X117275000Y-92700000D03*
X115625000Y-92700000D03*
%TD*%
D36*
%TO.C,C87*%
X55862491Y-77740439D03*
X55862491Y-78700439D03*
%TD*%
D39*
%TO.C,C11*%
X87708491Y-83554439D03*
X88668491Y-83554439D03*
%TD*%
D40*
%TO.C,C55*%
X79468491Y-87654439D03*
X78508491Y-87654439D03*
%TD*%
D38*
%TO.C,R20*%
X142188491Y-101979439D03*
X142188491Y-100329439D03*
%TD*%
D39*
%TO.C,C60*%
X86408491Y-87504439D03*
X87368491Y-87504439D03*
%TD*%
M02*
