%TF.GenerationSoftware,KiCad,Pcbnew,9.0.5*%
%TF.CreationDate,2026-02-23T17:16:46+00:00*%
%TF.ProjectId,gk,676b2e6b-6963-4616-945f-706362585858,rev?*%
%TF.SameCoordinates,Original*%
%TF.FileFunction,Drillmap*%
%TF.FilePolarity,Positive*%
%FSLAX45Y45*%
G04 Gerber Fmt 4.5, Leading zero omitted, Abs format (unit mm)*
G04 Created by KiCad (PCBNEW 9.0.5) date 2026-02-23 17:16:46*
%MOMM*%
%LPD*%
G01*
G04 APERTURE LIST*
%ADD10C,0.100000*%
%ADD11C,0.050000*%
%ADD12C,0.200000*%
%ADD13C,0.115000*%
%ADD14C,0.165000*%
%ADD15C,0.320000*%
G04 APERTURE END LIST*
D10*
X15665000Y-5775000D02*
G75*
G02*
X15765000Y-5675000I100000J0D01*
G01*
X16173849Y-14102944D02*
X16173849Y-6205000D01*
X4603849Y-3102944D02*
X15673849Y-3102944D01*
X15665000Y-6005000D02*
X15665000Y-5775000D01*
X4103849Y-14102944D02*
X4103849Y-3602944D01*
X15765000Y-6105000D02*
G75*
G02*
X15665000Y-6005000I0J100000D01*
G01*
X16173849Y-14102944D02*
X4103849Y-14102944D01*
X16073849Y-6105000D02*
X15765000Y-6105000D01*
X4103849Y-3602944D02*
G75*
G02*
X4603849Y-3102944I500000J0D01*
G01*
X16073849Y-6105000D02*
G75*
G02*
X16173850Y-6205000I1J-100000D01*
G01*
X15673849Y-3102944D02*
G75*
G02*
X16173856Y-3602944I1J-500006D01*
G01*
X15765000Y-5675000D02*
X16073849Y-5675000D01*
X16173849Y-3602944D02*
X16173849Y-5575000D01*
X16173849Y-5575000D02*
G75*
G02*
X16073849Y-5674999I-99999J0D01*
G01*
D11*
X4013000Y-12108000D02*
X4113000Y-12108000D01*
X4113000Y-12328000D01*
X4013000Y-12328000D01*
X4013000Y-12108000D01*
X4853000Y-12108000D02*
X4953000Y-12108000D01*
X4953000Y-12328000D01*
X4853000Y-12328000D01*
X4853000Y-12108000D01*
D12*
D10*
X9815079Y-3596874D02*
X9880079Y-3661874D01*
X9880079Y-3596874D02*
X9815079Y-3661874D01*
X10393079Y-3596874D02*
X10458079Y-3661874D01*
X10458079Y-3596874D02*
X10393079Y-3661874D01*
D13*
X13771349Y-10290444D02*
G75*
G02*
X13656349Y-10290444I-57500J0D01*
G01*
X13656349Y-10290444D02*
G75*
G02*
X13771349Y-10290444I57500J0D01*
G01*
D14*
X15713849Y-10207944D02*
X15713849Y-10372944D01*
X15631349Y-10290444D02*
X15796349Y-10290444D01*
D15*
X4924487Y-13551532D02*
X4924487Y-13325256D01*
X4698211Y-13325256D01*
X4698211Y-13551532D01*
X4924487Y-13551532D01*
X6130735Y-5433259D02*
X6130735Y-5206983D01*
X5904459Y-5206983D01*
X5904459Y-5433259D01*
X6130735Y-5433259D01*
X6758138Y-3618138D02*
X6758138Y-3391862D01*
X6531862Y-3391862D01*
X6531862Y-3618138D01*
X6758138Y-3618138D01*
X12918138Y-13548138D02*
X12918138Y-13321862D01*
X12691862Y-13321862D01*
X12691862Y-13548138D01*
X12918138Y-13548138D01*
X12982637Y-11398882D02*
X12982637Y-11172606D01*
X12756361Y-11172606D01*
X12756361Y-11398882D01*
X12982637Y-11398882D01*
X13758138Y-3618138D02*
X13758138Y-3391862D01*
X13531862Y-3391862D01*
X13531862Y-3618138D01*
X13758138Y-3618138D01*
X14703235Y-4480759D02*
X14703235Y-4254483D01*
X14476959Y-4254483D01*
X14476959Y-4480759D01*
X14703235Y-4480759D01*
D12*
X4271277Y-14419428D02*
X4271277Y-14219428D01*
X4271277Y-14219428D02*
X4318896Y-14219428D01*
X4318896Y-14219428D02*
X4347467Y-14228951D01*
X4347467Y-14228951D02*
X4366515Y-14247999D01*
X4366515Y-14247999D02*
X4376039Y-14267047D01*
X4376039Y-14267047D02*
X4385563Y-14305142D01*
X4385563Y-14305142D02*
X4385563Y-14333713D01*
X4385563Y-14333713D02*
X4376039Y-14371809D01*
X4376039Y-14371809D02*
X4366515Y-14390856D01*
X4366515Y-14390856D02*
X4347467Y-14409904D01*
X4347467Y-14409904D02*
X4318896Y-14419428D01*
X4318896Y-14419428D02*
X4271277Y-14419428D01*
X4471277Y-14419428D02*
X4471277Y-14286094D01*
X4471277Y-14324190D02*
X4480801Y-14305142D01*
X4480801Y-14305142D02*
X4490324Y-14295618D01*
X4490324Y-14295618D02*
X4509372Y-14286094D01*
X4509372Y-14286094D02*
X4528420Y-14286094D01*
X4595086Y-14419428D02*
X4595086Y-14286094D01*
X4595086Y-14219428D02*
X4585563Y-14228951D01*
X4585563Y-14228951D02*
X4595086Y-14238475D01*
X4595086Y-14238475D02*
X4604610Y-14228951D01*
X4604610Y-14228951D02*
X4595086Y-14219428D01*
X4595086Y-14219428D02*
X4595086Y-14238475D01*
X4718896Y-14419428D02*
X4699848Y-14409904D01*
X4699848Y-14409904D02*
X4690324Y-14390856D01*
X4690324Y-14390856D02*
X4690324Y-14219428D01*
X4823658Y-14419428D02*
X4804610Y-14409904D01*
X4804610Y-14409904D02*
X4795086Y-14390856D01*
X4795086Y-14390856D02*
X4795086Y-14219428D01*
X5052229Y-14419428D02*
X5052229Y-14219428D01*
X5052229Y-14219428D02*
X5118896Y-14362285D01*
X5118896Y-14362285D02*
X5185563Y-14219428D01*
X5185563Y-14219428D02*
X5185563Y-14419428D01*
X5366515Y-14419428D02*
X5366515Y-14314666D01*
X5366515Y-14314666D02*
X5356991Y-14295618D01*
X5356991Y-14295618D02*
X5337944Y-14286094D01*
X5337944Y-14286094D02*
X5299848Y-14286094D01*
X5299848Y-14286094D02*
X5280801Y-14295618D01*
X5366515Y-14409904D02*
X5347467Y-14419428D01*
X5347467Y-14419428D02*
X5299848Y-14419428D01*
X5299848Y-14419428D02*
X5280801Y-14409904D01*
X5280801Y-14409904D02*
X5271277Y-14390856D01*
X5271277Y-14390856D02*
X5271277Y-14371809D01*
X5271277Y-14371809D02*
X5280801Y-14352761D01*
X5280801Y-14352761D02*
X5299848Y-14343237D01*
X5299848Y-14343237D02*
X5347467Y-14343237D01*
X5347467Y-14343237D02*
X5366515Y-14333713D01*
X5461753Y-14286094D02*
X5461753Y-14486094D01*
X5461753Y-14295618D02*
X5480801Y-14286094D01*
X5480801Y-14286094D02*
X5518896Y-14286094D01*
X5518896Y-14286094D02*
X5537944Y-14295618D01*
X5537944Y-14295618D02*
X5547467Y-14305142D01*
X5547467Y-14305142D02*
X5556991Y-14324190D01*
X5556991Y-14324190D02*
X5556991Y-14381332D01*
X5556991Y-14381332D02*
X5547467Y-14400380D01*
X5547467Y-14400380D02*
X5537944Y-14409904D01*
X5537944Y-14409904D02*
X5518896Y-14419428D01*
X5518896Y-14419428D02*
X5480801Y-14419428D01*
X5480801Y-14419428D02*
X5461753Y-14409904D01*
X5642705Y-14400380D02*
X5652229Y-14409904D01*
X5652229Y-14409904D02*
X5642705Y-14419428D01*
X5642705Y-14419428D02*
X5633182Y-14409904D01*
X5633182Y-14409904D02*
X5642705Y-14400380D01*
X5642705Y-14400380D02*
X5642705Y-14419428D01*
X5642705Y-14295618D02*
X5652229Y-14305142D01*
X5652229Y-14305142D02*
X5642705Y-14314666D01*
X5642705Y-14314666D02*
X5633182Y-14305142D01*
X5633182Y-14305142D02*
X5642705Y-14295618D01*
X5642705Y-14295618D02*
X5642705Y-14314666D01*
D10*
X3945500Y-14715444D02*
X4010500Y-14780444D01*
X4010500Y-14715444D02*
X3945500Y-14780444D01*
D12*
X4309372Y-14639428D02*
X4328420Y-14639428D01*
X4328420Y-14639428D02*
X4347467Y-14648951D01*
X4347467Y-14648951D02*
X4356991Y-14658475D01*
X4356991Y-14658475D02*
X4366515Y-14677523D01*
X4366515Y-14677523D02*
X4376039Y-14715618D01*
X4376039Y-14715618D02*
X4376039Y-14763237D01*
X4376039Y-14763237D02*
X4366515Y-14801332D01*
X4366515Y-14801332D02*
X4356991Y-14820380D01*
X4356991Y-14820380D02*
X4347467Y-14829904D01*
X4347467Y-14829904D02*
X4328420Y-14839428D01*
X4328420Y-14839428D02*
X4309372Y-14839428D01*
X4309372Y-14839428D02*
X4290324Y-14829904D01*
X4290324Y-14829904D02*
X4280801Y-14820380D01*
X4280801Y-14820380D02*
X4271277Y-14801332D01*
X4271277Y-14801332D02*
X4261753Y-14763237D01*
X4261753Y-14763237D02*
X4261753Y-14715618D01*
X4261753Y-14715618D02*
X4271277Y-14677523D01*
X4271277Y-14677523D02*
X4280801Y-14658475D01*
X4280801Y-14658475D02*
X4290324Y-14648951D01*
X4290324Y-14648951D02*
X4309372Y-14639428D01*
X4461753Y-14820380D02*
X4471277Y-14829904D01*
X4471277Y-14829904D02*
X4461753Y-14839428D01*
X4461753Y-14839428D02*
X4452229Y-14829904D01*
X4452229Y-14829904D02*
X4461753Y-14820380D01*
X4461753Y-14820380D02*
X4461753Y-14839428D01*
X4642705Y-14639428D02*
X4604610Y-14639428D01*
X4604610Y-14639428D02*
X4585563Y-14648951D01*
X4585563Y-14648951D02*
X4576039Y-14658475D01*
X4576039Y-14658475D02*
X4556991Y-14687047D01*
X4556991Y-14687047D02*
X4547467Y-14725142D01*
X4547467Y-14725142D02*
X4547467Y-14801332D01*
X4547467Y-14801332D02*
X4556991Y-14820380D01*
X4556991Y-14820380D02*
X4566515Y-14829904D01*
X4566515Y-14829904D02*
X4585563Y-14839428D01*
X4585563Y-14839428D02*
X4623658Y-14839428D01*
X4623658Y-14839428D02*
X4642705Y-14829904D01*
X4642705Y-14829904D02*
X4652229Y-14820380D01*
X4652229Y-14820380D02*
X4661753Y-14801332D01*
X4661753Y-14801332D02*
X4661753Y-14753713D01*
X4661753Y-14753713D02*
X4652229Y-14734666D01*
X4652229Y-14734666D02*
X4642705Y-14725142D01*
X4642705Y-14725142D02*
X4623658Y-14715618D01*
X4623658Y-14715618D02*
X4585563Y-14715618D01*
X4585563Y-14715618D02*
X4566515Y-14725142D01*
X4566515Y-14725142D02*
X4556991Y-14734666D01*
X4556991Y-14734666D02*
X4547467Y-14753713D01*
X4842705Y-14639428D02*
X4747467Y-14639428D01*
X4747467Y-14639428D02*
X4737944Y-14734666D01*
X4737944Y-14734666D02*
X4747467Y-14725142D01*
X4747467Y-14725142D02*
X4766515Y-14715618D01*
X4766515Y-14715618D02*
X4814134Y-14715618D01*
X4814134Y-14715618D02*
X4833182Y-14725142D01*
X4833182Y-14725142D02*
X4842705Y-14734666D01*
X4842705Y-14734666D02*
X4852229Y-14753713D01*
X4852229Y-14753713D02*
X4852229Y-14801332D01*
X4852229Y-14801332D02*
X4842705Y-14820380D01*
X4842705Y-14820380D02*
X4833182Y-14829904D01*
X4833182Y-14829904D02*
X4814134Y-14839428D01*
X4814134Y-14839428D02*
X4766515Y-14839428D01*
X4766515Y-14839428D02*
X4747467Y-14829904D01*
X4747467Y-14829904D02*
X4737944Y-14820380D01*
X4976039Y-14639428D02*
X4995086Y-14639428D01*
X4995086Y-14639428D02*
X5014134Y-14648951D01*
X5014134Y-14648951D02*
X5023658Y-14658475D01*
X5023658Y-14658475D02*
X5033182Y-14677523D01*
X5033182Y-14677523D02*
X5042705Y-14715618D01*
X5042705Y-14715618D02*
X5042705Y-14763237D01*
X5042705Y-14763237D02*
X5033182Y-14801332D01*
X5033182Y-14801332D02*
X5023658Y-14820380D01*
X5023658Y-14820380D02*
X5014134Y-14829904D01*
X5014134Y-14829904D02*
X4995086Y-14839428D01*
X4995086Y-14839428D02*
X4976039Y-14839428D01*
X4976039Y-14839428D02*
X4956991Y-14829904D01*
X4956991Y-14829904D02*
X4947467Y-14820380D01*
X4947467Y-14820380D02*
X4937944Y-14801332D01*
X4937944Y-14801332D02*
X4928420Y-14763237D01*
X4928420Y-14763237D02*
X4928420Y-14715618D01*
X4928420Y-14715618D02*
X4937944Y-14677523D01*
X4937944Y-14677523D02*
X4947467Y-14658475D01*
X4947467Y-14658475D02*
X4956991Y-14648951D01*
X4956991Y-14648951D02*
X4976039Y-14639428D01*
X5128420Y-14839428D02*
X5128420Y-14706094D01*
X5128420Y-14725142D02*
X5137944Y-14715618D01*
X5137944Y-14715618D02*
X5156991Y-14706094D01*
X5156991Y-14706094D02*
X5185563Y-14706094D01*
X5185563Y-14706094D02*
X5204610Y-14715618D01*
X5204610Y-14715618D02*
X5214134Y-14734666D01*
X5214134Y-14734666D02*
X5214134Y-14839428D01*
X5214134Y-14734666D02*
X5223658Y-14715618D01*
X5223658Y-14715618D02*
X5242705Y-14706094D01*
X5242705Y-14706094D02*
X5271277Y-14706094D01*
X5271277Y-14706094D02*
X5290325Y-14715618D01*
X5290325Y-14715618D02*
X5299848Y-14734666D01*
X5299848Y-14734666D02*
X5299848Y-14839428D01*
X5395086Y-14839428D02*
X5395086Y-14706094D01*
X5395086Y-14725142D02*
X5404610Y-14715618D01*
X5404610Y-14715618D02*
X5423658Y-14706094D01*
X5423658Y-14706094D02*
X5452229Y-14706094D01*
X5452229Y-14706094D02*
X5471277Y-14715618D01*
X5471277Y-14715618D02*
X5480801Y-14734666D01*
X5480801Y-14734666D02*
X5480801Y-14839428D01*
X5480801Y-14734666D02*
X5490325Y-14715618D01*
X5490325Y-14715618D02*
X5509372Y-14706094D01*
X5509372Y-14706094D02*
X5537944Y-14706094D01*
X5537944Y-14706094D02*
X5556991Y-14715618D01*
X5556991Y-14715618D02*
X5566515Y-14734666D01*
X5566515Y-14734666D02*
X5566515Y-14839428D01*
X5956991Y-14629904D02*
X5785563Y-14887047D01*
X6214134Y-14639428D02*
X6233182Y-14639428D01*
X6233182Y-14639428D02*
X6252229Y-14648951D01*
X6252229Y-14648951D02*
X6261753Y-14658475D01*
X6261753Y-14658475D02*
X6271277Y-14677523D01*
X6271277Y-14677523D02*
X6280801Y-14715618D01*
X6280801Y-14715618D02*
X6280801Y-14763237D01*
X6280801Y-14763237D02*
X6271277Y-14801332D01*
X6271277Y-14801332D02*
X6261753Y-14820380D01*
X6261753Y-14820380D02*
X6252229Y-14829904D01*
X6252229Y-14829904D02*
X6233182Y-14839428D01*
X6233182Y-14839428D02*
X6214134Y-14839428D01*
X6214134Y-14839428D02*
X6195086Y-14829904D01*
X6195086Y-14829904D02*
X6185563Y-14820380D01*
X6185563Y-14820380D02*
X6176039Y-14801332D01*
X6176039Y-14801332D02*
X6166515Y-14763237D01*
X6166515Y-14763237D02*
X6166515Y-14715618D01*
X6166515Y-14715618D02*
X6176039Y-14677523D01*
X6176039Y-14677523D02*
X6185563Y-14658475D01*
X6185563Y-14658475D02*
X6195086Y-14648951D01*
X6195086Y-14648951D02*
X6214134Y-14639428D01*
X6366515Y-14820380D02*
X6376039Y-14829904D01*
X6376039Y-14829904D02*
X6366515Y-14839428D01*
X6366515Y-14839428D02*
X6356991Y-14829904D01*
X6356991Y-14829904D02*
X6366515Y-14820380D01*
X6366515Y-14820380D02*
X6366515Y-14839428D01*
X6499848Y-14639428D02*
X6518896Y-14639428D01*
X6518896Y-14639428D02*
X6537944Y-14648951D01*
X6537944Y-14648951D02*
X6547467Y-14658475D01*
X6547467Y-14658475D02*
X6556991Y-14677523D01*
X6556991Y-14677523D02*
X6566515Y-14715618D01*
X6566515Y-14715618D02*
X6566515Y-14763237D01*
X6566515Y-14763237D02*
X6556991Y-14801332D01*
X6556991Y-14801332D02*
X6547467Y-14820380D01*
X6547467Y-14820380D02*
X6537944Y-14829904D01*
X6537944Y-14829904D02*
X6518896Y-14839428D01*
X6518896Y-14839428D02*
X6499848Y-14839428D01*
X6499848Y-14839428D02*
X6480801Y-14829904D01*
X6480801Y-14829904D02*
X6471277Y-14820380D01*
X6471277Y-14820380D02*
X6461753Y-14801332D01*
X6461753Y-14801332D02*
X6452229Y-14763237D01*
X6452229Y-14763237D02*
X6452229Y-14715618D01*
X6452229Y-14715618D02*
X6461753Y-14677523D01*
X6461753Y-14677523D02*
X6471277Y-14658475D01*
X6471277Y-14658475D02*
X6480801Y-14648951D01*
X6480801Y-14648951D02*
X6499848Y-14639428D01*
X6642706Y-14658475D02*
X6652229Y-14648951D01*
X6652229Y-14648951D02*
X6671277Y-14639428D01*
X6671277Y-14639428D02*
X6718896Y-14639428D01*
X6718896Y-14639428D02*
X6737944Y-14648951D01*
X6737944Y-14648951D02*
X6747467Y-14658475D01*
X6747467Y-14658475D02*
X6756991Y-14677523D01*
X6756991Y-14677523D02*
X6756991Y-14696570D01*
X6756991Y-14696570D02*
X6747467Y-14725142D01*
X6747467Y-14725142D02*
X6633182Y-14839428D01*
X6633182Y-14839428D02*
X6756991Y-14839428D01*
X6937944Y-14639428D02*
X6842706Y-14639428D01*
X6842706Y-14639428D02*
X6833182Y-14734666D01*
X6833182Y-14734666D02*
X6842706Y-14725142D01*
X6842706Y-14725142D02*
X6861753Y-14715618D01*
X6861753Y-14715618D02*
X6909372Y-14715618D01*
X6909372Y-14715618D02*
X6928420Y-14725142D01*
X6928420Y-14725142D02*
X6937944Y-14734666D01*
X6937944Y-14734666D02*
X6947467Y-14753713D01*
X6947467Y-14753713D02*
X6947467Y-14801332D01*
X6947467Y-14801332D02*
X6937944Y-14820380D01*
X6937944Y-14820380D02*
X6928420Y-14829904D01*
X6928420Y-14829904D02*
X6909372Y-14839428D01*
X6909372Y-14839428D02*
X6861753Y-14839428D01*
X6861753Y-14839428D02*
X6842706Y-14829904D01*
X6842706Y-14829904D02*
X6833182Y-14820380D01*
X7118896Y-14639428D02*
X7080801Y-14639428D01*
X7080801Y-14639428D02*
X7061753Y-14648951D01*
X7061753Y-14648951D02*
X7052229Y-14658475D01*
X7052229Y-14658475D02*
X7033182Y-14687047D01*
X7033182Y-14687047D02*
X7023658Y-14725142D01*
X7023658Y-14725142D02*
X7023658Y-14801332D01*
X7023658Y-14801332D02*
X7033182Y-14820380D01*
X7033182Y-14820380D02*
X7042706Y-14829904D01*
X7042706Y-14829904D02*
X7061753Y-14839428D01*
X7061753Y-14839428D02*
X7099848Y-14839428D01*
X7099848Y-14839428D02*
X7118896Y-14829904D01*
X7118896Y-14829904D02*
X7128420Y-14820380D01*
X7128420Y-14820380D02*
X7137944Y-14801332D01*
X7137944Y-14801332D02*
X7137944Y-14753713D01*
X7137944Y-14753713D02*
X7128420Y-14734666D01*
X7128420Y-14734666D02*
X7118896Y-14725142D01*
X7118896Y-14725142D02*
X7099848Y-14715618D01*
X7099848Y-14715618D02*
X7061753Y-14715618D01*
X7061753Y-14715618D02*
X7042706Y-14725142D01*
X7042706Y-14725142D02*
X7033182Y-14734666D01*
X7033182Y-14734666D02*
X7023658Y-14753713D01*
X7214134Y-14639428D02*
X7214134Y-14677523D01*
X7290325Y-14639428D02*
X7290325Y-14677523D01*
X7585563Y-14915618D02*
X7576039Y-14906094D01*
X7576039Y-14906094D02*
X7556991Y-14877523D01*
X7556991Y-14877523D02*
X7547468Y-14858475D01*
X7547468Y-14858475D02*
X7537944Y-14829904D01*
X7537944Y-14829904D02*
X7528420Y-14782285D01*
X7528420Y-14782285D02*
X7528420Y-14744190D01*
X7528420Y-14744190D02*
X7537944Y-14696570D01*
X7537944Y-14696570D02*
X7547468Y-14667999D01*
X7547468Y-14667999D02*
X7556991Y-14648951D01*
X7556991Y-14648951D02*
X7576039Y-14620380D01*
X7576039Y-14620380D02*
X7585563Y-14610856D01*
X7652229Y-14658475D02*
X7661753Y-14648951D01*
X7661753Y-14648951D02*
X7680801Y-14639428D01*
X7680801Y-14639428D02*
X7728420Y-14639428D01*
X7728420Y-14639428D02*
X7747468Y-14648951D01*
X7747468Y-14648951D02*
X7756991Y-14658475D01*
X7756991Y-14658475D02*
X7766515Y-14677523D01*
X7766515Y-14677523D02*
X7766515Y-14696570D01*
X7766515Y-14696570D02*
X7756991Y-14725142D01*
X7756991Y-14725142D02*
X7642706Y-14839428D01*
X7642706Y-14839428D02*
X7766515Y-14839428D01*
X8004610Y-14839428D02*
X8004610Y-14639428D01*
X8090325Y-14839428D02*
X8090325Y-14734666D01*
X8090325Y-14734666D02*
X8080801Y-14715618D01*
X8080801Y-14715618D02*
X8061753Y-14706094D01*
X8061753Y-14706094D02*
X8033182Y-14706094D01*
X8033182Y-14706094D02*
X8014134Y-14715618D01*
X8014134Y-14715618D02*
X8004610Y-14725142D01*
X8214134Y-14839428D02*
X8195087Y-14829904D01*
X8195087Y-14829904D02*
X8185563Y-14820380D01*
X8185563Y-14820380D02*
X8176039Y-14801332D01*
X8176039Y-14801332D02*
X8176039Y-14744190D01*
X8176039Y-14744190D02*
X8185563Y-14725142D01*
X8185563Y-14725142D02*
X8195087Y-14715618D01*
X8195087Y-14715618D02*
X8214134Y-14706094D01*
X8214134Y-14706094D02*
X8242706Y-14706094D01*
X8242706Y-14706094D02*
X8261753Y-14715618D01*
X8261753Y-14715618D02*
X8271277Y-14725142D01*
X8271277Y-14725142D02*
X8280801Y-14744190D01*
X8280801Y-14744190D02*
X8280801Y-14801332D01*
X8280801Y-14801332D02*
X8271277Y-14820380D01*
X8271277Y-14820380D02*
X8261753Y-14829904D01*
X8261753Y-14829904D02*
X8242706Y-14839428D01*
X8242706Y-14839428D02*
X8214134Y-14839428D01*
X8395087Y-14839428D02*
X8376039Y-14829904D01*
X8376039Y-14829904D02*
X8366515Y-14810856D01*
X8366515Y-14810856D02*
X8366515Y-14639428D01*
X8547468Y-14829904D02*
X8528420Y-14839428D01*
X8528420Y-14839428D02*
X8490325Y-14839428D01*
X8490325Y-14839428D02*
X8471277Y-14829904D01*
X8471277Y-14829904D02*
X8461753Y-14810856D01*
X8461753Y-14810856D02*
X8461753Y-14734666D01*
X8461753Y-14734666D02*
X8471277Y-14715618D01*
X8471277Y-14715618D02*
X8490325Y-14706094D01*
X8490325Y-14706094D02*
X8528420Y-14706094D01*
X8528420Y-14706094D02*
X8547468Y-14715618D01*
X8547468Y-14715618D02*
X8556992Y-14734666D01*
X8556992Y-14734666D02*
X8556992Y-14753713D01*
X8556992Y-14753713D02*
X8461753Y-14772761D01*
X8633182Y-14829904D02*
X8652230Y-14839428D01*
X8652230Y-14839428D02*
X8690325Y-14839428D01*
X8690325Y-14839428D02*
X8709373Y-14829904D01*
X8709373Y-14829904D02*
X8718896Y-14810856D01*
X8718896Y-14810856D02*
X8718896Y-14801332D01*
X8718896Y-14801332D02*
X8709373Y-14782285D01*
X8709373Y-14782285D02*
X8690325Y-14772761D01*
X8690325Y-14772761D02*
X8661753Y-14772761D01*
X8661753Y-14772761D02*
X8642706Y-14763237D01*
X8642706Y-14763237D02*
X8633182Y-14744190D01*
X8633182Y-14744190D02*
X8633182Y-14734666D01*
X8633182Y-14734666D02*
X8642706Y-14715618D01*
X8642706Y-14715618D02*
X8661753Y-14706094D01*
X8661753Y-14706094D02*
X8690325Y-14706094D01*
X8690325Y-14706094D02*
X8709373Y-14715618D01*
X8785563Y-14915618D02*
X8795087Y-14906094D01*
X8795087Y-14906094D02*
X8814134Y-14877523D01*
X8814134Y-14877523D02*
X8823658Y-14858475D01*
X8823658Y-14858475D02*
X8833182Y-14829904D01*
X8833182Y-14829904D02*
X8842706Y-14782285D01*
X8842706Y-14782285D02*
X8842706Y-14744190D01*
X8842706Y-14744190D02*
X8833182Y-14696570D01*
X8833182Y-14696570D02*
X8823658Y-14667999D01*
X8823658Y-14667999D02*
X8814134Y-14648951D01*
X8814134Y-14648951D02*
X8795087Y-14620380D01*
X8795087Y-14620380D02*
X8785563Y-14610856D01*
X9147468Y-14915618D02*
X9137944Y-14906094D01*
X9137944Y-14906094D02*
X9118896Y-14877523D01*
X9118896Y-14877523D02*
X9109373Y-14858475D01*
X9109373Y-14858475D02*
X9099849Y-14829904D01*
X9099849Y-14829904D02*
X9090325Y-14782285D01*
X9090325Y-14782285D02*
X9090325Y-14744190D01*
X9090325Y-14744190D02*
X9099849Y-14696570D01*
X9099849Y-14696570D02*
X9109373Y-14667999D01*
X9109373Y-14667999D02*
X9118896Y-14648951D01*
X9118896Y-14648951D02*
X9137944Y-14620380D01*
X9137944Y-14620380D02*
X9147468Y-14610856D01*
X9223658Y-14706094D02*
X9223658Y-14839428D01*
X9223658Y-14725142D02*
X9233182Y-14715618D01*
X9233182Y-14715618D02*
X9252230Y-14706094D01*
X9252230Y-14706094D02*
X9280801Y-14706094D01*
X9280801Y-14706094D02*
X9299849Y-14715618D01*
X9299849Y-14715618D02*
X9309373Y-14734666D01*
X9309373Y-14734666D02*
X9309373Y-14839428D01*
X9433182Y-14839428D02*
X9414134Y-14829904D01*
X9414134Y-14829904D02*
X9404611Y-14820380D01*
X9404611Y-14820380D02*
X9395087Y-14801332D01*
X9395087Y-14801332D02*
X9395087Y-14744190D01*
X9395087Y-14744190D02*
X9404611Y-14725142D01*
X9404611Y-14725142D02*
X9414134Y-14715618D01*
X9414134Y-14715618D02*
X9433182Y-14706094D01*
X9433182Y-14706094D02*
X9461754Y-14706094D01*
X9461754Y-14706094D02*
X9480801Y-14715618D01*
X9480801Y-14715618D02*
X9490325Y-14725142D01*
X9490325Y-14725142D02*
X9499849Y-14744190D01*
X9499849Y-14744190D02*
X9499849Y-14801332D01*
X9499849Y-14801332D02*
X9490325Y-14820380D01*
X9490325Y-14820380D02*
X9480801Y-14829904D01*
X9480801Y-14829904D02*
X9461754Y-14839428D01*
X9461754Y-14839428D02*
X9433182Y-14839428D01*
X9556992Y-14706094D02*
X9633182Y-14706094D01*
X9585563Y-14639428D02*
X9585563Y-14810856D01*
X9585563Y-14810856D02*
X9595087Y-14829904D01*
X9595087Y-14829904D02*
X9614134Y-14839428D01*
X9614134Y-14839428D02*
X9633182Y-14839428D01*
X9852230Y-14706094D02*
X9852230Y-14906094D01*
X9852230Y-14715618D02*
X9871277Y-14706094D01*
X9871277Y-14706094D02*
X9909373Y-14706094D01*
X9909373Y-14706094D02*
X9928420Y-14715618D01*
X9928420Y-14715618D02*
X9937944Y-14725142D01*
X9937944Y-14725142D02*
X9947468Y-14744190D01*
X9947468Y-14744190D02*
X9947468Y-14801332D01*
X9947468Y-14801332D02*
X9937944Y-14820380D01*
X9937944Y-14820380D02*
X9928420Y-14829904D01*
X9928420Y-14829904D02*
X9909373Y-14839428D01*
X9909373Y-14839428D02*
X9871277Y-14839428D01*
X9871277Y-14839428D02*
X9852230Y-14829904D01*
X10061754Y-14839428D02*
X10042706Y-14829904D01*
X10042706Y-14829904D02*
X10033182Y-14810856D01*
X10033182Y-14810856D02*
X10033182Y-14639428D01*
X10223658Y-14839428D02*
X10223658Y-14734666D01*
X10223658Y-14734666D02*
X10214135Y-14715618D01*
X10214135Y-14715618D02*
X10195087Y-14706094D01*
X10195087Y-14706094D02*
X10156992Y-14706094D01*
X10156992Y-14706094D02*
X10137944Y-14715618D01*
X10223658Y-14829904D02*
X10204611Y-14839428D01*
X10204611Y-14839428D02*
X10156992Y-14839428D01*
X10156992Y-14839428D02*
X10137944Y-14829904D01*
X10137944Y-14829904D02*
X10128420Y-14810856D01*
X10128420Y-14810856D02*
X10128420Y-14791809D01*
X10128420Y-14791809D02*
X10137944Y-14772761D01*
X10137944Y-14772761D02*
X10156992Y-14763237D01*
X10156992Y-14763237D02*
X10204611Y-14763237D01*
X10204611Y-14763237D02*
X10223658Y-14753713D01*
X10290325Y-14706094D02*
X10366515Y-14706094D01*
X10318896Y-14639428D02*
X10318896Y-14810856D01*
X10318896Y-14810856D02*
X10328420Y-14829904D01*
X10328420Y-14829904D02*
X10347468Y-14839428D01*
X10347468Y-14839428D02*
X10366515Y-14839428D01*
X10509373Y-14829904D02*
X10490325Y-14839428D01*
X10490325Y-14839428D02*
X10452230Y-14839428D01*
X10452230Y-14839428D02*
X10433182Y-14829904D01*
X10433182Y-14829904D02*
X10423658Y-14810856D01*
X10423658Y-14810856D02*
X10423658Y-14734666D01*
X10423658Y-14734666D02*
X10433182Y-14715618D01*
X10433182Y-14715618D02*
X10452230Y-14706094D01*
X10452230Y-14706094D02*
X10490325Y-14706094D01*
X10490325Y-14706094D02*
X10509373Y-14715618D01*
X10509373Y-14715618D02*
X10518896Y-14734666D01*
X10518896Y-14734666D02*
X10518896Y-14753713D01*
X10518896Y-14753713D02*
X10423658Y-14772761D01*
X10690325Y-14839428D02*
X10690325Y-14639428D01*
X10690325Y-14829904D02*
X10671277Y-14839428D01*
X10671277Y-14839428D02*
X10633182Y-14839428D01*
X10633182Y-14839428D02*
X10614135Y-14829904D01*
X10614135Y-14829904D02*
X10604611Y-14820380D01*
X10604611Y-14820380D02*
X10595087Y-14801332D01*
X10595087Y-14801332D02*
X10595087Y-14744190D01*
X10595087Y-14744190D02*
X10604611Y-14725142D01*
X10604611Y-14725142D02*
X10614135Y-14715618D01*
X10614135Y-14715618D02*
X10633182Y-14706094D01*
X10633182Y-14706094D02*
X10671277Y-14706094D01*
X10671277Y-14706094D02*
X10690325Y-14715618D01*
X10766516Y-14915618D02*
X10776039Y-14906094D01*
X10776039Y-14906094D02*
X10795087Y-14877523D01*
X10795087Y-14877523D02*
X10804611Y-14858475D01*
X10804611Y-14858475D02*
X10814135Y-14829904D01*
X10814135Y-14829904D02*
X10823658Y-14782285D01*
X10823658Y-14782285D02*
X10823658Y-14744190D01*
X10823658Y-14744190D02*
X10814135Y-14696570D01*
X10814135Y-14696570D02*
X10804611Y-14667999D01*
X10804611Y-14667999D02*
X10795087Y-14648951D01*
X10795087Y-14648951D02*
X10776039Y-14620380D01*
X10776039Y-14620380D02*
X10766516Y-14610856D01*
D13*
X4010500Y-15011944D02*
G75*
G02*
X3895500Y-15011944I-57500J0D01*
G01*
X3895500Y-15011944D02*
G75*
G02*
X4010500Y-15011944I57500J0D01*
G01*
D12*
X4376039Y-15103428D02*
X4261753Y-15103428D01*
X4318896Y-15103428D02*
X4318896Y-14903428D01*
X4318896Y-14903428D02*
X4299848Y-14931999D01*
X4299848Y-14931999D02*
X4280801Y-14951047D01*
X4280801Y-14951047D02*
X4261753Y-14960570D01*
X4461753Y-15084380D02*
X4471277Y-15093904D01*
X4471277Y-15093904D02*
X4461753Y-15103428D01*
X4461753Y-15103428D02*
X4452229Y-15093904D01*
X4452229Y-15093904D02*
X4461753Y-15084380D01*
X4461753Y-15084380D02*
X4461753Y-15103428D01*
X4661753Y-15103428D02*
X4547467Y-15103428D01*
X4604610Y-15103428D02*
X4604610Y-14903428D01*
X4604610Y-14903428D02*
X4585563Y-14931999D01*
X4585563Y-14931999D02*
X4566515Y-14951047D01*
X4566515Y-14951047D02*
X4547467Y-14960570D01*
X4842705Y-14903428D02*
X4747467Y-14903428D01*
X4747467Y-14903428D02*
X4737944Y-14998666D01*
X4737944Y-14998666D02*
X4747467Y-14989142D01*
X4747467Y-14989142D02*
X4766515Y-14979618D01*
X4766515Y-14979618D02*
X4814134Y-14979618D01*
X4814134Y-14979618D02*
X4833182Y-14989142D01*
X4833182Y-14989142D02*
X4842705Y-14998666D01*
X4842705Y-14998666D02*
X4852229Y-15017713D01*
X4852229Y-15017713D02*
X4852229Y-15065332D01*
X4852229Y-15065332D02*
X4842705Y-15084380D01*
X4842705Y-15084380D02*
X4833182Y-15093904D01*
X4833182Y-15093904D02*
X4814134Y-15103428D01*
X4814134Y-15103428D02*
X4766515Y-15103428D01*
X4766515Y-15103428D02*
X4747467Y-15093904D01*
X4747467Y-15093904D02*
X4737944Y-15084380D01*
X4976039Y-14903428D02*
X4995086Y-14903428D01*
X4995086Y-14903428D02*
X5014134Y-14912951D01*
X5014134Y-14912951D02*
X5023658Y-14922475D01*
X5023658Y-14922475D02*
X5033182Y-14941523D01*
X5033182Y-14941523D02*
X5042705Y-14979618D01*
X5042705Y-14979618D02*
X5042705Y-15027237D01*
X5042705Y-15027237D02*
X5033182Y-15065332D01*
X5033182Y-15065332D02*
X5023658Y-15084380D01*
X5023658Y-15084380D02*
X5014134Y-15093904D01*
X5014134Y-15093904D02*
X4995086Y-15103428D01*
X4995086Y-15103428D02*
X4976039Y-15103428D01*
X4976039Y-15103428D02*
X4956991Y-15093904D01*
X4956991Y-15093904D02*
X4947467Y-15084380D01*
X4947467Y-15084380D02*
X4937944Y-15065332D01*
X4937944Y-15065332D02*
X4928420Y-15027237D01*
X4928420Y-15027237D02*
X4928420Y-14979618D01*
X4928420Y-14979618D02*
X4937944Y-14941523D01*
X4937944Y-14941523D02*
X4947467Y-14922475D01*
X4947467Y-14922475D02*
X4956991Y-14912951D01*
X4956991Y-14912951D02*
X4976039Y-14903428D01*
X5128420Y-15103428D02*
X5128420Y-14970094D01*
X5128420Y-14989142D02*
X5137944Y-14979618D01*
X5137944Y-14979618D02*
X5156991Y-14970094D01*
X5156991Y-14970094D02*
X5185563Y-14970094D01*
X5185563Y-14970094D02*
X5204610Y-14979618D01*
X5204610Y-14979618D02*
X5214134Y-14998666D01*
X5214134Y-14998666D02*
X5214134Y-15103428D01*
X5214134Y-14998666D02*
X5223658Y-14979618D01*
X5223658Y-14979618D02*
X5242705Y-14970094D01*
X5242705Y-14970094D02*
X5271277Y-14970094D01*
X5271277Y-14970094D02*
X5290325Y-14979618D01*
X5290325Y-14979618D02*
X5299848Y-14998666D01*
X5299848Y-14998666D02*
X5299848Y-15103428D01*
X5395086Y-15103428D02*
X5395086Y-14970094D01*
X5395086Y-14989142D02*
X5404610Y-14979618D01*
X5404610Y-14979618D02*
X5423658Y-14970094D01*
X5423658Y-14970094D02*
X5452229Y-14970094D01*
X5452229Y-14970094D02*
X5471277Y-14979618D01*
X5471277Y-14979618D02*
X5480801Y-14998666D01*
X5480801Y-14998666D02*
X5480801Y-15103428D01*
X5480801Y-14998666D02*
X5490325Y-14979618D01*
X5490325Y-14979618D02*
X5509372Y-14970094D01*
X5509372Y-14970094D02*
X5537944Y-14970094D01*
X5537944Y-14970094D02*
X5556991Y-14979618D01*
X5556991Y-14979618D02*
X5566515Y-14998666D01*
X5566515Y-14998666D02*
X5566515Y-15103428D01*
X5956991Y-14893904D02*
X5785563Y-15151047D01*
X6214134Y-14903428D02*
X6233182Y-14903428D01*
X6233182Y-14903428D02*
X6252229Y-14912951D01*
X6252229Y-14912951D02*
X6261753Y-14922475D01*
X6261753Y-14922475D02*
X6271277Y-14941523D01*
X6271277Y-14941523D02*
X6280801Y-14979618D01*
X6280801Y-14979618D02*
X6280801Y-15027237D01*
X6280801Y-15027237D02*
X6271277Y-15065332D01*
X6271277Y-15065332D02*
X6261753Y-15084380D01*
X6261753Y-15084380D02*
X6252229Y-15093904D01*
X6252229Y-15093904D02*
X6233182Y-15103428D01*
X6233182Y-15103428D02*
X6214134Y-15103428D01*
X6214134Y-15103428D02*
X6195086Y-15093904D01*
X6195086Y-15093904D02*
X6185563Y-15084380D01*
X6185563Y-15084380D02*
X6176039Y-15065332D01*
X6176039Y-15065332D02*
X6166515Y-15027237D01*
X6166515Y-15027237D02*
X6166515Y-14979618D01*
X6166515Y-14979618D02*
X6176039Y-14941523D01*
X6176039Y-14941523D02*
X6185563Y-14922475D01*
X6185563Y-14922475D02*
X6195086Y-14912951D01*
X6195086Y-14912951D02*
X6214134Y-14903428D01*
X6366515Y-15084380D02*
X6376039Y-15093904D01*
X6376039Y-15093904D02*
X6366515Y-15103428D01*
X6366515Y-15103428D02*
X6356991Y-15093904D01*
X6356991Y-15093904D02*
X6366515Y-15084380D01*
X6366515Y-15084380D02*
X6366515Y-15103428D01*
X6499848Y-14903428D02*
X6518896Y-14903428D01*
X6518896Y-14903428D02*
X6537944Y-14912951D01*
X6537944Y-14912951D02*
X6547467Y-14922475D01*
X6547467Y-14922475D02*
X6556991Y-14941523D01*
X6556991Y-14941523D02*
X6566515Y-14979618D01*
X6566515Y-14979618D02*
X6566515Y-15027237D01*
X6566515Y-15027237D02*
X6556991Y-15065332D01*
X6556991Y-15065332D02*
X6547467Y-15084380D01*
X6547467Y-15084380D02*
X6537944Y-15093904D01*
X6537944Y-15093904D02*
X6518896Y-15103428D01*
X6518896Y-15103428D02*
X6499848Y-15103428D01*
X6499848Y-15103428D02*
X6480801Y-15093904D01*
X6480801Y-15093904D02*
X6471277Y-15084380D01*
X6471277Y-15084380D02*
X6461753Y-15065332D01*
X6461753Y-15065332D02*
X6452229Y-15027237D01*
X6452229Y-15027237D02*
X6452229Y-14979618D01*
X6452229Y-14979618D02*
X6461753Y-14941523D01*
X6461753Y-14941523D02*
X6471277Y-14922475D01*
X6471277Y-14922475D02*
X6480801Y-14912951D01*
X6480801Y-14912951D02*
X6499848Y-14903428D01*
X6737944Y-14970094D02*
X6737944Y-15103428D01*
X6690325Y-14893904D02*
X6642706Y-15036761D01*
X6642706Y-15036761D02*
X6766515Y-15036761D01*
X6937944Y-14903428D02*
X6842706Y-14903428D01*
X6842706Y-14903428D02*
X6833182Y-14998666D01*
X6833182Y-14998666D02*
X6842706Y-14989142D01*
X6842706Y-14989142D02*
X6861753Y-14979618D01*
X6861753Y-14979618D02*
X6909372Y-14979618D01*
X6909372Y-14979618D02*
X6928420Y-14989142D01*
X6928420Y-14989142D02*
X6937944Y-14998666D01*
X6937944Y-14998666D02*
X6947467Y-15017713D01*
X6947467Y-15017713D02*
X6947467Y-15065332D01*
X6947467Y-15065332D02*
X6937944Y-15084380D01*
X6937944Y-15084380D02*
X6928420Y-15093904D01*
X6928420Y-15093904D02*
X6909372Y-15103428D01*
X6909372Y-15103428D02*
X6861753Y-15103428D01*
X6861753Y-15103428D02*
X6842706Y-15093904D01*
X6842706Y-15093904D02*
X6833182Y-15084380D01*
X7014134Y-14903428D02*
X7137944Y-14903428D01*
X7137944Y-14903428D02*
X7071277Y-14979618D01*
X7071277Y-14979618D02*
X7099848Y-14979618D01*
X7099848Y-14979618D02*
X7118896Y-14989142D01*
X7118896Y-14989142D02*
X7128420Y-14998666D01*
X7128420Y-14998666D02*
X7137944Y-15017713D01*
X7137944Y-15017713D02*
X7137944Y-15065332D01*
X7137944Y-15065332D02*
X7128420Y-15084380D01*
X7128420Y-15084380D02*
X7118896Y-15093904D01*
X7118896Y-15093904D02*
X7099848Y-15103428D01*
X7099848Y-15103428D02*
X7042706Y-15103428D01*
X7042706Y-15103428D02*
X7023658Y-15093904D01*
X7023658Y-15093904D02*
X7014134Y-15084380D01*
X7214134Y-14903428D02*
X7214134Y-14941523D01*
X7290325Y-14903428D02*
X7290325Y-14941523D01*
X7585563Y-15179618D02*
X7576039Y-15170094D01*
X7576039Y-15170094D02*
X7556991Y-15141523D01*
X7556991Y-15141523D02*
X7547468Y-15122475D01*
X7547468Y-15122475D02*
X7537944Y-15093904D01*
X7537944Y-15093904D02*
X7528420Y-15046285D01*
X7528420Y-15046285D02*
X7528420Y-15008190D01*
X7528420Y-15008190D02*
X7537944Y-14960570D01*
X7537944Y-14960570D02*
X7547468Y-14931999D01*
X7547468Y-14931999D02*
X7556991Y-14912951D01*
X7556991Y-14912951D02*
X7576039Y-14884380D01*
X7576039Y-14884380D02*
X7585563Y-14874856D01*
X7766515Y-15103428D02*
X7652229Y-15103428D01*
X7709372Y-15103428D02*
X7709372Y-14903428D01*
X7709372Y-14903428D02*
X7690325Y-14931999D01*
X7690325Y-14931999D02*
X7671277Y-14951047D01*
X7671277Y-14951047D02*
X7652229Y-14960570D01*
X8004610Y-15103428D02*
X8004610Y-14903428D01*
X8090325Y-15103428D02*
X8090325Y-14998666D01*
X8090325Y-14998666D02*
X8080801Y-14979618D01*
X8080801Y-14979618D02*
X8061753Y-14970094D01*
X8061753Y-14970094D02*
X8033182Y-14970094D01*
X8033182Y-14970094D02*
X8014134Y-14979618D01*
X8014134Y-14979618D02*
X8004610Y-14989142D01*
X8214134Y-15103428D02*
X8195087Y-15093904D01*
X8195087Y-15093904D02*
X8185563Y-15084380D01*
X8185563Y-15084380D02*
X8176039Y-15065332D01*
X8176039Y-15065332D02*
X8176039Y-15008190D01*
X8176039Y-15008190D02*
X8185563Y-14989142D01*
X8185563Y-14989142D02*
X8195087Y-14979618D01*
X8195087Y-14979618D02*
X8214134Y-14970094D01*
X8214134Y-14970094D02*
X8242706Y-14970094D01*
X8242706Y-14970094D02*
X8261753Y-14979618D01*
X8261753Y-14979618D02*
X8271277Y-14989142D01*
X8271277Y-14989142D02*
X8280801Y-15008190D01*
X8280801Y-15008190D02*
X8280801Y-15065332D01*
X8280801Y-15065332D02*
X8271277Y-15084380D01*
X8271277Y-15084380D02*
X8261753Y-15093904D01*
X8261753Y-15093904D02*
X8242706Y-15103428D01*
X8242706Y-15103428D02*
X8214134Y-15103428D01*
X8395087Y-15103428D02*
X8376039Y-15093904D01*
X8376039Y-15093904D02*
X8366515Y-15074856D01*
X8366515Y-15074856D02*
X8366515Y-14903428D01*
X8547468Y-15093904D02*
X8528420Y-15103428D01*
X8528420Y-15103428D02*
X8490325Y-15103428D01*
X8490325Y-15103428D02*
X8471277Y-15093904D01*
X8471277Y-15093904D02*
X8461753Y-15074856D01*
X8461753Y-15074856D02*
X8461753Y-14998666D01*
X8461753Y-14998666D02*
X8471277Y-14979618D01*
X8471277Y-14979618D02*
X8490325Y-14970094D01*
X8490325Y-14970094D02*
X8528420Y-14970094D01*
X8528420Y-14970094D02*
X8547468Y-14979618D01*
X8547468Y-14979618D02*
X8556992Y-14998666D01*
X8556992Y-14998666D02*
X8556992Y-15017713D01*
X8556992Y-15017713D02*
X8461753Y-15036761D01*
X8623658Y-15179618D02*
X8633182Y-15170094D01*
X8633182Y-15170094D02*
X8652230Y-15141523D01*
X8652230Y-15141523D02*
X8661753Y-15122475D01*
X8661753Y-15122475D02*
X8671277Y-15093904D01*
X8671277Y-15093904D02*
X8680801Y-15046285D01*
X8680801Y-15046285D02*
X8680801Y-15008190D01*
X8680801Y-15008190D02*
X8671277Y-14960570D01*
X8671277Y-14960570D02*
X8661753Y-14931999D01*
X8661753Y-14931999D02*
X8652230Y-14912951D01*
X8652230Y-14912951D02*
X8633182Y-14884380D01*
X8633182Y-14884380D02*
X8623658Y-14874856D01*
X8985563Y-15179618D02*
X8976039Y-15170094D01*
X8976039Y-15170094D02*
X8956992Y-15141523D01*
X8956992Y-15141523D02*
X8947468Y-15122475D01*
X8947468Y-15122475D02*
X8937944Y-15093904D01*
X8937944Y-15093904D02*
X8928420Y-15046285D01*
X8928420Y-15046285D02*
X8928420Y-15008190D01*
X8928420Y-15008190D02*
X8937944Y-14960570D01*
X8937944Y-14960570D02*
X8947468Y-14931999D01*
X8947468Y-14931999D02*
X8956992Y-14912951D01*
X8956992Y-14912951D02*
X8976039Y-14884380D01*
X8976039Y-14884380D02*
X8985563Y-14874856D01*
X9061753Y-14970094D02*
X9061753Y-15103428D01*
X9061753Y-14989142D02*
X9071277Y-14979618D01*
X9071277Y-14979618D02*
X9090325Y-14970094D01*
X9090325Y-14970094D02*
X9118896Y-14970094D01*
X9118896Y-14970094D02*
X9137944Y-14979618D01*
X9137944Y-14979618D02*
X9147468Y-14998666D01*
X9147468Y-14998666D02*
X9147468Y-15103428D01*
X9271277Y-15103428D02*
X9252230Y-15093904D01*
X9252230Y-15093904D02*
X9242706Y-15084380D01*
X9242706Y-15084380D02*
X9233182Y-15065332D01*
X9233182Y-15065332D02*
X9233182Y-15008190D01*
X9233182Y-15008190D02*
X9242706Y-14989142D01*
X9242706Y-14989142D02*
X9252230Y-14979618D01*
X9252230Y-14979618D02*
X9271277Y-14970094D01*
X9271277Y-14970094D02*
X9299849Y-14970094D01*
X9299849Y-14970094D02*
X9318896Y-14979618D01*
X9318896Y-14979618D02*
X9328420Y-14989142D01*
X9328420Y-14989142D02*
X9337944Y-15008190D01*
X9337944Y-15008190D02*
X9337944Y-15065332D01*
X9337944Y-15065332D02*
X9328420Y-15084380D01*
X9328420Y-15084380D02*
X9318896Y-15093904D01*
X9318896Y-15093904D02*
X9299849Y-15103428D01*
X9299849Y-15103428D02*
X9271277Y-15103428D01*
X9395087Y-14970094D02*
X9471277Y-14970094D01*
X9423658Y-14903428D02*
X9423658Y-15074856D01*
X9423658Y-15074856D02*
X9433182Y-15093904D01*
X9433182Y-15093904D02*
X9452230Y-15103428D01*
X9452230Y-15103428D02*
X9471277Y-15103428D01*
X9690325Y-14970094D02*
X9690325Y-15170094D01*
X9690325Y-14979618D02*
X9709373Y-14970094D01*
X9709373Y-14970094D02*
X9747468Y-14970094D01*
X9747468Y-14970094D02*
X9766515Y-14979618D01*
X9766515Y-14979618D02*
X9776039Y-14989142D01*
X9776039Y-14989142D02*
X9785563Y-15008190D01*
X9785563Y-15008190D02*
X9785563Y-15065332D01*
X9785563Y-15065332D02*
X9776039Y-15084380D01*
X9776039Y-15084380D02*
X9766515Y-15093904D01*
X9766515Y-15093904D02*
X9747468Y-15103428D01*
X9747468Y-15103428D02*
X9709373Y-15103428D01*
X9709373Y-15103428D02*
X9690325Y-15093904D01*
X9899849Y-15103428D02*
X9880801Y-15093904D01*
X9880801Y-15093904D02*
X9871277Y-15074856D01*
X9871277Y-15074856D02*
X9871277Y-14903428D01*
X10061754Y-15103428D02*
X10061754Y-14998666D01*
X10061754Y-14998666D02*
X10052230Y-14979618D01*
X10052230Y-14979618D02*
X10033182Y-14970094D01*
X10033182Y-14970094D02*
X9995087Y-14970094D01*
X9995087Y-14970094D02*
X9976039Y-14979618D01*
X10061754Y-15093904D02*
X10042706Y-15103428D01*
X10042706Y-15103428D02*
X9995087Y-15103428D01*
X9995087Y-15103428D02*
X9976039Y-15093904D01*
X9976039Y-15093904D02*
X9966515Y-15074856D01*
X9966515Y-15074856D02*
X9966515Y-15055809D01*
X9966515Y-15055809D02*
X9976039Y-15036761D01*
X9976039Y-15036761D02*
X9995087Y-15027237D01*
X9995087Y-15027237D02*
X10042706Y-15027237D01*
X10042706Y-15027237D02*
X10061754Y-15017713D01*
X10128420Y-14970094D02*
X10204611Y-14970094D01*
X10156992Y-14903428D02*
X10156992Y-15074856D01*
X10156992Y-15074856D02*
X10166515Y-15093904D01*
X10166515Y-15093904D02*
X10185563Y-15103428D01*
X10185563Y-15103428D02*
X10204611Y-15103428D01*
X10347468Y-15093904D02*
X10328420Y-15103428D01*
X10328420Y-15103428D02*
X10290325Y-15103428D01*
X10290325Y-15103428D02*
X10271277Y-15093904D01*
X10271277Y-15093904D02*
X10261754Y-15074856D01*
X10261754Y-15074856D02*
X10261754Y-14998666D01*
X10261754Y-14998666D02*
X10271277Y-14979618D01*
X10271277Y-14979618D02*
X10290325Y-14970094D01*
X10290325Y-14970094D02*
X10328420Y-14970094D01*
X10328420Y-14970094D02*
X10347468Y-14979618D01*
X10347468Y-14979618D02*
X10356992Y-14998666D01*
X10356992Y-14998666D02*
X10356992Y-15017713D01*
X10356992Y-15017713D02*
X10261754Y-15036761D01*
X10528420Y-15103428D02*
X10528420Y-14903428D01*
X10528420Y-15093904D02*
X10509373Y-15103428D01*
X10509373Y-15103428D02*
X10471277Y-15103428D01*
X10471277Y-15103428D02*
X10452230Y-15093904D01*
X10452230Y-15093904D02*
X10442706Y-15084380D01*
X10442706Y-15084380D02*
X10433182Y-15065332D01*
X10433182Y-15065332D02*
X10433182Y-15008190D01*
X10433182Y-15008190D02*
X10442706Y-14989142D01*
X10442706Y-14989142D02*
X10452230Y-14979618D01*
X10452230Y-14979618D02*
X10471277Y-14970094D01*
X10471277Y-14970094D02*
X10509373Y-14970094D01*
X10509373Y-14970094D02*
X10528420Y-14979618D01*
X10604611Y-15179618D02*
X10614135Y-15170094D01*
X10614135Y-15170094D02*
X10633182Y-15141523D01*
X10633182Y-15141523D02*
X10642706Y-15122475D01*
X10642706Y-15122475D02*
X10652230Y-15093904D01*
X10652230Y-15093904D02*
X10661754Y-15046285D01*
X10661754Y-15046285D02*
X10661754Y-15008190D01*
X10661754Y-15008190D02*
X10652230Y-14960570D01*
X10652230Y-14960570D02*
X10642706Y-14931999D01*
X10642706Y-14931999D02*
X10633182Y-14912951D01*
X10633182Y-14912951D02*
X10614135Y-14884380D01*
X10614135Y-14884380D02*
X10604611Y-14874856D01*
D14*
X3928000Y-15193444D02*
X3928000Y-15358444D01*
X3845500Y-15275944D02*
X4010500Y-15275944D01*
D12*
X4376039Y-15367428D02*
X4261753Y-15367428D01*
X4318896Y-15367428D02*
X4318896Y-15167428D01*
X4318896Y-15167428D02*
X4299848Y-15195999D01*
X4299848Y-15195999D02*
X4280801Y-15215047D01*
X4280801Y-15215047D02*
X4261753Y-15224570D01*
X4461753Y-15348380D02*
X4471277Y-15357904D01*
X4471277Y-15357904D02*
X4461753Y-15367428D01*
X4461753Y-15367428D02*
X4452229Y-15357904D01*
X4452229Y-15357904D02*
X4461753Y-15348380D01*
X4461753Y-15348380D02*
X4461753Y-15367428D01*
X4642705Y-15167428D02*
X4604610Y-15167428D01*
X4604610Y-15167428D02*
X4585563Y-15176951D01*
X4585563Y-15176951D02*
X4576039Y-15186475D01*
X4576039Y-15186475D02*
X4556991Y-15215047D01*
X4556991Y-15215047D02*
X4547467Y-15253142D01*
X4547467Y-15253142D02*
X4547467Y-15329332D01*
X4547467Y-15329332D02*
X4556991Y-15348380D01*
X4556991Y-15348380D02*
X4566515Y-15357904D01*
X4566515Y-15357904D02*
X4585563Y-15367428D01*
X4585563Y-15367428D02*
X4623658Y-15367428D01*
X4623658Y-15367428D02*
X4642705Y-15357904D01*
X4642705Y-15357904D02*
X4652229Y-15348380D01*
X4652229Y-15348380D02*
X4661753Y-15329332D01*
X4661753Y-15329332D02*
X4661753Y-15281713D01*
X4661753Y-15281713D02*
X4652229Y-15262666D01*
X4652229Y-15262666D02*
X4642705Y-15253142D01*
X4642705Y-15253142D02*
X4623658Y-15243618D01*
X4623658Y-15243618D02*
X4585563Y-15243618D01*
X4585563Y-15243618D02*
X4566515Y-15253142D01*
X4566515Y-15253142D02*
X4556991Y-15262666D01*
X4556991Y-15262666D02*
X4547467Y-15281713D01*
X4842705Y-15167428D02*
X4747467Y-15167428D01*
X4747467Y-15167428D02*
X4737944Y-15262666D01*
X4737944Y-15262666D02*
X4747467Y-15253142D01*
X4747467Y-15253142D02*
X4766515Y-15243618D01*
X4766515Y-15243618D02*
X4814134Y-15243618D01*
X4814134Y-15243618D02*
X4833182Y-15253142D01*
X4833182Y-15253142D02*
X4842705Y-15262666D01*
X4842705Y-15262666D02*
X4852229Y-15281713D01*
X4852229Y-15281713D02*
X4852229Y-15329332D01*
X4852229Y-15329332D02*
X4842705Y-15348380D01*
X4842705Y-15348380D02*
X4833182Y-15357904D01*
X4833182Y-15357904D02*
X4814134Y-15367428D01*
X4814134Y-15367428D02*
X4766515Y-15367428D01*
X4766515Y-15367428D02*
X4747467Y-15357904D01*
X4747467Y-15357904D02*
X4737944Y-15348380D01*
X4976039Y-15167428D02*
X4995086Y-15167428D01*
X4995086Y-15167428D02*
X5014134Y-15176951D01*
X5014134Y-15176951D02*
X5023658Y-15186475D01*
X5023658Y-15186475D02*
X5033182Y-15205523D01*
X5033182Y-15205523D02*
X5042705Y-15243618D01*
X5042705Y-15243618D02*
X5042705Y-15291237D01*
X5042705Y-15291237D02*
X5033182Y-15329332D01*
X5033182Y-15329332D02*
X5023658Y-15348380D01*
X5023658Y-15348380D02*
X5014134Y-15357904D01*
X5014134Y-15357904D02*
X4995086Y-15367428D01*
X4995086Y-15367428D02*
X4976039Y-15367428D01*
X4976039Y-15367428D02*
X4956991Y-15357904D01*
X4956991Y-15357904D02*
X4947467Y-15348380D01*
X4947467Y-15348380D02*
X4937944Y-15329332D01*
X4937944Y-15329332D02*
X4928420Y-15291237D01*
X4928420Y-15291237D02*
X4928420Y-15243618D01*
X4928420Y-15243618D02*
X4937944Y-15205523D01*
X4937944Y-15205523D02*
X4947467Y-15186475D01*
X4947467Y-15186475D02*
X4956991Y-15176951D01*
X4956991Y-15176951D02*
X4976039Y-15167428D01*
X5128420Y-15367428D02*
X5128420Y-15234094D01*
X5128420Y-15253142D02*
X5137944Y-15243618D01*
X5137944Y-15243618D02*
X5156991Y-15234094D01*
X5156991Y-15234094D02*
X5185563Y-15234094D01*
X5185563Y-15234094D02*
X5204610Y-15243618D01*
X5204610Y-15243618D02*
X5214134Y-15262666D01*
X5214134Y-15262666D02*
X5214134Y-15367428D01*
X5214134Y-15262666D02*
X5223658Y-15243618D01*
X5223658Y-15243618D02*
X5242705Y-15234094D01*
X5242705Y-15234094D02*
X5271277Y-15234094D01*
X5271277Y-15234094D02*
X5290325Y-15243618D01*
X5290325Y-15243618D02*
X5299848Y-15262666D01*
X5299848Y-15262666D02*
X5299848Y-15367428D01*
X5395086Y-15367428D02*
X5395086Y-15234094D01*
X5395086Y-15253142D02*
X5404610Y-15243618D01*
X5404610Y-15243618D02*
X5423658Y-15234094D01*
X5423658Y-15234094D02*
X5452229Y-15234094D01*
X5452229Y-15234094D02*
X5471277Y-15243618D01*
X5471277Y-15243618D02*
X5480801Y-15262666D01*
X5480801Y-15262666D02*
X5480801Y-15367428D01*
X5480801Y-15262666D02*
X5490325Y-15243618D01*
X5490325Y-15243618D02*
X5509372Y-15234094D01*
X5509372Y-15234094D02*
X5537944Y-15234094D01*
X5537944Y-15234094D02*
X5556991Y-15243618D01*
X5556991Y-15243618D02*
X5566515Y-15262666D01*
X5566515Y-15262666D02*
X5566515Y-15367428D01*
X5956991Y-15157904D02*
X5785563Y-15415047D01*
X6214134Y-15167428D02*
X6233182Y-15167428D01*
X6233182Y-15167428D02*
X6252229Y-15176951D01*
X6252229Y-15176951D02*
X6261753Y-15186475D01*
X6261753Y-15186475D02*
X6271277Y-15205523D01*
X6271277Y-15205523D02*
X6280801Y-15243618D01*
X6280801Y-15243618D02*
X6280801Y-15291237D01*
X6280801Y-15291237D02*
X6271277Y-15329332D01*
X6271277Y-15329332D02*
X6261753Y-15348380D01*
X6261753Y-15348380D02*
X6252229Y-15357904D01*
X6252229Y-15357904D02*
X6233182Y-15367428D01*
X6233182Y-15367428D02*
X6214134Y-15367428D01*
X6214134Y-15367428D02*
X6195086Y-15357904D01*
X6195086Y-15357904D02*
X6185563Y-15348380D01*
X6185563Y-15348380D02*
X6176039Y-15329332D01*
X6176039Y-15329332D02*
X6166515Y-15291237D01*
X6166515Y-15291237D02*
X6166515Y-15243618D01*
X6166515Y-15243618D02*
X6176039Y-15205523D01*
X6176039Y-15205523D02*
X6185563Y-15186475D01*
X6185563Y-15186475D02*
X6195086Y-15176951D01*
X6195086Y-15176951D02*
X6214134Y-15167428D01*
X6366515Y-15348380D02*
X6376039Y-15357904D01*
X6376039Y-15357904D02*
X6366515Y-15367428D01*
X6366515Y-15367428D02*
X6356991Y-15357904D01*
X6356991Y-15357904D02*
X6366515Y-15348380D01*
X6366515Y-15348380D02*
X6366515Y-15367428D01*
X6499848Y-15167428D02*
X6518896Y-15167428D01*
X6518896Y-15167428D02*
X6537944Y-15176951D01*
X6537944Y-15176951D02*
X6547467Y-15186475D01*
X6547467Y-15186475D02*
X6556991Y-15205523D01*
X6556991Y-15205523D02*
X6566515Y-15243618D01*
X6566515Y-15243618D02*
X6566515Y-15291237D01*
X6566515Y-15291237D02*
X6556991Y-15329332D01*
X6556991Y-15329332D02*
X6547467Y-15348380D01*
X6547467Y-15348380D02*
X6537944Y-15357904D01*
X6537944Y-15357904D02*
X6518896Y-15367428D01*
X6518896Y-15367428D02*
X6499848Y-15367428D01*
X6499848Y-15367428D02*
X6480801Y-15357904D01*
X6480801Y-15357904D02*
X6471277Y-15348380D01*
X6471277Y-15348380D02*
X6461753Y-15329332D01*
X6461753Y-15329332D02*
X6452229Y-15291237D01*
X6452229Y-15291237D02*
X6452229Y-15243618D01*
X6452229Y-15243618D02*
X6461753Y-15205523D01*
X6461753Y-15205523D02*
X6471277Y-15186475D01*
X6471277Y-15186475D02*
X6480801Y-15176951D01*
X6480801Y-15176951D02*
X6499848Y-15167428D01*
X6737944Y-15167428D02*
X6699848Y-15167428D01*
X6699848Y-15167428D02*
X6680801Y-15176951D01*
X6680801Y-15176951D02*
X6671277Y-15186475D01*
X6671277Y-15186475D02*
X6652229Y-15215047D01*
X6652229Y-15215047D02*
X6642706Y-15253142D01*
X6642706Y-15253142D02*
X6642706Y-15329332D01*
X6642706Y-15329332D02*
X6652229Y-15348380D01*
X6652229Y-15348380D02*
X6661753Y-15357904D01*
X6661753Y-15357904D02*
X6680801Y-15367428D01*
X6680801Y-15367428D02*
X6718896Y-15367428D01*
X6718896Y-15367428D02*
X6737944Y-15357904D01*
X6737944Y-15357904D02*
X6747467Y-15348380D01*
X6747467Y-15348380D02*
X6756991Y-15329332D01*
X6756991Y-15329332D02*
X6756991Y-15281713D01*
X6756991Y-15281713D02*
X6747467Y-15262666D01*
X6747467Y-15262666D02*
X6737944Y-15253142D01*
X6737944Y-15253142D02*
X6718896Y-15243618D01*
X6718896Y-15243618D02*
X6680801Y-15243618D01*
X6680801Y-15243618D02*
X6661753Y-15253142D01*
X6661753Y-15253142D02*
X6652229Y-15262666D01*
X6652229Y-15262666D02*
X6642706Y-15281713D01*
X6937944Y-15167428D02*
X6842706Y-15167428D01*
X6842706Y-15167428D02*
X6833182Y-15262666D01*
X6833182Y-15262666D02*
X6842706Y-15253142D01*
X6842706Y-15253142D02*
X6861753Y-15243618D01*
X6861753Y-15243618D02*
X6909372Y-15243618D01*
X6909372Y-15243618D02*
X6928420Y-15253142D01*
X6928420Y-15253142D02*
X6937944Y-15262666D01*
X6937944Y-15262666D02*
X6947467Y-15281713D01*
X6947467Y-15281713D02*
X6947467Y-15329332D01*
X6947467Y-15329332D02*
X6937944Y-15348380D01*
X6937944Y-15348380D02*
X6928420Y-15357904D01*
X6928420Y-15357904D02*
X6909372Y-15367428D01*
X6909372Y-15367428D02*
X6861753Y-15367428D01*
X6861753Y-15367428D02*
X6842706Y-15357904D01*
X6842706Y-15357904D02*
X6833182Y-15348380D01*
X7071277Y-15167428D02*
X7090325Y-15167428D01*
X7090325Y-15167428D02*
X7109372Y-15176951D01*
X7109372Y-15176951D02*
X7118896Y-15186475D01*
X7118896Y-15186475D02*
X7128420Y-15205523D01*
X7128420Y-15205523D02*
X7137944Y-15243618D01*
X7137944Y-15243618D02*
X7137944Y-15291237D01*
X7137944Y-15291237D02*
X7128420Y-15329332D01*
X7128420Y-15329332D02*
X7118896Y-15348380D01*
X7118896Y-15348380D02*
X7109372Y-15357904D01*
X7109372Y-15357904D02*
X7090325Y-15367428D01*
X7090325Y-15367428D02*
X7071277Y-15367428D01*
X7071277Y-15367428D02*
X7052229Y-15357904D01*
X7052229Y-15357904D02*
X7042706Y-15348380D01*
X7042706Y-15348380D02*
X7033182Y-15329332D01*
X7033182Y-15329332D02*
X7023658Y-15291237D01*
X7023658Y-15291237D02*
X7023658Y-15243618D01*
X7023658Y-15243618D02*
X7033182Y-15205523D01*
X7033182Y-15205523D02*
X7042706Y-15186475D01*
X7042706Y-15186475D02*
X7052229Y-15176951D01*
X7052229Y-15176951D02*
X7071277Y-15167428D01*
X7214134Y-15167428D02*
X7214134Y-15205523D01*
X7290325Y-15167428D02*
X7290325Y-15205523D01*
X7585563Y-15443618D02*
X7576039Y-15434094D01*
X7576039Y-15434094D02*
X7556991Y-15405523D01*
X7556991Y-15405523D02*
X7547468Y-15386475D01*
X7547468Y-15386475D02*
X7537944Y-15357904D01*
X7537944Y-15357904D02*
X7528420Y-15310285D01*
X7528420Y-15310285D02*
X7528420Y-15272190D01*
X7528420Y-15272190D02*
X7537944Y-15224570D01*
X7537944Y-15224570D02*
X7547468Y-15195999D01*
X7547468Y-15195999D02*
X7556991Y-15176951D01*
X7556991Y-15176951D02*
X7576039Y-15148380D01*
X7576039Y-15148380D02*
X7585563Y-15138856D01*
X7766515Y-15367428D02*
X7652229Y-15367428D01*
X7709372Y-15367428D02*
X7709372Y-15167428D01*
X7709372Y-15167428D02*
X7690325Y-15195999D01*
X7690325Y-15195999D02*
X7671277Y-15215047D01*
X7671277Y-15215047D02*
X7652229Y-15224570D01*
X8004610Y-15367428D02*
X8004610Y-15167428D01*
X8090325Y-15367428D02*
X8090325Y-15262666D01*
X8090325Y-15262666D02*
X8080801Y-15243618D01*
X8080801Y-15243618D02*
X8061753Y-15234094D01*
X8061753Y-15234094D02*
X8033182Y-15234094D01*
X8033182Y-15234094D02*
X8014134Y-15243618D01*
X8014134Y-15243618D02*
X8004610Y-15253142D01*
X8214134Y-15367428D02*
X8195087Y-15357904D01*
X8195087Y-15357904D02*
X8185563Y-15348380D01*
X8185563Y-15348380D02*
X8176039Y-15329332D01*
X8176039Y-15329332D02*
X8176039Y-15272190D01*
X8176039Y-15272190D02*
X8185563Y-15253142D01*
X8185563Y-15253142D02*
X8195087Y-15243618D01*
X8195087Y-15243618D02*
X8214134Y-15234094D01*
X8214134Y-15234094D02*
X8242706Y-15234094D01*
X8242706Y-15234094D02*
X8261753Y-15243618D01*
X8261753Y-15243618D02*
X8271277Y-15253142D01*
X8271277Y-15253142D02*
X8280801Y-15272190D01*
X8280801Y-15272190D02*
X8280801Y-15329332D01*
X8280801Y-15329332D02*
X8271277Y-15348380D01*
X8271277Y-15348380D02*
X8261753Y-15357904D01*
X8261753Y-15357904D02*
X8242706Y-15367428D01*
X8242706Y-15367428D02*
X8214134Y-15367428D01*
X8395087Y-15367428D02*
X8376039Y-15357904D01*
X8376039Y-15357904D02*
X8366515Y-15338856D01*
X8366515Y-15338856D02*
X8366515Y-15167428D01*
X8547468Y-15357904D02*
X8528420Y-15367428D01*
X8528420Y-15367428D02*
X8490325Y-15367428D01*
X8490325Y-15367428D02*
X8471277Y-15357904D01*
X8471277Y-15357904D02*
X8461753Y-15338856D01*
X8461753Y-15338856D02*
X8461753Y-15262666D01*
X8461753Y-15262666D02*
X8471277Y-15243618D01*
X8471277Y-15243618D02*
X8490325Y-15234094D01*
X8490325Y-15234094D02*
X8528420Y-15234094D01*
X8528420Y-15234094D02*
X8547468Y-15243618D01*
X8547468Y-15243618D02*
X8556992Y-15262666D01*
X8556992Y-15262666D02*
X8556992Y-15281713D01*
X8556992Y-15281713D02*
X8461753Y-15300761D01*
X8623658Y-15443618D02*
X8633182Y-15434094D01*
X8633182Y-15434094D02*
X8652230Y-15405523D01*
X8652230Y-15405523D02*
X8661753Y-15386475D01*
X8661753Y-15386475D02*
X8671277Y-15357904D01*
X8671277Y-15357904D02*
X8680801Y-15310285D01*
X8680801Y-15310285D02*
X8680801Y-15272190D01*
X8680801Y-15272190D02*
X8671277Y-15224570D01*
X8671277Y-15224570D02*
X8661753Y-15195999D01*
X8661753Y-15195999D02*
X8652230Y-15176951D01*
X8652230Y-15176951D02*
X8633182Y-15148380D01*
X8633182Y-15148380D02*
X8623658Y-15138856D01*
X8985563Y-15443618D02*
X8976039Y-15434094D01*
X8976039Y-15434094D02*
X8956992Y-15405523D01*
X8956992Y-15405523D02*
X8947468Y-15386475D01*
X8947468Y-15386475D02*
X8937944Y-15357904D01*
X8937944Y-15357904D02*
X8928420Y-15310285D01*
X8928420Y-15310285D02*
X8928420Y-15272190D01*
X8928420Y-15272190D02*
X8937944Y-15224570D01*
X8937944Y-15224570D02*
X8947468Y-15195999D01*
X8947468Y-15195999D02*
X8956992Y-15176951D01*
X8956992Y-15176951D02*
X8976039Y-15148380D01*
X8976039Y-15148380D02*
X8985563Y-15138856D01*
X9061753Y-15234094D02*
X9061753Y-15367428D01*
X9061753Y-15253142D02*
X9071277Y-15243618D01*
X9071277Y-15243618D02*
X9090325Y-15234094D01*
X9090325Y-15234094D02*
X9118896Y-15234094D01*
X9118896Y-15234094D02*
X9137944Y-15243618D01*
X9137944Y-15243618D02*
X9147468Y-15262666D01*
X9147468Y-15262666D02*
X9147468Y-15367428D01*
X9271277Y-15367428D02*
X9252230Y-15357904D01*
X9252230Y-15357904D02*
X9242706Y-15348380D01*
X9242706Y-15348380D02*
X9233182Y-15329332D01*
X9233182Y-15329332D02*
X9233182Y-15272190D01*
X9233182Y-15272190D02*
X9242706Y-15253142D01*
X9242706Y-15253142D02*
X9252230Y-15243618D01*
X9252230Y-15243618D02*
X9271277Y-15234094D01*
X9271277Y-15234094D02*
X9299849Y-15234094D01*
X9299849Y-15234094D02*
X9318896Y-15243618D01*
X9318896Y-15243618D02*
X9328420Y-15253142D01*
X9328420Y-15253142D02*
X9337944Y-15272190D01*
X9337944Y-15272190D02*
X9337944Y-15329332D01*
X9337944Y-15329332D02*
X9328420Y-15348380D01*
X9328420Y-15348380D02*
X9318896Y-15357904D01*
X9318896Y-15357904D02*
X9299849Y-15367428D01*
X9299849Y-15367428D02*
X9271277Y-15367428D01*
X9395087Y-15234094D02*
X9471277Y-15234094D01*
X9423658Y-15167428D02*
X9423658Y-15338856D01*
X9423658Y-15338856D02*
X9433182Y-15357904D01*
X9433182Y-15357904D02*
X9452230Y-15367428D01*
X9452230Y-15367428D02*
X9471277Y-15367428D01*
X9690325Y-15234094D02*
X9690325Y-15434094D01*
X9690325Y-15243618D02*
X9709373Y-15234094D01*
X9709373Y-15234094D02*
X9747468Y-15234094D01*
X9747468Y-15234094D02*
X9766515Y-15243618D01*
X9766515Y-15243618D02*
X9776039Y-15253142D01*
X9776039Y-15253142D02*
X9785563Y-15272190D01*
X9785563Y-15272190D02*
X9785563Y-15329332D01*
X9785563Y-15329332D02*
X9776039Y-15348380D01*
X9776039Y-15348380D02*
X9766515Y-15357904D01*
X9766515Y-15357904D02*
X9747468Y-15367428D01*
X9747468Y-15367428D02*
X9709373Y-15367428D01*
X9709373Y-15367428D02*
X9690325Y-15357904D01*
X9899849Y-15367428D02*
X9880801Y-15357904D01*
X9880801Y-15357904D02*
X9871277Y-15338856D01*
X9871277Y-15338856D02*
X9871277Y-15167428D01*
X10061754Y-15367428D02*
X10061754Y-15262666D01*
X10061754Y-15262666D02*
X10052230Y-15243618D01*
X10052230Y-15243618D02*
X10033182Y-15234094D01*
X10033182Y-15234094D02*
X9995087Y-15234094D01*
X9995087Y-15234094D02*
X9976039Y-15243618D01*
X10061754Y-15357904D02*
X10042706Y-15367428D01*
X10042706Y-15367428D02*
X9995087Y-15367428D01*
X9995087Y-15367428D02*
X9976039Y-15357904D01*
X9976039Y-15357904D02*
X9966515Y-15338856D01*
X9966515Y-15338856D02*
X9966515Y-15319809D01*
X9966515Y-15319809D02*
X9976039Y-15300761D01*
X9976039Y-15300761D02*
X9995087Y-15291237D01*
X9995087Y-15291237D02*
X10042706Y-15291237D01*
X10042706Y-15291237D02*
X10061754Y-15281713D01*
X10128420Y-15234094D02*
X10204611Y-15234094D01*
X10156992Y-15167428D02*
X10156992Y-15338856D01*
X10156992Y-15338856D02*
X10166515Y-15357904D01*
X10166515Y-15357904D02*
X10185563Y-15367428D01*
X10185563Y-15367428D02*
X10204611Y-15367428D01*
X10347468Y-15357904D02*
X10328420Y-15367428D01*
X10328420Y-15367428D02*
X10290325Y-15367428D01*
X10290325Y-15367428D02*
X10271277Y-15357904D01*
X10271277Y-15357904D02*
X10261754Y-15338856D01*
X10261754Y-15338856D02*
X10261754Y-15262666D01*
X10261754Y-15262666D02*
X10271277Y-15243618D01*
X10271277Y-15243618D02*
X10290325Y-15234094D01*
X10290325Y-15234094D02*
X10328420Y-15234094D01*
X10328420Y-15234094D02*
X10347468Y-15243618D01*
X10347468Y-15243618D02*
X10356992Y-15262666D01*
X10356992Y-15262666D02*
X10356992Y-15281713D01*
X10356992Y-15281713D02*
X10261754Y-15300761D01*
X10528420Y-15367428D02*
X10528420Y-15167428D01*
X10528420Y-15357904D02*
X10509373Y-15367428D01*
X10509373Y-15367428D02*
X10471277Y-15367428D01*
X10471277Y-15367428D02*
X10452230Y-15357904D01*
X10452230Y-15357904D02*
X10442706Y-15348380D01*
X10442706Y-15348380D02*
X10433182Y-15329332D01*
X10433182Y-15329332D02*
X10433182Y-15272190D01*
X10433182Y-15272190D02*
X10442706Y-15253142D01*
X10442706Y-15253142D02*
X10452230Y-15243618D01*
X10452230Y-15243618D02*
X10471277Y-15234094D01*
X10471277Y-15234094D02*
X10509373Y-15234094D01*
X10509373Y-15234094D02*
X10528420Y-15243618D01*
X10604611Y-15443618D02*
X10614135Y-15434094D01*
X10614135Y-15434094D02*
X10633182Y-15405523D01*
X10633182Y-15405523D02*
X10642706Y-15386475D01*
X10642706Y-15386475D02*
X10652230Y-15357904D01*
X10652230Y-15357904D02*
X10661754Y-15310285D01*
X10661754Y-15310285D02*
X10661754Y-15272190D01*
X10661754Y-15272190D02*
X10652230Y-15224570D01*
X10652230Y-15224570D02*
X10642706Y-15195999D01*
X10642706Y-15195999D02*
X10633182Y-15176951D01*
X10633182Y-15176951D02*
X10614135Y-15148380D01*
X10614135Y-15148380D02*
X10604611Y-15138856D01*
X3981211Y-15631655D02*
X3981211Y-15490232D01*
X3839789Y-15490232D01*
X3839789Y-15631655D01*
X3981211Y-15631655D01*
X4252229Y-15452428D02*
X4376039Y-15452428D01*
X4376039Y-15452428D02*
X4309372Y-15528618D01*
X4309372Y-15528618D02*
X4337944Y-15528618D01*
X4337944Y-15528618D02*
X4356991Y-15538142D01*
X4356991Y-15538142D02*
X4366515Y-15547666D01*
X4366515Y-15547666D02*
X4376039Y-15566713D01*
X4376039Y-15566713D02*
X4376039Y-15614332D01*
X4376039Y-15614332D02*
X4366515Y-15633380D01*
X4366515Y-15633380D02*
X4356991Y-15642904D01*
X4356991Y-15642904D02*
X4337944Y-15652428D01*
X4337944Y-15652428D02*
X4280801Y-15652428D01*
X4280801Y-15652428D02*
X4261753Y-15642904D01*
X4261753Y-15642904D02*
X4252229Y-15633380D01*
X4461753Y-15633380D02*
X4471277Y-15642904D01*
X4471277Y-15642904D02*
X4461753Y-15652428D01*
X4461753Y-15652428D02*
X4452229Y-15642904D01*
X4452229Y-15642904D02*
X4461753Y-15633380D01*
X4461753Y-15633380D02*
X4461753Y-15652428D01*
X4547467Y-15471475D02*
X4556991Y-15461951D01*
X4556991Y-15461951D02*
X4576039Y-15452428D01*
X4576039Y-15452428D02*
X4623658Y-15452428D01*
X4623658Y-15452428D02*
X4642705Y-15461951D01*
X4642705Y-15461951D02*
X4652229Y-15471475D01*
X4652229Y-15471475D02*
X4661753Y-15490523D01*
X4661753Y-15490523D02*
X4661753Y-15509570D01*
X4661753Y-15509570D02*
X4652229Y-15538142D01*
X4652229Y-15538142D02*
X4537944Y-15652428D01*
X4537944Y-15652428D02*
X4661753Y-15652428D01*
X4785563Y-15452428D02*
X4804610Y-15452428D01*
X4804610Y-15452428D02*
X4823658Y-15461951D01*
X4823658Y-15461951D02*
X4833182Y-15471475D01*
X4833182Y-15471475D02*
X4842705Y-15490523D01*
X4842705Y-15490523D02*
X4852229Y-15528618D01*
X4852229Y-15528618D02*
X4852229Y-15576237D01*
X4852229Y-15576237D02*
X4842705Y-15614332D01*
X4842705Y-15614332D02*
X4833182Y-15633380D01*
X4833182Y-15633380D02*
X4823658Y-15642904D01*
X4823658Y-15642904D02*
X4804610Y-15652428D01*
X4804610Y-15652428D02*
X4785563Y-15652428D01*
X4785563Y-15652428D02*
X4766515Y-15642904D01*
X4766515Y-15642904D02*
X4756991Y-15633380D01*
X4756991Y-15633380D02*
X4747467Y-15614332D01*
X4747467Y-15614332D02*
X4737944Y-15576237D01*
X4737944Y-15576237D02*
X4737944Y-15528618D01*
X4737944Y-15528618D02*
X4747467Y-15490523D01*
X4747467Y-15490523D02*
X4756991Y-15471475D01*
X4756991Y-15471475D02*
X4766515Y-15461951D01*
X4766515Y-15461951D02*
X4785563Y-15452428D01*
X4976039Y-15452428D02*
X4995086Y-15452428D01*
X4995086Y-15452428D02*
X5014134Y-15461951D01*
X5014134Y-15461951D02*
X5023658Y-15471475D01*
X5023658Y-15471475D02*
X5033182Y-15490523D01*
X5033182Y-15490523D02*
X5042705Y-15528618D01*
X5042705Y-15528618D02*
X5042705Y-15576237D01*
X5042705Y-15576237D02*
X5033182Y-15614332D01*
X5033182Y-15614332D02*
X5023658Y-15633380D01*
X5023658Y-15633380D02*
X5014134Y-15642904D01*
X5014134Y-15642904D02*
X4995086Y-15652428D01*
X4995086Y-15652428D02*
X4976039Y-15652428D01*
X4976039Y-15652428D02*
X4956991Y-15642904D01*
X4956991Y-15642904D02*
X4947467Y-15633380D01*
X4947467Y-15633380D02*
X4937944Y-15614332D01*
X4937944Y-15614332D02*
X4928420Y-15576237D01*
X4928420Y-15576237D02*
X4928420Y-15528618D01*
X4928420Y-15528618D02*
X4937944Y-15490523D01*
X4937944Y-15490523D02*
X4947467Y-15471475D01*
X4947467Y-15471475D02*
X4956991Y-15461951D01*
X4956991Y-15461951D02*
X4976039Y-15452428D01*
X5128420Y-15652428D02*
X5128420Y-15519094D01*
X5128420Y-15538142D02*
X5137944Y-15528618D01*
X5137944Y-15528618D02*
X5156991Y-15519094D01*
X5156991Y-15519094D02*
X5185563Y-15519094D01*
X5185563Y-15519094D02*
X5204610Y-15528618D01*
X5204610Y-15528618D02*
X5214134Y-15547666D01*
X5214134Y-15547666D02*
X5214134Y-15652428D01*
X5214134Y-15547666D02*
X5223658Y-15528618D01*
X5223658Y-15528618D02*
X5242705Y-15519094D01*
X5242705Y-15519094D02*
X5271277Y-15519094D01*
X5271277Y-15519094D02*
X5290325Y-15528618D01*
X5290325Y-15528618D02*
X5299848Y-15547666D01*
X5299848Y-15547666D02*
X5299848Y-15652428D01*
X5395086Y-15652428D02*
X5395086Y-15519094D01*
X5395086Y-15538142D02*
X5404610Y-15528618D01*
X5404610Y-15528618D02*
X5423658Y-15519094D01*
X5423658Y-15519094D02*
X5452229Y-15519094D01*
X5452229Y-15519094D02*
X5471277Y-15528618D01*
X5471277Y-15528618D02*
X5480801Y-15547666D01*
X5480801Y-15547666D02*
X5480801Y-15652428D01*
X5480801Y-15547666D02*
X5490325Y-15528618D01*
X5490325Y-15528618D02*
X5509372Y-15519094D01*
X5509372Y-15519094D02*
X5537944Y-15519094D01*
X5537944Y-15519094D02*
X5556991Y-15528618D01*
X5556991Y-15528618D02*
X5566515Y-15547666D01*
X5566515Y-15547666D02*
X5566515Y-15652428D01*
X5956991Y-15442904D02*
X5785563Y-15700047D01*
X6214134Y-15452428D02*
X6233182Y-15452428D01*
X6233182Y-15452428D02*
X6252229Y-15461951D01*
X6252229Y-15461951D02*
X6261753Y-15471475D01*
X6261753Y-15471475D02*
X6271277Y-15490523D01*
X6271277Y-15490523D02*
X6280801Y-15528618D01*
X6280801Y-15528618D02*
X6280801Y-15576237D01*
X6280801Y-15576237D02*
X6271277Y-15614332D01*
X6271277Y-15614332D02*
X6261753Y-15633380D01*
X6261753Y-15633380D02*
X6252229Y-15642904D01*
X6252229Y-15642904D02*
X6233182Y-15652428D01*
X6233182Y-15652428D02*
X6214134Y-15652428D01*
X6214134Y-15652428D02*
X6195086Y-15642904D01*
X6195086Y-15642904D02*
X6185563Y-15633380D01*
X6185563Y-15633380D02*
X6176039Y-15614332D01*
X6176039Y-15614332D02*
X6166515Y-15576237D01*
X6166515Y-15576237D02*
X6166515Y-15528618D01*
X6166515Y-15528618D02*
X6176039Y-15490523D01*
X6176039Y-15490523D02*
X6185563Y-15471475D01*
X6185563Y-15471475D02*
X6195086Y-15461951D01*
X6195086Y-15461951D02*
X6214134Y-15452428D01*
X6366515Y-15633380D02*
X6376039Y-15642904D01*
X6376039Y-15642904D02*
X6366515Y-15652428D01*
X6366515Y-15652428D02*
X6356991Y-15642904D01*
X6356991Y-15642904D02*
X6366515Y-15633380D01*
X6366515Y-15633380D02*
X6366515Y-15652428D01*
X6566515Y-15652428D02*
X6452229Y-15652428D01*
X6509372Y-15652428D02*
X6509372Y-15452428D01*
X6509372Y-15452428D02*
X6490325Y-15480999D01*
X6490325Y-15480999D02*
X6471277Y-15500047D01*
X6471277Y-15500047D02*
X6452229Y-15509570D01*
X6642706Y-15471475D02*
X6652229Y-15461951D01*
X6652229Y-15461951D02*
X6671277Y-15452428D01*
X6671277Y-15452428D02*
X6718896Y-15452428D01*
X6718896Y-15452428D02*
X6737944Y-15461951D01*
X6737944Y-15461951D02*
X6747467Y-15471475D01*
X6747467Y-15471475D02*
X6756991Y-15490523D01*
X6756991Y-15490523D02*
X6756991Y-15509570D01*
X6756991Y-15509570D02*
X6747467Y-15538142D01*
X6747467Y-15538142D02*
X6633182Y-15652428D01*
X6633182Y-15652428D02*
X6756991Y-15652428D01*
X6928420Y-15452428D02*
X6890325Y-15452428D01*
X6890325Y-15452428D02*
X6871277Y-15461951D01*
X6871277Y-15461951D02*
X6861753Y-15471475D01*
X6861753Y-15471475D02*
X6842706Y-15500047D01*
X6842706Y-15500047D02*
X6833182Y-15538142D01*
X6833182Y-15538142D02*
X6833182Y-15614332D01*
X6833182Y-15614332D02*
X6842706Y-15633380D01*
X6842706Y-15633380D02*
X6852229Y-15642904D01*
X6852229Y-15642904D02*
X6871277Y-15652428D01*
X6871277Y-15652428D02*
X6909372Y-15652428D01*
X6909372Y-15652428D02*
X6928420Y-15642904D01*
X6928420Y-15642904D02*
X6937944Y-15633380D01*
X6937944Y-15633380D02*
X6947467Y-15614332D01*
X6947467Y-15614332D02*
X6947467Y-15566713D01*
X6947467Y-15566713D02*
X6937944Y-15547666D01*
X6937944Y-15547666D02*
X6928420Y-15538142D01*
X6928420Y-15538142D02*
X6909372Y-15528618D01*
X6909372Y-15528618D02*
X6871277Y-15528618D01*
X6871277Y-15528618D02*
X6852229Y-15538142D01*
X6852229Y-15538142D02*
X6842706Y-15547666D01*
X6842706Y-15547666D02*
X6833182Y-15566713D01*
X7071277Y-15452428D02*
X7090325Y-15452428D01*
X7090325Y-15452428D02*
X7109372Y-15461951D01*
X7109372Y-15461951D02*
X7118896Y-15471475D01*
X7118896Y-15471475D02*
X7128420Y-15490523D01*
X7128420Y-15490523D02*
X7137944Y-15528618D01*
X7137944Y-15528618D02*
X7137944Y-15576237D01*
X7137944Y-15576237D02*
X7128420Y-15614332D01*
X7128420Y-15614332D02*
X7118896Y-15633380D01*
X7118896Y-15633380D02*
X7109372Y-15642904D01*
X7109372Y-15642904D02*
X7090325Y-15652428D01*
X7090325Y-15652428D02*
X7071277Y-15652428D01*
X7071277Y-15652428D02*
X7052229Y-15642904D01*
X7052229Y-15642904D02*
X7042706Y-15633380D01*
X7042706Y-15633380D02*
X7033182Y-15614332D01*
X7033182Y-15614332D02*
X7023658Y-15576237D01*
X7023658Y-15576237D02*
X7023658Y-15528618D01*
X7023658Y-15528618D02*
X7033182Y-15490523D01*
X7033182Y-15490523D02*
X7042706Y-15471475D01*
X7042706Y-15471475D02*
X7052229Y-15461951D01*
X7052229Y-15461951D02*
X7071277Y-15452428D01*
X7214134Y-15452428D02*
X7214134Y-15490523D01*
X7290325Y-15452428D02*
X7290325Y-15490523D01*
X7585563Y-15728618D02*
X7576039Y-15719094D01*
X7576039Y-15719094D02*
X7556991Y-15690523D01*
X7556991Y-15690523D02*
X7547468Y-15671475D01*
X7547468Y-15671475D02*
X7537944Y-15642904D01*
X7537944Y-15642904D02*
X7528420Y-15595285D01*
X7528420Y-15595285D02*
X7528420Y-15557190D01*
X7528420Y-15557190D02*
X7537944Y-15509570D01*
X7537944Y-15509570D02*
X7547468Y-15480999D01*
X7547468Y-15480999D02*
X7556991Y-15461951D01*
X7556991Y-15461951D02*
X7576039Y-15433380D01*
X7576039Y-15433380D02*
X7585563Y-15423856D01*
X7642706Y-15452428D02*
X7776039Y-15452428D01*
X7776039Y-15452428D02*
X7690325Y-15652428D01*
X8004610Y-15652428D02*
X8004610Y-15452428D01*
X8090325Y-15652428D02*
X8090325Y-15547666D01*
X8090325Y-15547666D02*
X8080801Y-15528618D01*
X8080801Y-15528618D02*
X8061753Y-15519094D01*
X8061753Y-15519094D02*
X8033182Y-15519094D01*
X8033182Y-15519094D02*
X8014134Y-15528618D01*
X8014134Y-15528618D02*
X8004610Y-15538142D01*
X8214134Y-15652428D02*
X8195087Y-15642904D01*
X8195087Y-15642904D02*
X8185563Y-15633380D01*
X8185563Y-15633380D02*
X8176039Y-15614332D01*
X8176039Y-15614332D02*
X8176039Y-15557190D01*
X8176039Y-15557190D02*
X8185563Y-15538142D01*
X8185563Y-15538142D02*
X8195087Y-15528618D01*
X8195087Y-15528618D02*
X8214134Y-15519094D01*
X8214134Y-15519094D02*
X8242706Y-15519094D01*
X8242706Y-15519094D02*
X8261753Y-15528618D01*
X8261753Y-15528618D02*
X8271277Y-15538142D01*
X8271277Y-15538142D02*
X8280801Y-15557190D01*
X8280801Y-15557190D02*
X8280801Y-15614332D01*
X8280801Y-15614332D02*
X8271277Y-15633380D01*
X8271277Y-15633380D02*
X8261753Y-15642904D01*
X8261753Y-15642904D02*
X8242706Y-15652428D01*
X8242706Y-15652428D02*
X8214134Y-15652428D01*
X8395087Y-15652428D02*
X8376039Y-15642904D01*
X8376039Y-15642904D02*
X8366515Y-15623856D01*
X8366515Y-15623856D02*
X8366515Y-15452428D01*
X8547468Y-15642904D02*
X8528420Y-15652428D01*
X8528420Y-15652428D02*
X8490325Y-15652428D01*
X8490325Y-15652428D02*
X8471277Y-15642904D01*
X8471277Y-15642904D02*
X8461753Y-15623856D01*
X8461753Y-15623856D02*
X8461753Y-15547666D01*
X8461753Y-15547666D02*
X8471277Y-15528618D01*
X8471277Y-15528618D02*
X8490325Y-15519094D01*
X8490325Y-15519094D02*
X8528420Y-15519094D01*
X8528420Y-15519094D02*
X8547468Y-15528618D01*
X8547468Y-15528618D02*
X8556992Y-15547666D01*
X8556992Y-15547666D02*
X8556992Y-15566713D01*
X8556992Y-15566713D02*
X8461753Y-15585761D01*
X8633182Y-15642904D02*
X8652230Y-15652428D01*
X8652230Y-15652428D02*
X8690325Y-15652428D01*
X8690325Y-15652428D02*
X8709373Y-15642904D01*
X8709373Y-15642904D02*
X8718896Y-15623856D01*
X8718896Y-15623856D02*
X8718896Y-15614332D01*
X8718896Y-15614332D02*
X8709373Y-15595285D01*
X8709373Y-15595285D02*
X8690325Y-15585761D01*
X8690325Y-15585761D02*
X8661753Y-15585761D01*
X8661753Y-15585761D02*
X8642706Y-15576237D01*
X8642706Y-15576237D02*
X8633182Y-15557190D01*
X8633182Y-15557190D02*
X8633182Y-15547666D01*
X8633182Y-15547666D02*
X8642706Y-15528618D01*
X8642706Y-15528618D02*
X8661753Y-15519094D01*
X8661753Y-15519094D02*
X8690325Y-15519094D01*
X8690325Y-15519094D02*
X8709373Y-15528618D01*
X8785563Y-15728618D02*
X8795087Y-15719094D01*
X8795087Y-15719094D02*
X8814134Y-15690523D01*
X8814134Y-15690523D02*
X8823658Y-15671475D01*
X8823658Y-15671475D02*
X8833182Y-15642904D01*
X8833182Y-15642904D02*
X8842706Y-15595285D01*
X8842706Y-15595285D02*
X8842706Y-15557190D01*
X8842706Y-15557190D02*
X8833182Y-15509570D01*
X8833182Y-15509570D02*
X8823658Y-15480999D01*
X8823658Y-15480999D02*
X8814134Y-15461951D01*
X8814134Y-15461951D02*
X8795087Y-15433380D01*
X8795087Y-15433380D02*
X8785563Y-15423856D01*
X9147468Y-15728618D02*
X9137944Y-15719094D01*
X9137944Y-15719094D02*
X9118896Y-15690523D01*
X9118896Y-15690523D02*
X9109373Y-15671475D01*
X9109373Y-15671475D02*
X9099849Y-15642904D01*
X9099849Y-15642904D02*
X9090325Y-15595285D01*
X9090325Y-15595285D02*
X9090325Y-15557190D01*
X9090325Y-15557190D02*
X9099849Y-15509570D01*
X9099849Y-15509570D02*
X9109373Y-15480999D01*
X9109373Y-15480999D02*
X9118896Y-15461951D01*
X9118896Y-15461951D02*
X9137944Y-15433380D01*
X9137944Y-15433380D02*
X9147468Y-15423856D01*
X9223658Y-15519094D02*
X9223658Y-15652428D01*
X9223658Y-15538142D02*
X9233182Y-15528618D01*
X9233182Y-15528618D02*
X9252230Y-15519094D01*
X9252230Y-15519094D02*
X9280801Y-15519094D01*
X9280801Y-15519094D02*
X9299849Y-15528618D01*
X9299849Y-15528618D02*
X9309373Y-15547666D01*
X9309373Y-15547666D02*
X9309373Y-15652428D01*
X9433182Y-15652428D02*
X9414134Y-15642904D01*
X9414134Y-15642904D02*
X9404611Y-15633380D01*
X9404611Y-15633380D02*
X9395087Y-15614332D01*
X9395087Y-15614332D02*
X9395087Y-15557190D01*
X9395087Y-15557190D02*
X9404611Y-15538142D01*
X9404611Y-15538142D02*
X9414134Y-15528618D01*
X9414134Y-15528618D02*
X9433182Y-15519094D01*
X9433182Y-15519094D02*
X9461754Y-15519094D01*
X9461754Y-15519094D02*
X9480801Y-15528618D01*
X9480801Y-15528618D02*
X9490325Y-15538142D01*
X9490325Y-15538142D02*
X9499849Y-15557190D01*
X9499849Y-15557190D02*
X9499849Y-15614332D01*
X9499849Y-15614332D02*
X9490325Y-15633380D01*
X9490325Y-15633380D02*
X9480801Y-15642904D01*
X9480801Y-15642904D02*
X9461754Y-15652428D01*
X9461754Y-15652428D02*
X9433182Y-15652428D01*
X9556992Y-15519094D02*
X9633182Y-15519094D01*
X9585563Y-15452428D02*
X9585563Y-15623856D01*
X9585563Y-15623856D02*
X9595087Y-15642904D01*
X9595087Y-15642904D02*
X9614134Y-15652428D01*
X9614134Y-15652428D02*
X9633182Y-15652428D01*
X9852230Y-15519094D02*
X9852230Y-15719094D01*
X9852230Y-15528618D02*
X9871277Y-15519094D01*
X9871277Y-15519094D02*
X9909373Y-15519094D01*
X9909373Y-15519094D02*
X9928420Y-15528618D01*
X9928420Y-15528618D02*
X9937944Y-15538142D01*
X9937944Y-15538142D02*
X9947468Y-15557190D01*
X9947468Y-15557190D02*
X9947468Y-15614332D01*
X9947468Y-15614332D02*
X9937944Y-15633380D01*
X9937944Y-15633380D02*
X9928420Y-15642904D01*
X9928420Y-15642904D02*
X9909373Y-15652428D01*
X9909373Y-15652428D02*
X9871277Y-15652428D01*
X9871277Y-15652428D02*
X9852230Y-15642904D01*
X10061754Y-15652428D02*
X10042706Y-15642904D01*
X10042706Y-15642904D02*
X10033182Y-15623856D01*
X10033182Y-15623856D02*
X10033182Y-15452428D01*
X10223658Y-15652428D02*
X10223658Y-15547666D01*
X10223658Y-15547666D02*
X10214135Y-15528618D01*
X10214135Y-15528618D02*
X10195087Y-15519094D01*
X10195087Y-15519094D02*
X10156992Y-15519094D01*
X10156992Y-15519094D02*
X10137944Y-15528618D01*
X10223658Y-15642904D02*
X10204611Y-15652428D01*
X10204611Y-15652428D02*
X10156992Y-15652428D01*
X10156992Y-15652428D02*
X10137944Y-15642904D01*
X10137944Y-15642904D02*
X10128420Y-15623856D01*
X10128420Y-15623856D02*
X10128420Y-15604809D01*
X10128420Y-15604809D02*
X10137944Y-15585761D01*
X10137944Y-15585761D02*
X10156992Y-15576237D01*
X10156992Y-15576237D02*
X10204611Y-15576237D01*
X10204611Y-15576237D02*
X10223658Y-15566713D01*
X10290325Y-15519094D02*
X10366515Y-15519094D01*
X10318896Y-15452428D02*
X10318896Y-15623856D01*
X10318896Y-15623856D02*
X10328420Y-15642904D01*
X10328420Y-15642904D02*
X10347468Y-15652428D01*
X10347468Y-15652428D02*
X10366515Y-15652428D01*
X10509373Y-15642904D02*
X10490325Y-15652428D01*
X10490325Y-15652428D02*
X10452230Y-15652428D01*
X10452230Y-15652428D02*
X10433182Y-15642904D01*
X10433182Y-15642904D02*
X10423658Y-15623856D01*
X10423658Y-15623856D02*
X10423658Y-15547666D01*
X10423658Y-15547666D02*
X10433182Y-15528618D01*
X10433182Y-15528618D02*
X10452230Y-15519094D01*
X10452230Y-15519094D02*
X10490325Y-15519094D01*
X10490325Y-15519094D02*
X10509373Y-15528618D01*
X10509373Y-15528618D02*
X10518896Y-15547666D01*
X10518896Y-15547666D02*
X10518896Y-15566713D01*
X10518896Y-15566713D02*
X10423658Y-15585761D01*
X10690325Y-15652428D02*
X10690325Y-15452428D01*
X10690325Y-15642904D02*
X10671277Y-15652428D01*
X10671277Y-15652428D02*
X10633182Y-15652428D01*
X10633182Y-15652428D02*
X10614135Y-15642904D01*
X10614135Y-15642904D02*
X10604611Y-15633380D01*
X10604611Y-15633380D02*
X10595087Y-15614332D01*
X10595087Y-15614332D02*
X10595087Y-15557190D01*
X10595087Y-15557190D02*
X10604611Y-15538142D01*
X10604611Y-15538142D02*
X10614135Y-15528618D01*
X10614135Y-15528618D02*
X10633182Y-15519094D01*
X10633182Y-15519094D02*
X10671277Y-15519094D01*
X10671277Y-15519094D02*
X10690325Y-15528618D01*
X10766516Y-15728618D02*
X10776039Y-15719094D01*
X10776039Y-15719094D02*
X10795087Y-15690523D01*
X10795087Y-15690523D02*
X10804611Y-15671475D01*
X10804611Y-15671475D02*
X10814135Y-15642904D01*
X10814135Y-15642904D02*
X10823658Y-15595285D01*
X10823658Y-15595285D02*
X10823658Y-15557190D01*
X10823658Y-15557190D02*
X10814135Y-15509570D01*
X10814135Y-15509570D02*
X10804611Y-15480999D01*
X10804611Y-15480999D02*
X10795087Y-15461951D01*
X10795087Y-15461951D02*
X10776039Y-15433380D01*
X10776039Y-15433380D02*
X10766516Y-15423856D01*
M02*
