M48
; DRILL file {KiCad 9.0.5} date 2025-11-15T17:57:00+0000
; FORMAT={-:-/ absolute / metric / decimal}
; #@! TF.CreationDate,2025-11-15T17:57:00+00:00
; #@! TF.GenerationSoftware,Kicad,Pcbnew,9.0.5
; #@! TF.FileFunction,Plated,1,6,PTH
FMAT,2
METRIC
; #@! TA.AperFunction,Plated,PTH,ViaDrill
T1C0.200
; #@! TA.AperFunction,Plated,PTH,ViaDrill
T2C0.400
; #@! TA.AperFunction,Plated,PTH,ComponentDrill
T3C0.500
; #@! TA.AperFunction,Plated,PTH,ComponentDrill
T4C0.600
; #@! TA.AperFunction,Plated,PTH,ComponentDrill
T5C0.750
; #@! TA.AperFunction,Plated,PTH,ComponentDrill
T6C0.950
; #@! TA.AperFunction,Plated,PTH,ComponentDrill
T7C1.000
; #@! TA.AperFunction,Plated,PTH,ComponentDrill
T8C1.300
; #@! TA.AperFunction,Plated,PTH,ComponentDrill
T9C2.200
; #@! TA.AperFunction,Plated,PTH,ComponentDrill
T10C2.300
%
G90
G05
T1
X44.038Y-69.754
X44.038Y-101.254
X44.038Y-108.954
X44.138Y-107.204
X44.438Y-69.054
X44.438Y-95.204
X45.038Y-68.604
X45.888Y-68.654
X45.888Y-100.504
X45.938Y-102.104
X45.938Y-106.404
X46.038Y-108.004
X46.038Y-109.604
X46.688Y-68.754
X47.224Y-69.067
X47.388Y-73.704
X47.639Y-69.755
X47.938Y-118.654
X48.138Y-68.704
X48.388Y-72.154
X48.488Y-119.854
X48.688Y-74.154
X48.788Y-109.704
X49.038Y-73.654
X49.388Y-112.754
X50.638Y-60.354
X50.788Y-130.254
X50.938Y-129.454
X51.238Y-65.004
X51.738Y-114.504
X51.75Y-60.7
X51.788Y-61.8
X51.938Y-76.954
X51.938Y-77.754
X51.938Y-78.554
X51.938Y-80.954
X51.938Y-81.754
X51.938Y-82.554
X52.35Y-60.35
X52.488Y-60.954
X52.588Y-76.954
X52.588Y-78.554
X52.588Y-80.954
X52.588Y-82.554
X52.938Y-139.154
X53.038Y-66.204
X53.238Y-75.354
X53.238Y-78.554
X53.238Y-80.954
X53.238Y-84.154
X53.7Y-46.2
X53.888Y-75.354
X53.888Y-76.154
X53.888Y-77.754
X53.888Y-78.554
X53.888Y-80.954
X53.888Y-81.754
X53.888Y-83.354
X53.888Y-84.154
X54.5Y-45.7
X54.538Y-75.354
X54.538Y-78.554
X54.538Y-80.954
X54.538Y-84.154
X54.638Y-109.804
X54.888Y-118.404
X55.188Y-75.354
X55.188Y-76.954
X55.188Y-78.554
X55.188Y-80.954
X55.188Y-82.554
X55.188Y-84.154
X55.488Y-105.354
X55.838Y-75.354
X55.838Y-76.954
X55.838Y-77.754
X55.838Y-78.554
X55.838Y-80.954
X55.838Y-81.754
X55.838Y-82.554
X55.838Y-84.154
X56.138Y-116.004
X56.238Y-129.704
X56.488Y-75.354
X56.488Y-78.554
X56.488Y-80.954
X56.488Y-84.154
X56.638Y-119.154
X56.888Y-129.854
X57.038Y-136.554
X57.138Y-75.354
X57.138Y-76.954
X57.138Y-82.554
X57.138Y-84.154
X57.188Y-115.204
X57.538Y-135.404
X57.788Y-75.354
X57.788Y-76.154
X57.788Y-76.954
X57.788Y-77.754
X57.788Y-81.754
X57.788Y-82.554
X57.788Y-83.354
X57.788Y-84.154
X58.338Y-122.204
X58.388Y-126.204
X58.888Y-120.754
X58.888Y-126.504
X59.738Y-75.354
X59.738Y-76.154
X59.738Y-76.954
X59.738Y-77.754
X59.738Y-81.754
X59.738Y-82.554
X59.738Y-83.354
X59.738Y-84.154
X60.388Y-75.354
X60.388Y-76.154
X60.388Y-76.954
X60.388Y-77.754
X60.388Y-80.954
X60.388Y-81.754
X60.388Y-83.354
X60.388Y-84.154
X60.688Y-79.104
X60.688Y-84.654
X61.038Y-75.354
X61.038Y-76.154
X61.038Y-77.754
X61.038Y-80.954
X61.038Y-81.754
X61.038Y-82.554
X61.038Y-83.354
X61.688Y-75.354
X61.688Y-76.154
X61.688Y-76.954
X61.688Y-77.754
X61.688Y-78.554
X61.688Y-80.954
X61.688Y-81.754
X61.688Y-82.554
X61.688Y-84.154
X61.738Y-58.754
X61.838Y-110.004
X61.888Y-104.104
X61.938Y-116.804
X61.938Y-128.604
X62.288Y-115.204
X62.338Y-75.354
X62.338Y-76.954
X62.338Y-78.554
X62.338Y-80.954
X62.338Y-82.554
X62.338Y-84.154
X62.338Y-119.204
X62.338Y-129.054
X62.888Y-112.604
X62.988Y-75.354
X62.988Y-78.554
X62.988Y-80.954
X62.988Y-84.154
X62.988Y-118.554
X62.988Y-129.054
X63.638Y-75.354
X63.638Y-76.154
X63.638Y-77.754
X63.638Y-78.554
X63.638Y-80.954
X63.638Y-81.754
X63.638Y-83.354
X63.638Y-84.154
X63.688Y-128.904
X63.838Y-101.554
X64.288Y-75.354
X64.288Y-78.554
X64.288Y-80.954
X64.288Y-84.154
X64.338Y-70.454
X64.388Y-128.404
X64.938Y-70.854
X64.938Y-76.954
X64.938Y-78.554
X64.938Y-80.954
X64.938Y-82.554
X64.938Y-121.604
X65.588Y-76.954
X65.588Y-77.754
X65.588Y-78.554
X65.588Y-81.754
X65.588Y-82.554
X65.688Y-104.754
X65.688Y-109.552
X65.888Y-94.654
X65.965Y-69.423
X66.088Y-111.904
X66.288Y-69.854
X66.388Y-119.754
X66.538Y-114.904
X66.888Y-107.504
X66.888Y-112.354
X67.038Y-122.704
X67.338Y-70.404
X68.038Y-123.504
X68.138Y-103.854
X68.788Y-105.554
X69.188Y-125.004
X69.288Y-118.854
X69.338Y-116.804
X69.688Y-125.404
X69.738Y-110.804
X69.788Y-108.254
X70.138Y-124.954
X70.438Y-113.954
X70.438Y-114.754
X70.438Y-115.554
X70.488Y-106.654
X70.538Y-102.804
X70.688Y-108.754
X70.688Y-125.354
X70.988Y-106.154
X70.988Y-109.804
X71.088Y-119.904
X71.188Y-124.904
X71.219Y-109.013
X71.238Y-111.554
X71.238Y-112.354
X71.238Y-113.154
X71.238Y-113.954
X71.238Y-114.754
X71.238Y-115.554
X71.238Y-118.204
X71.338Y-103.204
X71.488Y-105.754
X71.538Y-120.654
X71.638Y-117.654
X71.688Y-125.254
X71.938Y-107.854
X71.988Y-117.154
X72.038Y-111.554
X72.038Y-112.354
X72.038Y-113.154
X72.038Y-113.954
X72.038Y-114.754
X72.038Y-115.554
X72.038Y-118.804
X72.188Y-124.954
X72.338Y-71.654
X72.338Y-109.404
X72.438Y-52.604
X72.438Y-112.754
X72.638Y-103.904
X72.688Y-125.304
X72.788Y-66.454
X72.838Y-110.854
X72.838Y-111.554
X72.838Y-112.354
X72.838Y-113.154
X72.838Y-113.954
X72.838Y-114.754
X72.838Y-115.554
X72.938Y-72.104
X73.088Y-53.154
X73.188Y-125.004
X73.488Y-121.254
X73.638Y-53.654
X73.638Y-111.554
X73.638Y-113.154
X73.638Y-113.954
X73.638Y-114.754
X73.638Y-115.554
X73.688Y-71.504
X73.688Y-72.354
X73.688Y-125.354
X73.938Y-70.954
X73.938Y-121.754
X74.188Y-54.501
X74.188Y-125.004
X74.338Y-72.554
X74.438Y-111.554
X74.438Y-112.354
X74.438Y-113.154
X74.438Y-113.954
X74.438Y-114.754
X74.438Y-115.554
X74.438Y-122.404
X74.438Y-129.854
X74.538Y-107.104
X74.688Y-125.404
X74.738Y-64.454
X74.838Y-70.954
X74.988Y-129.454
X74.988Y-140.004
X75.188Y-124.954
X75.231Y-68.36
X75.238Y-111.554
X75.238Y-112.354
X75.238Y-113.154
X75.238Y-113.954
X75.238Y-114.754
X75.238Y-115.554
X75.238Y-66.854
X75.288Y-120.154
X75.338Y-75.304
X75.338Y-92.104
X75.488Y-106.704
X75.51Y-66.031
X75.538Y-64.504
X75.609Y-69.186
X75.638Y-111.954
X75.688Y-102.804
X75.688Y-125.304
X75.691Y-69.718
X75.693Y-67.55
X75.738Y-65.254
X75.788Y-68.604
X75.788Y-129.104
X75.854Y-66.88
X75.988Y-101.454
X76.038Y-111.554
X76.038Y-112.354
X76.038Y-113.954
X76.038Y-114.754
X76.038Y-115.554
X76.088Y-127.754
X76.145Y-108.642
X76.188Y-124.954
X76.288Y-122.404
X76.688Y-117.004
X76.688Y-125.254
X76.688Y-129.154
X76.838Y-112.354
X76.838Y-113.954
X76.838Y-114.754
X76.838Y-115.554
X76.838Y-101.654
X76.9Y-55.0
X76.938Y-75.304
X76.938Y-76.104
X76.938Y-83.304
X76.938Y-92.104
X77.188Y-124.954
X77.25Y-69.25
X77.288Y-82.104
X77.338Y-100.854
X77.638Y-111.554
X77.638Y-112.354
X77.638Y-113.154
X77.638Y-113.954
X77.638Y-114.754
X77.638Y-115.554
X77.638Y-118.504
X77.688Y-125.254
X77.738Y-76.904
X77.738Y-77.704
X77.738Y-78.504
X77.738Y-81.704
X77.738Y-82.504
X77.738Y-83.304
X77.738Y-90.504
X77.738Y-91.304
X77.788Y-99.254
X77.8Y-64.5
X77.95Y-55.0
X78.1Y-69.25
X78.1Y-72.1
X78.138Y-99.804
X78.138Y-103.554
X78.138Y-135.004
X78.142Y-117.871
X78.212Y-86.124
X78.238Y-105.504
X78.238Y-124.804
X78.348Y-106.754
X78.438Y-111.554
X78.438Y-112.354
X78.438Y-113.154
X78.438Y-113.954
X78.438Y-114.754
X78.438Y-115.554
X78.538Y-76.904
X78.538Y-77.704
X78.538Y-78.504
X78.538Y-80.104
X78.538Y-81.704
X78.538Y-82.504
X78.538Y-90.504
X78.588Y-101.254
X78.688Y-125.304
X78.938Y-76.504
X78.938Y-88.504
X79.038Y-100.254
X79.038Y-135.004
X79.088Y-105.914
X79.188Y-124.754
X79.238Y-111.554
X79.238Y-112.354
X79.238Y-113.154
X79.238Y-113.954
X79.238Y-114.754
X79.238Y-115.554
X79.338Y-79.304
X79.338Y-82.504
X79.338Y-83.304
X79.338Y-87.304
X79.338Y-88.904
X79.338Y-89.704
X79.388Y-117.154
X79.489Y-98.542
X79.638Y-105.154
X79.688Y-122.754
X79.688Y-125.304
X79.736Y-85.425
X79.738Y-88.504
X79.738Y-93.404
X80.038Y-111.554
X80.038Y-112.354
X80.038Y-113.154
X80.038Y-113.954
X80.038Y-114.754
X80.038Y-115.554
X80.038Y-109.904
X80.138Y-76.904
X80.138Y-77.704
X80.138Y-80.104
X80.138Y-80.904
X80.138Y-82.504
X80.138Y-84.104
X80.138Y-90.504
X80.188Y-124.704
X80.2Y-55.0
X80.438Y-105.304
X80.538Y-87.704
X80.593Y-108.645
X80.688Y-125.204
X80.838Y-111.554
X80.838Y-112.354
X80.838Y-113.154
X80.838Y-113.954
X80.838Y-114.754
X80.838Y-115.554
X80.938Y-78.504
X80.938Y-79.304
X80.938Y-80.904
X80.938Y-81.704
X80.938Y-82.504
X80.938Y-83.304
X80.938Y-84.104
X80.938Y-84.904
X80.938Y-85.704
X80.938Y-86.504
X80.938Y-88.104
X80.938Y-89.704
X80.938Y-90.504
X80.938Y-91.304
X80.938Y-92.104
X81.0Y-69.25
X81.1Y-64.55
X81.148Y-105.895
X81.288Y-104.154
X81.3Y-55.0
X81.327Y-77.962
X81.338Y-109.854
X81.388Y-77.304
X81.388Y-105.054
X81.561Y-106.242
X81.638Y-112.354
X81.638Y-113.154
X81.638Y-113.954
X81.638Y-114.754
X81.738Y-76.904
X81.738Y-78.504
X81.738Y-79.304
X81.738Y-80.904
X81.738Y-81.704
X81.738Y-82.504
X81.738Y-83.304
X81.738Y-84.104
X81.738Y-85.704
X81.738Y-86.504
X81.738Y-89.704
X81.738Y-90.504
X81.738Y-125.254
X81.788Y-119.354
X82.038Y-134.204
X82.138Y-56.754
X82.138Y-89.304
X82.188Y-124.704
X82.328Y-106.045
X82.338Y-101.954
X82.388Y-116.404
X82.438Y-110.804
X82.438Y-113.954
X82.538Y-76.904
X82.538Y-78.504
X82.538Y-80.904
X82.538Y-81.704
X82.538Y-82.504
X82.538Y-83.304
X82.538Y-84.904
X82.538Y-85.704
X82.538Y-86.504
X82.538Y-91.304
X82.538Y-91.854
X82.688Y-125.154
X82.738Y-56.904
X83.038Y-87.704
X83.138Y-138.404
X83.238Y-123.304
X83.238Y-124.67
X83.25Y-71.65
X83.25Y-72.6
X83.288Y-120.254
X83.338Y-55.054
X83.338Y-76.904
X83.338Y-80.904
X83.338Y-81.704
X83.338Y-82.504
X83.338Y-83.304
X83.338Y-84.904
X83.338Y-87.304
X83.338Y-95.504
X83.338Y-96.154
X83.388Y-106.845
X83.438Y-56.954
X83.538Y-103.204
X83.638Y-93.554
X83.688Y-73.204
X83.694Y-124.958
X83.738Y-98.904
X83.838Y-112.154
X83.888Y-56.254
X83.917Y-106.739
X84.138Y-78.504
X84.138Y-79.304
X84.138Y-80.104
X84.138Y-83.304
X84.138Y-84.904
X84.138Y-85.704
X84.138Y-97.754
X84.138Y-124.404
X84.188Y-98.504
X84.188Y-102.404
X84.188Y-111.004
X84.238Y-111.654
X84.338Y-117.304
X84.388Y-93.454
X84.439Y-130.705
X84.488Y-70.104
X84.542Y-70.641
X84.588Y-97.254
X84.688Y-67.654
X84.724Y-72.675
X84.738Y-74.604
X84.775Y-69.266
X84.835Y-68.675
X84.917Y-68.142
X84.938Y-76.104
X84.938Y-80.104
X84.938Y-80.904
X84.938Y-81.704
X84.938Y-82.504
X84.938Y-83.304
X84.938Y-85.704
X84.938Y-86.504
X84.938Y-87.304
X84.938Y-88.104
X84.988Y-64.404
X84.988Y-65.654
X84.988Y-111.904
X85.038Y-64.954
X85.038Y-66.204
X85.038Y-95.804
X85.038Y-103.104
X85.038Y-117.354
X85.088Y-69.704
X85.138Y-66.754
X85.184Y-71.816
X85.188Y-97.654
X85.263Y-70.53
X85.338Y-75.554
X85.417Y-67.299
X85.488Y-103.604
X85.627Y-102.126
X85.638Y-96.754
X85.638Y-120.254
X85.638Y-123.304
X85.688Y-110.754
X85.738Y-71.404
X85.738Y-77.704
X85.738Y-78.504
X85.738Y-79.304
X85.738Y-80.904
X85.738Y-81.704
X85.738Y-82.504
X85.738Y-83.304
X85.738Y-84.104
X85.738Y-85.704
X85.738Y-86.504
X85.738Y-130.754
X85.886Y-106.345
X86.088Y-101.654
X86.158Y-72.337
X86.238Y-122.904
X86.388Y-123.854
X86.438Y-127.704
X86.538Y-75.304
X86.538Y-77.704
X86.538Y-78.504
X86.538Y-80.904
X86.538Y-81.704
X86.538Y-82.504
X86.538Y-87.304
X86.538Y-88.104
X86.688Y-138.404
X86.738Y-68.654
X86.788Y-68.004
X86.788Y-74.104
X86.838Y-104.054
X86.888Y-74.704
X86.938Y-84.504
X86.949Y-72.3
X86.988Y-130.754
X87.088Y-62.604
X87.088Y-106.704
X87.138Y-66.954
X87.238Y-61.904
X87.338Y-76.904
X87.338Y-78.504
X87.338Y-79.304
X87.338Y-80.104
X87.338Y-80.904
X87.338Y-81.704
X87.338Y-84.104
X87.338Y-84.904
X87.338Y-86.504
X87.338Y-87.304
X87.338Y-88.104
X87.338Y-90.504
X87.338Y-118.895
X87.388Y-64.954
X87.588Y-61.354
X87.588Y-63.054
X87.638Y-85.304
X87.729Y-73.49
X87.738Y-82.854
X87.788Y-72.954
X87.838Y-111.054
X87.888Y-60.704
X87.938Y-111.654
X87.938Y-120.704
X87.988Y-65.654
X88.138Y-77.704
X88.138Y-79.304
X88.138Y-80.104
X88.138Y-86.504
X88.138Y-87.304
X88.138Y-88.104
X88.138Y-88.904
X88.138Y-74.854
X88.238Y-130.754
X88.288Y-73.604
X88.338Y-64.054
X88.338Y-74.204
X88.338Y-88.504
X88.488Y-118.504
X88.538Y-82.854
X88.588Y-85.154
X88.588Y-86.154
X88.659Y-71.108
X88.738Y-67.504
X88.792Y-73.557
X88.938Y-76.904
X88.938Y-77.704
X88.938Y-80.104
X88.938Y-86.504
X88.938Y-87.304
X88.938Y-88.904
X88.938Y-89.704
X88.988Y-66.854
X89.038Y-70.104
X89.188Y-69.354
X89.288Y-60.354
X89.384Y-118.403
X89.452Y-73.986
X89.538Y-138.604
X89.588Y-67.604
X89.669Y-72.914
X89.738Y-78.504
X89.738Y-80.104
X89.738Y-84.104
X89.738Y-85.704
X89.738Y-86.504
X89.738Y-87.304
X89.738Y-90.504
X89.838Y-122.554
X89.988Y-63.754
X90.088Y-86.104
X90.138Y-82.104
X90.388Y-122.154
X90.388Y-138.604
X90.438Y-67.754
X90.438Y-119.854
X90.538Y-79.304
X90.538Y-80.104
X90.538Y-84.104
X90.538Y-84.904
X90.538Y-85.704
X90.538Y-86.504
X90.538Y-87.304
X90.738Y-121.654
X90.788Y-128.654
X90.888Y-130.404
X90.95Y-75.7
X91.138Y-85.704
X91.238Y-63.754
X91.338Y-76.904
X91.338Y-80.104
X91.338Y-84.104
X91.338Y-86.504
X91.338Y-87.304
X91.388Y-121.254
X91.488Y-120.454
X91.638Y-57.254
X91.738Y-74.2
X91.838Y-86.104
X92.138Y-75.304
X92.138Y-76.104
X92.138Y-76.904
X92.138Y-77.704
X92.138Y-84.104
X92.138Y-86.504
X92.138Y-87.304
X92.182Y-92.104
X92.27Y-110.954
X92.288Y-82.454
X92.338Y-138.604
X92.488Y-57.654
X92.529Y-111.818
X92.538Y-63.754
X92.638Y-84.654
X92.749Y-111.326
X92.75Y-67.0
X92.752Y-101.304
X92.752Y-102.697
X92.752Y-106.507
X92.988Y-109.854
X92.988Y-118.004
X93.088Y-99.404
X93.143Y-84.503
X93.682Y-77.7
X93.688Y-60.654
X93.738Y-109.654
X93.838Y-63.004
X93.938Y-86.704
X93.952Y-107.693
X94.137Y-85.045
X94.15Y-61.1
X94.238Y-110.157
X94.657Y-73.736
X94.725Y-107.925
X94.788Y-71.004
X94.888Y-85.354
X94.938Y-118.004
X94.988Y-130.054
X95.088Y-86.904
X95.1Y-82.85
X95.388Y-75.004
X95.438Y-118.354
X95.438Y-119.404
X95.488Y-85.404
X95.538Y-108.154
X95.639Y-84.504
X95.688Y-86.504
X95.788Y-107.154
X95.9Y-83.4
X95.95Y-81.15
X96.138Y-72.704
X96.138Y-109.004
X96.276Y-67.05
X96.288Y-63.754
X96.688Y-108.554
X96.819Y-73.226
X97.2Y-81.25
X97.25Y-83.0
X97.355Y-72.99
X97.438Y-99.404
X97.588Y-63.454
X97.588Y-86.104
X97.95Y-59.9
X98.1Y-57.4
X98.238Y-110.504
X98.238Y-114.204
X98.388Y-89.004
X98.538Y-55.154
X98.538Y-86.104
X98.888Y-88.154
X98.913Y-63.454
X99.088Y-133.504
X99.138Y-132.954
X99.188Y-132.404
X99.288Y-86.104
X99.838Y-102.697
X100.0Y-80.45
X100.188Y-62.554
X100.6Y-57.55
X100.638Y-38.904
X100.639Y-40.105
X101.338Y-135.104
X101.488Y-63.847
X101.828Y-39.665
X101.988Y-131.254
X101.988Y-135.104
X102.188Y-39.004
X102.4Y-59.9
X102.5Y-81.55
X102.638Y-54.454
X102.988Y-86.604
X103.338Y-54.104
X103.438Y-86.104
X103.488Y-113.104
X103.788Y-79.804
X103.838Y-89.454
X104.488Y-80.154
X104.488Y-89.454
X105.05Y-90.45
X105.138Y-80.704
X105.138Y-89.454
X105.238Y-56.954
X105.288Y-56.304
X105.338Y-65.804
X106.071Y-95.979
X106.088Y-64.354
X106.438Y-81.704
X106.938Y-114.604
X107.538Y-113.111
X108.138Y-82.404
X108.288Y-55.504
X108.438Y-109.204
X108.438Y-110.454
X108.638Y-81.904
X108.988Y-55.554
X109.088Y-99.704
X109.638Y-55.654
X109.85Y-90.45
X110.038Y-99.454
X110.188Y-75.054
X110.188Y-81.404
X110.188Y-85.704
X110.75Y-104.75
X110.85Y-95.25
X110.988Y-100.604
X111.438Y-111.904
X111.738Y-77.004
X111.788Y-100.904
X111.838Y-86.054
X112.388Y-89.454
X113.388Y-85.704
X113.538Y-60.454
X113.838Y-88.254
X114.288Y-87.804
X114.438Y-99.304
X114.688Y-46.504
X114.688Y-84.954
X114.988Y-54.404
X115.138Y-114.604
X115.238Y-85.404
X115.238Y-99.354
X115.638Y-63.954
X116.188Y-64.504
X116.188Y-111.054
X116.35Y-90.5
X116.638Y-86.104
X116.85Y-48.25
X116.95Y-47.55
X118.038Y-61.854
X118.038Y-78.904
X118.538Y-78.454
X118.688Y-61.804
X118.838Y-56.604
X119.188Y-62.254
X119.238Y-77.904
X119.238Y-89.304
X119.438Y-57.154
X119.588Y-56.254
X119.638Y-61.754
X119.688Y-77.404
X119.888Y-55.604
X121.188Y-75.004
X121.788Y-74.554
X121.988Y-113.054
X126.188Y-87.204
X126.238Y-95.754
X127.538Y-64.454
X128.088Y-65.054
X129.388Y-95.454
X129.438Y-82.104
X129.838Y-96.154
X130.288Y-82.854
X131.188Y-119.604
X131.688Y-120.154
X133.288Y-75.654
X133.288Y-101.554
X134.038Y-76.054
X134.038Y-100.919
X134.588Y-76.554
X134.588Y-100.411
X135.229Y-54.945
X136.588Y-76.804
X139.088Y-99.254
X140.638Y-99.404
X140.738Y-65.004
X140.938Y-124.204
X140.988Y-122.354
X141.038Y-118.504
X141.738Y-78.454
X141.938Y-112.704
X142.038Y-99.554
X142.138Y-124.154
X142.338Y-77.354
X142.388Y-55.354
X142.488Y-119.554
X142.538Y-115.154
X142.588Y-103.704
X142.638Y-107.954
X142.838Y-77.854
X143.088Y-65.054
X143.088Y-113.204
X143.088Y-122.404
X143.138Y-55.854
X143.388Y-78.854
X143.388Y-109.304
X143.438Y-99.504
X143.538Y-95.254
X143.688Y-57.204
X143.738Y-113.804
X143.738Y-123.304
X143.938Y-94.704
X144.238Y-56.754
X144.388Y-114.404
X144.388Y-122.854
X144.438Y-91.604
X144.438Y-94.204
X144.588Y-109.254
X144.788Y-59.754
X144.838Y-56.254
X144.838Y-107.554
X144.888Y-108.204
X144.938Y-93.754
X145.188Y-99.454
X145.388Y-76.604
X145.388Y-86.104
X145.388Y-89.754
X145.438Y-54.954
X145.438Y-91.604
X145.438Y-93.254
X145.888Y-85.404
X145.938Y-87.754
X145.938Y-112.704
X146.488Y-88.004
X146.488Y-113.204
X147.038Y-75.054
X147.088Y-80.054
X147.088Y-88.804
X147.088Y-113.804
X147.638Y-88.304
X147.638Y-114.404
X147.688Y-74.904
X147.788Y-79.554
X148.038Y-103.604
X148.188Y-100.054
X148.638Y-99.454
X148.688Y-103.754
X148.938Y-89.404
X149.638Y-83.304
X150.038Y-90.704
X150.188Y-103.504
X150.238Y-115.154
X150.438Y-124.154
X150.538Y-82.604
X151.138Y-69.654
X151.138Y-106.804
X151.188Y-82.154
X151.688Y-81.654
X151.688Y-102.654
X151.788Y-106.754
X151.888Y-85.404
X151.888Y-92.354
X152.188Y-108.204
X152.238Y-102.104
X152.688Y-103.104
X152.738Y-121.704
X153.338Y-122.254
X154.088Y-99.104
X154.488Y-107.854
X154.738Y-89.454
X155.038Y-85.954
X155.488Y-85.204
X155.588Y-100.004
X156.588Y-89.454
X158.888Y-79.854
X158.938Y-92.354
X159.488Y-79.704
X159.488Y-93.254
X160.838Y-108.204
T2
X43.588Y-59.954
X43.638Y-58.304
X43.788Y-56.104
X43.888Y-53.954
X43.988Y-103.354
X44.688Y-114.104
X45.788Y-103.304
X45.888Y-104.904
X46.388Y-48.354
X46.538Y-114.404
X47.188Y-77.704
X47.238Y-81.754
X47.338Y-113.154
X47.488Y-98.304
X47.988Y-60.254
X48.788Y-48.404
X49.338Y-113.804
X49.788Y-47.704
X50.438Y-54.854
X50.738Y-48.404
X50.791Y-53.007
X50.888Y-61.104
X52.638Y-90.354
X52.738Y-88.804
X52.812Y-57.231
X53.688Y-70.604
X54.388Y-60.154
X54.888Y-88.854
X55.138Y-54.904
X55.138Y-70.604
X55.188Y-132.754
X55.738Y-60.304
X55.838Y-59.154
X57.088Y-89.704
X57.138Y-70.654
X57.888Y-129.254
X58.938Y-90.354
X58.938Y-91.304
X59.688Y-129.004
X59.688Y-137.604
X59.938Y-108.254
X59.988Y-101.804
X60.238Y-88.754
X60.288Y-70.554
X60.338Y-90.354
X60.338Y-91.304
X61.738Y-90.354
X61.738Y-91.304
X62.138Y-114.054
X62.588Y-70.554
X63.788Y-89.004
X63.838Y-41.204
X64.538Y-113.254
X65.038Y-137.622
X66.088Y-113.754
X67.688Y-59.804
X67.988Y-124.354
X68.138Y-65.204
X68.588Y-129.604
X69.038Y-113.104
X69.038Y-114.004
X69.088Y-95.354
X69.238Y-128.254
X69.288Y-48.204
X69.688Y-59.904
X70.338Y-129.604
X70.438Y-46.404
X70.538Y-49.854
X70.638Y-65.254
X71.588Y-57.254
X73.188Y-99.254
X75.588Y-59.354
X75.738Y-72.154
X76.238Y-94.004
X76.738Y-134.304
X76.9Y-48.9
X76.9Y-50.85
X76.95Y-46.85
X77.0Y-52.8
X77.138Y-72.204
X77.5Y-57.15
X77.8Y-60.7
X77.8Y-63.2
X79.088Y-52.704
X79.238Y-47.554
X79.588Y-136.954
X80.288Y-72.404
X80.338Y-62.854
X80.6Y-61.4
X80.65Y-58.15
X81.138Y-129.597
X81.488Y-138.154
X81.55Y-52.8
X81.65Y-46.9
X81.65Y-48.9
X81.65Y-51.0
X83.138Y-129.954
X84.65Y-58.45
X84.688Y-128.054
X84.75Y-62.15
X85.7Y-60.45
X86.3Y-56.2
X87.538Y-138.554
X88.438Y-44.454
X88.45Y-54.5
X88.638Y-138.504
X89.138Y-130.054
X90.188Y-129.554
X90.338Y-58.254
X91.65Y-51.1
X91.95Y-54.55
X93.288Y-139.154
X93.688Y-113.254
X93.688Y-115.054
X93.688Y-116.054
X93.8Y-48.9
X93.838Y-125.554
X94.688Y-139.154
X95.138Y-42.204
X95.738Y-130.904
X96.738Y-40.254
X97.388Y-75.754
X97.388Y-84.454
X98.388Y-127.335
X98.7Y-48.55
X98.788Y-97.404
X98.988Y-39.254
X99.25Y-44.05
X99.5Y-46.1
X99.688Y-139.154
X100.45Y-51.05
X100.638Y-104.454
X100.638Y-135.754
X101.488Y-44.904
X101.638Y-42.354
X101.788Y-84.004
X102.388Y-74.354
X102.95Y-48.25
X103.288Y-116.404
X103.45Y-45.6
X103.505Y-69.85
X103.738Y-39.154
X103.85Y-44.45
X104.3Y-42.1
X104.438Y-124.204
X104.438Y-126.404
X104.988Y-102.904
X105.138Y-49.854
X105.888Y-39.704
X105.888Y-104.154
X105.988Y-97.704
X106.038Y-78.554
X106.438Y-43.154
X106.438Y-70.504
X106.938Y-117.754
X107.038Y-64.154
X107.188Y-83.404
X107.338Y-69.254
X107.538Y-52.904
X107.588Y-54.904
X107.738Y-43.104
X108.05Y-96.25
X108.088Y-71.954
X108.188Y-97.954
X108.338Y-71.004
X108.538Y-59.554
X108.738Y-134.154
X109.138Y-45.304
X109.188Y-42.854
X109.238Y-58.554
X110.638Y-65.504
X110.661Y-69.654
X110.661Y-70.654
X111.288Y-74.654
X111.938Y-70.254
X112.085Y-129.409
X112.827Y-36.249
X112.838Y-74.804
X112.888Y-83.404
X112.927Y-33.789
X112.938Y-38.504
X113.188Y-41.204
X113.388Y-44.554
X113.738Y-77.504
X114.138Y-70.054
X114.288Y-68.004
X115.038Y-89.804
X116.488Y-78.554
X116.638Y-62.954
X116.888Y-74.054
X117.011Y-99.954
X117.038Y-69.104
X117.638Y-40.004
X118.138Y-38.004
X118.188Y-83.504
X118.188Y-84.854
X118.188Y-86.154
X118.538Y-99.954
X118.638Y-102.504
X118.938Y-53.204
X119.538Y-83.504
X119.538Y-86.204
X119.551Y-84.887
X119.588Y-40.104
X119.688Y-108.304
X119.738Y-100.004
X120.388Y-59.904
X120.438Y-68.654
X120.888Y-83.504
X120.888Y-84.854
X120.888Y-86.204
X120.888Y-99.854
X120.988Y-34.254
X121.288Y-63.954
X121.288Y-103.104
X121.773Y-42.245
X121.938Y-95.904
X122.027Y-61.93
X122.088Y-70.204
X122.138Y-39.054
X122.188Y-107.354
X122.288Y-90.504
X122.288Y-116.604
X122.563Y-66.529
X123.038Y-44.954
X123.138Y-38.004
X123.17Y-127.97
X123.17Y-129.494
X123.17Y-131.018
X123.238Y-95.904
X123.361Y-99.582
X123.538Y-40.154
X123.588Y-59.804
X123.738Y-117.704
X124.338Y-57.204
X124.488Y-41.054
X124.538Y-42.504
X124.538Y-55.054
X124.588Y-90.154
X124.631Y-100.754
X124.638Y-35.454
X124.638Y-74.054
X124.948Y-127.97
X124.948Y-129.494
X124.948Y-131.018
X125.888Y-70.204
X126.006Y-62.554
X126.396Y-103.809
X126.726Y-127.97
X126.726Y-129.494
X126.726Y-131.018
X126.938Y-37.404
X127.138Y-40.554
X127.138Y-74.104
X127.988Y-48.404
X128.238Y-66.704
X128.388Y-74.054
X128.788Y-40.604
X129.813Y-39.079
X131.088Y-64.204
X131.088Y-67.104
X131.102Y-44.254
X131.102Y-50.704
X131.102Y-57.804
X131.388Y-102.404
X131.738Y-117.704
X131.788Y-115.704
X133.488Y-107.154
X133.838Y-110.304
X133.988Y-102.354
X134.388Y-51.104
X134.488Y-108.904
X134.715Y-62.481
X135.6Y-64.854
X136.688Y-116.704
X136.988Y-120.654
X137.638Y-95.804
X137.685Y-129.409
X138.833Y-48.454
X138.988Y-95.804
X139.438Y-54.954
X139.938Y-90.104
X140.638Y-61.304
X140.888Y-51.104
X140.888Y-108.854
X142.093Y-106.634
X142.138Y-108.704
X144.588Y-127.904
X145.088Y-95.804
X146.03Y-117.048
X146.03Y-118.318
X146.03Y-119.588
X146.438Y-58.604
X146.988Y-65.104
X147.038Y-63.304
X147.3Y-117.048
X147.3Y-118.318
X147.3Y-119.588
X148.288Y-50.354
X148.488Y-95.654
X148.538Y-57.354
X148.57Y-117.048
X148.57Y-118.318
X148.57Y-119.588
X148.738Y-55.504
X149.588Y-106.854
X149.888Y-72.254
X150.788Y-95.704
X153.188Y-61.004
X153.338Y-77.354
X153.388Y-95.704
X154.238Y-127.854
X154.888Y-95.704
X155.488Y-109.004
X156.338Y-95.704
X159.988Y-106.804
X160.038Y-98.454
T3
X58.986Y-62.575
X58.986Y-63.825
T5
X121.154Y-50.288
X123.154Y-50.288
T6
X75.738Y-43.214
X78.238Y-43.214
X80.238Y-43.214
X82.738Y-43.214
T7
X44.788Y-64.554
X46.907Y-123.144
X90.1Y-46.9
X92.64Y-46.9
X95.18Y-46.9
X111.15Y-135.05
X112.268Y-50.898
X114.768Y-50.898
X137.013Y-36.657
X147.738Y-34.179
X152.238Y-34.179
X158.563Y-48.754
X158.563Y-53.254
X158.563Y-64.604
X158.563Y-69.104
T8
X49.181Y-37.754
X49.681Y-45.054
X53.781Y-33.854
X56.281Y-40.654
X58.981Y-41.854
X146.488Y-36.679
X153.488Y-36.679
X156.063Y-47.504
X156.063Y-54.504
X156.063Y-63.354
X156.063Y-70.354
T9
X147.138Y-131.154
T10
X72.668Y-40.504
X85.808Y-40.504
T4
X97.046Y-32.944G85X97.046Y-32.344
G05
X97.046Y-37.374G85X97.046Y-36.274
G05
X105.686Y-32.944G85X105.686Y-32.344
G05
X105.686Y-37.374G85X105.686Y-36.274
G05
M30
