G04 #@! TF.GenerationSoftware,KiCad,Pcbnew,7.0.1*
G04 #@! TF.CreationDate,2024-01-20T14:02:28+00:00*
G04 #@! TF.ProjectId,gk,676b2e6b-6963-4616-945f-706362585858,rev?*
G04 #@! TF.SameCoordinates,Original*
G04 #@! TF.FileFunction,Copper,L4,Inr*
G04 #@! TF.FilePolarity,Positive*
%FSLAX46Y46*%
G04 Gerber Fmt 4.6, Leading zero omitted, Abs format (unit mm)*
G04 Created by KiCad (PCBNEW 7.0.1) date 2024-01-20 14:02:28*
%MOMM*%
%LPD*%
G01*
G04 APERTURE LIST*
G04 Aperture macros list*
%AMRoundRect*
0 Rectangle with rounded corners*
0 $1 Rounding radius*
0 $2 $3 $4 $5 $6 $7 $8 $9 X,Y pos of 4 corners*
0 Add a 4 corners polygon primitive as box body*
4,1,4,$2,$3,$4,$5,$6,$7,$8,$9,$2,$3,0*
0 Add four circle primitives for the rounded corners*
1,1,$1+$1,$2,$3*
1,1,$1+$1,$4,$5*
1,1,$1+$1,$6,$7*
1,1,$1+$1,$8,$9*
0 Add four rect primitives between the rounded corners*
20,1,$1+$1,$2,$3,$4,$5,0*
20,1,$1+$1,$4,$5,$6,$7,0*
20,1,$1+$1,$6,$7,$8,$9,0*
20,1,$1+$1,$8,$9,$2,$3,0*%
G04 Aperture macros list end*
G04 #@! TA.AperFunction,ComponentPad*
%ADD10R,1.700000X1.700000*%
G04 #@! TD*
G04 #@! TA.AperFunction,ComponentPad*
%ADD11R,2.000000X2.000000*%
G04 #@! TD*
G04 #@! TA.AperFunction,ComponentPad*
%ADD12C,2.000000*%
G04 #@! TD*
G04 #@! TA.AperFunction,ComponentPad*
%ADD13R,3.200000X2.000000*%
G04 #@! TD*
G04 #@! TA.AperFunction,ComponentPad*
%ADD14C,2.200000*%
G04 #@! TD*
G04 #@! TA.AperFunction,ComponentPad*
%ADD15C,1.700000*%
G04 #@! TD*
G04 #@! TA.AperFunction,ComponentPad*
%ADD16R,1.600000X1.600000*%
G04 #@! TD*
G04 #@! TA.AperFunction,ComponentPad*
%ADD17O,1.600000X1.600000*%
G04 #@! TD*
G04 #@! TA.AperFunction,ComponentPad*
%ADD18RoundRect,0.200000X0.200000X0.450000X-0.200000X0.450000X-0.200000X-0.450000X0.200000X-0.450000X0*%
G04 #@! TD*
G04 #@! TA.AperFunction,ComponentPad*
%ADD19O,0.800000X1.300000*%
G04 #@! TD*
G04 #@! TA.AperFunction,ComponentPad*
%ADD20O,1.000000X1.600000*%
G04 #@! TD*
G04 #@! TA.AperFunction,ComponentPad*
%ADD21O,1.000000X2.100000*%
G04 #@! TD*
G04 #@! TA.AperFunction,ComponentPad*
%ADD22C,1.600000*%
G04 #@! TD*
G04 #@! TA.AperFunction,ComponentPad*
%ADD23R,3.500000X3.500000*%
G04 #@! TD*
G04 #@! TA.AperFunction,ComponentPad*
%ADD24RoundRect,0.750000X1.000000X-0.750000X1.000000X0.750000X-1.000000X0.750000X-1.000000X-0.750000X0*%
G04 #@! TD*
G04 #@! TA.AperFunction,ComponentPad*
%ADD25RoundRect,0.875000X0.875000X-0.875000X0.875000X0.875000X-0.875000X0.875000X-0.875000X-0.875000X0*%
G04 #@! TD*
G04 #@! TA.AperFunction,ComponentPad*
%ADD26O,2.200000X4.000000*%
G04 #@! TD*
G04 #@! TA.AperFunction,ComponentPad*
%ADD27O,4.000000X2.200000*%
G04 #@! TD*
G04 #@! TA.AperFunction,ComponentPad*
%ADD28R,2.200000X4.000000*%
G04 #@! TD*
G04 #@! TA.AperFunction,ComponentPad*
%ADD29RoundRect,0.250000X-0.750000X0.600000X-0.750000X-0.600000X0.750000X-0.600000X0.750000X0.600000X0*%
G04 #@! TD*
G04 #@! TA.AperFunction,ComponentPad*
%ADD30O,2.000000X1.700000*%
G04 #@! TD*
G04 #@! TA.AperFunction,ComponentPad*
%ADD31RoundRect,0.250000X0.350000X0.625000X-0.350000X0.625000X-0.350000X-0.625000X0.350000X-0.625000X0*%
G04 #@! TD*
G04 #@! TA.AperFunction,ComponentPad*
%ADD32O,1.200000X1.750000*%
G04 #@! TD*
G04 #@! TA.AperFunction,ViaPad*
%ADD33C,0.800000*%
G04 #@! TD*
G04 #@! TA.AperFunction,ViaPad*
%ADD34C,0.450000*%
G04 #@! TD*
G04 #@! TA.AperFunction,Conductor*
%ADD35C,0.250000*%
G04 #@! TD*
G04 #@! TA.AperFunction,Conductor*
%ADD36C,0.203200*%
G04 #@! TD*
G04 #@! TA.AperFunction,Conductor*
%ADD37C,0.152400*%
G04 #@! TD*
G04 APERTURE END LIST*
D10*
X121920000Y-148590000D03*
D11*
X58790000Y-126430400D03*
D12*
X58790000Y-131430400D03*
X58790000Y-128930400D03*
D13*
X66290000Y-123330400D03*
X66290000Y-134530400D03*
D12*
X73290000Y-131430400D03*
X73290000Y-126430400D03*
D10*
X46990000Y-147320000D03*
D14*
X146725000Y-58400000D03*
X146725000Y-51400000D03*
D15*
X149225000Y-57150000D03*
X149225000Y-52650000D03*
D16*
X85725000Y-34925000D03*
D17*
X93345000Y-34925000D03*
D18*
X52898200Y-51436800D03*
D19*
X51648200Y-51436800D03*
D20*
X102745000Y-175675000D03*
D21*
X102745000Y-171495000D03*
D20*
X94105000Y-175675000D03*
D21*
X94105000Y-171495000D03*
D14*
X146725000Y-42525000D03*
X146725000Y-35525000D03*
D15*
X149225000Y-41275000D03*
X149225000Y-36775000D03*
D16*
X82356887Y-28956000D03*
D22*
X84356887Y-28956000D03*
D16*
X77155113Y-29972000D03*
D22*
X75155113Y-29972000D03*
D16*
X57150000Y-66675000D03*
D17*
X57150000Y-74295000D03*
D23*
X84523500Y-168244000D03*
D24*
X84523500Y-174244000D03*
D25*
X79823500Y-171244000D03*
D14*
X144125000Y-24725000D03*
X137125000Y-24725000D03*
D15*
X142875000Y-22225000D03*
X138375000Y-22225000D03*
D16*
X77155113Y-23368000D03*
D22*
X75155113Y-23368000D03*
D26*
X52007500Y-29850000D03*
X54707500Y-28650000D03*
D27*
X57207500Y-21850000D03*
D28*
X61807500Y-25750000D03*
D27*
X61307500Y-33050000D03*
D29*
X49382000Y-169692000D03*
D30*
X49382000Y-172192000D03*
D31*
X114300000Y-168275000D03*
D32*
X112300000Y-168275000D03*
D33*
X72948800Y-61925200D03*
X72898000Y-65024000D03*
X100787200Y-146608800D03*
X122021600Y-151485600D03*
X96672400Y-146761200D03*
D34*
X80525000Y-56325000D03*
D33*
X143510000Y-161696400D03*
D34*
X80726821Y-61394271D03*
X86214900Y-49575000D03*
D33*
X58724800Y-85140800D03*
X66852800Y-74371200D03*
X109067600Y-22809200D03*
X106629200Y-29870400D03*
X52476400Y-46583600D03*
X57658000Y-110998000D03*
X99777507Y-95030879D03*
X106883200Y-86004400D03*
X127275000Y-171575000D03*
D34*
X81413540Y-78551851D03*
D33*
X89712800Y-166420800D03*
X58978800Y-56134000D03*
X75234800Y-84734400D03*
X110571007Y-87558607D03*
D34*
X100775000Y-49725700D03*
D33*
X128117600Y-46431200D03*
X143002000Y-32105600D03*
X58724800Y-90678000D03*
X111525000Y-159925000D03*
D34*
X81991200Y-66802000D03*
D33*
X149148800Y-145999200D03*
X147472400Y-152044400D03*
X84429600Y-46126400D03*
D34*
X86715600Y-83210400D03*
D33*
X98653600Y-100533200D03*
D34*
X89700000Y-49750000D03*
D33*
X75387200Y-56946800D03*
X89880000Y-53898800D03*
D34*
X92200000Y-58050000D03*
D33*
X112623600Y-45872400D03*
X110439200Y-55118000D03*
X100877022Y-90274801D03*
X95554800Y-98298000D03*
X143510000Y-160477200D03*
X119634000Y-71831200D03*
X108966000Y-28905200D03*
X141173200Y-160477200D03*
X146304000Y-127203200D03*
D34*
X108534200Y-84248698D03*
D33*
X75488800Y-68630800D03*
X75692000Y-61671200D03*
X102108000Y-45516800D03*
X69088000Y-26670000D03*
D34*
X96750000Y-49825000D03*
D33*
X126725000Y-168025000D03*
X148031200Y-169265600D03*
X115722400Y-67818000D03*
X142290800Y-160426400D03*
X117551200Y-51714400D03*
X117100000Y-154400000D03*
X115417600Y-172262800D03*
X62788800Y-93370400D03*
X77927200Y-37541200D03*
X56096500Y-139446000D03*
X65379600Y-40741600D03*
X143764000Y-59842400D03*
X61772800Y-100584000D03*
D34*
X115825000Y-77325000D03*
D33*
X96520000Y-44856400D03*
X115417600Y-173837600D03*
X54102000Y-109220000D03*
D34*
X98625000Y-83650000D03*
D33*
X133400800Y-26771600D03*
X98425000Y-165450000D03*
D34*
X116250000Y-66000000D03*
X109952104Y-50207197D03*
X116200000Y-75550000D03*
X96854049Y-58199300D03*
D33*
X60147200Y-155194000D03*
X141224000Y-159258000D03*
X86895700Y-89662000D03*
X142290800Y-161696400D03*
X53543200Y-83616800D03*
X128168400Y-50139600D03*
D34*
X104225000Y-84875700D03*
D33*
X102209600Y-168757600D03*
X84582000Y-152603200D03*
X64973200Y-34747200D03*
X71932800Y-68884800D03*
X54102000Y-113284000D03*
X147218400Y-84074000D03*
X70002400Y-91744800D03*
X80010000Y-166116000D03*
X87868700Y-53810163D03*
X111404400Y-172466000D03*
X125222000Y-22504400D03*
X132791200Y-164998400D03*
X106222800Y-166827200D03*
X75692000Y-73558400D03*
X115112800Y-21234400D03*
X111252000Y-35763200D03*
X53289200Y-92659200D03*
X117950000Y-165450000D03*
X107150000Y-150300000D03*
X97891600Y-126593600D03*
X123799600Y-60909200D03*
X71932800Y-166217600D03*
X123190000Y-124460000D03*
X147015200Y-100431600D03*
X104795088Y-99981450D03*
X100380800Y-35052000D03*
X141224000Y-161645600D03*
D34*
X81400000Y-74400000D03*
D33*
X104575000Y-150275000D03*
X106400000Y-162000000D03*
X68732400Y-38354000D03*
X134823200Y-113284000D03*
X143510000Y-159258000D03*
D34*
X87925000Y-75200000D03*
D33*
X94386400Y-77978000D03*
D34*
X89525000Y-75300000D03*
X116025000Y-55425000D03*
D33*
X145084800Y-145745200D03*
X119634000Y-79248000D03*
X93319600Y-85852000D03*
X120548400Y-64516000D03*
D34*
X108975000Y-75425000D03*
D33*
X95300800Y-124460000D03*
X53644800Y-176174400D03*
X67818000Y-57556400D03*
X94538800Y-168859200D03*
X72034400Y-139903200D03*
X128117600Y-47548800D03*
X115417600Y-176276000D03*
X76200000Y-78943200D03*
D34*
X98425000Y-75300000D03*
D33*
X75184000Y-76200000D03*
X129387600Y-24536400D03*
X143560800Y-145897600D03*
X46380400Y-110693200D03*
X71526400Y-142392400D03*
X71069200Y-78282800D03*
X77165200Y-34340800D03*
X75895200Y-85648800D03*
X142341600Y-159258000D03*
X97129600Y-54711600D03*
X48666400Y-104902000D03*
X119583200Y-76200000D03*
D34*
X95628483Y-83705488D03*
X116225000Y-70500000D03*
D33*
X134670800Y-140411200D03*
D34*
X94400000Y-75200000D03*
D33*
X47955200Y-67106800D03*
X54102000Y-114808000D03*
D34*
X116275000Y-62500000D03*
D33*
X69189600Y-24739600D03*
D34*
X81175000Y-62325000D03*
D33*
X130810000Y-28549600D03*
X119735600Y-36118800D03*
D34*
X116200000Y-72800000D03*
X98119971Y-157875000D03*
X99275000Y-168600000D03*
X98875000Y-167350000D03*
X98700000Y-168950000D03*
X98150000Y-168125000D03*
X98975000Y-156950000D03*
D33*
X95825000Y-159500000D03*
X100975000Y-159350000D03*
X98350000Y-159300000D03*
X119025000Y-175400000D03*
X108975000Y-170475000D03*
X110693200Y-84785200D03*
X97383600Y-85852000D03*
X92456000Y-42214800D03*
X150977600Y-130708400D03*
X139039600Y-117957600D03*
X104775000Y-144800000D03*
X116789200Y-61112400D03*
X76758800Y-169265600D03*
X116382800Y-52933600D03*
D34*
X81775000Y-61925000D03*
D33*
X94589600Y-85902800D03*
X78181200Y-47853600D03*
X57962800Y-144729200D03*
X65532000Y-102006400D03*
X116738400Y-65024000D03*
X49377600Y-164947600D03*
X91846400Y-55829200D03*
X110693200Y-86156800D03*
X106934000Y-24942800D03*
X124358400Y-131572000D03*
X139649200Y-142798800D03*
X75133200Y-82905600D03*
X118465600Y-71882000D03*
X148082000Y-28854400D03*
X84582000Y-50038000D03*
X80822800Y-57759600D03*
X130200400Y-21996400D03*
X76250800Y-77063600D03*
X96418400Y-126796800D03*
X47955200Y-68986400D03*
X80924400Y-67462400D03*
X125679200Y-33274000D03*
X86461600Y-55626000D03*
X148031200Y-64566800D03*
X142490000Y-151176800D03*
X118059200Y-76149200D03*
X48260000Y-120446800D03*
X138176000Y-151841200D03*
X85902800Y-79197200D03*
X87239207Y-83847299D03*
X128524000Y-45364400D03*
X100076000Y-96469200D03*
X80670400Y-37439600D03*
X118059200Y-79146400D03*
X101041200Y-131318000D03*
X95910400Y-77927200D03*
X117144800Y-21234400D03*
X86817200Y-136804400D03*
X97129600Y-55727600D03*
X97361043Y-100495343D03*
X129692400Y-167182800D03*
X91846400Y-46380400D03*
X99872800Y-100533200D03*
X110337600Y-56743600D03*
X76708000Y-143002000D03*
X109158771Y-49982635D03*
X92025000Y-75184000D03*
X92710000Y-135585200D03*
X95214500Y-46771185D03*
X60858400Y-56134000D03*
X89103200Y-155498800D03*
X46278800Y-113182400D03*
X102158800Y-46888400D03*
X68732400Y-37185600D03*
X66344800Y-91592400D03*
X75692000Y-63855600D03*
X88900000Y-48971200D03*
X116687600Y-56235600D03*
X80162400Y-65735200D03*
X104190800Y-79400400D03*
D34*
X67411600Y-40792400D03*
X124764800Y-52222400D03*
X75742800Y-75590400D03*
X124510800Y-40436800D03*
X73964800Y-76657200D03*
D33*
X104931571Y-111740287D03*
X68935600Y-113284000D03*
D34*
X106832400Y-48260000D03*
X126644400Y-28600400D03*
D33*
X75082400Y-32359600D03*
D34*
X123647200Y-108559600D03*
X116281200Y-108712000D03*
X108845602Y-79931401D03*
X113334800Y-108864400D03*
X106426000Y-108762800D03*
X107086400Y-108204000D03*
X113334800Y-107899200D03*
X116332000Y-107797600D03*
X142544800Y-115519200D03*
X109373415Y-80043100D03*
X123748800Y-57810400D03*
X130708400Y-58877200D03*
X122986800Y-52882800D03*
X124002800Y-57150000D03*
X113233200Y-50749200D03*
X131521200Y-58826400D03*
X110591600Y-53492400D03*
X122529600Y-52273200D03*
X110591600Y-79654400D03*
X76758800Y-139700000D03*
X113030000Y-82854800D03*
X98348800Y-141579600D03*
X113748039Y-84032057D03*
X109884853Y-79689500D03*
X113233200Y-83870800D03*
X112420400Y-82550000D03*
X63652400Y-83616800D03*
X131572000Y-82550000D03*
X116128800Y-109880400D03*
X111353600Y-79705200D03*
X97231200Y-122072400D03*
X113792000Y-82550000D03*
X113284000Y-109829600D03*
X127558800Y-109220000D03*
X111607600Y-75946000D03*
X117703600Y-50241200D03*
X116789200Y-42875200D03*
X104038400Y-75946000D03*
X113639600Y-52425600D03*
X132029200Y-43230800D03*
X102870000Y-80010000D03*
X113861934Y-83343666D03*
X109726030Y-83159764D03*
X134620000Y-81940400D03*
X83718400Y-44500800D03*
X83820000Y-40995600D03*
X66090800Y-48361600D03*
X66243200Y-80314800D03*
X131876800Y-26466800D03*
X95046800Y-44805600D03*
X100851000Y-122174000D03*
X113792000Y-110845600D03*
X146304000Y-112776000D03*
X136702800Y-110794800D03*
X116027200Y-110845600D03*
X96570800Y-39827200D03*
X78994000Y-100025200D03*
X84023200Y-149758400D03*
X109169200Y-176326800D03*
X81991200Y-53797200D03*
D33*
X102819200Y-167436800D03*
X99822000Y-167741600D03*
X93675200Y-167690800D03*
X97129600Y-167690800D03*
D34*
X106172000Y-47853600D03*
X120548400Y-21082000D03*
X122377200Y-37998400D03*
X105664000Y-47447200D03*
X119430800Y-21132800D03*
X121107200Y-37033200D03*
X103581200Y-47498000D03*
X117856000Y-36068000D03*
X118364000Y-21132800D03*
X116128800Y-21132800D03*
X104648000Y-45466000D03*
X116128800Y-35458400D03*
X119532400Y-58877200D03*
X114046000Y-21132800D03*
X118516400Y-58724800D03*
X112928400Y-21132800D03*
X120040400Y-45059600D03*
X112268000Y-47091600D03*
X95148400Y-50495200D03*
X113284000Y-49987200D03*
X113334800Y-47396400D03*
X92608400Y-45923200D03*
X103327200Y-41757600D03*
X114350800Y-50088800D03*
X62890400Y-48260000D03*
X111404400Y-57353200D03*
X103327200Y-45008800D03*
D33*
X58521600Y-104597200D03*
X105664000Y-112420400D03*
X58826400Y-109524800D03*
D34*
X86055200Y-39268400D03*
X86918800Y-50546000D03*
X56642000Y-45415200D03*
X69138800Y-51308000D03*
X85344000Y-54254400D03*
X99201498Y-90704034D03*
X112623600Y-176225200D03*
X110845600Y-91440000D03*
X97891600Y-96520000D03*
X65328800Y-48209200D03*
X97774300Y-91344619D03*
X66548000Y-89763600D03*
X98501200Y-96570800D03*
X113385600Y-176225200D03*
X111302800Y-90678000D03*
X66141600Y-89255600D03*
X98348800Y-90576400D03*
X64312800Y-48260000D03*
X139039600Y-145592800D03*
X113385600Y-115874800D03*
X114909600Y-76454000D03*
X115976400Y-115874800D03*
X111556800Y-116840000D03*
X115620800Y-75946000D03*
X129540001Y-144019999D03*
X140969998Y-132590001D03*
X118110002Y-132590000D03*
X129540001Y-121160002D03*
X64315000Y-143509998D03*
X66040002Y-169419999D03*
X54610002Y-157990000D03*
X77470002Y-157990000D03*
X90170002Y-132590000D03*
X75844400Y-52832000D03*
X130251200Y-40995600D03*
X130251200Y-163931600D03*
X113334800Y-42773600D03*
X108610400Y-47447200D03*
X117500400Y-136296400D03*
X74980800Y-54051200D03*
X70002400Y-54508400D03*
X83718400Y-84582000D03*
X94538800Y-100787200D03*
X85953600Y-101295200D03*
X81584800Y-55778400D03*
X84785200Y-84886800D03*
X66237900Y-93426500D03*
X67614800Y-87223600D03*
X85699600Y-58420000D03*
X68834000Y-86664800D03*
X85140800Y-58928000D03*
X84175600Y-85140800D03*
X80575814Y-59689252D03*
X85039200Y-108356400D03*
X74422000Y-108610400D03*
X78994000Y-82550000D03*
X82042000Y-60045600D03*
X83312000Y-85242400D03*
X85445600Y-105460800D03*
X81205352Y-60760883D03*
X84582000Y-100685600D03*
X82905600Y-84632800D03*
X91744800Y-100736400D03*
X105650000Y-62175000D03*
X105675000Y-66050000D03*
X106575000Y-66700000D03*
X106500000Y-62225000D03*
X107175000Y-62925000D03*
X107300000Y-67425000D03*
X108050000Y-62275000D03*
X108025000Y-68075000D03*
X107975000Y-69075000D03*
X107300000Y-69750000D03*
X83261200Y-94284800D03*
X81838800Y-68478400D03*
X82071503Y-84698700D03*
X103581200Y-93929200D03*
X81026000Y-69088000D03*
X81229200Y-80416400D03*
X82702400Y-93624400D03*
X102850276Y-93504914D03*
X105562400Y-92862400D03*
X83972400Y-93065600D03*
X82448400Y-85191600D03*
X82346800Y-69443600D03*
X82651600Y-107492800D03*
X80822800Y-81076800D03*
X101092000Y-107594400D03*
X81026000Y-69951600D03*
X76504800Y-110744000D03*
X80518000Y-70408800D03*
X80314800Y-110744000D03*
X86475000Y-56650000D03*
X86200000Y-72375000D03*
X100075000Y-56625000D03*
X100000000Y-59300000D03*
X76403200Y-75488800D03*
X102450000Y-70425000D03*
X85700000Y-73400000D03*
X102450000Y-59450000D03*
X85775000Y-70575000D03*
X86925000Y-71200000D03*
X86750000Y-73825000D03*
X101650000Y-71125000D03*
X88849200Y-112522000D03*
X82956400Y-112471200D03*
X81764999Y-76236976D03*
X83362800Y-100126800D03*
X81635600Y-81178400D03*
X80619600Y-76809600D03*
X81229200Y-98755200D03*
X89560400Y-110286800D03*
X80670400Y-83007200D03*
X80975200Y-110083600D03*
X81076800Y-82499200D03*
X80933134Y-77264332D03*
X89411511Y-109170705D03*
X81534000Y-109169200D03*
X81381600Y-79603600D03*
X91948000Y-112014000D03*
X86360000Y-112064800D03*
X86715600Y-105003600D03*
X86817200Y-109813900D03*
X85293200Y-79959200D03*
X95808800Y-112064800D03*
X88036400Y-75895200D03*
X87274400Y-108559600D03*
X88747600Y-76149200D03*
X88544400Y-106629200D03*
X89814400Y-113893600D03*
X93624400Y-113842800D03*
X90271600Y-106629200D03*
X86106000Y-104394000D03*
X93268800Y-109016800D03*
X90728800Y-82905600D03*
X85496400Y-107950000D03*
X93522800Y-104495600D03*
X88470599Y-104425607D03*
X90728800Y-79756000D03*
X90627200Y-104444800D03*
X91287600Y-105336199D03*
X91236800Y-83667600D03*
X90932000Y-112623600D03*
X95148400Y-112674400D03*
X91694000Y-80111600D03*
X92303600Y-37084000D03*
X77114400Y-37084000D03*
X92252800Y-109474000D03*
X104504900Y-109459515D03*
X92151200Y-82651600D03*
X93000000Y-63975000D03*
X101600000Y-59425000D03*
X101675000Y-63950000D03*
X92675000Y-80111600D03*
X93125000Y-83875000D03*
X106650000Y-74925000D03*
X107825000Y-83550000D03*
X105700000Y-74875000D03*
X107150000Y-84025000D03*
X93725000Y-84400000D03*
X106425000Y-83600000D03*
X104850000Y-74750000D03*
X94225000Y-83675000D03*
X95000000Y-84875000D03*
X104050000Y-74700000D03*
X105700000Y-84375000D03*
X94700000Y-65425000D03*
X95225000Y-79750000D03*
X104925000Y-65425000D03*
X105125000Y-62950000D03*
X102975000Y-79000000D03*
X96062800Y-79806800D03*
X103175000Y-74650000D03*
X96725000Y-83675000D03*
X96774000Y-79806800D03*
X96225000Y-58925000D03*
X93625000Y-58900000D03*
X95100000Y-58250000D03*
X97675000Y-79850000D03*
X97400000Y-58700000D03*
X98348800Y-80060800D03*
X95950000Y-59600000D03*
X97875000Y-59300000D03*
X100200000Y-85825000D03*
X99425000Y-62875000D03*
X100000000Y-77025000D03*
X100899650Y-85675103D03*
X101417399Y-85523450D03*
X95975000Y-75825000D03*
X100725000Y-75900000D03*
X101600000Y-86250000D03*
X101225000Y-74700000D03*
X95250000Y-74125000D03*
X93600000Y-74625000D03*
X101825000Y-75400000D03*
X102050000Y-86614000D03*
X93650000Y-76500000D03*
X102175000Y-76500000D03*
X102505557Y-86288447D03*
X92862400Y-110896400D03*
X103124000Y-111506000D03*
X103174800Y-86004400D03*
X107188000Y-84937600D03*
X105867200Y-106222800D03*
X87172800Y-106476800D03*
X86817200Y-107086400D03*
X107950000Y-84937600D03*
X107899200Y-106578400D03*
X90373200Y-79248000D03*
X91225000Y-74650000D03*
X90425000Y-73761600D03*
X90678000Y-78130400D03*
X88825000Y-75438000D03*
X114401600Y-76911200D03*
X88825000Y-62150000D03*
X109950000Y-64550000D03*
X88775000Y-64550000D03*
X110150000Y-74450000D03*
X90450000Y-63425000D03*
X110475000Y-63475000D03*
X110725000Y-73850000D03*
X111250000Y-70425000D03*
X120634300Y-66900000D03*
X103500000Y-70425000D03*
X111225000Y-66925000D03*
X115675000Y-58625000D03*
X111252000Y-58318400D03*
X103375000Y-58525000D03*
X115625000Y-64825000D03*
X103875000Y-59200000D03*
X111302800Y-59385200D03*
X115125000Y-59385200D03*
X115125000Y-64275000D03*
X122428000Y-63804800D03*
X113639600Y-103174800D03*
X86207600Y-103276400D03*
X84429600Y-103784400D03*
X112572800Y-103784400D03*
X123139200Y-63398400D03*
X109450000Y-74500000D03*
X100800000Y-73975000D03*
X109550000Y-62800000D03*
X124053600Y-59486800D03*
X112572800Y-105003600D03*
X97586800Y-105003600D03*
X122869500Y-58623200D03*
X103835200Y-97637600D03*
X103886000Y-92405200D03*
X122275600Y-92862400D03*
X113436400Y-97586800D03*
X97282000Y-92405200D03*
X115925600Y-97332800D03*
X93573600Y-102057200D03*
X113487200Y-102057200D03*
X111225000Y-48775000D03*
X120396000Y-69189600D03*
X110998000Y-46278800D03*
X129336800Y-42062400D03*
X96977200Y-89408000D03*
X113538000Y-88900000D03*
X96926400Y-96469200D03*
X126898400Y-69240400D03*
X114350800Y-42468800D03*
X115925600Y-95605600D03*
X118160800Y-92811600D03*
X113487200Y-95656400D03*
X90271600Y-95707200D03*
X108050000Y-48650000D03*
X104300000Y-62950000D03*
X104775000Y-54000000D03*
X91300000Y-62875000D03*
X104325000Y-54425000D03*
X92825000Y-62350000D03*
X104050000Y-62325000D03*
X113487200Y-93776800D03*
X102325000Y-48550000D03*
X96570800Y-95300800D03*
X131267200Y-159867600D03*
X131927600Y-160985200D03*
X132638800Y-158902400D03*
X112928400Y-89560400D03*
X95720000Y-89814400D03*
X115925600Y-87528400D03*
X98525000Y-47975000D03*
X123698000Y-84988400D03*
X99872800Y-91897200D03*
X97775000Y-47875000D03*
X76733400Y-91567000D03*
X77063600Y-80975200D03*
X100800000Y-58750000D03*
X95525000Y-49275000D03*
X101750000Y-49750000D03*
X133400800Y-162001200D03*
X78130400Y-80975200D03*
X87050000Y-47990700D03*
X76200000Y-97536000D03*
X94640400Y-96621600D03*
X77012800Y-98247200D03*
X94284800Y-97231200D03*
X78841600Y-81026000D03*
X86575000Y-48825000D03*
X99200000Y-58675000D03*
X99200000Y-48700000D03*
X91275000Y-48750000D03*
X98275000Y-53975000D03*
X100027443Y-70822738D03*
X87630000Y-49276000D03*
X87477600Y-40233600D03*
X86918800Y-38811200D03*
X87172800Y-49936400D03*
X86563200Y-84937600D03*
X87731600Y-84785200D03*
X89052400Y-83566000D03*
X88341200Y-138430000D03*
X81940400Y-133248400D03*
X83210400Y-135534400D03*
X93776800Y-136855200D03*
X97383600Y-135585200D03*
X98044000Y-133451600D03*
X92659200Y-136804400D03*
X94691200Y-138430000D03*
D33*
X83312000Y-129336800D03*
X81584800Y-129336800D03*
D34*
X83159600Y-140462000D03*
X81635600Y-140512800D03*
X89204800Y-136448800D03*
X89052400Y-134467600D03*
X113436400Y-112572800D03*
X110794800Y-62128400D03*
X84785200Y-122123200D03*
X113487200Y-111760000D03*
X87528400Y-121666000D03*
X110642400Y-60096400D03*
X71983600Y-120142000D03*
X86817200Y-53492400D03*
X82397600Y-52374800D03*
X89966800Y-121158000D03*
D33*
X70104000Y-81838800D03*
X75590400Y-58216800D03*
X135686800Y-79451200D03*
X136448800Y-105714800D03*
X109075000Y-153700000D03*
X117525000Y-157800000D03*
X104394000Y-158496000D03*
X118175000Y-161544000D03*
X127475000Y-175225000D03*
D35*
X110134400Y-90678000D02*
X110134400Y-96316800D01*
X99618800Y-144068800D02*
X99618800Y-154940000D01*
X112014000Y-88798400D02*
X110134400Y-90678000D01*
X100975000Y-156296200D02*
X100975000Y-159350000D01*
X112014000Y-86106000D02*
X112014000Y-88798400D01*
X110693200Y-84785200D02*
X112014000Y-86106000D01*
X110083600Y-133604000D02*
X99618800Y-144068800D01*
X110134400Y-96316800D02*
X110083600Y-96367600D01*
X99618800Y-154940000D02*
X100975000Y-156296200D01*
X110083600Y-96367600D02*
X110083600Y-133604000D01*
D36*
X57150000Y-65684400D02*
X57150000Y-66675000D01*
X68173600Y-41554400D02*
X68173600Y-54660800D01*
X68173600Y-54660800D02*
X57150000Y-65684400D01*
X124764800Y-40690800D02*
X124510800Y-40436800D01*
X124764800Y-52222400D02*
X124764800Y-40690800D01*
X67411600Y-40792400D02*
X68173600Y-41554400D01*
D37*
X111861600Y-70764400D02*
X111861600Y-65532000D01*
X111607600Y-71018400D02*
X111861600Y-70764400D01*
X111912400Y-54000400D02*
X113487200Y-52425600D01*
X112115600Y-58978800D02*
X111912400Y-58775600D01*
X117703600Y-50241200D02*
X117703600Y-43789600D01*
X113487200Y-52425600D02*
X113639600Y-52425600D01*
X111861600Y-65532000D02*
X111861600Y-59232800D01*
X104038400Y-78536800D02*
X104038400Y-75946000D01*
X111607600Y-75946000D02*
X111607600Y-71018400D01*
X103581200Y-78994000D02*
X104038400Y-78536800D01*
X102870000Y-79705200D02*
X103581200Y-78994000D01*
X111861600Y-59232800D02*
X112115600Y-58978800D01*
X111912400Y-58775600D02*
X111912400Y-54000400D01*
X117703600Y-43789600D02*
X116789200Y-42875200D01*
X102870000Y-80010000D02*
X102870000Y-79705200D01*
X79857600Y-63855600D02*
X81026000Y-65024000D01*
X78994000Y-99477098D02*
X78994000Y-100025200D01*
X79768099Y-67348701D02*
X79768099Y-98702999D01*
X79768099Y-98702999D02*
X78994000Y-99477098D01*
X81991200Y-53797200D02*
X79857600Y-55930800D01*
X79857600Y-55930800D02*
X79857600Y-63855600D01*
X81026000Y-66090800D02*
X79768099Y-67348701D01*
X81026000Y-65024000D02*
X81026000Y-66090800D01*
X122518400Y-27468400D02*
X122118400Y-27468400D01*
X120548400Y-21082000D02*
X120548400Y-23977600D01*
X122456241Y-34275600D02*
X122118400Y-34275600D01*
X122377200Y-36220400D02*
X122377200Y-37998400D01*
X122118400Y-33675600D02*
X122456241Y-33675600D01*
X122118400Y-26868400D02*
X122518400Y-26868400D01*
X122118400Y-27468400D02*
X121593400Y-27468400D01*
X121818400Y-28443400D02*
X121818400Y-33375600D01*
X121818400Y-35661600D02*
X122377200Y-36220400D01*
X121818400Y-34575600D02*
X121818400Y-35661600D01*
X121368400Y-27693400D02*
X121368400Y-27843400D01*
X121818400Y-28293400D02*
X121818400Y-28443400D01*
X120548400Y-23977600D02*
X121818400Y-25247600D01*
X121818400Y-25247600D02*
X121818400Y-26568400D01*
X122518400Y-27468400D02*
G75*
G03*
X122818400Y-27168400I0J300000D01*
G01*
X122118400Y-34275600D02*
G75*
G03*
X121818400Y-34575600I0J-300000D01*
G01*
X122456241Y-34275641D02*
G75*
G03*
X122756241Y-33975600I-41J300041D01*
G01*
X121368400Y-27843400D02*
G75*
G03*
X121593400Y-28068400I225000J0D01*
G01*
X121818400Y-26568400D02*
G75*
G03*
X122118400Y-26868400I300000J0D01*
G01*
X121818400Y-28293400D02*
G75*
G03*
X121593400Y-28068400I-225000J0D01*
G01*
X121593400Y-27468400D02*
G75*
G03*
X121368400Y-27693400I0J-225000D01*
G01*
X122818400Y-27168400D02*
G75*
G03*
X122518400Y-26868400I-300000J0D01*
G01*
X121818400Y-33375600D02*
G75*
G03*
X122118400Y-33675600I300000J0D01*
G01*
X122756200Y-33975600D02*
G75*
G03*
X122456241Y-33675600I-300000J0D01*
G01*
X120465634Y-30838200D02*
X121107200Y-30838200D01*
X121289114Y-30238200D02*
X120465634Y-30238200D01*
X121289115Y-30238200D02*
X121289114Y-30238200D01*
X119430800Y-21132800D02*
X119430800Y-23876000D01*
X121471029Y-32220114D02*
X121471029Y-32456286D01*
X121107200Y-32820114D02*
X121107200Y-33013200D01*
X121471029Y-29777028D02*
X121471029Y-30056286D01*
X121482800Y-31026000D02*
X121482800Y-31250400D01*
X121107200Y-31438200D02*
X120465634Y-31438200D01*
X121289114Y-29595114D02*
X121289115Y-29595114D01*
X121107200Y-25552400D02*
X121107200Y-29413200D01*
X121289115Y-32638200D02*
X121289114Y-32638200D01*
X121107200Y-30838200D02*
X121295000Y-30838200D01*
X121107200Y-32038200D02*
X121289115Y-32038200D01*
X119430800Y-23876000D02*
X121107200Y-25552400D01*
X120465634Y-32038200D02*
X121107200Y-32038200D01*
X121295000Y-31438200D02*
X121107200Y-31438200D01*
X121107200Y-33013200D02*
X121107200Y-37033200D01*
X120165600Y-30538200D02*
G75*
G03*
X120465634Y-30838200I300000J0D01*
G01*
X121295000Y-31438200D02*
G75*
G03*
X121482800Y-31250400I0J187800D01*
G01*
X121482800Y-31026000D02*
G75*
G03*
X121295000Y-30838200I-187800J0D01*
G01*
X120465634Y-30238234D02*
G75*
G03*
X120165634Y-30538200I-34J-299966D01*
G01*
X121107186Y-29413200D02*
G75*
G03*
X121289114Y-29595114I181914J0D01*
G01*
X121289114Y-32638200D02*
G75*
G03*
X121107200Y-32820114I-14J-181900D01*
G01*
X120465634Y-31438234D02*
G75*
G03*
X120165634Y-31738200I-34J-299966D01*
G01*
X121289115Y-32638229D02*
G75*
G03*
X121471029Y-32456286I-15J181929D01*
G01*
X120165600Y-31738200D02*
G75*
G03*
X120465634Y-32038200I300000J0D01*
G01*
X121471000Y-32220114D02*
G75*
G03*
X121289115Y-32038200I-181900J14D01*
G01*
X121289115Y-30238229D02*
G75*
G03*
X121471029Y-30056286I-15J181929D01*
G01*
X121470986Y-29777028D02*
G75*
G03*
X121289115Y-29595114I-181886J28D01*
G01*
X117856000Y-32860800D02*
X117856000Y-34861846D01*
X117856000Y-31960800D02*
X117295966Y-31960800D01*
X117295979Y-31360800D02*
X117856000Y-31360800D01*
X117856000Y-34861846D02*
X117856000Y-36068000D01*
X117556000Y-30160800D02*
X118416021Y-30160800D01*
X117556000Y-29560800D02*
X117295966Y-29560800D01*
X118364000Y-21132800D02*
X117856000Y-21640800D01*
X118416021Y-30760800D02*
X117856000Y-30760800D01*
X117295966Y-30160800D02*
X117556000Y-30160800D01*
X117856000Y-21640800D02*
X117856000Y-29260800D01*
X117856000Y-31360800D02*
X118416008Y-31360800D01*
X117856000Y-30760800D02*
X117295979Y-30760800D01*
X118416008Y-31960800D02*
X117856000Y-31960800D01*
X117295966Y-32560800D02*
X117556000Y-32560800D01*
X117295979Y-30760779D02*
G75*
G03*
X116995979Y-31060800I21J-300021D01*
G01*
X118716000Y-30460800D02*
G75*
G03*
X118416021Y-30160800I-300000J0D01*
G01*
X117295966Y-31960766D02*
G75*
G03*
X116995966Y-32260800I34J-300034D01*
G01*
X118416021Y-30760821D02*
G75*
G03*
X118716021Y-30460800I-21J300021D01*
G01*
X117556000Y-29560800D02*
G75*
G03*
X117856000Y-29260800I0J300000D01*
G01*
X118416008Y-31960808D02*
G75*
G03*
X118716008Y-31660800I-8J300008D01*
G01*
X118716000Y-31660800D02*
G75*
G03*
X118416008Y-31360800I-300000J0D01*
G01*
X116996000Y-31060800D02*
G75*
G03*
X117295979Y-31360800I300000J0D01*
G01*
X117295966Y-29560766D02*
G75*
G03*
X116995966Y-29860800I34J-300034D01*
G01*
X116996000Y-29860800D02*
G75*
G03*
X117295966Y-30160800I300000J0D01*
G01*
X116996000Y-32260800D02*
G75*
G03*
X117295966Y-32560800I300000J0D01*
G01*
X117856000Y-32860800D02*
G75*
G03*
X117556000Y-32560800I-300000J0D01*
G01*
X116731695Y-28741200D02*
X116428800Y-28741200D01*
X115525879Y-25741200D02*
X115828800Y-25741200D01*
X116128800Y-32756162D02*
X116128800Y-35458400D01*
X115828800Y-25141200D02*
X115525879Y-25141200D01*
X116128800Y-21132800D02*
X116128800Y-24841200D01*
X116128800Y-27541200D02*
X115525879Y-27541200D01*
X116128800Y-26341200D02*
X115525879Y-26341200D01*
X116128800Y-26941200D02*
X116731695Y-26941200D01*
X116731695Y-27541200D02*
X116128800Y-27541200D01*
X116128800Y-29041200D02*
X116128800Y-32756162D01*
X116128800Y-28141200D02*
X116731695Y-28141200D01*
X115525879Y-28141200D02*
X116128800Y-28141200D01*
X116731695Y-26341200D02*
X116128800Y-26341200D01*
X115828800Y-25741200D02*
X116731695Y-25741200D01*
X115525879Y-26941200D02*
X116128800Y-26941200D01*
X115225900Y-25441200D02*
G75*
G03*
X115525879Y-25741200I300000J0D01*
G01*
X115225900Y-27841200D02*
G75*
G03*
X115525879Y-28141200I300000J0D01*
G01*
X116428800Y-28741200D02*
G75*
G03*
X116128800Y-29041200I0J-300000D01*
G01*
X115225900Y-26641200D02*
G75*
G03*
X115525879Y-26941200I300000J0D01*
G01*
X115525879Y-27541179D02*
G75*
G03*
X115225879Y-27841200I21J-300021D01*
G01*
X116731695Y-28741195D02*
G75*
G03*
X117031695Y-28441200I5J299995D01*
G01*
X115525879Y-26341179D02*
G75*
G03*
X115225879Y-26641200I21J-300021D01*
G01*
X117031700Y-26041200D02*
G75*
G03*
X116731695Y-25741200I-300000J0D01*
G01*
X116731695Y-27541195D02*
G75*
G03*
X117031695Y-27241200I5J299995D01*
G01*
X117031700Y-27241200D02*
G75*
G03*
X116731695Y-26941200I-300000J0D01*
G01*
X116731695Y-26341195D02*
G75*
G03*
X117031695Y-26041200I5J299995D01*
G01*
X115525879Y-25141179D02*
G75*
G03*
X115225879Y-25441200I21J-300021D01*
G01*
X117031700Y-28441200D02*
G75*
G03*
X116731695Y-28141200I-300000J0D01*
G01*
X115828800Y-25141200D02*
G75*
G03*
X116128800Y-24841200I0J300000D01*
G01*
X119532400Y-42672000D02*
X114046000Y-37185600D01*
X119532400Y-58877200D02*
X119532400Y-42672000D01*
X114046000Y-37185600D02*
X114046000Y-21132800D01*
X118516400Y-43129200D02*
X118516400Y-58724800D01*
X112628400Y-25242800D02*
X112361175Y-25242800D01*
X112928400Y-37541200D02*
X118516400Y-43129200D01*
X112928400Y-30111005D02*
X112928400Y-37541200D01*
X112361175Y-25842800D02*
X112628400Y-25842800D01*
X112928400Y-26142800D02*
X112928400Y-30111005D01*
X112928400Y-21132800D02*
X112928400Y-24942800D01*
X112061200Y-25542800D02*
G75*
G03*
X112361175Y-25842800I300000J0D01*
G01*
X112628400Y-25242800D02*
G75*
G03*
X112928400Y-24942800I0J300000D01*
G01*
X112928400Y-26142800D02*
G75*
G03*
X112628400Y-25842800I-300000J0D01*
G01*
X112361175Y-25242775D02*
G75*
G03*
X112061175Y-25542800I25J-300025D01*
G01*
X86715600Y-49237641D02*
X87528400Y-48424841D01*
X86715600Y-50342800D02*
X86715600Y-49428400D01*
X87528400Y-47396400D02*
X87528400Y-43180000D01*
X86055200Y-41706800D02*
X86055200Y-39268400D01*
X87528400Y-43180000D02*
X86664800Y-42316400D01*
X86918800Y-50546000D02*
X86715600Y-50342800D01*
X87528400Y-48424841D02*
X87528400Y-47396400D01*
X86664800Y-42316400D02*
X86055200Y-41706800D01*
X86715600Y-49428400D02*
X86715600Y-49237641D01*
X85344000Y-54254400D02*
X85344000Y-53746400D01*
X83769200Y-52171600D02*
X82905600Y-51308000D01*
X85344000Y-53746400D02*
X83769200Y-52171600D01*
X82905600Y-51308000D02*
X69138800Y-51308000D01*
X97774300Y-91344619D02*
X98560913Y-91344619D01*
X111760000Y-111607600D02*
X111048800Y-110896400D01*
X111048800Y-103784400D02*
X111048800Y-91643200D01*
X111861600Y-134874000D02*
X111861600Y-117906800D01*
X111861600Y-117906800D02*
X112369600Y-117398800D01*
X105511600Y-154076400D02*
X108966000Y-150622000D01*
X109829600Y-161848800D02*
X105511600Y-157530800D01*
X112623600Y-171958000D02*
X109829600Y-169164000D01*
X112623600Y-176225200D02*
X112623600Y-171958000D01*
X105511600Y-157530800D02*
X105511600Y-154076400D01*
X108966000Y-150622000D02*
X109321600Y-150266400D01*
X111048800Y-110896400D02*
X111048800Y-103784400D01*
X109321600Y-137414000D02*
X111861600Y-134874000D01*
X109321600Y-150266400D02*
X109321600Y-138531600D01*
X109321600Y-138531600D02*
X109321600Y-137414000D01*
X112369600Y-117398800D02*
X112369600Y-112217200D01*
X98560913Y-91344619D02*
X99201498Y-90704034D01*
X112369600Y-112217200D02*
X111760000Y-111607600D01*
X111048800Y-91643200D02*
X110845600Y-91440000D01*
X109829600Y-169164000D02*
X109829600Y-161848800D01*
X111760000Y-135788400D02*
X112471200Y-135077200D01*
X111506000Y-110490000D02*
X111506000Y-106375200D01*
X113385600Y-171907200D02*
X112623600Y-171145200D01*
X113385600Y-176225200D02*
X113385600Y-171907200D01*
X111506000Y-90881200D02*
X111302800Y-90678000D01*
X110286800Y-161340800D02*
X109169200Y-160223200D01*
X112623600Y-171145200D02*
X110286800Y-168808400D01*
X110286800Y-168808400D02*
X110286800Y-166928800D01*
X112471200Y-133604000D02*
X112471200Y-118110000D01*
X112776000Y-111760000D02*
X112420400Y-111404400D01*
X105968800Y-157022800D02*
X105968800Y-154736800D01*
X111506000Y-106375200D02*
X111506000Y-90881200D01*
X112420400Y-111404400D02*
X111506000Y-110490000D01*
X109169200Y-160223200D02*
X105968800Y-157022800D01*
X112471200Y-135077200D02*
X112471200Y-133604000D01*
X112776000Y-117805200D02*
X112776000Y-111760000D01*
X109982000Y-150012400D02*
X109982000Y-137566400D01*
X110286800Y-166928800D02*
X110286800Y-161340800D01*
X109982000Y-150723600D02*
X109982000Y-150012400D01*
X105968800Y-154736800D02*
X109982000Y-150723600D01*
X112471200Y-118110000D02*
X112776000Y-117805200D01*
X109982000Y-137566400D02*
X111760000Y-135788400D01*
D35*
X63246000Y-129590800D02*
X63246000Y-142440998D01*
X63246000Y-142440998D02*
X64315000Y-143509998D01*
X60085600Y-126430400D02*
X63246000Y-129590800D01*
X58790000Y-126430400D02*
X60085600Y-126430400D01*
X52425600Y-158800800D02*
X63044799Y-169419999D01*
X63044799Y-169419999D02*
X66040002Y-169419999D01*
X52425600Y-137794800D02*
X52425600Y-158800800D01*
X58790000Y-131430400D02*
X52425600Y-137794800D01*
X58064400Y-152501600D02*
X56591200Y-152501600D01*
X73290000Y-131430400D02*
X73290000Y-132844613D01*
X68376800Y-146608800D02*
X64312800Y-150672800D01*
X64312800Y-150672800D02*
X59893200Y-150672800D01*
X68376800Y-141173200D02*
X68376800Y-146608800D01*
X73290000Y-132844613D02*
X71475600Y-134659013D01*
X59893200Y-150672800D02*
X58064400Y-152501600D01*
X71475600Y-134659013D02*
X71475600Y-138074400D01*
X54610002Y-154482798D02*
X54610002Y-157990000D01*
X71475600Y-138074400D02*
X68376800Y-141173200D01*
X56591200Y-152501600D02*
X54610002Y-154482798D01*
D37*
X85242400Y-91795600D02*
X85953600Y-92506800D01*
X85953600Y-92506800D02*
X85953600Y-101295200D01*
X83921600Y-90474800D02*
X85242400Y-91795600D01*
X83921600Y-85699600D02*
X83921600Y-87172800D01*
X83718400Y-84582000D02*
X83718400Y-85496400D01*
X83921600Y-87172800D02*
X83921600Y-90474800D01*
X83718400Y-85496400D02*
X83921600Y-85699600D01*
X76860400Y-99009200D02*
X76860400Y-102108000D01*
X77673200Y-93218000D02*
X77470000Y-93421200D01*
X79197200Y-91694000D02*
X77673200Y-93218000D01*
X78994000Y-83312000D02*
X79197200Y-83515200D01*
X74422000Y-104546400D02*
X74422000Y-108610400D01*
X77470000Y-98298000D02*
X77470000Y-98399600D01*
X77470000Y-98399600D02*
X76860400Y-99009200D01*
X77470000Y-93421200D02*
X77470000Y-98298000D01*
X76860400Y-102108000D02*
X74625200Y-104343200D01*
X74625200Y-104343200D02*
X74422000Y-104546400D01*
X78994000Y-82550000D02*
X78994000Y-83312000D01*
X79197200Y-83515200D02*
X79197200Y-91694000D01*
X83939464Y-91599284D02*
X83939463Y-91599285D01*
X85445600Y-95114000D02*
X85570600Y-95114000D01*
X83515200Y-91175021D02*
X83515199Y-91175021D01*
X85445600Y-101114000D02*
X85545600Y-101114000D01*
X84575859Y-91528573D02*
X84434438Y-91387152D01*
X85445600Y-97514000D02*
X85570600Y-97514000D01*
X85545600Y-100514000D02*
X85445600Y-100514000D01*
X85445600Y-100514000D02*
X85145600Y-100514000D01*
X85445600Y-98114000D02*
X85145600Y-98114000D01*
X84787990Y-92447811D02*
X84787989Y-92447812D01*
X85145600Y-95114000D02*
X85445600Y-95114000D01*
X83515200Y-91033600D02*
X83515200Y-85953600D01*
X84646568Y-92447811D02*
X84363726Y-92164969D01*
X85145600Y-99914000D02*
X85445600Y-99914000D01*
X85145600Y-103514000D02*
X85445600Y-103514000D01*
X85695600Y-99789000D02*
X85695600Y-99439000D01*
X85695600Y-94989000D02*
X85695600Y-94639000D01*
X85570600Y-94514000D02*
X85445600Y-94514000D01*
X83515200Y-91316442D02*
X83515200Y-91316441D01*
X83798042Y-91599284D02*
X83515200Y-91316442D01*
X85570600Y-96914000D02*
X85445600Y-96914000D01*
X85445600Y-99914000D02*
X85570600Y-99914000D01*
X85445600Y-103514000D02*
X85620600Y-103514000D01*
X85795600Y-103339000D02*
X85795600Y-103089000D01*
X85445600Y-93614000D02*
X85445600Y-92964000D01*
X85145600Y-96314000D02*
X85445600Y-96314000D01*
X85445600Y-95714000D02*
X85145600Y-95714000D01*
X84363726Y-92023547D02*
X84575860Y-91811417D01*
X86145600Y-101714000D02*
X85445600Y-101714000D01*
X83515200Y-85953600D02*
X83515200Y-85801200D01*
X85445600Y-99314000D02*
X85145600Y-99314000D01*
X85620600Y-102914000D02*
X85445600Y-102914000D01*
X85445600Y-94514000D02*
X85145600Y-94514000D01*
X85445600Y-102314000D02*
X86145600Y-102314000D01*
X85445600Y-105460800D02*
X85445600Y-104414000D01*
X84434438Y-91387152D02*
X84434439Y-91387154D01*
X84745600Y-102314000D02*
X85445600Y-102314000D01*
X85445600Y-101714000D02*
X84745600Y-101714000D01*
X84151594Y-91387151D02*
X83939464Y-91599284D01*
X85145600Y-98714000D02*
X85445600Y-98714000D01*
X83312000Y-85598000D02*
X83312000Y-85242400D01*
X84575860Y-91811417D02*
X84575859Y-91811415D01*
X85445600Y-102914000D02*
X84745600Y-102914000D01*
X85695600Y-98589000D02*
X85695600Y-98239000D01*
X84745600Y-101114000D02*
X85445600Y-101114000D01*
X83515200Y-85801200D02*
X83312000Y-85598000D01*
X85645600Y-101014000D02*
X85645600Y-100614000D01*
X85445600Y-98714000D02*
X85570600Y-98714000D01*
X85145600Y-97514000D02*
X85445600Y-97514000D01*
X85695600Y-97389000D02*
X85695600Y-97039000D01*
X85445600Y-96314000D02*
X85570600Y-96314000D01*
X85570600Y-99314000D02*
X85445600Y-99314000D01*
X85445600Y-92964000D02*
X84929410Y-92447811D01*
X85570600Y-98114000D02*
X85445600Y-98114000D01*
X85695600Y-96189000D02*
X85695600Y-95839000D01*
X85445600Y-96914000D02*
X85145600Y-96914000D01*
X85570600Y-95714000D02*
X85445600Y-95714000D01*
X85695600Y-97039000D02*
G75*
G03*
X85570600Y-96914000I-125000J0D01*
G01*
X83798089Y-91599237D02*
G75*
G03*
X83939463Y-91599285I70711J70637D01*
G01*
X85695600Y-99439000D02*
G75*
G03*
X85570600Y-99314000I-125000J0D01*
G01*
X85145600Y-96314000D02*
G75*
G03*
X84845600Y-96614000I0J-300000D01*
G01*
X85145600Y-99914000D02*
G75*
G03*
X84845600Y-100214000I0J-300000D01*
G01*
X85145600Y-103514000D02*
G75*
G03*
X84845600Y-103814000I0J-300000D01*
G01*
X85570600Y-97514000D02*
G75*
G03*
X85695600Y-97389000I0J125000D01*
G01*
X84845600Y-94214000D02*
G75*
G03*
X85145600Y-94514000I300000J0D01*
G01*
X85570600Y-95114000D02*
G75*
G03*
X85695600Y-94989000I0J125000D01*
G01*
X84434424Y-91387169D02*
G75*
G03*
X84151594Y-91387151I-141424J-141431D01*
G01*
X84845600Y-103814000D02*
G75*
G03*
X85145600Y-104114000I300000J0D01*
G01*
X85545600Y-101114000D02*
G75*
G03*
X85645600Y-101014000I0J100000D01*
G01*
X84845600Y-96614000D02*
G75*
G03*
X85145600Y-96914000I300000J0D01*
G01*
X84845600Y-97814000D02*
G75*
G03*
X85145600Y-98114000I300000J0D01*
G01*
X85445600Y-104414000D02*
G75*
G03*
X85145600Y-104114000I-300000J0D01*
G01*
X84845600Y-99014000D02*
G75*
G03*
X85145600Y-99314000I300000J0D01*
G01*
X83515170Y-91174991D02*
G75*
G03*
X83515201Y-91316440I70730J-70709D01*
G01*
X84363768Y-92023589D02*
G75*
G03*
X84363726Y-92164969I70632J-70711D01*
G01*
X84745600Y-102314000D02*
G75*
G03*
X84445600Y-102614000I0J-300000D01*
G01*
X85620600Y-103514000D02*
G75*
G03*
X85795600Y-103339000I0J175000D01*
G01*
X84845600Y-100214000D02*
G75*
G03*
X85145600Y-100514000I300000J0D01*
G01*
X85695600Y-94639000D02*
G75*
G03*
X85570600Y-94514000I-125000J0D01*
G01*
X85145600Y-93914000D02*
G75*
G03*
X84845600Y-94214000I0J-300000D01*
G01*
X85145600Y-93914000D02*
G75*
G03*
X85445600Y-93614000I0J300000D01*
G01*
X85145600Y-95114000D02*
G75*
G03*
X84845600Y-95414000I0J-300000D01*
G01*
X85570600Y-99914000D02*
G75*
G03*
X85695600Y-99789000I0J125000D01*
G01*
X84745600Y-101114000D02*
G75*
G03*
X84445600Y-101414000I0J-300000D01*
G01*
X85645600Y-100614000D02*
G75*
G03*
X85545600Y-100514000I-100000J0D01*
G01*
X83515188Y-91175010D02*
G75*
G03*
X83515199Y-91033601I-70688J70710D01*
G01*
X84845600Y-95414000D02*
G75*
G03*
X85145600Y-95714000I300000J0D01*
G01*
X84646589Y-92447790D02*
G75*
G03*
X84787989Y-92447812I70711J70690D01*
G01*
X84445600Y-101414000D02*
G75*
G03*
X84745600Y-101714000I300000J0D01*
G01*
X84929410Y-92447811D02*
G75*
G03*
X84787990Y-92447811I-70710J-70710D01*
G01*
X85570600Y-98714000D02*
G75*
G03*
X85695600Y-98589000I0J125000D01*
G01*
X84575865Y-91811421D02*
G75*
G03*
X84575859Y-91528573I-141465J141421D01*
G01*
X85145600Y-98714000D02*
G75*
G03*
X84845600Y-99014000I0J-300000D01*
G01*
X85695600Y-95839000D02*
G75*
G03*
X85570600Y-95714000I-125000J0D01*
G01*
X85145600Y-97514000D02*
G75*
G03*
X84845600Y-97814000I0J-300000D01*
G01*
X86445600Y-102014000D02*
G75*
G03*
X86145600Y-101714000I-300000J0D01*
G01*
X85695600Y-98239000D02*
G75*
G03*
X85570600Y-98114000I-125000J0D01*
G01*
X84445600Y-102614000D02*
G75*
G03*
X84745600Y-102914000I300000J0D01*
G01*
X86145600Y-102314000D02*
G75*
G03*
X86445600Y-102014000I0J300000D01*
G01*
X85795600Y-103089000D02*
G75*
G03*
X85620600Y-102914000I-175000J0D01*
G01*
X85570600Y-96314000D02*
G75*
G03*
X85695600Y-96189000I0J125000D01*
G01*
X82905600Y-85648800D02*
X82905600Y-84632800D01*
X84282000Y-99527600D02*
X83932000Y-99527600D01*
X83982000Y-94127600D02*
X84282000Y-94127600D01*
X84282000Y-98327600D02*
X83932000Y-98327600D01*
X84582000Y-92760800D02*
X83210400Y-91389200D01*
X83210400Y-90322400D02*
X83159600Y-90271600D01*
X84282000Y-95927600D02*
X83932000Y-95927600D01*
X83932000Y-97727600D02*
X84282000Y-97727600D01*
X84582000Y-93827600D02*
X84582000Y-92760800D01*
X84282000Y-97127600D02*
X83932000Y-97127600D01*
X84282000Y-94727600D02*
X83982000Y-94727600D01*
X83159600Y-90271600D02*
X83159600Y-85902800D01*
X83932000Y-95327600D02*
X84282000Y-95327600D01*
X83932000Y-98927600D02*
X84282000Y-98927600D01*
X83210400Y-91389200D02*
X83210400Y-90322400D01*
X84582000Y-100685600D02*
X84582000Y-99827600D01*
X83932000Y-96527600D02*
X84282000Y-96527600D01*
X83159600Y-85902800D02*
X82905600Y-85648800D01*
X84282000Y-95327600D02*
G75*
G03*
X84582000Y-95027600I0J300000D01*
G01*
X83932000Y-98927600D02*
G75*
G03*
X83632000Y-99227600I0J-300000D01*
G01*
X84282000Y-97727600D02*
G75*
G03*
X84582000Y-97427600I0J300000D01*
G01*
X84282000Y-96527600D02*
G75*
G03*
X84582000Y-96227600I0J300000D01*
G01*
X83632000Y-99227600D02*
G75*
G03*
X83932000Y-99527600I300000J0D01*
G01*
X84282000Y-98927600D02*
G75*
G03*
X84582000Y-98627600I0J300000D01*
G01*
X84582000Y-97427600D02*
G75*
G03*
X84282000Y-97127600I-300000J0D01*
G01*
X83932000Y-97727600D02*
G75*
G03*
X83632000Y-98027600I0J-300000D01*
G01*
X83632000Y-98027600D02*
G75*
G03*
X83932000Y-98327600I300000J0D01*
G01*
X83982000Y-94127600D02*
G75*
G03*
X83682000Y-94427600I0J-300000D01*
G01*
X83682000Y-94427600D02*
G75*
G03*
X83982000Y-94727600I300000J0D01*
G01*
X84582000Y-95027600D02*
G75*
G03*
X84282000Y-94727600I-300000J0D01*
G01*
X83632000Y-95627600D02*
G75*
G03*
X83932000Y-95927600I300000J0D01*
G01*
X84582000Y-99827600D02*
G75*
G03*
X84282000Y-99527600I-300000J0D01*
G01*
X84582000Y-98627600D02*
G75*
G03*
X84282000Y-98327600I-300000J0D01*
G01*
X83632000Y-96827600D02*
G75*
G03*
X83932000Y-97127600I300000J0D01*
G01*
X84582000Y-96227600D02*
G75*
G03*
X84282000Y-95927600I-300000J0D01*
G01*
X83932000Y-95327600D02*
G75*
G03*
X83632000Y-95627600I0J-300000D01*
G01*
X83932000Y-96527600D02*
G75*
G03*
X83632000Y-96827600I0J-300000D01*
G01*
X84282000Y-94127600D02*
G75*
G03*
X84582000Y-93827600I0J300000D01*
G01*
X105800000Y-62325000D02*
X105650000Y-62175000D01*
X105675000Y-66050000D02*
X105675000Y-63225000D01*
X105800000Y-63100000D02*
X105800000Y-62325000D01*
X105675000Y-63225000D02*
X105800000Y-63100000D01*
X106575000Y-66700000D02*
X106575000Y-62300000D01*
X106575000Y-62300000D02*
X106500000Y-62225000D01*
X107300000Y-67425000D02*
X107300000Y-63050000D01*
X107300000Y-63050000D02*
X107175000Y-62925000D01*
X108025000Y-68075000D02*
X108025000Y-62300000D01*
X108025000Y-62300000D02*
X108050000Y-62275000D01*
X82071503Y-84908097D02*
X81838800Y-85140800D01*
X83159600Y-92862400D02*
X83261200Y-92964000D01*
X82296000Y-85953600D02*
X82296000Y-87833200D01*
X83261200Y-92964000D02*
X83261200Y-94284800D01*
X82071503Y-84698700D02*
X82071503Y-84908097D01*
X81838800Y-85140800D02*
X81838800Y-85496400D01*
X82296000Y-91998800D02*
X83159600Y-92862400D01*
X81838800Y-85496400D02*
X82296000Y-85953600D01*
X82296000Y-87833200D02*
X82296000Y-91998800D01*
X81229200Y-80416400D02*
X81991200Y-80416400D01*
X82799200Y-81415200D02*
X83199200Y-81415200D01*
X81584800Y-84429600D02*
X81534000Y-84429600D01*
X81940400Y-92557600D02*
X82702400Y-93319600D01*
X82702400Y-93319600D02*
X82702400Y-93624400D01*
X83199200Y-83215200D02*
X82799200Y-83215200D01*
X82799200Y-82615200D02*
X83199200Y-82615200D01*
X81534000Y-84429600D02*
X81534000Y-85699600D01*
X81534000Y-85699600D02*
X81940400Y-86106000D01*
X82499200Y-80924400D02*
X82499200Y-81115200D01*
X82499200Y-83515200D02*
X81584800Y-84429600D01*
X83199200Y-82015200D02*
X82799200Y-82015200D01*
X81940400Y-86106000D02*
X81940400Y-92557600D01*
X81991200Y-80416400D02*
X82499200Y-80924400D01*
X82799200Y-83215200D02*
G75*
G03*
X82499200Y-83515200I0J-300000D01*
G01*
X82499200Y-81115200D02*
G75*
G03*
X82799200Y-81415200I300000J0D01*
G01*
X83199200Y-83215200D02*
G75*
G03*
X83499200Y-82915200I0J300000D01*
G01*
X82499200Y-82315200D02*
G75*
G03*
X82799200Y-82615200I300000J0D01*
G01*
X83199200Y-82015200D02*
G75*
G03*
X83499200Y-81715200I0J300000D01*
G01*
X83499200Y-82915200D02*
G75*
G03*
X83199200Y-82615200I-300000J0D01*
G01*
X83499200Y-81715200D02*
G75*
G03*
X83199200Y-81415200I-300000J0D01*
G01*
X82799200Y-82015200D02*
G75*
G03*
X82499200Y-82315200I0J-300000D01*
G01*
X82804000Y-90031357D02*
X82804000Y-90100000D01*
X82804000Y-89750000D02*
X82804000Y-90031357D01*
X83972400Y-92760800D02*
X83972400Y-93065600D01*
X82804000Y-88404400D02*
X82804000Y-88900000D01*
X82554000Y-89150000D02*
X82554000Y-89500000D01*
X83228263Y-92299505D02*
X83228264Y-92299505D01*
X83511106Y-92299505D02*
X83652528Y-92440928D01*
X82804000Y-90950000D02*
X82804000Y-91300000D01*
X82804000Y-85902800D02*
X82804000Y-86004400D01*
X82448400Y-85547200D02*
X82804000Y-85902800D01*
X82804000Y-91300000D02*
X82804000Y-91592400D01*
X82554000Y-86254400D02*
X82554000Y-86604400D01*
X82554000Y-90350000D02*
X82554000Y-90700000D01*
X82554000Y-87454400D02*
X82554000Y-87804400D01*
X82448400Y-85191600D02*
X82448400Y-85547200D01*
X82804000Y-88054400D02*
X82804000Y-88404400D01*
X83652528Y-92440928D02*
X83972400Y-92760800D01*
X82804000Y-86854400D02*
X82804000Y-87204400D01*
X82803999Y-91875243D02*
X82804000Y-91875242D01*
X82804000Y-92158084D02*
X82945421Y-92299505D01*
X83511105Y-92299506D02*
G75*
G03*
X83228265Y-92299506I-141420J-141422D01*
G01*
X82804000Y-88054400D02*
G75*
G03*
X82679000Y-87929400I-125000J0D01*
G01*
X82804000Y-90950000D02*
G75*
G03*
X82679000Y-90825000I-125000J0D01*
G01*
X82679000Y-90225000D02*
G75*
G03*
X82554000Y-90350000I0J-125000D01*
G01*
X82554000Y-87804400D02*
G75*
G03*
X82679000Y-87929400I125000J0D01*
G01*
X82945422Y-92299504D02*
G75*
G03*
X83228262Y-92299504I141420J141422D01*
G01*
X82554000Y-86604400D02*
G75*
G03*
X82679000Y-86729400I125000J0D01*
G01*
X82804000Y-86854400D02*
G75*
G03*
X82679000Y-86729400I-125000J0D01*
G01*
X82679000Y-90225000D02*
G75*
G03*
X82804000Y-90100000I0J125000D01*
G01*
X82679000Y-87329400D02*
G75*
G03*
X82554000Y-87454400I0J-125000D01*
G01*
X82679000Y-87329400D02*
G75*
G03*
X82804000Y-87204400I0J125000D01*
G01*
X82804000Y-89750000D02*
G75*
G03*
X82679000Y-89625000I-125000J0D01*
G01*
X82554000Y-90700000D02*
G75*
G03*
X82679000Y-90825000I125000J0D01*
G01*
X82554000Y-89500000D02*
G75*
G03*
X82679000Y-89625000I125000J0D01*
G01*
X82679000Y-86129400D02*
G75*
G03*
X82554000Y-86254400I0J-125000D01*
G01*
X82679000Y-89025000D02*
G75*
G03*
X82804000Y-88900000I0J125000D01*
G01*
X82679000Y-86129400D02*
G75*
G03*
X82804000Y-86004400I0J125000D01*
G01*
X82679000Y-89025000D02*
G75*
G03*
X82554000Y-89150000I0J-125000D01*
G01*
X82803977Y-91875221D02*
G75*
G03*
X82803999Y-91592401I-141377J141421D01*
G01*
X82804037Y-91875279D02*
G75*
G03*
X82804000Y-92158084I141363J-141421D01*
G01*
X81050198Y-84178402D02*
X81050198Y-94359798D01*
X80822800Y-81076800D02*
X80822800Y-81381600D01*
X81495299Y-83733301D02*
X81050198Y-84178402D01*
X81050198Y-94359798D02*
X82651600Y-95961200D01*
X82651600Y-95961200D02*
X82651600Y-107492800D01*
X80822800Y-81381600D02*
X81495299Y-82054099D01*
X81495299Y-82054099D02*
X81495299Y-83733301D01*
X80289400Y-110718600D02*
X80314800Y-110744000D01*
X80010000Y-77317600D02*
X80010000Y-98602800D01*
X80010000Y-70916800D02*
X80010000Y-77317600D01*
X80010000Y-98602800D02*
X80289400Y-98882200D01*
X80518000Y-70408800D02*
X80010000Y-70916800D01*
X80289400Y-98882200D02*
X80289400Y-110718600D01*
X100000000Y-59300000D02*
X100000000Y-56700000D01*
X100000000Y-56700000D02*
X100075000Y-56625000D01*
X86475000Y-72100000D02*
X86200000Y-72375000D01*
X86475000Y-56650000D02*
X86475000Y-72100000D01*
X102450000Y-59450000D02*
X102450000Y-70425000D01*
X85775000Y-70575000D02*
X85775000Y-73325000D01*
X85775000Y-73325000D02*
X85700000Y-73400000D01*
X86925000Y-73650000D02*
X86750000Y-73825000D01*
X86925000Y-71200000D02*
X86925000Y-73650000D01*
X81292099Y-85799799D02*
X81393699Y-85901399D01*
X83362800Y-95656400D02*
X83362800Y-96306400D01*
X82912800Y-96756400D02*
X82912800Y-96906400D01*
X81393699Y-88714000D02*
X81393699Y-89014000D01*
X81817964Y-94429760D02*
X81817963Y-94429761D01*
X81635600Y-81178400D02*
X81635600Y-81788000D01*
X83362800Y-98556400D02*
X83362800Y-98706400D01*
X81393699Y-87514000D02*
X81393699Y-87814000D01*
X81693699Y-91714000D02*
X81693699Y-92014000D01*
X82242225Y-95172222D02*
X82348291Y-95278288D01*
X81817963Y-94429761D02*
X82189193Y-94058528D01*
X82242226Y-95172223D02*
X82242225Y-95172222D01*
X81393698Y-94005498D02*
X81393699Y-94005497D01*
X83362800Y-98706400D02*
X83362800Y-100126800D01*
X81693699Y-86914000D02*
X81693699Y-87214000D01*
X82912800Y-97956400D02*
X82912800Y-98106400D01*
X81292099Y-84278601D02*
X81292099Y-85799799D01*
X82613458Y-94482795D02*
X82613459Y-94482794D01*
X81393699Y-92314000D02*
X81393699Y-92614000D01*
X81393699Y-94323695D02*
X81499765Y-94429761D01*
X82613460Y-94058531D02*
X82613459Y-94058530D01*
X81393699Y-85901399D02*
X81393699Y-86614000D01*
X81393699Y-89914000D02*
X81393699Y-90214000D01*
X82666490Y-95278287D02*
X82666489Y-95278288D01*
X81693699Y-88114000D02*
X81693699Y-88414000D01*
X82613459Y-94482794D02*
X82242225Y-94854024D01*
X83090754Y-95384354D02*
X83362800Y-95656400D01*
X81393699Y-92614000D02*
X81393699Y-93687299D01*
X81693699Y-90514000D02*
X81693699Y-90814000D01*
X81693699Y-89314000D02*
X81693699Y-89614000D01*
X82984687Y-95278288D02*
X83090754Y-95384354D01*
X82143600Y-83427100D02*
X81292099Y-84278601D01*
X81393699Y-91114000D02*
X81393699Y-91414000D01*
X82143600Y-82296000D02*
X82143600Y-83427100D01*
X81635600Y-81788000D02*
X82143600Y-82296000D01*
X83362800Y-97356400D02*
X83362800Y-97506400D01*
X81693700Y-89314000D02*
G75*
G03*
X81543699Y-89164000I-150000J0D01*
G01*
X82242202Y-94854001D02*
G75*
G03*
X82242226Y-95172223I159098J-159099D01*
G01*
X83137800Y-97731400D02*
G75*
G03*
X83362800Y-97506400I0J225000D01*
G01*
X81543699Y-90963999D02*
G75*
G03*
X81393699Y-91114000I1J-150001D01*
G01*
X81693700Y-88114000D02*
G75*
G03*
X81543699Y-87964000I-150000J0D01*
G01*
X81543699Y-88563999D02*
G75*
G03*
X81393699Y-88714000I1J-150001D01*
G01*
X81543699Y-87363999D02*
G75*
G03*
X81393699Y-87514000I1J-150001D01*
G01*
X81543699Y-88563999D02*
G75*
G03*
X81693699Y-88414000I1J149999D01*
G01*
X81543699Y-87363999D02*
G75*
G03*
X81693699Y-87214000I1J149999D01*
G01*
X83137800Y-96531400D02*
G75*
G03*
X83362800Y-96306400I0J225000D01*
G01*
X81393700Y-91414000D02*
G75*
G03*
X81543699Y-91564000I150000J0D01*
G01*
X82613435Y-94058556D02*
G75*
G03*
X82189193Y-94058528I-212135J-212144D01*
G01*
X82348301Y-95278278D02*
G75*
G03*
X82666490Y-95278287I159099J159078D01*
G01*
X82613495Y-94482832D02*
G75*
G03*
X82613458Y-94058531I-212195J212132D01*
G01*
X81693700Y-86914000D02*
G75*
G03*
X81543699Y-86764000I-150000J0D01*
G01*
X81543699Y-92163999D02*
G75*
G03*
X81393699Y-92314000I1J-150001D01*
G01*
X82912800Y-96906400D02*
G75*
G03*
X83137800Y-97131400I225000J0D01*
G01*
X81693700Y-91714000D02*
G75*
G03*
X81543699Y-91564000I-150000J0D01*
G01*
X81499801Y-94429725D02*
G75*
G03*
X81817964Y-94429760I159099J159025D01*
G01*
X82984686Y-95278289D02*
G75*
G03*
X82666490Y-95278289I-159098J-159098D01*
G01*
X83137800Y-96531400D02*
G75*
G03*
X82912800Y-96756400I0J-225000D01*
G01*
X81543699Y-89763999D02*
G75*
G03*
X81393699Y-89914000I1J-150001D01*
G01*
X83362800Y-97356400D02*
G75*
G03*
X83137800Y-97131400I-225000J0D01*
G01*
X83362800Y-98556400D02*
G75*
G03*
X83137800Y-98331400I-225000J0D01*
G01*
X81393700Y-87814000D02*
G75*
G03*
X81543699Y-87964000I150000J0D01*
G01*
X81393700Y-90214000D02*
G75*
G03*
X81543699Y-90364000I150000J0D01*
G01*
X81543699Y-92163999D02*
G75*
G03*
X81693699Y-92014000I1J149999D01*
G01*
X81543699Y-89763999D02*
G75*
G03*
X81693699Y-89614000I1J149999D01*
G01*
X81393700Y-89014000D02*
G75*
G03*
X81543699Y-89164000I150000J0D01*
G01*
X81693700Y-90514000D02*
G75*
G03*
X81543699Y-90364000I-150000J0D01*
G01*
X81393703Y-94005501D02*
G75*
G03*
X81393699Y-94323695I159097J-159099D01*
G01*
X81393700Y-94005500D02*
G75*
G03*
X81393699Y-93687299I-159100J159100D01*
G01*
X83137800Y-97731400D02*
G75*
G03*
X82912800Y-97956400I0J-225000D01*
G01*
X81393700Y-86614000D02*
G75*
G03*
X81543699Y-86764000I150000J0D01*
G01*
X82912800Y-98106400D02*
G75*
G03*
X83137800Y-98331400I225000J0D01*
G01*
X81543699Y-90963999D02*
G75*
G03*
X81693699Y-90814000I1J149999D01*
G01*
X80266396Y-86992396D02*
X80266396Y-86692396D01*
X80266396Y-85792396D02*
X80266396Y-85492396D01*
X80266396Y-89392396D02*
X80266396Y-89092396D01*
X80566396Y-92392396D02*
X80566396Y-92092396D01*
X81229200Y-98755200D02*
X80566396Y-98092396D01*
X80266396Y-94192396D02*
X80266396Y-93892396D01*
X80566396Y-83692396D02*
X80566396Y-83111204D01*
X80566396Y-93592396D02*
X80566396Y-93292396D01*
X80266396Y-96592396D02*
X80266396Y-96292396D01*
X80266396Y-92992396D02*
X80266396Y-92692396D01*
X80566396Y-85192396D02*
X80566396Y-84892396D01*
X80566396Y-97192396D02*
X80566396Y-96892396D01*
X80566396Y-91192396D02*
X80566396Y-90892396D01*
X80566396Y-83992396D02*
X80566396Y-83692396D01*
X80266396Y-97792396D02*
X80266396Y-97492396D01*
X80566396Y-86392396D02*
X80566396Y-86092396D01*
X80566396Y-83111204D02*
X80670400Y-83007200D01*
X80266396Y-84592396D02*
X80266396Y-84292396D01*
X80266396Y-91792396D02*
X80266396Y-91492396D01*
X80566396Y-89992396D02*
X80566396Y-89692396D01*
X80266396Y-95392396D02*
X80266396Y-95092396D01*
X80566396Y-95992396D02*
X80566396Y-95692396D01*
X80566396Y-87592396D02*
X80566396Y-87292396D01*
X80266396Y-88192396D02*
X80266396Y-87892396D01*
X80566396Y-94792396D02*
X80566396Y-94492396D01*
X80566396Y-88792396D02*
X80566396Y-88492396D01*
X80266396Y-90592396D02*
X80266396Y-90292396D01*
X80416396Y-96142396D02*
G75*
G03*
X80566396Y-95992396I4J149996D01*
G01*
X80266404Y-96592396D02*
G75*
G03*
X80416396Y-96742396I149996J-4D01*
G01*
X80566404Y-89692396D02*
G75*
G03*
X80416396Y-89542396I-150004J-4D01*
G01*
X80266404Y-86992396D02*
G75*
G03*
X80416396Y-87142396I149996J-4D01*
G01*
X80416396Y-85342396D02*
G75*
G03*
X80266396Y-85492396I4J-150004D01*
G01*
X80416396Y-97342396D02*
G75*
G03*
X80266396Y-97492396I4J-150004D01*
G01*
X80566404Y-95692396D02*
G75*
G03*
X80416396Y-95542396I-150004J-4D01*
G01*
X80416396Y-90142396D02*
G75*
G03*
X80266396Y-90292396I4J-150004D01*
G01*
X80266404Y-91792396D02*
G75*
G03*
X80416396Y-91942396I149996J-4D01*
G01*
X80416396Y-91342396D02*
G75*
G03*
X80566396Y-91192396I4J149996D01*
G01*
X80416396Y-92542396D02*
G75*
G03*
X80566396Y-92392396I4J149996D01*
G01*
X80416396Y-88942396D02*
G75*
G03*
X80266396Y-89092396I4J-150004D01*
G01*
X80266404Y-94192396D02*
G75*
G03*
X80416396Y-94342396I149996J-4D01*
G01*
X80566404Y-86092396D02*
G75*
G03*
X80416396Y-85942396I-150004J-4D01*
G01*
X80416396Y-88942396D02*
G75*
G03*
X80566396Y-88792396I4J149996D01*
G01*
X80566404Y-96892396D02*
G75*
G03*
X80416396Y-96742396I-150004J-4D01*
G01*
X80566404Y-94492396D02*
G75*
G03*
X80416396Y-94342396I-150004J-4D01*
G01*
X80266404Y-88192396D02*
G75*
G03*
X80416396Y-88342396I149996J-4D01*
G01*
X80566404Y-98092396D02*
G75*
G03*
X80416396Y-97942396I-150004J-4D01*
G01*
X80416396Y-94942396D02*
G75*
G03*
X80266396Y-95092396I4J-150004D01*
G01*
X80566404Y-87292396D02*
G75*
G03*
X80416396Y-87142396I-150004J-4D01*
G01*
X80566404Y-92092396D02*
G75*
G03*
X80416396Y-91942396I-150004J-4D01*
G01*
X80416396Y-93742396D02*
G75*
G03*
X80266396Y-93892396I4J-150004D01*
G01*
X80416396Y-87742396D02*
G75*
G03*
X80266396Y-87892396I4J-150004D01*
G01*
X80566404Y-93292396D02*
G75*
G03*
X80416396Y-93142396I-150004J-4D01*
G01*
X80266404Y-92992396D02*
G75*
G03*
X80416396Y-93142396I149996J-4D01*
G01*
X80416396Y-86542396D02*
G75*
G03*
X80566396Y-86392396I4J149996D01*
G01*
X80416396Y-85342396D02*
G75*
G03*
X80566396Y-85192396I4J149996D01*
G01*
X80416396Y-84142396D02*
G75*
G03*
X80566396Y-83992396I4J149996D01*
G01*
X80266404Y-84592396D02*
G75*
G03*
X80416396Y-84742396I149996J-4D01*
G01*
X80266404Y-95392396D02*
G75*
G03*
X80416396Y-95542396I149996J-4D01*
G01*
X80416396Y-97342396D02*
G75*
G03*
X80566396Y-97192396I4J149996D01*
G01*
X80566404Y-88492396D02*
G75*
G03*
X80416396Y-88342396I-150004J-4D01*
G01*
X80416396Y-84142396D02*
G75*
G03*
X80266396Y-84292396I4J-150004D01*
G01*
X80566404Y-84892396D02*
G75*
G03*
X80416396Y-84742396I-150004J-4D01*
G01*
X80416396Y-93742396D02*
G75*
G03*
X80566396Y-93592396I4J149996D01*
G01*
X80416396Y-86542396D02*
G75*
G03*
X80266396Y-86692396I4J-150004D01*
G01*
X80266404Y-97792396D02*
G75*
G03*
X80416396Y-97942396I149996J-4D01*
G01*
X80266404Y-89392396D02*
G75*
G03*
X80416396Y-89542396I149996J-4D01*
G01*
X80266404Y-90592396D02*
G75*
G03*
X80416396Y-90742396I149996J-4D01*
G01*
X80416396Y-94942396D02*
G75*
G03*
X80566396Y-94792396I4J149996D01*
G01*
X80566404Y-90892396D02*
G75*
G03*
X80416396Y-90742396I-150004J-4D01*
G01*
X80416396Y-90142396D02*
G75*
G03*
X80566396Y-89992396I4J149996D01*
G01*
X80416396Y-96142396D02*
G75*
G03*
X80266396Y-96292396I4J-150004D01*
G01*
X80416396Y-91342396D02*
G75*
G03*
X80266396Y-91492396I4J-150004D01*
G01*
X80416396Y-92542396D02*
G75*
G03*
X80266396Y-92692396I4J-150004D01*
G01*
X80416396Y-87742396D02*
G75*
G03*
X80566396Y-87592396I4J149996D01*
G01*
X80266404Y-85792396D02*
G75*
G03*
X80416396Y-85942396I149996J-4D01*
G01*
X81991200Y-101617200D02*
X82191200Y-101617200D01*
X81991200Y-105817200D02*
X81291200Y-105817200D01*
X82391200Y-100617200D02*
X82391200Y-100817200D01*
X81291200Y-105217200D02*
X81991200Y-105217200D01*
X81100998Y-82523398D02*
X81100998Y-83721202D01*
X82191200Y-105817200D02*
X81991200Y-105817200D01*
X81291200Y-107617200D02*
X81691200Y-107617200D01*
X82391200Y-105417200D02*
X82391200Y-105617200D01*
X81991200Y-105217200D02*
X82191200Y-105217200D01*
X82191200Y-101017200D02*
X81991200Y-101017200D01*
X81991200Y-107017200D02*
X81291200Y-107017200D01*
X81991200Y-101017200D02*
X81291200Y-101017200D01*
X82191200Y-104617200D02*
X81991200Y-104617200D01*
X81991200Y-104017200D02*
X82191200Y-104017200D01*
X82391200Y-101817200D02*
X82391200Y-102017200D01*
X82191200Y-102217200D02*
X81991200Y-102217200D01*
X81291200Y-102817200D02*
X81991200Y-102817200D01*
X81991200Y-98653600D02*
X81991200Y-99517200D01*
X81991200Y-102817200D02*
X82191200Y-102817200D01*
X82191200Y-107017200D02*
X81991200Y-107017200D01*
X80808297Y-97470697D02*
X81991200Y-98653600D01*
X81991200Y-108712000D02*
X81534000Y-109169200D01*
X81100998Y-83721202D02*
X80808297Y-84013903D01*
X81291200Y-104017200D02*
X81991200Y-104017200D01*
X81991200Y-106417200D02*
X82191200Y-106417200D01*
X80808297Y-84013903D02*
X80808297Y-97470697D01*
X81691200Y-99817200D02*
X81291200Y-99817200D01*
X81076800Y-82499200D02*
X81100998Y-82523398D01*
X81291200Y-101617200D02*
X81991200Y-101617200D01*
X82191200Y-103417200D02*
X81991200Y-103417200D01*
X81991200Y-102217200D02*
X81291200Y-102217200D01*
X81291200Y-100417200D02*
X81691200Y-100417200D01*
X82391200Y-103017200D02*
X82391200Y-103217200D01*
X81991200Y-107917200D02*
X81991200Y-108712000D01*
X81291200Y-106417200D02*
X81991200Y-106417200D01*
X82391200Y-106617200D02*
X82391200Y-106817200D01*
X81691200Y-100417200D02*
X82191200Y-100417200D01*
X81991200Y-103417200D02*
X81291200Y-103417200D01*
X82391200Y-104217200D02*
X82391200Y-104417200D01*
X81991200Y-104617200D02*
X81291200Y-104617200D01*
X80991200Y-103717200D02*
G75*
G03*
X81291200Y-104017200I300000J0D01*
G01*
X82191200Y-105817200D02*
G75*
G03*
X82391200Y-105617200I0J200000D01*
G01*
X81291200Y-103417200D02*
G75*
G03*
X80991200Y-103717200I0J-300000D01*
G01*
X82191200Y-101017200D02*
G75*
G03*
X82391200Y-100817200I0J200000D01*
G01*
X82391200Y-106617200D02*
G75*
G03*
X82191200Y-106417200I-200000J0D01*
G01*
X81291200Y-101017200D02*
G75*
G03*
X80991200Y-101317200I0J-300000D01*
G01*
X82391200Y-101817200D02*
G75*
G03*
X82191200Y-101617200I-200000J0D01*
G01*
X82191200Y-104617200D02*
G75*
G03*
X82391200Y-104417200I0J200000D01*
G01*
X80991200Y-102517200D02*
G75*
G03*
X81291200Y-102817200I300000J0D01*
G01*
X82191200Y-107017200D02*
G75*
G03*
X82391200Y-106817200I0J200000D01*
G01*
X81291200Y-104617200D02*
G75*
G03*
X80991200Y-104917200I0J-300000D01*
G01*
X80991200Y-100117200D02*
G75*
G03*
X81291200Y-100417200I300000J0D01*
G01*
X82391200Y-100617200D02*
G75*
G03*
X82191200Y-100417200I-200000J0D01*
G01*
X81291200Y-105817200D02*
G75*
G03*
X80991200Y-106117200I0J-300000D01*
G01*
X80991200Y-104917200D02*
G75*
G03*
X81291200Y-105217200I300000J0D01*
G01*
X80991200Y-107317200D02*
G75*
G03*
X81291200Y-107617200I300000J0D01*
G01*
X81291200Y-99817200D02*
G75*
G03*
X80991200Y-100117200I0J-300000D01*
G01*
X81291200Y-107017200D02*
G75*
G03*
X80991200Y-107317200I0J-300000D01*
G01*
X81691200Y-99817200D02*
G75*
G03*
X81991200Y-99517200I0J300000D01*
G01*
X82191200Y-102217200D02*
G75*
G03*
X82391200Y-102017200I0J200000D01*
G01*
X82391200Y-103017200D02*
G75*
G03*
X82191200Y-102817200I-200000J0D01*
G01*
X82391200Y-105417200D02*
G75*
G03*
X82191200Y-105217200I-200000J0D01*
G01*
X81291200Y-102217200D02*
G75*
G03*
X80991200Y-102517200I0J-300000D01*
G01*
X80991200Y-106117200D02*
G75*
G03*
X81291200Y-106417200I300000J0D01*
G01*
X82191200Y-103417200D02*
G75*
G03*
X82391200Y-103217200I0J200000D01*
G01*
X81991200Y-107917200D02*
G75*
G03*
X81691200Y-107617200I-300000J0D01*
G01*
X80991200Y-101317200D02*
G75*
G03*
X81291200Y-101617200I300000J0D01*
G01*
X82391200Y-104217200D02*
G75*
G03*
X82191200Y-104017200I-200000J0D01*
G01*
X86473959Y-99956000D02*
X86715600Y-99956000D01*
X87146253Y-100171326D02*
X87146253Y-100340674D01*
X86715600Y-100931000D02*
X86715600Y-105003600D01*
X86473959Y-96356000D02*
X86715600Y-96356000D01*
X85971299Y-91314700D02*
X85971297Y-91314699D01*
X84983600Y-87107600D02*
X84441959Y-87107600D01*
X87148888Y-94172644D02*
X87148888Y-94339356D01*
X86715600Y-97556000D02*
X86932244Y-97556000D01*
X86197061Y-91738963D02*
X86197063Y-91738964D01*
X86232319Y-94797640D02*
X86232319Y-94914360D01*
X81940400Y-79603600D02*
X85242400Y-82905600D01*
X87148888Y-96572644D02*
X87148888Y-96739356D01*
X86197062Y-91937462D02*
X86715600Y-92456000D01*
X84983600Y-86507600D02*
X85220463Y-86507600D01*
X87148888Y-95372644D02*
X87148888Y-95539356D01*
X86932244Y-99356000D02*
X86715600Y-99356000D01*
X86715600Y-92456000D02*
X86715600Y-93106000D01*
X86932244Y-94556000D02*
X86715600Y-94556000D01*
X85220463Y-88307600D02*
X84683600Y-88307600D01*
X84683600Y-90424000D02*
X85143219Y-90883619D01*
X86475277Y-93346323D02*
X86475276Y-93346323D01*
X85242400Y-85394800D02*
X84683600Y-85953600D01*
X86475276Y-93956000D02*
X86475277Y-93956000D01*
X86232319Y-97197640D02*
X86232319Y-97314360D01*
X85673549Y-91413949D02*
X85772797Y-91314698D01*
X86715600Y-95756000D02*
X86473959Y-95756000D01*
X86475277Y-93956000D02*
X86932244Y-93956000D01*
X84200319Y-87349240D02*
X84200319Y-87465960D01*
X85574336Y-91513158D02*
X85574337Y-91513158D01*
X84441959Y-87707600D02*
X84683600Y-87707600D01*
X86932244Y-96956000D02*
X86715600Y-96956000D01*
X86715600Y-94556000D02*
X86473959Y-94556000D01*
X84683600Y-87707600D02*
X85220463Y-87707600D01*
X85242400Y-82905600D02*
X85242400Y-85394800D01*
X86715600Y-98156000D02*
X86473959Y-98156000D01*
X84683600Y-88907600D02*
X85220463Y-88907600D01*
X86930927Y-100556000D02*
X86930926Y-100556000D01*
X86715600Y-96356000D02*
X86932244Y-96356000D01*
X84683600Y-88307600D02*
X84441959Y-88307600D01*
X86232319Y-99597640D02*
X86232319Y-99714360D01*
X86715600Y-99356000D02*
X86473959Y-99356000D01*
X86197063Y-91937462D02*
X86197062Y-91937462D01*
X86715600Y-95156000D02*
X86932244Y-95156000D01*
X85220463Y-87107600D02*
X84983600Y-87107600D01*
X86715600Y-96956000D02*
X86473959Y-96956000D01*
X84441959Y-88907600D02*
X84683600Y-88907600D01*
X85971297Y-91314699D02*
X86197062Y-91540464D01*
X86232319Y-95997640D02*
X86232319Y-96114360D01*
X84683600Y-89807600D02*
X84683600Y-90424000D01*
X86232319Y-98397640D02*
X86232319Y-98514360D01*
X85673548Y-91413946D02*
X85673549Y-91413949D01*
X86473959Y-97556000D02*
X86715600Y-97556000D01*
X86715600Y-99956000D02*
X86930927Y-99956000D01*
X86715600Y-100771326D02*
X86715600Y-100931000D01*
X84683600Y-85953600D02*
X84683600Y-86207600D01*
X86473959Y-98756000D02*
X86715600Y-98756000D01*
X81381600Y-79603600D02*
X81940400Y-79603600D01*
X85574337Y-91513158D02*
X85673548Y-91413946D01*
X85220463Y-89507600D02*
X84983600Y-89507600D01*
X86932244Y-95756000D02*
X86715600Y-95756000D01*
X84200319Y-88549240D02*
X84200319Y-88665960D01*
X87148888Y-98972644D02*
X87148888Y-99139356D01*
X86932244Y-98156000D02*
X86715600Y-98156000D01*
X86715600Y-98756000D02*
X86932244Y-98756000D01*
X85143218Y-91082042D02*
X85143219Y-91082041D01*
X87148888Y-97772644D02*
X87148888Y-97939356D01*
X85143219Y-91280463D02*
X85375914Y-91513158D01*
X86234953Y-93586646D02*
X86234953Y-93715677D01*
X86473959Y-95156000D02*
X86715600Y-95156000D01*
X85375914Y-91513158D02*
G75*
G03*
X85574336Y-91513158I99211J99209D01*
G01*
X87148800Y-94172644D02*
G75*
G03*
X86932244Y-93956000I-216600J44D01*
G01*
X86232400Y-97314360D02*
G75*
G03*
X86473959Y-97556000I241600J-40D01*
G01*
X85143187Y-91082011D02*
G75*
G03*
X85143218Y-90883620I-99187J99211D01*
G01*
X86232400Y-94914360D02*
G75*
G03*
X86473959Y-95156000I241600J-40D01*
G01*
X87148800Y-96572644D02*
G75*
G03*
X86932244Y-96356000I-216600J44D01*
G01*
X86473959Y-96955919D02*
G75*
G03*
X86232319Y-97197640I41J-241681D01*
G01*
X84200400Y-87465960D02*
G75*
G03*
X84441959Y-87707600I241600J-40D01*
G01*
X87148800Y-98972644D02*
G75*
G03*
X86932244Y-98756000I-216600J44D01*
G01*
X86197048Y-91738950D02*
G75*
G03*
X86197062Y-91540464I-99248J99250D01*
G01*
X87148800Y-95372644D02*
G75*
G03*
X86932244Y-95156000I-216600J44D01*
G01*
X84441959Y-87107519D02*
G75*
G03*
X84200319Y-87349240I41J-241681D01*
G01*
X86932244Y-98156088D02*
G75*
G03*
X87148888Y-97939356I-44J216688D01*
G01*
X86473959Y-94555919D02*
G75*
G03*
X86232319Y-94797640I41J-241681D01*
G01*
X85520500Y-88007600D02*
G75*
G03*
X85220463Y-87707600I-300000J0D01*
G01*
X84983600Y-89507600D02*
G75*
G03*
X84683600Y-89807600I0J-300000D01*
G01*
X86932244Y-95756088D02*
G75*
G03*
X87148888Y-95539356I-44J216688D01*
G01*
X86473959Y-98155919D02*
G75*
G03*
X86232319Y-98397640I41J-241681D01*
G01*
X87148800Y-97772644D02*
G75*
G03*
X86932244Y-97556000I-216600J44D01*
G01*
X84683600Y-86207600D02*
G75*
G03*
X84983600Y-86507600I300000J0D01*
G01*
X85520500Y-89207600D02*
G75*
G03*
X85220463Y-88907600I-300000J0D01*
G01*
X86235000Y-93715677D02*
G75*
G03*
X86475276Y-93956000I240300J-23D01*
G01*
X86232400Y-99714360D02*
G75*
G03*
X86473959Y-99956000I241600J-40D01*
G01*
X85220463Y-88307563D02*
G75*
G03*
X85520463Y-88007600I37J299963D01*
G01*
X86475277Y-93346300D02*
G75*
G03*
X86715600Y-93106000I23J240300D01*
G01*
X86932244Y-99356088D02*
G75*
G03*
X87148888Y-99139356I-44J216688D01*
G01*
X86473959Y-99355919D02*
G75*
G03*
X86232319Y-99597640I41J-241681D01*
G01*
X84441959Y-88307519D02*
G75*
G03*
X84200319Y-88549240I41J-241681D01*
G01*
X85220463Y-87107563D02*
G75*
G03*
X85520463Y-86807600I37J299963D01*
G01*
X85971252Y-91314747D02*
G75*
G03*
X85772797Y-91314698I-99252J-99253D01*
G01*
X86197051Y-91738952D02*
G75*
G03*
X86197064Y-91937461I99249J-99248D01*
G01*
X86932244Y-96956088D02*
G75*
G03*
X87148888Y-96739356I-44J216688D01*
G01*
X84200400Y-88665960D02*
G75*
G03*
X84441959Y-88907600I241600J-40D01*
G01*
X86930927Y-100556053D02*
G75*
G03*
X87146253Y-100340674I-27J215353D01*
G01*
X87146200Y-100171326D02*
G75*
G03*
X86930927Y-99956000I-215300J26D01*
G01*
X86932244Y-94556088D02*
G75*
G03*
X87148888Y-94339356I-44J216688D01*
G01*
X86930926Y-100556000D02*
G75*
G03*
X86715600Y-100771326I-26J-215300D01*
G01*
X86232400Y-98514360D02*
G75*
G03*
X86473959Y-98756000I241600J-40D01*
G01*
X86473959Y-95755919D02*
G75*
G03*
X86232319Y-95997640I41J-241681D01*
G01*
X85520500Y-86807600D02*
G75*
G03*
X85220463Y-86507600I-300000J0D01*
G01*
X85143267Y-91082089D02*
G75*
G03*
X85143219Y-91280463I99133J-99211D01*
G01*
X85220463Y-89507563D02*
G75*
G03*
X85520463Y-89207600I37J299963D01*
G01*
X86232400Y-96114360D02*
G75*
G03*
X86473959Y-96356000I241600J-40D01*
G01*
X86475276Y-93346253D02*
G75*
G03*
X86234953Y-93586646I24J-240347D01*
G01*
X86664800Y-106070400D02*
X86055200Y-106680000D01*
X86055200Y-106680000D02*
X86055200Y-109051900D01*
X85801200Y-81635600D02*
X85801200Y-90728800D01*
X85801200Y-90728800D02*
X87426800Y-92354400D01*
X87426800Y-92354400D02*
X87426800Y-105257600D01*
X87426800Y-105257600D02*
X86664800Y-106019600D01*
X85293200Y-79959200D02*
X85293200Y-81127600D01*
X86664800Y-106019600D02*
X86664800Y-106070400D01*
X85293200Y-81127600D02*
X85801200Y-81635600D01*
X86055200Y-109051900D02*
X86817200Y-109813900D01*
X87997699Y-97944600D02*
X88169732Y-97944600D01*
X87997699Y-94944600D02*
X87850663Y-94944600D01*
X87951699Y-78004800D02*
X87551699Y-78004800D01*
X87997699Y-92544600D02*
X87850663Y-92544600D01*
X88341764Y-99316632D02*
X88341764Y-99572568D01*
X87951699Y-80404800D02*
X87551699Y-80404800D01*
X87837998Y-104687640D02*
X87997699Y-104847341D01*
X87997699Y-88944600D02*
X87750670Y-88944600D01*
X87302356Y-88344600D02*
X87997699Y-88344600D01*
X87704564Y-101091167D02*
X87704564Y-101398033D01*
X87551699Y-82204800D02*
X87951699Y-82204800D01*
X87503641Y-89191629D02*
X87503641Y-89297571D01*
X87703628Y-95091635D02*
X87703628Y-95397565D01*
X87951699Y-82804800D02*
X87901699Y-82804800D01*
X87703628Y-93891635D02*
X87703628Y-94197565D01*
X87850663Y-97944600D02*
X87997699Y-97944600D01*
X87703628Y-98691635D02*
X87703628Y-98997565D01*
X88169732Y-100944600D02*
X87997699Y-100944600D01*
X88169273Y-87744600D02*
X87302356Y-87744600D01*
X87997699Y-101994600D02*
X87997699Y-104003873D01*
X87951699Y-76804800D02*
X87551699Y-76804800D01*
X88341764Y-95716632D02*
X88341764Y-95972568D01*
X88169732Y-96144600D02*
X87997699Y-96144600D01*
X88169732Y-98544600D02*
X87997699Y-98544600D01*
X87502355Y-91944600D02*
X87997699Y-91944600D01*
X87703628Y-97491635D02*
X87703628Y-97797565D01*
X87703628Y-96291635D02*
X87703628Y-96597565D01*
X87997699Y-96144600D02*
X87850663Y-96144600D01*
X88251699Y-76110499D02*
X88251699Y-76504800D01*
X87850663Y-100344600D02*
X87997699Y-100344600D01*
X87850663Y-94344600D02*
X87997699Y-94344600D01*
X87551699Y-78604800D02*
X87951699Y-78604800D01*
X87997699Y-95544600D02*
X88169732Y-95544600D01*
X87997699Y-85394800D02*
X87997699Y-86969600D01*
X87997699Y-89544600D02*
X88169732Y-89544600D01*
X88036400Y-75895200D02*
X88251699Y-76110499D01*
X87733105Y-106683511D02*
X87733105Y-106883200D01*
X88341764Y-100516632D02*
X88341764Y-100772568D01*
X88169732Y-88944600D02*
X87997699Y-88944600D01*
X87850663Y-96744600D02*
X87997699Y-96744600D01*
X87997699Y-90744600D02*
X88169732Y-90744600D01*
X88169273Y-87141174D02*
X88169274Y-87141174D01*
X87901699Y-83404800D02*
X87951699Y-83404800D01*
X87997699Y-90144600D02*
X87502355Y-90144600D01*
X87551699Y-77404800D02*
X87951699Y-77404800D01*
X88169732Y-93744600D02*
X87997699Y-93744600D01*
X87551699Y-81004800D02*
X87951699Y-81004800D01*
X88251699Y-83704800D02*
X88251699Y-84354800D01*
X88340848Y-87312748D02*
X88340848Y-87573026D01*
X88341764Y-94516632D02*
X88341764Y-94772568D01*
X87997699Y-91344600D02*
X87502355Y-91344600D01*
X87837998Y-104163574D02*
X87837998Y-104687640D01*
X88169732Y-97344600D02*
X87997699Y-97344600D01*
X88341764Y-93316632D02*
X88341764Y-93572568D01*
X88169732Y-99744600D02*
X87997699Y-99744600D01*
X87997699Y-88344600D02*
X88169732Y-88344600D01*
X87997699Y-91944600D02*
X88169732Y-91944600D01*
X87733105Y-108100895D02*
X87274400Y-108559600D01*
X87997699Y-104847341D02*
X87997699Y-106418917D01*
X87703628Y-99891635D02*
X87703628Y-100197565D01*
X87850663Y-95544600D02*
X87997699Y-95544600D01*
X87997699Y-100944600D02*
X87851131Y-100944600D01*
X87997699Y-106418917D02*
X87733105Y-106683511D01*
X87951699Y-79204800D02*
X87551699Y-79204800D01*
X88169732Y-90144600D02*
X87997699Y-90144600D01*
X87997699Y-96744600D02*
X88169732Y-96744600D01*
X87997699Y-101691167D02*
X87997699Y-101994600D01*
X87850663Y-99144600D02*
X87997699Y-99144600D01*
X88251699Y-85140800D02*
X87997699Y-85394800D01*
X87951699Y-81604800D02*
X87551699Y-81604800D01*
X87997699Y-99744600D02*
X87850663Y-99744600D01*
X87997699Y-99144600D02*
X88169732Y-99144600D01*
X87502355Y-90744600D02*
X87997699Y-90744600D01*
X87997699Y-97344600D02*
X87850663Y-97344600D01*
X88169274Y-87744600D02*
X88169273Y-87744600D01*
X88341764Y-88516632D02*
X88341764Y-88772568D01*
X87703628Y-92691635D02*
X87703628Y-92997565D01*
X88341764Y-98116632D02*
X88341764Y-98372568D01*
X88341764Y-89716632D02*
X88341764Y-89972568D01*
X88251699Y-84354800D02*
X88251699Y-85140800D01*
X88169732Y-94944600D02*
X87997699Y-94944600D01*
X87551699Y-79804800D02*
X87951699Y-79804800D01*
X87997699Y-94344600D02*
X88169732Y-94344600D01*
X87997699Y-93144600D02*
X88169732Y-93144600D01*
X87997699Y-100344600D02*
X88169732Y-100344600D01*
X87733105Y-108083200D02*
X87733105Y-108100895D01*
X87997699Y-98544600D02*
X87850663Y-98544600D01*
X88169732Y-92544600D02*
X87997699Y-92544600D01*
X87997699Y-104003873D02*
X87837998Y-104163574D01*
X88169732Y-91344600D02*
X87997699Y-91344600D01*
X87997699Y-93744600D02*
X87850663Y-93744600D01*
X88341764Y-92116632D02*
X88341764Y-92372568D01*
X87851131Y-101544600D02*
X87851132Y-101544600D01*
X87850663Y-93144600D02*
X87997699Y-93144600D01*
X87750670Y-89544600D02*
X87997699Y-89544600D01*
X88341764Y-96916632D02*
X88341764Y-97172568D01*
X88341764Y-90916632D02*
X88341764Y-91172568D01*
X87704500Y-101398033D02*
G75*
G03*
X87851131Y-101544600I146600J33D01*
G01*
X87302356Y-87744556D02*
G75*
G03*
X87002356Y-88044600I44J-300044D01*
G01*
X88341700Y-89716632D02*
G75*
G03*
X88169732Y-89544600I-172000J32D01*
G01*
X88251700Y-78904800D02*
G75*
G03*
X87951699Y-78604800I-300000J0D01*
G01*
X88341700Y-95716632D02*
G75*
G03*
X88169732Y-95544600I-172000J32D01*
G01*
X87951699Y-81604799D02*
G75*
G03*
X88251699Y-81304800I1J299999D01*
G01*
X87951699Y-79204799D02*
G75*
G03*
X88251699Y-78904800I1J299999D01*
G01*
X88341700Y-90916632D02*
G75*
G03*
X88169732Y-90744600I-172000J32D01*
G01*
X88251700Y-81304800D02*
G75*
G03*
X87951699Y-81004800I-300000J0D01*
G01*
X87850663Y-94944528D02*
G75*
G03*
X87703628Y-95091635I37J-147072D01*
G01*
X88341700Y-93316632D02*
G75*
G03*
X88169732Y-93144600I-172000J32D01*
G01*
X88169732Y-99744664D02*
G75*
G03*
X88341764Y-99572568I-32J172064D01*
G01*
X87703700Y-98997565D02*
G75*
G03*
X87850663Y-99144600I147000J-35D01*
G01*
X87850663Y-96144528D02*
G75*
G03*
X87703628Y-96291635I37J-147072D01*
G01*
X88251700Y-77704800D02*
G75*
G03*
X87951699Y-77404800I-300000J0D01*
G01*
X88169732Y-98544664D02*
G75*
G03*
X88341764Y-98372568I-32J172064D01*
G01*
X87002400Y-88044600D02*
G75*
G03*
X87302356Y-88344600I300000J0D01*
G01*
X87202400Y-91644600D02*
G75*
G03*
X87502355Y-91944600I300000J0D01*
G01*
X87433105Y-107183205D02*
G75*
G03*
X87733105Y-106883200I-5J300005D01*
G01*
X88169732Y-92544664D02*
G75*
G03*
X88341764Y-92372568I-32J172064D01*
G01*
X88169732Y-93744664D02*
G75*
G03*
X88341764Y-93572568I-32J172064D01*
G01*
X87951699Y-82804799D02*
G75*
G03*
X88251699Y-82504800I1J299999D01*
G01*
X87951699Y-78004799D02*
G75*
G03*
X88251699Y-77704800I1J299999D01*
G01*
X87251700Y-79504800D02*
G75*
G03*
X87551699Y-79804800I300000J0D01*
G01*
X88341700Y-92116632D02*
G75*
G03*
X88169732Y-91944600I-172000J32D01*
G01*
X88341700Y-98116632D02*
G75*
G03*
X88169732Y-97944600I-172000J32D01*
G01*
X88251700Y-80104800D02*
G75*
G03*
X87951699Y-79804800I-300000J0D01*
G01*
X88341700Y-99316632D02*
G75*
G03*
X88169732Y-99144600I-172000J32D01*
G01*
X87951699Y-76804799D02*
G75*
G03*
X88251699Y-76504800I1J299999D01*
G01*
X88169274Y-87744548D02*
G75*
G03*
X88340848Y-87573026I26J171548D01*
G01*
X87133100Y-107483200D02*
G75*
G03*
X87433105Y-107783200I300000J0D01*
G01*
X87703700Y-100197565D02*
G75*
G03*
X87850663Y-100344600I147000J-35D01*
G01*
X87703700Y-92997565D02*
G75*
G03*
X87850663Y-93144600I147000J-35D01*
G01*
X88341700Y-100516632D02*
G75*
G03*
X88169732Y-100344600I-172000J32D01*
G01*
X88341700Y-88516632D02*
G75*
G03*
X88169732Y-88344600I-172000J32D01*
G01*
X87850663Y-97344528D02*
G75*
G03*
X87703628Y-97491635I37J-147072D01*
G01*
X88169732Y-100944664D02*
G75*
G03*
X88341764Y-100772568I-32J172064D01*
G01*
X87850663Y-98544528D02*
G75*
G03*
X87703628Y-98691635I37J-147072D01*
G01*
X87503700Y-89297571D02*
G75*
G03*
X87750670Y-89544600I247000J-29D01*
G01*
X87851131Y-100944664D02*
G75*
G03*
X87704564Y-101091167I-31J-146536D01*
G01*
X88341700Y-96916632D02*
G75*
G03*
X88169732Y-96744600I-172000J32D01*
G01*
X87251700Y-77104800D02*
G75*
G03*
X87551699Y-77404800I300000J0D01*
G01*
X87850663Y-93744528D02*
G75*
G03*
X87703628Y-93891635I37J-147072D01*
G01*
X88251700Y-83704800D02*
G75*
G03*
X87951699Y-83404800I-300000J0D01*
G01*
X87551699Y-81604799D02*
G75*
G03*
X87251699Y-81904800I1J-300001D01*
G01*
X87703700Y-96597565D02*
G75*
G03*
X87850663Y-96744600I147000J-35D01*
G01*
X87750670Y-88944541D02*
G75*
G03*
X87503641Y-89191629I30J-247059D01*
G01*
X87551699Y-78004799D02*
G75*
G03*
X87251699Y-78304800I1J-300001D01*
G01*
X87850663Y-99744528D02*
G75*
G03*
X87703628Y-99891635I37J-147072D01*
G01*
X87251700Y-80704800D02*
G75*
G03*
X87551699Y-81004800I300000J0D01*
G01*
X88169732Y-94944664D02*
G75*
G03*
X88341764Y-94772568I-32J172064D01*
G01*
X87901699Y-82804799D02*
G75*
G03*
X87601699Y-83104800I1J-300001D01*
G01*
X88340826Y-87312748D02*
G75*
G03*
X88169274Y-87141174I-171526J48D01*
G01*
X87551699Y-80404799D02*
G75*
G03*
X87251699Y-80704800I1J-300001D01*
G01*
X88169732Y-96144664D02*
G75*
G03*
X88341764Y-95972568I-32J172064D01*
G01*
X87551699Y-79204799D02*
G75*
G03*
X87251699Y-79504800I1J-300001D01*
G01*
X87850663Y-92544528D02*
G75*
G03*
X87703628Y-92691635I37J-147072D01*
G01*
X87997726Y-86969600D02*
G75*
G03*
X88169273Y-87141174I171574J0D01*
G01*
X87997700Y-101691167D02*
G75*
G03*
X87851132Y-101544600I-146600J-33D01*
G01*
X87433105Y-107183205D02*
G75*
G03*
X87133105Y-107483200I-5J-299995D01*
G01*
X87251700Y-81904800D02*
G75*
G03*
X87551699Y-82204800I300000J0D01*
G01*
X88169732Y-90144664D02*
G75*
G03*
X88341764Y-89972568I-32J172064D01*
G01*
X87502355Y-90144555D02*
G75*
G03*
X87202355Y-90444600I45J-300045D01*
G01*
X87951699Y-80404799D02*
G75*
G03*
X88251699Y-80104800I1J299999D01*
G01*
X87601700Y-83104800D02*
G75*
G03*
X87901699Y-83404800I300000J0D01*
G01*
X87703700Y-95397565D02*
G75*
G03*
X87850663Y-95544600I147000J-35D01*
G01*
X87251700Y-78304800D02*
G75*
G03*
X87551699Y-78604800I300000J0D01*
G01*
X88251700Y-82504800D02*
G75*
G03*
X87951699Y-82204800I-300000J0D01*
G01*
X88169732Y-88944664D02*
G75*
G03*
X88341764Y-88772568I-32J172064D01*
G01*
X87502355Y-91344555D02*
G75*
G03*
X87202355Y-91644600I45J-300045D01*
G01*
X87733100Y-108083200D02*
G75*
G03*
X87433105Y-107783200I-300000J0D01*
G01*
X87703700Y-94197565D02*
G75*
G03*
X87850663Y-94344600I147000J-35D01*
G01*
X87202400Y-90444600D02*
G75*
G03*
X87502355Y-90744600I300000J0D01*
G01*
X87703700Y-97797565D02*
G75*
G03*
X87850663Y-97944600I147000J-35D01*
G01*
X87551699Y-76804799D02*
G75*
G03*
X87251699Y-77104800I1J-300001D01*
G01*
X88169732Y-97344664D02*
G75*
G03*
X88341764Y-97172568I-32J172064D01*
G01*
X88341700Y-94516632D02*
G75*
G03*
X88169732Y-94344600I-172000J32D01*
G01*
X88169732Y-91344664D02*
G75*
G03*
X88341764Y-91172568I-32J172064D01*
G01*
X88595200Y-97820000D02*
X88595200Y-98220000D01*
X88239600Y-105816400D02*
X88595200Y-106172000D01*
X88595200Y-101320000D02*
X88420200Y-101320000D01*
X88595200Y-103020000D02*
X88595200Y-103225600D01*
X88795200Y-92420000D02*
X88795200Y-92820000D01*
X88079899Y-104263773D02*
X88079899Y-104587441D01*
X88493600Y-82809600D02*
X88493600Y-83459600D01*
X89043600Y-77709600D02*
X88793600Y-77709600D01*
X88795200Y-102020000D02*
X88795200Y-102420000D01*
X88793600Y-77109600D02*
X89043600Y-77109600D01*
X88595200Y-91820000D02*
X88595200Y-92220000D01*
X88595200Y-103225600D02*
X88290400Y-103530400D01*
X88793600Y-81909600D02*
X89193600Y-81909600D01*
X89193600Y-81309600D02*
X88793600Y-81309600D01*
X88290400Y-103530400D02*
X88290400Y-103936800D01*
X88595200Y-87020000D02*
X88595200Y-87420000D01*
X88695200Y-85720000D02*
X88595200Y-85720000D01*
X88595200Y-90620000D02*
X88595200Y-91020000D01*
X88595200Y-84620000D02*
X88595200Y-85020000D01*
X88493600Y-83459600D02*
X88493600Y-83566000D01*
X88239600Y-103987600D02*
X88239600Y-104104072D01*
X88795200Y-85220000D02*
X88795200Y-85620000D01*
X88595200Y-88220000D02*
X88595200Y-88620000D01*
X88595200Y-86320000D02*
X88695200Y-86320000D01*
X88793600Y-78309600D02*
X89043600Y-78309600D01*
X88795200Y-99620000D02*
X88795200Y-100020000D01*
X88795200Y-94820000D02*
X88795200Y-95220000D01*
X88595200Y-102620000D02*
X88595200Y-103020000D01*
X88595200Y-96620000D02*
X88595200Y-97020000D01*
X88795200Y-86420000D02*
X88795200Y-86820000D01*
X88595200Y-94220000D02*
X88595200Y-94620000D01*
X88595200Y-93020000D02*
X88595200Y-93420000D01*
X88493600Y-83566000D02*
X88595200Y-83667600D01*
X88079899Y-104587441D02*
X88239600Y-104747142D01*
X88595200Y-100220000D02*
X88595200Y-100620000D01*
X88793600Y-80709600D02*
X89193600Y-80709600D01*
X88793600Y-79509600D02*
X89143600Y-79509600D01*
X88795200Y-87620000D02*
X88795200Y-88020000D01*
X88245200Y-85895000D02*
X88245200Y-86145000D01*
X88595200Y-89420000D02*
X88595200Y-89820000D01*
X88420200Y-101920000D02*
X88595200Y-101920000D01*
X88795200Y-93620000D02*
X88795200Y-94020000D01*
X89143600Y-80109600D02*
X88793600Y-80109600D01*
X88695200Y-101320000D02*
X88595200Y-101320000D01*
X88493600Y-76403200D02*
X88493600Y-76809600D01*
X88595200Y-83667600D02*
X88595200Y-83820000D01*
X88795200Y-97220000D02*
X88795200Y-97620000D01*
X88795200Y-90020000D02*
X88795200Y-90420000D01*
X88595200Y-106578400D02*
X88544400Y-106629200D01*
X88595200Y-95420000D02*
X88595200Y-95820000D01*
X88595200Y-85720000D02*
X88420200Y-85720000D01*
X88795200Y-91220000D02*
X88795200Y-91620000D01*
X88245200Y-101495000D02*
X88245200Y-101745000D01*
X88795200Y-100820000D02*
X88795200Y-101220000D01*
X88795200Y-84020000D02*
X88795200Y-84420000D01*
X88420200Y-86320000D02*
X88595200Y-86320000D01*
X88795200Y-88820000D02*
X88795200Y-89220000D01*
X88595200Y-106172000D02*
X88595200Y-106578400D01*
X88239600Y-104104072D02*
X88079899Y-104263773D01*
X88290400Y-103936800D02*
X88239600Y-103987600D01*
X88595200Y-99020000D02*
X88595200Y-99420000D01*
X88795200Y-96020000D02*
X88795200Y-96420000D01*
X88795200Y-98420000D02*
X88795200Y-98820000D01*
X88747600Y-76149200D02*
X88493600Y-76403200D01*
X88595200Y-101920000D02*
X88695200Y-101920000D01*
X88239600Y-104747142D02*
X88239600Y-105816400D01*
X89043600Y-78909600D02*
X88793600Y-78909600D01*
X89193600Y-82509600D02*
X88793600Y-82509600D01*
X88695200Y-95320000D02*
G75*
G03*
X88795200Y-95220000I0J100000D01*
G01*
X88245200Y-101745000D02*
G75*
G03*
X88420200Y-101920000I175000J0D01*
G01*
X89143600Y-80109600D02*
G75*
G03*
X89443600Y-79809600I0J300000D01*
G01*
X88695200Y-88120000D02*
G75*
G03*
X88795200Y-88020000I0J100000D01*
G01*
X88695200Y-98920000D02*
G75*
G03*
X88795200Y-98820000I0J100000D01*
G01*
X88695200Y-102520000D02*
G75*
G03*
X88795200Y-102420000I0J100000D01*
G01*
X88493600Y-79209600D02*
G75*
G03*
X88793600Y-79509600I300000J0D01*
G01*
X88695200Y-100120000D02*
G75*
G03*
X88795200Y-100020000I0J100000D01*
G01*
X88795200Y-90020000D02*
G75*
G03*
X88695200Y-89920000I-100000J0D01*
G01*
X88793600Y-82509600D02*
G75*
G03*
X88493600Y-82809600I0J-300000D01*
G01*
X88595200Y-94620000D02*
G75*
G03*
X88695200Y-94720000I100000J0D01*
G01*
X88795200Y-98420000D02*
G75*
G03*
X88695200Y-98320000I-100000J0D01*
G01*
X88695200Y-91720000D02*
G75*
G03*
X88795200Y-91620000I0J100000D01*
G01*
X88595200Y-83820000D02*
G75*
G03*
X88695200Y-83920000I100000J0D01*
G01*
X88595200Y-95820000D02*
G75*
G03*
X88695200Y-95920000I100000J0D01*
G01*
X88795200Y-96020000D02*
G75*
G03*
X88695200Y-95920000I-100000J0D01*
G01*
X88595200Y-100620000D02*
G75*
G03*
X88695200Y-100720000I100000J0D01*
G01*
X88795200Y-84020000D02*
G75*
G03*
X88695200Y-83920000I-100000J0D01*
G01*
X88695200Y-101320000D02*
G75*
G03*
X88795200Y-101220000I0J100000D01*
G01*
X88595200Y-85020000D02*
G75*
G03*
X88695200Y-85120000I100000J0D01*
G01*
X88595200Y-97020000D02*
G75*
G03*
X88695200Y-97120000I100000J0D01*
G01*
X89443600Y-79809600D02*
G75*
G03*
X89143600Y-79509600I-300000J0D01*
G01*
X88695200Y-96520000D02*
G75*
G03*
X88595200Y-96620000I0J-100000D01*
G01*
X88795200Y-87620000D02*
G75*
G03*
X88695200Y-87520000I-100000J0D01*
G01*
X88695200Y-100120000D02*
G75*
G03*
X88595200Y-100220000I0J-100000D01*
G01*
X89493600Y-81009600D02*
G75*
G03*
X89193600Y-80709600I-300000J0D01*
G01*
X88695200Y-97720000D02*
G75*
G03*
X88595200Y-97820000I0J-100000D01*
G01*
X89493600Y-82209600D02*
G75*
G03*
X89193600Y-81909600I-300000J0D01*
G01*
X88595200Y-91020000D02*
G75*
G03*
X88695200Y-91120000I100000J0D01*
G01*
X88795200Y-102020000D02*
G75*
G03*
X88695200Y-101920000I-100000J0D01*
G01*
X88595200Y-92220000D02*
G75*
G03*
X88695200Y-92320000I100000J0D01*
G01*
X88595200Y-98220000D02*
G75*
G03*
X88695200Y-98320000I100000J0D01*
G01*
X89043600Y-78909600D02*
G75*
G03*
X89343600Y-78609600I0J300000D01*
G01*
X88245200Y-86145000D02*
G75*
G03*
X88420200Y-86320000I175000J0D01*
G01*
X88695200Y-89320000D02*
G75*
G03*
X88795200Y-89220000I0J100000D01*
G01*
X88795200Y-97220000D02*
G75*
G03*
X88695200Y-97120000I-100000J0D01*
G01*
X88493600Y-76809600D02*
G75*
G03*
X88793600Y-77109600I300000J0D01*
G01*
X89043600Y-77709600D02*
G75*
G03*
X89343600Y-77409600I0J300000D01*
G01*
X88695200Y-86920000D02*
G75*
G03*
X88595200Y-87020000I0J-100000D01*
G01*
X88793600Y-77709600D02*
G75*
G03*
X88493600Y-78009600I0J-300000D01*
G01*
X88695200Y-95320000D02*
G75*
G03*
X88595200Y-95420000I0J-100000D01*
G01*
X88795200Y-93620000D02*
G75*
G03*
X88695200Y-93520000I-100000J0D01*
G01*
X88493600Y-78009600D02*
G75*
G03*
X88793600Y-78309600I300000J0D01*
G01*
X88695200Y-90520000D02*
G75*
G03*
X88595200Y-90620000I0J-100000D01*
G01*
X88793600Y-78909600D02*
G75*
G03*
X88493600Y-79209600I0J-300000D01*
G01*
X88695200Y-98920000D02*
G75*
G03*
X88595200Y-99020000I0J-100000D01*
G01*
X88595200Y-88620000D02*
G75*
G03*
X88695200Y-88720000I100000J0D01*
G01*
X89343600Y-77409600D02*
G75*
G03*
X89043600Y-77109600I-300000J0D01*
G01*
X88695200Y-94120000D02*
G75*
G03*
X88795200Y-94020000I0J100000D01*
G01*
X88795200Y-99620000D02*
G75*
G03*
X88695200Y-99520000I-100000J0D01*
G01*
X88595200Y-99420000D02*
G75*
G03*
X88695200Y-99520000I100000J0D01*
G01*
X88420200Y-85720000D02*
G75*
G03*
X88245200Y-85895000I0J-175000D01*
G01*
X88795200Y-85220000D02*
G75*
G03*
X88695200Y-85120000I-100000J0D01*
G01*
X88695200Y-90520000D02*
G75*
G03*
X88795200Y-90420000I0J100000D01*
G01*
X88795200Y-88820000D02*
G75*
G03*
X88695200Y-88720000I-100000J0D01*
G01*
X88695200Y-88120000D02*
G75*
G03*
X88595200Y-88220000I0J-100000D01*
G01*
X88695200Y-91720000D02*
G75*
G03*
X88595200Y-91820000I0J-100000D01*
G01*
X88793600Y-80109600D02*
G75*
G03*
X88493600Y-80409600I0J-300000D01*
G01*
X88420200Y-101320000D02*
G75*
G03*
X88245200Y-101495000I0J-175000D01*
G01*
X88595200Y-87420000D02*
G75*
G03*
X88695200Y-87520000I100000J0D01*
G01*
X89193600Y-82509600D02*
G75*
G03*
X89493600Y-82209600I0J300000D01*
G01*
X88695200Y-97720000D02*
G75*
G03*
X88795200Y-97620000I0J100000D01*
G01*
X88695200Y-85720000D02*
G75*
G03*
X88795200Y-85620000I0J100000D01*
G01*
X88795200Y-86420000D02*
G75*
G03*
X88695200Y-86320000I-100000J0D01*
G01*
X88695200Y-86920000D02*
G75*
G03*
X88795200Y-86820000I0J100000D01*
G01*
X89343600Y-78609600D02*
G75*
G03*
X89043600Y-78309600I-300000J0D01*
G01*
X88695200Y-102520000D02*
G75*
G03*
X88595200Y-102620000I0J-100000D01*
G01*
X88795200Y-91220000D02*
G75*
G03*
X88695200Y-91120000I-100000J0D01*
G01*
X88795200Y-92420000D02*
G75*
G03*
X88695200Y-92320000I-100000J0D01*
G01*
X88695200Y-94120000D02*
G75*
G03*
X88595200Y-94220000I0J-100000D01*
G01*
X88695200Y-92920000D02*
G75*
G03*
X88595200Y-93020000I0J-100000D01*
G01*
X88793600Y-81309600D02*
G75*
G03*
X88493600Y-81609600I0J-300000D01*
G01*
X88795200Y-100820000D02*
G75*
G03*
X88695200Y-100720000I-100000J0D01*
G01*
X88695200Y-96520000D02*
G75*
G03*
X88795200Y-96420000I0J100000D01*
G01*
X88493600Y-81609600D02*
G75*
G03*
X88793600Y-81909600I300000J0D01*
G01*
X88595200Y-93420000D02*
G75*
G03*
X88695200Y-93520000I100000J0D01*
G01*
X88695200Y-84520000D02*
G75*
G03*
X88595200Y-84620000I0J-100000D01*
G01*
X88493600Y-80409600D02*
G75*
G03*
X88793600Y-80709600I300000J0D01*
G01*
X88795200Y-94820000D02*
G75*
G03*
X88695200Y-94720000I-100000J0D01*
G01*
X88695200Y-89320000D02*
G75*
G03*
X88595200Y-89420000I0J-100000D01*
G01*
X89193600Y-81309600D02*
G75*
G03*
X89493600Y-81009600I0J300000D01*
G01*
X88695200Y-92920000D02*
G75*
G03*
X88795200Y-92820000I0J100000D01*
G01*
X88695200Y-84520000D02*
G75*
G03*
X88795200Y-84420000I0J100000D01*
G01*
X88595200Y-89820000D02*
G75*
G03*
X88695200Y-89920000I100000J0D01*
G01*
X90728800Y-96723200D02*
X90728800Y-96469200D01*
X90728800Y-104343200D02*
X90728800Y-103148200D01*
X90028800Y-101823200D02*
X90728800Y-101823200D01*
X90853800Y-90536000D02*
X90728800Y-90536000D01*
X90728800Y-95269200D02*
X90728800Y-94436000D01*
X90853800Y-92936000D02*
X90728800Y-92936000D01*
X90978800Y-101698200D02*
X90978800Y-101348200D01*
X90028800Y-86336000D02*
X90728800Y-86336000D01*
X90428800Y-85736000D02*
X90028800Y-85736000D01*
X90728800Y-92336000D02*
X90853800Y-92336000D01*
X90028800Y-89936000D02*
X90728800Y-89936000D01*
X90728800Y-91136000D02*
X90853800Y-91136000D01*
X90028800Y-88736000D02*
X90728800Y-88736000D01*
X90728800Y-98223200D02*
X90853800Y-98223200D01*
X90728800Y-88136000D02*
X90028800Y-88136000D01*
X90978800Y-100498200D02*
X90978800Y-100148200D01*
X90028800Y-98223200D02*
X90728800Y-98223200D01*
X90728800Y-88736000D02*
X90853800Y-88736000D01*
X90728800Y-101223200D02*
X90028800Y-101223200D01*
X90853800Y-89336000D02*
X90728800Y-89336000D01*
X90028800Y-85136000D02*
X90428800Y-85136000D01*
X90978800Y-93351420D02*
X90978800Y-93061000D01*
X90728800Y-84836000D02*
X90728800Y-82905600D01*
X90728800Y-86336000D02*
X90853800Y-86336000D01*
X90728800Y-86936000D02*
X90028800Y-86936000D01*
X90428800Y-94136000D02*
X90028800Y-94136000D01*
X90728800Y-91736000D02*
X90028800Y-91736000D01*
X90728800Y-98823200D02*
X90028800Y-98823200D01*
X90728800Y-92936000D02*
X90028800Y-92936000D01*
X90728800Y-89936000D02*
X90853800Y-89936000D01*
X90728800Y-100023200D02*
X90178800Y-100023200D01*
X90728800Y-99423200D02*
X90853800Y-99423200D01*
X90978800Y-93411000D02*
X90978800Y-93351420D01*
X90978800Y-89811000D02*
X90978800Y-89461000D01*
X90853800Y-101223200D02*
X90728800Y-101223200D01*
X90978800Y-88611000D02*
X90978800Y-88261000D01*
X90853800Y-102423200D02*
X90728800Y-102423200D01*
X90728800Y-100623200D02*
X90853800Y-100623200D01*
X90178800Y-99423200D02*
X90728800Y-99423200D01*
X90028800Y-93536000D02*
X90728800Y-93536000D01*
X90853800Y-100023200D02*
X90728800Y-100023200D01*
X90028800Y-87536000D02*
X90728800Y-87536000D01*
X90853800Y-91736000D02*
X90728800Y-91736000D01*
X90978800Y-87411000D02*
X90978800Y-87061000D01*
X90853800Y-85736000D02*
X90428800Y-85736000D01*
X90728800Y-87536000D02*
X90853800Y-87536000D01*
X90978800Y-98098200D02*
X90978800Y-97748200D01*
X90728800Y-95619200D02*
X90728800Y-95269200D01*
X90028800Y-100623200D02*
X90728800Y-100623200D01*
X90028800Y-97023200D02*
X90428800Y-97023200D01*
X90853800Y-86936000D02*
X90728800Y-86936000D01*
X90853800Y-97623200D02*
X90428800Y-97623200D01*
X90978800Y-92211000D02*
X90978800Y-91861000D01*
X90428800Y-97623200D02*
X90028800Y-97623200D01*
X90028800Y-91136000D02*
X90728800Y-91136000D01*
X90978800Y-91011000D02*
X90978800Y-90661000D01*
X90728800Y-101823200D02*
X90853800Y-101823200D01*
X90978800Y-102898200D02*
X90978800Y-102548200D01*
X90728800Y-89336000D02*
X90028800Y-89336000D01*
X90028800Y-92336000D02*
X90728800Y-92336000D01*
X90978800Y-86211000D02*
X90978800Y-85861000D01*
X90978800Y-99298200D02*
X90978800Y-98948200D01*
X90853800Y-88136000D02*
X90728800Y-88136000D01*
X90853800Y-98823200D02*
X90728800Y-98823200D01*
X90978800Y-96219200D02*
X90978800Y-95869200D01*
X90728800Y-102423200D02*
X90028800Y-102423200D01*
X90728800Y-93536000D02*
X90853800Y-93536000D01*
X90728800Y-90536000D02*
X90028800Y-90536000D01*
X90978800Y-88261000D02*
G75*
G03*
X90853800Y-88136000I-125000J0D01*
G01*
X90728800Y-95619200D02*
G75*
G03*
X90853800Y-95744200I125000J0D01*
G01*
X90028800Y-89936000D02*
G75*
G03*
X89728800Y-90236000I0J-300000D01*
G01*
X90028800Y-97023200D02*
G75*
G03*
X89728800Y-97323200I0J-300000D01*
G01*
X90853800Y-93536000D02*
G75*
G03*
X90978800Y-93411000I0J125000D01*
G01*
X89728800Y-85436000D02*
G75*
G03*
X90028800Y-85736000I300000J0D01*
G01*
X89728800Y-86636000D02*
G75*
G03*
X90028800Y-86936000I300000J0D01*
G01*
X90978800Y-98948200D02*
G75*
G03*
X90853800Y-98823200I-125000J0D01*
G01*
X90978800Y-97748200D02*
G75*
G03*
X90853800Y-97623200I-125000J0D01*
G01*
X90978800Y-95869200D02*
G75*
G03*
X90853800Y-95744200I-125000J0D01*
G01*
X90028800Y-100623200D02*
G75*
G03*
X89728800Y-100923200I0J-300000D01*
G01*
X90028800Y-93536000D02*
G75*
G03*
X89728800Y-93836000I0J-300000D01*
G01*
X89728800Y-98523200D02*
G75*
G03*
X90028800Y-98823200I300000J0D01*
G01*
X90978800Y-102548200D02*
G75*
G03*
X90853800Y-102423200I-125000J0D01*
G01*
X89728800Y-87836000D02*
G75*
G03*
X90028800Y-88136000I300000J0D01*
G01*
X90978800Y-89461000D02*
G75*
G03*
X90853800Y-89336000I-125000J0D01*
G01*
X90978800Y-100148200D02*
G75*
G03*
X90853800Y-100023200I-125000J0D01*
G01*
X90853800Y-91136000D02*
G75*
G03*
X90978800Y-91011000I0J125000D01*
G01*
X90028800Y-85136000D02*
G75*
G03*
X89728800Y-85436000I0J-300000D01*
G01*
X90853800Y-89936000D02*
G75*
G03*
X90978800Y-89811000I0J125000D01*
G01*
X90028800Y-98223200D02*
G75*
G03*
X89728800Y-98523200I0J-300000D01*
G01*
X89728800Y-97323200D02*
G75*
G03*
X90028800Y-97623200I300000J0D01*
G01*
X90028800Y-87536000D02*
G75*
G03*
X89728800Y-87836000I0J-300000D01*
G01*
X89728800Y-102123200D02*
G75*
G03*
X90028800Y-102423200I300000J0D01*
G01*
X89728800Y-93836000D02*
G75*
G03*
X90028800Y-94136000I300000J0D01*
G01*
X90978800Y-90661000D02*
G75*
G03*
X90853800Y-90536000I-125000J0D01*
G01*
X90028800Y-88736000D02*
G75*
G03*
X89728800Y-89036000I0J-300000D01*
G01*
X90028800Y-101823200D02*
G75*
G03*
X89728800Y-102123200I0J-300000D01*
G01*
X89728800Y-100923200D02*
G75*
G03*
X90028800Y-101223200I300000J0D01*
G01*
X90853800Y-99423200D02*
G75*
G03*
X90978800Y-99298200I0J125000D01*
G01*
X90978800Y-93061000D02*
G75*
G03*
X90853800Y-92936000I-125000J0D01*
G01*
X90178800Y-99423200D02*
G75*
G03*
X89878800Y-99723200I0J-300000D01*
G01*
X90028800Y-86336000D02*
G75*
G03*
X89728800Y-86636000I0J-300000D01*
G01*
X90853800Y-92336000D02*
G75*
G03*
X90978800Y-92211000I0J125000D01*
G01*
X90853800Y-101823200D02*
G75*
G03*
X90978800Y-101698200I0J125000D01*
G01*
X90853800Y-103023200D02*
G75*
G03*
X90978800Y-102898200I0J125000D01*
G01*
X89728800Y-91436000D02*
G75*
G03*
X90028800Y-91736000I300000J0D01*
G01*
X90028800Y-92336000D02*
G75*
G03*
X89728800Y-92636000I0J-300000D01*
G01*
X90978800Y-91861000D02*
G75*
G03*
X90853800Y-91736000I-125000J0D01*
G01*
X90853800Y-96344200D02*
G75*
G03*
X90978800Y-96219200I0J125000D01*
G01*
X90978800Y-101348200D02*
G75*
G03*
X90853800Y-101223200I-125000J0D01*
G01*
X90853800Y-100623200D02*
G75*
G03*
X90978800Y-100498200I0J125000D01*
G01*
X90853800Y-96344200D02*
G75*
G03*
X90728800Y-96469200I0J-125000D01*
G01*
X89728800Y-89036000D02*
G75*
G03*
X90028800Y-89336000I300000J0D01*
G01*
X89728800Y-92636000D02*
G75*
G03*
X90028800Y-92936000I300000J0D01*
G01*
X90853800Y-87536000D02*
G75*
G03*
X90978800Y-87411000I0J125000D01*
G01*
X89728800Y-90236000D02*
G75*
G03*
X90028800Y-90536000I300000J0D01*
G01*
X90853800Y-88736000D02*
G75*
G03*
X90978800Y-88611000I0J125000D01*
G01*
X90978800Y-85861000D02*
G75*
G03*
X90853800Y-85736000I-125000J0D01*
G01*
X90853800Y-103023200D02*
G75*
G03*
X90728800Y-103148200I0J-125000D01*
G01*
X89878800Y-99723200D02*
G75*
G03*
X90178800Y-100023200I300000J0D01*
G01*
X90028800Y-91136000D02*
G75*
G03*
X89728800Y-91436000I0J-300000D01*
G01*
X90428800Y-85136000D02*
G75*
G03*
X90728800Y-84836000I0J300000D01*
G01*
X90428800Y-97023200D02*
G75*
G03*
X90728800Y-96723200I0J300000D01*
G01*
X90853800Y-98223200D02*
G75*
G03*
X90978800Y-98098200I0J125000D01*
G01*
X90853800Y-86336000D02*
G75*
G03*
X90978800Y-86211000I0J125000D01*
G01*
X90728800Y-94436000D02*
G75*
G03*
X90428800Y-94136000I-300000J0D01*
G01*
X90978800Y-87061000D02*
G75*
G03*
X90853800Y-86936000I-125000J0D01*
G01*
X91536800Y-91103800D02*
X91586800Y-91103800D01*
X91586800Y-99050400D02*
X91536800Y-99050400D01*
X91586800Y-88103800D02*
X91536800Y-88103800D01*
X91536800Y-88703800D02*
X91586800Y-88703800D01*
X91586800Y-103300400D02*
X91236800Y-103300400D01*
X91586800Y-94250400D02*
X91236800Y-94250400D01*
X91236800Y-105285399D02*
X91287600Y-105336199D01*
X91536800Y-99650400D02*
X91586800Y-99650400D01*
X91536800Y-103900400D02*
X91586800Y-103900400D01*
X90986800Y-94375400D02*
X90986800Y-94725400D01*
X91111800Y-103900400D02*
X91536800Y-103900400D01*
X91586800Y-92903800D02*
X91536800Y-92903800D01*
X91236800Y-93203800D02*
X91236800Y-93350400D01*
X91586800Y-91703800D02*
X91536800Y-91703800D01*
X91536800Y-92303800D02*
X91586800Y-92303800D01*
X90986800Y-96775400D02*
X90986800Y-97125400D01*
X91586800Y-102100400D02*
X91536800Y-102100400D01*
X91536800Y-96050400D02*
X91586800Y-96050400D01*
X91536800Y-94850400D02*
X91586800Y-94850400D01*
X91586800Y-85703800D02*
X91536800Y-85703800D01*
X91586800Y-90503800D02*
X91536800Y-90503800D01*
X91111800Y-85103800D02*
X91236800Y-85103800D01*
X90986800Y-103425400D02*
X90986800Y-103775400D01*
X90986800Y-84628800D02*
X90986800Y-84978800D01*
X91536800Y-102700400D02*
X91586800Y-102700400D01*
X91536800Y-87503800D02*
X91586800Y-87503800D01*
X91236800Y-100550400D02*
X91236800Y-101200400D01*
X91536800Y-89903800D02*
X91586800Y-89903800D01*
X91536800Y-98450400D02*
X91586800Y-98450400D01*
X91236800Y-103300400D02*
X91111800Y-103300400D01*
X91236800Y-83667600D02*
X91236800Y-84378800D01*
X91536800Y-97250400D02*
X91586800Y-97250400D01*
X91236800Y-104800400D02*
X91236800Y-105285399D01*
X91586800Y-104500400D02*
X91536800Y-104500400D01*
X91236800Y-96650400D02*
X91111800Y-96650400D01*
X91586800Y-86903800D02*
X91536800Y-86903800D01*
X91586800Y-100250400D02*
X91536800Y-100250400D01*
X91111800Y-94850400D02*
X91536800Y-94850400D01*
X91586800Y-96650400D02*
X91236800Y-96650400D01*
X91536800Y-86303800D02*
X91586800Y-86303800D01*
X91236800Y-94250400D02*
X91111800Y-94250400D01*
X91536800Y-101500400D02*
X91586800Y-101500400D01*
X91586800Y-95450400D02*
X91536800Y-95450400D01*
X91586800Y-97850400D02*
X91536800Y-97850400D01*
X91536800Y-93650400D02*
X91586800Y-93650400D01*
X91236800Y-85103800D02*
X91586800Y-85103800D01*
X91111800Y-97250400D02*
X91536800Y-97250400D01*
X91586800Y-89303800D02*
X91536800Y-89303800D01*
X91886800Y-97550400D02*
G75*
G03*
X91586800Y-97250400I-300000J0D01*
G01*
X91111800Y-94250400D02*
G75*
G03*
X90986800Y-94375400I0J-125000D01*
G01*
X91586800Y-91703800D02*
G75*
G03*
X91886800Y-91403800I0J300000D01*
G01*
X91886800Y-104200400D02*
G75*
G03*
X91586800Y-103900400I-300000J0D01*
G01*
X91536800Y-100250400D02*
G75*
G03*
X91236800Y-100550400I0J-300000D01*
G01*
X91536800Y-104500400D02*
G75*
G03*
X91236800Y-104800400I0J-300000D01*
G01*
X91536800Y-86903800D02*
G75*
G03*
X91236800Y-87203800I0J-300000D01*
G01*
X91236800Y-95750400D02*
G75*
G03*
X91536800Y-96050400I300000J0D01*
G01*
X91586800Y-90503800D02*
G75*
G03*
X91886800Y-90203800I0J300000D01*
G01*
X91536800Y-102100400D02*
G75*
G03*
X91236800Y-102400400I0J-300000D01*
G01*
X91236800Y-101200400D02*
G75*
G03*
X91536800Y-101500400I300000J0D01*
G01*
X91886800Y-89003800D02*
G75*
G03*
X91586800Y-88703800I-300000J0D01*
G01*
X91236800Y-86003800D02*
G75*
G03*
X91536800Y-86303800I300000J0D01*
G01*
X91536800Y-88103800D02*
G75*
G03*
X91236800Y-88403800I0J-300000D01*
G01*
X91586800Y-94250400D02*
G75*
G03*
X91886800Y-93950400I0J300000D01*
G01*
X91886800Y-98750400D02*
G75*
G03*
X91586800Y-98450400I-300000J0D01*
G01*
X91586800Y-85703800D02*
G75*
G03*
X91886800Y-85403800I0J300000D01*
G01*
X91236800Y-89603800D02*
G75*
G03*
X91536800Y-89903800I300000J0D01*
G01*
X91536800Y-92903800D02*
G75*
G03*
X91236800Y-93203800I0J-300000D01*
G01*
X91536800Y-91703800D02*
G75*
G03*
X91236800Y-92003800I0J-300000D01*
G01*
X91586800Y-103300400D02*
G75*
G03*
X91886800Y-103000400I0J300000D01*
G01*
X91111800Y-96650400D02*
G75*
G03*
X90986800Y-96775400I0J-125000D01*
G01*
X91586800Y-89303800D02*
G75*
G03*
X91886800Y-89003800I0J300000D01*
G01*
X91586800Y-99050400D02*
G75*
G03*
X91886800Y-98750400I0J300000D01*
G01*
X91586800Y-102100400D02*
G75*
G03*
X91886800Y-101800400I0J300000D01*
G01*
X91236800Y-93350400D02*
G75*
G03*
X91536800Y-93650400I300000J0D01*
G01*
X91536800Y-99050400D02*
G75*
G03*
X91236800Y-99350400I0J-300000D01*
G01*
X91886800Y-99950400D02*
G75*
G03*
X91586800Y-99650400I-300000J0D01*
G01*
X91536800Y-85703800D02*
G75*
G03*
X91236800Y-86003800I0J-300000D01*
G01*
X91586800Y-95450400D02*
G75*
G03*
X91886800Y-95150400I0J300000D01*
G01*
X91886800Y-103000400D02*
G75*
G03*
X91586800Y-102700400I-300000J0D01*
G01*
X91586800Y-97850400D02*
G75*
G03*
X91886800Y-97550400I0J300000D01*
G01*
X91236800Y-88403800D02*
G75*
G03*
X91536800Y-88703800I300000J0D01*
G01*
X91886800Y-86603800D02*
G75*
G03*
X91586800Y-86303800I-300000J0D01*
G01*
X90986800Y-84978800D02*
G75*
G03*
X91111800Y-85103800I125000J0D01*
G01*
X91886800Y-87803800D02*
G75*
G03*
X91586800Y-87503800I-300000J0D01*
G01*
X91536800Y-95450400D02*
G75*
G03*
X91236800Y-95750400I0J-300000D01*
G01*
X91536800Y-89303800D02*
G75*
G03*
X91236800Y-89603800I0J-300000D01*
G01*
X91236800Y-99350400D02*
G75*
G03*
X91536800Y-99650400I300000J0D01*
G01*
X91536800Y-97850400D02*
G75*
G03*
X91236800Y-98150400I0J-300000D01*
G01*
X91236800Y-90803800D02*
G75*
G03*
X91536800Y-91103800I300000J0D01*
G01*
X91886800Y-95150400D02*
G75*
G03*
X91586800Y-94850400I-300000J0D01*
G01*
X91886800Y-85403800D02*
G75*
G03*
X91586800Y-85103800I-300000J0D01*
G01*
X91236800Y-102400400D02*
G75*
G03*
X91536800Y-102700400I300000J0D01*
G01*
X91536800Y-90503800D02*
G75*
G03*
X91236800Y-90803800I0J-300000D01*
G01*
X91886800Y-90203800D02*
G75*
G03*
X91586800Y-89903800I-300000J0D01*
G01*
X91111800Y-84503800D02*
G75*
G03*
X90986800Y-84628800I0J-125000D01*
G01*
X91886800Y-96350400D02*
G75*
G03*
X91586800Y-96050400I-300000J0D01*
G01*
X91111800Y-103300400D02*
G75*
G03*
X90986800Y-103425400I0J-125000D01*
G01*
X91586800Y-88103800D02*
G75*
G03*
X91886800Y-87803800I0J300000D01*
G01*
X91236800Y-92003800D02*
G75*
G03*
X91536800Y-92303800I300000J0D01*
G01*
X91886800Y-101800400D02*
G75*
G03*
X91586800Y-101500400I-300000J0D01*
G01*
X91886800Y-92603800D02*
G75*
G03*
X91586800Y-92303800I-300000J0D01*
G01*
X91236800Y-87203800D02*
G75*
G03*
X91536800Y-87503800I300000J0D01*
G01*
X91111800Y-84503800D02*
G75*
G03*
X91236800Y-84378800I0J125000D01*
G01*
X91586800Y-92903800D02*
G75*
G03*
X91886800Y-92603800I0J300000D01*
G01*
X91886800Y-93950400D02*
G75*
G03*
X91586800Y-93650400I-300000J0D01*
G01*
X91886800Y-91403800D02*
G75*
G03*
X91586800Y-91103800I-300000J0D01*
G01*
X91586800Y-86903800D02*
G75*
G03*
X91886800Y-86603800I0J300000D01*
G01*
X91236800Y-98150400D02*
G75*
G03*
X91536800Y-98450400I300000J0D01*
G01*
X90986800Y-94725400D02*
G75*
G03*
X91111800Y-94850400I125000J0D01*
G01*
X91586800Y-104500400D02*
G75*
G03*
X91886800Y-104200400I0J300000D01*
G01*
X91586800Y-100250400D02*
G75*
G03*
X91886800Y-99950400I0J300000D01*
G01*
X90986800Y-103775400D02*
G75*
G03*
X91111800Y-103900400I125000J0D01*
G01*
X91586800Y-96650400D02*
G75*
G03*
X91886800Y-96350400I0J300000D01*
G01*
X90986800Y-97125400D02*
G75*
G03*
X91111800Y-97250400I125000J0D01*
G01*
X89814400Y-74218800D02*
X89814400Y-64363600D01*
X89814400Y-64363600D02*
X89662000Y-64211200D01*
X89611200Y-79248000D02*
X89611200Y-76098400D01*
X89662000Y-64211200D02*
X89662000Y-56134000D01*
X93014800Y-47040800D02*
X93624400Y-46431200D01*
X93624400Y-38404800D02*
X92303600Y-37084000D01*
X91440000Y-80365600D02*
X90474800Y-80365600D01*
X93014800Y-53187600D02*
X93014800Y-47040800D01*
X89611200Y-76098400D02*
X90068400Y-75641200D01*
X90474800Y-80365600D02*
X89611200Y-79502000D01*
X90068400Y-75641200D02*
X90068400Y-74472800D01*
X93624400Y-46431200D02*
X93624400Y-38404800D01*
X91694000Y-80111600D02*
X91440000Y-80365600D01*
X90068400Y-74472800D02*
X89814400Y-74218800D01*
X89662000Y-56134000D02*
X90728800Y-55067200D01*
X90728800Y-55067200D02*
X91135200Y-55067200D01*
X89611200Y-79502000D02*
X89611200Y-79248000D01*
X91135200Y-55067200D02*
X93014800Y-53187600D01*
X92151200Y-109372400D02*
X92252800Y-109474000D01*
X92151200Y-82651600D02*
X92151200Y-109372400D01*
X92850725Y-65950000D02*
X92850726Y-65950000D01*
X93000000Y-71950000D02*
X93149279Y-71950000D01*
X92850622Y-68350000D02*
X93000000Y-68350000D01*
X101675000Y-59500000D02*
X101600000Y-59425000D01*
X93149378Y-71350000D02*
X93000000Y-71350000D01*
X92850631Y-70750000D02*
X93000000Y-70750000D01*
X93149378Y-67750000D02*
X93000000Y-67750000D01*
X93000000Y-70750000D02*
X93149378Y-70750000D01*
X92725000Y-74775000D02*
X92725000Y-80061600D01*
X93149369Y-68950000D02*
X93000000Y-68950000D01*
X93000000Y-63975000D02*
X93000000Y-65200000D01*
X101675000Y-63950000D02*
X101675000Y-59500000D01*
X92850622Y-67150000D02*
X93000000Y-67150000D01*
X93149378Y-66550000D02*
X93000000Y-66550000D01*
X93298755Y-70899377D02*
X93298755Y-71200623D01*
X92850622Y-69550000D02*
X93000000Y-69550000D01*
X93298557Y-72099278D02*
X93298557Y-72400722D01*
X93000000Y-69550000D02*
X93149378Y-69550000D01*
X93298737Y-68499368D02*
X93298737Y-68800632D01*
X93000000Y-68350000D02*
X93149369Y-68350000D01*
X93000000Y-72699278D02*
X93000000Y-73000000D01*
X92701451Y-65498548D02*
X92701451Y-65800726D01*
X93000000Y-70150000D02*
X92850631Y-70150000D01*
X92701245Y-69099377D02*
X92701245Y-69400623D01*
X93000000Y-74500000D02*
X92725000Y-74775000D01*
X92850726Y-65950000D02*
X93149378Y-65950000D01*
X93298755Y-69699377D02*
X93298755Y-70000623D01*
X93000000Y-67150000D02*
X93149378Y-67150000D01*
X93149378Y-70150000D02*
X93000000Y-70150000D01*
X92701245Y-66699377D02*
X92701245Y-67000623D01*
X93298755Y-67299377D02*
X93298755Y-67600623D01*
X93000000Y-68950000D02*
X92850622Y-68950000D01*
X92701245Y-71499377D02*
X92701245Y-71800623D01*
X93149279Y-72550000D02*
X93149278Y-72550000D01*
X92701263Y-70299368D02*
X92701263Y-70600632D01*
X93000000Y-67750000D02*
X92850622Y-67750000D01*
X92850622Y-71950000D02*
X93000000Y-71950000D01*
X92725000Y-80061600D02*
X92675000Y-80111600D01*
X92701245Y-67899377D02*
X92701245Y-68200623D01*
X93000000Y-71350000D02*
X92850622Y-71350000D01*
X93000000Y-73000000D02*
X93000000Y-74500000D01*
X93298755Y-66099377D02*
X93298755Y-66400623D01*
X93000000Y-66550000D02*
X92850622Y-66550000D01*
X92850726Y-65349274D02*
X92850725Y-65349274D01*
X93149278Y-72550000D02*
G75*
G03*
X93000000Y-72699278I22J-149300D01*
G01*
X93298800Y-66099377D02*
G75*
G03*
X93149378Y-65950000I-149400J-23D01*
G01*
X93298800Y-68499368D02*
G75*
G03*
X93149369Y-68350000I-149400J-32D01*
G01*
X92850622Y-71350045D02*
G75*
G03*
X92701245Y-71499377I-22J-149355D01*
G01*
X92701200Y-71800623D02*
G75*
G03*
X92850622Y-71950000I149400J23D01*
G01*
X92850725Y-65349251D02*
G75*
G03*
X92701451Y-65498548I-25J-149249D01*
G01*
X92701200Y-67000623D02*
G75*
G03*
X92850622Y-67150000I149400J23D01*
G01*
X92850622Y-67750045D02*
G75*
G03*
X92701245Y-67899377I-22J-149355D01*
G01*
X92701200Y-68200623D02*
G75*
G03*
X92850622Y-68350000I149400J23D01*
G01*
X92850622Y-66550045D02*
G75*
G03*
X92701245Y-66699377I-22J-149355D01*
G01*
X93149378Y-67749955D02*
G75*
G03*
X93298755Y-67600623I22J149355D01*
G01*
X92850622Y-68950045D02*
G75*
G03*
X92701245Y-69099377I-22J-149355D01*
G01*
X93298800Y-69699377D02*
G75*
G03*
X93149378Y-69550000I-149400J-23D01*
G01*
X93149369Y-68949937D02*
G75*
G03*
X93298737Y-68800632I31J149337D01*
G01*
X93149378Y-66549955D02*
G75*
G03*
X93298755Y-66400623I22J149355D01*
G01*
X92850631Y-70150063D02*
G75*
G03*
X92701263Y-70299368I-31J-149337D01*
G01*
X93149378Y-70149955D02*
G75*
G03*
X93298755Y-70000623I22J149355D01*
G01*
X93298600Y-72099278D02*
G75*
G03*
X93149279Y-71950000I-149300J-22D01*
G01*
X93298800Y-67299377D02*
G75*
G03*
X93149378Y-67150000I-149400J-23D01*
G01*
X93149279Y-72549957D02*
G75*
G03*
X93298557Y-72400722I21J149257D01*
G01*
X92701400Y-65800726D02*
G75*
G03*
X92850725Y-65950000I149300J26D01*
G01*
X93149378Y-71349955D02*
G75*
G03*
X93298755Y-71200623I22J149355D01*
G01*
X92850726Y-65349300D02*
G75*
G03*
X93000000Y-65200000I-26J149300D01*
G01*
X93298800Y-70899377D02*
G75*
G03*
X93149378Y-70750000I-149400J-23D01*
G01*
X92701200Y-69400623D02*
G75*
G03*
X92850622Y-69550000I149400J23D01*
G01*
X92701200Y-70600632D02*
G75*
G03*
X92850631Y-70750000I149400J32D01*
G01*
X107825000Y-78575000D02*
X107825000Y-78875000D01*
X107825000Y-79775000D02*
X107825000Y-80075000D01*
X107825000Y-77375000D02*
X107825000Y-77675000D01*
X108125000Y-76775000D02*
X108125000Y-77075000D01*
X107825000Y-80975000D02*
X107825000Y-81275000D01*
X106650000Y-74925000D02*
X107825000Y-76100000D01*
X108125000Y-80375000D02*
X108125000Y-80675000D01*
X107825000Y-82175000D02*
X107825000Y-82475000D01*
X108125000Y-79175000D02*
X108125000Y-79475000D01*
X108125000Y-81575000D02*
X108125000Y-81875000D01*
X107825000Y-82475000D02*
X107825000Y-83550000D01*
X108125000Y-77975000D02*
X108125000Y-78275000D01*
X107825000Y-76100000D02*
X107825000Y-76475000D01*
X107975000Y-82025000D02*
G75*
G03*
X108125000Y-81875000I0J150000D01*
G01*
X107975000Y-77225000D02*
G75*
G03*
X108125000Y-77075000I0J150000D01*
G01*
X107825000Y-78875000D02*
G75*
G03*
X107975000Y-79025000I150000J0D01*
G01*
X107975000Y-82025000D02*
G75*
G03*
X107825000Y-82175000I0J-150000D01*
G01*
X108125000Y-77975000D02*
G75*
G03*
X107975000Y-77825000I-150000J0D01*
G01*
X107975000Y-78425000D02*
G75*
G03*
X108125000Y-78275000I0J150000D01*
G01*
X107975000Y-77225000D02*
G75*
G03*
X107825000Y-77375000I0J-150000D01*
G01*
X108125000Y-79175000D02*
G75*
G03*
X107975000Y-79025000I-150000J0D01*
G01*
X107975000Y-78425000D02*
G75*
G03*
X107825000Y-78575000I0J-150000D01*
G01*
X107975000Y-80825000D02*
G75*
G03*
X107825000Y-80975000I0J-150000D01*
G01*
X107975000Y-80825000D02*
G75*
G03*
X108125000Y-80675000I0J150000D01*
G01*
X108125000Y-76775000D02*
G75*
G03*
X107975000Y-76625000I-150000J0D01*
G01*
X107825000Y-77675000D02*
G75*
G03*
X107975000Y-77825000I150000J0D01*
G01*
X107825000Y-76475000D02*
G75*
G03*
X107975000Y-76625000I150000J0D01*
G01*
X107975000Y-79625000D02*
G75*
G03*
X107825000Y-79775000I0J-150000D01*
G01*
X108125000Y-81575000D02*
G75*
G03*
X107975000Y-81425000I-150000J0D01*
G01*
X107975000Y-79625000D02*
G75*
G03*
X108125000Y-79475000I0J150000D01*
G01*
X108125000Y-80375000D02*
G75*
G03*
X107975000Y-80225000I-150000J0D01*
G01*
X107825000Y-80075000D02*
G75*
G03*
X107975000Y-80225000I150000J0D01*
G01*
X107825000Y-81275000D02*
G75*
G03*
X107975000Y-81425000I150000J0D01*
G01*
X107450000Y-81875000D02*
X107450000Y-82175000D01*
X107450000Y-77075000D02*
X107450000Y-77375000D01*
X107150000Y-78875000D02*
X107150000Y-79175000D01*
X107450000Y-80675000D02*
X107450000Y-80975000D01*
X107150000Y-82775000D02*
X107150000Y-84025000D01*
X107150000Y-82475000D02*
X107150000Y-82775000D01*
X107150000Y-80075000D02*
X107150000Y-80375000D01*
X105700000Y-74875000D02*
X107150000Y-76325000D01*
X107150000Y-77675000D02*
X107150000Y-77975000D01*
X107450000Y-79475000D02*
X107450000Y-79775000D01*
X107450000Y-78275000D02*
X107450000Y-78575000D01*
X107150000Y-81275000D02*
X107150000Y-81575000D01*
X107150000Y-76325000D02*
X107150000Y-76775000D01*
X107150000Y-80375000D02*
G75*
G03*
X107300000Y-80525000I150000J0D01*
G01*
X107450000Y-77075000D02*
G75*
G03*
X107300000Y-76925000I-150000J0D01*
G01*
X107150000Y-79175000D02*
G75*
G03*
X107300000Y-79325000I150000J0D01*
G01*
X107450000Y-81875000D02*
G75*
G03*
X107300000Y-81725000I-150000J0D01*
G01*
X107300000Y-79925000D02*
G75*
G03*
X107450000Y-79775000I0J150000D01*
G01*
X107300000Y-81125000D02*
G75*
G03*
X107150000Y-81275000I0J-150000D01*
G01*
X107300000Y-82325000D02*
G75*
G03*
X107450000Y-82175000I0J150000D01*
G01*
X107150000Y-77975000D02*
G75*
G03*
X107300000Y-78125000I150000J0D01*
G01*
X107150000Y-76775000D02*
G75*
G03*
X107300000Y-76925000I150000J0D01*
G01*
X107450000Y-80675000D02*
G75*
G03*
X107300000Y-80525000I-150000J0D01*
G01*
X107450000Y-79475000D02*
G75*
G03*
X107300000Y-79325000I-150000J0D01*
G01*
X107450000Y-78275000D02*
G75*
G03*
X107300000Y-78125000I-150000J0D01*
G01*
X107300000Y-78725000D02*
G75*
G03*
X107150000Y-78875000I0J-150000D01*
G01*
X107300000Y-78725000D02*
G75*
G03*
X107450000Y-78575000I0J150000D01*
G01*
X107300000Y-82325000D02*
G75*
G03*
X107150000Y-82475000I0J-150000D01*
G01*
X107300000Y-79925000D02*
G75*
G03*
X107150000Y-80075000I0J-150000D01*
G01*
X107150000Y-81575000D02*
G75*
G03*
X107300000Y-81725000I150000J0D01*
G01*
X107300000Y-77525000D02*
G75*
G03*
X107450000Y-77375000I0J150000D01*
G01*
X107300000Y-77525000D02*
G75*
G03*
X107150000Y-77675000I0J-150000D01*
G01*
X107300000Y-81125000D02*
G75*
G03*
X107450000Y-80975000I0J150000D01*
G01*
X106125000Y-77525000D02*
X106125000Y-77825000D01*
X106425000Y-80375000D02*
X106575000Y-80375000D01*
X106725000Y-80525000D02*
X106725000Y-80825000D01*
X106425000Y-76325000D02*
X106425000Y-76625000D01*
X106575000Y-80975000D02*
X106425000Y-80975000D01*
X106425000Y-77375000D02*
X106275000Y-77375000D01*
X106425000Y-82325000D02*
X106425000Y-82625000D01*
X106425000Y-77975000D02*
X106575000Y-77975000D01*
X106425000Y-78575000D02*
X106275000Y-78575000D01*
X106425000Y-80975000D02*
X106275000Y-80975000D01*
X106575000Y-79775000D02*
X106425000Y-79775000D01*
X106125000Y-81125000D02*
X106125000Y-81425000D01*
X106125000Y-78725000D02*
X106125000Y-79025000D01*
X106275000Y-81575000D02*
X106425000Y-81575000D01*
X106425000Y-79175000D02*
X106575000Y-79175000D01*
X106275000Y-79175000D02*
X106425000Y-79175000D01*
X106425000Y-81575000D02*
X106575000Y-81575000D01*
X106275000Y-77975000D02*
X106425000Y-77975000D01*
X106725000Y-76925000D02*
X106725000Y-77225000D01*
X106125000Y-79925000D02*
X106125000Y-80225000D01*
X106725000Y-81725000D02*
X106725000Y-82025000D01*
X106425000Y-82625000D02*
X106425000Y-83600000D01*
X106725000Y-79325000D02*
X106725000Y-79625000D01*
X104850000Y-74750000D02*
X106425000Y-76325000D01*
X106725000Y-78125000D02*
X106725000Y-78425000D01*
X106575000Y-78575000D02*
X106425000Y-78575000D01*
X106575000Y-77375000D02*
X106425000Y-77375000D01*
X106275000Y-80375000D02*
X106425000Y-80375000D01*
X106425000Y-79775000D02*
X106275000Y-79775000D01*
X106275000Y-80975000D02*
G75*
G03*
X106125000Y-81125000I0J-150000D01*
G01*
X106575000Y-80975000D02*
G75*
G03*
X106725000Y-80825000I0J150000D01*
G01*
X106125000Y-79025000D02*
G75*
G03*
X106275000Y-79175000I150000J0D01*
G01*
X106425000Y-76625000D02*
G75*
G03*
X106575000Y-76775000I150000J0D01*
G01*
X106725000Y-76925000D02*
G75*
G03*
X106575000Y-76775000I-150000J0D01*
G01*
X106725000Y-78125000D02*
G75*
G03*
X106575000Y-77975000I-150000J0D01*
G01*
X106275000Y-77375000D02*
G75*
G03*
X106125000Y-77525000I0J-150000D01*
G01*
X106725000Y-81725000D02*
G75*
G03*
X106575000Y-81575000I-150000J0D01*
G01*
X106575000Y-82175000D02*
G75*
G03*
X106425000Y-82325000I0J-150000D01*
G01*
X106725000Y-79325000D02*
G75*
G03*
X106575000Y-79175000I-150000J0D01*
G01*
X106125000Y-77825000D02*
G75*
G03*
X106275000Y-77975000I150000J0D01*
G01*
X106575000Y-79775000D02*
G75*
G03*
X106725000Y-79625000I0J150000D01*
G01*
X106575000Y-77375000D02*
G75*
G03*
X106725000Y-77225000I0J150000D01*
G01*
X106725000Y-80525000D02*
G75*
G03*
X106575000Y-80375000I-150000J0D01*
G01*
X106125000Y-80225000D02*
G75*
G03*
X106275000Y-80375000I150000J0D01*
G01*
X106575000Y-82175000D02*
G75*
G03*
X106725000Y-82025000I0J150000D01*
G01*
X106575000Y-78575000D02*
G75*
G03*
X106725000Y-78425000I0J150000D01*
G01*
X106275000Y-79775000D02*
G75*
G03*
X106125000Y-79925000I0J-150000D01*
G01*
X106275000Y-78575000D02*
G75*
G03*
X106125000Y-78725000I0J-150000D01*
G01*
X106125000Y-81425000D02*
G75*
G03*
X106275000Y-81575000I150000J0D01*
G01*
X105700000Y-79125000D02*
X105700000Y-79425000D01*
X105550000Y-82575000D02*
X105700000Y-82575000D01*
X105400000Y-82125000D02*
X105400000Y-82425000D01*
X105400000Y-79725000D02*
X105400000Y-80025000D01*
X105400000Y-80925000D02*
X105400000Y-81225000D01*
X105700000Y-83625000D02*
X105700000Y-84375000D01*
X104050000Y-74700000D02*
X105700000Y-76350000D01*
X105700000Y-81525000D02*
X105700000Y-81825000D01*
X105400000Y-77325000D02*
X105400000Y-77625000D01*
X105700000Y-77925000D02*
X105700000Y-78225000D01*
X105700000Y-80325000D02*
X105700000Y-80625000D01*
X105700000Y-83325000D02*
X105700000Y-83625000D01*
X105400000Y-78525000D02*
X105400000Y-78825000D01*
X105700000Y-82575000D02*
X105850000Y-82575000D01*
X106000000Y-82725000D02*
X106000000Y-83025000D01*
X105700000Y-76350000D02*
X105700000Y-77025000D01*
X105550000Y-77175000D02*
G75*
G03*
X105400000Y-77325000I0J-150000D01*
G01*
X105550000Y-77175000D02*
G75*
G03*
X105700000Y-77025000I0J150000D01*
G01*
X105550000Y-80775000D02*
G75*
G03*
X105400000Y-80925000I0J-150000D01*
G01*
X105550000Y-78375000D02*
G75*
G03*
X105400000Y-78525000I0J-150000D01*
G01*
X105550000Y-79575000D02*
G75*
G03*
X105700000Y-79425000I0J150000D01*
G01*
X105550000Y-78375000D02*
G75*
G03*
X105700000Y-78225000I0J150000D01*
G01*
X105550000Y-80775000D02*
G75*
G03*
X105700000Y-80625000I0J150000D01*
G01*
X105850000Y-83175000D02*
G75*
G03*
X106000000Y-83025000I0J150000D01*
G01*
X106000000Y-82725000D02*
G75*
G03*
X105850000Y-82575000I-150000J0D01*
G01*
X105850000Y-83175000D02*
G75*
G03*
X105700000Y-83325000I0J-150000D01*
G01*
X105550000Y-79575000D02*
G75*
G03*
X105400000Y-79725000I0J-150000D01*
G01*
X105700000Y-79125000D02*
G75*
G03*
X105550000Y-78975000I-150000J0D01*
G01*
X105700000Y-81525000D02*
G75*
G03*
X105550000Y-81375000I-150000J0D01*
G01*
X105400000Y-78825000D02*
G75*
G03*
X105550000Y-78975000I150000J0D01*
G01*
X105400000Y-77625000D02*
G75*
G03*
X105550000Y-77775000I150000J0D01*
G01*
X105550000Y-81975000D02*
G75*
G03*
X105700000Y-81825000I0J150000D01*
G01*
X105400000Y-81225000D02*
G75*
G03*
X105550000Y-81375000I150000J0D01*
G01*
X105550000Y-81975000D02*
G75*
G03*
X105400000Y-82125000I0J-150000D01*
G01*
X105700000Y-77925000D02*
G75*
G03*
X105550000Y-77775000I-150000J0D01*
G01*
X105400000Y-80025000D02*
G75*
G03*
X105550000Y-80175000I150000J0D01*
G01*
X105400000Y-82425000D02*
G75*
G03*
X105550000Y-82575000I150000J0D01*
G01*
X105700000Y-80325000D02*
G75*
G03*
X105550000Y-80175000I-150000J0D01*
G01*
X94700000Y-70750000D02*
X94550000Y-70750000D01*
X94550000Y-70150000D02*
X94700000Y-70150000D01*
X94700000Y-72400000D02*
X94700000Y-74525000D01*
X94700000Y-69550000D02*
X94550000Y-69550000D01*
X94700000Y-67150000D02*
X94550000Y-67150000D01*
X94700000Y-67750000D02*
X94850000Y-67750000D01*
X94700000Y-70150000D02*
X94850000Y-70150000D01*
X94700000Y-68950000D02*
X94850000Y-68950000D01*
X94700000Y-74525000D02*
X95225000Y-75050000D01*
X94850000Y-68350000D02*
X94700000Y-68350000D01*
X94850000Y-70750000D02*
X94700000Y-70750000D01*
X95000000Y-70300000D02*
X95000000Y-70600000D01*
X94700000Y-68350000D02*
X94550000Y-68350000D01*
X95000000Y-71500000D02*
X95000000Y-71800000D01*
X94850000Y-69550000D02*
X94700000Y-69550000D01*
X94550000Y-67750000D02*
X94700000Y-67750000D01*
X94700000Y-71350000D02*
X94850000Y-71350000D01*
X94550000Y-68950000D02*
X94700000Y-68950000D01*
X104925000Y-63150000D02*
X105125000Y-62950000D01*
X94700000Y-65425000D02*
X94700000Y-66400000D01*
X95000000Y-69100000D02*
X95000000Y-69400000D01*
X104925000Y-65425000D02*
X104925000Y-63150000D01*
X94400000Y-70900000D02*
X94400000Y-71200000D01*
X94400000Y-67300000D02*
X94400000Y-67600000D01*
X94850000Y-67150000D02*
X94700000Y-67150000D01*
X94700000Y-72100000D02*
X94700000Y-72400000D01*
X95225000Y-75050000D02*
X95225000Y-79750000D01*
X94400000Y-68500000D02*
X94400000Y-68800000D01*
X94400000Y-69700000D02*
X94400000Y-70000000D01*
X95000000Y-67900000D02*
X95000000Y-68200000D01*
X95000000Y-66700000D02*
X95000000Y-67000000D01*
X94550000Y-71350000D02*
X94700000Y-71350000D01*
X95000000Y-66700000D02*
G75*
G03*
X94850000Y-66550000I-150000J0D01*
G01*
X94850000Y-68350000D02*
G75*
G03*
X95000000Y-68200000I0J150000D01*
G01*
X94550000Y-68350000D02*
G75*
G03*
X94400000Y-68500000I0J-150000D01*
G01*
X94850000Y-70750000D02*
G75*
G03*
X95000000Y-70600000I0J150000D01*
G01*
X94550000Y-69550000D02*
G75*
G03*
X94400000Y-69700000I0J-150000D01*
G01*
X94850000Y-67150000D02*
G75*
G03*
X95000000Y-67000000I0J150000D01*
G01*
X94400000Y-67600000D02*
G75*
G03*
X94550000Y-67750000I150000J0D01*
G01*
X94550000Y-67150000D02*
G75*
G03*
X94400000Y-67300000I0J-150000D01*
G01*
X95000000Y-69100000D02*
G75*
G03*
X94850000Y-68950000I-150000J0D01*
G01*
X94400000Y-68800000D02*
G75*
G03*
X94550000Y-68950000I150000J0D01*
G01*
X94700000Y-66400000D02*
G75*
G03*
X94850000Y-66550000I150000J0D01*
G01*
X94550000Y-70750000D02*
G75*
G03*
X94400000Y-70900000I0J-150000D01*
G01*
X94850000Y-69550000D02*
G75*
G03*
X95000000Y-69400000I0J150000D01*
G01*
X94850000Y-71950000D02*
G75*
G03*
X94700000Y-72100000I0J-150000D01*
G01*
X95000000Y-67900000D02*
G75*
G03*
X94850000Y-67750000I-150000J0D01*
G01*
X94400000Y-70000000D02*
G75*
G03*
X94550000Y-70150000I150000J0D01*
G01*
X95000000Y-71500000D02*
G75*
G03*
X94850000Y-71350000I-150000J0D01*
G01*
X95000000Y-70300000D02*
G75*
G03*
X94850000Y-70150000I-150000J0D01*
G01*
X94400000Y-71200000D02*
G75*
G03*
X94550000Y-71350000I150000J0D01*
G01*
X94850000Y-71950000D02*
G75*
G03*
X95000000Y-71800000I0J150000D01*
G01*
X103275000Y-76775000D02*
X103275000Y-77075000D01*
X96062800Y-79937800D02*
X96062800Y-79806800D01*
X96725000Y-80600000D02*
X96062800Y-79937800D01*
X103175000Y-74650000D02*
X102975000Y-74850000D01*
X102975000Y-78275000D02*
X102975000Y-79000000D01*
X96725000Y-83675000D02*
X96725000Y-80600000D01*
X103275000Y-75575000D02*
X103275000Y-75875000D01*
X102675000Y-77375000D02*
X102675000Y-77675000D01*
X102975000Y-76625000D02*
X103125000Y-76625000D01*
X102675000Y-76175000D02*
X102675000Y-76475000D01*
X102975000Y-77975000D02*
X102975000Y-78275000D01*
X102975000Y-77225000D02*
X102825000Y-77225000D01*
X103125000Y-77225000D02*
X102975000Y-77225000D01*
X102975000Y-76025000D02*
X102825000Y-76025000D01*
X103125000Y-76025000D02*
X102975000Y-76025000D01*
X102975000Y-74850000D02*
X102975000Y-75275000D01*
X102825000Y-76625000D02*
X102975000Y-76625000D01*
X102675000Y-76475000D02*
G75*
G03*
X102825000Y-76625000I150000J0D01*
G01*
X102975000Y-77975000D02*
G75*
G03*
X102825000Y-77825000I-150000J0D01*
G01*
X102825000Y-76025000D02*
G75*
G03*
X102675000Y-76175000I0J-150000D01*
G01*
X103125000Y-77225000D02*
G75*
G03*
X103275000Y-77075000I0J150000D01*
G01*
X103125000Y-76025000D02*
G75*
G03*
X103275000Y-75875000I0J150000D01*
G01*
X103275000Y-75575000D02*
G75*
G03*
X103125000Y-75425000I-150000J0D01*
G01*
X102975000Y-75275000D02*
G75*
G03*
X103125000Y-75425000I150000J0D01*
G01*
X103275000Y-76775000D02*
G75*
G03*
X103125000Y-76625000I-150000J0D01*
G01*
X102675000Y-77675000D02*
G75*
G03*
X102825000Y-77825000I150000J0D01*
G01*
X102825000Y-77225000D02*
G75*
G03*
X102675000Y-77375000I0J-150000D01*
G01*
X96700000Y-65000000D02*
X96850000Y-65000000D01*
X97150000Y-65150000D02*
X97150000Y-65450000D01*
X97150000Y-66350000D02*
X97150000Y-66650000D01*
X96700000Y-67400000D02*
X96850000Y-67400000D01*
X97000000Y-66800000D02*
X96850000Y-66800000D01*
X96825000Y-63675000D02*
X96825000Y-63975000D01*
X97150000Y-79430800D02*
X96774000Y-79806800D01*
X96700000Y-66200000D02*
X96850000Y-66200000D01*
X97150000Y-79300000D02*
X97150000Y-79430800D01*
X96850000Y-67400000D02*
X97000000Y-67400000D01*
X97150000Y-76100000D02*
X97150000Y-79300000D01*
X96850000Y-66200000D02*
X97000000Y-66200000D01*
X96825000Y-63975000D02*
X96825000Y-64225000D01*
X96850000Y-68150000D02*
X96850000Y-68450000D01*
X96525000Y-63075000D02*
X96525000Y-63375000D01*
X96550000Y-64550000D02*
X96550000Y-64850000D01*
X96850000Y-65000000D02*
X97000000Y-65000000D01*
X97000000Y-65600000D02*
X96850000Y-65600000D01*
X96850000Y-66800000D02*
X96700000Y-66800000D01*
X96225000Y-58925000D02*
X96825000Y-59525000D01*
X96850000Y-65600000D02*
X96700000Y-65600000D01*
X96850000Y-68450000D02*
X96850000Y-75800000D01*
X96825000Y-59525000D02*
X96825000Y-62775000D01*
X96850000Y-75800000D02*
X97150000Y-76100000D01*
X96825000Y-64225000D02*
X96850000Y-64250000D01*
X96550000Y-66950000D02*
X96550000Y-67250000D01*
X96550000Y-65750000D02*
X96550000Y-66050000D01*
X97150000Y-67550000D02*
X97150000Y-67850000D01*
X97150000Y-65150000D02*
G75*
G03*
X97000000Y-65000000I-150000J0D01*
G01*
X96700000Y-66800000D02*
G75*
G03*
X96550000Y-66950000I0J-150000D01*
G01*
X96675000Y-62925000D02*
G75*
G03*
X96825000Y-62775000I0J150000D01*
G01*
X96700000Y-64400000D02*
G75*
G03*
X96850000Y-64250000I0J150000D01*
G01*
X97000000Y-65600000D02*
G75*
G03*
X97150000Y-65450000I0J150000D01*
G01*
X96550000Y-64850000D02*
G75*
G03*
X96700000Y-65000000I150000J0D01*
G01*
X97000000Y-68000000D02*
G75*
G03*
X96850000Y-68150000I0J-150000D01*
G01*
X96525000Y-63375000D02*
G75*
G03*
X96675000Y-63525000I150000J0D01*
G01*
X97150000Y-67550000D02*
G75*
G03*
X97000000Y-67400000I-150000J0D01*
G01*
X96550000Y-66050000D02*
G75*
G03*
X96700000Y-66200000I150000J0D01*
G01*
X96825000Y-63675000D02*
G75*
G03*
X96675000Y-63525000I-150000J0D01*
G01*
X97000000Y-66800000D02*
G75*
G03*
X97150000Y-66650000I0J150000D01*
G01*
X96675000Y-62925000D02*
G75*
G03*
X96525000Y-63075000I0J-150000D01*
G01*
X97000000Y-68000000D02*
G75*
G03*
X97150000Y-67850000I0J150000D01*
G01*
X96550000Y-67250000D02*
G75*
G03*
X96700000Y-67400000I150000J0D01*
G01*
X96700000Y-65600000D02*
G75*
G03*
X96550000Y-65750000I0J-150000D01*
G01*
X96700000Y-64400000D02*
G75*
G03*
X96550000Y-64550000I0J-150000D01*
G01*
X97150000Y-66350000D02*
G75*
G03*
X97000000Y-66200000I-150000J0D01*
G01*
X97400000Y-69475000D02*
X97400000Y-69775000D01*
X97100000Y-72475000D02*
X97100000Y-72775000D01*
X97400000Y-73525000D02*
X97250000Y-73525000D01*
X97675000Y-76150000D02*
X97675000Y-79850000D01*
X97400000Y-70675000D02*
X97400000Y-70975000D01*
X97250000Y-71725000D02*
X97400000Y-71725000D01*
X97250000Y-72925000D02*
X97400000Y-72925000D01*
X97400000Y-72325000D02*
X97250000Y-72325000D01*
X97400000Y-72925000D02*
X97525000Y-72925000D01*
X97525000Y-72325000D02*
X97400000Y-72325000D01*
X97400000Y-74575000D02*
X97400000Y-75875000D01*
X97650000Y-73050000D02*
X97650000Y-73400000D01*
X97400000Y-74275000D02*
X97400000Y-74575000D01*
X97400000Y-75875000D02*
X97675000Y-76150000D01*
X97525000Y-73525000D02*
X97400000Y-73525000D01*
X97400000Y-58700000D02*
X97400000Y-68575000D01*
X97400000Y-71725000D02*
X97525000Y-71725000D01*
X97100000Y-73675000D02*
X97100000Y-73975000D01*
X97100000Y-71275000D02*
X97100000Y-71575000D01*
X97100000Y-68875000D02*
X97100000Y-69175000D01*
X97650000Y-71850000D02*
X97650000Y-72200000D01*
X97100000Y-70075000D02*
X97100000Y-70375000D01*
X97250000Y-68725000D02*
G75*
G03*
X97400000Y-68575000I0J150000D01*
G01*
X97100000Y-71575000D02*
G75*
G03*
X97250000Y-71725000I150000J0D01*
G01*
X97650000Y-71850000D02*
G75*
G03*
X97525000Y-71725000I-125000J0D01*
G01*
X97250000Y-68725000D02*
G75*
G03*
X97100000Y-68875000I0J-150000D01*
G01*
X97250000Y-71125000D02*
G75*
G03*
X97400000Y-70975000I0J150000D01*
G01*
X97250000Y-72325000D02*
G75*
G03*
X97100000Y-72475000I0J-150000D01*
G01*
X97650000Y-73050000D02*
G75*
G03*
X97525000Y-72925000I-125000J0D01*
G01*
X97100000Y-73975000D02*
G75*
G03*
X97250000Y-74125000I150000J0D01*
G01*
X97525000Y-73525000D02*
G75*
G03*
X97650000Y-73400000I0J125000D01*
G01*
X97100000Y-70375000D02*
G75*
G03*
X97250000Y-70525000I150000J0D01*
G01*
X97525000Y-72325000D02*
G75*
G03*
X97650000Y-72200000I0J125000D01*
G01*
X97100000Y-69175000D02*
G75*
G03*
X97250000Y-69325000I150000J0D01*
G01*
X97250000Y-73525000D02*
G75*
G03*
X97100000Y-73675000I0J-150000D01*
G01*
X97250000Y-71125000D02*
G75*
G03*
X97100000Y-71275000I0J-150000D01*
G01*
X97400000Y-74275000D02*
G75*
G03*
X97250000Y-74125000I-150000J0D01*
G01*
X97250000Y-69925000D02*
G75*
G03*
X97100000Y-70075000I0J-150000D01*
G01*
X97400000Y-70675000D02*
G75*
G03*
X97250000Y-70525000I-150000J0D01*
G01*
X97250000Y-69925000D02*
G75*
G03*
X97400000Y-69775000I0J150000D01*
G01*
X97400000Y-69475000D02*
G75*
G03*
X97250000Y-69325000I-150000J0D01*
G01*
X97100000Y-72775000D02*
G75*
G03*
X97250000Y-72925000I150000J0D01*
G01*
X97650000Y-68550000D02*
X97650000Y-68900000D01*
X97900000Y-67825000D02*
X98050000Y-67825000D01*
X98200000Y-69175000D02*
X98200000Y-69475000D01*
X98050000Y-68425000D02*
X97900000Y-68425000D01*
X97875000Y-63575000D02*
X97875000Y-64050000D01*
X97650000Y-69750000D02*
X97650000Y-70100000D01*
X97900000Y-66625000D02*
X98050000Y-66625000D01*
X97900000Y-69025000D02*
X98050000Y-69025000D01*
X98050000Y-69625000D02*
X97900000Y-69625000D01*
X98200000Y-66775000D02*
X98200000Y-67075000D01*
X98050000Y-70825000D02*
X97900000Y-70825000D01*
X97875000Y-59300000D02*
X97875000Y-61725000D01*
X98050000Y-64825000D02*
X97900000Y-64825000D01*
X98200000Y-70375000D02*
X98200000Y-70675000D01*
X97650000Y-70950000D02*
X97650000Y-71300000D01*
X98200000Y-67975000D02*
X98200000Y-68275000D01*
X98225000Y-76025000D02*
X98225000Y-79175000D01*
X97675000Y-62575000D02*
X97675000Y-62975000D01*
X98025000Y-62475000D02*
X97875000Y-62475000D01*
X97775000Y-69025000D02*
X97900000Y-69025000D01*
X97775000Y-70225000D02*
X97900000Y-70225000D01*
X97900000Y-68425000D02*
X97775000Y-68425000D01*
X97650000Y-64950000D02*
X97650000Y-65300000D01*
X98175000Y-62025000D02*
X98175000Y-62325000D01*
X97900000Y-71900000D02*
X97900000Y-75700000D01*
X97900000Y-67225000D02*
X97775000Y-67225000D01*
X98200000Y-65575000D02*
X98200000Y-65875000D01*
X97775000Y-65425000D02*
X97900000Y-65425000D01*
X97775000Y-67825000D02*
X97900000Y-67825000D01*
X97900000Y-64825000D02*
X97775000Y-64825000D01*
X97900000Y-70825000D02*
X97775000Y-70825000D01*
X98225000Y-79937000D02*
X98348800Y-80060800D01*
X97650000Y-66150000D02*
X97650000Y-66500000D01*
X97900000Y-66025000D02*
X97775000Y-66025000D01*
X97900000Y-69625000D02*
X97775000Y-69625000D01*
X97900000Y-70225000D02*
X98050000Y-70225000D01*
X97650000Y-67350000D02*
X97650000Y-67700000D01*
X98200000Y-64375000D02*
X98200000Y-64675000D01*
X98050000Y-67225000D02*
X97900000Y-67225000D01*
X97875000Y-63175000D02*
X97875000Y-63575000D01*
X98225000Y-79175000D02*
X98225000Y-79937000D01*
X97875000Y-64050000D02*
X97900000Y-64075000D01*
X98050000Y-66025000D02*
X97900000Y-66025000D01*
X97900000Y-71550000D02*
X97900000Y-71900000D01*
X97775000Y-66625000D02*
X97900000Y-66625000D01*
X97900000Y-65425000D02*
X98050000Y-65425000D01*
X97875000Y-62475000D02*
X97775000Y-62475000D01*
X97900000Y-75700000D02*
X98225000Y-76025000D01*
X97775000Y-70825000D02*
G75*
G03*
X97650000Y-70950000I0J-125000D01*
G01*
X98200000Y-67975000D02*
G75*
G03*
X98050000Y-67825000I-150000J0D01*
G01*
X98050000Y-70825000D02*
G75*
G03*
X98200000Y-70675000I0J150000D01*
G01*
X98200000Y-64375000D02*
G75*
G03*
X98050000Y-64225000I-150000J0D01*
G01*
X97775000Y-64825000D02*
G75*
G03*
X97650000Y-64950000I0J-125000D01*
G01*
X97900000Y-71550000D02*
G75*
G03*
X97775000Y-71425000I-125000J0D01*
G01*
X97650000Y-71300000D02*
G75*
G03*
X97775000Y-71425000I125000J0D01*
G01*
X97650000Y-65300000D02*
G75*
G03*
X97775000Y-65425000I125000J0D01*
G01*
X98050000Y-67225000D02*
G75*
G03*
X98200000Y-67075000I0J150000D01*
G01*
X98175000Y-62025000D02*
G75*
G03*
X98025000Y-61875000I-150000J0D01*
G01*
X97650000Y-66500000D02*
G75*
G03*
X97775000Y-66625000I125000J0D01*
G01*
X98200000Y-69175000D02*
G75*
G03*
X98050000Y-69025000I-150000J0D01*
G01*
X98200000Y-70375000D02*
G75*
G03*
X98050000Y-70225000I-150000J0D01*
G01*
X98050000Y-64825000D02*
G75*
G03*
X98200000Y-64675000I0J150000D01*
G01*
X97775000Y-68425000D02*
G75*
G03*
X97650000Y-68550000I0J-125000D01*
G01*
X97775000Y-66025000D02*
G75*
G03*
X97650000Y-66150000I0J-125000D01*
G01*
X98050000Y-68425000D02*
G75*
G03*
X98200000Y-68275000I0J150000D01*
G01*
X97775000Y-67225000D02*
G75*
G03*
X97650000Y-67350000I0J-125000D01*
G01*
X98025000Y-62475000D02*
G75*
G03*
X98175000Y-62325000I0J150000D01*
G01*
X98050000Y-66025000D02*
G75*
G03*
X98200000Y-65875000I0J150000D01*
G01*
X97775000Y-69625000D02*
G75*
G03*
X97650000Y-69750000I0J-125000D01*
G01*
X97875000Y-63175000D02*
G75*
G03*
X97775000Y-63075000I-100000J0D01*
G01*
X98200000Y-65575000D02*
G75*
G03*
X98050000Y-65425000I-150000J0D01*
G01*
X98050000Y-69625000D02*
G75*
G03*
X98200000Y-69475000I0J150000D01*
G01*
X97775000Y-62475000D02*
G75*
G03*
X97675000Y-62575000I0J-100000D01*
G01*
X97650000Y-70100000D02*
G75*
G03*
X97775000Y-70225000I125000J0D01*
G01*
X97900000Y-64075000D02*
G75*
G03*
X98050000Y-64225000I150000J0D01*
G01*
X98200000Y-66775000D02*
G75*
G03*
X98050000Y-66625000I-150000J0D01*
G01*
X97675000Y-62975000D02*
G75*
G03*
X97775000Y-63075000I100000J0D01*
G01*
X97650000Y-68900000D02*
G75*
G03*
X97775000Y-69025000I125000J0D01*
G01*
X97650000Y-67700000D02*
G75*
G03*
X97775000Y-67825000I125000J0D01*
G01*
X97875000Y-61725000D02*
G75*
G03*
X98025000Y-61875000I150000J0D01*
G01*
X99675000Y-85125000D02*
X99675000Y-85300000D01*
X99675000Y-85300000D02*
X100200000Y-85825000D01*
X99400000Y-79325000D02*
X99675000Y-79600000D01*
X99375000Y-83025000D02*
X99375000Y-83325000D01*
X99675000Y-80475000D02*
X99525000Y-80475000D01*
X99400000Y-62900000D02*
X99400000Y-79325000D01*
X99425000Y-62875000D02*
X99400000Y-62900000D01*
X99875000Y-79975000D02*
X99875000Y-80375000D01*
X99675000Y-84825000D02*
X99675000Y-85125000D01*
X99375000Y-80625000D02*
X99375000Y-80925000D01*
X99675000Y-81225000D02*
X99675000Y-81525000D01*
X99675000Y-82425000D02*
X99675000Y-82725000D01*
X99675000Y-79600000D02*
X99675000Y-79775000D01*
X99375000Y-84225000D02*
X99375000Y-84525000D01*
X99375000Y-81825000D02*
X99375000Y-82125000D01*
X99775000Y-80475000D02*
X99675000Y-80475000D01*
X99675000Y-83625000D02*
X99675000Y-83925000D01*
X99375000Y-80925000D02*
G75*
G03*
X99525000Y-81075000I150000J0D01*
G01*
X99525000Y-81675000D02*
G75*
G03*
X99375000Y-81825000I0J-150000D01*
G01*
X99675000Y-81225000D02*
G75*
G03*
X99525000Y-81075000I-150000J0D01*
G01*
X99525000Y-80475000D02*
G75*
G03*
X99375000Y-80625000I0J-150000D01*
G01*
X99375000Y-83325000D02*
G75*
G03*
X99525000Y-83475000I150000J0D01*
G01*
X99525000Y-84075000D02*
G75*
G03*
X99675000Y-83925000I0J150000D01*
G01*
X99375000Y-82125000D02*
G75*
G03*
X99525000Y-82275000I150000J0D01*
G01*
X99775000Y-80475000D02*
G75*
G03*
X99875000Y-80375000I0J100000D01*
G01*
X99675000Y-83625000D02*
G75*
G03*
X99525000Y-83475000I-150000J0D01*
G01*
X99525000Y-82875000D02*
G75*
G03*
X99375000Y-83025000I0J-150000D01*
G01*
X99675000Y-84825000D02*
G75*
G03*
X99525000Y-84675000I-150000J0D01*
G01*
X99675000Y-82425000D02*
G75*
G03*
X99525000Y-82275000I-150000J0D01*
G01*
X99525000Y-84075000D02*
G75*
G03*
X99375000Y-84225000I0J-150000D01*
G01*
X99875000Y-79975000D02*
G75*
G03*
X99775000Y-79875000I-100000J0D01*
G01*
X99675000Y-79775000D02*
G75*
G03*
X99775000Y-79875000I100000J0D01*
G01*
X99525000Y-81675000D02*
G75*
G03*
X99675000Y-81525000I0J150000D01*
G01*
X99525000Y-82875000D02*
G75*
G03*
X99675000Y-82725000I0J150000D01*
G01*
X99375000Y-84525000D02*
G75*
G03*
X99525000Y-84675000I150000J0D01*
G01*
X99950000Y-81300000D02*
X99950000Y-80900000D01*
X100050000Y-83200000D02*
X100150000Y-83200000D01*
X100400000Y-81875000D02*
X100400000Y-81525000D01*
X100150000Y-82600000D02*
X100050000Y-82600000D01*
X100150000Y-82000000D02*
X100275000Y-82000000D01*
X99950000Y-83700000D02*
X99950000Y-83300000D01*
X100050000Y-78475000D02*
X100050000Y-78575000D01*
X100875103Y-85675103D02*
X100150000Y-84950000D01*
X100275000Y-82600000D02*
X100150000Y-82600000D01*
X100150000Y-84950000D02*
X100150000Y-83900000D01*
X100050000Y-79250000D02*
X100050000Y-79200000D01*
X99950000Y-82500000D02*
X99950000Y-82100000D01*
X100050000Y-82000000D02*
X100150000Y-82000000D01*
X100275000Y-81400000D02*
X100150000Y-81400000D01*
X100050000Y-77075000D02*
X100050000Y-77575000D01*
X100150000Y-79300000D02*
X100050000Y-79200000D01*
X100000000Y-77025000D02*
X100050000Y-77075000D01*
X100400000Y-83075000D02*
X100400000Y-82725000D01*
X100150000Y-83200000D02*
X100275000Y-83200000D01*
X100050000Y-78575000D02*
X100050000Y-79200000D01*
X100150000Y-79550000D02*
X100150000Y-79300000D01*
X100150000Y-81400000D02*
X100050000Y-81400000D01*
X100150000Y-80700000D02*
X100150000Y-79550000D01*
X100350000Y-77875000D02*
X100350000Y-78175000D01*
X100899650Y-85675103D02*
X100875103Y-85675103D01*
X100275000Y-83200000D02*
G75*
G03*
X100400000Y-83075000I0J125000D01*
G01*
X100050000Y-80800000D02*
G75*
G03*
X100150000Y-80700000I0J100000D01*
G01*
X100200000Y-78325000D02*
G75*
G03*
X100350000Y-78175000I0J150000D01*
G01*
X100400000Y-82725000D02*
G75*
G03*
X100275000Y-82600000I-125000J0D01*
G01*
X100050000Y-83200000D02*
G75*
G03*
X99950000Y-83300000I0J-100000D01*
G01*
X99950000Y-83700000D02*
G75*
G03*
X100050000Y-83800000I100000J0D01*
G01*
X100050000Y-77575000D02*
G75*
G03*
X100200000Y-77725000I150000J0D01*
G01*
X100150000Y-83900000D02*
G75*
G03*
X100050000Y-83800000I-100000J0D01*
G01*
X100050000Y-82000000D02*
G75*
G03*
X99950000Y-82100000I0J-100000D01*
G01*
X100275000Y-82000000D02*
G75*
G03*
X100400000Y-81875000I0J125000D01*
G01*
X100350000Y-77875000D02*
G75*
G03*
X100200000Y-77725000I-150000J0D01*
G01*
X99950000Y-81300000D02*
G75*
G03*
X100050000Y-81400000I100000J0D01*
G01*
X100050000Y-80800000D02*
G75*
G03*
X99950000Y-80900000I0J-100000D01*
G01*
X100200000Y-78325000D02*
G75*
G03*
X100050000Y-78475000I0J-150000D01*
G01*
X100400000Y-81525000D02*
G75*
G03*
X100275000Y-81400000I-125000J0D01*
G01*
X99950000Y-82500000D02*
G75*
G03*
X100050000Y-82600000I100000J0D01*
G01*
X100725000Y-75900000D02*
X100675000Y-75950000D01*
X100675000Y-84781051D02*
X101417399Y-85523450D01*
X100675000Y-75950000D02*
X100675000Y-84781051D01*
X101175000Y-74750000D02*
X101175000Y-79240763D01*
X101808099Y-84983099D02*
X101808099Y-86041901D01*
X101224937Y-79290700D02*
X101224937Y-84399937D01*
X101175000Y-79240763D02*
X101224937Y-79290700D01*
X101224937Y-84399937D02*
X101808099Y-84983099D01*
X101225000Y-74700000D02*
X101175000Y-74750000D01*
X101808099Y-86041901D02*
X101600000Y-86250000D01*
X101625000Y-75600000D02*
X101625000Y-84275000D01*
X101825000Y-75400000D02*
X101625000Y-75600000D01*
X101625000Y-84275000D02*
X102050000Y-84700000D01*
X102050000Y-84700000D02*
X102050000Y-86614000D01*
X102600000Y-85275000D02*
X102600000Y-86194004D01*
X102175000Y-76500000D02*
X102175000Y-82325000D01*
X102325000Y-85000000D02*
X102600000Y-85275000D01*
X102600000Y-86194004D02*
X102505557Y-86288447D01*
X102325000Y-82475000D02*
X102325000Y-85000000D01*
X102175000Y-82325000D02*
X102325000Y-82475000D01*
X103260700Y-93646366D02*
X103139700Y-93767366D01*
X103260700Y-108473700D02*
X103124000Y-108610400D01*
X103260700Y-105093600D02*
X102622050Y-105093600D01*
X103899352Y-106293600D02*
X103260700Y-106293600D01*
X102622050Y-105693600D02*
X103260700Y-105693600D01*
X103124000Y-108610400D02*
X103124000Y-111506000D01*
X103899352Y-102693600D02*
X103260700Y-102693600D01*
X102622048Y-102093600D02*
X102960700Y-102093600D01*
X103174800Y-86004400D02*
X103260700Y-86090300D01*
X102960700Y-101493600D02*
X102622048Y-101493600D01*
X103260700Y-86090300D02*
X103260700Y-93646366D01*
X102960700Y-102093600D02*
X103899352Y-102093600D01*
X102622048Y-103293600D02*
X103260700Y-103293600D01*
X102622050Y-104493600D02*
X103260700Y-104493600D01*
X103260700Y-102693600D02*
X102622048Y-102693600D01*
X103260700Y-94212034D02*
X103260700Y-101193600D01*
X103260700Y-103893600D02*
X102622050Y-103893600D01*
X103899352Y-105093600D02*
X103260700Y-105093600D01*
X103260700Y-103293600D02*
X103899351Y-103293600D01*
X103139700Y-93767366D02*
X103139700Y-94091034D01*
X103260700Y-105693600D02*
X103899352Y-105693600D01*
X103139700Y-94091034D02*
X103260700Y-94212034D01*
X103260700Y-104493600D02*
X103899352Y-104493600D01*
X103899351Y-103893600D02*
X103260700Y-103893600D01*
X103260700Y-107193600D02*
X103260700Y-108473700D01*
X103260700Y-106293600D02*
X102622051Y-106293600D01*
X102622051Y-106893600D02*
X102960700Y-106893600D01*
X102322100Y-106593600D02*
G75*
G03*
X102622051Y-106893600I300000J0D01*
G01*
X104199400Y-104793600D02*
G75*
G03*
X103899352Y-104493600I-300000J0D01*
G01*
X102622048Y-101493648D02*
G75*
G03*
X102322048Y-101793600I-48J-299952D01*
G01*
X102622050Y-103893550D02*
G75*
G03*
X102322050Y-104193600I50J-300050D01*
G01*
X102622051Y-106293551D02*
G75*
G03*
X102322051Y-106593600I49J-300049D01*
G01*
X103260700Y-107193600D02*
G75*
G03*
X102960700Y-106893600I-300000J0D01*
G01*
X102960700Y-101493600D02*
G75*
G03*
X103260700Y-101193600I0J300000D01*
G01*
X102322100Y-105393600D02*
G75*
G03*
X102622050Y-105693600I300000J0D01*
G01*
X102322000Y-102993600D02*
G75*
G03*
X102622048Y-103293600I300000J0D01*
G01*
X102322000Y-101793600D02*
G75*
G03*
X102622048Y-102093600I300000J0D01*
G01*
X103899352Y-102693552D02*
G75*
G03*
X104199352Y-102393600I48J299952D01*
G01*
X104199400Y-103593600D02*
G75*
G03*
X103899351Y-103293600I-300000J0D01*
G01*
X102622048Y-102693648D02*
G75*
G03*
X102322048Y-102993600I-48J-299952D01*
G01*
X102622050Y-105093550D02*
G75*
G03*
X102322050Y-105393600I50J-300050D01*
G01*
X104199400Y-105993600D02*
G75*
G03*
X103899352Y-105693600I-300000J0D01*
G01*
X104199400Y-102393600D02*
G75*
G03*
X103899352Y-102093600I-300000J0D01*
G01*
X102322100Y-104193600D02*
G75*
G03*
X102622050Y-104493600I300000J0D01*
G01*
X103899352Y-106293552D02*
G75*
G03*
X104199352Y-105993600I48J299952D01*
G01*
X103899351Y-103893551D02*
G75*
G03*
X104199351Y-103593600I49J299951D01*
G01*
X103899352Y-105093552D02*
G75*
G03*
X104199352Y-104793600I48J299952D01*
G01*
X106629200Y-106172000D02*
X105918000Y-106172000D01*
X106888000Y-92831600D02*
X106560170Y-92831600D01*
X106560170Y-91031600D02*
X106888000Y-91031600D01*
X107188000Y-97331600D02*
X107188000Y-100555596D01*
X106888000Y-93431600D02*
X107392046Y-93431600D01*
X107188000Y-105613200D02*
X106629200Y-106172000D01*
X107188000Y-84937600D02*
X107645200Y-85394800D01*
X106560170Y-95831600D02*
X107188000Y-95831600D01*
X106560170Y-94631600D02*
X107188000Y-94631600D01*
X107645200Y-86614000D02*
X107188000Y-87071200D01*
X107392046Y-95231600D02*
X107188000Y-95231600D01*
X107188000Y-87071200D02*
X107188000Y-87731600D01*
X105918000Y-106172000D02*
X105867200Y-106222800D01*
X107188000Y-100555596D02*
X107188000Y-105613200D01*
X106560170Y-89831600D02*
X106888000Y-89831600D01*
X107188000Y-95831600D02*
X107392057Y-95831600D01*
X107188000Y-94031600D02*
X106560170Y-94031600D01*
X107596113Y-96035656D02*
X107596113Y-96227544D01*
X106560170Y-92231600D02*
X106888000Y-92231600D01*
X106560170Y-97031600D02*
X106888000Y-97031600D01*
X107645200Y-85394800D02*
X107645200Y-86614000D01*
X106560170Y-88631600D02*
X106888000Y-88631600D01*
X107392057Y-96431600D02*
X107188000Y-96431600D01*
X107188000Y-95231600D02*
X106560170Y-95231600D01*
X107188000Y-96431600D02*
X106560170Y-96431600D01*
X106560170Y-93431600D02*
X106888000Y-93431600D01*
X106888000Y-91631600D02*
X106560170Y-91631600D01*
X106888000Y-88031600D02*
X106560170Y-88031600D01*
X106888000Y-90431600D02*
X106560170Y-90431600D01*
X107596092Y-93635646D02*
X107596092Y-93827554D01*
X107596092Y-94835646D02*
X107596092Y-95027554D01*
X107188000Y-94631600D02*
X107392046Y-94631600D01*
X107392046Y-94031600D02*
X107188000Y-94031600D01*
X106888000Y-89231600D02*
X106560170Y-89231600D01*
X106888000Y-88031600D02*
G75*
G03*
X107188000Y-87731600I0J300000D01*
G01*
X106560170Y-90431570D02*
G75*
G03*
X106260170Y-90731600I30J-300030D01*
G01*
X106888000Y-92831600D02*
G75*
G03*
X107188000Y-92531600I0J300000D01*
G01*
X107188000Y-88931600D02*
G75*
G03*
X106888000Y-88631600I-300000J0D01*
G01*
X107188000Y-97331600D02*
G75*
G03*
X106888000Y-97031600I-300000J0D01*
G01*
X106560170Y-92831570D02*
G75*
G03*
X106260170Y-93131600I30J-300030D01*
G01*
X107188000Y-91331600D02*
G75*
G03*
X106888000Y-91031600I-300000J0D01*
G01*
X106560170Y-91631570D02*
G75*
G03*
X106260170Y-91931600I30J-300030D01*
G01*
X106260200Y-88331600D02*
G75*
G03*
X106560170Y-88631600I300000J0D01*
G01*
X107392046Y-94031692D02*
G75*
G03*
X107596092Y-93827554I-46J204092D01*
G01*
X106560170Y-95231570D02*
G75*
G03*
X106260170Y-95531600I30J-300030D01*
G01*
X107392057Y-96431513D02*
G75*
G03*
X107596113Y-96227544I43J204013D01*
G01*
X106888000Y-91631600D02*
G75*
G03*
X107188000Y-91331600I0J300000D01*
G01*
X106560170Y-94031570D02*
G75*
G03*
X106260170Y-94331600I30J-300030D01*
G01*
X107596000Y-94835646D02*
G75*
G03*
X107392046Y-94631600I-204000J46D01*
G01*
X106888000Y-89231600D02*
G75*
G03*
X107188000Y-88931600I0J300000D01*
G01*
X106560170Y-89231570D02*
G75*
G03*
X106260170Y-89531600I30J-300030D01*
G01*
X107188000Y-90131600D02*
G75*
G03*
X106888000Y-89831600I-300000J0D01*
G01*
X106260200Y-96731600D02*
G75*
G03*
X106560170Y-97031600I300000J0D01*
G01*
X107596200Y-96035656D02*
G75*
G03*
X107392057Y-95831600I-204100J-44D01*
G01*
X106560170Y-88031570D02*
G75*
G03*
X106260170Y-88331600I30J-300030D01*
G01*
X107392046Y-95231692D02*
G75*
G03*
X107596092Y-95027554I-46J204092D01*
G01*
X106260200Y-94331600D02*
G75*
G03*
X106560170Y-94631600I300000J0D01*
G01*
X106560170Y-96431570D02*
G75*
G03*
X106260170Y-96731600I30J-300030D01*
G01*
X106260200Y-89531600D02*
G75*
G03*
X106560170Y-89831600I300000J0D01*
G01*
X107188000Y-92531600D02*
G75*
G03*
X106888000Y-92231600I-300000J0D01*
G01*
X106888000Y-90431600D02*
G75*
G03*
X107188000Y-90131600I0J300000D01*
G01*
X107596000Y-93635646D02*
G75*
G03*
X107392046Y-93431600I-204000J46D01*
G01*
X106260200Y-95531600D02*
G75*
G03*
X106560170Y-95831600I300000J0D01*
G01*
X106260200Y-91931600D02*
G75*
G03*
X106560170Y-92231600I300000J0D01*
G01*
X106260200Y-93131600D02*
G75*
G03*
X106560170Y-93431600I300000J0D01*
G01*
X106260200Y-90731600D02*
G75*
G03*
X106560170Y-91031600I300000J0D01*
G01*
X107701093Y-92253600D02*
X107950000Y-92253600D01*
X107950000Y-84937600D02*
X107950000Y-85953600D01*
X108648266Y-91653600D02*
X107950000Y-91653600D01*
X107950000Y-91653600D02*
X107701093Y-91653600D01*
X107452186Y-90702507D02*
X107452186Y-90804693D01*
X108250000Y-86253600D02*
X108648266Y-86253600D01*
X108648266Y-88053600D02*
X107950000Y-88053600D01*
X107452186Y-89502507D02*
X107452186Y-89604693D01*
X108250000Y-86853600D02*
X107826096Y-86853600D01*
X107701093Y-91053600D02*
X107950000Y-91053600D01*
X107950000Y-88053600D02*
X107701103Y-88053600D01*
X107826096Y-87453600D02*
X107950000Y-87453600D01*
X107950000Y-89853600D02*
X108648266Y-89853600D01*
X107950000Y-92253600D02*
X108648266Y-92253600D01*
X108648266Y-90453600D02*
X107950000Y-90453600D01*
X107702193Y-86977503D02*
X107702193Y-87329697D01*
X107950000Y-106527600D02*
X107899200Y-106578400D01*
X108648266Y-86853600D02*
X108250000Y-86853600D01*
X107950000Y-89253600D02*
X107701093Y-89253600D01*
X107950000Y-93153600D02*
X107950000Y-96073684D01*
X107452207Y-88302496D02*
X107452207Y-88404704D01*
X107950000Y-90453600D02*
X107701093Y-90453600D01*
X107452186Y-91902507D02*
X107452186Y-92004693D01*
X107701093Y-89853600D02*
X107950000Y-89853600D01*
X107950000Y-87453600D02*
X108648266Y-87453600D01*
X108648266Y-89253600D02*
X107950000Y-89253600D01*
X107701103Y-88653600D02*
X107950000Y-88653600D01*
X107950000Y-88653600D02*
X108648266Y-88653600D01*
X107950000Y-91053600D02*
X108648266Y-91053600D01*
X108648266Y-92853600D02*
X108250000Y-92853600D01*
X107950000Y-96073684D02*
X107950000Y-106527600D01*
X108648266Y-86853566D02*
G75*
G03*
X108948266Y-86553600I34J299966D01*
G01*
X107701093Y-90453586D02*
G75*
G03*
X107452186Y-90702507I7J-248914D01*
G01*
X107452200Y-89604693D02*
G75*
G03*
X107701093Y-89853600I248900J-7D01*
G01*
X107826096Y-86853593D02*
G75*
G03*
X107702193Y-86977503I4J-123907D01*
G01*
X107702200Y-87329697D02*
G75*
G03*
X107826096Y-87453600I123900J-3D01*
G01*
X107452200Y-90804693D02*
G75*
G03*
X107701093Y-91053600I248900J-7D01*
G01*
X108948300Y-91353600D02*
G75*
G03*
X108648266Y-91053600I-300000J0D01*
G01*
X107452200Y-92004693D02*
G75*
G03*
X107701093Y-92253600I248900J-7D01*
G01*
X108948300Y-87753600D02*
G75*
G03*
X108648266Y-87453600I-300000J0D01*
G01*
X108948300Y-90153600D02*
G75*
G03*
X108648266Y-89853600I-300000J0D01*
G01*
X107701103Y-88053607D02*
G75*
G03*
X107452207Y-88302496I-3J-248893D01*
G01*
X108648266Y-92853566D02*
G75*
G03*
X108948266Y-92553600I34J299966D01*
G01*
X108648266Y-89253566D02*
G75*
G03*
X108948266Y-88953600I34J299966D01*
G01*
X108648266Y-88053566D02*
G75*
G03*
X108948266Y-87753600I34J299966D01*
G01*
X108948300Y-86553600D02*
G75*
G03*
X108648266Y-86253600I-300000J0D01*
G01*
X107452200Y-88404704D02*
G75*
G03*
X107701103Y-88653600I248900J4D01*
G01*
X107950000Y-85953600D02*
G75*
G03*
X108250000Y-86253600I300000J0D01*
G01*
X107701093Y-91653586D02*
G75*
G03*
X107452186Y-91902507I7J-248914D01*
G01*
X108648266Y-91653566D02*
G75*
G03*
X108948266Y-91353600I34J299966D01*
G01*
X108948300Y-92553600D02*
G75*
G03*
X108648266Y-92253600I-300000J0D01*
G01*
X108250000Y-92853600D02*
G75*
G03*
X107950000Y-93153600I0J-300000D01*
G01*
X107701093Y-89253586D02*
G75*
G03*
X107452186Y-89502507I7J-248914D01*
G01*
X108948300Y-88953600D02*
G75*
G03*
X108648266Y-88653600I-300000J0D01*
G01*
X108648266Y-90453566D02*
G75*
G03*
X108948266Y-90153600I34J299966D01*
G01*
X91135200Y-76403200D02*
X91135200Y-74739800D01*
X90373200Y-79248000D02*
X91236800Y-78384400D01*
X91236800Y-78384400D02*
X91236800Y-76504800D01*
X91236800Y-76504800D02*
X91135200Y-76403200D01*
X91135200Y-74739800D02*
X91225000Y-74650000D01*
X90678000Y-78130400D02*
X90678000Y-74014600D01*
X90678000Y-74014600D02*
X90425000Y-73761600D01*
X110150000Y-64750000D02*
X109950000Y-64550000D01*
X88775000Y-62200000D02*
X88825000Y-62150000D01*
X110150000Y-74450000D02*
X110150000Y-64750000D01*
X88775000Y-64550000D02*
X88775000Y-62200000D01*
X110725000Y-73850000D02*
X110725000Y-63725000D01*
X110725000Y-63725000D02*
X110475000Y-63475000D01*
X111250000Y-69525000D02*
X111250000Y-70425000D01*
X111250000Y-66950000D02*
X111250000Y-67750000D01*
X111225000Y-66925000D02*
X111250000Y-66950000D01*
X111250000Y-68475000D02*
X111400000Y-68475000D01*
X111125000Y-68475000D02*
X111250000Y-68475000D01*
X111000000Y-68000000D02*
X111000000Y-68350000D01*
X111250000Y-69225000D02*
X111250000Y-69525000D01*
X111550000Y-68625000D02*
X111550000Y-68925000D01*
X111400000Y-69075000D02*
G75*
G03*
X111550000Y-68925000I0J150000D01*
G01*
X111000000Y-68350000D02*
G75*
G03*
X111125000Y-68475000I125000J0D01*
G01*
X111125000Y-67875000D02*
G75*
G03*
X111250000Y-67750000I0J125000D01*
G01*
X111125000Y-67875000D02*
G75*
G03*
X111000000Y-68000000I0J-125000D01*
G01*
X111400000Y-69075000D02*
G75*
G03*
X111250000Y-69225000I0J-150000D01*
G01*
X111550000Y-68625000D02*
G75*
G03*
X111400000Y-68475000I-150000J0D01*
G01*
X115825000Y-60475000D02*
X115675000Y-60475000D01*
X115375000Y-63025000D02*
X115375000Y-63325000D01*
X115675000Y-62425000D02*
X115675000Y-62725000D01*
X115375000Y-61825000D02*
X115375000Y-62125000D01*
X115525000Y-61075000D02*
X115675000Y-61075000D01*
X115675000Y-61675000D02*
X115525000Y-61675000D01*
X115675000Y-60475000D02*
X115525000Y-60475000D01*
X115675000Y-63925000D02*
X115675000Y-64775000D01*
X115975000Y-61225000D02*
X115975000Y-61525000D01*
X115975000Y-60025000D02*
X115975000Y-60325000D01*
X115825000Y-61675000D02*
X115675000Y-61675000D01*
X115675000Y-64775000D02*
X115625000Y-64825000D01*
X115675000Y-61075000D02*
X115825000Y-61075000D01*
X115375000Y-60625000D02*
X115375000Y-60925000D01*
X115675000Y-58625000D02*
X115675000Y-59725000D01*
X115675000Y-63625000D02*
X115675000Y-63925000D01*
X115675000Y-63625000D02*
G75*
G03*
X115525000Y-63475000I-150000J0D01*
G01*
X115675000Y-59725000D02*
G75*
G03*
X115825000Y-59875000I150000J0D01*
G01*
X115525000Y-62875000D02*
G75*
G03*
X115375000Y-63025000I0J-150000D01*
G01*
X115375000Y-63325000D02*
G75*
G03*
X115525000Y-63475000I150000J0D01*
G01*
X115825000Y-61675000D02*
G75*
G03*
X115975000Y-61525000I0J150000D01*
G01*
X115975000Y-61225000D02*
G75*
G03*
X115825000Y-61075000I-150000J0D01*
G01*
X115975000Y-60025000D02*
G75*
G03*
X115825000Y-59875000I-150000J0D01*
G01*
X115525000Y-61675000D02*
G75*
G03*
X115375000Y-61825000I0J-150000D01*
G01*
X115375000Y-60925000D02*
G75*
G03*
X115525000Y-61075000I150000J0D01*
G01*
X115675000Y-62425000D02*
G75*
G03*
X115525000Y-62275000I-150000J0D01*
G01*
X115525000Y-60475000D02*
G75*
G03*
X115375000Y-60625000I0J-150000D01*
G01*
X115375000Y-62125000D02*
G75*
G03*
X115525000Y-62275000I150000J0D01*
G01*
X115525000Y-62875000D02*
G75*
G03*
X115675000Y-62725000I0J150000D01*
G01*
X115825000Y-60475000D02*
G75*
G03*
X115975000Y-60325000I0J150000D01*
G01*
X115125000Y-59385200D02*
X115125000Y-60050000D01*
X114825000Y-60350000D02*
X114825000Y-60650000D01*
X114825000Y-61550000D02*
X114825000Y-61850000D01*
X115125000Y-60950000D02*
X115125000Y-61250000D01*
X114825000Y-62750000D02*
X114825000Y-63050000D01*
X115125000Y-63650000D02*
X115125000Y-64275000D01*
X115125000Y-63350000D02*
X115125000Y-63650000D01*
X115125000Y-62150000D02*
X115125000Y-62450000D01*
X115125000Y-63350000D02*
G75*
G03*
X114975000Y-63200000I-150000J0D01*
G01*
X114825000Y-60650000D02*
G75*
G03*
X114975000Y-60800000I150000J0D01*
G01*
X115125000Y-62150000D02*
G75*
G03*
X114975000Y-62000000I-150000J0D01*
G01*
X114975000Y-60200000D02*
G75*
G03*
X115125000Y-60050000I0J150000D01*
G01*
X114825000Y-63050000D02*
G75*
G03*
X114975000Y-63200000I150000J0D01*
G01*
X114825000Y-61850000D02*
G75*
G03*
X114975000Y-62000000I150000J0D01*
G01*
X115125000Y-60950000D02*
G75*
G03*
X114975000Y-60800000I-150000J0D01*
G01*
X114975000Y-61400000D02*
G75*
G03*
X114825000Y-61550000I0J-150000D01*
G01*
X114975000Y-62600000D02*
G75*
G03*
X114825000Y-62750000I0J-150000D01*
G01*
X114975000Y-62600000D02*
G75*
G03*
X115125000Y-62450000I0J150000D01*
G01*
X114975000Y-61400000D02*
G75*
G03*
X115125000Y-61250000I0J150000D01*
G01*
X114975000Y-60200000D02*
G75*
G03*
X114825000Y-60350000I0J-150000D01*
G01*
X109150000Y-68675000D02*
X109150000Y-68975000D01*
X109750000Y-69275000D02*
X109750000Y-69575000D01*
X109300000Y-66725000D02*
X109450000Y-66725000D01*
X109150000Y-71075000D02*
X109150000Y-71375000D01*
X109600000Y-70925000D02*
X109450000Y-70925000D01*
X109550000Y-62800000D02*
X109550000Y-65875000D01*
X109300000Y-70325000D02*
X109450000Y-70325000D01*
X109450000Y-70925000D02*
X109300000Y-70925000D01*
X109300000Y-71525000D02*
X109450000Y-71525000D01*
X109450000Y-71525000D02*
X109600000Y-71525000D01*
X109600000Y-68525000D02*
X109450000Y-68525000D01*
X109300000Y-69125000D02*
X109450000Y-69125000D01*
X109600000Y-72125000D02*
X109450000Y-72125000D01*
X109450000Y-69125000D02*
X109600000Y-69125000D01*
X109450000Y-68525000D02*
X109300000Y-68525000D01*
X109450000Y-72875000D02*
X109450000Y-73175000D01*
X109550000Y-65875000D02*
X109450000Y-65975000D01*
X109150000Y-66275000D02*
X109150000Y-66575000D01*
X109150000Y-72275000D02*
X109150000Y-72575000D01*
X109450000Y-70325000D02*
X109600000Y-70325000D01*
X109600000Y-69725000D02*
X109450000Y-69725000D01*
X109450000Y-69725000D02*
X109300000Y-69725000D01*
X109450000Y-66725000D02*
X109600000Y-66725000D01*
X109750000Y-68075000D02*
X109750000Y-68375000D01*
X109450000Y-67325000D02*
X109300000Y-67325000D01*
X109300000Y-67925000D02*
X109450000Y-67925000D01*
X109450000Y-73175000D02*
X109450000Y-74500000D01*
X109450000Y-67925000D02*
X109600000Y-67925000D01*
X109450000Y-72125000D02*
X109300000Y-72125000D01*
X109600000Y-67325000D02*
X109450000Y-67325000D01*
X109150000Y-67475000D02*
X109150000Y-67775000D01*
X109150000Y-69875000D02*
X109150000Y-70175000D01*
X109750000Y-70475000D02*
X109750000Y-70775000D01*
X109750000Y-66875000D02*
X109750000Y-67175000D01*
X109750000Y-71675000D02*
X109750000Y-71975000D01*
X109150000Y-67775000D02*
G75*
G03*
X109300000Y-67925000I150000J0D01*
G01*
X109600000Y-69725000D02*
G75*
G03*
X109750000Y-69575000I0J150000D01*
G01*
X109600000Y-67325000D02*
G75*
G03*
X109750000Y-67175000I0J150000D01*
G01*
X109150000Y-71375000D02*
G75*
G03*
X109300000Y-71525000I150000J0D01*
G01*
X109750000Y-70475000D02*
G75*
G03*
X109600000Y-70325000I-150000J0D01*
G01*
X109150000Y-70175000D02*
G75*
G03*
X109300000Y-70325000I150000J0D01*
G01*
X109600000Y-68525000D02*
G75*
G03*
X109750000Y-68375000I0J150000D01*
G01*
X109300000Y-68525000D02*
G75*
G03*
X109150000Y-68675000I0J-150000D01*
G01*
X109450000Y-72875000D02*
G75*
G03*
X109300000Y-72725000I-150000J0D01*
G01*
X109600000Y-70925000D02*
G75*
G03*
X109750000Y-70775000I0J150000D01*
G01*
X109150000Y-68975000D02*
G75*
G03*
X109300000Y-69125000I150000J0D01*
G01*
X109750000Y-69275000D02*
G75*
G03*
X109600000Y-69125000I-150000J0D01*
G01*
X109150000Y-66575000D02*
G75*
G03*
X109300000Y-66725000I150000J0D01*
G01*
X109300000Y-66125000D02*
G75*
G03*
X109450000Y-65975000I0J150000D01*
G01*
X109600000Y-72125000D02*
G75*
G03*
X109750000Y-71975000I0J150000D01*
G01*
X109300000Y-72125000D02*
G75*
G03*
X109150000Y-72275000I0J-150000D01*
G01*
X109300000Y-69725000D02*
G75*
G03*
X109150000Y-69875000I0J-150000D01*
G01*
X109300000Y-66125000D02*
G75*
G03*
X109150000Y-66275000I0J-150000D01*
G01*
X109150000Y-72575000D02*
G75*
G03*
X109300000Y-72725000I150000J0D01*
G01*
X109300000Y-67325000D02*
G75*
G03*
X109150000Y-67475000I0J-150000D01*
G01*
X109750000Y-68075000D02*
G75*
G03*
X109600000Y-67925000I-150000J0D01*
G01*
X109750000Y-71675000D02*
G75*
G03*
X109600000Y-71525000I-150000J0D01*
G01*
X109300000Y-70925000D02*
G75*
G03*
X109150000Y-71075000I0J-150000D01*
G01*
X109750000Y-66875000D02*
G75*
G03*
X109600000Y-66725000I-150000J0D01*
G01*
X104775000Y-54000000D02*
X104775000Y-62475000D01*
X104775000Y-62475000D02*
X104300000Y-62950000D01*
X104325000Y-54425000D02*
X104325000Y-62050000D01*
X104325000Y-62050000D02*
X104050000Y-62325000D01*
X77063600Y-80975200D02*
X77063600Y-91236800D01*
X77063600Y-91236800D02*
X76733400Y-91567000D01*
X100950000Y-54025000D02*
X100800000Y-54025000D01*
X100800000Y-55825000D02*
X100950000Y-55825000D01*
X100800000Y-50700000D02*
X100800000Y-52675000D01*
X101100000Y-55975000D02*
X101100000Y-56275000D01*
X100800000Y-53425000D02*
X100950000Y-53425000D01*
X100650000Y-53425000D02*
X100800000Y-53425000D01*
X101100000Y-53575000D02*
X101100000Y-53875000D01*
X100500000Y-56575000D02*
X100500000Y-56875000D01*
X100500000Y-52975000D02*
X100500000Y-53275000D01*
X100500000Y-54175000D02*
X100500000Y-54475000D01*
X100800000Y-55225000D02*
X100650000Y-55225000D01*
X100800000Y-57775000D02*
X100800000Y-58075000D01*
X100800000Y-54625000D02*
X100950000Y-54625000D01*
X100800000Y-54025000D02*
X100650000Y-54025000D01*
X100500000Y-55375000D02*
X100500000Y-55675000D01*
X100650000Y-54625000D02*
X100800000Y-54625000D01*
X101100000Y-54775000D02*
X101100000Y-55075000D01*
X101750000Y-49750000D02*
X100800000Y-50700000D01*
X100950000Y-55225000D02*
X100800000Y-55225000D01*
X101100000Y-57175000D02*
X101100000Y-57475000D01*
X100800000Y-56425000D02*
X100650000Y-56425000D01*
X100950000Y-56425000D02*
X100800000Y-56425000D01*
X100800000Y-57025000D02*
X100950000Y-57025000D01*
X100650000Y-57025000D02*
X100800000Y-57025000D01*
X100800000Y-58075000D02*
X100800000Y-58750000D01*
X100650000Y-55825000D02*
X100800000Y-55825000D01*
X100500000Y-56875000D02*
G75*
G03*
X100650000Y-57025000I150000J0D01*
G01*
X100500000Y-53275000D02*
G75*
G03*
X100650000Y-53425000I150000J0D01*
G01*
X100650000Y-52825000D02*
G75*
G03*
X100500000Y-52975000I0J-150000D01*
G01*
X100500000Y-55675000D02*
G75*
G03*
X100650000Y-55825000I150000J0D01*
G01*
X101100000Y-57175000D02*
G75*
G03*
X100950000Y-57025000I-150000J0D01*
G01*
X101100000Y-55975000D02*
G75*
G03*
X100950000Y-55825000I-150000J0D01*
G01*
X100650000Y-55225000D02*
G75*
G03*
X100500000Y-55375000I0J-150000D01*
G01*
X100650000Y-56425000D02*
G75*
G03*
X100500000Y-56575000I0J-150000D01*
G01*
X100950000Y-55225000D02*
G75*
G03*
X101100000Y-55075000I0J150000D01*
G01*
X101100000Y-53575000D02*
G75*
G03*
X100950000Y-53425000I-150000J0D01*
G01*
X100950000Y-57625000D02*
G75*
G03*
X101100000Y-57475000I0J150000D01*
G01*
X100950000Y-56425000D02*
G75*
G03*
X101100000Y-56275000I0J150000D01*
G01*
X100950000Y-54025000D02*
G75*
G03*
X101100000Y-53875000I0J150000D01*
G01*
X100650000Y-54025000D02*
G75*
G03*
X100500000Y-54175000I0J-150000D01*
G01*
X101100000Y-54775000D02*
G75*
G03*
X100950000Y-54625000I-150000J0D01*
G01*
X100950000Y-57625000D02*
G75*
G03*
X100800000Y-57775000I0J-150000D01*
G01*
X100650000Y-52825000D02*
G75*
G03*
X100800000Y-52675000I0J150000D01*
G01*
X100500000Y-54475000D02*
G75*
G03*
X100650000Y-54625000I150000J0D01*
G01*
X77774800Y-91846400D02*
X76200000Y-93421200D01*
X78130400Y-80975200D02*
X78130400Y-91490800D01*
X76200000Y-93421200D02*
X76200000Y-97536000D01*
X78130400Y-91490800D02*
X77774800Y-91846400D01*
X78752099Y-91681901D02*
X78752099Y-83222499D01*
X78536800Y-83007200D02*
X78536800Y-81737200D01*
X77012800Y-93421200D02*
X78752099Y-91681901D01*
X78752099Y-83222499D02*
X78536800Y-83007200D01*
X78536800Y-81737200D02*
X78841600Y-81432400D01*
X78841600Y-81432400D02*
X78841600Y-81026000D01*
X77012800Y-98247200D02*
X77012800Y-93421200D01*
X99200000Y-58675000D02*
X99200000Y-48700000D01*
X100400000Y-61175000D02*
X99725000Y-60500000D01*
X98450000Y-58500000D02*
X98450000Y-54150000D01*
X100400000Y-63050000D02*
X100400000Y-61175000D01*
X99725000Y-60500000D02*
X98450000Y-59225000D01*
X100027443Y-63422557D02*
X100400000Y-63050000D01*
X98450000Y-54150000D02*
X98275000Y-53975000D01*
X98450000Y-59225000D02*
X98450000Y-58500000D01*
X100027443Y-70822738D02*
X100027443Y-63422557D01*
X87630000Y-49276000D02*
X88239600Y-48666400D01*
X88239600Y-40995600D02*
X87477600Y-40233600D01*
X88239600Y-48666400D02*
X88239600Y-46228000D01*
X88239600Y-46228000D02*
X88239600Y-40995600D01*
X87833200Y-48514000D02*
X87833200Y-41757600D01*
X87833200Y-41757600D02*
X86918800Y-40843200D01*
X87172800Y-49936400D02*
X87172800Y-49174400D01*
X86918800Y-40843200D02*
X86918800Y-38811200D01*
X87172800Y-49174400D02*
X87833200Y-48514000D01*
X50393600Y-173329600D02*
X49382000Y-172318000D01*
X50444400Y-173278800D02*
X50393600Y-173329600D01*
X71678800Y-156972000D02*
X67157600Y-161493200D01*
X72491600Y-114808000D02*
X72491600Y-119583200D01*
X89052400Y-108153200D02*
X85953600Y-111252000D01*
X76047600Y-111252000D02*
X72491600Y-114808000D01*
X89458800Y-103479600D02*
X89458800Y-105765600D01*
X76809600Y-123901200D02*
X76809600Y-137007600D01*
X85953600Y-111252000D02*
X76047600Y-111252000D01*
X67157600Y-161493200D02*
X67157600Y-170891200D01*
X76809600Y-137007600D02*
X74320400Y-139496800D01*
X89052400Y-103073200D02*
X89458800Y-103479600D01*
X71678800Y-150215600D02*
X71678800Y-156972000D01*
X72491600Y-119583200D02*
X76809600Y-123901200D01*
X89052400Y-83566000D02*
X89052400Y-103073200D01*
X74320400Y-147574000D02*
X71678800Y-150215600D01*
X49382000Y-172318000D02*
X49382000Y-172192000D01*
X74320400Y-139496800D02*
X74320400Y-147574000D01*
X64770000Y-173278800D02*
X50444400Y-173278800D01*
X89052400Y-106172000D02*
X89052400Y-108153200D01*
X89458800Y-105765600D02*
X89052400Y-106172000D01*
X67157600Y-170891200D02*
X64770000Y-173278800D01*
X108458000Y-75639788D02*
X109119812Y-76301600D01*
X109119812Y-76301600D02*
X110490000Y-76301600D01*
X118110000Y-80365600D02*
X120853200Y-83108800D01*
X108458000Y-74625200D02*
X108458000Y-75639788D01*
X110794800Y-62128400D02*
X109668359Y-62128400D01*
X113792000Y-112217200D02*
X113436400Y-112572800D01*
X120853200Y-86614000D02*
X120853200Y-111455200D01*
X108762800Y-74320400D02*
X108458000Y-74625200D01*
X108762800Y-63033959D02*
X108762800Y-74320400D01*
X110490000Y-76301600D02*
X114554000Y-80365600D01*
X114554000Y-80365600D02*
X118110000Y-80365600D01*
X120853200Y-83108800D02*
X120853200Y-86614000D01*
X120853200Y-111455200D02*
X120091200Y-112217200D01*
X109668359Y-62128400D02*
X108762800Y-63033959D01*
X120091200Y-112217200D02*
X113792000Y-112217200D01*
X110185200Y-76555600D02*
X113741200Y-80111600D01*
X113741200Y-111506000D02*
X113487200Y-111760000D01*
X113741200Y-80111600D02*
X114503200Y-80873600D01*
X109031712Y-76555600D02*
X109524800Y-76555600D01*
X120243600Y-83820000D02*
X120243600Y-110794800D01*
X109524800Y-76555600D02*
X110185200Y-76555600D01*
X117297200Y-80873600D02*
X120243600Y-83820000D01*
X110642400Y-60096400D02*
X108520899Y-62217901D01*
X120243600Y-110794800D02*
X119532400Y-111506000D01*
X108520899Y-62217901D02*
X108520899Y-74220201D01*
X114503200Y-80873600D02*
X116941600Y-80873600D01*
X108216099Y-75739987D02*
X109031712Y-76555600D01*
X116941600Y-80873600D02*
X117297200Y-80873600D01*
X119532400Y-111506000D02*
X113741200Y-111506000D01*
X108520899Y-74220201D02*
X108216099Y-74525001D01*
X108216099Y-74525001D02*
X108216099Y-75739987D01*
X78435200Y-101752400D02*
X75387200Y-104800400D01*
X82397600Y-52374800D02*
X79439101Y-55333299D01*
X75387200Y-111252000D02*
X71983600Y-114655600D01*
X77774800Y-100431600D02*
X78435200Y-101092000D01*
X71983600Y-114655600D02*
X71983600Y-120142000D01*
X77774800Y-93624400D02*
X77774800Y-100431600D01*
X79439101Y-91960099D02*
X77774800Y-93624400D01*
X78435200Y-101092000D02*
X78435200Y-101752400D01*
X79439101Y-55333299D02*
X79439101Y-91960099D01*
X75387200Y-104800400D02*
X75387200Y-111252000D01*
M02*
