M48
; DRILL file {KiCad 7.0.1} date Sat Jan 20 14:02:38 2024
; FORMAT={-:-/ absolute / metric / decimal}
; #@! TF.CreationDate,2024-01-20T14:02:38+00:00
; #@! TF.GenerationSoftware,Kicad,Pcbnew,7.0.1
; #@! TF.FileFunction,Plated,1,6,PTH
FMAT,2
METRIC
; #@! TA.AperFunction,Plated,PTH,ViaDrill
T1C0.200
; #@! TA.AperFunction,Plated,PTH,ViaDrill
T2C0.400
; #@! TA.AperFunction,Plated,PTH,ComponentDrill
T3C0.500
; #@! TA.AperFunction,Plated,PTH,ComponentDrill
T4C0.600
; #@! TA.AperFunction,Plated,PTH,ComponentDrill
T5C0.750
; #@! TA.AperFunction,Plated,PTH,ComponentDrill
T6C0.800
; #@! TA.AperFunction,Plated,PTH,ComponentDrill
T7C1.000
; #@! TA.AperFunction,Plated,PTH,ComponentDrill
T8C1.300
; #@! TA.AperFunction,Plated,PTH,ComponentDrill
T9C1.500
%
G90
G05
T1
X54.61Y-157.99
X56.642Y-45.415
X62.89Y-48.26
X63.652Y-83.617
X64.313Y-48.26
X64.315Y-143.51
X65.329Y-48.209
X66.04Y-169.42
X66.091Y-48.362
X66.142Y-89.256
X66.238Y-93.426
X66.243Y-80.315
X66.548Y-89.764
X67.412Y-40.792
X67.615Y-87.224
X68.834Y-86.665
X69.139Y-51.308
X70.002Y-54.508
X71.984Y-120.142
X73.965Y-76.657
X74.422Y-108.61
X74.981Y-54.051
X75.743Y-75.59
X75.844Y-52.832
X76.2Y-97.536
X76.403Y-75.489
X76.505Y-110.744
X76.733Y-91.567
X76.759Y-139.7
X77.013Y-98.247
X77.064Y-80.975
X77.114Y-37.084
X77.47Y-157.99
X78.13Y-80.975
X78.842Y-81.026
X78.994Y-82.55
X78.994Y-100.025
X80.315Y-110.744
X80.518Y-70.409
X80.525Y-56.325
X80.576Y-59.689
X80.62Y-76.81
X80.67Y-83.007
X80.727Y-61.394
X80.823Y-81.077
X80.933Y-77.264
X80.975Y-110.084
X81.026Y-69.088
X81.026Y-69.952
X81.077Y-82.499
X81.175Y-62.325
X81.205Y-60.761
X81.229Y-80.416
X81.229Y-98.755
X81.382Y-79.604
X81.4Y-74.4
X81.414Y-78.552
X81.534Y-109.169
X81.585Y-55.778
X81.636Y-81.178
X81.636Y-140.513
X81.765Y-76.237
X81.775Y-61.925
X81.839Y-68.478
X81.94Y-133.248
X81.991Y-53.797
X81.991Y-66.802
X82.042Y-60.046
X82.072Y-84.699
X82.347Y-69.444
X82.398Y-52.375
X82.448Y-85.192
X82.652Y-107.493
X82.702Y-93.624
X82.906Y-84.633
X82.956Y-112.471
X83.16Y-140.462
X83.21Y-135.534
X83.261Y-94.285
X83.312Y-85.242
X83.363Y-100.127
X83.718Y-44.501
X83.718Y-84.582
X83.82Y-40.996
X83.972Y-93.066
X84.023Y-149.758
X84.176Y-85.141
X84.43Y-103.784
X84.582Y-100.686
X84.785Y-84.887
X84.785Y-122.123
X85.039Y-108.356
X85.141Y-58.928
X85.293Y-79.959
X85.344Y-54.254
X85.446Y-105.461
X85.496Y-107.95
X85.7Y-58.42
X85.7Y-73.4
X85.775Y-70.575
X85.954Y-101.295
X86.055Y-39.268
X86.106Y-104.394
X86.2Y-72.375
X86.208Y-103.276
X86.215Y-49.575
X86.36Y-112.065
X86.475Y-56.65
X86.563Y-84.938
X86.575Y-48.825
X86.716Y-83.21
X86.716Y-105.004
X86.75Y-73.825
X86.817Y-53.492
X86.817Y-107.086
X86.817Y-109.814
X86.919Y-38.811
X86.919Y-50.546
X86.925Y-71.2
X87.05Y-47.991
X87.173Y-49.936
X87.173Y-106.477
X87.274Y-108.56
X87.478Y-40.234
X87.528Y-121.666
X87.63Y-49.276
X87.732Y-84.785
X87.925Y-75.2
X88.036Y-75.895
X88.341Y-138.43
X88.471Y-104.426
X88.544Y-106.629
X88.748Y-76.149
X88.775Y-64.55
X88.825Y-62.15
X88.825Y-75.438
X88.849Y-112.522
X89.052Y-83.566
X89.052Y-134.468
X89.205Y-136.449
X89.412Y-109.171
X89.525Y-75.3
X89.56Y-110.287
X89.7Y-49.75
X89.814Y-113.894
X89.967Y-121.158
X90.17Y-132.59
X90.272Y-95.707
X90.272Y-106.629
X90.373Y-79.248
X90.425Y-73.762
X90.45Y-63.425
X90.627Y-104.445
X90.678Y-78.13
X90.729Y-79.756
X90.729Y-82.906
X90.932Y-112.624
X91.225Y-74.65
X91.237Y-83.668
X91.275Y-48.75
X91.288Y-105.336
X91.3Y-62.875
X91.694Y-80.112
X91.745Y-100.736
X91.948Y-112.014
X92.151Y-82.652
X92.2Y-58.05
X92.253Y-109.474
X92.304Y-37.084
X92.608Y-45.923
X92.659Y-136.804
X92.675Y-80.112
X92.825Y-62.35
X92.862Y-110.896
X93.0Y-63.975
X93.125Y-83.875
X93.269Y-109.017
X93.523Y-104.496
X93.574Y-102.057
X93.6Y-74.625
X93.624Y-113.843
X93.625Y-58.9
X93.65Y-76.5
X93.725Y-84.4
X93.777Y-136.855
X94.225Y-83.675
X94.285Y-97.231
X94.4Y-75.2
X94.539Y-100.787
X94.64Y-96.622
X94.691Y-138.43
X94.7Y-65.425
X95.0Y-84.875
X95.047Y-44.806
X95.1Y-58.25
X95.148Y-50.495
X95.148Y-112.674
X95.225Y-79.75
X95.25Y-74.125
X95.525Y-49.275
X95.628Y-83.705
X95.72Y-89.814
X95.809Y-112.065
X95.95Y-59.6
X95.975Y-75.825
X96.063Y-79.807
X96.225Y-58.925
X96.571Y-39.827
X96.571Y-95.301
X96.725Y-83.675
X96.75Y-49.825
X96.774Y-79.807
X96.854Y-58.199
X96.926Y-96.469
X96.977Y-89.408
X97.231Y-122.072
X97.282Y-92.405
X97.384Y-135.585
X97.4Y-58.7
X97.587Y-105.004
X97.675Y-79.85
X97.774Y-91.345
X97.775Y-47.875
X97.875Y-59.3
X97.892Y-96.52
X98.044Y-133.452
X98.12Y-157.875
X98.15Y-168.125
X98.275Y-53.975
X98.349Y-80.061
X98.349Y-90.576
X98.349Y-141.58
X98.425Y-75.3
X98.501Y-96.571
X98.525Y-47.975
X98.625Y-83.65
X98.7Y-168.95
X98.875Y-167.35
X98.975Y-156.95
X99.2Y-48.7
X99.2Y-58.675
X99.201Y-90.704
X99.275Y-168.6
X99.425Y-62.875
X99.873Y-91.897
X100.0Y-59.3
X100.0Y-77.025
X100.027Y-70.823
X100.075Y-56.625
X100.2Y-85.825
X100.725Y-75.9
X100.775Y-49.726
X100.8Y-58.75
X100.8Y-73.975
X100.851Y-122.174
X100.9Y-85.675
X101.092Y-107.594
X101.225Y-74.7
X101.417Y-85.523
X101.6Y-59.425
X101.6Y-86.25
X101.65Y-71.125
X101.675Y-63.95
X101.75Y-49.75
X101.825Y-75.4
X102.05Y-86.614
X102.175Y-76.5
X102.325Y-48.55
X102.45Y-59.45
X102.45Y-70.425
X102.506Y-86.288
X102.85Y-93.505
X102.87Y-80.01
X102.975Y-79.0
X103.124Y-111.506
X103.175Y-86.004
X103.175Y-74.65
X103.327Y-41.758
X103.327Y-45.009
X103.375Y-58.525
X103.5Y-70.425
X103.581Y-47.498
X103.581Y-93.929
X103.835Y-97.638
X103.875Y-59.2
X103.886Y-92.405
X104.038Y-75.946
X104.05Y-62.325
X104.05Y-74.7
X104.225Y-84.876
X104.3Y-62.95
X104.325Y-54.425
X104.505Y-109.46
X104.648Y-45.466
X104.775Y-54.0
X104.85Y-74.75
X104.925Y-65.425
X105.125Y-62.95
X105.562Y-92.862
X105.65Y-62.175
X105.664Y-47.447
X105.675Y-66.05
X105.7Y-74.875
X105.7Y-84.375
X105.867Y-106.223
X106.172Y-47.854
X106.425Y-83.6
X106.426Y-108.763
X106.5Y-62.225
X106.575Y-66.7
X106.65Y-74.925
X106.832Y-48.26
X107.086Y-108.204
X107.15Y-84.025
X107.175Y-62.925
X107.188Y-84.938
X107.3Y-67.425
X107.3Y-69.75
X107.825Y-83.55
X107.899Y-106.578
X107.95Y-84.938
X107.975Y-69.075
X108.025Y-68.075
X108.05Y-48.65
X108.05Y-62.275
X108.534Y-84.249
X108.61Y-47.447
X108.846Y-79.931
X108.975Y-75.425
X109.169Y-176.327
X109.373Y-80.043
X109.45Y-74.5
X109.55Y-62.8
X109.726Y-83.16
X109.885Y-79.689
X109.95Y-64.55
X109.952Y-50.207
X110.15Y-74.45
X110.475Y-63.475
X110.592Y-53.492
X110.592Y-79.654
X110.642Y-60.096
X110.725Y-73.85
X110.795Y-62.128
X110.846Y-91.44
X110.998Y-46.279
X111.225Y-48.775
X111.225Y-66.925
X111.25Y-70.425
X111.252Y-58.318
X111.303Y-59.385
X111.303Y-90.678
X111.354Y-79.705
X111.404Y-57.353
X111.557Y-116.84
X111.608Y-75.946
X112.268Y-47.092
X112.42Y-82.55
X112.573Y-103.784
X112.573Y-105.004
X112.624Y-176.225
X112.928Y-21.133
X112.928Y-89.56
X113.03Y-82.855
X113.233Y-50.749
X113.233Y-83.871
X113.284Y-49.987
X113.284Y-109.83
X113.335Y-42.774
X113.335Y-47.396
X113.335Y-107.899
X113.335Y-108.864
X113.386Y-115.875
X113.386Y-176.225
X113.436Y-97.587
X113.436Y-112.573
X113.487Y-93.777
X113.487Y-95.656
X113.487Y-102.057
X113.487Y-111.76
X113.538Y-88.9
X113.64Y-52.426
X113.64Y-103.175
X113.748Y-84.032
X113.792Y-82.55
X113.792Y-110.846
X113.862Y-83.344
X114.046Y-21.133
X114.351Y-42.469
X114.351Y-50.089
X114.402Y-76.911
X114.91Y-76.454
X115.125Y-59.385
X115.125Y-64.275
X115.621Y-75.946
X115.625Y-64.825
X115.675Y-58.625
X115.825Y-77.325
X115.926Y-87.528
X115.926Y-95.606
X115.926Y-97.333
X115.976Y-115.875
X116.025Y-55.425
X116.027Y-110.846
X116.129Y-21.133
X116.129Y-35.458
X116.129Y-109.88
X116.2Y-72.8
X116.2Y-75.55
X116.225Y-70.5
X116.25Y-66.0
X116.275Y-62.5
X116.281Y-108.712
X116.332Y-107.798
X116.789Y-42.875
X117.5Y-136.296
X117.704Y-50.241
X117.856Y-36.068
X118.11Y-132.59
X118.161Y-92.812
X118.364Y-21.133
X118.516Y-58.725
X119.431Y-21.133
X119.532Y-58.877
X120.04Y-45.06
X120.396Y-69.19
X120.548Y-21.082
X120.634Y-66.9
X121.107Y-37.033
X122.276Y-92.862
X122.377Y-37.998
X122.428Y-63.805
X122.53Y-52.273
X122.869Y-58.623
X122.987Y-52.883
X123.139Y-63.398
X123.647Y-108.56
X123.698Y-84.988
X123.749Y-57.81
X124.003Y-57.15
X124.054Y-59.487
X124.511Y-40.437
X124.765Y-52.222
X126.644Y-28.6
X126.898Y-69.24
X127.559Y-109.22
X129.337Y-42.062
X129.54Y-121.16
X129.54Y-144.02
X130.251Y-40.996
X130.251Y-163.932
X130.708Y-58.877
X131.267Y-159.868
X131.521Y-58.826
X131.572Y-82.55
X131.877Y-26.467
X131.928Y-160.985
X132.029Y-43.231
X132.639Y-158.902
X133.401Y-162.001
X134.62Y-81.94
X136.703Y-110.795
X139.04Y-145.593
X140.97Y-132.59
X142.545Y-115.519
X146.304Y-112.776
T2
X46.279Y-113.182
X46.38Y-110.693
X47.955Y-67.107
X47.955Y-68.986
X48.26Y-120.447
X48.666Y-104.902
X49.378Y-164.948
X52.476Y-46.584
X53.289Y-92.659
X53.543Y-83.617
X53.645Y-176.174
X54.102Y-109.22
X54.102Y-113.284
X54.102Y-114.808
X56.096Y-139.446
X57.658Y-110.998
X57.963Y-144.729
X58.522Y-104.597
X58.725Y-85.141
X58.725Y-90.678
X58.826Y-109.525
X58.979Y-56.134
X60.147Y-155.194
X60.858Y-56.134
X61.773Y-100.584
X62.789Y-93.37
X64.973Y-34.747
X65.38Y-40.742
X65.532Y-102.006
X66.345Y-91.592
X66.853Y-74.371
X67.818Y-57.556
X68.732Y-37.186
X68.732Y-38.354
X68.936Y-113.284
X69.088Y-26.67
X69.19Y-24.74
X70.002Y-91.745
X70.104Y-81.839
X71.069Y-78.283
X71.526Y-142.392
X71.933Y-68.885
X71.933Y-166.218
X72.034Y-139.903
X72.898Y-65.024
X72.949Y-61.925
X75.082Y-32.36
X75.133Y-82.906
X75.184Y-76.2
X75.235Y-84.734
X75.387Y-56.947
X75.489Y-68.631
X75.59Y-58.217
X75.692Y-61.671
X75.692Y-63.856
X75.692Y-73.558
X75.895Y-85.649
X76.2Y-78.943
X76.251Y-77.064
X76.708Y-143.002
X76.759Y-169.266
X77.165Y-34.341
X77.927Y-37.541
X78.181Y-47.854
X80.01Y-166.116
X80.162Y-65.735
X80.67Y-37.44
X80.823Y-57.76
X80.924Y-67.462
X81.585Y-129.337
X83.312Y-129.337
X84.43Y-46.126
X84.582Y-50.038
X84.582Y-152.603
X85.903Y-79.197
X86.462Y-55.626
X86.817Y-136.804
X86.896Y-89.662
X87.239Y-83.847
X87.869Y-53.81
X88.9Y-48.971
X89.103Y-155.499
X89.713Y-166.421
X89.88Y-53.899
X91.846Y-46.38
X91.846Y-55.829
X92.025Y-75.184
X92.456Y-42.215
X92.71Y-135.585
X93.32Y-85.852
X93.675Y-167.691
X94.386Y-77.978
X94.539Y-168.859
X94.59Y-85.903
X95.215Y-46.771
X95.301Y-124.46
X95.555Y-98.298
X95.825Y-159.5
X95.91Y-77.927
X96.418Y-126.797
X96.52Y-44.856
X96.672Y-146.761
X97.13Y-54.712
X97.13Y-55.728
X97.13Y-167.691
X97.361Y-100.495
X97.384Y-85.852
X97.892Y-126.594
X98.35Y-159.3
X98.425Y-165.45
X98.654Y-100.533
X99.778Y-95.031
X99.822Y-167.742
X99.873Y-100.533
X100.076Y-96.469
X100.381Y-35.052
X100.787Y-146.609
X100.877Y-90.275
X100.975Y-159.35
X101.041Y-131.318
X102.108Y-45.517
X102.159Y-46.888
X102.21Y-168.758
X102.819Y-167.437
X104.191Y-79.4
X104.394Y-158.496
X104.575Y-150.275
X104.775Y-144.8
X104.795Y-99.981
X104.932Y-111.74
X105.664Y-112.42
X106.223Y-166.827
X106.4Y-162.0
X106.629Y-29.87
X106.883Y-86.004
X106.934Y-24.943
X107.15Y-150.3
X108.966Y-28.905
X108.975Y-170.475
X109.068Y-22.809
X109.075Y-153.7
X109.159Y-49.983
X110.338Y-56.744
X110.439Y-55.118
X110.571Y-87.559
X110.693Y-84.785
X110.693Y-86.157
X111.252Y-35.763
X111.404Y-172.466
X111.525Y-159.925
X112.624Y-45.872
X115.113Y-21.234
X115.418Y-172.263
X115.418Y-173.838
X115.418Y-176.276
X115.722Y-67.818
X116.383Y-52.934
X116.688Y-56.236
X116.738Y-65.024
X116.789Y-61.112
X117.1Y-154.4
X117.145Y-21.234
X117.525Y-157.8
X117.551Y-51.714
X117.95Y-165.45
X118.059Y-76.149
X118.059Y-79.146
X118.175Y-161.544
X118.466Y-71.882
X119.025Y-175.4
X119.583Y-76.2
X119.634Y-71.831
X119.634Y-79.248
X119.736Y-36.119
X120.548Y-64.516
X122.022Y-151.486
X123.19Y-124.46
X123.8Y-60.909
X124.358Y-131.572
X125.222Y-22.504
X125.679Y-33.274
X126.725Y-168.025
X127.275Y-171.575
X127.475Y-175.225
X128.118Y-46.431
X128.118Y-47.549
X128.168Y-50.14
X128.524Y-45.364
X129.388Y-24.536
X129.692Y-167.183
X130.2Y-21.996
X130.81Y-28.55
X132.791Y-164.998
X133.401Y-26.772
X134.671Y-140.411
X134.823Y-113.284
X135.687Y-79.451
X136.449Y-105.715
X138.176Y-151.841
X139.04Y-117.958
X139.649Y-142.799
X141.173Y-160.477
X141.224Y-159.258
X141.224Y-161.646
X142.291Y-160.426
X142.291Y-161.696
X142.342Y-159.258
X142.49Y-151.177
X143.002Y-32.106
X143.51Y-159.258
X143.51Y-160.477
X143.51Y-161.696
X143.561Y-145.898
X143.764Y-59.842
X145.085Y-145.745
X146.304Y-127.203
X147.015Y-100.432
X147.218Y-84.074
X147.472Y-152.044
X148.031Y-64.567
X148.031Y-169.266
X148.082Y-28.854
X149.149Y-145.999
X150.978Y-130.708
T3
X51.648Y-51.437
X52.898Y-51.437
T5
X112.3Y-168.275
X114.3Y-168.275
T6
X57.15Y-66.675
X57.15Y-74.295
X75.155Y-23.368
X75.155Y-29.972
X77.155Y-23.368
X77.155Y-29.972
X82.357Y-28.956
X84.357Y-28.956
X85.725Y-34.925
X93.345Y-34.925
T7
X46.99Y-147.32
X49.382Y-169.692
X49.382Y-172.192
X58.79Y-126.43
X58.79Y-128.93
X58.79Y-131.43
X73.29Y-126.43
X73.29Y-131.43
X121.92Y-148.59
X138.375Y-22.225
X142.875Y-22.225
X149.225Y-36.775
X149.225Y-41.275
X149.225Y-52.65
X149.225Y-57.15
T8
X52.008Y-29.85
X54.707Y-28.65
X57.207Y-21.85
X61.307Y-33.05
X61.807Y-25.75
X137.125Y-24.725
X144.125Y-24.725
X146.725Y-35.525
X146.725Y-42.525
X146.725Y-51.4
X146.725Y-58.4
T4
X94.105Y-172.045G85X94.105Y-170.945
G05
X94.105Y-175.975G85X94.105Y-175.375
G05
X102.745Y-172.045G85X102.745Y-170.945
G05
X102.745Y-175.975G85X102.745Y-175.375
G05
T7
X79.823Y-172.244G85X79.823Y-170.244
G05
X83.523Y-168.244G85X85.523Y-168.244
G05
X83.523Y-174.244G85X85.523Y-174.244
G05
T9
X65.64Y-123.33G85X66.94Y-123.33
G05
X65.64Y-134.53G85X66.94Y-134.53
G05
T0
M30
