G04 #@! TF.GenerationSoftware,KiCad,Pcbnew,7.0.1*
G04 #@! TF.CreationDate,2024-01-20T14:02:28+00:00*
G04 #@! TF.ProjectId,gk,676b2e6b-6963-4616-945f-706362585858,rev?*
G04 #@! TF.SameCoordinates,Original*
G04 #@! TF.FileFunction,Paste,Bot*
G04 #@! TF.FilePolarity,Positive*
%FSLAX46Y46*%
G04 Gerber Fmt 4.6, Leading zero omitted, Abs format (unit mm)*
G04 Created by KiCad (PCBNEW 7.0.1) date 2024-01-20 14:02:28*
%MOMM*%
%LPD*%
G01*
G04 APERTURE LIST*
G04 Aperture macros list*
%AMRoundRect*
0 Rectangle with rounded corners*
0 $1 Rounding radius*
0 $2 $3 $4 $5 $6 $7 $8 $9 X,Y pos of 4 corners*
0 Add a 4 corners polygon primitive as box body*
4,1,4,$2,$3,$4,$5,$6,$7,$8,$9,$2,$3,0*
0 Add four circle primitives for the rounded corners*
1,1,$1+$1,$2,$3*
1,1,$1+$1,$4,$5*
1,1,$1+$1,$6,$7*
1,1,$1+$1,$8,$9*
0 Add four rect primitives between the rounded corners*
20,1,$1+$1,$2,$3,$4,$5,0*
20,1,$1+$1,$4,$5,$6,$7,0*
20,1,$1+$1,$6,$7,$8,$9,0*
20,1,$1+$1,$8,$9,$2,$3,0*%
%AMFreePoly0*
4,1,13,0.900000,0.500000,2.600000,0.500000,2.600000,-0.500000,0.900000,-0.500000,0.400000,-1.000000,-0.400000,-1.000000,-0.900000,-0.500000,-2.600000,-0.500000,-2.600000,0.500000,-0.900000,0.500000,-0.400000,1.000000,0.400000,1.000000,0.900000,0.500000,0.900000,0.500000,$1*%
G04 Aperture macros list end*
%ADD10C,0.010000*%
%ADD11R,2.200000X1.500000*%
%ADD12RoundRect,0.200000X0.200000X0.275000X-0.200000X0.275000X-0.200000X-0.275000X0.200000X-0.275000X0*%
%ADD13R,0.600000X1.450000*%
%ADD14R,0.300000X1.450000*%
%ADD15RoundRect,0.225000X0.225000X0.250000X-0.225000X0.250000X-0.225000X-0.250000X0.225000X-0.250000X0*%
%ADD16RoundRect,0.200000X0.275000X-0.200000X0.275000X0.200000X-0.275000X0.200000X-0.275000X-0.200000X0*%
%ADD17RoundRect,0.225000X-0.225000X-0.250000X0.225000X-0.250000X0.225000X0.250000X-0.225000X0.250000X0*%
%ADD18RoundRect,0.200000X-0.275000X0.200000X-0.275000X-0.200000X0.275000X-0.200000X0.275000X0.200000X0*%
%ADD19RoundRect,0.250000X0.450000X0.800000X-0.450000X0.800000X-0.450000X-0.800000X0.450000X-0.800000X0*%
%ADD20R,0.300000X1.500000*%
%ADD21R,1.500000X2.200000*%
%ADD22RoundRect,0.150000X0.512500X0.150000X-0.512500X0.150000X-0.512500X-0.150000X0.512500X-0.150000X0*%
%ADD23RoundRect,0.200000X-0.200000X-0.275000X0.200000X-0.275000X0.200000X0.275000X-0.200000X0.275000X0*%
%ADD24RoundRect,0.080000X-0.160000X0.080000X-0.160000X-0.080000X0.160000X-0.080000X0.160000X0.080000X0*%
%ADD25RoundRect,0.062500X-0.062500X0.325000X-0.062500X-0.325000X0.062500X-0.325000X0.062500X0.325000X0*%
%ADD26R,0.600000X1.500000*%
%ADD27RoundRect,0.225000X-0.250000X0.225000X-0.250000X-0.225000X0.250000X-0.225000X0.250000X0.225000X0*%
%ADD28R,0.300000X1.100000*%
%ADD29R,2.300000X3.100000*%
%ADD30RoundRect,0.250000X0.250000X0.475000X-0.250000X0.475000X-0.250000X-0.475000X0.250000X-0.475000X0*%
%ADD31RoundRect,0.250000X0.475000X-0.250000X0.475000X0.250000X-0.475000X0.250000X-0.475000X-0.250000X0*%
%ADD32RoundRect,0.225000X0.250000X-0.225000X0.250000X0.225000X-0.250000X0.225000X-0.250000X-0.225000X0*%
%ADD33R,5.100000X5.100000*%
%ADD34R,2.400000X0.740000*%
%ADD35R,0.458000X1.510000*%
%ADD36R,1.500000X0.700000*%
%ADD37FreePoly0,0.000000*%
%ADD38R,1.200000X0.400000*%
%ADD39RoundRect,0.250000X0.362500X1.425000X-0.362500X1.425000X-0.362500X-1.425000X0.362500X-1.425000X0*%
%ADD40RoundRect,0.250000X-1.000000X-0.650000X1.000000X-0.650000X1.000000X0.650000X-1.000000X0.650000X0*%
%ADD41RoundRect,0.100000X-0.100000X0.712500X-0.100000X-0.712500X0.100000X-0.712500X0.100000X0.712500X0*%
%ADD42RoundRect,0.250000X-0.475000X0.250000X-0.475000X-0.250000X0.475000X-0.250000X0.475000X0.250000X0*%
%ADD43R,0.850000X1.100000*%
%ADD44R,0.750000X1.100000*%
%ADD45R,1.200000X1.000000*%
%ADD46R,1.550000X1.350000*%
%ADD47R,1.900000X1.350000*%
%ADD48R,1.170000X1.800000*%
%ADD49RoundRect,0.250000X-0.450000X-0.800000X0.450000X-0.800000X0.450000X0.800000X-0.450000X0.800000X0*%
%ADD50RoundRect,0.150000X0.150000X-0.512500X0.150000X0.512500X-0.150000X0.512500X-0.150000X-0.512500X0*%
%ADD51R,1.900000X0.800000*%
%ADD52R,0.800000X1.900000*%
%ADD53R,3.700000X3.700000*%
%ADD54RoundRect,0.250000X-0.250000X-0.475000X0.250000X-0.475000X0.250000X0.475000X-0.250000X0.475000X0*%
%ADD55RoundRect,0.218750X0.218750X0.256250X-0.218750X0.256250X-0.218750X-0.256250X0.218750X-0.256250X0*%
G04 APERTURE END LIST*
D10*
X106520000Y-89564000D02*
X105720000Y-89564000D01*
X105720000Y-89914000D01*
X104420000Y-89914000D01*
X104420000Y-87964000D01*
X106520000Y-87964000D01*
X106520000Y-89564000D01*
G36*
X106520000Y-89564000D02*
G01*
X105720000Y-89564000D01*
X105720000Y-89914000D01*
X104420000Y-89914000D01*
X104420000Y-87964000D01*
X106520000Y-87964000D01*
X106520000Y-89564000D01*
G37*
X75520000Y-89914000D02*
X74220000Y-89914000D01*
X74220000Y-89564000D01*
X73420000Y-89564000D01*
X73420000Y-87964000D01*
X75520000Y-87964000D01*
X75520000Y-89914000D01*
G36*
X75520000Y-89914000D02*
G01*
X74220000Y-89914000D01*
X74220000Y-89564000D01*
X73420000Y-89564000D01*
X73420000Y-87964000D01*
X75520000Y-87964000D01*
X75520000Y-89914000D01*
G37*
D11*
X73025000Y-66700000D03*
X73025000Y-60300000D03*
D12*
X74993000Y-142748000D03*
X73343000Y-142748000D03*
X100901000Y-129540000D03*
X99251000Y-129540000D03*
X149669000Y-32004000D03*
X148019000Y-32004000D03*
X71945000Y-29972000D03*
X70295000Y-29972000D03*
D13*
X101675000Y-170580000D03*
X100875000Y-170580000D03*
D14*
X99675000Y-170580000D03*
X98675000Y-170580000D03*
X98175000Y-170580000D03*
X97175000Y-170580000D03*
D13*
X95975000Y-170580000D03*
X95175000Y-170580000D03*
X95175000Y-170580000D03*
X95975000Y-170580000D03*
D14*
X96675000Y-170580000D03*
X97675000Y-170580000D03*
X99175000Y-170580000D03*
X100175000Y-170580000D03*
D13*
X100875000Y-170580000D03*
X101675000Y-170580000D03*
D15*
X74943000Y-166116000D03*
X73393000Y-166116000D03*
D12*
X149669000Y-130048000D03*
X148019000Y-130048000D03*
D16*
X119888000Y-166941000D03*
X119888000Y-165291000D03*
D12*
X137477000Y-117856000D03*
X135827000Y-117856000D03*
D17*
X131813000Y-24892000D03*
X133363000Y-24892000D03*
D18*
X79298800Y-37325800D03*
X79298800Y-38975800D03*
D12*
X56095400Y-46532800D03*
X54445400Y-46532800D03*
D15*
X87643000Y-152400000D03*
X86093000Y-152400000D03*
D12*
X93535000Y-138430000D03*
X91885000Y-138430000D03*
X97345000Y-138430000D03*
X95695000Y-138430000D03*
D19*
X66055600Y-113080800D03*
X61655600Y-113080800D03*
D12*
X74993000Y-169164000D03*
X73343000Y-169164000D03*
D15*
X66307000Y-36576000D03*
X64757000Y-36576000D03*
D12*
X124269000Y-130048000D03*
X122619000Y-130048000D03*
X133413000Y-23368000D03*
X131763000Y-23368000D03*
D20*
X103220000Y-87814000D03*
X102720000Y-87814000D03*
X102220000Y-87814000D03*
X101720000Y-87814000D03*
X101220000Y-87814000D03*
X100720000Y-87814000D03*
X100220000Y-87814000D03*
X99720000Y-87814000D03*
X99220000Y-87814000D03*
X98720000Y-87814000D03*
X98220000Y-87814000D03*
X97720000Y-87814000D03*
X97220000Y-87814000D03*
X96720000Y-87814000D03*
X96220000Y-87814000D03*
X95720000Y-87814000D03*
X95220000Y-87814000D03*
X94720000Y-87814000D03*
X94220000Y-87814000D03*
X93720000Y-87814000D03*
X93220000Y-87814000D03*
X92720000Y-87814000D03*
X92220000Y-87814000D03*
X91720000Y-87814000D03*
X91220000Y-87814000D03*
X90720000Y-87814000D03*
X90220000Y-87814000D03*
X89720000Y-87814000D03*
X89220000Y-87814000D03*
X88720000Y-87814000D03*
X88220000Y-87814000D03*
X87720000Y-87814000D03*
X87220000Y-87814000D03*
X86720000Y-87814000D03*
X86220000Y-87814000D03*
X85720000Y-87814000D03*
X85220000Y-87814000D03*
X84720000Y-87814000D03*
X84220000Y-87814000D03*
X83720000Y-87814000D03*
X83220000Y-87814000D03*
X82720000Y-87814000D03*
X82220000Y-87814000D03*
X81720000Y-87814000D03*
X81220000Y-87814000D03*
X80720000Y-87814000D03*
X80220000Y-87814000D03*
X79720000Y-87814000D03*
X79220000Y-87814000D03*
X78720000Y-87814000D03*
X78220000Y-87814000D03*
X77720000Y-87814000D03*
X77220000Y-87814000D03*
X76720000Y-87814000D03*
D21*
X117500000Y-146050000D03*
X111100000Y-146050000D03*
D22*
X115437500Y-154625000D03*
X115437500Y-155575000D03*
X115437500Y-156525000D03*
X113162500Y-156525000D03*
X113162500Y-155575000D03*
X113162500Y-154625000D03*
D19*
X93132000Y-162814000D03*
X88732000Y-162814000D03*
D23*
X107887000Y-155448000D03*
X109537000Y-155448000D03*
D24*
X113685600Y-173688400D03*
X113085600Y-173688400D03*
X113685600Y-174088400D03*
X113085600Y-174088400D03*
D25*
X112635600Y-172900900D03*
X113135600Y-172900900D03*
X113635600Y-172900900D03*
X114135600Y-172900900D03*
X114135600Y-174875900D03*
X113635600Y-174875900D03*
X113135600Y-174875900D03*
X112635600Y-174875900D03*
D16*
X106680000Y-172529000D03*
X106680000Y-170879000D03*
X149352000Y-149161000D03*
X149352000Y-147511000D03*
D23*
X148019000Y-62992000D03*
X149669000Y-62992000D03*
D26*
X84201000Y-123958000D03*
X85471000Y-123958000D03*
X86741000Y-123958000D03*
X88011000Y-123958000D03*
X89281000Y-123958000D03*
X90551000Y-123958000D03*
X91821000Y-123958000D03*
X93091000Y-123958000D03*
X93091000Y-131058000D03*
X91821000Y-131058000D03*
X90551000Y-131058000D03*
X89281000Y-131058000D03*
X88011000Y-131058000D03*
X86741000Y-131058000D03*
X85471000Y-131058000D03*
X84201000Y-131058000D03*
D23*
X148019000Y-30480000D03*
X149669000Y-30480000D03*
D27*
X97028000Y-76441000D03*
X97028000Y-77991000D03*
D23*
X107887000Y-160020000D03*
X109537000Y-160020000D03*
X99251000Y-128016000D03*
X100901000Y-128016000D03*
D12*
X93281000Y-166116000D03*
X91631000Y-166116000D03*
D28*
X67188400Y-94916000D03*
X66688400Y-94916000D03*
X66188400Y-94916000D03*
X65688400Y-94916000D03*
X65188400Y-94916000D03*
X64688400Y-94916000D03*
D29*
X68858400Y-96616000D03*
X63018400Y-96616000D03*
D23*
X102807000Y-166116000D03*
X104457000Y-166116000D03*
D30*
X114234000Y-163576000D03*
X112334000Y-163576000D03*
D12*
X71945000Y-23368000D03*
X70295000Y-23368000D03*
X87185000Y-138430000D03*
X85535000Y-138430000D03*
D23*
X131763000Y-21844000D03*
X133413000Y-21844000D03*
X99505000Y-133350000D03*
X101155000Y-133350000D03*
D31*
X48260000Y-113218000D03*
X48260000Y-111318000D03*
D12*
X87693000Y-155448000D03*
X86043000Y-155448000D03*
D32*
X145796000Y-149111000D03*
X145796000Y-147561000D03*
D33*
X139700000Y-104875000D03*
X139700000Y-79275000D03*
D12*
X137985000Y-142748000D03*
X136335000Y-142748000D03*
D17*
X61709000Y-40741600D03*
X63259000Y-40741600D03*
D15*
X56083200Y-141528800D03*
X54533200Y-141528800D03*
D23*
X129731000Y-168656000D03*
X131381000Y-168656000D03*
D32*
X67564000Y-28207000D03*
X67564000Y-26657000D03*
D23*
X54483200Y-143052800D03*
X56133200Y-143052800D03*
D34*
X125775000Y-45085000D03*
X121875000Y-45085000D03*
X125775000Y-46355000D03*
X121875000Y-46355000D03*
X125775000Y-47625000D03*
X121875000Y-47625000D03*
X125775000Y-48895000D03*
X121875000Y-48895000D03*
X125775000Y-50165000D03*
X121875000Y-50165000D03*
D22*
X124962500Y-167325000D03*
X124962500Y-168275000D03*
X124962500Y-169225000D03*
X122687500Y-169225000D03*
X122687500Y-167325000D03*
D15*
X146063000Y-61468000D03*
X144513000Y-61468000D03*
D12*
X149669000Y-61468000D03*
X148019000Y-61468000D03*
D15*
X137427000Y-114838000D03*
X135877000Y-114838000D03*
D35*
X88025000Y-60925000D03*
X88825000Y-60925000D03*
X89625000Y-60925000D03*
X90425000Y-60925000D03*
X91225000Y-60925000D03*
X92025000Y-60925000D03*
X92825000Y-60925000D03*
X93625000Y-60925000D03*
X94425000Y-60925000D03*
X95225000Y-60925000D03*
X96025000Y-60925000D03*
X96825000Y-60925000D03*
X97625000Y-60925000D03*
X98425000Y-60925000D03*
X99225000Y-60925000D03*
X100025000Y-60925000D03*
X100825000Y-60925000D03*
X101625000Y-60925000D03*
X102425000Y-60925000D03*
X103225000Y-60925000D03*
X104025000Y-60925000D03*
X104825000Y-60925000D03*
X105625000Y-60925000D03*
X106425000Y-60925000D03*
X107225000Y-60925000D03*
X108025000Y-60925000D03*
X108825000Y-60925000D03*
X108825000Y-72425000D03*
X108025000Y-72425000D03*
X107225000Y-72425000D03*
X106425000Y-72425000D03*
X105625000Y-72425000D03*
X104825000Y-72425000D03*
X104025000Y-72425000D03*
X103225000Y-72425000D03*
X102425000Y-72425000D03*
X101625000Y-72425000D03*
X100825000Y-72425000D03*
X100025000Y-72425000D03*
X99225000Y-72425000D03*
X98425000Y-72425000D03*
X97625000Y-72425000D03*
X96825000Y-72425000D03*
X96025000Y-72425000D03*
X95225000Y-72425000D03*
X94425000Y-72425000D03*
X93625000Y-72425000D03*
X92825000Y-72425000D03*
X92025000Y-72425000D03*
X91225000Y-72425000D03*
X90425000Y-72425000D03*
X89625000Y-72425000D03*
X88825000Y-72425000D03*
X88025000Y-72425000D03*
D23*
X136335000Y-141224000D03*
X137985000Y-141224000D03*
X86043000Y-153924000D03*
X87693000Y-153924000D03*
D12*
X109537000Y-162052000D03*
X107887000Y-162052000D03*
D31*
X143764000Y-149286000D03*
X143764000Y-147386000D03*
D36*
X52125000Y-112625000D03*
D37*
X53975000Y-111125000D03*
D36*
X52125000Y-109625000D03*
X55825000Y-109625000D03*
X55825000Y-112625000D03*
D38*
X70425000Y-40322500D03*
X70425000Y-39687500D03*
X70425000Y-39052500D03*
X70425000Y-38417500D03*
X70425000Y-37782500D03*
X70425000Y-37147500D03*
X70425000Y-36512500D03*
X70425000Y-35877500D03*
X75625000Y-35877500D03*
X75625000Y-36512500D03*
X75625000Y-37147500D03*
X75625000Y-37782500D03*
X75625000Y-38417500D03*
X75625000Y-39052500D03*
X75625000Y-39687500D03*
X75625000Y-40322500D03*
D23*
X73343000Y-141224000D03*
X74993000Y-141224000D03*
X49416200Y-176072800D03*
X51066200Y-176072800D03*
D12*
X83375000Y-138430000D03*
X81725000Y-138430000D03*
X56133200Y-144576800D03*
X54483200Y-144576800D03*
D23*
X122619000Y-128524000D03*
X124269000Y-128524000D03*
D17*
X58051400Y-40741600D03*
X59601400Y-40741600D03*
D15*
X74943000Y-139700000D03*
X73393000Y-139700000D03*
D12*
X48577000Y-109220000D03*
X46927000Y-109220000D03*
D39*
X56937500Y-104775000D03*
X51012500Y-104775000D03*
D40*
X81058000Y-163576000D03*
X85058000Y-163576000D03*
D32*
X87938000Y-56655000D03*
X87938000Y-55105000D03*
D41*
X58969000Y-44267900D03*
X59619000Y-44267900D03*
X60269000Y-44267900D03*
X60919000Y-44267900D03*
X60919000Y-48492900D03*
X60269000Y-48492900D03*
X59619000Y-48492900D03*
X58969000Y-48492900D03*
D32*
X90424000Y-56655000D03*
X90424000Y-55105000D03*
D42*
X104648000Y-146878000D03*
X104648000Y-148778000D03*
D12*
X80835000Y-133350000D03*
X79185000Y-133350000D03*
D32*
X98552000Y-56655000D03*
X98552000Y-55105000D03*
D15*
X146063000Y-32004000D03*
X144513000Y-32004000D03*
D19*
X125136000Y-175260000D03*
X120736000Y-175260000D03*
D18*
X61264800Y-36767000D03*
X61264800Y-38417000D03*
D43*
X120580000Y-23125000D03*
X119480000Y-23125000D03*
X118380000Y-23125000D03*
X117280000Y-23125000D03*
X116180000Y-23125000D03*
X115080000Y-23125000D03*
X113980000Y-23125000D03*
D44*
X112930000Y-23125000D03*
D45*
X123215000Y-29275000D03*
X123215000Y-32975000D03*
D46*
X123040000Y-23250000D03*
D47*
X119715000Y-33950000D03*
X113745000Y-33950000D03*
D48*
X111720000Y-23475000D03*
D27*
X91948000Y-76441000D03*
X91948000Y-77991000D03*
D16*
X140208000Y-149161000D03*
X140208000Y-147511000D03*
D49*
X120736000Y-161544000D03*
X125136000Y-161544000D03*
D15*
X115075000Y-152400000D03*
X113525000Y-152400000D03*
D23*
X148019000Y-128524000D03*
X149669000Y-128524000D03*
D50*
X99375000Y-163062500D03*
X98425000Y-163062500D03*
X97475000Y-163062500D03*
X97475000Y-160787500D03*
X98425000Y-160787500D03*
X99375000Y-160787500D03*
D15*
X100851000Y-126492000D03*
X99301000Y-126492000D03*
D17*
X107937000Y-157988000D03*
X109487000Y-157988000D03*
D21*
X50775000Y-120650000D03*
X57175000Y-120650000D03*
D23*
X73343000Y-167640000D03*
X74993000Y-167640000D03*
D30*
X63840400Y-109880400D03*
X61940400Y-109880400D03*
D15*
X149619000Y-127000000D03*
X148069000Y-127000000D03*
D27*
X67564000Y-23101000D03*
X67564000Y-24651000D03*
D51*
X150240000Y-156910000D03*
X150240000Y-157926000D03*
X150240000Y-158942000D03*
X150240000Y-159958000D03*
X150240000Y-164022000D03*
X150240000Y-166054000D03*
X150240000Y-167070000D03*
X150240000Y-168086000D03*
X150240000Y-169102000D03*
X135510000Y-167064000D03*
X135510000Y-166048000D03*
X135510000Y-165032000D03*
X135510000Y-164016000D03*
X135510000Y-163000000D03*
X135510000Y-161984000D03*
X135510000Y-160968000D03*
X135510000Y-159952000D03*
X135510000Y-158936000D03*
X135510000Y-157920000D03*
D52*
X137410000Y-154240000D03*
X140458000Y-154240000D03*
X141474000Y-154240000D03*
X142490000Y-154240000D03*
X143506000Y-154240000D03*
X144522000Y-154240000D03*
X145538000Y-154240000D03*
X146554000Y-154240000D03*
X147570000Y-154240000D03*
D53*
X142390000Y-160510000D03*
D30*
X60843200Y-52273200D03*
X58943200Y-52273200D03*
D15*
X124219000Y-127000000D03*
X122669000Y-127000000D03*
D32*
X108712000Y-56655000D03*
X108712000Y-55105000D03*
D30*
X60843200Y-54559200D03*
X58943200Y-54559200D03*
D54*
X122875000Y-171704000D03*
X124775000Y-171704000D03*
D18*
X58369200Y-36817800D03*
X58369200Y-38467800D03*
D32*
X141732000Y-149111000D03*
X141732000Y-147561000D03*
D30*
X115250000Y-159004000D03*
X113350000Y-159004000D03*
D42*
X107188000Y-146878000D03*
X107188000Y-148778000D03*
D15*
X137935000Y-139700000D03*
X136385000Y-139700000D03*
D17*
X117538200Y-168452800D03*
X119088200Y-168452800D03*
D32*
X94488000Y-56655000D03*
X94488000Y-55105000D03*
D23*
X135827000Y-116332000D03*
X137477000Y-116332000D03*
D55*
X108991500Y-174752000D03*
X107416500Y-174752000D03*
M02*
