%TF.GenerationSoftware,KiCad,Pcbnew,7.0.1*%
%TF.CreationDate,2024-01-20T14:02:39+00:00*%
%TF.ProjectId,gk,676b2e6b-6963-4616-945f-706362585858,rev?*%
%TF.SameCoordinates,Original*%
%TF.FileFunction,Drillmap*%
%TF.FilePolarity,Positive*%
%FSLAX45Y45*%
G04 Gerber Fmt 4.5, Leading zero omitted, Abs format (unit mm)*
G04 Created by KiCad (PCBNEW 7.0.1) date 2024-01-20 14:02:39*
%MOMM*%
%LPD*%
G01*
G04 APERTURE LIST*
%ADD10C,0.100000*%
%ADD11C,0.200000*%
%ADD12C,0.065000*%
%ADD13C,0.320000*%
G04 APERTURE END LIST*
D10*
X6426200Y-11557000D02*
G75*
G03*
X6426200Y-12065000I0J-254000D01*
G01*
X7620000Y-11557000D02*
G75*
G03*
X7620000Y-12065000I0J-254000D01*
G01*
X10363200Y-11557000D02*
X7620000Y-11557000D01*
X6426200Y-11557000D02*
X6756400Y-11557000D01*
X4445000Y-1905000D02*
X15240000Y-1905000D01*
X15240000Y-17780000D01*
X4445000Y-17780000D01*
X4445000Y-1905000D01*
X7620000Y-12065000D02*
X10363200Y-12065000D01*
X6426200Y-12065000D02*
X6756400Y-12065000D01*
X6756400Y-12065000D02*
G75*
G03*
X6756400Y-11557000I0J254000D01*
G01*
X10363200Y-12065000D02*
G75*
G03*
X10363200Y-11557000I0J254000D01*
G01*
D11*
D12*
X9521000Y-17170000D02*
X9586000Y-17235000D01*
X9586000Y-17170000D02*
X9521000Y-17235000D01*
X10099000Y-17170000D02*
X10164000Y-17235000D01*
X10164000Y-17170000D02*
X10099000Y-17235000D01*
D13*
X5240000Y-4127500D02*
G75*
G03*
X5240000Y-4127500I-160000J0D01*
G01*
X6764000Y-15494000D02*
G75*
G03*
X6764000Y-15494000I-160000J0D01*
G01*
X13114000Y-12954000D02*
G75*
G03*
X13114000Y-12954000I-160000J0D01*
G01*
X13812500Y-3175000D02*
G75*
G03*
X13812500Y-3175000I-160000J0D01*
G01*
D11*
X4687619Y-18097524D02*
X4687619Y-17897524D01*
X4687619Y-17897524D02*
X4735238Y-17897524D01*
X4735238Y-17897524D02*
X4763810Y-17907048D01*
X4763810Y-17907048D02*
X4782857Y-17926095D01*
X4782857Y-17926095D02*
X4792381Y-17945143D01*
X4792381Y-17945143D02*
X4801905Y-17983238D01*
X4801905Y-17983238D02*
X4801905Y-18011810D01*
X4801905Y-18011810D02*
X4792381Y-18049905D01*
X4792381Y-18049905D02*
X4782857Y-18068952D01*
X4782857Y-18068952D02*
X4763810Y-18088000D01*
X4763810Y-18088000D02*
X4735238Y-18097524D01*
X4735238Y-18097524D02*
X4687619Y-18097524D01*
X4887619Y-18097524D02*
X4887619Y-17964190D01*
X4887619Y-18002286D02*
X4897143Y-17983238D01*
X4897143Y-17983238D02*
X4906667Y-17973714D01*
X4906667Y-17973714D02*
X4925714Y-17964190D01*
X4925714Y-17964190D02*
X4944762Y-17964190D01*
X5011429Y-18097524D02*
X5011429Y-17964190D01*
X5011429Y-17897524D02*
X5001905Y-17907048D01*
X5001905Y-17907048D02*
X5011429Y-17916571D01*
X5011429Y-17916571D02*
X5020952Y-17907048D01*
X5020952Y-17907048D02*
X5011429Y-17897524D01*
X5011429Y-17897524D02*
X5011429Y-17916571D01*
X5135238Y-18097524D02*
X5116190Y-18088000D01*
X5116190Y-18088000D02*
X5106667Y-18068952D01*
X5106667Y-18068952D02*
X5106667Y-17897524D01*
X5240000Y-18097524D02*
X5220952Y-18088000D01*
X5220952Y-18088000D02*
X5211429Y-18068952D01*
X5211429Y-18068952D02*
X5211429Y-17897524D01*
X5468571Y-18097524D02*
X5468571Y-17897524D01*
X5468571Y-17897524D02*
X5535238Y-18040381D01*
X5535238Y-18040381D02*
X5601905Y-17897524D01*
X5601905Y-17897524D02*
X5601905Y-18097524D01*
X5782857Y-18097524D02*
X5782857Y-17992762D01*
X5782857Y-17992762D02*
X5773333Y-17973714D01*
X5773333Y-17973714D02*
X5754286Y-17964190D01*
X5754286Y-17964190D02*
X5716190Y-17964190D01*
X5716190Y-17964190D02*
X5697143Y-17973714D01*
X5782857Y-18088000D02*
X5763809Y-18097524D01*
X5763809Y-18097524D02*
X5716190Y-18097524D01*
X5716190Y-18097524D02*
X5697143Y-18088000D01*
X5697143Y-18088000D02*
X5687619Y-18068952D01*
X5687619Y-18068952D02*
X5687619Y-18049905D01*
X5687619Y-18049905D02*
X5697143Y-18030857D01*
X5697143Y-18030857D02*
X5716190Y-18021333D01*
X5716190Y-18021333D02*
X5763809Y-18021333D01*
X5763809Y-18021333D02*
X5782857Y-18011810D01*
X5878095Y-17964190D02*
X5878095Y-18164190D01*
X5878095Y-17973714D02*
X5897143Y-17964190D01*
X5897143Y-17964190D02*
X5935238Y-17964190D01*
X5935238Y-17964190D02*
X5954286Y-17973714D01*
X5954286Y-17973714D02*
X5963809Y-17983238D01*
X5963809Y-17983238D02*
X5973333Y-18002286D01*
X5973333Y-18002286D02*
X5973333Y-18059429D01*
X5973333Y-18059429D02*
X5963809Y-18078476D01*
X5963809Y-18078476D02*
X5954286Y-18088000D01*
X5954286Y-18088000D02*
X5935238Y-18097524D01*
X5935238Y-18097524D02*
X5897143Y-18097524D01*
X5897143Y-18097524D02*
X5878095Y-18088000D01*
X6059048Y-18078476D02*
X6068571Y-18088000D01*
X6068571Y-18088000D02*
X6059048Y-18097524D01*
X6059048Y-18097524D02*
X6049524Y-18088000D01*
X6049524Y-18088000D02*
X6059048Y-18078476D01*
X6059048Y-18078476D02*
X6059048Y-18097524D01*
X6059048Y-17973714D02*
X6068571Y-17983238D01*
X6068571Y-17983238D02*
X6059048Y-17992762D01*
X6059048Y-17992762D02*
X6049524Y-17983238D01*
X6049524Y-17983238D02*
X6059048Y-17973714D01*
X6059048Y-17973714D02*
X6059048Y-17992762D01*
D12*
X4375000Y-18392500D02*
X4440000Y-18457500D01*
X4440000Y-18392500D02*
X4375000Y-18457500D01*
D11*
X4725714Y-18317524D02*
X4744762Y-18317524D01*
X4744762Y-18317524D02*
X4763810Y-18327048D01*
X4763810Y-18327048D02*
X4773333Y-18336571D01*
X4773333Y-18336571D02*
X4782857Y-18355619D01*
X4782857Y-18355619D02*
X4792381Y-18393714D01*
X4792381Y-18393714D02*
X4792381Y-18441333D01*
X4792381Y-18441333D02*
X4782857Y-18479429D01*
X4782857Y-18479429D02*
X4773333Y-18498476D01*
X4773333Y-18498476D02*
X4763810Y-18508000D01*
X4763810Y-18508000D02*
X4744762Y-18517524D01*
X4744762Y-18517524D02*
X4725714Y-18517524D01*
X4725714Y-18517524D02*
X4706667Y-18508000D01*
X4706667Y-18508000D02*
X4697143Y-18498476D01*
X4697143Y-18498476D02*
X4687619Y-18479429D01*
X4687619Y-18479429D02*
X4678095Y-18441333D01*
X4678095Y-18441333D02*
X4678095Y-18393714D01*
X4678095Y-18393714D02*
X4687619Y-18355619D01*
X4687619Y-18355619D02*
X4697143Y-18336571D01*
X4697143Y-18336571D02*
X4706667Y-18327048D01*
X4706667Y-18327048D02*
X4725714Y-18317524D01*
X4878095Y-18498476D02*
X4887619Y-18508000D01*
X4887619Y-18508000D02*
X4878095Y-18517524D01*
X4878095Y-18517524D02*
X4868571Y-18508000D01*
X4868571Y-18508000D02*
X4878095Y-18498476D01*
X4878095Y-18498476D02*
X4878095Y-18517524D01*
X5059048Y-18317524D02*
X5020952Y-18317524D01*
X5020952Y-18317524D02*
X5001905Y-18327048D01*
X5001905Y-18327048D02*
X4992381Y-18336571D01*
X4992381Y-18336571D02*
X4973333Y-18365143D01*
X4973333Y-18365143D02*
X4963810Y-18403238D01*
X4963810Y-18403238D02*
X4963810Y-18479429D01*
X4963810Y-18479429D02*
X4973333Y-18498476D01*
X4973333Y-18498476D02*
X4982857Y-18508000D01*
X4982857Y-18508000D02*
X5001905Y-18517524D01*
X5001905Y-18517524D02*
X5040000Y-18517524D01*
X5040000Y-18517524D02*
X5059048Y-18508000D01*
X5059048Y-18508000D02*
X5068571Y-18498476D01*
X5068571Y-18498476D02*
X5078095Y-18479429D01*
X5078095Y-18479429D02*
X5078095Y-18431810D01*
X5078095Y-18431810D02*
X5068571Y-18412762D01*
X5068571Y-18412762D02*
X5059048Y-18403238D01*
X5059048Y-18403238D02*
X5040000Y-18393714D01*
X5040000Y-18393714D02*
X5001905Y-18393714D01*
X5001905Y-18393714D02*
X4982857Y-18403238D01*
X4982857Y-18403238D02*
X4973333Y-18412762D01*
X4973333Y-18412762D02*
X4963810Y-18431810D01*
X5259048Y-18317524D02*
X5163810Y-18317524D01*
X5163810Y-18317524D02*
X5154286Y-18412762D01*
X5154286Y-18412762D02*
X5163810Y-18403238D01*
X5163810Y-18403238D02*
X5182857Y-18393714D01*
X5182857Y-18393714D02*
X5230476Y-18393714D01*
X5230476Y-18393714D02*
X5249524Y-18403238D01*
X5249524Y-18403238D02*
X5259048Y-18412762D01*
X5259048Y-18412762D02*
X5268571Y-18431810D01*
X5268571Y-18431810D02*
X5268571Y-18479429D01*
X5268571Y-18479429D02*
X5259048Y-18498476D01*
X5259048Y-18498476D02*
X5249524Y-18508000D01*
X5249524Y-18508000D02*
X5230476Y-18517524D01*
X5230476Y-18517524D02*
X5182857Y-18517524D01*
X5182857Y-18517524D02*
X5163810Y-18508000D01*
X5163810Y-18508000D02*
X5154286Y-18498476D01*
X5392381Y-18317524D02*
X5411429Y-18317524D01*
X5411429Y-18317524D02*
X5430476Y-18327048D01*
X5430476Y-18327048D02*
X5440000Y-18336571D01*
X5440000Y-18336571D02*
X5449524Y-18355619D01*
X5449524Y-18355619D02*
X5459048Y-18393714D01*
X5459048Y-18393714D02*
X5459048Y-18441333D01*
X5459048Y-18441333D02*
X5449524Y-18479429D01*
X5449524Y-18479429D02*
X5440000Y-18498476D01*
X5440000Y-18498476D02*
X5430476Y-18508000D01*
X5430476Y-18508000D02*
X5411429Y-18517524D01*
X5411429Y-18517524D02*
X5392381Y-18517524D01*
X5392381Y-18517524D02*
X5373333Y-18508000D01*
X5373333Y-18508000D02*
X5363810Y-18498476D01*
X5363810Y-18498476D02*
X5354286Y-18479429D01*
X5354286Y-18479429D02*
X5344762Y-18441333D01*
X5344762Y-18441333D02*
X5344762Y-18393714D01*
X5344762Y-18393714D02*
X5354286Y-18355619D01*
X5354286Y-18355619D02*
X5363810Y-18336571D01*
X5363810Y-18336571D02*
X5373333Y-18327048D01*
X5373333Y-18327048D02*
X5392381Y-18317524D01*
X5544762Y-18517524D02*
X5544762Y-18384190D01*
X5544762Y-18403238D02*
X5554286Y-18393714D01*
X5554286Y-18393714D02*
X5573333Y-18384190D01*
X5573333Y-18384190D02*
X5601905Y-18384190D01*
X5601905Y-18384190D02*
X5620952Y-18393714D01*
X5620952Y-18393714D02*
X5630476Y-18412762D01*
X5630476Y-18412762D02*
X5630476Y-18517524D01*
X5630476Y-18412762D02*
X5640000Y-18393714D01*
X5640000Y-18393714D02*
X5659048Y-18384190D01*
X5659048Y-18384190D02*
X5687619Y-18384190D01*
X5687619Y-18384190D02*
X5706667Y-18393714D01*
X5706667Y-18393714D02*
X5716190Y-18412762D01*
X5716190Y-18412762D02*
X5716190Y-18517524D01*
X5811429Y-18517524D02*
X5811429Y-18384190D01*
X5811429Y-18403238D02*
X5820952Y-18393714D01*
X5820952Y-18393714D02*
X5840000Y-18384190D01*
X5840000Y-18384190D02*
X5868571Y-18384190D01*
X5868571Y-18384190D02*
X5887619Y-18393714D01*
X5887619Y-18393714D02*
X5897143Y-18412762D01*
X5897143Y-18412762D02*
X5897143Y-18517524D01*
X5897143Y-18412762D02*
X5906667Y-18393714D01*
X5906667Y-18393714D02*
X5925714Y-18384190D01*
X5925714Y-18384190D02*
X5954286Y-18384190D01*
X5954286Y-18384190D02*
X5973333Y-18393714D01*
X5973333Y-18393714D02*
X5982857Y-18412762D01*
X5982857Y-18412762D02*
X5982857Y-18517524D01*
X6373333Y-18308000D02*
X6201905Y-18565143D01*
X6630476Y-18317524D02*
X6649524Y-18317524D01*
X6649524Y-18317524D02*
X6668572Y-18327048D01*
X6668572Y-18327048D02*
X6678095Y-18336571D01*
X6678095Y-18336571D02*
X6687619Y-18355619D01*
X6687619Y-18355619D02*
X6697143Y-18393714D01*
X6697143Y-18393714D02*
X6697143Y-18441333D01*
X6697143Y-18441333D02*
X6687619Y-18479429D01*
X6687619Y-18479429D02*
X6678095Y-18498476D01*
X6678095Y-18498476D02*
X6668572Y-18508000D01*
X6668572Y-18508000D02*
X6649524Y-18517524D01*
X6649524Y-18517524D02*
X6630476Y-18517524D01*
X6630476Y-18517524D02*
X6611429Y-18508000D01*
X6611429Y-18508000D02*
X6601905Y-18498476D01*
X6601905Y-18498476D02*
X6592381Y-18479429D01*
X6592381Y-18479429D02*
X6582857Y-18441333D01*
X6582857Y-18441333D02*
X6582857Y-18393714D01*
X6582857Y-18393714D02*
X6592381Y-18355619D01*
X6592381Y-18355619D02*
X6601905Y-18336571D01*
X6601905Y-18336571D02*
X6611429Y-18327048D01*
X6611429Y-18327048D02*
X6630476Y-18317524D01*
X6782857Y-18498476D02*
X6792381Y-18508000D01*
X6792381Y-18508000D02*
X6782857Y-18517524D01*
X6782857Y-18517524D02*
X6773333Y-18508000D01*
X6773333Y-18508000D02*
X6782857Y-18498476D01*
X6782857Y-18498476D02*
X6782857Y-18517524D01*
X6916191Y-18317524D02*
X6935238Y-18317524D01*
X6935238Y-18317524D02*
X6954286Y-18327048D01*
X6954286Y-18327048D02*
X6963810Y-18336571D01*
X6963810Y-18336571D02*
X6973333Y-18355619D01*
X6973333Y-18355619D02*
X6982857Y-18393714D01*
X6982857Y-18393714D02*
X6982857Y-18441333D01*
X6982857Y-18441333D02*
X6973333Y-18479429D01*
X6973333Y-18479429D02*
X6963810Y-18498476D01*
X6963810Y-18498476D02*
X6954286Y-18508000D01*
X6954286Y-18508000D02*
X6935238Y-18517524D01*
X6935238Y-18517524D02*
X6916191Y-18517524D01*
X6916191Y-18517524D02*
X6897143Y-18508000D01*
X6897143Y-18508000D02*
X6887619Y-18498476D01*
X6887619Y-18498476D02*
X6878095Y-18479429D01*
X6878095Y-18479429D02*
X6868572Y-18441333D01*
X6868572Y-18441333D02*
X6868572Y-18393714D01*
X6868572Y-18393714D02*
X6878095Y-18355619D01*
X6878095Y-18355619D02*
X6887619Y-18336571D01*
X6887619Y-18336571D02*
X6897143Y-18327048D01*
X6897143Y-18327048D02*
X6916191Y-18317524D01*
X7059048Y-18336571D02*
X7068572Y-18327048D01*
X7068572Y-18327048D02*
X7087619Y-18317524D01*
X7087619Y-18317524D02*
X7135238Y-18317524D01*
X7135238Y-18317524D02*
X7154286Y-18327048D01*
X7154286Y-18327048D02*
X7163810Y-18336571D01*
X7163810Y-18336571D02*
X7173333Y-18355619D01*
X7173333Y-18355619D02*
X7173333Y-18374667D01*
X7173333Y-18374667D02*
X7163810Y-18403238D01*
X7163810Y-18403238D02*
X7049524Y-18517524D01*
X7049524Y-18517524D02*
X7173333Y-18517524D01*
X7354286Y-18317524D02*
X7259048Y-18317524D01*
X7259048Y-18317524D02*
X7249524Y-18412762D01*
X7249524Y-18412762D02*
X7259048Y-18403238D01*
X7259048Y-18403238D02*
X7278095Y-18393714D01*
X7278095Y-18393714D02*
X7325714Y-18393714D01*
X7325714Y-18393714D02*
X7344762Y-18403238D01*
X7344762Y-18403238D02*
X7354286Y-18412762D01*
X7354286Y-18412762D02*
X7363810Y-18431810D01*
X7363810Y-18431810D02*
X7363810Y-18479429D01*
X7363810Y-18479429D02*
X7354286Y-18498476D01*
X7354286Y-18498476D02*
X7344762Y-18508000D01*
X7344762Y-18508000D02*
X7325714Y-18517524D01*
X7325714Y-18517524D02*
X7278095Y-18517524D01*
X7278095Y-18517524D02*
X7259048Y-18508000D01*
X7259048Y-18508000D02*
X7249524Y-18498476D01*
X7535238Y-18317524D02*
X7497143Y-18317524D01*
X7497143Y-18317524D02*
X7478095Y-18327048D01*
X7478095Y-18327048D02*
X7468572Y-18336571D01*
X7468572Y-18336571D02*
X7449524Y-18365143D01*
X7449524Y-18365143D02*
X7440000Y-18403238D01*
X7440000Y-18403238D02*
X7440000Y-18479429D01*
X7440000Y-18479429D02*
X7449524Y-18498476D01*
X7449524Y-18498476D02*
X7459048Y-18508000D01*
X7459048Y-18508000D02*
X7478095Y-18517524D01*
X7478095Y-18517524D02*
X7516191Y-18517524D01*
X7516191Y-18517524D02*
X7535238Y-18508000D01*
X7535238Y-18508000D02*
X7544762Y-18498476D01*
X7544762Y-18498476D02*
X7554286Y-18479429D01*
X7554286Y-18479429D02*
X7554286Y-18431810D01*
X7554286Y-18431810D02*
X7544762Y-18412762D01*
X7544762Y-18412762D02*
X7535238Y-18403238D01*
X7535238Y-18403238D02*
X7516191Y-18393714D01*
X7516191Y-18393714D02*
X7478095Y-18393714D01*
X7478095Y-18393714D02*
X7459048Y-18403238D01*
X7459048Y-18403238D02*
X7449524Y-18412762D01*
X7449524Y-18412762D02*
X7440000Y-18431810D01*
X7630476Y-18317524D02*
X7630476Y-18355619D01*
X7706667Y-18317524D02*
X7706667Y-18355619D01*
X8001905Y-18593714D02*
X7992381Y-18584190D01*
X7992381Y-18584190D02*
X7973334Y-18555619D01*
X7973334Y-18555619D02*
X7963810Y-18536571D01*
X7963810Y-18536571D02*
X7954286Y-18508000D01*
X7954286Y-18508000D02*
X7944762Y-18460381D01*
X7944762Y-18460381D02*
X7944762Y-18422286D01*
X7944762Y-18422286D02*
X7954286Y-18374667D01*
X7954286Y-18374667D02*
X7963810Y-18346095D01*
X7963810Y-18346095D02*
X7973334Y-18327048D01*
X7973334Y-18327048D02*
X7992381Y-18298476D01*
X7992381Y-18298476D02*
X8001905Y-18288952D01*
X8068572Y-18336571D02*
X8078095Y-18327048D01*
X8078095Y-18327048D02*
X8097143Y-18317524D01*
X8097143Y-18317524D02*
X8144762Y-18317524D01*
X8144762Y-18317524D02*
X8163810Y-18327048D01*
X8163810Y-18327048D02*
X8173334Y-18336571D01*
X8173334Y-18336571D02*
X8182857Y-18355619D01*
X8182857Y-18355619D02*
X8182857Y-18374667D01*
X8182857Y-18374667D02*
X8173334Y-18403238D01*
X8173334Y-18403238D02*
X8059048Y-18517524D01*
X8059048Y-18517524D02*
X8182857Y-18517524D01*
X8420953Y-18517524D02*
X8420953Y-18317524D01*
X8506667Y-18517524D02*
X8506667Y-18412762D01*
X8506667Y-18412762D02*
X8497143Y-18393714D01*
X8497143Y-18393714D02*
X8478096Y-18384190D01*
X8478096Y-18384190D02*
X8449524Y-18384190D01*
X8449524Y-18384190D02*
X8430477Y-18393714D01*
X8430477Y-18393714D02*
X8420953Y-18403238D01*
X8630477Y-18517524D02*
X8611429Y-18508000D01*
X8611429Y-18508000D02*
X8601905Y-18498476D01*
X8601905Y-18498476D02*
X8592381Y-18479429D01*
X8592381Y-18479429D02*
X8592381Y-18422286D01*
X8592381Y-18422286D02*
X8601905Y-18403238D01*
X8601905Y-18403238D02*
X8611429Y-18393714D01*
X8611429Y-18393714D02*
X8630477Y-18384190D01*
X8630477Y-18384190D02*
X8659048Y-18384190D01*
X8659048Y-18384190D02*
X8678096Y-18393714D01*
X8678096Y-18393714D02*
X8687619Y-18403238D01*
X8687619Y-18403238D02*
X8697143Y-18422286D01*
X8697143Y-18422286D02*
X8697143Y-18479429D01*
X8697143Y-18479429D02*
X8687619Y-18498476D01*
X8687619Y-18498476D02*
X8678096Y-18508000D01*
X8678096Y-18508000D02*
X8659048Y-18517524D01*
X8659048Y-18517524D02*
X8630477Y-18517524D01*
X8811429Y-18517524D02*
X8792381Y-18508000D01*
X8792381Y-18508000D02*
X8782858Y-18488952D01*
X8782858Y-18488952D02*
X8782858Y-18317524D01*
X8963810Y-18508000D02*
X8944762Y-18517524D01*
X8944762Y-18517524D02*
X8906667Y-18517524D01*
X8906667Y-18517524D02*
X8887619Y-18508000D01*
X8887619Y-18508000D02*
X8878096Y-18488952D01*
X8878096Y-18488952D02*
X8878096Y-18412762D01*
X8878096Y-18412762D02*
X8887619Y-18393714D01*
X8887619Y-18393714D02*
X8906667Y-18384190D01*
X8906667Y-18384190D02*
X8944762Y-18384190D01*
X8944762Y-18384190D02*
X8963810Y-18393714D01*
X8963810Y-18393714D02*
X8973334Y-18412762D01*
X8973334Y-18412762D02*
X8973334Y-18431810D01*
X8973334Y-18431810D02*
X8878096Y-18450857D01*
X9049524Y-18508000D02*
X9068572Y-18517524D01*
X9068572Y-18517524D02*
X9106667Y-18517524D01*
X9106667Y-18517524D02*
X9125715Y-18508000D01*
X9125715Y-18508000D02*
X9135239Y-18488952D01*
X9135239Y-18488952D02*
X9135239Y-18479429D01*
X9135239Y-18479429D02*
X9125715Y-18460381D01*
X9125715Y-18460381D02*
X9106667Y-18450857D01*
X9106667Y-18450857D02*
X9078096Y-18450857D01*
X9078096Y-18450857D02*
X9059048Y-18441333D01*
X9059048Y-18441333D02*
X9049524Y-18422286D01*
X9049524Y-18422286D02*
X9049524Y-18412762D01*
X9049524Y-18412762D02*
X9059048Y-18393714D01*
X9059048Y-18393714D02*
X9078096Y-18384190D01*
X9078096Y-18384190D02*
X9106667Y-18384190D01*
X9106667Y-18384190D02*
X9125715Y-18393714D01*
X9201905Y-18593714D02*
X9211429Y-18584190D01*
X9211429Y-18584190D02*
X9230477Y-18555619D01*
X9230477Y-18555619D02*
X9240000Y-18536571D01*
X9240000Y-18536571D02*
X9249524Y-18508000D01*
X9249524Y-18508000D02*
X9259048Y-18460381D01*
X9259048Y-18460381D02*
X9259048Y-18422286D01*
X9259048Y-18422286D02*
X9249524Y-18374667D01*
X9249524Y-18374667D02*
X9240000Y-18346095D01*
X9240000Y-18346095D02*
X9230477Y-18327048D01*
X9230477Y-18327048D02*
X9211429Y-18298476D01*
X9211429Y-18298476D02*
X9201905Y-18288952D01*
X9563810Y-18593714D02*
X9554286Y-18584190D01*
X9554286Y-18584190D02*
X9535239Y-18555619D01*
X9535239Y-18555619D02*
X9525715Y-18536571D01*
X9525715Y-18536571D02*
X9516191Y-18508000D01*
X9516191Y-18508000D02*
X9506667Y-18460381D01*
X9506667Y-18460381D02*
X9506667Y-18422286D01*
X9506667Y-18422286D02*
X9516191Y-18374667D01*
X9516191Y-18374667D02*
X9525715Y-18346095D01*
X9525715Y-18346095D02*
X9535239Y-18327048D01*
X9535239Y-18327048D02*
X9554286Y-18298476D01*
X9554286Y-18298476D02*
X9563810Y-18288952D01*
X9640000Y-18384190D02*
X9640000Y-18517524D01*
X9640000Y-18403238D02*
X9649524Y-18393714D01*
X9649524Y-18393714D02*
X9668572Y-18384190D01*
X9668572Y-18384190D02*
X9697143Y-18384190D01*
X9697143Y-18384190D02*
X9716191Y-18393714D01*
X9716191Y-18393714D02*
X9725715Y-18412762D01*
X9725715Y-18412762D02*
X9725715Y-18517524D01*
X9849524Y-18517524D02*
X9830477Y-18508000D01*
X9830477Y-18508000D02*
X9820953Y-18498476D01*
X9820953Y-18498476D02*
X9811429Y-18479429D01*
X9811429Y-18479429D02*
X9811429Y-18422286D01*
X9811429Y-18422286D02*
X9820953Y-18403238D01*
X9820953Y-18403238D02*
X9830477Y-18393714D01*
X9830477Y-18393714D02*
X9849524Y-18384190D01*
X9849524Y-18384190D02*
X9878096Y-18384190D01*
X9878096Y-18384190D02*
X9897143Y-18393714D01*
X9897143Y-18393714D02*
X9906667Y-18403238D01*
X9906667Y-18403238D02*
X9916191Y-18422286D01*
X9916191Y-18422286D02*
X9916191Y-18479429D01*
X9916191Y-18479429D02*
X9906667Y-18498476D01*
X9906667Y-18498476D02*
X9897143Y-18508000D01*
X9897143Y-18508000D02*
X9878096Y-18517524D01*
X9878096Y-18517524D02*
X9849524Y-18517524D01*
X9973334Y-18384190D02*
X10049524Y-18384190D01*
X10001905Y-18317524D02*
X10001905Y-18488952D01*
X10001905Y-18488952D02*
X10011429Y-18508000D01*
X10011429Y-18508000D02*
X10030477Y-18517524D01*
X10030477Y-18517524D02*
X10049524Y-18517524D01*
X10268572Y-18384190D02*
X10268572Y-18584190D01*
X10268572Y-18393714D02*
X10287620Y-18384190D01*
X10287620Y-18384190D02*
X10325715Y-18384190D01*
X10325715Y-18384190D02*
X10344762Y-18393714D01*
X10344762Y-18393714D02*
X10354286Y-18403238D01*
X10354286Y-18403238D02*
X10363810Y-18422286D01*
X10363810Y-18422286D02*
X10363810Y-18479429D01*
X10363810Y-18479429D02*
X10354286Y-18498476D01*
X10354286Y-18498476D02*
X10344762Y-18508000D01*
X10344762Y-18508000D02*
X10325715Y-18517524D01*
X10325715Y-18517524D02*
X10287620Y-18517524D01*
X10287620Y-18517524D02*
X10268572Y-18508000D01*
X10478096Y-18517524D02*
X10459048Y-18508000D01*
X10459048Y-18508000D02*
X10449524Y-18488952D01*
X10449524Y-18488952D02*
X10449524Y-18317524D01*
X10640001Y-18517524D02*
X10640001Y-18412762D01*
X10640001Y-18412762D02*
X10630477Y-18393714D01*
X10630477Y-18393714D02*
X10611429Y-18384190D01*
X10611429Y-18384190D02*
X10573334Y-18384190D01*
X10573334Y-18384190D02*
X10554286Y-18393714D01*
X10640001Y-18508000D02*
X10620953Y-18517524D01*
X10620953Y-18517524D02*
X10573334Y-18517524D01*
X10573334Y-18517524D02*
X10554286Y-18508000D01*
X10554286Y-18508000D02*
X10544762Y-18488952D01*
X10544762Y-18488952D02*
X10544762Y-18469905D01*
X10544762Y-18469905D02*
X10554286Y-18450857D01*
X10554286Y-18450857D02*
X10573334Y-18441333D01*
X10573334Y-18441333D02*
X10620953Y-18441333D01*
X10620953Y-18441333D02*
X10640001Y-18431810D01*
X10706667Y-18384190D02*
X10782858Y-18384190D01*
X10735239Y-18317524D02*
X10735239Y-18488952D01*
X10735239Y-18488952D02*
X10744762Y-18508000D01*
X10744762Y-18508000D02*
X10763810Y-18517524D01*
X10763810Y-18517524D02*
X10782858Y-18517524D01*
X10925715Y-18508000D02*
X10906667Y-18517524D01*
X10906667Y-18517524D02*
X10868572Y-18517524D01*
X10868572Y-18517524D02*
X10849524Y-18508000D01*
X10849524Y-18508000D02*
X10840001Y-18488952D01*
X10840001Y-18488952D02*
X10840001Y-18412762D01*
X10840001Y-18412762D02*
X10849524Y-18393714D01*
X10849524Y-18393714D02*
X10868572Y-18384190D01*
X10868572Y-18384190D02*
X10906667Y-18384190D01*
X10906667Y-18384190D02*
X10925715Y-18393714D01*
X10925715Y-18393714D02*
X10935239Y-18412762D01*
X10935239Y-18412762D02*
X10935239Y-18431810D01*
X10935239Y-18431810D02*
X10840001Y-18450857D01*
X11106667Y-18517524D02*
X11106667Y-18317524D01*
X11106667Y-18508000D02*
X11087620Y-18517524D01*
X11087620Y-18517524D02*
X11049524Y-18517524D01*
X11049524Y-18517524D02*
X11030477Y-18508000D01*
X11030477Y-18508000D02*
X11020953Y-18498476D01*
X11020953Y-18498476D02*
X11011429Y-18479429D01*
X11011429Y-18479429D02*
X11011429Y-18422286D01*
X11011429Y-18422286D02*
X11020953Y-18403238D01*
X11020953Y-18403238D02*
X11030477Y-18393714D01*
X11030477Y-18393714D02*
X11049524Y-18384190D01*
X11049524Y-18384190D02*
X11087620Y-18384190D01*
X11087620Y-18384190D02*
X11106667Y-18393714D01*
X11182858Y-18593714D02*
X11192381Y-18584190D01*
X11192381Y-18584190D02*
X11211429Y-18555619D01*
X11211429Y-18555619D02*
X11220953Y-18536571D01*
X11220953Y-18536571D02*
X11230477Y-18508000D01*
X11230477Y-18508000D02*
X11240000Y-18460381D01*
X11240000Y-18460381D02*
X11240000Y-18422286D01*
X11240000Y-18422286D02*
X11230477Y-18374667D01*
X11230477Y-18374667D02*
X11220953Y-18346095D01*
X11220953Y-18346095D02*
X11211429Y-18327048D01*
X11211429Y-18327048D02*
X11192381Y-18298476D01*
X11192381Y-18298476D02*
X11182858Y-18288952D01*
X4440000Y-18689000D02*
G75*
G03*
X4440000Y-18689000I-100000J0D01*
G01*
X4668571Y-18581524D02*
X4792381Y-18581524D01*
X4792381Y-18581524D02*
X4725714Y-18657714D01*
X4725714Y-18657714D02*
X4754286Y-18657714D01*
X4754286Y-18657714D02*
X4773333Y-18667238D01*
X4773333Y-18667238D02*
X4782857Y-18676762D01*
X4782857Y-18676762D02*
X4792381Y-18695810D01*
X4792381Y-18695810D02*
X4792381Y-18743429D01*
X4792381Y-18743429D02*
X4782857Y-18762476D01*
X4782857Y-18762476D02*
X4773333Y-18772000D01*
X4773333Y-18772000D02*
X4754286Y-18781524D01*
X4754286Y-18781524D02*
X4697143Y-18781524D01*
X4697143Y-18781524D02*
X4678095Y-18772000D01*
X4678095Y-18772000D02*
X4668571Y-18762476D01*
X4878095Y-18762476D02*
X4887619Y-18772000D01*
X4887619Y-18772000D02*
X4878095Y-18781524D01*
X4878095Y-18781524D02*
X4868571Y-18772000D01*
X4868571Y-18772000D02*
X4878095Y-18762476D01*
X4878095Y-18762476D02*
X4878095Y-18781524D01*
X4963810Y-18600571D02*
X4973333Y-18591048D01*
X4973333Y-18591048D02*
X4992381Y-18581524D01*
X4992381Y-18581524D02*
X5040000Y-18581524D01*
X5040000Y-18581524D02*
X5059048Y-18591048D01*
X5059048Y-18591048D02*
X5068571Y-18600571D01*
X5068571Y-18600571D02*
X5078095Y-18619619D01*
X5078095Y-18619619D02*
X5078095Y-18638667D01*
X5078095Y-18638667D02*
X5068571Y-18667238D01*
X5068571Y-18667238D02*
X4954286Y-18781524D01*
X4954286Y-18781524D02*
X5078095Y-18781524D01*
X5201905Y-18581524D02*
X5220952Y-18581524D01*
X5220952Y-18581524D02*
X5240000Y-18591048D01*
X5240000Y-18591048D02*
X5249524Y-18600571D01*
X5249524Y-18600571D02*
X5259048Y-18619619D01*
X5259048Y-18619619D02*
X5268571Y-18657714D01*
X5268571Y-18657714D02*
X5268571Y-18705333D01*
X5268571Y-18705333D02*
X5259048Y-18743429D01*
X5259048Y-18743429D02*
X5249524Y-18762476D01*
X5249524Y-18762476D02*
X5240000Y-18772000D01*
X5240000Y-18772000D02*
X5220952Y-18781524D01*
X5220952Y-18781524D02*
X5201905Y-18781524D01*
X5201905Y-18781524D02*
X5182857Y-18772000D01*
X5182857Y-18772000D02*
X5173333Y-18762476D01*
X5173333Y-18762476D02*
X5163810Y-18743429D01*
X5163810Y-18743429D02*
X5154286Y-18705333D01*
X5154286Y-18705333D02*
X5154286Y-18657714D01*
X5154286Y-18657714D02*
X5163810Y-18619619D01*
X5163810Y-18619619D02*
X5173333Y-18600571D01*
X5173333Y-18600571D02*
X5182857Y-18591048D01*
X5182857Y-18591048D02*
X5201905Y-18581524D01*
X5392381Y-18581524D02*
X5411429Y-18581524D01*
X5411429Y-18581524D02*
X5430476Y-18591048D01*
X5430476Y-18591048D02*
X5440000Y-18600571D01*
X5440000Y-18600571D02*
X5449524Y-18619619D01*
X5449524Y-18619619D02*
X5459048Y-18657714D01*
X5459048Y-18657714D02*
X5459048Y-18705333D01*
X5459048Y-18705333D02*
X5449524Y-18743429D01*
X5449524Y-18743429D02*
X5440000Y-18762476D01*
X5440000Y-18762476D02*
X5430476Y-18772000D01*
X5430476Y-18772000D02*
X5411429Y-18781524D01*
X5411429Y-18781524D02*
X5392381Y-18781524D01*
X5392381Y-18781524D02*
X5373333Y-18772000D01*
X5373333Y-18772000D02*
X5363810Y-18762476D01*
X5363810Y-18762476D02*
X5354286Y-18743429D01*
X5354286Y-18743429D02*
X5344762Y-18705333D01*
X5344762Y-18705333D02*
X5344762Y-18657714D01*
X5344762Y-18657714D02*
X5354286Y-18619619D01*
X5354286Y-18619619D02*
X5363810Y-18600571D01*
X5363810Y-18600571D02*
X5373333Y-18591048D01*
X5373333Y-18591048D02*
X5392381Y-18581524D01*
X5544762Y-18781524D02*
X5544762Y-18648190D01*
X5544762Y-18667238D02*
X5554286Y-18657714D01*
X5554286Y-18657714D02*
X5573333Y-18648190D01*
X5573333Y-18648190D02*
X5601905Y-18648190D01*
X5601905Y-18648190D02*
X5620952Y-18657714D01*
X5620952Y-18657714D02*
X5630476Y-18676762D01*
X5630476Y-18676762D02*
X5630476Y-18781524D01*
X5630476Y-18676762D02*
X5640000Y-18657714D01*
X5640000Y-18657714D02*
X5659048Y-18648190D01*
X5659048Y-18648190D02*
X5687619Y-18648190D01*
X5687619Y-18648190D02*
X5706667Y-18657714D01*
X5706667Y-18657714D02*
X5716190Y-18676762D01*
X5716190Y-18676762D02*
X5716190Y-18781524D01*
X5811429Y-18781524D02*
X5811429Y-18648190D01*
X5811429Y-18667238D02*
X5820952Y-18657714D01*
X5820952Y-18657714D02*
X5840000Y-18648190D01*
X5840000Y-18648190D02*
X5868571Y-18648190D01*
X5868571Y-18648190D02*
X5887619Y-18657714D01*
X5887619Y-18657714D02*
X5897143Y-18676762D01*
X5897143Y-18676762D02*
X5897143Y-18781524D01*
X5897143Y-18676762D02*
X5906667Y-18657714D01*
X5906667Y-18657714D02*
X5925714Y-18648190D01*
X5925714Y-18648190D02*
X5954286Y-18648190D01*
X5954286Y-18648190D02*
X5973333Y-18657714D01*
X5973333Y-18657714D02*
X5982857Y-18676762D01*
X5982857Y-18676762D02*
X5982857Y-18781524D01*
X6373333Y-18572000D02*
X6201905Y-18829143D01*
X6630476Y-18581524D02*
X6649524Y-18581524D01*
X6649524Y-18581524D02*
X6668572Y-18591048D01*
X6668572Y-18591048D02*
X6678095Y-18600571D01*
X6678095Y-18600571D02*
X6687619Y-18619619D01*
X6687619Y-18619619D02*
X6697143Y-18657714D01*
X6697143Y-18657714D02*
X6697143Y-18705333D01*
X6697143Y-18705333D02*
X6687619Y-18743429D01*
X6687619Y-18743429D02*
X6678095Y-18762476D01*
X6678095Y-18762476D02*
X6668572Y-18772000D01*
X6668572Y-18772000D02*
X6649524Y-18781524D01*
X6649524Y-18781524D02*
X6630476Y-18781524D01*
X6630476Y-18781524D02*
X6611429Y-18772000D01*
X6611429Y-18772000D02*
X6601905Y-18762476D01*
X6601905Y-18762476D02*
X6592381Y-18743429D01*
X6592381Y-18743429D02*
X6582857Y-18705333D01*
X6582857Y-18705333D02*
X6582857Y-18657714D01*
X6582857Y-18657714D02*
X6592381Y-18619619D01*
X6592381Y-18619619D02*
X6601905Y-18600571D01*
X6601905Y-18600571D02*
X6611429Y-18591048D01*
X6611429Y-18591048D02*
X6630476Y-18581524D01*
X6782857Y-18762476D02*
X6792381Y-18772000D01*
X6792381Y-18772000D02*
X6782857Y-18781524D01*
X6782857Y-18781524D02*
X6773333Y-18772000D01*
X6773333Y-18772000D02*
X6782857Y-18762476D01*
X6782857Y-18762476D02*
X6782857Y-18781524D01*
X6982857Y-18781524D02*
X6868572Y-18781524D01*
X6925714Y-18781524D02*
X6925714Y-18581524D01*
X6925714Y-18581524D02*
X6906667Y-18610095D01*
X6906667Y-18610095D02*
X6887619Y-18629143D01*
X6887619Y-18629143D02*
X6868572Y-18638667D01*
X7059048Y-18600571D02*
X7068572Y-18591048D01*
X7068572Y-18591048D02*
X7087619Y-18581524D01*
X7087619Y-18581524D02*
X7135238Y-18581524D01*
X7135238Y-18581524D02*
X7154286Y-18591048D01*
X7154286Y-18591048D02*
X7163810Y-18600571D01*
X7163810Y-18600571D02*
X7173333Y-18619619D01*
X7173333Y-18619619D02*
X7173333Y-18638667D01*
X7173333Y-18638667D02*
X7163810Y-18667238D01*
X7163810Y-18667238D02*
X7049524Y-18781524D01*
X7049524Y-18781524D02*
X7173333Y-18781524D01*
X7344762Y-18581524D02*
X7306667Y-18581524D01*
X7306667Y-18581524D02*
X7287619Y-18591048D01*
X7287619Y-18591048D02*
X7278095Y-18600571D01*
X7278095Y-18600571D02*
X7259048Y-18629143D01*
X7259048Y-18629143D02*
X7249524Y-18667238D01*
X7249524Y-18667238D02*
X7249524Y-18743429D01*
X7249524Y-18743429D02*
X7259048Y-18762476D01*
X7259048Y-18762476D02*
X7268572Y-18772000D01*
X7268572Y-18772000D02*
X7287619Y-18781524D01*
X7287619Y-18781524D02*
X7325714Y-18781524D01*
X7325714Y-18781524D02*
X7344762Y-18772000D01*
X7344762Y-18772000D02*
X7354286Y-18762476D01*
X7354286Y-18762476D02*
X7363810Y-18743429D01*
X7363810Y-18743429D02*
X7363810Y-18695810D01*
X7363810Y-18695810D02*
X7354286Y-18676762D01*
X7354286Y-18676762D02*
X7344762Y-18667238D01*
X7344762Y-18667238D02*
X7325714Y-18657714D01*
X7325714Y-18657714D02*
X7287619Y-18657714D01*
X7287619Y-18657714D02*
X7268572Y-18667238D01*
X7268572Y-18667238D02*
X7259048Y-18676762D01*
X7259048Y-18676762D02*
X7249524Y-18695810D01*
X7487619Y-18581524D02*
X7506667Y-18581524D01*
X7506667Y-18581524D02*
X7525714Y-18591048D01*
X7525714Y-18591048D02*
X7535238Y-18600571D01*
X7535238Y-18600571D02*
X7544762Y-18619619D01*
X7544762Y-18619619D02*
X7554286Y-18657714D01*
X7554286Y-18657714D02*
X7554286Y-18705333D01*
X7554286Y-18705333D02*
X7544762Y-18743429D01*
X7544762Y-18743429D02*
X7535238Y-18762476D01*
X7535238Y-18762476D02*
X7525714Y-18772000D01*
X7525714Y-18772000D02*
X7506667Y-18781524D01*
X7506667Y-18781524D02*
X7487619Y-18781524D01*
X7487619Y-18781524D02*
X7468572Y-18772000D01*
X7468572Y-18772000D02*
X7459048Y-18762476D01*
X7459048Y-18762476D02*
X7449524Y-18743429D01*
X7449524Y-18743429D02*
X7440000Y-18705333D01*
X7440000Y-18705333D02*
X7440000Y-18657714D01*
X7440000Y-18657714D02*
X7449524Y-18619619D01*
X7449524Y-18619619D02*
X7459048Y-18600571D01*
X7459048Y-18600571D02*
X7468572Y-18591048D01*
X7468572Y-18591048D02*
X7487619Y-18581524D01*
X7630476Y-18581524D02*
X7630476Y-18619619D01*
X7706667Y-18581524D02*
X7706667Y-18619619D01*
X8001905Y-18857714D02*
X7992381Y-18848190D01*
X7992381Y-18848190D02*
X7973334Y-18819619D01*
X7973334Y-18819619D02*
X7963810Y-18800571D01*
X7963810Y-18800571D02*
X7954286Y-18772000D01*
X7954286Y-18772000D02*
X7944762Y-18724381D01*
X7944762Y-18724381D02*
X7944762Y-18686286D01*
X7944762Y-18686286D02*
X7954286Y-18638667D01*
X7954286Y-18638667D02*
X7963810Y-18610095D01*
X7963810Y-18610095D02*
X7973334Y-18591048D01*
X7973334Y-18591048D02*
X7992381Y-18562476D01*
X7992381Y-18562476D02*
X8001905Y-18552952D01*
X8163810Y-18648190D02*
X8163810Y-18781524D01*
X8116191Y-18572000D02*
X8068572Y-18714857D01*
X8068572Y-18714857D02*
X8192381Y-18714857D01*
X8420953Y-18781524D02*
X8420953Y-18581524D01*
X8506667Y-18781524D02*
X8506667Y-18676762D01*
X8506667Y-18676762D02*
X8497143Y-18657714D01*
X8497143Y-18657714D02*
X8478096Y-18648190D01*
X8478096Y-18648190D02*
X8449524Y-18648190D01*
X8449524Y-18648190D02*
X8430477Y-18657714D01*
X8430477Y-18657714D02*
X8420953Y-18667238D01*
X8630477Y-18781524D02*
X8611429Y-18772000D01*
X8611429Y-18772000D02*
X8601905Y-18762476D01*
X8601905Y-18762476D02*
X8592381Y-18743429D01*
X8592381Y-18743429D02*
X8592381Y-18686286D01*
X8592381Y-18686286D02*
X8601905Y-18667238D01*
X8601905Y-18667238D02*
X8611429Y-18657714D01*
X8611429Y-18657714D02*
X8630477Y-18648190D01*
X8630477Y-18648190D02*
X8659048Y-18648190D01*
X8659048Y-18648190D02*
X8678096Y-18657714D01*
X8678096Y-18657714D02*
X8687619Y-18667238D01*
X8687619Y-18667238D02*
X8697143Y-18686286D01*
X8697143Y-18686286D02*
X8697143Y-18743429D01*
X8697143Y-18743429D02*
X8687619Y-18762476D01*
X8687619Y-18762476D02*
X8678096Y-18772000D01*
X8678096Y-18772000D02*
X8659048Y-18781524D01*
X8659048Y-18781524D02*
X8630477Y-18781524D01*
X8811429Y-18781524D02*
X8792381Y-18772000D01*
X8792381Y-18772000D02*
X8782858Y-18752952D01*
X8782858Y-18752952D02*
X8782858Y-18581524D01*
X8963810Y-18772000D02*
X8944762Y-18781524D01*
X8944762Y-18781524D02*
X8906667Y-18781524D01*
X8906667Y-18781524D02*
X8887619Y-18772000D01*
X8887619Y-18772000D02*
X8878096Y-18752952D01*
X8878096Y-18752952D02*
X8878096Y-18676762D01*
X8878096Y-18676762D02*
X8887619Y-18657714D01*
X8887619Y-18657714D02*
X8906667Y-18648190D01*
X8906667Y-18648190D02*
X8944762Y-18648190D01*
X8944762Y-18648190D02*
X8963810Y-18657714D01*
X8963810Y-18657714D02*
X8973334Y-18676762D01*
X8973334Y-18676762D02*
X8973334Y-18695810D01*
X8973334Y-18695810D02*
X8878096Y-18714857D01*
X9049524Y-18772000D02*
X9068572Y-18781524D01*
X9068572Y-18781524D02*
X9106667Y-18781524D01*
X9106667Y-18781524D02*
X9125715Y-18772000D01*
X9125715Y-18772000D02*
X9135239Y-18752952D01*
X9135239Y-18752952D02*
X9135239Y-18743429D01*
X9135239Y-18743429D02*
X9125715Y-18724381D01*
X9125715Y-18724381D02*
X9106667Y-18714857D01*
X9106667Y-18714857D02*
X9078096Y-18714857D01*
X9078096Y-18714857D02*
X9059048Y-18705333D01*
X9059048Y-18705333D02*
X9049524Y-18686286D01*
X9049524Y-18686286D02*
X9049524Y-18676762D01*
X9049524Y-18676762D02*
X9059048Y-18657714D01*
X9059048Y-18657714D02*
X9078096Y-18648190D01*
X9078096Y-18648190D02*
X9106667Y-18648190D01*
X9106667Y-18648190D02*
X9125715Y-18657714D01*
X9201905Y-18857714D02*
X9211429Y-18848190D01*
X9211429Y-18848190D02*
X9230477Y-18819619D01*
X9230477Y-18819619D02*
X9240000Y-18800571D01*
X9240000Y-18800571D02*
X9249524Y-18772000D01*
X9249524Y-18772000D02*
X9259048Y-18724381D01*
X9259048Y-18724381D02*
X9259048Y-18686286D01*
X9259048Y-18686286D02*
X9249524Y-18638667D01*
X9249524Y-18638667D02*
X9240000Y-18610095D01*
X9240000Y-18610095D02*
X9230477Y-18591048D01*
X9230477Y-18591048D02*
X9211429Y-18562476D01*
X9211429Y-18562476D02*
X9201905Y-18552952D01*
X9563810Y-18857714D02*
X9554286Y-18848190D01*
X9554286Y-18848190D02*
X9535239Y-18819619D01*
X9535239Y-18819619D02*
X9525715Y-18800571D01*
X9525715Y-18800571D02*
X9516191Y-18772000D01*
X9516191Y-18772000D02*
X9506667Y-18724381D01*
X9506667Y-18724381D02*
X9506667Y-18686286D01*
X9506667Y-18686286D02*
X9516191Y-18638667D01*
X9516191Y-18638667D02*
X9525715Y-18610095D01*
X9525715Y-18610095D02*
X9535239Y-18591048D01*
X9535239Y-18591048D02*
X9554286Y-18562476D01*
X9554286Y-18562476D02*
X9563810Y-18552952D01*
X9640000Y-18648190D02*
X9640000Y-18781524D01*
X9640000Y-18667238D02*
X9649524Y-18657714D01*
X9649524Y-18657714D02*
X9668572Y-18648190D01*
X9668572Y-18648190D02*
X9697143Y-18648190D01*
X9697143Y-18648190D02*
X9716191Y-18657714D01*
X9716191Y-18657714D02*
X9725715Y-18676762D01*
X9725715Y-18676762D02*
X9725715Y-18781524D01*
X9849524Y-18781524D02*
X9830477Y-18772000D01*
X9830477Y-18772000D02*
X9820953Y-18762476D01*
X9820953Y-18762476D02*
X9811429Y-18743429D01*
X9811429Y-18743429D02*
X9811429Y-18686286D01*
X9811429Y-18686286D02*
X9820953Y-18667238D01*
X9820953Y-18667238D02*
X9830477Y-18657714D01*
X9830477Y-18657714D02*
X9849524Y-18648190D01*
X9849524Y-18648190D02*
X9878096Y-18648190D01*
X9878096Y-18648190D02*
X9897143Y-18657714D01*
X9897143Y-18657714D02*
X9906667Y-18667238D01*
X9906667Y-18667238D02*
X9916191Y-18686286D01*
X9916191Y-18686286D02*
X9916191Y-18743429D01*
X9916191Y-18743429D02*
X9906667Y-18762476D01*
X9906667Y-18762476D02*
X9897143Y-18772000D01*
X9897143Y-18772000D02*
X9878096Y-18781524D01*
X9878096Y-18781524D02*
X9849524Y-18781524D01*
X9973334Y-18648190D02*
X10049524Y-18648190D01*
X10001905Y-18581524D02*
X10001905Y-18752952D01*
X10001905Y-18752952D02*
X10011429Y-18772000D01*
X10011429Y-18772000D02*
X10030477Y-18781524D01*
X10030477Y-18781524D02*
X10049524Y-18781524D01*
X10268572Y-18648190D02*
X10268572Y-18848190D01*
X10268572Y-18657714D02*
X10287620Y-18648190D01*
X10287620Y-18648190D02*
X10325715Y-18648190D01*
X10325715Y-18648190D02*
X10344762Y-18657714D01*
X10344762Y-18657714D02*
X10354286Y-18667238D01*
X10354286Y-18667238D02*
X10363810Y-18686286D01*
X10363810Y-18686286D02*
X10363810Y-18743429D01*
X10363810Y-18743429D02*
X10354286Y-18762476D01*
X10354286Y-18762476D02*
X10344762Y-18772000D01*
X10344762Y-18772000D02*
X10325715Y-18781524D01*
X10325715Y-18781524D02*
X10287620Y-18781524D01*
X10287620Y-18781524D02*
X10268572Y-18772000D01*
X10478096Y-18781524D02*
X10459048Y-18772000D01*
X10459048Y-18772000D02*
X10449524Y-18752952D01*
X10449524Y-18752952D02*
X10449524Y-18581524D01*
X10640001Y-18781524D02*
X10640001Y-18676762D01*
X10640001Y-18676762D02*
X10630477Y-18657714D01*
X10630477Y-18657714D02*
X10611429Y-18648190D01*
X10611429Y-18648190D02*
X10573334Y-18648190D01*
X10573334Y-18648190D02*
X10554286Y-18657714D01*
X10640001Y-18772000D02*
X10620953Y-18781524D01*
X10620953Y-18781524D02*
X10573334Y-18781524D01*
X10573334Y-18781524D02*
X10554286Y-18772000D01*
X10554286Y-18772000D02*
X10544762Y-18752952D01*
X10544762Y-18752952D02*
X10544762Y-18733905D01*
X10544762Y-18733905D02*
X10554286Y-18714857D01*
X10554286Y-18714857D02*
X10573334Y-18705333D01*
X10573334Y-18705333D02*
X10620953Y-18705333D01*
X10620953Y-18705333D02*
X10640001Y-18695810D01*
X10706667Y-18648190D02*
X10782858Y-18648190D01*
X10735239Y-18581524D02*
X10735239Y-18752952D01*
X10735239Y-18752952D02*
X10744762Y-18772000D01*
X10744762Y-18772000D02*
X10763810Y-18781524D01*
X10763810Y-18781524D02*
X10782858Y-18781524D01*
X10925715Y-18772000D02*
X10906667Y-18781524D01*
X10906667Y-18781524D02*
X10868572Y-18781524D01*
X10868572Y-18781524D02*
X10849524Y-18772000D01*
X10849524Y-18772000D02*
X10840001Y-18752952D01*
X10840001Y-18752952D02*
X10840001Y-18676762D01*
X10840001Y-18676762D02*
X10849524Y-18657714D01*
X10849524Y-18657714D02*
X10868572Y-18648190D01*
X10868572Y-18648190D02*
X10906667Y-18648190D01*
X10906667Y-18648190D02*
X10925715Y-18657714D01*
X10925715Y-18657714D02*
X10935239Y-18676762D01*
X10935239Y-18676762D02*
X10935239Y-18695810D01*
X10935239Y-18695810D02*
X10840001Y-18714857D01*
X11106667Y-18781524D02*
X11106667Y-18581524D01*
X11106667Y-18772000D02*
X11087620Y-18781524D01*
X11087620Y-18781524D02*
X11049524Y-18781524D01*
X11049524Y-18781524D02*
X11030477Y-18772000D01*
X11030477Y-18772000D02*
X11020953Y-18762476D01*
X11020953Y-18762476D02*
X11011429Y-18743429D01*
X11011429Y-18743429D02*
X11011429Y-18686286D01*
X11011429Y-18686286D02*
X11020953Y-18667238D01*
X11020953Y-18667238D02*
X11030477Y-18657714D01*
X11030477Y-18657714D02*
X11049524Y-18648190D01*
X11049524Y-18648190D02*
X11087620Y-18648190D01*
X11087620Y-18648190D02*
X11106667Y-18657714D01*
X11182858Y-18857714D02*
X11192381Y-18848190D01*
X11192381Y-18848190D02*
X11211429Y-18819619D01*
X11211429Y-18819619D02*
X11220953Y-18800571D01*
X11220953Y-18800571D02*
X11230477Y-18772000D01*
X11230477Y-18772000D02*
X11240000Y-18724381D01*
X11240000Y-18724381D02*
X11240000Y-18686286D01*
X11240000Y-18686286D02*
X11230477Y-18638667D01*
X11230477Y-18638667D02*
X11220953Y-18610095D01*
X11220953Y-18610095D02*
X11211429Y-18591048D01*
X11211429Y-18591048D02*
X11192381Y-18562476D01*
X11192381Y-18562476D02*
X11182858Y-18552952D01*
M02*
