G04 #@! TF.GenerationSoftware,KiCad,Pcbnew,8.0.4*
G04 #@! TF.CreationDate,2025-01-08T21:39:51+00:00*
G04 #@! TF.ProjectId,gk-pcbv3,676b2d70-6362-4763-932e-6b696361645f,rev?*
G04 #@! TF.SameCoordinates,Original*
G04 #@! TF.FileFunction,Paste,Bot*
G04 #@! TF.FilePolarity,Positive*
%FSLAX46Y46*%
G04 Gerber Fmt 4.6, Leading zero omitted, Abs format (unit mm)*
G04 Created by KiCad (PCBNEW 8.0.4) date 2025-01-08 21:39:51*
%MOMM*%
%LPD*%
G01*
G04 APERTURE LIST*
G04 Aperture macros list*
%AMRoundRect*
0 Rectangle with rounded corners*
0 $1 Rounding radius*
0 $2 $3 $4 $5 $6 $7 $8 $9 X,Y pos of 4 corners*
0 Add a 4 corners polygon primitive as box body*
4,1,4,$2,$3,$4,$5,$6,$7,$8,$9,$2,$3,0*
0 Add four circle primitives for the rounded corners*
1,1,$1+$1,$2,$3*
1,1,$1+$1,$4,$5*
1,1,$1+$1,$6,$7*
1,1,$1+$1,$8,$9*
0 Add four rect primitives between the rounded corners*
20,1,$1+$1,$2,$3,$4,$5,0*
20,1,$1+$1,$4,$5,$6,$7,0*
20,1,$1+$1,$6,$7,$8,$9,0*
20,1,$1+$1,$8,$9,$2,$3,0*%
%AMFreePoly0*
4,1,13,0.900000,0.500000,2.600000,0.500000,2.600000,-0.500000,0.900000,-0.500000,0.400000,-1.000000,-0.400000,-1.000000,-0.900000,-0.500000,-2.600000,-0.500000,-2.600000,0.500000,-0.900000,0.500000,-0.400000,1.000000,0.400000,1.000000,0.900000,0.500000,0.900000,0.500000,$1*%
G04 Aperture macros list end*
%ADD10C,0.000000*%
%ADD11C,3.200000*%
%ADD12RoundRect,0.157500X0.157500X0.222500X-0.157500X0.222500X-0.157500X-0.222500X0.157500X-0.222500X0*%
%ADD13RoundRect,0.075000X0.550000X0.075000X-0.550000X0.075000X-0.550000X-0.075000X0.550000X-0.075000X0*%
%ADD14RoundRect,0.150000X-0.150000X-0.150000X0.150000X-0.150000X0.150000X0.150000X-0.150000X0.150000X0*%
%ADD15RoundRect,0.047500X-0.360000X-0.047500X0.360000X-0.047500X0.360000X0.047500X-0.360000X0.047500X0*%
%ADD16RoundRect,0.047500X-0.047500X-0.360000X0.047500X-0.360000X0.047500X0.360000X-0.047500X0.360000X0*%
%ADD17RoundRect,0.200000X0.200000X0.275000X-0.200000X0.275000X-0.200000X-0.275000X0.200000X-0.275000X0*%
%ADD18RoundRect,0.250000X-0.250000X-0.475000X0.250000X-0.475000X0.250000X0.475000X-0.250000X0.475000X0*%
%ADD19RoundRect,0.225000X0.225000X0.250000X-0.225000X0.250000X-0.225000X-0.250000X0.225000X-0.250000X0*%
%ADD20RoundRect,0.200000X-0.200000X-0.275000X0.200000X-0.275000X0.200000X0.275000X-0.200000X0.275000X0*%
%ADD21RoundRect,0.225000X0.250000X-0.225000X0.250000X0.225000X-0.250000X0.225000X-0.250000X-0.225000X0*%
%ADD22RoundRect,0.218750X0.218750X0.256250X-0.218750X0.256250X-0.218750X-0.256250X0.218750X-0.256250X0*%
%ADD23RoundRect,0.250000X0.450000X0.800000X-0.450000X0.800000X-0.450000X-0.800000X0.450000X-0.800000X0*%
%ADD24RoundRect,0.200000X0.275000X-0.200000X0.275000X0.200000X-0.275000X0.200000X-0.275000X-0.200000X0*%
%ADD25R,0.432000X1.044000*%
%ADD26R,0.216000X1.044000*%
%ADD27RoundRect,0.225000X-0.225000X-0.250000X0.225000X-0.250000X0.225000X0.250000X-0.225000X0.250000X0*%
%ADD28RoundRect,0.200000X-0.275000X0.200000X-0.275000X-0.200000X0.275000X-0.200000X0.275000X0.200000X0*%
%ADD29RoundRect,0.250000X0.475000X-0.250000X0.475000X0.250000X-0.475000X0.250000X-0.475000X-0.250000X0*%
%ADD30RoundRect,0.225000X-0.250000X0.225000X-0.250000X-0.225000X0.250000X-0.225000X0.250000X0.225000X0*%
%ADD31RoundRect,0.250000X0.362500X1.425000X-0.362500X1.425000X-0.362500X-1.425000X0.362500X-1.425000X0*%
%ADD32C,0.350000*%
%ADD33RoundRect,0.070000X-0.150000X0.070000X-0.150000X-0.070000X0.150000X-0.070000X0.150000X0.070000X0*%
%ADD34RoundRect,0.045000X-0.045000X0.234000X-0.045000X-0.234000X0.045000X-0.234000X0.045000X0.234000X0*%
%ADD35RoundRect,0.250000X-0.475000X0.250000X-0.475000X-0.250000X0.475000X-0.250000X0.475000X0.250000X0*%
%ADD36RoundRect,0.150000X0.150000X-0.825000X0.150000X0.825000X-0.150000X0.825000X-0.150000X-0.825000X0*%
%ADD37R,1.150000X1.400000*%
%ADD38R,0.980000X3.400000*%
%ADD39R,5.100000X5.100000*%
%ADD40RoundRect,0.218750X-0.218750X-0.256250X0.218750X-0.256250X0.218750X0.256250X-0.218750X0.256250X0*%
%ADD41RoundRect,0.150000X0.587500X0.150000X-0.587500X0.150000X-0.587500X-0.150000X0.587500X-0.150000X0*%
%ADD42R,0.585216X0.182880*%
%ADD43R,0.585216X0.180000*%
%ADD44R,0.182880X0.585216*%
%ADD45R,3.352800X3.352800*%
%ADD46R,1.400000X1.150000*%
%ADD47RoundRect,0.150000X-0.512500X-0.150000X0.512500X-0.150000X0.512500X0.150000X-0.512500X0.150000X0*%
%ADD48RoundRect,0.100000X0.225000X0.100000X-0.225000X0.100000X-0.225000X-0.100000X0.225000X-0.100000X0*%
%ADD49R,3.400000X0.980000*%
%ADD50R,2.400000X0.740000*%
%ADD51R,1.207008X0.256032*%
%ADD52R,6.500000X2.200000*%
%ADD53R,1.879600X0.812800*%
%ADD54R,0.812800X1.879600*%
%ADD55R,4.394200X4.394200*%
%ADD56R,1.200000X0.400000*%
%ADD57RoundRect,0.175000X-0.175000X0.575000X-0.175000X-0.575000X0.175000X-0.575000X0.175000X0.575000X0*%
%ADD58FreePoly0,270.000000*%
%ADD59RoundRect,0.150000X-0.150000X0.587500X-0.150000X-0.587500X0.150000X-0.587500X0.150000X0.587500X0*%
%ADD60RoundRect,0.087500X0.225000X0.087500X-0.225000X0.087500X-0.225000X-0.087500X0.225000X-0.087500X0*%
%ADD61RoundRect,0.087500X0.087500X0.225000X-0.087500X0.225000X-0.087500X-0.225000X0.087500X-0.225000X0*%
%ADD62RoundRect,0.150000X0.512500X0.150000X-0.512500X0.150000X-0.512500X-0.150000X0.512500X-0.150000X0*%
%ADD63RoundRect,0.150000X-0.150000X0.512500X-0.150000X-0.512500X0.150000X-0.512500X0.150000X0.512500X0*%
%ADD64RoundRect,0.250000X0.250000X0.475000X-0.250000X0.475000X-0.250000X-0.475000X0.250000X-0.475000X0*%
%ADD65RoundRect,0.100000X-0.100000X0.712500X-0.100000X-0.712500X0.100000X-0.712500X0.100000X0.712500X0*%
%ADD66RoundRect,0.250000X-0.325000X-0.650000X0.325000X-0.650000X0.325000X0.650000X-0.325000X0.650000X0*%
%ADD67R,2.200000X1.500000*%
%ADD68R,0.850000X1.100000*%
%ADD69R,0.750000X1.100000*%
%ADD70R,1.200000X1.000000*%
%ADD71R,1.550000X1.350000*%
%ADD72R,1.900000X1.350000*%
%ADD73R,1.170000X1.800000*%
%ADD74RoundRect,0.250000X0.325000X0.650000X-0.325000X0.650000X-0.325000X-0.650000X0.325000X-0.650000X0*%
%ADD75RoundRect,0.150000X0.725000X0.150000X-0.725000X0.150000X-0.725000X-0.150000X0.725000X-0.150000X0*%
%ADD76C,0.330200*%
G04 APERTURE END LIST*
D10*
G36*
X140597634Y-161089533D02*
G01*
X139332900Y-161089533D01*
X139332900Y-159824800D01*
X140597634Y-159824800D01*
X140597634Y-161089533D01*
G37*
G36*
X140597634Y-162554267D02*
G01*
X139332900Y-162554267D01*
X139332900Y-161289533D01*
X140597634Y-161289533D01*
X140597634Y-162554267D01*
G37*
G36*
X140597634Y-164019000D02*
G01*
X139332900Y-164019000D01*
X139332900Y-162754266D01*
X140597634Y-162754266D01*
X140597634Y-164019000D01*
G37*
G36*
X142062367Y-161089533D02*
G01*
X140797633Y-161089533D01*
X140797633Y-159824800D01*
X142062367Y-159824800D01*
X142062367Y-161089533D01*
G37*
G36*
X142062367Y-162554267D02*
G01*
X140797633Y-162554267D01*
X140797633Y-161289533D01*
X142062367Y-161289533D01*
X142062367Y-162554267D01*
G37*
G36*
X142062367Y-164019000D02*
G01*
X140797633Y-164019000D01*
X140797633Y-162754266D01*
X142062367Y-162754266D01*
X142062367Y-164019000D01*
G37*
G36*
X143527100Y-161089533D02*
G01*
X142262366Y-161089533D01*
X142262366Y-159824800D01*
X143527100Y-159824800D01*
X143527100Y-161089533D01*
G37*
G36*
X143527100Y-162554267D02*
G01*
X142262366Y-162554267D01*
X142262366Y-161289533D01*
X143527100Y-161289533D01*
X143527100Y-162554267D01*
G37*
G36*
X143527100Y-164019000D02*
G01*
X142262366Y-164019000D01*
X142262366Y-162754266D01*
X143527100Y-162754266D01*
X143527100Y-164019000D01*
G37*
D11*
X73660000Y-157480000D03*
X136525000Y-31750000D03*
D12*
X74990000Y-24270000D03*
X74990000Y-23330000D03*
X74210000Y-24270000D03*
X74210000Y-23330000D03*
D13*
X76750000Y-22825000D03*
X76750000Y-23475000D03*
X76750000Y-24125000D03*
X76750000Y-24775000D03*
X72450000Y-24775000D03*
X72450000Y-24125000D03*
X72450000Y-23475000D03*
X72450000Y-22825000D03*
D14*
X58782000Y-62846000D03*
X58782000Y-63646000D03*
X59582000Y-62846000D03*
X59582000Y-63646000D03*
D15*
X57744500Y-63996000D03*
X57744500Y-63496000D03*
X57744500Y-62996000D03*
X57744500Y-62496000D03*
D16*
X58432000Y-61808500D03*
X58932000Y-61808500D03*
X59432000Y-61808500D03*
X59932000Y-61808500D03*
D15*
X60619500Y-62496000D03*
X60619500Y-62996000D03*
X60619500Y-63496000D03*
X60619500Y-63996000D03*
D16*
X59932000Y-64683500D03*
X59432000Y-64683500D03*
X58932000Y-64683500D03*
X58432000Y-64683500D03*
D17*
X66763400Y-147193000D03*
X65113400Y-147193000D03*
X89382600Y-121513600D03*
X87732600Y-121513600D03*
D18*
X63312000Y-77470000D03*
X65212000Y-77470000D03*
D19*
X69101000Y-120650000D03*
X67551000Y-120650000D03*
D20*
X72375000Y-33000000D03*
X74025000Y-33000000D03*
D21*
X139700000Y-148857000D03*
X139700000Y-147307000D03*
D17*
X149669000Y-32004000D03*
X148019000Y-32004000D03*
D22*
X56329899Y-92829599D03*
X54754899Y-92829599D03*
D23*
X65700000Y-91948000D03*
X61300000Y-91948000D03*
D20*
X84773000Y-127430000D03*
X86423000Y-127430000D03*
D24*
X68834000Y-50609000D03*
X68834000Y-48959000D03*
D25*
X95152300Y-25759300D03*
X95952300Y-25759300D03*
D26*
X97152300Y-25759300D03*
X98152300Y-25759300D03*
X98652300Y-25759300D03*
X99652300Y-25759300D03*
D25*
X100852300Y-25759300D03*
X101652300Y-25759300D03*
X101652300Y-25759300D03*
X100852300Y-25759300D03*
D26*
X100152300Y-25759300D03*
X99152300Y-25759300D03*
X97652300Y-25759300D03*
X96652300Y-25759300D03*
D25*
X95952300Y-25759300D03*
X95152300Y-25759300D03*
D19*
X81724800Y-166268400D03*
X80174800Y-166268400D03*
D17*
X143928600Y-130784600D03*
X142278600Y-130784600D03*
X132549400Y-119303800D03*
X130899400Y-119303800D03*
D27*
X148200000Y-25324000D03*
X149750000Y-25324000D03*
D20*
X71565000Y-111252000D03*
X73215000Y-111252000D03*
D24*
X68072000Y-76391000D03*
X68072000Y-78041000D03*
D17*
X56095400Y-46532800D03*
X54445400Y-46532800D03*
D27*
X92189000Y-153416000D03*
X93739000Y-153416000D03*
D28*
X99060000Y-128969000D03*
X99060000Y-130619000D03*
D17*
X73215000Y-109474000D03*
X71565000Y-109474000D03*
D24*
X72136000Y-47053000D03*
X72136000Y-45403000D03*
D17*
X84425000Y-26000000D03*
X82775000Y-26000000D03*
D28*
X96012000Y-128969000D03*
X96012000Y-130619000D03*
D17*
X81774800Y-169316400D03*
X80124800Y-169316400D03*
D19*
X131585000Y-98298000D03*
X130035000Y-98298000D03*
D24*
X65753199Y-111269999D03*
X65753199Y-109619999D03*
D17*
X56418199Y-91051599D03*
X54768199Y-91051599D03*
D29*
X127508000Y-157160000D03*
X127508000Y-155260000D03*
D17*
X131635000Y-101854000D03*
X129985000Y-101854000D03*
D21*
X76000000Y-32975000D03*
X76000000Y-31425000D03*
D24*
X55626000Y-66611000D03*
X55626000Y-64961000D03*
D30*
X57150000Y-127876000D03*
X57150000Y-129426000D03*
D31*
X66716500Y-87884000D03*
X60791500Y-87884000D03*
D32*
X77646500Y-84827600D03*
X77646500Y-85827600D03*
X77646500Y-86827600D03*
X77646500Y-87827600D03*
X78646500Y-83827600D03*
X78646500Y-84827600D03*
X78646500Y-85827600D03*
X78646500Y-86827600D03*
X78646500Y-87827600D03*
X79646500Y-83827600D03*
X79646500Y-84827600D03*
X79646500Y-85827600D03*
X79646500Y-86827600D03*
X79646500Y-87827600D03*
X80646500Y-83827600D03*
X80646500Y-84827600D03*
X80646500Y-85827600D03*
X80646500Y-86827600D03*
X80646500Y-87827600D03*
X81646500Y-83827600D03*
X81646500Y-84827600D03*
X81646500Y-85827600D03*
X81646500Y-86827600D03*
X81646500Y-87827600D03*
D19*
X85407800Y-47040800D03*
X83857800Y-47040800D03*
D18*
X79050000Y-29600000D03*
X80950000Y-29600000D03*
D24*
X71628000Y-61023000D03*
X71628000Y-59373000D03*
D19*
X66307000Y-36576000D03*
X64757000Y-36576000D03*
D17*
X114667800Y-140309600D03*
X113017800Y-140309600D03*
X149800000Y-23800000D03*
X148150000Y-23800000D03*
X96303600Y-44246800D03*
X94653600Y-44246800D03*
X128841000Y-168910000D03*
X127191000Y-168910000D03*
D20*
X57341000Y-67056000D03*
X58991000Y-67056000D03*
D33*
X48864800Y-71504200D03*
X48264800Y-71504200D03*
X48864800Y-71904200D03*
X48264800Y-71904200D03*
D34*
X47814800Y-70716700D03*
X48314800Y-70716700D03*
X48814800Y-70716700D03*
X49314800Y-70716700D03*
X49314800Y-72691700D03*
X48814800Y-72691700D03*
X48314800Y-72691700D03*
X47814800Y-72691700D03*
D20*
X141415000Y-37084000D03*
X143065000Y-37084000D03*
D24*
X119888000Y-106489000D03*
X119888000Y-104839000D03*
D20*
X59627000Y-58928000D03*
X61277000Y-58928000D03*
D30*
X81000000Y-26225000D03*
X81000000Y-27775000D03*
D20*
X148019000Y-62992000D03*
X149669000Y-62992000D03*
D28*
X64483199Y-101199399D03*
X64483199Y-102849399D03*
D35*
X54881999Y-108643599D03*
X54881999Y-110543599D03*
D36*
X99949000Y-139076200D03*
X98679000Y-139076200D03*
X97409000Y-139076200D03*
X96139000Y-139076200D03*
X94869000Y-139076200D03*
X93599000Y-139076200D03*
X92329000Y-139076200D03*
X91059000Y-139076200D03*
X91059000Y-134126200D03*
X92329000Y-134126200D03*
X93599000Y-134126200D03*
X94869000Y-134126200D03*
X96139000Y-134126200D03*
X97409000Y-134126200D03*
X98679000Y-134126200D03*
X99949000Y-134126200D03*
D37*
X104068500Y-88209800D03*
X104068500Y-86009800D03*
X105668500Y-86009800D03*
X105668500Y-88209800D03*
D20*
X148019000Y-30480000D03*
X149669000Y-30480000D03*
D38*
X56011000Y-164529000D03*
X53641000Y-164529000D03*
D17*
X74025000Y-31200000D03*
X72375000Y-31200000D03*
D32*
X90508100Y-100260400D03*
X91508100Y-100260400D03*
X92508100Y-100260400D03*
X93508100Y-100260400D03*
X89508100Y-99260400D03*
X90508100Y-99260400D03*
X91508100Y-99260400D03*
X92508100Y-99260400D03*
X93508100Y-99260400D03*
X89508100Y-98260400D03*
X90508100Y-98260400D03*
X91508100Y-98260400D03*
X92508100Y-98260400D03*
X93508100Y-98260400D03*
X89508100Y-97260400D03*
X90508100Y-97260400D03*
X91508100Y-97260400D03*
X92508100Y-97260400D03*
X93508100Y-97260400D03*
X89508100Y-96260400D03*
X90508100Y-96260400D03*
X91508100Y-96260400D03*
X92508100Y-96260400D03*
X93508100Y-96260400D03*
D20*
X87732600Y-119989600D03*
X89382600Y-119989600D03*
D17*
X65087000Y-64516000D03*
X63437000Y-64516000D03*
D20*
X106213300Y-23847900D03*
X107863300Y-23847900D03*
D39*
X141757400Y-93953000D03*
X141757400Y-68353000D03*
D24*
X141478000Y-148907000D03*
X141478000Y-147257000D03*
D40*
X102082500Y-157480000D03*
X103657500Y-157480000D03*
D17*
X107837900Y-21968300D03*
X106187900Y-21968300D03*
D41*
X145209500Y-27752000D03*
X145209500Y-29652000D03*
X143334500Y-28702000D03*
D35*
X53594000Y-62804000D03*
X53594000Y-64704000D03*
D18*
X60942399Y-103700799D03*
X62842399Y-103700799D03*
D20*
X54801000Y-171704000D03*
X56451000Y-171704000D03*
D19*
X127788000Y-53848000D03*
X126238000Y-53848000D03*
D42*
X58234799Y-100536398D03*
X58234799Y-101036400D03*
X58234799Y-101536399D03*
X58234799Y-102036398D03*
X58234799Y-102536399D03*
X58234799Y-103036399D03*
X58234799Y-103536400D03*
X58234799Y-104036399D03*
D43*
X58234799Y-104536398D03*
D42*
X58234799Y-105036400D03*
D44*
X57538400Y-105732799D03*
X57038398Y-105732799D03*
X56538399Y-105732799D03*
X56038400Y-105732799D03*
X55538399Y-105732799D03*
X55038399Y-105732799D03*
X54538398Y-105732799D03*
X54038399Y-105732799D03*
X53538400Y-105732799D03*
X53038398Y-105732799D03*
D42*
X52341999Y-105036400D03*
X52341999Y-104536398D03*
X52341999Y-104036399D03*
X52341999Y-103536400D03*
X52341999Y-103036399D03*
X52341999Y-102536399D03*
X52341999Y-102036398D03*
X52341999Y-101536399D03*
X52341999Y-101036400D03*
X52341999Y-100536398D03*
D44*
X53038398Y-99839999D03*
X53538400Y-99839999D03*
X54038399Y-99839999D03*
X54538398Y-99839999D03*
X55038399Y-99839999D03*
X55538399Y-99839999D03*
X56038400Y-99839999D03*
X56538399Y-99839999D03*
X57038398Y-99839999D03*
X57538400Y-99839999D03*
D45*
X55288399Y-102786399D03*
D28*
X100584000Y-128969000D03*
X100584000Y-130619000D03*
D46*
X132758000Y-58001000D03*
X134958000Y-58001000D03*
X134958000Y-59601000D03*
X132758000Y-59601000D03*
D20*
X148150000Y-22276000D03*
X149800000Y-22276000D03*
D47*
X102748500Y-161478000D03*
X102748500Y-160528000D03*
X102748500Y-159578000D03*
X105023500Y-159578000D03*
X105023500Y-161478000D03*
D48*
X85913000Y-49007000D03*
X85913000Y-49657000D03*
X85913000Y-50307000D03*
X84013000Y-50307000D03*
X84013000Y-49657000D03*
X84013000Y-49007000D03*
D17*
X84425000Y-27800000D03*
X82775000Y-27800000D03*
D21*
X86400000Y-29575000D03*
X86400000Y-28025000D03*
D28*
X92964000Y-128969000D03*
X92964000Y-130619000D03*
D49*
X50614799Y-110863599D03*
X50614799Y-108493599D03*
D17*
X74025000Y-29400000D03*
X72375000Y-29400000D03*
D30*
X128016000Y-49771000D03*
X128016000Y-51321000D03*
D20*
X92139000Y-150368000D03*
X93789000Y-150368000D03*
D21*
X129794000Y-156985000D03*
X129794000Y-155435000D03*
D30*
X70800000Y-29625000D03*
X70800000Y-31175000D03*
D17*
X132905000Y-142697200D03*
X131255000Y-142697200D03*
D20*
X129985000Y-100076000D03*
X131635000Y-100076000D03*
D27*
X61709000Y-40741600D03*
X63259000Y-40741600D03*
D35*
X56964799Y-108643599D03*
X56964799Y-110543599D03*
D17*
X71691000Y-63500000D03*
X70041000Y-63500000D03*
D20*
X94653600Y-42697400D03*
X96303600Y-42697400D03*
D28*
X47211199Y-93020599D03*
X47211199Y-94670599D03*
D20*
X84773000Y-129130000D03*
X86423000Y-129130000D03*
D18*
X72202000Y-49022000D03*
X74102000Y-49022000D03*
D19*
X55308800Y-155524200D03*
X53758800Y-155524200D03*
D20*
X51576000Y-171704000D03*
X53226000Y-171704000D03*
D24*
X46957199Y-107857099D03*
X46957199Y-106207099D03*
D20*
X53708800Y-157048200D03*
X55358800Y-157048200D03*
D50*
X129077000Y-64389000D03*
X125177000Y-64389000D03*
X129077000Y-65659000D03*
X125177000Y-65659000D03*
X129077000Y-66929000D03*
X125177000Y-66929000D03*
X129077000Y-68199000D03*
X125177000Y-68199000D03*
X129077000Y-69469000D03*
X125177000Y-69469000D03*
D51*
X131038600Y-54782001D03*
X131038600Y-54132000D03*
X131038600Y-53481999D03*
X131038600Y-52832000D03*
X131038600Y-52182001D03*
X131038600Y-51532000D03*
X131038600Y-50882001D03*
X136677400Y-50881999D03*
X136677400Y-51532000D03*
X136677400Y-52181999D03*
X136677400Y-52832000D03*
X136677400Y-53481999D03*
X136677400Y-54132000D03*
X136677400Y-54781999D03*
D52*
X109670500Y-81572600D03*
D27*
X51676000Y-173429000D03*
X53226000Y-173429000D03*
D18*
X68650000Y-33000000D03*
X70550000Y-33000000D03*
D19*
X146063000Y-61468000D03*
X144513000Y-61468000D03*
D17*
X149669000Y-61468000D03*
X148019000Y-61468000D03*
D28*
X47211199Y-96068599D03*
X47211199Y-97718599D03*
D19*
X132499400Y-116285800D03*
X130949400Y-116285800D03*
D20*
X131255000Y-141173200D03*
X132905000Y-141173200D03*
D17*
X93789000Y-151892000D03*
X92139000Y-151892000D03*
D49*
X62247999Y-110778599D03*
X62247999Y-108408599D03*
D53*
X134112000Y-170026660D03*
X134112000Y-168822700D03*
X134112000Y-167618740D03*
X134112000Y-166414780D03*
X134112000Y-165210820D03*
X134112000Y-164006860D03*
X134112000Y-162802900D03*
X134112000Y-161598940D03*
X134112000Y-160394980D03*
X134112000Y-159191020D03*
X134112000Y-157987060D03*
X134112000Y-156783100D03*
X134112000Y-155579140D03*
D54*
X135455700Y-153593800D03*
X136659660Y-153593800D03*
X137863620Y-153593800D03*
X139067580Y-153593800D03*
X140271540Y-153593800D03*
X141475500Y-153593800D03*
X142679460Y-153593800D03*
X143883420Y-153593800D03*
X145087380Y-153593800D03*
X146291340Y-153593800D03*
X147495300Y-153593800D03*
D53*
X148844000Y-155579140D03*
X148844000Y-156783100D03*
X148844000Y-157987060D03*
X148844000Y-159191020D03*
X148844000Y-160394980D03*
X148844000Y-161598940D03*
X148844000Y-162802900D03*
X148844000Y-164006860D03*
X148844000Y-165210820D03*
X148844000Y-166414780D03*
X148844000Y-167618740D03*
X148844000Y-168822700D03*
D55*
X141430000Y-161921900D03*
D21*
X95478600Y-119367600D03*
X95478600Y-117817600D03*
D28*
X59690000Y-170117000D03*
X59690000Y-171767000D03*
D56*
X70425000Y-40322500D03*
X70425000Y-39687500D03*
X70425000Y-39052500D03*
X70425000Y-38417500D03*
X70425000Y-37782500D03*
X70425000Y-37147500D03*
X70425000Y-36512500D03*
X70425000Y-35877500D03*
X75625000Y-35877500D03*
X75625000Y-36512500D03*
X75625000Y-37147500D03*
X75625000Y-37782500D03*
X75625000Y-38417500D03*
X75625000Y-39052500D03*
X75625000Y-39687500D03*
X75625000Y-40322500D03*
D20*
X65113400Y-145669000D03*
X66763400Y-145669000D03*
D17*
X129095000Y-163068000D03*
X127445000Y-163068000D03*
D57*
X63270000Y-80192000D03*
D58*
X64770000Y-82042000D03*
D57*
X66270000Y-80192000D03*
X66270000Y-83892000D03*
X63270000Y-83892000D03*
D29*
X54526399Y-97386399D03*
X54526399Y-95486399D03*
D28*
X94488000Y-128969000D03*
X94488000Y-130619000D03*
D17*
X55358800Y-158572200D03*
X53708800Y-158572200D03*
D18*
X75050000Y-20600000D03*
X76950000Y-20600000D03*
D59*
X67376000Y-58752500D03*
X69276000Y-58752500D03*
X68326000Y-60627500D03*
D60*
X99562100Y-120509600D03*
X99562100Y-121009600D03*
X99562100Y-121509600D03*
X99562100Y-122009600D03*
D61*
X98899600Y-122172100D03*
X98399600Y-122172100D03*
X97899600Y-122172100D03*
D60*
X97237100Y-122009600D03*
X97237100Y-121509600D03*
X97237100Y-121009600D03*
X97237100Y-120509600D03*
D61*
X97899600Y-120347100D03*
X98399600Y-120347100D03*
X98899600Y-120347100D03*
D20*
X113017800Y-138785600D03*
X114667800Y-138785600D03*
D24*
X121920000Y-106489000D03*
X121920000Y-104839000D03*
D62*
X55163500Y-167979000D03*
X55163500Y-168929000D03*
X55163500Y-169879000D03*
X52888500Y-169879000D03*
X52888500Y-168929000D03*
X52888500Y-167979000D03*
D19*
X86373000Y-125730000D03*
X84823000Y-125730000D03*
D63*
X98110000Y-159644500D03*
X99060000Y-159644500D03*
X100010000Y-159644500D03*
X100010000Y-161919500D03*
X99060000Y-161919500D03*
X98110000Y-161919500D03*
D27*
X58051400Y-40741600D03*
X59601400Y-40741600D03*
D19*
X66713400Y-144145000D03*
X65163400Y-144145000D03*
D18*
X71694000Y-43434000D03*
X73594000Y-43434000D03*
D64*
X50497999Y-101719599D03*
X48597999Y-101719599D03*
D20*
X82775000Y-29600000D03*
X84425000Y-29600000D03*
D21*
X67429599Y-111232199D03*
X67429599Y-109682199D03*
D65*
X58969000Y-44267900D03*
X59619000Y-44267900D03*
X60269000Y-44267900D03*
X60919000Y-44267900D03*
X60919000Y-48492900D03*
X60269000Y-48492900D03*
X59619000Y-48492900D03*
X58969000Y-48492900D03*
D20*
X125540000Y-60071000D03*
X127190000Y-60071000D03*
D66*
X50663799Y-113742599D03*
X53613799Y-113742599D03*
D24*
X128676400Y-78244200D03*
X128676400Y-76594200D03*
D67*
X57404000Y-77826000D03*
X57404000Y-84226000D03*
D35*
X50601000Y-164329000D03*
X50601000Y-166229000D03*
D28*
X64483199Y-104348999D03*
X64483199Y-105998999D03*
X97536000Y-128969000D03*
X97536000Y-130619000D03*
D24*
X46957199Y-110905099D03*
X46957199Y-109255099D03*
D29*
X61638399Y-101907599D03*
X61638399Y-100007599D03*
D49*
X50767199Y-93676599D03*
X50767199Y-96046599D03*
D24*
X66413599Y-108081799D03*
X66413599Y-106431799D03*
D29*
X137414000Y-149032000D03*
X137414000Y-147132000D03*
D59*
X64836000Y-53164500D03*
X66736000Y-53164500D03*
X65786000Y-55039500D03*
D35*
X49501000Y-168954000D03*
X49501000Y-170854000D03*
D19*
X146063000Y-32004000D03*
X144513000Y-32004000D03*
D28*
X61264800Y-36767000D03*
X61264800Y-38417000D03*
D68*
X128448305Y-22983800D03*
X127348305Y-22983800D03*
X126248305Y-22983800D03*
X125148305Y-22983800D03*
X124048305Y-22983800D03*
X122948305Y-22983800D03*
X121848305Y-22983800D03*
D69*
X120798305Y-22983800D03*
D70*
X131083305Y-29133800D03*
X131083305Y-32833800D03*
D71*
X130908305Y-23108800D03*
D72*
X127583305Y-33808800D03*
X121613305Y-33808800D03*
D73*
X119588305Y-23333800D03*
D74*
X52292999Y-90543599D03*
X49342999Y-90543599D03*
D32*
X89473500Y-107072000D03*
X89473500Y-108072000D03*
X89473500Y-109072000D03*
X89473500Y-110072000D03*
X90473500Y-106072000D03*
X90473500Y-107072000D03*
X90473500Y-108072000D03*
X90473500Y-109072000D03*
X90473500Y-110072000D03*
X91473500Y-106072000D03*
X91473500Y-107072000D03*
X91473500Y-108072000D03*
X91473500Y-109072000D03*
X91473500Y-110072000D03*
X92473500Y-106072000D03*
X92473500Y-107072000D03*
X92473500Y-108072000D03*
X92473500Y-109072000D03*
X92473500Y-110072000D03*
X93473500Y-106072000D03*
X93473500Y-107072000D03*
X93473500Y-108072000D03*
X93473500Y-109072000D03*
X93473500Y-110072000D03*
D74*
X61690999Y-113657599D03*
X58740999Y-113657599D03*
D20*
X142278600Y-129260600D03*
X143928600Y-129260600D03*
D63*
X97452300Y-31244800D03*
X98402300Y-31244800D03*
X99352300Y-31244800D03*
X99352300Y-33519800D03*
X98402300Y-33519800D03*
X97452300Y-33519800D03*
D19*
X89332600Y-118465600D03*
X87782600Y-118465600D03*
X48697399Y-113149599D03*
X47147399Y-113149599D03*
D20*
X80124800Y-167792400D03*
X81774800Y-167792400D03*
D19*
X143878600Y-127736600D03*
X142328600Y-127736600D03*
D24*
X65252600Y-70344800D03*
X65252600Y-68694800D03*
D64*
X65974000Y-94996000D03*
X64074000Y-94996000D03*
X60843200Y-52273200D03*
X58943200Y-52273200D03*
D20*
X105347000Y-157480000D03*
X106997000Y-157480000D03*
D19*
X114617800Y-137261600D03*
X113067800Y-137261600D03*
D30*
X96469200Y-48120000D03*
X96469200Y-49670000D03*
D75*
X94015000Y-46990000D03*
X94015000Y-48260000D03*
X94015000Y-49530000D03*
X94015000Y-50800000D03*
X88865000Y-50800000D03*
X88865000Y-49530000D03*
X88865000Y-48260000D03*
X88865000Y-46990000D03*
D76*
X99216499Y-79973601D03*
X98416499Y-79973601D03*
X97616500Y-79973601D03*
X96816500Y-79973601D03*
X96016500Y-79973601D03*
X95216500Y-79973601D03*
X94416500Y-79973601D03*
X93616500Y-79973601D03*
X92816500Y-79973601D03*
X92016500Y-79973601D03*
X91216500Y-79973601D03*
X90416500Y-79973601D03*
X89616500Y-79973601D03*
X88816501Y-79973601D03*
X88016501Y-79973601D03*
X99216499Y-80773601D03*
X98416499Y-80773601D03*
X97616500Y-80773601D03*
X96816500Y-80773601D03*
X96016500Y-80773601D03*
X95216500Y-80773601D03*
X94416500Y-80773601D03*
X93616500Y-80773601D03*
X92816500Y-80773601D03*
X92016500Y-80773601D03*
X91216500Y-80773601D03*
X90416500Y-80773601D03*
X89616500Y-80773601D03*
X88816501Y-80773601D03*
X88016501Y-80773601D03*
X99216499Y-81573600D03*
X98416499Y-81573600D03*
X97616500Y-81573600D03*
X96816500Y-81573600D03*
X96016500Y-81573600D03*
X95216500Y-81573600D03*
X94416500Y-81573600D03*
X93616500Y-81573600D03*
X92816500Y-81573600D03*
X92016500Y-81573600D03*
X91216500Y-81573600D03*
X90416500Y-81573600D03*
X89616500Y-81573600D03*
X88816501Y-81573600D03*
X88016501Y-81573600D03*
X99216499Y-82373600D03*
X98416499Y-82373600D03*
X97616500Y-82373600D03*
X96816500Y-82373600D03*
X96016500Y-82373600D03*
X95216500Y-82373600D03*
X94416500Y-82373600D03*
X93616500Y-82373600D03*
X92816500Y-82373600D03*
X92016500Y-82373600D03*
X91216500Y-82373600D03*
X90416500Y-82373600D03*
X89616500Y-82373600D03*
X88816501Y-82373600D03*
X88016501Y-82373600D03*
X99216499Y-83173600D03*
X98416499Y-83173600D03*
X97616500Y-83173600D03*
X96816500Y-83173600D03*
X96016500Y-83173600D03*
X95216500Y-83173600D03*
X94416500Y-83173600D03*
X93616500Y-83173600D03*
X92816500Y-83173600D03*
X92016500Y-83173600D03*
X91216500Y-83173600D03*
X90416500Y-83173600D03*
X89616500Y-83173600D03*
X88816501Y-83173600D03*
X88016501Y-83173600D03*
X99216499Y-83973600D03*
X98416499Y-83973600D03*
X97616500Y-83973600D03*
X96816500Y-83973600D03*
X96016500Y-83973600D03*
X95216500Y-83973600D03*
X94416500Y-83973600D03*
X93616500Y-83973600D03*
X92816500Y-83973600D03*
X92016500Y-83973600D03*
X91216500Y-83973600D03*
X90416500Y-83973600D03*
X89616500Y-83973600D03*
X88816501Y-83973600D03*
X88016501Y-83973600D03*
X99216499Y-84773600D03*
X98416499Y-84773600D03*
X97616500Y-84773600D03*
X96816500Y-84773600D03*
X96016500Y-84773600D03*
X95216500Y-84773600D03*
X94416500Y-84773600D03*
X93616500Y-84773600D03*
X92816500Y-84773600D03*
X92016500Y-84773600D03*
X91216500Y-84773600D03*
X90416500Y-84773600D03*
X89616500Y-84773600D03*
X88816501Y-84773600D03*
X88016501Y-84773600D03*
X99216499Y-85573600D03*
X98416499Y-85573600D03*
X97616500Y-85573600D03*
X96816500Y-85573600D03*
X96016500Y-85573600D03*
X95216500Y-85573600D03*
X94416500Y-85573600D03*
X93616500Y-85573600D03*
X92816500Y-85573600D03*
X92016500Y-85573600D03*
X91216500Y-85573600D03*
X90416500Y-85573600D03*
X89616500Y-85573600D03*
X88816501Y-85573600D03*
X88016501Y-85573600D03*
X99216499Y-86373600D03*
X98416499Y-86373600D03*
X97616500Y-86373600D03*
X96816500Y-86373600D03*
X96016500Y-86373600D03*
X95216500Y-86373600D03*
X94416500Y-86373600D03*
X93616500Y-86373600D03*
X92816500Y-86373600D03*
X92016500Y-86373600D03*
X91216500Y-86373600D03*
X90416500Y-86373600D03*
X89616500Y-86373600D03*
X88816501Y-86373600D03*
X88016501Y-86373600D03*
X99216499Y-87173600D03*
X98416499Y-87173600D03*
X97616500Y-87173600D03*
X96816500Y-87173600D03*
X96016500Y-87173600D03*
X95216500Y-87173600D03*
X94416500Y-87173600D03*
X93616500Y-87173600D03*
X92816500Y-87173600D03*
X92016500Y-87173600D03*
X91216500Y-87173600D03*
X90416500Y-87173600D03*
X89616500Y-87173600D03*
X88816501Y-87173600D03*
X88016501Y-87173600D03*
X99216499Y-87973600D03*
X98416499Y-87973600D03*
X97616500Y-87973600D03*
X96816500Y-87973600D03*
X96016500Y-87973600D03*
X95216500Y-87973600D03*
X94416500Y-87973600D03*
X93616500Y-87973600D03*
X92816500Y-87973600D03*
X92016500Y-87973600D03*
X91216500Y-87973600D03*
X90416500Y-87973600D03*
X89616500Y-87973600D03*
X88816501Y-87973600D03*
X88016501Y-87973600D03*
X99216499Y-88773600D03*
X98416499Y-88773600D03*
X97616500Y-88773600D03*
X96816500Y-88773600D03*
X96016500Y-88773600D03*
X95216500Y-88773600D03*
X94416500Y-88773600D03*
X93616500Y-88773600D03*
X92816500Y-88773600D03*
X92016500Y-88773600D03*
X91216500Y-88773600D03*
X90416500Y-88773600D03*
X89616500Y-88773600D03*
X88816501Y-88773600D03*
X88016501Y-88773600D03*
X99216499Y-89573600D03*
X98416499Y-89573600D03*
X97616500Y-89573600D03*
X96816500Y-89573600D03*
X96016500Y-89573600D03*
X95216500Y-89573600D03*
X94416500Y-89573600D03*
X93616500Y-89573600D03*
X92816500Y-89573600D03*
X92016500Y-89573600D03*
X91216500Y-89573600D03*
X90416500Y-89573600D03*
X89616500Y-89573600D03*
X88816501Y-89573600D03*
X88016501Y-89573600D03*
X99216499Y-90373599D03*
X98416499Y-90373599D03*
X97616500Y-90373599D03*
X96816500Y-90373599D03*
X96016500Y-90373599D03*
X95216500Y-90373599D03*
X94416500Y-90373599D03*
X93616500Y-90373599D03*
X92816500Y-90373599D03*
X92016500Y-90373599D03*
X91216500Y-90373599D03*
X90416500Y-90373599D03*
X89616500Y-90373599D03*
X88816501Y-90373599D03*
X88016501Y-90373599D03*
X99216499Y-91173599D03*
X98416499Y-91173599D03*
X97616500Y-91173599D03*
X96816500Y-91173599D03*
X96016500Y-91173599D03*
X95216500Y-91173599D03*
X94416500Y-91173599D03*
X93616500Y-91173599D03*
X92816500Y-91173599D03*
X92016500Y-91173599D03*
X91216500Y-91173599D03*
X90416500Y-91173599D03*
X89616500Y-91173599D03*
X88816501Y-91173599D03*
X88016501Y-91173599D03*
D19*
X115481400Y-46075600D03*
X113931400Y-46075600D03*
D64*
X60843200Y-54559200D03*
X58943200Y-54559200D03*
D27*
X124421600Y-71983600D03*
X125971600Y-71983600D03*
D35*
X62738000Y-66360000D03*
X62738000Y-68260000D03*
D59*
X68900000Y-53164500D03*
X70800000Y-53164500D03*
X69850000Y-55039500D03*
D28*
X58369200Y-36817800D03*
X58369200Y-38467800D03*
D20*
X81375000Y-22400000D03*
X83025000Y-22400000D03*
D24*
X63754000Y-61785000D03*
X63754000Y-60135000D03*
D19*
X132855000Y-139649200D03*
X131305000Y-139649200D03*
D21*
X47211199Y-91521799D03*
X47211199Y-89971799D03*
D27*
X71615000Y-107696000D03*
X73165000Y-107696000D03*
D20*
X113881400Y-44348400D03*
X115531400Y-44348400D03*
D30*
X45720000Y-69837000D03*
X45720000Y-71387000D03*
D20*
X130899400Y-117779800D03*
X132549400Y-117779800D03*
D19*
X94983600Y-122910600D03*
X93433600Y-122910600D03*
M02*
