G04 #@! TF.GenerationSoftware,KiCad,Pcbnew,8.0.4*
G04 #@! TF.CreationDate,2024-09-06T21:03:00+01:00*
G04 #@! TF.ProjectId,gk-pcbv3,676b2d70-6362-4763-932e-6b696361645f,rev?*
G04 #@! TF.SameCoordinates,Original*
G04 #@! TF.FileFunction,Paste,Top*
G04 #@! TF.FilePolarity,Positive*
%FSLAX46Y46*%
G04 Gerber Fmt 4.6, Leading zero omitted, Abs format (unit mm)*
G04 Created by KiCad (PCBNEW 8.0.4) date 2024-09-06 21:03:00*
%MOMM*%
%LPD*%
G01*
G04 APERTURE LIST*
G04 Aperture macros list*
%AMRoundRect*
0 Rectangle with rounded corners*
0 $1 Rounding radius*
0 $2 $3 $4 $5 $6 $7 $8 $9 X,Y pos of 4 corners*
0 Add a 4 corners polygon primitive as box body*
4,1,4,$2,$3,$4,$5,$6,$7,$8,$9,$2,$3,0*
0 Add four circle primitives for the rounded corners*
1,1,$1+$1,$2,$3*
1,1,$1+$1,$4,$5*
1,1,$1+$1,$6,$7*
1,1,$1+$1,$8,$9*
0 Add four rect primitives between the rounded corners*
20,1,$1+$1,$2,$3,$4,$5,0*
20,1,$1+$1,$4,$5,$6,$7,0*
20,1,$1+$1,$6,$7,$8,$9,0*
20,1,$1+$1,$8,$9,$2,$3,0*%
%AMRotRect*
0 Rectangle, with rotation*
0 The origin of the aperture is its center*
0 $1 length*
0 $2 width*
0 $3 Rotation angle, in degrees counterclockwise*
0 Add horizontal line*
21,1,$1,$2,0,0,$3*%
G04 Aperture macros list end*
%ADD10C,0.406400*%
%ADD11C,0.330200*%
%ADD12R,1.400000X1.150000*%
%ADD13RoundRect,0.218750X0.218750X0.256250X-0.218750X0.256250X-0.218750X-0.256250X0.218750X-0.256250X0*%
%ADD14RotRect,0.900000X0.800000X135.000000*%
%ADD15RoundRect,0.150000X0.512500X0.150000X-0.512500X0.150000X-0.512500X-0.150000X0.512500X-0.150000X0*%
%ADD16RoundRect,0.225000X-0.250000X0.225000X-0.250000X-0.225000X0.250000X-0.225000X0.250000X0.225000X0*%
%ADD17RoundRect,0.200000X0.275000X-0.200000X0.275000X0.200000X-0.275000X0.200000X-0.275000X-0.200000X0*%
%ADD18R,2.200000X6.500000*%
%ADD19RoundRect,0.200000X-0.200000X-0.275000X0.200000X-0.275000X0.200000X0.275000X-0.200000X0.275000X0*%
%ADD20RotRect,0.900000X0.800000X45.000000*%
%ADD21RoundRect,0.250000X-0.475000X0.250000X-0.475000X-0.250000X0.475000X-0.250000X0.475000X0.250000X0*%
G04 APERTURE END LIST*
D10*
X84129200Y-67672800D03*
X84129200Y-66672800D03*
X84129200Y-65672800D03*
X84129200Y-64672800D03*
X85129200Y-68672800D03*
X85129200Y-67672800D03*
X85129200Y-66672800D03*
X85129200Y-65672800D03*
X85129200Y-64672800D03*
X86129200Y-68672800D03*
X86129200Y-67672800D03*
X86129200Y-66672800D03*
X86129200Y-65672800D03*
X86129200Y-64672800D03*
X87129200Y-68672800D03*
X87129200Y-67672800D03*
X87129200Y-66672800D03*
X87129200Y-65672800D03*
X87129200Y-64672800D03*
X88129200Y-68672800D03*
X88129200Y-67672800D03*
X88129200Y-66672800D03*
X88129200Y-65672800D03*
X88129200Y-64672800D03*
X93527200Y-68282400D03*
X93527200Y-67282400D03*
X93527200Y-66282400D03*
X93527200Y-65282400D03*
X94527200Y-69282400D03*
X94527200Y-68282400D03*
X94527200Y-67282400D03*
X94527200Y-66282400D03*
X94527200Y-65282400D03*
X95527200Y-69282400D03*
X95527200Y-68282400D03*
X95527200Y-67282400D03*
X95527200Y-66282400D03*
X95527200Y-65282400D03*
X96527200Y-69282400D03*
X96527200Y-68282400D03*
X96527200Y-67282400D03*
X96527200Y-66282400D03*
X96527200Y-65282400D03*
X97527200Y-69282400D03*
X97527200Y-68282400D03*
X97527200Y-67282400D03*
X97527200Y-66282400D03*
X97527200Y-65282400D03*
D11*
X109820800Y-78728400D03*
X109820800Y-79728400D03*
X109820800Y-80728400D03*
X109820800Y-81728400D03*
X108820800Y-77728400D03*
X108820800Y-78728400D03*
X108820800Y-79728400D03*
X108820800Y-80728400D03*
X108820800Y-81728400D03*
X107820800Y-77728400D03*
X107820800Y-78728400D03*
X107820800Y-79728400D03*
X107820800Y-80728400D03*
X107820800Y-81728400D03*
X106820800Y-77728400D03*
X106820800Y-78728400D03*
X106820800Y-79728400D03*
X106820800Y-80728400D03*
X106820800Y-81728400D03*
X105820800Y-77728400D03*
X105820800Y-78728400D03*
X105820800Y-79728400D03*
X105820800Y-80728400D03*
X105820800Y-81728400D03*
D12*
X105376800Y-54165600D03*
X107576800Y-54165600D03*
X107576800Y-55765600D03*
X105376800Y-55765600D03*
D13*
X126700000Y-30150000D03*
X125125000Y-30150000D03*
D14*
X93432132Y-135640660D03*
X94280660Y-134792132D03*
X93007868Y-133519340D03*
X92159340Y-134367868D03*
D15*
X126475000Y-34100000D03*
X126475000Y-33150000D03*
X126475000Y-32200000D03*
X124200000Y-32200000D03*
X124200000Y-34100000D03*
D16*
X123692305Y-26007800D03*
X123692305Y-27557800D03*
X121475000Y-34325000D03*
X121475000Y-35875000D03*
D17*
X122168305Y-27607800D03*
X122168305Y-25957800D03*
X127248305Y-27607800D03*
X127248305Y-25957800D03*
D18*
X112522000Y-51890800D03*
D19*
X120312500Y-31950000D03*
X121962500Y-31950000D03*
D20*
X102319340Y-134792132D03*
X103167868Y-135640660D03*
X104440660Y-134367868D03*
X103592132Y-133519340D03*
D21*
X133800000Y-20050000D03*
X133800000Y-21950000D03*
D17*
X125724305Y-27607800D03*
X125724305Y-25957800D03*
X129280305Y-27607800D03*
X129280305Y-25957800D03*
D19*
X121087500Y-30150000D03*
X122737500Y-30150000D03*
D17*
X120644305Y-27607800D03*
X120644305Y-25957800D03*
D11*
X113674799Y-60158401D03*
X113674799Y-60958401D03*
X113674799Y-61758400D03*
X113674799Y-62558400D03*
X113674799Y-63358400D03*
X113674799Y-64158400D03*
X113674799Y-64958400D03*
X113674799Y-65758400D03*
X113674799Y-66558400D03*
X113674799Y-67358400D03*
X113674799Y-68158400D03*
X113674799Y-68958400D03*
X113674799Y-69758400D03*
X113674799Y-70558399D03*
X113674799Y-71358399D03*
X112874799Y-60158401D03*
X112874799Y-60958401D03*
X112874799Y-61758400D03*
X112874799Y-62558400D03*
X112874799Y-63358400D03*
X112874799Y-64158400D03*
X112874799Y-64958400D03*
X112874799Y-65758400D03*
X112874799Y-66558400D03*
X112874799Y-67358400D03*
X112874799Y-68158400D03*
X112874799Y-68958400D03*
X112874799Y-69758400D03*
X112874799Y-70558399D03*
X112874799Y-71358399D03*
X112074800Y-60158401D03*
X112074800Y-60958401D03*
X112074800Y-61758400D03*
X112074800Y-62558400D03*
X112074800Y-63358400D03*
X112074800Y-64158400D03*
X112074800Y-64958400D03*
X112074800Y-65758400D03*
X112074800Y-66558400D03*
X112074800Y-67358400D03*
X112074800Y-68158400D03*
X112074800Y-68958400D03*
X112074800Y-69758400D03*
X112074800Y-70558399D03*
X112074800Y-71358399D03*
X111274800Y-60158401D03*
X111274800Y-60958401D03*
X111274800Y-61758400D03*
X111274800Y-62558400D03*
X111274800Y-63358400D03*
X111274800Y-64158400D03*
X111274800Y-64958400D03*
X111274800Y-65758400D03*
X111274800Y-66558400D03*
X111274800Y-67358400D03*
X111274800Y-68158400D03*
X111274800Y-68958400D03*
X111274800Y-69758400D03*
X111274800Y-70558399D03*
X111274800Y-71358399D03*
X110474800Y-60158401D03*
X110474800Y-60958401D03*
X110474800Y-61758400D03*
X110474800Y-62558400D03*
X110474800Y-63358400D03*
X110474800Y-64158400D03*
X110474800Y-64958400D03*
X110474800Y-65758400D03*
X110474800Y-66558400D03*
X110474800Y-67358400D03*
X110474800Y-68158400D03*
X110474800Y-68958400D03*
X110474800Y-69758400D03*
X110474800Y-70558399D03*
X110474800Y-71358399D03*
X109674800Y-60158401D03*
X109674800Y-60958401D03*
X109674800Y-61758400D03*
X109674800Y-62558400D03*
X109674800Y-63358400D03*
X109674800Y-64158400D03*
X109674800Y-64958400D03*
X109674800Y-65758400D03*
X109674800Y-66558400D03*
X109674800Y-67358400D03*
X109674800Y-68158400D03*
X109674800Y-68958400D03*
X109674800Y-69758400D03*
X109674800Y-70558399D03*
X109674800Y-71358399D03*
X108874800Y-60158401D03*
X108874800Y-60958401D03*
X108874800Y-61758400D03*
X108874800Y-62558400D03*
X108874800Y-63358400D03*
X108874800Y-64158400D03*
X108874800Y-64958400D03*
X108874800Y-65758400D03*
X108874800Y-66558400D03*
X108874800Y-67358400D03*
X108874800Y-68158400D03*
X108874800Y-68958400D03*
X108874800Y-69758400D03*
X108874800Y-70558399D03*
X108874800Y-71358399D03*
X108074800Y-60158401D03*
X108074800Y-60958401D03*
X108074800Y-61758400D03*
X108074800Y-62558400D03*
X108074800Y-63358400D03*
X108074800Y-64158400D03*
X108074800Y-64958400D03*
X108074800Y-65758400D03*
X108074800Y-66558400D03*
X108074800Y-67358400D03*
X108074800Y-68158400D03*
X108074800Y-68958400D03*
X108074800Y-69758400D03*
X108074800Y-70558399D03*
X108074800Y-71358399D03*
X107274800Y-60158401D03*
X107274800Y-60958401D03*
X107274800Y-61758400D03*
X107274800Y-62558400D03*
X107274800Y-63358400D03*
X107274800Y-64158400D03*
X107274800Y-64958400D03*
X107274800Y-65758400D03*
X107274800Y-66558400D03*
X107274800Y-67358400D03*
X107274800Y-68158400D03*
X107274800Y-68958400D03*
X107274800Y-69758400D03*
X107274800Y-70558399D03*
X107274800Y-71358399D03*
X106474800Y-60158401D03*
X106474800Y-60958401D03*
X106474800Y-61758400D03*
X106474800Y-62558400D03*
X106474800Y-63358400D03*
X106474800Y-64158400D03*
X106474800Y-64958400D03*
X106474800Y-65758400D03*
X106474800Y-66558400D03*
X106474800Y-67358400D03*
X106474800Y-68158400D03*
X106474800Y-68958400D03*
X106474800Y-69758400D03*
X106474800Y-70558399D03*
X106474800Y-71358399D03*
X105674800Y-60158401D03*
X105674800Y-60958401D03*
X105674800Y-61758400D03*
X105674800Y-62558400D03*
X105674800Y-63358400D03*
X105674800Y-64158400D03*
X105674800Y-64958400D03*
X105674800Y-65758400D03*
X105674800Y-66558400D03*
X105674800Y-67358400D03*
X105674800Y-68158400D03*
X105674800Y-68958400D03*
X105674800Y-69758400D03*
X105674800Y-70558399D03*
X105674800Y-71358399D03*
X104874800Y-60158401D03*
X104874800Y-60958401D03*
X104874800Y-61758400D03*
X104874800Y-62558400D03*
X104874800Y-63358400D03*
X104874800Y-64158400D03*
X104874800Y-64958400D03*
X104874800Y-65758400D03*
X104874800Y-66558400D03*
X104874800Y-67358400D03*
X104874800Y-68158400D03*
X104874800Y-68958400D03*
X104874800Y-69758400D03*
X104874800Y-70558399D03*
X104874800Y-71358399D03*
X104074800Y-60158401D03*
X104074800Y-60958401D03*
X104074800Y-61758400D03*
X104074800Y-62558400D03*
X104074800Y-63358400D03*
X104074800Y-64158400D03*
X104074800Y-64958400D03*
X104074800Y-65758400D03*
X104074800Y-66558400D03*
X104074800Y-67358400D03*
X104074800Y-68158400D03*
X104074800Y-68958400D03*
X104074800Y-69758400D03*
X104074800Y-70558399D03*
X104074800Y-71358399D03*
X103274801Y-60158401D03*
X103274801Y-60958401D03*
X103274801Y-61758400D03*
X103274801Y-62558400D03*
X103274801Y-63358400D03*
X103274801Y-64158400D03*
X103274801Y-64958400D03*
X103274801Y-65758400D03*
X103274801Y-66558400D03*
X103274801Y-67358400D03*
X103274801Y-68158400D03*
X103274801Y-68958400D03*
X103274801Y-69758400D03*
X103274801Y-70558399D03*
X103274801Y-71358399D03*
X102474801Y-60158401D03*
X102474801Y-60958401D03*
X102474801Y-61758400D03*
X102474801Y-62558400D03*
X102474801Y-63358400D03*
X102474801Y-64158400D03*
X102474801Y-64958400D03*
X102474801Y-65758400D03*
X102474801Y-66558400D03*
X102474801Y-67358400D03*
X102474801Y-68158400D03*
X102474801Y-68958400D03*
X102474801Y-69758400D03*
X102474801Y-70558399D03*
X102474801Y-71358399D03*
M02*
