M48
; DRILL file {KiCad 8.0.4} date 2024-09-06T21:03:07+0100
; FORMAT={-:-/ absolute / metric / decimal}
; #@! TF.CreationDate,2024-09-06T21:03:07+01:00
; #@! TF.GenerationSoftware,Kicad,Pcbnew,8.0.4
; #@! TF.FileFunction,Plated,1,6,PTH
FMAT,2
METRIC
; #@! TA.AperFunction,Plated,PTH,ViaDrill
T1C0.200
; #@! TA.AperFunction,Plated,PTH,ViaDrill
T2C0.400
; #@! TA.AperFunction,Plated,PTH,ComponentDrill
T3C0.500
; #@! TA.AperFunction,Plated,PTH,ComponentDrill
T4C0.600
; #@! TA.AperFunction,Plated,PTH,ComponentDrill
T5C0.750
; #@! TA.AperFunction,Plated,PTH,ComponentDrill
T6C0.800
; #@! TA.AperFunction,Plated,PTH,ComponentDrill
T7C0.900
; #@! TA.AperFunction,Plated,PTH,ComponentDrill
T8C0.950
; #@! TA.AperFunction,Plated,PTH,ComponentDrill
T9C1.000
; #@! TA.AperFunction,Plated,PTH,ComponentDrill
T10C1.300
; #@! TA.AperFunction,Plated,PTH,ComponentDrill
T11C1.500
; #@! TA.AperFunction,Plated,PTH,ComponentDrill
T12C2.300
%
G90
G05
T1
X47.65Y-74.168
X48.26Y-104.242
X48.315Y-74.012
X48.321Y-80.739
X49.073Y-107.645
X49.149Y-137.922
X49.276Y-83.312
X49.682Y-108.001
X50.566Y-78.232
X52.222Y-111.252
X52.426Y-102.667
X52.705Y-176.276
X52.832Y-78.232
X53.848Y-154.026
X55.88Y-81.788
X56.388Y-101.803
X56.591Y-159.487
X56.642Y-116.129
X57.15Y-115.57
X57.15Y-158.166
X58.359Y-83.987
X58.547Y-61.976
X58.928Y-42.926
X59.355Y-157.48
X64.008Y-73.66
X64.008Y-76.708
X64.262Y-112.687
X65.075Y-142.646
X66.294Y-76.327
X66.904Y-140.589
X67.056Y-63.754
X68.047Y-147.65
X68.097Y-61.9
X68.504Y-146.71
X68.834Y-61.849
X68.834Y-114.249
X69.088Y-71.628
X69.393Y-51.587
X69.545Y-114.783
X70.002Y-65.761
X70.139Y-51.781
X70.485Y-137.541
X70.739Y-51.308
X70.785Y-146.05
X70.993Y-61.214
X71.247Y-52.451
X71.425Y-90.932
X71.476Y-40.284
X71.501Y-127.254
X71.577Y-39.624
X71.628Y-39.014
X72.009Y-61.849
X72.136Y-74.168
X72.365Y-115.468
X72.39Y-110.388
X72.441Y-91.999
X72.771Y-72.898
X73.025Y-111.125
X73.203Y-74.168
X73.576Y-73.421
X73.914Y-113.03
X74.879Y-81.534
X74.879Y-82.347
X75.54Y-84.633
X76.149Y-89.002
X76.2Y-83.972
X76.302Y-56.236
X76.535Y-168.91
X76.581Y-51.308
X76.86Y-40.386
X76.86Y-56.794
X76.911Y-39.675
X76.962Y-38.354
X76.962Y-39.014
X77.445Y-110.388
X77.47Y-57.81
X77.572Y-77.114
X77.699Y-97.968
X77.775Y-84.633
X77.876Y-111.836
X78.029Y-105.715
X78.124Y-57.998
X78.435Y-140.31
X78.486Y-121.412
X78.613Y-104.648
X78.613Y-112.141
X78.664Y-167.081
X78.74Y-50.673
X78.791Y-56.998
X78.918Y-116.561
X78.994Y-40.132
X79.238Y-56.649
X79.629Y-72.263
X79.629Y-98.298
X80.132Y-56.794
X80.137Y-54.61
X80.137Y-109.601
X80.264Y-52.959
X80.721Y-56.845
X80.823Y-75.59
X80.899Y-53.467
X81.128Y-61.316
X81.28Y-77.013
X81.407Y-53.975
X81.686Y-76.454
X81.763Y-171.323
X81.89Y-55.22
X82.144Y-77.572
X82.601Y-62.992
X82.652Y-60.452
X82.652Y-72.949
X82.829Y-144.678
X83.058Y-62.433
X83.058Y-72.441
X83.261Y-83.007
X83.64Y-69.67
X83.693Y-125.73
X83.769Y-143.967
X83.947Y-85.09
X84.734Y-143.408
X84.91Y-70.229
X85.09Y-62.433
X85.192Y-54.762
X85.192Y-85.801
X85.395Y-67.158
X85.446Y-62.992
X85.446Y-66.142
X85.598Y-51.46
X85.73Y-85.105
X86.233Y-69.215
X86.233Y-117.043
X86.284Y-90.119
X86.5Y-26.7
X86.995Y-50.419
X87.173Y-69.24
X87.478Y-84.531
X87.536Y-82.738
X87.579Y-72.441
X87.605Y-129.108
X87.732Y-74.219
X87.782Y-65.176
X87.811Y-66.113
X87.95Y-75.6
X87.965Y-77.373
X87.965Y-157.48
X88.113Y-135.839
X88.163Y-143.459
X88.24Y-78.842
X88.265Y-89.535
X88.265Y-133.96
X88.341Y-73.0
X88.341Y-132.029
X88.653Y-86.055
X88.9Y-142.875
X88.936Y-75.946
X88.951Y-81.925
X89.306Y-49.606
X89.342Y-85.345
X89.383Y-42.113
X89.518Y-74.742
X89.525Y-82.908
X89.525Y-83.48
X89.536Y-143.525
X89.916Y-75.54
X89.992Y-124.638
X90.221Y-91.846
X90.449Y-151.232
X90.576Y-156.337
X90.627Y-86.004
X90.703Y-144.729
X90.83Y-90.83
X91.006Y-69.67
X91.237Y-74.625
X91.237Y-82.499
X91.338Y-91.389
X91.542Y-85.613
X91.666Y-69.772
X91.745Y-90.424
X91.77Y-135.763
X91.793Y-73.708
X91.948Y-142.367
X91.999Y-77.775
X91.999Y-116.434
X92.151Y-144.678
X92.253Y-76.352
X92.71Y-89.002
X92.812Y-128.88
X93.218Y-81.636
X93.218Y-121.615
X93.243Y-144.043
X93.624Y-47.346
X93.624Y-74.219
X93.624Y-128.448
X93.675Y-76.911
X93.98Y-64.719
X94.005Y-118.389
X94.005Y-154.813
X94.031Y-65.786
X94.107Y-141.605
X94.234Y-61.722
X94.488Y-38.735
X94.564Y-144.17
X94.615Y-50.038
X94.729Y-74.43
X94.742Y-59.944
X94.996Y-67.818
X95.25Y-84.455
X95.377Y-59.929
X95.425Y-129.5
X95.514Y-59.309
X95.809Y-75.235
X95.91Y-68.834
X95.961Y-69.647
X96.139Y-59.284
X96.208Y-85.166
X96.266Y-58.674
X97.028Y-58.674
X97.028Y-64.922
X97.028Y-78.842
X97.053Y-66.167
X97.08Y-86.142
X97.46Y-28.499
X97.485Y-27.254
X97.488Y-41.641
X97.739Y-78.232
X97.917Y-42.139
X97.917Y-101.854
X97.993Y-61.316
X98.019Y-49.479
X98.044Y-157.988
X98.146Y-45.974
X98.221Y-27.25
X98.425Y-101.6
X98.45Y-119.38
X98.552Y-58.293
X98.679Y-143.332
X98.806Y-53.213
X98.947Y-53.92
X99.07Y-100.33
X99.111Y-58.217
X99.2Y-60.948
X99.238Y-144.678
X99.263Y-73.101
X99.365Y-28.524
X99.416Y-118.77
X99.705Y-54.458
X99.771Y-85.75
X99.808Y-86.775
X99.812Y-88.959
X99.812Y-99.314
X99.822Y-53.721
X99.859Y-90.99
X99.92Y-73.549
X100.0Y-143.993
X100.076Y-157.988
X100.203Y-100.838
X100.432Y-36.474
X100.482Y-82.956
X100.533Y-85.598
X100.584Y-86.739
X100.609Y-122.326
X100.611Y-88.95
X100.686Y-90.475
X100.813Y-134.772
X101.092Y-52.705
X101.106Y-74.407
X101.244Y-72.913
X101.346Y-41.326
X101.473Y-50.673
X101.564Y-74.864
X101.808Y-75.346
X101.93Y-68.936
X101.956Y-59.69
X102.006Y-71.628
X102.08Y-70.178
X102.099Y-74.294
X102.159Y-75.946
X102.387Y-42.037
X102.667Y-58.826
X102.845Y-71.73
X102.845Y-138.405
X102.845Y-140.259
X102.921Y-137.211
X102.997Y-41.402
X103.175Y-59.182
X103.353Y-54.381
X103.378Y-53.721
X103.472Y-56.067
X103.657Y-70.155
X103.683Y-59.639
X103.746Y-50.934
X103.784Y-58.719
X103.886Y-55.575
X103.934Y-57.077
X103.988Y-54.915
X104.242Y-50.013
X104.279Y-57.696
X104.394Y-141.478
X104.401Y-66.084
X104.445Y-67.716
X104.496Y-65.43
X104.508Y-63.005
X104.902Y-117.932
X105.029Y-81.661
X105.029Y-141.986
X105.054Y-117.272
X105.115Y-49.693
X105.156Y-80.518
X105.169Y-62.175
X105.258Y-69.342
X105.258Y-71.78
X105.27Y-63.005
X105.283Y-68.58
X105.283Y-142.748
X105.308Y-70.155
X105.387Y-46.84
X105.562Y-109.855
X105.656Y-58.912
X105.918Y-46.228
X105.918Y-52.883
X105.918Y-56.794
X105.969Y-102.895
X106.009Y-68.58
X106.035Y-62.866
X106.045Y-66.929
X106.055Y-69.342
X106.056Y-66.178
X106.07Y-63.754
X106.07Y-65.329
X106.07Y-67.767
X106.077Y-64.56
X106.299Y-77.47
X106.451Y-120.371
X106.832Y-67.767
X106.862Y-66.171
X106.864Y-65.348
X106.865Y-61.508
X106.877Y-66.961
X106.883Y-62.941
X106.883Y-64.516
X106.883Y-68.58
X106.934Y-63.754
X107.174Y-58.343
X107.239Y-44.247
X107.315Y-50.114
X107.34Y-59.284
X107.391Y-52.248
X107.391Y-120.98
X107.417Y-50.775
X107.587Y-56.966
X107.607Y-66.201
X107.639Y-67.723
X107.645Y-63.754
X107.645Y-64.567
X107.645Y-65.329
X107.645Y-102.946
X107.671Y-68.554
X107.696Y-104.775
X107.772Y-105.74
X107.809Y-70.958
X107.848Y-52.934
X108.052Y-58.268
X108.204Y-78.232
X108.204Y-119.431
X108.331Y-46.228
X108.331Y-100.965
X108.331Y-101.981
X108.331Y-118.745
X108.433Y-97.892
X108.457Y-59.537
X108.458Y-62.992
X108.458Y-63.754
X108.458Y-64.516
X108.458Y-65.329
X108.458Y-66.142
X108.458Y-66.954
X108.462Y-67.771
X108.503Y-68.586
X108.585Y-52.07
X108.585Y-98.552
X108.585Y-109.677
X108.712Y-99.441
X108.763Y-45.364
X108.763Y-110.338
X108.839Y-100.457
X108.839Y-101.346
X109.109Y-51.939
X109.216Y-65.329
X109.22Y-23.901
X109.22Y-68.58
X109.245Y-62.154
X109.271Y-21.996
X109.271Y-66.142
X109.271Y-67.767
X109.275Y-61.493
X109.277Y-64.561
X109.322Y-63.805
X109.347Y-79.248
X109.347Y-80.264
X109.423Y-49.632
X109.474Y-46.228
X109.474Y-47.752
X109.626Y-54.559
X109.751Y-34.948
X109.855Y-35.814
X109.865Y-58.395
X109.865Y-72.467
X109.982Y-65.266
X110.015Y-62.898
X110.033Y-66.142
X110.033Y-66.954
X110.039Y-68.64
X110.057Y-67.655
X110.076Y-34.176
X110.084Y-64.567
X110.109Y-69.342
X110.312Y-88.849
X110.363Y-89.916
X110.388Y-49.022
X110.48Y-58.801
X110.49Y-46.736
X110.617Y-34.29
X110.617Y-57.658
X110.642Y-37.44
X110.693Y-78.029
X110.744Y-33.411
X110.795Y-64.465
X110.795Y-66.142
X110.845Y-59.616
X110.846Y-65.329
X110.846Y-66.934
X110.864Y-67.741
X110.871Y-62.23
X110.871Y-70.129
X110.896Y-60.554
X110.896Y-61.366
X110.947Y-53.34
X110.998Y-47.625
X110.998Y-48.412
X111.049Y-76.2
X111.252Y-46.228
X111.633Y-33.401
X111.684Y-74.27
X111.709Y-93.497
X111.76Y-84.455
X111.809Y-92.491
X111.963Y-121.971
X112.014Y-120.828
X112.065Y-47.295
X112.065Y-48.006
X112.09Y-109.652
X112.141Y-98.552
X112.141Y-101.473
X112.166Y-110.439
X112.192Y-111.684
X112.268Y-33.02
X112.268Y-99.568
X112.268Y-100.457
X112.293Y-105.74
X112.312Y-85.139
X112.37Y-82.245
X112.395Y-103.378
X112.395Y-104.013
X112.395Y-104.775
X112.522Y-63.754
X112.649Y-102.108
X112.776Y-100.965
X112.827Y-72.898
X113.03Y-129.898
X113.032Y-85.837
X113.081Y-136.017
X113.339Y-72.7
X113.436Y-102.718
X113.487Y-56.642
X113.548Y-84.03
X113.565Y-40.316
X113.741Y-31.471
X113.792Y-32.131
X113.984Y-40.657
X114.021Y-86.919
X114.097Y-56.134
X114.148Y-71.831
X114.15Y-38.872
X114.198Y-59.639
X114.246Y-38.341
X114.249Y-50.394
X114.3Y-34.417
X114.309Y-68.198
X114.376Y-33.757
X114.376Y-58.115
X114.427Y-39.751
X114.503Y-75.286
X114.706Y-63.329
X114.706Y-69.088
X114.808Y-65.024
X114.859Y-71.882
X115.062Y-79.72
X115.164Y-66.548
X115.265Y-75.235
X115.316Y-41.021
X115.367Y-54.864
X115.539Y-69.871
X115.824Y-41.656
X115.926Y-140.233
X116.078Y-68.834
X116.192Y-51.061
X116.281Y-33.147
X116.332Y-64.211
X116.586Y-58.369
X116.902Y-61.392
X116.992Y-51.816
X117.396Y-59.368
X117.603Y-71.471
X117.608Y-62.135
X117.704Y-129.235
X117.754Y-50.089
X117.805Y-50.902
X117.806Y-59.971
X117.856Y-41.275
X117.954Y-63.594
X118.103Y-62.35
X118.341Y-59.906
X118.347Y-58.877
X118.364Y-51.664
X118.491Y-79.248
X118.516Y-63.352
X118.738Y-60.272
X118.848Y-70.958
X119.177Y-61.773
X119.427Y-78.486
X119.532Y-64.618
X120.142Y-56.337
X120.193Y-52.781
X120.244Y-57.099
X120.244Y-61.112
X120.244Y-63.5
X120.294Y-58.166
X120.294Y-61.722
X120.294Y-62.433
X120.345Y-60.198
X120.427Y-78.486
X120.675Y-21.234
X120.777Y-67.945
X120.853Y-66.243
X120.904Y-77.521
X120.904Y-102.667
X121.158Y-69.647
X121.361Y-78.13
X121.539Y-68.453
X121.768Y-21.285
X121.92Y-45.974
X121.971Y-49.693
X122.174Y-60.604
X122.199Y-55.905
X122.225Y-56.744
X122.225Y-58.776
X122.225Y-59.588
X122.276Y-54.661
X122.276Y-57.81
X122.276Y-71.222
X122.314Y-36.843
X122.357Y-69.256
X122.43Y-68.72
X122.53Y-61.874
X122.555Y-105.435
X122.555Y-107.518
X122.667Y-61.163
X122.707Y-35.484
X123.295Y-70.875
X123.342Y-66.091
X123.444Y-68.961
X123.495Y-89.459
X123.671Y-70.487
X123.698Y-49.911
X123.901Y-121.564
X124.066Y-71.348
X124.079Y-38.608
X124.155Y-61.976
X124.282Y-89.991
X124.308Y-73.745
X124.333Y-58.674
X124.358Y-36.22
X124.409Y-148.387
X124.46Y-141.328
X124.588Y-62.409
X124.651Y-90.385
X124.7Y-73.362
X125.091Y-71.78
X125.324Y-31.344
X125.343Y-55.738
X125.425Y-147.676
X125.483Y-72.954
X125.647Y-72.171
X125.87Y-71.389
X125.882Y-56.286
X126.289Y-149.073
X126.365Y-51.943
X126.39Y-90.221
X126.441Y-21.184
X126.518Y-80.537
X126.543Y-81.585
X126.558Y-72.414
X126.898Y-79.553
X126.949Y-73.254
X127.0Y-74.371
X127.0Y-76.2
X127.0Y-76.962
X127.0Y-78.105
X127.051Y-74.981
X127.335Y-118.11
X127.406Y-21.209
X128.549Y-21.26
X128.651Y-70.739
X128.727Y-59.893
X128.93Y-79.502
X128.93Y-89.154
X129.032Y-76.962
X129.134Y-85.039
X129.286Y-74.32
X129.337Y-71.288
X129.413Y-58.674
X129.438Y-138.989
X129.489Y-76.302
X129.845Y-71.577
X130.151Y-72.434
X130.302Y-83.464
X130.382Y-71.733
X130.607Y-73.152
X130.912Y-66.853
X131.013Y-64.414
X131.013Y-65.735
X131.064Y-68.732
X131.115Y-115.062
X131.674Y-63.043
X132.385Y-73.762
X132.783Y-74.283
X132.967Y-62.658
X133.096Y-75.54
X133.502Y-89.764
X133.629Y-149.073
X133.655Y-82.601
X133.706Y-63.449
X133.76Y-74.983
X133.792Y-71.592
X133.833Y-119.431
X133.934Y-139.675
X134.01Y-62.154
X134.163Y-67.183
X134.315Y-73.66
X134.391Y-106.045
X134.493Y-100.457
X134.493Y-101.6
X134.493Y-104.14
X134.493Y-105.029
X134.544Y-142.773
X134.62Y-98.552
X134.62Y-99.441
X134.62Y-107.01
X134.62Y-109.804
X134.624Y-101.076
X134.671Y-62.128
X134.671Y-108.966
X134.696Y-110.414
X134.747Y-102.235
X134.747Y-103.505
X134.798Y-148.285
X135.042Y-108.04
X135.28Y-80.061
X135.331Y-84.938
X135.433Y-92.405
X135.636Y-62.027
X135.89Y-60.96
X136.017Y-73.66
X136.398Y-61.468
X136.906Y-67.818
X136.957Y-92.253
X137.109Y-80.264
X137.16Y-60.198
X137.287Y-90.043
X137.312Y-91.186
X137.414Y-71.628
X137.414Y-110.439
X137.82Y-90.729
X137.871Y-107.95
X137.973Y-109.322
X138.765Y-126.848
X138.786Y-54.508
X138.887Y-63.246
X139.446Y-61.468
X139.7Y-60.706
X140.208Y-99.441
X140.462Y-62.484
X140.716Y-60.071
X140.792Y-105.791
X140.919Y-127.584
X140.97Y-59.207
X141.097Y-44.831
X141.14Y-58.244
X141.351Y-35.687
X141.351Y-45.72
X141.478Y-47.752
X141.478Y-150.368
X141.605Y-46.355
X141.63Y-36.728
X141.63Y-54.661
X141.757Y-93.953
X141.757Y-68.353
X142.189Y-55.042
X142.748Y-53.213
X142.926Y-97.79
X143.535Y-106.883
X143.535Y-112.446
X143.764Y-58.166
X143.866Y-131.978
X143.891Y-62.865
X144.069Y-55.22
X144.078Y-57.159
X144.882Y-141.935
X144.983Y-55.524
X145.059Y-149.885
X145.202Y-60.716
X145.542Y-103.505
X145.669Y-90.805
X146.177Y-104.14
X146.647Y-115.176
X146.939Y-98.552
X146.939Y-105.029
X147.65Y-116.23
X148.209Y-100.33
X148.209Y-100.965
X148.209Y-101.727
X148.209Y-102.362
X148.463Y-97.511
X149.047Y-117.729
X149.174Y-60.376
X150.089Y-107.594
X150.444Y-119.609
X150.571Y-48.565
X150.851Y-108.28
T2
X45.212Y-70.104
X45.212Y-73.406
X45.397Y-105.512
X45.415Y-103.581
X45.618Y-60.909
X46.228Y-64.465
X46.736Y-70.104
X46.99Y-61.671
X48.496Y-81.886
X48.717Y-59.893
X48.768Y-69.596
X48.92Y-109.525
X49.022Y-119.38
X49.276Y-74.168
X49.276Y-92.71
X50.292Y-69.596
X50.292Y-80.772
X50.292Y-81.788
X50.292Y-113.538
X50.8Y-70.993
X50.8Y-92.71
X51.308Y-80.772
X51.308Y-81.788
X51.384Y-75.057
X51.816Y-69.596
X52.07Y-119.634
X52.324Y-80.772
X52.324Y-81.788
X52.426Y-59.995
X52.476Y-46.584
X52.578Y-105.664
X52.578Y-106.68
X52.578Y-107.696
X52.832Y-75.184
X53.086Y-98.044
X53.289Y-110.947
X53.34Y-69.088
X53.34Y-80.772
X53.34Y-81.788
X53.34Y-102.464
X53.594Y-105.664
X53.594Y-106.68
X53.594Y-107.696
X53.848Y-117.094
X54.356Y-102.362
X54.61Y-105.664
X54.61Y-106.68
X54.61Y-107.696
X54.61Y-111.724
X54.864Y-69.596
X55.118Y-97.808
X55.321Y-71.298
X55.372Y-117.094
X55.88Y-69.596
X55.88Y-78.931
X56.134Y-94.996
X56.896Y-75.184
X56.896Y-93.218
X57.15Y-95.758
X57.404Y-69.088
X57.404Y-77.216
X57.963Y-119.634
X58.064Y-107.594
X58.293Y-67.97
X58.318Y-60.249
X58.623Y-104.242
X58.928Y-69.088
X58.928Y-85.344
X58.979Y-56.134
X59.08Y-88.951
X59.436Y-75.184
X59.436Y-113.538
X59.944Y-90.932
X59.944Y-119.888
X59.969Y-73.025
X60.046Y-110.541
X60.198Y-93.472
X60.35Y-102.616
X60.554Y-60.401
X60.554Y-68.097
X60.706Y-113.538
X60.858Y-56.134
X61.417Y-109.068
X61.468Y-76.708
X61.722Y-118.618
X61.925Y-70.968
X61.976Y-113.538
X62.23Y-117.094
X62.484Y-64.516
X62.484Y-67.564
X62.535Y-59.842
X62.941Y-103.632
X62.992Y-81.28
X63.5Y-95.25
X63.551Y-59.792
X63.754Y-74.574
X64.262Y-101.092
X64.313Y-109.068
X64.516Y-63.5
X64.516Y-67.564
X64.973Y-34.747
X65.024Y-73.152
X65.024Y-105.41
X65.38Y-40.742
X65.532Y-80.518
X65.989Y-62.027
X66.04Y-59.741
X66.04Y-66.04
X66.04Y-78.74
X66.04Y-90.424
X66.04Y-91.948
X66.218Y-69.469
X66.396Y-57.506
X66.446Y-56.312
X67.056Y-109.22
X67.31Y-79.756
X67.386Y-58.293
X67.564Y-81.28
X67.564Y-93.472
X67.564Y-94.488
X67.564Y-95.504
X67.564Y-96.52
X67.564Y-97.536
X67.818Y-56.54
X67.818Y-110.49
X67.818Y-113.03
X67.818Y-115.062
X68.732Y-37.186
X68.732Y-38.354
X68.834Y-42.4
X68.834Y-43.688
X69.545Y-105.156
X69.596Y-112.776
X69.85Y-95.758
X69.977Y-41.656
X70.18Y-102.159
X70.8Y-25.2
X70.866Y-100.838
X71.12Y-107.188
X72.0Y-26.2
X73.6Y-20.6
X74.168Y-100.584
X74.4Y-24.2
X74.8Y-23.4
X75.234Y-43.2
X75.438Y-93.218
X75.438Y-99.822
X75.946Y-49.022
X76.0Y-30.0
X76.327Y-85.979
X76.708Y-109.093
X77.209Y-85.725
X77.4Y-34.4
X77.597Y-96.52
X78.6Y-22.6
X79.6Y-25.7
X82.398Y-79.096
X82.423Y-86.36
X83.312Y-85.852
X84.6Y-22.4
X85.42Y-80.315
X94.973Y-27.683
X95.783Y-137.668
X96.396Y-29.284
X96.749Y-119.304
X96.952Y-123.368
X97.053Y-148.082
X97.155Y-137.668
X97.333Y-35.103
X98.171Y-123.368
X98.4Y-29.794
X98.402Y-35.176
X99.06Y-158.242
X99.06Y-164.084
X99.464Y-123.33
X99.466Y-35.077
X100.383Y-29.334
X101.092Y-160.274
X101.092Y-163.83
X101.27Y-121.133
X101.755Y-27.556
X101.854Y-108.585
X103.124Y-96.52
X106.934Y-160.274
X116.834Y-28.764
X117.068Y-26.459
X117.298Y-23.03
X117.4Y-33.8
X117.6Y-31.35
X119.149Y-35.541
X122.981Y-21.093
X124.854Y-53.848
X125.068Y-21.059
X125.476Y-163.068
X125.476Y-168.91
X126.492Y-49.911
X127.604Y-35.978
X128.016Y-52.705
X128.27Y-155.448
X128.27Y-156.972
X129.045Y-53.848
X129.54Y-159.258
X130.556Y-61.214
X131.572Y-158.242
X131.572Y-170.18
X133.096Y-150.876
X133.2Y-23.6
X133.2Y-27.4
X134.112Y-149.86
X134.747Y-78.588
X134.925Y-82.245
X135.433Y-86.589
X136.398Y-56.497
X138.176Y-147.32
X138.176Y-148.844
X138.43Y-52.07
X139.954Y-160.528
X139.954Y-162.052
X139.954Y-163.576
X141.478Y-160.528
X141.478Y-162.052
X141.478Y-163.576
X142.469Y-86.766
X142.672Y-79.223
X142.748Y-73.812
X143.002Y-32.106
X143.002Y-147.32
X143.002Y-160.528
X143.002Y-162.052
X143.002Y-163.576
X143.764Y-59.842
X144.018Y-151.384
X145.237Y-76.657
X145.364Y-86.614
X148.031Y-64.567
X148.082Y-28.854
X148.082Y-146.812
X150.114Y-153.924
X150.622Y-143.51
X151.1Y-25.3
X151.13Y-159.004
X151.13Y-165.1
X151.13Y-168.656
X151.2Y-22.2
X151.638Y-156.464
T3
X51.648Y-51.437
X52.898Y-51.437
X111.572Y-57.641
X113.472Y-57.641
T5
X50.267Y-64.643
X50.267Y-66.643
T6
X66.155Y-22.0
X66.155Y-28.0
X68.155Y-22.0
X68.155Y-28.0
X79.845Y-34.8
X81.845Y-34.8
T7
X60.909Y-124.46
X60.909Y-127.0
X60.909Y-129.54
X67.056Y-118.059
X69.596Y-118.059
X72.136Y-118.059
X75.362Y-130.099
X79.934Y-123.596
X79.934Y-130.099
T8
X95.052Y-168.376
X97.552Y-168.376
X99.552Y-168.376
X102.052Y-168.376
T9
X49.174Y-131.724
X49.382Y-169.692
X49.382Y-172.192
X54.61Y-149.86
X55.88Y-61.976
X61.976Y-84.587
X61.976Y-87.127
X69.063Y-74.442
X69.063Y-76.982
X72.898Y-67.056
X85.598Y-173.228
X86.5Y-22.3
X92.202Y-32.766
X109.271Y-30.175
X115.565Y-105.816
X116.84Y-145.898
X118.105Y-105.816
X119.99Y-157.221
X119.99Y-159.761
X119.99Y-162.301
X119.99Y-164.841
X119.99Y-167.381
X126.604Y-38.862
X129.144Y-38.862
X131.684Y-38.862
X137.668Y-39.243
X138.375Y-22.225
X142.875Y-22.225
X149.225Y-36.775
X149.225Y-41.275
X149.225Y-52.65
X149.225Y-57.15
T10
X52.008Y-29.85
X54.707Y-28.65
X57.207Y-21.85
X61.307Y-33.05
X61.807Y-25.75
X78.843Y-48.006
X85.343Y-48.006
X137.125Y-24.725
X144.125Y-24.725
X146.725Y-35.525
X146.725Y-42.525
X146.725Y-51.4
X146.725Y-58.4
T12
X91.982Y-171.086
X105.122Y-171.086
T4
X94.082Y-20.364G85X94.082Y-20.964
G05
X94.082Y-24.294G85X94.082Y-25.394
G05
X102.722Y-20.364G85X102.722Y-20.964
G05
X102.722Y-24.294G85X102.722Y-25.394
G05
T7
X64.166Y-120.498G85X64.866Y-120.498
G05
X64.166Y-133.198G85X64.866Y-133.198
G05
X74.301Y-120.498G85X75.001Y-120.498
G05
X74.301Y-133.198G85X75.001Y-133.198
G05
T11
X75.212Y-123.896G85X75.212Y-126.496
G05
M30
