M48
; DRILL file {KiCad 8.0.4} date 2024-11-24T15:21:59+0000
; FORMAT={-:-/ absolute / metric / decimal}
; #@! TF.CreationDate,2024-11-24T15:21:59+00:00
; #@! TF.GenerationSoftware,Kicad,Pcbnew,8.0.4
; #@! TF.FileFunction,Plated,1,6,PTH
FMAT,2
METRIC
; #@! TA.AperFunction,Plated,PTH,ViaDrill
T1C0.200
; #@! TA.AperFunction,Plated,PTH,ViaDrill
T2C0.400
; #@! TA.AperFunction,Plated,PTH,ComponentDrill
T3C0.500
; #@! TA.AperFunction,Plated,PTH,ComponentDrill
T4C0.600
; #@! TA.AperFunction,Plated,PTH,ComponentDrill
T5C0.750
; #@! TA.AperFunction,Plated,PTH,ComponentDrill
T6C0.800
; #@! TA.AperFunction,Plated,PTH,ComponentDrill
T7C0.900
; #@! TA.AperFunction,Plated,PTH,ComponentDrill
T8C0.950
; #@! TA.AperFunction,Plated,PTH,ComponentDrill
T9C1.000
; #@! TA.AperFunction,Plated,PTH,ComponentDrill
T10C1.300
; #@! TA.AperFunction,Plated,PTH,ComponentDrill
T11C1.500
; #@! TA.AperFunction,Plated,PTH,ComponentDrill
T12C2.300
%
G90
G05
T1
X47.625Y-73.787
X48.235Y-74.244
X48.26Y-104.242
X48.75Y-109.325
X49.073Y-107.645
X49.149Y-137.922
X49.682Y-108.001
X52.222Y-111.252
X52.426Y-102.667
X52.705Y-176.276
X53.848Y-154.026
X55.626Y-153.34
X56.388Y-101.803
X56.591Y-159.487
X57.15Y-158.166
X57.683Y-115.494
X57.937Y-114.884
X58.969Y-45.679
X59.355Y-157.48
X59.36Y-66.878
X59.614Y-134.544
X64.262Y-112.687
X65.075Y-142.646
X66.751Y-141.046
X68.047Y-147.65
X68.504Y-146.71
X69.088Y-71.628
X69.393Y-135.56
X70.079Y-68.555
X70.785Y-146.05
X70.993Y-51.511
X71.476Y-40.284
X71.577Y-39.624
X71.628Y-39.014
X72.136Y-74.168
X72.974Y-95.148
X73.406Y-94.107
X73.863Y-94.539
X75.438Y-74.219
X75.921Y-78.664
X76.175Y-152.654
X76.535Y-168.91
X76.632Y-73.304
X76.683Y-39.7
X76.683Y-40.335
X76.962Y-38.354
X76.987Y-87.198
X77.048Y-86.347
X77.073Y-85.372
X77.318Y-78.969
X77.572Y-138.557
X77.597Y-68.123
X77.597Y-95.809
X77.622Y-60.223
X77.622Y-66.091
X77.648Y-116.18
X77.749Y-76.479
X77.749Y-97.892
X78.094Y-92.173
X78.097Y-85.332
X78.105Y-94.869
X78.148Y-86.348
X78.207Y-66.548
X78.283Y-98.501
X78.283Y-115.595
X78.498Y-83.097
X78.588Y-91.415
X78.638Y-95.91
X78.647Y-83.828
X78.647Y-84.828
X78.664Y-55.753
X78.664Y-167.081
X78.715Y-49.454
X78.765Y-40.742
X78.765Y-58.816
X78.867Y-65.634
X79.019Y-117.043
X79.019Y-146.837
X79.045Y-94.107
X79.189Y-83.122
X79.578Y-55.855
X79.578Y-68.148
X79.578Y-74.346
X79.578Y-94.513
X79.604Y-61.62
X79.647Y-84.828
X79.654Y-91.821
X80.189Y-91.957
X80.34Y-63.094
X80.34Y-74.828
X80.62Y-117.983
X80.645Y-95.783
X80.645Y-116.51
X80.721Y-92.304
X80.823Y-83.272
X80.848Y-91.237
X80.899Y-75.184
X80.975Y-63.576
X81.432Y-151.155
X81.559Y-92.812
X81.585Y-57.988
X81.585Y-94.386
X81.585Y-95.123
X81.61Y-67.615
X81.61Y-75.794
X81.647Y-86.828
X81.647Y-87.828
X81.763Y-171.323
X81.813Y-77.953
X81.991Y-77.419
X82.017Y-78.562
X82.067Y-80.162
X82.118Y-64.287
X82.118Y-93.203
X82.144Y-112.37
X82.237Y-86.856
X82.245Y-57.988
X82.245Y-111.531
X82.313Y-87.872
X82.448Y-52.857
X82.702Y-80.264
X82.825Y-93.216
X82.855Y-97.714
X83.16Y-54.458
X83.185Y-79.873
X83.337Y-111.658
X83.388Y-109.144
X83.414Y-93.447
X83.591Y-51.486
X83.642Y-54.849
X83.642Y-79.482
X83.693Y-125.73
X84.587Y-67.791
X84.724Y-54.969
X85.115Y-55.855
X85.293Y-51.613
X85.573Y-54.026
X86.03Y-53.543
X86.157Y-64.846
X86.233Y-117.043
X86.284Y-58.166
X86.36Y-130.531
X86.411Y-39.014
X86.5Y-26.7
X86.766Y-80.493
X86.792Y-50.343
X86.893Y-120.04
X87.63Y-60.721
X87.745Y-117.246
X87.782Y-69.037
X87.965Y-157.48
X88.017Y-79.974
X88.017Y-83.974
X88.017Y-86.374
X88.017Y-88.774
X88.017Y-89.574
X88.017Y-90.374
X88.017Y-91.174
X88.29Y-58.242
X88.367Y-62.636
X88.409Y-69.113
X88.798Y-61.874
X88.817Y-80.774
X88.817Y-82.374
X88.817Y-83.174
X88.817Y-83.974
X88.817Y-86.374
X88.817Y-87.974
X88.817Y-88.774
X88.817Y-89.574
X88.817Y-90.374
X88.845Y-73.889
X88.849Y-58.09
X88.898Y-96.347
X88.898Y-96.947
X89.141Y-68.618
X89.462Y-73.022
X89.474Y-108.072
X89.474Y-109.072
X89.508Y-99.26
X89.617Y-80.774
X89.617Y-81.574
X89.617Y-83.174
X89.617Y-86.374
X89.617Y-87.974
X89.617Y-88.774
X89.617Y-89.574
X89.617Y-91.174
X89.789Y-52.934
X89.789Y-58.064
X89.891Y-64.414
X89.891Y-67.158
X89.923Y-97.822
X90.099Y-105.472
X90.145Y-58.547
X90.18Y-59.118
X90.18Y-63.035
X90.246Y-118.034
X90.26Y-41.468
X90.297Y-63.942
X90.416Y-80.774
X90.416Y-82.374
X90.416Y-84.774
X90.416Y-85.574
X90.416Y-86.374
X90.416Y-87.174
X90.416Y-87.974
X90.416Y-91.174
X90.424Y-66.599
X90.449Y-151.232
X90.474Y-106.072
X90.474Y-107.072
X90.474Y-108.072
X90.474Y-109.072
X90.5Y-52.756
X90.5Y-152.121
X90.508Y-99.26
X90.522Y-78.896
X90.564Y-121.488
X90.576Y-156.337
X90.822Y-82.004
X90.856Y-42.215
X90.923Y-105.472
X90.973Y-77.691
X91.008Y-63.043
X91.216Y-79.974
X91.216Y-80.774
X91.216Y-81.574
X91.216Y-82.374
X91.216Y-83.974
X91.216Y-85.574
X91.216Y-86.374
X91.216Y-87.174
X91.216Y-87.974
X91.313Y-58.776
X91.364Y-78.105
X91.415Y-61.112
X91.508Y-100.26
X91.592Y-85.141
X91.618Y-44.831
X91.745Y-42.824
X91.821Y-64.846
X91.872Y-59.182
X91.897Y-66.243
X91.974Y-99.772
X91.999Y-76.098
X92.016Y-83.974
X92.016Y-84.774
X92.016Y-85.574
X92.016Y-86.374
X92.016Y-87.174
X92.016Y-87.974
X92.016Y-88.774
X92.016Y-90.374
X92.016Y-91.174
X92.023Y-105.497
X92.023Y-106.522
X92.329Y-51.054
X92.405Y-81.89
X92.456Y-53.111
X92.507Y-58.547
X92.508Y-96.26
X92.508Y-100.26
X92.583Y-43.891
X92.583Y-65.735
X92.784Y-75.726
X92.816Y-82.374
X92.816Y-83.174
X92.816Y-83.974
X92.816Y-84.774
X92.816Y-85.574
X92.816Y-86.374
X92.816Y-87.174
X92.816Y-87.974
X92.816Y-88.774
X92.816Y-91.174
X92.998Y-96.772
X93.023Y-98.772
X93.023Y-99.722
X93.32Y-52.832
X93.345Y-55.88
X93.431Y-67.379
X93.474Y-109.072
X93.508Y-96.26
X93.553Y-74.898
X93.599Y-44.247
X93.617Y-79.974
X93.617Y-82.374
X93.617Y-83.174
X93.617Y-83.974
X93.617Y-84.774
X93.617Y-85.574
X93.617Y-86.374
X93.617Y-87.174
X93.617Y-87.974
X93.617Y-88.774
X93.617Y-89.574
X93.673Y-95.572
X93.726Y-58.318
X93.853Y-74.422
X93.955Y-64.77
X93.955Y-116.815
X94.005Y-154.813
X94.023Y-81.217
X94.048Y-98.797
X94.048Y-110.072
X94.148Y-109.097
X94.259Y-63.602
X94.31Y-58.115
X94.416Y-83.974
X94.416Y-84.774
X94.416Y-85.574
X94.416Y-86.374
X94.416Y-87.174
X94.416Y-87.974
X94.416Y-88.774
X94.488Y-67.361
X94.717Y-53.289
X94.767Y-55.88
X94.773Y-110.072
X94.793Y-70.536
X94.844Y-136.195
X94.965Y-59.941
X95.123Y-72.492
X95.216Y-80.774
X95.216Y-81.574
X95.216Y-82.374
X95.216Y-83.174
X95.216Y-83.974
X95.216Y-84.774
X95.216Y-85.574
X95.216Y-86.374
X95.216Y-87.174
X95.216Y-87.974
X95.216Y-91.174
X95.453Y-60.198
X95.622Y-83.759
X95.809Y-54.432
X95.809Y-55.956
X95.86Y-60.604
X95.863Y-72.394
X95.885Y-69.571
X95.936Y-58.293
X96.016Y-80.774
X96.016Y-86.374
X96.016Y-87.174
X96.016Y-90.374
X96.016Y-91.174
X96.193Y-61.443
X96.368Y-45.288
X96.52Y-83.617
X96.749Y-46.888
X96.816Y-80.774
X96.816Y-81.574
X96.816Y-82.374
X96.816Y-86.374
X96.816Y-87.174
X96.816Y-88.774
X96.816Y-89.574
X96.816Y-90.374
X96.816Y-91.174
X96.827Y-117.856
X96.952Y-67.386
X97.206Y-78.588
X97.223Y-82.817
X97.46Y-138.379
X97.617Y-80.774
X97.617Y-81.574
X97.617Y-82.374
X97.617Y-83.174
X97.617Y-83.974
X97.617Y-84.774
X97.617Y-85.574
X97.617Y-86.374
X97.617Y-87.174
X97.617Y-87.974
X97.617Y-89.574
X97.617Y-90.374
X97.688Y-70.51
X97.706Y-77.461
X97.739Y-40.234
X97.79Y-59.106
X97.79Y-63.094
X97.866Y-50.8
X97.892Y-54.331
X98.044Y-39.7
X98.196Y-70.028
X98.221Y-27.25
X98.247Y-67.132
X98.251Y-77.546
X98.273Y-55.804
X98.298Y-58.242
X98.416Y-80.774
X98.416Y-81.574
X98.416Y-83.174
X98.416Y-83.974
X98.416Y-84.774
X98.416Y-85.574
X98.416Y-86.374
X98.416Y-87.974
X98.416Y-88.774
X98.416Y-89.574
X98.416Y-90.374
X98.654Y-77.14
X98.704Y-67.488
X98.781Y-49.936
X98.806Y-66.269
X98.831Y-57.963
X99.162Y-60.985
X99.212Y-68.275
X99.212Y-77.114
X99.216Y-79.974
X99.216Y-85.574
X99.216Y-86.374
X99.216Y-91.174
X99.263Y-58.928
X99.263Y-60.427
X99.365Y-28.524
X99.593Y-79.201
X99.672Y-76.733
X100.051Y-76.251
X100.13Y-78.872
X100.272Y-111.016
X100.322Y-88.05
X100.461Y-76.657
X100.521Y-79.297
X100.804Y-88.481
X100.863Y-76.276
X100.914Y-140.106
X101.135Y-85.002
X101.16Y-83.739
X101.194Y-94.183
X101.363Y-88.939
X101.442Y-94.823
X101.744Y-84.595
X101.744Y-85.245
X101.93Y-95.275
X102.133Y-110.261
X102.201Y-85.738
X102.215Y-117.856
X102.227Y-90.056
X102.235Y-72.898
X102.235Y-99.771
X102.282Y-94.154
X102.303Y-89.415
X102.311Y-108.407
X102.328Y-84.138
X102.405Y-83.554
X102.413Y-109.322
X102.768Y-59.487
X102.768Y-86.106
X102.87Y-53.492
X102.895Y-81.051
X102.972Y-109.804
X103.073Y-68.605
X103.124Y-71.933
X103.167Y-90.539
X103.28Y-59.157
X103.379Y-93.519
X103.403Y-52.705
X103.429Y-70.358
X103.434Y-94.889
X103.454Y-111.658
X103.505Y-113.055
X103.683Y-60.173
X103.708Y-116.484
X103.734Y-117.145
X103.759Y-67.158
X103.861Y-94.132
X103.861Y-109.017
X103.929Y-89.548
X104.089Y-53.518
X104.292Y-112.878
X104.343Y-66.497
X104.343Y-76.378
X104.369Y-110.668
X104.372Y-94.564
X104.775Y-83.007
X104.775Y-94.078
X104.902Y-113.513
X104.953Y-112.598
X105.004Y-111.709
X105.131Y-76.784
X105.156Y-80.518
X105.283Y-92.757
X105.334Y-79.477
X105.385Y-69.85
X105.588Y-70.663
X105.605Y-84.748
X105.836Y-76.987
X105.842Y-92.757
X106.274Y-79.477
X106.402Y-76.974
X106.807Y-89.433
X106.883Y-77.22
X107.188Y-41.097
X107.213Y-50.673
X107.213Y-79.477
X107.315Y-101.041
X107.417Y-76.886
X107.813Y-85.09
X107.848Y-77.22
X107.95Y-100.584
X108.001Y-65.38
X108.255Y-85.547
X108.28Y-86.208
X108.433Y-100.076
X108.451Y-77.524
X108.534Y-83.134
X108.585Y-64.77
X108.661Y-79.908
X108.864Y-99.593
X108.941Y-77.8
X109.068Y-94.818
X109.22Y-23.901
X109.271Y-21.996
X109.271Y-64.262
X109.917Y-95.609
X109.957Y-63.754
X110.058Y-138.786
X110.185Y-133.35
X110.363Y-96.012
X110.439Y-41.859
X110.515Y-105.435
X110.769Y-96.418
X110.998Y-63.094
X111.1Y-104.216
X111.121Y-77.365
X111.15Y-96.825
X111.227Y-143.866
X111.328Y-89.637
X111.455Y-51.425
X111.531Y-139.979
X111.557Y-76.911
X111.658Y-77.902
X111.785Y-103.886
X111.989Y-62.56
X112.014Y-90.043
X112.293Y-78.029
X112.395Y-103.327
X112.471Y-51.206
X112.497Y-39.141
X112.596Y-91.744
X112.776Y-134.95
X112.801Y-61.493
X112.852Y-78.791
X112.979Y-50.698
X113.03Y-111.814
X113.03Y-129.898
X113.034Y-77.974
X113.081Y-136.017
X113.182Y-50.038
X113.335Y-91.694
X113.436Y-102.718
X113.665Y-108.433
X113.767Y-61.062
X113.843Y-49.352
X113.944Y-91.846
X114.122Y-132.131
X114.452Y-60.35
X114.554Y-109.906
X114.706Y-92.278
X114.91Y-39.649
X115.214Y-59.538
X115.316Y-92.456
X115.799Y-117.069
X115.926Y-140.233
X116.055Y-71.809
X116.103Y-57.429
X116.455Y-65.43
X116.561Y-62.23
X116.865Y-112.217
X117.704Y-129.235
X117.729Y-72.771
X118.161Y-116.408
X118.275Y-42.761
X118.364Y-131.445
X118.948Y-55.093
X119.05Y-113.284
X119.558Y-66.599
X119.685Y-132.537
X119.761Y-54.61
X119.913Y-75.59
X120.523Y-53.95
X120.599Y-79.096
X120.65Y-69.85
X120.777Y-64.77
X120.853Y-21.057
X120.904Y-102.667
X121.133Y-31.902
X121.844Y-21.057
X122.022Y-75.667
X122.072Y-147.599
X122.174Y-55.397
X122.199Y-83.998
X122.403Y-67.92
X122.733Y-78.943
X122.885Y-55.016
X122.936Y-68.402
X122.987Y-75.717
X122.987Y-164.744
X123.012Y-62.611
X123.012Y-107.239
X123.215Y-63.17
X123.241Y-78.384
X123.241Y-84.557
X123.263Y-54.587
X123.368Y-69.926
X123.419Y-66.878
X123.794Y-54.438
X123.901Y-121.564
X124.358Y-72.898
X124.536Y-83.947
X124.714Y-106.248
X124.816Y-91.186
X124.993Y-86.36
X125.451Y-81.585
X125.451Y-105.334
X125.476Y-61.773
X125.476Y-83.033
X125.806Y-73.228
X125.933Y-104.572
X126.06Y-82.575
X126.263Y-21.057
X126.619Y-103.759
X126.695Y-82.194
X127.279Y-148.336
X127.33Y-21.031
X127.335Y-118.11
X127.335Y-138.278
X127.381Y-81.305
X127.686Y-78.486
X127.914Y-81.966
X128.448Y-21.082
X128.727Y-59.893
X128.803Y-75.514
X128.956Y-132.004
X129.032Y-164.109
X129.438Y-138.989
X130.912Y-66.853
X131.013Y-64.414
X131.013Y-65.735
X131.064Y-68.732
X131.115Y-115.062
X132.512Y-109.017
X132.74Y-132.715
X133.553Y-70.815
X133.833Y-119.431
X134.214Y-70.028
X134.544Y-142.773
X135.306Y-52.807
X135.687Y-61.747
X135.763Y-66.472
X137.236Y-165.481
X138.765Y-126.848
X139.014Y-62.56
X139.598Y-63.068
X139.802Y-118.364
X139.827Y-116.561
X140.919Y-127.584
X141.478Y-149.987
X141.757Y-93.953
X141.757Y-68.353
X142.24Y-64.262
X143.002Y-64.465
X143.637Y-64.618
X143.866Y-131.978
X143.916Y-58.674
X144.501Y-107.34
X144.704Y-141.503
X144.907Y-132.766
X145.136Y-108.331
X146.05Y-63.195
X146.101Y-104.623
X146.228Y-142.215
X146.761Y-103.988
X147.396Y-165.227
X147.549Y-106.324
X148.107Y-105.334
T2
X45.212Y-70.104
X45.212Y-73.406
X45.415Y-103.581
X45.542Y-92.151
X45.618Y-60.909
X46.228Y-64.465
X46.304Y-91.262
X46.575Y-86.85
X46.736Y-70.104
X46.99Y-61.671
X47.425Y-107.275
X48.375Y-78.075
X48.425Y-85.525
X48.7Y-75.85
X48.717Y-59.893
X48.768Y-69.596
X48.8Y-89.65
X49.276Y-74.168
X49.276Y-92.71
X49.3Y-80.35
X49.7Y-88.45
X50.05Y-79.2
X50.292Y-69.596
X50.475Y-82.725
X50.546Y-119.482
X50.597Y-117.958
X50.8Y-92.71
X51.137Y-80.287
X51.6Y-68.45
X51.74Y-114.579
X51.75Y-112.175
X52.07Y-119.634
X52.225Y-113.3
X52.426Y-59.995
X52.476Y-46.584
X52.476Y-93.421
X52.578Y-105.664
X52.578Y-106.68
X52.578Y-107.696
X52.857Y-92.38
X53.035Y-101.331
X53.086Y-98.044
X53.34Y-102.464
X53.594Y-105.664
X53.594Y-106.68
X53.594Y-107.696
X53.775Y-70.025
X53.848Y-117.094
X54.356Y-102.362
X54.61Y-105.664
X54.61Y-106.68
X54.61Y-107.696
X55.118Y-97.808
X55.139Y-101.331
X55.372Y-117.094
X55.875Y-88.75
X55.975Y-86.825
X56.134Y-94.996
X56.6Y-80.85
X56.642Y-122.707
X56.75Y-113.45
X56.845Y-115.849
X56.896Y-93.218
X57.15Y-95.758
X57.836Y-122.733
X57.963Y-119.634
X58.064Y-107.594
X58.318Y-60.249
X58.623Y-104.242
X58.852Y-88.468
X58.979Y-56.134
X59.436Y-113.538
X59.944Y-119.888
X59.95Y-82.525
X60.046Y-110.541
X60.198Y-93.472
X60.35Y-102.616
X60.45Y-75.325
X60.554Y-60.401
X60.706Y-113.538
X60.858Y-56.134
X61.417Y-109.068
X61.722Y-118.618
X61.925Y-63.754
X61.976Y-113.538
X62.23Y-117.094
X62.484Y-64.516
X62.535Y-59.842
X62.6Y-73.425
X62.941Y-103.632
X63.325Y-80.5
X63.425Y-85.35
X63.5Y-95.25
X63.551Y-59.792
X64.175Y-67.8
X64.262Y-101.092
X64.313Y-109.068
X64.973Y-34.747
X65.38Y-40.742
X65.495Y-67.608
X65.65Y-73.275
X65.825Y-69.325
X66.0Y-105.41
X66.04Y-59.741
X66.04Y-66.04
X66.04Y-91.948
X67.225Y-82.55
X67.564Y-93.472
X67.564Y-94.488
X67.564Y-95.504
X67.564Y-96.52
X67.564Y-97.536
X67.818Y-110.49
X67.818Y-113.03
X67.818Y-115.062
X68.732Y-37.186
X68.732Y-38.354
X68.834Y-42.4
X68.834Y-43.688
X69.317Y-95.606
X69.545Y-105.156
X69.596Y-112.776
X69.977Y-41.656
X70.18Y-102.159
X70.282Y-93.878
X70.663Y-91.237
X70.688Y-90.145
X70.739Y-86.741
X70.739Y-87.884
X70.8Y-25.2
X70.8Y-106.425
X70.866Y-100.838
X72.0Y-26.2
X72.125Y-107.275
X73.584Y-52.375
X73.6Y-20.6
X74.168Y-100.584
X74.4Y-24.2
X74.625Y-53.416
X74.8Y-23.4
X75.234Y-43.2
X75.235Y-96.453
X75.438Y-99.822
X75.946Y-49.022
X76.0Y-30.0
X76.302Y-52.4
X76.352Y-53.569
X76.708Y-109.093
X77.4Y-34.4
X77.597Y-55.601
X78.6Y-22.6
X78.74Y-72.492
X79.6Y-25.7
X82.702Y-46.965
X84.6Y-22.4
X86.665Y-47.041
X86.944Y-51.664
X87.875Y-37.075
X90.17Y-128.27
X91.059Y-131.445
X91.059Y-141.732
X91.313Y-123.825
X91.821Y-121.412
X91.948Y-127.508
X92.202Y-77.216
X92.202Y-120.396
X92.329Y-141.732
X92.964Y-126.111
X93.218Y-119.888
X93.472Y-118.618
X93.726Y-78.486
X94.361Y-125.222
X94.411Y-127.636
X94.742Y-74.676
X94.869Y-126.873
X94.973Y-27.683
X95.25Y-29.972
X95.25Y-124.079
X95.525Y-31.775
X95.885Y-126.866
X95.961Y-46.38
X96.266Y-75.946
X96.52Y-163.83
X96.774Y-158.75
X96.952Y-123.368
X97.242Y-127.995
X97.282Y-36.576
X97.282Y-72.136
X97.536Y-155.448
X98.044Y-151.13
X98.171Y-123.368
X98.4Y-29.794
X98.525Y-35.575
X98.806Y-73.406
X99.06Y-38.354
X99.06Y-158.242
X99.06Y-164.084
X99.187Y-124.841
X99.314Y-70.104
X99.464Y-123.33
X100.076Y-40.386
X100.076Y-43.942
X100.076Y-48.006
X100.076Y-53.086
X100.076Y-61.976
X100.076Y-68.072
X100.127Y-65.684
X100.138Y-58.996
X100.383Y-29.334
X100.584Y-73.914
X100.584Y-148.59
X100.711Y-123.698
X100.711Y-127.515
X100.838Y-30.988
X100.838Y-33.274
X100.838Y-71.374
X100.838Y-156.464
X101.092Y-35.56
X101.092Y-153.162
X101.092Y-160.274
X101.092Y-163.83
X101.755Y-27.556
X102.057Y-65.71
X102.083Y-53.005
X102.108Y-38.1
X102.108Y-40.386
X102.108Y-43.942
X102.108Y-48.006
X102.108Y-58.928
X102.108Y-61.976
X102.108Y-68.834
X102.565Y-55.772
X103.124Y-146.05
X103.124Y-150.876
X103.604Y-55.772
X104.013Y-127.0
X104.133Y-124.968
X104.521Y-121.285
X104.775Y-126.111
X105.662Y-73.873
X105.675Y-76.228
X106.172Y-105.41
X106.172Y-110.744
X106.172Y-115.316
X106.172Y-119.38
X106.172Y-123.698
X106.172Y-128.016
X106.172Y-132.588
X106.172Y-137.414
X106.172Y-142.748
X106.426Y-147.574
X106.934Y-160.274
X107.95Y-102.362
X108.966Y-107.188
X108.966Y-110.744
X108.966Y-115.316
X108.966Y-119.38
X108.966Y-132.588
X108.966Y-137.414
X108.966Y-142.748
X109.982Y-104.394
X111.252Y-73.914
X111.252Y-76.2
X111.252Y-99.314
X113.03Y-101.092
X114.3Y-96.266
X115.062Y-77.216
X115.316Y-73.914
X116.078Y-98.044
X116.834Y-28.764
X116.84Y-93.726
X117.068Y-26.459
X117.094Y-79.756
X117.094Y-84.836
X117.094Y-90.17
X117.298Y-23.03
X117.4Y-33.8
X117.6Y-31.35
X119.149Y-35.541
X119.38Y-79.756
X119.38Y-84.836
X119.38Y-90.17
X119.38Y-94.488
X119.685Y-56.871
X119.685Y-63.017
X122.981Y-21.093
X124.854Y-53.848
X125.068Y-21.059
X125.476Y-163.068
X125.476Y-168.91
X126.492Y-49.911
X127.604Y-35.978
X128.016Y-52.705
X128.27Y-155.448
X128.27Y-156.972
X128.829Y-56.185
X129.54Y-159.258
X130.556Y-61.214
X131.572Y-158.242
X131.572Y-170.18
X133.096Y-150.876
X133.2Y-23.6
X133.2Y-27.4
X134.112Y-149.86
X134.747Y-78.588
X134.925Y-82.245
X135.433Y-86.589
X136.398Y-56.497
X138.176Y-147.32
X138.176Y-148.844
X138.43Y-52.07
X139.954Y-160.528
X139.954Y-162.052
X139.954Y-163.576
X141.478Y-160.528
X141.478Y-162.052
X141.478Y-163.576
X142.469Y-86.766
X142.672Y-79.223
X142.748Y-73.812
X143.002Y-32.106
X143.002Y-147.32
X143.002Y-160.528
X143.002Y-162.052
X143.002Y-163.576
X143.764Y-59.842
X144.018Y-151.384
X145.237Y-76.657
X145.364Y-86.614
X148.031Y-64.567
X148.082Y-28.854
X151.1Y-25.3
X151.13Y-159.004
X151.13Y-168.656
X151.2Y-22.2
T3
X51.648Y-51.437
X52.898Y-51.437
X103.92Y-80.623
X103.92Y-82.523
T5
X50.267Y-64.643
X50.267Y-66.643
T6
X66.155Y-22.0
X66.155Y-28.0
X68.155Y-22.0
X68.155Y-28.0
X79.845Y-34.8
X81.845Y-34.8
T7
X60.909Y-124.46
X60.909Y-127.0
X60.909Y-129.54
X67.056Y-118.059
X69.596Y-118.059
X72.136Y-118.059
X75.362Y-130.099
X79.934Y-123.596
X79.934Y-130.099
T8
X95.052Y-168.376
X97.552Y-168.376
X99.552Y-168.376
X102.052Y-168.376
T9
X49.174Y-131.724
X49.382Y-169.692
X49.382Y-172.192
X54.61Y-149.86
X55.88Y-61.976
X69.063Y-74.442
X69.063Y-76.982
X72.898Y-67.056
X85.598Y-173.228
X86.5Y-22.3
X90.625Y-30.225
X93.165Y-30.225
X103.55Y-31.45
X109.271Y-30.175
X115.565Y-105.816
X116.84Y-145.898
X118.105Y-105.816
X119.99Y-157.221
X119.99Y-159.761
X119.99Y-162.301
X119.99Y-164.841
X119.99Y-167.381
X130.224Y-95.959
X134.402Y-44.094
X136.942Y-44.094
X137.668Y-39.243
X138.375Y-22.225
X139.482Y-44.094
X142.875Y-22.225
X149.225Y-36.775
X149.225Y-41.275
X149.225Y-52.65
X149.225Y-57.15
T10
X52.008Y-29.85
X54.707Y-28.65
X57.207Y-21.85
X61.307Y-33.05
X61.807Y-25.75
X137.125Y-24.725
X138.126Y-111.735
X144.125Y-24.725
X144.626Y-111.735
X146.725Y-35.525
X146.725Y-42.525
X146.725Y-51.4
X146.725Y-58.4
T12
X91.982Y-171.086
X105.122Y-171.086
T4
X94.082Y-20.364G85X94.082Y-20.964
G05
X94.082Y-24.294G85X94.082Y-25.394
G05
X102.722Y-20.364G85X102.722Y-20.964
G05
X102.722Y-24.294G85X102.722Y-25.394
G05
T7
X64.166Y-120.498G85X64.866Y-120.498
G05
X64.166Y-133.198G85X64.866Y-133.198
G05
X74.301Y-120.498G85X75.001Y-120.498
G05
X74.301Y-133.198G85X75.001Y-133.198
G05
T11
X75.212Y-123.896G85X75.212Y-126.496
G05
M30
