G04 #@! TF.GenerationSoftware,KiCad,Pcbnew,8.0.4*
G04 #@! TF.CreationDate,2024-09-06T21:03:00+01:00*
G04 #@! TF.ProjectId,gk-pcbv3,676b2d70-6362-4763-932e-6b696361645f,rev?*
G04 #@! TF.SameCoordinates,Original*
G04 #@! TF.FileFunction,Paste,Bot*
G04 #@! TF.FilePolarity,Positive*
%FSLAX46Y46*%
G04 Gerber Fmt 4.6, Leading zero omitted, Abs format (unit mm)*
G04 Created by KiCad (PCBNEW 8.0.4) date 2024-09-06 21:03:00*
%MOMM*%
%LPD*%
G01*
G04 APERTURE LIST*
G04 Aperture macros list*
%AMRoundRect*
0 Rectangle with rounded corners*
0 $1 Rounding radius*
0 $2 $3 $4 $5 $6 $7 $8 $9 X,Y pos of 4 corners*
0 Add a 4 corners polygon primitive as box body*
4,1,4,$2,$3,$4,$5,$6,$7,$8,$9,$2,$3,0*
0 Add four circle primitives for the rounded corners*
1,1,$1+$1,$2,$3*
1,1,$1+$1,$4,$5*
1,1,$1+$1,$6,$7*
1,1,$1+$1,$8,$9*
0 Add four rect primitives between the rounded corners*
20,1,$1+$1,$2,$3,$4,$5,0*
20,1,$1+$1,$4,$5,$6,$7,0*
20,1,$1+$1,$6,$7,$8,$9,0*
20,1,$1+$1,$8,$9,$2,$3,0*%
%AMFreePoly0*
4,1,13,0.900000,0.500000,2.600000,0.500000,2.600000,-0.500000,0.900000,-0.500000,0.400000,-1.000000,-0.400000,-1.000000,-0.900000,-0.500000,-2.600000,-0.500000,-2.600000,0.500000,-0.900000,0.500000,-0.400000,1.000000,0.400000,1.000000,0.900000,0.500000,0.900000,0.500000,$1*%
G04 Aperture macros list end*
%ADD10C,0.000000*%
%ADD11C,0.010000*%
%ADD12R,1.676400X0.355600*%
%ADD13RoundRect,0.225000X-0.250000X0.225000X-0.250000X-0.225000X0.250000X-0.225000X0.250000X0.225000X0*%
%ADD14RoundRect,0.225000X0.225000X0.250000X-0.225000X0.250000X-0.225000X-0.250000X0.225000X-0.250000X0*%
%ADD15R,0.812800X0.254000*%
%ADD16R,0.254000X0.812800*%
%ADD17R,4.191000X4.191000*%
%ADD18RoundRect,0.200000X-0.275000X0.200000X-0.275000X-0.200000X0.275000X-0.200000X0.275000X0.200000X0*%
%ADD19RoundRect,0.250000X0.475000X-0.250000X0.475000X0.250000X-0.475000X0.250000X-0.475000X-0.250000X0*%
%ADD20RoundRect,0.250000X-0.475000X0.250000X-0.475000X-0.250000X0.475000X-0.250000X0.475000X0.250000X0*%
%ADD21RoundRect,0.250000X0.250000X0.475000X-0.250000X0.475000X-0.250000X-0.475000X0.250000X-0.475000X0*%
%ADD22RoundRect,0.225000X0.250000X-0.225000X0.250000X0.225000X-0.250000X0.225000X-0.250000X-0.225000X0*%
%ADD23RoundRect,0.225000X-0.225000X-0.250000X0.225000X-0.250000X0.225000X0.250000X-0.225000X0.250000X0*%
%ADD24R,1.879600X0.812800*%
%ADD25R,0.812800X1.879600*%
%ADD26R,4.394200X4.394200*%
%ADD27RoundRect,0.200000X0.200000X0.275000X-0.200000X0.275000X-0.200000X-0.275000X0.200000X-0.275000X0*%
%ADD28RoundRect,0.200000X0.275000X-0.200000X0.275000X0.200000X-0.275000X0.200000X-0.275000X-0.200000X0*%
%ADD29R,1.400000X1.150000*%
%ADD30RoundRect,0.200000X-0.200000X-0.275000X0.200000X-0.275000X0.200000X0.275000X-0.200000X0.275000X0*%
%ADD31R,3.400000X0.980000*%
%ADD32R,2.700000X2.200000*%
%ADD33RoundRect,0.218750X0.218750X0.256250X-0.218750X0.256250X-0.218750X-0.256250X0.218750X-0.256250X0*%
%ADD34RoundRect,0.250000X-0.250000X-0.475000X0.250000X-0.475000X0.250000X0.475000X-0.250000X0.475000X0*%
%ADD35RoundRect,0.250000X-0.325000X-0.650000X0.325000X-0.650000X0.325000X0.650000X-0.325000X0.650000X0*%
%ADD36RoundRect,0.250000X0.325000X0.650000X-0.325000X0.650000X-0.325000X-0.650000X0.325000X-0.650000X0*%
%ADD37R,0.203200X0.711200*%
%ADD38R,4.343400X2.438400*%
%ADD39R,0.300000X1.100000*%
%ADD40R,2.300000X3.100000*%
%ADD41RoundRect,0.150000X-0.512500X-0.150000X0.512500X-0.150000X0.512500X0.150000X-0.512500X0.150000X0*%
%ADD42RoundRect,0.150000X-0.150000X0.512500X-0.150000X-0.512500X0.150000X-0.512500X0.150000X0.512500X0*%
%ADD43RoundRect,0.175000X-0.175000X0.575000X-0.175000X-0.575000X0.175000X-0.575000X0.175000X0.575000X0*%
%ADD44FreePoly0,270.000000*%
%ADD45RoundRect,0.250000X-1.425000X0.362500X-1.425000X-0.362500X1.425000X-0.362500X1.425000X0.362500X0*%
%ADD46R,2.200000X1.500000*%
%ADD47RoundRect,0.218750X-0.218750X-0.256250X0.218750X-0.256250X0.218750X0.256250X-0.218750X0.256250X0*%
%ADD48RoundRect,0.250000X0.800000X-0.450000X0.800000X0.450000X-0.800000X0.450000X-0.800000X-0.450000X0*%
%ADD49RoundRect,0.100000X-0.100000X0.225000X-0.100000X-0.225000X0.100000X-0.225000X0.100000X0.225000X0*%
%ADD50RoundRect,0.150000X0.725000X0.150000X-0.725000X0.150000X-0.725000X-0.150000X0.725000X-0.150000X0*%
%ADD51R,5.100000X5.100000*%
%ADD52RoundRect,0.250000X1.425000X-0.362500X1.425000X0.362500X-1.425000X0.362500X-1.425000X-0.362500X0*%
%ADD53RoundRect,0.087500X0.225000X0.087500X-0.225000X0.087500X-0.225000X-0.087500X0.225000X-0.087500X0*%
%ADD54RoundRect,0.087500X0.087500X0.225000X-0.087500X0.225000X-0.087500X-0.225000X0.087500X-0.225000X0*%
%ADD55RoundRect,0.125000X0.600000X0.125000X-0.600000X0.125000X-0.600000X-0.125000X0.600000X-0.125000X0*%
%ADD56RoundRect,0.157500X0.157500X0.222500X-0.157500X0.222500X-0.157500X-0.222500X0.157500X-0.222500X0*%
%ADD57R,0.600000X1.450000*%
%ADD58R,0.300000X1.450000*%
%ADD59RoundRect,0.062500X-0.062500X0.325000X-0.062500X-0.325000X0.062500X-0.325000X0.062500X0.325000X0*%
%ADD60RoundRect,0.080000X-0.160000X0.080000X-0.160000X-0.080000X0.160000X-0.080000X0.160000X0.080000X0*%
%ADD61R,0.600000X1.500000*%
%ADD62R,2.400000X0.740000*%
%ADD63R,1.200000X0.400000*%
%ADD64RoundRect,0.150000X0.150000X-0.587500X0.150000X0.587500X-0.150000X0.587500X-0.150000X-0.587500X0*%
%ADD65RoundRect,0.100000X-0.100000X0.712500X-0.100000X-0.712500X0.100000X-0.712500X0.100000X0.712500X0*%
%ADD66R,0.850000X1.100000*%
%ADD67R,0.750000X1.100000*%
%ADD68R,1.200000X1.000000*%
%ADD69R,1.550000X1.350000*%
%ADD70R,1.900000X1.350000*%
%ADD71R,1.170000X1.800000*%
G04 APERTURE END LIST*
D10*
G36*
X140597634Y-164019000D02*
G01*
X139332900Y-164019000D01*
X139332900Y-162754266D01*
X140597634Y-162754266D01*
X140597634Y-164019000D01*
G37*
G36*
X140597634Y-162554267D02*
G01*
X139332900Y-162554267D01*
X139332900Y-161289533D01*
X140597634Y-161289533D01*
X140597634Y-162554267D01*
G37*
G36*
X140597634Y-161089533D02*
G01*
X139332900Y-161089533D01*
X139332900Y-159824800D01*
X140597634Y-159824800D01*
X140597634Y-161089533D01*
G37*
G36*
X142062367Y-164019000D02*
G01*
X140797633Y-164019000D01*
X140797633Y-162754266D01*
X142062367Y-162754266D01*
X142062367Y-164019000D01*
G37*
G36*
X142062367Y-162554267D02*
G01*
X140797633Y-162554267D01*
X140797633Y-161289533D01*
X142062367Y-161289533D01*
X142062367Y-162554267D01*
G37*
G36*
X142062367Y-161089533D02*
G01*
X140797633Y-161089533D01*
X140797633Y-159824800D01*
X142062367Y-159824800D01*
X142062367Y-161089533D01*
G37*
G36*
X143527100Y-164019000D02*
G01*
X142262366Y-164019000D01*
X142262366Y-162754266D01*
X143527100Y-162754266D01*
X143527100Y-164019000D01*
G37*
G36*
X143527100Y-162554267D02*
G01*
X142262366Y-162554267D01*
X142262366Y-161289533D01*
X143527100Y-161289533D01*
X143527100Y-162554267D01*
G37*
G36*
X143527100Y-161089533D02*
G01*
X142262366Y-161089533D01*
X142262366Y-159824800D01*
X143527100Y-159824800D01*
X143527100Y-161089533D01*
G37*
G36*
X50992100Y-82399200D02*
G01*
X49744300Y-82399200D01*
X49744300Y-80160800D01*
X50992100Y-80160800D01*
X50992100Y-82399200D01*
G37*
G36*
X52439900Y-82399200D02*
G01*
X51192100Y-82399200D01*
X51192100Y-80160800D01*
X52439900Y-80160800D01*
X52439900Y-82399200D01*
G37*
G36*
X53887700Y-82399200D02*
G01*
X52639900Y-82399200D01*
X52639900Y-80160800D01*
X53887700Y-80160800D01*
X53887700Y-82399200D01*
G37*
D11*
X106520000Y-89564000D02*
X105720000Y-89564000D01*
X105720000Y-89914000D01*
X104420000Y-89914000D01*
X104420000Y-87964000D01*
X106520000Y-87964000D01*
X106520000Y-89564000D01*
G36*
X106520000Y-89564000D02*
G01*
X105720000Y-89564000D01*
X105720000Y-89914000D01*
X104420000Y-89914000D01*
X104420000Y-87964000D01*
X106520000Y-87964000D01*
X106520000Y-89564000D01*
G37*
X75520000Y-89914000D02*
X74220000Y-89914000D01*
X74220000Y-89564000D01*
X73420000Y-89564000D01*
X73420000Y-87964000D01*
X75520000Y-87964000D01*
X75520000Y-89914000D01*
G36*
X75520000Y-89914000D02*
G01*
X74220000Y-89914000D01*
X74220000Y-89564000D01*
X73420000Y-89564000D01*
X73420000Y-87964000D01*
X75520000Y-87964000D01*
X75520000Y-89914000D01*
G37*
D12*
X131038600Y-54782001D03*
X131038600Y-54132000D03*
X131038600Y-53481999D03*
X131038600Y-52832000D03*
X131038600Y-52182001D03*
X131038600Y-51532000D03*
X131038600Y-50882001D03*
X136677400Y-50881999D03*
X136677400Y-51532000D03*
X136677400Y-52181999D03*
X136677400Y-52832000D03*
X136677400Y-53481999D03*
X136677400Y-54132000D03*
X136677400Y-54781999D03*
D13*
X112217200Y-66458800D03*
X112217200Y-68008800D03*
D14*
X103568800Y-66929000D03*
X102018800Y-66929000D03*
D15*
X56743600Y-104480799D03*
X56743600Y-104980801D03*
X56743600Y-105480800D03*
X56743600Y-105980799D03*
X56743600Y-106480800D03*
X56743600Y-106980800D03*
X56743600Y-107480801D03*
X56743600Y-107980800D03*
X56743600Y-108480799D03*
X56743600Y-108980801D03*
D16*
X56047201Y-109677200D03*
X55547199Y-109677200D03*
X55047200Y-109677200D03*
X54547201Y-109677200D03*
X54047200Y-109677200D03*
X53547200Y-109677200D03*
X53047199Y-109677200D03*
X52547200Y-109677200D03*
X52047201Y-109677200D03*
X51547199Y-109677200D03*
D15*
X50850800Y-108980801D03*
X50850800Y-108480799D03*
X50850800Y-107980800D03*
X50850800Y-107480801D03*
X50850800Y-106980800D03*
X50850800Y-106480800D03*
X50850800Y-105980799D03*
X50850800Y-105480800D03*
X50850800Y-104980801D03*
X50850800Y-104480799D03*
D16*
X51547199Y-103784400D03*
X52047201Y-103784400D03*
X52547200Y-103784400D03*
X53047199Y-103784400D03*
X53547200Y-103784400D03*
X54047200Y-103784400D03*
X54547201Y-103784400D03*
X55047200Y-103784400D03*
X55547199Y-103784400D03*
X56047201Y-103784400D03*
D17*
X53797200Y-106730800D03*
D18*
X62992000Y-108293400D03*
X62992000Y-109943400D03*
X62992000Y-105143800D03*
X62992000Y-106793800D03*
D19*
X53035200Y-101330800D03*
X53035200Y-99430800D03*
X55138800Y-101330800D03*
X55138800Y-99430800D03*
D20*
X55473600Y-112588000D03*
X55473600Y-114488000D03*
X53390800Y-112588000D03*
X53390800Y-114488000D03*
D21*
X49006800Y-105664000D03*
X47106800Y-105664000D03*
D13*
X64262000Y-96862600D03*
X64262000Y-98412600D03*
D22*
X45720000Y-95466200D03*
X45720000Y-93916200D03*
X65938400Y-115176600D03*
X65938400Y-113626600D03*
D14*
X47206200Y-117094000D03*
X45656200Y-117094000D03*
D19*
X60147200Y-105852000D03*
X60147200Y-103952000D03*
D22*
X110490000Y-80785000D03*
X110490000Y-79235000D03*
D13*
X103886000Y-80251000D03*
X103886000Y-81801000D03*
D23*
X106413000Y-76454000D03*
X107963000Y-76454000D03*
D22*
X97028000Y-69101000D03*
X97028000Y-67551000D03*
X98552000Y-66307000D03*
X98552000Y-64757000D03*
D13*
X92710000Y-65519000D03*
X92710000Y-67069000D03*
D22*
X89408000Y-66307000D03*
X89408000Y-64757000D03*
D13*
X84074000Y-65773000D03*
X84074000Y-67323000D03*
D14*
X88151000Y-68072000D03*
X86601000Y-68072000D03*
D24*
X134112000Y-170026660D03*
X134112000Y-168822700D03*
X134112000Y-167618740D03*
X134112000Y-166414780D03*
X134112000Y-165210820D03*
X134112000Y-164006860D03*
X134112000Y-162802900D03*
X134112000Y-161598940D03*
X134112000Y-160394980D03*
X134112000Y-159191020D03*
X134112000Y-157987060D03*
X134112000Y-156783100D03*
X134112000Y-155579140D03*
D25*
X135455700Y-153593800D03*
X136659660Y-153593800D03*
X137863620Y-153593800D03*
X139067580Y-153593800D03*
X140271540Y-153593800D03*
X141475500Y-153593800D03*
X142679460Y-153593800D03*
X143883420Y-153593800D03*
X145087380Y-153593800D03*
X146291340Y-153593800D03*
X147495300Y-153593800D03*
D24*
X148844000Y-155579140D03*
X148844000Y-156783100D03*
X148844000Y-157987060D03*
X148844000Y-159191020D03*
X148844000Y-160394980D03*
X148844000Y-161598940D03*
X148844000Y-162802900D03*
X148844000Y-164006860D03*
X148844000Y-165210820D03*
X148844000Y-166414780D03*
X148844000Y-167618740D03*
X148844000Y-168822700D03*
D26*
X141430000Y-161921900D03*
D27*
X129095000Y-163068000D03*
X127445000Y-163068000D03*
D28*
X141478000Y-148907000D03*
X141478000Y-147257000D03*
D27*
X128841000Y-168910000D03*
X127191000Y-168910000D03*
D22*
X129794000Y-156985000D03*
X129794000Y-155435000D03*
X139700000Y-148857000D03*
X139700000Y-147307000D03*
D29*
X132758000Y-59601000D03*
X134958000Y-59601000D03*
X134958000Y-58001000D03*
X132758000Y-58001000D03*
D27*
X54927000Y-94996000D03*
X53277000Y-94996000D03*
D28*
X45466000Y-111801500D03*
X45466000Y-110151500D03*
X45466000Y-114849500D03*
X45466000Y-113199500D03*
D18*
X45720000Y-100013000D03*
X45720000Y-101663000D03*
X45720000Y-96965000D03*
X45720000Y-98615000D03*
X62738000Y-100724200D03*
X62738000Y-102374200D03*
X62738000Y-97676200D03*
X62738000Y-99326200D03*
D28*
X64922400Y-112026200D03*
X64922400Y-110376200D03*
X64262000Y-113564400D03*
X64262000Y-115214400D03*
D18*
X46736000Y-78931000D03*
X46736000Y-80581000D03*
X59436000Y-79947000D03*
X59436000Y-81597000D03*
D27*
X100901000Y-45944000D03*
X99251000Y-45944000D03*
D30*
X99251000Y-43434000D03*
X100901000Y-43434000D03*
D18*
X57404000Y-81979000D03*
X57404000Y-83629000D03*
X57404000Y-78931000D03*
X57404000Y-80581000D03*
D31*
X59182000Y-98332200D03*
X59182000Y-100702200D03*
X49276000Y-97621000D03*
X49276000Y-99991000D03*
X60756800Y-112353000D03*
X60756800Y-114723000D03*
X49123600Y-114808000D03*
X49123600Y-112438000D03*
D32*
X50790000Y-88392000D03*
X55890000Y-88392000D03*
D33*
X54838700Y-96774000D03*
X53263700Y-96774000D03*
D21*
X105090000Y-64262000D03*
X103190000Y-64262000D03*
D20*
X107442000Y-69916000D03*
X107442000Y-71816000D03*
D34*
X110911600Y-71526400D03*
X112811600Y-71526400D03*
X111724400Y-63042800D03*
X113624400Y-63042800D03*
X59451200Y-107645200D03*
X61351200Y-107645200D03*
D35*
X49172600Y-117687000D03*
X52122600Y-117687000D03*
D36*
X50801800Y-94488000D03*
X47851800Y-94488000D03*
X61673000Y-95453200D03*
X58723000Y-95453200D03*
X57249800Y-117602000D03*
X60199800Y-117602000D03*
D35*
X61517000Y-78740000D03*
X64467000Y-78740000D03*
D23*
X48501000Y-77216000D03*
X50051000Y-77216000D03*
D13*
X46736000Y-75933000D03*
X46736000Y-77483000D03*
X59436000Y-76949000D03*
X59436000Y-78499000D03*
D22*
X47752000Y-87643000D03*
X47752000Y-86093000D03*
D14*
X54115000Y-93472000D03*
X52565000Y-93472000D03*
D19*
X46736000Y-84262000D03*
X46736000Y-82362000D03*
D34*
X51882000Y-77216000D03*
X53782000Y-77216000D03*
D14*
X127788000Y-53848000D03*
X126238000Y-53848000D03*
D13*
X128016000Y-49771000D03*
X128016000Y-51321000D03*
D37*
X50065998Y-79330799D03*
X50566000Y-79330799D03*
X51065999Y-79330799D03*
X51566000Y-79330799D03*
X52066000Y-79330799D03*
X52565998Y-79330799D03*
X53066000Y-79330799D03*
X53565999Y-79330799D03*
X53566002Y-83229201D03*
X53066000Y-83229201D03*
X52566001Y-83229201D03*
X52066000Y-83229201D03*
X51566000Y-83229201D03*
X51066002Y-83229201D03*
X50566000Y-83229201D03*
X50066001Y-83229201D03*
D38*
X51816000Y-81280000D03*
D39*
X121426800Y-75727800D03*
X120926800Y-75727800D03*
X120426800Y-75727800D03*
X119926800Y-75727800D03*
X119426800Y-75727800D03*
X118926800Y-75727800D03*
X118426800Y-75727800D03*
X117926800Y-75727800D03*
X117426800Y-75727800D03*
X116926800Y-75727800D03*
D40*
X123096800Y-77427800D03*
X115256800Y-77427800D03*
D14*
X84061600Y-80314800D03*
X82511600Y-80314800D03*
D13*
X86741000Y-75729800D03*
X86741000Y-77279800D03*
D30*
X125540000Y-60071000D03*
X127190000Y-60071000D03*
D39*
X103220000Y-87814000D03*
X102720000Y-87814000D03*
X102220000Y-87814000D03*
X101720000Y-87814000D03*
X101220000Y-87814000D03*
X100720000Y-87814000D03*
X100220000Y-87814000D03*
X99720000Y-87814000D03*
X99220000Y-87814000D03*
X98720000Y-87814000D03*
X98220000Y-87814000D03*
X97720000Y-87814000D03*
X97220000Y-87814000D03*
X96720000Y-87814000D03*
X96220000Y-87814000D03*
X95720000Y-87814000D03*
X95220000Y-87814000D03*
X94720000Y-87814000D03*
X94220000Y-87814000D03*
X93720000Y-87814000D03*
X93220000Y-87814000D03*
X92720000Y-87814000D03*
X92220000Y-87814000D03*
X91720000Y-87814000D03*
X91220000Y-87814000D03*
X90720000Y-87814000D03*
X90220000Y-87814000D03*
X89720000Y-87814000D03*
X89220000Y-87814000D03*
X88720000Y-87814000D03*
X88220000Y-87814000D03*
X87720000Y-87814000D03*
X87220000Y-87814000D03*
X86720000Y-87814000D03*
X86220000Y-87814000D03*
X85720000Y-87814000D03*
X85220000Y-87814000D03*
X84720000Y-87814000D03*
X84220000Y-87814000D03*
X83720000Y-87814000D03*
X83220000Y-87814000D03*
X82720000Y-87814000D03*
X82220000Y-87814000D03*
X81720000Y-87814000D03*
X81220000Y-87814000D03*
X80720000Y-87814000D03*
X80220000Y-87814000D03*
X79720000Y-87814000D03*
X79220000Y-87814000D03*
X78720000Y-87814000D03*
X78220000Y-87814000D03*
X77720000Y-87814000D03*
X77220000Y-87814000D03*
X76720000Y-87814000D03*
D41*
X102748500Y-161478000D03*
X102748500Y-160528000D03*
X102748500Y-159578000D03*
X105023500Y-159578000D03*
X105023500Y-161478000D03*
D42*
X98110000Y-159644500D03*
X99060000Y-159644500D03*
X100010000Y-159644500D03*
X100010000Y-161919500D03*
X99060000Y-161919500D03*
X98110000Y-161919500D03*
D43*
X66064000Y-93654000D03*
D44*
X67564000Y-95504000D03*
D43*
X69064000Y-93654000D03*
X69064000Y-97354000D03*
X66064000Y-97354000D03*
D30*
X105347000Y-157480000D03*
X106997000Y-157480000D03*
X123635000Y-51816000D03*
X125285000Y-51816000D03*
D45*
X75234800Y-96453100D03*
X75234800Y-102378100D03*
D27*
X69405000Y-90932000D03*
X67755000Y-90932000D03*
D46*
X68630800Y-106679600D03*
X68630800Y-100279600D03*
D47*
X102082500Y-157480000D03*
X103657500Y-157480000D03*
D48*
X74726800Y-109235600D03*
X74726800Y-104835600D03*
D23*
X120764000Y-73025000D03*
X122314000Y-73025000D03*
D20*
X71170800Y-109133600D03*
X71170800Y-111033600D03*
D21*
X63942000Y-92964000D03*
X62042000Y-92964000D03*
D49*
X83297000Y-81879400D03*
X83947000Y-81879400D03*
X84597000Y-81879400D03*
X84597000Y-83779400D03*
X83947000Y-83779400D03*
X83297000Y-83779400D03*
D50*
X84286800Y-74599800D03*
X84286800Y-75869800D03*
X84286800Y-77139800D03*
X84286800Y-78409800D03*
X79136800Y-78409800D03*
X79136800Y-77139800D03*
X79136800Y-75869800D03*
X79136800Y-74599800D03*
D51*
X141757400Y-93953000D03*
X141757400Y-68353000D03*
D13*
X107594400Y-54190600D03*
X107594400Y-55740600D03*
D22*
X106019600Y-55740600D03*
X106019600Y-54190600D03*
D52*
X66040000Y-88814500D03*
X66040000Y-82889500D03*
D18*
X65024000Y-74867000D03*
X65024000Y-76517000D03*
D28*
X72136000Y-47053000D03*
X72136000Y-45403000D03*
D34*
X71694000Y-43434000D03*
X73594000Y-43434000D03*
X72202000Y-49022000D03*
X74102000Y-49022000D03*
X105984000Y-61722000D03*
X107884000Y-61722000D03*
D22*
X95478600Y-119367600D03*
X95478600Y-117817600D03*
D53*
X99562100Y-120509600D03*
X99562100Y-121009600D03*
X99562100Y-121509600D03*
X99562100Y-122009600D03*
D54*
X98899600Y-122172100D03*
X98399600Y-122172100D03*
X97899600Y-122172100D03*
D53*
X97237100Y-122009600D03*
X97237100Y-121509600D03*
X97237100Y-121009600D03*
X97237100Y-120509600D03*
D54*
X97899600Y-120347100D03*
X98399600Y-120347100D03*
X98899600Y-120347100D03*
D23*
X77457000Y-52832000D03*
X79007000Y-52832000D03*
D27*
X79057000Y-54540800D03*
X77407000Y-54540800D03*
D14*
X94983600Y-122910600D03*
X93433600Y-122910600D03*
D27*
X66763400Y-147193000D03*
X65113400Y-147193000D03*
X91630000Y-128905000D03*
X89980000Y-128905000D03*
D14*
X69101000Y-120650000D03*
X67551000Y-120650000D03*
D30*
X72375000Y-33000000D03*
X74025000Y-33000000D03*
D27*
X149669000Y-32004000D03*
X148019000Y-32004000D03*
D30*
X84773000Y-127430000D03*
X86423000Y-127430000D03*
D55*
X72450000Y-22825000D03*
X72450000Y-23475000D03*
X72450000Y-24125000D03*
X72450000Y-24775000D03*
X76750000Y-24775000D03*
X76750000Y-24125000D03*
X76750000Y-23475000D03*
X76750000Y-22825000D03*
D56*
X74210000Y-23330000D03*
X74210000Y-24270000D03*
X74990000Y-23330000D03*
X74990000Y-24270000D03*
D57*
X95152300Y-25759300D03*
X95952300Y-25759300D03*
D58*
X96652300Y-25759300D03*
X97652300Y-25759300D03*
X99152300Y-25759300D03*
X100152300Y-25759300D03*
D57*
X100852300Y-25759300D03*
X101652300Y-25759300D03*
X101652300Y-25759300D03*
X100852300Y-25759300D03*
D58*
X99652300Y-25759300D03*
X98652300Y-25759300D03*
X98152300Y-25759300D03*
X97152300Y-25759300D03*
D57*
X95952300Y-25759300D03*
X95152300Y-25759300D03*
D14*
X81724800Y-166268400D03*
X80174800Y-166268400D03*
D27*
X143928600Y-130784600D03*
X142278600Y-130784600D03*
D30*
X63183000Y-66040000D03*
X64833000Y-66040000D03*
D27*
X132549400Y-119303800D03*
X130899400Y-119303800D03*
D23*
X148200000Y-25324000D03*
X149750000Y-25324000D03*
D27*
X56095400Y-46532800D03*
X54445400Y-46532800D03*
D23*
X92189000Y-153416000D03*
X93739000Y-153416000D03*
D27*
X101790000Y-136525000D03*
X100140000Y-136525000D03*
X84425000Y-26000000D03*
X82775000Y-26000000D03*
X101790000Y-138430000D03*
X100140000Y-138430000D03*
D42*
X52237600Y-71201700D03*
X53187600Y-71201700D03*
X54137600Y-71201700D03*
X54137600Y-73476700D03*
X52237600Y-73476700D03*
D27*
X81774800Y-169316400D03*
X80124800Y-169316400D03*
D22*
X76000000Y-32975000D03*
X76000000Y-31425000D03*
D13*
X57150000Y-127876000D03*
X57150000Y-129426000D03*
D34*
X79050000Y-29600000D03*
X80950000Y-29600000D03*
D14*
X66307000Y-36576000D03*
X64757000Y-36576000D03*
D27*
X114667800Y-140309600D03*
X113017800Y-140309600D03*
X149800000Y-23800000D03*
X148150000Y-23800000D03*
D59*
X47814800Y-72691700D03*
X48314800Y-72691700D03*
X48814800Y-72691700D03*
X49314800Y-72691700D03*
X49314800Y-70716700D03*
X48814800Y-70716700D03*
X48314800Y-70716700D03*
X47814800Y-70716700D03*
D60*
X48264800Y-71904200D03*
X48864800Y-71904200D03*
X48264800Y-71504200D03*
X48864800Y-71504200D03*
D30*
X62979800Y-62052200D03*
X64629800Y-62052200D03*
D13*
X81000000Y-26225000D03*
X81000000Y-27775000D03*
D30*
X148019000Y-62992000D03*
X149669000Y-62992000D03*
D61*
X88214200Y-139350400D03*
X89484200Y-139350400D03*
X90754200Y-139350400D03*
X92024200Y-139350400D03*
X93294200Y-139350400D03*
X94564200Y-139350400D03*
X95834200Y-139350400D03*
X97104200Y-139350400D03*
X97104200Y-146450400D03*
X95834200Y-146450400D03*
X94564200Y-146450400D03*
X93294200Y-146450400D03*
X92024200Y-146450400D03*
X90754200Y-146450400D03*
X89484200Y-146450400D03*
X88214200Y-146450400D03*
D30*
X148019000Y-30480000D03*
X149669000Y-30480000D03*
D27*
X74025000Y-31200000D03*
X72375000Y-31200000D03*
D30*
X89980000Y-127381000D03*
X91630000Y-127381000D03*
X106213300Y-23847900D03*
X107863300Y-23847900D03*
D42*
X56687600Y-71201700D03*
X57637600Y-71201700D03*
X58587600Y-71201700D03*
X58587600Y-73476700D03*
X56687600Y-73476700D03*
D30*
X106187900Y-21968300D03*
X107837900Y-21968300D03*
D20*
X55397400Y-64683600D03*
X55397400Y-66583600D03*
D27*
X87185000Y-135890000D03*
X85535000Y-135890000D03*
D22*
X111455200Y-56045400D03*
X111455200Y-54495400D03*
D30*
X148150000Y-22276000D03*
X149800000Y-22276000D03*
D27*
X84425000Y-27800000D03*
X82775000Y-27800000D03*
D22*
X86400000Y-29575000D03*
X86400000Y-28025000D03*
D27*
X101790000Y-140335000D03*
X100140000Y-140335000D03*
D22*
X115366800Y-57518600D03*
X115366800Y-55968600D03*
D27*
X74025000Y-29400000D03*
X72375000Y-29400000D03*
D30*
X92139000Y-150368000D03*
X93789000Y-150368000D03*
D13*
X70800000Y-29625000D03*
X70800000Y-31175000D03*
D27*
X132905000Y-142697200D03*
X131255000Y-142697200D03*
D23*
X61709000Y-40741600D03*
X63259000Y-40741600D03*
D30*
X84773000Y-129130000D03*
X86423000Y-129130000D03*
D14*
X55308800Y-155524200D03*
X53758800Y-155524200D03*
D30*
X53708800Y-157048200D03*
X55358800Y-157048200D03*
D62*
X129077000Y-64389000D03*
X125177000Y-64389000D03*
X129077000Y-65659000D03*
X125177000Y-65659000D03*
X129077000Y-66929000D03*
X125177000Y-66929000D03*
X129077000Y-68199000D03*
X125177000Y-68199000D03*
X129077000Y-69469000D03*
X125177000Y-69469000D03*
D34*
X68650000Y-33000000D03*
X70550000Y-33000000D03*
D41*
X58273100Y-66812200D03*
X58273100Y-65862200D03*
X58273100Y-64912200D03*
X60548100Y-64912200D03*
X60548100Y-66812200D03*
D14*
X146063000Y-61468000D03*
X144513000Y-61468000D03*
D27*
X149669000Y-61468000D03*
X148019000Y-61468000D03*
D14*
X132499400Y-116285800D03*
X130949400Y-116285800D03*
D30*
X131255000Y-141173200D03*
X132905000Y-141173200D03*
D27*
X93789000Y-151892000D03*
X92139000Y-151892000D03*
D63*
X70425000Y-40322500D03*
X70425000Y-39687500D03*
X70425000Y-39052500D03*
X70425000Y-38417500D03*
X70425000Y-37782500D03*
X70425000Y-37147500D03*
X70425000Y-36512500D03*
X70425000Y-35877500D03*
X75625000Y-35877500D03*
X75625000Y-36512500D03*
X75625000Y-37147500D03*
X75625000Y-37782500D03*
X75625000Y-38417500D03*
X75625000Y-39052500D03*
X75625000Y-39687500D03*
X75625000Y-40322500D03*
D30*
X65113400Y-145669000D03*
X66763400Y-145669000D03*
X49416200Y-176072800D03*
X51066200Y-176072800D03*
D27*
X87185000Y-133985000D03*
X85535000Y-133985000D03*
X55358800Y-158572200D03*
X53708800Y-158572200D03*
D34*
X75050000Y-20600000D03*
X76950000Y-20600000D03*
D28*
X72136000Y-77025000D03*
X72136000Y-75375000D03*
D30*
X113017800Y-138785600D03*
X114667800Y-138785600D03*
D64*
X70038000Y-71041500D03*
X68138000Y-71041500D03*
X69088000Y-69166500D03*
D14*
X86373000Y-125730000D03*
X84823000Y-125730000D03*
D23*
X58051400Y-40741600D03*
X59601400Y-40741600D03*
D64*
X70038000Y-66977500D03*
X68138000Y-66977500D03*
X69088000Y-65102500D03*
D14*
X66713400Y-144145000D03*
X65163400Y-144145000D03*
D28*
X72136000Y-71437000D03*
X72136000Y-69787000D03*
D30*
X82775000Y-29600000D03*
X84425000Y-29600000D03*
D65*
X58969000Y-44267900D03*
X59619000Y-44267900D03*
X60269000Y-44267900D03*
X60919000Y-44267900D03*
X60919000Y-48492900D03*
X60269000Y-48492900D03*
X59619000Y-48492900D03*
X58969000Y-48492900D03*
D27*
X87185000Y-132080000D03*
X85535000Y-132080000D03*
D14*
X146063000Y-32004000D03*
X144513000Y-32004000D03*
D48*
X61899800Y-73878800D03*
X61899800Y-69478800D03*
D18*
X61264800Y-36767000D03*
X61264800Y-38417000D03*
D66*
X128448305Y-22983800D03*
X127348305Y-22983800D03*
X126248305Y-22983800D03*
X125148305Y-22983800D03*
X124048305Y-22983800D03*
X122948305Y-22983800D03*
X121848305Y-22983800D03*
D67*
X120798305Y-22983800D03*
D68*
X131083305Y-29133800D03*
X131083305Y-32833800D03*
D69*
X130908305Y-23108800D03*
D70*
X127583305Y-33808800D03*
X121613305Y-33808800D03*
D71*
X119588305Y-23333800D03*
D30*
X142278600Y-129260600D03*
X143928600Y-129260600D03*
D42*
X97452300Y-31244800D03*
X98402300Y-31244800D03*
X99352300Y-31244800D03*
X99352300Y-33519800D03*
X98402300Y-33519800D03*
X97452300Y-33519800D03*
D14*
X91580000Y-125857000D03*
X90030000Y-125857000D03*
D30*
X80124800Y-167792400D03*
X81774800Y-167792400D03*
D14*
X143878600Y-127736600D03*
X142328600Y-127736600D03*
D21*
X60843200Y-52273200D03*
X58943200Y-52273200D03*
D14*
X114617800Y-137261600D03*
X113067800Y-137261600D03*
D21*
X60843200Y-54559200D03*
X58943200Y-54559200D03*
D20*
X64846200Y-69281000D03*
X64846200Y-71181000D03*
D18*
X58369200Y-36817800D03*
X58369200Y-38467800D03*
D30*
X81375000Y-22400000D03*
X83025000Y-22400000D03*
D14*
X132855000Y-139649200D03*
X131305000Y-139649200D03*
X47003000Y-68580000D03*
X45453000Y-68580000D03*
D30*
X130899400Y-117779800D03*
X132549400Y-117779800D03*
D47*
X59639100Y-62077600D03*
X61214100Y-62077600D03*
D27*
X119239800Y-102616000D03*
X117589800Y-102616000D03*
D30*
X114506200Y-102616000D03*
X116156200Y-102616000D03*
M02*
