G04 #@! TF.GenerationSoftware,KiCad,Pcbnew,8.0.4*
G04 #@! TF.CreationDate,2024-11-24T15:21:50+00:00*
G04 #@! TF.ProjectId,gk-pcbv3,676b2d70-6362-4763-932e-6b696361645f,rev?*
G04 #@! TF.SameCoordinates,Original*
G04 #@! TF.FileFunction,Legend,Top*
G04 #@! TF.FilePolarity,Positive*
%FSLAX46Y46*%
G04 Gerber Fmt 4.6, Leading zero omitted, Abs format (unit mm)*
G04 Created by KiCad (PCBNEW 8.0.4) date 2024-11-24 15:21:50*
%MOMM*%
%LPD*%
G01*
G04 APERTURE LIST*
G04 Aperture macros list*
%AMRoundRect*
0 Rectangle with rounded corners*
0 $1 Rounding radius*
0 $2 $3 $4 $5 $6 $7 $8 $9 X,Y pos of 4 corners*
0 Add a 4 corners polygon primitive as box body*
4,1,4,$2,$3,$4,$5,$6,$7,$8,$9,$2,$3,0*
0 Add four circle primitives for the rounded corners*
1,1,$1+$1,$2,$3*
1,1,$1+$1,$4,$5*
1,1,$1+$1,$6,$7*
1,1,$1+$1,$8,$9*
0 Add four rect primitives between the rounded corners*
20,1,$1+$1,$2,$3,$4,$5,0*
20,1,$1+$1,$4,$5,$6,$7,0*
20,1,$1+$1,$6,$7,$8,$9,0*
20,1,$1+$1,$8,$9,$2,$3,0*%
%AMRotRect*
0 Rectangle, with rotation*
0 The origin of the aperture is its center*
0 $1 length*
0 $2 width*
0 $3 Rotation angle, in degrees counterclockwise*
0 Add horizontal line*
21,1,$1,$2,0,0,$3*%
G04 Aperture macros list end*
%ADD10C,0.150000*%
%ADD11C,0.100000*%
%ADD12C,0.120000*%
%ADD13C,0.127000*%
%ADD14C,0.200000*%
%ADD15C,0.010000*%
%ADD16C,0.650000*%
%ADD17O,1.000000X1.600000*%
%ADD18O,1.000000X2.100000*%
%ADD19RoundRect,0.140000X0.170000X-0.140000X0.170000X0.140000X-0.170000X0.140000X-0.170000X-0.140000X0*%
%ADD20RoundRect,0.218750X0.218750X0.256250X-0.218750X0.256250X-0.218750X-0.256250X0.218750X-0.256250X0*%
%ADD21R,1.700000X1.700000*%
%ADD22O,1.700000X1.700000*%
%ADD23RoundRect,0.140000X-0.170000X0.140000X-0.170000X-0.140000X0.170000X-0.140000X0.170000X0.140000X0*%
%ADD24C,3.200000*%
%ADD25RoundRect,0.140000X0.140000X0.170000X-0.140000X0.170000X-0.140000X-0.170000X0.140000X-0.170000X0*%
%ADD26RotRect,0.900000X0.800000X135.000000*%
%ADD27RoundRect,0.140000X-0.140000X-0.170000X0.140000X-0.170000X0.140000X0.170000X-0.140000X0.170000X0*%
%ADD28RoundRect,0.150000X0.512500X0.150000X-0.512500X0.150000X-0.512500X-0.150000X0.512500X-0.150000X0*%
%ADD29C,1.800000*%
%ADD30O,2.400000X5.000000*%
%ADD31O,2.300000X1.800000*%
%ADD32RoundRect,0.225000X-0.250000X0.225000X-0.250000X-0.225000X0.250000X-0.225000X0.250000X0.225000X0*%
%ADD33RoundRect,0.225000X-0.225000X-0.250000X0.225000X-0.250000X0.225000X0.250000X-0.225000X0.250000X0*%
%ADD34RoundRect,0.200000X0.275000X-0.200000X0.275000X0.200000X-0.275000X0.200000X-0.275000X-0.200000X0*%
%ADD35RoundRect,0.200000X-0.200000X-0.275000X0.200000X-0.275000X0.200000X0.275000X-0.200000X0.275000X0*%
%ADD36R,1.500000X1.000000*%
%ADD37C,2.500000*%
%ADD38RoundRect,0.225000X0.225000X0.250000X-0.225000X0.250000X-0.225000X-0.250000X0.225000X-0.250000X0*%
%ADD39RotRect,0.900000X0.800000X45.000000*%
%ADD40R,1.000000X1.500000*%
%ADD41RoundRect,0.250000X-0.475000X0.250000X-0.475000X-0.250000X0.475000X-0.250000X0.475000X0.250000X0*%
%ADD42RoundRect,0.102000X-0.150000X-0.550000X0.150000X-0.550000X0.150000X0.550000X-0.150000X0.550000X0*%
%ADD43R,0.300000X1.100000*%
%ADD44R,2.300000X3.100000*%
%ADD45C,2.200000*%
%ADD46C,1.700000*%
%ADD47RoundRect,0.200000X0.200000X0.450000X-0.200000X0.450000X-0.200000X-0.450000X0.200000X-0.450000X0*%
%ADD48O,0.800000X1.300000*%
%ADD49R,1.600000X1.600000*%
%ADD50C,1.600000*%
%ADD51C,1.000000*%
%ADD52R,1.600000X1.500000*%
%ADD53C,3.000000*%
%ADD54O,2.200000X4.000000*%
%ADD55O,4.000000X2.200000*%
%ADD56R,2.200000X4.000000*%
%ADD57RoundRect,0.250000X-0.750000X0.600000X-0.750000X-0.600000X0.750000X-0.600000X0.750000X0.600000X0*%
%ADD58O,2.000000X1.700000*%
%ADD59RoundRect,0.250000X-0.625000X0.350000X-0.625000X-0.350000X0.625000X-0.350000X0.625000X0.350000X0*%
%ADD60O,1.750000X1.200000*%
G04 APERTURE END LIST*
D10*
X47485941Y-134302619D02*
X48104988Y-134302619D01*
X48104988Y-134302619D02*
X47771655Y-134683571D01*
X47771655Y-134683571D02*
X47914512Y-134683571D01*
X47914512Y-134683571D02*
X48009750Y-134731190D01*
X48009750Y-134731190D02*
X48057369Y-134778809D01*
X48057369Y-134778809D02*
X48104988Y-134874047D01*
X48104988Y-134874047D02*
X48104988Y-135112142D01*
X48104988Y-135112142D02*
X48057369Y-135207380D01*
X48057369Y-135207380D02*
X48009750Y-135255000D01*
X48009750Y-135255000D02*
X47914512Y-135302619D01*
X47914512Y-135302619D02*
X47628798Y-135302619D01*
X47628798Y-135302619D02*
X47533560Y-135255000D01*
X47533560Y-135255000D02*
X47485941Y-135207380D01*
X48533560Y-135207380D02*
X48581179Y-135255000D01*
X48581179Y-135255000D02*
X48533560Y-135302619D01*
X48533560Y-135302619D02*
X48485941Y-135255000D01*
X48485941Y-135255000D02*
X48533560Y-135207380D01*
X48533560Y-135207380D02*
X48533560Y-135302619D01*
X48914512Y-134302619D02*
X49533559Y-134302619D01*
X49533559Y-134302619D02*
X49200226Y-134683571D01*
X49200226Y-134683571D02*
X49343083Y-134683571D01*
X49343083Y-134683571D02*
X49438321Y-134731190D01*
X49438321Y-134731190D02*
X49485940Y-134778809D01*
X49485940Y-134778809D02*
X49533559Y-134874047D01*
X49533559Y-134874047D02*
X49533559Y-135112142D01*
X49533559Y-135112142D02*
X49485940Y-135207380D01*
X49485940Y-135207380D02*
X49438321Y-135255000D01*
X49438321Y-135255000D02*
X49343083Y-135302619D01*
X49343083Y-135302619D02*
X49057369Y-135302619D01*
X49057369Y-135302619D02*
X48962131Y-135255000D01*
X48962131Y-135255000D02*
X48914512Y-135207380D01*
X49819274Y-134302619D02*
X50152607Y-135302619D01*
X50152607Y-135302619D02*
X50485940Y-134302619D01*
X73360588Y-175617438D02*
X73265350Y-175569819D01*
X73265350Y-175569819D02*
X73122493Y-175569819D01*
X73122493Y-175569819D02*
X72979636Y-175617438D01*
X72979636Y-175617438D02*
X72884398Y-175712676D01*
X72884398Y-175712676D02*
X72836779Y-175807914D01*
X72836779Y-175807914D02*
X72789160Y-175998390D01*
X72789160Y-175998390D02*
X72789160Y-176141247D01*
X72789160Y-176141247D02*
X72836779Y-176331723D01*
X72836779Y-176331723D02*
X72884398Y-176426961D01*
X72884398Y-176426961D02*
X72979636Y-176522200D01*
X72979636Y-176522200D02*
X73122493Y-176569819D01*
X73122493Y-176569819D02*
X73217731Y-176569819D01*
X73217731Y-176569819D02*
X73360588Y-176522200D01*
X73360588Y-176522200D02*
X73408207Y-176474580D01*
X73408207Y-176474580D02*
X73408207Y-176141247D01*
X73408207Y-176141247D02*
X73217731Y-176141247D01*
X73836779Y-176569819D02*
X73836779Y-175569819D01*
X73836779Y-175569819D02*
X74408207Y-176569819D01*
X74408207Y-176569819D02*
X74408207Y-175569819D01*
X74884398Y-176569819D02*
X74884398Y-175569819D01*
X74884398Y-175569819D02*
X75122493Y-175569819D01*
X75122493Y-175569819D02*
X75265350Y-175617438D01*
X75265350Y-175617438D02*
X75360588Y-175712676D01*
X75360588Y-175712676D02*
X75408207Y-175807914D01*
X75408207Y-175807914D02*
X75455826Y-175998390D01*
X75455826Y-175998390D02*
X75455826Y-176141247D01*
X75455826Y-176141247D02*
X75408207Y-176331723D01*
X75408207Y-176331723D02*
X75360588Y-176426961D01*
X75360588Y-176426961D02*
X75265350Y-176522200D01*
X75265350Y-176522200D02*
X75122493Y-176569819D01*
X75122493Y-176569819D02*
X74884398Y-176569819D01*
X82875714Y-152887200D02*
X83018571Y-152934819D01*
X83018571Y-152934819D02*
X83256666Y-152934819D01*
X83256666Y-152934819D02*
X83351904Y-152887200D01*
X83351904Y-152887200D02*
X83399523Y-152839580D01*
X83399523Y-152839580D02*
X83447142Y-152744342D01*
X83447142Y-152744342D02*
X83447142Y-152649104D01*
X83447142Y-152649104D02*
X83399523Y-152553866D01*
X83399523Y-152553866D02*
X83351904Y-152506247D01*
X83351904Y-152506247D02*
X83256666Y-152458628D01*
X83256666Y-152458628D02*
X83066190Y-152411009D01*
X83066190Y-152411009D02*
X82970952Y-152363390D01*
X82970952Y-152363390D02*
X82923333Y-152315771D01*
X82923333Y-152315771D02*
X82875714Y-152220533D01*
X82875714Y-152220533D02*
X82875714Y-152125295D01*
X82875714Y-152125295D02*
X82923333Y-152030057D01*
X82923333Y-152030057D02*
X82970952Y-151982438D01*
X82970952Y-151982438D02*
X83066190Y-151934819D01*
X83066190Y-151934819D02*
X83304285Y-151934819D01*
X83304285Y-151934819D02*
X83447142Y-151982438D01*
X83780476Y-151934819D02*
X84018571Y-152934819D01*
X84018571Y-152934819D02*
X84209047Y-152220533D01*
X84209047Y-152220533D02*
X84399523Y-152934819D01*
X84399523Y-152934819D02*
X84637619Y-151934819D01*
X84780476Y-153030057D02*
X85542380Y-153030057D01*
X86351904Y-152934819D02*
X86018571Y-152458628D01*
X85780476Y-152934819D02*
X85780476Y-151934819D01*
X85780476Y-151934819D02*
X86161428Y-151934819D01*
X86161428Y-151934819D02*
X86256666Y-151982438D01*
X86256666Y-151982438D02*
X86304285Y-152030057D01*
X86304285Y-152030057D02*
X86351904Y-152125295D01*
X86351904Y-152125295D02*
X86351904Y-152268152D01*
X86351904Y-152268152D02*
X86304285Y-152363390D01*
X86304285Y-152363390D02*
X86256666Y-152411009D01*
X86256666Y-152411009D02*
X86161428Y-152458628D01*
X86161428Y-152458628D02*
X85780476Y-152458628D01*
X87304285Y-152934819D02*
X86732857Y-152934819D01*
X87018571Y-152934819D02*
X87018571Y-151934819D01*
X87018571Y-151934819D02*
X86923333Y-152077676D01*
X86923333Y-152077676D02*
X86828095Y-152172914D01*
X86828095Y-152172914D02*
X86732857Y-152220533D01*
X88878580Y-85828047D02*
X88926200Y-85875666D01*
X88926200Y-85875666D02*
X88973819Y-86018523D01*
X88973819Y-86018523D02*
X88973819Y-86113761D01*
X88973819Y-86113761D02*
X88926200Y-86256618D01*
X88926200Y-86256618D02*
X88830961Y-86351856D01*
X88830961Y-86351856D02*
X88735723Y-86399475D01*
X88735723Y-86399475D02*
X88545247Y-86447094D01*
X88545247Y-86447094D02*
X88402390Y-86447094D01*
X88402390Y-86447094D02*
X88211914Y-86399475D01*
X88211914Y-86399475D02*
X88116676Y-86351856D01*
X88116676Y-86351856D02*
X88021438Y-86256618D01*
X88021438Y-86256618D02*
X87973819Y-86113761D01*
X87973819Y-86113761D02*
X87973819Y-86018523D01*
X87973819Y-86018523D02*
X88021438Y-85875666D01*
X88021438Y-85875666D02*
X88069057Y-85828047D01*
X88973819Y-84875666D02*
X88973819Y-85447094D01*
X88973819Y-85161380D02*
X87973819Y-85161380D01*
X87973819Y-85161380D02*
X88116676Y-85256618D01*
X88116676Y-85256618D02*
X88211914Y-85351856D01*
X88211914Y-85351856D02*
X88259533Y-85447094D01*
X87973819Y-84256618D02*
X87973819Y-84161380D01*
X87973819Y-84161380D02*
X88021438Y-84066142D01*
X88021438Y-84066142D02*
X88069057Y-84018523D01*
X88069057Y-84018523D02*
X88164295Y-83970904D01*
X88164295Y-83970904D02*
X88354771Y-83923285D01*
X88354771Y-83923285D02*
X88592866Y-83923285D01*
X88592866Y-83923285D02*
X88783342Y-83970904D01*
X88783342Y-83970904D02*
X88878580Y-84018523D01*
X88878580Y-84018523D02*
X88926200Y-84066142D01*
X88926200Y-84066142D02*
X88973819Y-84161380D01*
X88973819Y-84161380D02*
X88973819Y-84256618D01*
X88973819Y-84256618D02*
X88926200Y-84351856D01*
X88926200Y-84351856D02*
X88878580Y-84399475D01*
X88878580Y-84399475D02*
X88783342Y-84447094D01*
X88783342Y-84447094D02*
X88592866Y-84494713D01*
X88592866Y-84494713D02*
X88354771Y-84494713D01*
X88354771Y-84494713D02*
X88164295Y-84447094D01*
X88164295Y-84447094D02*
X88069057Y-84399475D01*
X88069057Y-84399475D02*
X88021438Y-84351856D01*
X88021438Y-84351856D02*
X87973819Y-84256618D01*
X88307152Y-83066142D02*
X88973819Y-83066142D01*
X87926200Y-83304237D02*
X88640485Y-83542332D01*
X88640485Y-83542332D02*
X88640485Y-82923285D01*
X127861905Y-30654819D02*
X127861905Y-29654819D01*
X127861905Y-29654819D02*
X128100000Y-29654819D01*
X128100000Y-29654819D02*
X128242857Y-29702438D01*
X128242857Y-29702438D02*
X128338095Y-29797676D01*
X128338095Y-29797676D02*
X128385714Y-29892914D01*
X128385714Y-29892914D02*
X128433333Y-30083390D01*
X128433333Y-30083390D02*
X128433333Y-30226247D01*
X128433333Y-30226247D02*
X128385714Y-30416723D01*
X128385714Y-30416723D02*
X128338095Y-30511961D01*
X128338095Y-30511961D02*
X128242857Y-30607200D01*
X128242857Y-30607200D02*
X128100000Y-30654819D01*
X128100000Y-30654819D02*
X127861905Y-30654819D01*
X128909524Y-30654819D02*
X129100000Y-30654819D01*
X129100000Y-30654819D02*
X129195238Y-30607200D01*
X129195238Y-30607200D02*
X129242857Y-30559580D01*
X129242857Y-30559580D02*
X129338095Y-30416723D01*
X129338095Y-30416723D02*
X129385714Y-30226247D01*
X129385714Y-30226247D02*
X129385714Y-29845295D01*
X129385714Y-29845295D02*
X129338095Y-29750057D01*
X129338095Y-29750057D02*
X129290476Y-29702438D01*
X129290476Y-29702438D02*
X129195238Y-29654819D01*
X129195238Y-29654819D02*
X129004762Y-29654819D01*
X129004762Y-29654819D02*
X128909524Y-29702438D01*
X128909524Y-29702438D02*
X128861905Y-29750057D01*
X128861905Y-29750057D02*
X128814286Y-29845295D01*
X128814286Y-29845295D02*
X128814286Y-30083390D01*
X128814286Y-30083390D02*
X128861905Y-30178628D01*
X128861905Y-30178628D02*
X128909524Y-30226247D01*
X128909524Y-30226247D02*
X129004762Y-30273866D01*
X129004762Y-30273866D02*
X129195238Y-30273866D01*
X129195238Y-30273866D02*
X129290476Y-30226247D01*
X129290476Y-30226247D02*
X129338095Y-30178628D01*
X129338095Y-30178628D02*
X129385714Y-30083390D01*
X141266619Y-44903923D02*
X141980904Y-44903923D01*
X141980904Y-44903923D02*
X142123761Y-44951542D01*
X142123761Y-44951542D02*
X142219000Y-45046780D01*
X142219000Y-45046780D02*
X142266619Y-45189637D01*
X142266619Y-45189637D02*
X142266619Y-45284875D01*
X142266619Y-43903923D02*
X142266619Y-44475351D01*
X142266619Y-44189637D02*
X141266619Y-44189637D01*
X141266619Y-44189637D02*
X141409476Y-44284875D01*
X141409476Y-44284875D02*
X141504714Y-44380113D01*
X141504714Y-44380113D02*
X141552333Y-44475351D01*
X141361857Y-43522970D02*
X141314238Y-43475351D01*
X141314238Y-43475351D02*
X141266619Y-43380113D01*
X141266619Y-43380113D02*
X141266619Y-43142018D01*
X141266619Y-43142018D02*
X141314238Y-43046780D01*
X141314238Y-43046780D02*
X141361857Y-42999161D01*
X141361857Y-42999161D02*
X141457095Y-42951542D01*
X141457095Y-42951542D02*
X141552333Y-42951542D01*
X141552333Y-42951542D02*
X141695190Y-42999161D01*
X141695190Y-42999161D02*
X142266619Y-43570589D01*
X142266619Y-43570589D02*
X142266619Y-42951542D01*
X94847580Y-80779857D02*
X94895200Y-80827476D01*
X94895200Y-80827476D02*
X94942819Y-80970333D01*
X94942819Y-80970333D02*
X94942819Y-81065571D01*
X94942819Y-81065571D02*
X94895200Y-81208428D01*
X94895200Y-81208428D02*
X94799961Y-81303666D01*
X94799961Y-81303666D02*
X94704723Y-81351285D01*
X94704723Y-81351285D02*
X94514247Y-81398904D01*
X94514247Y-81398904D02*
X94371390Y-81398904D01*
X94371390Y-81398904D02*
X94180914Y-81351285D01*
X94180914Y-81351285D02*
X94085676Y-81303666D01*
X94085676Y-81303666D02*
X93990438Y-81208428D01*
X93990438Y-81208428D02*
X93942819Y-81065571D01*
X93942819Y-81065571D02*
X93942819Y-80970333D01*
X93942819Y-80970333D02*
X93990438Y-80827476D01*
X93990438Y-80827476D02*
X94038057Y-80779857D01*
X94942819Y-80303666D02*
X94942819Y-80113190D01*
X94942819Y-80113190D02*
X94895200Y-80017952D01*
X94895200Y-80017952D02*
X94847580Y-79970333D01*
X94847580Y-79970333D02*
X94704723Y-79875095D01*
X94704723Y-79875095D02*
X94514247Y-79827476D01*
X94514247Y-79827476D02*
X94133295Y-79827476D01*
X94133295Y-79827476D02*
X94038057Y-79875095D01*
X94038057Y-79875095D02*
X93990438Y-79922714D01*
X93990438Y-79922714D02*
X93942819Y-80017952D01*
X93942819Y-80017952D02*
X93942819Y-80208428D01*
X93942819Y-80208428D02*
X93990438Y-80303666D01*
X93990438Y-80303666D02*
X94038057Y-80351285D01*
X94038057Y-80351285D02*
X94133295Y-80398904D01*
X94133295Y-80398904D02*
X94371390Y-80398904D01*
X94371390Y-80398904D02*
X94466628Y-80351285D01*
X94466628Y-80351285D02*
X94514247Y-80303666D01*
X94514247Y-80303666D02*
X94561866Y-80208428D01*
X94561866Y-80208428D02*
X94561866Y-80017952D01*
X94561866Y-80017952D02*
X94514247Y-79922714D01*
X94514247Y-79922714D02*
X94466628Y-79875095D01*
X94466628Y-79875095D02*
X94371390Y-79827476D01*
X94942819Y-79351285D02*
X94942819Y-79160809D01*
X94942819Y-79160809D02*
X94895200Y-79065571D01*
X94895200Y-79065571D02*
X94847580Y-79017952D01*
X94847580Y-79017952D02*
X94704723Y-78922714D01*
X94704723Y-78922714D02*
X94514247Y-78875095D01*
X94514247Y-78875095D02*
X94133295Y-78875095D01*
X94133295Y-78875095D02*
X94038057Y-78922714D01*
X94038057Y-78922714D02*
X93990438Y-78970333D01*
X93990438Y-78970333D02*
X93942819Y-79065571D01*
X93942819Y-79065571D02*
X93942819Y-79256047D01*
X93942819Y-79256047D02*
X93990438Y-79351285D01*
X93990438Y-79351285D02*
X94038057Y-79398904D01*
X94038057Y-79398904D02*
X94133295Y-79446523D01*
X94133295Y-79446523D02*
X94371390Y-79446523D01*
X94371390Y-79446523D02*
X94466628Y-79398904D01*
X94466628Y-79398904D02*
X94514247Y-79351285D01*
X94514247Y-79351285D02*
X94561866Y-79256047D01*
X94561866Y-79256047D02*
X94561866Y-79065571D01*
X94561866Y-79065571D02*
X94514247Y-78970333D01*
X94514247Y-78970333D02*
X94466628Y-78922714D01*
X94466628Y-78922714D02*
X94371390Y-78875095D01*
X94593580Y-88114047D02*
X94641200Y-88161666D01*
X94641200Y-88161666D02*
X94688819Y-88304523D01*
X94688819Y-88304523D02*
X94688819Y-88399761D01*
X94688819Y-88399761D02*
X94641200Y-88542618D01*
X94641200Y-88542618D02*
X94545961Y-88637856D01*
X94545961Y-88637856D02*
X94450723Y-88685475D01*
X94450723Y-88685475D02*
X94260247Y-88733094D01*
X94260247Y-88733094D02*
X94117390Y-88733094D01*
X94117390Y-88733094D02*
X93926914Y-88685475D01*
X93926914Y-88685475D02*
X93831676Y-88637856D01*
X93831676Y-88637856D02*
X93736438Y-88542618D01*
X93736438Y-88542618D02*
X93688819Y-88399761D01*
X93688819Y-88399761D02*
X93688819Y-88304523D01*
X93688819Y-88304523D02*
X93736438Y-88161666D01*
X93736438Y-88161666D02*
X93784057Y-88114047D01*
X94688819Y-87161666D02*
X94688819Y-87733094D01*
X94688819Y-87447380D02*
X93688819Y-87447380D01*
X93688819Y-87447380D02*
X93831676Y-87542618D01*
X93831676Y-87542618D02*
X93926914Y-87637856D01*
X93926914Y-87637856D02*
X93974533Y-87733094D01*
X93688819Y-86542618D02*
X93688819Y-86447380D01*
X93688819Y-86447380D02*
X93736438Y-86352142D01*
X93736438Y-86352142D02*
X93784057Y-86304523D01*
X93784057Y-86304523D02*
X93879295Y-86256904D01*
X93879295Y-86256904D02*
X94069771Y-86209285D01*
X94069771Y-86209285D02*
X94307866Y-86209285D01*
X94307866Y-86209285D02*
X94498342Y-86256904D01*
X94498342Y-86256904D02*
X94593580Y-86304523D01*
X94593580Y-86304523D02*
X94641200Y-86352142D01*
X94641200Y-86352142D02*
X94688819Y-86447380D01*
X94688819Y-86447380D02*
X94688819Y-86542618D01*
X94688819Y-86542618D02*
X94641200Y-86637856D01*
X94641200Y-86637856D02*
X94593580Y-86685475D01*
X94593580Y-86685475D02*
X94498342Y-86733094D01*
X94498342Y-86733094D02*
X94307866Y-86780713D01*
X94307866Y-86780713D02*
X94069771Y-86780713D01*
X94069771Y-86780713D02*
X93879295Y-86733094D01*
X93879295Y-86733094D02*
X93784057Y-86685475D01*
X93784057Y-86685475D02*
X93736438Y-86637856D01*
X93736438Y-86637856D02*
X93688819Y-86542618D01*
X93688819Y-85590237D02*
X93688819Y-85494999D01*
X93688819Y-85494999D02*
X93736438Y-85399761D01*
X93736438Y-85399761D02*
X93784057Y-85352142D01*
X93784057Y-85352142D02*
X93879295Y-85304523D01*
X93879295Y-85304523D02*
X94069771Y-85256904D01*
X94069771Y-85256904D02*
X94307866Y-85256904D01*
X94307866Y-85256904D02*
X94498342Y-85304523D01*
X94498342Y-85304523D02*
X94593580Y-85352142D01*
X94593580Y-85352142D02*
X94641200Y-85399761D01*
X94641200Y-85399761D02*
X94688819Y-85494999D01*
X94688819Y-85494999D02*
X94688819Y-85590237D01*
X94688819Y-85590237D02*
X94641200Y-85685475D01*
X94641200Y-85685475D02*
X94593580Y-85733094D01*
X94593580Y-85733094D02*
X94498342Y-85780713D01*
X94498342Y-85780713D02*
X94307866Y-85828332D01*
X94307866Y-85828332D02*
X94069771Y-85828332D01*
X94069771Y-85828332D02*
X93879295Y-85780713D01*
X93879295Y-85780713D02*
X93784057Y-85733094D01*
X93784057Y-85733094D02*
X93736438Y-85685475D01*
X93736438Y-85685475D02*
X93688819Y-85590237D01*
X90529580Y-98991457D02*
X90577200Y-99039076D01*
X90577200Y-99039076D02*
X90624819Y-99181933D01*
X90624819Y-99181933D02*
X90624819Y-99277171D01*
X90624819Y-99277171D02*
X90577200Y-99420028D01*
X90577200Y-99420028D02*
X90481961Y-99515266D01*
X90481961Y-99515266D02*
X90386723Y-99562885D01*
X90386723Y-99562885D02*
X90196247Y-99610504D01*
X90196247Y-99610504D02*
X90053390Y-99610504D01*
X90053390Y-99610504D02*
X89862914Y-99562885D01*
X89862914Y-99562885D02*
X89767676Y-99515266D01*
X89767676Y-99515266D02*
X89672438Y-99420028D01*
X89672438Y-99420028D02*
X89624819Y-99277171D01*
X89624819Y-99277171D02*
X89624819Y-99181933D01*
X89624819Y-99181933D02*
X89672438Y-99039076D01*
X89672438Y-99039076D02*
X89720057Y-98991457D01*
X89624819Y-98134314D02*
X89624819Y-98324790D01*
X89624819Y-98324790D02*
X89672438Y-98420028D01*
X89672438Y-98420028D02*
X89720057Y-98467647D01*
X89720057Y-98467647D02*
X89862914Y-98562885D01*
X89862914Y-98562885D02*
X90053390Y-98610504D01*
X90053390Y-98610504D02*
X90434342Y-98610504D01*
X90434342Y-98610504D02*
X90529580Y-98562885D01*
X90529580Y-98562885D02*
X90577200Y-98515266D01*
X90577200Y-98515266D02*
X90624819Y-98420028D01*
X90624819Y-98420028D02*
X90624819Y-98229552D01*
X90624819Y-98229552D02*
X90577200Y-98134314D01*
X90577200Y-98134314D02*
X90529580Y-98086695D01*
X90529580Y-98086695D02*
X90434342Y-98039076D01*
X90434342Y-98039076D02*
X90196247Y-98039076D01*
X90196247Y-98039076D02*
X90101009Y-98086695D01*
X90101009Y-98086695D02*
X90053390Y-98134314D01*
X90053390Y-98134314D02*
X90005771Y-98229552D01*
X90005771Y-98229552D02*
X90005771Y-98420028D01*
X90005771Y-98420028D02*
X90053390Y-98515266D01*
X90053390Y-98515266D02*
X90101009Y-98562885D01*
X90101009Y-98562885D02*
X90196247Y-98610504D01*
X90624819Y-97086695D02*
X90624819Y-97658123D01*
X90624819Y-97372409D02*
X89624819Y-97372409D01*
X89624819Y-97372409D02*
X89767676Y-97467647D01*
X89767676Y-97467647D02*
X89862914Y-97562885D01*
X89862914Y-97562885D02*
X89910533Y-97658123D01*
X72898095Y-153734819D02*
X72898095Y-152734819D01*
X72898095Y-153211009D02*
X73469523Y-153211009D01*
X73469523Y-153734819D02*
X73469523Y-152734819D01*
X74469523Y-153734819D02*
X73898095Y-153734819D01*
X74183809Y-153734819D02*
X74183809Y-152734819D01*
X74183809Y-152734819D02*
X74088571Y-152877676D01*
X74088571Y-152877676D02*
X73993333Y-152972914D01*
X73993333Y-152972914D02*
X73898095Y-153020533D01*
X60110952Y-152887200D02*
X60253809Y-152934819D01*
X60253809Y-152934819D02*
X60491904Y-152934819D01*
X60491904Y-152934819D02*
X60587142Y-152887200D01*
X60587142Y-152887200D02*
X60634761Y-152839580D01*
X60634761Y-152839580D02*
X60682380Y-152744342D01*
X60682380Y-152744342D02*
X60682380Y-152649104D01*
X60682380Y-152649104D02*
X60634761Y-152553866D01*
X60634761Y-152553866D02*
X60587142Y-152506247D01*
X60587142Y-152506247D02*
X60491904Y-152458628D01*
X60491904Y-152458628D02*
X60301428Y-152411009D01*
X60301428Y-152411009D02*
X60206190Y-152363390D01*
X60206190Y-152363390D02*
X60158571Y-152315771D01*
X60158571Y-152315771D02*
X60110952Y-152220533D01*
X60110952Y-152220533D02*
X60110952Y-152125295D01*
X60110952Y-152125295D02*
X60158571Y-152030057D01*
X60158571Y-152030057D02*
X60206190Y-151982438D01*
X60206190Y-151982438D02*
X60301428Y-151934819D01*
X60301428Y-151934819D02*
X60539523Y-151934819D01*
X60539523Y-151934819D02*
X60682380Y-151982438D01*
X61015714Y-151934819D02*
X61253809Y-152934819D01*
X61253809Y-152934819D02*
X61444285Y-152220533D01*
X61444285Y-152220533D02*
X61634761Y-152934819D01*
X61634761Y-152934819D02*
X61872857Y-151934819D01*
X62015714Y-153030057D02*
X62777618Y-153030057D01*
X63491904Y-152934819D02*
X63015714Y-152934819D01*
X63015714Y-152934819D02*
X63015714Y-151934819D01*
X64349047Y-152934819D02*
X63777619Y-152934819D01*
X64063333Y-152934819D02*
X64063333Y-151934819D01*
X64063333Y-151934819D02*
X63968095Y-152077676D01*
X63968095Y-152077676D02*
X63872857Y-152172914D01*
X63872857Y-152172914D02*
X63777619Y-152220533D01*
X79816080Y-86166457D02*
X79863700Y-86214076D01*
X79863700Y-86214076D02*
X79911319Y-86356933D01*
X79911319Y-86356933D02*
X79911319Y-86452171D01*
X79911319Y-86452171D02*
X79863700Y-86595028D01*
X79863700Y-86595028D02*
X79768461Y-86690266D01*
X79768461Y-86690266D02*
X79673223Y-86737885D01*
X79673223Y-86737885D02*
X79482747Y-86785504D01*
X79482747Y-86785504D02*
X79339890Y-86785504D01*
X79339890Y-86785504D02*
X79149414Y-86737885D01*
X79149414Y-86737885D02*
X79054176Y-86690266D01*
X79054176Y-86690266D02*
X78958938Y-86595028D01*
X78958938Y-86595028D02*
X78911319Y-86452171D01*
X78911319Y-86452171D02*
X78911319Y-86356933D01*
X78911319Y-86356933D02*
X78958938Y-86214076D01*
X78958938Y-86214076D02*
X79006557Y-86166457D01*
X79911319Y-85214076D02*
X79911319Y-85785504D01*
X79911319Y-85499790D02*
X78911319Y-85499790D01*
X78911319Y-85499790D02*
X79054176Y-85595028D01*
X79054176Y-85595028D02*
X79149414Y-85690266D01*
X79149414Y-85690266D02*
X79197033Y-85785504D01*
X78911319Y-84356933D02*
X78911319Y-84547409D01*
X78911319Y-84547409D02*
X78958938Y-84642647D01*
X78958938Y-84642647D02*
X79006557Y-84690266D01*
X79006557Y-84690266D02*
X79149414Y-84785504D01*
X79149414Y-84785504D02*
X79339890Y-84833123D01*
X79339890Y-84833123D02*
X79720842Y-84833123D01*
X79720842Y-84833123D02*
X79816080Y-84785504D01*
X79816080Y-84785504D02*
X79863700Y-84737885D01*
X79863700Y-84737885D02*
X79911319Y-84642647D01*
X79911319Y-84642647D02*
X79911319Y-84452171D01*
X79911319Y-84452171D02*
X79863700Y-84356933D01*
X79863700Y-84356933D02*
X79816080Y-84309314D01*
X79816080Y-84309314D02*
X79720842Y-84261695D01*
X79720842Y-84261695D02*
X79482747Y-84261695D01*
X79482747Y-84261695D02*
X79387509Y-84309314D01*
X79387509Y-84309314D02*
X79339890Y-84356933D01*
X79339890Y-84356933D02*
X79292271Y-84452171D01*
X79292271Y-84452171D02*
X79292271Y-84642647D01*
X79292271Y-84642647D02*
X79339890Y-84737885D01*
X79339890Y-84737885D02*
X79387509Y-84785504D01*
X79387509Y-84785504D02*
X79482747Y-84833123D01*
X81004580Y-90685857D02*
X81052200Y-90733476D01*
X81052200Y-90733476D02*
X81099819Y-90876333D01*
X81099819Y-90876333D02*
X81099819Y-90971571D01*
X81099819Y-90971571D02*
X81052200Y-91114428D01*
X81052200Y-91114428D02*
X80956961Y-91209666D01*
X80956961Y-91209666D02*
X80861723Y-91257285D01*
X80861723Y-91257285D02*
X80671247Y-91304904D01*
X80671247Y-91304904D02*
X80528390Y-91304904D01*
X80528390Y-91304904D02*
X80337914Y-91257285D01*
X80337914Y-91257285D02*
X80242676Y-91209666D01*
X80242676Y-91209666D02*
X80147438Y-91114428D01*
X80147438Y-91114428D02*
X80099819Y-90971571D01*
X80099819Y-90971571D02*
X80099819Y-90876333D01*
X80099819Y-90876333D02*
X80147438Y-90733476D01*
X80147438Y-90733476D02*
X80195057Y-90685857D01*
X81099819Y-89733476D02*
X81099819Y-90304904D01*
X81099819Y-90019190D02*
X80099819Y-90019190D01*
X80099819Y-90019190D02*
X80242676Y-90114428D01*
X80242676Y-90114428D02*
X80337914Y-90209666D01*
X80337914Y-90209666D02*
X80385533Y-90304904D01*
X80099819Y-88828714D02*
X80099819Y-89304904D01*
X80099819Y-89304904D02*
X80576009Y-89352523D01*
X80576009Y-89352523D02*
X80528390Y-89304904D01*
X80528390Y-89304904D02*
X80480771Y-89209666D01*
X80480771Y-89209666D02*
X80480771Y-88971571D01*
X80480771Y-88971571D02*
X80528390Y-88876333D01*
X80528390Y-88876333D02*
X80576009Y-88828714D01*
X80576009Y-88828714D02*
X80671247Y-88781095D01*
X80671247Y-88781095D02*
X80909342Y-88781095D01*
X80909342Y-88781095D02*
X81004580Y-88828714D01*
X81004580Y-88828714D02*
X81052200Y-88876333D01*
X81052200Y-88876333D02*
X81099819Y-88971571D01*
X81099819Y-88971571D02*
X81099819Y-89209666D01*
X81099819Y-89209666D02*
X81052200Y-89304904D01*
X81052200Y-89304904D02*
X81004580Y-89352523D01*
X71421905Y-141457200D02*
X71564762Y-141504819D01*
X71564762Y-141504819D02*
X71802857Y-141504819D01*
X71802857Y-141504819D02*
X71898095Y-141457200D01*
X71898095Y-141457200D02*
X71945714Y-141409580D01*
X71945714Y-141409580D02*
X71993333Y-141314342D01*
X71993333Y-141314342D02*
X71993333Y-141219104D01*
X71993333Y-141219104D02*
X71945714Y-141123866D01*
X71945714Y-141123866D02*
X71898095Y-141076247D01*
X71898095Y-141076247D02*
X71802857Y-141028628D01*
X71802857Y-141028628D02*
X71612381Y-140981009D01*
X71612381Y-140981009D02*
X71517143Y-140933390D01*
X71517143Y-140933390D02*
X71469524Y-140885771D01*
X71469524Y-140885771D02*
X71421905Y-140790533D01*
X71421905Y-140790533D02*
X71421905Y-140695295D01*
X71421905Y-140695295D02*
X71469524Y-140600057D01*
X71469524Y-140600057D02*
X71517143Y-140552438D01*
X71517143Y-140552438D02*
X71612381Y-140504819D01*
X71612381Y-140504819D02*
X71850476Y-140504819D01*
X71850476Y-140504819D02*
X71993333Y-140552438D01*
X72326667Y-140504819D02*
X72564762Y-141504819D01*
X72564762Y-141504819D02*
X72755238Y-140790533D01*
X72755238Y-140790533D02*
X72945714Y-141504819D01*
X72945714Y-141504819D02*
X73183810Y-140504819D01*
X73326667Y-141600057D02*
X74088571Y-141600057D01*
X74326667Y-140504819D02*
X74326667Y-141314342D01*
X74326667Y-141314342D02*
X74374286Y-141409580D01*
X74374286Y-141409580D02*
X74421905Y-141457200D01*
X74421905Y-141457200D02*
X74517143Y-141504819D01*
X74517143Y-141504819D02*
X74707619Y-141504819D01*
X74707619Y-141504819D02*
X74802857Y-141457200D01*
X74802857Y-141457200D02*
X74850476Y-141409580D01*
X74850476Y-141409580D02*
X74898095Y-141314342D01*
X74898095Y-141314342D02*
X74898095Y-140504819D01*
X75898095Y-141504819D02*
X75326667Y-141504819D01*
X75612381Y-141504819D02*
X75612381Y-140504819D01*
X75612381Y-140504819D02*
X75517143Y-140647676D01*
X75517143Y-140647676D02*
X75421905Y-140742914D01*
X75421905Y-140742914D02*
X75326667Y-140790533D01*
X76573142Y-81258580D02*
X76525523Y-81306200D01*
X76525523Y-81306200D02*
X76382666Y-81353819D01*
X76382666Y-81353819D02*
X76287428Y-81353819D01*
X76287428Y-81353819D02*
X76144571Y-81306200D01*
X76144571Y-81306200D02*
X76049333Y-81210961D01*
X76049333Y-81210961D02*
X76001714Y-81115723D01*
X76001714Y-81115723D02*
X75954095Y-80925247D01*
X75954095Y-80925247D02*
X75954095Y-80782390D01*
X75954095Y-80782390D02*
X76001714Y-80591914D01*
X76001714Y-80591914D02*
X76049333Y-80496676D01*
X76049333Y-80496676D02*
X76144571Y-80401438D01*
X76144571Y-80401438D02*
X76287428Y-80353819D01*
X76287428Y-80353819D02*
X76382666Y-80353819D01*
X76382666Y-80353819D02*
X76525523Y-80401438D01*
X76525523Y-80401438D02*
X76573142Y-80449057D01*
X77525523Y-81353819D02*
X76954095Y-81353819D01*
X77239809Y-81353819D02*
X77239809Y-80353819D01*
X77239809Y-80353819D02*
X77144571Y-80496676D01*
X77144571Y-80496676D02*
X77049333Y-80591914D01*
X77049333Y-80591914D02*
X76954095Y-80639533D01*
X78001714Y-81353819D02*
X78192190Y-81353819D01*
X78192190Y-81353819D02*
X78287428Y-81306200D01*
X78287428Y-81306200D02*
X78335047Y-81258580D01*
X78335047Y-81258580D02*
X78430285Y-81115723D01*
X78430285Y-81115723D02*
X78477904Y-80925247D01*
X78477904Y-80925247D02*
X78477904Y-80544295D01*
X78477904Y-80544295D02*
X78430285Y-80449057D01*
X78430285Y-80449057D02*
X78382666Y-80401438D01*
X78382666Y-80401438D02*
X78287428Y-80353819D01*
X78287428Y-80353819D02*
X78096952Y-80353819D01*
X78096952Y-80353819D02*
X78001714Y-80401438D01*
X78001714Y-80401438D02*
X77954095Y-80449057D01*
X77954095Y-80449057D02*
X77906476Y-80544295D01*
X77906476Y-80544295D02*
X77906476Y-80782390D01*
X77906476Y-80782390D02*
X77954095Y-80877628D01*
X77954095Y-80877628D02*
X78001714Y-80925247D01*
X78001714Y-80925247D02*
X78096952Y-80972866D01*
X78096952Y-80972866D02*
X78287428Y-80972866D01*
X78287428Y-80972866D02*
X78382666Y-80925247D01*
X78382666Y-80925247D02*
X78430285Y-80877628D01*
X78430285Y-80877628D02*
X78477904Y-80782390D01*
X91211905Y-125981620D02*
X91211905Y-124981620D01*
X91211905Y-124981620D02*
X91450000Y-124981620D01*
X91450000Y-124981620D02*
X91592857Y-125029239D01*
X91592857Y-125029239D02*
X91688095Y-125124477D01*
X91688095Y-125124477D02*
X91735714Y-125219715D01*
X91735714Y-125219715D02*
X91783333Y-125410191D01*
X91783333Y-125410191D02*
X91783333Y-125553048D01*
X91783333Y-125553048D02*
X91735714Y-125743524D01*
X91735714Y-125743524D02*
X91688095Y-125838762D01*
X91688095Y-125838762D02*
X91592857Y-125934001D01*
X91592857Y-125934001D02*
X91450000Y-125981620D01*
X91450000Y-125981620D02*
X91211905Y-125981620D01*
X92116667Y-124981620D02*
X92783333Y-124981620D01*
X92783333Y-124981620D02*
X92354762Y-125981620D01*
X98544142Y-88116580D02*
X98496523Y-88164200D01*
X98496523Y-88164200D02*
X98353666Y-88211819D01*
X98353666Y-88211819D02*
X98258428Y-88211819D01*
X98258428Y-88211819D02*
X98115571Y-88164200D01*
X98115571Y-88164200D02*
X98020333Y-88068961D01*
X98020333Y-88068961D02*
X97972714Y-87973723D01*
X97972714Y-87973723D02*
X97925095Y-87783247D01*
X97925095Y-87783247D02*
X97925095Y-87640390D01*
X97925095Y-87640390D02*
X97972714Y-87449914D01*
X97972714Y-87449914D02*
X98020333Y-87354676D01*
X98020333Y-87354676D02*
X98115571Y-87259438D01*
X98115571Y-87259438D02*
X98258428Y-87211819D01*
X98258428Y-87211819D02*
X98353666Y-87211819D01*
X98353666Y-87211819D02*
X98496523Y-87259438D01*
X98496523Y-87259438D02*
X98544142Y-87307057D01*
X99020333Y-88211819D02*
X99210809Y-88211819D01*
X99210809Y-88211819D02*
X99306047Y-88164200D01*
X99306047Y-88164200D02*
X99353666Y-88116580D01*
X99353666Y-88116580D02*
X99448904Y-87973723D01*
X99448904Y-87973723D02*
X99496523Y-87783247D01*
X99496523Y-87783247D02*
X99496523Y-87402295D01*
X99496523Y-87402295D02*
X99448904Y-87307057D01*
X99448904Y-87307057D02*
X99401285Y-87259438D01*
X99401285Y-87259438D02*
X99306047Y-87211819D01*
X99306047Y-87211819D02*
X99115571Y-87211819D01*
X99115571Y-87211819D02*
X99020333Y-87259438D01*
X99020333Y-87259438D02*
X98972714Y-87307057D01*
X98972714Y-87307057D02*
X98925095Y-87402295D01*
X98925095Y-87402295D02*
X98925095Y-87640390D01*
X98925095Y-87640390D02*
X98972714Y-87735628D01*
X98972714Y-87735628D02*
X99020333Y-87783247D01*
X99020333Y-87783247D02*
X99115571Y-87830866D01*
X99115571Y-87830866D02*
X99306047Y-87830866D01*
X99306047Y-87830866D02*
X99401285Y-87783247D01*
X99401285Y-87783247D02*
X99448904Y-87735628D01*
X99448904Y-87735628D02*
X99496523Y-87640390D01*
X100067952Y-87640390D02*
X99972714Y-87592771D01*
X99972714Y-87592771D02*
X99925095Y-87545152D01*
X99925095Y-87545152D02*
X99877476Y-87449914D01*
X99877476Y-87449914D02*
X99877476Y-87402295D01*
X99877476Y-87402295D02*
X99925095Y-87307057D01*
X99925095Y-87307057D02*
X99972714Y-87259438D01*
X99972714Y-87259438D02*
X100067952Y-87211819D01*
X100067952Y-87211819D02*
X100258428Y-87211819D01*
X100258428Y-87211819D02*
X100353666Y-87259438D01*
X100353666Y-87259438D02*
X100401285Y-87307057D01*
X100401285Y-87307057D02*
X100448904Y-87402295D01*
X100448904Y-87402295D02*
X100448904Y-87449914D01*
X100448904Y-87449914D02*
X100401285Y-87545152D01*
X100401285Y-87545152D02*
X100353666Y-87592771D01*
X100353666Y-87592771D02*
X100258428Y-87640390D01*
X100258428Y-87640390D02*
X100067952Y-87640390D01*
X100067952Y-87640390D02*
X99972714Y-87688009D01*
X99972714Y-87688009D02*
X99925095Y-87735628D01*
X99925095Y-87735628D02*
X99877476Y-87830866D01*
X99877476Y-87830866D02*
X99877476Y-88021342D01*
X99877476Y-88021342D02*
X99925095Y-88116580D01*
X99925095Y-88116580D02*
X99972714Y-88164200D01*
X99972714Y-88164200D02*
X100067952Y-88211819D01*
X100067952Y-88211819D02*
X100258428Y-88211819D01*
X100258428Y-88211819D02*
X100353666Y-88164200D01*
X100353666Y-88164200D02*
X100401285Y-88116580D01*
X100401285Y-88116580D02*
X100448904Y-88021342D01*
X100448904Y-88021342D02*
X100448904Y-87830866D01*
X100448904Y-87830866D02*
X100401285Y-87735628D01*
X100401285Y-87735628D02*
X100353666Y-87688009D01*
X100353666Y-87688009D02*
X100258428Y-87640390D01*
X136406095Y-36367819D02*
X136977523Y-36367819D01*
X136691809Y-37367819D02*
X136691809Y-36367819D01*
X137310857Y-37367819D02*
X137310857Y-36367819D01*
X137310857Y-36367819D02*
X137691809Y-36367819D01*
X137691809Y-36367819D02*
X137787047Y-36415438D01*
X137787047Y-36415438D02*
X137834666Y-36463057D01*
X137834666Y-36463057D02*
X137882285Y-36558295D01*
X137882285Y-36558295D02*
X137882285Y-36701152D01*
X137882285Y-36701152D02*
X137834666Y-36796390D01*
X137834666Y-36796390D02*
X137787047Y-36844009D01*
X137787047Y-36844009D02*
X137691809Y-36891628D01*
X137691809Y-36891628D02*
X137310857Y-36891628D01*
X138215619Y-36367819D02*
X138882285Y-36367819D01*
X138882285Y-36367819D02*
X138453714Y-37367819D01*
X94720580Y-103893857D02*
X94768200Y-103941476D01*
X94768200Y-103941476D02*
X94815819Y-104084333D01*
X94815819Y-104084333D02*
X94815819Y-104179571D01*
X94815819Y-104179571D02*
X94768200Y-104322428D01*
X94768200Y-104322428D02*
X94672961Y-104417666D01*
X94672961Y-104417666D02*
X94577723Y-104465285D01*
X94577723Y-104465285D02*
X94387247Y-104512904D01*
X94387247Y-104512904D02*
X94244390Y-104512904D01*
X94244390Y-104512904D02*
X94053914Y-104465285D01*
X94053914Y-104465285D02*
X93958676Y-104417666D01*
X93958676Y-104417666D02*
X93863438Y-104322428D01*
X93863438Y-104322428D02*
X93815819Y-104179571D01*
X93815819Y-104179571D02*
X93815819Y-104084333D01*
X93815819Y-104084333D02*
X93863438Y-103941476D01*
X93863438Y-103941476D02*
X93911057Y-103893857D01*
X94149152Y-103036714D02*
X94815819Y-103036714D01*
X93768200Y-103274809D02*
X94482485Y-103512904D01*
X94482485Y-103512904D02*
X94482485Y-102893857D01*
X94815819Y-101989095D02*
X94815819Y-102560523D01*
X94815819Y-102274809D02*
X93815819Y-102274809D01*
X93815819Y-102274809D02*
X93958676Y-102370047D01*
X93958676Y-102370047D02*
X94053914Y-102465285D01*
X94053914Y-102465285D02*
X94101533Y-102560523D01*
X102288095Y-33234819D02*
X102859523Y-33234819D01*
X102573809Y-34234819D02*
X102573809Y-33234819D01*
X103192857Y-34234819D02*
X103192857Y-33234819D01*
X103192857Y-33234819D02*
X103573809Y-33234819D01*
X103573809Y-33234819D02*
X103669047Y-33282438D01*
X103669047Y-33282438D02*
X103716666Y-33330057D01*
X103716666Y-33330057D02*
X103764285Y-33425295D01*
X103764285Y-33425295D02*
X103764285Y-33568152D01*
X103764285Y-33568152D02*
X103716666Y-33663390D01*
X103716666Y-33663390D02*
X103669047Y-33711009D01*
X103669047Y-33711009D02*
X103573809Y-33758628D01*
X103573809Y-33758628D02*
X103192857Y-33758628D01*
X104621428Y-33568152D02*
X104621428Y-34234819D01*
X104383333Y-33187200D02*
X104145238Y-33901485D01*
X104145238Y-33901485D02*
X104764285Y-33901485D01*
X93069580Y-88114047D02*
X93117200Y-88161666D01*
X93117200Y-88161666D02*
X93164819Y-88304523D01*
X93164819Y-88304523D02*
X93164819Y-88399761D01*
X93164819Y-88399761D02*
X93117200Y-88542618D01*
X93117200Y-88542618D02*
X93021961Y-88637856D01*
X93021961Y-88637856D02*
X92926723Y-88685475D01*
X92926723Y-88685475D02*
X92736247Y-88733094D01*
X92736247Y-88733094D02*
X92593390Y-88733094D01*
X92593390Y-88733094D02*
X92402914Y-88685475D01*
X92402914Y-88685475D02*
X92307676Y-88637856D01*
X92307676Y-88637856D02*
X92212438Y-88542618D01*
X92212438Y-88542618D02*
X92164819Y-88399761D01*
X92164819Y-88399761D02*
X92164819Y-88304523D01*
X92164819Y-88304523D02*
X92212438Y-88161666D01*
X92212438Y-88161666D02*
X92260057Y-88114047D01*
X93164819Y-87161666D02*
X93164819Y-87733094D01*
X93164819Y-87447380D02*
X92164819Y-87447380D01*
X92164819Y-87447380D02*
X92307676Y-87542618D01*
X92307676Y-87542618D02*
X92402914Y-87637856D01*
X92402914Y-87637856D02*
X92450533Y-87733094D01*
X92164819Y-86542618D02*
X92164819Y-86447380D01*
X92164819Y-86447380D02*
X92212438Y-86352142D01*
X92212438Y-86352142D02*
X92260057Y-86304523D01*
X92260057Y-86304523D02*
X92355295Y-86256904D01*
X92355295Y-86256904D02*
X92545771Y-86209285D01*
X92545771Y-86209285D02*
X92783866Y-86209285D01*
X92783866Y-86209285D02*
X92974342Y-86256904D01*
X92974342Y-86256904D02*
X93069580Y-86304523D01*
X93069580Y-86304523D02*
X93117200Y-86352142D01*
X93117200Y-86352142D02*
X93164819Y-86447380D01*
X93164819Y-86447380D02*
X93164819Y-86542618D01*
X93164819Y-86542618D02*
X93117200Y-86637856D01*
X93117200Y-86637856D02*
X93069580Y-86685475D01*
X93069580Y-86685475D02*
X92974342Y-86733094D01*
X92974342Y-86733094D02*
X92783866Y-86780713D01*
X92783866Y-86780713D02*
X92545771Y-86780713D01*
X92545771Y-86780713D02*
X92355295Y-86733094D01*
X92355295Y-86733094D02*
X92260057Y-86685475D01*
X92260057Y-86685475D02*
X92212438Y-86637856D01*
X92212438Y-86637856D02*
X92164819Y-86542618D01*
X93164819Y-85256904D02*
X93164819Y-85828332D01*
X93164819Y-85542618D02*
X92164819Y-85542618D01*
X92164819Y-85542618D02*
X92307676Y-85637856D01*
X92307676Y-85637856D02*
X92402914Y-85733094D01*
X92402914Y-85733094D02*
X92450533Y-85828332D01*
X116078095Y-144022419D02*
X116078095Y-143022419D01*
X116078095Y-143498609D02*
X116649523Y-143498609D01*
X116649523Y-144022419D02*
X116649523Y-143022419D01*
X117554285Y-143022419D02*
X117363809Y-143022419D01*
X117363809Y-143022419D02*
X117268571Y-143070038D01*
X117268571Y-143070038D02*
X117220952Y-143117657D01*
X117220952Y-143117657D02*
X117125714Y-143260514D01*
X117125714Y-143260514D02*
X117078095Y-143450990D01*
X117078095Y-143450990D02*
X117078095Y-143831942D01*
X117078095Y-143831942D02*
X117125714Y-143927180D01*
X117125714Y-143927180D02*
X117173333Y-143974800D01*
X117173333Y-143974800D02*
X117268571Y-144022419D01*
X117268571Y-144022419D02*
X117459047Y-144022419D01*
X117459047Y-144022419D02*
X117554285Y-143974800D01*
X117554285Y-143974800D02*
X117601904Y-143927180D01*
X117601904Y-143927180D02*
X117649523Y-143831942D01*
X117649523Y-143831942D02*
X117649523Y-143593847D01*
X117649523Y-143593847D02*
X117601904Y-143498609D01*
X117601904Y-143498609D02*
X117554285Y-143450990D01*
X117554285Y-143450990D02*
X117459047Y-143403371D01*
X117459047Y-143403371D02*
X117268571Y-143403371D01*
X117268571Y-143403371D02*
X117173333Y-143450990D01*
X117173333Y-143450990D02*
X117125714Y-143498609D01*
X117125714Y-143498609D02*
X117078095Y-143593847D01*
X96752580Y-109216457D02*
X96800200Y-109264076D01*
X96800200Y-109264076D02*
X96847819Y-109406933D01*
X96847819Y-109406933D02*
X96847819Y-109502171D01*
X96847819Y-109502171D02*
X96800200Y-109645028D01*
X96800200Y-109645028D02*
X96704961Y-109740266D01*
X96704961Y-109740266D02*
X96609723Y-109787885D01*
X96609723Y-109787885D02*
X96419247Y-109835504D01*
X96419247Y-109835504D02*
X96276390Y-109835504D01*
X96276390Y-109835504D02*
X96085914Y-109787885D01*
X96085914Y-109787885D02*
X95990676Y-109740266D01*
X95990676Y-109740266D02*
X95895438Y-109645028D01*
X95895438Y-109645028D02*
X95847819Y-109502171D01*
X95847819Y-109502171D02*
X95847819Y-109406933D01*
X95847819Y-109406933D02*
X95895438Y-109264076D01*
X95895438Y-109264076D02*
X95943057Y-109216457D01*
X95847819Y-108883123D02*
X95847819Y-108264076D01*
X95847819Y-108264076D02*
X96228771Y-108597409D01*
X96228771Y-108597409D02*
X96228771Y-108454552D01*
X96228771Y-108454552D02*
X96276390Y-108359314D01*
X96276390Y-108359314D02*
X96324009Y-108311695D01*
X96324009Y-108311695D02*
X96419247Y-108264076D01*
X96419247Y-108264076D02*
X96657342Y-108264076D01*
X96657342Y-108264076D02*
X96752580Y-108311695D01*
X96752580Y-108311695D02*
X96800200Y-108359314D01*
X96800200Y-108359314D02*
X96847819Y-108454552D01*
X96847819Y-108454552D02*
X96847819Y-108740266D01*
X96847819Y-108740266D02*
X96800200Y-108835504D01*
X96800200Y-108835504D02*
X96752580Y-108883123D01*
X96181152Y-107406933D02*
X96847819Y-107406933D01*
X95800200Y-107645028D02*
X96514485Y-107883123D01*
X96514485Y-107883123D02*
X96514485Y-107264076D01*
X92083080Y-95034857D02*
X92130700Y-95082476D01*
X92130700Y-95082476D02*
X92178319Y-95225333D01*
X92178319Y-95225333D02*
X92178319Y-95320571D01*
X92178319Y-95320571D02*
X92130700Y-95463428D01*
X92130700Y-95463428D02*
X92035461Y-95558666D01*
X92035461Y-95558666D02*
X91940223Y-95606285D01*
X91940223Y-95606285D02*
X91749747Y-95653904D01*
X91749747Y-95653904D02*
X91606890Y-95653904D01*
X91606890Y-95653904D02*
X91416414Y-95606285D01*
X91416414Y-95606285D02*
X91321176Y-95558666D01*
X91321176Y-95558666D02*
X91225938Y-95463428D01*
X91225938Y-95463428D02*
X91178319Y-95320571D01*
X91178319Y-95320571D02*
X91178319Y-95225333D01*
X91178319Y-95225333D02*
X91225938Y-95082476D01*
X91225938Y-95082476D02*
X91273557Y-95034857D01*
X91178319Y-94701523D02*
X91178319Y-94034857D01*
X91178319Y-94034857D02*
X92178319Y-94463428D01*
X91178319Y-93177714D02*
X91178319Y-93653904D01*
X91178319Y-93653904D02*
X91654509Y-93701523D01*
X91654509Y-93701523D02*
X91606890Y-93653904D01*
X91606890Y-93653904D02*
X91559271Y-93558666D01*
X91559271Y-93558666D02*
X91559271Y-93320571D01*
X91559271Y-93320571D02*
X91606890Y-93225333D01*
X91606890Y-93225333D02*
X91654509Y-93177714D01*
X91654509Y-93177714D02*
X91749747Y-93130095D01*
X91749747Y-93130095D02*
X91987842Y-93130095D01*
X91987842Y-93130095D02*
X92083080Y-93177714D01*
X92083080Y-93177714D02*
X92130700Y-93225333D01*
X92130700Y-93225333D02*
X92178319Y-93320571D01*
X92178319Y-93320571D02*
X92178319Y-93558666D01*
X92178319Y-93558666D02*
X92130700Y-93653904D01*
X92130700Y-93653904D02*
X92083080Y-93701523D01*
X124575595Y-35004819D02*
X124575595Y-35814342D01*
X124575595Y-35814342D02*
X124623214Y-35909580D01*
X124623214Y-35909580D02*
X124670833Y-35957200D01*
X124670833Y-35957200D02*
X124766071Y-36004819D01*
X124766071Y-36004819D02*
X124956547Y-36004819D01*
X124956547Y-36004819D02*
X125051785Y-35957200D01*
X125051785Y-35957200D02*
X125099404Y-35909580D01*
X125099404Y-35909580D02*
X125147023Y-35814342D01*
X125147023Y-35814342D02*
X125147023Y-35004819D01*
X125766071Y-35433390D02*
X125670833Y-35385771D01*
X125670833Y-35385771D02*
X125623214Y-35338152D01*
X125623214Y-35338152D02*
X125575595Y-35242914D01*
X125575595Y-35242914D02*
X125575595Y-35195295D01*
X125575595Y-35195295D02*
X125623214Y-35100057D01*
X125623214Y-35100057D02*
X125670833Y-35052438D01*
X125670833Y-35052438D02*
X125766071Y-35004819D01*
X125766071Y-35004819D02*
X125956547Y-35004819D01*
X125956547Y-35004819D02*
X126051785Y-35052438D01*
X126051785Y-35052438D02*
X126099404Y-35100057D01*
X126099404Y-35100057D02*
X126147023Y-35195295D01*
X126147023Y-35195295D02*
X126147023Y-35242914D01*
X126147023Y-35242914D02*
X126099404Y-35338152D01*
X126099404Y-35338152D02*
X126051785Y-35385771D01*
X126051785Y-35385771D02*
X125956547Y-35433390D01*
X125956547Y-35433390D02*
X125766071Y-35433390D01*
X125766071Y-35433390D02*
X125670833Y-35481009D01*
X125670833Y-35481009D02*
X125623214Y-35528628D01*
X125623214Y-35528628D02*
X125575595Y-35623866D01*
X125575595Y-35623866D02*
X125575595Y-35814342D01*
X125575595Y-35814342D02*
X125623214Y-35909580D01*
X125623214Y-35909580D02*
X125670833Y-35957200D01*
X125670833Y-35957200D02*
X125766071Y-36004819D01*
X125766071Y-36004819D02*
X125956547Y-36004819D01*
X125956547Y-36004819D02*
X126051785Y-35957200D01*
X126051785Y-35957200D02*
X126099404Y-35909580D01*
X126099404Y-35909580D02*
X126147023Y-35814342D01*
X126147023Y-35814342D02*
X126147023Y-35623866D01*
X126147023Y-35623866D02*
X126099404Y-35528628D01*
X126099404Y-35528628D02*
X126051785Y-35481009D01*
X126051785Y-35481009D02*
X125956547Y-35433390D01*
X84986952Y-87608580D02*
X84939333Y-87656200D01*
X84939333Y-87656200D02*
X84796476Y-87703819D01*
X84796476Y-87703819D02*
X84701238Y-87703819D01*
X84701238Y-87703819D02*
X84558381Y-87656200D01*
X84558381Y-87656200D02*
X84463143Y-87560961D01*
X84463143Y-87560961D02*
X84415524Y-87465723D01*
X84415524Y-87465723D02*
X84367905Y-87275247D01*
X84367905Y-87275247D02*
X84367905Y-87132390D01*
X84367905Y-87132390D02*
X84415524Y-86941914D01*
X84415524Y-86941914D02*
X84463143Y-86846676D01*
X84463143Y-86846676D02*
X84558381Y-86751438D01*
X84558381Y-86751438D02*
X84701238Y-86703819D01*
X84701238Y-86703819D02*
X84796476Y-86703819D01*
X84796476Y-86703819D02*
X84939333Y-86751438D01*
X84939333Y-86751438D02*
X84986952Y-86799057D01*
X85939333Y-87703819D02*
X85367905Y-87703819D01*
X85653619Y-87703819D02*
X85653619Y-86703819D01*
X85653619Y-86703819D02*
X85558381Y-86846676D01*
X85558381Y-86846676D02*
X85463143Y-86941914D01*
X85463143Y-86941914D02*
X85367905Y-86989533D01*
X86558381Y-86703819D02*
X86653619Y-86703819D01*
X86653619Y-86703819D02*
X86748857Y-86751438D01*
X86748857Y-86751438D02*
X86796476Y-86799057D01*
X86796476Y-86799057D02*
X86844095Y-86894295D01*
X86844095Y-86894295D02*
X86891714Y-87084771D01*
X86891714Y-87084771D02*
X86891714Y-87322866D01*
X86891714Y-87322866D02*
X86844095Y-87513342D01*
X86844095Y-87513342D02*
X86796476Y-87608580D01*
X86796476Y-87608580D02*
X86748857Y-87656200D01*
X86748857Y-87656200D02*
X86653619Y-87703819D01*
X86653619Y-87703819D02*
X86558381Y-87703819D01*
X86558381Y-87703819D02*
X86463143Y-87656200D01*
X86463143Y-87656200D02*
X86415524Y-87608580D01*
X86415524Y-87608580D02*
X86367905Y-87513342D01*
X86367905Y-87513342D02*
X86320286Y-87322866D01*
X86320286Y-87322866D02*
X86320286Y-87084771D01*
X86320286Y-87084771D02*
X86367905Y-86894295D01*
X86367905Y-86894295D02*
X86415524Y-86799057D01*
X86415524Y-86799057D02*
X86463143Y-86751438D01*
X86463143Y-86751438D02*
X86558381Y-86703819D01*
X87225048Y-86703819D02*
X87844095Y-86703819D01*
X87844095Y-86703819D02*
X87510762Y-87084771D01*
X87510762Y-87084771D02*
X87653619Y-87084771D01*
X87653619Y-87084771D02*
X87748857Y-87132390D01*
X87748857Y-87132390D02*
X87796476Y-87180009D01*
X87796476Y-87180009D02*
X87844095Y-87275247D01*
X87844095Y-87275247D02*
X87844095Y-87513342D01*
X87844095Y-87513342D02*
X87796476Y-87608580D01*
X87796476Y-87608580D02*
X87748857Y-87656200D01*
X87748857Y-87656200D02*
X87653619Y-87703819D01*
X87653619Y-87703819D02*
X87367905Y-87703819D01*
X87367905Y-87703819D02*
X87272667Y-87656200D01*
X87272667Y-87656200D02*
X87225048Y-87608580D01*
X87091080Y-97016457D02*
X87138700Y-97064076D01*
X87138700Y-97064076D02*
X87186319Y-97206933D01*
X87186319Y-97206933D02*
X87186319Y-97302171D01*
X87186319Y-97302171D02*
X87138700Y-97445028D01*
X87138700Y-97445028D02*
X87043461Y-97540266D01*
X87043461Y-97540266D02*
X86948223Y-97587885D01*
X86948223Y-97587885D02*
X86757747Y-97635504D01*
X86757747Y-97635504D02*
X86614890Y-97635504D01*
X86614890Y-97635504D02*
X86424414Y-97587885D01*
X86424414Y-97587885D02*
X86329176Y-97540266D01*
X86329176Y-97540266D02*
X86233938Y-97445028D01*
X86233938Y-97445028D02*
X86186319Y-97302171D01*
X86186319Y-97302171D02*
X86186319Y-97206933D01*
X86186319Y-97206933D02*
X86233938Y-97064076D01*
X86233938Y-97064076D02*
X86281557Y-97016457D01*
X86281557Y-96635504D02*
X86233938Y-96587885D01*
X86233938Y-96587885D02*
X86186319Y-96492647D01*
X86186319Y-96492647D02*
X86186319Y-96254552D01*
X86186319Y-96254552D02*
X86233938Y-96159314D01*
X86233938Y-96159314D02*
X86281557Y-96111695D01*
X86281557Y-96111695D02*
X86376795Y-96064076D01*
X86376795Y-96064076D02*
X86472033Y-96064076D01*
X86472033Y-96064076D02*
X86614890Y-96111695D01*
X86614890Y-96111695D02*
X87186319Y-96683123D01*
X87186319Y-96683123D02*
X87186319Y-96064076D01*
X87186319Y-95111695D02*
X87186319Y-95683123D01*
X87186319Y-95397409D02*
X86186319Y-95397409D01*
X86186319Y-95397409D02*
X86329176Y-95492647D01*
X86329176Y-95492647D02*
X86424414Y-95587885D01*
X86424414Y-95587885D02*
X86472033Y-95683123D01*
D11*
X68211867Y-116233800D02*
X68354724Y-116281419D01*
X68354724Y-116281419D02*
X68592819Y-116281419D01*
X68592819Y-116281419D02*
X68688057Y-116233800D01*
X68688057Y-116233800D02*
X68735676Y-116186180D01*
X68735676Y-116186180D02*
X68783295Y-116090942D01*
X68783295Y-116090942D02*
X68783295Y-115995704D01*
X68783295Y-115995704D02*
X68735676Y-115900466D01*
X68735676Y-115900466D02*
X68688057Y-115852847D01*
X68688057Y-115852847D02*
X68592819Y-115805228D01*
X68592819Y-115805228D02*
X68402343Y-115757609D01*
X68402343Y-115757609D02*
X68307105Y-115709990D01*
X68307105Y-115709990D02*
X68259486Y-115662371D01*
X68259486Y-115662371D02*
X68211867Y-115567133D01*
X68211867Y-115567133D02*
X68211867Y-115471895D01*
X68211867Y-115471895D02*
X68259486Y-115376657D01*
X68259486Y-115376657D02*
X68307105Y-115329038D01*
X68307105Y-115329038D02*
X68402343Y-115281419D01*
X68402343Y-115281419D02*
X68640438Y-115281419D01*
X68640438Y-115281419D02*
X68783295Y-115329038D01*
X69116629Y-115281419D02*
X69354724Y-116281419D01*
X69354724Y-116281419D02*
X69545200Y-115567133D01*
X69545200Y-115567133D02*
X69735676Y-116281419D01*
X69735676Y-116281419D02*
X69973772Y-115281419D01*
X70307105Y-115376657D02*
X70354724Y-115329038D01*
X70354724Y-115329038D02*
X70449962Y-115281419D01*
X70449962Y-115281419D02*
X70688057Y-115281419D01*
X70688057Y-115281419D02*
X70783295Y-115329038D01*
X70783295Y-115329038D02*
X70830914Y-115376657D01*
X70830914Y-115376657D02*
X70878533Y-115471895D01*
X70878533Y-115471895D02*
X70878533Y-115567133D01*
X70878533Y-115567133D02*
X70830914Y-115709990D01*
X70830914Y-115709990D02*
X70259486Y-116281419D01*
X70259486Y-116281419D02*
X70878533Y-116281419D01*
D10*
X124059580Y-24242857D02*
X124107200Y-24290476D01*
X124107200Y-24290476D02*
X124154819Y-24433333D01*
X124154819Y-24433333D02*
X124154819Y-24528571D01*
X124154819Y-24528571D02*
X124107200Y-24671428D01*
X124107200Y-24671428D02*
X124011961Y-24766666D01*
X124011961Y-24766666D02*
X123916723Y-24814285D01*
X123916723Y-24814285D02*
X123726247Y-24861904D01*
X123726247Y-24861904D02*
X123583390Y-24861904D01*
X123583390Y-24861904D02*
X123392914Y-24814285D01*
X123392914Y-24814285D02*
X123297676Y-24766666D01*
X123297676Y-24766666D02*
X123202438Y-24671428D01*
X123202438Y-24671428D02*
X123154819Y-24528571D01*
X123154819Y-24528571D02*
X123154819Y-24433333D01*
X123154819Y-24433333D02*
X123202438Y-24290476D01*
X123202438Y-24290476D02*
X123250057Y-24242857D01*
X123488152Y-23385714D02*
X124154819Y-23385714D01*
X123107200Y-23623809D02*
X123821485Y-23861904D01*
X123821485Y-23861904D02*
X123821485Y-23242857D01*
X123154819Y-22385714D02*
X123154819Y-22861904D01*
X123154819Y-22861904D02*
X123631009Y-22909523D01*
X123631009Y-22909523D02*
X123583390Y-22861904D01*
X123583390Y-22861904D02*
X123535771Y-22766666D01*
X123535771Y-22766666D02*
X123535771Y-22528571D01*
X123535771Y-22528571D02*
X123583390Y-22433333D01*
X123583390Y-22433333D02*
X123631009Y-22385714D01*
X123631009Y-22385714D02*
X123726247Y-22338095D01*
X123726247Y-22338095D02*
X123964342Y-22338095D01*
X123964342Y-22338095D02*
X124059580Y-22385714D01*
X124059580Y-22385714D02*
X124107200Y-22433333D01*
X124107200Y-22433333D02*
X124154819Y-22528571D01*
X124154819Y-22528571D02*
X124154819Y-22766666D01*
X124154819Y-22766666D02*
X124107200Y-22861904D01*
X124107200Y-22861904D02*
X124059580Y-22909523D01*
X120159580Y-35742857D02*
X120207200Y-35790476D01*
X120207200Y-35790476D02*
X120254819Y-35933333D01*
X120254819Y-35933333D02*
X120254819Y-36028571D01*
X120254819Y-36028571D02*
X120207200Y-36171428D01*
X120207200Y-36171428D02*
X120111961Y-36266666D01*
X120111961Y-36266666D02*
X120016723Y-36314285D01*
X120016723Y-36314285D02*
X119826247Y-36361904D01*
X119826247Y-36361904D02*
X119683390Y-36361904D01*
X119683390Y-36361904D02*
X119492914Y-36314285D01*
X119492914Y-36314285D02*
X119397676Y-36266666D01*
X119397676Y-36266666D02*
X119302438Y-36171428D01*
X119302438Y-36171428D02*
X119254819Y-36028571D01*
X119254819Y-36028571D02*
X119254819Y-35933333D01*
X119254819Y-35933333D02*
X119302438Y-35790476D01*
X119302438Y-35790476D02*
X119350057Y-35742857D01*
X119588152Y-34885714D02*
X120254819Y-34885714D01*
X119207200Y-35123809D02*
X119921485Y-35361904D01*
X119921485Y-35361904D02*
X119921485Y-34742857D01*
X119588152Y-33933333D02*
X120254819Y-33933333D01*
X119207200Y-34171428D02*
X119921485Y-34409523D01*
X119921485Y-34409523D02*
X119921485Y-33790476D01*
X90910580Y-108641457D02*
X90958200Y-108689076D01*
X90958200Y-108689076D02*
X91005819Y-108831933D01*
X91005819Y-108831933D02*
X91005819Y-108927171D01*
X91005819Y-108927171D02*
X90958200Y-109070028D01*
X90958200Y-109070028D02*
X90862961Y-109165266D01*
X90862961Y-109165266D02*
X90767723Y-109212885D01*
X90767723Y-109212885D02*
X90577247Y-109260504D01*
X90577247Y-109260504D02*
X90434390Y-109260504D01*
X90434390Y-109260504D02*
X90243914Y-109212885D01*
X90243914Y-109212885D02*
X90148676Y-109165266D01*
X90148676Y-109165266D02*
X90053438Y-109070028D01*
X90053438Y-109070028D02*
X90005819Y-108927171D01*
X90005819Y-108927171D02*
X90005819Y-108831933D01*
X90005819Y-108831933D02*
X90053438Y-108689076D01*
X90053438Y-108689076D02*
X90101057Y-108641457D01*
X90005819Y-108308123D02*
X90005819Y-107689076D01*
X90005819Y-107689076D02*
X90386771Y-108022409D01*
X90386771Y-108022409D02*
X90386771Y-107879552D01*
X90386771Y-107879552D02*
X90434390Y-107784314D01*
X90434390Y-107784314D02*
X90482009Y-107736695D01*
X90482009Y-107736695D02*
X90577247Y-107689076D01*
X90577247Y-107689076D02*
X90815342Y-107689076D01*
X90815342Y-107689076D02*
X90910580Y-107736695D01*
X90910580Y-107736695D02*
X90958200Y-107784314D01*
X90958200Y-107784314D02*
X91005819Y-107879552D01*
X91005819Y-107879552D02*
X91005819Y-108165266D01*
X91005819Y-108165266D02*
X90958200Y-108260504D01*
X90958200Y-108260504D02*
X90910580Y-108308123D01*
X90005819Y-106784314D02*
X90005819Y-107260504D01*
X90005819Y-107260504D02*
X90482009Y-107308123D01*
X90482009Y-107308123D02*
X90434390Y-107260504D01*
X90434390Y-107260504D02*
X90386771Y-107165266D01*
X90386771Y-107165266D02*
X90386771Y-106927171D01*
X90386771Y-106927171D02*
X90434390Y-106831933D01*
X90434390Y-106831933D02*
X90482009Y-106784314D01*
X90482009Y-106784314D02*
X90577247Y-106736695D01*
X90577247Y-106736695D02*
X90815342Y-106736695D01*
X90815342Y-106736695D02*
X90910580Y-106784314D01*
X90910580Y-106784314D02*
X90958200Y-106831933D01*
X90958200Y-106831933D02*
X91005819Y-106927171D01*
X91005819Y-106927171D02*
X91005819Y-107165266D01*
X91005819Y-107165266D02*
X90958200Y-107260504D01*
X90958200Y-107260504D02*
X90910580Y-107308123D01*
X108849642Y-82871980D02*
X108802023Y-82919600D01*
X108802023Y-82919600D02*
X108659166Y-82967219D01*
X108659166Y-82967219D02*
X108563928Y-82967219D01*
X108563928Y-82967219D02*
X108421071Y-82919600D01*
X108421071Y-82919600D02*
X108325833Y-82824361D01*
X108325833Y-82824361D02*
X108278214Y-82729123D01*
X108278214Y-82729123D02*
X108230595Y-82538647D01*
X108230595Y-82538647D02*
X108230595Y-82395790D01*
X108230595Y-82395790D02*
X108278214Y-82205314D01*
X108278214Y-82205314D02*
X108325833Y-82110076D01*
X108325833Y-82110076D02*
X108421071Y-82014838D01*
X108421071Y-82014838D02*
X108563928Y-81967219D01*
X108563928Y-81967219D02*
X108659166Y-81967219D01*
X108659166Y-81967219D02*
X108802023Y-82014838D01*
X108802023Y-82014838D02*
X108849642Y-82062457D01*
X109325833Y-82967219D02*
X109516309Y-82967219D01*
X109516309Y-82967219D02*
X109611547Y-82919600D01*
X109611547Y-82919600D02*
X109659166Y-82871980D01*
X109659166Y-82871980D02*
X109754404Y-82729123D01*
X109754404Y-82729123D02*
X109802023Y-82538647D01*
X109802023Y-82538647D02*
X109802023Y-82157695D01*
X109802023Y-82157695D02*
X109754404Y-82062457D01*
X109754404Y-82062457D02*
X109706785Y-82014838D01*
X109706785Y-82014838D02*
X109611547Y-81967219D01*
X109611547Y-81967219D02*
X109421071Y-81967219D01*
X109421071Y-81967219D02*
X109325833Y-82014838D01*
X109325833Y-82014838D02*
X109278214Y-82062457D01*
X109278214Y-82062457D02*
X109230595Y-82157695D01*
X109230595Y-82157695D02*
X109230595Y-82395790D01*
X109230595Y-82395790D02*
X109278214Y-82491028D01*
X109278214Y-82491028D02*
X109325833Y-82538647D01*
X109325833Y-82538647D02*
X109421071Y-82586266D01*
X109421071Y-82586266D02*
X109611547Y-82586266D01*
X109611547Y-82586266D02*
X109706785Y-82538647D01*
X109706785Y-82538647D02*
X109754404Y-82491028D01*
X109754404Y-82491028D02*
X109802023Y-82395790D01*
X110754404Y-82967219D02*
X110182976Y-82967219D01*
X110468690Y-82967219D02*
X110468690Y-81967219D01*
X110468690Y-81967219D02*
X110373452Y-82110076D01*
X110373452Y-82110076D02*
X110278214Y-82205314D01*
X110278214Y-82205314D02*
X110182976Y-82252933D01*
X135763095Y-28004819D02*
X135763095Y-27004819D01*
X135763095Y-27481009D02*
X136334523Y-27481009D01*
X136334523Y-28004819D02*
X136334523Y-27004819D01*
X137239285Y-27338152D02*
X137239285Y-28004819D01*
X137001190Y-26957200D02*
X136763095Y-27671485D01*
X136763095Y-27671485D02*
X137382142Y-27671485D01*
X122654819Y-24242857D02*
X122178628Y-24576190D01*
X122654819Y-24814285D02*
X121654819Y-24814285D01*
X121654819Y-24814285D02*
X121654819Y-24433333D01*
X121654819Y-24433333D02*
X121702438Y-24338095D01*
X121702438Y-24338095D02*
X121750057Y-24290476D01*
X121750057Y-24290476D02*
X121845295Y-24242857D01*
X121845295Y-24242857D02*
X121988152Y-24242857D01*
X121988152Y-24242857D02*
X122083390Y-24290476D01*
X122083390Y-24290476D02*
X122131009Y-24338095D01*
X122131009Y-24338095D02*
X122178628Y-24433333D01*
X122178628Y-24433333D02*
X122178628Y-24814285D01*
X122654819Y-23290476D02*
X122654819Y-23861904D01*
X122654819Y-23576190D02*
X121654819Y-23576190D01*
X121654819Y-23576190D02*
X121797676Y-23671428D01*
X121797676Y-23671428D02*
X121892914Y-23766666D01*
X121892914Y-23766666D02*
X121940533Y-23861904D01*
X121654819Y-22385714D02*
X121654819Y-22861904D01*
X121654819Y-22861904D02*
X122131009Y-22909523D01*
X122131009Y-22909523D02*
X122083390Y-22861904D01*
X122083390Y-22861904D02*
X122035771Y-22766666D01*
X122035771Y-22766666D02*
X122035771Y-22528571D01*
X122035771Y-22528571D02*
X122083390Y-22433333D01*
X122083390Y-22433333D02*
X122131009Y-22385714D01*
X122131009Y-22385714D02*
X122226247Y-22338095D01*
X122226247Y-22338095D02*
X122464342Y-22338095D01*
X122464342Y-22338095D02*
X122559580Y-22385714D01*
X122559580Y-22385714D02*
X122607200Y-22433333D01*
X122607200Y-22433333D02*
X122654819Y-22528571D01*
X122654819Y-22528571D02*
X122654819Y-22766666D01*
X122654819Y-22766666D02*
X122607200Y-22861904D01*
X122607200Y-22861904D02*
X122559580Y-22909523D01*
X108849642Y-81002380D02*
X108802023Y-81050000D01*
X108802023Y-81050000D02*
X108659166Y-81097619D01*
X108659166Y-81097619D02*
X108563928Y-81097619D01*
X108563928Y-81097619D02*
X108421071Y-81050000D01*
X108421071Y-81050000D02*
X108325833Y-80954761D01*
X108325833Y-80954761D02*
X108278214Y-80859523D01*
X108278214Y-80859523D02*
X108230595Y-80669047D01*
X108230595Y-80669047D02*
X108230595Y-80526190D01*
X108230595Y-80526190D02*
X108278214Y-80335714D01*
X108278214Y-80335714D02*
X108325833Y-80240476D01*
X108325833Y-80240476D02*
X108421071Y-80145238D01*
X108421071Y-80145238D02*
X108563928Y-80097619D01*
X108563928Y-80097619D02*
X108659166Y-80097619D01*
X108659166Y-80097619D02*
X108802023Y-80145238D01*
X108802023Y-80145238D02*
X108849642Y-80192857D01*
X109325833Y-81097619D02*
X109516309Y-81097619D01*
X109516309Y-81097619D02*
X109611547Y-81050000D01*
X109611547Y-81050000D02*
X109659166Y-81002380D01*
X109659166Y-81002380D02*
X109754404Y-80859523D01*
X109754404Y-80859523D02*
X109802023Y-80669047D01*
X109802023Y-80669047D02*
X109802023Y-80288095D01*
X109802023Y-80288095D02*
X109754404Y-80192857D01*
X109754404Y-80192857D02*
X109706785Y-80145238D01*
X109706785Y-80145238D02*
X109611547Y-80097619D01*
X109611547Y-80097619D02*
X109421071Y-80097619D01*
X109421071Y-80097619D02*
X109325833Y-80145238D01*
X109325833Y-80145238D02*
X109278214Y-80192857D01*
X109278214Y-80192857D02*
X109230595Y-80288095D01*
X109230595Y-80288095D02*
X109230595Y-80526190D01*
X109230595Y-80526190D02*
X109278214Y-80621428D01*
X109278214Y-80621428D02*
X109325833Y-80669047D01*
X109325833Y-80669047D02*
X109421071Y-80716666D01*
X109421071Y-80716666D02*
X109611547Y-80716666D01*
X109611547Y-80716666D02*
X109706785Y-80669047D01*
X109706785Y-80669047D02*
X109754404Y-80621428D01*
X109754404Y-80621428D02*
X109802023Y-80526190D01*
X110421071Y-80097619D02*
X110516309Y-80097619D01*
X110516309Y-80097619D02*
X110611547Y-80145238D01*
X110611547Y-80145238D02*
X110659166Y-80192857D01*
X110659166Y-80192857D02*
X110706785Y-80288095D01*
X110706785Y-80288095D02*
X110754404Y-80478571D01*
X110754404Y-80478571D02*
X110754404Y-80716666D01*
X110754404Y-80716666D02*
X110706785Y-80907142D01*
X110706785Y-80907142D02*
X110659166Y-81002380D01*
X110659166Y-81002380D02*
X110611547Y-81050000D01*
X110611547Y-81050000D02*
X110516309Y-81097619D01*
X110516309Y-81097619D02*
X110421071Y-81097619D01*
X110421071Y-81097619D02*
X110325833Y-81050000D01*
X110325833Y-81050000D02*
X110278214Y-81002380D01*
X110278214Y-81002380D02*
X110230595Y-80907142D01*
X110230595Y-80907142D02*
X110182976Y-80716666D01*
X110182976Y-80716666D02*
X110182976Y-80478571D01*
X110182976Y-80478571D02*
X110230595Y-80288095D01*
X110230595Y-80288095D02*
X110278214Y-80192857D01*
X110278214Y-80192857D02*
X110325833Y-80145238D01*
X110325833Y-80145238D02*
X110421071Y-80097619D01*
X47082142Y-104699819D02*
X46748809Y-104223628D01*
X46510714Y-104699819D02*
X46510714Y-103699819D01*
X46510714Y-103699819D02*
X46891666Y-103699819D01*
X46891666Y-103699819D02*
X46986904Y-103747438D01*
X46986904Y-103747438D02*
X47034523Y-103795057D01*
X47034523Y-103795057D02*
X47082142Y-103890295D01*
X47082142Y-103890295D02*
X47082142Y-104033152D01*
X47082142Y-104033152D02*
X47034523Y-104128390D01*
X47034523Y-104128390D02*
X46986904Y-104176009D01*
X46986904Y-104176009D02*
X46891666Y-104223628D01*
X46891666Y-104223628D02*
X46510714Y-104223628D01*
X47415476Y-103699819D02*
X48082142Y-103699819D01*
X48082142Y-103699819D02*
X47653571Y-104699819D01*
X48939285Y-103699819D02*
X48463095Y-103699819D01*
X48463095Y-103699819D02*
X48415476Y-104176009D01*
X48415476Y-104176009D02*
X48463095Y-104128390D01*
X48463095Y-104128390D02*
X48558333Y-104080771D01*
X48558333Y-104080771D02*
X48796428Y-104080771D01*
X48796428Y-104080771D02*
X48891666Y-104128390D01*
X48891666Y-104128390D02*
X48939285Y-104176009D01*
X48939285Y-104176009D02*
X48986904Y-104271247D01*
X48986904Y-104271247D02*
X48986904Y-104509342D01*
X48986904Y-104509342D02*
X48939285Y-104604580D01*
X48939285Y-104604580D02*
X48891666Y-104652200D01*
X48891666Y-104652200D02*
X48796428Y-104699819D01*
X48796428Y-104699819D02*
X48558333Y-104699819D01*
X48558333Y-104699819D02*
X48463095Y-104652200D01*
X48463095Y-104652200D02*
X48415476Y-104604580D01*
X127654819Y-24242857D02*
X127178628Y-24576190D01*
X127654819Y-24814285D02*
X126654819Y-24814285D01*
X126654819Y-24814285D02*
X126654819Y-24433333D01*
X126654819Y-24433333D02*
X126702438Y-24338095D01*
X126702438Y-24338095D02*
X126750057Y-24290476D01*
X126750057Y-24290476D02*
X126845295Y-24242857D01*
X126845295Y-24242857D02*
X126988152Y-24242857D01*
X126988152Y-24242857D02*
X127083390Y-24290476D01*
X127083390Y-24290476D02*
X127131009Y-24338095D01*
X127131009Y-24338095D02*
X127178628Y-24433333D01*
X127178628Y-24433333D02*
X127178628Y-24814285D01*
X127654819Y-23290476D02*
X127654819Y-23861904D01*
X127654819Y-23576190D02*
X126654819Y-23576190D01*
X126654819Y-23576190D02*
X126797676Y-23671428D01*
X126797676Y-23671428D02*
X126892914Y-23766666D01*
X126892914Y-23766666D02*
X126940533Y-23861904D01*
X127083390Y-22719047D02*
X127035771Y-22814285D01*
X127035771Y-22814285D02*
X126988152Y-22861904D01*
X126988152Y-22861904D02*
X126892914Y-22909523D01*
X126892914Y-22909523D02*
X126845295Y-22909523D01*
X126845295Y-22909523D02*
X126750057Y-22861904D01*
X126750057Y-22861904D02*
X126702438Y-22814285D01*
X126702438Y-22814285D02*
X126654819Y-22719047D01*
X126654819Y-22719047D02*
X126654819Y-22528571D01*
X126654819Y-22528571D02*
X126702438Y-22433333D01*
X126702438Y-22433333D02*
X126750057Y-22385714D01*
X126750057Y-22385714D02*
X126845295Y-22338095D01*
X126845295Y-22338095D02*
X126892914Y-22338095D01*
X126892914Y-22338095D02*
X126988152Y-22385714D01*
X126988152Y-22385714D02*
X127035771Y-22433333D01*
X127035771Y-22433333D02*
X127083390Y-22528571D01*
X127083390Y-22528571D02*
X127083390Y-22719047D01*
X127083390Y-22719047D02*
X127131009Y-22814285D01*
X127131009Y-22814285D02*
X127178628Y-22861904D01*
X127178628Y-22861904D02*
X127273866Y-22909523D01*
X127273866Y-22909523D02*
X127464342Y-22909523D01*
X127464342Y-22909523D02*
X127559580Y-22861904D01*
X127559580Y-22861904D02*
X127607200Y-22814285D01*
X127607200Y-22814285D02*
X127654819Y-22719047D01*
X127654819Y-22719047D02*
X127654819Y-22528571D01*
X127654819Y-22528571D02*
X127607200Y-22433333D01*
X127607200Y-22433333D02*
X127559580Y-22385714D01*
X127559580Y-22385714D02*
X127464342Y-22338095D01*
X127464342Y-22338095D02*
X127273866Y-22338095D01*
X127273866Y-22338095D02*
X127178628Y-22385714D01*
X127178628Y-22385714D02*
X127131009Y-22433333D01*
X127131009Y-22433333D02*
X127083390Y-22528571D01*
X133675714Y-122254800D02*
X133818571Y-122302419D01*
X133818571Y-122302419D02*
X134056666Y-122302419D01*
X134056666Y-122302419D02*
X134151904Y-122254800D01*
X134151904Y-122254800D02*
X134199523Y-122207180D01*
X134199523Y-122207180D02*
X134247142Y-122111942D01*
X134247142Y-122111942D02*
X134247142Y-122016704D01*
X134247142Y-122016704D02*
X134199523Y-121921466D01*
X134199523Y-121921466D02*
X134151904Y-121873847D01*
X134151904Y-121873847D02*
X134056666Y-121826228D01*
X134056666Y-121826228D02*
X133866190Y-121778609D01*
X133866190Y-121778609D02*
X133770952Y-121730990D01*
X133770952Y-121730990D02*
X133723333Y-121683371D01*
X133723333Y-121683371D02*
X133675714Y-121588133D01*
X133675714Y-121588133D02*
X133675714Y-121492895D01*
X133675714Y-121492895D02*
X133723333Y-121397657D01*
X133723333Y-121397657D02*
X133770952Y-121350038D01*
X133770952Y-121350038D02*
X133866190Y-121302419D01*
X133866190Y-121302419D02*
X134104285Y-121302419D01*
X134104285Y-121302419D02*
X134247142Y-121350038D01*
X134580476Y-121302419D02*
X134818571Y-122302419D01*
X134818571Y-122302419D02*
X135009047Y-121588133D01*
X135009047Y-121588133D02*
X135199523Y-122302419D01*
X135199523Y-122302419D02*
X135437619Y-121302419D01*
X135580476Y-122397657D02*
X136342380Y-122397657D01*
X136913809Y-121778609D02*
X137056666Y-121826228D01*
X137056666Y-121826228D02*
X137104285Y-121873847D01*
X137104285Y-121873847D02*
X137151904Y-121969085D01*
X137151904Y-121969085D02*
X137151904Y-122111942D01*
X137151904Y-122111942D02*
X137104285Y-122207180D01*
X137104285Y-122207180D02*
X137056666Y-122254800D01*
X137056666Y-122254800D02*
X136961428Y-122302419D01*
X136961428Y-122302419D02*
X136580476Y-122302419D01*
X136580476Y-122302419D02*
X136580476Y-121302419D01*
X136580476Y-121302419D02*
X136913809Y-121302419D01*
X136913809Y-121302419D02*
X137009047Y-121350038D01*
X137009047Y-121350038D02*
X137056666Y-121397657D01*
X137056666Y-121397657D02*
X137104285Y-121492895D01*
X137104285Y-121492895D02*
X137104285Y-121588133D01*
X137104285Y-121588133D02*
X137056666Y-121683371D01*
X137056666Y-121683371D02*
X137009047Y-121730990D01*
X137009047Y-121730990D02*
X136913809Y-121778609D01*
X136913809Y-121778609D02*
X136580476Y-121778609D01*
X138104285Y-122302419D02*
X137532857Y-122302419D01*
X137818571Y-122302419D02*
X137818571Y-121302419D01*
X137818571Y-121302419D02*
X137723333Y-121445276D01*
X137723333Y-121445276D02*
X137628095Y-121540514D01*
X137628095Y-121540514D02*
X137532857Y-121588133D01*
X94766286Y-113263200D02*
X94909143Y-113310819D01*
X94909143Y-113310819D02*
X95147238Y-113310819D01*
X95147238Y-113310819D02*
X95242476Y-113263200D01*
X95242476Y-113263200D02*
X95290095Y-113215580D01*
X95290095Y-113215580D02*
X95337714Y-113120342D01*
X95337714Y-113120342D02*
X95337714Y-113025104D01*
X95337714Y-113025104D02*
X95290095Y-112929866D01*
X95290095Y-112929866D02*
X95242476Y-112882247D01*
X95242476Y-112882247D02*
X95147238Y-112834628D01*
X95147238Y-112834628D02*
X94956762Y-112787009D01*
X94956762Y-112787009D02*
X94861524Y-112739390D01*
X94861524Y-112739390D02*
X94813905Y-112691771D01*
X94813905Y-112691771D02*
X94766286Y-112596533D01*
X94766286Y-112596533D02*
X94766286Y-112501295D01*
X94766286Y-112501295D02*
X94813905Y-112406057D01*
X94813905Y-112406057D02*
X94861524Y-112358438D01*
X94861524Y-112358438D02*
X94956762Y-112310819D01*
X94956762Y-112310819D02*
X95194857Y-112310819D01*
X95194857Y-112310819D02*
X95337714Y-112358438D01*
X95671048Y-112310819D02*
X95909143Y-113310819D01*
X95909143Y-113310819D02*
X96099619Y-112596533D01*
X96099619Y-112596533D02*
X96290095Y-113310819D01*
X96290095Y-113310819D02*
X96528191Y-112310819D01*
X96671048Y-113406057D02*
X97432952Y-113406057D01*
X97671048Y-113310819D02*
X97671048Y-112310819D01*
X97671048Y-112310819D02*
X98004381Y-113025104D01*
X98004381Y-113025104D02*
X98337714Y-112310819D01*
X98337714Y-112310819D02*
X98337714Y-113310819D01*
X98813905Y-112787009D02*
X99147238Y-112787009D01*
X99290095Y-113310819D02*
X98813905Y-113310819D01*
X98813905Y-113310819D02*
X98813905Y-112310819D01*
X98813905Y-112310819D02*
X99290095Y-112310819D01*
X99718667Y-113310819D02*
X99718667Y-112310819D01*
X99718667Y-112310819D02*
X100290095Y-113310819D01*
X100290095Y-113310819D02*
X100290095Y-112310819D01*
X100766286Y-112310819D02*
X100766286Y-113120342D01*
X100766286Y-113120342D02*
X100813905Y-113215580D01*
X100813905Y-113215580D02*
X100861524Y-113263200D01*
X100861524Y-113263200D02*
X100956762Y-113310819D01*
X100956762Y-113310819D02*
X101147238Y-113310819D01*
X101147238Y-113310819D02*
X101242476Y-113263200D01*
X101242476Y-113263200D02*
X101290095Y-113215580D01*
X101290095Y-113215580D02*
X101337714Y-113120342D01*
X101337714Y-113120342D02*
X101337714Y-112310819D01*
X102337714Y-113310819D02*
X101766286Y-113310819D01*
X102052000Y-113310819D02*
X102052000Y-112310819D01*
X102052000Y-112310819D02*
X101956762Y-112453676D01*
X101956762Y-112453676D02*
X101861524Y-112548914D01*
X101861524Y-112548914D02*
X101766286Y-112596533D01*
X92942580Y-103893857D02*
X92990200Y-103941476D01*
X92990200Y-103941476D02*
X93037819Y-104084333D01*
X93037819Y-104084333D02*
X93037819Y-104179571D01*
X93037819Y-104179571D02*
X92990200Y-104322428D01*
X92990200Y-104322428D02*
X92894961Y-104417666D01*
X92894961Y-104417666D02*
X92799723Y-104465285D01*
X92799723Y-104465285D02*
X92609247Y-104512904D01*
X92609247Y-104512904D02*
X92466390Y-104512904D01*
X92466390Y-104512904D02*
X92275914Y-104465285D01*
X92275914Y-104465285D02*
X92180676Y-104417666D01*
X92180676Y-104417666D02*
X92085438Y-104322428D01*
X92085438Y-104322428D02*
X92037819Y-104179571D01*
X92037819Y-104179571D02*
X92037819Y-104084333D01*
X92037819Y-104084333D02*
X92085438Y-103941476D01*
X92085438Y-103941476D02*
X92133057Y-103893857D01*
X92371152Y-103036714D02*
X93037819Y-103036714D01*
X91990200Y-103274809D02*
X92704485Y-103512904D01*
X92704485Y-103512904D02*
X92704485Y-102893857D01*
X92133057Y-102560523D02*
X92085438Y-102512904D01*
X92085438Y-102512904D02*
X92037819Y-102417666D01*
X92037819Y-102417666D02*
X92037819Y-102179571D01*
X92037819Y-102179571D02*
X92085438Y-102084333D01*
X92085438Y-102084333D02*
X92133057Y-102036714D01*
X92133057Y-102036714D02*
X92228295Y-101989095D01*
X92228295Y-101989095D02*
X92323533Y-101989095D01*
X92323533Y-101989095D02*
X92466390Y-102036714D01*
X92466390Y-102036714D02*
X93037819Y-102608142D01*
X93037819Y-102608142D02*
X93037819Y-101989095D01*
X71445714Y-164317200D02*
X71588571Y-164364819D01*
X71588571Y-164364819D02*
X71826666Y-164364819D01*
X71826666Y-164364819D02*
X71921904Y-164317200D01*
X71921904Y-164317200D02*
X71969523Y-164269580D01*
X71969523Y-164269580D02*
X72017142Y-164174342D01*
X72017142Y-164174342D02*
X72017142Y-164079104D01*
X72017142Y-164079104D02*
X71969523Y-163983866D01*
X71969523Y-163983866D02*
X71921904Y-163936247D01*
X71921904Y-163936247D02*
X71826666Y-163888628D01*
X71826666Y-163888628D02*
X71636190Y-163841009D01*
X71636190Y-163841009D02*
X71540952Y-163793390D01*
X71540952Y-163793390D02*
X71493333Y-163745771D01*
X71493333Y-163745771D02*
X71445714Y-163650533D01*
X71445714Y-163650533D02*
X71445714Y-163555295D01*
X71445714Y-163555295D02*
X71493333Y-163460057D01*
X71493333Y-163460057D02*
X71540952Y-163412438D01*
X71540952Y-163412438D02*
X71636190Y-163364819D01*
X71636190Y-163364819D02*
X71874285Y-163364819D01*
X71874285Y-163364819D02*
X72017142Y-163412438D01*
X72350476Y-163364819D02*
X72588571Y-164364819D01*
X72588571Y-164364819D02*
X72779047Y-163650533D01*
X72779047Y-163650533D02*
X72969523Y-164364819D01*
X72969523Y-164364819D02*
X73207619Y-163364819D01*
X73350476Y-164460057D02*
X74112380Y-164460057D01*
X74350476Y-164364819D02*
X74350476Y-163364819D01*
X74350476Y-163364819D02*
X74588571Y-163364819D01*
X74588571Y-163364819D02*
X74731428Y-163412438D01*
X74731428Y-163412438D02*
X74826666Y-163507676D01*
X74826666Y-163507676D02*
X74874285Y-163602914D01*
X74874285Y-163602914D02*
X74921904Y-163793390D01*
X74921904Y-163793390D02*
X74921904Y-163936247D01*
X74921904Y-163936247D02*
X74874285Y-164126723D01*
X74874285Y-164126723D02*
X74826666Y-164221961D01*
X74826666Y-164221961D02*
X74731428Y-164317200D01*
X74731428Y-164317200D02*
X74588571Y-164364819D01*
X74588571Y-164364819D02*
X74350476Y-164364819D01*
X75874285Y-164364819D02*
X75302857Y-164364819D01*
X75588571Y-164364819D02*
X75588571Y-163364819D01*
X75588571Y-163364819D02*
X75493333Y-163507676D01*
X75493333Y-163507676D02*
X75398095Y-163602914D01*
X75398095Y-163602914D02*
X75302857Y-163650533D01*
X83290580Y-86240857D02*
X83338200Y-86288476D01*
X83338200Y-86288476D02*
X83385819Y-86431333D01*
X83385819Y-86431333D02*
X83385819Y-86526571D01*
X83385819Y-86526571D02*
X83338200Y-86669428D01*
X83338200Y-86669428D02*
X83242961Y-86764666D01*
X83242961Y-86764666D02*
X83147723Y-86812285D01*
X83147723Y-86812285D02*
X82957247Y-86859904D01*
X82957247Y-86859904D02*
X82814390Y-86859904D01*
X82814390Y-86859904D02*
X82623914Y-86812285D01*
X82623914Y-86812285D02*
X82528676Y-86764666D01*
X82528676Y-86764666D02*
X82433438Y-86669428D01*
X82433438Y-86669428D02*
X82385819Y-86526571D01*
X82385819Y-86526571D02*
X82385819Y-86431333D01*
X82385819Y-86431333D02*
X82433438Y-86288476D01*
X82433438Y-86288476D02*
X82481057Y-86240857D01*
X83385819Y-85288476D02*
X83385819Y-85859904D01*
X83385819Y-85574190D02*
X82385819Y-85574190D01*
X82385819Y-85574190D02*
X82528676Y-85669428D01*
X82528676Y-85669428D02*
X82623914Y-85764666D01*
X82623914Y-85764666D02*
X82671533Y-85859904D01*
X82385819Y-84955142D02*
X82385819Y-84288476D01*
X82385819Y-84288476D02*
X83385819Y-84717047D01*
X122317143Y-110824800D02*
X122460000Y-110872419D01*
X122460000Y-110872419D02*
X122698095Y-110872419D01*
X122698095Y-110872419D02*
X122793333Y-110824800D01*
X122793333Y-110824800D02*
X122840952Y-110777180D01*
X122840952Y-110777180D02*
X122888571Y-110681942D01*
X122888571Y-110681942D02*
X122888571Y-110586704D01*
X122888571Y-110586704D02*
X122840952Y-110491466D01*
X122840952Y-110491466D02*
X122793333Y-110443847D01*
X122793333Y-110443847D02*
X122698095Y-110396228D01*
X122698095Y-110396228D02*
X122507619Y-110348609D01*
X122507619Y-110348609D02*
X122412381Y-110300990D01*
X122412381Y-110300990D02*
X122364762Y-110253371D01*
X122364762Y-110253371D02*
X122317143Y-110158133D01*
X122317143Y-110158133D02*
X122317143Y-110062895D01*
X122317143Y-110062895D02*
X122364762Y-109967657D01*
X122364762Y-109967657D02*
X122412381Y-109920038D01*
X122412381Y-109920038D02*
X122507619Y-109872419D01*
X122507619Y-109872419D02*
X122745714Y-109872419D01*
X122745714Y-109872419D02*
X122888571Y-109920038D01*
X123221905Y-109872419D02*
X123460000Y-110872419D01*
X123460000Y-110872419D02*
X123650476Y-110158133D01*
X123650476Y-110158133D02*
X123840952Y-110872419D01*
X123840952Y-110872419D02*
X124079048Y-109872419D01*
X124221905Y-110967657D02*
X124983809Y-110967657D01*
X125412381Y-110396228D02*
X125412381Y-110872419D01*
X125079048Y-109872419D02*
X125412381Y-110396228D01*
X125412381Y-110396228D02*
X125745714Y-109872419D01*
X126602857Y-110872419D02*
X126031429Y-110872419D01*
X126317143Y-110872419D02*
X126317143Y-109872419D01*
X126317143Y-109872419D02*
X126221905Y-110015276D01*
X126221905Y-110015276D02*
X126126667Y-110110514D01*
X126126667Y-110110514D02*
X126031429Y-110158133D01*
X83431142Y-82909580D02*
X83383523Y-82957200D01*
X83383523Y-82957200D02*
X83240666Y-83004819D01*
X83240666Y-83004819D02*
X83145428Y-83004819D01*
X83145428Y-83004819D02*
X83002571Y-82957200D01*
X83002571Y-82957200D02*
X82907333Y-82861961D01*
X82907333Y-82861961D02*
X82859714Y-82766723D01*
X82859714Y-82766723D02*
X82812095Y-82576247D01*
X82812095Y-82576247D02*
X82812095Y-82433390D01*
X82812095Y-82433390D02*
X82859714Y-82242914D01*
X82859714Y-82242914D02*
X82907333Y-82147676D01*
X82907333Y-82147676D02*
X83002571Y-82052438D01*
X83002571Y-82052438D02*
X83145428Y-82004819D01*
X83145428Y-82004819D02*
X83240666Y-82004819D01*
X83240666Y-82004819D02*
X83383523Y-82052438D01*
X83383523Y-82052438D02*
X83431142Y-82100057D01*
X84383523Y-83004819D02*
X83812095Y-83004819D01*
X84097809Y-83004819D02*
X84097809Y-82004819D01*
X84097809Y-82004819D02*
X84002571Y-82147676D01*
X84002571Y-82147676D02*
X83907333Y-82242914D01*
X83907333Y-82242914D02*
X83812095Y-82290533D01*
X85240666Y-82338152D02*
X85240666Y-83004819D01*
X85002571Y-81957200D02*
X84764476Y-82671485D01*
X84764476Y-82671485D02*
X85383523Y-82671485D01*
X89019142Y-82274580D02*
X88971523Y-82322200D01*
X88971523Y-82322200D02*
X88828666Y-82369819D01*
X88828666Y-82369819D02*
X88733428Y-82369819D01*
X88733428Y-82369819D02*
X88590571Y-82322200D01*
X88590571Y-82322200D02*
X88495333Y-82226961D01*
X88495333Y-82226961D02*
X88447714Y-82131723D01*
X88447714Y-82131723D02*
X88400095Y-81941247D01*
X88400095Y-81941247D02*
X88400095Y-81798390D01*
X88400095Y-81798390D02*
X88447714Y-81607914D01*
X88447714Y-81607914D02*
X88495333Y-81512676D01*
X88495333Y-81512676D02*
X88590571Y-81417438D01*
X88590571Y-81417438D02*
X88733428Y-81369819D01*
X88733428Y-81369819D02*
X88828666Y-81369819D01*
X88828666Y-81369819D02*
X88971523Y-81417438D01*
X88971523Y-81417438D02*
X89019142Y-81465057D01*
X89352476Y-81369819D02*
X89971523Y-81369819D01*
X89971523Y-81369819D02*
X89638190Y-81750771D01*
X89638190Y-81750771D02*
X89781047Y-81750771D01*
X89781047Y-81750771D02*
X89876285Y-81798390D01*
X89876285Y-81798390D02*
X89923904Y-81846009D01*
X89923904Y-81846009D02*
X89971523Y-81941247D01*
X89971523Y-81941247D02*
X89971523Y-82179342D01*
X89971523Y-82179342D02*
X89923904Y-82274580D01*
X89923904Y-82274580D02*
X89876285Y-82322200D01*
X89876285Y-82322200D02*
X89781047Y-82369819D01*
X89781047Y-82369819D02*
X89495333Y-82369819D01*
X89495333Y-82369819D02*
X89400095Y-82322200D01*
X89400095Y-82322200D02*
X89352476Y-82274580D01*
X90447714Y-82369819D02*
X90638190Y-82369819D01*
X90638190Y-82369819D02*
X90733428Y-82322200D01*
X90733428Y-82322200D02*
X90781047Y-82274580D01*
X90781047Y-82274580D02*
X90876285Y-82131723D01*
X90876285Y-82131723D02*
X90923904Y-81941247D01*
X90923904Y-81941247D02*
X90923904Y-81560295D01*
X90923904Y-81560295D02*
X90876285Y-81465057D01*
X90876285Y-81465057D02*
X90828666Y-81417438D01*
X90828666Y-81417438D02*
X90733428Y-81369819D01*
X90733428Y-81369819D02*
X90542952Y-81369819D01*
X90542952Y-81369819D02*
X90447714Y-81417438D01*
X90447714Y-81417438D02*
X90400095Y-81465057D01*
X90400095Y-81465057D02*
X90352476Y-81560295D01*
X90352476Y-81560295D02*
X90352476Y-81798390D01*
X90352476Y-81798390D02*
X90400095Y-81893628D01*
X90400095Y-81893628D02*
X90447714Y-81941247D01*
X90447714Y-81941247D02*
X90542952Y-81988866D01*
X90542952Y-81988866D02*
X90733428Y-81988866D01*
X90733428Y-81988866D02*
X90828666Y-81941247D01*
X90828666Y-81941247D02*
X90876285Y-81893628D01*
X90876285Y-81893628D02*
X90923904Y-81798390D01*
X69072819Y-104973333D02*
X69787104Y-104973333D01*
X69787104Y-104973333D02*
X69929961Y-105020952D01*
X69929961Y-105020952D02*
X70025200Y-105116190D01*
X70025200Y-105116190D02*
X70072819Y-105259047D01*
X70072819Y-105259047D02*
X70072819Y-105354285D01*
X70072819Y-104497142D02*
X69072819Y-104497142D01*
X69072819Y-104497142D02*
X69072819Y-104116190D01*
X69072819Y-104116190D02*
X69120438Y-104020952D01*
X69120438Y-104020952D02*
X69168057Y-103973333D01*
X69168057Y-103973333D02*
X69263295Y-103925714D01*
X69263295Y-103925714D02*
X69406152Y-103925714D01*
X69406152Y-103925714D02*
X69501390Y-103973333D01*
X69501390Y-103973333D02*
X69549009Y-104020952D01*
X69549009Y-104020952D02*
X69596628Y-104116190D01*
X69596628Y-104116190D02*
X69596628Y-104497142D01*
X69168057Y-103544761D02*
X69120438Y-103497142D01*
X69120438Y-103497142D02*
X69072819Y-103401904D01*
X69072819Y-103401904D02*
X69072819Y-103163809D01*
X69072819Y-103163809D02*
X69120438Y-103068571D01*
X69120438Y-103068571D02*
X69168057Y-103020952D01*
X69168057Y-103020952D02*
X69263295Y-102973333D01*
X69263295Y-102973333D02*
X69358533Y-102973333D01*
X69358533Y-102973333D02*
X69501390Y-103020952D01*
X69501390Y-103020952D02*
X70072819Y-103592380D01*
X70072819Y-103592380D02*
X70072819Y-102973333D01*
X68272819Y-101254285D02*
X68272819Y-101825713D01*
X68272819Y-101539999D02*
X67272819Y-101539999D01*
X67272819Y-101539999D02*
X67415676Y-101635237D01*
X67415676Y-101635237D02*
X67510914Y-101730475D01*
X67510914Y-101730475D02*
X67558533Y-101825713D01*
X67272819Y-107073332D02*
X67272819Y-106454285D01*
X67272819Y-106454285D02*
X67653771Y-106787618D01*
X67653771Y-106787618D02*
X67653771Y-106644761D01*
X67653771Y-106644761D02*
X67701390Y-106549523D01*
X67701390Y-106549523D02*
X67749009Y-106501904D01*
X67749009Y-106501904D02*
X67844247Y-106454285D01*
X67844247Y-106454285D02*
X68082342Y-106454285D01*
X68082342Y-106454285D02*
X68177580Y-106501904D01*
X68177580Y-106501904D02*
X68225200Y-106549523D01*
X68225200Y-106549523D02*
X68272819Y-106644761D01*
X68272819Y-106644761D02*
X68272819Y-106930475D01*
X68272819Y-106930475D02*
X68225200Y-107025713D01*
X68225200Y-107025713D02*
X68177580Y-107073332D01*
X85238095Y-19424819D02*
X85809523Y-19424819D01*
X85523809Y-20424819D02*
X85523809Y-19424819D01*
X86142857Y-20424819D02*
X86142857Y-19424819D01*
X86142857Y-19424819D02*
X86523809Y-19424819D01*
X86523809Y-19424819D02*
X86619047Y-19472438D01*
X86619047Y-19472438D02*
X86666666Y-19520057D01*
X86666666Y-19520057D02*
X86714285Y-19615295D01*
X86714285Y-19615295D02*
X86714285Y-19758152D01*
X86714285Y-19758152D02*
X86666666Y-19853390D01*
X86666666Y-19853390D02*
X86619047Y-19901009D01*
X86619047Y-19901009D02*
X86523809Y-19948628D01*
X86523809Y-19948628D02*
X86142857Y-19948628D01*
X87619047Y-19424819D02*
X87142857Y-19424819D01*
X87142857Y-19424819D02*
X87095238Y-19901009D01*
X87095238Y-19901009D02*
X87142857Y-19853390D01*
X87142857Y-19853390D02*
X87238095Y-19805771D01*
X87238095Y-19805771D02*
X87476190Y-19805771D01*
X87476190Y-19805771D02*
X87571428Y-19853390D01*
X87571428Y-19853390D02*
X87619047Y-19901009D01*
X87619047Y-19901009D02*
X87666666Y-19996247D01*
X87666666Y-19996247D02*
X87666666Y-20234342D01*
X87666666Y-20234342D02*
X87619047Y-20329580D01*
X87619047Y-20329580D02*
X87571428Y-20377200D01*
X87571428Y-20377200D02*
X87476190Y-20424819D01*
X87476190Y-20424819D02*
X87238095Y-20424819D01*
X87238095Y-20424819D02*
X87142857Y-20377200D01*
X87142857Y-20377200D02*
X87095238Y-20329580D01*
X90021580Y-91543047D02*
X90069200Y-91590666D01*
X90069200Y-91590666D02*
X90116819Y-91733523D01*
X90116819Y-91733523D02*
X90116819Y-91828761D01*
X90116819Y-91828761D02*
X90069200Y-91971618D01*
X90069200Y-91971618D02*
X89973961Y-92066856D01*
X89973961Y-92066856D02*
X89878723Y-92114475D01*
X89878723Y-92114475D02*
X89688247Y-92162094D01*
X89688247Y-92162094D02*
X89545390Y-92162094D01*
X89545390Y-92162094D02*
X89354914Y-92114475D01*
X89354914Y-92114475D02*
X89259676Y-92066856D01*
X89259676Y-92066856D02*
X89164438Y-91971618D01*
X89164438Y-91971618D02*
X89116819Y-91828761D01*
X89116819Y-91828761D02*
X89116819Y-91733523D01*
X89116819Y-91733523D02*
X89164438Y-91590666D01*
X89164438Y-91590666D02*
X89212057Y-91543047D01*
X90116819Y-90590666D02*
X90116819Y-91162094D01*
X90116819Y-90876380D02*
X89116819Y-90876380D01*
X89116819Y-90876380D02*
X89259676Y-90971618D01*
X89259676Y-90971618D02*
X89354914Y-91066856D01*
X89354914Y-91066856D02*
X89402533Y-91162094D01*
X89116819Y-89971618D02*
X89116819Y-89876380D01*
X89116819Y-89876380D02*
X89164438Y-89781142D01*
X89164438Y-89781142D02*
X89212057Y-89733523D01*
X89212057Y-89733523D02*
X89307295Y-89685904D01*
X89307295Y-89685904D02*
X89497771Y-89638285D01*
X89497771Y-89638285D02*
X89735866Y-89638285D01*
X89735866Y-89638285D02*
X89926342Y-89685904D01*
X89926342Y-89685904D02*
X90021580Y-89733523D01*
X90021580Y-89733523D02*
X90069200Y-89781142D01*
X90069200Y-89781142D02*
X90116819Y-89876380D01*
X90116819Y-89876380D02*
X90116819Y-89971618D01*
X90116819Y-89971618D02*
X90069200Y-90066856D01*
X90069200Y-90066856D02*
X90021580Y-90114475D01*
X90021580Y-90114475D02*
X89926342Y-90162094D01*
X89926342Y-90162094D02*
X89735866Y-90209713D01*
X89735866Y-90209713D02*
X89497771Y-90209713D01*
X89497771Y-90209713D02*
X89307295Y-90162094D01*
X89307295Y-90162094D02*
X89212057Y-90114475D01*
X89212057Y-90114475D02*
X89164438Y-90066856D01*
X89164438Y-90066856D02*
X89116819Y-89971618D01*
X89212057Y-89257332D02*
X89164438Y-89209713D01*
X89164438Y-89209713D02*
X89116819Y-89114475D01*
X89116819Y-89114475D02*
X89116819Y-88876380D01*
X89116819Y-88876380D02*
X89164438Y-88781142D01*
X89164438Y-88781142D02*
X89212057Y-88733523D01*
X89212057Y-88733523D02*
X89307295Y-88685904D01*
X89307295Y-88685904D02*
X89402533Y-88685904D01*
X89402533Y-88685904D02*
X89545390Y-88733523D01*
X89545390Y-88733523D02*
X90116819Y-89304951D01*
X90116819Y-89304951D02*
X90116819Y-88685904D01*
D11*
X142709732Y-114074800D02*
X142566875Y-114027180D01*
X142566875Y-114027180D02*
X142328780Y-114027180D01*
X142328780Y-114027180D02*
X142233542Y-114074800D01*
X142233542Y-114074800D02*
X142185923Y-114122419D01*
X142185923Y-114122419D02*
X142138304Y-114217657D01*
X142138304Y-114217657D02*
X142138304Y-114312895D01*
X142138304Y-114312895D02*
X142185923Y-114408133D01*
X142185923Y-114408133D02*
X142233542Y-114455752D01*
X142233542Y-114455752D02*
X142328780Y-114503371D01*
X142328780Y-114503371D02*
X142519256Y-114550990D01*
X142519256Y-114550990D02*
X142614494Y-114598609D01*
X142614494Y-114598609D02*
X142662113Y-114646228D01*
X142662113Y-114646228D02*
X142709732Y-114741466D01*
X142709732Y-114741466D02*
X142709732Y-114836704D01*
X142709732Y-114836704D02*
X142662113Y-114931942D01*
X142662113Y-114931942D02*
X142614494Y-114979561D01*
X142614494Y-114979561D02*
X142519256Y-115027180D01*
X142519256Y-115027180D02*
X142281161Y-115027180D01*
X142281161Y-115027180D02*
X142138304Y-114979561D01*
X141804970Y-115027180D02*
X141566875Y-114027180D01*
X141566875Y-114027180D02*
X141376399Y-114741466D01*
X141376399Y-114741466D02*
X141185923Y-114027180D01*
X141185923Y-114027180D02*
X140947828Y-115027180D01*
X140043066Y-114027180D02*
X140614494Y-114027180D01*
X140328780Y-114027180D02*
X140328780Y-115027180D01*
X140328780Y-115027180D02*
X140424018Y-114884323D01*
X140424018Y-114884323D02*
X140519256Y-114789085D01*
X140519256Y-114789085D02*
X140614494Y-114741466D01*
D10*
X84336095Y-170352819D02*
X84907523Y-170352819D01*
X84621809Y-171352819D02*
X84621809Y-170352819D01*
X85240857Y-171352819D02*
X85240857Y-170352819D01*
X85240857Y-170352819D02*
X85621809Y-170352819D01*
X85621809Y-170352819D02*
X85717047Y-170400438D01*
X85717047Y-170400438D02*
X85764666Y-170448057D01*
X85764666Y-170448057D02*
X85812285Y-170543295D01*
X85812285Y-170543295D02*
X85812285Y-170686152D01*
X85812285Y-170686152D02*
X85764666Y-170781390D01*
X85764666Y-170781390D02*
X85717047Y-170829009D01*
X85717047Y-170829009D02*
X85621809Y-170876628D01*
X85621809Y-170876628D02*
X85240857Y-170876628D01*
X86669428Y-170352819D02*
X86478952Y-170352819D01*
X86478952Y-170352819D02*
X86383714Y-170400438D01*
X86383714Y-170400438D02*
X86336095Y-170448057D01*
X86336095Y-170448057D02*
X86240857Y-170590914D01*
X86240857Y-170590914D02*
X86193238Y-170781390D01*
X86193238Y-170781390D02*
X86193238Y-171162342D01*
X86193238Y-171162342D02*
X86240857Y-171257580D01*
X86240857Y-171257580D02*
X86288476Y-171305200D01*
X86288476Y-171305200D02*
X86383714Y-171352819D01*
X86383714Y-171352819D02*
X86574190Y-171352819D01*
X86574190Y-171352819D02*
X86669428Y-171305200D01*
X86669428Y-171305200D02*
X86717047Y-171257580D01*
X86717047Y-171257580D02*
X86764666Y-171162342D01*
X86764666Y-171162342D02*
X86764666Y-170924247D01*
X86764666Y-170924247D02*
X86717047Y-170829009D01*
X86717047Y-170829009D02*
X86669428Y-170781390D01*
X86669428Y-170781390D02*
X86574190Y-170733771D01*
X86574190Y-170733771D02*
X86383714Y-170733771D01*
X86383714Y-170733771D02*
X86288476Y-170781390D01*
X86288476Y-170781390D02*
X86240857Y-170829009D01*
X86240857Y-170829009D02*
X86193238Y-170924247D01*
X71636095Y-64180819D02*
X72207523Y-64180819D01*
X71921809Y-65180819D02*
X71921809Y-64180819D01*
X72540857Y-65180819D02*
X72540857Y-64180819D01*
X72540857Y-64180819D02*
X72921809Y-64180819D01*
X72921809Y-64180819D02*
X73017047Y-64228438D01*
X73017047Y-64228438D02*
X73064666Y-64276057D01*
X73064666Y-64276057D02*
X73112285Y-64371295D01*
X73112285Y-64371295D02*
X73112285Y-64514152D01*
X73112285Y-64514152D02*
X73064666Y-64609390D01*
X73064666Y-64609390D02*
X73017047Y-64657009D01*
X73017047Y-64657009D02*
X72921809Y-64704628D01*
X72921809Y-64704628D02*
X72540857Y-64704628D01*
X73493238Y-64276057D02*
X73540857Y-64228438D01*
X73540857Y-64228438D02*
X73636095Y-64180819D01*
X73636095Y-64180819D02*
X73874190Y-64180819D01*
X73874190Y-64180819D02*
X73969428Y-64228438D01*
X73969428Y-64228438D02*
X74017047Y-64276057D01*
X74017047Y-64276057D02*
X74064666Y-64371295D01*
X74064666Y-64371295D02*
X74064666Y-64466533D01*
X74064666Y-64466533D02*
X74017047Y-64609390D01*
X74017047Y-64609390D02*
X73445619Y-65180819D01*
X73445619Y-65180819D02*
X74064666Y-65180819D01*
X47912495Y-128849219D02*
X48483923Y-128849219D01*
X48198209Y-129849219D02*
X48198209Y-128849219D01*
X48817257Y-129849219D02*
X48817257Y-128849219D01*
X48817257Y-128849219D02*
X49198209Y-128849219D01*
X49198209Y-128849219D02*
X49293447Y-128896838D01*
X49293447Y-128896838D02*
X49341066Y-128944457D01*
X49341066Y-128944457D02*
X49388685Y-129039695D01*
X49388685Y-129039695D02*
X49388685Y-129182552D01*
X49388685Y-129182552D02*
X49341066Y-129277790D01*
X49341066Y-129277790D02*
X49293447Y-129325409D01*
X49293447Y-129325409D02*
X49198209Y-129373028D01*
X49198209Y-129373028D02*
X48817257Y-129373028D01*
X50341066Y-129849219D02*
X49769638Y-129849219D01*
X50055352Y-129849219D02*
X50055352Y-128849219D01*
X50055352Y-128849219D02*
X49960114Y-128992076D01*
X49960114Y-128992076D02*
X49864876Y-129087314D01*
X49864876Y-129087314D02*
X49769638Y-129134933D01*
X108008895Y-27300019D02*
X108580323Y-27300019D01*
X108294609Y-28300019D02*
X108294609Y-27300019D01*
X108913657Y-28300019D02*
X108913657Y-27300019D01*
X108913657Y-27300019D02*
X109294609Y-27300019D01*
X109294609Y-27300019D02*
X109389847Y-27347638D01*
X109389847Y-27347638D02*
X109437466Y-27395257D01*
X109437466Y-27395257D02*
X109485085Y-27490495D01*
X109485085Y-27490495D02*
X109485085Y-27633352D01*
X109485085Y-27633352D02*
X109437466Y-27728590D01*
X109437466Y-27728590D02*
X109389847Y-27776209D01*
X109389847Y-27776209D02*
X109294609Y-27823828D01*
X109294609Y-27823828D02*
X108913657Y-27823828D01*
X110056514Y-27728590D02*
X109961276Y-27680971D01*
X109961276Y-27680971D02*
X109913657Y-27633352D01*
X109913657Y-27633352D02*
X109866038Y-27538114D01*
X109866038Y-27538114D02*
X109866038Y-27490495D01*
X109866038Y-27490495D02*
X109913657Y-27395257D01*
X109913657Y-27395257D02*
X109961276Y-27347638D01*
X109961276Y-27347638D02*
X110056514Y-27300019D01*
X110056514Y-27300019D02*
X110246990Y-27300019D01*
X110246990Y-27300019D02*
X110342228Y-27347638D01*
X110342228Y-27347638D02*
X110389847Y-27395257D01*
X110389847Y-27395257D02*
X110437466Y-27490495D01*
X110437466Y-27490495D02*
X110437466Y-27538114D01*
X110437466Y-27538114D02*
X110389847Y-27633352D01*
X110389847Y-27633352D02*
X110342228Y-27680971D01*
X110342228Y-27680971D02*
X110246990Y-27728590D01*
X110246990Y-27728590D02*
X110056514Y-27728590D01*
X110056514Y-27728590D02*
X109961276Y-27776209D01*
X109961276Y-27776209D02*
X109913657Y-27823828D01*
X109913657Y-27823828D02*
X109866038Y-27919066D01*
X109866038Y-27919066D02*
X109866038Y-28109542D01*
X109866038Y-28109542D02*
X109913657Y-28204780D01*
X109913657Y-28204780D02*
X109961276Y-28252400D01*
X109961276Y-28252400D02*
X110056514Y-28300019D01*
X110056514Y-28300019D02*
X110246990Y-28300019D01*
X110246990Y-28300019D02*
X110342228Y-28252400D01*
X110342228Y-28252400D02*
X110389847Y-28204780D01*
X110389847Y-28204780D02*
X110437466Y-28109542D01*
X110437466Y-28109542D02*
X110437466Y-27919066D01*
X110437466Y-27919066D02*
X110389847Y-27823828D01*
X110389847Y-27823828D02*
X110342228Y-27776209D01*
X110342228Y-27776209D02*
X110246990Y-27728590D01*
X98544142Y-84306580D02*
X98496523Y-84354200D01*
X98496523Y-84354200D02*
X98353666Y-84401819D01*
X98353666Y-84401819D02*
X98258428Y-84401819D01*
X98258428Y-84401819D02*
X98115571Y-84354200D01*
X98115571Y-84354200D02*
X98020333Y-84258961D01*
X98020333Y-84258961D02*
X97972714Y-84163723D01*
X97972714Y-84163723D02*
X97925095Y-83973247D01*
X97925095Y-83973247D02*
X97925095Y-83830390D01*
X97925095Y-83830390D02*
X97972714Y-83639914D01*
X97972714Y-83639914D02*
X98020333Y-83544676D01*
X98020333Y-83544676D02*
X98115571Y-83449438D01*
X98115571Y-83449438D02*
X98258428Y-83401819D01*
X98258428Y-83401819D02*
X98353666Y-83401819D01*
X98353666Y-83401819D02*
X98496523Y-83449438D01*
X98496523Y-83449438D02*
X98544142Y-83497057D01*
X98925095Y-83497057D02*
X98972714Y-83449438D01*
X98972714Y-83449438D02*
X99067952Y-83401819D01*
X99067952Y-83401819D02*
X99306047Y-83401819D01*
X99306047Y-83401819D02*
X99401285Y-83449438D01*
X99401285Y-83449438D02*
X99448904Y-83497057D01*
X99448904Y-83497057D02*
X99496523Y-83592295D01*
X99496523Y-83592295D02*
X99496523Y-83687533D01*
X99496523Y-83687533D02*
X99448904Y-83830390D01*
X99448904Y-83830390D02*
X98877476Y-84401819D01*
X98877476Y-84401819D02*
X99496523Y-84401819D01*
X99972714Y-84401819D02*
X100163190Y-84401819D01*
X100163190Y-84401819D02*
X100258428Y-84354200D01*
X100258428Y-84354200D02*
X100306047Y-84306580D01*
X100306047Y-84306580D02*
X100401285Y-84163723D01*
X100401285Y-84163723D02*
X100448904Y-83973247D01*
X100448904Y-83973247D02*
X100448904Y-83592295D01*
X100448904Y-83592295D02*
X100401285Y-83497057D01*
X100401285Y-83497057D02*
X100353666Y-83449438D01*
X100353666Y-83449438D02*
X100258428Y-83401819D01*
X100258428Y-83401819D02*
X100067952Y-83401819D01*
X100067952Y-83401819D02*
X99972714Y-83449438D01*
X99972714Y-83449438D02*
X99925095Y-83497057D01*
X99925095Y-83497057D02*
X99877476Y-83592295D01*
X99877476Y-83592295D02*
X99877476Y-83830390D01*
X99877476Y-83830390D02*
X99925095Y-83925628D01*
X99925095Y-83925628D02*
X99972714Y-83973247D01*
X99972714Y-83973247D02*
X100067952Y-84020866D01*
X100067952Y-84020866D02*
X100258428Y-84020866D01*
X100258428Y-84020866D02*
X100353666Y-83973247D01*
X100353666Y-83973247D02*
X100401285Y-83925628D01*
X100401285Y-83925628D02*
X100448904Y-83830390D01*
X122317143Y-133684800D02*
X122460000Y-133732419D01*
X122460000Y-133732419D02*
X122698095Y-133732419D01*
X122698095Y-133732419D02*
X122793333Y-133684800D01*
X122793333Y-133684800D02*
X122840952Y-133637180D01*
X122840952Y-133637180D02*
X122888571Y-133541942D01*
X122888571Y-133541942D02*
X122888571Y-133446704D01*
X122888571Y-133446704D02*
X122840952Y-133351466D01*
X122840952Y-133351466D02*
X122793333Y-133303847D01*
X122793333Y-133303847D02*
X122698095Y-133256228D01*
X122698095Y-133256228D02*
X122507619Y-133208609D01*
X122507619Y-133208609D02*
X122412381Y-133160990D01*
X122412381Y-133160990D02*
X122364762Y-133113371D01*
X122364762Y-133113371D02*
X122317143Y-133018133D01*
X122317143Y-133018133D02*
X122317143Y-132922895D01*
X122317143Y-132922895D02*
X122364762Y-132827657D01*
X122364762Y-132827657D02*
X122412381Y-132780038D01*
X122412381Y-132780038D02*
X122507619Y-132732419D01*
X122507619Y-132732419D02*
X122745714Y-132732419D01*
X122745714Y-132732419D02*
X122888571Y-132780038D01*
X123221905Y-132732419D02*
X123460000Y-133732419D01*
X123460000Y-133732419D02*
X123650476Y-133018133D01*
X123650476Y-133018133D02*
X123840952Y-133732419D01*
X123840952Y-133732419D02*
X124079048Y-132732419D01*
X124221905Y-133827657D02*
X124983809Y-133827657D01*
X125174286Y-133446704D02*
X125650476Y-133446704D01*
X125079048Y-133732419D02*
X125412381Y-132732419D01*
X125412381Y-132732419D02*
X125745714Y-133732419D01*
X126602857Y-133732419D02*
X126031429Y-133732419D01*
X126317143Y-133732419D02*
X126317143Y-132732419D01*
X126317143Y-132732419D02*
X126221905Y-132875276D01*
X126221905Y-132875276D02*
X126126667Y-132970514D01*
X126126667Y-132970514D02*
X126031429Y-133018133D01*
X117357142Y-32454819D02*
X117023809Y-31978628D01*
X116785714Y-32454819D02*
X116785714Y-31454819D01*
X116785714Y-31454819D02*
X117166666Y-31454819D01*
X117166666Y-31454819D02*
X117261904Y-31502438D01*
X117261904Y-31502438D02*
X117309523Y-31550057D01*
X117309523Y-31550057D02*
X117357142Y-31645295D01*
X117357142Y-31645295D02*
X117357142Y-31788152D01*
X117357142Y-31788152D02*
X117309523Y-31883390D01*
X117309523Y-31883390D02*
X117261904Y-31931009D01*
X117261904Y-31931009D02*
X117166666Y-31978628D01*
X117166666Y-31978628D02*
X116785714Y-31978628D01*
X118214285Y-31454819D02*
X118023809Y-31454819D01*
X118023809Y-31454819D02*
X117928571Y-31502438D01*
X117928571Y-31502438D02*
X117880952Y-31550057D01*
X117880952Y-31550057D02*
X117785714Y-31692914D01*
X117785714Y-31692914D02*
X117738095Y-31883390D01*
X117738095Y-31883390D02*
X117738095Y-32264342D01*
X117738095Y-32264342D02*
X117785714Y-32359580D01*
X117785714Y-32359580D02*
X117833333Y-32407200D01*
X117833333Y-32407200D02*
X117928571Y-32454819D01*
X117928571Y-32454819D02*
X118119047Y-32454819D01*
X118119047Y-32454819D02*
X118214285Y-32407200D01*
X118214285Y-32407200D02*
X118261904Y-32359580D01*
X118261904Y-32359580D02*
X118309523Y-32264342D01*
X118309523Y-32264342D02*
X118309523Y-32026247D01*
X118309523Y-32026247D02*
X118261904Y-31931009D01*
X118261904Y-31931009D02*
X118214285Y-31883390D01*
X118214285Y-31883390D02*
X118119047Y-31835771D01*
X118119047Y-31835771D02*
X117928571Y-31835771D01*
X117928571Y-31835771D02*
X117833333Y-31883390D01*
X117833333Y-31883390D02*
X117785714Y-31931009D01*
X117785714Y-31931009D02*
X117738095Y-32026247D01*
X119166666Y-31454819D02*
X118976190Y-31454819D01*
X118976190Y-31454819D02*
X118880952Y-31502438D01*
X118880952Y-31502438D02*
X118833333Y-31550057D01*
X118833333Y-31550057D02*
X118738095Y-31692914D01*
X118738095Y-31692914D02*
X118690476Y-31883390D01*
X118690476Y-31883390D02*
X118690476Y-32264342D01*
X118690476Y-32264342D02*
X118738095Y-32359580D01*
X118738095Y-32359580D02*
X118785714Y-32407200D01*
X118785714Y-32407200D02*
X118880952Y-32454819D01*
X118880952Y-32454819D02*
X119071428Y-32454819D01*
X119071428Y-32454819D02*
X119166666Y-32407200D01*
X119166666Y-32407200D02*
X119214285Y-32359580D01*
X119214285Y-32359580D02*
X119261904Y-32264342D01*
X119261904Y-32264342D02*
X119261904Y-32026247D01*
X119261904Y-32026247D02*
X119214285Y-31931009D01*
X119214285Y-31931009D02*
X119166666Y-31883390D01*
X119166666Y-31883390D02*
X119071428Y-31835771D01*
X119071428Y-31835771D02*
X118880952Y-31835771D01*
X118880952Y-31835771D02*
X118785714Y-31883390D01*
X118785714Y-31883390D02*
X118738095Y-31931009D01*
X118738095Y-31931009D02*
X118690476Y-32026247D01*
X107529333Y-86338580D02*
X107481714Y-86386200D01*
X107481714Y-86386200D02*
X107338857Y-86433819D01*
X107338857Y-86433819D02*
X107243619Y-86433819D01*
X107243619Y-86433819D02*
X107100762Y-86386200D01*
X107100762Y-86386200D02*
X107005524Y-86290961D01*
X107005524Y-86290961D02*
X106957905Y-86195723D01*
X106957905Y-86195723D02*
X106910286Y-86005247D01*
X106910286Y-86005247D02*
X106910286Y-85862390D01*
X106910286Y-85862390D02*
X106957905Y-85671914D01*
X106957905Y-85671914D02*
X107005524Y-85576676D01*
X107005524Y-85576676D02*
X107100762Y-85481438D01*
X107100762Y-85481438D02*
X107243619Y-85433819D01*
X107243619Y-85433819D02*
X107338857Y-85433819D01*
X107338857Y-85433819D02*
X107481714Y-85481438D01*
X107481714Y-85481438D02*
X107529333Y-85529057D01*
X108386476Y-85767152D02*
X108386476Y-86433819D01*
X108148381Y-85386200D02*
X107910286Y-86100485D01*
X107910286Y-86100485D02*
X108529333Y-86100485D01*
X99543105Y-123594018D02*
X99543105Y-122594018D01*
X99543105Y-122594018D02*
X99781200Y-122594018D01*
X99781200Y-122594018D02*
X99924057Y-122641637D01*
X99924057Y-122641637D02*
X100019295Y-122736875D01*
X100019295Y-122736875D02*
X100066914Y-122832113D01*
X100066914Y-122832113D02*
X100114533Y-123022589D01*
X100114533Y-123022589D02*
X100114533Y-123165446D01*
X100114533Y-123165446D02*
X100066914Y-123355922D01*
X100066914Y-123355922D02*
X100019295Y-123451160D01*
X100019295Y-123451160D02*
X99924057Y-123546399D01*
X99924057Y-123546399D02*
X99781200Y-123594018D01*
X99781200Y-123594018D02*
X99543105Y-123594018D01*
X100685962Y-123022589D02*
X100590724Y-122974970D01*
X100590724Y-122974970D02*
X100543105Y-122927351D01*
X100543105Y-122927351D02*
X100495486Y-122832113D01*
X100495486Y-122832113D02*
X100495486Y-122784494D01*
X100495486Y-122784494D02*
X100543105Y-122689256D01*
X100543105Y-122689256D02*
X100590724Y-122641637D01*
X100590724Y-122641637D02*
X100685962Y-122594018D01*
X100685962Y-122594018D02*
X100876438Y-122594018D01*
X100876438Y-122594018D02*
X100971676Y-122641637D01*
X100971676Y-122641637D02*
X101019295Y-122689256D01*
X101019295Y-122689256D02*
X101066914Y-122784494D01*
X101066914Y-122784494D02*
X101066914Y-122832113D01*
X101066914Y-122832113D02*
X101019295Y-122927351D01*
X101019295Y-122927351D02*
X100971676Y-122974970D01*
X100971676Y-122974970D02*
X100876438Y-123022589D01*
X100876438Y-123022589D02*
X100685962Y-123022589D01*
X100685962Y-123022589D02*
X100590724Y-123070208D01*
X100590724Y-123070208D02*
X100543105Y-123117827D01*
X100543105Y-123117827D02*
X100495486Y-123213065D01*
X100495486Y-123213065D02*
X100495486Y-123403541D01*
X100495486Y-123403541D02*
X100543105Y-123498779D01*
X100543105Y-123498779D02*
X100590724Y-123546399D01*
X100590724Y-123546399D02*
X100685962Y-123594018D01*
X100685962Y-123594018D02*
X100876438Y-123594018D01*
X100876438Y-123594018D02*
X100971676Y-123546399D01*
X100971676Y-123546399D02*
X101019295Y-123498779D01*
X101019295Y-123498779D02*
X101066914Y-123403541D01*
X101066914Y-123403541D02*
X101066914Y-123213065D01*
X101066914Y-123213065D02*
X101019295Y-123117827D01*
X101019295Y-123117827D02*
X100971676Y-123070208D01*
X100971676Y-123070208D02*
X100876438Y-123022589D01*
X87100580Y-100083857D02*
X87148200Y-100131476D01*
X87148200Y-100131476D02*
X87195819Y-100274333D01*
X87195819Y-100274333D02*
X87195819Y-100369571D01*
X87195819Y-100369571D02*
X87148200Y-100512428D01*
X87148200Y-100512428D02*
X87052961Y-100607666D01*
X87052961Y-100607666D02*
X86957723Y-100655285D01*
X86957723Y-100655285D02*
X86767247Y-100702904D01*
X86767247Y-100702904D02*
X86624390Y-100702904D01*
X86624390Y-100702904D02*
X86433914Y-100655285D01*
X86433914Y-100655285D02*
X86338676Y-100607666D01*
X86338676Y-100607666D02*
X86243438Y-100512428D01*
X86243438Y-100512428D02*
X86195819Y-100369571D01*
X86195819Y-100369571D02*
X86195819Y-100274333D01*
X86195819Y-100274333D02*
X86243438Y-100131476D01*
X86243438Y-100131476D02*
X86291057Y-100083857D01*
X86195819Y-99226714D02*
X86195819Y-99417190D01*
X86195819Y-99417190D02*
X86243438Y-99512428D01*
X86243438Y-99512428D02*
X86291057Y-99560047D01*
X86291057Y-99560047D02*
X86433914Y-99655285D01*
X86433914Y-99655285D02*
X86624390Y-99702904D01*
X86624390Y-99702904D02*
X87005342Y-99702904D01*
X87005342Y-99702904D02*
X87100580Y-99655285D01*
X87100580Y-99655285D02*
X87148200Y-99607666D01*
X87148200Y-99607666D02*
X87195819Y-99512428D01*
X87195819Y-99512428D02*
X87195819Y-99321952D01*
X87195819Y-99321952D02*
X87148200Y-99226714D01*
X87148200Y-99226714D02*
X87100580Y-99179095D01*
X87100580Y-99179095D02*
X87005342Y-99131476D01*
X87005342Y-99131476D02*
X86767247Y-99131476D01*
X86767247Y-99131476D02*
X86672009Y-99179095D01*
X86672009Y-99179095D02*
X86624390Y-99226714D01*
X86624390Y-99226714D02*
X86576771Y-99321952D01*
X86576771Y-99321952D02*
X86576771Y-99512428D01*
X86576771Y-99512428D02*
X86624390Y-99607666D01*
X86624390Y-99607666D02*
X86672009Y-99655285D01*
X86672009Y-99655285D02*
X86767247Y-99702904D01*
X86291057Y-98750523D02*
X86243438Y-98702904D01*
X86243438Y-98702904D02*
X86195819Y-98607666D01*
X86195819Y-98607666D02*
X86195819Y-98369571D01*
X86195819Y-98369571D02*
X86243438Y-98274333D01*
X86243438Y-98274333D02*
X86291057Y-98226714D01*
X86291057Y-98226714D02*
X86386295Y-98179095D01*
X86386295Y-98179095D02*
X86481533Y-98179095D01*
X86481533Y-98179095D02*
X86624390Y-98226714D01*
X86624390Y-98226714D02*
X87195819Y-98798142D01*
X87195819Y-98798142D02*
X87195819Y-98179095D01*
X48544266Y-103972419D02*
X48544266Y-104686704D01*
X48544266Y-104686704D02*
X48496647Y-104829561D01*
X48496647Y-104829561D02*
X48401409Y-104924800D01*
X48401409Y-104924800D02*
X48258552Y-104972419D01*
X48258552Y-104972419D02*
X48163314Y-104972419D01*
X49020457Y-104972419D02*
X49020457Y-103972419D01*
X49020457Y-103972419D02*
X49401409Y-103972419D01*
X49401409Y-103972419D02*
X49496647Y-104020038D01*
X49496647Y-104020038D02*
X49544266Y-104067657D01*
X49544266Y-104067657D02*
X49591885Y-104162895D01*
X49591885Y-104162895D02*
X49591885Y-104305752D01*
X49591885Y-104305752D02*
X49544266Y-104400990D01*
X49544266Y-104400990D02*
X49496647Y-104448609D01*
X49496647Y-104448609D02*
X49401409Y-104496228D01*
X49401409Y-104496228D02*
X49020457Y-104496228D01*
X50544266Y-104972419D02*
X49972838Y-104972419D01*
X50258552Y-104972419D02*
X50258552Y-103972419D01*
X50258552Y-103972419D02*
X50163314Y-104115276D01*
X50163314Y-104115276D02*
X50068076Y-104210514D01*
X50068076Y-104210514D02*
X49972838Y-104258133D01*
X46444267Y-102172419D02*
X47063314Y-102172419D01*
X47063314Y-102172419D02*
X46729981Y-102553371D01*
X46729981Y-102553371D02*
X46872838Y-102553371D01*
X46872838Y-102553371D02*
X46968076Y-102600990D01*
X46968076Y-102600990D02*
X47015695Y-102648609D01*
X47015695Y-102648609D02*
X47063314Y-102743847D01*
X47063314Y-102743847D02*
X47063314Y-102981942D01*
X47063314Y-102981942D02*
X47015695Y-103077180D01*
X47015695Y-103077180D02*
X46968076Y-103124800D01*
X46968076Y-103124800D02*
X46872838Y-103172419D01*
X46872838Y-103172419D02*
X46587124Y-103172419D01*
X46587124Y-103172419D02*
X46491886Y-103124800D01*
X46491886Y-103124800D02*
X46444267Y-103077180D01*
X52263314Y-103172419D02*
X51691886Y-103172419D01*
X51977600Y-103172419D02*
X51977600Y-102172419D01*
X51977600Y-102172419D02*
X51882362Y-102315276D01*
X51882362Y-102315276D02*
X51787124Y-102410514D01*
X51787124Y-102410514D02*
X51691886Y-102458133D01*
X135839580Y-21642857D02*
X135887200Y-21690476D01*
X135887200Y-21690476D02*
X135934819Y-21833333D01*
X135934819Y-21833333D02*
X135934819Y-21928571D01*
X135934819Y-21928571D02*
X135887200Y-22071428D01*
X135887200Y-22071428D02*
X135791961Y-22166666D01*
X135791961Y-22166666D02*
X135696723Y-22214285D01*
X135696723Y-22214285D02*
X135506247Y-22261904D01*
X135506247Y-22261904D02*
X135363390Y-22261904D01*
X135363390Y-22261904D02*
X135172914Y-22214285D01*
X135172914Y-22214285D02*
X135077676Y-22166666D01*
X135077676Y-22166666D02*
X134982438Y-22071428D01*
X134982438Y-22071428D02*
X134934819Y-21928571D01*
X134934819Y-21928571D02*
X134934819Y-21833333D01*
X134934819Y-21833333D02*
X134982438Y-21690476D01*
X134982438Y-21690476D02*
X135030057Y-21642857D01*
X135268152Y-20785714D02*
X135934819Y-20785714D01*
X134887200Y-21023809D02*
X135601485Y-21261904D01*
X135601485Y-21261904D02*
X135601485Y-20642857D01*
X134934819Y-19833333D02*
X134934819Y-20023809D01*
X134934819Y-20023809D02*
X134982438Y-20119047D01*
X134982438Y-20119047D02*
X135030057Y-20166666D01*
X135030057Y-20166666D02*
X135172914Y-20261904D01*
X135172914Y-20261904D02*
X135363390Y-20309523D01*
X135363390Y-20309523D02*
X135744342Y-20309523D01*
X135744342Y-20309523D02*
X135839580Y-20261904D01*
X135839580Y-20261904D02*
X135887200Y-20214285D01*
X135887200Y-20214285D02*
X135934819Y-20119047D01*
X135934819Y-20119047D02*
X135934819Y-19928571D01*
X135934819Y-19928571D02*
X135887200Y-19833333D01*
X135887200Y-19833333D02*
X135839580Y-19785714D01*
X135839580Y-19785714D02*
X135744342Y-19738095D01*
X135744342Y-19738095D02*
X135506247Y-19738095D01*
X135506247Y-19738095D02*
X135411009Y-19785714D01*
X135411009Y-19785714D02*
X135363390Y-19833333D01*
X135363390Y-19833333D02*
X135315771Y-19928571D01*
X135315771Y-19928571D02*
X135315771Y-20119047D01*
X135315771Y-20119047D02*
X135363390Y-20214285D01*
X135363390Y-20214285D02*
X135411009Y-20261904D01*
X135411009Y-20261904D02*
X135506247Y-20309523D01*
X123698095Y-123102419D02*
X123698095Y-122102419D01*
X123698095Y-122578609D02*
X124269523Y-122578609D01*
X124269523Y-123102419D02*
X124269523Y-122102419D01*
X124698095Y-122197657D02*
X124745714Y-122150038D01*
X124745714Y-122150038D02*
X124840952Y-122102419D01*
X124840952Y-122102419D02*
X125079047Y-122102419D01*
X125079047Y-122102419D02*
X125174285Y-122150038D01*
X125174285Y-122150038D02*
X125221904Y-122197657D01*
X125221904Y-122197657D02*
X125269523Y-122292895D01*
X125269523Y-122292895D02*
X125269523Y-122388133D01*
X125269523Y-122388133D02*
X125221904Y-122530990D01*
X125221904Y-122530990D02*
X124650476Y-123102419D01*
X124650476Y-123102419D02*
X125269523Y-123102419D01*
X95609580Y-94684857D02*
X95657200Y-94732476D01*
X95657200Y-94732476D02*
X95704819Y-94875333D01*
X95704819Y-94875333D02*
X95704819Y-94970571D01*
X95704819Y-94970571D02*
X95657200Y-95113428D01*
X95657200Y-95113428D02*
X95561961Y-95208666D01*
X95561961Y-95208666D02*
X95466723Y-95256285D01*
X95466723Y-95256285D02*
X95276247Y-95303904D01*
X95276247Y-95303904D02*
X95133390Y-95303904D01*
X95133390Y-95303904D02*
X94942914Y-95256285D01*
X94942914Y-95256285D02*
X94847676Y-95208666D01*
X94847676Y-95208666D02*
X94752438Y-95113428D01*
X94752438Y-95113428D02*
X94704819Y-94970571D01*
X94704819Y-94970571D02*
X94704819Y-94875333D01*
X94704819Y-94875333D02*
X94752438Y-94732476D01*
X94752438Y-94732476D02*
X94800057Y-94684857D01*
X95704819Y-94208666D02*
X95704819Y-94018190D01*
X95704819Y-94018190D02*
X95657200Y-93922952D01*
X95657200Y-93922952D02*
X95609580Y-93875333D01*
X95609580Y-93875333D02*
X95466723Y-93780095D01*
X95466723Y-93780095D02*
X95276247Y-93732476D01*
X95276247Y-93732476D02*
X94895295Y-93732476D01*
X94895295Y-93732476D02*
X94800057Y-93780095D01*
X94800057Y-93780095D02*
X94752438Y-93827714D01*
X94752438Y-93827714D02*
X94704819Y-93922952D01*
X94704819Y-93922952D02*
X94704819Y-94113428D01*
X94704819Y-94113428D02*
X94752438Y-94208666D01*
X94752438Y-94208666D02*
X94800057Y-94256285D01*
X94800057Y-94256285D02*
X94895295Y-94303904D01*
X94895295Y-94303904D02*
X95133390Y-94303904D01*
X95133390Y-94303904D02*
X95228628Y-94256285D01*
X95228628Y-94256285D02*
X95276247Y-94208666D01*
X95276247Y-94208666D02*
X95323866Y-94113428D01*
X95323866Y-94113428D02*
X95323866Y-93922952D01*
X95323866Y-93922952D02*
X95276247Y-93827714D01*
X95276247Y-93827714D02*
X95228628Y-93780095D01*
X95228628Y-93780095D02*
X95133390Y-93732476D01*
X94704819Y-93399142D02*
X94704819Y-92732476D01*
X94704819Y-92732476D02*
X95704819Y-93161047D01*
X94339580Y-110751857D02*
X94387200Y-110799476D01*
X94387200Y-110799476D02*
X94434819Y-110942333D01*
X94434819Y-110942333D02*
X94434819Y-111037571D01*
X94434819Y-111037571D02*
X94387200Y-111180428D01*
X94387200Y-111180428D02*
X94291961Y-111275666D01*
X94291961Y-111275666D02*
X94196723Y-111323285D01*
X94196723Y-111323285D02*
X94006247Y-111370904D01*
X94006247Y-111370904D02*
X93863390Y-111370904D01*
X93863390Y-111370904D02*
X93672914Y-111323285D01*
X93672914Y-111323285D02*
X93577676Y-111275666D01*
X93577676Y-111275666D02*
X93482438Y-111180428D01*
X93482438Y-111180428D02*
X93434819Y-111037571D01*
X93434819Y-111037571D02*
X93434819Y-110942333D01*
X93434819Y-110942333D02*
X93482438Y-110799476D01*
X93482438Y-110799476D02*
X93530057Y-110751857D01*
X93434819Y-109894714D02*
X93434819Y-110085190D01*
X93434819Y-110085190D02*
X93482438Y-110180428D01*
X93482438Y-110180428D02*
X93530057Y-110228047D01*
X93530057Y-110228047D02*
X93672914Y-110323285D01*
X93672914Y-110323285D02*
X93863390Y-110370904D01*
X93863390Y-110370904D02*
X94244342Y-110370904D01*
X94244342Y-110370904D02*
X94339580Y-110323285D01*
X94339580Y-110323285D02*
X94387200Y-110275666D01*
X94387200Y-110275666D02*
X94434819Y-110180428D01*
X94434819Y-110180428D02*
X94434819Y-109989952D01*
X94434819Y-109989952D02*
X94387200Y-109894714D01*
X94387200Y-109894714D02*
X94339580Y-109847095D01*
X94339580Y-109847095D02*
X94244342Y-109799476D01*
X94244342Y-109799476D02*
X94006247Y-109799476D01*
X94006247Y-109799476D02*
X93911009Y-109847095D01*
X93911009Y-109847095D02*
X93863390Y-109894714D01*
X93863390Y-109894714D02*
X93815771Y-109989952D01*
X93815771Y-109989952D02*
X93815771Y-110180428D01*
X93815771Y-110180428D02*
X93863390Y-110275666D01*
X93863390Y-110275666D02*
X93911009Y-110323285D01*
X93911009Y-110323285D02*
X94006247Y-110370904D01*
X93434819Y-109180428D02*
X93434819Y-109085190D01*
X93434819Y-109085190D02*
X93482438Y-108989952D01*
X93482438Y-108989952D02*
X93530057Y-108942333D01*
X93530057Y-108942333D02*
X93625295Y-108894714D01*
X93625295Y-108894714D02*
X93815771Y-108847095D01*
X93815771Y-108847095D02*
X94053866Y-108847095D01*
X94053866Y-108847095D02*
X94244342Y-108894714D01*
X94244342Y-108894714D02*
X94339580Y-108942333D01*
X94339580Y-108942333D02*
X94387200Y-108989952D01*
X94387200Y-108989952D02*
X94434819Y-109085190D01*
X94434819Y-109085190D02*
X94434819Y-109180428D01*
X94434819Y-109180428D02*
X94387200Y-109275666D01*
X94387200Y-109275666D02*
X94339580Y-109323285D01*
X94339580Y-109323285D02*
X94244342Y-109370904D01*
X94244342Y-109370904D02*
X94053866Y-109418523D01*
X94053866Y-109418523D02*
X93815771Y-109418523D01*
X93815771Y-109418523D02*
X93625295Y-109370904D01*
X93625295Y-109370904D02*
X93530057Y-109323285D01*
X93530057Y-109323285D02*
X93482438Y-109275666D01*
X93482438Y-109275666D02*
X93434819Y-109180428D01*
X126179124Y-24242857D02*
X125702933Y-24576190D01*
X126179124Y-24814285D02*
X125179124Y-24814285D01*
X125179124Y-24814285D02*
X125179124Y-24433333D01*
X125179124Y-24433333D02*
X125226743Y-24338095D01*
X125226743Y-24338095D02*
X125274362Y-24290476D01*
X125274362Y-24290476D02*
X125369600Y-24242857D01*
X125369600Y-24242857D02*
X125512457Y-24242857D01*
X125512457Y-24242857D02*
X125607695Y-24290476D01*
X125607695Y-24290476D02*
X125655314Y-24338095D01*
X125655314Y-24338095D02*
X125702933Y-24433333D01*
X125702933Y-24433333D02*
X125702933Y-24814285D01*
X126179124Y-23290476D02*
X126179124Y-23861904D01*
X126179124Y-23576190D02*
X125179124Y-23576190D01*
X125179124Y-23576190D02*
X125321981Y-23671428D01*
X125321981Y-23671428D02*
X125417219Y-23766666D01*
X125417219Y-23766666D02*
X125464838Y-23861904D01*
X125512457Y-22433333D02*
X126179124Y-22433333D01*
X125131505Y-22671428D02*
X125845790Y-22909523D01*
X125845790Y-22909523D02*
X125845790Y-22290476D01*
X54618095Y-59100819D02*
X55189523Y-59100819D01*
X54903809Y-60100819D02*
X54903809Y-59100819D01*
X55522857Y-60100819D02*
X55522857Y-59100819D01*
X55522857Y-59100819D02*
X55903809Y-59100819D01*
X55903809Y-59100819D02*
X55999047Y-59148438D01*
X55999047Y-59148438D02*
X56046666Y-59196057D01*
X56046666Y-59196057D02*
X56094285Y-59291295D01*
X56094285Y-59291295D02*
X56094285Y-59434152D01*
X56094285Y-59434152D02*
X56046666Y-59529390D01*
X56046666Y-59529390D02*
X55999047Y-59577009D01*
X55999047Y-59577009D02*
X55903809Y-59624628D01*
X55903809Y-59624628D02*
X55522857Y-59624628D01*
X56427619Y-59100819D02*
X57046666Y-59100819D01*
X57046666Y-59100819D02*
X56713333Y-59481771D01*
X56713333Y-59481771D02*
X56856190Y-59481771D01*
X56856190Y-59481771D02*
X56951428Y-59529390D01*
X56951428Y-59529390D02*
X56999047Y-59577009D01*
X56999047Y-59577009D02*
X57046666Y-59672247D01*
X57046666Y-59672247D02*
X57046666Y-59910342D01*
X57046666Y-59910342D02*
X56999047Y-60005580D01*
X56999047Y-60005580D02*
X56951428Y-60053200D01*
X56951428Y-60053200D02*
X56856190Y-60100819D01*
X56856190Y-60100819D02*
X56570476Y-60100819D01*
X56570476Y-60100819D02*
X56475238Y-60053200D01*
X56475238Y-60053200D02*
X56427619Y-60005580D01*
X112689819Y-106625923D02*
X113404104Y-106625923D01*
X113404104Y-106625923D02*
X113546961Y-106673542D01*
X113546961Y-106673542D02*
X113642200Y-106768780D01*
X113642200Y-106768780D02*
X113689819Y-106911637D01*
X113689819Y-106911637D02*
X113689819Y-107006875D01*
X113689819Y-105625923D02*
X113689819Y-106197351D01*
X113689819Y-105911637D02*
X112689819Y-105911637D01*
X112689819Y-105911637D02*
X112832676Y-106006875D01*
X112832676Y-106006875D02*
X112927914Y-106102113D01*
X112927914Y-106102113D02*
X112975533Y-106197351D01*
X112689819Y-105292589D02*
X112689819Y-104673542D01*
X112689819Y-104673542D02*
X113070771Y-105006875D01*
X113070771Y-105006875D02*
X113070771Y-104864018D01*
X113070771Y-104864018D02*
X113118390Y-104768780D01*
X113118390Y-104768780D02*
X113166009Y-104721161D01*
X113166009Y-104721161D02*
X113261247Y-104673542D01*
X113261247Y-104673542D02*
X113499342Y-104673542D01*
X113499342Y-104673542D02*
X113594580Y-104721161D01*
X113594580Y-104721161D02*
X113642200Y-104768780D01*
X113642200Y-104768780D02*
X113689819Y-104864018D01*
X113689819Y-104864018D02*
X113689819Y-105149732D01*
X113689819Y-105149732D02*
X113642200Y-105244970D01*
X113642200Y-105244970D02*
X113594580Y-105292589D01*
X76573142Y-82909580D02*
X76525523Y-82957200D01*
X76525523Y-82957200D02*
X76382666Y-83004819D01*
X76382666Y-83004819D02*
X76287428Y-83004819D01*
X76287428Y-83004819D02*
X76144571Y-82957200D01*
X76144571Y-82957200D02*
X76049333Y-82861961D01*
X76049333Y-82861961D02*
X76001714Y-82766723D01*
X76001714Y-82766723D02*
X75954095Y-82576247D01*
X75954095Y-82576247D02*
X75954095Y-82433390D01*
X75954095Y-82433390D02*
X76001714Y-82242914D01*
X76001714Y-82242914D02*
X76049333Y-82147676D01*
X76049333Y-82147676D02*
X76144571Y-82052438D01*
X76144571Y-82052438D02*
X76287428Y-82004819D01*
X76287428Y-82004819D02*
X76382666Y-82004819D01*
X76382666Y-82004819D02*
X76525523Y-82052438D01*
X76525523Y-82052438D02*
X76573142Y-82100057D01*
X77525523Y-83004819D02*
X76954095Y-83004819D01*
X77239809Y-83004819D02*
X77239809Y-82004819D01*
X77239809Y-82004819D02*
X77144571Y-82147676D01*
X77144571Y-82147676D02*
X77049333Y-82242914D01*
X77049333Y-82242914D02*
X76954095Y-82290533D01*
X78096952Y-82433390D02*
X78001714Y-82385771D01*
X78001714Y-82385771D02*
X77954095Y-82338152D01*
X77954095Y-82338152D02*
X77906476Y-82242914D01*
X77906476Y-82242914D02*
X77906476Y-82195295D01*
X77906476Y-82195295D02*
X77954095Y-82100057D01*
X77954095Y-82100057D02*
X78001714Y-82052438D01*
X78001714Y-82052438D02*
X78096952Y-82004819D01*
X78096952Y-82004819D02*
X78287428Y-82004819D01*
X78287428Y-82004819D02*
X78382666Y-82052438D01*
X78382666Y-82052438D02*
X78430285Y-82100057D01*
X78430285Y-82100057D02*
X78477904Y-82195295D01*
X78477904Y-82195295D02*
X78477904Y-82242914D01*
X78477904Y-82242914D02*
X78430285Y-82338152D01*
X78430285Y-82338152D02*
X78382666Y-82385771D01*
X78382666Y-82385771D02*
X78287428Y-82433390D01*
X78287428Y-82433390D02*
X78096952Y-82433390D01*
X78096952Y-82433390D02*
X78001714Y-82481009D01*
X78001714Y-82481009D02*
X77954095Y-82528628D01*
X77954095Y-82528628D02*
X77906476Y-82623866D01*
X77906476Y-82623866D02*
X77906476Y-82814342D01*
X77906476Y-82814342D02*
X77954095Y-82909580D01*
X77954095Y-82909580D02*
X78001714Y-82957200D01*
X78001714Y-82957200D02*
X78096952Y-83004819D01*
X78096952Y-83004819D02*
X78287428Y-83004819D01*
X78287428Y-83004819D02*
X78382666Y-82957200D01*
X78382666Y-82957200D02*
X78430285Y-82909580D01*
X78430285Y-82909580D02*
X78477904Y-82814342D01*
X78477904Y-82814342D02*
X78477904Y-82623866D01*
X78477904Y-82623866D02*
X78430285Y-82528628D01*
X78430285Y-82528628D02*
X78382666Y-82481009D01*
X78382666Y-82481009D02*
X78287428Y-82433390D01*
X92307580Y-80779857D02*
X92355200Y-80827476D01*
X92355200Y-80827476D02*
X92402819Y-80970333D01*
X92402819Y-80970333D02*
X92402819Y-81065571D01*
X92402819Y-81065571D02*
X92355200Y-81208428D01*
X92355200Y-81208428D02*
X92259961Y-81303666D01*
X92259961Y-81303666D02*
X92164723Y-81351285D01*
X92164723Y-81351285D02*
X91974247Y-81398904D01*
X91974247Y-81398904D02*
X91831390Y-81398904D01*
X91831390Y-81398904D02*
X91640914Y-81351285D01*
X91640914Y-81351285D02*
X91545676Y-81303666D01*
X91545676Y-81303666D02*
X91450438Y-81208428D01*
X91450438Y-81208428D02*
X91402819Y-81065571D01*
X91402819Y-81065571D02*
X91402819Y-80970333D01*
X91402819Y-80970333D02*
X91450438Y-80827476D01*
X91450438Y-80827476D02*
X91498057Y-80779857D01*
X92402819Y-79827476D02*
X92402819Y-80398904D01*
X92402819Y-80113190D02*
X91402819Y-80113190D01*
X91402819Y-80113190D02*
X91545676Y-80208428D01*
X91545676Y-80208428D02*
X91640914Y-80303666D01*
X91640914Y-80303666D02*
X91688533Y-80398904D01*
X91402819Y-79494142D02*
X91402819Y-78875095D01*
X91402819Y-78875095D02*
X91783771Y-79208428D01*
X91783771Y-79208428D02*
X91783771Y-79065571D01*
X91783771Y-79065571D02*
X91831390Y-78970333D01*
X91831390Y-78970333D02*
X91879009Y-78922714D01*
X91879009Y-78922714D02*
X91974247Y-78875095D01*
X91974247Y-78875095D02*
X92212342Y-78875095D01*
X92212342Y-78875095D02*
X92307580Y-78922714D01*
X92307580Y-78922714D02*
X92355200Y-78970333D01*
X92355200Y-78970333D02*
X92402819Y-79065571D01*
X92402819Y-79065571D02*
X92402819Y-79351285D01*
X92402819Y-79351285D02*
X92355200Y-79446523D01*
X92355200Y-79446523D02*
X92307580Y-79494142D01*
X97528142Y-89513580D02*
X97480523Y-89561200D01*
X97480523Y-89561200D02*
X97337666Y-89608819D01*
X97337666Y-89608819D02*
X97242428Y-89608819D01*
X97242428Y-89608819D02*
X97099571Y-89561200D01*
X97099571Y-89561200D02*
X97004333Y-89465961D01*
X97004333Y-89465961D02*
X96956714Y-89370723D01*
X96956714Y-89370723D02*
X96909095Y-89180247D01*
X96909095Y-89180247D02*
X96909095Y-89037390D01*
X96909095Y-89037390D02*
X96956714Y-88846914D01*
X96956714Y-88846914D02*
X97004333Y-88751676D01*
X97004333Y-88751676D02*
X97099571Y-88656438D01*
X97099571Y-88656438D02*
X97242428Y-88608819D01*
X97242428Y-88608819D02*
X97337666Y-88608819D01*
X97337666Y-88608819D02*
X97480523Y-88656438D01*
X97480523Y-88656438D02*
X97528142Y-88704057D01*
X97861476Y-88608819D02*
X98480523Y-88608819D01*
X98480523Y-88608819D02*
X98147190Y-88989771D01*
X98147190Y-88989771D02*
X98290047Y-88989771D01*
X98290047Y-88989771D02*
X98385285Y-89037390D01*
X98385285Y-89037390D02*
X98432904Y-89085009D01*
X98432904Y-89085009D02*
X98480523Y-89180247D01*
X98480523Y-89180247D02*
X98480523Y-89418342D01*
X98480523Y-89418342D02*
X98432904Y-89513580D01*
X98432904Y-89513580D02*
X98385285Y-89561200D01*
X98385285Y-89561200D02*
X98290047Y-89608819D01*
X98290047Y-89608819D02*
X98004333Y-89608819D01*
X98004333Y-89608819D02*
X97909095Y-89561200D01*
X97909095Y-89561200D02*
X97861476Y-89513580D01*
X99051952Y-89037390D02*
X98956714Y-88989771D01*
X98956714Y-88989771D02*
X98909095Y-88942152D01*
X98909095Y-88942152D02*
X98861476Y-88846914D01*
X98861476Y-88846914D02*
X98861476Y-88799295D01*
X98861476Y-88799295D02*
X98909095Y-88704057D01*
X98909095Y-88704057D02*
X98956714Y-88656438D01*
X98956714Y-88656438D02*
X99051952Y-88608819D01*
X99051952Y-88608819D02*
X99242428Y-88608819D01*
X99242428Y-88608819D02*
X99337666Y-88656438D01*
X99337666Y-88656438D02*
X99385285Y-88704057D01*
X99385285Y-88704057D02*
X99432904Y-88799295D01*
X99432904Y-88799295D02*
X99432904Y-88846914D01*
X99432904Y-88846914D02*
X99385285Y-88942152D01*
X99385285Y-88942152D02*
X99337666Y-88989771D01*
X99337666Y-88989771D02*
X99242428Y-89037390D01*
X99242428Y-89037390D02*
X99051952Y-89037390D01*
X99051952Y-89037390D02*
X98956714Y-89085009D01*
X98956714Y-89085009D02*
X98909095Y-89132628D01*
X98909095Y-89132628D02*
X98861476Y-89227866D01*
X98861476Y-89227866D02*
X98861476Y-89418342D01*
X98861476Y-89418342D02*
X98909095Y-89513580D01*
X98909095Y-89513580D02*
X98956714Y-89561200D01*
X98956714Y-89561200D02*
X99051952Y-89608819D01*
X99051952Y-89608819D02*
X99242428Y-89608819D01*
X99242428Y-89608819D02*
X99337666Y-89561200D01*
X99337666Y-89561200D02*
X99385285Y-89513580D01*
X99385285Y-89513580D02*
X99432904Y-89418342D01*
X99432904Y-89418342D02*
X99432904Y-89227866D01*
X99432904Y-89227866D02*
X99385285Y-89132628D01*
X99385285Y-89132628D02*
X99337666Y-89085009D01*
X99337666Y-89085009D02*
X99242428Y-89037390D01*
X110839524Y-122254800D02*
X110982381Y-122302419D01*
X110982381Y-122302419D02*
X111220476Y-122302419D01*
X111220476Y-122302419D02*
X111315714Y-122254800D01*
X111315714Y-122254800D02*
X111363333Y-122207180D01*
X111363333Y-122207180D02*
X111410952Y-122111942D01*
X111410952Y-122111942D02*
X111410952Y-122016704D01*
X111410952Y-122016704D02*
X111363333Y-121921466D01*
X111363333Y-121921466D02*
X111315714Y-121873847D01*
X111315714Y-121873847D02*
X111220476Y-121826228D01*
X111220476Y-121826228D02*
X111030000Y-121778609D01*
X111030000Y-121778609D02*
X110934762Y-121730990D01*
X110934762Y-121730990D02*
X110887143Y-121683371D01*
X110887143Y-121683371D02*
X110839524Y-121588133D01*
X110839524Y-121588133D02*
X110839524Y-121492895D01*
X110839524Y-121492895D02*
X110887143Y-121397657D01*
X110887143Y-121397657D02*
X110934762Y-121350038D01*
X110934762Y-121350038D02*
X111030000Y-121302419D01*
X111030000Y-121302419D02*
X111268095Y-121302419D01*
X111268095Y-121302419D02*
X111410952Y-121350038D01*
X111744286Y-121302419D02*
X111982381Y-122302419D01*
X111982381Y-122302419D02*
X112172857Y-121588133D01*
X112172857Y-121588133D02*
X112363333Y-122302419D01*
X112363333Y-122302419D02*
X112601429Y-121302419D01*
X112744286Y-122397657D02*
X113506190Y-122397657D01*
X113649048Y-121302419D02*
X114315714Y-122302419D01*
X114315714Y-121302419D02*
X113649048Y-122302419D01*
X115220476Y-122302419D02*
X114649048Y-122302419D01*
X114934762Y-122302419D02*
X114934762Y-121302419D01*
X114934762Y-121302419D02*
X114839524Y-121445276D01*
X114839524Y-121445276D02*
X114744286Y-121540514D01*
X114744286Y-121540514D02*
X114649048Y-121588133D01*
X96498580Y-80779857D02*
X96546200Y-80827476D01*
X96546200Y-80827476D02*
X96593819Y-80970333D01*
X96593819Y-80970333D02*
X96593819Y-81065571D01*
X96593819Y-81065571D02*
X96546200Y-81208428D01*
X96546200Y-81208428D02*
X96450961Y-81303666D01*
X96450961Y-81303666D02*
X96355723Y-81351285D01*
X96355723Y-81351285D02*
X96165247Y-81398904D01*
X96165247Y-81398904D02*
X96022390Y-81398904D01*
X96022390Y-81398904D02*
X95831914Y-81351285D01*
X95831914Y-81351285D02*
X95736676Y-81303666D01*
X95736676Y-81303666D02*
X95641438Y-81208428D01*
X95641438Y-81208428D02*
X95593819Y-81065571D01*
X95593819Y-81065571D02*
X95593819Y-80970333D01*
X95593819Y-80970333D02*
X95641438Y-80827476D01*
X95641438Y-80827476D02*
X95689057Y-80779857D01*
X95593819Y-80446523D02*
X95593819Y-79827476D01*
X95593819Y-79827476D02*
X95974771Y-80160809D01*
X95974771Y-80160809D02*
X95974771Y-80017952D01*
X95974771Y-80017952D02*
X96022390Y-79922714D01*
X96022390Y-79922714D02*
X96070009Y-79875095D01*
X96070009Y-79875095D02*
X96165247Y-79827476D01*
X96165247Y-79827476D02*
X96403342Y-79827476D01*
X96403342Y-79827476D02*
X96498580Y-79875095D01*
X96498580Y-79875095D02*
X96546200Y-79922714D01*
X96546200Y-79922714D02*
X96593819Y-80017952D01*
X96593819Y-80017952D02*
X96593819Y-80303666D01*
X96593819Y-80303666D02*
X96546200Y-80398904D01*
X96546200Y-80398904D02*
X96498580Y-80446523D01*
X95593819Y-78970333D02*
X95593819Y-79160809D01*
X95593819Y-79160809D02*
X95641438Y-79256047D01*
X95641438Y-79256047D02*
X95689057Y-79303666D01*
X95689057Y-79303666D02*
X95831914Y-79398904D01*
X95831914Y-79398904D02*
X96022390Y-79446523D01*
X96022390Y-79446523D02*
X96403342Y-79446523D01*
X96403342Y-79446523D02*
X96498580Y-79398904D01*
X96498580Y-79398904D02*
X96546200Y-79351285D01*
X96546200Y-79351285D02*
X96593819Y-79256047D01*
X96593819Y-79256047D02*
X96593819Y-79065571D01*
X96593819Y-79065571D02*
X96546200Y-78970333D01*
X96546200Y-78970333D02*
X96498580Y-78922714D01*
X96498580Y-78922714D02*
X96403342Y-78875095D01*
X96403342Y-78875095D02*
X96165247Y-78875095D01*
X96165247Y-78875095D02*
X96070009Y-78922714D01*
X96070009Y-78922714D02*
X96022390Y-78970333D01*
X96022390Y-78970333D02*
X95974771Y-79065571D01*
X95974771Y-79065571D02*
X95974771Y-79256047D01*
X95974771Y-79256047D02*
X96022390Y-79351285D01*
X96022390Y-79351285D02*
X96070009Y-79398904D01*
X96070009Y-79398904D02*
X96165247Y-79446523D01*
X129654819Y-24242857D02*
X129178628Y-24576190D01*
X129654819Y-24814285D02*
X128654819Y-24814285D01*
X128654819Y-24814285D02*
X128654819Y-24433333D01*
X128654819Y-24433333D02*
X128702438Y-24338095D01*
X128702438Y-24338095D02*
X128750057Y-24290476D01*
X128750057Y-24290476D02*
X128845295Y-24242857D01*
X128845295Y-24242857D02*
X128988152Y-24242857D01*
X128988152Y-24242857D02*
X129083390Y-24290476D01*
X129083390Y-24290476D02*
X129131009Y-24338095D01*
X129131009Y-24338095D02*
X129178628Y-24433333D01*
X129178628Y-24433333D02*
X129178628Y-24814285D01*
X129654819Y-23290476D02*
X129654819Y-23861904D01*
X129654819Y-23576190D02*
X128654819Y-23576190D01*
X128654819Y-23576190D02*
X128797676Y-23671428D01*
X128797676Y-23671428D02*
X128892914Y-23766666D01*
X128892914Y-23766666D02*
X128940533Y-23861904D01*
X128654819Y-22957142D02*
X128654819Y-22290476D01*
X128654819Y-22290476D02*
X129654819Y-22719047D01*
X53848095Y-147984819D02*
X53848095Y-146984819D01*
X53848095Y-147461009D02*
X54419523Y-147461009D01*
X54419523Y-147984819D02*
X54419523Y-146984819D01*
X55371904Y-146984819D02*
X54895714Y-146984819D01*
X54895714Y-146984819D02*
X54848095Y-147461009D01*
X54848095Y-147461009D02*
X54895714Y-147413390D01*
X54895714Y-147413390D02*
X54990952Y-147365771D01*
X54990952Y-147365771D02*
X55229047Y-147365771D01*
X55229047Y-147365771D02*
X55324285Y-147413390D01*
X55324285Y-147413390D02*
X55371904Y-147461009D01*
X55371904Y-147461009D02*
X55419523Y-147556247D01*
X55419523Y-147556247D02*
X55419523Y-147794342D01*
X55419523Y-147794342D02*
X55371904Y-147889580D01*
X55371904Y-147889580D02*
X55324285Y-147937200D01*
X55324285Y-147937200D02*
X55229047Y-147984819D01*
X55229047Y-147984819D02*
X54990952Y-147984819D01*
X54990952Y-147984819D02*
X54895714Y-147937200D01*
X54895714Y-147937200D02*
X54848095Y-147889580D01*
X50038095Y-37529819D02*
X50038095Y-36529819D01*
X50038095Y-37006009D02*
X50609523Y-37006009D01*
X50609523Y-37529819D02*
X50609523Y-36529819D01*
X50990476Y-36529819D02*
X51609523Y-36529819D01*
X51609523Y-36529819D02*
X51276190Y-36910771D01*
X51276190Y-36910771D02*
X51419047Y-36910771D01*
X51419047Y-36910771D02*
X51514285Y-36958390D01*
X51514285Y-36958390D02*
X51561904Y-37006009D01*
X51561904Y-37006009D02*
X51609523Y-37101247D01*
X51609523Y-37101247D02*
X51609523Y-37339342D01*
X51609523Y-37339342D02*
X51561904Y-37434580D01*
X51561904Y-37434580D02*
X51514285Y-37482200D01*
X51514285Y-37482200D02*
X51419047Y-37529819D01*
X51419047Y-37529819D02*
X51133333Y-37529819D01*
X51133333Y-37529819D02*
X51038095Y-37482200D01*
X51038095Y-37482200D02*
X50990476Y-37434580D01*
X95436080Y-98141457D02*
X95483700Y-98189076D01*
X95483700Y-98189076D02*
X95531319Y-98331933D01*
X95531319Y-98331933D02*
X95531319Y-98427171D01*
X95531319Y-98427171D02*
X95483700Y-98570028D01*
X95483700Y-98570028D02*
X95388461Y-98665266D01*
X95388461Y-98665266D02*
X95293223Y-98712885D01*
X95293223Y-98712885D02*
X95102747Y-98760504D01*
X95102747Y-98760504D02*
X94959890Y-98760504D01*
X94959890Y-98760504D02*
X94769414Y-98712885D01*
X94769414Y-98712885D02*
X94674176Y-98665266D01*
X94674176Y-98665266D02*
X94578938Y-98570028D01*
X94578938Y-98570028D02*
X94531319Y-98427171D01*
X94531319Y-98427171D02*
X94531319Y-98331933D01*
X94531319Y-98331933D02*
X94578938Y-98189076D01*
X94578938Y-98189076D02*
X94626557Y-98141457D01*
X94626557Y-97760504D02*
X94578938Y-97712885D01*
X94578938Y-97712885D02*
X94531319Y-97617647D01*
X94531319Y-97617647D02*
X94531319Y-97379552D01*
X94531319Y-97379552D02*
X94578938Y-97284314D01*
X94578938Y-97284314D02*
X94626557Y-97236695D01*
X94626557Y-97236695D02*
X94721795Y-97189076D01*
X94721795Y-97189076D02*
X94817033Y-97189076D01*
X94817033Y-97189076D02*
X94959890Y-97236695D01*
X94959890Y-97236695D02*
X95531319Y-97808123D01*
X95531319Y-97808123D02*
X95531319Y-97189076D01*
X94531319Y-96570028D02*
X94531319Y-96474790D01*
X94531319Y-96474790D02*
X94578938Y-96379552D01*
X94578938Y-96379552D02*
X94626557Y-96331933D01*
X94626557Y-96331933D02*
X94721795Y-96284314D01*
X94721795Y-96284314D02*
X94912271Y-96236695D01*
X94912271Y-96236695D02*
X95150366Y-96236695D01*
X95150366Y-96236695D02*
X95340842Y-96284314D01*
X95340842Y-96284314D02*
X95436080Y-96331933D01*
X95436080Y-96331933D02*
X95483700Y-96379552D01*
X95483700Y-96379552D02*
X95531319Y-96474790D01*
X95531319Y-96474790D02*
X95531319Y-96570028D01*
X95531319Y-96570028D02*
X95483700Y-96665266D01*
X95483700Y-96665266D02*
X95436080Y-96712885D01*
X95436080Y-96712885D02*
X95340842Y-96760504D01*
X95340842Y-96760504D02*
X95150366Y-96808123D01*
X95150366Y-96808123D02*
X94912271Y-96808123D01*
X94912271Y-96808123D02*
X94721795Y-96760504D01*
X94721795Y-96760504D02*
X94626557Y-96712885D01*
X94626557Y-96712885D02*
X94578938Y-96665266D01*
X94578938Y-96665266D02*
X94531319Y-96570028D01*
X117657142Y-30554819D02*
X117323809Y-30078628D01*
X117085714Y-30554819D02*
X117085714Y-29554819D01*
X117085714Y-29554819D02*
X117466666Y-29554819D01*
X117466666Y-29554819D02*
X117561904Y-29602438D01*
X117561904Y-29602438D02*
X117609523Y-29650057D01*
X117609523Y-29650057D02*
X117657142Y-29745295D01*
X117657142Y-29745295D02*
X117657142Y-29888152D01*
X117657142Y-29888152D02*
X117609523Y-29983390D01*
X117609523Y-29983390D02*
X117561904Y-30031009D01*
X117561904Y-30031009D02*
X117466666Y-30078628D01*
X117466666Y-30078628D02*
X117085714Y-30078628D01*
X118609523Y-30554819D02*
X118038095Y-30554819D01*
X118323809Y-30554819D02*
X118323809Y-29554819D01*
X118323809Y-29554819D02*
X118228571Y-29697676D01*
X118228571Y-29697676D02*
X118133333Y-29792914D01*
X118133333Y-29792914D02*
X118038095Y-29840533D01*
X118942857Y-29554819D02*
X119561904Y-29554819D01*
X119561904Y-29554819D02*
X119228571Y-29935771D01*
X119228571Y-29935771D02*
X119371428Y-29935771D01*
X119371428Y-29935771D02*
X119466666Y-29983390D01*
X119466666Y-29983390D02*
X119514285Y-30031009D01*
X119514285Y-30031009D02*
X119561904Y-30126247D01*
X119561904Y-30126247D02*
X119561904Y-30364342D01*
X119561904Y-30364342D02*
X119514285Y-30459580D01*
X119514285Y-30459580D02*
X119466666Y-30507200D01*
X119466666Y-30507200D02*
X119371428Y-30554819D01*
X119371428Y-30554819D02*
X119085714Y-30554819D01*
X119085714Y-30554819D02*
X118990476Y-30507200D01*
X118990476Y-30507200D02*
X118942857Y-30459580D01*
X93069580Y-111005857D02*
X93117200Y-111053476D01*
X93117200Y-111053476D02*
X93164819Y-111196333D01*
X93164819Y-111196333D02*
X93164819Y-111291571D01*
X93164819Y-111291571D02*
X93117200Y-111434428D01*
X93117200Y-111434428D02*
X93021961Y-111529666D01*
X93021961Y-111529666D02*
X92926723Y-111577285D01*
X92926723Y-111577285D02*
X92736247Y-111624904D01*
X92736247Y-111624904D02*
X92593390Y-111624904D01*
X92593390Y-111624904D02*
X92402914Y-111577285D01*
X92402914Y-111577285D02*
X92307676Y-111529666D01*
X92307676Y-111529666D02*
X92212438Y-111434428D01*
X92212438Y-111434428D02*
X92164819Y-111291571D01*
X92164819Y-111291571D02*
X92164819Y-111196333D01*
X92164819Y-111196333D02*
X92212438Y-111053476D01*
X92212438Y-111053476D02*
X92260057Y-111005857D01*
X92498152Y-110148714D02*
X93164819Y-110148714D01*
X92117200Y-110386809D02*
X92831485Y-110624904D01*
X92831485Y-110624904D02*
X92831485Y-110005857D01*
X92164819Y-109720142D02*
X92164819Y-109101095D01*
X92164819Y-109101095D02*
X92545771Y-109434428D01*
X92545771Y-109434428D02*
X92545771Y-109291571D01*
X92545771Y-109291571D02*
X92593390Y-109196333D01*
X92593390Y-109196333D02*
X92641009Y-109148714D01*
X92641009Y-109148714D02*
X92736247Y-109101095D01*
X92736247Y-109101095D02*
X92974342Y-109101095D01*
X92974342Y-109101095D02*
X93069580Y-109148714D01*
X93069580Y-109148714D02*
X93117200Y-109196333D01*
X93117200Y-109196333D02*
X93164819Y-109291571D01*
X93164819Y-109291571D02*
X93164819Y-109577285D01*
X93164819Y-109577285D02*
X93117200Y-109672523D01*
X93117200Y-109672523D02*
X93069580Y-109720142D01*
X76240166Y-52855319D02*
X76240166Y-53569604D01*
X76240166Y-53569604D02*
X76192547Y-53712461D01*
X76192547Y-53712461D02*
X76097309Y-53807700D01*
X76097309Y-53807700D02*
X75954452Y-53855319D01*
X75954452Y-53855319D02*
X75859214Y-53855319D01*
X76621119Y-52855319D02*
X77240166Y-52855319D01*
X77240166Y-52855319D02*
X76906833Y-53236271D01*
X76906833Y-53236271D02*
X77049690Y-53236271D01*
X77049690Y-53236271D02*
X77144928Y-53283890D01*
X77144928Y-53283890D02*
X77192547Y-53331509D01*
X77192547Y-53331509D02*
X77240166Y-53426747D01*
X77240166Y-53426747D02*
X77240166Y-53664842D01*
X77240166Y-53664842D02*
X77192547Y-53760080D01*
X77192547Y-53760080D02*
X77144928Y-53807700D01*
X77144928Y-53807700D02*
X77049690Y-53855319D01*
X77049690Y-53855319D02*
X76763976Y-53855319D01*
X76763976Y-53855319D02*
X76668738Y-53807700D01*
X76668738Y-53807700D02*
X76621119Y-53760080D01*
X98544142Y-85703580D02*
X98496523Y-85751200D01*
X98496523Y-85751200D02*
X98353666Y-85798819D01*
X98353666Y-85798819D02*
X98258428Y-85798819D01*
X98258428Y-85798819D02*
X98115571Y-85751200D01*
X98115571Y-85751200D02*
X98020333Y-85655961D01*
X98020333Y-85655961D02*
X97972714Y-85560723D01*
X97972714Y-85560723D02*
X97925095Y-85370247D01*
X97925095Y-85370247D02*
X97925095Y-85227390D01*
X97925095Y-85227390D02*
X97972714Y-85036914D01*
X97972714Y-85036914D02*
X98020333Y-84941676D01*
X98020333Y-84941676D02*
X98115571Y-84846438D01*
X98115571Y-84846438D02*
X98258428Y-84798819D01*
X98258428Y-84798819D02*
X98353666Y-84798819D01*
X98353666Y-84798819D02*
X98496523Y-84846438D01*
X98496523Y-84846438D02*
X98544142Y-84894057D01*
X98877476Y-84798819D02*
X99496523Y-84798819D01*
X99496523Y-84798819D02*
X99163190Y-85179771D01*
X99163190Y-85179771D02*
X99306047Y-85179771D01*
X99306047Y-85179771D02*
X99401285Y-85227390D01*
X99401285Y-85227390D02*
X99448904Y-85275009D01*
X99448904Y-85275009D02*
X99496523Y-85370247D01*
X99496523Y-85370247D02*
X99496523Y-85608342D01*
X99496523Y-85608342D02*
X99448904Y-85703580D01*
X99448904Y-85703580D02*
X99401285Y-85751200D01*
X99401285Y-85751200D02*
X99306047Y-85798819D01*
X99306047Y-85798819D02*
X99020333Y-85798819D01*
X99020333Y-85798819D02*
X98925095Y-85751200D01*
X98925095Y-85751200D02*
X98877476Y-85703580D01*
X99829857Y-84798819D02*
X100496523Y-84798819D01*
X100496523Y-84798819D02*
X100067952Y-85798819D01*
X120925496Y-72339142D02*
X120925496Y-73053427D01*
X120925496Y-73053427D02*
X120877877Y-73196284D01*
X120877877Y-73196284D02*
X120782639Y-73291523D01*
X120782639Y-73291523D02*
X120639782Y-73339142D01*
X120639782Y-73339142D02*
X120544544Y-73339142D01*
X121925496Y-73339142D02*
X121354068Y-73339142D01*
X121639782Y-73339142D02*
X121639782Y-72339142D01*
X121639782Y-72339142D02*
X121544544Y-72481999D01*
X121544544Y-72481999D02*
X121449306Y-72577237D01*
X121449306Y-72577237D02*
X121354068Y-72624856D01*
X122544544Y-72339142D02*
X122639782Y-72339142D01*
X122639782Y-72339142D02*
X122735020Y-72386761D01*
X122735020Y-72386761D02*
X122782639Y-72434380D01*
X122782639Y-72434380D02*
X122830258Y-72529618D01*
X122830258Y-72529618D02*
X122877877Y-72720094D01*
X122877877Y-72720094D02*
X122877877Y-72958189D01*
X122877877Y-72958189D02*
X122830258Y-73148665D01*
X122830258Y-73148665D02*
X122782639Y-73243903D01*
X122782639Y-73243903D02*
X122735020Y-73291523D01*
X122735020Y-73291523D02*
X122639782Y-73339142D01*
X122639782Y-73339142D02*
X122544544Y-73339142D01*
X122544544Y-73339142D02*
X122449306Y-73291523D01*
X122449306Y-73291523D02*
X122401687Y-73243903D01*
X122401687Y-73243903D02*
X122354068Y-73148665D01*
X122354068Y-73148665D02*
X122306449Y-72958189D01*
X122306449Y-72958189D02*
X122306449Y-72720094D01*
X122306449Y-72720094D02*
X122354068Y-72529618D01*
X122354068Y-72529618D02*
X122401687Y-72434380D01*
X122401687Y-72434380D02*
X122449306Y-72386761D01*
X122449306Y-72386761D02*
X122544544Y-72339142D01*
X128485505Y-93083419D02*
X129056933Y-93083419D01*
X128771219Y-94083419D02*
X128771219Y-93083419D01*
X129390267Y-94083419D02*
X129390267Y-93083419D01*
X129390267Y-93083419D02*
X129771219Y-93083419D01*
X129771219Y-93083419D02*
X129866457Y-93131038D01*
X129866457Y-93131038D02*
X129914076Y-93178657D01*
X129914076Y-93178657D02*
X129961695Y-93273895D01*
X129961695Y-93273895D02*
X129961695Y-93416752D01*
X129961695Y-93416752D02*
X129914076Y-93511990D01*
X129914076Y-93511990D02*
X129866457Y-93559609D01*
X129866457Y-93559609D02*
X129771219Y-93607228D01*
X129771219Y-93607228D02*
X129390267Y-93607228D01*
X130914076Y-94083419D02*
X130342648Y-94083419D01*
X130628362Y-94083419D02*
X130628362Y-93083419D01*
X130628362Y-93083419D02*
X130533124Y-93226276D01*
X130533124Y-93226276D02*
X130437886Y-93321514D01*
X130437886Y-93321514D02*
X130342648Y-93369133D01*
X131771219Y-93083419D02*
X131580743Y-93083419D01*
X131580743Y-93083419D02*
X131485505Y-93131038D01*
X131485505Y-93131038D02*
X131437886Y-93178657D01*
X131437886Y-93178657D02*
X131342648Y-93321514D01*
X131342648Y-93321514D02*
X131295029Y-93511990D01*
X131295029Y-93511990D02*
X131295029Y-93892942D01*
X131295029Y-93892942D02*
X131342648Y-93988180D01*
X131342648Y-93988180D02*
X131390267Y-94035800D01*
X131390267Y-94035800D02*
X131485505Y-94083419D01*
X131485505Y-94083419D02*
X131675981Y-94083419D01*
X131675981Y-94083419D02*
X131771219Y-94035800D01*
X131771219Y-94035800D02*
X131818838Y-93988180D01*
X131818838Y-93988180D02*
X131866457Y-93892942D01*
X131866457Y-93892942D02*
X131866457Y-93654847D01*
X131866457Y-93654847D02*
X131818838Y-93559609D01*
X131818838Y-93559609D02*
X131771219Y-93511990D01*
X131771219Y-93511990D02*
X131675981Y-93464371D01*
X131675981Y-93464371D02*
X131485505Y-93464371D01*
X131485505Y-93464371D02*
X131390267Y-93511990D01*
X131390267Y-93511990D02*
X131342648Y-93559609D01*
X131342648Y-93559609D02*
X131295029Y-93654847D01*
X107529333Y-88624580D02*
X107481714Y-88672200D01*
X107481714Y-88672200D02*
X107338857Y-88719819D01*
X107338857Y-88719819D02*
X107243619Y-88719819D01*
X107243619Y-88719819D02*
X107100762Y-88672200D01*
X107100762Y-88672200D02*
X107005524Y-88576961D01*
X107005524Y-88576961D02*
X106957905Y-88481723D01*
X106957905Y-88481723D02*
X106910286Y-88291247D01*
X106910286Y-88291247D02*
X106910286Y-88148390D01*
X106910286Y-88148390D02*
X106957905Y-87957914D01*
X106957905Y-87957914D02*
X107005524Y-87862676D01*
X107005524Y-87862676D02*
X107100762Y-87767438D01*
X107100762Y-87767438D02*
X107243619Y-87719819D01*
X107243619Y-87719819D02*
X107338857Y-87719819D01*
X107338857Y-87719819D02*
X107481714Y-87767438D01*
X107481714Y-87767438D02*
X107529333Y-87815057D01*
X107862667Y-87719819D02*
X108481714Y-87719819D01*
X108481714Y-87719819D02*
X108148381Y-88100771D01*
X108148381Y-88100771D02*
X108291238Y-88100771D01*
X108291238Y-88100771D02*
X108386476Y-88148390D01*
X108386476Y-88148390D02*
X108434095Y-88196009D01*
X108434095Y-88196009D02*
X108481714Y-88291247D01*
X108481714Y-88291247D02*
X108481714Y-88529342D01*
X108481714Y-88529342D02*
X108434095Y-88624580D01*
X108434095Y-88624580D02*
X108386476Y-88672200D01*
X108386476Y-88672200D02*
X108291238Y-88719819D01*
X108291238Y-88719819D02*
X108005524Y-88719819D01*
X108005524Y-88719819D02*
X107910286Y-88672200D01*
X107910286Y-88672200D02*
X107862667Y-88624580D01*
X121099124Y-24242857D02*
X120622933Y-24576190D01*
X121099124Y-24814285D02*
X120099124Y-24814285D01*
X120099124Y-24814285D02*
X120099124Y-24433333D01*
X120099124Y-24433333D02*
X120146743Y-24338095D01*
X120146743Y-24338095D02*
X120194362Y-24290476D01*
X120194362Y-24290476D02*
X120289600Y-24242857D01*
X120289600Y-24242857D02*
X120432457Y-24242857D01*
X120432457Y-24242857D02*
X120527695Y-24290476D01*
X120527695Y-24290476D02*
X120575314Y-24338095D01*
X120575314Y-24338095D02*
X120622933Y-24433333D01*
X120622933Y-24433333D02*
X120622933Y-24814285D01*
X121099124Y-23290476D02*
X121099124Y-23861904D01*
X121099124Y-23576190D02*
X120099124Y-23576190D01*
X120099124Y-23576190D02*
X120241981Y-23671428D01*
X120241981Y-23671428D02*
X120337219Y-23766666D01*
X120337219Y-23766666D02*
X120384838Y-23861904D01*
X120099124Y-22433333D02*
X120099124Y-22623809D01*
X120099124Y-22623809D02*
X120146743Y-22719047D01*
X120146743Y-22719047D02*
X120194362Y-22766666D01*
X120194362Y-22766666D02*
X120337219Y-22861904D01*
X120337219Y-22861904D02*
X120527695Y-22909523D01*
X120527695Y-22909523D02*
X120908647Y-22909523D01*
X120908647Y-22909523D02*
X121003885Y-22861904D01*
X121003885Y-22861904D02*
X121051505Y-22814285D01*
X121051505Y-22814285D02*
X121099124Y-22719047D01*
X121099124Y-22719047D02*
X121099124Y-22528571D01*
X121099124Y-22528571D02*
X121051505Y-22433333D01*
X121051505Y-22433333D02*
X121003885Y-22385714D01*
X121003885Y-22385714D02*
X120908647Y-22338095D01*
X120908647Y-22338095D02*
X120670552Y-22338095D01*
X120670552Y-22338095D02*
X120575314Y-22385714D01*
X120575314Y-22385714D02*
X120527695Y-22433333D01*
X120527695Y-22433333D02*
X120480076Y-22528571D01*
X120480076Y-22528571D02*
X120480076Y-22719047D01*
X120480076Y-22719047D02*
X120527695Y-22814285D01*
X120527695Y-22814285D02*
X120575314Y-22861904D01*
X120575314Y-22861904D02*
X120670552Y-22909523D01*
X46699819Y-100417857D02*
X46223628Y-100751190D01*
X46699819Y-100989285D02*
X45699819Y-100989285D01*
X45699819Y-100989285D02*
X45699819Y-100608333D01*
X45699819Y-100608333D02*
X45747438Y-100513095D01*
X45747438Y-100513095D02*
X45795057Y-100465476D01*
X45795057Y-100465476D02*
X45890295Y-100417857D01*
X45890295Y-100417857D02*
X46033152Y-100417857D01*
X46033152Y-100417857D02*
X46128390Y-100465476D01*
X46128390Y-100465476D02*
X46176009Y-100513095D01*
X46176009Y-100513095D02*
X46223628Y-100608333D01*
X46223628Y-100608333D02*
X46223628Y-100989285D01*
X45699819Y-100084523D02*
X45699819Y-99417857D01*
X45699819Y-99417857D02*
X46699819Y-99846428D01*
X45699819Y-98608333D02*
X45699819Y-98798809D01*
X45699819Y-98798809D02*
X45747438Y-98894047D01*
X45747438Y-98894047D02*
X45795057Y-98941666D01*
X45795057Y-98941666D02*
X45937914Y-99036904D01*
X45937914Y-99036904D02*
X46128390Y-99084523D01*
X46128390Y-99084523D02*
X46509342Y-99084523D01*
X46509342Y-99084523D02*
X46604580Y-99036904D01*
X46604580Y-99036904D02*
X46652200Y-98989285D01*
X46652200Y-98989285D02*
X46699819Y-98894047D01*
X46699819Y-98894047D02*
X46699819Y-98703571D01*
X46699819Y-98703571D02*
X46652200Y-98608333D01*
X46652200Y-98608333D02*
X46604580Y-98560714D01*
X46604580Y-98560714D02*
X46509342Y-98513095D01*
X46509342Y-98513095D02*
X46271247Y-98513095D01*
X46271247Y-98513095D02*
X46176009Y-98560714D01*
X46176009Y-98560714D02*
X46128390Y-98608333D01*
X46128390Y-98608333D02*
X46080771Y-98703571D01*
X46080771Y-98703571D02*
X46080771Y-98894047D01*
X46080771Y-98894047D02*
X46128390Y-98989285D01*
X46128390Y-98989285D02*
X46176009Y-99036904D01*
X46176009Y-99036904D02*
X46271247Y-99084523D01*
X81090000Y-153480000D02*
X89090000Y-153480000D01*
X81090000Y-161480000D02*
X81090000Y-153480000D01*
X89090000Y-153480000D02*
X89090000Y-161480000D01*
X89090000Y-161480000D02*
X81090000Y-161480000D01*
D12*
X89523500Y-84799836D02*
X89523500Y-84584164D01*
X90243500Y-84799836D02*
X90243500Y-84584164D01*
X125112500Y-30885000D02*
X127397500Y-30885000D01*
X127397500Y-29415000D02*
X125112500Y-29415000D01*
X127397500Y-30885000D02*
X127397500Y-29415000D01*
X133071800Y-42764400D02*
X133071800Y-45424400D01*
X138211800Y-42764400D02*
X133071800Y-42764400D01*
X138211800Y-42764400D02*
X138211800Y-45424400D01*
X138211800Y-45424400D02*
X133071800Y-45424400D01*
X139481800Y-42764400D02*
X140811800Y-42764400D01*
X140811800Y-42764400D02*
X140811800Y-44094400D01*
X94098500Y-82874836D02*
X94098500Y-82659164D01*
X94818500Y-82874836D02*
X94818500Y-82659164D01*
X93973500Y-89759164D02*
X93973500Y-89974836D01*
X94693500Y-89759164D02*
X94693500Y-89974836D01*
X88506500Y-98240764D02*
X88506500Y-98456436D01*
X89226500Y-98240764D02*
X89226500Y-98456436D01*
D10*
X58230000Y-153480000D02*
X66230000Y-153480000D01*
X58230000Y-161480000D02*
X58230000Y-153480000D01*
X66230000Y-153480000D02*
X66230000Y-161480000D01*
X66230000Y-161480000D02*
X58230000Y-161480000D01*
D12*
X80256500Y-85631436D02*
X80256500Y-85415764D01*
X80976500Y-85631436D02*
X80976500Y-85415764D01*
X80281500Y-87365764D02*
X80281500Y-87581436D01*
X81001500Y-87365764D02*
X81001500Y-87581436D01*
D10*
X69660000Y-142050000D02*
X77660000Y-142050000D01*
X69660000Y-150050000D02*
X69660000Y-142050000D01*
X77660000Y-142050000D02*
X77660000Y-150050000D01*
X77660000Y-150050000D02*
X69660000Y-150050000D01*
D12*
X79774336Y-80963600D02*
X79558664Y-80963600D01*
X79774336Y-81683600D02*
X79558664Y-81683600D01*
X93467487Y-125134544D02*
X91360309Y-123027365D01*
X93467487Y-125134544D02*
X93934178Y-124667853D01*
X95093833Y-123366777D02*
X93043223Y-121316167D01*
X96375664Y-87482000D02*
X96591336Y-87482000D01*
X96375664Y-88202000D02*
X96591336Y-88202000D01*
X136338000Y-37913000D02*
X137668000Y-37913000D01*
X136338000Y-39243000D02*
X136338000Y-37913000D01*
X136338000Y-40513000D02*
X136338000Y-40573000D01*
X136338000Y-40513000D02*
X138998000Y-40513000D01*
X136338000Y-40573000D02*
X138998000Y-40573000D01*
X138998000Y-40513000D02*
X138998000Y-40573000D01*
X93681500Y-105781436D02*
X93681500Y-105565764D01*
X94401500Y-105781436D02*
X94401500Y-105565764D01*
X102220000Y-30180000D02*
X102220000Y-30120000D01*
X104880000Y-30120000D02*
X102220000Y-30120000D01*
X104880000Y-30180000D02*
X102220000Y-30180000D01*
X104880000Y-30180000D02*
X104880000Y-30120000D01*
X104880000Y-31450000D02*
X104880000Y-32780000D01*
X104880000Y-32780000D02*
X103550000Y-32780000D01*
X92275664Y-89057000D02*
X92491336Y-89057000D01*
X92275664Y-89777000D02*
X92491336Y-89777000D01*
X115510000Y-144567600D02*
X116840000Y-144567600D01*
X115510000Y-145897600D02*
X115510000Y-144567600D01*
X115510000Y-147167600D02*
X115510000Y-147227600D01*
X115510000Y-147167600D02*
X118170000Y-147167600D01*
X115510000Y-147227600D02*
X118170000Y-147227600D01*
X118170000Y-147167600D02*
X118170000Y-147227600D01*
X94706500Y-108681436D02*
X94706500Y-108465764D01*
X95426500Y-108681436D02*
X95426500Y-108465764D01*
X92523500Y-94499836D02*
X92523500Y-94284164D01*
X93243500Y-94499836D02*
X93243500Y-94284164D01*
X125337500Y-31590000D02*
X124537500Y-31590000D01*
X125337500Y-31590000D02*
X126137500Y-31590000D01*
X125337500Y-34710000D02*
X124537500Y-34710000D01*
X125337500Y-34710000D02*
X127137500Y-34710000D01*
X89316336Y-86832000D02*
X89100664Y-86832000D01*
X89316336Y-87552000D02*
X89100664Y-87552000D01*
X87531500Y-96481436D02*
X87531500Y-96265764D01*
X88251500Y-96481436D02*
X88251500Y-96265764D01*
D11*
X59893200Y-122072400D02*
X63068200Y-122072400D01*
X59893200Y-131572000D02*
X59893200Y-122072400D01*
X63017400Y-131572000D02*
X59893200Y-131572000D01*
X63017400Y-133604000D02*
X63017400Y-131572000D01*
X63068200Y-122072400D02*
X63068200Y-120218200D01*
X64897000Y-116992400D02*
X74447400Y-116992400D01*
X64897000Y-119075200D02*
X64897000Y-116992400D01*
X66090800Y-135026400D02*
X66090800Y-133426200D01*
X73152000Y-133426200D02*
X73152000Y-135026400D01*
X73152000Y-135026400D02*
X66090800Y-135026400D01*
X74447400Y-116992400D02*
X74447400Y-119049800D01*
X76301600Y-120167400D02*
X76301600Y-122275600D01*
X76301600Y-122275600D02*
X81330800Y-122275600D01*
X76301600Y-131318000D02*
X76301600Y-133350000D01*
X81330800Y-122275600D02*
X81330800Y-131318000D01*
X81330800Y-131318000D02*
X76301600Y-131318000D01*
D12*
X123182305Y-26642220D02*
X123182305Y-26923380D01*
X124202305Y-26642220D02*
X124202305Y-26923380D01*
X120965000Y-34959420D02*
X120965000Y-35240580D01*
X121985000Y-34959420D02*
X121985000Y-35240580D01*
X91431500Y-107890764D02*
X91431500Y-108106436D01*
X92151500Y-107890764D02*
X92151500Y-108106436D01*
X106533080Y-82002400D02*
X106251920Y-82002400D01*
X106533080Y-83022400D02*
X106251920Y-83022400D01*
X121645805Y-27020058D02*
X121645805Y-26545542D01*
X122690805Y-27020058D02*
X122690805Y-26545542D01*
X106533080Y-80122800D02*
X106251920Y-80122800D01*
X106533080Y-81142800D02*
X106251920Y-81142800D01*
X47487742Y-105152500D02*
X47962258Y-105152500D01*
X47487742Y-106197500D02*
X47962258Y-106197500D01*
X126725805Y-27020058D02*
X126725805Y-26545542D01*
X127770805Y-27020058D02*
X127770805Y-26545542D01*
D10*
X131890000Y-122847600D02*
X139890000Y-122847600D01*
X131890000Y-130847600D02*
X131890000Y-122847600D01*
X139890000Y-122847600D02*
X139890000Y-130847600D01*
X139890000Y-130847600D02*
X131890000Y-130847600D01*
X94552000Y-113856000D02*
X102552000Y-113856000D01*
X94552000Y-121856000D02*
X94552000Y-113856000D01*
X102552000Y-113856000D02*
X102552000Y-121856000D01*
X102552000Y-121856000D02*
X94552000Y-121856000D01*
D12*
X92631500Y-105781436D02*
X92631500Y-105565764D01*
X93351500Y-105781436D02*
X93351500Y-105565764D01*
D10*
X69660000Y-164910000D02*
X77660000Y-164910000D01*
X69660000Y-172910000D02*
X69660000Y-164910000D01*
X77660000Y-164910000D02*
X77660000Y-172910000D01*
X77660000Y-172910000D02*
X69660000Y-172910000D01*
D12*
X81306500Y-85606436D02*
X81306500Y-85390764D01*
X82026500Y-85606436D02*
X82026500Y-85390764D01*
D10*
X120460000Y-111417600D02*
X128460000Y-111417600D01*
X120460000Y-119417600D02*
X120460000Y-111417600D01*
X128460000Y-111417600D02*
X128460000Y-119417600D01*
X128460000Y-119417600D02*
X120460000Y-119417600D01*
D12*
X81533664Y-82163600D02*
X81749336Y-82163600D01*
X81533664Y-82883600D02*
X81749336Y-82883600D01*
X90816336Y-82857000D02*
X90600664Y-82857000D01*
X90816336Y-83577000D02*
X90600664Y-83577000D01*
X66818000Y-102090000D02*
X68818000Y-102090000D01*
X66818000Y-106190000D02*
X66818000Y-102090000D01*
X68818000Y-102090000D02*
X68818000Y-106190000D01*
X68818000Y-106190000D02*
X66818000Y-106190000D01*
X85170000Y-20970000D02*
X86500000Y-20970000D01*
X85170000Y-22300000D02*
X85170000Y-20970000D01*
X85170000Y-23570000D02*
X85170000Y-23630000D01*
X85170000Y-23570000D02*
X87830000Y-23570000D01*
X85170000Y-23630000D02*
X87830000Y-23630000D01*
X87830000Y-23570000D02*
X87830000Y-23630000D01*
X90448500Y-89284164D02*
X90448500Y-89499836D01*
X91168500Y-89284164D02*
X91168500Y-89499836D01*
D11*
X138376400Y-109984600D02*
X138376400Y-113484600D01*
X138376400Y-113484600D02*
X144376400Y-113484600D01*
X144376400Y-109984600D02*
X138376400Y-109984600D01*
X144376400Y-111734600D02*
X144376400Y-109984600D01*
X144376400Y-113484600D02*
X144376400Y-111734600D01*
D12*
X84268000Y-171898000D02*
X85598000Y-171898000D01*
X84268000Y-173228000D02*
X84268000Y-171898000D01*
X84268000Y-174498000D02*
X84268000Y-174558000D01*
X84268000Y-174498000D02*
X86928000Y-174498000D01*
X84268000Y-174558000D02*
X86928000Y-174558000D01*
X86928000Y-174498000D02*
X86928000Y-174558000D01*
X71568000Y-65726000D02*
X72898000Y-65726000D01*
X71568000Y-67056000D02*
X71568000Y-65726000D01*
X71568000Y-68326000D02*
X71568000Y-68386000D01*
X71568000Y-68326000D02*
X74228000Y-68326000D01*
X71568000Y-68386000D02*
X74228000Y-68386000D01*
X74228000Y-68326000D02*
X74228000Y-68386000D01*
X47844400Y-130394400D02*
X49174400Y-130394400D01*
X47844400Y-131724400D02*
X47844400Y-130394400D01*
X47844400Y-132994400D02*
X47844400Y-133054400D01*
X47844400Y-132994400D02*
X50504400Y-132994400D01*
X47844400Y-133054400D02*
X50504400Y-133054400D01*
X50504400Y-132994400D02*
X50504400Y-133054400D01*
X107940800Y-28845200D02*
X109270800Y-28845200D01*
X107940800Y-30175200D02*
X107940800Y-28845200D01*
X107940800Y-31445200D02*
X107940800Y-31505200D01*
X107940800Y-31445200D02*
X110600800Y-31445200D01*
X107940800Y-31505200D02*
X110600800Y-31505200D01*
X110600800Y-31445200D02*
X110600800Y-31505200D01*
X96375664Y-83932000D02*
X96591336Y-83932000D01*
X96375664Y-84652000D02*
X96591336Y-84652000D01*
D10*
X120460000Y-134277600D02*
X128460000Y-134277600D01*
X120460000Y-142277600D02*
X120460000Y-134277600D01*
X128460000Y-134277600D02*
X128460000Y-142277600D01*
X128460000Y-142277600D02*
X120460000Y-142277600D01*
D12*
X120900242Y-31427500D02*
X121374758Y-31427500D01*
X120900242Y-32472500D02*
X121374758Y-32472500D01*
X104983680Y-85456800D02*
X104702520Y-85456800D01*
X104983680Y-86476800D02*
X104702520Y-86476800D01*
X101435456Y-123437487D02*
X101902147Y-123904178D01*
X101435456Y-123437487D02*
X103542635Y-121330309D01*
X103203223Y-125063833D02*
X105253833Y-123013223D01*
X87531500Y-98240764D02*
X87531500Y-98456436D01*
X88251500Y-98240764D02*
X88251500Y-98456436D01*
X47327600Y-101717600D02*
X51427600Y-101717600D01*
X47327600Y-103717600D02*
X47327600Y-101717600D01*
X51427600Y-101717600D02*
X51427600Y-103717600D01*
X51427600Y-103717600D02*
X47327600Y-103717600D01*
X133065000Y-20738748D02*
X133065000Y-21261252D01*
X134535000Y-20738748D02*
X134535000Y-21261252D01*
X93648500Y-94149836D02*
X93648500Y-93934164D01*
X94368500Y-94149836D02*
X94368500Y-93934164D01*
X93681500Y-107856436D02*
X93681500Y-107640764D01*
X94401500Y-107856436D02*
X94401500Y-107640764D01*
X125201805Y-27020058D02*
X125201805Y-26545542D01*
X126246805Y-27020058D02*
X126246805Y-26545542D01*
X54550000Y-60646000D02*
X55880000Y-60646000D01*
X54550000Y-61976000D02*
X54550000Y-60646000D01*
X54550000Y-63246000D02*
X54550000Y-63306000D01*
X54550000Y-63246000D02*
X57210000Y-63246000D01*
X54550000Y-63306000D02*
X57210000Y-63306000D01*
X57210000Y-63246000D02*
X57210000Y-63306000D01*
X114235000Y-107146400D02*
X114235000Y-105816400D01*
X115565000Y-107146400D02*
X114235000Y-107146400D01*
X116835000Y-104486400D02*
X119435000Y-104486400D01*
X116835000Y-107146400D02*
X116835000Y-104486400D01*
X116835000Y-107146400D02*
X119435000Y-107146400D01*
X119435000Y-107146400D02*
X119435000Y-104486400D01*
X79774336Y-82013600D02*
X79558664Y-82013600D01*
X79774336Y-82733600D02*
X79558664Y-82733600D01*
X91723500Y-82874836D02*
X91723500Y-82659164D01*
X92443500Y-82874836D02*
X92443500Y-82659164D01*
X95625664Y-88432000D02*
X95841336Y-88432000D01*
X95625664Y-89152000D02*
X95841336Y-89152000D01*
D10*
X109030000Y-122847600D02*
X117030000Y-122847600D01*
X109030000Y-130847600D02*
X109030000Y-122847600D01*
X117030000Y-122847600D02*
X117030000Y-130847600D01*
X117030000Y-130847600D02*
X109030000Y-130847600D01*
D12*
X95623500Y-82874836D02*
X95623500Y-82659164D01*
X96343500Y-82874836D02*
X96343500Y-82659164D01*
X128757805Y-27020058D02*
X128757805Y-26545542D01*
X129802805Y-27020058D02*
X129802805Y-26545542D01*
X53280000Y-148530000D02*
X54610000Y-148530000D01*
X53280000Y-149860000D02*
X53280000Y-148530000D01*
X53280000Y-151130000D02*
X53280000Y-151190000D01*
X53280000Y-151130000D02*
X55940000Y-151130000D01*
X53280000Y-151190000D02*
X55940000Y-151190000D01*
X55940000Y-151130000D02*
X55940000Y-151190000D01*
X93556500Y-97390764D02*
X93556500Y-97606436D01*
X94276500Y-97390764D02*
X94276500Y-97606436D01*
X121675242Y-29627500D02*
X122149758Y-29627500D01*
X121675242Y-30672500D02*
X122149758Y-30672500D01*
X92606500Y-107756436D02*
X92606500Y-107540764D01*
X93326500Y-107756436D02*
X93326500Y-107540764D01*
D13*
X73401000Y-57400500D02*
X73401000Y-62100500D01*
X73401000Y-62100500D02*
X107701000Y-62100500D01*
X73681000Y-57400500D02*
X73401000Y-57400500D01*
X107701000Y-57400500D02*
X107421000Y-57400500D01*
X107701000Y-62100500D02*
X107701000Y-57400500D01*
D14*
X77401000Y-55850500D02*
G75*
G02*
X77201000Y-55850500I-100000J0D01*
G01*
X77201000Y-55850500D02*
G75*
G02*
X77401000Y-55850500I100000J0D01*
G01*
D12*
X96350664Y-84957000D02*
X96566336Y-84957000D01*
X96350664Y-85677000D02*
X96566336Y-85677000D01*
X116410020Y-78024323D02*
X116410020Y-78624323D01*
X116520020Y-78024323D02*
X116410020Y-78024323D01*
X119285020Y-75434323D02*
X119485020Y-75834323D01*
X119485020Y-75834323D02*
X119685020Y-75434323D01*
X119685020Y-75434323D02*
X119285020Y-75434323D01*
X126950020Y-78024323D02*
X127060020Y-78024323D01*
X127060020Y-78024323D02*
X127060020Y-78624323D01*
X128893600Y-94628600D02*
X130223600Y-94628600D01*
X128893600Y-95958600D02*
X128893600Y-94628600D01*
X128893600Y-97228600D02*
X128893600Y-97288600D01*
X128893600Y-97228600D02*
X131553600Y-97228600D01*
X128893600Y-97288600D02*
X131553600Y-97288600D01*
X131553600Y-97228600D02*
X131553600Y-97288600D01*
X104702520Y-87717400D02*
X104983680Y-87717400D01*
X104702520Y-88737400D02*
X104983680Y-88737400D01*
X120121805Y-27020058D02*
X120121805Y-26545542D01*
X121166805Y-27020058D02*
X121166805Y-26545542D01*
X47152500Y-100012258D02*
X47152500Y-99537742D01*
X48197500Y-100012258D02*
X48197500Y-99537742D01*
%LPC*%
X81026000Y-153416000D02*
X89154000Y-153416000D01*
X89154000Y-161544000D01*
X81026000Y-161544000D01*
X81026000Y-153416000D01*
G36*
X81026000Y-153416000D02*
G01*
X89154000Y-153416000D01*
X89154000Y-161544000D01*
X81026000Y-161544000D01*
X81026000Y-153416000D01*
G37*
X58166000Y-153416000D02*
X66294000Y-153416000D01*
X66294000Y-161544000D01*
X58166000Y-161544000D01*
X58166000Y-153416000D01*
G36*
X58166000Y-153416000D02*
G01*
X66294000Y-153416000D01*
X66294000Y-161544000D01*
X58166000Y-161544000D01*
X58166000Y-153416000D01*
G37*
X69596000Y-141986000D02*
X77724000Y-141986000D01*
X77724000Y-150114000D01*
X69596000Y-150114000D01*
X69596000Y-141986000D01*
G36*
X69596000Y-141986000D02*
G01*
X77724000Y-141986000D01*
X77724000Y-150114000D01*
X69596000Y-150114000D01*
X69596000Y-141986000D01*
G37*
X131826000Y-122783600D02*
X139954000Y-122783600D01*
X139954000Y-130911600D01*
X131826000Y-130911600D01*
X131826000Y-122783600D01*
G36*
X131826000Y-122783600D02*
G01*
X139954000Y-122783600D01*
X139954000Y-130911600D01*
X131826000Y-130911600D01*
X131826000Y-122783600D01*
G37*
X94488000Y-113792000D02*
X102616000Y-113792000D01*
X102616000Y-121920000D01*
X94488000Y-121920000D01*
X94488000Y-113792000D01*
G36*
X94488000Y-113792000D02*
G01*
X102616000Y-113792000D01*
X102616000Y-121920000D01*
X94488000Y-121920000D01*
X94488000Y-113792000D01*
G37*
X69596000Y-164846000D02*
X77724000Y-164846000D01*
X77724000Y-172974000D01*
X69596000Y-172974000D01*
X69596000Y-164846000D01*
G36*
X69596000Y-164846000D02*
G01*
X77724000Y-164846000D01*
X77724000Y-172974000D01*
X69596000Y-172974000D01*
X69596000Y-164846000D01*
G37*
X120396000Y-111353600D02*
X128524000Y-111353600D01*
X128524000Y-119481600D01*
X120396000Y-119481600D01*
X120396000Y-111353600D01*
G36*
X120396000Y-111353600D02*
G01*
X128524000Y-111353600D01*
X128524000Y-119481600D01*
X120396000Y-119481600D01*
X120396000Y-111353600D01*
G37*
X120396000Y-134213600D02*
X128524000Y-134213600D01*
X128524000Y-142341600D01*
X120396000Y-142341600D01*
X120396000Y-134213600D01*
G36*
X120396000Y-134213600D02*
G01*
X128524000Y-134213600D01*
X128524000Y-142341600D01*
X120396000Y-142341600D01*
X120396000Y-134213600D01*
G37*
X108966000Y-122783600D02*
X117094000Y-122783600D01*
X117094000Y-130911600D01*
X108966000Y-130911600D01*
X108966000Y-122783600D01*
G36*
X108966000Y-122783600D02*
G01*
X117094000Y-122783600D01*
X117094000Y-130911600D01*
X108966000Y-130911600D01*
X108966000Y-122783600D01*
G37*
D15*
X76201000Y-59150500D02*
X74701000Y-59150500D01*
X74701000Y-58800500D01*
X73901000Y-58800500D01*
X73901000Y-57000500D01*
X76201000Y-57000500D01*
X76201000Y-59150500D01*
G36*
X76201000Y-59150500D02*
G01*
X74701000Y-59150500D01*
X74701000Y-58800500D01*
X73901000Y-58800500D01*
X73901000Y-57000500D01*
X76201000Y-57000500D01*
X76201000Y-59150500D01*
G37*
X107201000Y-58800500D02*
X106401000Y-58800500D01*
X106401000Y-59150500D01*
X104901000Y-59150500D01*
X104901000Y-57000500D01*
X107201000Y-57000500D01*
X107201000Y-58800500D01*
G36*
X107201000Y-58800500D02*
G01*
X106401000Y-58800500D01*
X106401000Y-59150500D01*
X104901000Y-59150500D01*
X104901000Y-57000500D01*
X107201000Y-57000500D01*
X107201000Y-58800500D01*
G37*
D16*
X95512300Y-24314300D03*
X101292300Y-24314300D03*
D17*
X94082300Y-20664300D03*
D18*
X94082300Y-24844300D03*
D17*
X102722300Y-20664300D03*
D18*
X102722300Y-24844300D03*
D19*
X89883500Y-85172000D03*
X89883500Y-84212000D03*
D20*
X126700000Y-30150000D03*
X125125000Y-30150000D03*
D21*
X139481800Y-44094400D03*
D22*
X136941800Y-44094400D03*
X134401800Y-44094400D03*
D19*
X94458500Y-83247000D03*
X94458500Y-82287000D03*
D23*
X94333500Y-89387000D03*
X94333500Y-90347000D03*
X88866500Y-97868600D03*
X88866500Y-98828600D03*
D24*
X73660000Y-157480000D03*
D19*
X80616500Y-86003600D03*
X80616500Y-85043600D03*
D23*
X80641500Y-86993600D03*
X80641500Y-87953600D03*
D25*
X80146500Y-81323600D03*
X79186500Y-81323600D03*
D26*
X93432132Y-124250660D03*
X94280660Y-123402132D03*
X93007868Y-122129340D03*
X92159340Y-122977868D03*
D27*
X96003500Y-87842000D03*
X96963500Y-87842000D03*
D21*
X137668000Y-39243000D03*
D19*
X94041500Y-106153600D03*
X94041500Y-105193600D03*
D21*
X103550000Y-31450000D03*
D27*
X91903500Y-89417000D03*
X92863500Y-89417000D03*
D21*
X116840000Y-145897600D03*
D19*
X95066500Y-109053600D03*
X95066500Y-108093600D03*
X92883500Y-94872000D03*
X92883500Y-93912000D03*
D28*
X126475000Y-34100000D03*
X126475000Y-33150000D03*
X126475000Y-32200000D03*
X124200000Y-32200000D03*
X124200000Y-34100000D03*
D25*
X89688500Y-87192000D03*
X88728500Y-87192000D03*
D19*
X87891500Y-96853600D03*
X87891500Y-95893600D03*
D29*
X79933800Y-123596400D03*
D30*
X75211800Y-125196400D03*
D29*
X79933800Y-130098800D03*
X75361800Y-130098800D03*
X67056000Y-118059200D03*
X69596000Y-118059200D03*
X72136000Y-118059200D03*
X60909200Y-129540000D03*
X60909200Y-127000000D03*
X60909200Y-124460000D03*
D31*
X64516000Y-120497600D03*
X74650600Y-120497600D03*
X74650600Y-133197600D03*
X64516000Y-133197600D03*
D32*
X123692305Y-26007800D03*
X123692305Y-27557800D03*
X121475000Y-34325000D03*
X121475000Y-35875000D03*
D23*
X91791500Y-107518600D03*
X91791500Y-108478600D03*
D33*
X105617500Y-82512400D03*
X107167500Y-82512400D03*
D24*
X136525000Y-31750000D03*
D34*
X122168305Y-27607800D03*
X122168305Y-25957800D03*
D33*
X105617500Y-80632800D03*
X107167500Y-80632800D03*
D35*
X46900000Y-105675000D03*
X48550000Y-105675000D03*
D34*
X127248305Y-27607800D03*
X127248305Y-25957800D03*
D19*
X92991500Y-106153600D03*
X92991500Y-105193600D03*
X81666500Y-85978600D03*
X81666500Y-85018600D03*
D27*
X81161500Y-82523600D03*
X82121500Y-82523600D03*
D25*
X91188500Y-83217000D03*
X90228500Y-83217000D03*
D36*
X67818000Y-102840000D03*
X67818000Y-104140000D03*
X67818000Y-105440000D03*
D21*
X86500000Y-22300000D03*
D23*
X90808500Y-88912000D03*
X90808500Y-89872000D03*
D37*
X144626400Y-111734600D03*
X138126400Y-111734600D03*
D21*
X85598000Y-173228000D03*
X72898000Y-67056000D03*
X49174400Y-131724400D03*
X109270800Y-30175200D03*
D27*
X96003500Y-84292000D03*
X96963500Y-84292000D03*
D35*
X120312500Y-31950000D03*
X121962500Y-31950000D03*
D38*
X105618100Y-85966800D03*
X104068100Y-85966800D03*
D39*
X102319340Y-123402132D03*
X103167868Y-124250660D03*
X104440660Y-122977868D03*
X103592132Y-122129340D03*
D23*
X87891500Y-97868600D03*
X87891500Y-98828600D03*
D40*
X50677600Y-102717600D03*
X49377600Y-102717600D03*
X48077600Y-102717600D03*
D41*
X133800000Y-20050000D03*
X133800000Y-21950000D03*
D24*
X124460000Y-126847600D03*
D19*
X94008500Y-94522000D03*
X94008500Y-93562000D03*
X94041500Y-108228600D03*
X94041500Y-107268600D03*
D34*
X125724305Y-27607800D03*
X125724305Y-25957800D03*
D21*
X55880000Y-61976000D03*
X115565000Y-105816400D03*
D22*
X118105000Y-105816400D03*
D25*
X80146500Y-82373600D03*
X79186500Y-82373600D03*
D19*
X92083500Y-83247000D03*
X92083500Y-82287000D03*
D27*
X95253500Y-88792000D03*
X96213500Y-88792000D03*
D19*
X95983500Y-83247000D03*
X95983500Y-82287000D03*
D34*
X129280305Y-27607800D03*
X129280305Y-25957800D03*
D21*
X54610000Y-149860000D03*
D24*
X50800000Y-41275000D03*
D23*
X93916500Y-97018600D03*
X93916500Y-97978600D03*
D35*
X121087500Y-30150000D03*
X122737500Y-30150000D03*
D19*
X92966500Y-108128600D03*
X92966500Y-107168600D03*
D42*
X77301000Y-56950500D03*
X77801000Y-56950500D03*
X78301000Y-56950500D03*
X78801000Y-56950500D03*
X79301000Y-56950500D03*
X79801000Y-56950500D03*
X80301000Y-56950500D03*
X80801000Y-56950500D03*
X81301000Y-56950500D03*
X81801000Y-56950500D03*
X82301000Y-56950500D03*
X82801000Y-56950500D03*
X83301000Y-56950500D03*
X83801000Y-56950500D03*
X84301000Y-56950500D03*
X84801000Y-56950500D03*
X85301000Y-56950500D03*
X85801000Y-56950500D03*
X86301000Y-56950500D03*
X86801000Y-56950500D03*
X87301000Y-56950500D03*
X87801000Y-56950500D03*
X88301000Y-56950500D03*
X88801000Y-56950500D03*
X89301000Y-56950500D03*
X89801000Y-56950500D03*
X90301000Y-56950500D03*
X90801000Y-56950500D03*
X91301000Y-56950500D03*
X91801000Y-56950500D03*
X92301000Y-56950500D03*
X92801000Y-56950500D03*
X93301000Y-56950500D03*
X93801000Y-56950500D03*
X94301000Y-56950500D03*
X94801000Y-56950500D03*
X95301000Y-56950500D03*
X95801000Y-56950500D03*
X96301000Y-56950500D03*
X96801000Y-56950500D03*
X97301000Y-56950500D03*
X97801000Y-56950500D03*
X98301000Y-56950500D03*
X98801000Y-56950500D03*
X99301000Y-56950500D03*
X99801000Y-56950500D03*
X100301000Y-56950500D03*
X100801000Y-56950500D03*
X101301000Y-56950500D03*
X101801000Y-56950500D03*
X102301000Y-56950500D03*
X102801000Y-56950500D03*
X103301000Y-56950500D03*
X103801000Y-56950500D03*
D27*
X95978500Y-85317000D03*
X96938500Y-85317000D03*
D43*
X119485020Y-74634323D03*
X119985020Y-74634323D03*
X120485020Y-74634323D03*
X120985020Y-74634323D03*
X121485020Y-74634323D03*
X121985020Y-74634323D03*
X122485020Y-74634323D03*
X122985020Y-74634323D03*
X123485020Y-74634323D03*
X123985020Y-74634323D03*
D44*
X117815020Y-76334323D03*
X125655020Y-76334323D03*
D21*
X130223600Y-95958600D03*
D33*
X104068100Y-88227400D03*
X105618100Y-88227400D03*
D34*
X120644305Y-27607800D03*
X120644305Y-25957800D03*
X47675000Y-100600000D03*
X47675000Y-98950000D03*
D45*
X146725000Y-58400000D03*
X146725000Y-51400000D03*
D46*
X149225000Y-57150000D03*
X149225000Y-52650000D03*
D47*
X52898200Y-51436800D03*
D48*
X51648200Y-51436800D03*
D21*
X119989600Y-167381000D03*
D22*
X119989600Y-164841000D03*
X119989600Y-162301000D03*
X119989600Y-159761000D03*
X119989600Y-157221000D03*
D45*
X146725000Y-42525000D03*
X146725000Y-35525000D03*
D46*
X149225000Y-41275000D03*
X149225000Y-36775000D03*
D21*
X69063000Y-74442000D03*
D22*
X69063000Y-76982000D03*
D49*
X79844888Y-34800000D03*
D50*
X81844888Y-34800000D03*
D49*
X68155113Y-22000000D03*
D50*
X66155113Y-22000000D03*
D51*
X103920500Y-80622600D03*
X103920500Y-82522600D03*
D52*
X102052000Y-168376000D03*
D50*
X99552000Y-168376000D03*
X97552000Y-168376000D03*
X95052000Y-168376000D03*
D53*
X105122000Y-171086000D03*
X91982000Y-171086000D03*
D49*
X68155113Y-28000000D03*
D50*
X66155113Y-28000000D03*
D45*
X144125000Y-24725000D03*
X137125000Y-24725000D03*
D46*
X142875000Y-22225000D03*
X138375000Y-22225000D03*
D21*
X90625000Y-30225000D03*
D22*
X93165000Y-30225000D03*
D54*
X52007500Y-29850000D03*
X54707500Y-28650000D03*
D55*
X57207500Y-21850000D03*
D56*
X61807500Y-25750000D03*
D55*
X61307500Y-33050000D03*
D57*
X49382000Y-169692000D03*
D58*
X49382000Y-172192000D03*
D59*
X50266600Y-64643000D03*
D60*
X50266600Y-66643000D03*
%LPD*%
M02*
