G04 #@! TF.GenerationSoftware,KiCad,Pcbnew,8.0.4*
G04 #@! TF.CreationDate,2025-01-08T21:39:51+00:00*
G04 #@! TF.ProjectId,gk-pcbv3,676b2d70-6362-4763-932e-6b696361645f,rev?*
G04 #@! TF.SameCoordinates,Original*
G04 #@! TF.FileFunction,Soldermask,Bot*
G04 #@! TF.FilePolarity,Negative*
%FSLAX46Y46*%
G04 Gerber Fmt 4.6, Leading zero omitted, Abs format (unit mm)*
G04 Created by KiCad (PCBNEW 8.0.4) date 2025-01-08 21:39:51*
%MOMM*%
%LPD*%
G01*
G04 APERTURE LIST*
G04 Aperture macros list*
%AMRoundRect*
0 Rectangle with rounded corners*
0 $1 Rounding radius*
0 $2 $3 $4 $5 $6 $7 $8 $9 X,Y pos of 4 corners*
0 Add a 4 corners polygon primitive as box body*
4,1,4,$2,$3,$4,$5,$6,$7,$8,$9,$2,$3,0*
0 Add four circle primitives for the rounded corners*
1,1,$1+$1,$2,$3*
1,1,$1+$1,$4,$5*
1,1,$1+$1,$6,$7*
1,1,$1+$1,$8,$9*
0 Add four rect primitives between the rounded corners*
20,1,$1+$1,$2,$3,$4,$5,0*
20,1,$1+$1,$4,$5,$6,$7,0*
20,1,$1+$1,$6,$7,$8,$9,0*
20,1,$1+$1,$8,$9,$2,$3,0*%
%AMFreePoly0*
4,1,13,0.900000,0.500000,2.600000,0.500000,2.600000,-0.500000,0.900000,-0.500000,0.400000,-1.000000,-0.400000,-1.000000,-0.900000,-0.500000,-2.600000,-0.500000,-2.600000,0.500000,-0.900000,0.500000,-0.400000,1.000000,0.400000,1.000000,0.900000,0.500000,0.900000,0.500000,$1*%
G04 Aperture macros list end*
%ADD10C,3.200000*%
%ADD11RoundRect,0.125000X0.600000X0.125000X-0.600000X0.125000X-0.600000X-0.125000X0.600000X-0.125000X0*%
%ADD12R,1.570000X1.890000*%
%ADD13RoundRect,0.062500X-0.375000X-0.062500X0.375000X-0.062500X0.375000X0.062500X-0.375000X0.062500X0*%
%ADD14RoundRect,0.062500X-0.062500X-0.375000X0.062500X-0.375000X0.062500X0.375000X-0.062500X0.375000X0*%
%ADD15R,1.600000X1.600000*%
%ADD16RoundRect,0.250000X-0.600000X-0.750000X0.600000X-0.750000X0.600000X0.750000X-0.600000X0.750000X0*%
%ADD17O,1.700000X2.000000*%
%ADD18R,1.700000X1.700000*%
%ADD19O,1.700000X1.700000*%
%ADD20C,1.800000*%
%ADD21O,2.400000X5.000000*%
%ADD22O,2.300000X1.800000*%
%ADD23C,2.500000*%
%ADD24RoundRect,0.200000X0.200000X0.275000X-0.200000X0.275000X-0.200000X-0.275000X0.200000X-0.275000X0*%
%ADD25RoundRect,0.250000X-0.250000X-0.475000X0.250000X-0.475000X0.250000X0.475000X-0.250000X0.475000X0*%
%ADD26RoundRect,0.225000X0.225000X0.250000X-0.225000X0.250000X-0.225000X-0.250000X0.225000X-0.250000X0*%
%ADD27C,2.200000*%
%ADD28C,1.700000*%
%ADD29RoundRect,0.200000X-0.200000X-0.275000X0.200000X-0.275000X0.200000X0.275000X-0.200000X0.275000X0*%
%ADD30RoundRect,0.225000X0.250000X-0.225000X0.250000X0.225000X-0.250000X0.225000X-0.250000X-0.225000X0*%
%ADD31RoundRect,0.200000X0.200000X0.450000X-0.200000X0.450000X-0.200000X-0.450000X0.200000X-0.450000X0*%
%ADD32O,0.800000X1.300000*%
%ADD33RoundRect,0.218750X0.218750X0.256250X-0.218750X0.256250X-0.218750X-0.256250X0.218750X-0.256250X0*%
%ADD34RoundRect,0.250000X0.450000X0.800000X-0.450000X0.800000X-0.450000X-0.800000X0.450000X-0.800000X0*%
%ADD35RoundRect,0.200000X0.275000X-0.200000X0.275000X0.200000X-0.275000X0.200000X-0.275000X-0.200000X0*%
%ADD36C,0.650000*%
%ADD37R,0.600000X1.450000*%
%ADD38R,0.300000X1.450000*%
%ADD39O,1.000000X1.600000*%
%ADD40O,1.000000X2.100000*%
%ADD41RoundRect,0.225000X-0.225000X-0.250000X0.225000X-0.250000X0.225000X0.250000X-0.225000X0.250000X0*%
%ADD42RoundRect,0.200000X-0.275000X0.200000X-0.275000X-0.200000X0.275000X-0.200000X0.275000X0.200000X0*%
%ADD43C,1.000000*%
%ADD44RoundRect,0.250000X0.475000X-0.250000X0.475000X0.250000X-0.475000X0.250000X-0.475000X-0.250000X0*%
%ADD45RoundRect,0.225000X-0.250000X0.225000X-0.250000X-0.225000X0.250000X-0.225000X0.250000X0.225000X0*%
%ADD46RoundRect,0.250000X0.362500X1.425000X-0.362500X1.425000X-0.362500X-1.425000X0.362500X-1.425000X0*%
%ADD47C,0.500000*%
%ADD48RoundRect,0.062500X-0.062500X0.325000X-0.062500X-0.325000X0.062500X-0.325000X0.062500X0.325000X0*%
%ADD49R,1.200000X0.800000*%
%ADD50RoundRect,0.250000X-0.475000X0.250000X-0.475000X-0.250000X0.475000X-0.250000X0.475000X0.250000X0*%
%ADD51RoundRect,0.150000X0.150000X-0.825000X0.150000X0.825000X-0.150000X0.825000X-0.150000X-0.825000X0*%
%ADD52R,1.150000X1.400000*%
%ADD53R,0.980000X3.400000*%
%ADD54R,3.000000X3.000000*%
%ADD55C,3.000000*%
%ADD56R,5.100000X5.100000*%
%ADD57C,17.800000*%
%ADD58C,1.600000*%
%ADD59RoundRect,0.218750X-0.218750X-0.256250X0.218750X-0.256250X0.218750X0.256250X-0.218750X0.256250X0*%
%ADD60RoundRect,0.150000X0.587500X0.150000X-0.587500X0.150000X-0.587500X-0.150000X0.587500X-0.150000X0*%
%ADD61R,0.812800X0.254000*%
%ADD62R,0.812800X0.250000*%
%ADD63R,0.254000X0.812800*%
%ADD64R,4.191000X4.191000*%
%ADD65R,1.400000X1.150000*%
%ADD66RoundRect,0.150000X-0.512500X-0.150000X0.512500X-0.150000X0.512500X0.150000X-0.512500X0.150000X0*%
%ADD67RoundRect,0.100000X0.225000X0.100000X-0.225000X0.100000X-0.225000X-0.100000X0.225000X-0.100000X0*%
%ADD68R,3.400000X0.980000*%
%ADD69R,2.400000X0.740000*%
%ADD70R,1.676400X0.355600*%
%ADD71R,6.500000X2.200000*%
%ADD72R,1.600000X1.500000*%
%ADD73R,1.879600X0.812800*%
%ADD74R,0.812800X1.879600*%
%ADD75R,4.394200X4.394200*%
%ADD76R,1.000000X1.500000*%
%ADD77R,1.200000X0.400000*%
%ADD78RoundRect,0.175000X-0.175000X0.575000X-0.175000X-0.575000X0.175000X-0.575000X0.175000X0.575000X0*%
%ADD79FreePoly0,270.000000*%
%ADD80RoundRect,0.150000X-0.150000X0.587500X-0.150000X-0.587500X0.150000X-0.587500X0.150000X0.587500X0*%
%ADD81RoundRect,0.087500X0.225000X0.087500X-0.225000X0.087500X-0.225000X-0.087500X0.225000X-0.087500X0*%
%ADD82RoundRect,0.087500X0.087500X0.225000X-0.087500X0.225000X-0.087500X-0.225000X0.087500X-0.225000X0*%
%ADD83RoundRect,0.150000X0.512500X0.150000X-0.512500X0.150000X-0.512500X-0.150000X0.512500X-0.150000X0*%
%ADD84RoundRect,0.150000X-0.150000X0.512500X-0.150000X-0.512500X0.150000X-0.512500X0.150000X0.512500X0*%
%ADD85RoundRect,0.250000X0.250000X0.475000X-0.250000X0.475000X-0.250000X-0.475000X0.250000X-0.475000X0*%
%ADD86RoundRect,0.100000X-0.100000X0.712500X-0.100000X-0.712500X0.100000X-0.712500X0.100000X0.712500X0*%
%ADD87RoundRect,0.250000X-0.325000X-0.650000X0.325000X-0.650000X0.325000X0.650000X-0.325000X0.650000X0*%
%ADD88R,2.200000X1.500000*%
%ADD89R,0.850000X1.100000*%
%ADD90R,0.750000X1.100000*%
%ADD91R,1.200000X1.000000*%
%ADD92R,1.550000X1.350000*%
%ADD93R,1.900000X1.350000*%
%ADD94R,1.170000X1.800000*%
%ADD95RoundRect,0.250000X0.325000X0.650000X-0.325000X0.650000X-0.325000X-0.650000X0.325000X-0.650000X0*%
%ADD96RoundRect,0.150000X0.725000X0.150000X-0.725000X0.150000X-0.725000X-0.150000X0.725000X-0.150000X0*%
%ADD97C,0.330200*%
%ADD98O,2.200000X4.000000*%
%ADD99O,4.000000X2.200000*%
%ADD100R,2.200000X4.000000*%
%ADD101RoundRect,0.250000X0.625000X-0.350000X0.625000X0.350000X-0.625000X0.350000X-0.625000X-0.350000X0*%
%ADD102O,1.750000X1.200000*%
G04 APERTURE END LIST*
D10*
X73660000Y-157480000D03*
X136525000Y-31750000D03*
D11*
X76750000Y-22825000D03*
X76750000Y-23475000D03*
X76750000Y-24125000D03*
X76750000Y-24775000D03*
X72450000Y-24775000D03*
X72450000Y-24125000D03*
X72450000Y-23475000D03*
X72450000Y-22825000D03*
D12*
X74600000Y-23800000D03*
D13*
X57744500Y-63996000D03*
X57744500Y-63496000D03*
X57744500Y-62996000D03*
X57744500Y-62496000D03*
D14*
X58432000Y-61808500D03*
X58932000Y-61808500D03*
X59432000Y-61808500D03*
X59932000Y-61808500D03*
D13*
X60619500Y-62496000D03*
X60619500Y-62996000D03*
X60619500Y-63496000D03*
X60619500Y-63996000D03*
D14*
X59932000Y-64683500D03*
X59432000Y-64683500D03*
X58932000Y-64683500D03*
X58432000Y-64683500D03*
D15*
X59182000Y-63246000D03*
D16*
X53614000Y-71103000D03*
D17*
X56114000Y-71103000D03*
D18*
X139481800Y-44094400D03*
D19*
X136941800Y-44094400D03*
X134401800Y-44094400D03*
D18*
X137668000Y-39243000D03*
X103550000Y-31450000D03*
X116840000Y-145897600D03*
D20*
X79933800Y-123596400D03*
D21*
X75211800Y-125196400D03*
D20*
X79933800Y-130098800D03*
X75361800Y-130098800D03*
X67056000Y-118059200D03*
X69596000Y-118059200D03*
X72136000Y-118059200D03*
X60909200Y-129540000D03*
X60909200Y-127000000D03*
X60909200Y-124460000D03*
D22*
X64516000Y-120497600D03*
X74650600Y-120497600D03*
X74650600Y-133197600D03*
X64516000Y-133197600D03*
D18*
X86500000Y-22300000D03*
D23*
X121004400Y-40633000D03*
X114504400Y-40633000D03*
D18*
X85598000Y-173228000D03*
X72898000Y-67056000D03*
X49174400Y-131724400D03*
X109270800Y-30175200D03*
D10*
X124460000Y-126847600D03*
D18*
X54610000Y-60198000D03*
X118359000Y-102108000D03*
D19*
X120899000Y-102108000D03*
D18*
X54610000Y-149860000D03*
D10*
X50800000Y-41275000D03*
D24*
X66763400Y-147193000D03*
X65113400Y-147193000D03*
X89382600Y-121513600D03*
X87732600Y-121513600D03*
D25*
X63312000Y-77470000D03*
X65212000Y-77470000D03*
D26*
X69101000Y-120650000D03*
X67551000Y-120650000D03*
D27*
X146725000Y-58400000D03*
X146725000Y-51400000D03*
D28*
X149225000Y-57150000D03*
X149225000Y-52650000D03*
D29*
X72375000Y-33000000D03*
X74025000Y-33000000D03*
D30*
X139700000Y-148857000D03*
X139700000Y-147307000D03*
D24*
X149669000Y-32004000D03*
X148019000Y-32004000D03*
D31*
X52898200Y-51436800D03*
D32*
X51648200Y-51436800D03*
D33*
X56329899Y-92829599D03*
X54754899Y-92829599D03*
D34*
X65700000Y-91948000D03*
X61300000Y-91948000D03*
D29*
X84773000Y-127430000D03*
X86423000Y-127430000D03*
D35*
X68834000Y-50609000D03*
X68834000Y-48959000D03*
D36*
X95512300Y-24314300D03*
X101292300Y-24314300D03*
D37*
X95152300Y-25759300D03*
X95952300Y-25759300D03*
D38*
X97152300Y-25759300D03*
X98152300Y-25759300D03*
X98652300Y-25759300D03*
X99652300Y-25759300D03*
D37*
X100852300Y-25759300D03*
X101652300Y-25759300D03*
X101652300Y-25759300D03*
X100852300Y-25759300D03*
D38*
X100152300Y-25759300D03*
X99152300Y-25759300D03*
X97652300Y-25759300D03*
X96652300Y-25759300D03*
D37*
X95952300Y-25759300D03*
X95152300Y-25759300D03*
D39*
X94082300Y-20664300D03*
D40*
X94082300Y-24844300D03*
D39*
X102722300Y-20664300D03*
D40*
X102722300Y-24844300D03*
D26*
X81724800Y-166268400D03*
X80174800Y-166268400D03*
D24*
X143928600Y-130784600D03*
X142278600Y-130784600D03*
D18*
X119989600Y-167381000D03*
D19*
X119989600Y-164841000D03*
X119989600Y-162301000D03*
X119989600Y-159761000D03*
X119989600Y-157221000D03*
D24*
X132549400Y-119303800D03*
X130899400Y-119303800D03*
D41*
X148200000Y-25324000D03*
X149750000Y-25324000D03*
D29*
X71565000Y-111252000D03*
X73215000Y-111252000D03*
D35*
X68072000Y-76391000D03*
X68072000Y-78041000D03*
D24*
X56095400Y-46532800D03*
X54445400Y-46532800D03*
D41*
X92189000Y-153416000D03*
X93739000Y-153416000D03*
D42*
X99060000Y-128969000D03*
X99060000Y-130619000D03*
D24*
X73215000Y-109474000D03*
X71565000Y-109474000D03*
D35*
X72136000Y-47053000D03*
X72136000Y-45403000D03*
D24*
X84425000Y-26000000D03*
X82775000Y-26000000D03*
D43*
X81788000Y-50292000D03*
D27*
X146725000Y-42525000D03*
X146725000Y-35525000D03*
D28*
X149225000Y-41275000D03*
X149225000Y-36775000D03*
D42*
X96012000Y-128969000D03*
X96012000Y-130619000D03*
D18*
X69850000Y-70353000D03*
D19*
X69850000Y-72893000D03*
D24*
X81774800Y-169316400D03*
X80124800Y-169316400D03*
D26*
X131585000Y-98298000D03*
X130035000Y-98298000D03*
D35*
X65753199Y-111269999D03*
X65753199Y-109619999D03*
D24*
X56418199Y-91051599D03*
X54768199Y-91051599D03*
D44*
X127508000Y-157160000D03*
X127508000Y-155260000D03*
D24*
X131635000Y-101854000D03*
X129985000Y-101854000D03*
D30*
X76000000Y-32975000D03*
X76000000Y-31425000D03*
D35*
X55626000Y-66611000D03*
X55626000Y-64961000D03*
D45*
X57150000Y-127876000D03*
X57150000Y-129426000D03*
D46*
X66716500Y-87884000D03*
X60791500Y-87884000D03*
D47*
X77646500Y-84827600D03*
X77646500Y-85827600D03*
X77646500Y-86827600D03*
X77646500Y-87827600D03*
X78646500Y-83827600D03*
X78646500Y-84827600D03*
X78646500Y-85827600D03*
X78646500Y-86827600D03*
X78646500Y-87827600D03*
X79646500Y-83827600D03*
X79646500Y-84827600D03*
X79646500Y-85827600D03*
X79646500Y-86827600D03*
X79646500Y-87827600D03*
X80646500Y-83827600D03*
X80646500Y-84827600D03*
X80646500Y-85827600D03*
X80646500Y-86827600D03*
X80646500Y-87827600D03*
X81646500Y-83827600D03*
X81646500Y-84827600D03*
X81646500Y-85827600D03*
X81646500Y-86827600D03*
X81646500Y-87827600D03*
D26*
X85407800Y-47040800D03*
X83857800Y-47040800D03*
D25*
X79050000Y-29600000D03*
X80950000Y-29600000D03*
D35*
X71628000Y-61023000D03*
X71628000Y-59373000D03*
D26*
X66307000Y-36576000D03*
X64757000Y-36576000D03*
D24*
X114667800Y-140309600D03*
X113017800Y-140309600D03*
X149800000Y-23800000D03*
X148150000Y-23800000D03*
X96303600Y-44246800D03*
X94653600Y-44246800D03*
X128841000Y-168910000D03*
X127191000Y-168910000D03*
D29*
X57341000Y-67056000D03*
X58991000Y-67056000D03*
D48*
X47814800Y-70716700D03*
X48314800Y-70716700D03*
X48814800Y-70716700D03*
X49314800Y-70716700D03*
X49314800Y-72691700D03*
X48814800Y-72691700D03*
X48314800Y-72691700D03*
X47814800Y-72691700D03*
D49*
X48564800Y-71704200D03*
D29*
X141415000Y-37084000D03*
X143065000Y-37084000D03*
D35*
X119888000Y-106489000D03*
X119888000Y-104839000D03*
D29*
X59627000Y-58928000D03*
X61277000Y-58928000D03*
D45*
X81000000Y-26225000D03*
X81000000Y-27775000D03*
D29*
X148019000Y-62992000D03*
X149669000Y-62992000D03*
D42*
X64483199Y-101199399D03*
X64483199Y-102849399D03*
D43*
X136169400Y-47345600D03*
D50*
X54881999Y-108643599D03*
X54881999Y-110543599D03*
D51*
X99949000Y-139076200D03*
X98679000Y-139076200D03*
X97409000Y-139076200D03*
X96139000Y-139076200D03*
X94869000Y-139076200D03*
X93599000Y-139076200D03*
X92329000Y-139076200D03*
X91059000Y-139076200D03*
X91059000Y-134126200D03*
X92329000Y-134126200D03*
X93599000Y-134126200D03*
X94869000Y-134126200D03*
X96139000Y-134126200D03*
X97409000Y-134126200D03*
X98679000Y-134126200D03*
X99949000Y-134126200D03*
D52*
X104068500Y-88209800D03*
X104068500Y-86009800D03*
X105668500Y-86009800D03*
X105668500Y-88209800D03*
D29*
X148019000Y-30480000D03*
X149669000Y-30480000D03*
D53*
X56011000Y-164529000D03*
X53641000Y-164529000D03*
D24*
X74025000Y-31200000D03*
X72375000Y-31200000D03*
D54*
X82042000Y-117094000D03*
D55*
X82042000Y-112014000D03*
X82042000Y-106934000D03*
D47*
X90508100Y-100260400D03*
X91508100Y-100260400D03*
X92508100Y-100260400D03*
X93508100Y-100260400D03*
X89508100Y-99260400D03*
X90508100Y-99260400D03*
X91508100Y-99260400D03*
X92508100Y-99260400D03*
X93508100Y-99260400D03*
X89508100Y-98260400D03*
X90508100Y-98260400D03*
X91508100Y-98260400D03*
X92508100Y-98260400D03*
X93508100Y-98260400D03*
X89508100Y-97260400D03*
X90508100Y-97260400D03*
X91508100Y-97260400D03*
X92508100Y-97260400D03*
X93508100Y-97260400D03*
X89508100Y-96260400D03*
X90508100Y-96260400D03*
X91508100Y-96260400D03*
X92508100Y-96260400D03*
X93508100Y-96260400D03*
D29*
X87732600Y-119989600D03*
X89382600Y-119989600D03*
D24*
X65087000Y-64516000D03*
X63437000Y-64516000D03*
D29*
X106213300Y-23847900D03*
X107863300Y-23847900D03*
D56*
X141757400Y-93953000D03*
X141757400Y-68353000D03*
D57*
X141757400Y-81153000D03*
D15*
X79844888Y-34800000D03*
D58*
X81844888Y-34800000D03*
D35*
X141478000Y-148907000D03*
X141478000Y-147257000D03*
D59*
X102082500Y-157480000D03*
X103657500Y-157480000D03*
D24*
X107837900Y-21968300D03*
X106187900Y-21968300D03*
D60*
X145209500Y-27752000D03*
X145209500Y-29652000D03*
X143334500Y-28702000D03*
D50*
X53594000Y-62804000D03*
X53594000Y-64704000D03*
D25*
X60942399Y-103700799D03*
X62842399Y-103700799D03*
D29*
X54801000Y-171704000D03*
X56451000Y-171704000D03*
D26*
X127788000Y-53848000D03*
X126238000Y-53848000D03*
D61*
X58234799Y-100536398D03*
X58234799Y-101036400D03*
X58234799Y-101536399D03*
X58234799Y-102036398D03*
X58234799Y-102536399D03*
X58234799Y-103036399D03*
X58234799Y-103536400D03*
X58234799Y-104036399D03*
D62*
X58234799Y-104536398D03*
D61*
X58234799Y-105036400D03*
D63*
X57538400Y-105732799D03*
X57038398Y-105732799D03*
X56538399Y-105732799D03*
X56038400Y-105732799D03*
X55538399Y-105732799D03*
X55038399Y-105732799D03*
X54538398Y-105732799D03*
X54038399Y-105732799D03*
X53538400Y-105732799D03*
X53038398Y-105732799D03*
D61*
X52341999Y-105036400D03*
X52341999Y-104536398D03*
X52341999Y-104036399D03*
X52341999Y-103536400D03*
X52341999Y-103036399D03*
X52341999Y-102536399D03*
X52341999Y-102036398D03*
X52341999Y-101536399D03*
X52341999Y-101036400D03*
X52341999Y-100536398D03*
D63*
X53038398Y-99839999D03*
X53538400Y-99839999D03*
X54038399Y-99839999D03*
X54538398Y-99839999D03*
X55038399Y-99839999D03*
X55538399Y-99839999D03*
X56038400Y-99839999D03*
X56538399Y-99839999D03*
X57038398Y-99839999D03*
X57538400Y-99839999D03*
D64*
X55288399Y-102786399D03*
D42*
X100584000Y-128969000D03*
X100584000Y-130619000D03*
D65*
X132758000Y-58001000D03*
X134958000Y-58001000D03*
X134958000Y-59601000D03*
X132758000Y-59601000D03*
D29*
X148150000Y-22276000D03*
X149800000Y-22276000D03*
D66*
X102748500Y-161478000D03*
X102748500Y-160528000D03*
X102748500Y-159578000D03*
X105023500Y-159578000D03*
X105023500Y-161478000D03*
D67*
X85913000Y-49007000D03*
X85913000Y-49657000D03*
X85913000Y-50307000D03*
X84013000Y-50307000D03*
X84013000Y-49657000D03*
X84013000Y-49007000D03*
D24*
X84425000Y-27800000D03*
X82775000Y-27800000D03*
D30*
X86400000Y-29575000D03*
X86400000Y-28025000D03*
D42*
X92964000Y-128969000D03*
X92964000Y-130619000D03*
D68*
X50614799Y-110863599D03*
X50614799Y-108493599D03*
D24*
X74025000Y-29400000D03*
X72375000Y-29400000D03*
D45*
X128016000Y-49771000D03*
X128016000Y-51321000D03*
D29*
X92139000Y-150368000D03*
X93789000Y-150368000D03*
D43*
X46761400Y-120573800D03*
D30*
X129794000Y-156985000D03*
X129794000Y-155435000D03*
D45*
X70800000Y-29625000D03*
X70800000Y-31175000D03*
D24*
X132905000Y-142697200D03*
X131255000Y-142697200D03*
D43*
X144780000Y-143764000D03*
D29*
X129985000Y-100076000D03*
X131635000Y-100076000D03*
D41*
X61709000Y-40741600D03*
X63259000Y-40741600D03*
D50*
X56964799Y-108643599D03*
X56964799Y-110543599D03*
D24*
X71691000Y-63500000D03*
X70041000Y-63500000D03*
D29*
X94653600Y-42697400D03*
X96303600Y-42697400D03*
D42*
X47211199Y-93020599D03*
X47211199Y-94670599D03*
D29*
X84773000Y-129130000D03*
X86423000Y-129130000D03*
D15*
X68155113Y-22000000D03*
D58*
X66155113Y-22000000D03*
D25*
X72202000Y-49022000D03*
X74102000Y-49022000D03*
D26*
X55308800Y-155524200D03*
X53758800Y-155524200D03*
D29*
X51576000Y-171704000D03*
X53226000Y-171704000D03*
D35*
X46957199Y-107857099D03*
X46957199Y-106207099D03*
D29*
X53708800Y-157048200D03*
X55358800Y-157048200D03*
D69*
X129077000Y-64389000D03*
X125177000Y-64389000D03*
X129077000Y-65659000D03*
X125177000Y-65659000D03*
X129077000Y-66929000D03*
X125177000Y-66929000D03*
X129077000Y-68199000D03*
X125177000Y-68199000D03*
X129077000Y-69469000D03*
X125177000Y-69469000D03*
D70*
X131038600Y-54782001D03*
X131038600Y-54132000D03*
X131038600Y-53481999D03*
X131038600Y-52832000D03*
X131038600Y-52182001D03*
X131038600Y-51532000D03*
X131038600Y-50882001D03*
X136677400Y-50881999D03*
X136677400Y-51532000D03*
X136677400Y-52181999D03*
X136677400Y-52832000D03*
X136677400Y-53481999D03*
X136677400Y-54132000D03*
X136677400Y-54781999D03*
D43*
X103920500Y-80622600D03*
X103920500Y-82522600D03*
D71*
X109670500Y-81572600D03*
D41*
X51676000Y-173429000D03*
X53226000Y-173429000D03*
D25*
X68650000Y-33000000D03*
X70550000Y-33000000D03*
D72*
X102052000Y-168376000D03*
D58*
X99552000Y-168376000D03*
X97552000Y-168376000D03*
X95052000Y-168376000D03*
D55*
X105122000Y-171086000D03*
X91982000Y-171086000D03*
D26*
X146063000Y-61468000D03*
X144513000Y-61468000D03*
D24*
X149669000Y-61468000D03*
X148019000Y-61468000D03*
D42*
X47211199Y-96068599D03*
X47211199Y-97718599D03*
D15*
X68155113Y-28000000D03*
D58*
X66155113Y-28000000D03*
D26*
X132499400Y-116285800D03*
X130949400Y-116285800D03*
D29*
X131255000Y-141173200D03*
X132905000Y-141173200D03*
D27*
X144125000Y-24725000D03*
X137125000Y-24725000D03*
D28*
X142875000Y-22225000D03*
X138375000Y-22225000D03*
D24*
X93789000Y-151892000D03*
X92139000Y-151892000D03*
D68*
X62247999Y-110778599D03*
X62247999Y-108408599D03*
D73*
X134112000Y-170026660D03*
X134112000Y-168822700D03*
X134112000Y-167618740D03*
X134112000Y-166414780D03*
X134112000Y-165210820D03*
X134112000Y-164006860D03*
X134112000Y-162802900D03*
X134112000Y-161598940D03*
X134112000Y-160394980D03*
X134112000Y-159191020D03*
X134112000Y-157987060D03*
X134112000Y-156783100D03*
X134112000Y-155579140D03*
D74*
X135455700Y-153593800D03*
X136659660Y-153593800D03*
X137863620Y-153593800D03*
X139067580Y-153593800D03*
X140271540Y-153593800D03*
X141475500Y-153593800D03*
X142679460Y-153593800D03*
X143883420Y-153593800D03*
X145087380Y-153593800D03*
X146291340Y-153593800D03*
X147495300Y-153593800D03*
D73*
X148844000Y-155579140D03*
X148844000Y-156783100D03*
X148844000Y-157987060D03*
X148844000Y-159191020D03*
X148844000Y-160394980D03*
X148844000Y-161598940D03*
X148844000Y-162802900D03*
X148844000Y-164006860D03*
X148844000Y-165210820D03*
X148844000Y-166414780D03*
X148844000Y-167618740D03*
X148844000Y-168822700D03*
D75*
X141430000Y-161921900D03*
D30*
X95478600Y-119367600D03*
X95478600Y-117817600D03*
D42*
X59690000Y-170117000D03*
X59690000Y-171767000D03*
D54*
X114808000Y-117094000D03*
D55*
X114808000Y-112014000D03*
X114808000Y-106934000D03*
D76*
X62372000Y-70612000D03*
X61072000Y-70612000D03*
D77*
X70425000Y-40322500D03*
X70425000Y-39687500D03*
X70425000Y-39052500D03*
X70425000Y-38417500D03*
X70425000Y-37782500D03*
X70425000Y-37147500D03*
X70425000Y-36512500D03*
X70425000Y-35877500D03*
X75625000Y-35877500D03*
X75625000Y-36512500D03*
X75625000Y-37147500D03*
X75625000Y-37782500D03*
X75625000Y-38417500D03*
X75625000Y-39052500D03*
X75625000Y-39687500D03*
X75625000Y-40322500D03*
D29*
X65113400Y-145669000D03*
X66763400Y-145669000D03*
D24*
X129095000Y-163068000D03*
X127445000Y-163068000D03*
D78*
X63270000Y-80192000D03*
D79*
X64770000Y-82042000D03*
D78*
X66270000Y-80192000D03*
X66270000Y-83892000D03*
X63270000Y-83892000D03*
D44*
X54526399Y-97386399D03*
X54526399Y-95486399D03*
D42*
X94488000Y-128969000D03*
X94488000Y-130619000D03*
D24*
X55358800Y-158572200D03*
X53708800Y-158572200D03*
D25*
X75050000Y-20600000D03*
X76950000Y-20600000D03*
D80*
X67376000Y-58752500D03*
X69276000Y-58752500D03*
X68326000Y-60627500D03*
D81*
X99562100Y-120509600D03*
X99562100Y-121009600D03*
X99562100Y-121509600D03*
X99562100Y-122009600D03*
D82*
X98899600Y-122172100D03*
X98399600Y-122172100D03*
X97899600Y-122172100D03*
D81*
X97237100Y-122009600D03*
X97237100Y-121509600D03*
X97237100Y-121009600D03*
X97237100Y-120509600D03*
D82*
X97899600Y-120347100D03*
X98399600Y-120347100D03*
X98899600Y-120347100D03*
D29*
X113017800Y-138785600D03*
X114667800Y-138785600D03*
D35*
X121920000Y-106489000D03*
X121920000Y-104839000D03*
D83*
X55163500Y-167979000D03*
X55163500Y-168929000D03*
X55163500Y-169879000D03*
X52888500Y-169879000D03*
X52888500Y-168929000D03*
X52888500Y-167979000D03*
D26*
X86373000Y-125730000D03*
X84823000Y-125730000D03*
D84*
X98110000Y-159644500D03*
X99060000Y-159644500D03*
X100010000Y-159644500D03*
X100010000Y-161919500D03*
X99060000Y-161919500D03*
X98110000Y-161919500D03*
D41*
X58051400Y-40741600D03*
X59601400Y-40741600D03*
D26*
X66713400Y-144145000D03*
X65163400Y-144145000D03*
D43*
X47414399Y-85438199D03*
D25*
X71694000Y-43434000D03*
X73594000Y-43434000D03*
D85*
X50497999Y-101719599D03*
X48597999Y-101719599D03*
D29*
X82775000Y-29600000D03*
X84425000Y-29600000D03*
D30*
X67429599Y-111232199D03*
X67429599Y-109682199D03*
D43*
X96774000Y-51816000D03*
D86*
X58969000Y-44267900D03*
X59619000Y-44267900D03*
X60269000Y-44267900D03*
X60919000Y-44267900D03*
X60919000Y-48492900D03*
X60269000Y-48492900D03*
X59619000Y-48492900D03*
X58969000Y-48492900D03*
D29*
X125540000Y-60071000D03*
X127190000Y-60071000D03*
D87*
X50663799Y-113742599D03*
X53613799Y-113742599D03*
D35*
X128676400Y-78244200D03*
X128676400Y-76594200D03*
D88*
X57404000Y-77826000D03*
X57404000Y-84226000D03*
D50*
X50601000Y-164329000D03*
X50601000Y-166229000D03*
D42*
X64483199Y-104348999D03*
X64483199Y-105998999D03*
X97536000Y-128969000D03*
X97536000Y-130619000D03*
D43*
X55626000Y-57150000D03*
D35*
X46957199Y-110905099D03*
X46957199Y-109255099D03*
D44*
X61638399Y-101907599D03*
X61638399Y-100007599D03*
D68*
X50767199Y-93676599D03*
X50767199Y-96046599D03*
D35*
X66413599Y-108081799D03*
X66413599Y-106431799D03*
D44*
X137414000Y-149032000D03*
X137414000Y-147132000D03*
D80*
X64836000Y-53164500D03*
X66736000Y-53164500D03*
X65786000Y-55039500D03*
D50*
X49501000Y-168954000D03*
X49501000Y-170854000D03*
D26*
X146063000Y-32004000D03*
X144513000Y-32004000D03*
D42*
X61264800Y-36767000D03*
X61264800Y-38417000D03*
D89*
X128448305Y-22983800D03*
X127348305Y-22983800D03*
X126248305Y-22983800D03*
X125148305Y-22983800D03*
X124048305Y-22983800D03*
X122948305Y-22983800D03*
X121848305Y-22983800D03*
D90*
X120798305Y-22983800D03*
D91*
X131083305Y-29133800D03*
X131083305Y-32833800D03*
D92*
X130908305Y-23108800D03*
D93*
X127583305Y-33808800D03*
X121613305Y-33808800D03*
D94*
X119588305Y-23333800D03*
D95*
X52292999Y-90543599D03*
X49342999Y-90543599D03*
D47*
X89473500Y-107072000D03*
X89473500Y-108072000D03*
X89473500Y-109072000D03*
X89473500Y-110072000D03*
X90473500Y-106072000D03*
X90473500Y-107072000D03*
X90473500Y-108072000D03*
X90473500Y-109072000D03*
X90473500Y-110072000D03*
X91473500Y-106072000D03*
X91473500Y-107072000D03*
X91473500Y-108072000D03*
X91473500Y-109072000D03*
X91473500Y-110072000D03*
X92473500Y-106072000D03*
X92473500Y-107072000D03*
X92473500Y-108072000D03*
X92473500Y-109072000D03*
X92473500Y-110072000D03*
X93473500Y-106072000D03*
X93473500Y-107072000D03*
X93473500Y-108072000D03*
X93473500Y-109072000D03*
X93473500Y-110072000D03*
D95*
X61690999Y-113657599D03*
X58740999Y-113657599D03*
D29*
X142278600Y-129260600D03*
X143928600Y-129260600D03*
D84*
X97452300Y-31244800D03*
X98402300Y-31244800D03*
X99352300Y-31244800D03*
X99352300Y-33519800D03*
X98402300Y-33519800D03*
X97452300Y-33519800D03*
D26*
X89332600Y-118465600D03*
X87782600Y-118465600D03*
X48697399Y-113149599D03*
X47147399Y-113149599D03*
D29*
X80124800Y-167792400D03*
X81774800Y-167792400D03*
D26*
X143878600Y-127736600D03*
X142328600Y-127736600D03*
D35*
X65252600Y-70344800D03*
X65252600Y-68694800D03*
D85*
X65974000Y-94996000D03*
X64074000Y-94996000D03*
X60843200Y-52273200D03*
X58943200Y-52273200D03*
D29*
X105347000Y-157480000D03*
X106997000Y-157480000D03*
D26*
X114617800Y-137261600D03*
X113067800Y-137261600D03*
D45*
X96469200Y-48120000D03*
X96469200Y-49670000D03*
D96*
X94015000Y-46990000D03*
X94015000Y-48260000D03*
X94015000Y-49530000D03*
X94015000Y-50800000D03*
X88865000Y-50800000D03*
X88865000Y-49530000D03*
X88865000Y-48260000D03*
X88865000Y-46990000D03*
D97*
X99216499Y-79973601D03*
X98416499Y-79973601D03*
X97616500Y-79973601D03*
X96816500Y-79973601D03*
X96016500Y-79973601D03*
X95216500Y-79973601D03*
X94416500Y-79973601D03*
X93616500Y-79973601D03*
X92816500Y-79973601D03*
X92016500Y-79973601D03*
X91216500Y-79973601D03*
X90416500Y-79973601D03*
X89616500Y-79973601D03*
X88816501Y-79973601D03*
X88016501Y-79973601D03*
X99216499Y-80773601D03*
X98416499Y-80773601D03*
X97616500Y-80773601D03*
X96816500Y-80773601D03*
X96016500Y-80773601D03*
X95216500Y-80773601D03*
X94416500Y-80773601D03*
X93616500Y-80773601D03*
X92816500Y-80773601D03*
X92016500Y-80773601D03*
X91216500Y-80773601D03*
X90416500Y-80773601D03*
X89616500Y-80773601D03*
X88816501Y-80773601D03*
X88016501Y-80773601D03*
X99216499Y-81573600D03*
X98416499Y-81573600D03*
X97616500Y-81573600D03*
X96816500Y-81573600D03*
X96016500Y-81573600D03*
X95216500Y-81573600D03*
X94416500Y-81573600D03*
X93616500Y-81573600D03*
X92816500Y-81573600D03*
X92016500Y-81573600D03*
X91216500Y-81573600D03*
X90416500Y-81573600D03*
X89616500Y-81573600D03*
X88816501Y-81573600D03*
X88016501Y-81573600D03*
X99216499Y-82373600D03*
X98416499Y-82373600D03*
X97616500Y-82373600D03*
X96816500Y-82373600D03*
X96016500Y-82373600D03*
X95216500Y-82373600D03*
X94416500Y-82373600D03*
X93616500Y-82373600D03*
X92816500Y-82373600D03*
X92016500Y-82373600D03*
X91216500Y-82373600D03*
X90416500Y-82373600D03*
X89616500Y-82373600D03*
X88816501Y-82373600D03*
X88016501Y-82373600D03*
X99216499Y-83173600D03*
X98416499Y-83173600D03*
X97616500Y-83173600D03*
X96816500Y-83173600D03*
X96016500Y-83173600D03*
X95216500Y-83173600D03*
X94416500Y-83173600D03*
X93616500Y-83173600D03*
X92816500Y-83173600D03*
X92016500Y-83173600D03*
X91216500Y-83173600D03*
X90416500Y-83173600D03*
X89616500Y-83173600D03*
X88816501Y-83173600D03*
X88016501Y-83173600D03*
X99216499Y-83973600D03*
X98416499Y-83973600D03*
X97616500Y-83973600D03*
X96816500Y-83973600D03*
X96016500Y-83973600D03*
X95216500Y-83973600D03*
X94416500Y-83973600D03*
X93616500Y-83973600D03*
X92816500Y-83973600D03*
X92016500Y-83973600D03*
X91216500Y-83973600D03*
X90416500Y-83973600D03*
X89616500Y-83973600D03*
X88816501Y-83973600D03*
X88016501Y-83973600D03*
X99216499Y-84773600D03*
X98416499Y-84773600D03*
X97616500Y-84773600D03*
X96816500Y-84773600D03*
X96016500Y-84773600D03*
X95216500Y-84773600D03*
X94416500Y-84773600D03*
X93616500Y-84773600D03*
X92816500Y-84773600D03*
X92016500Y-84773600D03*
X91216500Y-84773600D03*
X90416500Y-84773600D03*
X89616500Y-84773600D03*
X88816501Y-84773600D03*
X88016501Y-84773600D03*
X99216499Y-85573600D03*
X98416499Y-85573600D03*
X97616500Y-85573600D03*
X96816500Y-85573600D03*
X96016500Y-85573600D03*
X95216500Y-85573600D03*
X94416500Y-85573600D03*
X93616500Y-85573600D03*
X92816500Y-85573600D03*
X92016500Y-85573600D03*
X91216500Y-85573600D03*
X90416500Y-85573600D03*
X89616500Y-85573600D03*
X88816501Y-85573600D03*
X88016501Y-85573600D03*
X99216499Y-86373600D03*
X98416499Y-86373600D03*
X97616500Y-86373600D03*
X96816500Y-86373600D03*
X96016500Y-86373600D03*
X95216500Y-86373600D03*
X94416500Y-86373600D03*
X93616500Y-86373600D03*
X92816500Y-86373600D03*
X92016500Y-86373600D03*
X91216500Y-86373600D03*
X90416500Y-86373600D03*
X89616500Y-86373600D03*
X88816501Y-86373600D03*
X88016501Y-86373600D03*
X99216499Y-87173600D03*
X98416499Y-87173600D03*
X97616500Y-87173600D03*
X96816500Y-87173600D03*
X96016500Y-87173600D03*
X95216500Y-87173600D03*
X94416500Y-87173600D03*
X93616500Y-87173600D03*
X92816500Y-87173600D03*
X92016500Y-87173600D03*
X91216500Y-87173600D03*
X90416500Y-87173600D03*
X89616500Y-87173600D03*
X88816501Y-87173600D03*
X88016501Y-87173600D03*
X99216499Y-87973600D03*
X98416499Y-87973600D03*
X97616500Y-87973600D03*
X96816500Y-87973600D03*
X96016500Y-87973600D03*
X95216500Y-87973600D03*
X94416500Y-87973600D03*
X93616500Y-87973600D03*
X92816500Y-87973600D03*
X92016500Y-87973600D03*
X91216500Y-87973600D03*
X90416500Y-87973600D03*
X89616500Y-87973600D03*
X88816501Y-87973600D03*
X88016501Y-87973600D03*
X99216499Y-88773600D03*
X98416499Y-88773600D03*
X97616500Y-88773600D03*
X96816500Y-88773600D03*
X96016500Y-88773600D03*
X95216500Y-88773600D03*
X94416500Y-88773600D03*
X93616500Y-88773600D03*
X92816500Y-88773600D03*
X92016500Y-88773600D03*
X91216500Y-88773600D03*
X90416500Y-88773600D03*
X89616500Y-88773600D03*
X88816501Y-88773600D03*
X88016501Y-88773600D03*
X99216499Y-89573600D03*
X98416499Y-89573600D03*
X97616500Y-89573600D03*
X96816500Y-89573600D03*
X96016500Y-89573600D03*
X95216500Y-89573600D03*
X94416500Y-89573600D03*
X93616500Y-89573600D03*
X92816500Y-89573600D03*
X92016500Y-89573600D03*
X91216500Y-89573600D03*
X90416500Y-89573600D03*
X89616500Y-89573600D03*
X88816501Y-89573600D03*
X88016501Y-89573600D03*
X99216499Y-90373599D03*
X98416499Y-90373599D03*
X97616500Y-90373599D03*
X96816500Y-90373599D03*
X96016500Y-90373599D03*
X95216500Y-90373599D03*
X94416500Y-90373599D03*
X93616500Y-90373599D03*
X92816500Y-90373599D03*
X92016500Y-90373599D03*
X91216500Y-90373599D03*
X90416500Y-90373599D03*
X89616500Y-90373599D03*
X88816501Y-90373599D03*
X88016501Y-90373599D03*
X99216499Y-91173599D03*
X98416499Y-91173599D03*
X97616500Y-91173599D03*
X96816500Y-91173599D03*
X96016500Y-91173599D03*
X95216500Y-91173599D03*
X94416500Y-91173599D03*
X93616500Y-91173599D03*
X92816500Y-91173599D03*
X92016500Y-91173599D03*
X91216500Y-91173599D03*
X90416500Y-91173599D03*
X89616500Y-91173599D03*
X88816501Y-91173599D03*
X88016501Y-91173599D03*
D26*
X115481400Y-46075600D03*
X113931400Y-46075600D03*
D85*
X60843200Y-54559200D03*
X58943200Y-54559200D03*
D41*
X124421600Y-71983600D03*
X125971600Y-71983600D03*
D98*
X52007500Y-29850000D03*
X54707500Y-28650000D03*
D99*
X57207500Y-21850000D03*
D100*
X61807500Y-25750000D03*
D99*
X61307500Y-33050000D03*
D50*
X62738000Y-66360000D03*
X62738000Y-68260000D03*
D80*
X68900000Y-53164500D03*
X70800000Y-53164500D03*
X69850000Y-55039500D03*
D42*
X58369200Y-36817800D03*
X58369200Y-38467800D03*
D43*
X86360000Y-45085000D03*
D29*
X81375000Y-22400000D03*
X83025000Y-22400000D03*
D35*
X63754000Y-61785000D03*
X63754000Y-60135000D03*
D26*
X132855000Y-139649200D03*
X131305000Y-139649200D03*
D30*
X47211199Y-91521799D03*
X47211199Y-89971799D03*
D41*
X71615000Y-107696000D03*
X73165000Y-107696000D03*
D29*
X113881400Y-44348400D03*
X115531400Y-44348400D03*
D101*
X48006000Y-64770000D03*
D102*
X48006000Y-62770000D03*
D45*
X45720000Y-69837000D03*
X45720000Y-71387000D03*
D29*
X130899400Y-117779800D03*
X132549400Y-117779800D03*
D26*
X94983600Y-122910600D03*
X93433600Y-122910600D03*
M02*
