%TF.GenerationSoftware,KiCad,Pcbnew,8.0.4*%
%TF.CreationDate,2024-11-24T15:22:01+00:00*%
%TF.ProjectId,gk-pcbv3,676b2d70-6362-4763-932e-6b696361645f,rev?*%
%TF.SameCoordinates,Original*%
%TF.FileFunction,Drillmap*%
%TF.FilePolarity,Positive*%
%FSLAX45Y45*%
G04 Gerber Fmt 4.5, Leading zero omitted, Abs format (unit mm)*
G04 Created by KiCad (PCBNEW 8.0.4) date 2024-11-24 15:22:01*
%MOMM*%
%LPD*%
G01*
G04 APERTURE LIST*
%ADD10C,0.100000*%
%ADD11C,0.200000*%
%ADD12C,0.320000*%
G04 APERTURE END LIST*
D10*
X4445000Y-1905000D02*
X15240000Y-1905000D01*
X15240000Y-17780000D01*
X4445000Y-17780000D01*
X4445000Y-1905000D01*
D11*
D10*
X9518730Y-2398930D02*
X9583730Y-2463930D01*
X9583730Y-2398930D02*
X9518730Y-2463930D01*
X10096730Y-2398930D02*
X10161730Y-2463930D01*
X10161730Y-2398930D02*
X10096730Y-2463930D01*
D12*
X5240000Y-4127500D02*
G75*
G02*
X4920000Y-4127500I-160000J0D01*
G01*
X4920000Y-4127500D02*
G75*
G02*
X5240000Y-4127500I160000J0D01*
G01*
X7526000Y-15748000D02*
G75*
G02*
X7206000Y-15748000I-160000J0D01*
G01*
X7206000Y-15748000D02*
G75*
G02*
X7526000Y-15748000I160000J0D01*
G01*
X12606000Y-12684760D02*
G75*
G02*
X12286000Y-12684760I-160000J0D01*
G01*
X12286000Y-12684760D02*
G75*
G02*
X12606000Y-12684760I160000J0D01*
G01*
X13812500Y-3175000D02*
G75*
G02*
X13492500Y-3175000I-160000J0D01*
G01*
X13492500Y-3175000D02*
G75*
G02*
X13812500Y-3175000I160000J0D01*
G01*
D11*
X4700777Y-18096484D02*
X4700777Y-17896484D01*
X4700777Y-17896484D02*
X4748396Y-17896484D01*
X4748396Y-17896484D02*
X4776967Y-17906008D01*
X4776967Y-17906008D02*
X4796015Y-17925055D01*
X4796015Y-17925055D02*
X4805539Y-17944103D01*
X4805539Y-17944103D02*
X4815063Y-17982198D01*
X4815063Y-17982198D02*
X4815063Y-18010770D01*
X4815063Y-18010770D02*
X4805539Y-18048865D01*
X4805539Y-18048865D02*
X4796015Y-18067912D01*
X4796015Y-18067912D02*
X4776967Y-18086960D01*
X4776967Y-18086960D02*
X4748396Y-18096484D01*
X4748396Y-18096484D02*
X4700777Y-18096484D01*
X4900777Y-18096484D02*
X4900777Y-17963150D01*
X4900777Y-18001246D02*
X4910301Y-17982198D01*
X4910301Y-17982198D02*
X4919824Y-17972674D01*
X4919824Y-17972674D02*
X4938872Y-17963150D01*
X4938872Y-17963150D02*
X4957920Y-17963150D01*
X5024586Y-18096484D02*
X5024586Y-17963150D01*
X5024586Y-17896484D02*
X5015063Y-17906008D01*
X5015063Y-17906008D02*
X5024586Y-17915531D01*
X5024586Y-17915531D02*
X5034110Y-17906008D01*
X5034110Y-17906008D02*
X5024586Y-17896484D01*
X5024586Y-17896484D02*
X5024586Y-17915531D01*
X5148396Y-18096484D02*
X5129348Y-18086960D01*
X5129348Y-18086960D02*
X5119824Y-18067912D01*
X5119824Y-18067912D02*
X5119824Y-17896484D01*
X5253158Y-18096484D02*
X5234110Y-18086960D01*
X5234110Y-18086960D02*
X5224586Y-18067912D01*
X5224586Y-18067912D02*
X5224586Y-17896484D01*
X5481729Y-18096484D02*
X5481729Y-17896484D01*
X5481729Y-17896484D02*
X5548396Y-18039341D01*
X5548396Y-18039341D02*
X5615062Y-17896484D01*
X5615062Y-17896484D02*
X5615062Y-18096484D01*
X5796015Y-18096484D02*
X5796015Y-17991722D01*
X5796015Y-17991722D02*
X5786491Y-17972674D01*
X5786491Y-17972674D02*
X5767443Y-17963150D01*
X5767443Y-17963150D02*
X5729348Y-17963150D01*
X5729348Y-17963150D02*
X5710301Y-17972674D01*
X5796015Y-18086960D02*
X5776967Y-18096484D01*
X5776967Y-18096484D02*
X5729348Y-18096484D01*
X5729348Y-18096484D02*
X5710301Y-18086960D01*
X5710301Y-18086960D02*
X5700777Y-18067912D01*
X5700777Y-18067912D02*
X5700777Y-18048865D01*
X5700777Y-18048865D02*
X5710301Y-18029817D01*
X5710301Y-18029817D02*
X5729348Y-18020293D01*
X5729348Y-18020293D02*
X5776967Y-18020293D01*
X5776967Y-18020293D02*
X5796015Y-18010770D01*
X5891253Y-17963150D02*
X5891253Y-18163150D01*
X5891253Y-17972674D02*
X5910301Y-17963150D01*
X5910301Y-17963150D02*
X5948396Y-17963150D01*
X5948396Y-17963150D02*
X5967443Y-17972674D01*
X5967443Y-17972674D02*
X5976967Y-17982198D01*
X5976967Y-17982198D02*
X5986491Y-18001246D01*
X5986491Y-18001246D02*
X5986491Y-18058389D01*
X5986491Y-18058389D02*
X5976967Y-18077436D01*
X5976967Y-18077436D02*
X5967443Y-18086960D01*
X5967443Y-18086960D02*
X5948396Y-18096484D01*
X5948396Y-18096484D02*
X5910301Y-18096484D01*
X5910301Y-18096484D02*
X5891253Y-18086960D01*
X6072205Y-18077436D02*
X6081729Y-18086960D01*
X6081729Y-18086960D02*
X6072205Y-18096484D01*
X6072205Y-18096484D02*
X6062682Y-18086960D01*
X6062682Y-18086960D02*
X6072205Y-18077436D01*
X6072205Y-18077436D02*
X6072205Y-18096484D01*
X6072205Y-17972674D02*
X6081729Y-17982198D01*
X6081729Y-17982198D02*
X6072205Y-17991722D01*
X6072205Y-17991722D02*
X6062682Y-17982198D01*
X6062682Y-17982198D02*
X6072205Y-17972674D01*
X6072205Y-17972674D02*
X6072205Y-17991722D01*
D10*
X4375000Y-18392500D02*
X4440000Y-18457500D01*
X4440000Y-18392500D02*
X4375000Y-18457500D01*
D11*
X4738872Y-18316484D02*
X4757920Y-18316484D01*
X4757920Y-18316484D02*
X4776967Y-18326008D01*
X4776967Y-18326008D02*
X4786491Y-18335531D01*
X4786491Y-18335531D02*
X4796015Y-18354579D01*
X4796015Y-18354579D02*
X4805539Y-18392674D01*
X4805539Y-18392674D02*
X4805539Y-18440293D01*
X4805539Y-18440293D02*
X4796015Y-18478389D01*
X4796015Y-18478389D02*
X4786491Y-18497436D01*
X4786491Y-18497436D02*
X4776967Y-18506960D01*
X4776967Y-18506960D02*
X4757920Y-18516484D01*
X4757920Y-18516484D02*
X4738872Y-18516484D01*
X4738872Y-18516484D02*
X4719824Y-18506960D01*
X4719824Y-18506960D02*
X4710301Y-18497436D01*
X4710301Y-18497436D02*
X4700777Y-18478389D01*
X4700777Y-18478389D02*
X4691253Y-18440293D01*
X4691253Y-18440293D02*
X4691253Y-18392674D01*
X4691253Y-18392674D02*
X4700777Y-18354579D01*
X4700777Y-18354579D02*
X4710301Y-18335531D01*
X4710301Y-18335531D02*
X4719824Y-18326008D01*
X4719824Y-18326008D02*
X4738872Y-18316484D01*
X4891253Y-18497436D02*
X4900777Y-18506960D01*
X4900777Y-18506960D02*
X4891253Y-18516484D01*
X4891253Y-18516484D02*
X4881729Y-18506960D01*
X4881729Y-18506960D02*
X4891253Y-18497436D01*
X4891253Y-18497436D02*
X4891253Y-18516484D01*
X5072205Y-18316484D02*
X5034110Y-18316484D01*
X5034110Y-18316484D02*
X5015063Y-18326008D01*
X5015063Y-18326008D02*
X5005539Y-18335531D01*
X5005539Y-18335531D02*
X4986491Y-18364103D01*
X4986491Y-18364103D02*
X4976967Y-18402198D01*
X4976967Y-18402198D02*
X4976967Y-18478389D01*
X4976967Y-18478389D02*
X4986491Y-18497436D01*
X4986491Y-18497436D02*
X4996015Y-18506960D01*
X4996015Y-18506960D02*
X5015063Y-18516484D01*
X5015063Y-18516484D02*
X5053158Y-18516484D01*
X5053158Y-18516484D02*
X5072205Y-18506960D01*
X5072205Y-18506960D02*
X5081729Y-18497436D01*
X5081729Y-18497436D02*
X5091253Y-18478389D01*
X5091253Y-18478389D02*
X5091253Y-18430770D01*
X5091253Y-18430770D02*
X5081729Y-18411722D01*
X5081729Y-18411722D02*
X5072205Y-18402198D01*
X5072205Y-18402198D02*
X5053158Y-18392674D01*
X5053158Y-18392674D02*
X5015063Y-18392674D01*
X5015063Y-18392674D02*
X4996015Y-18402198D01*
X4996015Y-18402198D02*
X4986491Y-18411722D01*
X4986491Y-18411722D02*
X4976967Y-18430770D01*
X5272205Y-18316484D02*
X5176967Y-18316484D01*
X5176967Y-18316484D02*
X5167444Y-18411722D01*
X5167444Y-18411722D02*
X5176967Y-18402198D01*
X5176967Y-18402198D02*
X5196015Y-18392674D01*
X5196015Y-18392674D02*
X5243634Y-18392674D01*
X5243634Y-18392674D02*
X5262682Y-18402198D01*
X5262682Y-18402198D02*
X5272205Y-18411722D01*
X5272205Y-18411722D02*
X5281729Y-18430770D01*
X5281729Y-18430770D02*
X5281729Y-18478389D01*
X5281729Y-18478389D02*
X5272205Y-18497436D01*
X5272205Y-18497436D02*
X5262682Y-18506960D01*
X5262682Y-18506960D02*
X5243634Y-18516484D01*
X5243634Y-18516484D02*
X5196015Y-18516484D01*
X5196015Y-18516484D02*
X5176967Y-18506960D01*
X5176967Y-18506960D02*
X5167444Y-18497436D01*
X5405539Y-18316484D02*
X5424586Y-18316484D01*
X5424586Y-18316484D02*
X5443634Y-18326008D01*
X5443634Y-18326008D02*
X5453158Y-18335531D01*
X5453158Y-18335531D02*
X5462682Y-18354579D01*
X5462682Y-18354579D02*
X5472205Y-18392674D01*
X5472205Y-18392674D02*
X5472205Y-18440293D01*
X5472205Y-18440293D02*
X5462682Y-18478389D01*
X5462682Y-18478389D02*
X5453158Y-18497436D01*
X5453158Y-18497436D02*
X5443634Y-18506960D01*
X5443634Y-18506960D02*
X5424586Y-18516484D01*
X5424586Y-18516484D02*
X5405539Y-18516484D01*
X5405539Y-18516484D02*
X5386491Y-18506960D01*
X5386491Y-18506960D02*
X5376967Y-18497436D01*
X5376967Y-18497436D02*
X5367444Y-18478389D01*
X5367444Y-18478389D02*
X5357920Y-18440293D01*
X5357920Y-18440293D02*
X5357920Y-18392674D01*
X5357920Y-18392674D02*
X5367444Y-18354579D01*
X5367444Y-18354579D02*
X5376967Y-18335531D01*
X5376967Y-18335531D02*
X5386491Y-18326008D01*
X5386491Y-18326008D02*
X5405539Y-18316484D01*
X5557920Y-18516484D02*
X5557920Y-18383150D01*
X5557920Y-18402198D02*
X5567444Y-18392674D01*
X5567444Y-18392674D02*
X5586491Y-18383150D01*
X5586491Y-18383150D02*
X5615063Y-18383150D01*
X5615063Y-18383150D02*
X5634110Y-18392674D01*
X5634110Y-18392674D02*
X5643634Y-18411722D01*
X5643634Y-18411722D02*
X5643634Y-18516484D01*
X5643634Y-18411722D02*
X5653158Y-18392674D01*
X5653158Y-18392674D02*
X5672205Y-18383150D01*
X5672205Y-18383150D02*
X5700777Y-18383150D01*
X5700777Y-18383150D02*
X5719824Y-18392674D01*
X5719824Y-18392674D02*
X5729348Y-18411722D01*
X5729348Y-18411722D02*
X5729348Y-18516484D01*
X5824586Y-18516484D02*
X5824586Y-18383150D01*
X5824586Y-18402198D02*
X5834110Y-18392674D01*
X5834110Y-18392674D02*
X5853158Y-18383150D01*
X5853158Y-18383150D02*
X5881729Y-18383150D01*
X5881729Y-18383150D02*
X5900777Y-18392674D01*
X5900777Y-18392674D02*
X5910301Y-18411722D01*
X5910301Y-18411722D02*
X5910301Y-18516484D01*
X5910301Y-18411722D02*
X5919824Y-18392674D01*
X5919824Y-18392674D02*
X5938872Y-18383150D01*
X5938872Y-18383150D02*
X5967443Y-18383150D01*
X5967443Y-18383150D02*
X5986491Y-18392674D01*
X5986491Y-18392674D02*
X5996015Y-18411722D01*
X5996015Y-18411722D02*
X5996015Y-18516484D01*
X6386491Y-18306960D02*
X6215063Y-18564103D01*
X6643634Y-18316484D02*
X6662682Y-18316484D01*
X6662682Y-18316484D02*
X6681729Y-18326008D01*
X6681729Y-18326008D02*
X6691253Y-18335531D01*
X6691253Y-18335531D02*
X6700777Y-18354579D01*
X6700777Y-18354579D02*
X6710301Y-18392674D01*
X6710301Y-18392674D02*
X6710301Y-18440293D01*
X6710301Y-18440293D02*
X6700777Y-18478389D01*
X6700777Y-18478389D02*
X6691253Y-18497436D01*
X6691253Y-18497436D02*
X6681729Y-18506960D01*
X6681729Y-18506960D02*
X6662682Y-18516484D01*
X6662682Y-18516484D02*
X6643634Y-18516484D01*
X6643634Y-18516484D02*
X6624586Y-18506960D01*
X6624586Y-18506960D02*
X6615063Y-18497436D01*
X6615063Y-18497436D02*
X6605539Y-18478389D01*
X6605539Y-18478389D02*
X6596015Y-18440293D01*
X6596015Y-18440293D02*
X6596015Y-18392674D01*
X6596015Y-18392674D02*
X6605539Y-18354579D01*
X6605539Y-18354579D02*
X6615063Y-18335531D01*
X6615063Y-18335531D02*
X6624586Y-18326008D01*
X6624586Y-18326008D02*
X6643634Y-18316484D01*
X6796015Y-18497436D02*
X6805539Y-18506960D01*
X6805539Y-18506960D02*
X6796015Y-18516484D01*
X6796015Y-18516484D02*
X6786491Y-18506960D01*
X6786491Y-18506960D02*
X6796015Y-18497436D01*
X6796015Y-18497436D02*
X6796015Y-18516484D01*
X6929348Y-18316484D02*
X6948396Y-18316484D01*
X6948396Y-18316484D02*
X6967444Y-18326008D01*
X6967444Y-18326008D02*
X6976967Y-18335531D01*
X6976967Y-18335531D02*
X6986491Y-18354579D01*
X6986491Y-18354579D02*
X6996015Y-18392674D01*
X6996015Y-18392674D02*
X6996015Y-18440293D01*
X6996015Y-18440293D02*
X6986491Y-18478389D01*
X6986491Y-18478389D02*
X6976967Y-18497436D01*
X6976967Y-18497436D02*
X6967444Y-18506960D01*
X6967444Y-18506960D02*
X6948396Y-18516484D01*
X6948396Y-18516484D02*
X6929348Y-18516484D01*
X6929348Y-18516484D02*
X6910301Y-18506960D01*
X6910301Y-18506960D02*
X6900777Y-18497436D01*
X6900777Y-18497436D02*
X6891253Y-18478389D01*
X6891253Y-18478389D02*
X6881729Y-18440293D01*
X6881729Y-18440293D02*
X6881729Y-18392674D01*
X6881729Y-18392674D02*
X6891253Y-18354579D01*
X6891253Y-18354579D02*
X6900777Y-18335531D01*
X6900777Y-18335531D02*
X6910301Y-18326008D01*
X6910301Y-18326008D02*
X6929348Y-18316484D01*
X7072206Y-18335531D02*
X7081729Y-18326008D01*
X7081729Y-18326008D02*
X7100777Y-18316484D01*
X7100777Y-18316484D02*
X7148396Y-18316484D01*
X7148396Y-18316484D02*
X7167444Y-18326008D01*
X7167444Y-18326008D02*
X7176967Y-18335531D01*
X7176967Y-18335531D02*
X7186491Y-18354579D01*
X7186491Y-18354579D02*
X7186491Y-18373627D01*
X7186491Y-18373627D02*
X7176967Y-18402198D01*
X7176967Y-18402198D02*
X7062682Y-18516484D01*
X7062682Y-18516484D02*
X7186491Y-18516484D01*
X7367444Y-18316484D02*
X7272206Y-18316484D01*
X7272206Y-18316484D02*
X7262682Y-18411722D01*
X7262682Y-18411722D02*
X7272206Y-18402198D01*
X7272206Y-18402198D02*
X7291253Y-18392674D01*
X7291253Y-18392674D02*
X7338872Y-18392674D01*
X7338872Y-18392674D02*
X7357920Y-18402198D01*
X7357920Y-18402198D02*
X7367444Y-18411722D01*
X7367444Y-18411722D02*
X7376967Y-18430770D01*
X7376967Y-18430770D02*
X7376967Y-18478389D01*
X7376967Y-18478389D02*
X7367444Y-18497436D01*
X7367444Y-18497436D02*
X7357920Y-18506960D01*
X7357920Y-18506960D02*
X7338872Y-18516484D01*
X7338872Y-18516484D02*
X7291253Y-18516484D01*
X7291253Y-18516484D02*
X7272206Y-18506960D01*
X7272206Y-18506960D02*
X7262682Y-18497436D01*
X7548396Y-18316484D02*
X7510301Y-18316484D01*
X7510301Y-18316484D02*
X7491253Y-18326008D01*
X7491253Y-18326008D02*
X7481729Y-18335531D01*
X7481729Y-18335531D02*
X7462682Y-18364103D01*
X7462682Y-18364103D02*
X7453158Y-18402198D01*
X7453158Y-18402198D02*
X7453158Y-18478389D01*
X7453158Y-18478389D02*
X7462682Y-18497436D01*
X7462682Y-18497436D02*
X7472206Y-18506960D01*
X7472206Y-18506960D02*
X7491253Y-18516484D01*
X7491253Y-18516484D02*
X7529348Y-18516484D01*
X7529348Y-18516484D02*
X7548396Y-18506960D01*
X7548396Y-18506960D02*
X7557920Y-18497436D01*
X7557920Y-18497436D02*
X7567444Y-18478389D01*
X7567444Y-18478389D02*
X7567444Y-18430770D01*
X7567444Y-18430770D02*
X7557920Y-18411722D01*
X7557920Y-18411722D02*
X7548396Y-18402198D01*
X7548396Y-18402198D02*
X7529348Y-18392674D01*
X7529348Y-18392674D02*
X7491253Y-18392674D01*
X7491253Y-18392674D02*
X7472206Y-18402198D01*
X7472206Y-18402198D02*
X7462682Y-18411722D01*
X7462682Y-18411722D02*
X7453158Y-18430770D01*
X7643634Y-18316484D02*
X7643634Y-18354579D01*
X7719825Y-18316484D02*
X7719825Y-18354579D01*
X8015063Y-18592674D02*
X8005539Y-18583150D01*
X8005539Y-18583150D02*
X7986491Y-18554579D01*
X7986491Y-18554579D02*
X7976968Y-18535531D01*
X7976968Y-18535531D02*
X7967444Y-18506960D01*
X7967444Y-18506960D02*
X7957920Y-18459341D01*
X7957920Y-18459341D02*
X7957920Y-18421246D01*
X7957920Y-18421246D02*
X7967444Y-18373627D01*
X7967444Y-18373627D02*
X7976968Y-18345055D01*
X7976968Y-18345055D02*
X7986491Y-18326008D01*
X7986491Y-18326008D02*
X8005539Y-18297436D01*
X8005539Y-18297436D02*
X8015063Y-18287912D01*
X8081729Y-18335531D02*
X8091253Y-18326008D01*
X8091253Y-18326008D02*
X8110301Y-18316484D01*
X8110301Y-18316484D02*
X8157920Y-18316484D01*
X8157920Y-18316484D02*
X8176968Y-18326008D01*
X8176968Y-18326008D02*
X8186491Y-18335531D01*
X8186491Y-18335531D02*
X8196015Y-18354579D01*
X8196015Y-18354579D02*
X8196015Y-18373627D01*
X8196015Y-18373627D02*
X8186491Y-18402198D01*
X8186491Y-18402198D02*
X8072206Y-18516484D01*
X8072206Y-18516484D02*
X8196015Y-18516484D01*
X8434111Y-18516484D02*
X8434111Y-18316484D01*
X8519825Y-18516484D02*
X8519825Y-18411722D01*
X8519825Y-18411722D02*
X8510301Y-18392674D01*
X8510301Y-18392674D02*
X8491253Y-18383150D01*
X8491253Y-18383150D02*
X8462682Y-18383150D01*
X8462682Y-18383150D02*
X8443634Y-18392674D01*
X8443634Y-18392674D02*
X8434111Y-18402198D01*
X8643634Y-18516484D02*
X8624587Y-18506960D01*
X8624587Y-18506960D02*
X8615063Y-18497436D01*
X8615063Y-18497436D02*
X8605539Y-18478389D01*
X8605539Y-18478389D02*
X8605539Y-18421246D01*
X8605539Y-18421246D02*
X8615063Y-18402198D01*
X8615063Y-18402198D02*
X8624587Y-18392674D01*
X8624587Y-18392674D02*
X8643634Y-18383150D01*
X8643634Y-18383150D02*
X8672206Y-18383150D01*
X8672206Y-18383150D02*
X8691253Y-18392674D01*
X8691253Y-18392674D02*
X8700777Y-18402198D01*
X8700777Y-18402198D02*
X8710301Y-18421246D01*
X8710301Y-18421246D02*
X8710301Y-18478389D01*
X8710301Y-18478389D02*
X8700777Y-18497436D01*
X8700777Y-18497436D02*
X8691253Y-18506960D01*
X8691253Y-18506960D02*
X8672206Y-18516484D01*
X8672206Y-18516484D02*
X8643634Y-18516484D01*
X8824587Y-18516484D02*
X8805539Y-18506960D01*
X8805539Y-18506960D02*
X8796015Y-18487912D01*
X8796015Y-18487912D02*
X8796015Y-18316484D01*
X8976968Y-18506960D02*
X8957920Y-18516484D01*
X8957920Y-18516484D02*
X8919825Y-18516484D01*
X8919825Y-18516484D02*
X8900777Y-18506960D01*
X8900777Y-18506960D02*
X8891253Y-18487912D01*
X8891253Y-18487912D02*
X8891253Y-18411722D01*
X8891253Y-18411722D02*
X8900777Y-18392674D01*
X8900777Y-18392674D02*
X8919825Y-18383150D01*
X8919825Y-18383150D02*
X8957920Y-18383150D01*
X8957920Y-18383150D02*
X8976968Y-18392674D01*
X8976968Y-18392674D02*
X8986492Y-18411722D01*
X8986492Y-18411722D02*
X8986492Y-18430770D01*
X8986492Y-18430770D02*
X8891253Y-18449817D01*
X9062682Y-18506960D02*
X9081730Y-18516484D01*
X9081730Y-18516484D02*
X9119825Y-18516484D01*
X9119825Y-18516484D02*
X9138873Y-18506960D01*
X9138873Y-18506960D02*
X9148396Y-18487912D01*
X9148396Y-18487912D02*
X9148396Y-18478389D01*
X9148396Y-18478389D02*
X9138873Y-18459341D01*
X9138873Y-18459341D02*
X9119825Y-18449817D01*
X9119825Y-18449817D02*
X9091253Y-18449817D01*
X9091253Y-18449817D02*
X9072206Y-18440293D01*
X9072206Y-18440293D02*
X9062682Y-18421246D01*
X9062682Y-18421246D02*
X9062682Y-18411722D01*
X9062682Y-18411722D02*
X9072206Y-18392674D01*
X9072206Y-18392674D02*
X9091253Y-18383150D01*
X9091253Y-18383150D02*
X9119825Y-18383150D01*
X9119825Y-18383150D02*
X9138873Y-18392674D01*
X9215063Y-18592674D02*
X9224587Y-18583150D01*
X9224587Y-18583150D02*
X9243634Y-18554579D01*
X9243634Y-18554579D02*
X9253158Y-18535531D01*
X9253158Y-18535531D02*
X9262682Y-18506960D01*
X9262682Y-18506960D02*
X9272206Y-18459341D01*
X9272206Y-18459341D02*
X9272206Y-18421246D01*
X9272206Y-18421246D02*
X9262682Y-18373627D01*
X9262682Y-18373627D02*
X9253158Y-18345055D01*
X9253158Y-18345055D02*
X9243634Y-18326008D01*
X9243634Y-18326008D02*
X9224587Y-18297436D01*
X9224587Y-18297436D02*
X9215063Y-18287912D01*
X9576968Y-18592674D02*
X9567444Y-18583150D01*
X9567444Y-18583150D02*
X9548396Y-18554579D01*
X9548396Y-18554579D02*
X9538873Y-18535531D01*
X9538873Y-18535531D02*
X9529349Y-18506960D01*
X9529349Y-18506960D02*
X9519825Y-18459341D01*
X9519825Y-18459341D02*
X9519825Y-18421246D01*
X9519825Y-18421246D02*
X9529349Y-18373627D01*
X9529349Y-18373627D02*
X9538873Y-18345055D01*
X9538873Y-18345055D02*
X9548396Y-18326008D01*
X9548396Y-18326008D02*
X9567444Y-18297436D01*
X9567444Y-18297436D02*
X9576968Y-18287912D01*
X9653158Y-18383150D02*
X9653158Y-18516484D01*
X9653158Y-18402198D02*
X9662682Y-18392674D01*
X9662682Y-18392674D02*
X9681730Y-18383150D01*
X9681730Y-18383150D02*
X9710301Y-18383150D01*
X9710301Y-18383150D02*
X9729349Y-18392674D01*
X9729349Y-18392674D02*
X9738873Y-18411722D01*
X9738873Y-18411722D02*
X9738873Y-18516484D01*
X9862682Y-18516484D02*
X9843634Y-18506960D01*
X9843634Y-18506960D02*
X9834111Y-18497436D01*
X9834111Y-18497436D02*
X9824587Y-18478389D01*
X9824587Y-18478389D02*
X9824587Y-18421246D01*
X9824587Y-18421246D02*
X9834111Y-18402198D01*
X9834111Y-18402198D02*
X9843634Y-18392674D01*
X9843634Y-18392674D02*
X9862682Y-18383150D01*
X9862682Y-18383150D02*
X9891254Y-18383150D01*
X9891254Y-18383150D02*
X9910301Y-18392674D01*
X9910301Y-18392674D02*
X9919825Y-18402198D01*
X9919825Y-18402198D02*
X9929349Y-18421246D01*
X9929349Y-18421246D02*
X9929349Y-18478389D01*
X9929349Y-18478389D02*
X9919825Y-18497436D01*
X9919825Y-18497436D02*
X9910301Y-18506960D01*
X9910301Y-18506960D02*
X9891254Y-18516484D01*
X9891254Y-18516484D02*
X9862682Y-18516484D01*
X9986492Y-18383150D02*
X10062682Y-18383150D01*
X10015063Y-18316484D02*
X10015063Y-18487912D01*
X10015063Y-18487912D02*
X10024587Y-18506960D01*
X10024587Y-18506960D02*
X10043634Y-18516484D01*
X10043634Y-18516484D02*
X10062682Y-18516484D01*
X10281730Y-18383150D02*
X10281730Y-18583150D01*
X10281730Y-18392674D02*
X10300777Y-18383150D01*
X10300777Y-18383150D02*
X10338873Y-18383150D01*
X10338873Y-18383150D02*
X10357920Y-18392674D01*
X10357920Y-18392674D02*
X10367444Y-18402198D01*
X10367444Y-18402198D02*
X10376968Y-18421246D01*
X10376968Y-18421246D02*
X10376968Y-18478389D01*
X10376968Y-18478389D02*
X10367444Y-18497436D01*
X10367444Y-18497436D02*
X10357920Y-18506960D01*
X10357920Y-18506960D02*
X10338873Y-18516484D01*
X10338873Y-18516484D02*
X10300777Y-18516484D01*
X10300777Y-18516484D02*
X10281730Y-18506960D01*
X10491254Y-18516484D02*
X10472206Y-18506960D01*
X10472206Y-18506960D02*
X10462682Y-18487912D01*
X10462682Y-18487912D02*
X10462682Y-18316484D01*
X10653158Y-18516484D02*
X10653158Y-18411722D01*
X10653158Y-18411722D02*
X10643635Y-18392674D01*
X10643635Y-18392674D02*
X10624587Y-18383150D01*
X10624587Y-18383150D02*
X10586492Y-18383150D01*
X10586492Y-18383150D02*
X10567444Y-18392674D01*
X10653158Y-18506960D02*
X10634111Y-18516484D01*
X10634111Y-18516484D02*
X10586492Y-18516484D01*
X10586492Y-18516484D02*
X10567444Y-18506960D01*
X10567444Y-18506960D02*
X10557920Y-18487912D01*
X10557920Y-18487912D02*
X10557920Y-18468865D01*
X10557920Y-18468865D02*
X10567444Y-18449817D01*
X10567444Y-18449817D02*
X10586492Y-18440293D01*
X10586492Y-18440293D02*
X10634111Y-18440293D01*
X10634111Y-18440293D02*
X10653158Y-18430770D01*
X10719825Y-18383150D02*
X10796015Y-18383150D01*
X10748396Y-18316484D02*
X10748396Y-18487912D01*
X10748396Y-18487912D02*
X10757920Y-18506960D01*
X10757920Y-18506960D02*
X10776968Y-18516484D01*
X10776968Y-18516484D02*
X10796015Y-18516484D01*
X10938873Y-18506960D02*
X10919825Y-18516484D01*
X10919825Y-18516484D02*
X10881730Y-18516484D01*
X10881730Y-18516484D02*
X10862682Y-18506960D01*
X10862682Y-18506960D02*
X10853158Y-18487912D01*
X10853158Y-18487912D02*
X10853158Y-18411722D01*
X10853158Y-18411722D02*
X10862682Y-18392674D01*
X10862682Y-18392674D02*
X10881730Y-18383150D01*
X10881730Y-18383150D02*
X10919825Y-18383150D01*
X10919825Y-18383150D02*
X10938873Y-18392674D01*
X10938873Y-18392674D02*
X10948396Y-18411722D01*
X10948396Y-18411722D02*
X10948396Y-18430770D01*
X10948396Y-18430770D02*
X10853158Y-18449817D01*
X11119825Y-18516484D02*
X11119825Y-18316484D01*
X11119825Y-18506960D02*
X11100777Y-18516484D01*
X11100777Y-18516484D02*
X11062682Y-18516484D01*
X11062682Y-18516484D02*
X11043635Y-18506960D01*
X11043635Y-18506960D02*
X11034111Y-18497436D01*
X11034111Y-18497436D02*
X11024587Y-18478389D01*
X11024587Y-18478389D02*
X11024587Y-18421246D01*
X11024587Y-18421246D02*
X11034111Y-18402198D01*
X11034111Y-18402198D02*
X11043635Y-18392674D01*
X11043635Y-18392674D02*
X11062682Y-18383150D01*
X11062682Y-18383150D02*
X11100777Y-18383150D01*
X11100777Y-18383150D02*
X11119825Y-18392674D01*
X11196015Y-18592674D02*
X11205539Y-18583150D01*
X11205539Y-18583150D02*
X11224587Y-18554579D01*
X11224587Y-18554579D02*
X11234111Y-18535531D01*
X11234111Y-18535531D02*
X11243634Y-18506960D01*
X11243634Y-18506960D02*
X11253158Y-18459341D01*
X11253158Y-18459341D02*
X11253158Y-18421246D01*
X11253158Y-18421246D02*
X11243634Y-18373627D01*
X11243634Y-18373627D02*
X11234111Y-18345055D01*
X11234111Y-18345055D02*
X11224587Y-18326008D01*
X11224587Y-18326008D02*
X11205539Y-18297436D01*
X11205539Y-18297436D02*
X11196015Y-18287912D01*
X4440000Y-18689000D02*
G75*
G02*
X4240000Y-18689000I-100000J0D01*
G01*
X4240000Y-18689000D02*
G75*
G02*
X4440000Y-18689000I100000J0D01*
G01*
X4681729Y-18580484D02*
X4805539Y-18580484D01*
X4805539Y-18580484D02*
X4738872Y-18656674D01*
X4738872Y-18656674D02*
X4767444Y-18656674D01*
X4767444Y-18656674D02*
X4786491Y-18666198D01*
X4786491Y-18666198D02*
X4796015Y-18675722D01*
X4796015Y-18675722D02*
X4805539Y-18694770D01*
X4805539Y-18694770D02*
X4805539Y-18742389D01*
X4805539Y-18742389D02*
X4796015Y-18761436D01*
X4796015Y-18761436D02*
X4786491Y-18770960D01*
X4786491Y-18770960D02*
X4767444Y-18780484D01*
X4767444Y-18780484D02*
X4710301Y-18780484D01*
X4710301Y-18780484D02*
X4691253Y-18770960D01*
X4691253Y-18770960D02*
X4681729Y-18761436D01*
X4891253Y-18761436D02*
X4900777Y-18770960D01*
X4900777Y-18770960D02*
X4891253Y-18780484D01*
X4891253Y-18780484D02*
X4881729Y-18770960D01*
X4881729Y-18770960D02*
X4891253Y-18761436D01*
X4891253Y-18761436D02*
X4891253Y-18780484D01*
X4976967Y-18599531D02*
X4986491Y-18590008D01*
X4986491Y-18590008D02*
X5005539Y-18580484D01*
X5005539Y-18580484D02*
X5053158Y-18580484D01*
X5053158Y-18580484D02*
X5072205Y-18590008D01*
X5072205Y-18590008D02*
X5081729Y-18599531D01*
X5081729Y-18599531D02*
X5091253Y-18618579D01*
X5091253Y-18618579D02*
X5091253Y-18637627D01*
X5091253Y-18637627D02*
X5081729Y-18666198D01*
X5081729Y-18666198D02*
X4967444Y-18780484D01*
X4967444Y-18780484D02*
X5091253Y-18780484D01*
X5215063Y-18580484D02*
X5234110Y-18580484D01*
X5234110Y-18580484D02*
X5253158Y-18590008D01*
X5253158Y-18590008D02*
X5262682Y-18599531D01*
X5262682Y-18599531D02*
X5272205Y-18618579D01*
X5272205Y-18618579D02*
X5281729Y-18656674D01*
X5281729Y-18656674D02*
X5281729Y-18704293D01*
X5281729Y-18704293D02*
X5272205Y-18742389D01*
X5272205Y-18742389D02*
X5262682Y-18761436D01*
X5262682Y-18761436D02*
X5253158Y-18770960D01*
X5253158Y-18770960D02*
X5234110Y-18780484D01*
X5234110Y-18780484D02*
X5215063Y-18780484D01*
X5215063Y-18780484D02*
X5196015Y-18770960D01*
X5196015Y-18770960D02*
X5186491Y-18761436D01*
X5186491Y-18761436D02*
X5176967Y-18742389D01*
X5176967Y-18742389D02*
X5167444Y-18704293D01*
X5167444Y-18704293D02*
X5167444Y-18656674D01*
X5167444Y-18656674D02*
X5176967Y-18618579D01*
X5176967Y-18618579D02*
X5186491Y-18599531D01*
X5186491Y-18599531D02*
X5196015Y-18590008D01*
X5196015Y-18590008D02*
X5215063Y-18580484D01*
X5405539Y-18580484D02*
X5424586Y-18580484D01*
X5424586Y-18580484D02*
X5443634Y-18590008D01*
X5443634Y-18590008D02*
X5453158Y-18599531D01*
X5453158Y-18599531D02*
X5462682Y-18618579D01*
X5462682Y-18618579D02*
X5472205Y-18656674D01*
X5472205Y-18656674D02*
X5472205Y-18704293D01*
X5472205Y-18704293D02*
X5462682Y-18742389D01*
X5462682Y-18742389D02*
X5453158Y-18761436D01*
X5453158Y-18761436D02*
X5443634Y-18770960D01*
X5443634Y-18770960D02*
X5424586Y-18780484D01*
X5424586Y-18780484D02*
X5405539Y-18780484D01*
X5405539Y-18780484D02*
X5386491Y-18770960D01*
X5386491Y-18770960D02*
X5376967Y-18761436D01*
X5376967Y-18761436D02*
X5367444Y-18742389D01*
X5367444Y-18742389D02*
X5357920Y-18704293D01*
X5357920Y-18704293D02*
X5357920Y-18656674D01*
X5357920Y-18656674D02*
X5367444Y-18618579D01*
X5367444Y-18618579D02*
X5376967Y-18599531D01*
X5376967Y-18599531D02*
X5386491Y-18590008D01*
X5386491Y-18590008D02*
X5405539Y-18580484D01*
X5557920Y-18780484D02*
X5557920Y-18647150D01*
X5557920Y-18666198D02*
X5567444Y-18656674D01*
X5567444Y-18656674D02*
X5586491Y-18647150D01*
X5586491Y-18647150D02*
X5615063Y-18647150D01*
X5615063Y-18647150D02*
X5634110Y-18656674D01*
X5634110Y-18656674D02*
X5643634Y-18675722D01*
X5643634Y-18675722D02*
X5643634Y-18780484D01*
X5643634Y-18675722D02*
X5653158Y-18656674D01*
X5653158Y-18656674D02*
X5672205Y-18647150D01*
X5672205Y-18647150D02*
X5700777Y-18647150D01*
X5700777Y-18647150D02*
X5719824Y-18656674D01*
X5719824Y-18656674D02*
X5729348Y-18675722D01*
X5729348Y-18675722D02*
X5729348Y-18780484D01*
X5824586Y-18780484D02*
X5824586Y-18647150D01*
X5824586Y-18666198D02*
X5834110Y-18656674D01*
X5834110Y-18656674D02*
X5853158Y-18647150D01*
X5853158Y-18647150D02*
X5881729Y-18647150D01*
X5881729Y-18647150D02*
X5900777Y-18656674D01*
X5900777Y-18656674D02*
X5910301Y-18675722D01*
X5910301Y-18675722D02*
X5910301Y-18780484D01*
X5910301Y-18675722D02*
X5919824Y-18656674D01*
X5919824Y-18656674D02*
X5938872Y-18647150D01*
X5938872Y-18647150D02*
X5967443Y-18647150D01*
X5967443Y-18647150D02*
X5986491Y-18656674D01*
X5986491Y-18656674D02*
X5996015Y-18675722D01*
X5996015Y-18675722D02*
X5996015Y-18780484D01*
X6386491Y-18570960D02*
X6215063Y-18828103D01*
X6643634Y-18580484D02*
X6662682Y-18580484D01*
X6662682Y-18580484D02*
X6681729Y-18590008D01*
X6681729Y-18590008D02*
X6691253Y-18599531D01*
X6691253Y-18599531D02*
X6700777Y-18618579D01*
X6700777Y-18618579D02*
X6710301Y-18656674D01*
X6710301Y-18656674D02*
X6710301Y-18704293D01*
X6710301Y-18704293D02*
X6700777Y-18742389D01*
X6700777Y-18742389D02*
X6691253Y-18761436D01*
X6691253Y-18761436D02*
X6681729Y-18770960D01*
X6681729Y-18770960D02*
X6662682Y-18780484D01*
X6662682Y-18780484D02*
X6643634Y-18780484D01*
X6643634Y-18780484D02*
X6624586Y-18770960D01*
X6624586Y-18770960D02*
X6615063Y-18761436D01*
X6615063Y-18761436D02*
X6605539Y-18742389D01*
X6605539Y-18742389D02*
X6596015Y-18704293D01*
X6596015Y-18704293D02*
X6596015Y-18656674D01*
X6596015Y-18656674D02*
X6605539Y-18618579D01*
X6605539Y-18618579D02*
X6615063Y-18599531D01*
X6615063Y-18599531D02*
X6624586Y-18590008D01*
X6624586Y-18590008D02*
X6643634Y-18580484D01*
X6796015Y-18761436D02*
X6805539Y-18770960D01*
X6805539Y-18770960D02*
X6796015Y-18780484D01*
X6796015Y-18780484D02*
X6786491Y-18770960D01*
X6786491Y-18770960D02*
X6796015Y-18761436D01*
X6796015Y-18761436D02*
X6796015Y-18780484D01*
X6996015Y-18780484D02*
X6881729Y-18780484D01*
X6938872Y-18780484D02*
X6938872Y-18580484D01*
X6938872Y-18580484D02*
X6919825Y-18609055D01*
X6919825Y-18609055D02*
X6900777Y-18628103D01*
X6900777Y-18628103D02*
X6881729Y-18637627D01*
X7072206Y-18599531D02*
X7081729Y-18590008D01*
X7081729Y-18590008D02*
X7100777Y-18580484D01*
X7100777Y-18580484D02*
X7148396Y-18580484D01*
X7148396Y-18580484D02*
X7167444Y-18590008D01*
X7167444Y-18590008D02*
X7176967Y-18599531D01*
X7176967Y-18599531D02*
X7186491Y-18618579D01*
X7186491Y-18618579D02*
X7186491Y-18637627D01*
X7186491Y-18637627D02*
X7176967Y-18666198D01*
X7176967Y-18666198D02*
X7062682Y-18780484D01*
X7062682Y-18780484D02*
X7186491Y-18780484D01*
X7357920Y-18580484D02*
X7319825Y-18580484D01*
X7319825Y-18580484D02*
X7300777Y-18590008D01*
X7300777Y-18590008D02*
X7291253Y-18599531D01*
X7291253Y-18599531D02*
X7272206Y-18628103D01*
X7272206Y-18628103D02*
X7262682Y-18666198D01*
X7262682Y-18666198D02*
X7262682Y-18742389D01*
X7262682Y-18742389D02*
X7272206Y-18761436D01*
X7272206Y-18761436D02*
X7281729Y-18770960D01*
X7281729Y-18770960D02*
X7300777Y-18780484D01*
X7300777Y-18780484D02*
X7338872Y-18780484D01*
X7338872Y-18780484D02*
X7357920Y-18770960D01*
X7357920Y-18770960D02*
X7367444Y-18761436D01*
X7367444Y-18761436D02*
X7376967Y-18742389D01*
X7376967Y-18742389D02*
X7376967Y-18694770D01*
X7376967Y-18694770D02*
X7367444Y-18675722D01*
X7367444Y-18675722D02*
X7357920Y-18666198D01*
X7357920Y-18666198D02*
X7338872Y-18656674D01*
X7338872Y-18656674D02*
X7300777Y-18656674D01*
X7300777Y-18656674D02*
X7281729Y-18666198D01*
X7281729Y-18666198D02*
X7272206Y-18675722D01*
X7272206Y-18675722D02*
X7262682Y-18694770D01*
X7500777Y-18580484D02*
X7519825Y-18580484D01*
X7519825Y-18580484D02*
X7538872Y-18590008D01*
X7538872Y-18590008D02*
X7548396Y-18599531D01*
X7548396Y-18599531D02*
X7557920Y-18618579D01*
X7557920Y-18618579D02*
X7567444Y-18656674D01*
X7567444Y-18656674D02*
X7567444Y-18704293D01*
X7567444Y-18704293D02*
X7557920Y-18742389D01*
X7557920Y-18742389D02*
X7548396Y-18761436D01*
X7548396Y-18761436D02*
X7538872Y-18770960D01*
X7538872Y-18770960D02*
X7519825Y-18780484D01*
X7519825Y-18780484D02*
X7500777Y-18780484D01*
X7500777Y-18780484D02*
X7481729Y-18770960D01*
X7481729Y-18770960D02*
X7472206Y-18761436D01*
X7472206Y-18761436D02*
X7462682Y-18742389D01*
X7462682Y-18742389D02*
X7453158Y-18704293D01*
X7453158Y-18704293D02*
X7453158Y-18656674D01*
X7453158Y-18656674D02*
X7462682Y-18618579D01*
X7462682Y-18618579D02*
X7472206Y-18599531D01*
X7472206Y-18599531D02*
X7481729Y-18590008D01*
X7481729Y-18590008D02*
X7500777Y-18580484D01*
X7643634Y-18580484D02*
X7643634Y-18618579D01*
X7719825Y-18580484D02*
X7719825Y-18618579D01*
X8015063Y-18856674D02*
X8005539Y-18847150D01*
X8005539Y-18847150D02*
X7986491Y-18818579D01*
X7986491Y-18818579D02*
X7976968Y-18799531D01*
X7976968Y-18799531D02*
X7967444Y-18770960D01*
X7967444Y-18770960D02*
X7957920Y-18723341D01*
X7957920Y-18723341D02*
X7957920Y-18685246D01*
X7957920Y-18685246D02*
X7967444Y-18637627D01*
X7967444Y-18637627D02*
X7976968Y-18609055D01*
X7976968Y-18609055D02*
X7986491Y-18590008D01*
X7986491Y-18590008D02*
X8005539Y-18561436D01*
X8005539Y-18561436D02*
X8015063Y-18551912D01*
X8176968Y-18647150D02*
X8176968Y-18780484D01*
X8129348Y-18570960D02*
X8081729Y-18713817D01*
X8081729Y-18713817D02*
X8205539Y-18713817D01*
X8434111Y-18780484D02*
X8434111Y-18580484D01*
X8519825Y-18780484D02*
X8519825Y-18675722D01*
X8519825Y-18675722D02*
X8510301Y-18656674D01*
X8510301Y-18656674D02*
X8491253Y-18647150D01*
X8491253Y-18647150D02*
X8462682Y-18647150D01*
X8462682Y-18647150D02*
X8443634Y-18656674D01*
X8443634Y-18656674D02*
X8434111Y-18666198D01*
X8643634Y-18780484D02*
X8624587Y-18770960D01*
X8624587Y-18770960D02*
X8615063Y-18761436D01*
X8615063Y-18761436D02*
X8605539Y-18742389D01*
X8605539Y-18742389D02*
X8605539Y-18685246D01*
X8605539Y-18685246D02*
X8615063Y-18666198D01*
X8615063Y-18666198D02*
X8624587Y-18656674D01*
X8624587Y-18656674D02*
X8643634Y-18647150D01*
X8643634Y-18647150D02*
X8672206Y-18647150D01*
X8672206Y-18647150D02*
X8691253Y-18656674D01*
X8691253Y-18656674D02*
X8700777Y-18666198D01*
X8700777Y-18666198D02*
X8710301Y-18685246D01*
X8710301Y-18685246D02*
X8710301Y-18742389D01*
X8710301Y-18742389D02*
X8700777Y-18761436D01*
X8700777Y-18761436D02*
X8691253Y-18770960D01*
X8691253Y-18770960D02*
X8672206Y-18780484D01*
X8672206Y-18780484D02*
X8643634Y-18780484D01*
X8824587Y-18780484D02*
X8805539Y-18770960D01*
X8805539Y-18770960D02*
X8796015Y-18751912D01*
X8796015Y-18751912D02*
X8796015Y-18580484D01*
X8976968Y-18770960D02*
X8957920Y-18780484D01*
X8957920Y-18780484D02*
X8919825Y-18780484D01*
X8919825Y-18780484D02*
X8900777Y-18770960D01*
X8900777Y-18770960D02*
X8891253Y-18751912D01*
X8891253Y-18751912D02*
X8891253Y-18675722D01*
X8891253Y-18675722D02*
X8900777Y-18656674D01*
X8900777Y-18656674D02*
X8919825Y-18647150D01*
X8919825Y-18647150D02*
X8957920Y-18647150D01*
X8957920Y-18647150D02*
X8976968Y-18656674D01*
X8976968Y-18656674D02*
X8986492Y-18675722D01*
X8986492Y-18675722D02*
X8986492Y-18694770D01*
X8986492Y-18694770D02*
X8891253Y-18713817D01*
X9062682Y-18770960D02*
X9081730Y-18780484D01*
X9081730Y-18780484D02*
X9119825Y-18780484D01*
X9119825Y-18780484D02*
X9138873Y-18770960D01*
X9138873Y-18770960D02*
X9148396Y-18751912D01*
X9148396Y-18751912D02*
X9148396Y-18742389D01*
X9148396Y-18742389D02*
X9138873Y-18723341D01*
X9138873Y-18723341D02*
X9119825Y-18713817D01*
X9119825Y-18713817D02*
X9091253Y-18713817D01*
X9091253Y-18713817D02*
X9072206Y-18704293D01*
X9072206Y-18704293D02*
X9062682Y-18685246D01*
X9062682Y-18685246D02*
X9062682Y-18675722D01*
X9062682Y-18675722D02*
X9072206Y-18656674D01*
X9072206Y-18656674D02*
X9091253Y-18647150D01*
X9091253Y-18647150D02*
X9119825Y-18647150D01*
X9119825Y-18647150D02*
X9138873Y-18656674D01*
X9215063Y-18856674D02*
X9224587Y-18847150D01*
X9224587Y-18847150D02*
X9243634Y-18818579D01*
X9243634Y-18818579D02*
X9253158Y-18799531D01*
X9253158Y-18799531D02*
X9262682Y-18770960D01*
X9262682Y-18770960D02*
X9272206Y-18723341D01*
X9272206Y-18723341D02*
X9272206Y-18685246D01*
X9272206Y-18685246D02*
X9262682Y-18637627D01*
X9262682Y-18637627D02*
X9253158Y-18609055D01*
X9253158Y-18609055D02*
X9243634Y-18590008D01*
X9243634Y-18590008D02*
X9224587Y-18561436D01*
X9224587Y-18561436D02*
X9215063Y-18551912D01*
X9576968Y-18856674D02*
X9567444Y-18847150D01*
X9567444Y-18847150D02*
X9548396Y-18818579D01*
X9548396Y-18818579D02*
X9538873Y-18799531D01*
X9538873Y-18799531D02*
X9529349Y-18770960D01*
X9529349Y-18770960D02*
X9519825Y-18723341D01*
X9519825Y-18723341D02*
X9519825Y-18685246D01*
X9519825Y-18685246D02*
X9529349Y-18637627D01*
X9529349Y-18637627D02*
X9538873Y-18609055D01*
X9538873Y-18609055D02*
X9548396Y-18590008D01*
X9548396Y-18590008D02*
X9567444Y-18561436D01*
X9567444Y-18561436D02*
X9576968Y-18551912D01*
X9653158Y-18647150D02*
X9653158Y-18780484D01*
X9653158Y-18666198D02*
X9662682Y-18656674D01*
X9662682Y-18656674D02*
X9681730Y-18647150D01*
X9681730Y-18647150D02*
X9710301Y-18647150D01*
X9710301Y-18647150D02*
X9729349Y-18656674D01*
X9729349Y-18656674D02*
X9738873Y-18675722D01*
X9738873Y-18675722D02*
X9738873Y-18780484D01*
X9862682Y-18780484D02*
X9843634Y-18770960D01*
X9843634Y-18770960D02*
X9834111Y-18761436D01*
X9834111Y-18761436D02*
X9824587Y-18742389D01*
X9824587Y-18742389D02*
X9824587Y-18685246D01*
X9824587Y-18685246D02*
X9834111Y-18666198D01*
X9834111Y-18666198D02*
X9843634Y-18656674D01*
X9843634Y-18656674D02*
X9862682Y-18647150D01*
X9862682Y-18647150D02*
X9891254Y-18647150D01*
X9891254Y-18647150D02*
X9910301Y-18656674D01*
X9910301Y-18656674D02*
X9919825Y-18666198D01*
X9919825Y-18666198D02*
X9929349Y-18685246D01*
X9929349Y-18685246D02*
X9929349Y-18742389D01*
X9929349Y-18742389D02*
X9919825Y-18761436D01*
X9919825Y-18761436D02*
X9910301Y-18770960D01*
X9910301Y-18770960D02*
X9891254Y-18780484D01*
X9891254Y-18780484D02*
X9862682Y-18780484D01*
X9986492Y-18647150D02*
X10062682Y-18647150D01*
X10015063Y-18580484D02*
X10015063Y-18751912D01*
X10015063Y-18751912D02*
X10024587Y-18770960D01*
X10024587Y-18770960D02*
X10043634Y-18780484D01*
X10043634Y-18780484D02*
X10062682Y-18780484D01*
X10281730Y-18647150D02*
X10281730Y-18847150D01*
X10281730Y-18656674D02*
X10300777Y-18647150D01*
X10300777Y-18647150D02*
X10338873Y-18647150D01*
X10338873Y-18647150D02*
X10357920Y-18656674D01*
X10357920Y-18656674D02*
X10367444Y-18666198D01*
X10367444Y-18666198D02*
X10376968Y-18685246D01*
X10376968Y-18685246D02*
X10376968Y-18742389D01*
X10376968Y-18742389D02*
X10367444Y-18761436D01*
X10367444Y-18761436D02*
X10357920Y-18770960D01*
X10357920Y-18770960D02*
X10338873Y-18780484D01*
X10338873Y-18780484D02*
X10300777Y-18780484D01*
X10300777Y-18780484D02*
X10281730Y-18770960D01*
X10491254Y-18780484D02*
X10472206Y-18770960D01*
X10472206Y-18770960D02*
X10462682Y-18751912D01*
X10462682Y-18751912D02*
X10462682Y-18580484D01*
X10653158Y-18780484D02*
X10653158Y-18675722D01*
X10653158Y-18675722D02*
X10643635Y-18656674D01*
X10643635Y-18656674D02*
X10624587Y-18647150D01*
X10624587Y-18647150D02*
X10586492Y-18647150D01*
X10586492Y-18647150D02*
X10567444Y-18656674D01*
X10653158Y-18770960D02*
X10634111Y-18780484D01*
X10634111Y-18780484D02*
X10586492Y-18780484D01*
X10586492Y-18780484D02*
X10567444Y-18770960D01*
X10567444Y-18770960D02*
X10557920Y-18751912D01*
X10557920Y-18751912D02*
X10557920Y-18732865D01*
X10557920Y-18732865D02*
X10567444Y-18713817D01*
X10567444Y-18713817D02*
X10586492Y-18704293D01*
X10586492Y-18704293D02*
X10634111Y-18704293D01*
X10634111Y-18704293D02*
X10653158Y-18694770D01*
X10719825Y-18647150D02*
X10796015Y-18647150D01*
X10748396Y-18580484D02*
X10748396Y-18751912D01*
X10748396Y-18751912D02*
X10757920Y-18770960D01*
X10757920Y-18770960D02*
X10776968Y-18780484D01*
X10776968Y-18780484D02*
X10796015Y-18780484D01*
X10938873Y-18770960D02*
X10919825Y-18780484D01*
X10919825Y-18780484D02*
X10881730Y-18780484D01*
X10881730Y-18780484D02*
X10862682Y-18770960D01*
X10862682Y-18770960D02*
X10853158Y-18751912D01*
X10853158Y-18751912D02*
X10853158Y-18675722D01*
X10853158Y-18675722D02*
X10862682Y-18656674D01*
X10862682Y-18656674D02*
X10881730Y-18647150D01*
X10881730Y-18647150D02*
X10919825Y-18647150D01*
X10919825Y-18647150D02*
X10938873Y-18656674D01*
X10938873Y-18656674D02*
X10948396Y-18675722D01*
X10948396Y-18675722D02*
X10948396Y-18694770D01*
X10948396Y-18694770D02*
X10853158Y-18713817D01*
X11119825Y-18780484D02*
X11119825Y-18580484D01*
X11119825Y-18770960D02*
X11100777Y-18780484D01*
X11100777Y-18780484D02*
X11062682Y-18780484D01*
X11062682Y-18780484D02*
X11043635Y-18770960D01*
X11043635Y-18770960D02*
X11034111Y-18761436D01*
X11034111Y-18761436D02*
X11024587Y-18742389D01*
X11024587Y-18742389D02*
X11024587Y-18685246D01*
X11024587Y-18685246D02*
X11034111Y-18666198D01*
X11034111Y-18666198D02*
X11043635Y-18656674D01*
X11043635Y-18656674D02*
X11062682Y-18647150D01*
X11062682Y-18647150D02*
X11100777Y-18647150D01*
X11100777Y-18647150D02*
X11119825Y-18656674D01*
X11196015Y-18856674D02*
X11205539Y-18847150D01*
X11205539Y-18847150D02*
X11224587Y-18818579D01*
X11224587Y-18818579D02*
X11234111Y-18799531D01*
X11234111Y-18799531D02*
X11243634Y-18770960D01*
X11243634Y-18770960D02*
X11253158Y-18723341D01*
X11253158Y-18723341D02*
X11253158Y-18685246D01*
X11253158Y-18685246D02*
X11243634Y-18637627D01*
X11243634Y-18637627D02*
X11234111Y-18609055D01*
X11234111Y-18609055D02*
X11224587Y-18590008D01*
X11224587Y-18590008D02*
X11205539Y-18561436D01*
X11205539Y-18561436D02*
X11196015Y-18551912D01*
M02*
