M48
; DRILL file {KiCad 9.0.5} date 2025-10-18T13:07:28+0100
; FORMAT={-:-/ absolute / metric / decimal}
; #@! TF.CreationDate,2025-10-18T13:07:28+01:00
; #@! TF.GenerationSoftware,Kicad,Pcbnew,9.0.5
; #@! TF.FileFunction,Plated,1,4,PTH
FMAT,2
METRIC
; #@! TA.AperFunction,Plated,PTH,ViaDrill
T1C0.300
; #@! TA.AperFunction,Plated,PTH,ViaDrill
T2C0.400
; #@! TA.AperFunction,Plated,PTH,ComponentDrill
T3C0.500
%
G90
G05
T1
X115.111Y-38.485
X115.111Y-72.885
X115.158Y-39.345
X115.158Y-73.745
X115.797Y-40.173
X115.797Y-74.573
X115.97Y-38.591
X115.97Y-72.991
X116.365Y-36.79
X116.365Y-71.19
X116.528Y-43.113
X116.528Y-77.513
X116.561Y-38.233
X116.561Y-72.633
X116.909Y-43.748
X116.909Y-78.148
X116.942Y-36.335
X116.942Y-70.735
X116.954Y-37.438
X116.954Y-71.838
X117.48Y-35.947
X117.48Y-70.347
X118.302Y-45.272
X118.302Y-79.672
X118.306Y-36.255
X118.306Y-70.655
X123.837Y-36.089
X123.837Y-70.489
X124.077Y-36.798
X124.077Y-71.198
X124.402Y-35.747
X124.402Y-70.147
X125.672Y-43.153
X125.672Y-77.553
X126.403Y-42.382
X126.403Y-76.782
X126.688Y-42.986
X126.688Y-77.386
X127.187Y-41.606
X127.187Y-76.006
X127.523Y-42.18
X127.523Y-76.58
X142.511Y-38.485
X142.511Y-72.885
X142.558Y-39.345
X142.558Y-73.745
X143.197Y-40.173
X143.197Y-74.573
X143.37Y-38.591
X143.37Y-72.991
X143.765Y-36.79
X143.765Y-71.19
X143.928Y-43.113
X143.928Y-77.513
X143.961Y-38.233
X143.961Y-72.633
X144.309Y-43.748
X144.309Y-78.148
X144.342Y-36.335
X144.342Y-70.735
X144.354Y-37.438
X144.354Y-71.838
X144.88Y-35.947
X144.88Y-70.347
X145.702Y-45.272
X145.702Y-79.672
X145.706Y-36.255
X145.706Y-70.655
X151.237Y-36.089
X151.237Y-70.489
X151.477Y-36.798
X151.477Y-71.198
X151.802Y-35.747
X151.802Y-70.147
X153.072Y-43.153
X153.072Y-77.553
X153.803Y-42.382
X153.803Y-76.782
X154.088Y-42.986
X154.088Y-77.386
X154.587Y-41.606
X154.587Y-76.006
X154.923Y-42.18
X154.923Y-76.58
X169.911Y-38.485
X169.911Y-72.885
X169.958Y-39.345
X169.958Y-73.745
X170.597Y-40.173
X170.597Y-74.573
X170.77Y-38.591
X170.77Y-72.991
X171.165Y-36.79
X171.165Y-71.19
X171.328Y-43.113
X171.328Y-77.513
X171.361Y-38.233
X171.361Y-72.633
X171.709Y-43.748
X171.709Y-78.148
X171.742Y-36.335
X171.742Y-70.735
X171.754Y-37.438
X171.754Y-71.838
X172.28Y-35.947
X172.28Y-70.347
X173.102Y-45.272
X173.102Y-79.672
X173.106Y-36.255
X173.106Y-70.655
X178.637Y-36.089
X178.637Y-70.489
X178.877Y-36.798
X178.877Y-71.198
X179.202Y-35.747
X179.202Y-70.147
X180.472Y-43.153
X180.472Y-77.553
X181.203Y-42.382
X181.203Y-76.782
X181.488Y-42.986
X181.488Y-77.386
X181.987Y-41.606
X181.987Y-76.006
X182.323Y-42.18
X182.323Y-76.58
T2
X109.162Y-40.7
X109.162Y-75.1
X109.416Y-29.016
X109.416Y-52.384
X109.416Y-63.416
X109.416Y-86.784
X110.432Y-29.016
X110.432Y-63.416
X110.94Y-43.367
X110.94Y-77.767
X111.448Y-29.016
X111.448Y-63.416
X111.956Y-41.97
X111.956Y-76.37
X112.169Y-36.636
X112.169Y-71.036
X112.464Y-29.016
X112.464Y-34.858
X112.464Y-39.43
X112.464Y-40.7
X112.464Y-63.416
X112.464Y-69.258
X112.464Y-73.83
X112.464Y-75.1
X112.972Y-44.637
X112.972Y-79.037
X113.48Y-29.016
X113.48Y-63.416
X114.242Y-44.637
X114.242Y-79.037
X114.496Y-29.016
X114.496Y-63.416
X115.258Y-44.723
X115.258Y-79.123
X115.512Y-29.016
X115.512Y-63.416
X116.528Y-29.016
X116.528Y-63.416
X116.655Y-41.749
X116.655Y-76.149
X117.544Y-29.016
X117.544Y-63.416
X117.712Y-44.637
X117.712Y-79.037
X118.029Y-48.851
X118.029Y-83.251
X118.052Y-52.384
X118.052Y-86.784
X118.127Y-47.817
X118.127Y-82.217
X118.56Y-29.016
X118.56Y-63.416
X118.687Y-31.937
X118.687Y-66.337
X119.068Y-52.384
X119.068Y-86.784
X119.151Y-34.426
X119.151Y-68.826
X119.22Y-33.156
X119.22Y-67.556
X119.322Y-38.922
X119.322Y-39.811
X119.322Y-40.7
X119.322Y-41.589
X119.322Y-42.478
X119.322Y-73.322
X119.322Y-74.211
X119.322Y-75.1
X119.322Y-75.989
X119.322Y-76.878
X119.576Y-29.016
X119.576Y-63.416
X119.83Y-32.191
X119.83Y-66.591
X120.084Y-52.384
X120.084Y-86.784
X120.211Y-38.922
X120.211Y-39.811
X120.211Y-40.7
X120.211Y-41.589
X120.211Y-42.478
X120.211Y-73.322
X120.211Y-74.211
X120.211Y-75.1
X120.211Y-75.989
X120.211Y-76.878
X120.338Y-45.399
X120.338Y-79.799
X120.437Y-48.729
X120.437Y-83.129
X120.592Y-29.016
X120.592Y-63.416
X121.1Y-38.922
X121.1Y-39.811
X121.1Y-40.7
X121.1Y-41.589
X121.1Y-42.478
X121.1Y-52.384
X121.1Y-73.322
X121.1Y-74.211
X121.1Y-75.1
X121.1Y-75.989
X121.1Y-76.878
X121.1Y-86.784
X121.199Y-34.376
X121.199Y-68.776
X121.989Y-38.922
X121.989Y-39.811
X121.989Y-40.7
X121.989Y-41.589
X121.989Y-42.478
X121.989Y-73.322
X121.989Y-74.211
X121.989Y-75.1
X121.989Y-75.989
X121.989Y-76.878
X122.116Y-52.384
X122.116Y-86.784
X122.592Y-45.875
X122.592Y-80.275
X122.878Y-38.922
X122.878Y-39.811
X122.878Y-40.7
X122.878Y-41.589
X122.878Y-42.478
X122.878Y-73.322
X122.878Y-74.211
X122.878Y-75.1
X122.878Y-75.989
X122.878Y-76.878
X123.132Y-52.384
X123.132Y-86.784
X124.148Y-52.384
X124.148Y-86.784
X124.402Y-48.574
X124.402Y-82.974
X124.783Y-31.81
X124.783Y-66.21
X125.164Y-52.384
X125.164Y-86.784
X125.799Y-48.701
X125.799Y-83.101
X126.18Y-46.796
X126.18Y-52.384
X126.18Y-81.196
X126.18Y-86.784
X126.477Y-31.879
X126.477Y-66.279
X126.603Y-44.588
X126.603Y-78.988
X126.815Y-36.128
X126.815Y-70.528
X127.069Y-32.779
X127.069Y-67.179
X127.196Y-52.384
X127.196Y-86.784
X127.421Y-39.708
X127.421Y-74.108
X127.577Y-44.891
X127.577Y-79.291
X128.196Y-31.864
X128.196Y-66.264
X128.212Y-52.384
X128.212Y-86.784
X128.448Y-40.293
X128.448Y-74.693
X128.593Y-36.001
X128.593Y-70.401
X128.974Y-49.59
X128.974Y-83.99
X129.58Y-37.898
X129.58Y-72.298
X129.863Y-40.827
X129.863Y-45.018
X129.863Y-75.227
X129.863Y-79.418
X130.752Y-29.016
X130.752Y-63.416
X131.133Y-50.352
X131.133Y-84.752
X131.768Y-29.016
X131.768Y-52.384
X131.768Y-63.416
X131.768Y-86.784
X132.784Y-29.016
X132.784Y-52.384
X132.784Y-63.416
X132.784Y-86.784
X136.562Y-40.7
X136.562Y-75.1
X136.816Y-29.016
X136.816Y-52.384
X136.816Y-63.416
X136.816Y-86.784
X137.832Y-29.016
X137.832Y-63.416
X138.34Y-43.367
X138.34Y-77.767
X138.848Y-29.016
X138.848Y-63.416
X139.356Y-41.97
X139.356Y-76.37
X139.569Y-36.636
X139.569Y-71.036
X139.864Y-29.016
X139.864Y-34.858
X139.864Y-39.43
X139.864Y-40.7
X139.864Y-63.416
X139.864Y-69.258
X139.864Y-73.83
X139.864Y-75.1
X140.372Y-44.637
X140.372Y-79.037
X140.88Y-29.016
X140.88Y-63.416
X141.642Y-44.637
X141.642Y-79.037
X141.896Y-29.016
X141.896Y-63.416
X142.658Y-44.723
X142.658Y-79.123
X142.912Y-29.016
X142.912Y-63.416
X143.928Y-29.016
X143.928Y-63.416
X144.055Y-41.749
X144.055Y-76.149
X144.944Y-29.016
X144.944Y-63.416
X145.112Y-44.637
X145.112Y-79.037
X145.429Y-48.851
X145.429Y-83.251
X145.452Y-52.384
X145.452Y-86.784
X145.527Y-47.817
X145.527Y-82.217
X145.96Y-29.016
X145.96Y-63.416
X146.087Y-31.937
X146.087Y-66.337
X146.468Y-52.384
X146.468Y-86.784
X146.551Y-34.426
X146.551Y-68.826
X146.62Y-33.156
X146.62Y-67.556
X146.722Y-38.922
X146.722Y-39.811
X146.722Y-40.7
X146.722Y-41.589
X146.722Y-42.478
X146.722Y-73.322
X146.722Y-74.211
X146.722Y-75.1
X146.722Y-75.989
X146.722Y-76.878
X146.976Y-29.016
X146.976Y-63.416
X147.23Y-32.191
X147.23Y-66.591
X147.484Y-52.384
X147.484Y-86.784
X147.611Y-38.922
X147.611Y-39.811
X147.611Y-40.7
X147.611Y-41.589
X147.611Y-42.478
X147.611Y-73.322
X147.611Y-74.211
X147.611Y-75.1
X147.611Y-75.989
X147.611Y-76.878
X147.738Y-45.399
X147.738Y-79.799
X147.837Y-48.729
X147.837Y-83.129
X147.992Y-29.016
X147.992Y-63.416
X148.5Y-38.922
X148.5Y-39.811
X148.5Y-40.7
X148.5Y-41.589
X148.5Y-42.478
X148.5Y-52.384
X148.5Y-73.322
X148.5Y-74.211
X148.5Y-75.1
X148.5Y-75.989
X148.5Y-76.878
X148.5Y-86.784
X148.599Y-34.376
X148.599Y-68.776
X149.389Y-38.922
X149.389Y-39.811
X149.389Y-40.7
X149.389Y-41.589
X149.389Y-42.478
X149.389Y-73.322
X149.389Y-74.211
X149.389Y-75.1
X149.389Y-75.989
X149.389Y-76.878
X149.516Y-52.384
X149.516Y-86.784
X149.992Y-45.875
X149.992Y-80.275
X150.278Y-38.922
X150.278Y-39.811
X150.278Y-40.7
X150.278Y-41.589
X150.278Y-42.478
X150.278Y-73.322
X150.278Y-74.211
X150.278Y-75.1
X150.278Y-75.989
X150.278Y-76.878
X150.532Y-52.384
X150.532Y-86.784
X151.548Y-52.384
X151.548Y-86.784
X151.802Y-48.574
X151.802Y-82.974
X152.183Y-31.81
X152.183Y-66.21
X152.564Y-52.384
X152.564Y-86.784
X153.199Y-48.701
X153.199Y-83.101
X153.58Y-46.796
X153.58Y-52.384
X153.58Y-81.196
X153.58Y-86.784
X153.877Y-31.879
X153.877Y-66.279
X154.003Y-44.588
X154.003Y-78.988
X154.215Y-36.128
X154.215Y-70.528
X154.469Y-32.779
X154.469Y-67.179
X154.596Y-52.384
X154.596Y-86.784
X154.821Y-39.708
X154.821Y-74.108
X154.977Y-44.891
X154.977Y-79.291
X155.596Y-31.864
X155.596Y-66.264
X155.612Y-52.384
X155.612Y-86.784
X155.848Y-40.293
X155.848Y-74.693
X155.993Y-36.001
X155.993Y-70.401
X156.374Y-49.59
X156.374Y-83.99
X156.98Y-37.898
X156.98Y-72.298
X157.263Y-40.827
X157.263Y-45.018
X157.263Y-75.227
X157.263Y-79.418
X158.152Y-29.016
X158.152Y-63.416
X158.533Y-50.352
X158.533Y-84.752
X159.168Y-29.016
X159.168Y-52.384
X159.168Y-63.416
X159.168Y-86.784
X160.184Y-29.016
X160.184Y-52.384
X160.184Y-63.416
X160.184Y-86.784
X163.962Y-40.7
X163.962Y-75.1
X164.216Y-29.016
X164.216Y-52.384
X164.216Y-63.416
X164.216Y-86.784
X165.232Y-29.016
X165.232Y-63.416
X165.74Y-43.367
X165.74Y-77.767
X166.248Y-29.016
X166.248Y-63.416
X166.756Y-41.97
X166.756Y-76.37
X166.969Y-36.636
X166.969Y-71.036
X167.264Y-29.016
X167.264Y-34.858
X167.264Y-39.43
X167.264Y-40.7
X167.264Y-63.416
X167.264Y-69.258
X167.264Y-73.83
X167.264Y-75.1
X167.772Y-44.637
X167.772Y-79.037
X168.28Y-29.016
X168.28Y-63.416
X169.042Y-44.637
X169.042Y-79.037
X169.296Y-29.016
X169.296Y-63.416
X170.058Y-44.723
X170.058Y-79.123
X170.312Y-29.016
X170.312Y-63.416
X171.328Y-29.016
X171.328Y-63.416
X171.455Y-41.749
X171.455Y-76.149
X172.344Y-29.016
X172.344Y-63.416
X172.512Y-44.637
X172.512Y-79.037
X172.829Y-48.851
X172.829Y-83.251
X172.852Y-52.384
X172.852Y-86.784
X172.927Y-47.817
X172.927Y-82.217
X173.36Y-29.016
X173.36Y-63.416
X173.487Y-31.937
X173.487Y-66.337
X173.868Y-52.384
X173.868Y-86.784
X173.951Y-34.426
X173.951Y-68.826
X174.02Y-33.156
X174.02Y-67.556
X174.122Y-38.922
X174.122Y-39.811
X174.122Y-40.7
X174.122Y-41.589
X174.122Y-42.478
X174.122Y-73.322
X174.122Y-74.211
X174.122Y-75.1
X174.122Y-75.989
X174.122Y-76.878
X174.376Y-29.016
X174.376Y-63.416
X174.63Y-32.191
X174.63Y-66.591
X174.884Y-52.384
X174.884Y-86.784
X175.011Y-38.922
X175.011Y-39.811
X175.011Y-40.7
X175.011Y-41.589
X175.011Y-42.478
X175.011Y-73.322
X175.011Y-74.211
X175.011Y-75.1
X175.011Y-75.989
X175.011Y-76.878
X175.138Y-45.399
X175.138Y-79.799
X175.237Y-48.729
X175.237Y-83.129
X175.392Y-29.016
X175.392Y-63.416
X175.9Y-38.922
X175.9Y-39.811
X175.9Y-40.7
X175.9Y-41.589
X175.9Y-42.478
X175.9Y-52.384
X175.9Y-73.322
X175.9Y-74.211
X175.9Y-75.1
X175.9Y-75.989
X175.9Y-76.878
X175.9Y-86.784
X175.999Y-34.376
X175.999Y-68.776
X176.789Y-38.922
X176.789Y-39.811
X176.789Y-40.7
X176.789Y-41.589
X176.789Y-42.478
X176.789Y-73.322
X176.789Y-74.211
X176.789Y-75.1
X176.789Y-75.989
X176.789Y-76.878
X176.916Y-52.384
X176.916Y-86.784
X177.392Y-45.875
X177.392Y-80.275
X177.678Y-38.922
X177.678Y-39.811
X177.678Y-40.7
X177.678Y-41.589
X177.678Y-42.478
X177.678Y-73.322
X177.678Y-74.211
X177.678Y-75.1
X177.678Y-75.989
X177.678Y-76.878
X177.932Y-52.384
X177.932Y-86.784
X178.948Y-52.384
X178.948Y-86.784
X179.202Y-48.574
X179.202Y-82.974
X179.583Y-31.81
X179.583Y-66.21
X179.964Y-52.384
X179.964Y-86.784
X180.599Y-48.701
X180.599Y-83.101
X180.98Y-46.796
X180.98Y-52.384
X180.98Y-81.196
X180.98Y-86.784
X181.277Y-31.879
X181.277Y-66.279
X181.403Y-44.588
X181.403Y-78.988
X181.615Y-36.128
X181.615Y-70.528
X181.869Y-32.779
X181.869Y-67.179
X181.996Y-52.384
X181.996Y-86.784
X182.221Y-39.708
X182.221Y-74.108
X182.377Y-44.891
X182.377Y-79.291
X182.996Y-31.864
X182.996Y-66.264
X183.012Y-52.384
X183.012Y-86.784
X183.248Y-40.293
X183.248Y-74.693
X183.393Y-36.001
X183.393Y-70.401
X183.774Y-49.59
X183.774Y-83.99
X184.38Y-37.898
X184.38Y-72.298
X184.663Y-40.827
X184.663Y-45.018
X184.663Y-75.227
X184.663Y-79.418
X185.552Y-29.016
X185.552Y-63.416
X185.933Y-50.352
X185.933Y-84.752
X186.568Y-29.016
X186.568Y-52.384
X186.568Y-63.416
X186.568Y-86.784
X187.584Y-29.016
X187.584Y-52.384
X187.584Y-63.416
X187.584Y-86.784
T3
X108.4Y-30.54
X108.4Y-31.81
X108.4Y-33.08
X108.4Y-34.35
X108.4Y-35.62
X108.4Y-36.89
X108.4Y-38.16
X108.4Y-39.43
X108.4Y-41.97
X108.4Y-43.24
X108.4Y-44.51
X108.4Y-45.78
X108.4Y-47.05
X108.4Y-48.32
X108.4Y-49.59
X108.4Y-50.86
X108.4Y-64.94
X108.4Y-66.21
X108.4Y-67.48
X108.4Y-68.75
X108.4Y-70.02
X108.4Y-71.29
X108.4Y-72.56
X108.4Y-73.83
X108.4Y-76.37
X108.4Y-77.64
X108.4Y-78.91
X108.4Y-80.18
X108.4Y-81.45
X108.4Y-82.72
X108.4Y-83.99
X108.4Y-85.26
X133.8Y-30.54
X133.8Y-31.81
X133.8Y-33.08
X133.8Y-34.35
X133.8Y-35.62
X133.8Y-36.89
X133.8Y-38.16
X133.8Y-39.43
X133.8Y-40.7
X133.8Y-41.97
X133.8Y-43.24
X133.8Y-44.51
X133.8Y-45.78
X133.8Y-47.05
X133.8Y-48.32
X133.8Y-49.59
X133.8Y-50.86
X133.8Y-64.94
X133.8Y-66.21
X133.8Y-67.48
X133.8Y-68.75
X133.8Y-70.02
X133.8Y-71.29
X133.8Y-72.56
X133.8Y-73.83
X133.8Y-75.1
X133.8Y-76.37
X133.8Y-77.64
X133.8Y-78.91
X133.8Y-80.18
X133.8Y-81.45
X133.8Y-82.72
X133.8Y-83.99
X133.8Y-85.26
X135.8Y-30.54
X135.8Y-31.81
X135.8Y-33.08
X135.8Y-34.35
X135.8Y-35.62
X135.8Y-36.89
X135.8Y-38.16
X135.8Y-39.43
X135.8Y-41.97
X135.8Y-43.24
X135.8Y-44.51
X135.8Y-45.78
X135.8Y-47.05
X135.8Y-48.32
X135.8Y-49.59
X135.8Y-50.86
X135.8Y-64.94
X135.8Y-66.21
X135.8Y-67.48
X135.8Y-68.75
X135.8Y-70.02
X135.8Y-71.29
X135.8Y-72.56
X135.8Y-73.83
X135.8Y-76.37
X135.8Y-77.64
X135.8Y-78.91
X135.8Y-80.18
X135.8Y-81.45
X135.8Y-82.72
X135.8Y-83.99
X135.8Y-85.26
X161.2Y-30.54
X161.2Y-31.81
X161.2Y-33.08
X161.2Y-34.35
X161.2Y-35.62
X161.2Y-36.89
X161.2Y-38.16
X161.2Y-39.43
X161.2Y-40.7
X161.2Y-41.97
X161.2Y-43.24
X161.2Y-44.51
X161.2Y-45.78
X161.2Y-47.05
X161.2Y-48.32
X161.2Y-49.59
X161.2Y-50.86
X161.2Y-64.94
X161.2Y-66.21
X161.2Y-67.48
X161.2Y-68.75
X161.2Y-70.02
X161.2Y-71.29
X161.2Y-72.56
X161.2Y-73.83
X161.2Y-75.1
X161.2Y-76.37
X161.2Y-77.64
X161.2Y-78.91
X161.2Y-80.18
X161.2Y-81.45
X161.2Y-82.72
X161.2Y-83.99
X161.2Y-85.26
X163.2Y-30.54
X163.2Y-31.81
X163.2Y-33.08
X163.2Y-34.35
X163.2Y-35.62
X163.2Y-36.89
X163.2Y-38.16
X163.2Y-39.43
X163.2Y-41.97
X163.2Y-43.24
X163.2Y-44.51
X163.2Y-45.78
X163.2Y-47.05
X163.2Y-48.32
X163.2Y-49.59
X163.2Y-50.86
X163.2Y-64.94
X163.2Y-66.21
X163.2Y-67.48
X163.2Y-68.75
X163.2Y-70.02
X163.2Y-71.29
X163.2Y-72.56
X163.2Y-73.83
X163.2Y-76.37
X163.2Y-77.64
X163.2Y-78.91
X163.2Y-80.18
X163.2Y-81.45
X163.2Y-82.72
X163.2Y-83.99
X163.2Y-85.26
X188.6Y-30.54
X188.6Y-31.81
X188.6Y-33.08
X188.6Y-34.35
X188.6Y-35.62
X188.6Y-36.89
X188.6Y-38.16
X188.6Y-39.43
X188.6Y-40.7
X188.6Y-41.97
X188.6Y-43.24
X188.6Y-44.51
X188.6Y-45.78
X188.6Y-47.05
X188.6Y-48.32
X188.6Y-49.59
X188.6Y-50.86
X188.6Y-64.94
X188.6Y-66.21
X188.6Y-67.48
X188.6Y-68.75
X188.6Y-70.02
X188.6Y-71.29
X188.6Y-72.56
X188.6Y-73.83
X188.6Y-75.1
X188.6Y-76.37
X188.6Y-77.64
X188.6Y-78.91
X188.6Y-80.18
X188.6Y-81.45
X188.6Y-82.72
X188.6Y-83.99
X188.6Y-85.26
M30
