%TF.GenerationSoftware,KiCad,Pcbnew,9.0.5*%
%TF.CreationDate,2025-10-18T13:07:23+01:00*%
%TF.ProjectId,pmic_panel,706d6963-5f70-4616-9e65-6c2e6b696361,rev?*%
%TF.SameCoordinates,Original*%
%TF.FileFunction,Soldermask,Top*%
%TF.FilePolarity,Negative*%
%FSLAX46Y46*%
G04 Gerber Fmt 4.6, Leading zero omitted, Abs format (unit mm)*
G04 Created by KiCad (PCBNEW 9.0.5) date 2025-10-18 13:07:23*
%MOMM*%
%LPD*%
G01*
G04 APERTURE LIST*
G04 Aperture macros list*
%AMRoundRect*
0 Rectangle with rounded corners*
0 $1 Rounding radius*
0 $2 $3 $4 $5 $6 $7 $8 $9 X,Y pos of 4 corners*
0 Add a 4 corners polygon primitive as box body*
4,1,4,$2,$3,$4,$5,$6,$7,$8,$9,$2,$3,0*
0 Add four circle primitives for the rounded corners*
1,1,$1+$1,$2,$3*
1,1,$1+$1,$4,$5*
1,1,$1+$1,$6,$7*
1,1,$1+$1,$8,$9*
0 Add four rect primitives between the rounded corners*
20,1,$1+$1,$2,$3,$4,$5,0*
20,1,$1+$1,$4,$5,$6,$7,0*
20,1,$1+$1,$6,$7,$8,$9,0*
20,1,$1+$1,$8,$9,$2,$3,0*%
G04 Aperture macros list end*
%ADD10RoundRect,0.225000X-0.250000X0.225000X-0.250000X-0.225000X0.250000X-0.225000X0.250000X0.225000X0*%
%ADD11RoundRect,0.140000X-0.140000X-0.170000X0.140000X-0.170000X0.140000X0.170000X-0.140000X0.170000X0*%
%ADD12RoundRect,0.218750X-0.218750X-0.381250X0.218750X-0.381250X0.218750X0.381250X-0.218750X0.381250X0*%
%ADD13C,0.500000*%
%ADD14RoundRect,0.140000X-0.170000X0.140000X-0.170000X-0.140000X0.170000X-0.140000X0.170000X0.140000X0*%
%ADD15RoundRect,0.250000X-0.375000X-0.850000X0.375000X-0.850000X0.375000X0.850000X-0.375000X0.850000X0*%
%ADD16RoundRect,0.250000X0.850000X-0.375000X0.850000X0.375000X-0.850000X0.375000X-0.850000X-0.375000X0*%
%ADD17RoundRect,0.225000X0.225000X0.250000X-0.225000X0.250000X-0.225000X-0.250000X0.225000X-0.250000X0*%
%ADD18RoundRect,0.250000X0.250000X0.475000X-0.250000X0.475000X-0.250000X-0.475000X0.250000X-0.475000X0*%
%ADD19RoundRect,0.218750X0.381250X-0.218750X0.381250X0.218750X-0.381250X0.218750X-0.381250X-0.218750X0*%
%ADD20R,0.736600X0.177800*%
%ADD21R,0.177800X0.736600*%
%ADD22R,4.546600X4.546600*%
%ADD23RoundRect,0.225000X0.250000X-0.225000X0.250000X0.225000X-0.250000X0.225000X-0.250000X-0.225000X0*%
%ADD24RoundRect,0.225000X-0.225000X-0.250000X0.225000X-0.250000X0.225000X0.250000X-0.225000X0.250000X0*%
%ADD25RoundRect,0.250000X0.475000X-0.250000X0.475000X0.250000X-0.475000X0.250000X-0.475000X-0.250000X0*%
%ADD26RoundRect,0.140000X0.140000X0.170000X-0.140000X0.170000X-0.140000X-0.170000X0.140000X-0.170000X0*%
%ADD27C,1.500000*%
%ADD28RoundRect,0.120000X-0.880000X-0.280000X0.880000X-0.280000X0.880000X0.280000X-0.880000X0.280000X0*%
%ADD29RoundRect,0.250000X-0.475000X0.250000X-0.475000X-0.250000X0.475000X-0.250000X0.475000X0.250000X0*%
%ADD30RoundRect,0.218750X0.218750X0.381250X-0.218750X0.381250X-0.218750X-0.381250X0.218750X-0.381250X0*%
%ADD31C,1.000000*%
G04 APERTURE END LIST*
D10*
%TO.C,C31*%
X170947000Y-84993000D03*
X170947000Y-86543000D03*
%TD*%
D11*
%TO.C,C23*%
X165387000Y-78910000D03*
X166347000Y-78910000D03*
%TD*%
D12*
%TO.C,L2*%
X173821500Y-49844000D03*
X175946500Y-49844000D03*
%TD*%
D13*
%TO.C,KiKit_MB_6_1*%
X150733333Y-28200000D03*
%TD*%
%TO.C,KiKit_MB_21_5*%
X173666666Y-62600000D03*
%TD*%
%TO.C,KiKit_MB_24_2*%
X181133333Y-87600000D03*
%TD*%
D11*
%TO.C,C26*%
X110587000Y-33080000D03*
X111547000Y-33080000D03*
%TD*%
%TO.C,C24*%
X165387000Y-70020000D03*
X166347000Y-70020000D03*
%TD*%
D14*
%TO.C,C17*%
X145071000Y-80462000D03*
X145071000Y-81422000D03*
%TD*%
D11*
%TO.C,C1*%
X153862000Y-78148000D03*
X154822000Y-78148000D03*
%TD*%
D15*
%TO.C,L6*%
X177746000Y-84752000D03*
X179896000Y-84752000D03*
%TD*%
D16*
%TO.C,L7*%
X127577000Y-50538000D03*
X127577000Y-48388000D03*
%TD*%
D10*
%TO.C,C9*%
X123513000Y-80548000D03*
X123513000Y-82098000D03*
%TD*%
D12*
%TO.C,L1*%
X156200500Y-76116000D03*
X158325500Y-76116000D03*
%TD*%
D17*
%TO.C,C38*%
X178199000Y-29778000D03*
X176649000Y-29778000D03*
%TD*%
D13*
%TO.C,KiKit_MB_22_2*%
X179133333Y-62600000D03*
%TD*%
%TO.C,KiKit_MB_14_1*%
X123333333Y-62600000D03*
%TD*%
D18*
%TO.C,C7*%
X158213000Y-78275000D03*
X156313000Y-78275000D03*
%TD*%
D19*
%TO.C,L3*%
X180980000Y-69304500D03*
X180980000Y-67179500D03*
%TD*%
D10*
%TO.C,C34*%
X110813000Y-84993000D03*
X110813000Y-86543000D03*
%TD*%
D11*
%TO.C,C24*%
X165387000Y-35620000D03*
X166347000Y-35620000D03*
%TD*%
D17*
%TO.C,C21*%
X170325000Y-43113000D03*
X168775000Y-43113000D03*
%TD*%
D13*
%TO.C,KiKit_MB_35_4*%
X194100000Y-28000000D03*
%TD*%
D10*
%TO.C,C41*%
X182758000Y-67594000D03*
X182758000Y-69144000D03*
%TD*%
D12*
%TO.C,L1*%
X183600500Y-41716000D03*
X185725500Y-41716000D03*
%TD*%
D20*
%TO.C,U1*%
X145312300Y-72499675D03*
X145312300Y-72899725D03*
X145312300Y-73299775D03*
X145312300Y-73699825D03*
X145312300Y-74099875D03*
X145312300Y-74499925D03*
X145312300Y-74899975D03*
X145312300Y-75300025D03*
X145312300Y-75700075D03*
X145312300Y-76100125D03*
X145312300Y-76500175D03*
X145312300Y-76900225D03*
X145312300Y-77300275D03*
X145312300Y-77700325D03*
D21*
X145899675Y-78287700D03*
X146299725Y-78287700D03*
X146699775Y-78287700D03*
X147099825Y-78287700D03*
X147499875Y-78287700D03*
X147899925Y-78287700D03*
X148299975Y-78287700D03*
X148700025Y-78287700D03*
X149100075Y-78287700D03*
X149500125Y-78287700D03*
X149900175Y-78287700D03*
X150300225Y-78287700D03*
X150700275Y-78287700D03*
X151100325Y-78287700D03*
D20*
X151687700Y-77700325D03*
X151687700Y-77300275D03*
X151687700Y-76900225D03*
X151687700Y-76500175D03*
X151687700Y-76100125D03*
X151687700Y-75700075D03*
X151687700Y-75300025D03*
X151687700Y-74899975D03*
X151687700Y-74499925D03*
X151687700Y-74099875D03*
X151687700Y-73699825D03*
X151687700Y-73299775D03*
X151687700Y-72899725D03*
X151687700Y-72499675D03*
D21*
X151100325Y-71912300D03*
X150700275Y-71912300D03*
X150300225Y-71912300D03*
X149900175Y-71912300D03*
X149500125Y-71912300D03*
X149100075Y-71912300D03*
X148700025Y-71912300D03*
X148299975Y-71912300D03*
X147899925Y-71912300D03*
X147499875Y-71912300D03*
X147099825Y-71912300D03*
X146699775Y-71912300D03*
X146299725Y-71912300D03*
X145899675Y-71912300D03*
D22*
X148500000Y-75100000D03*
%TD*%
D23*
%TO.C,C32*%
X129990000Y-49476000D03*
X129990000Y-47926000D03*
%TD*%
D13*
%TO.C,KiKit_MB_30_4*%
X188600000Y-22500000D03*
%TD*%
D24*
%TO.C,C13*%
X181475000Y-71544000D03*
X183025000Y-71544000D03*
%TD*%
D25*
%TO.C,C4*%
X168534000Y-82654000D03*
X168534000Y-80754000D03*
%TD*%
D17*
%TO.C,C21*%
X115525000Y-43113000D03*
X113975000Y-43113000D03*
%TD*%
D13*
%TO.C,KiKit_MB_13_2*%
X115866667Y-62600000D03*
%TD*%
%TO.C,KiKit_MB_11_5*%
X169666666Y-53200000D03*
%TD*%
%TO.C,KiKit_MB_25_5*%
X162200000Y-56900000D03*
%TD*%
D12*
%TO.C,L2*%
X119021500Y-49844000D03*
X121146500Y-49844000D03*
%TD*%
D18*
%TO.C,C6*%
X158213000Y-46161000D03*
X156313000Y-46161000D03*
%TD*%
D26*
%TO.C,C16*%
X169268000Y-38922000D03*
X168308000Y-38922000D03*
%TD*%
D11*
%TO.C,C27*%
X165387000Y-31810000D03*
X166347000Y-31810000D03*
%TD*%
D27*
%TO.C,KiKit_TO_3*%
X102900000Y-93300000D03*
%TD*%
D10*
%TO.C,C5*%
X139991000Y-50593000D03*
X139991000Y-52143000D03*
%TD*%
D11*
%TO.C,C1*%
X181262000Y-43748000D03*
X182222000Y-43748000D03*
%TD*%
%TO.C,C18*%
X165387000Y-45780000D03*
X166347000Y-45780000D03*
%TD*%
D26*
%TO.C,C15*%
X143138000Y-72179000D03*
X142178000Y-72179000D03*
%TD*%
D28*
%TO.C,U2*%
X108400000Y-64940000D03*
X108400000Y-66210000D03*
X108400000Y-67480000D03*
X108400000Y-68750000D03*
X108400000Y-70020000D03*
X108400000Y-71290000D03*
X108400000Y-72560000D03*
X108400000Y-73830000D03*
X108400000Y-76370000D03*
X108400000Y-77640000D03*
X108400000Y-78910000D03*
X108400000Y-80180000D03*
X108400000Y-81450000D03*
X108400000Y-82720000D03*
X108400000Y-83990000D03*
X108400000Y-85260000D03*
X133800000Y-85260000D03*
X133800000Y-83990000D03*
X133800000Y-82720000D03*
X133800000Y-81450000D03*
X133800000Y-80180000D03*
X133800000Y-78910000D03*
X133800000Y-77640000D03*
X133800000Y-76370000D03*
X133800000Y-75100000D03*
X133800000Y-73830000D03*
X133800000Y-72560000D03*
X133800000Y-71290000D03*
X133800000Y-70020000D03*
X133800000Y-68750000D03*
X133800000Y-67480000D03*
X133800000Y-66210000D03*
X133800000Y-64940000D03*
%TD*%
D26*
%TO.C,C16*%
X141868000Y-38922000D03*
X140908000Y-38922000D03*
%TD*%
D11*
%TO.C,C18*%
X110587000Y-80180000D03*
X111547000Y-80180000D03*
%TD*%
D13*
%TO.C,KiKit_MB_1_1*%
X114866667Y-28200000D03*
%TD*%
D11*
%TO.C,C24*%
X137987000Y-35620000D03*
X138947000Y-35620000D03*
%TD*%
D13*
%TO.C,KiKit_MB_9_2*%
X170666666Y-28200000D03*
%TD*%
%TO.C,KiKit_MB_4_5*%
X123333333Y-53200000D03*
%TD*%
D23*
%TO.C,C19*%
X151802000Y-34871000D03*
X151802000Y-33321000D03*
%TD*%
D26*
%TO.C,C2*%
X186413000Y-72560000D03*
X185453000Y-72560000D03*
%TD*%
D13*
%TO.C,KiKit_MB_36_5*%
X195100000Y-87800000D03*
%TD*%
%TO.C,KiKit_MB_13_5*%
X118866667Y-62600000D03*
%TD*%
D17*
%TO.C,C38*%
X150799000Y-29778000D03*
X149249000Y-29778000D03*
%TD*%
D10*
%TO.C,C9*%
X178313000Y-46148000D03*
X178313000Y-47698000D03*
%TD*%
%TO.C,C9*%
X150913000Y-80548000D03*
X150913000Y-82098000D03*
%TD*%
%TO.C,C34*%
X165613000Y-50593000D03*
X165613000Y-52143000D03*
%TD*%
D25*
%TO.C,C3*%
X115893000Y-82654000D03*
X115893000Y-80754000D03*
%TD*%
D13*
%TO.C,KiKit_MB_35_3*%
X193100000Y-28000000D03*
%TD*%
%TO.C,KiKit_MB_2_4*%
X126333333Y-28200000D03*
%TD*%
D12*
%TO.C,L4*%
X148834500Y-66083000D03*
X150959500Y-66083000D03*
%TD*%
D23*
%TO.C,C11*%
X176789000Y-35125000D03*
X176789000Y-33575000D03*
%TD*%
D13*
%TO.C,KiKit_MB_2_2*%
X124333333Y-28200000D03*
%TD*%
%TO.C,KiKit_MB_10_3*%
X180133333Y-28200000D03*
%TD*%
D12*
%TO.C,L1*%
X183600500Y-76116000D03*
X185725500Y-76116000D03*
%TD*%
D28*
%TO.C,U2*%
X135800000Y-64940000D03*
X135800000Y-66210000D03*
X135800000Y-67480000D03*
X135800000Y-68750000D03*
X135800000Y-70020000D03*
X135800000Y-71290000D03*
X135800000Y-72560000D03*
X135800000Y-73830000D03*
X135800000Y-76370000D03*
X135800000Y-77640000D03*
X135800000Y-78910000D03*
X135800000Y-80180000D03*
X135800000Y-81450000D03*
X135800000Y-82720000D03*
X135800000Y-83990000D03*
X135800000Y-85260000D03*
X161200000Y-85260000D03*
X161200000Y-83990000D03*
X161200000Y-82720000D03*
X161200000Y-81450000D03*
X161200000Y-80180000D03*
X161200000Y-78910000D03*
X161200000Y-77640000D03*
X161200000Y-76370000D03*
X161200000Y-75100000D03*
X161200000Y-73830000D03*
X161200000Y-72560000D03*
X161200000Y-71290000D03*
X161200000Y-70020000D03*
X161200000Y-68750000D03*
X161200000Y-67480000D03*
X161200000Y-66210000D03*
X161200000Y-64940000D03*
%TD*%
D11*
%TO.C,C18*%
X165387000Y-80180000D03*
X166347000Y-80180000D03*
%TD*%
D17*
%TO.C,C28*%
X131527000Y-39684000D03*
X129977000Y-39684000D03*
%TD*%
D25*
%TO.C,C3*%
X170693000Y-82654000D03*
X170693000Y-80754000D03*
%TD*%
D13*
%TO.C,KiKit_MB_27_3*%
X134800000Y-58900000D03*
%TD*%
D17*
%TO.C,C28*%
X158927000Y-39684000D03*
X157377000Y-39684000D03*
%TD*%
D26*
%TO.C,C15*%
X115738000Y-72179000D03*
X114778000Y-72179000D03*
%TD*%
D23*
%TO.C,C19*%
X124402000Y-69271000D03*
X124402000Y-67721000D03*
%TD*%
D17*
%TO.C,C39*%
X186200000Y-34858000D03*
X184650000Y-34858000D03*
%TD*%
D13*
%TO.C,KiKit_MB_12_2*%
X181133333Y-53200000D03*
%TD*%
D11*
%TO.C,C26*%
X165387000Y-67480000D03*
X166347000Y-67480000D03*
%TD*%
D18*
%TO.C,C7*%
X130813000Y-43875000D03*
X128913000Y-43875000D03*
%TD*%
D10*
%TO.C,C34*%
X110813000Y-50593000D03*
X110813000Y-52143000D03*
%TD*%
D13*
%TO.C,KiKit_MB_35_2*%
X192100000Y-28000000D03*
%TD*%
%TO.C,KiKit_MB_28_4*%
X108400000Y-57900000D03*
%TD*%
D20*
%TO.C,U1*%
X117912300Y-72499675D03*
X117912300Y-72899725D03*
X117912300Y-73299775D03*
X117912300Y-73699825D03*
X117912300Y-74099875D03*
X117912300Y-74499925D03*
X117912300Y-74899975D03*
X117912300Y-75300025D03*
X117912300Y-75700075D03*
X117912300Y-76100125D03*
X117912300Y-76500175D03*
X117912300Y-76900225D03*
X117912300Y-77300275D03*
X117912300Y-77700325D03*
D21*
X118499675Y-78287700D03*
X118899725Y-78287700D03*
X119299775Y-78287700D03*
X119699825Y-78287700D03*
X120099875Y-78287700D03*
X120499925Y-78287700D03*
X120899975Y-78287700D03*
X121300025Y-78287700D03*
X121700075Y-78287700D03*
X122100125Y-78287700D03*
X122500175Y-78287700D03*
X122900225Y-78287700D03*
X123300275Y-78287700D03*
X123700325Y-78287700D03*
D20*
X124287700Y-77700325D03*
X124287700Y-77300275D03*
X124287700Y-76900225D03*
X124287700Y-76500175D03*
X124287700Y-76100125D03*
X124287700Y-75700075D03*
X124287700Y-75300025D03*
X124287700Y-74899975D03*
X124287700Y-74499925D03*
X124287700Y-74099875D03*
X124287700Y-73699825D03*
X124287700Y-73299775D03*
X124287700Y-72899725D03*
X124287700Y-72499675D03*
D21*
X123700325Y-71912300D03*
X123300275Y-71912300D03*
X122900225Y-71912300D03*
X122500175Y-71912300D03*
X122100125Y-71912300D03*
X121700075Y-71912300D03*
X121300025Y-71912300D03*
X120899975Y-71912300D03*
X120499925Y-71912300D03*
X120099875Y-71912300D03*
X119699825Y-71912300D03*
X119299775Y-71912300D03*
X118899725Y-71912300D03*
X118499675Y-71912300D03*
D22*
X121100000Y-75100000D03*
%TD*%
D17*
%TO.C,C21*%
X142925000Y-43113000D03*
X141375000Y-43113000D03*
%TD*%
D13*
%TO.C,KiKit_MB_34_2*%
X100900000Y-87800000D03*
%TD*%
D20*
%TO.C,U1*%
X145312300Y-38099675D03*
X145312300Y-38499725D03*
X145312300Y-38899775D03*
X145312300Y-39299825D03*
X145312300Y-39699875D03*
X145312300Y-40099925D03*
X145312300Y-40499975D03*
X145312300Y-40900025D03*
X145312300Y-41300075D03*
X145312300Y-41700125D03*
X145312300Y-42100175D03*
X145312300Y-42500225D03*
X145312300Y-42900275D03*
X145312300Y-43300325D03*
D21*
X145899675Y-43887700D03*
X146299725Y-43887700D03*
X146699775Y-43887700D03*
X147099825Y-43887700D03*
X147499875Y-43887700D03*
X147899925Y-43887700D03*
X148299975Y-43887700D03*
X148700025Y-43887700D03*
X149100075Y-43887700D03*
X149500125Y-43887700D03*
X149900175Y-43887700D03*
X150300225Y-43887700D03*
X150700275Y-43887700D03*
X151100325Y-43887700D03*
D20*
X151687700Y-43300325D03*
X151687700Y-42900275D03*
X151687700Y-42500225D03*
X151687700Y-42100175D03*
X151687700Y-41700125D03*
X151687700Y-41300075D03*
X151687700Y-40900025D03*
X151687700Y-40499975D03*
X151687700Y-40099925D03*
X151687700Y-39699875D03*
X151687700Y-39299825D03*
X151687700Y-38899775D03*
X151687700Y-38499725D03*
X151687700Y-38099675D03*
D21*
X151100325Y-37512300D03*
X150700275Y-37512300D03*
X150300225Y-37512300D03*
X149900175Y-37512300D03*
X149500125Y-37512300D03*
X149100075Y-37512300D03*
X148700025Y-37512300D03*
X148299975Y-37512300D03*
X147899925Y-37512300D03*
X147499875Y-37512300D03*
X147099825Y-37512300D03*
X146699775Y-37512300D03*
X146299725Y-37512300D03*
X145899675Y-37512300D03*
D22*
X148500000Y-40700000D03*
%TD*%
D13*
%TO.C,KiKit_MB_17_3*%
X144266666Y-62600000D03*
%TD*%
%TO.C,KiKit_MB_31_2*%
X108400000Y-91300000D03*
%TD*%
%TO.C,KiKit_MB_4_2*%
X126333333Y-53200000D03*
%TD*%
D29*
%TO.C,C37*%
X113988000Y-34289000D03*
X113988000Y-36189000D03*
%TD*%
D13*
%TO.C,KiKit_MB_20_3*%
X152066666Y-87600000D03*
%TD*%
%TO.C,KiKit_MB_11_1*%
X173666666Y-53200000D03*
%TD*%
D11*
%TO.C,C25*%
X137987000Y-68750000D03*
X138947000Y-68750000D03*
%TD*%
D13*
%TO.C,KiKit_MB_15_4*%
X115866667Y-87600000D03*
%TD*%
D10*
%TO.C,C10*%
X152564000Y-46148000D03*
X152564000Y-47698000D03*
%TD*%
D13*
%TO.C,KiKit_MB_6_2*%
X152066666Y-28200000D03*
%TD*%
%TO.C,KiKit_MB_26_3*%
X188600000Y-56900000D03*
%TD*%
D18*
%TO.C,C7*%
X185613000Y-43875000D03*
X183713000Y-43875000D03*
%TD*%
D13*
%TO.C,KiKit_MB_25_6*%
X162200000Y-55900000D03*
%TD*%
D17*
%TO.C,C40*%
X186200000Y-36636000D03*
X184650000Y-36636000D03*
%TD*%
D13*
%TO.C,KiKit_MB_21_2*%
X170666666Y-62600000D03*
%TD*%
%TO.C,KiKit_MB_3_3*%
X116866667Y-53200000D03*
%TD*%
D23*
%TO.C,C11*%
X149389000Y-69525000D03*
X149389000Y-67975000D03*
%TD*%
D10*
%TO.C,C5*%
X112591000Y-84993000D03*
X112591000Y-86543000D03*
%TD*%
D13*
%TO.C,KiKit_MB_17_1*%
X142266666Y-62600000D03*
%TD*%
D24*
%TO.C,C13*%
X126675000Y-71544000D03*
X128225000Y-71544000D03*
%TD*%
D13*
%TO.C,KiKit_MB_33_2*%
X100900000Y-28000000D03*
%TD*%
%TO.C,KiKit_MB_25_2*%
X162200000Y-59900000D03*
%TD*%
D10*
%TO.C,C5*%
X139991000Y-84993000D03*
X139991000Y-86543000D03*
%TD*%
D17*
%TO.C,C20*%
X115525000Y-41462000D03*
X113975000Y-41462000D03*
%TD*%
D13*
%TO.C,KiKit_MB_18_1*%
X150733333Y-62600000D03*
%TD*%
%TO.C,KiKit_MB_16_1*%
X127333333Y-87600000D03*
%TD*%
%TO.C,KiKit_MB_24_4*%
X179133333Y-87600000D03*
%TD*%
%TO.C,KiKit_MB_22_5*%
X182133333Y-62600000D03*
%TD*%
%TO.C,KiKit_MB_11_4*%
X170666666Y-53200000D03*
%TD*%
D16*
%TO.C,L7*%
X182377000Y-84938000D03*
X182377000Y-82788000D03*
%TD*%
D24*
%TO.C,C14*%
X154075000Y-73322000D03*
X155625000Y-73322000D03*
%TD*%
D19*
%TO.C,L3*%
X126180000Y-34904500D03*
X126180000Y-32779500D03*
%TD*%
D13*
%TO.C,KiKit_MB_13_1*%
X114866667Y-62600000D03*
%TD*%
D23*
%TO.C,C12*%
X147738000Y-69525000D03*
X147738000Y-67975000D03*
%TD*%
D13*
%TO.C,KiKit_MB_31_3*%
X108400000Y-92300000D03*
%TD*%
D17*
%TO.C,C38*%
X123399000Y-64178000D03*
X121849000Y-64178000D03*
%TD*%
D11*
%TO.C,C1*%
X126462000Y-43748000D03*
X127422000Y-43748000D03*
%TD*%
D13*
%TO.C,KiKit_MB_13_3*%
X116866667Y-62600000D03*
%TD*%
D26*
%TO.C,C16*%
X114468000Y-73322000D03*
X113508000Y-73322000D03*
%TD*%
D13*
%TO.C,KiKit_MB_28_6*%
X108400000Y-59900000D03*
%TD*%
%TO.C,KiKit_MB_36_6*%
X196100000Y-87800000D03*
%TD*%
%TO.C,KiKit_MB_9_5*%
X173666666Y-28200000D03*
%TD*%
D30*
%TO.C,L5*%
X118098500Y-34477000D03*
X115973500Y-34477000D03*
%TD*%
D23*
%TO.C,C12*%
X120338000Y-69525000D03*
X120338000Y-67975000D03*
%TD*%
D13*
%TO.C,KiKit_MB_16_2*%
X126333333Y-87600000D03*
%TD*%
D24*
%TO.C,C13*%
X154075000Y-71544000D03*
X155625000Y-71544000D03*
%TD*%
D17*
%TO.C,C28*%
X131527000Y-74084000D03*
X129977000Y-74084000D03*
%TD*%
D23*
%TO.C,C19*%
X179202000Y-69271000D03*
X179202000Y-67721000D03*
%TD*%
D13*
%TO.C,KiKit_MB_2_1*%
X123333333Y-28200000D03*
%TD*%
D11*
%TO.C,C25*%
X165387000Y-34350000D03*
X166347000Y-34350000D03*
%TD*%
D10*
%TO.C,C8*%
X120465000Y-80675000D03*
X120465000Y-82225000D03*
%TD*%
%TO.C,C8*%
X175265000Y-46275000D03*
X175265000Y-47825000D03*
%TD*%
D23*
%TO.C,C19*%
X179202000Y-34871000D03*
X179202000Y-33321000D03*
%TD*%
D10*
%TO.C,C5*%
X167391000Y-50593000D03*
X167391000Y-52143000D03*
%TD*%
D26*
%TO.C,C16*%
X169268000Y-73322000D03*
X168308000Y-73322000D03*
%TD*%
D16*
%TO.C,L7*%
X127577000Y-84938000D03*
X127577000Y-82788000D03*
%TD*%
D20*
%TO.C,U1*%
X172712300Y-38099675D03*
X172712300Y-38499725D03*
X172712300Y-38899775D03*
X172712300Y-39299825D03*
X172712300Y-39699875D03*
X172712300Y-40099925D03*
X172712300Y-40499975D03*
X172712300Y-40900025D03*
X172712300Y-41300075D03*
X172712300Y-41700125D03*
X172712300Y-42100175D03*
X172712300Y-42500225D03*
X172712300Y-42900275D03*
X172712300Y-43300325D03*
D21*
X173299675Y-43887700D03*
X173699725Y-43887700D03*
X174099775Y-43887700D03*
X174499825Y-43887700D03*
X174899875Y-43887700D03*
X175299925Y-43887700D03*
X175699975Y-43887700D03*
X176100025Y-43887700D03*
X176500075Y-43887700D03*
X176900125Y-43887700D03*
X177300175Y-43887700D03*
X177700225Y-43887700D03*
X178100275Y-43887700D03*
X178500325Y-43887700D03*
D20*
X179087700Y-43300325D03*
X179087700Y-42900275D03*
X179087700Y-42500225D03*
X179087700Y-42100175D03*
X179087700Y-41700125D03*
X179087700Y-41300075D03*
X179087700Y-40900025D03*
X179087700Y-40499975D03*
X179087700Y-40099925D03*
X179087700Y-39699875D03*
X179087700Y-39299825D03*
X179087700Y-38899775D03*
X179087700Y-38499725D03*
X179087700Y-38099675D03*
D21*
X178500325Y-37512300D03*
X178100275Y-37512300D03*
X177700225Y-37512300D03*
X177300175Y-37512300D03*
X176900125Y-37512300D03*
X176500075Y-37512300D03*
X176100025Y-37512300D03*
X175699975Y-37512300D03*
X175299925Y-37512300D03*
X174899875Y-37512300D03*
X174499825Y-37512300D03*
X174099775Y-37512300D03*
X173699725Y-37512300D03*
X173299675Y-37512300D03*
D22*
X175900000Y-40700000D03*
%TD*%
D26*
%TO.C,C2*%
X159013000Y-72560000D03*
X158053000Y-72560000D03*
%TD*%
D13*
%TO.C,KiKit_MB_28_5*%
X108400000Y-58900000D03*
%TD*%
%TO.C,KiKit_MB_27_4*%
X134800000Y-57900000D03*
%TD*%
D11*
%TO.C,C26*%
X110587000Y-67480000D03*
X111547000Y-67480000D03*
%TD*%
D25*
%TO.C,C3*%
X170693000Y-48254000D03*
X170693000Y-46354000D03*
%TD*%
D13*
%TO.C,KiKit_MB_1_5*%
X118866667Y-28200000D03*
%TD*%
D11*
%TO.C,C18*%
X137987000Y-80180000D03*
X138947000Y-80180000D03*
%TD*%
D17*
%TO.C,C20*%
X170325000Y-75862000D03*
X168775000Y-75862000D03*
%TD*%
D13*
%TO.C,KiKit_MB_19_2*%
X145266666Y-87600000D03*
%TD*%
%TO.C,KiKit_MB_6_4*%
X154733333Y-28200000D03*
%TD*%
D18*
%TO.C,C35*%
X158848000Y-32826000D03*
X156948000Y-32826000D03*
%TD*%
D17*
%TO.C,C20*%
X142925000Y-41462000D03*
X141375000Y-41462000D03*
%TD*%
D11*
%TO.C,C25*%
X165387000Y-68750000D03*
X166347000Y-68750000D03*
%TD*%
D10*
%TO.C,C10*%
X179964000Y-80548000D03*
X179964000Y-82098000D03*
%TD*%
D15*
%TO.C,L6*%
X122946000Y-50352000D03*
X125096000Y-50352000D03*
%TD*%
D11*
%TO.C,C1*%
X181262000Y-78148000D03*
X182222000Y-78148000D03*
%TD*%
D10*
%TO.C,C10*%
X152564000Y-80548000D03*
X152564000Y-82098000D03*
%TD*%
D13*
%TO.C,KiKit_MB_27_5*%
X134800000Y-56900000D03*
%TD*%
D11*
%TO.C,C26*%
X137987000Y-67480000D03*
X138947000Y-67480000D03*
%TD*%
D13*
%TO.C,KiKit_MB_14_4*%
X126333333Y-62600000D03*
%TD*%
%TO.C,KiKit_MB_26_5*%
X188600000Y-58900000D03*
%TD*%
D28*
%TO.C,U2*%
X135800000Y-30540000D03*
X135800000Y-31810000D03*
X135800000Y-33080000D03*
X135800000Y-34350000D03*
X135800000Y-35620000D03*
X135800000Y-36890000D03*
X135800000Y-38160000D03*
X135800000Y-39430000D03*
X135800000Y-41970000D03*
X135800000Y-43240000D03*
X135800000Y-44510000D03*
X135800000Y-45780000D03*
X135800000Y-47050000D03*
X135800000Y-48320000D03*
X135800000Y-49590000D03*
X135800000Y-50860000D03*
X161200000Y-50860000D03*
X161200000Y-49590000D03*
X161200000Y-48320000D03*
X161200000Y-47050000D03*
X161200000Y-45780000D03*
X161200000Y-44510000D03*
X161200000Y-43240000D03*
X161200000Y-41970000D03*
X161200000Y-40700000D03*
X161200000Y-39430000D03*
X161200000Y-38160000D03*
X161200000Y-36890000D03*
X161200000Y-35620000D03*
X161200000Y-34350000D03*
X161200000Y-33080000D03*
X161200000Y-31810000D03*
X161200000Y-30540000D03*
%TD*%
D24*
%TO.C,C13*%
X126675000Y-37144000D03*
X128225000Y-37144000D03*
%TD*%
D13*
%TO.C,KiKit_MB_30_2*%
X188600000Y-20500000D03*
%TD*%
D25*
%TO.C,C4*%
X141134000Y-48254000D03*
X141134000Y-46354000D03*
%TD*%
D10*
%TO.C,C33*%
X184790000Y-50974000D03*
X184790000Y-52524000D03*
%TD*%
D11*
%TO.C,C25*%
X110587000Y-68750000D03*
X111547000Y-68750000D03*
%TD*%
D13*
%TO.C,KiKit_MB_30_5*%
X188600000Y-23500000D03*
%TD*%
D10*
%TO.C,C41*%
X155358000Y-67594000D03*
X155358000Y-69144000D03*
%TD*%
D23*
%TO.C,C11*%
X176789000Y-69525000D03*
X176789000Y-67975000D03*
%TD*%
D13*
%TO.C,KiKit_MB_32_2*%
X188600000Y-91300000D03*
%TD*%
D17*
%TO.C,C21*%
X170325000Y-77513000D03*
X168775000Y-77513000D03*
%TD*%
D10*
%TO.C,C41*%
X182758000Y-33194000D03*
X182758000Y-34744000D03*
%TD*%
D13*
%TO.C,KiKit_MB_24_3*%
X180133333Y-87600000D03*
%TD*%
%TO.C,KiKit_MB_32_3*%
X188600000Y-92300000D03*
%TD*%
D17*
%TO.C,C40*%
X186200000Y-71036000D03*
X184650000Y-71036000D03*
%TD*%
D11*
%TO.C,C22*%
X110587000Y-81577000D03*
X111547000Y-81577000D03*
%TD*%
D13*
%TO.C,KiKit_MB_17_2*%
X143266666Y-62600000D03*
%TD*%
%TO.C,KiKit_MB_21_4*%
X172666666Y-62600000D03*
%TD*%
D16*
%TO.C,L7*%
X154977000Y-50538000D03*
X154977000Y-48388000D03*
%TD*%
D13*
%TO.C,KiKit_MB_29_6*%
X108400000Y-24500000D03*
%TD*%
D25*
%TO.C,C4*%
X113734000Y-48254000D03*
X113734000Y-46354000D03*
%TD*%
D10*
%TO.C,C30*%
X169169000Y-50593000D03*
X169169000Y-52143000D03*
%TD*%
D25*
%TO.C,C36*%
X168788000Y-32506000D03*
X168788000Y-30606000D03*
%TD*%
D19*
%TO.C,L3*%
X153580000Y-69304500D03*
X153580000Y-67179500D03*
%TD*%
D13*
%TO.C,KiKit_MB_18_2*%
X152066666Y-62600000D03*
%TD*%
%TO.C,KiKit_MB_15_5*%
X114866667Y-87600000D03*
%TD*%
D11*
%TO.C,C27*%
X110587000Y-66210000D03*
X111547000Y-66210000D03*
%TD*%
D13*
%TO.C,KiKit_MB_18_4*%
X154733333Y-62600000D03*
%TD*%
D10*
%TO.C,C31*%
X143547000Y-50593000D03*
X143547000Y-52143000D03*
%TD*%
D13*
%TO.C,KiKit_MB_34_6*%
X104900000Y-87800000D03*
%TD*%
D11*
%TO.C,C23*%
X110587000Y-44510000D03*
X111547000Y-44510000D03*
%TD*%
D29*
%TO.C,C37*%
X141388000Y-68689000D03*
X141388000Y-70589000D03*
%TD*%
D13*
%TO.C,KiKit_MB_16_5*%
X123333333Y-87600000D03*
%TD*%
%TO.C,KiKit_MB_4_1*%
X127333333Y-53200000D03*
%TD*%
D27*
%TO.C,KiKit_TO_2*%
X194100000Y-22500000D03*
%TD*%
D13*
%TO.C,KiKit_MB_20_1*%
X154733333Y-87600000D03*
%TD*%
D26*
%TO.C,C16*%
X141868000Y-73322000D03*
X140908000Y-73322000D03*
%TD*%
D10*
%TO.C,C31*%
X116147000Y-50593000D03*
X116147000Y-52143000D03*
%TD*%
%TO.C,C30*%
X114369000Y-84993000D03*
X114369000Y-86543000D03*
%TD*%
%TO.C,C9*%
X178313000Y-80548000D03*
X178313000Y-82098000D03*
%TD*%
D26*
%TO.C,C15*%
X170538000Y-72179000D03*
X169578000Y-72179000D03*
%TD*%
D17*
%TO.C,C28*%
X186327000Y-74084000D03*
X184777000Y-74084000D03*
%TD*%
D11*
%TO.C,C1*%
X126462000Y-78148000D03*
X127422000Y-78148000D03*
%TD*%
D10*
%TO.C,C31*%
X116147000Y-84993000D03*
X116147000Y-86543000D03*
%TD*%
D17*
%TO.C,C21*%
X142925000Y-77513000D03*
X141375000Y-77513000D03*
%TD*%
%TO.C,C39*%
X158800000Y-69258000D03*
X157250000Y-69258000D03*
%TD*%
D13*
%TO.C,KiKit_MB_11_3*%
X171666666Y-53200000D03*
%TD*%
%TO.C,KiKit_MB_2_3*%
X125333333Y-28200000D03*
%TD*%
D23*
%TO.C,C12*%
X175138000Y-35125000D03*
X175138000Y-33575000D03*
%TD*%
D10*
%TO.C,C8*%
X120465000Y-46275000D03*
X120465000Y-47825000D03*
%TD*%
D13*
%TO.C,KiKit_MB_23_5*%
X169666666Y-87600000D03*
%TD*%
%TO.C,KiKit_MB_12_5*%
X178133333Y-53200000D03*
%TD*%
D25*
%TO.C,C36*%
X141388000Y-66906000D03*
X141388000Y-65006000D03*
%TD*%
D10*
%TO.C,C5*%
X112591000Y-50593000D03*
X112591000Y-52143000D03*
%TD*%
D17*
%TO.C,C40*%
X131400000Y-71036000D03*
X129850000Y-71036000D03*
%TD*%
D25*
%TO.C,C36*%
X113988000Y-66906000D03*
X113988000Y-65006000D03*
%TD*%
D13*
%TO.C,KiKit_MB_21_1*%
X169666666Y-62600000D03*
%TD*%
D26*
%TO.C,C29*%
X169903000Y-74465000D03*
X168943000Y-74465000D03*
%TD*%
D13*
%TO.C,KiKit_MB_10_5*%
X182133333Y-28200000D03*
%TD*%
%TO.C,KiKit_MB_5_2*%
X143266666Y-28200000D03*
%TD*%
%TO.C,KiKit_MB_7_2*%
X145266666Y-53200000D03*
%TD*%
D17*
%TO.C,C38*%
X123399000Y-29778000D03*
X121849000Y-29778000D03*
%TD*%
D24*
%TO.C,C14*%
X181475000Y-38922000D03*
X183025000Y-38922000D03*
%TD*%
D17*
%TO.C,C20*%
X115525000Y-75862000D03*
X113975000Y-75862000D03*
%TD*%
D13*
%TO.C,KiKit_MB_19_4*%
X143266666Y-87600000D03*
%TD*%
D25*
%TO.C,C4*%
X141134000Y-82654000D03*
X141134000Y-80754000D03*
%TD*%
D10*
%TO.C,C10*%
X125164000Y-46148000D03*
X125164000Y-47698000D03*
%TD*%
%TO.C,C33*%
X129990000Y-50974000D03*
X129990000Y-52524000D03*
%TD*%
D19*
%TO.C,L3*%
X180980000Y-34904500D03*
X180980000Y-32779500D03*
%TD*%
D13*
%TO.C,KiKit_MB_17_5*%
X146266666Y-62600000D03*
%TD*%
D11*
%TO.C,C1*%
X153862000Y-43748000D03*
X154822000Y-43748000D03*
%TD*%
D18*
%TO.C,C35*%
X131448000Y-32826000D03*
X129548000Y-32826000D03*
%TD*%
D11*
%TO.C,C24*%
X110587000Y-70020000D03*
X111547000Y-70020000D03*
%TD*%
D29*
%TO.C,C37*%
X168788000Y-34289000D03*
X168788000Y-36189000D03*
%TD*%
D13*
%TO.C,KiKit_MB_12_1*%
X182133333Y-53200000D03*
%TD*%
D11*
%TO.C,C25*%
X137987000Y-34350000D03*
X138947000Y-34350000D03*
%TD*%
D18*
%TO.C,C6*%
X158213000Y-80561000D03*
X156313000Y-80561000D03*
%TD*%
D11*
%TO.C,C27*%
X110587000Y-31810000D03*
X111547000Y-31810000D03*
%TD*%
D19*
%TO.C,L3*%
X126180000Y-69304500D03*
X126180000Y-67179500D03*
%TD*%
D13*
%TO.C,KiKit_MB_10_1*%
X178133333Y-28200000D03*
%TD*%
D17*
%TO.C,C20*%
X142925000Y-75862000D03*
X141375000Y-75862000D03*
%TD*%
D11*
%TO.C,C24*%
X110587000Y-35620000D03*
X111547000Y-35620000D03*
%TD*%
D13*
%TO.C,KiKit_MB_29_4*%
X108400000Y-22500000D03*
%TD*%
D26*
%TO.C,C15*%
X170538000Y-37779000D03*
X169578000Y-37779000D03*
%TD*%
D10*
%TO.C,C33*%
X129990000Y-85374000D03*
X129990000Y-86924000D03*
%TD*%
D13*
%TO.C,KiKit_MB_14_2*%
X124333333Y-62600000D03*
%TD*%
D18*
%TO.C,C6*%
X185613000Y-46161000D03*
X183713000Y-46161000D03*
%TD*%
D23*
%TO.C,C32*%
X157390000Y-49476000D03*
X157390000Y-47926000D03*
%TD*%
D17*
%TO.C,C39*%
X158800000Y-34858000D03*
X157250000Y-34858000D03*
%TD*%
D13*
%TO.C,KiKit_MB_20_2*%
X153399999Y-87600000D03*
%TD*%
D18*
%TO.C,C35*%
X131448000Y-67226000D03*
X129548000Y-67226000D03*
%TD*%
%TO.C,C7*%
X185613000Y-78275000D03*
X183713000Y-78275000D03*
%TD*%
D13*
%TO.C,KiKit_MB_23_2*%
X172666666Y-87600000D03*
%TD*%
%TO.C,KiKit_MB_13_4*%
X117866667Y-62600000D03*
%TD*%
D11*
%TO.C,C26*%
X137987000Y-33080000D03*
X138947000Y-33080000D03*
%TD*%
D13*
%TO.C,KiKit_MB_15_3*%
X116866667Y-87600000D03*
%TD*%
D29*
%TO.C,C37*%
X168788000Y-68689000D03*
X168788000Y-70589000D03*
%TD*%
D11*
%TO.C,C18*%
X110587000Y-45780000D03*
X111547000Y-45780000D03*
%TD*%
D10*
%TO.C,C8*%
X147865000Y-80675000D03*
X147865000Y-82225000D03*
%TD*%
%TO.C,C33*%
X184790000Y-85374000D03*
X184790000Y-86924000D03*
%TD*%
D11*
%TO.C,C23*%
X165387000Y-44510000D03*
X166347000Y-44510000D03*
%TD*%
D27*
%TO.C,KiKit_TO_4*%
X194100000Y-93300000D03*
%TD*%
D13*
%TO.C,KiKit_MB_25_3*%
X162200000Y-58900000D03*
%TD*%
%TO.C,KiKit_MB_5_5*%
X146266666Y-28200000D03*
%TD*%
%TO.C,KiKit_MB_5_3*%
X144266666Y-28200000D03*
%TD*%
%TO.C,KiKit_MB_29_3*%
X108400000Y-21500000D03*
%TD*%
D30*
%TO.C,L5*%
X118098500Y-68877000D03*
X115973500Y-68877000D03*
%TD*%
D11*
%TO.C,C22*%
X137987000Y-81577000D03*
X138947000Y-81577000D03*
%TD*%
D17*
%TO.C,C20*%
X170325000Y-41462000D03*
X168775000Y-41462000D03*
%TD*%
D12*
%TO.C,L1*%
X156200500Y-41716000D03*
X158325500Y-41716000D03*
%TD*%
D10*
%TO.C,C30*%
X114369000Y-50593000D03*
X114369000Y-52143000D03*
%TD*%
D13*
%TO.C,KiKit_MB_29_5*%
X108400000Y-23500000D03*
%TD*%
D24*
%TO.C,C13*%
X154075000Y-37144000D03*
X155625000Y-37144000D03*
%TD*%
D13*
%TO.C,KiKit_MB_35_6*%
X196100000Y-28000000D03*
%TD*%
%TO.C,KiKit_MB_15_2*%
X117866667Y-87600000D03*
%TD*%
%TO.C,KiKit_MB_20_4*%
X150733333Y-87600000D03*
%TD*%
D25*
%TO.C,C3*%
X143293000Y-48254000D03*
X143293000Y-46354000D03*
%TD*%
D13*
%TO.C,KiKit_MB_22_4*%
X181133333Y-62600000D03*
%TD*%
D10*
%TO.C,C30*%
X169169000Y-84993000D03*
X169169000Y-86543000D03*
%TD*%
D13*
%TO.C,KiKit_MB_27_2*%
X134800000Y-59900000D03*
%TD*%
D11*
%TO.C,C25*%
X110587000Y-34350000D03*
X111547000Y-34350000D03*
%TD*%
D13*
%TO.C,KiKit_MB_35_5*%
X195100000Y-28000000D03*
%TD*%
%TO.C,KiKit_MB_8_1*%
X154733333Y-53200000D03*
%TD*%
D11*
%TO.C,C26*%
X165387000Y-33080000D03*
X166347000Y-33080000D03*
%TD*%
D26*
%TO.C,C2*%
X131613000Y-72560000D03*
X130653000Y-72560000D03*
%TD*%
%TO.C,C29*%
X115103000Y-40065000D03*
X114143000Y-40065000D03*
%TD*%
D13*
%TO.C,KiKit_MB_27_6*%
X134800000Y-55900000D03*
%TD*%
D12*
%TO.C,L4*%
X176234500Y-66083000D03*
X178359500Y-66083000D03*
%TD*%
D13*
%TO.C,KiKit_MB_5_1*%
X142266666Y-28200000D03*
%TD*%
D18*
%TO.C,C6*%
X130813000Y-46161000D03*
X128913000Y-46161000D03*
%TD*%
D13*
%TO.C,KiKit_MB_24_5*%
X178133333Y-87600000D03*
%TD*%
D10*
%TO.C,C9*%
X123513000Y-46148000D03*
X123513000Y-47698000D03*
%TD*%
D30*
%TO.C,L5*%
X172898500Y-34477000D03*
X170773500Y-34477000D03*
%TD*%
D13*
%TO.C,KiKit_MB_4_3*%
X125333333Y-53200000D03*
%TD*%
%TO.C,KiKit_MB_3_1*%
X118866667Y-53200000D03*
%TD*%
D23*
%TO.C,C19*%
X151802000Y-69271000D03*
X151802000Y-67721000D03*
%TD*%
D13*
%TO.C,KiKit_MB_23_3*%
X171666666Y-87600000D03*
%TD*%
D10*
%TO.C,C34*%
X138213000Y-84993000D03*
X138213000Y-86543000D03*
%TD*%
D11*
%TO.C,C23*%
X110587000Y-78910000D03*
X111547000Y-78910000D03*
%TD*%
D10*
%TO.C,C30*%
X141769000Y-84993000D03*
X141769000Y-86543000D03*
%TD*%
D13*
%TO.C,KiKit_MB_8_4*%
X150733333Y-53200000D03*
%TD*%
D18*
%TO.C,C35*%
X158848000Y-67226000D03*
X156948000Y-67226000D03*
%TD*%
D12*
%TO.C,L2*%
X146421500Y-84244000D03*
X148546500Y-84244000D03*
%TD*%
D13*
%TO.C,KiKit_MB_33_4*%
X102900000Y-28000000D03*
%TD*%
%TO.C,KiKit_MB_22_3*%
X180133333Y-62600000D03*
%TD*%
%TO.C,KiKit_MB_18_3*%
X153399999Y-62600000D03*
%TD*%
%TO.C,KiKit_MB_33_3*%
X101900000Y-28000000D03*
%TD*%
D10*
%TO.C,C31*%
X170947000Y-50593000D03*
X170947000Y-52143000D03*
%TD*%
D11*
%TO.C,C27*%
X137987000Y-31810000D03*
X138947000Y-31810000D03*
%TD*%
D15*
%TO.C,L6*%
X177746000Y-50352000D03*
X179896000Y-50352000D03*
%TD*%
D16*
%TO.C,L7*%
X182377000Y-50538000D03*
X182377000Y-48388000D03*
%TD*%
D10*
%TO.C,C9*%
X150913000Y-46148000D03*
X150913000Y-47698000D03*
%TD*%
D13*
%TO.C,KiKit_MB_2_5*%
X127333333Y-28200000D03*
%TD*%
D17*
%TO.C,C38*%
X178199000Y-64178000D03*
X176649000Y-64178000D03*
%TD*%
D25*
%TO.C,C3*%
X143293000Y-82654000D03*
X143293000Y-80754000D03*
%TD*%
D14*
%TO.C,C17*%
X117671000Y-80462000D03*
X117671000Y-81422000D03*
%TD*%
D28*
%TO.C,U2*%
X108400000Y-30540000D03*
X108400000Y-31810000D03*
X108400000Y-33080000D03*
X108400000Y-34350000D03*
X108400000Y-35620000D03*
X108400000Y-36890000D03*
X108400000Y-38160000D03*
X108400000Y-39430000D03*
X108400000Y-41970000D03*
X108400000Y-43240000D03*
X108400000Y-44510000D03*
X108400000Y-45780000D03*
X108400000Y-47050000D03*
X108400000Y-48320000D03*
X108400000Y-49590000D03*
X108400000Y-50860000D03*
X133800000Y-50860000D03*
X133800000Y-49590000D03*
X133800000Y-48320000D03*
X133800000Y-47050000D03*
X133800000Y-45780000D03*
X133800000Y-44510000D03*
X133800000Y-43240000D03*
X133800000Y-41970000D03*
X133800000Y-40700000D03*
X133800000Y-39430000D03*
X133800000Y-38160000D03*
X133800000Y-36890000D03*
X133800000Y-35620000D03*
X133800000Y-34350000D03*
X133800000Y-33080000D03*
X133800000Y-31810000D03*
X133800000Y-30540000D03*
%TD*%
D23*
%TO.C,C32*%
X184790000Y-49476000D03*
X184790000Y-47926000D03*
%TD*%
D24*
%TO.C,C14*%
X181475000Y-73322000D03*
X183025000Y-73322000D03*
%TD*%
D10*
%TO.C,C33*%
X157390000Y-50974000D03*
X157390000Y-52524000D03*
%TD*%
D13*
%TO.C,KiKit_MB_24_1*%
X182133333Y-87600000D03*
%TD*%
D26*
%TO.C,C2*%
X131613000Y-38160000D03*
X130653000Y-38160000D03*
%TD*%
D23*
%TO.C,C32*%
X184790000Y-83876000D03*
X184790000Y-82326000D03*
%TD*%
D13*
%TO.C,KiKit_MB_36_2*%
X192100000Y-87800000D03*
%TD*%
D17*
%TO.C,C28*%
X186327000Y-39684000D03*
X184777000Y-39684000D03*
%TD*%
D31*
%TO.C,KiKit_FID_T_2*%
X191600000Y-22500000D03*
%TD*%
D23*
%TO.C,C11*%
X121989000Y-35125000D03*
X121989000Y-33575000D03*
%TD*%
D28*
%TO.C,U2*%
X163200000Y-64940000D03*
X163200000Y-66210000D03*
X163200000Y-67480000D03*
X163200000Y-68750000D03*
X163200000Y-70020000D03*
X163200000Y-71290000D03*
X163200000Y-72560000D03*
X163200000Y-73830000D03*
X163200000Y-76370000D03*
X163200000Y-77640000D03*
X163200000Y-78910000D03*
X163200000Y-80180000D03*
X163200000Y-81450000D03*
X163200000Y-82720000D03*
X163200000Y-83990000D03*
X163200000Y-85260000D03*
X188600000Y-85260000D03*
X188600000Y-83990000D03*
X188600000Y-82720000D03*
X188600000Y-81450000D03*
X188600000Y-80180000D03*
X188600000Y-78910000D03*
X188600000Y-77640000D03*
X188600000Y-76370000D03*
X188600000Y-75100000D03*
X188600000Y-73830000D03*
X188600000Y-72560000D03*
X188600000Y-71290000D03*
X188600000Y-70020000D03*
X188600000Y-68750000D03*
X188600000Y-67480000D03*
X188600000Y-66210000D03*
X188600000Y-64940000D03*
%TD*%
D27*
%TO.C,KiKit_TO_1*%
X102900000Y-22500000D03*
%TD*%
D13*
%TO.C,KiKit_MB_31_4*%
X108400000Y-93300000D03*
%TD*%
%TO.C,KiKit_MB_26_4*%
X188600000Y-57900000D03*
%TD*%
D18*
%TO.C,C7*%
X158213000Y-43875000D03*
X156313000Y-43875000D03*
%TD*%
D10*
%TO.C,C41*%
X127958000Y-33194000D03*
X127958000Y-34744000D03*
%TD*%
D12*
%TO.C,L2*%
X173821500Y-84244000D03*
X175946500Y-84244000D03*
%TD*%
D15*
%TO.C,L6*%
X150346000Y-50352000D03*
X152496000Y-50352000D03*
%TD*%
D13*
%TO.C,KiKit_MB_23_1*%
X173666666Y-87600000D03*
%TD*%
D20*
%TO.C,U1*%
X172712300Y-72499675D03*
X172712300Y-72899725D03*
X172712300Y-73299775D03*
X172712300Y-73699825D03*
X172712300Y-74099875D03*
X172712300Y-74499925D03*
X172712300Y-74899975D03*
X172712300Y-75300025D03*
X172712300Y-75700075D03*
X172712300Y-76100125D03*
X172712300Y-76500175D03*
X172712300Y-76900225D03*
X172712300Y-77300275D03*
X172712300Y-77700325D03*
D21*
X173299675Y-78287700D03*
X173699725Y-78287700D03*
X174099775Y-78287700D03*
X174499825Y-78287700D03*
X174899875Y-78287700D03*
X175299925Y-78287700D03*
X175699975Y-78287700D03*
X176100025Y-78287700D03*
X176500075Y-78287700D03*
X176900125Y-78287700D03*
X177300175Y-78287700D03*
X177700225Y-78287700D03*
X178100275Y-78287700D03*
X178500325Y-78287700D03*
D20*
X179087700Y-77700325D03*
X179087700Y-77300275D03*
X179087700Y-76900225D03*
X179087700Y-76500175D03*
X179087700Y-76100125D03*
X179087700Y-75700075D03*
X179087700Y-75300025D03*
X179087700Y-74899975D03*
X179087700Y-74499925D03*
X179087700Y-74099875D03*
X179087700Y-73699825D03*
X179087700Y-73299775D03*
X179087700Y-72899725D03*
X179087700Y-72499675D03*
D21*
X178500325Y-71912300D03*
X178100275Y-71912300D03*
X177700225Y-71912300D03*
X177300175Y-71912300D03*
X176900125Y-71912300D03*
X176500075Y-71912300D03*
X176100025Y-71912300D03*
X175699975Y-71912300D03*
X175299925Y-71912300D03*
X174899875Y-71912300D03*
X174499825Y-71912300D03*
X174099775Y-71912300D03*
X173699725Y-71912300D03*
X173299675Y-71912300D03*
D22*
X175900000Y-75100000D03*
%TD*%
D23*
%TO.C,C11*%
X149389000Y-35125000D03*
X149389000Y-33575000D03*
%TD*%
D13*
%TO.C,KiKit_MB_7_4*%
X143266666Y-53200000D03*
%TD*%
D10*
%TO.C,C31*%
X143547000Y-84993000D03*
X143547000Y-86543000D03*
%TD*%
D13*
%TO.C,KiKit_MB_8_2*%
X153399999Y-53200000D03*
%TD*%
D26*
%TO.C,C29*%
X115103000Y-74465000D03*
X114143000Y-74465000D03*
%TD*%
D18*
%TO.C,C35*%
X186248000Y-67226000D03*
X184348000Y-67226000D03*
%TD*%
D24*
%TO.C,C14*%
X126675000Y-73322000D03*
X128225000Y-73322000D03*
%TD*%
D11*
%TO.C,C18*%
X137987000Y-45780000D03*
X138947000Y-45780000D03*
%TD*%
D31*
%TO.C,KiKit_FID_T_3*%
X105400000Y-93300000D03*
%TD*%
D13*
%TO.C,KiKit_MB_26_2*%
X188600000Y-55900000D03*
%TD*%
D12*
%TO.C,L1*%
X128800500Y-41716000D03*
X130925500Y-41716000D03*
%TD*%
D13*
%TO.C,KiKit_MB_6_3*%
X153399999Y-28200000D03*
%TD*%
D29*
%TO.C,C37*%
X141388000Y-34289000D03*
X141388000Y-36189000D03*
%TD*%
D23*
%TO.C,C12*%
X120338000Y-35125000D03*
X120338000Y-33575000D03*
%TD*%
D10*
%TO.C,C33*%
X157390000Y-85374000D03*
X157390000Y-86924000D03*
%TD*%
D11*
%TO.C,C23*%
X137987000Y-78910000D03*
X138947000Y-78910000D03*
%TD*%
D19*
%TO.C,L3*%
X153580000Y-34904500D03*
X153580000Y-32779500D03*
%TD*%
D25*
%TO.C,C36*%
X113988000Y-32506000D03*
X113988000Y-30606000D03*
%TD*%
D12*
%TO.C,L4*%
X148834500Y-31683000D03*
X150959500Y-31683000D03*
%TD*%
D23*
%TO.C,C12*%
X147738000Y-35125000D03*
X147738000Y-33575000D03*
%TD*%
D28*
%TO.C,U2*%
X163200000Y-30540000D03*
X163200000Y-31810000D03*
X163200000Y-33080000D03*
X163200000Y-34350000D03*
X163200000Y-35620000D03*
X163200000Y-36890000D03*
X163200000Y-38160000D03*
X163200000Y-39430000D03*
X163200000Y-41970000D03*
X163200000Y-43240000D03*
X163200000Y-44510000D03*
X163200000Y-45780000D03*
X163200000Y-47050000D03*
X163200000Y-48320000D03*
X163200000Y-49590000D03*
X163200000Y-50860000D03*
X188600000Y-50860000D03*
X188600000Y-49590000D03*
X188600000Y-48320000D03*
X188600000Y-47050000D03*
X188600000Y-45780000D03*
X188600000Y-44510000D03*
X188600000Y-43240000D03*
X188600000Y-41970000D03*
X188600000Y-40700000D03*
X188600000Y-39430000D03*
X188600000Y-38160000D03*
X188600000Y-36890000D03*
X188600000Y-35620000D03*
X188600000Y-34350000D03*
X188600000Y-33080000D03*
X188600000Y-31810000D03*
X188600000Y-30540000D03*
%TD*%
D23*
%TO.C,C19*%
X124402000Y-34871000D03*
X124402000Y-33321000D03*
%TD*%
D13*
%TO.C,KiKit_MB_14_3*%
X125333333Y-62600000D03*
%TD*%
D24*
%TO.C,C14*%
X154075000Y-38922000D03*
X155625000Y-38922000D03*
%TD*%
D13*
%TO.C,KiKit_MB_1_2*%
X115866667Y-28200000D03*
%TD*%
%TO.C,KiKit_MB_7_5*%
X142266666Y-53200000D03*
%TD*%
%TO.C,KiKit_MB_9_1*%
X169666666Y-28200000D03*
%TD*%
%TO.C,KiKit_MB_17_4*%
X145266666Y-62600000D03*
%TD*%
%TO.C,KiKit_MB_8_3*%
X152066666Y-53200000D03*
%TD*%
%TO.C,KiKit_MB_33_6*%
X104900000Y-28000000D03*
%TD*%
D30*
%TO.C,L5*%
X145498500Y-68877000D03*
X143373500Y-68877000D03*
%TD*%
D13*
%TO.C,KiKit_MB_10_2*%
X179133333Y-28200000D03*
%TD*%
%TO.C,KiKit_MB_26_6*%
X188600000Y-59900000D03*
%TD*%
%TO.C,KiKit_MB_32_6*%
X188600000Y-95300000D03*
%TD*%
D26*
%TO.C,C29*%
X142503000Y-74465000D03*
X141543000Y-74465000D03*
%TD*%
D10*
%TO.C,C30*%
X141769000Y-50593000D03*
X141769000Y-52143000D03*
%TD*%
%TO.C,C10*%
X179964000Y-46148000D03*
X179964000Y-47698000D03*
%TD*%
D30*
%TO.C,L5*%
X145498500Y-34477000D03*
X143373500Y-34477000D03*
%TD*%
D13*
%TO.C,KiKit_MB_30_3*%
X188600000Y-21500000D03*
%TD*%
D11*
%TO.C,C22*%
X110587000Y-47177000D03*
X111547000Y-47177000D03*
%TD*%
D25*
%TO.C,C36*%
X168788000Y-66906000D03*
X168788000Y-65006000D03*
%TD*%
D17*
%TO.C,C21*%
X115525000Y-77513000D03*
X113975000Y-77513000D03*
%TD*%
D12*
%TO.C,L4*%
X121434500Y-31683000D03*
X123559500Y-31683000D03*
%TD*%
D14*
%TO.C,C17*%
X145071000Y-46062000D03*
X145071000Y-47022000D03*
%TD*%
D25*
%TO.C,C36*%
X141388000Y-32506000D03*
X141388000Y-30606000D03*
%TD*%
D13*
%TO.C,KiKit_MB_25_4*%
X162200000Y-57900000D03*
%TD*%
D10*
%TO.C,C41*%
X155358000Y-33194000D03*
X155358000Y-34744000D03*
%TD*%
D13*
%TO.C,KiKit_MB_5_4*%
X145266666Y-28200000D03*
%TD*%
D14*
%TO.C,C17*%
X172471000Y-80462000D03*
X172471000Y-81422000D03*
%TD*%
D10*
%TO.C,C5*%
X167391000Y-84993000D03*
X167391000Y-86543000D03*
%TD*%
D13*
%TO.C,KiKit_MB_4_4*%
X124333333Y-53200000D03*
%TD*%
D26*
%TO.C,C15*%
X115738000Y-37779000D03*
X114778000Y-37779000D03*
%TD*%
D30*
%TO.C,L5*%
X172898500Y-68877000D03*
X170773500Y-68877000D03*
%TD*%
D10*
%TO.C,C8*%
X175265000Y-80675000D03*
X175265000Y-82225000D03*
%TD*%
D17*
%TO.C,C28*%
X158927000Y-74084000D03*
X157377000Y-74084000D03*
%TD*%
D10*
%TO.C,C41*%
X127958000Y-67594000D03*
X127958000Y-69144000D03*
%TD*%
%TO.C,C10*%
X125164000Y-80548000D03*
X125164000Y-82098000D03*
%TD*%
D13*
%TO.C,KiKit_MB_22_1*%
X178133333Y-62600000D03*
%TD*%
%TO.C,KiKit_MB_36_3*%
X193100000Y-87800000D03*
%TD*%
%TO.C,KiKit_MB_3_2*%
X117866667Y-53200000D03*
%TD*%
D26*
%TO.C,C2*%
X159013000Y-38160000D03*
X158053000Y-38160000D03*
%TD*%
D13*
%TO.C,KiKit_MB_7_3*%
X144266666Y-53200000D03*
%TD*%
D26*
%TO.C,C15*%
X143138000Y-37779000D03*
X142178000Y-37779000D03*
%TD*%
D11*
%TO.C,C22*%
X165387000Y-47177000D03*
X166347000Y-47177000D03*
%TD*%
D17*
%TO.C,C40*%
X158800000Y-71036000D03*
X157250000Y-71036000D03*
%TD*%
D20*
%TO.C,U1*%
X117912300Y-38099675D03*
X117912300Y-38499725D03*
X117912300Y-38899775D03*
X117912300Y-39299825D03*
X117912300Y-39699875D03*
X117912300Y-40099925D03*
X117912300Y-40499975D03*
X117912300Y-40900025D03*
X117912300Y-41300075D03*
X117912300Y-41700125D03*
X117912300Y-42100175D03*
X117912300Y-42500225D03*
X117912300Y-42900275D03*
X117912300Y-43300325D03*
D21*
X118499675Y-43887700D03*
X118899725Y-43887700D03*
X119299775Y-43887700D03*
X119699825Y-43887700D03*
X120099875Y-43887700D03*
X120499925Y-43887700D03*
X120899975Y-43887700D03*
X121300025Y-43887700D03*
X121700075Y-43887700D03*
X122100125Y-43887700D03*
X122500175Y-43887700D03*
X122900225Y-43887700D03*
X123300275Y-43887700D03*
X123700325Y-43887700D03*
D20*
X124287700Y-43300325D03*
X124287700Y-42900275D03*
X124287700Y-42500225D03*
X124287700Y-42100175D03*
X124287700Y-41700125D03*
X124287700Y-41300075D03*
X124287700Y-40900025D03*
X124287700Y-40499975D03*
X124287700Y-40099925D03*
X124287700Y-39699875D03*
X124287700Y-39299825D03*
X124287700Y-38899775D03*
X124287700Y-38499725D03*
X124287700Y-38099675D03*
D21*
X123700325Y-37512300D03*
X123300275Y-37512300D03*
X122900225Y-37512300D03*
X122500175Y-37512300D03*
X122100125Y-37512300D03*
X121700075Y-37512300D03*
X121300025Y-37512300D03*
X120899975Y-37512300D03*
X120499925Y-37512300D03*
X120099875Y-37512300D03*
X119699825Y-37512300D03*
X119299775Y-37512300D03*
X118899725Y-37512300D03*
X118499675Y-37512300D03*
D22*
X121100000Y-40700000D03*
%TD*%
D13*
%TO.C,KiKit_MB_12_3*%
X180133333Y-53200000D03*
%TD*%
D11*
%TO.C,C22*%
X165387000Y-81577000D03*
X166347000Y-81577000D03*
%TD*%
D13*
%TO.C,KiKit_MB_7_1*%
X146266666Y-53200000D03*
%TD*%
D16*
%TO.C,L7*%
X154977000Y-84938000D03*
X154977000Y-82788000D03*
%TD*%
D13*
%TO.C,KiKit_MB_12_4*%
X179133333Y-53200000D03*
%TD*%
%TO.C,KiKit_MB_32_4*%
X188600000Y-93300000D03*
%TD*%
D18*
%TO.C,C6*%
X130813000Y-80561000D03*
X128913000Y-80561000D03*
%TD*%
D13*
%TO.C,KiKit_MB_1_4*%
X117866667Y-28200000D03*
%TD*%
%TO.C,KiKit_MB_3_4*%
X115866667Y-53200000D03*
%TD*%
D18*
%TO.C,C7*%
X130813000Y-78275000D03*
X128913000Y-78275000D03*
%TD*%
D13*
%TO.C,KiKit_MB_32_5*%
X188600000Y-94300000D03*
%TD*%
D17*
%TO.C,C40*%
X131400000Y-36636000D03*
X129850000Y-36636000D03*
%TD*%
D13*
%TO.C,KiKit_MB_16_4*%
X124333333Y-87600000D03*
%TD*%
%TO.C,KiKit_MB_3_5*%
X114866667Y-53200000D03*
%TD*%
%TO.C,KiKit_MB_19_1*%
X146266666Y-87600000D03*
%TD*%
D17*
%TO.C,C39*%
X131400000Y-69258000D03*
X129850000Y-69258000D03*
%TD*%
D13*
%TO.C,KiKit_MB_29_2*%
X108400000Y-20500000D03*
%TD*%
D24*
%TO.C,C13*%
X181475000Y-37144000D03*
X183025000Y-37144000D03*
%TD*%
D10*
%TO.C,C34*%
X165613000Y-84993000D03*
X165613000Y-86543000D03*
%TD*%
D25*
%TO.C,C4*%
X113734000Y-82654000D03*
X113734000Y-80754000D03*
%TD*%
D17*
%TO.C,C40*%
X158800000Y-36636000D03*
X157250000Y-36636000D03*
%TD*%
D12*
%TO.C,L2*%
X119021500Y-84244000D03*
X121146500Y-84244000D03*
%TD*%
D13*
%TO.C,KiKit_MB_9_3*%
X171666666Y-28200000D03*
%TD*%
%TO.C,KiKit_MB_30_6*%
X188600000Y-24500000D03*
%TD*%
%TO.C,KiKit_MB_33_5*%
X103900000Y-28000000D03*
%TD*%
%TO.C,KiKit_MB_31_5*%
X108400000Y-94300000D03*
%TD*%
%TO.C,KiKit_MB_36_4*%
X194100000Y-87800000D03*
%TD*%
D26*
%TO.C,C29*%
X142503000Y-40065000D03*
X141543000Y-40065000D03*
%TD*%
D13*
%TO.C,KiKit_MB_14_5*%
X127333333Y-62600000D03*
%TD*%
D31*
%TO.C,KiKit_FID_T_1*%
X105400000Y-22500000D03*
%TD*%
D23*
%TO.C,C12*%
X175138000Y-69525000D03*
X175138000Y-67975000D03*
%TD*%
D13*
%TO.C,KiKit_MB_31_6*%
X108400000Y-95300000D03*
%TD*%
D18*
%TO.C,C35*%
X186248000Y-32826000D03*
X184348000Y-32826000D03*
%TD*%
D13*
%TO.C,KiKit_MB_34_3*%
X101900000Y-87800000D03*
%TD*%
%TO.C,KiKit_MB_1_3*%
X116866667Y-28200000D03*
%TD*%
D17*
%TO.C,C39*%
X186200000Y-69258000D03*
X184650000Y-69258000D03*
%TD*%
D13*
%TO.C,KiKit_MB_21_3*%
X171666666Y-62600000D03*
%TD*%
%TO.C,KiKit_MB_10_4*%
X181133333Y-28200000D03*
%TD*%
%TO.C,KiKit_MB_28_2*%
X108400000Y-55900000D03*
%TD*%
D12*
%TO.C,L4*%
X121434500Y-66083000D03*
X123559500Y-66083000D03*
%TD*%
D11*
%TO.C,C22*%
X137987000Y-47177000D03*
X138947000Y-47177000D03*
%TD*%
D13*
%TO.C,KiKit_MB_9_4*%
X172666666Y-28200000D03*
%TD*%
D12*
%TO.C,L1*%
X128800500Y-76116000D03*
X130925500Y-76116000D03*
%TD*%
D13*
%TO.C,KiKit_MB_15_1*%
X118866667Y-87600000D03*
%TD*%
D11*
%TO.C,C27*%
X165387000Y-66210000D03*
X166347000Y-66210000D03*
%TD*%
D13*
%TO.C,KiKit_MB_28_3*%
X108400000Y-56900000D03*
%TD*%
D14*
%TO.C,C17*%
X117671000Y-46062000D03*
X117671000Y-47022000D03*
%TD*%
D24*
%TO.C,C14*%
X126675000Y-38922000D03*
X128225000Y-38922000D03*
%TD*%
D10*
%TO.C,C8*%
X147865000Y-46275000D03*
X147865000Y-47825000D03*
%TD*%
D13*
%TO.C,KiKit_MB_34_5*%
X103900000Y-87800000D03*
%TD*%
%TO.C,KiKit_MB_19_5*%
X142266666Y-87600000D03*
%TD*%
%TO.C,KiKit_MB_34_4*%
X102900000Y-87800000D03*
%TD*%
D12*
%TO.C,L4*%
X176234500Y-31683000D03*
X178359500Y-31683000D03*
%TD*%
D26*
%TO.C,C16*%
X114468000Y-38922000D03*
X113508000Y-38922000D03*
%TD*%
D18*
%TO.C,C6*%
X185613000Y-80561000D03*
X183713000Y-80561000D03*
%TD*%
D23*
%TO.C,C32*%
X129990000Y-83876000D03*
X129990000Y-82326000D03*
%TD*%
D12*
%TO.C,L2*%
X146421500Y-49844000D03*
X148546500Y-49844000D03*
%TD*%
D17*
%TO.C,C39*%
X131400000Y-34858000D03*
X129850000Y-34858000D03*
%TD*%
D13*
%TO.C,KiKit_MB_23_4*%
X170666666Y-87600000D03*
%TD*%
D23*
%TO.C,C11*%
X121989000Y-69525000D03*
X121989000Y-67975000D03*
%TD*%
%TO.C,C32*%
X157390000Y-83876000D03*
X157390000Y-82326000D03*
%TD*%
D10*
%TO.C,C34*%
X138213000Y-50593000D03*
X138213000Y-52143000D03*
%TD*%
D29*
%TO.C,C37*%
X113988000Y-68689000D03*
X113988000Y-70589000D03*
%TD*%
D15*
%TO.C,L6*%
X150346000Y-84752000D03*
X152496000Y-84752000D03*
%TD*%
D11*
%TO.C,C24*%
X137987000Y-70020000D03*
X138947000Y-70020000D03*
%TD*%
D13*
%TO.C,KiKit_MB_11_2*%
X172666666Y-53200000D03*
%TD*%
D17*
%TO.C,C38*%
X150799000Y-64178000D03*
X149249000Y-64178000D03*
%TD*%
D15*
%TO.C,L6*%
X122946000Y-84752000D03*
X125096000Y-84752000D03*
%TD*%
D14*
%TO.C,C17*%
X172471000Y-46062000D03*
X172471000Y-47022000D03*
%TD*%
D26*
%TO.C,C29*%
X169903000Y-40065000D03*
X168943000Y-40065000D03*
%TD*%
%TO.C,C2*%
X186413000Y-38160000D03*
X185453000Y-38160000D03*
%TD*%
D25*
%TO.C,C3*%
X115893000Y-48254000D03*
X115893000Y-46354000D03*
%TD*%
D11*
%TO.C,C27*%
X137987000Y-66210000D03*
X138947000Y-66210000D03*
%TD*%
D13*
%TO.C,KiKit_MB_19_3*%
X144266666Y-87600000D03*
%TD*%
D25*
%TO.C,C4*%
X168534000Y-48254000D03*
X168534000Y-46354000D03*
%TD*%
D11*
%TO.C,C23*%
X137987000Y-44510000D03*
X138947000Y-44510000D03*
%TD*%
D13*
%TO.C,KiKit_MB_16_3*%
X125333333Y-87600000D03*
%TD*%
M02*
