%TF.GenerationSoftware,KiCad,Pcbnew,9.0.5*%
%TF.CreationDate,2025-10-18T13:07:23+01:00*%
%TF.ProjectId,pmic_panel,706d6963-5f70-4616-9e65-6c2e6b696361,rev?*%
%TF.SameCoordinates,Original*%
%TF.FileFunction,Profile,NP*%
%FSLAX46Y46*%
G04 Gerber Fmt 4.6, Leading zero omitted, Abs format (unit mm)*
G04 Created by KiCad (PCBNEW 9.0.5) date 2025-10-18 13:07:23*
%MOMM*%
%LPD*%
G01*
G04 APERTURE LIST*
%TA.AperFunction,Profile*%
%ADD10C,0.100000*%
%TD*%
G04 APERTURE END LIST*
D10*
X145777479Y-54252416D02*
X145785862Y-54204104D01*
X123691203Y-54914588D02*
X123664971Y-54956014D01*
X169874066Y-60692600D02*
X169907876Y-60728112D01*
X142322681Y-55231637D02*
X142281255Y-55257870D01*
X145796605Y-88556262D02*
X145809683Y-88509005D01*
X127542339Y-87843016D02*
X127589596Y-87829939D01*
X106252416Y-25010812D02*
X106301080Y-25004810D01*
X151091203Y-54914588D02*
X151064971Y-54956014D01*
X173829113Y-90741602D02*
X173783366Y-90723955D01*
X142648705Y-25528074D02*
X142670751Y-25571872D01*
X191541602Y-25662447D02*
X191556983Y-25709005D01*
X173185862Y-61204104D02*
X173196605Y-61156262D01*
X146025456Y-62071887D02*
X145993429Y-62034758D01*
X115224537Y-25485411D02*
X115248705Y-25528074D01*
X127685749Y-27989187D02*
X127637438Y-27980804D01*
X150661460Y-25095914D02*
X150705258Y-25117960D01*
X173694741Y-62282039D02*
X173652078Y-62257870D01*
X127495780Y-62341602D02*
X127450032Y-62323955D01*
X151214137Y-89995895D02*
X151203394Y-90043737D01*
X173829113Y-27941602D02*
X173783366Y-27923955D01*
X150380917Y-62389187D02*
X150332252Y-62395189D01*
X150477070Y-55370060D02*
X150429228Y-55380804D01*
X145884627Y-88328074D02*
X145908796Y-88285411D01*
X118694779Y-60658790D02*
X118731907Y-60626762D01*
X126833333Y-89800987D02*
X126833333Y-88799012D01*
X155232345Y-28000000D02*
X155183314Y-27998796D01*
X126876350Y-61109005D02*
X126891731Y-61062447D01*
X191523955Y-54783300D02*
X191504085Y-54828127D01*
X170048705Y-61871925D02*
X170024537Y-61914588D01*
X181925933Y-27707399D02*
X181892123Y-27671887D01*
X178622520Y-61547583D02*
X178614137Y-61595895D01*
X169722681Y-27831637D02*
X169681255Y-27857870D01*
X127542339Y-53443016D02*
X127589596Y-53429939D01*
X142747470Y-61204104D02*
X142755853Y-61252416D01*
X123468092Y-88026762D02*
X123505220Y-88058790D01*
X191570060Y-61156262D02*
X191580804Y-61204104D01*
X182118744Y-87942129D02*
X182161408Y-87917960D01*
X151091203Y-25485411D02*
X151115372Y-25528074D01*
X178464971Y-88243985D02*
X178491203Y-88285411D01*
X150283351Y-87801203D02*
X150332252Y-87804810D01*
X123389347Y-60568362D02*
X123429436Y-60596595D01*
X114881255Y-62257870D02*
X114838591Y-62282039D01*
X115366666Y-54400987D02*
X115365463Y-54450018D01*
X190843737Y-90770060D02*
X190795895Y-90780804D01*
X119267747Y-27995189D02*
X119219082Y-27989187D01*
X173393429Y-55034758D02*
X173363262Y-54996103D01*
X169681255Y-53542129D02*
X169722681Y-53568362D01*
X150477070Y-25029939D02*
X150524327Y-25043016D01*
X173393429Y-62034758D02*
X173363262Y-61996103D01*
X191234758Y-25226762D02*
X191271887Y-25258790D01*
X173171477Y-61301080D02*
X173177479Y-61252416D01*
X114562561Y-90780804D02*
X114514250Y-90789187D01*
X163200000Y-62412272D02*
X163200000Y-87787727D01*
X127125933Y-25292600D02*
X127161446Y-25258790D01*
X123574543Y-88128112D02*
X123606570Y-88165241D01*
X118770563Y-60596595D02*
X118810652Y-60568362D01*
X123832129Y-88749981D02*
X123833333Y-88799012D01*
X123790316Y-54109005D02*
X123803394Y-54156262D01*
X170166666Y-54400987D02*
X170165463Y-54450018D01*
X182632345Y-90800000D02*
X182583314Y-90798796D01*
X169410403Y-55370060D02*
X169362561Y-55380804D01*
X123833333Y-61400987D02*
X123832129Y-61450018D01*
X106062447Y-25058397D02*
X106109005Y-25043016D01*
X142570070Y-54996103D02*
X142539903Y-55034758D01*
X123261460Y-60495914D02*
X123305258Y-60517960D01*
X146716648Y-90798796D02*
X146667747Y-90795189D01*
X145796605Y-61156262D02*
X145809683Y-61109005D01*
X170166666Y-61399012D02*
X170166666Y-61400987D01*
X123814137Y-88604104D02*
X123822520Y-88652416D01*
X181729248Y-53971872D02*
X181751294Y-53928074D01*
X178061460Y-53495914D02*
X178105258Y-53517960D01*
X126863272Y-88556262D02*
X126876350Y-88509005D01*
X173459267Y-88092600D02*
X173494779Y-88058790D01*
X169167654Y-53400000D02*
X169216685Y-53401203D01*
X154276350Y-61690994D02*
X154263272Y-61643737D01*
X169167654Y-55400000D02*
X155232345Y-55400000D01*
X123216633Y-90723955D02*
X123170886Y-90741602D01*
X105568362Y-90356014D02*
X105542129Y-90314588D01*
X169594794Y-60495914D02*
X169638591Y-60517960D01*
X126876350Y-25709005D02*
X126891731Y-25662447D01*
X170123649Y-90090994D02*
X170108268Y-90137552D01*
X145963262Y-60803896D02*
X145993429Y-60765241D01*
X115074066Y-90507399D02*
X115038553Y-90541209D01*
X181860096Y-88165241D02*
X181892123Y-88128112D01*
X150940732Y-90507399D02*
X150905220Y-90541209D01*
X182037229Y-27803404D02*
X181998574Y-27773237D01*
X169549967Y-62323955D02*
X169504219Y-62341602D01*
X142194794Y-87895914D02*
X142238591Y-87917960D01*
X154309377Y-27383300D02*
X154291731Y-27337552D01*
X105419195Y-54595895D02*
X105410812Y-54547583D01*
X150789347Y-87968362D02*
X150829436Y-87996595D01*
X150570886Y-62341602D02*
X150524327Y-62356983D01*
X145767870Y-88749981D02*
X145771477Y-88701080D01*
X127589596Y-60429939D02*
X127637438Y-60419195D01*
X177683351Y-55398796D02*
X177634321Y-55400000D01*
X150705258Y-53517960D02*
X150747921Y-53542129D01*
X145767870Y-61450018D02*
X145766666Y-61400987D01*
X118535028Y-53843985D02*
X118563262Y-53803896D01*
X123757288Y-61783300D02*
X123737418Y-61828127D01*
X105443016Y-90090994D02*
X105429939Y-90043737D01*
X146383366Y-62323955D02*
X146338539Y-62304085D01*
X178436737Y-60803896D02*
X178464971Y-60843985D01*
X127832345Y-53400000D02*
X133787727Y-53400000D01*
X170155853Y-54252416D02*
X170161855Y-54301080D01*
X182250032Y-60476044D02*
X182295780Y-60458397D01*
X191271887Y-60658790D02*
X191307399Y-60692600D01*
X191589187Y-25852416D02*
X191595189Y-25901080D01*
X114514250Y-60410812D02*
X114562561Y-60419195D01*
X154598574Y-88026762D02*
X154637229Y-87996595D01*
X114881255Y-53542129D02*
X114922681Y-53568362D01*
X118367870Y-88749981D02*
X118371477Y-88701080D01*
X145796605Y-25756262D02*
X145809683Y-25709005D01*
X115107876Y-53728112D02*
X115139903Y-53765241D01*
X169970070Y-61996103D02*
X169939903Y-62034758D01*
X123468092Y-60626762D02*
X123505220Y-60658790D01*
X123305258Y-62282039D02*
X123261460Y-62304085D01*
X181634536Y-25949981D02*
X181638144Y-25901080D01*
X150477070Y-27970060D02*
X150429228Y-27980804D01*
X145908796Y-54914588D02*
X145884627Y-54871925D01*
X177829228Y-53419195D02*
X177877070Y-53429939D01*
X181860096Y-55034758D02*
X181829929Y-54996103D01*
X174116648Y-87801203D02*
X174165678Y-87800000D01*
X114657660Y-27956983D02*
X114610403Y-27970060D01*
X178614137Y-61204104D02*
X178622520Y-61252416D01*
X127685749Y-90789187D02*
X127637438Y-90780804D01*
X173166666Y-89800987D02*
X173166666Y-88799012D01*
X126891731Y-61062447D02*
X126909377Y-61016699D01*
X181998574Y-88026762D02*
X182037229Y-87996595D01*
X106156262Y-25029939D02*
X106204104Y-25019195D01*
X118770563Y-53596595D02*
X118810652Y-53568362D01*
X114367654Y-28000000D02*
X108412272Y-28000000D01*
X142766666Y-25999012D02*
X142766666Y-27000987D01*
X115074066Y-55107399D02*
X115038553Y-55141209D01*
X115355853Y-54547583D02*
X115347470Y-54595895D01*
X118385862Y-89995895D02*
X118377479Y-89947583D01*
X154375462Y-61914588D02*
X154351294Y-61871925D01*
X106016699Y-60476044D02*
X106062447Y-60458397D01*
X151036737Y-27596103D02*
X151006570Y-27634758D01*
X114704219Y-27941602D02*
X114657660Y-27956983D01*
X145884627Y-27471925D02*
X145862581Y-27428127D01*
X155183314Y-55398796D02*
X155134414Y-55395189D01*
X127161446Y-27741209D02*
X127125933Y-27707399D01*
X191341209Y-60728112D02*
X191373237Y-60765241D01*
X182295780Y-25058397D02*
X182342339Y-25043016D01*
X178464971Y-90356014D02*
X178436737Y-90396103D01*
X174116648Y-27998796D02*
X174067747Y-27995189D01*
X154761408Y-60517960D02*
X154805205Y-60495914D01*
X118409683Y-88509005D02*
X118425064Y-88462447D01*
X173284627Y-25528074D02*
X173308796Y-25485411D01*
X181663272Y-61643737D02*
X181652529Y-61595895D01*
X151190316Y-61109005D02*
X151203394Y-61156262D01*
X190937552Y-60458397D02*
X190983300Y-60476044D01*
X142238591Y-53517960D02*
X142281255Y-53542129D01*
X123468092Y-90573237D02*
X123429436Y-90603404D01*
X150747921Y-25142129D02*
X150789347Y-25168362D01*
X114749967Y-55323955D02*
X114704219Y-55341602D01*
X170166666Y-54399012D02*
X170166666Y-54400987D01*
X178633333Y-27000987D02*
X178632129Y-27050018D01*
X127405205Y-60495914D02*
X127450032Y-60476044D01*
X105419195Y-89995895D02*
X105410812Y-89947583D01*
X146294741Y-60517960D02*
X146338539Y-60495914D01*
X178603394Y-61643737D02*
X178590316Y-61690994D01*
X178464971Y-27556014D02*
X178436737Y-27596103D01*
X106252416Y-90789187D02*
X106204104Y-90780804D01*
X154263272Y-54156262D02*
X154276350Y-54109005D01*
X154598574Y-60626762D02*
X154637229Y-60596595D01*
X146716648Y-55398796D02*
X146667747Y-55395189D01*
X142747470Y-54204104D02*
X142755853Y-54252416D01*
X150747921Y-60542129D02*
X150789347Y-60568362D01*
X115336727Y-61643737D02*
X115323649Y-61690994D01*
X154252529Y-89995895D02*
X154244146Y-89947583D01*
X174019082Y-87810812D02*
X174067747Y-87804810D01*
X146667747Y-60404810D02*
X146716648Y-60401203D01*
X118731907Y-55173237D02*
X118694779Y-55141209D01*
X114838591Y-90682039D02*
X114794794Y-90704085D01*
X173308796Y-53885411D02*
X173335028Y-53843985D01*
X181644146Y-88652416D02*
X181652529Y-88604104D01*
X114794794Y-53495914D02*
X114838591Y-53517960D01*
X146570771Y-90780804D02*
X146522929Y-90770060D01*
X115224537Y-27514588D02*
X115198304Y-27556014D01*
X123540732Y-62107399D02*
X123505220Y-62141209D01*
X182205205Y-25095914D02*
X182250032Y-25076044D01*
X106399012Y-25000000D02*
X114367654Y-25000000D01*
X123261460Y-27904085D02*
X123216633Y-27923955D01*
X142708268Y-61737552D02*
X142690622Y-61783300D01*
X142507876Y-62071887D02*
X142474066Y-62107399D01*
X105410812Y-61252416D02*
X105419195Y-61204104D01*
X154761408Y-25117960D02*
X154805205Y-25095914D01*
X123715372Y-90271925D02*
X123691203Y-90314588D01*
X118508796Y-61914588D02*
X118484627Y-61871925D01*
X114610403Y-87829939D02*
X114657660Y-87843016D01*
X105568362Y-54956014D02*
X105542129Y-54914588D01*
X170161855Y-54301080D02*
X170165463Y-54349981D01*
X191373237Y-55034758D02*
X191341209Y-55071887D01*
X126834536Y-54450018D02*
X126833333Y-54400987D01*
X118659267Y-60692600D02*
X118694779Y-60658790D01*
X123822520Y-61547583D02*
X123814137Y-61595895D01*
X142624537Y-54914588D02*
X142598304Y-54956014D01*
X115139903Y-53765241D02*
X115170070Y-53803896D01*
X127734414Y-27995189D02*
X127685749Y-27989187D01*
X127060096Y-88165241D02*
X127092123Y-88128112D01*
X173284627Y-54871925D02*
X173262581Y-54828127D01*
X145908796Y-53885411D02*
X145935028Y-53843985D01*
X118377479Y-25852416D02*
X118385862Y-25804104D01*
X169216685Y-62398796D02*
X169167654Y-62400000D01*
X145908796Y-27514588D02*
X145884627Y-27471925D01*
X119029113Y-25058397D02*
X119075672Y-25043016D01*
X155085749Y-87810812D02*
X155134414Y-87804810D01*
X126838144Y-88701080D02*
X126844146Y-88652416D01*
X154942339Y-53443016D02*
X154989596Y-53429939D01*
X181925933Y-90507399D02*
X181892123Y-90471887D01*
X178374543Y-55071887D02*
X178340732Y-55107399D01*
X145993429Y-60765241D02*
X146025456Y-60728112D01*
X123261460Y-87895914D02*
X123305258Y-87917960D01*
X145908796Y-90314588D02*
X145884627Y-90271925D01*
X122834321Y-55400000D02*
X119365678Y-55400000D01*
X142670751Y-90228127D02*
X142648705Y-90271925D01*
X133787727Y-62400000D02*
X127832345Y-62400000D01*
X119316648Y-62398796D02*
X119267747Y-62395189D01*
X119219082Y-55389187D02*
X119170771Y-55380804D01*
X150332252Y-90795189D02*
X150283351Y-90798796D01*
X191196103Y-25196595D02*
X191234758Y-25226762D01*
X108400000Y-28012272D02*
X108400000Y-53387727D01*
X151190316Y-61690994D02*
X151174935Y-61737552D01*
X105728112Y-60658790D02*
X105765241Y-60626762D01*
X105404810Y-54498919D02*
X105401203Y-54450018D01*
X155183314Y-27998796D02*
X155134414Y-27995189D01*
X123822520Y-54547583D02*
X123814137Y-54595895D01*
X181691731Y-88462447D02*
X181709377Y-88416699D01*
X182534414Y-53404810D02*
X182583314Y-53401203D01*
X178340732Y-55107399D02*
X178305220Y-55141209D01*
X119365678Y-62400000D02*
X119316648Y-62398796D01*
X170070751Y-54828127D02*
X170048705Y-54871925D01*
X118442711Y-27383300D02*
X118425064Y-27337552D01*
X173171477Y-27098919D02*
X173167870Y-27050018D01*
X182437438Y-62380804D02*
X182389596Y-62370060D01*
X191307399Y-60692600D02*
X191341209Y-60728112D01*
X118938539Y-90704085D02*
X118894741Y-90682039D01*
X142570070Y-90396103D02*
X142539903Y-90434758D01*
X105843985Y-25168362D02*
X105885411Y-25142129D01*
X105971872Y-60495914D02*
X106016699Y-60476044D01*
X169410403Y-87829939D02*
X169457660Y-87843016D01*
X146765678Y-60400000D02*
X150234321Y-60400000D01*
X151115372Y-54871925D02*
X151091203Y-54914588D01*
X178614137Y-54595895D02*
X178603394Y-54643737D01*
X181860096Y-27634758D02*
X181829929Y-27596103D01*
X115323649Y-90090994D02*
X115308268Y-90137552D01*
X119316648Y-27998796D02*
X119267747Y-27995189D01*
X118508796Y-53885411D02*
X118535028Y-53843985D01*
X182583314Y-25001203D02*
X182632345Y-25000000D01*
X123790316Y-90090994D02*
X123774935Y-90137552D01*
X145785862Y-61595895D02*
X145777479Y-61547583D01*
X145884627Y-60928074D02*
X145908796Y-60885411D01*
X142438553Y-88058790D02*
X142474066Y-88092600D01*
X150332252Y-87804810D02*
X150380917Y-87810812D01*
X114838591Y-55282039D02*
X114794794Y-55304085D01*
X150829436Y-53596595D02*
X150868092Y-53626762D01*
X177970886Y-53458397D02*
X178016633Y-53476044D01*
X190698919Y-90795189D02*
X190650018Y-90798796D01*
X154598574Y-25226762D02*
X154637229Y-25196595D01*
X169638591Y-87917960D02*
X169681255Y-87942129D01*
X154244146Y-27147583D02*
X154238144Y-27098919D01*
X173494779Y-90541209D02*
X173459267Y-90507399D01*
X191156014Y-90631637D02*
X191114588Y-90657870D01*
X181829929Y-88203896D02*
X181860096Y-88165241D01*
X146025456Y-88128112D02*
X146059267Y-88092600D01*
X118535028Y-54956014D02*
X118508796Y-54914588D01*
X114465585Y-53404810D02*
X114514250Y-53410812D01*
X169457660Y-27956983D02*
X169410403Y-27970060D01*
X123540732Y-27707399D02*
X123505220Y-27741209D01*
X145825064Y-61062447D02*
X145842711Y-61016699D01*
X154850032Y-87876044D02*
X154895780Y-87858397D01*
X119316648Y-55398796D02*
X119267747Y-55395189D01*
X105626762Y-25365241D02*
X105658790Y-25328112D01*
X146383366Y-87876044D02*
X146429113Y-87858397D01*
X118367870Y-54450018D02*
X118366666Y-54400987D01*
X154429929Y-25403896D02*
X154460096Y-25365241D01*
X178603394Y-27243737D02*
X178590316Y-27290994D01*
X155232345Y-55400000D02*
X155183314Y-55398796D01*
X127318744Y-55257870D02*
X127277318Y-55231637D01*
X178105258Y-87917960D02*
X178147921Y-87942129D01*
X141816685Y-87801203D02*
X141865585Y-87804810D01*
X169838553Y-53658790D02*
X169874066Y-53692600D01*
X151064971Y-27556014D02*
X151036737Y-27596103D01*
X142690622Y-61783300D02*
X142670751Y-61828127D01*
X188598754Y-62400270D02*
X188587752Y-62400000D01*
X118371477Y-61498919D02*
X118367870Y-61450018D01*
X178557288Y-88416699D02*
X178574935Y-88462447D01*
X182437438Y-60419195D02*
X182485749Y-60410812D01*
X142736727Y-88556262D02*
X142747470Y-88604104D01*
X146252078Y-62257870D02*
X146210652Y-62231637D01*
X145908796Y-60885411D02*
X145935028Y-60843985D01*
X150829436Y-25196595D02*
X150868092Y-25226762D01*
X178537418Y-61828127D02*
X178515372Y-61871925D01*
X173209683Y-61690994D02*
X173196605Y-61643737D01*
X178305220Y-25258790D02*
X178340732Y-25292600D01*
X123305258Y-25117960D02*
X123347921Y-25142129D01*
X146025456Y-27671887D02*
X145993429Y-27634758D01*
X178628522Y-54498919D02*
X178622520Y-54547583D01*
X142104219Y-60458397D02*
X142149967Y-60476044D01*
X146570771Y-27980804D02*
X146522929Y-27970060D01*
X173185862Y-27195895D02*
X173177479Y-27147583D01*
X127542339Y-62356983D02*
X127495780Y-62341602D01*
X178537418Y-88371872D02*
X178557288Y-88416699D01*
X174067747Y-25004810D02*
X174116648Y-25001203D01*
X154677318Y-60568362D02*
X154718744Y-60542129D01*
X105410812Y-89947583D02*
X105404810Y-89898919D01*
X119316648Y-60401203D02*
X119365678Y-60400000D01*
X114416685Y-87801203D02*
X114465585Y-87804810D01*
X173262581Y-53971872D02*
X173284627Y-53928074D01*
X154598574Y-55173237D02*
X154561446Y-55141209D01*
X169970070Y-25403896D02*
X169998304Y-25443985D01*
X154238144Y-61498919D02*
X154234536Y-61450018D01*
X170166666Y-61400987D02*
X170165463Y-61450018D01*
X151214137Y-88604104D02*
X151222520Y-88652416D01*
X190795895Y-55380804D02*
X190747583Y-55389187D01*
X173284627Y-60928074D02*
X173308796Y-60885411D01*
X150940732Y-53692600D02*
X150974543Y-53728112D01*
X155037438Y-25019195D02*
X155085749Y-25010812D01*
X150524327Y-55356983D02*
X150477070Y-55370060D01*
X154234536Y-89850018D02*
X154233333Y-89800987D01*
X115170070Y-54996103D02*
X115139903Y-55034758D01*
X173922929Y-25029939D02*
X173970771Y-25019195D01*
X169939903Y-88165241D02*
X169970070Y-88203896D01*
X142598304Y-61956014D02*
X142570070Y-61996103D01*
X127318744Y-60542129D02*
X127361408Y-60517960D01*
X142149967Y-87876044D02*
X142194794Y-87895914D01*
X146619082Y-53410812D02*
X146667747Y-53404810D01*
X114838591Y-53517960D02*
X114881255Y-53542129D01*
X173425456Y-25328112D02*
X173459267Y-25292600D01*
X173262581Y-25571872D02*
X173284627Y-25528074D01*
X170155853Y-27147583D02*
X170147470Y-27195895D01*
X173209683Y-27290994D02*
X173196605Y-27243737D01*
X115074066Y-88092600D02*
X115107876Y-88128112D01*
X178268092Y-90573237D02*
X178229436Y-90603404D01*
X127361408Y-87917960D02*
X127405205Y-87895914D01*
X142281255Y-25142129D02*
X142322681Y-25168362D01*
X123029228Y-60419195D02*
X123077070Y-60429939D01*
X127783314Y-55398796D02*
X127734414Y-55395189D01*
X154598574Y-62173237D02*
X154561446Y-62141209D01*
X169314250Y-25010812D02*
X169362561Y-25019195D01*
X170108268Y-27337552D02*
X170090622Y-27383300D01*
X145777479Y-54547583D02*
X145771477Y-54498919D01*
X118894741Y-55282039D02*
X118852078Y-55257870D01*
X181652529Y-61204104D02*
X181663272Y-61156262D01*
X181676350Y-54109005D02*
X181691731Y-54062447D01*
X182583314Y-87801203D02*
X182632345Y-87800000D01*
X145842711Y-61016699D02*
X145862581Y-60971872D01*
X135812272Y-53400000D02*
X141767654Y-53400000D01*
X123774935Y-54062447D02*
X123790316Y-54109005D01*
X151137418Y-54828127D02*
X151115372Y-54871925D01*
X154805205Y-60495914D02*
X154850032Y-60476044D01*
X154989596Y-87829939D02*
X155037438Y-87819195D01*
X182485749Y-90789187D02*
X182437438Y-90780804D01*
X181644146Y-25852416D02*
X181652529Y-25804104D01*
X170070751Y-88371872D02*
X170090622Y-88416699D01*
X178189347Y-90631637D02*
X178147921Y-90657870D01*
X115170070Y-60803896D02*
X115198304Y-60843985D01*
X190747583Y-55389187D02*
X190698919Y-55395189D01*
X151228522Y-88701080D02*
X151232129Y-88749981D01*
X123757288Y-25616699D02*
X123774935Y-25662447D01*
X182389596Y-62370060D02*
X182342339Y-62356983D01*
X169362561Y-25019195D02*
X169410403Y-25029939D01*
X127125933Y-88092600D02*
X127161446Y-88058790D01*
X126909377Y-61783300D02*
X126891731Y-61737552D01*
X122980917Y-55389187D02*
X122932252Y-55395189D01*
X173875672Y-25043016D02*
X173922929Y-25029939D01*
X122883351Y-27998796D02*
X122834321Y-28000000D01*
X154276350Y-54690994D02*
X154263272Y-54643737D01*
X151203394Y-27243737D02*
X151190316Y-27290994D01*
X142104219Y-55341602D02*
X142057660Y-55356983D01*
X181775462Y-88285411D02*
X181801695Y-88243985D01*
X118377479Y-89947583D02*
X118371477Y-89898919D01*
X123636737Y-53803896D02*
X123664971Y-53843985D01*
X123774935Y-61062447D02*
X123790316Y-61109005D01*
X191028127Y-60495914D02*
X191071925Y-60517960D01*
X115248705Y-25528074D02*
X115270751Y-25571872D01*
X114838591Y-87917960D02*
X114881255Y-87942129D01*
X142104219Y-62341602D02*
X142057660Y-62356983D01*
X178614137Y-88604104D02*
X178622520Y-88652416D01*
X173171477Y-89898919D02*
X173167870Y-89850018D01*
X126844146Y-25852416D02*
X126852529Y-25804104D01*
X178105258Y-27882039D02*
X178061460Y-27904085D01*
X178614137Y-61595895D02*
X178603394Y-61643737D01*
X150616633Y-27923955D02*
X150570886Y-27941602D01*
X115361855Y-54498919D02*
X115355853Y-54547583D01*
X141962561Y-53419195D02*
X142010403Y-53429939D01*
X122932252Y-62395189D02*
X122883351Y-62398796D01*
X145785862Y-54204104D02*
X145796605Y-54156262D01*
X182161408Y-87917960D02*
X182205205Y-87895914D01*
X142690622Y-25616699D02*
X142708268Y-25662447D01*
X169314250Y-62389187D02*
X169265585Y-62395189D01*
X170166666Y-88799012D02*
X170166666Y-89800987D01*
X123170886Y-62341602D02*
X123124327Y-62356983D01*
X173177479Y-61252416D02*
X173185862Y-61204104D01*
X123828522Y-54301080D02*
X123832129Y-54349981D01*
X123077070Y-90770060D02*
X123029228Y-90780804D01*
X118442711Y-88416699D02*
X118462581Y-88371872D01*
X146570771Y-53419195D02*
X146619082Y-53410812D01*
X105458397Y-61062447D02*
X105476044Y-61016699D01*
X173531907Y-88026762D02*
X173570563Y-87996595D01*
X150429228Y-55380804D02*
X150380917Y-55389187D01*
X150283351Y-60401203D02*
X150332252Y-60404810D01*
X191341209Y-25328112D02*
X191373237Y-25365241D01*
X123077070Y-87829939D02*
X123124327Y-87843016D01*
X105728112Y-55141209D02*
X105692600Y-55107399D01*
X122932252Y-27995189D02*
X122883351Y-27998796D01*
X151214137Y-61204104D02*
X151222520Y-61252416D01*
X151214137Y-54595895D02*
X151203394Y-54643737D01*
X141914250Y-87810812D02*
X141962561Y-87819195D01*
X173225064Y-61062447D02*
X173242711Y-61016699D01*
X173570563Y-60596595D02*
X173610652Y-60568362D01*
X141914250Y-53410812D02*
X141962561Y-53419195D01*
X173308796Y-88285411D02*
X173335028Y-88243985D01*
X154598574Y-90573237D02*
X154561446Y-90541209D01*
X154252529Y-54595895D02*
X154244146Y-54547583D01*
X146475672Y-27956983D02*
X146429113Y-27941602D01*
X114749967Y-62323955D02*
X114704219Y-62341602D01*
X145785862Y-54595895D02*
X145777479Y-54547583D01*
X115248705Y-60928074D02*
X115270751Y-60971872D01*
X126951294Y-27471925D02*
X126929248Y-27428127D01*
X196587727Y-20000000D02*
X100412272Y-20000000D01*
X169457660Y-62356983D02*
X169410403Y-62370060D01*
X115198304Y-90356014D02*
X115170070Y-90396103D01*
X142438553Y-60658790D02*
X142474066Y-60692600D01*
X190650018Y-55398796D02*
X190600987Y-55400000D01*
X178105258Y-62282039D02*
X178061460Y-62304085D01*
X177780917Y-62389187D02*
X177732252Y-62395189D01*
X142648705Y-88328074D02*
X142670751Y-88371872D01*
X173177479Y-54252416D02*
X173185862Y-54204104D01*
X142010403Y-27970060D02*
X141962561Y-27980804D01*
X142624537Y-25485411D02*
X142648705Y-25528074D01*
X114610403Y-90770060D02*
X114562561Y-90780804D01*
X154401695Y-61956014D02*
X154375462Y-61914588D01*
X123814137Y-54204104D02*
X123822520Y-54252416D01*
X123540732Y-55107399D02*
X123505220Y-55141209D01*
X123389347Y-62231637D02*
X123347921Y-62257870D01*
X142598304Y-90356014D02*
X142570070Y-90396103D01*
X118894741Y-25117960D02*
X118938539Y-25095914D01*
X115038553Y-27741209D02*
X115001425Y-27773237D01*
X145884627Y-53928074D02*
X145908796Y-53885411D01*
X181892123Y-53728112D02*
X181925933Y-53692600D01*
X173185862Y-54204104D02*
X173196605Y-54156262D01*
X123814137Y-25804104D02*
X123822520Y-25852416D01*
X178622520Y-25852416D02*
X178628522Y-25901080D01*
X126909377Y-61016699D02*
X126929248Y-60971872D01*
X145935028Y-53843985D02*
X145963262Y-53803896D01*
X170090622Y-54016699D02*
X170108268Y-54062447D01*
X169907876Y-27671887D02*
X169874066Y-27707399D01*
X151233333Y-25999012D02*
X151233333Y-27000987D01*
X150332252Y-25004810D02*
X150380917Y-25010812D01*
X106252416Y-55389187D02*
X106204104Y-55380804D01*
X154429929Y-88203896D02*
X154460096Y-88165241D01*
X142507876Y-25328112D02*
X142539903Y-25365241D01*
X151203394Y-54156262D02*
X151214137Y-54204104D01*
X182077318Y-60568362D02*
X182118744Y-60542129D01*
X123757288Y-54016699D02*
X123774935Y-54062447D01*
X151232129Y-54349981D02*
X151233333Y-54399012D01*
X105568362Y-25443985D02*
X105596595Y-25403896D01*
X123170886Y-27941602D02*
X123124327Y-27956983D01*
X150380917Y-90789187D02*
X150332252Y-90795189D01*
X173783366Y-60476044D02*
X173829113Y-60458397D01*
X150974543Y-60728112D02*
X151006570Y-60765241D01*
X170147470Y-54595895D02*
X170136727Y-54643737D01*
X142747470Y-54595895D02*
X142736727Y-54643737D01*
X182205205Y-60495914D02*
X182250032Y-60476044D01*
X181638144Y-61301080D02*
X181644146Y-61252416D01*
X114416685Y-27998796D02*
X114367654Y-28000000D01*
X169410403Y-62370060D02*
X169362561Y-62380804D01*
X119365678Y-53400000D02*
X122834321Y-53400000D01*
X115248705Y-54871925D02*
X115224537Y-54914588D01*
X170136727Y-54156262D02*
X170147470Y-54204104D01*
X114416685Y-90798796D02*
X114367654Y-90800000D01*
X146338539Y-62304085D02*
X146294741Y-62282039D01*
X154233333Y-54400987D02*
X154233333Y-54399012D01*
X146338539Y-60495914D02*
X146383366Y-60476044D01*
X173829113Y-53458397D02*
X173875672Y-53443016D01*
X115361855Y-25901080D02*
X115365463Y-25949981D01*
X150789347Y-25168362D02*
X150829436Y-25196595D01*
X182077318Y-55231637D02*
X182037229Y-55203404D01*
X142765463Y-25949981D02*
X142766666Y-25999012D01*
X126834536Y-27050018D02*
X126833333Y-27000987D01*
X118385862Y-54595895D02*
X118377479Y-54547583D01*
X146094779Y-62141209D02*
X146059267Y-62107399D01*
X182437438Y-25019195D02*
X182485749Y-25010812D01*
X114416685Y-60401203D02*
X114465585Y-60404810D01*
X173209683Y-88509005D02*
X173225064Y-88462447D01*
X154525933Y-60692600D02*
X154561446Y-60658790D01*
X181644146Y-89947583D02*
X181638144Y-89898919D01*
X127542339Y-90756983D02*
X127495780Y-90741602D01*
X181925933Y-60692600D02*
X181961446Y-60658790D01*
X150570886Y-60458397D02*
X150616633Y-60476044D01*
X150477070Y-62370060D02*
X150429228Y-62380804D01*
X142438553Y-27741209D02*
X142401425Y-27773237D01*
X174067747Y-27995189D02*
X174019082Y-27989187D01*
X182205205Y-87895914D02*
X182250032Y-87876044D01*
X154329248Y-27428127D02*
X154309377Y-27383300D01*
X154895780Y-53458397D02*
X154942339Y-53443016D01*
X118371477Y-88701080D02*
X118377479Y-88652416D01*
X142507876Y-88128112D02*
X142539903Y-88165241D01*
X118484627Y-27471925D02*
X118462581Y-27428127D01*
X170161855Y-61301080D02*
X170165463Y-61349981D01*
X142708268Y-90137552D02*
X142690622Y-90183300D01*
X191523955Y-25616699D02*
X191541602Y-25662447D01*
X151115372Y-61871925D02*
X151091203Y-61914588D01*
X190937552Y-25058397D02*
X190983300Y-25076044D01*
X150429228Y-62380804D02*
X150380917Y-62389187D01*
X145884627Y-90271925D02*
X145862581Y-90228127D01*
X145935028Y-54956014D02*
X145908796Y-54914588D01*
X119316648Y-90798796D02*
X119267747Y-90795189D01*
X126838144Y-54301080D02*
X126844146Y-54252416D01*
X114794794Y-60495914D02*
X114838591Y-60517960D01*
X182077318Y-87968362D02*
X182118744Y-87942129D01*
X173335028Y-88243985D02*
X173363262Y-88203896D01*
X115308268Y-25662447D02*
X115323649Y-25709005D01*
X126951294Y-25528074D02*
X126975462Y-25485411D01*
X119029113Y-87858397D02*
X119075672Y-87843016D01*
X154233333Y-88799012D02*
X154234536Y-88749981D01*
X169801425Y-88026762D02*
X169838553Y-88058790D01*
X169362561Y-87819195D02*
X169410403Y-87829939D01*
X126844146Y-27147583D02*
X126838144Y-27098919D01*
X114838591Y-27882039D02*
X114794794Y-27904085D01*
X115270751Y-54828127D02*
X115248705Y-54871925D01*
X118659267Y-53692600D02*
X118694779Y-53658790D01*
X154233333Y-89800987D02*
X154233333Y-88799012D01*
X146716648Y-60401203D02*
X146765678Y-60400000D01*
X163201245Y-87799729D02*
X163212247Y-87799999D01*
X115170070Y-53803896D02*
X115198304Y-53843985D01*
X177924327Y-87843016D02*
X177970886Y-87858397D01*
X154238144Y-54498919D02*
X154234536Y-54450018D01*
X177970886Y-60458397D02*
X178016633Y-60476044D01*
X169762770Y-27803404D02*
X169722681Y-27831637D01*
X142723649Y-61109005D02*
X142736727Y-61156262D01*
X173262581Y-54828127D02*
X173242711Y-54783300D01*
X118894741Y-27882039D02*
X118852078Y-27857870D01*
X154761408Y-53517960D02*
X154805205Y-53495914D01*
X191457870Y-54914588D02*
X191431637Y-54956014D01*
X142723649Y-90090994D02*
X142708268Y-90137552D01*
X108400270Y-28001245D02*
X108400000Y-28012247D01*
X154761408Y-55282039D02*
X154718744Y-55257870D01*
X173225064Y-54062447D02*
X173242711Y-54016699D01*
X142362770Y-60596595D02*
X142401425Y-60626762D01*
X181709377Y-25616699D02*
X181729248Y-25571872D01*
X173829113Y-60458397D02*
X173875672Y-60443016D01*
X169939903Y-60765241D02*
X169970070Y-60803896D01*
X145777479Y-25852416D02*
X145785862Y-25804104D01*
X178603394Y-90043737D02*
X178590316Y-90090994D01*
X133800000Y-53387727D02*
X133800000Y-28012272D01*
X182342339Y-62356983D02*
X182295780Y-62341602D01*
X169998304Y-60843985D02*
X170024537Y-60885411D01*
X127318744Y-53542129D02*
X127361408Y-53517960D01*
X154677318Y-62231637D02*
X154637229Y-62203404D01*
X181892123Y-60728112D02*
X181925933Y-60692600D01*
X119075672Y-25043016D02*
X119122929Y-25029939D01*
X182077318Y-62231637D02*
X182037229Y-62203404D01*
X118694779Y-53658790D02*
X118731907Y-53626762D01*
X115198304Y-88243985D02*
X115224537Y-88285411D01*
X177829228Y-87819195D02*
X177877070Y-87829939D01*
X123832129Y-89850018D02*
X123828522Y-89898919D01*
X126876350Y-54690994D02*
X126863272Y-54643737D01*
X173166666Y-61399012D02*
X173167870Y-61349981D01*
X118377479Y-54547583D02*
X118371477Y-54498919D01*
X142624537Y-60885411D02*
X142648705Y-60928074D01*
X150705258Y-25117960D02*
X150747921Y-25142129D01*
X191457870Y-90314588D02*
X191431637Y-90356014D01*
X173242711Y-25616699D02*
X173262581Y-25571872D01*
X105843985Y-60568362D02*
X105885411Y-60542129D01*
X177924327Y-60443016D02*
X177970886Y-60458397D01*
X146765678Y-25000000D02*
X150234321Y-25000000D01*
X154677318Y-90631637D02*
X154637229Y-90603404D01*
X181775462Y-60885411D02*
X181801695Y-60843985D01*
X173694741Y-53517960D02*
X173738539Y-53495914D01*
X169838553Y-88058790D02*
X169874066Y-88092600D01*
X181709377Y-54016699D02*
X181729248Y-53971872D01*
X142322681Y-27831637D02*
X142281255Y-27857870D01*
X146131907Y-53626762D02*
X146170563Y-53596595D01*
X178436737Y-61996103D02*
X178406570Y-62034758D01*
X178515372Y-90271925D02*
X178491203Y-90314588D01*
X127783314Y-25001203D02*
X127832345Y-25000000D01*
X154233333Y-61399012D02*
X154234536Y-61349981D01*
X178622520Y-89947583D02*
X178614137Y-89995895D01*
X115308268Y-27337552D02*
X115290622Y-27383300D01*
X173425456Y-27671887D02*
X173393429Y-27634758D01*
X155232345Y-60400000D02*
X169167654Y-60400000D01*
X154309377Y-54783300D02*
X154291731Y-54737552D01*
X146170563Y-62203404D02*
X146131907Y-62173237D01*
X170070751Y-61828127D02*
X170048705Y-61871925D01*
X142438553Y-62141209D02*
X142401425Y-62173237D01*
X154375462Y-53885411D02*
X154401695Y-53843985D01*
X151064971Y-53843985D02*
X151091203Y-53885411D01*
X118508796Y-60885411D02*
X118535028Y-60843985D01*
X173531907Y-60626762D02*
X173570563Y-60596595D01*
X127237229Y-62203404D02*
X127198574Y-62173237D01*
X141914250Y-27989187D02*
X141865585Y-27995189D01*
X115347470Y-89995895D02*
X115336727Y-90043737D01*
X169362561Y-27980804D02*
X169314250Y-27989187D01*
X118366666Y-27000987D02*
X118366666Y-25999012D01*
X190795895Y-90780804D02*
X190747583Y-90789187D01*
X123828522Y-61301080D02*
X123832129Y-61349981D01*
X142570070Y-53803896D02*
X142598304Y-53843985D01*
X154460096Y-62034758D02*
X154429929Y-61996103D01*
X181892123Y-90471887D02*
X181860096Y-90434758D01*
X150905220Y-25258790D02*
X150940732Y-25292600D01*
X126876350Y-90090994D02*
X126863272Y-90043737D01*
X141767654Y-28000000D02*
X135812272Y-28000000D01*
X123429436Y-25196595D02*
X123468092Y-25226762D01*
X142322681Y-25168362D02*
X142362770Y-25196595D01*
X174019082Y-27989187D02*
X173970771Y-27980804D01*
X169998304Y-88243985D02*
X170024537Y-88285411D01*
X127450032Y-87876044D02*
X127495780Y-87858397D01*
X170090622Y-88416699D02*
X170108268Y-88462447D01*
X154401695Y-88243985D02*
X154429929Y-88203896D01*
X135800000Y-62412272D02*
X135800000Y-87787727D01*
X178491203Y-27514588D02*
X178464971Y-27556014D01*
X133798754Y-62400270D02*
X133787752Y-62400000D01*
X178515372Y-53928074D02*
X178537418Y-53971872D01*
X174165678Y-62400000D02*
X174116648Y-62398796D01*
X127495780Y-25058397D02*
X127542339Y-25043016D01*
X154942339Y-25043016D02*
X154989596Y-25029939D01*
X169457660Y-87843016D02*
X169504219Y-87858397D01*
X178436737Y-27596103D02*
X178406570Y-27634758D01*
X173922929Y-55370060D02*
X173875672Y-55356983D01*
X191307399Y-55107399D02*
X191271887Y-55141209D01*
X127405205Y-90704085D02*
X127361408Y-90682039D01*
X114610403Y-55370060D02*
X114562561Y-55380804D01*
X191028127Y-55304085D02*
X190983300Y-55323955D01*
X142598304Y-27556014D02*
X142570070Y-27596103D01*
X114367654Y-25000000D02*
X114416685Y-25001203D01*
X154460096Y-60765241D02*
X154492123Y-60728112D01*
X169970070Y-60803896D02*
X169998304Y-60843985D01*
X182632345Y-25000000D02*
X190600987Y-25000000D01*
X174165678Y-60400000D02*
X177634321Y-60400000D01*
X126838144Y-27098919D02*
X126834536Y-27050018D01*
X154989596Y-90770060D02*
X154942339Y-90756983D01*
X119122929Y-60429939D02*
X119170771Y-60419195D01*
X106156262Y-55370060D02*
X106109005Y-55356983D01*
X141962561Y-25019195D02*
X142010403Y-25029939D01*
X142690622Y-61016699D02*
X142708268Y-61062447D01*
X123803394Y-88556262D02*
X123814137Y-88604104D01*
X135800000Y-87787752D02*
X135800270Y-87798754D01*
X122932252Y-53404810D02*
X122980917Y-53410812D01*
X151157288Y-88416699D02*
X151174935Y-88462447D01*
X169762770Y-55203404D02*
X169722681Y-55231637D01*
X142570070Y-27596103D02*
X142539903Y-27634758D01*
X105765241Y-60626762D02*
X105803896Y-60596595D01*
X173196605Y-61156262D02*
X173209683Y-61109005D01*
X191541602Y-90137552D02*
X191523955Y-90183300D01*
X142401425Y-27773237D02*
X142362770Y-27803404D01*
X145993429Y-62034758D02*
X145963262Y-61996103D01*
X150940732Y-62107399D02*
X150905220Y-62141209D01*
X154244146Y-25852416D02*
X154252529Y-25804104D01*
X150905220Y-88058790D02*
X150940732Y-88092600D01*
X150868092Y-62173237D02*
X150829436Y-62203404D01*
X115336727Y-61156262D02*
X115347470Y-61204104D01*
X150974543Y-27671887D02*
X150940732Y-27707399D01*
X169216685Y-55398796D02*
X169167654Y-55400000D01*
X135800000Y-53387752D02*
X135800270Y-53398754D01*
X127450032Y-55323955D02*
X127405205Y-55304085D01*
X118535028Y-27556014D02*
X118508796Y-27514588D01*
X154895780Y-90741602D02*
X154850032Y-90723955D01*
X170136727Y-90043737D02*
X170123649Y-90090994D01*
X161198754Y-28000270D02*
X161187752Y-28000000D01*
X173167870Y-88749981D02*
X173171477Y-88701080D01*
X169216685Y-25001203D02*
X169265585Y-25004810D01*
X105404810Y-61301080D02*
X105410812Y-61252416D01*
X170090622Y-25616699D02*
X170108268Y-25662447D01*
X151036737Y-88203896D02*
X151064971Y-88243985D01*
X169410403Y-60429939D02*
X169457660Y-60443016D01*
X118852078Y-53542129D02*
X118894741Y-53517960D01*
X127029929Y-60803896D02*
X127060096Y-60765241D01*
X169681255Y-90657870D02*
X169638591Y-90682039D01*
X127161446Y-55141209D02*
X127125933Y-55107399D01*
X142755853Y-27147583D02*
X142747470Y-27195895D01*
X142761855Y-54498919D02*
X142755853Y-54547583D01*
X177970886Y-62341602D02*
X177924327Y-62356983D01*
X154429929Y-60803896D02*
X154460096Y-60765241D01*
X145842711Y-90183300D02*
X145825064Y-90137552D01*
X178229436Y-90603404D02*
X178189347Y-90631637D01*
X122932252Y-90795189D02*
X122883351Y-90798796D01*
X173242711Y-27383300D02*
X173225064Y-27337552D01*
X118894741Y-90682039D02*
X118852078Y-90657870D01*
X115336727Y-27243737D02*
X115323649Y-27290994D01*
X154561446Y-25258790D02*
X154598574Y-25226762D01*
X170123649Y-27290994D02*
X170108268Y-27337552D01*
X146252078Y-27857870D02*
X146210652Y-27831637D01*
X119122929Y-62370060D02*
X119075672Y-62356983D01*
X118625456Y-60728112D02*
X118659267Y-60692600D01*
X181633333Y-61399012D02*
X181634536Y-61349981D01*
X123790316Y-25709005D02*
X123803394Y-25756262D01*
X145785862Y-61204104D02*
X145796605Y-61156262D01*
X127361408Y-53517960D02*
X127405205Y-53495914D01*
X141914250Y-90789187D02*
X141865585Y-90795189D01*
X174165678Y-28000000D02*
X174116648Y-27998796D01*
X154252529Y-54204104D02*
X154263272Y-54156262D01*
X114922681Y-60568362D02*
X114962770Y-60596595D01*
X178557288Y-54783300D02*
X178537418Y-54828127D01*
X154401695Y-90356014D02*
X154375462Y-90314588D01*
X142362770Y-87996595D02*
X142401425Y-88026762D01*
X142765463Y-54450018D02*
X142761855Y-54498919D01*
X118659267Y-88092600D02*
X118694779Y-88058790D01*
X169998304Y-53843985D02*
X170024537Y-53885411D01*
X115347470Y-61595895D02*
X115336727Y-61643737D01*
X169314250Y-87810812D02*
X169362561Y-87819195D01*
X178340732Y-60692600D02*
X178374543Y-60728112D01*
X169907876Y-55071887D02*
X169874066Y-55107399D01*
X155232345Y-62400000D02*
X155183314Y-62398796D01*
X188600000Y-53387727D02*
X188600000Y-28012272D01*
X191556983Y-25709005D02*
X191570060Y-25756262D01*
X142539903Y-55034758D02*
X142507876Y-55071887D01*
X181751294Y-27471925D02*
X181729248Y-27428127D01*
X150747921Y-90657870D02*
X150705258Y-90682039D01*
X182037229Y-25196595D02*
X182077318Y-25168362D01*
X177634321Y-62400000D02*
X174165678Y-62400000D01*
X145862581Y-60971872D02*
X145884627Y-60928074D01*
X173922929Y-62370060D02*
X173875672Y-62356983D01*
X122980917Y-87810812D02*
X123029228Y-87819195D01*
X142149967Y-53476044D02*
X142194794Y-53495914D01*
X146429113Y-25058397D02*
X146475672Y-25043016D01*
X142708268Y-61062447D02*
X142723649Y-61109005D01*
X115001425Y-55173237D02*
X114962770Y-55203404D01*
X178537418Y-90228127D02*
X178515372Y-90271925D01*
X181663272Y-54156262D02*
X181676350Y-54109005D01*
X127783314Y-60401203D02*
X127832345Y-60400000D01*
X141865585Y-55395189D02*
X141816685Y-55398796D01*
X145884627Y-61871925D02*
X145862581Y-61828127D01*
X161187752Y-87799999D02*
X161198754Y-87799729D01*
X145862581Y-53971872D02*
X145884627Y-53928074D01*
X142598304Y-25443985D02*
X142624537Y-25485411D01*
X173284627Y-88328074D02*
X173308796Y-88285411D01*
X151232129Y-25949981D02*
X151233333Y-25999012D01*
X154238144Y-89898919D02*
X154234536Y-89850018D01*
X161187727Y-28000000D02*
X155232345Y-28000000D01*
X126834536Y-54349981D02*
X126838144Y-54301080D01*
X155134414Y-25004810D02*
X155183314Y-25001203D01*
X127361408Y-27882039D02*
X127318744Y-27857870D01*
X154291731Y-54737552D02*
X154276350Y-54690994D01*
X123124327Y-55356983D02*
X123077070Y-55370060D01*
X174165678Y-90800000D02*
X174116648Y-90798796D01*
X142474066Y-55107399D02*
X142438553Y-55141209D01*
X123757288Y-88416699D02*
X123774935Y-88462447D01*
X114749967Y-90723955D02*
X114704219Y-90741602D01*
X155085749Y-55389187D02*
X155037438Y-55380804D01*
X142755853Y-54252416D02*
X142761855Y-54301080D01*
X169504219Y-62341602D02*
X169457660Y-62356983D01*
X123828522Y-25901080D02*
X123832129Y-25949981D01*
X122980917Y-90789187D02*
X122932252Y-90795189D01*
X142507876Y-55071887D02*
X142474066Y-55107399D01*
X123170886Y-53458397D02*
X123216633Y-53476044D01*
X108412247Y-28000000D02*
X108401245Y-28000270D01*
X115001425Y-25226762D02*
X115038553Y-25258790D01*
X169681255Y-60542129D02*
X169722681Y-60568362D01*
X119316648Y-87801203D02*
X119365678Y-87800000D01*
X123124327Y-87843016D02*
X123170886Y-87858397D01*
X173875672Y-27956983D02*
X173829113Y-27941602D01*
X155037438Y-62380804D02*
X154989596Y-62370060D01*
X105429939Y-25756262D02*
X105443016Y-25709005D01*
X151137418Y-25571872D02*
X151157288Y-25616699D01*
X150905220Y-90541209D02*
X150868092Y-90573237D01*
X115366666Y-89800987D02*
X115365463Y-89850018D01*
X123691203Y-88285411D02*
X123715372Y-88328074D01*
X123715372Y-54871925D02*
X123691203Y-54914588D01*
X118983366Y-27923955D02*
X118938539Y-27904085D01*
X115198304Y-53843985D02*
X115224537Y-53885411D01*
X190747583Y-25010812D02*
X190795895Y-25019195D01*
X115270751Y-25571872D02*
X115290622Y-25616699D01*
X151233333Y-27000987D02*
X151232129Y-27050018D01*
X145785862Y-88604104D02*
X145796605Y-88556262D01*
X142438553Y-55141209D02*
X142401425Y-55173237D01*
X127125933Y-53692600D02*
X127161446Y-53658790D01*
X126833333Y-54399012D02*
X126834536Y-54349981D01*
X141865585Y-87804810D02*
X141914250Y-87810812D01*
X146210652Y-87968362D02*
X146252078Y-87942129D01*
X142598304Y-53843985D02*
X142624537Y-53885411D01*
X188587727Y-62400000D02*
X182632345Y-62400000D01*
X118563262Y-25403896D02*
X118593429Y-25365241D01*
X190600987Y-90800000D02*
X182632345Y-90800000D01*
X105658790Y-55071887D02*
X105626762Y-55034758D01*
X142648705Y-60928074D02*
X142670751Y-60971872D01*
X118731907Y-60626762D02*
X118770563Y-60596595D01*
X142401425Y-53626762D02*
X142438553Y-53658790D01*
X119122929Y-27970060D02*
X119075672Y-27956983D01*
X150705258Y-90682039D02*
X150661460Y-90704085D01*
X115270751Y-53971872D02*
X115290622Y-54016699D01*
X181751294Y-88328074D02*
X181775462Y-88285411D01*
X119122929Y-53429939D02*
X119170771Y-53419195D01*
X154805205Y-27904085D02*
X154761408Y-27882039D01*
X154677318Y-55231637D02*
X154637229Y-55203404D01*
X122834321Y-62400000D02*
X119365678Y-62400000D01*
X150570886Y-90741602D02*
X150524327Y-90756983D01*
X182037229Y-62203404D02*
X181998574Y-62173237D01*
X118731907Y-27773237D02*
X118694779Y-27741209D01*
X123828522Y-61498919D02*
X123822520Y-61547583D01*
X127495780Y-53458397D02*
X127542339Y-53443016D01*
X182250032Y-55323955D02*
X182205205Y-55304085D01*
X178633333Y-88799012D02*
X178633333Y-89800987D01*
X115361855Y-88701080D02*
X115365463Y-88749981D01*
X126909377Y-25616699D02*
X126929248Y-25571872D01*
X170136727Y-61156262D02*
X170147470Y-61204104D01*
X191595189Y-54498919D02*
X191589187Y-54547583D01*
X114562561Y-25019195D02*
X114610403Y-25029939D01*
X126833333Y-54400987D02*
X126833333Y-54399012D01*
X127361408Y-25117960D02*
X127405205Y-25095914D01*
X118462581Y-54828127D02*
X118442711Y-54783300D01*
X155232345Y-53400000D02*
X161187727Y-53400000D01*
X127832345Y-90800000D02*
X127783314Y-90798796D01*
X118983366Y-90723955D02*
X118938539Y-90704085D01*
X178537418Y-54828127D02*
X178515372Y-54871925D01*
X142766666Y-54399012D02*
X142766666Y-54400987D01*
X191570060Y-54643737D02*
X191556983Y-54690994D01*
X145766666Y-88799012D02*
X145767870Y-88749981D01*
X196599999Y-20012247D02*
X196599729Y-20001245D01*
X190937552Y-55341602D02*
X190890994Y-55356983D01*
X151222520Y-25852416D02*
X151228522Y-25901080D01*
X123737418Y-54828127D02*
X123715372Y-54871925D01*
X170165463Y-54450018D02*
X170161855Y-54498919D01*
X146059267Y-62107399D02*
X146025456Y-62071887D01*
X123347921Y-27857870D02*
X123305258Y-27882039D01*
X123505220Y-60658790D02*
X123540732Y-60692600D01*
X142194794Y-25095914D02*
X142238591Y-25117960D01*
X169762770Y-90603404D02*
X169722681Y-90631637D01*
X191595189Y-25901080D02*
X191598796Y-25949981D01*
X126975462Y-27514588D02*
X126951294Y-27471925D01*
X177877070Y-60429939D02*
X177924327Y-60443016D01*
X178016633Y-90723955D02*
X177970886Y-90741602D01*
X106062447Y-60458397D02*
X106109005Y-60443016D01*
X100412272Y-95800000D02*
X196587727Y-95800000D01*
X178105258Y-25117960D02*
X178147921Y-25142129D01*
X169722681Y-90631637D02*
X169681255Y-90657870D01*
X150940732Y-27707399D02*
X150905220Y-27741209D01*
X126975462Y-90314588D02*
X126951294Y-90271925D01*
X173970771Y-87819195D02*
X174019082Y-87810812D01*
X169762770Y-53596595D02*
X169801425Y-53626762D01*
X146383366Y-25076044D02*
X146429113Y-25058397D01*
X146619082Y-55389187D02*
X146570771Y-55380804D01*
X146667747Y-27995189D02*
X146619082Y-27989187D01*
X173459267Y-60692600D02*
X173494779Y-60658790D01*
X173694741Y-87917960D02*
X173738539Y-87895914D01*
X119029113Y-90741602D02*
X118983366Y-90723955D01*
X182161408Y-62282039D02*
X182118744Y-62257870D01*
X181801695Y-53843985D02*
X181829929Y-53803896D01*
X105596595Y-54996103D02*
X105568362Y-54956014D01*
X151091203Y-90314588D02*
X151064971Y-90356014D01*
X126834536Y-25949981D02*
X126838144Y-25901080D01*
X106109005Y-60443016D02*
X106156262Y-60429939D01*
X146210652Y-90631637D02*
X146170563Y-90603404D01*
X154989596Y-60429939D02*
X155037438Y-60419195D01*
X105443016Y-25709005D02*
X105458397Y-25662447D01*
X155085749Y-27989187D02*
X155037438Y-27980804D01*
X170108268Y-25662447D02*
X170123649Y-25709005D01*
X191570060Y-90043737D02*
X191556983Y-90090994D01*
X142474066Y-60692600D02*
X142507876Y-60728112D01*
X154850032Y-53476044D02*
X154895780Y-53458397D01*
X190600987Y-60400000D02*
X190650018Y-60401203D01*
X154276350Y-90090994D02*
X154263272Y-90043737D01*
X181691731Y-54737552D02*
X181676350Y-54690994D01*
X154460096Y-90434758D02*
X154429929Y-90396103D01*
X115361855Y-61498919D02*
X115355853Y-61547583D01*
X191600000Y-54400987D02*
X191598796Y-54450018D01*
X142755853Y-61252416D02*
X142761855Y-61301080D01*
X126833333Y-25999012D02*
X126834536Y-25949981D01*
X151222520Y-54252416D02*
X151228522Y-54301080D01*
X146667747Y-87804810D02*
X146716648Y-87801203D01*
X118694779Y-90541209D02*
X118659267Y-90507399D01*
X181925933Y-55107399D02*
X181892123Y-55071887D01*
X154351294Y-60928074D02*
X154375462Y-60885411D01*
X133787752Y-53399999D02*
X133798754Y-53399729D01*
X154637229Y-27803404D02*
X154598574Y-27773237D01*
X181925933Y-53692600D02*
X181961446Y-53658790D01*
X154233333Y-25999012D02*
X154234536Y-25949981D01*
X142624537Y-88285411D02*
X142648705Y-88328074D01*
X123124327Y-25043016D02*
X123170886Y-25058397D01*
X173185862Y-88604104D02*
X173196605Y-88556262D01*
X178147921Y-60542129D02*
X178189347Y-60568362D01*
X181691731Y-25662447D02*
X181709377Y-25616699D01*
X178268092Y-25226762D02*
X178305220Y-25258790D01*
X154718744Y-27857870D02*
X154677318Y-27831637D01*
X123737418Y-27428127D02*
X123715372Y-27471925D01*
X196600000Y-95787727D02*
X196600000Y-20012272D01*
X115074066Y-25292600D02*
X115107876Y-25328112D01*
X146383366Y-90723955D02*
X146338539Y-90704085D01*
X178628522Y-89898919D02*
X178622520Y-89947583D01*
X115198304Y-61956014D02*
X115170070Y-61996103D01*
X173875672Y-53443016D02*
X173922929Y-53429939D01*
X126852529Y-61204104D02*
X126863272Y-61156262D01*
X191114588Y-60542129D02*
X191156014Y-60568362D01*
X146094779Y-88058790D02*
X146131907Y-88026762D01*
X122834321Y-28000000D02*
X119365678Y-28000000D01*
X145809683Y-61109005D02*
X145825064Y-61062447D01*
X127198574Y-27773237D02*
X127161446Y-27741209D01*
X118462581Y-88371872D02*
X118484627Y-88328074D01*
X105971872Y-90704085D02*
X105928074Y-90682039D01*
X146619082Y-27989187D02*
X146570771Y-27980804D01*
X114610403Y-53429939D02*
X114657660Y-53443016D01*
X173783366Y-87876044D02*
X173829113Y-87858397D01*
X115139903Y-55034758D02*
X115107876Y-55071887D01*
X173652078Y-55257870D02*
X173610652Y-55231637D01*
X127198574Y-62173237D02*
X127161446Y-62141209D01*
X151006570Y-60765241D02*
X151036737Y-60803896D01*
X178590316Y-25709005D02*
X178603394Y-25756262D01*
X108400000Y-87787752D02*
X108400270Y-87798754D01*
X178229436Y-27803404D02*
X178189347Y-27831637D01*
X123774935Y-61737552D02*
X123757288Y-61783300D01*
X181775462Y-27514588D02*
X181751294Y-27471925D01*
X126891731Y-25662447D02*
X126909377Y-25616699D01*
X151115372Y-27471925D02*
X151091203Y-27514588D01*
X177732252Y-90795189D02*
X177683351Y-90798796D01*
X127060096Y-55034758D02*
X127029929Y-54996103D01*
X126863272Y-27243737D02*
X126852529Y-27195895D01*
X145766666Y-27000987D02*
X145766666Y-25999012D01*
X154234536Y-61450018D02*
X154233333Y-61400987D01*
X123832129Y-61349981D02*
X123833333Y-61399012D01*
X169265585Y-90795189D02*
X169216685Y-90798796D01*
X169457660Y-53443016D02*
X169504219Y-53458397D01*
X170165463Y-61450018D02*
X170161855Y-61498919D01*
X170123649Y-54109005D02*
X170136727Y-54156262D01*
X169874066Y-55107399D02*
X169838553Y-55141209D01*
X191071925Y-90682039D02*
X191028127Y-90704085D01*
X181663272Y-88556262D02*
X181676350Y-88509005D01*
X154598574Y-27773237D02*
X154561446Y-27741209D01*
X146522929Y-55370060D02*
X146475672Y-55356983D01*
X154291731Y-61737552D02*
X154276350Y-61690994D01*
X178491203Y-53885411D02*
X178515372Y-53928074D01*
X118659267Y-27707399D02*
X118625456Y-27671887D01*
X151006570Y-55034758D02*
X150974543Y-55071887D01*
X122834321Y-60400000D02*
X122883351Y-60401203D01*
X154309377Y-88416699D02*
X154329248Y-88371872D01*
X145771477Y-54301080D02*
X145777479Y-54252416D01*
X191341209Y-55071887D02*
X191307399Y-55107399D01*
X118983366Y-53476044D02*
X119029113Y-53458397D01*
X127125933Y-62107399D02*
X127092123Y-62071887D01*
X115248705Y-53928074D02*
X115270751Y-53971872D01*
X173196605Y-27243737D02*
X173185862Y-27195895D01*
X123757288Y-61016699D02*
X123774935Y-61062447D01*
X123757288Y-54783300D02*
X123737418Y-54828127D01*
X151006570Y-25365241D02*
X151036737Y-25403896D01*
X118659267Y-62107399D02*
X118625456Y-62071887D01*
X170070751Y-60971872D02*
X170090622Y-61016699D01*
X114367654Y-55400000D02*
X106399012Y-55400000D01*
X177683351Y-27998796D02*
X177634321Y-28000000D01*
X178016633Y-60476044D02*
X178061460Y-60495914D01*
X173262581Y-27428127D02*
X173242711Y-27383300D01*
X142057660Y-27956983D02*
X142010403Y-27970060D01*
X177683351Y-62398796D02*
X177634321Y-62400000D01*
X178491203Y-25485411D02*
X178515372Y-25528074D01*
X154263272Y-61643737D02*
X154252529Y-61595895D01*
X178633333Y-54400987D02*
X178632129Y-54450018D01*
X151233333Y-54399012D02*
X151233333Y-54400987D01*
X133800000Y-87787727D02*
X133800000Y-62412272D01*
X115139903Y-60765241D02*
X115170070Y-60803896D01*
X181829929Y-25403896D02*
X181860096Y-25365241D01*
X115038553Y-90541209D02*
X115001425Y-90573237D01*
X146252078Y-90657870D02*
X146210652Y-90631637D01*
X115270751Y-90228127D02*
X115248705Y-90271925D01*
X151064971Y-61956014D02*
X151036737Y-61996103D01*
X126852529Y-89995895D02*
X126844146Y-89947583D01*
X115355853Y-88652416D02*
X115361855Y-88701080D01*
X181638144Y-54301080D02*
X181644146Y-54252416D01*
X190600987Y-55400000D02*
X182632345Y-55400000D01*
X154309377Y-25616699D02*
X154329248Y-25571872D01*
X151064971Y-25443985D02*
X151091203Y-25485411D01*
X182205205Y-27904085D02*
X182161408Y-27882039D01*
X178632129Y-54349981D02*
X178633333Y-54399012D01*
X146667747Y-25004810D02*
X146716648Y-25001203D01*
X174116648Y-60401203D02*
X174165678Y-60400000D01*
X145766666Y-61399012D02*
X145767870Y-61349981D01*
X155183314Y-60401203D02*
X155232345Y-60400000D01*
X154942339Y-27956983D02*
X154895780Y-27941602D01*
X126838144Y-61498919D02*
X126834536Y-61450018D01*
X123216633Y-87876044D02*
X123261460Y-87895914D01*
X182632345Y-87800000D02*
X188587727Y-87800000D01*
X115038553Y-53658790D02*
X115074066Y-53692600D01*
X127198574Y-25226762D02*
X127237229Y-25196595D01*
X181638144Y-89898919D02*
X181634536Y-89850018D01*
X173262581Y-61828127D02*
X173242711Y-61783300D01*
X170090622Y-27383300D02*
X170070751Y-27428127D01*
X119365678Y-87800000D02*
X122834321Y-87800000D01*
X123261460Y-90704085D02*
X123216633Y-90723955D01*
X154238144Y-88701080D02*
X154244146Y-88652416D01*
X106016699Y-90723955D02*
X105971872Y-90704085D01*
X118894741Y-62282039D02*
X118852078Y-62257870D01*
X173225064Y-27337552D02*
X173209683Y-27290994D01*
X127237229Y-55203404D02*
X127198574Y-55173237D01*
X181925933Y-62107399D02*
X181892123Y-62071887D01*
X163212272Y-53400000D02*
X169167654Y-53400000D01*
X105517960Y-54871925D02*
X105495914Y-54828127D01*
X118367870Y-61450018D02*
X118366666Y-61400987D01*
X115270751Y-27428127D02*
X115248705Y-27471925D01*
X123664971Y-90356014D02*
X123636737Y-90396103D01*
X173922929Y-90770060D02*
X173875672Y-90756983D01*
X169216685Y-60401203D02*
X169265585Y-60404810D01*
X145842711Y-54783300D02*
X145825064Y-54737552D01*
X142438553Y-53658790D02*
X142474066Y-53692600D01*
X118484627Y-53928074D02*
X118508796Y-53885411D01*
X173167870Y-54450018D02*
X173166666Y-54400987D01*
X118442711Y-90183300D02*
X118425064Y-90137552D01*
X191523955Y-90183300D02*
X191504085Y-90228127D01*
X123389347Y-87968362D02*
X123429436Y-87996595D01*
X178515372Y-60928074D02*
X178537418Y-60971872D01*
X123737418Y-60971872D02*
X123757288Y-61016699D01*
X118535028Y-60843985D02*
X118563262Y-60803896D01*
X154276350Y-61109005D02*
X154291731Y-61062447D01*
X126929248Y-88371872D02*
X126951294Y-88328074D01*
X123774935Y-25662447D02*
X123790316Y-25709005D01*
X169504219Y-87858397D02*
X169549967Y-87876044D01*
X155183314Y-90798796D02*
X155134414Y-90795189D01*
X105458397Y-90137552D02*
X105443016Y-90090994D01*
X178229436Y-62203404D02*
X178189347Y-62231637D01*
X126891731Y-54737552D02*
X126876350Y-54690994D01*
X105400000Y-25999012D02*
X105401203Y-25949981D01*
X142362770Y-55203404D02*
X142322681Y-55231637D01*
X169970070Y-90396103D02*
X169939903Y-90434758D01*
X170090622Y-61783300D02*
X170070751Y-61828127D01*
X178147921Y-62257870D02*
X178105258Y-62282039D01*
X114962770Y-53596595D02*
X115001425Y-53626762D01*
X173166666Y-27000987D02*
X173166666Y-25999012D01*
X173242711Y-88416699D02*
X173262581Y-88371872D01*
X119075672Y-55356983D02*
X119029113Y-55341602D01*
X173242711Y-61016699D02*
X173262581Y-60971872D01*
X114657660Y-62356983D02*
X114610403Y-62370060D01*
X118852078Y-87942129D02*
X118894741Y-87917960D01*
X114749967Y-27923955D02*
X114704219Y-27941602D01*
X115355853Y-89947583D02*
X115347470Y-89995895D01*
X114881255Y-25142129D02*
X114922681Y-25168362D01*
X146716648Y-27998796D02*
X146667747Y-27995189D01*
X155134414Y-62395189D02*
X155085749Y-62389187D01*
X115361855Y-54301080D02*
X115365463Y-54349981D01*
X178374543Y-88128112D02*
X178406570Y-88165241D01*
X123803394Y-54643737D02*
X123790316Y-54690994D01*
X145809683Y-54690994D02*
X145796605Y-54643737D01*
X181691731Y-61737552D02*
X181676350Y-61690994D01*
X123574543Y-25328112D02*
X123606570Y-25365241D01*
X118625456Y-62071887D02*
X118593429Y-62034758D01*
X169314250Y-27989187D02*
X169265585Y-27995189D01*
X155037438Y-87819195D02*
X155085749Y-87810812D01*
X145785862Y-27195895D02*
X145777479Y-27147583D01*
X154291731Y-88462447D02*
X154309377Y-88416699D01*
X123814137Y-89995895D02*
X123803394Y-90043737D01*
X169594794Y-62304085D02*
X169549967Y-62323955D01*
X169722681Y-87968362D02*
X169762770Y-87996595D01*
X145796605Y-54643737D02*
X145785862Y-54595895D01*
X150429228Y-60419195D02*
X150477070Y-60429939D01*
X115224537Y-60885411D02*
X115248705Y-60928074D01*
X127405205Y-87895914D02*
X127450032Y-87876044D01*
X154401695Y-53843985D02*
X154429929Y-53803896D01*
X118462581Y-25571872D02*
X118484627Y-25528074D01*
X123505220Y-25258790D02*
X123540732Y-25292600D01*
X145993429Y-25365241D02*
X146025456Y-25328112D01*
X182037229Y-53596595D02*
X182077318Y-53568362D01*
X127198574Y-90573237D02*
X127161446Y-90541209D01*
X173209683Y-54690994D02*
X173196605Y-54643737D01*
X105458397Y-54737552D02*
X105443016Y-54690994D01*
X178147921Y-90657870D02*
X178105258Y-90682039D01*
X181691731Y-54062447D02*
X181709377Y-54016699D01*
X178374543Y-25328112D02*
X178406570Y-25365241D01*
X150234321Y-60400000D02*
X150283351Y-60401203D01*
X114367654Y-87800000D02*
X114416685Y-87801203D01*
X181775462Y-53885411D02*
X181801695Y-53843985D01*
X182534414Y-60404810D02*
X182583314Y-60401203D01*
X151157288Y-27383300D02*
X151137418Y-27428127D01*
X127029929Y-53803896D02*
X127060096Y-53765241D01*
X181829929Y-61996103D02*
X181801695Y-61956014D01*
X181829929Y-90396103D02*
X181801695Y-90356014D01*
X105803896Y-55203404D02*
X105765241Y-55173237D01*
X182534414Y-90795189D02*
X182485749Y-90789187D01*
X118508796Y-90314588D02*
X118484627Y-90271925D01*
X169314250Y-90789187D02*
X169265585Y-90795189D01*
X106252416Y-60410812D02*
X106301080Y-60404810D01*
X118484627Y-60928074D02*
X118508796Y-60885411D01*
X123636737Y-61996103D02*
X123606570Y-62034758D01*
X178590316Y-88509005D02*
X178603394Y-88556262D01*
X146252078Y-55257870D02*
X146210652Y-55231637D01*
X182389596Y-90770060D02*
X182342339Y-90756983D01*
X146522929Y-90770060D02*
X146475672Y-90756983D01*
X123833333Y-54399012D02*
X123833333Y-54400987D01*
X115001425Y-27773237D02*
X114962770Y-27803404D01*
X182534414Y-55395189D02*
X182485749Y-55389187D01*
X150234321Y-90800000D02*
X146765678Y-90800000D01*
X115170070Y-27596103D02*
X115139903Y-27634758D01*
X169504219Y-90741602D02*
X169457660Y-90756983D01*
X123664971Y-60843985D02*
X123691203Y-60885411D01*
X142755853Y-25852416D02*
X142761855Y-25901080D01*
X178464971Y-61956014D02*
X178436737Y-61996103D01*
X118770563Y-55203404D02*
X118731907Y-55173237D01*
X146059267Y-27707399D02*
X146025456Y-27671887D01*
X118462581Y-61828127D02*
X118442711Y-61783300D01*
X154850032Y-60476044D02*
X154895780Y-60458397D01*
X173335028Y-61956014D02*
X173308796Y-61914588D01*
X182583314Y-60401203D02*
X182632345Y-60400000D01*
X170155853Y-54547583D02*
X170147470Y-54595895D01*
X181961446Y-90541209D02*
X181925933Y-90507399D01*
X169970070Y-54996103D02*
X169939903Y-55034758D01*
X154252529Y-61595895D02*
X154244146Y-61547583D01*
X178574935Y-25662447D02*
X178590316Y-25709005D01*
X105971872Y-55304085D02*
X105928074Y-55282039D01*
X106204104Y-25019195D02*
X106252416Y-25010812D01*
X169801425Y-27773237D02*
X169762770Y-27803404D01*
X196587752Y-95799999D02*
X196598754Y-95799729D01*
X145935028Y-88243985D02*
X145963262Y-88203896D01*
X178436737Y-54996103D02*
X178406570Y-55034758D01*
X115248705Y-27471925D02*
X115224537Y-27514588D01*
X114704219Y-53458397D02*
X114749967Y-53476044D01*
X142322681Y-90631637D02*
X142281255Y-90657870D01*
X115139903Y-27634758D02*
X115107876Y-27671887D01*
X142670751Y-61828127D02*
X142648705Y-61871925D01*
X118694779Y-62141209D02*
X118659267Y-62107399D01*
X126834536Y-61349981D02*
X126838144Y-61301080D01*
X170147470Y-89995895D02*
X170136727Y-90043737D01*
X146716648Y-25001203D02*
X146765678Y-25000000D01*
X173262581Y-88371872D02*
X173284627Y-88328074D01*
X178574935Y-54737552D02*
X178557288Y-54783300D01*
X126844146Y-61547583D02*
X126838144Y-61498919D01*
X115366666Y-61399012D02*
X115366666Y-61400987D01*
X154252529Y-88604104D02*
X154263272Y-88556262D01*
X181892123Y-55071887D02*
X181860096Y-55034758D01*
X141962561Y-55380804D02*
X141914250Y-55389187D01*
X142438553Y-25258790D02*
X142474066Y-25292600D01*
X115170070Y-90396103D02*
X115139903Y-90434758D01*
X105476044Y-90183300D02*
X105458397Y-90137552D01*
X170155853Y-61547583D02*
X170147470Y-61595895D01*
X154637229Y-53596595D02*
X154677318Y-53568362D01*
X126838144Y-61301080D02*
X126844146Y-61252416D01*
X115224537Y-88285411D02*
X115248705Y-88328074D01*
X115107876Y-88128112D02*
X115139903Y-88165241D01*
X150905220Y-55141209D02*
X150868092Y-55173237D01*
X177683351Y-60401203D02*
X177732252Y-60404810D01*
X146522929Y-53429939D02*
X146570771Y-53419195D01*
X191556983Y-61109005D02*
X191570060Y-61156262D01*
X150380917Y-55389187D02*
X150332252Y-55395189D01*
X177924327Y-62356983D02*
X177877070Y-62370060D01*
X126929248Y-54828127D02*
X126909377Y-54783300D01*
X123429436Y-27803404D02*
X123389347Y-27831637D01*
X154718744Y-62257870D02*
X154677318Y-62231637D01*
X173393429Y-60765241D02*
X173425456Y-60728112D01*
X118593429Y-62034758D02*
X118563262Y-61996103D01*
X146210652Y-62231637D02*
X146170563Y-62203404D01*
X115290622Y-88416699D02*
X115308268Y-88462447D01*
X181709377Y-61783300D02*
X181691731Y-61737552D01*
X123077070Y-60429939D02*
X123124327Y-60443016D01*
X154244146Y-61547583D02*
X154238144Y-61498919D01*
X115323649Y-25709005D02*
X115336727Y-25756262D01*
X119365678Y-28000000D02*
X119316648Y-27998796D01*
X145796605Y-54156262D02*
X145809683Y-54109005D01*
X174019082Y-53410812D02*
X174067747Y-53404810D01*
X146667747Y-62395189D02*
X146619082Y-62389187D01*
X181691731Y-90137552D02*
X181676350Y-90090994D01*
X182389596Y-87829939D02*
X182437438Y-87819195D01*
X123757288Y-27383300D02*
X123737418Y-27428127D01*
X150616633Y-60476044D02*
X150661460Y-60495914D01*
X118894741Y-60517960D02*
X118938539Y-60495914D01*
X142057660Y-60443016D02*
X142104219Y-60458397D01*
X127001695Y-61956014D02*
X126975462Y-61914588D01*
X151006570Y-27634758D02*
X150974543Y-27671887D01*
X123803394Y-54156262D02*
X123814137Y-54204104D01*
X123170886Y-90741602D02*
X123124327Y-90756983D01*
X173335028Y-90356014D02*
X173308796Y-90314588D01*
X173570563Y-62203404D02*
X173531907Y-62173237D01*
X181729248Y-27428127D02*
X181709377Y-27383300D01*
X170161855Y-54498919D02*
X170155853Y-54547583D01*
X127685749Y-25010812D02*
X127734414Y-25004810D01*
X173494779Y-88058790D02*
X173531907Y-88026762D01*
X169838553Y-55141209D02*
X169801425Y-55173237D01*
X151228522Y-89898919D02*
X151222520Y-89947583D01*
X127161446Y-62141209D02*
X127125933Y-62107399D01*
X169504219Y-60458397D02*
X169549967Y-60476044D01*
X191556983Y-54690994D02*
X191541602Y-54737552D01*
X154895780Y-60458397D02*
X154942339Y-60443016D01*
X181829929Y-60803896D02*
X181860096Y-60765241D01*
X177924327Y-25043016D02*
X177970886Y-25058397D01*
X119219082Y-25010812D02*
X119267747Y-25004810D01*
X126863272Y-54156262D02*
X126876350Y-54109005D01*
X145771477Y-88701080D02*
X145777479Y-88652416D01*
X174067747Y-87804810D02*
X174116648Y-87801203D01*
X127783314Y-53401203D02*
X127832345Y-53400000D01*
X141914250Y-62389187D02*
X141865585Y-62395189D01*
X126838144Y-25901080D02*
X126844146Y-25852416D01*
X142755853Y-61547583D02*
X142747470Y-61595895D01*
X178537418Y-25571872D02*
X178557288Y-25616699D01*
X118810652Y-87968362D02*
X118852078Y-87942129D01*
X115107876Y-27671887D02*
X115074066Y-27707399D01*
X142690622Y-54783300D02*
X142670751Y-54828127D01*
X181751294Y-61871925D02*
X181729248Y-61828127D01*
X181663272Y-27243737D02*
X181652529Y-27195895D01*
X105765241Y-55173237D02*
X105728112Y-55141209D01*
X169216685Y-53401203D02*
X169265585Y-53404810D01*
X191589187Y-61252416D02*
X191595189Y-61301080D01*
X146094779Y-25258790D02*
X146131907Y-25226762D01*
X146094779Y-55141209D02*
X146059267Y-55107399D01*
X105419195Y-25804104D02*
X105429939Y-25756262D01*
X146383366Y-55323955D02*
X146338539Y-55304085D01*
X154375462Y-88285411D02*
X154401695Y-88243985D01*
X151174935Y-25662447D02*
X151190316Y-25709005D01*
X142401425Y-25226762D02*
X142438553Y-25258790D01*
X154329248Y-53971872D02*
X154351294Y-53928074D01*
X145935028Y-90356014D02*
X145908796Y-90314588D01*
X169216685Y-27998796D02*
X169167654Y-28000000D01*
X142690622Y-88416699D02*
X142708268Y-88462447D01*
X154238144Y-61301080D02*
X154244146Y-61252416D01*
X151214137Y-25804104D02*
X151222520Y-25852416D01*
X173393429Y-53765241D02*
X173425456Y-53728112D01*
X123664971Y-25443985D02*
X123691203Y-25485411D01*
X146522929Y-27970060D02*
X146475672Y-27956983D01*
X178632129Y-61450018D02*
X178628522Y-61498919D01*
X150570886Y-53458397D02*
X150616633Y-53476044D01*
X123347921Y-87942129D02*
X123389347Y-87968362D01*
X142761855Y-61301080D02*
X142765463Y-61349981D01*
X169970070Y-53803896D02*
X169998304Y-53843985D01*
X105404810Y-25901080D02*
X105410812Y-25852416D01*
X142670751Y-60971872D02*
X142690622Y-61016699D01*
X142708268Y-25662447D02*
X142723649Y-25709005D01*
X141962561Y-27980804D02*
X141914250Y-27989187D01*
X127637438Y-90780804D02*
X127589596Y-90770060D01*
X123774935Y-88462447D02*
X123790316Y-88509005D01*
X123814137Y-27195895D02*
X123803394Y-27243737D01*
X173209683Y-90090994D02*
X173196605Y-90043737D01*
X119029113Y-55341602D02*
X118983366Y-55323955D01*
X150616633Y-90723955D02*
X150570886Y-90741602D01*
X173494779Y-53658790D02*
X173531907Y-53626762D01*
X150429228Y-25019195D02*
X150477070Y-25029939D01*
X150905220Y-60658790D02*
X150940732Y-60692600D01*
X161200000Y-53387727D02*
X161200000Y-28012272D01*
X151137418Y-60971872D02*
X151157288Y-61016699D01*
X163212247Y-62400000D02*
X163201245Y-62400270D01*
X173393429Y-88165241D02*
X173425456Y-88128112D01*
X114610403Y-60429939D02*
X114657660Y-60443016D01*
X118385862Y-27195895D02*
X118377479Y-27147583D01*
X145963262Y-88203896D02*
X145993429Y-88165241D01*
X123429436Y-60596595D02*
X123468092Y-60626762D01*
X173425456Y-90471887D02*
X173393429Y-90434758D01*
X151222520Y-54547583D02*
X151214137Y-54595895D01*
X115365463Y-89850018D02*
X115361855Y-89898919D01*
X142149967Y-55323955D02*
X142104219Y-55341602D01*
X142104219Y-53458397D02*
X142149967Y-53476044D01*
X118563262Y-54996103D02*
X118535028Y-54956014D01*
X154895780Y-27941602D02*
X154850032Y-27923955D01*
X145796605Y-61643737D02*
X145785862Y-61595895D01*
X123606570Y-60765241D02*
X123636737Y-60803896D01*
X154309377Y-90183300D02*
X154291731Y-90137552D01*
X135812247Y-62400000D02*
X135801245Y-62400270D01*
X105429939Y-90043737D02*
X105419195Y-89995895D01*
X151115372Y-25528074D02*
X151137418Y-25571872D01*
X141816685Y-60401203D02*
X141865585Y-60404810D01*
X154637229Y-60596595D02*
X154677318Y-60568362D01*
X177732252Y-62395189D02*
X177683351Y-62398796D01*
X146667747Y-90795189D02*
X146619082Y-90789187D01*
X154234536Y-27050018D02*
X154233333Y-27000987D01*
X118385862Y-25804104D02*
X118396605Y-25756262D01*
X169549967Y-90723955D02*
X169504219Y-90741602D01*
X146570771Y-62380804D02*
X146522929Y-62370060D01*
X118938539Y-27904085D02*
X118894741Y-27882039D01*
X155037438Y-60419195D02*
X155085749Y-60410812D01*
X154291731Y-54062447D02*
X154309377Y-54016699D01*
X173209683Y-54109005D02*
X173225064Y-54062447D01*
X150905220Y-62141209D02*
X150868092Y-62173237D01*
X169216685Y-90798796D02*
X169167654Y-90800000D01*
X169504219Y-25058397D02*
X169549967Y-25076044D01*
X118535028Y-90356014D02*
X118508796Y-90314588D01*
X123691203Y-53885411D02*
X123715372Y-53928074D01*
X155134414Y-60404810D02*
X155183314Y-60401203D01*
X181663272Y-90043737D02*
X181652529Y-89995895D01*
X115270751Y-61828127D02*
X115248705Y-61871925D01*
X135800270Y-62401245D02*
X135800000Y-62412247D01*
X142057660Y-53443016D02*
X142104219Y-53458397D01*
X105401203Y-61349981D02*
X105404810Y-61301080D01*
X105495914Y-54828127D02*
X105476044Y-54783300D01*
X146619082Y-25010812D02*
X146667747Y-25004810D01*
X146429113Y-87858397D02*
X146475672Y-87843016D01*
X151228522Y-54301080D02*
X151232129Y-54349981D01*
X150661460Y-87895914D02*
X150705258Y-87917960D01*
X170024537Y-61914588D02*
X169998304Y-61956014D01*
X181860096Y-53765241D02*
X181892123Y-53728112D01*
X115361855Y-27098919D02*
X115355853Y-27147583D01*
X173610652Y-55231637D02*
X173570563Y-55203404D01*
X127001695Y-27556014D02*
X126975462Y-27514588D01*
X178614137Y-25804104D02*
X178622520Y-25852416D01*
X174116648Y-53401203D02*
X174165678Y-53400000D01*
X142736727Y-25756262D02*
X142747470Y-25804104D01*
X127405205Y-27904085D02*
X127361408Y-27882039D01*
X105728112Y-25258790D02*
X105765241Y-25226762D01*
X142570070Y-88203896D02*
X142598304Y-88243985D01*
X178016633Y-87876044D02*
X178061460Y-87895914D01*
X118409683Y-61109005D02*
X118425064Y-61062447D01*
X123803394Y-90043737D02*
X123790316Y-90090994D01*
X178061460Y-27904085D02*
X178016633Y-27923955D01*
X115038553Y-62141209D02*
X115001425Y-62173237D01*
X169167654Y-90800000D02*
X155232345Y-90800000D01*
X154263272Y-90043737D02*
X154252529Y-89995895D01*
X115347470Y-88604104D02*
X115355853Y-88652416D01*
X118659267Y-90507399D02*
X118625456Y-90471887D01*
X122980917Y-27989187D02*
X122932252Y-27995189D01*
X178340732Y-27707399D02*
X178305220Y-27741209D01*
X114514250Y-87810812D02*
X114562561Y-87819195D01*
X127361408Y-55282039D02*
X127318744Y-55257870D01*
X174019082Y-62389187D02*
X173970771Y-62380804D01*
X146522929Y-87829939D02*
X146570771Y-87819195D01*
X142570070Y-61996103D02*
X142539903Y-62034758D01*
X118425064Y-90137552D02*
X118409683Y-90090994D01*
X169638591Y-55282039D02*
X169594794Y-55304085D01*
X191307399Y-25292600D02*
X191341209Y-25328112D01*
X174165678Y-55400000D02*
X174116648Y-55398796D01*
X154525933Y-55107399D02*
X154492123Y-55071887D01*
X142010403Y-53429939D02*
X142057660Y-53443016D01*
X118371477Y-54498919D02*
X118367870Y-54450018D01*
X170161855Y-88701080D02*
X170165463Y-88749981D01*
X114794794Y-27904085D02*
X114749967Y-27923955D01*
X173494779Y-62141209D02*
X173459267Y-62107399D01*
X122980917Y-62389187D02*
X122932252Y-62395189D01*
X150616633Y-25076044D02*
X150661460Y-25095914D01*
X150747921Y-53542129D02*
X150789347Y-53568362D01*
X190843737Y-60429939D02*
X190890994Y-60443016D01*
X170165463Y-25949981D02*
X170166666Y-25999012D01*
X118385862Y-61204104D02*
X118396605Y-61156262D01*
X174067747Y-62395189D02*
X174019082Y-62389187D01*
X126951294Y-90271925D02*
X126929248Y-90228127D01*
X173738539Y-90704085D02*
X173694741Y-90682039D01*
X178574935Y-90137552D02*
X178557288Y-90183300D01*
X127237229Y-60596595D02*
X127277318Y-60568362D01*
X151214137Y-61595895D02*
X151203394Y-61643737D01*
X126833333Y-88799012D02*
X126834536Y-88749981D01*
X178229436Y-53596595D02*
X178268092Y-53626762D01*
X142238591Y-90682039D02*
X142194794Y-90704085D01*
X119075672Y-60443016D02*
X119122929Y-60429939D01*
X191482039Y-25528074D02*
X191504085Y-25571872D01*
X118409683Y-54690994D02*
X118396605Y-54643737D01*
X181634536Y-54349981D02*
X181638144Y-54301080D01*
X178633333Y-61400987D02*
X178632129Y-61450018D01*
X114514250Y-90789187D02*
X114465585Y-90795189D01*
X178574935Y-54062447D02*
X178590316Y-54109005D01*
X115107876Y-90471887D02*
X115074066Y-90507399D01*
X108412247Y-62400000D02*
X108401245Y-62400270D01*
X182583314Y-90798796D02*
X182534414Y-90795189D01*
X178340732Y-62107399D02*
X178305220Y-62141209D01*
X123468092Y-27773237D02*
X123429436Y-27803404D01*
X151203394Y-90043737D02*
X151190316Y-90090994D01*
X122883351Y-53401203D02*
X122932252Y-53404810D01*
X190843737Y-55370060D02*
X190795895Y-55380804D01*
X118983366Y-25076044D02*
X119029113Y-25058397D01*
X170147470Y-27195895D02*
X170136727Y-27243737D01*
X150829436Y-87996595D02*
X150868092Y-88026762D01*
X145993429Y-53765241D02*
X146025456Y-53728112D01*
X174116648Y-90798796D02*
X174067747Y-90795189D01*
X150705258Y-60517960D02*
X150747921Y-60542129D01*
X182342339Y-25043016D02*
X182389596Y-25029939D01*
X150524327Y-90756983D02*
X150477070Y-90770060D01*
X142598304Y-88243985D02*
X142624537Y-88285411D01*
X191071925Y-25117960D02*
X191114588Y-25142129D01*
X181751294Y-54871925D02*
X181729248Y-54828127D01*
X150283351Y-53401203D02*
X150332252Y-53404810D01*
X150940732Y-25292600D02*
X150974543Y-25328112D01*
X127318744Y-87942129D02*
X127361408Y-87917960D01*
X122834321Y-53400000D02*
X122883351Y-53401203D01*
X127198574Y-60626762D02*
X127237229Y-60596595D01*
X115074066Y-27707399D02*
X115038553Y-27741209D01*
X146170563Y-55203404D02*
X146131907Y-55173237D01*
X118694779Y-55141209D02*
X118659267Y-55107399D01*
X154329248Y-54828127D02*
X154309377Y-54783300D01*
X105692600Y-25292600D02*
X105728112Y-25258790D01*
X127832345Y-25000000D02*
X141767654Y-25000000D01*
X142708268Y-27337552D02*
X142690622Y-27383300D01*
X115365463Y-54450018D02*
X115361855Y-54498919D01*
X123803394Y-27243737D02*
X123790316Y-27290994D01*
X114704219Y-90741602D02*
X114657660Y-90756983D01*
X150429228Y-90780804D02*
X150380917Y-90789187D01*
X118484627Y-88328074D02*
X118508796Y-88285411D01*
X118385862Y-88604104D02*
X118396605Y-88556262D01*
X191541602Y-61062447D02*
X191556983Y-61109005D01*
X181829929Y-27596103D02*
X181801695Y-27556014D01*
X151091203Y-60885411D02*
X151115372Y-60928074D01*
X177634321Y-53400000D02*
X177683351Y-53401203D01*
X190843737Y-25029939D02*
X190890994Y-25043016D01*
X173171477Y-25901080D02*
X173177479Y-25852416D01*
X173610652Y-27831637D02*
X173570563Y-27803404D01*
X154850032Y-27923955D02*
X154805205Y-27904085D01*
X169594794Y-53495914D02*
X169638591Y-53517960D01*
X114881255Y-60542129D02*
X114922681Y-60568362D01*
X145935028Y-25443985D02*
X145963262Y-25403896D01*
X115170070Y-25403896D02*
X115198304Y-25443985D01*
X118371477Y-54301080D02*
X118377479Y-54252416D01*
X182437438Y-53419195D02*
X182485749Y-53410812D01*
X119122929Y-87829939D02*
X119170771Y-87819195D01*
X105626762Y-90434758D02*
X105596595Y-90396103D01*
X169722681Y-53568362D02*
X169762770Y-53596595D01*
X182295780Y-62341602D02*
X182250032Y-62323955D01*
X170155853Y-25852416D02*
X170161855Y-25901080D01*
X178406570Y-27634758D02*
X178374543Y-27671887D01*
X123029228Y-62380804D02*
X122980917Y-62389187D01*
X150283351Y-90798796D02*
X150234321Y-90800000D01*
X135800000Y-28012272D02*
X135800000Y-53387727D01*
X105928074Y-25117960D02*
X105971872Y-25095914D01*
X170136727Y-27243737D02*
X170123649Y-27290994D01*
X106349981Y-25001203D02*
X106399012Y-25000000D01*
X118442711Y-54016699D02*
X118462581Y-53971872D01*
X154561446Y-90541209D02*
X154525933Y-90507399D01*
X181709377Y-54783300D02*
X181691731Y-54737552D01*
X155134414Y-53404810D02*
X155183314Y-53401203D01*
X105443016Y-54690994D02*
X105429939Y-54643737D01*
X178406570Y-62034758D02*
X178374543Y-62071887D01*
X118731907Y-62173237D02*
X118694779Y-62141209D01*
X151203394Y-25756262D02*
X151214137Y-25804104D01*
X150429228Y-87819195D02*
X150477070Y-87829939D01*
X126975462Y-61914588D02*
X126951294Y-61871925D01*
X151137418Y-27428127D02*
X151115372Y-27471925D01*
X191403404Y-60803896D02*
X191431637Y-60843985D01*
X173185862Y-61595895D02*
X173177479Y-61547583D01*
X181892123Y-27671887D02*
X181860096Y-27634758D01*
X127318744Y-90657870D02*
X127277318Y-90631637D01*
X146025456Y-55071887D02*
X145993429Y-55034758D01*
X142281255Y-55257870D02*
X142238591Y-55282039D01*
X114838591Y-25117960D02*
X114881255Y-25142129D01*
X105843985Y-55231637D02*
X105803896Y-55203404D01*
X154351294Y-90271925D02*
X154329248Y-90228127D01*
X161198754Y-62400270D02*
X161187752Y-62400000D01*
X154598574Y-53626762D02*
X154637229Y-53596595D01*
X126863272Y-25756262D02*
X126876350Y-25709005D01*
X115198304Y-54956014D02*
X115170070Y-54996103D01*
X181709377Y-27383300D02*
X181691731Y-27337552D01*
X146131907Y-60626762D02*
X146170563Y-60596595D01*
X127161446Y-88058790D02*
X127198574Y-88026762D01*
X191028127Y-90704085D02*
X190983300Y-90723955D01*
X118371477Y-27098919D02*
X118367870Y-27050018D01*
X173167870Y-89850018D02*
X173166666Y-89800987D01*
X142149967Y-62323955D02*
X142104219Y-62341602D01*
X118563262Y-61996103D02*
X118535028Y-61956014D01*
X146210652Y-60568362D02*
X146252078Y-60542129D01*
X146475672Y-55356983D02*
X146429113Y-55341602D01*
X150705258Y-55282039D02*
X150661460Y-55304085D01*
X127277318Y-27831637D02*
X127237229Y-27803404D01*
X142281255Y-87942129D02*
X142322681Y-87968362D01*
X146131907Y-25226762D02*
X146170563Y-25196595D01*
X154677318Y-53568362D02*
X154718744Y-53542129D01*
X118852078Y-55257870D02*
X118810652Y-55231637D01*
X105517960Y-60928074D02*
X105542129Y-60885411D01*
X154561446Y-53658790D02*
X154598574Y-53626762D01*
X127542339Y-25043016D02*
X127589596Y-25029939D01*
X118425064Y-88462447D02*
X118442711Y-88416699D01*
X118396605Y-90043737D02*
X118385862Y-89995895D01*
X127734414Y-55395189D02*
X127685749Y-55389187D01*
X118377479Y-88652416D02*
X118385862Y-88604104D01*
X146619082Y-90789187D02*
X146570771Y-90780804D01*
X177970886Y-25058397D02*
X178016633Y-25076044D01*
X123077070Y-55370060D02*
X123029228Y-55380804D01*
X188599729Y-87798754D02*
X188599999Y-87787752D01*
X151232129Y-54450018D02*
X151228522Y-54498919D01*
X123774935Y-27337552D02*
X123757288Y-27383300D01*
X161200000Y-87787727D02*
X161200000Y-62412272D01*
X155085749Y-62389187D02*
X155037438Y-62380804D01*
X173829113Y-87858397D02*
X173875672Y-87843016D01*
X150789347Y-27831637D02*
X150747921Y-27857870D01*
X177877070Y-25029939D02*
X177924327Y-25043016D01*
X118810652Y-55231637D02*
X118770563Y-55203404D01*
X181829929Y-54996103D02*
X181801695Y-54956014D01*
X170108268Y-61062447D02*
X170123649Y-61109005D01*
X169549967Y-27923955D02*
X169504219Y-27941602D01*
X154989596Y-55370060D02*
X154942339Y-55356983D01*
X151222520Y-27147583D02*
X151214137Y-27195895D01*
X154244146Y-89947583D02*
X154238144Y-89898919D01*
X151228522Y-61498919D02*
X151222520Y-61547583D01*
X181775462Y-25485411D02*
X181801695Y-25443985D01*
X142648705Y-61871925D02*
X142624537Y-61914588D01*
X127783314Y-90798796D02*
X127734414Y-90795189D01*
X169722681Y-60568362D02*
X169762770Y-60596595D01*
X142104219Y-90741602D02*
X142057660Y-90756983D01*
X142362770Y-90603404D02*
X142322681Y-90631637D01*
X119122929Y-90770060D02*
X119075672Y-90756983D01*
X142010403Y-90770060D02*
X141962561Y-90780804D01*
X123715372Y-27471925D02*
X123691203Y-27514588D01*
X115365463Y-54349981D02*
X115366666Y-54399012D01*
X151228522Y-61301080D02*
X151232129Y-61349981D01*
X154895780Y-87858397D02*
X154942339Y-87843016D01*
X119267747Y-55395189D02*
X119219082Y-55389187D01*
X154401695Y-27556014D02*
X154375462Y-27514588D01*
X173922929Y-60429939D02*
X173970771Y-60419195D01*
X154233333Y-61400987D02*
X154233333Y-61399012D01*
X115336727Y-90043737D02*
X115323649Y-90090994D01*
X150868092Y-90573237D02*
X150829436Y-90603404D01*
X106156262Y-90770060D02*
X106109005Y-90756983D01*
X141962561Y-87819195D02*
X142010403Y-87829939D01*
X181998574Y-25226762D02*
X182037229Y-25196595D01*
X177732252Y-53404810D02*
X177780917Y-53410812D01*
X127495780Y-60458397D02*
X127542339Y-60443016D01*
X142281255Y-27857870D02*
X142238591Y-27882039D01*
X115001425Y-53626762D02*
X115038553Y-53658790D01*
X114562561Y-55380804D02*
X114514250Y-55389187D01*
X118367870Y-27050018D02*
X118366666Y-27000987D01*
X142690622Y-27383300D02*
X142670751Y-27428127D01*
X115366666Y-27000987D02*
X115365463Y-27050018D01*
X118371477Y-61301080D02*
X118377479Y-61252416D01*
X182118744Y-90657870D02*
X182077318Y-90631637D01*
X170155853Y-88652416D02*
X170161855Y-88701080D01*
X181633333Y-25999012D02*
X181634536Y-25949981D01*
X142194794Y-27904085D02*
X142149967Y-27923955D01*
X178574935Y-27337552D02*
X178557288Y-27383300D01*
X118396605Y-88556262D02*
X118409683Y-88509005D01*
X173425456Y-62071887D02*
X173393429Y-62034758D01*
X170147470Y-54204104D02*
X170155853Y-54252416D01*
X114881255Y-55257870D02*
X114838591Y-55282039D01*
X123540732Y-25292600D02*
X123574543Y-25328112D01*
X182437438Y-55380804D02*
X182389596Y-55370060D01*
X154718744Y-53542129D02*
X154761408Y-53517960D01*
X178515372Y-54871925D02*
X178491203Y-54914588D01*
X123636737Y-90396103D02*
X123606570Y-90434758D01*
X177829228Y-25019195D02*
X177877070Y-25029939D01*
X146765678Y-90800000D02*
X146716648Y-90798796D01*
X105971872Y-25095914D02*
X106016699Y-25076044D01*
X142736727Y-61643737D02*
X142723649Y-61690994D01*
X169874066Y-62107399D02*
X169838553Y-62141209D01*
X154234536Y-25949981D02*
X154238144Y-25901080D01*
X173167870Y-54349981D02*
X173171477Y-54301080D01*
X173652078Y-53542129D02*
X173694741Y-53517960D01*
X123737418Y-61828127D02*
X123715372Y-61871925D01*
X119219082Y-62389187D02*
X119170771Y-62380804D01*
X123774935Y-90137552D02*
X123757288Y-90183300D01*
X123305258Y-53517960D02*
X123347921Y-53542129D01*
X142723649Y-25709005D02*
X142736727Y-25756262D01*
X141767654Y-53400000D02*
X141816685Y-53401203D01*
X141816685Y-90798796D02*
X141767654Y-90800000D01*
X173922929Y-87829939D02*
X173970771Y-87819195D01*
X173652078Y-27857870D02*
X173610652Y-27831637D01*
X181729248Y-54828127D02*
X181709377Y-54783300D01*
X178229436Y-55203404D02*
X178189347Y-55231637D01*
X115365463Y-61450018D02*
X115361855Y-61498919D01*
X178633333Y-25999012D02*
X178633333Y-27000987D01*
X142670751Y-25571872D02*
X142690622Y-25616699D01*
X169681255Y-62257870D02*
X169638591Y-62282039D01*
X170048705Y-53928074D02*
X170070751Y-53971872D01*
X126876350Y-61690994D02*
X126863272Y-61643737D01*
X154329248Y-90228127D02*
X154309377Y-90183300D01*
X122980917Y-53410812D02*
X123029228Y-53419195D01*
X123715372Y-53928074D02*
X123737418Y-53971872D01*
X123757288Y-90183300D02*
X123737418Y-90228127D01*
X182583314Y-55398796D02*
X182534414Y-55395189D01*
X127405205Y-55304085D02*
X127361408Y-55282039D01*
X169970070Y-27596103D02*
X169939903Y-27634758D01*
X154329248Y-60971872D02*
X154351294Y-60928074D01*
X188587752Y-53399999D02*
X188598754Y-53399729D01*
X178632129Y-88749981D02*
X178633333Y-88799012D01*
X115323649Y-54109005D02*
X115336727Y-54156262D01*
X119267747Y-60404810D02*
X119316648Y-60401203D01*
X191598796Y-61349981D02*
X191600000Y-61399012D01*
X126951294Y-88328074D02*
X126975462Y-88285411D01*
X154329248Y-61828127D02*
X154309377Y-61783300D01*
X178614137Y-54204104D02*
X178622520Y-54252416D01*
X127637438Y-25019195D02*
X127685749Y-25010812D01*
X123468092Y-55173237D02*
X123429436Y-55203404D01*
X123715372Y-61871925D02*
X123691203Y-61914588D01*
X154429929Y-54996103D02*
X154401695Y-54956014D01*
X154252529Y-61204104D02*
X154263272Y-61156262D01*
X178340732Y-53692600D02*
X178374543Y-53728112D01*
X178268092Y-27773237D02*
X178229436Y-27803404D01*
X133798754Y-28000270D02*
X133787752Y-28000000D01*
X118625456Y-27671887D02*
X118593429Y-27634758D01*
X123305258Y-60517960D02*
X123347921Y-60542129D01*
X191114588Y-25142129D02*
X191156014Y-25168362D01*
X154291731Y-27337552D02*
X154276350Y-27290994D01*
X182205205Y-62304085D02*
X182161408Y-62282039D01*
X177924327Y-27956983D02*
X177877070Y-27970060D01*
X100400000Y-20012272D02*
X100400000Y-95787727D01*
X154263272Y-54643737D02*
X154252529Y-54595895D01*
X181961446Y-88058790D02*
X181998574Y-88026762D01*
X127734414Y-53404810D02*
X127783314Y-53401203D01*
X119267747Y-53404810D02*
X119316648Y-53401203D01*
X114922681Y-25168362D02*
X114962770Y-25196595D01*
X150524327Y-87843016D02*
X150570886Y-87858397D01*
X142755853Y-54547583D02*
X142747470Y-54595895D01*
X118396605Y-61156262D02*
X118409683Y-61109005D01*
X123606570Y-62034758D02*
X123574543Y-62071887D01*
X146716648Y-87801203D02*
X146765678Y-87800000D01*
X127734414Y-87804810D02*
X127783314Y-87801203D01*
X169762770Y-25196595D02*
X169801425Y-25226762D01*
X146429113Y-90741602D02*
X146383366Y-90723955D01*
X191307399Y-90507399D02*
X191271887Y-90541209D01*
X141816685Y-27998796D02*
X141767654Y-28000000D01*
X181633333Y-89800987D02*
X181633333Y-88799012D01*
X142765463Y-54349981D02*
X142766666Y-54399012D01*
X114416685Y-55398796D02*
X114367654Y-55400000D01*
X154850032Y-55323955D02*
X154805205Y-55304085D01*
X118396605Y-27243737D02*
X118385862Y-27195895D01*
X118508796Y-88285411D02*
X118535028Y-88243985D01*
X170024537Y-53885411D02*
X170048705Y-53928074D01*
X119267747Y-87804810D02*
X119316648Y-87801203D01*
X123664971Y-88243985D02*
X123691203Y-88285411D01*
X146429113Y-27941602D02*
X146383366Y-27923955D01*
X154375462Y-90314588D02*
X154351294Y-90271925D01*
X127589596Y-53429939D02*
X127637438Y-53419195D01*
X173284627Y-90271925D02*
X173262581Y-90228127D01*
X127001695Y-53843985D02*
X127029929Y-53803896D01*
X118409683Y-25709005D02*
X118425064Y-25662447D01*
X123833333Y-25999012D02*
X123833333Y-27000987D01*
X173570563Y-25196595D02*
X173610652Y-25168362D01*
X151222520Y-89947583D02*
X151214137Y-89995895D01*
X123540732Y-90507399D02*
X123505220Y-90541209D01*
X123505220Y-62141209D02*
X123468092Y-62173237D01*
X135812247Y-28000000D02*
X135801245Y-28000270D01*
X141767654Y-60400000D02*
X141816685Y-60401203D01*
X154677318Y-87968362D02*
X154718744Y-87942129D01*
X190747583Y-90789187D02*
X190698919Y-90795189D01*
X123077070Y-25029939D02*
X123124327Y-25043016D01*
X154263272Y-27243737D02*
X154252529Y-27195895D01*
X126909377Y-88416699D02*
X126929248Y-88371872D01*
X105765241Y-90573237D02*
X105728112Y-90541209D01*
X141816685Y-62398796D02*
X141767654Y-62400000D01*
X173610652Y-87968362D02*
X173652078Y-87942129D01*
X174116648Y-55398796D02*
X174067747Y-55395189D01*
X173738539Y-55304085D02*
X173694741Y-55282039D01*
X114881255Y-27857870D02*
X114838591Y-27882039D01*
X142690622Y-54016699D02*
X142708268Y-54062447D01*
X127125933Y-60692600D02*
X127161446Y-60658790D01*
X118425064Y-61737552D02*
X118409683Y-61690994D01*
X114962770Y-87996595D02*
X115001425Y-88026762D01*
X178340732Y-88092600D02*
X178374543Y-88128112D01*
X181925933Y-88092600D02*
X181961446Y-88058790D01*
X181801695Y-27556014D02*
X181775462Y-27514588D01*
X142723649Y-27290994D02*
X142708268Y-27337552D01*
X177732252Y-60404810D02*
X177780917Y-60410812D01*
X123429436Y-53596595D02*
X123468092Y-53626762D01*
X173335028Y-25443985D02*
X173363262Y-25403896D01*
X123832129Y-27050018D02*
X123828522Y-27098919D01*
X123347921Y-90657870D02*
X123305258Y-90682039D01*
X173425456Y-60728112D02*
X173459267Y-60692600D01*
X145862581Y-25571872D02*
X145884627Y-25528074D01*
X169838553Y-25258790D02*
X169874066Y-25292600D01*
X142736727Y-61156262D02*
X142747470Y-61204104D01*
X150829436Y-60596595D02*
X150868092Y-60626762D01*
X123636737Y-60803896D02*
X123664971Y-60843985D01*
X142238591Y-55282039D02*
X142194794Y-55304085D01*
X142438553Y-90541209D02*
X142401425Y-90573237D01*
X150616633Y-87876044D02*
X150661460Y-87895914D01*
X154252529Y-27195895D02*
X154244146Y-27147583D01*
X105626762Y-55034758D02*
X105596595Y-54996103D01*
X181860096Y-25365241D02*
X181892123Y-25328112D01*
X145771477Y-89898919D02*
X145767870Y-89850018D01*
X114922681Y-62231637D02*
X114881255Y-62257870D01*
X119170771Y-27980804D02*
X119122929Y-27970060D01*
X115224537Y-61914588D02*
X115198304Y-61956014D01*
X150332252Y-53404810D02*
X150380917Y-53410812D01*
X114465585Y-87804810D02*
X114514250Y-87810812D01*
X163200000Y-53387752D02*
X163200270Y-53398754D01*
X173308796Y-27514588D02*
X173284627Y-27471925D01*
X169410403Y-90770060D02*
X169362561Y-90780804D01*
X173875672Y-60443016D02*
X173922929Y-60429939D01*
X169594794Y-87895914D02*
X169638591Y-87917960D01*
X191431637Y-25443985D02*
X191457870Y-25485411D01*
X173393429Y-27634758D02*
X173363262Y-27596103D01*
X123790316Y-27290994D02*
X123774935Y-27337552D01*
X177877070Y-27970060D02*
X177829228Y-27980804D01*
X105928074Y-60517960D02*
X105971872Y-60495914D01*
X177877070Y-53429939D02*
X177924327Y-53443016D01*
X115290622Y-25616699D02*
X115308268Y-25662447D01*
X191234758Y-60626762D02*
X191271887Y-60658790D01*
X155085749Y-60410812D02*
X155134414Y-60404810D01*
X142238591Y-60517960D02*
X142281255Y-60542129D01*
X114610403Y-62370060D02*
X114562561Y-62380804D01*
X145809683Y-27290994D02*
X145796605Y-27243737D01*
X146170563Y-90603404D02*
X146131907Y-90573237D01*
X106349981Y-55398796D02*
X106301080Y-55395189D01*
X126844146Y-54252416D02*
X126852529Y-54204104D01*
X142474066Y-27707399D02*
X142438553Y-27741209D01*
X169265585Y-25004810D02*
X169314250Y-25010812D01*
X173783366Y-53476044D02*
X173829113Y-53458397D01*
X127237229Y-25196595D02*
X127277318Y-25168362D01*
X170048705Y-54871925D02*
X170024537Y-54914588D01*
X142507876Y-27671887D02*
X142474066Y-27707399D01*
X114749967Y-53476044D02*
X114794794Y-53495914D01*
X127092123Y-55071887D02*
X127060096Y-55034758D01*
X173308796Y-25485411D02*
X173335028Y-25443985D01*
X142570070Y-60803896D02*
X142598304Y-60843985D01*
X170136727Y-88556262D02*
X170147470Y-88604104D01*
X178061460Y-25095914D02*
X178105258Y-25117960D01*
X190650018Y-60401203D02*
X190698919Y-60404810D01*
X127361408Y-90682039D02*
X127318744Y-90657870D01*
X150974543Y-90471887D02*
X150940732Y-90507399D01*
X146170563Y-60596595D02*
X146210652Y-60568362D01*
X115107876Y-62071887D02*
X115074066Y-62107399D01*
X118731907Y-53626762D02*
X118770563Y-53596595D01*
X150570886Y-87858397D02*
X150616633Y-87876044D01*
X154989596Y-53429939D02*
X155037438Y-53419195D01*
X173171477Y-54498919D02*
X173167870Y-54450018D01*
X151157288Y-61016699D02*
X151174935Y-61062447D01*
X169410403Y-27970060D02*
X169362561Y-27980804D01*
X173425456Y-55071887D02*
X173393429Y-55034758D01*
X150380917Y-53410812D02*
X150429228Y-53419195D01*
X154761408Y-62282039D02*
X154718744Y-62257870D01*
X178340732Y-25292600D02*
X178374543Y-25328112D01*
X163212272Y-87800000D02*
X169167654Y-87800000D01*
X135801245Y-87799729D02*
X135812247Y-87799999D01*
X142648705Y-90271925D02*
X142624537Y-90314588D01*
X181652529Y-88604104D02*
X181663272Y-88556262D01*
X169167654Y-28000000D02*
X163212272Y-28000000D01*
X142761855Y-25901080D02*
X142765463Y-25949981D01*
X178016633Y-25076044D02*
X178061460Y-25095914D01*
X150524327Y-25043016D02*
X150570886Y-25058397D01*
X182534414Y-27995189D02*
X182485749Y-27989187D01*
X142570070Y-25403896D02*
X142598304Y-25443985D01*
X170070751Y-53971872D02*
X170090622Y-54016699D01*
X142670751Y-88371872D02*
X142690622Y-88416699D01*
X154761408Y-27882039D02*
X154718744Y-27857870D01*
X191457870Y-25485411D02*
X191482039Y-25528074D01*
X191598796Y-54450018D02*
X191595189Y-54498919D01*
X105476044Y-54783300D02*
X105458397Y-54737552D01*
X105885411Y-90657870D02*
X105843985Y-90631637D01*
X173875672Y-62356983D02*
X173829113Y-62341602D01*
X169362561Y-62380804D02*
X169314250Y-62389187D01*
X118371477Y-89898919D02*
X118367870Y-89850018D01*
X154291731Y-90137552D02*
X154276350Y-90090994D01*
X169167654Y-25000000D02*
X169216685Y-25001203D01*
X151233333Y-61400987D02*
X151232129Y-61450018D01*
X119122929Y-55370060D02*
X119075672Y-55356983D01*
X118731907Y-90573237D02*
X118694779Y-90541209D01*
X123216633Y-25076044D02*
X123261460Y-25095914D01*
X145809683Y-54109005D02*
X145825064Y-54062447D01*
X105495914Y-25571872D02*
X105517960Y-25528074D01*
X105517960Y-25528074D02*
X105542129Y-25485411D01*
X146059267Y-55107399D02*
X146025456Y-55071887D01*
X154989596Y-25029939D02*
X155037438Y-25019195D01*
X154805205Y-55304085D02*
X154761408Y-55282039D01*
X161199729Y-87798754D02*
X161199999Y-87787752D01*
X123124327Y-60443016D02*
X123170886Y-60458397D01*
X118894741Y-87917960D02*
X118938539Y-87895914D01*
X178628522Y-25901080D02*
X178632129Y-25949981D01*
X173308796Y-61914588D02*
X173284627Y-61871925D01*
X188599729Y-53398754D02*
X188599999Y-53387752D01*
X151174935Y-61062447D02*
X151190316Y-61109005D01*
X118625456Y-53728112D02*
X118659267Y-53692600D01*
X142670751Y-53971872D02*
X142690622Y-54016699D01*
X127125933Y-27707399D02*
X127092123Y-27671887D01*
X119170771Y-90780804D02*
X119122929Y-90770060D01*
X105542129Y-60885411D02*
X105568362Y-60843985D01*
X191114588Y-90657870D02*
X191071925Y-90682039D01*
X126929248Y-53971872D02*
X126951294Y-53928074D01*
X123124327Y-90756983D02*
X123077070Y-90770060D01*
X177780917Y-53410812D02*
X177829228Y-53419195D01*
X141962561Y-60419195D02*
X142010403Y-60429939D01*
X114465585Y-90795189D02*
X114416685Y-90798796D01*
X126909377Y-54783300D02*
X126891731Y-54737552D01*
X142010403Y-62370060D02*
X141962561Y-62380804D01*
X174019082Y-60410812D02*
X174067747Y-60404810D01*
X114794794Y-87895914D02*
X114838591Y-87917960D01*
X146570771Y-25019195D02*
X146619082Y-25010812D01*
X169907876Y-90471887D02*
X169874066Y-90507399D01*
X155183314Y-53401203D02*
X155232345Y-53400000D01*
X142690622Y-90183300D02*
X142670751Y-90228127D01*
X173393429Y-90434758D02*
X173363262Y-90396103D01*
X178622520Y-88652416D02*
X178628522Y-88701080D01*
X146210652Y-25168362D02*
X146252078Y-25142129D01*
X114367654Y-53400000D02*
X114416685Y-53401203D01*
X118983366Y-87876044D02*
X119029113Y-87858397D01*
X154492123Y-55071887D02*
X154460096Y-55034758D01*
X114465585Y-27995189D02*
X114416685Y-27998796D01*
X178305220Y-62141209D02*
X178268092Y-62173237D01*
X118425064Y-61062447D02*
X118442711Y-61016699D01*
X151091203Y-53885411D02*
X151115372Y-53928074D01*
X173196605Y-61643737D02*
X173185862Y-61595895D01*
X155085749Y-53410812D02*
X155134414Y-53404810D01*
X127589596Y-25029939D02*
X127637438Y-25019195D01*
X170024537Y-54914588D02*
X169998304Y-54956014D01*
X145771477Y-54498919D02*
X145767870Y-54450018D01*
X182583314Y-62398796D02*
X182534414Y-62395189D01*
X122834321Y-87800000D02*
X122883351Y-87801203D01*
X114562561Y-62380804D02*
X114514250Y-62389187D01*
X127495780Y-27941602D02*
X127450032Y-27923955D01*
X173738539Y-87895914D02*
X173783366Y-87876044D01*
X169167654Y-62400000D02*
X163212272Y-62400000D01*
X145771477Y-61301080D02*
X145777479Y-61252416D01*
X127161446Y-90541209D02*
X127125933Y-90507399D01*
X150616633Y-55323955D02*
X150570886Y-55341602D01*
X145842711Y-54016699D02*
X145862581Y-53971872D01*
X146619082Y-60410812D02*
X146667747Y-60404810D01*
X118462581Y-27428127D02*
X118442711Y-27383300D01*
X100400000Y-95787752D02*
X100400270Y-95798754D01*
X178374543Y-62071887D02*
X178340732Y-62107399D01*
X151036737Y-25403896D02*
X151064971Y-25443985D01*
X146429113Y-62341602D02*
X146383366Y-62323955D01*
X178436737Y-25403896D02*
X178464971Y-25443985D01*
X127060096Y-90434758D02*
X127029929Y-90396103D01*
X188599999Y-28012247D02*
X188599729Y-28001245D01*
X170161855Y-61498919D02*
X170155853Y-61547583D01*
X150747921Y-27857870D02*
X150705258Y-27882039D01*
X115107876Y-25328112D02*
X115139903Y-25365241D01*
X173335028Y-27556014D02*
X173308796Y-27514588D01*
X142539903Y-60765241D02*
X142570070Y-60803896D01*
X169457660Y-90756983D02*
X169410403Y-90770060D01*
X150234321Y-25000000D02*
X150283351Y-25001203D01*
X191271887Y-90541209D02*
X191234758Y-90573237D01*
X173225064Y-61737552D02*
X173209683Y-61690994D01*
X142401425Y-88026762D02*
X142438553Y-88058790D01*
X181925933Y-25292600D02*
X181961446Y-25258790D01*
X173242711Y-61783300D02*
X173225064Y-61737552D01*
X118593429Y-27634758D02*
X118563262Y-27596103D01*
X177634321Y-87800000D02*
X177683351Y-87801203D01*
X150283351Y-55398796D02*
X150234321Y-55400000D01*
X154375462Y-25485411D02*
X154401695Y-25443985D01*
X169681255Y-27857870D02*
X169638591Y-27882039D01*
X182295780Y-55341602D02*
X182250032Y-55323955D01*
X177780917Y-60410812D02*
X177829228Y-60419195D01*
X123822520Y-61252416D02*
X123828522Y-61301080D01*
X127277318Y-60568362D02*
X127318744Y-60542129D01*
X190650018Y-90798796D02*
X190600987Y-90800000D01*
X106156262Y-60429939D02*
X106204104Y-60419195D01*
X151228522Y-27098919D02*
X151222520Y-27147583D01*
X182161408Y-60517960D02*
X182205205Y-60495914D01*
X115074066Y-62107399D02*
X115038553Y-62141209D01*
X142474066Y-88092600D02*
X142507876Y-88128112D01*
X145767870Y-27050018D02*
X145766666Y-27000987D01*
X123505220Y-27741209D02*
X123468092Y-27773237D01*
X178436737Y-53803896D02*
X178464971Y-53843985D01*
X150829436Y-27803404D02*
X150789347Y-27831637D01*
X154375462Y-60885411D02*
X154401695Y-60843985D01*
X169594794Y-25095914D02*
X169638591Y-25117960D01*
X178628522Y-27098919D02*
X178622520Y-27147583D01*
X127060096Y-60765241D02*
X127092123Y-60728112D01*
X126844146Y-54547583D02*
X126838144Y-54498919D01*
X182534414Y-62395189D02*
X182485749Y-62389187D01*
X127060096Y-27634758D02*
X127029929Y-27596103D01*
X115336727Y-54156262D02*
X115347470Y-54204104D01*
X169265585Y-53404810D02*
X169314250Y-53410812D01*
X154351294Y-61871925D02*
X154329248Y-61828127D01*
X119075672Y-90756983D02*
X119029113Y-90741602D01*
X115248705Y-88328074D02*
X115270751Y-88371872D01*
X122834321Y-90800000D02*
X119365678Y-90800000D01*
X105400000Y-54400987D02*
X105400000Y-25999012D01*
X169939903Y-90434758D02*
X169907876Y-90471887D01*
X170166666Y-27000987D02*
X170165463Y-27050018D01*
X173177479Y-88652416D02*
X173185862Y-88604104D01*
X155134414Y-87804810D02*
X155183314Y-87801203D01*
X151115372Y-90271925D02*
X151091203Y-90314588D01*
X126909377Y-27383300D02*
X126891731Y-27337552D01*
X118366666Y-88799012D02*
X118367870Y-88749981D01*
X191482039Y-60928074D02*
X191504085Y-60971872D01*
X114367654Y-62400000D02*
X108412272Y-62400000D01*
X191156014Y-25168362D02*
X191196103Y-25196595D01*
X178147921Y-53542129D02*
X178189347Y-53568362D01*
X115139903Y-88165241D02*
X115170070Y-88203896D01*
X178147921Y-87942129D02*
X178189347Y-87968362D01*
X178632129Y-61349981D02*
X178633333Y-61399012D01*
X127092123Y-27671887D02*
X127060096Y-27634758D01*
X181652529Y-61595895D02*
X181644146Y-61547583D01*
X182342339Y-55356983D02*
X182295780Y-55341602D01*
X178268092Y-55173237D02*
X178229436Y-55203404D01*
X151174935Y-54737552D02*
X151157288Y-54783300D01*
X115355853Y-27147583D02*
X115347470Y-27195895D01*
X105400000Y-61399012D02*
X105401203Y-61349981D01*
X170070751Y-90228127D02*
X170048705Y-90271925D01*
X174165678Y-53400000D02*
X177634321Y-53400000D01*
X126834536Y-88749981D02*
X126838144Y-88701080D01*
X118535028Y-88243985D02*
X118563262Y-88203896D01*
X123790316Y-61690994D02*
X123774935Y-61737552D01*
X191028127Y-25095914D02*
X191071925Y-25117960D01*
X173783366Y-55323955D02*
X173738539Y-55304085D01*
X123124327Y-53443016D02*
X123170886Y-53458397D01*
X173308796Y-90314588D02*
X173284627Y-90271925D01*
X127029929Y-61996103D02*
X127001695Y-61956014D01*
X178016633Y-53476044D02*
X178061460Y-53495914D01*
X150380917Y-27989187D02*
X150332252Y-27995189D01*
X142766666Y-27000987D02*
X142765463Y-27050018D01*
X178537418Y-60971872D02*
X178557288Y-61016699D01*
X142747470Y-25804104D02*
X142755853Y-25852416D01*
X146522929Y-25029939D02*
X146570771Y-25019195D01*
X142401425Y-90573237D02*
X142362770Y-90603404D01*
X173335028Y-53843985D02*
X173363262Y-53803896D01*
X146294741Y-53517960D02*
X146338539Y-53495914D01*
X126891731Y-61737552D02*
X126876350Y-61690994D01*
X155037438Y-27980804D02*
X154989596Y-27970060D01*
X123691203Y-25485411D02*
X123715372Y-25528074D01*
X142322681Y-60568362D02*
X142362770Y-60596595D01*
X154942339Y-62356983D02*
X154895780Y-62341602D01*
X118770563Y-87996595D02*
X118810652Y-87968362D01*
X114610403Y-27970060D02*
X114562561Y-27980804D01*
X146522929Y-60429939D02*
X146570771Y-60419195D01*
X123636737Y-88203896D02*
X123664971Y-88243985D01*
X178406570Y-60765241D02*
X178436737Y-60803896D01*
X151064971Y-88243985D02*
X151091203Y-88285411D01*
X178557288Y-61016699D02*
X178574935Y-61062447D01*
X178633333Y-61399012D02*
X178633333Y-61400987D01*
X150570886Y-25058397D02*
X150616633Y-25076044D01*
X146570771Y-60419195D02*
X146619082Y-60410812D01*
X114749967Y-25076044D02*
X114794794Y-25095914D01*
X115308268Y-61062447D02*
X115323649Y-61109005D01*
X155037438Y-90780804D02*
X154989596Y-90770060D01*
X191600000Y-25999012D02*
X191600000Y-54400987D01*
X173225064Y-54737552D02*
X173209683Y-54690994D01*
X155037438Y-53419195D02*
X155085749Y-53410812D01*
X126891731Y-54062447D02*
X126909377Y-54016699D01*
X169504219Y-53458397D02*
X169549967Y-53476044D01*
X118852078Y-62257870D02*
X118810652Y-62231637D01*
X141865585Y-60404810D02*
X141914250Y-60410812D01*
X154234536Y-54450018D02*
X154233333Y-54400987D01*
X105401203Y-54450018D02*
X105400000Y-54400987D01*
X154329248Y-25571872D02*
X154351294Y-25528074D01*
X173167870Y-27050018D02*
X173166666Y-27000987D01*
X154525933Y-25292600D02*
X154561446Y-25258790D01*
X126951294Y-53928074D02*
X126975462Y-53885411D01*
X142765463Y-89850018D02*
X142761855Y-89898919D01*
X178406570Y-55034758D02*
X178374543Y-55071887D01*
X145993429Y-88165241D02*
X146025456Y-88128112D01*
X114922681Y-87968362D02*
X114962770Y-87996595D01*
X154492123Y-88128112D02*
X154525933Y-88092600D01*
X181638144Y-25901080D02*
X181644146Y-25852416D01*
X154895780Y-25058397D02*
X154942339Y-25043016D01*
X123347921Y-55257870D02*
X123305258Y-55282039D01*
X191580804Y-54595895D02*
X191570060Y-54643737D01*
X142624537Y-53885411D02*
X142648705Y-53928074D01*
X145785862Y-89995895D02*
X145777479Y-89947583D01*
X142057660Y-62356983D02*
X142010403Y-62370060D01*
X154895780Y-55341602D02*
X154850032Y-55323955D01*
X146294741Y-90682039D02*
X146252078Y-90657870D01*
X145862581Y-27428127D02*
X145842711Y-27383300D01*
X181634536Y-27050018D02*
X181633333Y-27000987D01*
X115224537Y-53885411D02*
X115248705Y-53928074D01*
X155085749Y-25010812D02*
X155134414Y-25004810D01*
X108400270Y-62401245D02*
X108400000Y-62412247D01*
X178229436Y-87996595D02*
X178268092Y-88026762D01*
X123305258Y-90682039D02*
X123261460Y-90704085D01*
X173363262Y-54996103D02*
X173335028Y-54956014D01*
X154677318Y-27831637D02*
X154637229Y-27803404D01*
X150524327Y-53443016D02*
X150570886Y-53458397D01*
X154351294Y-54871925D02*
X154329248Y-54828127D01*
X177634321Y-25000000D02*
X177683351Y-25001203D01*
X126876350Y-27290994D02*
X126863272Y-27243737D01*
X142194794Y-55304085D02*
X142149967Y-55323955D01*
X115336727Y-25756262D02*
X115347470Y-25804104D01*
X123077070Y-27970060D02*
X123029228Y-27980804D01*
X118385862Y-61595895D02*
X118377479Y-61547583D01*
X154637229Y-55203404D02*
X154598574Y-55173237D01*
X146429113Y-55341602D02*
X146383366Y-55323955D01*
X105658790Y-90471887D02*
X105626762Y-90434758D01*
X169801425Y-60626762D02*
X169838553Y-60658790D01*
X146765678Y-87800000D02*
X150234321Y-87800000D01*
X182389596Y-55370060D02*
X182342339Y-55356983D01*
X142057660Y-55356983D02*
X142010403Y-55370060D01*
X145842711Y-27383300D02*
X145825064Y-27337552D01*
X182485749Y-25010812D02*
X182534414Y-25004810D01*
X114657660Y-60443016D02*
X114704219Y-60458397D01*
X114922681Y-90631637D02*
X114881255Y-90657870D01*
X178061460Y-62304085D02*
X178016633Y-62323955D01*
X154718744Y-55257870D02*
X154677318Y-55231637D01*
X142765463Y-27050018D02*
X142761855Y-27098919D01*
X126891731Y-27337552D02*
X126876350Y-27290994D01*
X154309377Y-54016699D02*
X154329248Y-53971872D01*
X142766666Y-88799012D02*
X142766666Y-89800987D01*
X127495780Y-55341602D02*
X127450032Y-55323955D01*
X178268092Y-60626762D02*
X178305220Y-60658790D01*
X105542129Y-54914588D02*
X105517960Y-54871925D01*
X145785862Y-25804104D02*
X145796605Y-25756262D01*
X173459267Y-25292600D02*
X173494779Y-25258790D01*
X123170886Y-60458397D02*
X123216633Y-60476044D01*
X142507876Y-53728112D02*
X142539903Y-53765241D01*
X181998574Y-53626762D02*
X182037229Y-53596595D01*
X173970771Y-53419195D02*
X174019082Y-53410812D01*
X154525933Y-88092600D02*
X154561446Y-88058790D01*
X126852529Y-27195895D02*
X126844146Y-27147583D01*
X191156014Y-55231637D02*
X191114588Y-55257870D01*
X190890994Y-60443016D02*
X190937552Y-60458397D01*
X118983366Y-60476044D02*
X119029113Y-60458397D01*
X154309377Y-61016699D02*
X154329248Y-60971872D01*
X123832129Y-61450018D02*
X123828522Y-61498919D01*
X123803394Y-61156262D02*
X123814137Y-61204104D01*
X154525933Y-27707399D02*
X154492123Y-27671887D01*
X151036737Y-61996103D02*
X151006570Y-62034758D01*
X173196605Y-54643737D02*
X173185862Y-54595895D01*
X114962770Y-60596595D02*
X115001425Y-60626762D01*
X154329248Y-88371872D02*
X154351294Y-88328074D01*
X173970771Y-27980804D02*
X173922929Y-27970060D01*
X173177479Y-25852416D02*
X173185862Y-25804104D01*
X191196103Y-55203404D02*
X191156014Y-55231637D01*
X108412272Y-87800000D02*
X114367654Y-87800000D01*
X145825064Y-61737552D02*
X145809683Y-61690994D01*
X170024537Y-60885411D02*
X170048705Y-60928074D01*
X169907876Y-88128112D02*
X169939903Y-88165241D01*
X118508796Y-54914588D02*
X118484627Y-54871925D01*
X170165463Y-61349981D02*
X170166666Y-61399012D01*
X173196605Y-54156262D02*
X173209683Y-54109005D01*
X169939903Y-53765241D02*
X169970070Y-53803896D01*
X182037229Y-87996595D02*
X182077318Y-87968362D01*
X118396605Y-54643737D02*
X118385862Y-54595895D01*
X118659267Y-25292600D02*
X118694779Y-25258790D01*
X115365463Y-61349981D02*
X115366666Y-61399012D01*
X135801245Y-53399729D02*
X135812247Y-53399999D01*
X115323649Y-61109005D02*
X115336727Y-61156262D01*
X145963262Y-27596103D02*
X145935028Y-27556014D01*
X174116648Y-25001203D02*
X174165678Y-25000000D01*
X181801695Y-88243985D02*
X181829929Y-88203896D01*
X181892123Y-25328112D02*
X181925933Y-25292600D01*
X178515372Y-61871925D02*
X178491203Y-61914588D01*
X123606570Y-27634758D02*
X123574543Y-27671887D01*
X150283351Y-25001203D02*
X150332252Y-25004810D01*
X105443016Y-61109005D02*
X105458397Y-61062447D01*
X182437438Y-27980804D02*
X182389596Y-27970060D01*
X135800270Y-28001245D02*
X135800000Y-28012247D01*
X155134414Y-27995189D02*
X155085749Y-27989187D01*
X127405205Y-53495914D02*
X127450032Y-53476044D01*
X127277318Y-87968362D02*
X127318744Y-87942129D01*
X145842711Y-61783300D02*
X145825064Y-61737552D01*
X173694741Y-25117960D02*
X173738539Y-25095914D01*
X122932252Y-25004810D02*
X122980917Y-25010812D01*
X182389596Y-25029939D02*
X182437438Y-25019195D01*
X173209683Y-61109005D02*
X173225064Y-61062447D01*
X126834536Y-61450018D02*
X126833333Y-61400987D01*
X191431637Y-90356014D02*
X191403404Y-90396103D01*
X126852529Y-25804104D02*
X126863272Y-25756262D01*
X178628522Y-61301080D02*
X178632129Y-61349981D01*
X182534414Y-25004810D02*
X182583314Y-25001203D01*
X118409683Y-90090994D02*
X118396605Y-90043737D01*
X173970771Y-90780804D02*
X173922929Y-90770060D01*
X178603394Y-54643737D02*
X178590316Y-54690994D01*
X114657660Y-53443016D02*
X114704219Y-53458397D01*
X119170771Y-87819195D02*
X119219082Y-87810812D01*
X115290622Y-54783300D02*
X115270751Y-54828127D01*
X118938539Y-62304085D02*
X118894741Y-62282039D01*
X127001695Y-25443985D02*
X127029929Y-25403896D01*
X150789347Y-62231637D02*
X150747921Y-62257870D01*
X173242711Y-54783300D02*
X173225064Y-54737552D01*
X146619082Y-87810812D02*
X146667747Y-87804810D01*
X188587752Y-87799999D02*
X188598754Y-87799729D01*
X173829113Y-55341602D02*
X173783366Y-55323955D01*
X191580804Y-89995895D02*
X191570060Y-90043737D01*
X123828522Y-88701080D02*
X123832129Y-88749981D01*
X122883351Y-25001203D02*
X122932252Y-25004810D01*
X118625456Y-88128112D02*
X118659267Y-88092600D01*
X115170070Y-61996103D02*
X115139903Y-62034758D01*
X151233333Y-88799012D02*
X151233333Y-89800987D01*
X173459267Y-55107399D02*
X173425456Y-55071887D01*
X115001425Y-62173237D02*
X114962770Y-62203404D01*
X146338539Y-87895914D02*
X146383366Y-87876044D01*
X108400000Y-53387752D02*
X108400270Y-53398754D01*
X118659267Y-55107399D02*
X118625456Y-55071887D01*
X173922929Y-27970060D02*
X173875672Y-27956983D01*
X181892123Y-62071887D02*
X181860096Y-62034758D01*
X127161446Y-60658790D02*
X127198574Y-60626762D01*
X115365463Y-88749981D02*
X115366666Y-88799012D01*
X146210652Y-27831637D02*
X146170563Y-27803404D01*
X122932252Y-55395189D02*
X122883351Y-55398796D01*
X123574543Y-90471887D02*
X123540732Y-90507399D01*
X163212247Y-28000000D02*
X163201245Y-28000270D01*
X145884627Y-25528074D02*
X145908796Y-25485411D01*
X151214137Y-27195895D02*
X151203394Y-27243737D01*
X150789347Y-55231637D02*
X150747921Y-55257870D01*
X118563262Y-90396103D02*
X118535028Y-90356014D01*
X169874066Y-88092600D02*
X169907876Y-88128112D01*
X145908796Y-88285411D02*
X145935028Y-88243985D01*
X169638591Y-62282039D02*
X169594794Y-62304085D01*
X181691731Y-61062447D02*
X181709377Y-61016699D01*
X151190316Y-54109005D02*
X151203394Y-54156262D01*
X118593429Y-60765241D02*
X118625456Y-60728112D01*
X142401425Y-55173237D02*
X142362770Y-55203404D01*
X178406570Y-90434758D02*
X178374543Y-90471887D01*
X106016699Y-55323955D02*
X105971872Y-55304085D01*
X123305258Y-87917960D02*
X123347921Y-87942129D01*
X169410403Y-53429939D02*
X169457660Y-53443016D01*
X178147921Y-25142129D02*
X178189347Y-25168362D01*
X178557288Y-61783300D02*
X178537418Y-61828127D01*
X119170771Y-53419195D02*
X119219082Y-53410812D01*
X154525933Y-53692600D02*
X154561446Y-53658790D01*
X123822520Y-89947583D02*
X123814137Y-89995895D01*
X123833333Y-61399012D02*
X123833333Y-61400987D01*
X182205205Y-53495914D02*
X182250032Y-53476044D01*
X191595189Y-61301080D02*
X191598796Y-61349981D01*
X142736727Y-54643737D02*
X142723649Y-54690994D01*
X146522929Y-62370060D02*
X146475672Y-62356983D01*
X151203394Y-54643737D02*
X151190316Y-54690994D01*
X105404810Y-89898919D02*
X105401203Y-89850018D01*
X145767870Y-54450018D02*
X145766666Y-54400987D01*
X178305220Y-60658790D02*
X178340732Y-60692600D01*
X173459267Y-90507399D02*
X173425456Y-90471887D01*
X123822520Y-88652416D02*
X123828522Y-88701080D01*
X114838591Y-60517960D02*
X114881255Y-60542129D01*
X150332252Y-60404810D02*
X150380917Y-60410812D01*
X108400000Y-62412272D02*
X108400000Y-87787727D01*
X191595189Y-89898919D02*
X191589187Y-89947583D01*
X170123649Y-54690994D02*
X170108268Y-54737552D01*
X123029228Y-55380804D02*
X122980917Y-55389187D01*
X169998304Y-25443985D02*
X170024537Y-25485411D01*
X182161408Y-53517960D02*
X182205205Y-53495914D01*
X173494779Y-55141209D02*
X173459267Y-55107399D01*
X181998574Y-55173237D02*
X181961446Y-55141209D01*
X191403404Y-90396103D02*
X191373237Y-90434758D01*
X133799999Y-62412247D02*
X133799729Y-62401245D01*
X126834536Y-89850018D02*
X126833333Y-89800987D01*
X150829436Y-55203404D02*
X150789347Y-55231637D01*
X151190316Y-27290994D02*
X151174935Y-27337552D01*
X181663272Y-61156262D02*
X181676350Y-61109005D01*
X182250032Y-53476044D02*
X182295780Y-53458397D01*
X127318744Y-25142129D02*
X127361408Y-25117960D01*
X181638144Y-27098919D02*
X181634536Y-27050018D01*
X173875672Y-87843016D02*
X173922929Y-87829939D01*
X118425064Y-27337552D02*
X118409683Y-27290994D01*
X142598304Y-60843985D02*
X142624537Y-60885411D01*
X114514250Y-55389187D02*
X114465585Y-55395189D01*
X154561446Y-27741209D02*
X154525933Y-27707399D01*
X126852529Y-54204104D02*
X126863272Y-54156262D01*
X105596595Y-25403896D02*
X105626762Y-25365241D01*
X127589596Y-55370060D02*
X127542339Y-55356983D01*
X115365463Y-25949981D02*
X115366666Y-25999012D01*
X173694741Y-55282039D02*
X173652078Y-55257870D01*
X150332252Y-62395189D02*
X150283351Y-62398796D01*
X151157288Y-54783300D02*
X151137418Y-54828127D01*
X105458397Y-25662447D02*
X105476044Y-25616699D01*
X118938539Y-55304085D02*
X118894741Y-55282039D01*
X115038553Y-88058790D02*
X115074066Y-88092600D01*
X115347470Y-61204104D02*
X115355853Y-61252416D01*
X118563262Y-88203896D02*
X118593429Y-88165241D01*
X169838553Y-62141209D02*
X169801425Y-62173237D01*
X114562561Y-60419195D02*
X114610403Y-60429939D01*
X142010403Y-55370060D02*
X141962561Y-55380804D01*
X150868092Y-27773237D02*
X150829436Y-27803404D01*
X170166666Y-89800987D02*
X170165463Y-89850018D01*
X191600000Y-89800987D02*
X191598796Y-89850018D01*
X106062447Y-55341602D02*
X106016699Y-55323955D01*
X118563262Y-60803896D02*
X118593429Y-60765241D01*
X177634321Y-90800000D02*
X174165678Y-90800000D01*
X145809683Y-25709005D02*
X145825064Y-25662447D01*
X123574543Y-60728112D02*
X123606570Y-60765241D01*
X135812272Y-87800000D02*
X141767654Y-87800000D01*
X173829113Y-62341602D02*
X173783366Y-62323955D01*
X169907876Y-53728112D02*
X169939903Y-53765241D01*
X174019082Y-25010812D02*
X174067747Y-25004810D01*
X154276350Y-25709005D02*
X154291731Y-25662447D01*
X178590316Y-61109005D02*
X178603394Y-61156262D01*
X191373237Y-90434758D02*
X191341209Y-90471887D01*
X173783366Y-25076044D02*
X173829113Y-25058397D01*
X155183314Y-87801203D02*
X155232345Y-87800000D01*
X154561446Y-60658790D02*
X154598574Y-60626762D01*
X173185862Y-25804104D02*
X173196605Y-25756262D01*
X177732252Y-87804810D02*
X177780917Y-87810812D01*
X181751294Y-90271925D02*
X181729248Y-90228127D01*
X154492123Y-53728112D02*
X154525933Y-53692600D01*
X142104219Y-25058397D02*
X142149967Y-25076044D01*
X173225064Y-25662447D02*
X173242711Y-25616699D01*
X145993429Y-55034758D02*
X145963262Y-54996103D01*
X178574935Y-61737552D02*
X178557288Y-61783300D01*
X151232129Y-61450018D02*
X151228522Y-61498919D01*
X182118744Y-62257870D02*
X182077318Y-62231637D01*
X118593429Y-53765241D02*
X118625456Y-53728112D01*
X178406570Y-88165241D02*
X178436737Y-88203896D01*
X115308268Y-54062447D02*
X115323649Y-54109005D01*
X169998304Y-27556014D02*
X169970070Y-27596103D01*
X118770563Y-90603404D02*
X118731907Y-90573237D01*
X169907876Y-60728112D02*
X169939903Y-60765241D01*
X100412247Y-20000000D02*
X100401245Y-20000270D01*
X150283351Y-62398796D02*
X150234321Y-62400000D01*
X169762770Y-60596595D02*
X169801425Y-60626762D01*
X191457870Y-60885411D02*
X191482039Y-60928074D01*
X181801695Y-54956014D02*
X181775462Y-54914588D01*
X150905220Y-27741209D02*
X150868092Y-27773237D01*
X170161855Y-25901080D02*
X170165463Y-25949981D01*
X151232129Y-27050018D02*
X151228522Y-27098919D01*
X105495914Y-90228127D02*
X105476044Y-90183300D01*
X178016633Y-55323955D02*
X177970886Y-55341602D01*
X142766666Y-61399012D02*
X142766666Y-61400987D01*
X145777479Y-27147583D02*
X145771477Y-27098919D01*
X123828522Y-27098919D02*
X123822520Y-27147583D01*
X151091203Y-27514588D02*
X151064971Y-27556014D01*
X169638591Y-60517960D02*
X169681255Y-60542129D01*
X169681255Y-25142129D02*
X169722681Y-25168362D01*
X190795895Y-60419195D02*
X190843737Y-60429939D01*
X182118744Y-25142129D02*
X182161408Y-25117960D01*
X142539903Y-90434758D02*
X142507876Y-90471887D01*
X154805205Y-90704085D02*
X154761408Y-90682039D01*
X119170771Y-60419195D02*
X119219082Y-60410812D01*
X114416685Y-53401203D02*
X114465585Y-53404810D01*
X154309377Y-61783300D02*
X154291731Y-61737552D01*
X169874066Y-27707399D02*
X169838553Y-27741209D01*
X154276350Y-88509005D02*
X154291731Y-88462447D01*
X182295780Y-27941602D02*
X182250032Y-27923955D01*
X191580804Y-25804104D02*
X191589187Y-25852416D01*
X170123649Y-88509005D02*
X170136727Y-88556262D01*
X188598754Y-28000270D02*
X188587752Y-28000000D01*
X141767654Y-62400000D02*
X135812272Y-62400000D01*
X114749967Y-60476044D02*
X114794794Y-60495914D01*
X115308268Y-54737552D02*
X115290622Y-54783300D01*
X191589187Y-89947583D02*
X191580804Y-89995895D01*
X123429436Y-87996595D02*
X123468092Y-88026762D01*
X151091203Y-61914588D02*
X151064971Y-61956014D01*
X114514250Y-53410812D02*
X114562561Y-53419195D01*
X150940732Y-88092600D02*
X150974543Y-88128112D01*
X115355853Y-61252416D02*
X115361855Y-61301080D01*
X119122929Y-25029939D02*
X119170771Y-25019195D01*
X174067747Y-60404810D02*
X174116648Y-60401203D01*
X115224537Y-54914588D02*
X115198304Y-54956014D01*
X114962770Y-62203404D02*
X114922681Y-62231637D01*
X123803394Y-61643737D02*
X123790316Y-61690994D01*
X170123649Y-61109005D02*
X170136727Y-61156262D01*
X154718744Y-60542129D02*
X154761408Y-60517960D01*
X100400270Y-20001245D02*
X100400000Y-20012247D01*
X115290622Y-54016699D02*
X115308268Y-54062447D01*
X119219082Y-53410812D02*
X119267747Y-53404810D01*
X127832345Y-55400000D02*
X127783314Y-55398796D01*
X119219082Y-60410812D02*
X119267747Y-60404810D01*
X182342339Y-53443016D02*
X182389596Y-53429939D01*
X177683351Y-25001203D02*
X177732252Y-25004810D01*
X177780917Y-87810812D02*
X177829228Y-87819195D01*
X169549967Y-87876044D02*
X169594794Y-87895914D01*
X181801695Y-90356014D02*
X181775462Y-90314588D01*
X123170886Y-87858397D02*
X123216633Y-87876044D01*
X177634321Y-60400000D02*
X177683351Y-60401203D01*
X126951294Y-60928074D02*
X126975462Y-60885411D01*
X150974543Y-25328112D02*
X151006570Y-25365241D01*
X154375462Y-54914588D02*
X154351294Y-54871925D01*
X142723649Y-61690994D02*
X142708268Y-61737552D01*
X177732252Y-55395189D02*
X177683351Y-55398796D01*
X119029113Y-27941602D02*
X118983366Y-27923955D01*
X173738539Y-53495914D02*
X173783366Y-53476044D01*
X114657660Y-25043016D02*
X114704219Y-25058397D01*
X115308268Y-61737552D02*
X115290622Y-61783300D01*
X177780917Y-90789187D02*
X177732252Y-90795189D01*
X154761408Y-87917960D02*
X154805205Y-87895914D01*
X118508796Y-27514588D02*
X118484627Y-27471925D01*
X169907876Y-25328112D02*
X169939903Y-25365241D01*
X115170070Y-88203896D02*
X115198304Y-88243985D01*
X118367870Y-61349981D02*
X118371477Y-61301080D01*
X150570886Y-27941602D02*
X150524327Y-27956983D01*
X145771477Y-25901080D02*
X145777479Y-25852416D01*
X146383366Y-60476044D02*
X146429113Y-60458397D01*
X118625456Y-55071887D02*
X118593429Y-55034758D01*
X173363262Y-60803896D02*
X173393429Y-60765241D01*
X118462581Y-90228127D02*
X118442711Y-90183300D01*
X123170886Y-55341602D02*
X123124327Y-55356983D01*
X150940732Y-60692600D02*
X150974543Y-60728112D01*
X178537418Y-53971872D02*
X178557288Y-54016699D01*
X142648705Y-54871925D02*
X142624537Y-54914588D01*
X123833333Y-88799012D02*
X123833333Y-89800987D01*
X177780917Y-27989187D02*
X177732252Y-27995189D01*
X146059267Y-60692600D02*
X146094779Y-60658790D01*
X154492123Y-27671887D02*
X154460096Y-27634758D01*
X154761408Y-90682039D02*
X154718744Y-90657870D01*
X127277318Y-25168362D02*
X127318744Y-25142129D01*
X105568362Y-60843985D02*
X105596595Y-60803896D01*
X118810652Y-27831637D02*
X118770563Y-27803404D01*
X181729248Y-61828127D02*
X181709377Y-61783300D01*
X127685749Y-62389187D02*
X127637438Y-62380804D01*
X118409683Y-61690994D02*
X118396605Y-61643737D01*
X170166666Y-25999012D02*
X170166666Y-27000987D01*
X141767654Y-90800000D02*
X127832345Y-90800000D01*
X150380917Y-60410812D02*
X150429228Y-60419195D01*
X115198304Y-25443985D02*
X115224537Y-25485411D01*
X114704219Y-55341602D02*
X114657660Y-55356983D01*
X173166666Y-54400987D02*
X173166666Y-54399012D01*
X178464971Y-25443985D02*
X178491203Y-25485411D01*
X154525933Y-90507399D02*
X154492123Y-90471887D01*
X146338539Y-25095914D02*
X146383366Y-25076044D01*
X142624537Y-61914588D02*
X142598304Y-61956014D01*
X170161855Y-27098919D02*
X170155853Y-27147583D01*
X114416685Y-62398796D02*
X114367654Y-62400000D01*
X122883351Y-62398796D02*
X122834321Y-62400000D01*
X127450032Y-62323955D02*
X127405205Y-62304085D01*
X142539903Y-62034758D02*
X142507876Y-62071887D01*
X150661460Y-90704085D02*
X150616633Y-90723955D01*
X181801695Y-25443985D02*
X181829929Y-25403896D01*
X154718744Y-25142129D02*
X154761408Y-25117960D01*
X182632345Y-28000000D02*
X182583314Y-27998796D01*
X173167870Y-25949981D02*
X173171477Y-25901080D01*
X146131907Y-27773237D02*
X146094779Y-27741209D01*
X154244146Y-88652416D02*
X154252529Y-88604104D01*
X182037229Y-55203404D02*
X181998574Y-55173237D01*
X106016699Y-25076044D02*
X106062447Y-25058397D01*
X191271887Y-25258790D02*
X191307399Y-25292600D01*
X145809683Y-90090994D02*
X145796605Y-90043737D01*
X118852078Y-27857870D02*
X118810652Y-27831637D01*
X150940732Y-55107399D02*
X150905220Y-55141209D01*
X178515372Y-25528074D02*
X178537418Y-25571872D01*
X151064971Y-54956014D02*
X151036737Y-54996103D01*
X106301080Y-55395189D02*
X106252416Y-55389187D01*
X123029228Y-27980804D02*
X122980917Y-27989187D01*
X178305220Y-27741209D02*
X178268092Y-27773237D01*
X127405205Y-25095914D02*
X127450032Y-25076044D01*
X169457660Y-55356983D02*
X169410403Y-55370060D01*
X127092123Y-62071887D02*
X127060096Y-62034758D01*
X196599729Y-95798754D02*
X196599999Y-95787752D01*
X105542129Y-25485411D02*
X105568362Y-25443985D01*
X146294741Y-62282039D02*
X146252078Y-62257870D01*
X173242711Y-54016699D02*
X173262581Y-53971872D01*
X154351294Y-53928074D02*
X154375462Y-53885411D01*
X173459267Y-53692600D02*
X173494779Y-53658790D01*
X173393429Y-25365241D02*
X173425456Y-25328112D01*
X106399012Y-60400000D02*
X114367654Y-60400000D01*
X126929248Y-61828127D02*
X126909377Y-61783300D01*
X119170771Y-55380804D02*
X119122929Y-55370060D01*
X115355853Y-61547583D02*
X115347470Y-61595895D01*
X115336727Y-54643737D02*
X115323649Y-54690994D01*
X150234321Y-28000000D02*
X146765678Y-28000000D01*
X170136727Y-61643737D02*
X170123649Y-61690994D01*
X154561446Y-55141209D02*
X154525933Y-55107399D01*
X150234321Y-53400000D02*
X150283351Y-53401203D01*
X182250032Y-62323955D02*
X182205205Y-62304085D01*
X105476044Y-25616699D02*
X105495914Y-25571872D01*
X142624537Y-27514588D02*
X142598304Y-27556014D01*
X114962770Y-90603404D02*
X114922681Y-90631637D01*
X177829228Y-60419195D02*
X177877070Y-60429939D01*
X122883351Y-87801203D02*
X122932252Y-87804810D01*
X151190316Y-54690994D02*
X151174935Y-54737552D01*
X146025456Y-60728112D02*
X146059267Y-60692600D01*
X133787727Y-28000000D02*
X127832345Y-28000000D01*
X141865585Y-62395189D02*
X141816685Y-62398796D01*
X173177479Y-54547583D02*
X173171477Y-54498919D01*
X178557288Y-90183300D02*
X178537418Y-90228127D01*
X150524327Y-62356983D02*
X150477070Y-62370060D01*
X178189347Y-87968362D02*
X178229436Y-87996595D01*
X145963262Y-61996103D02*
X145935028Y-61956014D01*
X142761855Y-89898919D02*
X142755853Y-89947583D01*
X146667747Y-53404810D02*
X146716648Y-53401203D01*
X150429228Y-27980804D02*
X150380917Y-27989187D01*
X150868092Y-60626762D02*
X150905220Y-60658790D01*
X154401695Y-54956014D02*
X154375462Y-54914588D01*
X173570563Y-53596595D02*
X173610652Y-53568362D01*
X173652078Y-87942129D02*
X173694741Y-87917960D01*
X118377479Y-61547583D02*
X118371477Y-61498919D01*
X146025456Y-90471887D02*
X145993429Y-90434758D01*
X181801695Y-61956014D02*
X181775462Y-61914588D01*
X146570771Y-55380804D02*
X146522929Y-55370060D01*
X181644146Y-54252416D02*
X181652529Y-54204104D01*
X181634536Y-54450018D02*
X181633333Y-54400987D01*
X170048705Y-25528074D02*
X170070751Y-25571872D01*
X178374543Y-90471887D02*
X178340732Y-90507399D01*
X170024537Y-90314588D02*
X169998304Y-90356014D01*
X123691203Y-27514588D02*
X123664971Y-27556014D01*
X173363262Y-27596103D02*
X173335028Y-27556014D01*
X127783314Y-87801203D02*
X127832345Y-87800000D01*
X114562561Y-87819195D02*
X114610403Y-87829939D01*
X123828522Y-54498919D02*
X123822520Y-54547583D01*
X127198574Y-53626762D02*
X127237229Y-53596595D01*
X150616633Y-62323955D02*
X150570886Y-62341602D01*
X145796605Y-27243737D02*
X145785862Y-27195895D01*
X145963262Y-90396103D02*
X145935028Y-90356014D01*
X127450032Y-60476044D02*
X127495780Y-60458397D01*
X170090622Y-54783300D02*
X170070751Y-54828127D01*
X182205205Y-90704085D02*
X182161408Y-90682039D01*
X146383366Y-53476044D02*
X146429113Y-53458397D01*
X142057660Y-25043016D02*
X142104219Y-25058397D01*
X151157288Y-90183300D02*
X151137418Y-90228127D01*
X182118744Y-53542129D02*
X182161408Y-53517960D01*
X169801425Y-62173237D02*
X169762770Y-62203404D01*
X170165463Y-89850018D02*
X170161855Y-89898919D01*
X114704219Y-62341602D02*
X114657660Y-62356983D01*
X142670751Y-54828127D02*
X142648705Y-54871925D01*
X115365463Y-27050018D02*
X115361855Y-27098919D01*
X122883351Y-90798796D02*
X122834321Y-90800000D01*
X154718744Y-90657870D02*
X154677318Y-90631637D01*
X123814137Y-54595895D02*
X123803394Y-54643737D01*
X146475672Y-53443016D02*
X146522929Y-53429939D01*
X181633333Y-54400987D02*
X181633333Y-54399012D01*
X118770563Y-27803404D02*
X118731907Y-27773237D01*
X178189347Y-62231637D02*
X178147921Y-62257870D01*
X151228522Y-54498919D02*
X151222520Y-54547583D01*
X150661460Y-53495914D02*
X150705258Y-53517960D01*
X118938539Y-25095914D02*
X118983366Y-25076044D01*
X115248705Y-61871925D02*
X115224537Y-61914588D01*
X169939903Y-55034758D02*
X169907876Y-55071887D01*
X178603394Y-25756262D02*
X178614137Y-25804104D01*
X126833333Y-61400987D02*
X126833333Y-61399012D01*
X123261460Y-55304085D02*
X123216633Y-55323955D01*
X118367870Y-89850018D02*
X118366666Y-89800987D01*
X182485749Y-60410812D02*
X182534414Y-60404810D01*
X146383366Y-27923955D02*
X146338539Y-27904085D01*
X118810652Y-60568362D02*
X118852078Y-60542129D01*
X142736727Y-27243737D02*
X142723649Y-27290994D01*
X118442711Y-54783300D02*
X118425064Y-54737552D01*
X154637229Y-90603404D02*
X154598574Y-90573237D01*
X118425064Y-54737552D02*
X118409683Y-54690994D01*
X181676350Y-27290994D02*
X181663272Y-27243737D01*
X169801425Y-25226762D02*
X169838553Y-25258790D01*
X146338539Y-90704085D02*
X146294741Y-90682039D01*
X114922681Y-55231637D02*
X114881255Y-55257870D01*
X119365678Y-55400000D02*
X119316648Y-55398796D01*
X127060096Y-62034758D02*
X127029929Y-61996103D01*
X169216685Y-87801203D02*
X169265585Y-87804810D01*
X123803394Y-25756262D02*
X123814137Y-25804104D01*
X106109005Y-25043016D02*
X106156262Y-25029939D01*
X106109005Y-90756983D02*
X106062447Y-90741602D01*
X145767870Y-54349981D02*
X145771477Y-54301080D01*
X169265585Y-87804810D02*
X169314250Y-87810812D01*
X163200270Y-62401245D02*
X163200000Y-62412247D01*
X127734414Y-25004810D02*
X127783314Y-25001203D01*
X191431637Y-60843985D02*
X191457870Y-60885411D01*
X115139903Y-62034758D02*
X115107876Y-62071887D01*
X150477070Y-60429939D02*
X150524327Y-60443016D01*
X142238591Y-62282039D02*
X142194794Y-62304085D01*
X181676350Y-88509005D02*
X181691731Y-88462447D01*
X178061460Y-60495914D02*
X178105258Y-60517960D01*
X169457660Y-25043016D02*
X169504219Y-25058397D01*
X169504219Y-55341602D02*
X169457660Y-55356983D01*
X181961446Y-55141209D02*
X181925933Y-55107399D01*
X173225064Y-90137552D02*
X173209683Y-90090994D01*
X182437438Y-90780804D02*
X182389596Y-90770060D01*
X178622520Y-61252416D02*
X178628522Y-61301080D01*
X142761855Y-54301080D02*
X142765463Y-54349981D01*
X114562561Y-27980804D02*
X114514250Y-27989187D01*
X118508796Y-25485411D02*
X118535028Y-25443985D01*
X190747583Y-60410812D02*
X190795895Y-60419195D01*
X127685749Y-60410812D02*
X127734414Y-60404810D01*
X127060096Y-25365241D02*
X127092123Y-25328112D01*
X154460096Y-88165241D02*
X154492123Y-88128112D01*
X123606570Y-55034758D02*
X123574543Y-55071887D01*
X142238591Y-87917960D02*
X142281255Y-87942129D01*
X182485749Y-27989187D02*
X182437438Y-27980804D01*
X145935028Y-27556014D02*
X145908796Y-27514588D01*
X141816685Y-53401203D02*
X141865585Y-53404810D01*
X178061460Y-87895914D02*
X178105258Y-87917960D01*
X178491203Y-60885411D02*
X178515372Y-60928074D01*
X170155853Y-89947583D02*
X170147470Y-89995895D01*
X115107876Y-60728112D02*
X115139903Y-60765241D01*
X115361855Y-89898919D02*
X115355853Y-89947583D01*
X123833333Y-27000987D02*
X123832129Y-27050018D01*
X126844146Y-88652416D02*
X126852529Y-88604104D01*
X133799999Y-28012247D02*
X133799729Y-28001245D01*
X126863272Y-54643737D02*
X126852529Y-54595895D01*
X154492123Y-62071887D02*
X154460096Y-62034758D01*
X154233333Y-27000987D02*
X154233333Y-25999012D01*
X178622520Y-54547583D02*
X178614137Y-54595895D01*
X123347921Y-25142129D02*
X123389347Y-25168362D01*
X145963262Y-53803896D02*
X145993429Y-53765241D01*
X115361855Y-61301080D02*
X115365463Y-61349981D01*
X181676350Y-61690994D02*
X181663272Y-61643737D01*
X127637438Y-62380804D02*
X127589596Y-62370060D01*
X119170771Y-62380804D02*
X119122929Y-62370060D01*
X145825064Y-27337552D02*
X145809683Y-27290994D01*
X145842711Y-25616699D02*
X145862581Y-25571872D01*
X115355853Y-54252416D02*
X115361855Y-54301080D01*
X119219082Y-27989187D02*
X119170771Y-27980804D01*
X169362561Y-55380804D02*
X169314250Y-55389187D01*
X154351294Y-25528074D02*
X154375462Y-25485411D01*
X123389347Y-53568362D02*
X123429436Y-53596595D01*
X151137418Y-61828127D02*
X151115372Y-61871925D01*
X182118744Y-60542129D02*
X182161408Y-60517960D01*
X151036737Y-60803896D02*
X151064971Y-60843985D01*
X114610403Y-25029939D02*
X114657660Y-25043016D01*
X170108268Y-88462447D02*
X170123649Y-88509005D01*
X145862581Y-90228127D02*
X145842711Y-90183300D01*
X151174935Y-61737552D02*
X151157288Y-61783300D01*
X178614137Y-89995895D02*
X178603394Y-90043737D01*
X169265585Y-60404810D02*
X169314250Y-60410812D01*
X146210652Y-53568362D02*
X146252078Y-53542129D01*
X181676350Y-54690994D02*
X181663272Y-54643737D01*
X123606570Y-88165241D02*
X123636737Y-88203896D01*
X142010403Y-87829939D02*
X142057660Y-87843016D01*
X146170563Y-53596595D02*
X146210652Y-53568362D01*
X178574935Y-61062447D02*
X178590316Y-61109005D01*
X146294741Y-25117960D02*
X146338539Y-25095914D01*
X173652078Y-62257870D02*
X173610652Y-62231637D01*
X127495780Y-87858397D02*
X127542339Y-87843016D01*
X114794794Y-25095914D02*
X114838591Y-25117960D01*
X126929248Y-27428127D02*
X126909377Y-27383300D01*
X114514250Y-27989187D02*
X114465585Y-27995189D01*
X118442711Y-25616699D02*
X118462581Y-25571872D01*
X154460096Y-25365241D02*
X154492123Y-25328112D01*
X173970771Y-60419195D02*
X174019082Y-60410812D01*
X105419195Y-61204104D02*
X105429939Y-61156262D01*
X151137418Y-90228127D02*
X151115372Y-90271925D01*
X178105258Y-55282039D02*
X178061460Y-55304085D01*
X151006570Y-53765241D02*
X151036737Y-53803896D01*
X173494779Y-60658790D02*
X173531907Y-60626762D01*
X178229436Y-25196595D02*
X178268092Y-25226762D01*
X178603394Y-54156262D02*
X178614137Y-54204104D01*
X126951294Y-61871925D02*
X126929248Y-61828127D01*
X169638591Y-90682039D02*
X169594794Y-90704085D01*
X118593429Y-25365241D02*
X118625456Y-25328112D01*
X181998574Y-60626762D02*
X182037229Y-60596595D01*
X188599999Y-62412247D02*
X188599729Y-62401245D01*
X142238591Y-27882039D02*
X142194794Y-27904085D01*
X173610652Y-53568362D02*
X173652078Y-53542129D01*
X142057660Y-87843016D02*
X142104219Y-87858397D01*
X182583314Y-27998796D02*
X182534414Y-27995189D01*
X181775462Y-61914588D02*
X181751294Y-61871925D01*
X173284627Y-61871925D02*
X173262581Y-61828127D01*
X182161408Y-55282039D02*
X182118744Y-55257870D01*
X151157288Y-25616699D02*
X151174935Y-25662447D01*
X177924327Y-55356983D02*
X177877070Y-55370060D01*
X190983300Y-25076044D02*
X191028127Y-25095914D01*
X146475672Y-25043016D02*
X146522929Y-25029939D01*
X123636737Y-54996103D02*
X123606570Y-55034758D01*
X118593429Y-90434758D02*
X118563262Y-90396103D01*
X182250032Y-25076044D02*
X182295780Y-25058397D01*
X177634321Y-28000000D02*
X174165678Y-28000000D01*
X146294741Y-87917960D02*
X146338539Y-87895914D01*
X118731907Y-25226762D02*
X118770563Y-25196595D01*
X127361408Y-60517960D02*
X127405205Y-60495914D01*
X155232345Y-87800000D02*
X161187727Y-87800000D01*
X126909377Y-54016699D02*
X126929248Y-53971872D01*
X191403404Y-25403896D02*
X191431637Y-25443985D01*
X177970886Y-27941602D02*
X177924327Y-27956983D01*
X151157288Y-61783300D02*
X151137418Y-61828127D01*
X169549967Y-55323955D02*
X169504219Y-55341602D01*
X142755853Y-88652416D02*
X142761855Y-88701080D01*
X178628522Y-61498919D02*
X178622520Y-61547583D01*
X150705258Y-62282039D02*
X150661460Y-62304085D01*
X170123649Y-61690994D02*
X170108268Y-61737552D01*
X169638591Y-53517960D02*
X169681255Y-53542129D01*
X142401425Y-62173237D02*
X142362770Y-62203404D01*
X173166666Y-25999012D02*
X173167870Y-25949981D01*
X118731907Y-88026762D02*
X118770563Y-87996595D01*
X118938539Y-60495914D02*
X118983366Y-60476044D01*
X127734414Y-90795189D02*
X127685749Y-90789187D01*
X177683351Y-90798796D02*
X177634321Y-90800000D01*
X154234536Y-61349981D02*
X154238144Y-61301080D01*
X146338539Y-53495914D02*
X146383366Y-53476044D01*
X173610652Y-25168362D02*
X173652078Y-25142129D01*
X181751294Y-53928074D02*
X181775462Y-53885411D01*
X178105258Y-53517960D02*
X178147921Y-53542129D01*
X114881255Y-87942129D02*
X114922681Y-87968362D01*
X177829228Y-90780804D02*
X177780917Y-90789187D01*
X173459267Y-27707399D02*
X173425456Y-27671887D01*
X118852078Y-60542129D02*
X118894741Y-60517960D01*
X173783366Y-27923955D02*
X173738539Y-27904085D01*
X161187727Y-62400000D02*
X155232345Y-62400000D01*
X178268092Y-62173237D02*
X178229436Y-62203404D01*
X127637438Y-55380804D02*
X127589596Y-55370060D01*
X142766666Y-54400987D02*
X142765463Y-54450018D01*
X123822520Y-25852416D02*
X123828522Y-25901080D01*
X105495914Y-60971872D02*
X105517960Y-60928074D01*
X118366666Y-25999012D02*
X118367870Y-25949981D01*
X146059267Y-25292600D02*
X146094779Y-25258790D01*
X105692600Y-55107399D02*
X105658790Y-55071887D01*
X151006570Y-62034758D02*
X150974543Y-62071887D01*
X142194794Y-53495914D02*
X142238591Y-53517960D01*
X118371477Y-25901080D02*
X118377479Y-25852416D01*
X178436737Y-90396103D02*
X178406570Y-90434758D01*
X127542339Y-55356983D02*
X127495780Y-55341602D01*
X181860096Y-60765241D02*
X181892123Y-60728112D01*
X190650018Y-25001203D02*
X190698919Y-25004810D01*
X191196103Y-90603404D02*
X191156014Y-90631637D01*
X145963262Y-54996103D02*
X145935028Y-54956014D01*
X178189347Y-60568362D02*
X178229436Y-60596595D01*
X127832345Y-28000000D02*
X127783314Y-27998796D01*
X169549967Y-25076044D02*
X169594794Y-25095914D01*
X123737418Y-25571872D02*
X123757288Y-25616699D01*
X142598304Y-54956014D02*
X142570070Y-54996103D01*
X154238144Y-27098919D02*
X154234536Y-27050018D01*
X154244146Y-54252416D02*
X154252529Y-54204104D01*
X174165678Y-25000000D02*
X177634321Y-25000000D01*
X118442711Y-61016699D02*
X118462581Y-60971872D01*
X123389347Y-90631637D02*
X123347921Y-90657870D01*
X127092123Y-25328112D02*
X127125933Y-25292600D01*
X105658790Y-25328112D02*
X105692600Y-25292600D01*
X145809683Y-61690994D02*
X145796605Y-61643737D01*
X127237229Y-87996595D02*
X127277318Y-87968362D01*
X173652078Y-25142129D02*
X173694741Y-25117960D01*
X150974543Y-62071887D02*
X150940732Y-62107399D01*
X173875672Y-55356983D02*
X173829113Y-55341602D01*
X115224537Y-90314588D02*
X115198304Y-90356014D01*
X126975462Y-53885411D02*
X127001695Y-53843985D01*
X178590316Y-61690994D02*
X178574935Y-61737552D01*
X118425064Y-54062447D02*
X118442711Y-54016699D01*
X188587727Y-28000000D02*
X182632345Y-28000000D01*
X182485749Y-87810812D02*
X182534414Y-87804810D01*
X178622520Y-27147583D02*
X178614137Y-27195895D01*
X119267747Y-25004810D02*
X119316648Y-25001203D01*
X118694779Y-88058790D02*
X118731907Y-88026762D01*
X151190316Y-90090994D02*
X151174935Y-90137552D01*
X169907876Y-62071887D02*
X169874066Y-62107399D01*
X182534414Y-87804810D02*
X182583314Y-87801203D01*
X151137418Y-88371872D02*
X151157288Y-88416699D01*
X142149967Y-60476044D02*
X142194794Y-60495914D01*
X190983300Y-60476044D02*
X191028127Y-60495914D01*
X142281255Y-62257870D02*
X142238591Y-62282039D01*
X151214137Y-54204104D02*
X151222520Y-54252416D01*
X191589187Y-54547583D02*
X191580804Y-54595895D01*
X178590316Y-27290994D02*
X178574935Y-27337552D01*
X126975462Y-25485411D02*
X127001695Y-25443985D01*
X115366666Y-25999012D02*
X115366666Y-27000987D01*
X114704219Y-60458397D02*
X114749967Y-60476044D01*
X155232345Y-25000000D02*
X169167654Y-25000000D01*
X173610652Y-60568362D02*
X173652078Y-60542129D01*
X142755853Y-89947583D02*
X142747470Y-89995895D01*
X145766666Y-89800987D02*
X145766666Y-88799012D01*
X181676350Y-90090994D02*
X181663272Y-90043737D01*
X182161408Y-25117960D02*
X182205205Y-25095914D01*
X123077070Y-62370060D02*
X123029228Y-62380804D01*
X127161446Y-53658790D02*
X127198574Y-53626762D01*
X182485749Y-62389187D02*
X182437438Y-62380804D01*
X170108268Y-90137552D02*
X170090622Y-90183300D01*
X173783366Y-90723955D02*
X173738539Y-90704085D01*
X115270751Y-60971872D02*
X115290622Y-61016699D01*
X127637438Y-27980804D02*
X127589596Y-27970060D01*
X151233333Y-89800987D02*
X151232129Y-89850018D01*
X178633333Y-54399012D02*
X178633333Y-54400987D01*
X146131907Y-62173237D02*
X146094779Y-62141209D01*
X181961446Y-27741209D02*
X181925933Y-27707399D01*
X123124327Y-27956983D02*
X123077070Y-27970060D01*
X154263272Y-25756262D02*
X154276350Y-25709005D01*
X150477070Y-90770060D02*
X150429228Y-90780804D01*
X173363262Y-90396103D02*
X173335028Y-90356014D01*
X142708268Y-88462447D02*
X142723649Y-88509005D01*
X123833333Y-89800987D02*
X123832129Y-89850018D01*
X191580804Y-61204104D02*
X191589187Y-61252416D01*
X123389347Y-27831637D02*
X123347921Y-27857870D01*
X114514250Y-25010812D02*
X114562561Y-25019195D01*
X181638144Y-88701080D02*
X181644146Y-88652416D01*
X173363262Y-88203896D02*
X173393429Y-88165241D01*
X191598796Y-89850018D02*
X191595189Y-89898919D01*
X173308796Y-54914588D02*
X173284627Y-54871925D01*
X169167654Y-60400000D02*
X169216685Y-60401203D01*
X105517960Y-90271925D02*
X105495914Y-90228127D01*
X126876350Y-54109005D02*
X126891731Y-54062447D01*
X115074066Y-60692600D02*
X115107876Y-60728112D01*
X123691203Y-90314588D02*
X123664971Y-90356014D01*
X123833333Y-54400987D02*
X123832129Y-54450018D01*
X181961446Y-53658790D02*
X181998574Y-53626762D01*
X178374543Y-53728112D02*
X178406570Y-53765241D01*
X173177479Y-61547583D02*
X173171477Y-61498919D01*
X142761855Y-88701080D02*
X142765463Y-88749981D01*
X173783366Y-62323955D02*
X173738539Y-62304085D01*
X105410812Y-54547583D02*
X105404810Y-54498919D01*
X181709377Y-88416699D02*
X181729248Y-88371872D01*
X178268092Y-88026762D02*
X178305220Y-88058790D01*
X173177479Y-27147583D02*
X173171477Y-27098919D01*
X173363262Y-25403896D02*
X173393429Y-25365241D01*
X118484627Y-25528074D02*
X118508796Y-25485411D01*
X118396605Y-54156262D02*
X118409683Y-54109005D01*
X151222520Y-88652416D02*
X151228522Y-88701080D01*
X127092123Y-53728112D02*
X127125933Y-53692600D01*
X169265585Y-27995189D02*
X169216685Y-27998796D01*
X170024537Y-88285411D02*
X170048705Y-88328074D01*
X182077318Y-25168362D02*
X182118744Y-25142129D01*
X126863272Y-90043737D02*
X126852529Y-89995895D01*
X123216633Y-62323955D02*
X123170886Y-62341602D01*
X123347921Y-60542129D02*
X123389347Y-60568362D01*
X178633333Y-89800987D02*
X178632129Y-89850018D01*
X105885411Y-60542129D02*
X105928074Y-60517960D01*
X177683351Y-53401203D02*
X177732252Y-53404810D01*
X182485749Y-55389187D02*
X182437438Y-55380804D01*
X114704219Y-87858397D02*
X114749967Y-87876044D01*
X169801425Y-53626762D02*
X169838553Y-53658790D01*
X150570886Y-55341602D02*
X150524327Y-55356983D01*
X173459267Y-62107399D02*
X173425456Y-62071887D01*
X115290622Y-61016699D02*
X115308268Y-61062447D01*
X115139903Y-25365241D02*
X115170070Y-25403896D01*
X181644146Y-61252416D02*
X181652529Y-61204104D01*
X151203394Y-61643737D02*
X151190316Y-61690994D01*
X133787752Y-87799999D02*
X133798754Y-87799729D01*
X118385862Y-54204104D02*
X118396605Y-54156262D01*
X114465585Y-55395189D02*
X114416685Y-55398796D01*
X154805205Y-62304085D02*
X154761408Y-62282039D01*
X178537418Y-27428127D02*
X178515372Y-27471925D01*
X118396605Y-25756262D02*
X118409683Y-25709005D01*
X142194794Y-62304085D02*
X142149967Y-62323955D01*
X114367654Y-90800000D02*
X106399012Y-90800000D01*
X123606570Y-90434758D02*
X123574543Y-90471887D01*
X178574935Y-88462447D02*
X178590316Y-88509005D01*
X150789347Y-60568362D02*
X150829436Y-60596595D01*
X145771477Y-27098919D02*
X145767870Y-27050018D01*
X126863272Y-61643737D02*
X126852529Y-61595895D01*
X105476044Y-61016699D02*
X105495914Y-60971872D01*
X123737418Y-90228127D02*
X123715372Y-90271925D01*
X146570771Y-87819195D02*
X146619082Y-87810812D01*
X182485749Y-53410812D02*
X182534414Y-53404810D01*
X141865585Y-53404810D02*
X141914250Y-53410812D01*
X115290622Y-61783300D02*
X115270751Y-61828127D01*
X123574543Y-55071887D02*
X123540732Y-55107399D01*
X173694741Y-27882039D02*
X173652078Y-27857870D01*
X127001695Y-90356014D02*
X126975462Y-90314588D01*
X126833333Y-27000987D02*
X126833333Y-25999012D01*
X150868092Y-55173237D02*
X150829436Y-55203404D01*
X118625456Y-25328112D02*
X118659267Y-25292600D01*
X115107876Y-55071887D02*
X115074066Y-55107399D01*
X169722681Y-55231637D02*
X169681255Y-55257870D01*
X170165463Y-27050018D02*
X170161855Y-27098919D01*
X142539903Y-25365241D02*
X142570070Y-25403896D01*
X126909377Y-90183300D02*
X126891731Y-90137552D01*
X142761855Y-61498919D02*
X142755853Y-61547583D01*
X151190316Y-88509005D02*
X151203394Y-88556262D01*
X127542339Y-60443016D02*
X127589596Y-60429939D01*
X127832345Y-87800000D02*
X133787727Y-87800000D01*
X178268092Y-53626762D02*
X178305220Y-53658790D01*
X123737418Y-53971872D02*
X123757288Y-54016699D01*
X170108268Y-61737552D02*
X170090622Y-61783300D01*
X169939903Y-27634758D02*
X169907876Y-27671887D01*
X123822520Y-54252416D02*
X123828522Y-54301080D01*
X123540732Y-60692600D02*
X123574543Y-60728112D01*
X118366666Y-61399012D02*
X118367870Y-61349981D01*
X151174935Y-27337552D02*
X151157288Y-27383300D01*
X173738539Y-62304085D02*
X173694741Y-62282039D01*
X181633333Y-88799012D02*
X181634536Y-88749981D01*
X151137418Y-53971872D02*
X151157288Y-54016699D01*
X173177479Y-89947583D02*
X173171477Y-89898919D01*
X118810652Y-90631637D02*
X118770563Y-90603404D01*
X146059267Y-53692600D02*
X146094779Y-53658790D01*
X146170563Y-25196595D02*
X146210652Y-25168362D01*
X170024537Y-25485411D02*
X170048705Y-25528074D01*
X126844146Y-89947583D02*
X126838144Y-89898919D01*
X178632129Y-27050018D02*
X178628522Y-27098919D01*
X182077318Y-53568362D02*
X182118744Y-53542129D01*
X146170563Y-27803404D02*
X146131907Y-27773237D01*
X115366666Y-54399012D02*
X115366666Y-54400987D01*
X150661460Y-27904085D02*
X150616633Y-27923955D01*
X133799729Y-53398754D02*
X133799999Y-53387752D01*
X150332252Y-27995189D02*
X150283351Y-27998796D01*
X154942339Y-90756983D02*
X154895780Y-90741602D01*
X173425456Y-88128112D02*
X173459267Y-88092600D01*
X154637229Y-25196595D02*
X154677318Y-25168362D01*
X126929248Y-60971872D02*
X126951294Y-60928074D01*
X123170886Y-25058397D02*
X123216633Y-25076044D01*
X142539903Y-88165241D02*
X142570070Y-88203896D01*
X145825064Y-90137552D02*
X145809683Y-90090994D01*
X145993429Y-90434758D02*
X145963262Y-90396103D01*
X155183314Y-62398796D02*
X155134414Y-62395189D01*
X126891731Y-90137552D02*
X126876350Y-90090994D01*
X115270751Y-88371872D02*
X115290622Y-88416699D01*
X105596595Y-60803896D02*
X105626762Y-60765241D01*
X142507876Y-90471887D02*
X142474066Y-90507399D01*
X141962561Y-62380804D02*
X141914250Y-62389187D01*
X178436737Y-88203896D02*
X178464971Y-88243985D01*
X146094779Y-27741209D02*
X146059267Y-27707399D01*
X181676350Y-25709005D02*
X181691731Y-25662447D01*
X196598754Y-20000270D02*
X196587752Y-20000000D01*
X146252078Y-25142129D02*
X146294741Y-25117960D01*
X114881255Y-90657870D02*
X114838591Y-90682039D01*
X114367654Y-60400000D02*
X114416685Y-60401203D01*
X127125933Y-55107399D02*
X127092123Y-55071887D01*
X105928074Y-55282039D02*
X105885411Y-55257870D01*
X123664971Y-61956014D02*
X123636737Y-61996103D01*
X119219082Y-90789187D02*
X119170771Y-90780804D01*
X123822520Y-27147583D02*
X123814137Y-27195895D01*
X173335028Y-60843985D02*
X173363262Y-60803896D01*
X178603394Y-88556262D02*
X178614137Y-88604104D01*
X170165463Y-54349981D02*
X170166666Y-54399012D01*
X123029228Y-90780804D02*
X122980917Y-90789187D01*
X118367870Y-25949981D02*
X118371477Y-25901080D01*
X145766666Y-54399012D02*
X145767870Y-54349981D01*
X108401245Y-53399729D02*
X108412247Y-53399999D01*
X169722681Y-62231637D02*
X169681255Y-62257870D01*
X142766666Y-61400987D02*
X142765463Y-61450018D01*
X174019082Y-55389187D02*
X173970771Y-55380804D01*
X177970886Y-87858397D02*
X178016633Y-87876044D01*
X115308268Y-88462447D02*
X115323649Y-88509005D01*
X145809683Y-88509005D02*
X145825064Y-88462447D01*
X170123649Y-25709005D02*
X170136727Y-25756262D01*
X177970886Y-55341602D02*
X177924327Y-55356983D01*
X114562561Y-53419195D02*
X114610403Y-53429939D01*
X118367870Y-54349981D02*
X118371477Y-54301080D01*
X118377479Y-27147583D02*
X118371477Y-27098919D01*
X115198304Y-27556014D02*
X115170070Y-27596103D01*
X150524327Y-60443016D02*
X150570886Y-60458397D01*
X174019082Y-90789187D02*
X173970771Y-90780804D01*
X154805205Y-25095914D02*
X154850032Y-25076044D01*
X161199729Y-53398754D02*
X161199999Y-53387752D01*
X181729248Y-88371872D02*
X181751294Y-88328074D01*
X181729248Y-90228127D02*
X181709377Y-90183300D01*
X127450032Y-25076044D02*
X127495780Y-25058397D01*
X169939903Y-62034758D02*
X169907876Y-62071887D01*
X155037438Y-55380804D02*
X154989596Y-55370060D01*
X127495780Y-90741602D02*
X127450032Y-90723955D01*
X170108268Y-54062447D02*
X170123649Y-54109005D01*
X151203394Y-88556262D02*
X151214137Y-88604104D01*
X118366666Y-61400987D02*
X118366666Y-61399012D01*
X191600000Y-61399012D02*
X191600000Y-89800987D01*
X169874066Y-25292600D02*
X169907876Y-25328112D01*
X127589596Y-87829939D02*
X127637438Y-87819195D01*
X123540732Y-53692600D02*
X123574543Y-53728112D01*
X119075672Y-87843016D02*
X119122929Y-87829939D01*
X105658790Y-60728112D02*
X105692600Y-60692600D01*
X142149967Y-27923955D02*
X142104219Y-27941602D01*
X177829228Y-27980804D02*
X177780917Y-27989187D01*
X182295780Y-87858397D02*
X182342339Y-87843016D01*
X145963262Y-25403896D02*
X145993429Y-25365241D01*
X178229436Y-60596595D02*
X178268092Y-60626762D01*
X173494779Y-27741209D02*
X173459267Y-27707399D01*
X170048705Y-60928074D02*
X170070751Y-60971872D01*
X100401245Y-95799729D02*
X100412247Y-95799999D01*
X174116648Y-62398796D02*
X174067747Y-62395189D01*
X106349981Y-60401203D02*
X106399012Y-60400000D01*
X114465585Y-62395189D02*
X114416685Y-62398796D01*
X146170563Y-87996595D02*
X146210652Y-87968362D01*
X182342339Y-60443016D02*
X182389596Y-60429939D01*
X181961446Y-60658790D02*
X181998574Y-60626762D01*
X142648705Y-27471925D02*
X142624537Y-27514588D01*
X173875672Y-90756983D02*
X173829113Y-90741602D01*
X146294741Y-27882039D02*
X146252078Y-27857870D01*
X142362770Y-27803404D02*
X142322681Y-27831637D01*
X174067747Y-90795189D02*
X174019082Y-90789187D01*
X127318744Y-27857870D02*
X127277318Y-27831637D01*
X154401695Y-60843985D02*
X154429929Y-60803896D01*
X146475672Y-62356983D02*
X146429113Y-62341602D01*
X155183314Y-25001203D02*
X155232345Y-25000000D01*
X141962561Y-90780804D02*
X141914250Y-90789187D01*
X181663272Y-25756262D02*
X181676350Y-25709005D01*
X169681255Y-87942129D02*
X169722681Y-87968362D01*
X178628522Y-54301080D02*
X178632129Y-54349981D01*
X154351294Y-88328074D02*
X154375462Y-88285411D01*
X145766666Y-25999012D02*
X145767870Y-25949981D01*
X174165678Y-87800000D02*
X177634321Y-87800000D01*
X181633333Y-54399012D02*
X181634536Y-54349981D01*
X181676350Y-61109005D02*
X181691731Y-61062447D01*
X173970771Y-55380804D02*
X173922929Y-55370060D01*
X169801425Y-90573237D02*
X169762770Y-90603404D01*
X146716648Y-53401203D02*
X146765678Y-53400000D01*
X154850032Y-25076044D02*
X154895780Y-25058397D01*
X150477070Y-87829939D02*
X150524327Y-87843016D01*
X173262581Y-90228127D02*
X173242711Y-90183300D01*
X178603394Y-61156262D02*
X178614137Y-61204104D01*
X173738539Y-25095914D02*
X173783366Y-25076044D01*
X182342339Y-27956983D02*
X182295780Y-27941602D01*
X178105258Y-60517960D02*
X178147921Y-60542129D01*
X145771477Y-61498919D02*
X145767870Y-61450018D01*
X106204104Y-55380804D02*
X106156262Y-55370060D01*
X178614137Y-27195895D02*
X178603394Y-27243737D01*
X146765678Y-53400000D02*
X150234321Y-53400000D01*
X141816685Y-55398796D02*
X141767654Y-55400000D01*
X178189347Y-55231637D02*
X178147921Y-55257870D01*
X119219082Y-87810812D02*
X119267747Y-87804810D01*
X181961446Y-25258790D02*
X181998574Y-25226762D01*
X161199999Y-62412247D02*
X161199729Y-62401245D01*
X145777479Y-88652416D02*
X145785862Y-88604104D01*
X154238144Y-25901080D02*
X154244146Y-25852416D01*
X118694779Y-27741209D02*
X118659267Y-27707399D01*
X145777479Y-61547583D02*
X145771477Y-61498919D01*
X123737418Y-88371872D02*
X123757288Y-88416699D01*
X141914250Y-60410812D02*
X141962561Y-60419195D01*
X181998574Y-90573237D02*
X181961446Y-90541209D01*
X173185862Y-54595895D02*
X173177479Y-54547583D01*
X127685749Y-53410812D02*
X127734414Y-53404810D01*
X178406570Y-25365241D02*
X178436737Y-25403896D01*
X115198304Y-60843985D02*
X115224537Y-60885411D01*
X178189347Y-25168362D02*
X178229436Y-25196595D01*
X127237229Y-27803404D02*
X127198574Y-27773237D01*
X118366666Y-54399012D02*
X118367870Y-54349981D01*
X115139903Y-90434758D02*
X115107876Y-90471887D01*
X181652529Y-54204104D02*
X181663272Y-54156262D01*
X105542129Y-90314588D02*
X105517960Y-90271925D01*
X154276350Y-27290994D02*
X154263272Y-27243737D01*
X191234758Y-55173237D02*
X191196103Y-55203404D01*
X118377479Y-61252416D02*
X118385862Y-61204104D01*
X154244146Y-54547583D02*
X154238144Y-54498919D01*
X142708268Y-54737552D02*
X142690622Y-54783300D01*
X126975462Y-60885411D02*
X127001695Y-60843985D01*
X173166666Y-61400987D02*
X173166666Y-61399012D01*
X145825064Y-54062447D02*
X145842711Y-54016699D01*
X122883351Y-55398796D02*
X122834321Y-55400000D01*
X169265585Y-55395189D02*
X169216685Y-55398796D01*
X118938539Y-53495914D02*
X118983366Y-53476044D01*
X181691731Y-27337552D02*
X181676350Y-27290994D01*
X127783314Y-27998796D02*
X127734414Y-27995189D01*
X191373237Y-25365241D02*
X191403404Y-25403896D01*
X127405205Y-62304085D02*
X127361408Y-62282039D01*
X191556983Y-90090994D02*
X191541602Y-90137552D01*
X146252078Y-87942129D02*
X146294741Y-87917960D01*
X154989596Y-27970060D02*
X154942339Y-27956983D01*
X141914250Y-55389187D02*
X141865585Y-55395189D01*
X127277318Y-90631637D02*
X127237229Y-90603404D01*
X178464971Y-60843985D02*
X178491203Y-60885411D01*
X191156014Y-60568362D02*
X191196103Y-60596595D01*
X114962770Y-25196595D02*
X115001425Y-25226762D01*
X191598796Y-25949981D02*
X191600000Y-25999012D01*
X154492123Y-60728112D02*
X154525933Y-60692600D01*
X142474066Y-25292600D02*
X142507876Y-25328112D01*
X154375462Y-27514588D02*
X154351294Y-27471925D01*
X182250032Y-27923955D02*
X182205205Y-27904085D01*
X191114588Y-55257870D02*
X191071925Y-55282039D01*
X170155853Y-61252416D02*
X170161855Y-61301080D01*
X115038553Y-25258790D02*
X115074066Y-25292600D01*
X173166666Y-88799012D02*
X173167870Y-88749981D01*
X181751294Y-60928074D02*
X181775462Y-60885411D01*
X146338539Y-55304085D02*
X146294741Y-55282039D01*
X163200270Y-28001245D02*
X163200000Y-28012247D01*
X106301080Y-25004810D02*
X106349981Y-25001203D01*
X142708268Y-54062447D02*
X142723649Y-54109005D01*
X146094779Y-53658790D02*
X146131907Y-53626762D01*
X150234321Y-62400000D02*
X146765678Y-62400000D01*
X115366666Y-61400987D02*
X115365463Y-61450018D01*
X105400000Y-89800987D02*
X105400000Y-61399012D01*
X151232129Y-88749981D02*
X151233333Y-88799012D01*
X106204104Y-90780804D02*
X106156262Y-90770060D01*
X127237229Y-53596595D02*
X127277318Y-53568362D01*
X154492123Y-25328112D02*
X154525933Y-25292600D01*
X123606570Y-53765241D02*
X123636737Y-53803896D01*
X142194794Y-60495914D02*
X142238591Y-60517960D01*
X115001425Y-60626762D02*
X115038553Y-60658790D01*
X123664971Y-54956014D02*
X123636737Y-54996103D01*
X178491203Y-90314588D02*
X178464971Y-90356014D01*
X181751294Y-25528074D02*
X181775462Y-25485411D01*
X142670751Y-27428127D02*
X142648705Y-27471925D01*
X118810652Y-62231637D02*
X118770563Y-62203404D01*
X173209683Y-25709005D02*
X173225064Y-25662447D01*
X123468092Y-62173237D02*
X123429436Y-62203404D01*
X178305220Y-55141209D02*
X178268092Y-55173237D01*
X178491203Y-61914588D02*
X178464971Y-61956014D01*
X114838591Y-62282039D02*
X114794794Y-62304085D01*
X127783314Y-62398796D02*
X127734414Y-62395189D01*
X150616633Y-53476044D02*
X150661460Y-53495914D01*
X169998304Y-61956014D02*
X169970070Y-61996103D01*
X114962770Y-27803404D02*
X114922681Y-27831637D01*
X154525933Y-62107399D02*
X154492123Y-62071887D01*
X115355853Y-25852416D02*
X115361855Y-25901080D01*
X151115372Y-88328074D02*
X151137418Y-88371872D01*
X190890994Y-25043016D02*
X190937552Y-25058397D01*
X141767654Y-87800000D02*
X141816685Y-87801203D01*
X105401203Y-25949981D02*
X105404810Y-25901080D01*
X181634536Y-88749981D02*
X181638144Y-88701080D01*
X155134414Y-90795189D02*
X155085749Y-90789187D01*
X150380917Y-87810812D02*
X150429228Y-87819195D01*
X127832345Y-60400000D02*
X141767654Y-60400000D01*
X191234758Y-90573237D02*
X191196103Y-90603404D01*
X145825064Y-54737552D02*
X145809683Y-54690994D01*
X118535028Y-61956014D02*
X118508796Y-61914588D01*
X173425456Y-53728112D02*
X173459267Y-53692600D01*
X145862581Y-88371872D02*
X145884627Y-88328074D01*
X191431637Y-54956014D02*
X191403404Y-54996103D01*
X169314250Y-53410812D02*
X169362561Y-53419195D01*
X105843985Y-90631637D02*
X105803896Y-90603404D01*
X141865585Y-27995189D02*
X141816685Y-27998796D01*
X119316648Y-25001203D02*
X119365678Y-25000000D01*
X115248705Y-90271925D02*
X115224537Y-90314588D01*
X150974543Y-88128112D02*
X151006570Y-88165241D01*
X173196605Y-90043737D02*
X173185862Y-89995895D01*
X151228522Y-25901080D02*
X151232129Y-25949981D01*
X181961446Y-62141209D02*
X181925933Y-62107399D01*
X170147470Y-61204104D02*
X170155853Y-61252416D01*
X123077070Y-53429939D02*
X123124327Y-53443016D01*
X173652078Y-90657870D02*
X173610652Y-90631637D01*
X177634321Y-55400000D02*
X174165678Y-55400000D01*
X118563262Y-27596103D02*
X118535028Y-27556014D01*
X169838553Y-27741209D02*
X169801425Y-27773237D01*
X123347921Y-62257870D02*
X123305258Y-62282039D01*
X118852078Y-25142129D02*
X118894741Y-25117960D01*
X151233333Y-54400987D02*
X151232129Y-54450018D01*
X122980917Y-25010812D02*
X123029228Y-25019195D01*
X146094779Y-90541209D02*
X146059267Y-90507399D01*
X169998304Y-54956014D02*
X169970070Y-54996103D01*
X170048705Y-88328074D02*
X170070751Y-88371872D01*
X178016633Y-27923955D02*
X177970886Y-27941602D01*
X118694779Y-25258790D02*
X118731907Y-25226762D01*
X145862581Y-61828127D02*
X145842711Y-61783300D01*
X182295780Y-53458397D02*
X182342339Y-53443016D01*
X173335028Y-54956014D02*
X173308796Y-54914588D01*
X178628522Y-88701080D02*
X178632129Y-88749981D01*
X151222520Y-61547583D02*
X151214137Y-61595895D01*
X145935028Y-60843985D02*
X145963262Y-60803896D01*
X173171477Y-88701080D02*
X173177479Y-88652416D01*
X146619082Y-62389187D02*
X146570771Y-62380804D01*
X114657660Y-87843016D02*
X114704219Y-87858397D01*
X142104219Y-87858397D02*
X142149967Y-87876044D01*
X127637438Y-87819195D02*
X127685749Y-87810812D01*
X178305220Y-90541209D02*
X178268092Y-90573237D01*
X105692600Y-90507399D02*
X105658790Y-90471887D01*
X151174935Y-54062447D02*
X151190316Y-54109005D01*
X142281255Y-53542129D02*
X142322681Y-53568362D01*
X169594794Y-90704085D02*
X169549967Y-90723955D01*
X119075672Y-27956983D02*
X119029113Y-27941602D01*
X127637438Y-53419195D02*
X127685749Y-53410812D01*
X150974543Y-53728112D02*
X151006570Y-53765241D01*
X123636737Y-25403896D02*
X123664971Y-25443985D01*
X123715372Y-25528074D02*
X123737418Y-25571872D01*
X154989596Y-62370060D02*
X154942339Y-62356983D01*
X115323649Y-54690994D02*
X115308268Y-54737552D01*
X142010403Y-60429939D02*
X142057660Y-60443016D01*
X123216633Y-60476044D02*
X123261460Y-60495914D01*
X182077318Y-27831637D02*
X182037229Y-27803404D01*
X182161408Y-27882039D02*
X182118744Y-27857870D01*
X182632345Y-53400000D02*
X188587727Y-53400000D01*
X173738539Y-27904085D02*
X173694741Y-27882039D01*
X141767654Y-55400000D02*
X127832345Y-55400000D01*
X182295780Y-90741602D02*
X182250032Y-90723955D01*
X155134414Y-55395189D02*
X155085749Y-55389187D01*
X115323649Y-61690994D02*
X115308268Y-61737552D01*
X133799729Y-87798754D02*
X133799999Y-87787752D01*
X182342339Y-90756983D02*
X182295780Y-90741602D01*
X114922681Y-27831637D02*
X114881255Y-27857870D01*
X178406570Y-53765241D02*
X178436737Y-53803896D01*
X173652078Y-60542129D02*
X173694741Y-60517960D01*
X142747470Y-27195895D02*
X142736727Y-27243737D01*
X154263272Y-61156262D02*
X154276350Y-61109005D01*
X191482039Y-54871925D02*
X191457870Y-54914588D01*
X154637229Y-62203404D02*
X154598574Y-62173237D01*
X191071925Y-60517960D02*
X191114588Y-60542129D01*
X123261460Y-62304085D02*
X123216633Y-62323955D01*
X105429939Y-61156262D02*
X105443016Y-61109005D01*
X127029929Y-27596103D02*
X127001695Y-27556014D01*
X151006570Y-88165241D02*
X151036737Y-88203896D01*
X181709377Y-90183300D02*
X181691731Y-90137552D01*
X150429228Y-53419195D02*
X150477070Y-53429939D01*
X170136727Y-54643737D02*
X170123649Y-54690994D01*
X142736727Y-54156262D02*
X142747470Y-54204104D01*
X145767870Y-25949981D02*
X145771477Y-25901080D01*
X146059267Y-88092600D02*
X146094779Y-88058790D01*
X114416685Y-25001203D02*
X114465585Y-25004810D01*
X118409683Y-27290994D02*
X118396605Y-27243737D01*
X146294741Y-55282039D02*
X146252078Y-55257870D01*
X177924327Y-53443016D02*
X177970886Y-53458397D01*
X127125933Y-90507399D02*
X127092123Y-90471887D01*
X182037229Y-60596595D02*
X182077318Y-60568362D01*
X151115372Y-60928074D02*
X151137418Y-60971872D01*
X181801695Y-60843985D02*
X181829929Y-60803896D01*
X154460096Y-55034758D02*
X154429929Y-54996103D01*
X169265585Y-62395189D02*
X169216685Y-62398796D01*
X150524327Y-27956983D02*
X150477070Y-27970060D01*
X169594794Y-55304085D02*
X169549967Y-55323955D01*
X146765678Y-55400000D02*
X146716648Y-55398796D01*
X178590316Y-54109005D02*
X178603394Y-54156262D01*
X127685749Y-55389187D02*
X127637438Y-55380804D01*
X181634536Y-89850018D02*
X181633333Y-89800987D01*
X181644146Y-54547583D02*
X181638144Y-54498919D01*
X126951294Y-54871925D02*
X126929248Y-54828127D01*
X173610652Y-62231637D02*
X173570563Y-62203404D01*
X123790316Y-54690994D02*
X123774935Y-54737552D01*
X173531907Y-53626762D02*
X173570563Y-53596595D01*
X169362561Y-60419195D02*
X169410403Y-60429939D01*
X173242711Y-90183300D02*
X173225064Y-90137552D01*
X118770563Y-25196595D02*
X118810652Y-25168362D01*
X142761855Y-27098919D02*
X142755853Y-27147583D01*
X126975462Y-88285411D02*
X127001695Y-88243985D01*
X170048705Y-90271925D02*
X170024537Y-90314588D01*
X142765463Y-61450018D02*
X142761855Y-61498919D01*
X178340732Y-90507399D02*
X178305220Y-90541209D01*
X123305258Y-27882039D02*
X123261460Y-27904085D01*
X119170771Y-25019195D02*
X119219082Y-25010812D01*
X173531907Y-62173237D02*
X173494779Y-62141209D01*
X114657660Y-55356983D02*
X114610403Y-55370060D01*
X150661460Y-62304085D02*
X150616633Y-62323955D01*
X146210652Y-55231637D02*
X146170563Y-55203404D01*
X127685749Y-87810812D02*
X127734414Y-87804810D01*
X182342339Y-87843016D02*
X182389596Y-87829939D01*
X145766666Y-61400987D02*
X145766666Y-61399012D01*
X173970771Y-62380804D02*
X173922929Y-62370060D01*
X115308268Y-90137552D02*
X115290622Y-90183300D01*
X142474066Y-62107399D02*
X142438553Y-62141209D01*
X145842711Y-88416699D02*
X145862581Y-88371872D01*
X106399012Y-90800000D02*
X106349981Y-90798796D01*
X127001695Y-88243985D02*
X127029929Y-88203896D01*
X190698919Y-60404810D02*
X190747583Y-60410812D01*
X142362770Y-25196595D02*
X142401425Y-25226762D01*
X154460096Y-53765241D02*
X154492123Y-53728112D01*
X123828522Y-89898919D02*
X123822520Y-89947583D01*
X142765463Y-88749981D02*
X142766666Y-88799012D01*
X191570060Y-25756262D02*
X191580804Y-25804104D01*
X115001425Y-90573237D02*
X114962770Y-90603404D01*
X126863272Y-61156262D02*
X126876350Y-61109005D01*
X114794794Y-90704085D02*
X114749967Y-90723955D01*
X173570563Y-87996595D02*
X173610652Y-87968362D01*
X127450032Y-53476044D02*
X127495780Y-53458397D01*
X142648705Y-53928074D02*
X142670751Y-53971872D01*
X146025456Y-53728112D02*
X146059267Y-53692600D01*
X123261460Y-25095914D02*
X123305258Y-25117960D01*
X118484627Y-54871925D02*
X118462581Y-54828127D01*
X118377479Y-54252416D02*
X118385862Y-54204104D01*
X151233333Y-61399012D02*
X151233333Y-61400987D01*
X191271887Y-55141209D02*
X191234758Y-55173237D01*
X182389596Y-53429939D02*
X182437438Y-53419195D01*
X127029929Y-90396103D02*
X127001695Y-90356014D01*
X151203394Y-61156262D02*
X151214137Y-61204104D01*
X119075672Y-62356983D02*
X119029113Y-62341602D01*
X146131907Y-88026762D02*
X146170563Y-87996595D01*
X173694741Y-90682039D02*
X173652078Y-90657870D01*
X142238591Y-25117960D02*
X142281255Y-25142129D01*
X108412272Y-53400000D02*
X114367654Y-53400000D01*
X154263272Y-88556262D02*
X154276350Y-88509005D01*
X182250032Y-87876044D02*
X182295780Y-87858397D01*
X114704219Y-25058397D02*
X114749967Y-25076044D01*
X151174935Y-90137552D02*
X151157288Y-90183300D01*
X126891731Y-88462447D02*
X126909377Y-88416699D01*
X151232129Y-61349981D02*
X151233333Y-61399012D01*
X150705258Y-87917960D02*
X150747921Y-87942129D01*
X127277318Y-55231637D02*
X127237229Y-55203404D01*
X123505220Y-53658790D02*
X123540732Y-53692600D01*
X142194794Y-90704085D02*
X142149967Y-90723955D01*
X155085749Y-90789187D02*
X155037438Y-90780804D01*
X151157288Y-54016699D02*
X151174935Y-54062447D01*
X145884627Y-54871925D02*
X145862581Y-54828127D01*
X150868092Y-25226762D02*
X150905220Y-25258790D01*
X161187752Y-53399999D02*
X161198754Y-53399729D01*
X178491203Y-54914588D02*
X178464971Y-54956014D01*
X115001425Y-88026762D02*
X115038553Y-88058790D01*
X145862581Y-54828127D02*
X145842711Y-54783300D01*
X154276350Y-54109005D02*
X154291731Y-54062447D01*
X169939903Y-25365241D02*
X169970070Y-25403896D01*
X173171477Y-54301080D02*
X173177479Y-54252416D01*
X182205205Y-55304085D02*
X182161408Y-55282039D01*
X177780917Y-55389187D02*
X177732252Y-55395189D01*
X118593429Y-55034758D02*
X118563262Y-54996103D01*
X150747921Y-62257870D02*
X150705258Y-62282039D01*
X105765241Y-25226762D02*
X105803896Y-25196595D01*
X127060096Y-53765241D02*
X127092123Y-53728112D01*
X163200000Y-28012272D02*
X163200000Y-53387727D01*
X173284627Y-53928074D02*
X173308796Y-53885411D01*
X127092123Y-60728112D02*
X127125933Y-60692600D01*
X182437438Y-87819195D02*
X182485749Y-87810812D01*
X123216633Y-53476044D02*
X123261460Y-53495914D01*
X182077318Y-90631637D02*
X182037229Y-90603404D01*
X169801425Y-55173237D02*
X169762770Y-55203404D01*
X142281255Y-90657870D02*
X142238591Y-90682039D01*
X123715372Y-88328074D02*
X123737418Y-88371872D01*
X145908796Y-25485411D02*
X145935028Y-25443985D01*
X182118744Y-55257870D02*
X182077318Y-55231637D01*
X150868092Y-53626762D02*
X150905220Y-53658790D01*
X127589596Y-90770060D02*
X127542339Y-90756983D01*
X181638144Y-61498919D02*
X181634536Y-61450018D01*
X173363262Y-61996103D02*
X173335028Y-61956014D01*
X154233333Y-54399012D02*
X154234536Y-54349981D01*
X123832129Y-54349981D02*
X123833333Y-54399012D01*
X105410812Y-25852416D02*
X105419195Y-25804104D01*
X142723649Y-54690994D02*
X142708268Y-54737552D01*
X154429929Y-27596103D02*
X154401695Y-27556014D01*
X127092123Y-90471887D02*
X127060096Y-90434758D01*
X188600000Y-87787727D02*
X188600000Y-62412272D01*
X127542339Y-27956983D02*
X127495780Y-27941602D01*
X145767870Y-61349981D02*
X145771477Y-61301080D01*
X178590316Y-90090994D02*
X178574935Y-90137552D01*
X177829228Y-55380804D02*
X177780917Y-55389187D01*
X119316648Y-53401203D02*
X119365678Y-53400000D01*
X127029929Y-88203896D02*
X127060096Y-88165241D01*
X126975462Y-54914588D02*
X126951294Y-54871925D01*
X191504085Y-54828127D02*
X191482039Y-54871925D01*
X142149967Y-90723955D02*
X142104219Y-90741602D01*
X142747470Y-61595895D02*
X142736727Y-61643737D01*
X123029228Y-25019195D02*
X123077070Y-25029939D01*
X178464971Y-53843985D02*
X178491203Y-53885411D01*
X154561446Y-88058790D02*
X154598574Y-88026762D01*
X154252529Y-25804104D02*
X154263272Y-25756262D01*
X141914250Y-25010812D02*
X141962561Y-25019195D01*
X119029113Y-53458397D02*
X119075672Y-53443016D01*
X119365678Y-60400000D02*
X122834321Y-60400000D01*
X118938539Y-87895914D02*
X118983366Y-87876044D01*
X118593429Y-88165241D02*
X118625456Y-88128112D01*
X142474066Y-90507399D02*
X142438553Y-90541209D01*
X146025456Y-25328112D02*
X146059267Y-25292600D01*
X145825064Y-88462447D02*
X145842711Y-88416699D01*
X142322681Y-53568362D02*
X142362770Y-53596595D01*
X181775462Y-90314588D02*
X181751294Y-90271925D01*
X106301080Y-90795189D02*
X106252416Y-90789187D01*
X146094779Y-60658790D02*
X146131907Y-60626762D01*
X191196103Y-60596595D02*
X191234758Y-60626762D01*
X169762770Y-62203404D02*
X169722681Y-62231637D01*
X146429113Y-60458397D02*
X146475672Y-60443016D01*
X127450032Y-27923955D02*
X127405205Y-27904085D01*
X150380917Y-25010812D02*
X150429228Y-25019195D01*
X190890994Y-55356983D02*
X190843737Y-55370060D01*
X181892123Y-88128112D02*
X181925933Y-88092600D01*
X108401245Y-87799729D02*
X108412247Y-87799999D01*
X169838553Y-60658790D02*
X169874066Y-60692600D01*
X115347470Y-54595895D02*
X115336727Y-54643737D01*
X190600987Y-25000000D02*
X190650018Y-25001203D01*
X123790316Y-61109005D02*
X123803394Y-61156262D01*
X178632129Y-25949981D02*
X178633333Y-25999012D01*
X105401203Y-89850018D02*
X105400000Y-89800987D01*
X173167870Y-61349981D02*
X173171477Y-61301080D01*
X146765678Y-62400000D02*
X146716648Y-62398796D01*
X106349981Y-90798796D02*
X106301080Y-90795189D01*
X190937552Y-90741602D02*
X190890994Y-90756983D01*
X154677318Y-25168362D02*
X154718744Y-25142129D01*
X169681255Y-55257870D02*
X169638591Y-55282039D01*
X178632129Y-89850018D02*
X178628522Y-89898919D01*
X191504085Y-60971872D02*
X191523955Y-61016699D01*
X118810652Y-25168362D02*
X118852078Y-25142129D01*
X142507876Y-60728112D02*
X142539903Y-60765241D01*
X154234536Y-88749981D02*
X154238144Y-88701080D01*
X123429436Y-62203404D02*
X123389347Y-62231637D01*
X150747921Y-55257870D02*
X150705258Y-55282039D01*
X127734414Y-62395189D02*
X127685749Y-62389187D01*
X123029228Y-53419195D02*
X123077070Y-53429939D01*
X178189347Y-27831637D02*
X178147921Y-27857870D01*
X169504219Y-27941602D02*
X169457660Y-27956983D01*
X123664971Y-27556014D02*
X123636737Y-27596103D01*
X173610652Y-90631637D02*
X173570563Y-90603404D01*
X142539903Y-53765241D02*
X142570070Y-53803896D01*
X150789347Y-90631637D02*
X150747921Y-90657870D01*
X119267747Y-90795189D02*
X119219082Y-90789187D01*
X173570563Y-90603404D02*
X173531907Y-90573237D01*
X123505220Y-90541209D02*
X123468092Y-90573237D01*
X178632129Y-54450018D02*
X178628522Y-54498919D01*
X154234536Y-54349981D02*
X154238144Y-54301080D01*
X142539903Y-27634758D02*
X142507876Y-27671887D01*
X177732252Y-27995189D02*
X177683351Y-27998796D01*
X169722681Y-25168362D02*
X169762770Y-25196595D01*
X127237229Y-90603404D02*
X127198574Y-90573237D01*
X142747470Y-88604104D02*
X142755853Y-88652416D01*
X114794794Y-55304085D02*
X114749967Y-55323955D01*
X145766666Y-54400987D02*
X145766666Y-54399012D01*
X146475672Y-87843016D02*
X146522929Y-87829939D01*
X154460096Y-27634758D02*
X154429929Y-27596103D01*
X122883351Y-60401203D02*
X122932252Y-60404810D01*
X118852078Y-90657870D02*
X118810652Y-90631637D01*
X146131907Y-55173237D02*
X146094779Y-55141209D01*
X169549967Y-53476044D02*
X169594794Y-53495914D01*
X118535028Y-25443985D02*
X118563262Y-25403896D01*
X118366666Y-54400987D02*
X118366666Y-54399012D01*
X170070751Y-27428127D02*
X170048705Y-27471925D01*
X118462581Y-60971872D02*
X118484627Y-60928074D01*
X178515372Y-27471925D02*
X178491203Y-27514588D01*
X146716648Y-62398796D02*
X146667747Y-62395189D01*
X114794794Y-62304085D02*
X114749967Y-62323955D01*
X182632345Y-60400000D02*
X190600987Y-60400000D01*
X127001695Y-60843985D02*
X127029929Y-60803896D01*
X127198574Y-88026762D02*
X127237229Y-87996595D01*
X170024537Y-27514588D02*
X169998304Y-27556014D01*
X126838144Y-54498919D02*
X126834536Y-54450018D01*
X105596595Y-90396103D02*
X105568362Y-90356014D01*
X169874066Y-90507399D02*
X169838553Y-90541209D01*
X191482039Y-90271925D02*
X191457870Y-90314588D01*
X173531907Y-25226762D02*
X173570563Y-25196595D01*
X177970886Y-90741602D02*
X177924327Y-90756983D01*
X178374543Y-60728112D02*
X178406570Y-60765241D01*
X173363262Y-53803896D02*
X173393429Y-53765241D01*
X123505220Y-55141209D02*
X123468092Y-55173237D01*
X115074066Y-53692600D02*
X115107876Y-53728112D01*
X177877070Y-87829939D02*
X177924327Y-87843016D01*
X181644146Y-27147583D02*
X181638144Y-27098919D01*
X118484627Y-90271925D02*
X118462581Y-90228127D01*
X181638144Y-54498919D02*
X181634536Y-54450018D01*
X154291731Y-61062447D02*
X154309377Y-61016699D01*
X146667747Y-55395189D02*
X146619082Y-55389187D01*
X190698919Y-55395189D02*
X190650018Y-55398796D01*
X178189347Y-53568362D02*
X178229436Y-53596595D01*
X154492123Y-90471887D02*
X154460096Y-90434758D01*
X115038553Y-60658790D02*
X115074066Y-60692600D01*
X173531907Y-55173237D02*
X173494779Y-55141209D01*
X118810652Y-53568362D02*
X118852078Y-53542129D01*
X191504085Y-25571872D02*
X191523955Y-25616699D01*
X151006570Y-90434758D02*
X150974543Y-90471887D01*
X142362770Y-62203404D02*
X142322681Y-62231637D01*
X115290622Y-90183300D02*
X115270751Y-90228127D01*
X190983300Y-55323955D02*
X190937552Y-55341602D01*
X126876350Y-88509005D02*
X126891731Y-88462447D01*
X151036737Y-54996103D02*
X151006570Y-55034758D01*
X169314250Y-55389187D02*
X169265585Y-55395189D01*
X118770563Y-62203404D02*
X118731907Y-62173237D01*
X123261460Y-53495914D02*
X123305258Y-53517960D01*
X170108268Y-54737552D02*
X170090622Y-54783300D01*
X173970771Y-25019195D02*
X174019082Y-25010812D01*
X142736727Y-90043737D02*
X142723649Y-90090994D01*
X173308796Y-60885411D02*
X173335028Y-60843985D01*
X182250032Y-90723955D02*
X182205205Y-90704085D01*
X146131907Y-90573237D02*
X146094779Y-90541209D01*
X127589596Y-27970060D02*
X127542339Y-27956983D01*
X150829436Y-90603404D02*
X150789347Y-90631637D01*
X146252078Y-53542129D02*
X146294741Y-53517960D01*
X122932252Y-87804810D02*
X122980917Y-87810812D01*
X106109005Y-55356983D02*
X106062447Y-55341602D01*
X106399012Y-55400000D02*
X106349981Y-55398796D01*
X126929248Y-25571872D02*
X126951294Y-25528074D01*
X114962770Y-55203404D02*
X114922681Y-55231637D01*
X105928074Y-90682039D02*
X105885411Y-90657870D01*
X151174935Y-88462447D02*
X151190316Y-88509005D01*
X182161408Y-90682039D02*
X182118744Y-90657870D01*
X177924327Y-90756983D02*
X177877070Y-90770060D01*
X123715372Y-60928074D02*
X123737418Y-60971872D01*
X142281255Y-60542129D02*
X142322681Y-60568362D01*
X178305220Y-53658790D02*
X178340732Y-53692600D01*
X177683351Y-87801203D02*
X177732252Y-87804810D01*
X126838144Y-89898919D02*
X126834536Y-89850018D01*
X163200000Y-87787752D02*
X163200270Y-87798754D01*
X105885411Y-25142129D02*
X105928074Y-25117960D01*
X123574543Y-27671887D02*
X123540732Y-27707399D01*
X142765463Y-61349981D02*
X142766666Y-61399012D01*
X106301080Y-60404810D02*
X106349981Y-60401203D01*
X191504085Y-90228127D02*
X191482039Y-90271925D01*
X151232129Y-89850018D02*
X151228522Y-89898919D01*
X127029929Y-25403896D02*
X127060096Y-25365241D01*
X161199999Y-28012247D02*
X161199729Y-28001245D01*
X173196605Y-25756262D02*
X173209683Y-25709005D01*
X154942339Y-60443016D02*
X154989596Y-60429939D01*
X169314250Y-60410812D02*
X169362561Y-60419195D01*
X182632345Y-62400000D02*
X182583314Y-62398796D01*
X142474066Y-53692600D02*
X142507876Y-53728112D01*
X114465585Y-25004810D02*
X114514250Y-25010812D01*
X154805205Y-53495914D02*
X154850032Y-53476044D01*
X170165463Y-88749981D02*
X170166666Y-88799012D01*
X151036737Y-53803896D02*
X151064971Y-53843985D01*
X123540732Y-88092600D02*
X123574543Y-88128112D01*
X178016633Y-62323955D02*
X177970886Y-62341602D01*
X142766666Y-89800987D02*
X142765463Y-89850018D01*
X126852529Y-61595895D02*
X126844146Y-61547583D01*
X123664971Y-53843985D02*
X123691203Y-53885411D01*
X170136727Y-25756262D02*
X170147470Y-25804104D01*
X178622520Y-54252416D02*
X178628522Y-54301080D01*
X123574543Y-62071887D02*
X123540732Y-62107399D01*
X105429939Y-54643737D02*
X105419195Y-54595895D01*
X182118744Y-27857870D02*
X182077318Y-27831637D01*
X178557288Y-27383300D02*
X178537418Y-27428127D01*
X127277318Y-53568362D02*
X127318744Y-53542129D01*
X181634536Y-61349981D02*
X181638144Y-61301080D01*
X123029228Y-87819195D02*
X123077070Y-87829939D01*
X151064971Y-60843985D02*
X151091203Y-60885411D01*
X169549967Y-60476044D02*
X169594794Y-60495914D01*
X142401425Y-60626762D02*
X142438553Y-60658790D01*
X151036737Y-90396103D02*
X151006570Y-90434758D01*
X150974543Y-55071887D02*
X150940732Y-55107399D01*
X151115372Y-53928074D02*
X151137418Y-53971872D01*
X181998574Y-27773237D02*
X181961446Y-27741209D01*
X127450032Y-90723955D02*
X127405205Y-90704085D01*
X182632345Y-55400000D02*
X182583314Y-55398796D01*
X142624537Y-90314588D02*
X142598304Y-90356014D01*
X177780917Y-25010812D02*
X177829228Y-25019195D01*
X169167654Y-87800000D02*
X169216685Y-87801203D01*
X170147470Y-25804104D02*
X170155853Y-25852416D01*
X142322681Y-87968362D02*
X142362770Y-87996595D01*
X141865585Y-90795189D02*
X141816685Y-90798796D01*
X123124327Y-62356983D02*
X123077070Y-62370060D01*
X146252078Y-60542129D02*
X146294741Y-60517960D01*
X154351294Y-27471925D02*
X154329248Y-27428127D01*
X178464971Y-54956014D02*
X178436737Y-54996103D01*
X177877070Y-62370060D02*
X177829228Y-62380804D01*
X173166666Y-54399012D02*
X173167870Y-54349981D01*
X122932252Y-60404810D02*
X122980917Y-60410812D01*
X170090622Y-90183300D02*
X170070751Y-90228127D01*
X178305220Y-88058790D02*
X178340732Y-88092600D01*
X114465585Y-60404810D02*
X114514250Y-60410812D01*
X181729248Y-60971872D02*
X181751294Y-60928074D01*
X126833333Y-61399012D02*
X126834536Y-61349981D01*
X123790316Y-88509005D02*
X123803394Y-88556262D01*
X170147470Y-88604104D02*
X170155853Y-88652416D01*
X181633333Y-27000987D02*
X181633333Y-25999012D01*
X181998574Y-62173237D02*
X181961446Y-62141209D01*
X122834321Y-25000000D02*
X122883351Y-25001203D01*
X145777479Y-61252416D02*
X145785862Y-61204104D01*
X173922929Y-53429939D02*
X173970771Y-53419195D01*
X114922681Y-53568362D02*
X114962770Y-53596595D01*
X174067747Y-53404810D02*
X174116648Y-53401203D01*
X181860096Y-62034758D02*
X181829929Y-61996103D01*
X115323649Y-27290994D02*
X115308268Y-27337552D01*
X178061460Y-55304085D02*
X178016633Y-55323955D01*
X123606570Y-25365241D02*
X123636737Y-25403896D01*
X181652529Y-89995895D02*
X181644146Y-89947583D01*
X118462581Y-53971872D02*
X118484627Y-53928074D01*
X123429436Y-90603404D02*
X123389347Y-90631637D01*
X177732252Y-25004810D02*
X177780917Y-25010812D01*
X119365678Y-90800000D02*
X119316648Y-90798796D01*
X118442711Y-61783300D02*
X118425064Y-61737552D01*
X178590316Y-54690994D02*
X178574935Y-54737552D01*
X123216633Y-55323955D02*
X123170886Y-55341602D01*
X142057660Y-90756983D02*
X142010403Y-90770060D01*
X105803896Y-90603404D02*
X105765241Y-90573237D01*
X123814137Y-61204104D02*
X123822520Y-61252416D01*
X123691203Y-61914588D02*
X123664971Y-61956014D01*
X105692600Y-60692600D02*
X105728112Y-60658790D01*
X154429929Y-53803896D02*
X154460096Y-53765241D01*
X141767654Y-25000000D02*
X141816685Y-25001203D01*
X127318744Y-62257870D02*
X127277318Y-62231637D01*
X191341209Y-90471887D02*
X191307399Y-90507399D01*
X145908796Y-61914588D02*
X145884627Y-61871925D01*
X150661460Y-55304085D02*
X150616633Y-55323955D01*
X123468092Y-53626762D02*
X123505220Y-53658790D01*
X114749967Y-87876044D02*
X114794794Y-87895914D01*
X154942339Y-87843016D02*
X154989596Y-87829939D01*
X150661460Y-60495914D02*
X150705258Y-60517960D01*
X190795895Y-25019195D02*
X190843737Y-25029939D01*
X115336727Y-88556262D02*
X115347470Y-88604104D01*
X122980917Y-60410812D02*
X123029228Y-60419195D01*
X173196605Y-88556262D02*
X173209683Y-88509005D01*
X119029113Y-62341602D02*
X118983366Y-62323955D01*
X177829228Y-62380804D02*
X177780917Y-62389187D01*
X118484627Y-61871925D02*
X118462581Y-61828127D01*
X115347470Y-54204104D02*
X115355853Y-54252416D01*
X123774935Y-54737552D02*
X123757288Y-54783300D01*
X173262581Y-60971872D02*
X173284627Y-60928074D01*
X105626762Y-60765241D02*
X105658790Y-60728112D01*
X181652529Y-27195895D02*
X181644146Y-27147583D01*
X123429436Y-55203404D02*
X123389347Y-55231637D01*
X145993429Y-27634758D02*
X145963262Y-27596103D01*
X123691203Y-60885411D02*
X123715372Y-60928074D01*
X178374543Y-27671887D02*
X178340732Y-27707399D01*
X173494779Y-25258790D02*
X173531907Y-25226762D01*
X119075672Y-53443016D02*
X119122929Y-53429939D01*
X169638591Y-25117960D02*
X169681255Y-25142129D01*
X151222520Y-61252416D02*
X151228522Y-61301080D01*
X173570563Y-27803404D02*
X173531907Y-27773237D01*
X127029929Y-54996103D02*
X127001695Y-54956014D01*
X142723649Y-54109005D02*
X142736727Y-54156262D01*
X142149967Y-25076044D02*
X142194794Y-25095914D01*
X181633333Y-61400987D02*
X181633333Y-61399012D01*
X173570563Y-55203404D02*
X173531907Y-55173237D01*
X154895780Y-62341602D02*
X154850032Y-62323955D01*
X163201245Y-53399729D02*
X163212247Y-53399999D01*
X127092123Y-88128112D02*
X127125933Y-88092600D01*
X127832345Y-62400000D02*
X127783314Y-62398796D01*
X145935028Y-61956014D02*
X145908796Y-61914588D01*
X150234321Y-55400000D02*
X146765678Y-55400000D01*
X191541602Y-54737552D02*
X191523955Y-54783300D01*
X123389347Y-25168362D02*
X123429436Y-25196595D01*
X181829929Y-53803896D02*
X181860096Y-53765241D01*
X170070751Y-25571872D02*
X170090622Y-25616699D01*
X178061460Y-90704085D02*
X178016633Y-90723955D01*
X123814137Y-61595895D02*
X123803394Y-61643737D01*
X173738539Y-60495914D02*
X173783366Y-60476044D01*
X191071925Y-55282039D02*
X191028127Y-55304085D01*
X146475672Y-90756983D02*
X146429113Y-90741602D01*
X118983366Y-55323955D02*
X118938539Y-55304085D01*
X178147921Y-27857870D02*
X178105258Y-27882039D01*
X178557288Y-25616699D02*
X178574935Y-25662447D01*
X191403404Y-54996103D02*
X191373237Y-55034758D01*
X105803896Y-25196595D02*
X105843985Y-25168362D01*
X118983366Y-62323955D02*
X118938539Y-62304085D01*
X173167870Y-61450018D02*
X173166666Y-61400987D01*
X178557288Y-54016699D02*
X178574935Y-54062447D01*
X127001695Y-54956014D02*
X126975462Y-54914588D01*
X150477070Y-53429939D02*
X150524327Y-53443016D01*
X118563262Y-53803896D02*
X118593429Y-53765241D01*
X181652529Y-54595895D02*
X181644146Y-54547583D01*
X170161855Y-89898919D02*
X170155853Y-89947583D01*
X170090622Y-61016699D02*
X170108268Y-61062447D01*
X146475672Y-60443016D02*
X146522929Y-60429939D01*
X181644146Y-61547583D02*
X181638144Y-61498919D01*
X127361408Y-62282039D02*
X127318744Y-62257870D01*
X115038553Y-55141209D02*
X115001425Y-55173237D01*
X169998304Y-90356014D02*
X169970070Y-90396103D01*
X150283351Y-27998796D02*
X150234321Y-28000000D01*
X145796605Y-90043737D02*
X145785862Y-89995895D01*
X150789347Y-53568362D02*
X150829436Y-53596595D01*
X145777479Y-89947583D02*
X145771477Y-89898919D01*
X115366666Y-88799012D02*
X115366666Y-89800987D01*
X119267747Y-62395189D02*
X119219082Y-62389187D01*
X146059267Y-90507399D02*
X146025456Y-90471887D01*
X182037229Y-90603404D02*
X181998574Y-90573237D01*
X145825064Y-25662447D02*
X145842711Y-25616699D01*
X182583314Y-53401203D02*
X182632345Y-53400000D01*
X177877070Y-55370060D02*
X177829228Y-55380804D01*
X173531907Y-90573237D02*
X173494779Y-90541209D01*
X173284627Y-27471925D02*
X173262581Y-27428127D01*
X114514250Y-62389187D02*
X114465585Y-62395189D01*
X170147470Y-61595895D02*
X170136727Y-61643737D01*
X181860096Y-90434758D02*
X181829929Y-90396103D01*
X190983300Y-90723955D02*
X190937552Y-90741602D01*
X119029113Y-60458397D02*
X119075672Y-60443016D01*
X142322681Y-62231637D02*
X142281255Y-62257870D01*
X114657660Y-90756983D02*
X114610403Y-90770060D01*
X178105258Y-90682039D02*
X178061460Y-90704085D01*
X123389347Y-55231637D02*
X123347921Y-55257870D01*
X178147921Y-55257870D02*
X178105258Y-55282039D01*
X169638591Y-27882039D02*
X169594794Y-27904085D01*
X123832129Y-54450018D02*
X123828522Y-54498919D01*
X154850032Y-62323955D02*
X154805205Y-62304085D01*
X151190316Y-25709005D02*
X151203394Y-25756262D01*
X119365678Y-25000000D02*
X122834321Y-25000000D01*
X170048705Y-27471925D02*
X170024537Y-27514588D01*
X150234321Y-87800000D02*
X150283351Y-87801203D01*
X177877070Y-90770060D02*
X177829228Y-90780804D01*
X154942339Y-55356983D02*
X154895780Y-55341602D01*
X150905220Y-53658790D02*
X150940732Y-53692600D01*
X115347470Y-25804104D02*
X115355853Y-25852416D01*
X173171477Y-61498919D02*
X173167870Y-61450018D01*
X181652529Y-25804104D02*
X181663272Y-25756262D01*
X154561446Y-62141209D02*
X154525933Y-62107399D01*
X154291731Y-25662447D02*
X154309377Y-25616699D01*
X151064971Y-90356014D02*
X151036737Y-90396103D01*
X155232345Y-90800000D02*
X155183314Y-90798796D01*
X173531907Y-27773237D02*
X173494779Y-27741209D01*
X123347921Y-53542129D02*
X123389347Y-53568362D01*
X123305258Y-55282039D02*
X123261460Y-55304085D01*
X127637438Y-60419195D02*
X127685749Y-60410812D01*
X174067747Y-55395189D02*
X174019082Y-55389187D01*
X182295780Y-60458397D02*
X182342339Y-60443016D01*
X118625456Y-90471887D02*
X118593429Y-90434758D01*
X178515372Y-88328074D02*
X178537418Y-88371872D01*
X115290622Y-27383300D02*
X115270751Y-27428127D01*
X181775462Y-54914588D02*
X181751294Y-54871925D01*
X169362561Y-53419195D02*
X169410403Y-53429939D01*
X150868092Y-88026762D02*
X150905220Y-88058790D01*
X146765678Y-28000000D02*
X146716648Y-27998796D01*
X150829436Y-62203404D02*
X150789347Y-62231637D01*
X154850032Y-90723955D02*
X154805205Y-90704085D01*
X118366666Y-89800987D02*
X118366666Y-88799012D01*
X127161446Y-25258790D02*
X127198574Y-25226762D01*
X169457660Y-60443016D02*
X169504219Y-60458397D01*
X181729248Y-25571872D02*
X181751294Y-25528074D01*
X105803896Y-60596595D02*
X105843985Y-60568362D01*
X126852529Y-88604104D02*
X126863272Y-88556262D01*
X105885411Y-55257870D02*
X105843985Y-55231637D01*
X126844146Y-61252416D02*
X126852529Y-61204104D01*
X154429929Y-61996103D02*
X154401695Y-61956014D01*
X178491203Y-88285411D02*
X178515372Y-88328074D01*
X127589596Y-62370060D02*
X127542339Y-62356983D01*
X118894741Y-53517960D02*
X118938539Y-53495914D01*
X142747470Y-89995895D02*
X142736727Y-90043737D01*
X169874066Y-53692600D02*
X169907876Y-53728112D01*
X181634536Y-61450018D02*
X181633333Y-61400987D01*
X181709377Y-61016699D02*
X181729248Y-60971872D01*
X126852529Y-54595895D02*
X126844146Y-54547583D01*
X123636737Y-27596103D02*
X123606570Y-27634758D01*
X150332252Y-55395189D02*
X150283351Y-55398796D01*
X190698919Y-25004810D02*
X190747583Y-25010812D01*
X146338539Y-27904085D02*
X146294741Y-27882039D01*
X118396605Y-61643737D02*
X118385862Y-61595895D01*
X154429929Y-90396103D02*
X154401695Y-90356014D01*
X118425064Y-25662447D02*
X118442711Y-25616699D01*
X123832129Y-25949981D02*
X123833333Y-25999012D01*
X126929248Y-90228127D02*
X126909377Y-90183300D01*
X190890994Y-90756983D02*
X190843737Y-90770060D01*
X142362770Y-53596595D02*
X142401425Y-53626762D01*
X173829113Y-25058397D02*
X173875672Y-25043016D01*
X123505220Y-88058790D02*
X123540732Y-88092600D01*
X123574543Y-53728112D02*
X123606570Y-53765241D01*
X145767870Y-89850018D02*
X145766666Y-89800987D01*
X169410403Y-25029939D02*
X169457660Y-25043016D01*
X118409683Y-54109005D02*
X118425064Y-54062447D01*
X191373237Y-60765241D02*
X191403404Y-60803896D01*
X154244146Y-61252416D02*
X154252529Y-61204104D01*
X123468092Y-25226762D02*
X123505220Y-25258790D01*
X141865585Y-25004810D02*
X141914250Y-25010812D01*
X169362561Y-90780804D02*
X169314250Y-90789187D01*
X169970070Y-88203896D02*
X169998304Y-88243985D01*
X150747921Y-87942129D02*
X150789347Y-87968362D01*
X150705258Y-27882039D02*
X150661460Y-27904085D01*
X127277318Y-62231637D02*
X127237229Y-62203404D01*
X169594794Y-27904085D02*
X169549967Y-27923955D01*
X181663272Y-54643737D02*
X181652529Y-54595895D01*
X154805205Y-87895914D02*
X154850032Y-87876044D01*
X123216633Y-27923955D02*
X123170886Y-27941602D01*
X154637229Y-87996595D02*
X154677318Y-87968362D01*
X154401695Y-25443985D02*
X154429929Y-25403896D01*
X127198574Y-55173237D02*
X127161446Y-55141209D01*
X182389596Y-60429939D02*
X182437438Y-60419195D01*
X173225064Y-88462447D02*
X173242711Y-88416699D01*
X169762770Y-87996595D02*
X169801425Y-88026762D01*
X151091203Y-88285411D02*
X151115372Y-88328074D01*
X169838553Y-90541209D02*
X169801425Y-90573237D01*
X106204104Y-60419195D02*
X106252416Y-60410812D01*
X115347470Y-27195895D02*
X115336727Y-27243737D01*
X106062447Y-90741602D02*
X106016699Y-90723955D01*
X142010403Y-25029939D02*
X142057660Y-25043016D01*
X142104219Y-27941602D02*
X142057660Y-27956983D01*
X141816685Y-25001203D02*
X141865585Y-25004810D01*
X146429113Y-53458397D02*
X146475672Y-53443016D01*
X191523955Y-61016699D02*
X191541602Y-61062447D01*
X182389596Y-27970060D02*
X182342339Y-27956983D01*
X154238144Y-54301080D02*
X154244146Y-54252416D01*
X127734414Y-60404810D02*
X127783314Y-60401203D01*
X173185862Y-89995895D02*
X173177479Y-89947583D01*
X154718744Y-87942129D02*
X154761408Y-87917960D01*
X142723649Y-88509005D02*
X142736727Y-88556262D01*
X115323649Y-88509005D02*
X115336727Y-88556262D01*
X173694741Y-60517960D02*
X173738539Y-60495914D01*
X105728112Y-90541209D02*
X105692600Y-90507399D01*
M02*
