%TF.GenerationSoftware,KiCad,Pcbnew,9.0.5*%
%TF.CreationDate,2025-11-15T17:58:45+00:00*%
%TF.ProjectId,pmic_panel,706d6963-5f70-4616-9e65-6c2e6b696361,rev?*%
%TF.SameCoordinates,Original*%
%TF.FileFunction,Legend,Bot*%
%TF.FilePolarity,Positive*%
%FSLAX46Y46*%
G04 Gerber Fmt 4.6, Leading zero omitted, Abs format (unit mm)*
G04 Created by KiCad (PCBNEW 9.0.5) date 2025-11-15 17:58:45*
%MOMM*%
%LPD*%
G01*
G04 APERTURE LIST*
G04 Aperture macros list*
%AMRoundRect*
0 Rectangle with rounded corners*
0 $1 Rounding radius*
0 $2 $3 $4 $5 $6 $7 $8 $9 X,Y pos of 4 corners*
0 Add a 4 corners polygon primitive as box body*
4,1,4,$2,$3,$4,$5,$6,$7,$8,$9,$2,$3,0*
0 Add four circle primitives for the rounded corners*
1,1,$1+$1,$2,$3*
1,1,$1+$1,$4,$5*
1,1,$1+$1,$6,$7*
1,1,$1+$1,$8,$9*
0 Add four rect primitives between the rounded corners*
20,1,$1+$1,$2,$3,$4,$5,0*
20,1,$1+$1,$4,$5,$6,$7,0*
20,1,$1+$1,$6,$7,$8,$9,0*
20,1,$1+$1,$8,$9,$2,$3,0*%
G04 Aperture macros list end*
%ADD10C,0.500000*%
%ADD11RoundRect,0.120000X-0.880000X-0.280000X0.880000X-0.280000X0.880000X0.280000X-0.880000X0.280000X0*%
%ADD12R,4.546000X4.546000*%
%ADD13C,1.500000*%
%ADD14C,1.000000*%
G04 APERTURE END LIST*
%LPC*%
D10*
%TO.C,KiKit_MB_23_2*%
X172666666Y-87600000D03*
%TD*%
%TO.C,KiKit_MB_14_4*%
X126333333Y-62600000D03*
%TD*%
D11*
%TO.C,U2*%
X108400000Y-64940000D03*
X108400000Y-66210000D03*
X108400000Y-67480000D03*
X108400000Y-68750000D03*
X108400000Y-70020000D03*
X108400000Y-71290000D03*
X108400000Y-72560000D03*
X108400000Y-73830000D03*
X108400000Y-76370000D03*
X108400000Y-77640000D03*
X108400000Y-78910000D03*
X108400000Y-80180000D03*
X108400000Y-81450000D03*
X108400000Y-82720000D03*
X108400000Y-83990000D03*
X108400000Y-85260000D03*
X133800000Y-85260000D03*
X133800000Y-83990000D03*
X133800000Y-82720000D03*
X133800000Y-81450000D03*
X133800000Y-80180000D03*
X133800000Y-78910000D03*
X133800000Y-77640000D03*
X133800000Y-76370000D03*
X133800000Y-75100000D03*
X133800000Y-73830000D03*
X133800000Y-72560000D03*
X133800000Y-71290000D03*
X133800000Y-70020000D03*
X133800000Y-68750000D03*
X133800000Y-67480000D03*
X133800000Y-66210000D03*
X133800000Y-64940000D03*
D12*
X121100000Y-75100000D03*
%TD*%
D10*
%TO.C,KiKit_MB_31_2*%
X108400000Y-91300000D03*
%TD*%
%TO.C,KiKit_MB_29_6*%
X108400000Y-24500000D03*
%TD*%
%TO.C,KiKit_MB_2_5*%
X127333333Y-28200000D03*
%TD*%
D11*
%TO.C,U2*%
X108400000Y-30540000D03*
X108400000Y-31810000D03*
X108400000Y-33080000D03*
X108400000Y-34350000D03*
X108400000Y-35620000D03*
X108400000Y-36890000D03*
X108400000Y-38160000D03*
X108400000Y-39430000D03*
X108400000Y-41970000D03*
X108400000Y-43240000D03*
X108400000Y-44510000D03*
X108400000Y-45780000D03*
X108400000Y-47050000D03*
X108400000Y-48320000D03*
X108400000Y-49590000D03*
X108400000Y-50860000D03*
X133800000Y-50860000D03*
X133800000Y-49590000D03*
X133800000Y-48320000D03*
X133800000Y-47050000D03*
X133800000Y-45780000D03*
X133800000Y-44510000D03*
X133800000Y-43240000D03*
X133800000Y-41970000D03*
X133800000Y-40700000D03*
X133800000Y-39430000D03*
X133800000Y-38160000D03*
X133800000Y-36890000D03*
X133800000Y-35620000D03*
X133800000Y-34350000D03*
X133800000Y-33080000D03*
X133800000Y-31810000D03*
X133800000Y-30540000D03*
D12*
X121100000Y-40700000D03*
%TD*%
D10*
%TO.C,KiKit_MB_27_4*%
X162200000Y-57900000D03*
%TD*%
%TO.C,KiKit_MB_1_4*%
X117866667Y-28200000D03*
%TD*%
%TO.C,KiKit_MB_8_1*%
X154733333Y-53200000D03*
%TD*%
%TO.C,KiKit_MB_12_4*%
X179133333Y-53200000D03*
%TD*%
D13*
%TO.C,KiKit_TO_1*%
X102900000Y-22500000D03*
%TD*%
D10*
%TO.C,KiKit_MB_21_4*%
X172666666Y-62600000D03*
%TD*%
%TO.C,KiKit_MB_36_6*%
X196100000Y-87800000D03*
%TD*%
%TO.C,KiKit_MB_4_1*%
X127333333Y-53200000D03*
%TD*%
%TO.C,KiKit_MB_13_1*%
X114866667Y-62600000D03*
%TD*%
%TO.C,KiKit_MB_31_5*%
X108400000Y-94300000D03*
%TD*%
%TO.C,KiKit_MB_23_5*%
X169666666Y-87600000D03*
%TD*%
D11*
%TO.C,U2*%
X163200000Y-30540000D03*
X163200000Y-31810000D03*
X163200000Y-33080000D03*
X163200000Y-34350000D03*
X163200000Y-35620000D03*
X163200000Y-36890000D03*
X163200000Y-38160000D03*
X163200000Y-39430000D03*
X163200000Y-41970000D03*
X163200000Y-43240000D03*
X163200000Y-44510000D03*
X163200000Y-45780000D03*
X163200000Y-47050000D03*
X163200000Y-48320000D03*
X163200000Y-49590000D03*
X163200000Y-50860000D03*
X188600000Y-50860000D03*
X188600000Y-49590000D03*
X188600000Y-48320000D03*
X188600000Y-47050000D03*
X188600000Y-45780000D03*
X188600000Y-44510000D03*
X188600000Y-43240000D03*
X188600000Y-41970000D03*
X188600000Y-40700000D03*
X188600000Y-39430000D03*
X188600000Y-38160000D03*
X188600000Y-36890000D03*
X188600000Y-35620000D03*
X188600000Y-34350000D03*
X188600000Y-33080000D03*
X188600000Y-31810000D03*
X188600000Y-30540000D03*
D12*
X175900000Y-40700000D03*
%TD*%
D10*
%TO.C,KiKit_MB_32_4*%
X188600000Y-93300000D03*
%TD*%
%TO.C,KiKit_MB_11_1*%
X173666666Y-53200000D03*
%TD*%
%TO.C,KiKit_MB_7_4*%
X143266666Y-53200000D03*
%TD*%
%TO.C,KiKit_MB_16_3*%
X125333333Y-87600000D03*
%TD*%
%TO.C,KiKit_MB_17_4*%
X145266666Y-62600000D03*
%TD*%
%TO.C,KiKit_MB_34_3*%
X101900000Y-87800000D03*
%TD*%
D13*
%TO.C,KiKit_TO_2*%
X194100000Y-22500000D03*
%TD*%
D10*
%TO.C,KiKit_MB_20_1*%
X154733333Y-87600000D03*
%TD*%
%TO.C,KiKit_MB_28_4*%
X188600000Y-57900000D03*
%TD*%
%TO.C,KiKit_MB_4_3*%
X125333333Y-53200000D03*
%TD*%
%TO.C,KiKit_MB_16_5*%
X123333333Y-87600000D03*
%TD*%
%TO.C,KiKit_MB_4_4*%
X124333333Y-53200000D03*
%TD*%
%TO.C,KiKit_MB_23_4*%
X170666666Y-87600000D03*
%TD*%
%TO.C,KiKit_MB_35_6*%
X196100000Y-28000000D03*
%TD*%
%TO.C,KiKit_MB_36_2*%
X192100000Y-87800000D03*
%TD*%
%TO.C,KiKit_MB_34_4*%
X102900000Y-87800000D03*
%TD*%
%TO.C,KiKit_MB_7_2*%
X145266666Y-53200000D03*
%TD*%
%TO.C,KiKit_MB_32_6*%
X188600000Y-95300000D03*
%TD*%
%TO.C,KiKit_MB_26_6*%
X134800000Y-59900000D03*
%TD*%
%TO.C,KiKit_MB_10_1*%
X178133333Y-28200000D03*
%TD*%
%TO.C,KiKit_MB_10_2*%
X179133333Y-28200000D03*
%TD*%
%TO.C,KiKit_MB_19_5*%
X142266666Y-87600000D03*
%TD*%
%TO.C,KiKit_MB_19_2*%
X145266666Y-87600000D03*
%TD*%
%TO.C,KiKit_MB_7_5*%
X142266666Y-53200000D03*
%TD*%
%TO.C,KiKit_MB_17_2*%
X143266666Y-62600000D03*
%TD*%
%TO.C,KiKit_MB_14_2*%
X124333333Y-62600000D03*
%TD*%
%TO.C,KiKit_MB_28_5*%
X188600000Y-58900000D03*
%TD*%
%TO.C,KiKit_MB_10_5*%
X182133333Y-28200000D03*
%TD*%
D11*
%TO.C,U2*%
X163200000Y-64940000D03*
X163200000Y-66210000D03*
X163200000Y-67480000D03*
X163200000Y-68750000D03*
X163200000Y-70020000D03*
X163200000Y-71290000D03*
X163200000Y-72560000D03*
X163200000Y-73830000D03*
X163200000Y-76370000D03*
X163200000Y-77640000D03*
X163200000Y-78910000D03*
X163200000Y-80180000D03*
X163200000Y-81450000D03*
X163200000Y-82720000D03*
X163200000Y-83990000D03*
X163200000Y-85260000D03*
X188600000Y-85260000D03*
X188600000Y-83990000D03*
X188600000Y-82720000D03*
X188600000Y-81450000D03*
X188600000Y-80180000D03*
X188600000Y-78910000D03*
X188600000Y-77640000D03*
X188600000Y-76370000D03*
X188600000Y-75100000D03*
X188600000Y-73830000D03*
X188600000Y-72560000D03*
X188600000Y-71290000D03*
X188600000Y-70020000D03*
X188600000Y-68750000D03*
X188600000Y-67480000D03*
X188600000Y-66210000D03*
X188600000Y-64940000D03*
D12*
X175900000Y-75100000D03*
%TD*%
D10*
%TO.C,KiKit_MB_12_3*%
X180133333Y-53200000D03*
%TD*%
%TO.C,KiKit_MB_33_2*%
X100900000Y-28000000D03*
%TD*%
%TO.C,KiKit_MB_21_1*%
X169666666Y-62600000D03*
%TD*%
%TO.C,KiKit_MB_15_1*%
X118866667Y-87600000D03*
%TD*%
%TO.C,KiKit_MB_34_5*%
X103900000Y-87800000D03*
%TD*%
%TO.C,KiKit_MB_6_1*%
X150733333Y-28200000D03*
%TD*%
%TO.C,KiKit_MB_22_3*%
X180133333Y-62600000D03*
%TD*%
%TO.C,KiKit_MB_32_5*%
X188600000Y-94300000D03*
%TD*%
%TO.C,KiKit_MB_27_5*%
X162200000Y-56900000D03*
%TD*%
%TO.C,KiKit_MB_28_6*%
X188600000Y-59900000D03*
%TD*%
%TO.C,KiKit_MB_20_3*%
X152066666Y-87600000D03*
%TD*%
%TO.C,KiKit_MB_19_3*%
X144266666Y-87600000D03*
%TD*%
%TO.C,KiKit_MB_11_4*%
X170666666Y-53200000D03*
%TD*%
%TO.C,KiKit_MB_5_2*%
X143266666Y-28200000D03*
%TD*%
%TO.C,KiKit_MB_13_4*%
X117866667Y-62600000D03*
%TD*%
%TO.C,KiKit_MB_14_3*%
X125333333Y-62600000D03*
%TD*%
%TO.C,KiKit_MB_9_2*%
X170666666Y-28200000D03*
%TD*%
%TO.C,KiKit_MB_30_4*%
X188600000Y-22500000D03*
%TD*%
%TO.C,KiKit_MB_9_4*%
X172666666Y-28200000D03*
%TD*%
%TO.C,KiKit_MB_4_2*%
X126333333Y-53200000D03*
%TD*%
%TO.C,KiKit_MB_26_4*%
X134800000Y-57900000D03*
%TD*%
%TO.C,KiKit_MB_33_5*%
X103900000Y-28000000D03*
%TD*%
%TO.C,KiKit_MB_10_3*%
X180133333Y-28200000D03*
%TD*%
%TO.C,KiKit_MB_16_2*%
X126333333Y-87600000D03*
%TD*%
%TO.C,KiKit_MB_13_3*%
X116866667Y-62600000D03*
%TD*%
%TO.C,KiKit_MB_30_5*%
X188600000Y-23500000D03*
%TD*%
D13*
%TO.C,KiKit_TO_3*%
X102900000Y-93300000D03*
%TD*%
D10*
%TO.C,KiKit_MB_11_3*%
X171666666Y-53200000D03*
%TD*%
%TO.C,KiKit_MB_35_4*%
X194100000Y-28000000D03*
%TD*%
%TO.C,KiKit_MB_29_2*%
X108400000Y-20500000D03*
%TD*%
%TO.C,KiKit_MB_7_3*%
X144266666Y-53200000D03*
%TD*%
%TO.C,KiKit_MB_18_4*%
X154733333Y-62600000D03*
%TD*%
%TO.C,KiKit_MB_24_1*%
X182133333Y-87600000D03*
%TD*%
%TO.C,KiKit_MB_27_6*%
X162200000Y-55900000D03*
%TD*%
%TO.C,KiKit_MB_28_3*%
X188600000Y-56900000D03*
%TD*%
%TO.C,KiKit_MB_16_1*%
X127333333Y-87600000D03*
%TD*%
%TO.C,KiKit_MB_33_6*%
X104900000Y-28000000D03*
%TD*%
%TO.C,KiKit_MB_8_2*%
X153399999Y-53200000D03*
%TD*%
%TO.C,KiKit_MB_6_3*%
X153399999Y-28200000D03*
%TD*%
%TO.C,KiKit_MB_26_5*%
X134800000Y-58900000D03*
%TD*%
%TO.C,KiKit_MB_11_5*%
X169666666Y-53200000D03*
%TD*%
%TO.C,KiKit_MB_26_2*%
X134800000Y-55900000D03*
%TD*%
%TO.C,KiKit_MB_17_1*%
X142266666Y-62600000D03*
%TD*%
%TO.C,KiKit_MB_21_2*%
X170666666Y-62600000D03*
%TD*%
%TO.C,KiKit_MB_25_5*%
X108400000Y-58900000D03*
%TD*%
%TO.C,KiKit_MB_20_2*%
X153399999Y-87600000D03*
%TD*%
%TO.C,KiKit_MB_31_3*%
X108400000Y-92300000D03*
%TD*%
%TO.C,KiKit_MB_6_4*%
X154733333Y-28200000D03*
%TD*%
D11*
%TO.C,U2*%
X135800000Y-30540000D03*
X135800000Y-31810000D03*
X135800000Y-33080000D03*
X135800000Y-34350000D03*
X135800000Y-35620000D03*
X135800000Y-36890000D03*
X135800000Y-38160000D03*
X135800000Y-39430000D03*
X135800000Y-41970000D03*
X135800000Y-43240000D03*
X135800000Y-44510000D03*
X135800000Y-45780000D03*
X135800000Y-47050000D03*
X135800000Y-48320000D03*
X135800000Y-49590000D03*
X135800000Y-50860000D03*
X161200000Y-50860000D03*
X161200000Y-49590000D03*
X161200000Y-48320000D03*
X161200000Y-47050000D03*
X161200000Y-45780000D03*
X161200000Y-44510000D03*
X161200000Y-43240000D03*
X161200000Y-41970000D03*
X161200000Y-40700000D03*
X161200000Y-39430000D03*
X161200000Y-38160000D03*
X161200000Y-36890000D03*
X161200000Y-35620000D03*
X161200000Y-34350000D03*
X161200000Y-33080000D03*
X161200000Y-31810000D03*
X161200000Y-30540000D03*
D12*
X148500000Y-40700000D03*
%TD*%
D10*
%TO.C,KiKit_MB_20_4*%
X150733333Y-87600000D03*
%TD*%
%TO.C,KiKit_MB_36_3*%
X193100000Y-87800000D03*
%TD*%
%TO.C,KiKit_MB_15_4*%
X115866667Y-87600000D03*
%TD*%
%TO.C,KiKit_MB_18_1*%
X150733333Y-62600000D03*
%TD*%
%TO.C,KiKit_MB_12_1*%
X182133333Y-53200000D03*
%TD*%
%TO.C,KiKit_MB_35_2*%
X192100000Y-28000000D03*
%TD*%
%TO.C,KiKit_MB_24_2*%
X181133333Y-87600000D03*
%TD*%
%TO.C,KiKit_MB_4_5*%
X123333333Y-53200000D03*
%TD*%
%TO.C,KiKit_MB_24_5*%
X178133333Y-87600000D03*
%TD*%
%TO.C,KiKit_MB_3_3*%
X116866667Y-53200000D03*
%TD*%
%TO.C,KiKit_MB_19_1*%
X146266666Y-87600000D03*
%TD*%
%TO.C,KiKit_MB_1_2*%
X115866667Y-28200000D03*
%TD*%
D13*
%TO.C,KiKit_TO_4*%
X194100000Y-93300000D03*
%TD*%
D10*
%TO.C,KiKit_MB_26_3*%
X134800000Y-56900000D03*
%TD*%
%TO.C,KiKit_MB_14_1*%
X123333333Y-62600000D03*
%TD*%
%TO.C,KiKit_MB_15_2*%
X117866667Y-87600000D03*
%TD*%
%TO.C,KiKit_MB_3_4*%
X115866667Y-53200000D03*
%TD*%
%TO.C,KiKit_MB_9_1*%
X169666666Y-28200000D03*
%TD*%
%TO.C,KiKit_MB_21_5*%
X173666666Y-62600000D03*
%TD*%
%TO.C,KiKit_MB_18_2*%
X152066666Y-62600000D03*
%TD*%
%TO.C,KiKit_MB_33_3*%
X101900000Y-28000000D03*
%TD*%
%TO.C,KiKit_MB_6_2*%
X152066666Y-28200000D03*
%TD*%
%TO.C,KiKit_MB_22_1*%
X178133333Y-62600000D03*
%TD*%
%TO.C,KiKit_MB_16_4*%
X124333333Y-87600000D03*
%TD*%
%TO.C,KiKit_MB_25_3*%
X108400000Y-56900000D03*
%TD*%
%TO.C,KiKit_MB_21_3*%
X171666666Y-62600000D03*
%TD*%
%TO.C,KiKit_MB_34_6*%
X104900000Y-87800000D03*
%TD*%
%TO.C,KiKit_MB_14_5*%
X127333333Y-62600000D03*
%TD*%
%TO.C,KiKit_MB_30_3*%
X188600000Y-21500000D03*
%TD*%
%TO.C,KiKit_MB_31_6*%
X108400000Y-95300000D03*
%TD*%
%TO.C,KiKit_MB_30_6*%
X188600000Y-24500000D03*
%TD*%
%TO.C,KiKit_MB_3_2*%
X117866667Y-53200000D03*
%TD*%
%TO.C,KiKit_MB_13_2*%
X115866667Y-62600000D03*
%TD*%
%TO.C,KiKit_MB_15_5*%
X114866667Y-87600000D03*
%TD*%
%TO.C,KiKit_MB_13_5*%
X118866667Y-62600000D03*
%TD*%
%TO.C,KiKit_MB_29_5*%
X108400000Y-23500000D03*
%TD*%
%TO.C,KiKit_MB_23_3*%
X171666666Y-87600000D03*
%TD*%
%TO.C,KiKit_MB_2_1*%
X123333333Y-28200000D03*
%TD*%
%TO.C,KiKit_MB_7_1*%
X146266666Y-53200000D03*
%TD*%
%TO.C,KiKit_MB_33_4*%
X102900000Y-28000000D03*
%TD*%
%TO.C,KiKit_MB_32_2*%
X188600000Y-91300000D03*
%TD*%
%TO.C,KiKit_MB_5_1*%
X142266666Y-28200000D03*
%TD*%
%TO.C,KiKit_MB_29_3*%
X108400000Y-21500000D03*
%TD*%
%TO.C,KiKit_MB_24_3*%
X180133333Y-87600000D03*
%TD*%
%TO.C,KiKit_MB_2_3*%
X125333333Y-28200000D03*
%TD*%
D11*
%TO.C,U2*%
X135800000Y-64940000D03*
X135800000Y-66210000D03*
X135800000Y-67480000D03*
X135800000Y-68750000D03*
X135800000Y-70020000D03*
X135800000Y-71290000D03*
X135800000Y-72560000D03*
X135800000Y-73830000D03*
X135800000Y-76370000D03*
X135800000Y-77640000D03*
X135800000Y-78910000D03*
X135800000Y-80180000D03*
X135800000Y-81450000D03*
X135800000Y-82720000D03*
X135800000Y-83990000D03*
X135800000Y-85260000D03*
X161200000Y-85260000D03*
X161200000Y-83990000D03*
X161200000Y-82720000D03*
X161200000Y-81450000D03*
X161200000Y-80180000D03*
X161200000Y-78910000D03*
X161200000Y-77640000D03*
X161200000Y-76370000D03*
X161200000Y-75100000D03*
X161200000Y-73830000D03*
X161200000Y-72560000D03*
X161200000Y-71290000D03*
X161200000Y-70020000D03*
X161200000Y-68750000D03*
X161200000Y-67480000D03*
X161200000Y-66210000D03*
X161200000Y-64940000D03*
D12*
X148500000Y-75100000D03*
%TD*%
D10*
%TO.C,KiKit_MB_22_4*%
X181133333Y-62600000D03*
%TD*%
%TO.C,KiKit_MB_27_2*%
X162200000Y-59900000D03*
%TD*%
%TO.C,KiKit_MB_3_5*%
X114866667Y-53200000D03*
%TD*%
%TO.C,KiKit_MB_25_6*%
X108400000Y-59900000D03*
%TD*%
%TO.C,KiKit_MB_12_2*%
X181133333Y-53200000D03*
%TD*%
%TO.C,KiKit_MB_5_5*%
X146266666Y-28200000D03*
%TD*%
%TO.C,KiKit_MB_3_1*%
X118866667Y-53200000D03*
%TD*%
%TO.C,KiKit_MB_27_3*%
X162200000Y-58900000D03*
%TD*%
%TO.C,KiKit_MB_28_2*%
X188600000Y-55900000D03*
%TD*%
%TO.C,KiKit_MB_24_4*%
X179133333Y-87600000D03*
%TD*%
%TO.C,KiKit_MB_1_1*%
X114866667Y-28200000D03*
%TD*%
%TO.C,KiKit_MB_11_2*%
X172666666Y-53200000D03*
%TD*%
%TO.C,KiKit_MB_15_3*%
X116866667Y-87600000D03*
%TD*%
%TO.C,KiKit_MB_31_4*%
X108400000Y-93300000D03*
%TD*%
%TO.C,KiKit_MB_30_2*%
X188600000Y-20500000D03*
%TD*%
%TO.C,KiKit_MB_35_3*%
X193100000Y-28000000D03*
%TD*%
%TO.C,KiKit_MB_22_2*%
X179133333Y-62600000D03*
%TD*%
%TO.C,KiKit_MB_9_3*%
X171666666Y-28200000D03*
%TD*%
%TO.C,KiKit_MB_25_4*%
X108400000Y-57900000D03*
%TD*%
%TO.C,KiKit_MB_32_3*%
X188600000Y-92300000D03*
%TD*%
%TO.C,KiKit_MB_19_4*%
X143266666Y-87600000D03*
%TD*%
%TO.C,KiKit_MB_29_4*%
X108400000Y-22500000D03*
%TD*%
%TO.C,KiKit_MB_8_3*%
X152066666Y-53200000D03*
%TD*%
%TO.C,KiKit_MB_9_5*%
X173666666Y-28200000D03*
%TD*%
%TO.C,KiKit_MB_35_5*%
X195100000Y-28000000D03*
%TD*%
%TO.C,KiKit_MB_1_3*%
X116866667Y-28200000D03*
%TD*%
%TO.C,KiKit_MB_1_5*%
X118866667Y-28200000D03*
%TD*%
%TO.C,KiKit_MB_12_5*%
X178133333Y-53200000D03*
%TD*%
%TO.C,KiKit_MB_36_5*%
X195100000Y-87800000D03*
%TD*%
%TO.C,KiKit_MB_23_1*%
X173666666Y-87600000D03*
%TD*%
%TO.C,KiKit_MB_10_4*%
X181133333Y-28200000D03*
%TD*%
%TO.C,KiKit_MB_5_3*%
X144266666Y-28200000D03*
%TD*%
%TO.C,KiKit_MB_34_2*%
X100900000Y-87800000D03*
%TD*%
%TO.C,KiKit_MB_17_3*%
X144266666Y-62600000D03*
%TD*%
%TO.C,KiKit_MB_25_2*%
X108400000Y-55900000D03*
%TD*%
%TO.C,KiKit_MB_36_4*%
X194100000Y-87800000D03*
%TD*%
%TO.C,KiKit_MB_2_4*%
X126333333Y-28200000D03*
%TD*%
%TO.C,KiKit_MB_17_5*%
X146266666Y-62600000D03*
%TD*%
%TO.C,KiKit_MB_2_2*%
X124333333Y-28200000D03*
%TD*%
%TO.C,KiKit_MB_5_4*%
X145266666Y-28200000D03*
%TD*%
%TO.C,KiKit_MB_22_5*%
X182133333Y-62600000D03*
%TD*%
%TO.C,KiKit_MB_18_3*%
X153399999Y-62600000D03*
%TD*%
%TO.C,KiKit_MB_8_4*%
X150733333Y-53200000D03*
%TD*%
D14*
%TO.C,KiKit_FID_B_2*%
X191600000Y-22500000D03*
%TD*%
%TO.C,KiKit_FID_B_3*%
X105400000Y-93300000D03*
%TD*%
%TO.C,KiKit_FID_B_1*%
X105400000Y-22500000D03*
%TD*%
%LPD*%
M02*
