M48
; DRILL file {KiCad 9.0.5} date 2025-11-15T17:58:49+0000
; FORMAT={-:-/ absolute / metric / decimal}
; #@! TF.CreationDate,2025-11-15T17:58:49+00:00
; #@! TF.GenerationSoftware,Kicad,Pcbnew,9.0.5
; #@! TF.FileFunction,NonPlated,1,4,NPTH
FMAT,2
METRIC
; #@! TA.AperFunction,NonPlated,NPTH,ComponentDrill
T1C0.500
; #@! TA.AperFunction,NonPlated,NPTH,ComponentDrill
T2C1.500
%
G90
G05
T1
X100.9Y-28.0
X100.9Y-87.8
X101.9Y-28.0
X101.9Y-87.8
X102.9Y-28.0
X102.9Y-87.8
X103.9Y-28.0
X103.9Y-87.8
X104.9Y-28.0
X104.9Y-87.8
X108.4Y-20.5
X108.4Y-21.5
X108.4Y-22.5
X108.4Y-23.5
X108.4Y-24.5
X108.4Y-55.9
X108.4Y-56.9
X108.4Y-57.9
X108.4Y-58.9
X108.4Y-59.9
X108.4Y-91.3
X108.4Y-92.3
X108.4Y-93.3
X108.4Y-94.3
X108.4Y-95.3
X114.867Y-28.2
X114.867Y-53.2
X114.867Y-62.6
X114.867Y-87.6
X115.867Y-28.2
X115.867Y-53.2
X115.867Y-62.6
X115.867Y-87.6
X116.867Y-28.2
X116.867Y-53.2
X116.867Y-62.6
X116.867Y-87.6
X117.867Y-28.2
X117.867Y-53.2
X117.867Y-62.6
X117.867Y-87.6
X118.867Y-28.2
X118.867Y-53.2
X118.867Y-62.6
X118.867Y-87.6
X123.333Y-28.2
X123.333Y-53.2
X123.333Y-62.6
X123.333Y-87.6
X124.333Y-28.2
X124.333Y-53.2
X124.333Y-62.6
X124.333Y-87.6
X125.333Y-28.2
X125.333Y-53.2
X125.333Y-62.6
X125.333Y-87.6
X126.333Y-28.2
X126.333Y-53.2
X126.333Y-62.6
X126.333Y-87.6
X127.333Y-28.2
X127.333Y-53.2
X127.333Y-62.6
X127.333Y-87.6
X134.8Y-55.9
X134.8Y-56.9
X134.8Y-57.9
X134.8Y-58.9
X134.8Y-59.9
X142.267Y-28.2
X142.267Y-53.2
X142.267Y-62.6
X142.267Y-87.6
X143.267Y-28.2
X143.267Y-53.2
X143.267Y-62.6
X143.267Y-87.6
X144.267Y-28.2
X144.267Y-53.2
X144.267Y-62.6
X144.267Y-87.6
X145.267Y-28.2
X145.267Y-53.2
X145.267Y-62.6
X145.267Y-87.6
X146.267Y-28.2
X146.267Y-53.2
X146.267Y-62.6
X146.267Y-87.6
X150.733Y-28.2
X150.733Y-53.2
X150.733Y-62.6
X150.733Y-87.6
X152.067Y-28.2
X152.067Y-53.2
X152.067Y-62.6
X152.067Y-87.6
X153.4Y-28.2
X153.4Y-53.2
X153.4Y-62.6
X153.4Y-87.6
X154.733Y-28.2
X154.733Y-53.2
X154.733Y-62.6
X154.733Y-87.6
X162.2Y-55.9
X162.2Y-56.9
X162.2Y-57.9
X162.2Y-58.9
X162.2Y-59.9
X169.667Y-28.2
X169.667Y-53.2
X169.667Y-62.6
X169.667Y-87.6
X170.667Y-28.2
X170.667Y-53.2
X170.667Y-62.6
X170.667Y-87.6
X171.667Y-28.2
X171.667Y-53.2
X171.667Y-62.6
X171.667Y-87.6
X172.667Y-28.2
X172.667Y-53.2
X172.667Y-62.6
X172.667Y-87.6
X173.667Y-28.2
X173.667Y-53.2
X173.667Y-62.6
X173.667Y-87.6
X178.133Y-28.2
X178.133Y-53.2
X178.133Y-62.6
X178.133Y-87.6
X179.133Y-28.2
X179.133Y-53.2
X179.133Y-62.6
X179.133Y-87.6
X180.133Y-28.2
X180.133Y-53.2
X180.133Y-62.6
X180.133Y-87.6
X181.133Y-28.2
X181.133Y-53.2
X181.133Y-62.6
X181.133Y-87.6
X182.133Y-28.2
X182.133Y-53.2
X182.133Y-62.6
X182.133Y-87.6
X188.6Y-20.5
X188.6Y-21.5
X188.6Y-22.5
X188.6Y-23.5
X188.6Y-24.5
X188.6Y-55.9
X188.6Y-56.9
X188.6Y-57.9
X188.6Y-58.9
X188.6Y-59.9
X188.6Y-91.3
X188.6Y-92.3
X188.6Y-93.3
X188.6Y-94.3
X188.6Y-95.3
X192.1Y-28.0
X192.1Y-87.8
X193.1Y-28.0
X193.1Y-87.8
X194.1Y-28.0
X194.1Y-87.8
X195.1Y-28.0
X195.1Y-87.8
X196.1Y-28.0
X196.1Y-87.8
T2
X102.9Y-22.5
X102.9Y-93.3
X194.1Y-22.5
X194.1Y-93.3
M30
