M48
; DRILL file {KiCad 9.0.5} date 2026-02-23T17:17:39+0000
; FORMAT={-:-/ absolute / metric / decimal}
; #@! TF.CreationDate,2026-02-23T17:17:39+00:00
; #@! TF.GenerationSoftware,Kicad,Pcbnew,9.0.5
; #@! TF.FileFunction,Plated,1,2,PTH
FMAT,2
METRIC
; #@! TA.AperFunction,Plated,PTH,ViaDrill
T1C0.400
; #@! TA.AperFunction,Plated,PTH,ComponentDrill
T2C0.900
; #@! TA.AperFunction,Plated,PTH,ComponentDrill
T3C1.000
; #@! TA.AperFunction,Plated,PTH,ComponentDrill
T4C1.500
%
G90
G05
T1
X92.456Y-95.377
X92.456Y-113.284
X104.267Y-91.313
X113.03Y-95.377
X114.681Y-108.077
X115.951Y-106.553
X117.729Y-99.949
X118.745Y-105.156
X119.507Y-107.442
X120.015Y-99.695
X120.142Y-130.048
X121.539Y-106.934
X126.365Y-106.807
X127.889Y-96.647
X129.54Y-118.618
X129.667Y-69.469
X129.794Y-76.581
X129.794Y-90.551
X130.048Y-105.918
X130.683Y-94.234
X130.683Y-99.568
X131.064Y-90.17
X131.572Y-75.184
X131.572Y-118.745
X131.699Y-93.091
X131.826Y-98.679
X131.953Y-87.63
X134.239Y-101.092
X134.366Y-69.596
X136.144Y-93.853
X136.144Y-100.457
X137.16Y-93.091
X137.414Y-73.279
X137.922Y-92.456
X138.938Y-105.791
X139.573Y-106.807
X140.335Y-91.186
X140.462Y-107.569
X141.351Y-108.331
X141.732Y-113.157
X141.732Y-114.808
X142.494Y-95.504
X142.494Y-115.697
X143.002Y-77.216
X143.129Y-101.219
X143.256Y-115.062
X143.51Y-81.788
X143.891Y-80.772
X143.891Y-123.317
X144.018Y-117.983
X144.272Y-95.377
X144.907Y-117.094
X145.415Y-105.664
X145.542Y-87.376
X146.05Y-64.008
X146.177Y-95.504
X146.304Y-107.061
X146.685Y-79.756
X146.685Y-124.587
X146.812Y-129.032
X147.32Y-105.156
X148.082Y-87.376
X148.336Y-123.317
X148.59Y-109.093
X148.717Y-95.504
X148.971Y-65.405
X148.971Y-83.439
X149.098Y-81.788
X149.098Y-105.029
X149.987Y-67.564
X149.987Y-95.504
X150.622Y-87.376
X150.876Y-103.632
X150.876Y-114.681
X150.876Y-130.683
X151.384Y-113.665
X151.384Y-127.508
X151.638Y-129.794
X151.765Y-80.391
X151.892Y-85.979
X152.146Y-103.251
X152.527Y-95.631
X152.654Y-99.441
X152.654Y-104.902
X153.289Y-86.868
X154.051Y-99.441
X154.305Y-80.899
X154.813Y-86.868
X154.813Y-114.935
X154.813Y-120.269
X155.702Y-99.568
X156.337Y-113.538
X156.337Y-121.158
X156.464Y-76.962
X157.353Y-80.899
X157.353Y-90.17
X157.734Y-85.979
X157.861Y-108.331
X158.115Y-128.524
X159.131Y-112.649
X159.258Y-123.19
X160.02Y-105.41
X161.417Y-92.202
X161.925Y-111.379
X162.179Y-115.697
X162.306Y-93.091
X162.814Y-122.174
X163.322Y-69.723
X163.83Y-117.983
X164.846Y-118.872
X164.973Y-101.219
X165.227Y-90.932
X165.608Y-118.11
X165.862Y-116.967
X167.259Y-94.742
X168.529Y-97.663
X168.783Y-71.247
X168.783Y-87.63
X168.91Y-64.135
X169.799Y-92.075
X170.688Y-101.219
X170.815Y-76.581
X170.815Y-93.091
X172.339Y-94.742
X174.117Y-88.519
X175.768Y-101.219
X175.768Y-107.315
X176.657Y-87.376
X177.419Y-94.742
X180.848Y-101.219
X182.499Y-94.615
X183.388Y-77.089
X186.436Y-102.616
T2
X103.339Y-80.13
X103.339Y-82.67
X103.339Y-85.21
X109.486Y-73.729
X112.026Y-73.729
X114.566Y-73.729
X117.792Y-85.769
X122.364Y-79.266
X122.364Y-85.769
X171.826Y-118.937
X171.826Y-123.509
X172.385Y-104.484
X174.925Y-104.484
X177.465Y-104.484
X178.329Y-123.509
X183.866Y-110.631
X183.866Y-113.171
X183.866Y-115.711
T3
X144.125Y-120.77
X207.075Y-90.32
T2
X106.596Y-76.168G85X107.296Y-76.168
G05
X106.596Y-88.868G85X107.296Y-88.868
G05
X116.73Y-76.168G85X117.43Y-76.168
G05
X116.73Y-88.868G85X117.43Y-88.868
G05
X168.727Y-107.741G85X168.727Y-108.441
G05
X168.727Y-117.875G85X168.727Y-118.575
G05
X181.427Y-107.741G85X181.427Y-108.441
G05
X181.427Y-117.875G85X181.427Y-118.575
G05
T4
X117.642Y-79.566G85X117.642Y-82.166
G05
X178.029Y-118.787G85X175.429Y-118.787
G05
M30
