%TF.GenerationSoftware,KiCad,Pcbnew,9.0.5*%
%TF.CreationDate,2025-11-15T17:59:51+00:00*%
%TF.ProjectId,gk-controls,676b2d63-6f6e-4747-926f-6c732e6b6963,rev?*%
%TF.SameCoordinates,Original*%
%TF.FileFunction,Paste,Top*%
%TF.FilePolarity,Positive*%
%FSLAX46Y46*%
G04 Gerber Fmt 4.6, Leading zero omitted, Abs format (unit mm)*
G04 Created by KiCad (PCBNEW 9.0.5) date 2025-11-15 17:59:51*
%MOMM*%
%LPD*%
G01*
G04 APERTURE LIST*
G04 Aperture macros list*
%AMRoundRect*
0 Rectangle with rounded corners*
0 $1 Rounding radius*
0 $2 $3 $4 $5 $6 $7 $8 $9 X,Y pos of 4 corners*
0 Add a 4 corners polygon primitive as box body*
4,1,4,$2,$3,$4,$5,$6,$7,$8,$9,$2,$3,0*
0 Add four circle primitives for the rounded corners*
1,1,$1+$1,$2,$3*
1,1,$1+$1,$4,$5*
1,1,$1+$1,$6,$7*
1,1,$1+$1,$8,$9*
0 Add four rect primitives between the rounded corners*
20,1,$1+$1,$2,$3,$4,$5,0*
20,1,$1+$1,$4,$5,$6,$7,0*
20,1,$1+$1,$6,$7,$8,$9,0*
20,1,$1+$1,$8,$9,$2,$3,0*%
%AMRotRect*
0 Rectangle, with rotation*
0 The origin of the aperture is its center*
0 $1 length*
0 $2 width*
0 $3 Rotation angle, in degrees counterclockwise*
0 Add horizontal line*
21,1,$1,$2,0,0,$3*%
G04 Aperture macros list end*
%ADD10RoundRect,0.200000X-0.200000X-0.275000X0.200000X-0.275000X0.200000X0.275000X-0.200000X0.275000X0*%
%ADD11RoundRect,0.225000X-0.225000X-0.250000X0.225000X-0.250000X0.225000X0.250000X-0.225000X0.250000X0*%
%ADD12RoundRect,0.200000X0.200000X0.275000X-0.200000X0.275000X-0.200000X-0.275000X0.200000X-0.275000X0*%
%ADD13RoundRect,0.225000X0.225000X0.250000X-0.225000X0.250000X-0.225000X-0.250000X0.225000X-0.250000X0*%
%ADD14RoundRect,0.200000X0.275000X-0.200000X0.275000X0.200000X-0.275000X0.200000X-0.275000X-0.200000X0*%
%ADD15RoundRect,0.150000X-0.150000X0.825000X-0.150000X-0.825000X0.150000X-0.825000X0.150000X0.825000X0*%
%ADD16RotRect,0.900000X0.800000X135.000000*%
%ADD17RoundRect,0.200000X-0.275000X0.200000X-0.275000X-0.200000X0.275000X-0.200000X0.275000X0.200000X0*%
%ADD18RoundRect,0.100000X-0.637500X-0.100000X0.637500X-0.100000X0.637500X0.100000X-0.637500X0.100000X0*%
%ADD19RotRect,0.900000X0.800000X45.000000*%
%ADD20C,3.200000*%
G04 APERTURE END LIST*
D10*
%TO.C,R36*%
X108395000Y-93980000D03*
X110045000Y-93980000D03*
%TD*%
D11*
%TO.C,C23*%
X104000000Y-97790000D03*
X105550000Y-97790000D03*
%TD*%
D10*
%TO.C,R35*%
X103950000Y-93980000D03*
X105600000Y-93980000D03*
%TD*%
D11*
%TO.C,C21*%
X117335000Y-62865000D03*
X118885000Y-62865000D03*
%TD*%
D12*
%TO.C,R38*%
X110045000Y-95885000D03*
X108395000Y-95885000D03*
%TD*%
D13*
%TO.C,C4*%
X60465000Y-48895000D03*
X58915000Y-48895000D03*
%TD*%
D14*
%TO.C,R11*%
X112395000Y-77025000D03*
X112395000Y-75375000D03*
%TD*%
D15*
%TO.C,U2*%
X111125000Y-64835000D03*
X109855000Y-64835000D03*
X108585000Y-64835000D03*
X107315000Y-64835000D03*
X106045000Y-64835000D03*
X104775000Y-64835000D03*
X103505000Y-64835000D03*
X102235000Y-64835000D03*
X102235000Y-69785000D03*
X103505000Y-69785000D03*
X104775000Y-69785000D03*
X106045000Y-69785000D03*
X107315000Y-69785000D03*
X108585000Y-69785000D03*
X109855000Y-69785000D03*
X111125000Y-69785000D03*
%TD*%
D16*
%TO.C,D1*%
X101560132Y-53384660D03*
X102408660Y-52536132D03*
X101135868Y-51263340D03*
X100287340Y-52111868D03*
%TD*%
D10*
%TO.C,R2*%
X89345000Y-55245000D03*
X90995000Y-55245000D03*
%TD*%
D13*
%TO.C,C9*%
X109360000Y-76835000D03*
X107810000Y-76835000D03*
%TD*%
D17*
%TO.C,R5*%
X100965000Y-75375000D03*
X100965000Y-77025000D03*
%TD*%
D13*
%TO.C,C6*%
X143650000Y-93980000D03*
X142100000Y-93980000D03*
%TD*%
D18*
%TO.C,U1*%
X103817500Y-78975000D03*
X103817500Y-79625000D03*
X103817500Y-80275000D03*
X103817500Y-80925000D03*
X103817500Y-81575000D03*
X103817500Y-82225000D03*
X103817500Y-82875000D03*
X103817500Y-83525000D03*
X103817500Y-84175000D03*
X103817500Y-84825000D03*
X103817500Y-85475000D03*
X103817500Y-86125000D03*
X109542500Y-86125000D03*
X109542500Y-85475000D03*
X109542500Y-84825000D03*
X109542500Y-84175000D03*
X109542500Y-83525000D03*
X109542500Y-82875000D03*
X109542500Y-82225000D03*
X109542500Y-81575000D03*
X109542500Y-80925000D03*
X109542500Y-80275000D03*
X109542500Y-79625000D03*
X109542500Y-78975000D03*
%TD*%
D13*
%TO.C,C8*%
X90945000Y-57150000D03*
X89395000Y-57150000D03*
%TD*%
%TO.C,C5*%
X60465000Y-55880000D03*
X58915000Y-55880000D03*
%TD*%
D19*
%TO.C,D2*%
X110447340Y-52536132D03*
X111295868Y-53384660D03*
X112568660Y-52111868D03*
X111720132Y-51263340D03*
%TD*%
D10*
%TO.C,R29*%
X94425000Y-59055000D03*
X96075000Y-59055000D03*
%TD*%
D12*
%TO.C,R37*%
X105600000Y-95885000D03*
X103950000Y-95885000D03*
%TD*%
D11*
%TO.C,C10*%
X104000000Y-76835000D03*
X105550000Y-76835000D03*
%TD*%
D12*
%TO.C,R32*%
X96075000Y-60960000D03*
X94425000Y-60960000D03*
%TD*%
%TO.C,R4*%
X123380000Y-99060000D03*
X121730000Y-99060000D03*
%TD*%
D20*
%TO.C,H1*%
X81788000Y-86614000D03*
%TD*%
D11*
%TO.C,C24*%
X108445000Y-97790000D03*
X109995000Y-97790000D03*
%TD*%
%TO.C,C7*%
X142100000Y-77470000D03*
X143650000Y-77470000D03*
%TD*%
%TO.C,C20*%
X94475000Y-62865000D03*
X96025000Y-62865000D03*
%TD*%
D10*
%TO.C,R1*%
X89345000Y-53340000D03*
X90995000Y-53340000D03*
%TD*%
%TO.C,R30*%
X117285000Y-59055000D03*
X118935000Y-59055000D03*
%TD*%
D12*
%TO.C,R33*%
X118935000Y-60960000D03*
X117285000Y-60960000D03*
%TD*%
D11*
%TO.C,C11*%
X121780000Y-100965000D03*
X123330000Y-100965000D03*
%TD*%
D12*
%TO.C,R3*%
X123380000Y-97155000D03*
X121730000Y-97155000D03*
%TD*%
M02*
