M48
; DRILL file KiCad 10.0.5 date 2026-09-14T16:50:48
; FORMAT={-:-/ absolute / metric / decimal}
; #@! TF.CreationDate,2026-09-14T16:50:48+01:00
; #@! TF.GenerationSoftware,Kicad,Pcbnew,10.0.5
; #@! TF.FileFunction,Plated,1,4,PTH
FMAT,2
METRIC
; #@! TA.AperFunction,Plated,PTH,ViaDrill
T1C0.300
; #@! TA.AperFunction,Plated,PTH,ComponentDrill
T2C0.300
; #@! TA.AperFunction,Plated,PTH,ViaDrill
T3C0.400
; #@! TA.AperFunction,Plated,PTH,ComponentDrill
T4C0.900
; #@! TA.AperFunction,Plated,PTH,ComponentDrill
T5C1.000
; #@! TA.AperFunction,Plated,PTH,ComponentDrill
T6C1.500
%
G90
G05
T1
X138.684Y-66.04
T2
X138.134Y-65.49
X138.134Y-66.59
X139.234Y-65.49
X139.234Y-66.59
T3
X92.456Y-95.377
X92.456Y-113.284
X104.267Y-91.313
X107.95Y-85.852
X111.481Y-78.003
X113.03Y-95.377
X114.681Y-108.077
X115.062Y-86.36
X115.062Y-87.884
X115.951Y-106.553
X117.729Y-99.949
X118.745Y-105.156
X118.872Y-61.976
X119.507Y-107.442
X120.015Y-99.695
X120.142Y-130.048
X120.904Y-87.122
X121.158Y-71.374
X121.539Y-106.934
X124.46Y-86.614
X125.654Y-65.278
X126.365Y-106.807
X127.203Y-69.291
X127.33Y-93.142
X127.889Y-96.647
X128.016Y-109.22
X128.27Y-81.026
X128.524Y-83.058
X129.54Y-118.618
X129.667Y-69.469
X129.794Y-76.581
X129.794Y-90.551
X130.048Y-105.918
X130.556Y-109.22
X130.581Y-67.335
X130.683Y-63.576
X130.683Y-99.568
X131.064Y-90.17
X131.572Y-75.184
X131.572Y-118.745
X131.826Y-98.298
X131.953Y-87.63
X132.842Y-99.822
X133.001Y-69.54
X133.35Y-63.754
X133.858Y-66.548
X133.858Y-94.996
X134.62Y-95.758
X135.382Y-96.55
X136.049Y-73.223
X136.144Y-89.408
X136.144Y-93.853
X136.144Y-121.158
X136.144Y-126.238
X136.652Y-63.754
X136.652Y-67.818
X136.906Y-90.424
X136.906Y-101.854
X137.16Y-93.091
X137.922Y-92.456
X137.922Y-103.378
X137.922Y-123.698
X138.938Y-105.791
X139.192Y-68.834
X139.573Y-106.807
X139.954Y-128.27
X140.208Y-68.58
X140.233Y-118.288
X140.462Y-107.569
X140.97Y-67.564
X140.97Y-71.628
X141.351Y-108.331
X141.478Y-102.616
X141.656Y-118.085
X141.732Y-65.136
X141.732Y-124.46
X141.986Y-67.056
X142.24Y-63.754
X142.24Y-70.758
X142.545Y-118.897
X142.697Y-122.961
X142.748Y-98.298
X143.002Y-77.216
X143.256Y-65.786
X143.383Y-119.71
X143.51Y-81.788
X143.51Y-101.6
X143.891Y-80.772
X144.526Y-121.158
X145.288Y-107.95
X145.542Y-87.376
X145.542Y-129.794
X146.304Y-99.168
X146.304Y-107.442
X146.685Y-79.756
X146.812Y-125.476
X147.32Y-115.824
X147.32Y-129.794
X148.082Y-87.376
X148.082Y-100.33
X148.971Y-83.439
X149.098Y-81.788
X149.106Y-120.419
X149.174Y-121.412
X149.606Y-112.268
X150.114Y-129.794
X150.368Y-101.6
X150.368Y-108.064
X150.622Y-87.376
X151.155Y-109.855
X151.765Y-80.391
X151.892Y-85.979
X152.4Y-114.046
X152.908Y-103.632
X153.162Y-65.024
X153.289Y-86.868
X153.67Y-112.014
X153.924Y-66.04
X154.305Y-80.899
X154.381Y-115.316
X154.432Y-125.476
X154.635Y-114.046
X154.661Y-118.262
X154.813Y-86.868
X155.296Y-119.278
X155.702Y-101.625
X156.21Y-70.104
X156.337Y-109.931
X156.464Y-76.962
X156.718Y-129.794
X156.972Y-125.73
X157.353Y-80.899
X157.734Y-85.979
X157.988Y-67.31
X158.09Y-69.342
X158.115Y-128.524
X158.267Y-120.472
X158.902Y-70.866
X159.004Y-114.808
X159.004Y-129.54
X159.131Y-117.932
X159.72Y-116.11
X159.766Y-123.927
X160.02Y-118.364
X160.274Y-62.484
X160.528Y-126.746
X160.782Y-123.114
X160.934Y-118.923
X160.96Y-124.943
X161.544Y-68.072
X161.544Y-71.882
X161.874Y-117.373
X162.814Y-65.024
X162.814Y-122.174
X163.195Y-107.975
X163.83Y-117.983
X163.92Y-78.65
X164.338Y-64.973
X164.846Y-118.872
X164.973Y-101.219
X165.608Y-118.11
X165.862Y-116.967
X167.259Y-94.742
X168.529Y-97.663
X168.783Y-71.247
X168.783Y-87.63
X169.418Y-94.742
X170.18Y-112.522
X172.212Y-89.306
X174.117Y-88.519
X174.498Y-94.996
X175.768Y-101.219
X175.768Y-107.315
X176.657Y-87.376
X180.848Y-101.219
X182.372Y-63.246
X182.499Y-94.615
X183.388Y-77.089
X184.556Y-119.634
X184.658Y-103.632
X184.861Y-108.661
X186.538Y-108.509
X205.384Y-95.25
T4
X103.339Y-80.13
X103.339Y-82.67
X103.339Y-85.21
X109.486Y-73.729
X112.026Y-73.729
X114.566Y-73.729
X117.792Y-85.769
X122.364Y-79.266
X122.364Y-85.769
X171.826Y-118.937
X171.826Y-123.509
X172.385Y-104.484
X174.925Y-104.484
X177.465Y-104.484
X178.329Y-123.509
X183.866Y-110.631
X183.866Y-113.171
X183.866Y-115.711
T5
X169.79Y-61.91
X203.302Y-102.006
X207.6Y-62.8
T4
X106.596Y-76.168G85X107.296Y-76.168
G05
X106.596Y-88.868G85X107.296Y-88.868
G05
X116.73Y-76.168G85X117.43Y-76.168
G05
X116.73Y-88.868G85X117.43Y-88.868
G05
X168.727Y-107.741G85X168.727Y-108.441
G05
X168.727Y-117.875G85X168.727Y-118.575
G05
X181.427Y-107.741G85X181.427Y-108.441
G05
X181.427Y-117.875G85X181.427Y-118.575
G05
T6
X117.642Y-79.566G85X117.642Y-82.166
G05
X178.029Y-118.787G85X175.429Y-118.787
G05
M30
