%TF.GenerationSoftware,KiCad,Pcbnew,9.0.5*%
%TF.CreationDate,2026-02-23T17:17:34+00:00*%
%TF.ProjectId,gk-controls,676b2d63-6f6e-4747-926f-6c732e6b6963,rev?*%
%TF.SameCoordinates,Original*%
%TF.FileFunction,Paste,Top*%
%TF.FilePolarity,Positive*%
%FSLAX46Y46*%
G04 Gerber Fmt 4.6, Leading zero omitted, Abs format (unit mm)*
G04 Created by KiCad (PCBNEW 9.0.5) date 2026-02-23 17:17:34*
%MOMM*%
%LPD*%
G01*
G04 APERTURE LIST*
G04 Aperture macros list*
%AMRoundRect*
0 Rectangle with rounded corners*
0 $1 Rounding radius*
0 $2 $3 $4 $5 $6 $7 $8 $9 X,Y pos of 4 corners*
0 Add a 4 corners polygon primitive as box body*
4,1,4,$2,$3,$4,$5,$6,$7,$8,$9,$2,$3,0*
0 Add four circle primitives for the rounded corners*
1,1,$1+$1,$2,$3*
1,1,$1+$1,$4,$5*
1,1,$1+$1,$6,$7*
1,1,$1+$1,$8,$9*
0 Add four rect primitives between the rounded corners*
20,1,$1+$1,$2,$3,$4,$5,0*
20,1,$1+$1,$4,$5,$6,$7,0*
20,1,$1+$1,$6,$7,$8,$9,0*
20,1,$1+$1,$8,$9,$2,$3,0*%
%AMRotRect*
0 Rectangle, with rotation*
0 The origin of the aperture is its center*
0 $1 length*
0 $2 width*
0 $3 Rotation angle, in degrees counterclockwise*
0 Add horizontal line*
21,1,$1,$2,0,0,$3*%
G04 Aperture macros list end*
%ADD10RoundRect,0.200000X-0.200000X-0.275000X0.200000X-0.275000X0.200000X0.275000X-0.200000X0.275000X0*%
%ADD11RoundRect,0.225000X-0.225000X-0.250000X0.225000X-0.250000X0.225000X0.250000X-0.225000X0.250000X0*%
%ADD12RoundRect,0.250000X-0.525000X-0.250000X0.525000X-0.250000X0.525000X0.250000X-0.525000X0.250000X0*%
%ADD13RoundRect,0.200000X0.200000X0.275000X-0.200000X0.275000X-0.200000X-0.275000X0.200000X-0.275000X0*%
%ADD14RoundRect,0.225000X0.225000X0.250000X-0.225000X0.250000X-0.225000X-0.250000X0.225000X-0.250000X0*%
%ADD15RoundRect,0.150000X0.150000X-0.825000X0.150000X0.825000X-0.150000X0.825000X-0.150000X-0.825000X0*%
%ADD16RotRect,0.900000X0.800000X135.000000*%
%ADD17RoundRect,0.100000X-0.637500X-0.100000X0.637500X-0.100000X0.637500X0.100000X-0.637500X0.100000X0*%
%ADD18RotRect,0.900000X0.800000X45.000000*%
%ADD19RoundRect,0.250000X0.250000X0.475000X-0.250000X0.475000X-0.250000X-0.475000X0.250000X-0.475000X0*%
%ADD20C,3.200000*%
G04 APERTURE END LIST*
D10*
%TO.C,R36*%
X148368000Y-124643000D03*
X150018000Y-124643000D03*
%TD*%
D11*
%TO.C,C23*%
X143973000Y-128453000D03*
X145523000Y-128453000D03*
%TD*%
D10*
%TO.C,R35*%
X143923000Y-124643000D03*
X145573000Y-124643000D03*
%TD*%
D11*
%TO.C,C21*%
X134448000Y-75113000D03*
X135998000Y-75113000D03*
%TD*%
D12*
%TO.C,SW_START1*%
X160400000Y-84425000D03*
X165650000Y-84425000D03*
X160400000Y-87625000D03*
X165650000Y-87625000D03*
%TD*%
D13*
%TO.C,R38*%
X150018000Y-126548000D03*
X148368000Y-126548000D03*
%TD*%
D14*
%TO.C,C4*%
X111360000Y-68890000D03*
X109810000Y-68890000D03*
%TD*%
D10*
%TO.C,R11*%
X156147000Y-110998000D03*
X157797000Y-110998000D03*
%TD*%
D15*
%TO.C,U2*%
X145542000Y-93915000D03*
X146812000Y-93915000D03*
X148082000Y-93915000D03*
X149352000Y-93915000D03*
X150622000Y-93915000D03*
X151892000Y-93915000D03*
X153162000Y-93915000D03*
X154432000Y-93915000D03*
X154432000Y-88965000D03*
X153162000Y-88965000D03*
X151892000Y-88965000D03*
X150622000Y-88965000D03*
X149352000Y-88965000D03*
X148082000Y-88965000D03*
X146812000Y-88965000D03*
X145542000Y-88965000D03*
%TD*%
D16*
%TO.C,D1*%
X144835132Y-79964660D03*
X145683660Y-79116132D03*
X144410868Y-77843340D03*
X143562340Y-78691868D03*
%TD*%
D10*
%TO.C,R2*%
X128048000Y-73208000D03*
X129698000Y-73208000D03*
%TD*%
D14*
%TO.C,C9*%
X152635000Y-106355000D03*
X151085000Y-106355000D03*
%TD*%
D12*
%TO.C,SW_SELECT1*%
X134350000Y-84420000D03*
X139600000Y-84420000D03*
X134350000Y-87620000D03*
X139600000Y-87620000D03*
%TD*%
D10*
%TO.C,R5*%
X142812000Y-109982000D03*
X144462000Y-109982000D03*
%TD*%
D11*
%TO.C,C6*%
X190836000Y-102235000D03*
X192386000Y-102235000D03*
%TD*%
D17*
%TO.C,U1*%
X147092500Y-108495000D03*
X147092500Y-109145000D03*
X147092500Y-109795000D03*
X147092500Y-110445000D03*
X147092500Y-111095000D03*
X147092500Y-111745000D03*
X147092500Y-112395000D03*
X147092500Y-113045000D03*
X147092500Y-113695000D03*
X147092500Y-114345000D03*
X147092500Y-114995000D03*
X147092500Y-115645000D03*
X152817500Y-115645000D03*
X152817500Y-114995000D03*
X152817500Y-114345000D03*
X152817500Y-113695000D03*
X152817500Y-113045000D03*
X152817500Y-112395000D03*
X152817500Y-111745000D03*
X152817500Y-111095000D03*
X152817500Y-110445000D03*
X152817500Y-109795000D03*
X152817500Y-109145000D03*
X152817500Y-108495000D03*
%TD*%
D14*
%TO.C,C8*%
X129648000Y-75113000D03*
X128098000Y-75113000D03*
%TD*%
%TO.C,C5*%
X108058000Y-68890000D03*
X106508000Y-68890000D03*
%TD*%
D18*
%TO.C,D2*%
X154316340Y-79116132D03*
X155164868Y-79964660D03*
X156437660Y-78691868D03*
X155589132Y-77843340D03*
%TD*%
D19*
%TO.C,C3*%
X143571000Y-104648000D03*
X141671000Y-104648000D03*
%TD*%
D10*
%TO.C,R29*%
X163354000Y-71303000D03*
X165004000Y-71303000D03*
%TD*%
D13*
%TO.C,R37*%
X145573000Y-126548000D03*
X143923000Y-126548000D03*
%TD*%
D11*
%TO.C,C10*%
X147275000Y-106355000D03*
X148825000Y-106355000D03*
%TD*%
D13*
%TO.C,R32*%
X165004000Y-73208000D03*
X163354000Y-73208000D03*
%TD*%
%TO.C,R4*%
X160940000Y-126548000D03*
X159290000Y-126548000D03*
%TD*%
D20*
%TO.C,H1*%
X125075000Y-113120000D03*
%TD*%
D11*
%TO.C,C24*%
X148418000Y-128453000D03*
X149968000Y-128453000D03*
%TD*%
%TO.C,C7*%
X190836000Y-104196000D03*
X192386000Y-104196000D03*
%TD*%
%TO.C,C20*%
X163404000Y-75113000D03*
X164954000Y-75113000D03*
%TD*%
D10*
%TO.C,R1*%
X128048000Y-71303000D03*
X129698000Y-71303000D03*
%TD*%
%TO.C,R30*%
X134398000Y-71303000D03*
X136048000Y-71303000D03*
%TD*%
D13*
%TO.C,R33*%
X136048000Y-73208000D03*
X134398000Y-73208000D03*
%TD*%
D11*
%TO.C,C11*%
X159340000Y-128453000D03*
X160890000Y-128453000D03*
%TD*%
D13*
%TO.C,R3*%
X160940000Y-124643000D03*
X159290000Y-124643000D03*
%TD*%
M02*
