%TF.GenerationSoftware,KiCad,Pcbnew,10.0.5*%
%TF.CreationDate,2026-09-14T16:50:48+01:00*%
%TF.ProjectId,gk-controls,676b2d63-6f6e-4747-926f-6c732e6b6963,rev?*%
%TF.SameCoordinates,Original*%
%TF.FileFunction,Drillmap*%
%TF.FilePolarity,Positive*%
%FSLAX45Y45*%
G04 Gerber Fmt 4.5, Leading zero omitted, Abs format (unit mm)*
G04 Created by KiCad (PCBNEW 10.0.5) date 2026-09-14 16:50:48*
%MOMM*%
%LPD*%
G01*
G04 APERTURE LIST*
%ADD10C,0.050000*%
%ADD11C,0.200000*%
%ADD12C,0.100000*%
%ADD13C,0.150000*%
G04 APERTURE END LIST*
D10*
X8967500Y-5999480D02*
X21032500Y-5999480D01*
X8967500Y-12720000D02*
X8967500Y-5999480D01*
X9467500Y-13220000D02*
G75*
G02*
X8967500Y-12720000I0J500000D01*
G01*
X20532500Y-13220000D02*
X9467500Y-13220000D01*
X21032500Y-5999480D02*
X21032500Y-12720000D01*
X21032500Y-12720000D02*
G75*
G02*
X20532500Y-13220000I-500000J0D01*
G01*
D11*
D12*
X13853400Y-6589000D02*
X13883400Y-6619000D01*
X13883400Y-6589000D02*
X13853400Y-6619000D01*
X13828400Y-6549000D02*
G75*
G02*
X13798400Y-6549000I-15000J0D01*
G01*
X13798400Y-6549000D02*
G75*
G02*
X13828400Y-6549000I15000J0D01*
G01*
X13828400Y-6659000D02*
G75*
G02*
X13798400Y-6659000I-15000J0D01*
G01*
X13798400Y-6659000D02*
G75*
G02*
X13828400Y-6659000I15000J0D01*
G01*
X13938400Y-6549000D02*
G75*
G02*
X13908400Y-6549000I-15000J0D01*
G01*
X13908400Y-6549000D02*
G75*
G02*
X13938400Y-6549000I15000J0D01*
G01*
X13938400Y-6659000D02*
G75*
G02*
X13908400Y-6659000I-15000J0D01*
G01*
X13908400Y-6659000D02*
G75*
G02*
X13938400Y-6659000I15000J0D01*
G01*
X9245600Y-9517700D02*
X9245600Y-9557700D01*
X9225600Y-9537700D02*
X9265600Y-9537700D01*
X9245600Y-11308400D02*
X9245600Y-11348400D01*
X9225600Y-11328400D02*
X9265600Y-11328400D01*
X10426700Y-9111300D02*
X10426700Y-9151300D01*
X10406700Y-9131300D02*
X10446700Y-9131300D01*
X10795000Y-8565200D02*
X10795000Y-8605200D01*
X10775000Y-8585200D02*
X10815000Y-8585200D01*
X11148060Y-7780340D02*
X11148060Y-7820340D01*
X11128060Y-7800340D02*
X11168060Y-7800340D01*
X11303000Y-9517700D02*
X11303000Y-9557700D01*
X11283000Y-9537700D02*
X11323000Y-9537700D01*
X11468100Y-10787700D02*
X11468100Y-10827700D01*
X11448100Y-10807700D02*
X11488100Y-10807700D01*
X11506200Y-8616000D02*
X11506200Y-8656000D01*
X11486200Y-8636000D02*
X11526200Y-8636000D01*
X11506200Y-8768400D02*
X11506200Y-8808400D01*
X11486200Y-8788400D02*
X11526200Y-8788400D01*
X11595100Y-10635300D02*
X11595100Y-10675300D01*
X11575100Y-10655300D02*
X11615100Y-10655300D01*
X11772900Y-9974900D02*
X11772900Y-10014900D01*
X11752900Y-9994900D02*
X11792900Y-9994900D01*
X11874500Y-10495600D02*
X11874500Y-10535600D01*
X11854500Y-10515600D02*
X11894500Y-10515600D01*
X11887200Y-6177600D02*
X11887200Y-6217600D01*
X11867200Y-6197600D02*
X11907200Y-6197600D01*
X11950700Y-10724200D02*
X11950700Y-10764200D01*
X11930700Y-10744200D02*
X11970700Y-10744200D01*
X12001500Y-9949500D02*
X12001500Y-9989500D01*
X11981500Y-9969500D02*
X12021500Y-9969500D01*
X12014200Y-12984800D02*
X12014200Y-13024800D01*
X11994200Y-13004800D02*
X12034200Y-13004800D01*
X12090400Y-8692200D02*
X12090400Y-8732200D01*
X12070400Y-8712200D02*
X12110400Y-8712200D01*
X12115800Y-7117400D02*
X12115800Y-7157400D01*
X12095800Y-7137400D02*
X12135800Y-7137400D01*
X12153900Y-10673400D02*
X12153900Y-10713400D01*
X12133900Y-10693400D02*
X12173900Y-10693400D01*
X12446000Y-8641400D02*
X12446000Y-8681400D01*
X12426000Y-8661400D02*
X12466000Y-8661400D01*
X12565380Y-6507800D02*
X12565380Y-6547800D01*
X12545380Y-6527800D02*
X12585380Y-6527800D01*
X12636500Y-10660700D02*
X12636500Y-10700700D01*
X12616500Y-10680700D02*
X12656500Y-10680700D01*
X12720320Y-6909120D02*
X12720320Y-6949120D01*
X12700320Y-6929120D02*
X12740320Y-6929120D01*
X12733020Y-9294180D02*
X12733020Y-9334180D01*
X12713020Y-9314180D02*
X12753020Y-9314180D01*
X12788900Y-9644700D02*
X12788900Y-9684700D01*
X12768900Y-9664700D02*
X12808900Y-9664700D01*
X12801600Y-10902000D02*
X12801600Y-10942000D01*
X12781600Y-10922000D02*
X12821600Y-10922000D01*
X12827000Y-8082600D02*
X12827000Y-8122600D01*
X12807000Y-8102600D02*
X12847000Y-8102600D01*
X12852400Y-8285800D02*
X12852400Y-8325800D01*
X12832400Y-8305800D02*
X12872400Y-8305800D01*
X12954000Y-11841800D02*
X12954000Y-11881800D01*
X12934000Y-11861800D02*
X12974000Y-11861800D01*
X12966700Y-6926900D02*
X12966700Y-6966900D01*
X12946700Y-6946900D02*
X12986700Y-6946900D01*
X12979400Y-7638100D02*
X12979400Y-7678100D01*
X12959400Y-7658100D02*
X12999400Y-7658100D01*
X12979400Y-9035100D02*
X12979400Y-9075100D01*
X12959400Y-9055100D02*
X12999400Y-9055100D01*
X13004800Y-10571800D02*
X13004800Y-10611800D01*
X12984800Y-10591800D02*
X13024800Y-10591800D01*
X13055600Y-10902000D02*
X13055600Y-10942000D01*
X13035600Y-10922000D02*
X13075600Y-10922000D01*
X13058140Y-6713540D02*
X13058140Y-6753540D01*
X13038140Y-6733540D02*
X13078140Y-6733540D01*
X13068300Y-6337620D02*
X13068300Y-6377620D01*
X13048300Y-6357620D02*
X13088300Y-6357620D01*
X13068300Y-9936800D02*
X13068300Y-9976800D01*
X13048300Y-9956800D02*
X13088300Y-9956800D01*
X13106400Y-8997000D02*
X13106400Y-9037000D01*
X13086400Y-9017000D02*
X13126400Y-9017000D01*
X13157200Y-7498400D02*
X13157200Y-7538400D01*
X13137200Y-7518400D02*
X13177200Y-7518400D01*
X13157200Y-11854500D02*
X13157200Y-11894500D01*
X13137200Y-11874500D02*
X13177200Y-11874500D01*
X13182600Y-9809800D02*
X13182600Y-9849800D01*
X13162600Y-9829800D02*
X13202600Y-9829800D01*
X13195300Y-8743000D02*
X13195300Y-8783000D01*
X13175300Y-8763000D02*
X13215300Y-8763000D01*
X13284200Y-9962200D02*
X13284200Y-10002200D01*
X13264200Y-9982200D02*
X13304200Y-9982200D01*
X13300100Y-6934000D02*
X13300100Y-6974000D01*
X13280100Y-6954000D02*
X13320100Y-6954000D01*
X13335000Y-6355400D02*
X13335000Y-6395400D01*
X13315000Y-6375400D02*
X13355000Y-6375400D01*
X13385800Y-6634800D02*
X13385800Y-6674800D01*
X13365800Y-6654800D02*
X13405800Y-6654800D01*
X13385800Y-9479600D02*
X13385800Y-9519600D01*
X13365800Y-9499600D02*
X13405800Y-9499600D01*
X13462000Y-9555800D02*
X13462000Y-9595800D01*
X13442000Y-9575800D02*
X13482000Y-9575800D01*
X13538200Y-9635045D02*
X13538200Y-9675045D01*
X13518200Y-9655045D02*
X13558200Y-9655045D01*
X13604900Y-7302300D02*
X13604900Y-7342300D01*
X13584900Y-7322300D02*
X13624900Y-7322300D01*
X13614400Y-8920800D02*
X13614400Y-8960800D01*
X13594400Y-8940800D02*
X13634400Y-8940800D01*
X13614400Y-9365300D02*
X13614400Y-9405300D01*
X13594400Y-9385300D02*
X13634400Y-9385300D01*
X13614400Y-12095800D02*
X13614400Y-12135800D01*
X13594400Y-12115800D02*
X13634400Y-12115800D01*
X13614400Y-12603800D02*
X13614400Y-12643800D01*
X13594400Y-12623800D02*
X13634400Y-12623800D01*
X13665200Y-6355400D02*
X13665200Y-6395400D01*
X13645200Y-6375400D02*
X13685200Y-6375400D01*
X13665200Y-6761800D02*
X13665200Y-6801800D01*
X13645200Y-6781800D02*
X13685200Y-6781800D01*
X13690600Y-9022400D02*
X13690600Y-9062400D01*
X13670600Y-9042400D02*
X13710600Y-9042400D01*
X13690600Y-10165400D02*
X13690600Y-10205400D01*
X13670600Y-10185400D02*
X13710600Y-10185400D01*
X13716000Y-9289100D02*
X13716000Y-9329100D01*
X13696000Y-9309100D02*
X13736000Y-9309100D01*
X13792200Y-9225600D02*
X13792200Y-9265600D01*
X13772200Y-9245600D02*
X13812200Y-9245600D01*
X13792200Y-10317800D02*
X13792200Y-10357800D01*
X13772200Y-10337800D02*
X13812200Y-10337800D01*
X13792200Y-12349800D02*
X13792200Y-12389800D01*
X13772200Y-12369800D02*
X13812200Y-12369800D01*
X13893800Y-10559100D02*
X13893800Y-10599100D01*
X13873800Y-10579100D02*
X13913800Y-10579100D01*
X13919200Y-6863400D02*
X13919200Y-6903400D01*
X13899200Y-6883400D02*
X13939200Y-6883400D01*
X13957300Y-10660700D02*
X13957300Y-10700700D01*
X13937300Y-10680700D02*
X13977300Y-10680700D01*
X13995400Y-12807000D02*
X13995400Y-12847000D01*
X13975400Y-12827000D02*
X14015400Y-12827000D01*
X14020800Y-6838000D02*
X14020800Y-6878000D01*
X14000800Y-6858000D02*
X14040800Y-6858000D01*
X14023340Y-11808780D02*
X14023340Y-11848780D01*
X14003340Y-11828780D02*
X14043340Y-11828780D01*
X14046200Y-10736900D02*
X14046200Y-10776900D01*
X14026200Y-10756900D02*
X14066200Y-10756900D01*
X14097000Y-6736400D02*
X14097000Y-6776400D01*
X14077000Y-6756400D02*
X14117000Y-6756400D01*
X14097000Y-7142800D02*
X14097000Y-7182800D01*
X14077000Y-7162800D02*
X14117000Y-7162800D01*
X14135100Y-10813100D02*
X14135100Y-10853100D01*
X14115100Y-10833100D02*
X14155100Y-10833100D01*
X14147800Y-10241600D02*
X14147800Y-10281600D01*
X14127800Y-10261600D02*
X14167800Y-10261600D01*
X14165580Y-11788460D02*
X14165580Y-11828460D01*
X14145580Y-11808460D02*
X14185580Y-11808460D01*
X14173200Y-6493600D02*
X14173200Y-6533600D01*
X14153200Y-6513600D02*
X14193200Y-6513600D01*
X14173200Y-12426000D02*
X14173200Y-12466000D01*
X14153200Y-12446000D02*
X14193200Y-12446000D01*
X14198600Y-6685600D02*
X14198600Y-6725600D01*
X14178600Y-6705600D02*
X14218600Y-6705600D01*
X14224000Y-6355400D02*
X14224000Y-6395400D01*
X14204000Y-6375400D02*
X14244000Y-6375400D01*
X14224000Y-7055800D02*
X14224000Y-7095800D01*
X14204000Y-7075800D02*
X14244000Y-7075800D01*
X14254480Y-11869740D02*
X14254480Y-11909740D01*
X14234480Y-11889740D02*
X14274480Y-11889740D01*
X14269720Y-12276140D02*
X14269720Y-12316140D01*
X14249720Y-12296140D02*
X14289720Y-12296140D01*
X14274800Y-9809800D02*
X14274800Y-9849800D01*
X14254800Y-9829800D02*
X14294800Y-9829800D01*
X14300200Y-7701600D02*
X14300200Y-7741600D01*
X14280200Y-7721600D02*
X14320200Y-7721600D01*
X14325600Y-6558600D02*
X14325600Y-6598600D01*
X14305600Y-6578600D02*
X14345600Y-6578600D01*
X14338300Y-11951020D02*
X14338300Y-11991020D01*
X14318300Y-11971020D02*
X14358300Y-11971020D01*
X14351000Y-8158800D02*
X14351000Y-8198800D01*
X14331000Y-8178800D02*
X14371000Y-8178800D01*
X14351000Y-10140000D02*
X14351000Y-10180000D01*
X14331000Y-10160000D02*
X14371000Y-10160000D01*
X14389100Y-8057200D02*
X14389100Y-8097200D01*
X14369100Y-8077200D02*
X14409100Y-8077200D01*
X14452600Y-12095800D02*
X14452600Y-12135800D01*
X14432600Y-12115800D02*
X14472600Y-12115800D01*
X14528800Y-10775000D02*
X14528800Y-10815000D01*
X14508800Y-10795000D02*
X14548800Y-10795000D01*
X14554200Y-8717600D02*
X14554200Y-8757600D01*
X14534200Y-8737600D02*
X14574200Y-8737600D01*
X14554200Y-12959400D02*
X14554200Y-12999400D01*
X14534200Y-12979400D02*
X14574200Y-12979400D01*
X14630400Y-9896800D02*
X14630400Y-9936800D01*
X14610400Y-9916800D02*
X14650400Y-9916800D01*
X14630400Y-10724200D02*
X14630400Y-10764200D01*
X14610400Y-10744200D02*
X14650400Y-10744200D01*
X14668500Y-7955600D02*
X14668500Y-7995600D01*
X14648500Y-7975600D02*
X14688500Y-7975600D01*
X14681200Y-12527600D02*
X14681200Y-12567600D01*
X14661200Y-12547600D02*
X14701200Y-12547600D01*
X14732000Y-11562400D02*
X14732000Y-11602400D01*
X14712000Y-11582400D02*
X14752000Y-11582400D01*
X14732000Y-12959400D02*
X14732000Y-12999400D01*
X14712000Y-12979400D02*
X14752000Y-12979400D01*
X14808200Y-8717600D02*
X14808200Y-8757600D01*
X14788200Y-8737600D02*
X14828200Y-8737600D01*
X14808200Y-10013000D02*
X14808200Y-10053000D01*
X14788200Y-10033000D02*
X14828200Y-10033000D01*
X14897100Y-8323900D02*
X14897100Y-8363900D01*
X14877100Y-8343900D02*
X14917100Y-8343900D01*
X14909800Y-8158800D02*
X14909800Y-8198800D01*
X14889800Y-8178800D02*
X14929800Y-8178800D01*
X14910609Y-12021900D02*
X14910609Y-12061900D01*
X14890609Y-12041900D02*
X14930609Y-12041900D01*
X14917420Y-12121200D02*
X14917420Y-12161200D01*
X14897420Y-12141200D02*
X14937420Y-12141200D01*
X14960600Y-11206800D02*
X14960600Y-11246800D01*
X14940600Y-11226800D02*
X14980600Y-11226800D01*
X15011400Y-12959400D02*
X15011400Y-12999400D01*
X14991400Y-12979400D02*
X15031400Y-12979400D01*
X15036800Y-10140000D02*
X15036800Y-10180000D01*
X15016800Y-10160000D02*
X15056800Y-10160000D01*
X15036800Y-10786400D02*
X15036800Y-10826400D01*
X15016800Y-10806400D02*
X15056800Y-10806400D01*
X15062200Y-8717600D02*
X15062200Y-8757600D01*
X15042200Y-8737600D02*
X15082200Y-8737600D01*
X15115540Y-10965500D02*
X15115540Y-11005500D01*
X15095540Y-10985500D02*
X15135540Y-10985500D01*
X15176500Y-8019100D02*
X15176500Y-8059100D01*
X15156500Y-8039100D02*
X15196500Y-8039100D01*
X15189200Y-8577900D02*
X15189200Y-8617900D01*
X15169200Y-8597900D02*
X15209200Y-8597900D01*
X15240000Y-11384600D02*
X15240000Y-11424600D01*
X15220000Y-11404600D02*
X15260000Y-11404600D01*
X15290800Y-10343200D02*
X15290800Y-10383200D01*
X15270800Y-10363200D02*
X15310800Y-10363200D01*
X15316200Y-6482400D02*
X15316200Y-6522400D01*
X15296200Y-6502400D02*
X15336200Y-6502400D01*
X15328900Y-8666800D02*
X15328900Y-8706800D01*
X15308900Y-8686800D02*
X15348900Y-8686800D01*
X15367000Y-11181400D02*
X15367000Y-11221400D01*
X15347000Y-11201400D02*
X15387000Y-11201400D01*
X15392400Y-6584000D02*
X15392400Y-6624000D01*
X15372400Y-6604000D02*
X15412400Y-6604000D01*
X15430500Y-8069900D02*
X15430500Y-8109900D01*
X15410500Y-8089900D02*
X15450500Y-8089900D01*
X15438120Y-11511600D02*
X15438120Y-11551600D01*
X15418120Y-11531600D02*
X15458120Y-11531600D01*
X15443200Y-12527600D02*
X15443200Y-12567600D01*
X15423200Y-12547600D02*
X15463200Y-12547600D01*
X15463520Y-11384600D02*
X15463520Y-11424600D01*
X15443520Y-11404600D02*
X15483520Y-11404600D01*
X15466060Y-11806240D02*
X15466060Y-11846240D01*
X15446060Y-11826240D02*
X15486060Y-11826240D01*
X15481300Y-8666800D02*
X15481300Y-8706800D01*
X15461300Y-8686800D02*
X15501300Y-8686800D01*
X15529560Y-11907840D02*
X15529560Y-11947840D01*
X15509560Y-11927840D02*
X15549560Y-11927840D01*
X15570200Y-10142540D02*
X15570200Y-10182540D01*
X15550200Y-10162540D02*
X15590200Y-10162540D01*
X15621000Y-6990400D02*
X15621000Y-7030400D01*
X15601000Y-7010400D02*
X15641000Y-7010400D01*
X15633700Y-10973120D02*
X15633700Y-11013120D01*
X15613700Y-10993120D02*
X15653700Y-10993120D01*
X15646400Y-7676200D02*
X15646400Y-7716200D01*
X15626400Y-7696200D02*
X15666400Y-7696200D01*
X15671800Y-12959400D02*
X15671800Y-12999400D01*
X15651800Y-12979400D02*
X15691800Y-12979400D01*
X15697200Y-12553000D02*
X15697200Y-12593000D01*
X15677200Y-12573000D02*
X15717200Y-12573000D01*
X15735300Y-8069900D02*
X15735300Y-8109900D01*
X15715300Y-8089900D02*
X15755300Y-8089900D01*
X15773400Y-8577900D02*
X15773400Y-8617900D01*
X15753400Y-8597900D02*
X15793400Y-8597900D01*
X15798800Y-6711000D02*
X15798800Y-6751000D01*
X15778800Y-6731000D02*
X15818800Y-6731000D01*
X15808960Y-6914200D02*
X15808960Y-6954200D01*
X15788960Y-6934200D02*
X15828960Y-6934200D01*
X15811500Y-12832400D02*
X15811500Y-12872400D01*
X15791500Y-12852400D02*
X15831500Y-12852400D01*
X15826740Y-12027220D02*
X15826740Y-12067220D01*
X15806740Y-12047220D02*
X15846740Y-12047220D01*
X15890240Y-7066600D02*
X15890240Y-7106600D01*
X15870240Y-7086600D02*
X15910240Y-7086600D01*
X15900400Y-11460800D02*
X15900400Y-11500800D01*
X15880400Y-11480800D02*
X15920400Y-11480800D01*
X15900400Y-12934000D02*
X15900400Y-12974000D01*
X15880400Y-12954000D02*
X15920400Y-12954000D01*
X15913100Y-11773220D02*
X15913100Y-11813220D01*
X15893100Y-11793220D02*
X15933100Y-11793220D01*
X15972000Y-11591000D02*
X15972000Y-11631000D01*
X15952000Y-11611000D02*
X15992000Y-11611000D01*
X15976600Y-12372660D02*
X15976600Y-12412660D01*
X15956600Y-12392660D02*
X15996600Y-12392660D01*
X16002000Y-11816400D02*
X16002000Y-11856400D01*
X15982000Y-11836400D02*
X16022000Y-11836400D01*
X16027400Y-6228400D02*
X16027400Y-6268400D01*
X16007400Y-6248400D02*
X16047400Y-6248400D01*
X16052800Y-12654600D02*
X16052800Y-12694600D01*
X16032800Y-12674600D02*
X16072800Y-12674600D01*
X16078200Y-12291380D02*
X16078200Y-12331380D01*
X16058200Y-12311380D02*
X16098200Y-12311380D01*
X16093440Y-11872280D02*
X16093440Y-11912280D01*
X16073440Y-11892280D02*
X16113440Y-11892280D01*
X16095980Y-12474260D02*
X16095980Y-12514260D01*
X16075980Y-12494260D02*
X16115980Y-12494260D01*
X16154400Y-6787200D02*
X16154400Y-6827200D01*
X16134400Y-6807200D02*
X16174400Y-6807200D01*
X16154400Y-7168200D02*
X16154400Y-7208200D01*
X16134400Y-7188200D02*
X16174400Y-7188200D01*
X16187420Y-11717340D02*
X16187420Y-11757340D01*
X16167420Y-11737340D02*
X16207420Y-11737340D01*
X16281400Y-6482400D02*
X16281400Y-6522400D01*
X16261400Y-6502400D02*
X16301400Y-6502400D01*
X16281400Y-12197400D02*
X16281400Y-12237400D01*
X16261400Y-12217400D02*
X16301400Y-12217400D01*
X16319500Y-10777540D02*
X16319500Y-10817540D01*
X16299500Y-10797540D02*
X16339500Y-10797540D01*
X16383000Y-11778300D02*
X16383000Y-11818300D01*
X16363000Y-11798300D02*
X16403000Y-11798300D01*
X16392000Y-7845000D02*
X16392000Y-7885000D01*
X16372000Y-7865000D02*
X16412000Y-7865000D01*
X16433800Y-6477320D02*
X16433800Y-6517320D01*
X16413800Y-6497320D02*
X16453800Y-6497320D01*
X16484600Y-11867200D02*
X16484600Y-11907200D01*
X16464600Y-11887200D02*
X16504600Y-11887200D01*
X16497300Y-10101900D02*
X16497300Y-10141900D01*
X16477300Y-10121900D02*
X16517300Y-10121900D01*
X16560800Y-11791000D02*
X16560800Y-11831000D01*
X16540800Y-11811000D02*
X16580800Y-11811000D01*
X16586200Y-11676700D02*
X16586200Y-11716700D01*
X16566200Y-11696700D02*
X16606200Y-11696700D01*
X16725900Y-9454200D02*
X16725900Y-9494200D01*
X16705900Y-9474200D02*
X16745900Y-9474200D01*
X16852900Y-9746300D02*
X16852900Y-9786300D01*
X16832900Y-9766300D02*
X16872900Y-9766300D01*
X16878300Y-7104700D02*
X16878300Y-7144700D01*
X16858300Y-7124700D02*
X16898300Y-7124700D01*
X16878300Y-8743000D02*
X16878300Y-8783000D01*
X16858300Y-8763000D02*
X16898300Y-8763000D01*
X16941800Y-9454200D02*
X16941800Y-9494200D01*
X16921800Y-9474200D02*
X16961800Y-9474200D01*
X17018000Y-11232200D02*
X17018000Y-11272200D01*
X16998000Y-11252200D02*
X17038000Y-11252200D01*
X17221200Y-8910640D02*
X17221200Y-8950640D01*
X17201200Y-8930640D02*
X17241200Y-8930640D01*
X17411700Y-8831900D02*
X17411700Y-8871900D01*
X17391700Y-8851900D02*
X17431700Y-8851900D01*
X17449800Y-9479600D02*
X17449800Y-9519600D01*
X17429800Y-9499600D02*
X17469800Y-9499600D01*
X17576800Y-10101900D02*
X17576800Y-10141900D01*
X17556800Y-10121900D02*
X17596800Y-10121900D01*
X17576800Y-10711500D02*
X17576800Y-10751500D01*
X17556800Y-10731500D02*
X17596800Y-10731500D01*
X17665700Y-8717600D02*
X17665700Y-8757600D01*
X17645700Y-8737600D02*
X17685700Y-8737600D01*
X18084800Y-10101900D02*
X18084800Y-10141900D01*
X18064800Y-10121900D02*
X18104800Y-10121900D01*
X18237200Y-6304600D02*
X18237200Y-6344600D01*
X18217200Y-6324600D02*
X18257200Y-6324600D01*
X18249900Y-9441500D02*
X18249900Y-9481500D01*
X18229900Y-9461500D02*
X18269900Y-9461500D01*
X18338800Y-7688900D02*
X18338800Y-7728900D01*
X18318800Y-7708900D02*
X18358800Y-7708900D01*
X18455640Y-11943400D02*
X18455640Y-11983400D01*
X18435640Y-11963400D02*
X18475640Y-11963400D01*
X18465800Y-10343200D02*
X18465800Y-10383200D01*
X18445800Y-10363200D02*
X18485800Y-10363200D01*
X18486120Y-10846120D02*
X18486120Y-10886120D01*
X18466120Y-10866120D02*
X18506120Y-10866120D01*
X18653760Y-10830880D02*
X18653760Y-10870880D01*
X18633760Y-10850880D02*
X18673760Y-10850880D01*
X20538440Y-9505000D02*
X20538440Y-9545000D01*
X20518440Y-9525000D02*
X20558440Y-9525000D01*
X10365720Y-8044820D02*
X10365720Y-7981180D01*
X10302080Y-7981180D01*
X10302080Y-8044820D01*
X10365720Y-8044820D01*
X10365720Y-8298820D02*
X10365720Y-8235180D01*
X10302080Y-8235180D01*
X10302080Y-8298820D01*
X10365720Y-8298820D01*
X10365720Y-8552820D02*
X10365720Y-8489180D01*
X10302080Y-8489180D01*
X10302080Y-8552820D01*
X10365720Y-8552820D01*
X10726400Y-7648580D02*
X10726400Y-7584940D01*
X10662760Y-7584940D01*
X10662760Y-7648580D01*
X10726400Y-7648580D01*
X10659580Y-7661760D02*
X10729580Y-7661760D01*
X10729580Y-7571760D02*
G75*
G02*
X10729580Y-7661760I0J-45000D01*
G01*
X10729580Y-7571760D02*
X10659580Y-7571760D01*
X10659580Y-7571760D02*
G75*
G03*
X10659580Y-7661760I0J-45000D01*
G01*
X10726400Y-8918580D02*
X10726400Y-8854940D01*
X10662760Y-8854940D01*
X10662760Y-8918580D01*
X10726400Y-8918580D01*
X10659580Y-8931760D02*
X10729580Y-8931760D01*
X10729580Y-8841760D02*
G75*
G02*
X10729580Y-8931760I0J-45000D01*
G01*
X10729580Y-8841760D02*
X10659580Y-8841760D01*
X10659580Y-8841760D02*
G75*
G03*
X10659580Y-8931760I0J-45000D01*
G01*
X10980400Y-7404740D02*
X10980400Y-7341100D01*
X10916760Y-7341100D01*
X10916760Y-7404740D01*
X10980400Y-7404740D01*
X11234400Y-7404740D02*
X11234400Y-7341100D01*
X11170760Y-7341100D01*
X11170760Y-7404740D01*
X11234400Y-7404740D01*
X11488400Y-7404740D02*
X11488400Y-7341100D01*
X11424760Y-7341100D01*
X11424760Y-7404740D01*
X11488400Y-7404740D01*
X11739860Y-7648580D02*
X11739860Y-7584940D01*
X11676220Y-7584940D01*
X11676220Y-7648580D01*
X11739860Y-7648580D01*
X11673040Y-7661760D02*
X11743040Y-7661760D01*
X11743040Y-7571760D02*
G75*
G02*
X11743040Y-7661760I0J-45000D01*
G01*
X11743040Y-7571760D02*
X11673040Y-7571760D01*
X11673040Y-7571760D02*
G75*
G03*
X11673040Y-7661760I0J-45000D01*
G01*
X11739860Y-8918580D02*
X11739860Y-8854940D01*
X11676220Y-8854940D01*
X11676220Y-8918580D01*
X11739860Y-8918580D01*
X11673040Y-8931760D02*
X11743040Y-8931760D01*
X11743040Y-8841760D02*
G75*
G02*
X11743040Y-8931760I0J-45000D01*
G01*
X11743040Y-8841760D02*
X11673040Y-8841760D01*
X11673040Y-8841760D02*
G75*
G03*
X11673040Y-8931760I0J-45000D01*
G01*
X11810980Y-8608700D02*
X11810980Y-8545060D01*
X11747340Y-8545060D01*
X11747340Y-8608700D01*
X11810980Y-8608700D01*
X12268180Y-7958460D02*
X12268180Y-7894820D01*
X12204540Y-7894820D01*
X12204540Y-7958460D01*
X12268180Y-7958460D01*
X12268180Y-8608700D02*
X12268180Y-8545060D01*
X12204540Y-8545060D01*
X12204540Y-8608700D01*
X12268180Y-8608700D01*
X16904560Y-10840900D02*
X16904560Y-10777260D01*
X16840920Y-10777260D01*
X16840920Y-10840900D01*
X16904560Y-10840900D01*
X16827740Y-10774080D02*
X16827740Y-10844080D01*
X16917740Y-10844080D02*
G75*
G02*
X16827740Y-10844080I-45000J0D01*
G01*
X16917740Y-10844080D02*
X16917740Y-10774080D01*
X16917740Y-10774080D02*
G75*
G03*
X16827740Y-10774080I-45000J0D01*
G01*
X16904560Y-11854360D02*
X16904560Y-11790720D01*
X16840920Y-11790720D01*
X16840920Y-11854360D01*
X16904560Y-11854360D01*
X16827740Y-11787540D02*
X16827740Y-11857540D01*
X16917740Y-11857540D02*
G75*
G02*
X16827740Y-11857540I-45000J0D01*
G01*
X16917740Y-11857540D02*
X16917740Y-11787540D01*
X16917740Y-11787540D02*
G75*
G03*
X16827740Y-11787540I-45000J0D01*
G01*
X17214440Y-11925480D02*
X17214440Y-11861840D01*
X17150800Y-11861840D01*
X17150800Y-11925480D01*
X17214440Y-11925480D01*
X17214440Y-12382680D02*
X17214440Y-12319040D01*
X17150800Y-12319040D01*
X17150800Y-12382680D01*
X17214440Y-12382680D01*
X17270320Y-10480220D02*
X17270320Y-10416580D01*
X17206680Y-10416580D01*
X17206680Y-10480220D01*
X17270320Y-10480220D01*
X17524320Y-10480220D02*
X17524320Y-10416580D01*
X17460680Y-10416580D01*
X17460680Y-10480220D01*
X17524320Y-10480220D01*
X17778320Y-10480220D02*
X17778320Y-10416580D01*
X17714680Y-10416580D01*
X17714680Y-10480220D01*
X17778320Y-10480220D01*
X17864680Y-12382680D02*
X17864680Y-12319040D01*
X17801040Y-12319040D01*
X17801040Y-12382680D01*
X17864680Y-12382680D01*
X18174560Y-10840900D02*
X18174560Y-10777260D01*
X18110920Y-10777260D01*
X18110920Y-10840900D01*
X18174560Y-10840900D01*
X18097740Y-10774080D02*
X18097740Y-10844080D01*
X18187740Y-10844080D02*
G75*
G02*
X18097740Y-10844080I-45000J0D01*
G01*
X18187740Y-10844080D02*
X18187740Y-10774080D01*
X18187740Y-10774080D02*
G75*
G03*
X18097740Y-10774080I-45000J0D01*
G01*
X18174560Y-11854360D02*
X18174560Y-11790720D01*
X18110920Y-11790720D01*
X18110920Y-11854360D01*
X18174560Y-11854360D01*
X18097740Y-11787540D02*
X18097740Y-11857540D01*
X18187740Y-11857540D02*
G75*
G02*
X18097740Y-11857540I-45000J0D01*
G01*
X18187740Y-11857540D02*
X18187740Y-11787540D01*
X18187740Y-11787540D02*
G75*
G03*
X18097740Y-11787540I-45000J0D01*
G01*
X18418400Y-11094900D02*
X18418400Y-11031260D01*
X18354760Y-11031260D01*
X18354760Y-11094900D01*
X18418400Y-11094900D01*
X18418400Y-11348900D02*
X18418400Y-11285260D01*
X18354760Y-11285260D01*
X18354760Y-11348900D01*
X18418400Y-11348900D01*
X18418400Y-11602900D02*
X18418400Y-11539260D01*
X18354760Y-11539260D01*
X18354760Y-11602900D01*
X18418400Y-11602900D01*
X16979000Y-6241000D02*
X17029000Y-6191000D01*
X16979000Y-6141000D01*
X16929000Y-6191000D01*
X16979000Y-6241000D01*
X20330160Y-10250640D02*
X20380160Y-10200640D01*
X20330160Y-10150640D01*
X20280160Y-10200640D01*
X20330160Y-10250640D01*
X20760000Y-6330000D02*
X20810000Y-6280000D01*
X20760000Y-6230000D01*
X20710000Y-6280000D01*
X20760000Y-6330000D01*
D13*
X11689160Y-8011640D02*
X11839160Y-8161640D01*
X11839160Y-8011640D02*
X11689160Y-8161640D01*
X11839160Y-8086640D02*
G75*
G02*
X11689160Y-8086640I-75000J0D01*
G01*
X11689160Y-8086640D02*
G75*
G02*
X11839160Y-8086640I75000J0D01*
G01*
D12*
X11689160Y-7956640D02*
X11689160Y-8216640D01*
X11839160Y-8216640D02*
G75*
G02*
X11689160Y-8216640I-75000J0D01*
G01*
X11839160Y-8216640D02*
X11839160Y-7956640D01*
X11839160Y-7956640D02*
G75*
G03*
X11689160Y-7956640I-75000J0D01*
G01*
D13*
X17597860Y-11803660D02*
X17747860Y-11953660D01*
X17747860Y-11803660D02*
X17597860Y-11953660D01*
X17747860Y-11878660D02*
G75*
G02*
X17597860Y-11878660I-75000J0D01*
G01*
X17597860Y-11878660D02*
G75*
G02*
X17747860Y-11878660I75000J0D01*
G01*
D12*
X17802860Y-11803660D02*
X17542860Y-11803660D01*
X17542860Y-11953660D02*
G75*
G02*
X17542860Y-11803660I0J75000D01*
G01*
X17542860Y-11953660D02*
X17802860Y-11953660D01*
X17802860Y-11953660D02*
G75*
G03*
X17802860Y-11803660I0J75000D01*
G01*
D11*
X9225777Y-13533984D02*
X9225777Y-13333984D01*
X9225777Y-13333984D02*
X9273396Y-13333984D01*
X9273396Y-13333984D02*
X9301967Y-13343508D01*
X9301967Y-13343508D02*
X9321015Y-13362555D01*
X9321015Y-13362555D02*
X9330539Y-13381603D01*
X9330539Y-13381603D02*
X9340063Y-13419698D01*
X9340063Y-13419698D02*
X9340063Y-13448269D01*
X9340063Y-13448269D02*
X9330539Y-13486365D01*
X9330539Y-13486365D02*
X9321015Y-13505412D01*
X9321015Y-13505412D02*
X9301967Y-13524460D01*
X9301967Y-13524460D02*
X9273396Y-13533984D01*
X9273396Y-13533984D02*
X9225777Y-13533984D01*
X9425777Y-13533984D02*
X9425777Y-13400650D01*
X9425777Y-13438746D02*
X9435301Y-13419698D01*
X9435301Y-13419698D02*
X9444824Y-13410174D01*
X9444824Y-13410174D02*
X9463872Y-13400650D01*
X9463872Y-13400650D02*
X9482920Y-13400650D01*
X9549586Y-13533984D02*
X9549586Y-13400650D01*
X9549586Y-13333984D02*
X9540063Y-13343508D01*
X9540063Y-13343508D02*
X9549586Y-13353031D01*
X9549586Y-13353031D02*
X9559110Y-13343508D01*
X9559110Y-13343508D02*
X9549586Y-13333984D01*
X9549586Y-13333984D02*
X9549586Y-13353031D01*
X9673396Y-13533984D02*
X9654348Y-13524460D01*
X9654348Y-13524460D02*
X9644824Y-13505412D01*
X9644824Y-13505412D02*
X9644824Y-13333984D01*
X9778158Y-13533984D02*
X9759110Y-13524460D01*
X9759110Y-13524460D02*
X9749586Y-13505412D01*
X9749586Y-13505412D02*
X9749586Y-13333984D01*
X10006729Y-13533984D02*
X10006729Y-13333984D01*
X10006729Y-13333984D02*
X10073396Y-13476841D01*
X10073396Y-13476841D02*
X10140063Y-13333984D01*
X10140063Y-13333984D02*
X10140063Y-13533984D01*
X10321015Y-13533984D02*
X10321015Y-13429222D01*
X10321015Y-13429222D02*
X10311491Y-13410174D01*
X10311491Y-13410174D02*
X10292444Y-13400650D01*
X10292444Y-13400650D02*
X10254348Y-13400650D01*
X10254348Y-13400650D02*
X10235301Y-13410174D01*
X10321015Y-13524460D02*
X10301967Y-13533984D01*
X10301967Y-13533984D02*
X10254348Y-13533984D01*
X10254348Y-13533984D02*
X10235301Y-13524460D01*
X10235301Y-13524460D02*
X10225777Y-13505412D01*
X10225777Y-13505412D02*
X10225777Y-13486365D01*
X10225777Y-13486365D02*
X10235301Y-13467317D01*
X10235301Y-13467317D02*
X10254348Y-13457793D01*
X10254348Y-13457793D02*
X10301967Y-13457793D01*
X10301967Y-13457793D02*
X10321015Y-13448269D01*
X10416253Y-13400650D02*
X10416253Y-13600650D01*
X10416253Y-13410174D02*
X10435301Y-13400650D01*
X10435301Y-13400650D02*
X10473396Y-13400650D01*
X10473396Y-13400650D02*
X10492444Y-13410174D01*
X10492444Y-13410174D02*
X10501967Y-13419698D01*
X10501967Y-13419698D02*
X10511491Y-13438746D01*
X10511491Y-13438746D02*
X10511491Y-13495888D01*
X10511491Y-13495888D02*
X10501967Y-13514936D01*
X10501967Y-13514936D02*
X10492444Y-13524460D01*
X10492444Y-13524460D02*
X10473396Y-13533984D01*
X10473396Y-13533984D02*
X10435301Y-13533984D01*
X10435301Y-13533984D02*
X10416253Y-13524460D01*
X10597205Y-13514936D02*
X10606729Y-13524460D01*
X10606729Y-13524460D02*
X10597205Y-13533984D01*
X10597205Y-13533984D02*
X10587682Y-13524460D01*
X10587682Y-13524460D02*
X10597205Y-13514936D01*
X10597205Y-13514936D02*
X10597205Y-13533984D01*
X10597205Y-13410174D02*
X10606729Y-13419698D01*
X10606729Y-13419698D02*
X10597205Y-13429222D01*
X10597205Y-13429222D02*
X10587682Y-13419698D01*
X10587682Y-13419698D02*
X10597205Y-13410174D01*
X10597205Y-13410174D02*
X10597205Y-13429222D01*
D12*
X8935000Y-13847500D02*
X8965000Y-13877500D01*
X8965000Y-13847500D02*
X8935000Y-13877500D01*
D11*
X9263872Y-13753984D02*
X9282920Y-13753984D01*
X9282920Y-13753984D02*
X9301967Y-13763508D01*
X9301967Y-13763508D02*
X9311491Y-13773031D01*
X9311491Y-13773031D02*
X9321015Y-13792079D01*
X9321015Y-13792079D02*
X9330539Y-13830174D01*
X9330539Y-13830174D02*
X9330539Y-13877793D01*
X9330539Y-13877793D02*
X9321015Y-13915888D01*
X9321015Y-13915888D02*
X9311491Y-13934936D01*
X9311491Y-13934936D02*
X9301967Y-13944460D01*
X9301967Y-13944460D02*
X9282920Y-13953984D01*
X9282920Y-13953984D02*
X9263872Y-13953984D01*
X9263872Y-13953984D02*
X9244824Y-13944460D01*
X9244824Y-13944460D02*
X9235301Y-13934936D01*
X9235301Y-13934936D02*
X9225777Y-13915888D01*
X9225777Y-13915888D02*
X9216253Y-13877793D01*
X9216253Y-13877793D02*
X9216253Y-13830174D01*
X9216253Y-13830174D02*
X9225777Y-13792079D01*
X9225777Y-13792079D02*
X9235301Y-13773031D01*
X9235301Y-13773031D02*
X9244824Y-13763508D01*
X9244824Y-13763508D02*
X9263872Y-13753984D01*
X9416253Y-13934936D02*
X9425777Y-13944460D01*
X9425777Y-13944460D02*
X9416253Y-13953984D01*
X9416253Y-13953984D02*
X9406729Y-13944460D01*
X9406729Y-13944460D02*
X9416253Y-13934936D01*
X9416253Y-13934936D02*
X9416253Y-13953984D01*
X9492444Y-13753984D02*
X9616253Y-13753984D01*
X9616253Y-13753984D02*
X9549586Y-13830174D01*
X9549586Y-13830174D02*
X9578158Y-13830174D01*
X9578158Y-13830174D02*
X9597205Y-13839698D01*
X9597205Y-13839698D02*
X9606729Y-13849222D01*
X9606729Y-13849222D02*
X9616253Y-13868269D01*
X9616253Y-13868269D02*
X9616253Y-13915888D01*
X9616253Y-13915888D02*
X9606729Y-13934936D01*
X9606729Y-13934936D02*
X9597205Y-13944460D01*
X9597205Y-13944460D02*
X9578158Y-13953984D01*
X9578158Y-13953984D02*
X9521015Y-13953984D01*
X9521015Y-13953984D02*
X9501967Y-13944460D01*
X9501967Y-13944460D02*
X9492444Y-13934936D01*
X9740063Y-13753984D02*
X9759110Y-13753984D01*
X9759110Y-13753984D02*
X9778158Y-13763508D01*
X9778158Y-13763508D02*
X9787682Y-13773031D01*
X9787682Y-13773031D02*
X9797205Y-13792079D01*
X9797205Y-13792079D02*
X9806729Y-13830174D01*
X9806729Y-13830174D02*
X9806729Y-13877793D01*
X9806729Y-13877793D02*
X9797205Y-13915888D01*
X9797205Y-13915888D02*
X9787682Y-13934936D01*
X9787682Y-13934936D02*
X9778158Y-13944460D01*
X9778158Y-13944460D02*
X9759110Y-13953984D01*
X9759110Y-13953984D02*
X9740063Y-13953984D01*
X9740063Y-13953984D02*
X9721015Y-13944460D01*
X9721015Y-13944460D02*
X9711491Y-13934936D01*
X9711491Y-13934936D02*
X9701967Y-13915888D01*
X9701967Y-13915888D02*
X9692444Y-13877793D01*
X9692444Y-13877793D02*
X9692444Y-13830174D01*
X9692444Y-13830174D02*
X9701967Y-13792079D01*
X9701967Y-13792079D02*
X9711491Y-13773031D01*
X9711491Y-13773031D02*
X9721015Y-13763508D01*
X9721015Y-13763508D02*
X9740063Y-13753984D01*
X9930539Y-13753984D02*
X9949586Y-13753984D01*
X9949586Y-13753984D02*
X9968634Y-13763508D01*
X9968634Y-13763508D02*
X9978158Y-13773031D01*
X9978158Y-13773031D02*
X9987682Y-13792079D01*
X9987682Y-13792079D02*
X9997205Y-13830174D01*
X9997205Y-13830174D02*
X9997205Y-13877793D01*
X9997205Y-13877793D02*
X9987682Y-13915888D01*
X9987682Y-13915888D02*
X9978158Y-13934936D01*
X9978158Y-13934936D02*
X9968634Y-13944460D01*
X9968634Y-13944460D02*
X9949586Y-13953984D01*
X9949586Y-13953984D02*
X9930539Y-13953984D01*
X9930539Y-13953984D02*
X9911491Y-13944460D01*
X9911491Y-13944460D02*
X9901967Y-13934936D01*
X9901967Y-13934936D02*
X9892444Y-13915888D01*
X9892444Y-13915888D02*
X9882920Y-13877793D01*
X9882920Y-13877793D02*
X9882920Y-13830174D01*
X9882920Y-13830174D02*
X9892444Y-13792079D01*
X9892444Y-13792079D02*
X9901967Y-13773031D01*
X9901967Y-13773031D02*
X9911491Y-13763508D01*
X9911491Y-13763508D02*
X9930539Y-13753984D01*
X10082920Y-13953984D02*
X10082920Y-13820650D01*
X10082920Y-13839698D02*
X10092444Y-13830174D01*
X10092444Y-13830174D02*
X10111491Y-13820650D01*
X10111491Y-13820650D02*
X10140063Y-13820650D01*
X10140063Y-13820650D02*
X10159110Y-13830174D01*
X10159110Y-13830174D02*
X10168634Y-13849222D01*
X10168634Y-13849222D02*
X10168634Y-13953984D01*
X10168634Y-13849222D02*
X10178158Y-13830174D01*
X10178158Y-13830174D02*
X10197205Y-13820650D01*
X10197205Y-13820650D02*
X10225777Y-13820650D01*
X10225777Y-13820650D02*
X10244825Y-13830174D01*
X10244825Y-13830174D02*
X10254348Y-13849222D01*
X10254348Y-13849222D02*
X10254348Y-13953984D01*
X10349586Y-13953984D02*
X10349586Y-13820650D01*
X10349586Y-13839698D02*
X10359110Y-13830174D01*
X10359110Y-13830174D02*
X10378158Y-13820650D01*
X10378158Y-13820650D02*
X10406729Y-13820650D01*
X10406729Y-13820650D02*
X10425777Y-13830174D01*
X10425777Y-13830174D02*
X10435301Y-13849222D01*
X10435301Y-13849222D02*
X10435301Y-13953984D01*
X10435301Y-13849222D02*
X10444825Y-13830174D01*
X10444825Y-13830174D02*
X10463872Y-13820650D01*
X10463872Y-13820650D02*
X10492444Y-13820650D01*
X10492444Y-13820650D02*
X10511491Y-13830174D01*
X10511491Y-13830174D02*
X10521015Y-13849222D01*
X10521015Y-13849222D02*
X10521015Y-13953984D01*
X10911491Y-13744460D02*
X10740063Y-14001603D01*
X11168634Y-13753984D02*
X11187682Y-13753984D01*
X11187682Y-13753984D02*
X11206729Y-13763508D01*
X11206729Y-13763508D02*
X11216253Y-13773031D01*
X11216253Y-13773031D02*
X11225777Y-13792079D01*
X11225777Y-13792079D02*
X11235301Y-13830174D01*
X11235301Y-13830174D02*
X11235301Y-13877793D01*
X11235301Y-13877793D02*
X11225777Y-13915888D01*
X11225777Y-13915888D02*
X11216253Y-13934936D01*
X11216253Y-13934936D02*
X11206729Y-13944460D01*
X11206729Y-13944460D02*
X11187682Y-13953984D01*
X11187682Y-13953984D02*
X11168634Y-13953984D01*
X11168634Y-13953984D02*
X11149587Y-13944460D01*
X11149587Y-13944460D02*
X11140063Y-13934936D01*
X11140063Y-13934936D02*
X11130539Y-13915888D01*
X11130539Y-13915888D02*
X11121015Y-13877793D01*
X11121015Y-13877793D02*
X11121015Y-13830174D01*
X11121015Y-13830174D02*
X11130539Y-13792079D01*
X11130539Y-13792079D02*
X11140063Y-13773031D01*
X11140063Y-13773031D02*
X11149587Y-13763508D01*
X11149587Y-13763508D02*
X11168634Y-13753984D01*
X11321015Y-13934936D02*
X11330539Y-13944460D01*
X11330539Y-13944460D02*
X11321015Y-13953984D01*
X11321015Y-13953984D02*
X11311491Y-13944460D01*
X11311491Y-13944460D02*
X11321015Y-13934936D01*
X11321015Y-13934936D02*
X11321015Y-13953984D01*
X11454348Y-13753984D02*
X11473396Y-13753984D01*
X11473396Y-13753984D02*
X11492444Y-13763508D01*
X11492444Y-13763508D02*
X11501967Y-13773031D01*
X11501967Y-13773031D02*
X11511491Y-13792079D01*
X11511491Y-13792079D02*
X11521015Y-13830174D01*
X11521015Y-13830174D02*
X11521015Y-13877793D01*
X11521015Y-13877793D02*
X11511491Y-13915888D01*
X11511491Y-13915888D02*
X11501967Y-13934936D01*
X11501967Y-13934936D02*
X11492444Y-13944460D01*
X11492444Y-13944460D02*
X11473396Y-13953984D01*
X11473396Y-13953984D02*
X11454348Y-13953984D01*
X11454348Y-13953984D02*
X11435301Y-13944460D01*
X11435301Y-13944460D02*
X11425777Y-13934936D01*
X11425777Y-13934936D02*
X11416253Y-13915888D01*
X11416253Y-13915888D02*
X11406729Y-13877793D01*
X11406729Y-13877793D02*
X11406729Y-13830174D01*
X11406729Y-13830174D02*
X11416253Y-13792079D01*
X11416253Y-13792079D02*
X11425777Y-13773031D01*
X11425777Y-13773031D02*
X11435301Y-13763508D01*
X11435301Y-13763508D02*
X11454348Y-13753984D01*
X11711491Y-13953984D02*
X11597206Y-13953984D01*
X11654348Y-13953984D02*
X11654348Y-13753984D01*
X11654348Y-13753984D02*
X11635301Y-13782555D01*
X11635301Y-13782555D02*
X11616253Y-13801603D01*
X11616253Y-13801603D02*
X11597206Y-13811127D01*
X11901967Y-13953984D02*
X11787682Y-13953984D01*
X11844825Y-13953984D02*
X11844825Y-13753984D01*
X11844825Y-13753984D02*
X11825777Y-13782555D01*
X11825777Y-13782555D02*
X11806729Y-13801603D01*
X11806729Y-13801603D02*
X11787682Y-13811127D01*
X12016253Y-13839698D02*
X11997206Y-13830174D01*
X11997206Y-13830174D02*
X11987682Y-13820650D01*
X11987682Y-13820650D02*
X11978158Y-13801603D01*
X11978158Y-13801603D02*
X11978158Y-13792079D01*
X11978158Y-13792079D02*
X11987682Y-13773031D01*
X11987682Y-13773031D02*
X11997206Y-13763508D01*
X11997206Y-13763508D02*
X12016253Y-13753984D01*
X12016253Y-13753984D02*
X12054348Y-13753984D01*
X12054348Y-13753984D02*
X12073396Y-13763508D01*
X12073396Y-13763508D02*
X12082920Y-13773031D01*
X12082920Y-13773031D02*
X12092444Y-13792079D01*
X12092444Y-13792079D02*
X12092444Y-13801603D01*
X12092444Y-13801603D02*
X12082920Y-13820650D01*
X12082920Y-13820650D02*
X12073396Y-13830174D01*
X12073396Y-13830174D02*
X12054348Y-13839698D01*
X12054348Y-13839698D02*
X12016253Y-13839698D01*
X12016253Y-13839698D02*
X11997206Y-13849222D01*
X11997206Y-13849222D02*
X11987682Y-13858746D01*
X11987682Y-13858746D02*
X11978158Y-13877793D01*
X11978158Y-13877793D02*
X11978158Y-13915888D01*
X11978158Y-13915888D02*
X11987682Y-13934936D01*
X11987682Y-13934936D02*
X11997206Y-13944460D01*
X11997206Y-13944460D02*
X12016253Y-13953984D01*
X12016253Y-13953984D02*
X12054348Y-13953984D01*
X12054348Y-13953984D02*
X12073396Y-13944460D01*
X12073396Y-13944460D02*
X12082920Y-13934936D01*
X12082920Y-13934936D02*
X12092444Y-13915888D01*
X12092444Y-13915888D02*
X12092444Y-13877793D01*
X12092444Y-13877793D02*
X12082920Y-13858746D01*
X12082920Y-13858746D02*
X12073396Y-13849222D01*
X12073396Y-13849222D02*
X12054348Y-13839698D01*
X12168634Y-13753984D02*
X12168634Y-13792079D01*
X12244825Y-13753984D02*
X12244825Y-13792079D01*
X12540063Y-14030174D02*
X12530539Y-14020650D01*
X12530539Y-14020650D02*
X12511491Y-13992079D01*
X12511491Y-13992079D02*
X12501968Y-13973031D01*
X12501968Y-13973031D02*
X12492444Y-13944460D01*
X12492444Y-13944460D02*
X12482920Y-13896841D01*
X12482920Y-13896841D02*
X12482920Y-13858746D01*
X12482920Y-13858746D02*
X12492444Y-13811127D01*
X12492444Y-13811127D02*
X12501968Y-13782555D01*
X12501968Y-13782555D02*
X12511491Y-13763508D01*
X12511491Y-13763508D02*
X12530539Y-13734936D01*
X12530539Y-13734936D02*
X12540063Y-13725412D01*
X12721015Y-13953984D02*
X12606729Y-13953984D01*
X12663872Y-13953984D02*
X12663872Y-13753984D01*
X12663872Y-13753984D02*
X12644825Y-13782555D01*
X12644825Y-13782555D02*
X12625777Y-13801603D01*
X12625777Y-13801603D02*
X12606729Y-13811127D01*
X12959110Y-13953984D02*
X12959110Y-13753984D01*
X13044825Y-13953984D02*
X13044825Y-13849222D01*
X13044825Y-13849222D02*
X13035301Y-13830174D01*
X13035301Y-13830174D02*
X13016253Y-13820650D01*
X13016253Y-13820650D02*
X12987682Y-13820650D01*
X12987682Y-13820650D02*
X12968634Y-13830174D01*
X12968634Y-13830174D02*
X12959110Y-13839698D01*
X13168634Y-13953984D02*
X13149587Y-13944460D01*
X13149587Y-13944460D02*
X13140063Y-13934936D01*
X13140063Y-13934936D02*
X13130539Y-13915888D01*
X13130539Y-13915888D02*
X13130539Y-13858746D01*
X13130539Y-13858746D02*
X13140063Y-13839698D01*
X13140063Y-13839698D02*
X13149587Y-13830174D01*
X13149587Y-13830174D02*
X13168634Y-13820650D01*
X13168634Y-13820650D02*
X13197206Y-13820650D01*
X13197206Y-13820650D02*
X13216253Y-13830174D01*
X13216253Y-13830174D02*
X13225777Y-13839698D01*
X13225777Y-13839698D02*
X13235301Y-13858746D01*
X13235301Y-13858746D02*
X13235301Y-13915888D01*
X13235301Y-13915888D02*
X13225777Y-13934936D01*
X13225777Y-13934936D02*
X13216253Y-13944460D01*
X13216253Y-13944460D02*
X13197206Y-13953984D01*
X13197206Y-13953984D02*
X13168634Y-13953984D01*
X13349587Y-13953984D02*
X13330539Y-13944460D01*
X13330539Y-13944460D02*
X13321015Y-13925412D01*
X13321015Y-13925412D02*
X13321015Y-13753984D01*
X13501968Y-13944460D02*
X13482920Y-13953984D01*
X13482920Y-13953984D02*
X13444825Y-13953984D01*
X13444825Y-13953984D02*
X13425777Y-13944460D01*
X13425777Y-13944460D02*
X13416253Y-13925412D01*
X13416253Y-13925412D02*
X13416253Y-13849222D01*
X13416253Y-13849222D02*
X13425777Y-13830174D01*
X13425777Y-13830174D02*
X13444825Y-13820650D01*
X13444825Y-13820650D02*
X13482920Y-13820650D01*
X13482920Y-13820650D02*
X13501968Y-13830174D01*
X13501968Y-13830174D02*
X13511491Y-13849222D01*
X13511491Y-13849222D02*
X13511491Y-13868269D01*
X13511491Y-13868269D02*
X13416253Y-13887317D01*
X13578158Y-14030174D02*
X13587682Y-14020650D01*
X13587682Y-14020650D02*
X13606730Y-13992079D01*
X13606730Y-13992079D02*
X13616253Y-13973031D01*
X13616253Y-13973031D02*
X13625777Y-13944460D01*
X13625777Y-13944460D02*
X13635301Y-13896841D01*
X13635301Y-13896841D02*
X13635301Y-13858746D01*
X13635301Y-13858746D02*
X13625777Y-13811127D01*
X13625777Y-13811127D02*
X13616253Y-13782555D01*
X13616253Y-13782555D02*
X13606730Y-13763508D01*
X13606730Y-13763508D02*
X13587682Y-13734936D01*
X13587682Y-13734936D02*
X13578158Y-13725412D01*
D12*
X8965000Y-14126500D02*
G75*
G02*
X8935000Y-14126500I-15000J0D01*
G01*
X8935000Y-14126500D02*
G75*
G02*
X8965000Y-14126500I15000J0D01*
G01*
D11*
X9263872Y-14017984D02*
X9282920Y-14017984D01*
X9282920Y-14017984D02*
X9301967Y-14027508D01*
X9301967Y-14027508D02*
X9311491Y-14037031D01*
X9311491Y-14037031D02*
X9321015Y-14056079D01*
X9321015Y-14056079D02*
X9330539Y-14094174D01*
X9330539Y-14094174D02*
X9330539Y-14141793D01*
X9330539Y-14141793D02*
X9321015Y-14179888D01*
X9321015Y-14179888D02*
X9311491Y-14198936D01*
X9311491Y-14198936D02*
X9301967Y-14208460D01*
X9301967Y-14208460D02*
X9282920Y-14217984D01*
X9282920Y-14217984D02*
X9263872Y-14217984D01*
X9263872Y-14217984D02*
X9244824Y-14208460D01*
X9244824Y-14208460D02*
X9235301Y-14198936D01*
X9235301Y-14198936D02*
X9225777Y-14179888D01*
X9225777Y-14179888D02*
X9216253Y-14141793D01*
X9216253Y-14141793D02*
X9216253Y-14094174D01*
X9216253Y-14094174D02*
X9225777Y-14056079D01*
X9225777Y-14056079D02*
X9235301Y-14037031D01*
X9235301Y-14037031D02*
X9244824Y-14027508D01*
X9244824Y-14027508D02*
X9263872Y-14017984D01*
X9416253Y-14198936D02*
X9425777Y-14208460D01*
X9425777Y-14208460D02*
X9416253Y-14217984D01*
X9416253Y-14217984D02*
X9406729Y-14208460D01*
X9406729Y-14208460D02*
X9416253Y-14198936D01*
X9416253Y-14198936D02*
X9416253Y-14217984D01*
X9492444Y-14017984D02*
X9616253Y-14017984D01*
X9616253Y-14017984D02*
X9549586Y-14094174D01*
X9549586Y-14094174D02*
X9578158Y-14094174D01*
X9578158Y-14094174D02*
X9597205Y-14103698D01*
X9597205Y-14103698D02*
X9606729Y-14113222D01*
X9606729Y-14113222D02*
X9616253Y-14132269D01*
X9616253Y-14132269D02*
X9616253Y-14179888D01*
X9616253Y-14179888D02*
X9606729Y-14198936D01*
X9606729Y-14198936D02*
X9597205Y-14208460D01*
X9597205Y-14208460D02*
X9578158Y-14217984D01*
X9578158Y-14217984D02*
X9521015Y-14217984D01*
X9521015Y-14217984D02*
X9501967Y-14208460D01*
X9501967Y-14208460D02*
X9492444Y-14198936D01*
X9740063Y-14017984D02*
X9759110Y-14017984D01*
X9759110Y-14017984D02*
X9778158Y-14027508D01*
X9778158Y-14027508D02*
X9787682Y-14037031D01*
X9787682Y-14037031D02*
X9797205Y-14056079D01*
X9797205Y-14056079D02*
X9806729Y-14094174D01*
X9806729Y-14094174D02*
X9806729Y-14141793D01*
X9806729Y-14141793D02*
X9797205Y-14179888D01*
X9797205Y-14179888D02*
X9787682Y-14198936D01*
X9787682Y-14198936D02*
X9778158Y-14208460D01*
X9778158Y-14208460D02*
X9759110Y-14217984D01*
X9759110Y-14217984D02*
X9740063Y-14217984D01*
X9740063Y-14217984D02*
X9721015Y-14208460D01*
X9721015Y-14208460D02*
X9711491Y-14198936D01*
X9711491Y-14198936D02*
X9701967Y-14179888D01*
X9701967Y-14179888D02*
X9692444Y-14141793D01*
X9692444Y-14141793D02*
X9692444Y-14094174D01*
X9692444Y-14094174D02*
X9701967Y-14056079D01*
X9701967Y-14056079D02*
X9711491Y-14037031D01*
X9711491Y-14037031D02*
X9721015Y-14027508D01*
X9721015Y-14027508D02*
X9740063Y-14017984D01*
X9930539Y-14017984D02*
X9949586Y-14017984D01*
X9949586Y-14017984D02*
X9968634Y-14027508D01*
X9968634Y-14027508D02*
X9978158Y-14037031D01*
X9978158Y-14037031D02*
X9987682Y-14056079D01*
X9987682Y-14056079D02*
X9997205Y-14094174D01*
X9997205Y-14094174D02*
X9997205Y-14141793D01*
X9997205Y-14141793D02*
X9987682Y-14179888D01*
X9987682Y-14179888D02*
X9978158Y-14198936D01*
X9978158Y-14198936D02*
X9968634Y-14208460D01*
X9968634Y-14208460D02*
X9949586Y-14217984D01*
X9949586Y-14217984D02*
X9930539Y-14217984D01*
X9930539Y-14217984D02*
X9911491Y-14208460D01*
X9911491Y-14208460D02*
X9901967Y-14198936D01*
X9901967Y-14198936D02*
X9892444Y-14179888D01*
X9892444Y-14179888D02*
X9882920Y-14141793D01*
X9882920Y-14141793D02*
X9882920Y-14094174D01*
X9882920Y-14094174D02*
X9892444Y-14056079D01*
X9892444Y-14056079D02*
X9901967Y-14037031D01*
X9901967Y-14037031D02*
X9911491Y-14027508D01*
X9911491Y-14027508D02*
X9930539Y-14017984D01*
X10082920Y-14217984D02*
X10082920Y-14084650D01*
X10082920Y-14103698D02*
X10092444Y-14094174D01*
X10092444Y-14094174D02*
X10111491Y-14084650D01*
X10111491Y-14084650D02*
X10140063Y-14084650D01*
X10140063Y-14084650D02*
X10159110Y-14094174D01*
X10159110Y-14094174D02*
X10168634Y-14113222D01*
X10168634Y-14113222D02*
X10168634Y-14217984D01*
X10168634Y-14113222D02*
X10178158Y-14094174D01*
X10178158Y-14094174D02*
X10197205Y-14084650D01*
X10197205Y-14084650D02*
X10225777Y-14084650D01*
X10225777Y-14084650D02*
X10244825Y-14094174D01*
X10244825Y-14094174D02*
X10254348Y-14113222D01*
X10254348Y-14113222D02*
X10254348Y-14217984D01*
X10349586Y-14217984D02*
X10349586Y-14084650D01*
X10349586Y-14103698D02*
X10359110Y-14094174D01*
X10359110Y-14094174D02*
X10378158Y-14084650D01*
X10378158Y-14084650D02*
X10406729Y-14084650D01*
X10406729Y-14084650D02*
X10425777Y-14094174D01*
X10425777Y-14094174D02*
X10435301Y-14113222D01*
X10435301Y-14113222D02*
X10435301Y-14217984D01*
X10435301Y-14113222D02*
X10444825Y-14094174D01*
X10444825Y-14094174D02*
X10463872Y-14084650D01*
X10463872Y-14084650D02*
X10492444Y-14084650D01*
X10492444Y-14084650D02*
X10511491Y-14094174D01*
X10511491Y-14094174D02*
X10521015Y-14113222D01*
X10521015Y-14113222D02*
X10521015Y-14217984D01*
X10911491Y-14008460D02*
X10740063Y-14265603D01*
X11168634Y-14017984D02*
X11187682Y-14017984D01*
X11187682Y-14017984D02*
X11206729Y-14027508D01*
X11206729Y-14027508D02*
X11216253Y-14037031D01*
X11216253Y-14037031D02*
X11225777Y-14056079D01*
X11225777Y-14056079D02*
X11235301Y-14094174D01*
X11235301Y-14094174D02*
X11235301Y-14141793D01*
X11235301Y-14141793D02*
X11225777Y-14179888D01*
X11225777Y-14179888D02*
X11216253Y-14198936D01*
X11216253Y-14198936D02*
X11206729Y-14208460D01*
X11206729Y-14208460D02*
X11187682Y-14217984D01*
X11187682Y-14217984D02*
X11168634Y-14217984D01*
X11168634Y-14217984D02*
X11149587Y-14208460D01*
X11149587Y-14208460D02*
X11140063Y-14198936D01*
X11140063Y-14198936D02*
X11130539Y-14179888D01*
X11130539Y-14179888D02*
X11121015Y-14141793D01*
X11121015Y-14141793D02*
X11121015Y-14094174D01*
X11121015Y-14094174D02*
X11130539Y-14056079D01*
X11130539Y-14056079D02*
X11140063Y-14037031D01*
X11140063Y-14037031D02*
X11149587Y-14027508D01*
X11149587Y-14027508D02*
X11168634Y-14017984D01*
X11321015Y-14198936D02*
X11330539Y-14208460D01*
X11330539Y-14208460D02*
X11321015Y-14217984D01*
X11321015Y-14217984D02*
X11311491Y-14208460D01*
X11311491Y-14208460D02*
X11321015Y-14198936D01*
X11321015Y-14198936D02*
X11321015Y-14217984D01*
X11454348Y-14017984D02*
X11473396Y-14017984D01*
X11473396Y-14017984D02*
X11492444Y-14027508D01*
X11492444Y-14027508D02*
X11501967Y-14037031D01*
X11501967Y-14037031D02*
X11511491Y-14056079D01*
X11511491Y-14056079D02*
X11521015Y-14094174D01*
X11521015Y-14094174D02*
X11521015Y-14141793D01*
X11521015Y-14141793D02*
X11511491Y-14179888D01*
X11511491Y-14179888D02*
X11501967Y-14198936D01*
X11501967Y-14198936D02*
X11492444Y-14208460D01*
X11492444Y-14208460D02*
X11473396Y-14217984D01*
X11473396Y-14217984D02*
X11454348Y-14217984D01*
X11454348Y-14217984D02*
X11435301Y-14208460D01*
X11435301Y-14208460D02*
X11425777Y-14198936D01*
X11425777Y-14198936D02*
X11416253Y-14179888D01*
X11416253Y-14179888D02*
X11406729Y-14141793D01*
X11406729Y-14141793D02*
X11406729Y-14094174D01*
X11406729Y-14094174D02*
X11416253Y-14056079D01*
X11416253Y-14056079D02*
X11425777Y-14037031D01*
X11425777Y-14037031D02*
X11435301Y-14027508D01*
X11435301Y-14027508D02*
X11454348Y-14017984D01*
X11711491Y-14217984D02*
X11597206Y-14217984D01*
X11654348Y-14217984D02*
X11654348Y-14017984D01*
X11654348Y-14017984D02*
X11635301Y-14046555D01*
X11635301Y-14046555D02*
X11616253Y-14065603D01*
X11616253Y-14065603D02*
X11597206Y-14075127D01*
X11901967Y-14217984D02*
X11787682Y-14217984D01*
X11844825Y-14217984D02*
X11844825Y-14017984D01*
X11844825Y-14017984D02*
X11825777Y-14046555D01*
X11825777Y-14046555D02*
X11806729Y-14065603D01*
X11806729Y-14065603D02*
X11787682Y-14075127D01*
X12016253Y-14103698D02*
X11997206Y-14094174D01*
X11997206Y-14094174D02*
X11987682Y-14084650D01*
X11987682Y-14084650D02*
X11978158Y-14065603D01*
X11978158Y-14065603D02*
X11978158Y-14056079D01*
X11978158Y-14056079D02*
X11987682Y-14037031D01*
X11987682Y-14037031D02*
X11997206Y-14027508D01*
X11997206Y-14027508D02*
X12016253Y-14017984D01*
X12016253Y-14017984D02*
X12054348Y-14017984D01*
X12054348Y-14017984D02*
X12073396Y-14027508D01*
X12073396Y-14027508D02*
X12082920Y-14037031D01*
X12082920Y-14037031D02*
X12092444Y-14056079D01*
X12092444Y-14056079D02*
X12092444Y-14065603D01*
X12092444Y-14065603D02*
X12082920Y-14084650D01*
X12082920Y-14084650D02*
X12073396Y-14094174D01*
X12073396Y-14094174D02*
X12054348Y-14103698D01*
X12054348Y-14103698D02*
X12016253Y-14103698D01*
X12016253Y-14103698D02*
X11997206Y-14113222D01*
X11997206Y-14113222D02*
X11987682Y-14122746D01*
X11987682Y-14122746D02*
X11978158Y-14141793D01*
X11978158Y-14141793D02*
X11978158Y-14179888D01*
X11978158Y-14179888D02*
X11987682Y-14198936D01*
X11987682Y-14198936D02*
X11997206Y-14208460D01*
X11997206Y-14208460D02*
X12016253Y-14217984D01*
X12016253Y-14217984D02*
X12054348Y-14217984D01*
X12054348Y-14217984D02*
X12073396Y-14208460D01*
X12073396Y-14208460D02*
X12082920Y-14198936D01*
X12082920Y-14198936D02*
X12092444Y-14179888D01*
X12092444Y-14179888D02*
X12092444Y-14141793D01*
X12092444Y-14141793D02*
X12082920Y-14122746D01*
X12082920Y-14122746D02*
X12073396Y-14113222D01*
X12073396Y-14113222D02*
X12054348Y-14103698D01*
X12168634Y-14017984D02*
X12168634Y-14056079D01*
X12244825Y-14017984D02*
X12244825Y-14056079D01*
X12540063Y-14294174D02*
X12530539Y-14284650D01*
X12530539Y-14284650D02*
X12511491Y-14256079D01*
X12511491Y-14256079D02*
X12501968Y-14237031D01*
X12501968Y-14237031D02*
X12492444Y-14208460D01*
X12492444Y-14208460D02*
X12482920Y-14160841D01*
X12482920Y-14160841D02*
X12482920Y-14122746D01*
X12482920Y-14122746D02*
X12492444Y-14075127D01*
X12492444Y-14075127D02*
X12501968Y-14046555D01*
X12501968Y-14046555D02*
X12511491Y-14027508D01*
X12511491Y-14027508D02*
X12530539Y-13998936D01*
X12530539Y-13998936D02*
X12540063Y-13989412D01*
X12701968Y-14084650D02*
X12701968Y-14217984D01*
X12654348Y-14008460D02*
X12606729Y-14151317D01*
X12606729Y-14151317D02*
X12730539Y-14151317D01*
X12959110Y-14217984D02*
X12959110Y-14017984D01*
X13044825Y-14217984D02*
X13044825Y-14113222D01*
X13044825Y-14113222D02*
X13035301Y-14094174D01*
X13035301Y-14094174D02*
X13016253Y-14084650D01*
X13016253Y-14084650D02*
X12987682Y-14084650D01*
X12987682Y-14084650D02*
X12968634Y-14094174D01*
X12968634Y-14094174D02*
X12959110Y-14103698D01*
X13168634Y-14217984D02*
X13149587Y-14208460D01*
X13149587Y-14208460D02*
X13140063Y-14198936D01*
X13140063Y-14198936D02*
X13130539Y-14179888D01*
X13130539Y-14179888D02*
X13130539Y-14122746D01*
X13130539Y-14122746D02*
X13140063Y-14103698D01*
X13140063Y-14103698D02*
X13149587Y-14094174D01*
X13149587Y-14094174D02*
X13168634Y-14084650D01*
X13168634Y-14084650D02*
X13197206Y-14084650D01*
X13197206Y-14084650D02*
X13216253Y-14094174D01*
X13216253Y-14094174D02*
X13225777Y-14103698D01*
X13225777Y-14103698D02*
X13235301Y-14122746D01*
X13235301Y-14122746D02*
X13235301Y-14179888D01*
X13235301Y-14179888D02*
X13225777Y-14198936D01*
X13225777Y-14198936D02*
X13216253Y-14208460D01*
X13216253Y-14208460D02*
X13197206Y-14217984D01*
X13197206Y-14217984D02*
X13168634Y-14217984D01*
X13349587Y-14217984D02*
X13330539Y-14208460D01*
X13330539Y-14208460D02*
X13321015Y-14189412D01*
X13321015Y-14189412D02*
X13321015Y-14017984D01*
X13501968Y-14208460D02*
X13482920Y-14217984D01*
X13482920Y-14217984D02*
X13444825Y-14217984D01*
X13444825Y-14217984D02*
X13425777Y-14208460D01*
X13425777Y-14208460D02*
X13416253Y-14189412D01*
X13416253Y-14189412D02*
X13416253Y-14113222D01*
X13416253Y-14113222D02*
X13425777Y-14094174D01*
X13425777Y-14094174D02*
X13444825Y-14084650D01*
X13444825Y-14084650D02*
X13482920Y-14084650D01*
X13482920Y-14084650D02*
X13501968Y-14094174D01*
X13501968Y-14094174D02*
X13511491Y-14113222D01*
X13511491Y-14113222D02*
X13511491Y-14132269D01*
X13511491Y-14132269D02*
X13416253Y-14151317D01*
X13587682Y-14208460D02*
X13606730Y-14217984D01*
X13606730Y-14217984D02*
X13644825Y-14217984D01*
X13644825Y-14217984D02*
X13663872Y-14208460D01*
X13663872Y-14208460D02*
X13673396Y-14189412D01*
X13673396Y-14189412D02*
X13673396Y-14179888D01*
X13673396Y-14179888D02*
X13663872Y-14160841D01*
X13663872Y-14160841D02*
X13644825Y-14151317D01*
X13644825Y-14151317D02*
X13616253Y-14151317D01*
X13616253Y-14151317D02*
X13597206Y-14141793D01*
X13597206Y-14141793D02*
X13587682Y-14122746D01*
X13587682Y-14122746D02*
X13587682Y-14113222D01*
X13587682Y-14113222D02*
X13597206Y-14094174D01*
X13597206Y-14094174D02*
X13616253Y-14084650D01*
X13616253Y-14084650D02*
X13644825Y-14084650D01*
X13644825Y-14084650D02*
X13663872Y-14094174D01*
X13740063Y-14294174D02*
X13749587Y-14284650D01*
X13749587Y-14284650D02*
X13768634Y-14256079D01*
X13768634Y-14256079D02*
X13778158Y-14237031D01*
X13778158Y-14237031D02*
X13787682Y-14208460D01*
X13787682Y-14208460D02*
X13797206Y-14160841D01*
X13797206Y-14160841D02*
X13797206Y-14122746D01*
X13797206Y-14122746D02*
X13787682Y-14075127D01*
X13787682Y-14075127D02*
X13778158Y-14046555D01*
X13778158Y-14046555D02*
X13768634Y-14027508D01*
X13768634Y-14027508D02*
X13749587Y-13998936D01*
X13749587Y-13998936D02*
X13740063Y-13989412D01*
D12*
X8945000Y-14370500D02*
X8945000Y-14410500D01*
X8925000Y-14390500D02*
X8965000Y-14390500D01*
D11*
X9263872Y-14281984D02*
X9282920Y-14281984D01*
X9282920Y-14281984D02*
X9301967Y-14291508D01*
X9301967Y-14291508D02*
X9311491Y-14301031D01*
X9311491Y-14301031D02*
X9321015Y-14320079D01*
X9321015Y-14320079D02*
X9330539Y-14358174D01*
X9330539Y-14358174D02*
X9330539Y-14405793D01*
X9330539Y-14405793D02*
X9321015Y-14443888D01*
X9321015Y-14443888D02*
X9311491Y-14462936D01*
X9311491Y-14462936D02*
X9301967Y-14472460D01*
X9301967Y-14472460D02*
X9282920Y-14481984D01*
X9282920Y-14481984D02*
X9263872Y-14481984D01*
X9263872Y-14481984D02*
X9244824Y-14472460D01*
X9244824Y-14472460D02*
X9235301Y-14462936D01*
X9235301Y-14462936D02*
X9225777Y-14443888D01*
X9225777Y-14443888D02*
X9216253Y-14405793D01*
X9216253Y-14405793D02*
X9216253Y-14358174D01*
X9216253Y-14358174D02*
X9225777Y-14320079D01*
X9225777Y-14320079D02*
X9235301Y-14301031D01*
X9235301Y-14301031D02*
X9244824Y-14291508D01*
X9244824Y-14291508D02*
X9263872Y-14281984D01*
X9416253Y-14462936D02*
X9425777Y-14472460D01*
X9425777Y-14472460D02*
X9416253Y-14481984D01*
X9416253Y-14481984D02*
X9406729Y-14472460D01*
X9406729Y-14472460D02*
X9416253Y-14462936D01*
X9416253Y-14462936D02*
X9416253Y-14481984D01*
X9597205Y-14348650D02*
X9597205Y-14481984D01*
X9549586Y-14272460D02*
X9501967Y-14415317D01*
X9501967Y-14415317D02*
X9625777Y-14415317D01*
X9740063Y-14281984D02*
X9759110Y-14281984D01*
X9759110Y-14281984D02*
X9778158Y-14291508D01*
X9778158Y-14291508D02*
X9787682Y-14301031D01*
X9787682Y-14301031D02*
X9797205Y-14320079D01*
X9797205Y-14320079D02*
X9806729Y-14358174D01*
X9806729Y-14358174D02*
X9806729Y-14405793D01*
X9806729Y-14405793D02*
X9797205Y-14443888D01*
X9797205Y-14443888D02*
X9787682Y-14462936D01*
X9787682Y-14462936D02*
X9778158Y-14472460D01*
X9778158Y-14472460D02*
X9759110Y-14481984D01*
X9759110Y-14481984D02*
X9740063Y-14481984D01*
X9740063Y-14481984D02*
X9721015Y-14472460D01*
X9721015Y-14472460D02*
X9711491Y-14462936D01*
X9711491Y-14462936D02*
X9701967Y-14443888D01*
X9701967Y-14443888D02*
X9692444Y-14405793D01*
X9692444Y-14405793D02*
X9692444Y-14358174D01*
X9692444Y-14358174D02*
X9701967Y-14320079D01*
X9701967Y-14320079D02*
X9711491Y-14301031D01*
X9711491Y-14301031D02*
X9721015Y-14291508D01*
X9721015Y-14291508D02*
X9740063Y-14281984D01*
X9930539Y-14281984D02*
X9949586Y-14281984D01*
X9949586Y-14281984D02*
X9968634Y-14291508D01*
X9968634Y-14291508D02*
X9978158Y-14301031D01*
X9978158Y-14301031D02*
X9987682Y-14320079D01*
X9987682Y-14320079D02*
X9997205Y-14358174D01*
X9997205Y-14358174D02*
X9997205Y-14405793D01*
X9997205Y-14405793D02*
X9987682Y-14443888D01*
X9987682Y-14443888D02*
X9978158Y-14462936D01*
X9978158Y-14462936D02*
X9968634Y-14472460D01*
X9968634Y-14472460D02*
X9949586Y-14481984D01*
X9949586Y-14481984D02*
X9930539Y-14481984D01*
X9930539Y-14481984D02*
X9911491Y-14472460D01*
X9911491Y-14472460D02*
X9901967Y-14462936D01*
X9901967Y-14462936D02*
X9892444Y-14443888D01*
X9892444Y-14443888D02*
X9882920Y-14405793D01*
X9882920Y-14405793D02*
X9882920Y-14358174D01*
X9882920Y-14358174D02*
X9892444Y-14320079D01*
X9892444Y-14320079D02*
X9901967Y-14301031D01*
X9901967Y-14301031D02*
X9911491Y-14291508D01*
X9911491Y-14291508D02*
X9930539Y-14281984D01*
X10082920Y-14481984D02*
X10082920Y-14348650D01*
X10082920Y-14367698D02*
X10092444Y-14358174D01*
X10092444Y-14358174D02*
X10111491Y-14348650D01*
X10111491Y-14348650D02*
X10140063Y-14348650D01*
X10140063Y-14348650D02*
X10159110Y-14358174D01*
X10159110Y-14358174D02*
X10168634Y-14377222D01*
X10168634Y-14377222D02*
X10168634Y-14481984D01*
X10168634Y-14377222D02*
X10178158Y-14358174D01*
X10178158Y-14358174D02*
X10197205Y-14348650D01*
X10197205Y-14348650D02*
X10225777Y-14348650D01*
X10225777Y-14348650D02*
X10244825Y-14358174D01*
X10244825Y-14358174D02*
X10254348Y-14377222D01*
X10254348Y-14377222D02*
X10254348Y-14481984D01*
X10349586Y-14481984D02*
X10349586Y-14348650D01*
X10349586Y-14367698D02*
X10359110Y-14358174D01*
X10359110Y-14358174D02*
X10378158Y-14348650D01*
X10378158Y-14348650D02*
X10406729Y-14348650D01*
X10406729Y-14348650D02*
X10425777Y-14358174D01*
X10425777Y-14358174D02*
X10435301Y-14377222D01*
X10435301Y-14377222D02*
X10435301Y-14481984D01*
X10435301Y-14377222D02*
X10444825Y-14358174D01*
X10444825Y-14358174D02*
X10463872Y-14348650D01*
X10463872Y-14348650D02*
X10492444Y-14348650D01*
X10492444Y-14348650D02*
X10511491Y-14358174D01*
X10511491Y-14358174D02*
X10521015Y-14377222D01*
X10521015Y-14377222D02*
X10521015Y-14481984D01*
X10911491Y-14272460D02*
X10740063Y-14529603D01*
X11168634Y-14281984D02*
X11187682Y-14281984D01*
X11187682Y-14281984D02*
X11206729Y-14291508D01*
X11206729Y-14291508D02*
X11216253Y-14301031D01*
X11216253Y-14301031D02*
X11225777Y-14320079D01*
X11225777Y-14320079D02*
X11235301Y-14358174D01*
X11235301Y-14358174D02*
X11235301Y-14405793D01*
X11235301Y-14405793D02*
X11225777Y-14443888D01*
X11225777Y-14443888D02*
X11216253Y-14462936D01*
X11216253Y-14462936D02*
X11206729Y-14472460D01*
X11206729Y-14472460D02*
X11187682Y-14481984D01*
X11187682Y-14481984D02*
X11168634Y-14481984D01*
X11168634Y-14481984D02*
X11149587Y-14472460D01*
X11149587Y-14472460D02*
X11140063Y-14462936D01*
X11140063Y-14462936D02*
X11130539Y-14443888D01*
X11130539Y-14443888D02*
X11121015Y-14405793D01*
X11121015Y-14405793D02*
X11121015Y-14358174D01*
X11121015Y-14358174D02*
X11130539Y-14320079D01*
X11130539Y-14320079D02*
X11140063Y-14301031D01*
X11140063Y-14301031D02*
X11149587Y-14291508D01*
X11149587Y-14291508D02*
X11168634Y-14281984D01*
X11321015Y-14462936D02*
X11330539Y-14472460D01*
X11330539Y-14472460D02*
X11321015Y-14481984D01*
X11321015Y-14481984D02*
X11311491Y-14472460D01*
X11311491Y-14472460D02*
X11321015Y-14462936D01*
X11321015Y-14462936D02*
X11321015Y-14481984D01*
X11454348Y-14281984D02*
X11473396Y-14281984D01*
X11473396Y-14281984D02*
X11492444Y-14291508D01*
X11492444Y-14291508D02*
X11501967Y-14301031D01*
X11501967Y-14301031D02*
X11511491Y-14320079D01*
X11511491Y-14320079D02*
X11521015Y-14358174D01*
X11521015Y-14358174D02*
X11521015Y-14405793D01*
X11521015Y-14405793D02*
X11511491Y-14443888D01*
X11511491Y-14443888D02*
X11501967Y-14462936D01*
X11501967Y-14462936D02*
X11492444Y-14472460D01*
X11492444Y-14472460D02*
X11473396Y-14481984D01*
X11473396Y-14481984D02*
X11454348Y-14481984D01*
X11454348Y-14481984D02*
X11435301Y-14472460D01*
X11435301Y-14472460D02*
X11425777Y-14462936D01*
X11425777Y-14462936D02*
X11416253Y-14443888D01*
X11416253Y-14443888D02*
X11406729Y-14405793D01*
X11406729Y-14405793D02*
X11406729Y-14358174D01*
X11406729Y-14358174D02*
X11416253Y-14320079D01*
X11416253Y-14320079D02*
X11425777Y-14301031D01*
X11425777Y-14301031D02*
X11435301Y-14291508D01*
X11435301Y-14291508D02*
X11454348Y-14281984D01*
X11711491Y-14481984D02*
X11597206Y-14481984D01*
X11654348Y-14481984D02*
X11654348Y-14281984D01*
X11654348Y-14281984D02*
X11635301Y-14310555D01*
X11635301Y-14310555D02*
X11616253Y-14329603D01*
X11616253Y-14329603D02*
X11597206Y-14339127D01*
X11892444Y-14281984D02*
X11797206Y-14281984D01*
X11797206Y-14281984D02*
X11787682Y-14377222D01*
X11787682Y-14377222D02*
X11797206Y-14367698D01*
X11797206Y-14367698D02*
X11816253Y-14358174D01*
X11816253Y-14358174D02*
X11863872Y-14358174D01*
X11863872Y-14358174D02*
X11882920Y-14367698D01*
X11882920Y-14367698D02*
X11892444Y-14377222D01*
X11892444Y-14377222D02*
X11901967Y-14396269D01*
X11901967Y-14396269D02*
X11901967Y-14443888D01*
X11901967Y-14443888D02*
X11892444Y-14462936D01*
X11892444Y-14462936D02*
X11882920Y-14472460D01*
X11882920Y-14472460D02*
X11863872Y-14481984D01*
X11863872Y-14481984D02*
X11816253Y-14481984D01*
X11816253Y-14481984D02*
X11797206Y-14472460D01*
X11797206Y-14472460D02*
X11787682Y-14462936D01*
X11968634Y-14281984D02*
X12101967Y-14281984D01*
X12101967Y-14281984D02*
X12016253Y-14481984D01*
X12168634Y-14281984D02*
X12168634Y-14320079D01*
X12244825Y-14281984D02*
X12244825Y-14320079D01*
X12540063Y-14558174D02*
X12530539Y-14548650D01*
X12530539Y-14548650D02*
X12511491Y-14520079D01*
X12511491Y-14520079D02*
X12501968Y-14501031D01*
X12501968Y-14501031D02*
X12492444Y-14472460D01*
X12492444Y-14472460D02*
X12482920Y-14424841D01*
X12482920Y-14424841D02*
X12482920Y-14386746D01*
X12482920Y-14386746D02*
X12492444Y-14339127D01*
X12492444Y-14339127D02*
X12501968Y-14310555D01*
X12501968Y-14310555D02*
X12511491Y-14291508D01*
X12511491Y-14291508D02*
X12530539Y-14262936D01*
X12530539Y-14262936D02*
X12540063Y-14253412D01*
X12721015Y-14481984D02*
X12606729Y-14481984D01*
X12663872Y-14481984D02*
X12663872Y-14281984D01*
X12663872Y-14281984D02*
X12644825Y-14310555D01*
X12644825Y-14310555D02*
X12625777Y-14329603D01*
X12625777Y-14329603D02*
X12606729Y-14339127D01*
X12835301Y-14367698D02*
X12816253Y-14358174D01*
X12816253Y-14358174D02*
X12806729Y-14348650D01*
X12806729Y-14348650D02*
X12797206Y-14329603D01*
X12797206Y-14329603D02*
X12797206Y-14320079D01*
X12797206Y-14320079D02*
X12806729Y-14301031D01*
X12806729Y-14301031D02*
X12816253Y-14291508D01*
X12816253Y-14291508D02*
X12835301Y-14281984D01*
X12835301Y-14281984D02*
X12873396Y-14281984D01*
X12873396Y-14281984D02*
X12892444Y-14291508D01*
X12892444Y-14291508D02*
X12901968Y-14301031D01*
X12901968Y-14301031D02*
X12911491Y-14320079D01*
X12911491Y-14320079D02*
X12911491Y-14329603D01*
X12911491Y-14329603D02*
X12901968Y-14348650D01*
X12901968Y-14348650D02*
X12892444Y-14358174D01*
X12892444Y-14358174D02*
X12873396Y-14367698D01*
X12873396Y-14367698D02*
X12835301Y-14367698D01*
X12835301Y-14367698D02*
X12816253Y-14377222D01*
X12816253Y-14377222D02*
X12806729Y-14386746D01*
X12806729Y-14386746D02*
X12797206Y-14405793D01*
X12797206Y-14405793D02*
X12797206Y-14443888D01*
X12797206Y-14443888D02*
X12806729Y-14462936D01*
X12806729Y-14462936D02*
X12816253Y-14472460D01*
X12816253Y-14472460D02*
X12835301Y-14481984D01*
X12835301Y-14481984D02*
X12873396Y-14481984D01*
X12873396Y-14481984D02*
X12892444Y-14472460D01*
X12892444Y-14472460D02*
X12901968Y-14462936D01*
X12901968Y-14462936D02*
X12911491Y-14443888D01*
X12911491Y-14443888D02*
X12911491Y-14405793D01*
X12911491Y-14405793D02*
X12901968Y-14386746D01*
X12901968Y-14386746D02*
X12892444Y-14377222D01*
X12892444Y-14377222D02*
X12873396Y-14367698D01*
X12978158Y-14281984D02*
X13101968Y-14281984D01*
X13101968Y-14281984D02*
X13035301Y-14358174D01*
X13035301Y-14358174D02*
X13063872Y-14358174D01*
X13063872Y-14358174D02*
X13082920Y-14367698D01*
X13082920Y-14367698D02*
X13092444Y-14377222D01*
X13092444Y-14377222D02*
X13101968Y-14396269D01*
X13101968Y-14396269D02*
X13101968Y-14443888D01*
X13101968Y-14443888D02*
X13092444Y-14462936D01*
X13092444Y-14462936D02*
X13082920Y-14472460D01*
X13082920Y-14472460D02*
X13063872Y-14481984D01*
X13063872Y-14481984D02*
X13006729Y-14481984D01*
X13006729Y-14481984D02*
X12987682Y-14472460D01*
X12987682Y-14472460D02*
X12978158Y-14462936D01*
X13340063Y-14481984D02*
X13340063Y-14281984D01*
X13425777Y-14481984D02*
X13425777Y-14377222D01*
X13425777Y-14377222D02*
X13416253Y-14358174D01*
X13416253Y-14358174D02*
X13397206Y-14348650D01*
X13397206Y-14348650D02*
X13368634Y-14348650D01*
X13368634Y-14348650D02*
X13349587Y-14358174D01*
X13349587Y-14358174D02*
X13340063Y-14367698D01*
X13549587Y-14481984D02*
X13530539Y-14472460D01*
X13530539Y-14472460D02*
X13521015Y-14462936D01*
X13521015Y-14462936D02*
X13511491Y-14443888D01*
X13511491Y-14443888D02*
X13511491Y-14386746D01*
X13511491Y-14386746D02*
X13521015Y-14367698D01*
X13521015Y-14367698D02*
X13530539Y-14358174D01*
X13530539Y-14358174D02*
X13549587Y-14348650D01*
X13549587Y-14348650D02*
X13578158Y-14348650D01*
X13578158Y-14348650D02*
X13597206Y-14358174D01*
X13597206Y-14358174D02*
X13606730Y-14367698D01*
X13606730Y-14367698D02*
X13616253Y-14386746D01*
X13616253Y-14386746D02*
X13616253Y-14443888D01*
X13616253Y-14443888D02*
X13606730Y-14462936D01*
X13606730Y-14462936D02*
X13597206Y-14472460D01*
X13597206Y-14472460D02*
X13578158Y-14481984D01*
X13578158Y-14481984D02*
X13549587Y-14481984D01*
X13730539Y-14481984D02*
X13711491Y-14472460D01*
X13711491Y-14472460D02*
X13701968Y-14453412D01*
X13701968Y-14453412D02*
X13701968Y-14281984D01*
X13882920Y-14472460D02*
X13863872Y-14481984D01*
X13863872Y-14481984D02*
X13825777Y-14481984D01*
X13825777Y-14481984D02*
X13806730Y-14472460D01*
X13806730Y-14472460D02*
X13797206Y-14453412D01*
X13797206Y-14453412D02*
X13797206Y-14377222D01*
X13797206Y-14377222D02*
X13806730Y-14358174D01*
X13806730Y-14358174D02*
X13825777Y-14348650D01*
X13825777Y-14348650D02*
X13863872Y-14348650D01*
X13863872Y-14348650D02*
X13882920Y-14358174D01*
X13882920Y-14358174D02*
X13892444Y-14377222D01*
X13892444Y-14377222D02*
X13892444Y-14396269D01*
X13892444Y-14396269D02*
X13797206Y-14415317D01*
X13968634Y-14472460D02*
X13987682Y-14481984D01*
X13987682Y-14481984D02*
X14025777Y-14481984D01*
X14025777Y-14481984D02*
X14044825Y-14472460D01*
X14044825Y-14472460D02*
X14054349Y-14453412D01*
X14054349Y-14453412D02*
X14054349Y-14443888D01*
X14054349Y-14443888D02*
X14044825Y-14424841D01*
X14044825Y-14424841D02*
X14025777Y-14415317D01*
X14025777Y-14415317D02*
X13997206Y-14415317D01*
X13997206Y-14415317D02*
X13978158Y-14405793D01*
X13978158Y-14405793D02*
X13968634Y-14386746D01*
X13968634Y-14386746D02*
X13968634Y-14377222D01*
X13968634Y-14377222D02*
X13978158Y-14358174D01*
X13978158Y-14358174D02*
X13997206Y-14348650D01*
X13997206Y-14348650D02*
X14025777Y-14348650D01*
X14025777Y-14348650D02*
X14044825Y-14358174D01*
X14121015Y-14558174D02*
X14130539Y-14548650D01*
X14130539Y-14548650D02*
X14149587Y-14520079D01*
X14149587Y-14520079D02*
X14159111Y-14501031D01*
X14159111Y-14501031D02*
X14168634Y-14472460D01*
X14168634Y-14472460D02*
X14178158Y-14424841D01*
X14178158Y-14424841D02*
X14178158Y-14386746D01*
X14178158Y-14386746D02*
X14168634Y-14339127D01*
X14168634Y-14339127D02*
X14159111Y-14310555D01*
X14159111Y-14310555D02*
X14149587Y-14291508D01*
X14149587Y-14291508D02*
X14130539Y-14262936D01*
X14130539Y-14262936D02*
X14121015Y-14253412D01*
D12*
X8951820Y-14686320D02*
X8951820Y-14622680D01*
X8888180Y-14622680D01*
X8888180Y-14686320D01*
X8951820Y-14686320D01*
D11*
X9263872Y-14545984D02*
X9282920Y-14545984D01*
X9282920Y-14545984D02*
X9301967Y-14555508D01*
X9301967Y-14555508D02*
X9311491Y-14565031D01*
X9311491Y-14565031D02*
X9321015Y-14584079D01*
X9321015Y-14584079D02*
X9330539Y-14622174D01*
X9330539Y-14622174D02*
X9330539Y-14669793D01*
X9330539Y-14669793D02*
X9321015Y-14707888D01*
X9321015Y-14707888D02*
X9311491Y-14726936D01*
X9311491Y-14726936D02*
X9301967Y-14736460D01*
X9301967Y-14736460D02*
X9282920Y-14745984D01*
X9282920Y-14745984D02*
X9263872Y-14745984D01*
X9263872Y-14745984D02*
X9244824Y-14736460D01*
X9244824Y-14736460D02*
X9235301Y-14726936D01*
X9235301Y-14726936D02*
X9225777Y-14707888D01*
X9225777Y-14707888D02*
X9216253Y-14669793D01*
X9216253Y-14669793D02*
X9216253Y-14622174D01*
X9216253Y-14622174D02*
X9225777Y-14584079D01*
X9225777Y-14584079D02*
X9235301Y-14565031D01*
X9235301Y-14565031D02*
X9244824Y-14555508D01*
X9244824Y-14555508D02*
X9263872Y-14545984D01*
X9416253Y-14726936D02*
X9425777Y-14736460D01*
X9425777Y-14736460D02*
X9416253Y-14745984D01*
X9416253Y-14745984D02*
X9406729Y-14736460D01*
X9406729Y-14736460D02*
X9416253Y-14726936D01*
X9416253Y-14726936D02*
X9416253Y-14745984D01*
X9521015Y-14745984D02*
X9559110Y-14745984D01*
X9559110Y-14745984D02*
X9578158Y-14736460D01*
X9578158Y-14736460D02*
X9587682Y-14726936D01*
X9587682Y-14726936D02*
X9606729Y-14698365D01*
X9606729Y-14698365D02*
X9616253Y-14660269D01*
X9616253Y-14660269D02*
X9616253Y-14584079D01*
X9616253Y-14584079D02*
X9606729Y-14565031D01*
X9606729Y-14565031D02*
X9597205Y-14555508D01*
X9597205Y-14555508D02*
X9578158Y-14545984D01*
X9578158Y-14545984D02*
X9540063Y-14545984D01*
X9540063Y-14545984D02*
X9521015Y-14555508D01*
X9521015Y-14555508D02*
X9511491Y-14565031D01*
X9511491Y-14565031D02*
X9501967Y-14584079D01*
X9501967Y-14584079D02*
X9501967Y-14631698D01*
X9501967Y-14631698D02*
X9511491Y-14650746D01*
X9511491Y-14650746D02*
X9521015Y-14660269D01*
X9521015Y-14660269D02*
X9540063Y-14669793D01*
X9540063Y-14669793D02*
X9578158Y-14669793D01*
X9578158Y-14669793D02*
X9597205Y-14660269D01*
X9597205Y-14660269D02*
X9606729Y-14650746D01*
X9606729Y-14650746D02*
X9616253Y-14631698D01*
X9740063Y-14545984D02*
X9759110Y-14545984D01*
X9759110Y-14545984D02*
X9778158Y-14555508D01*
X9778158Y-14555508D02*
X9787682Y-14565031D01*
X9787682Y-14565031D02*
X9797205Y-14584079D01*
X9797205Y-14584079D02*
X9806729Y-14622174D01*
X9806729Y-14622174D02*
X9806729Y-14669793D01*
X9806729Y-14669793D02*
X9797205Y-14707888D01*
X9797205Y-14707888D02*
X9787682Y-14726936D01*
X9787682Y-14726936D02*
X9778158Y-14736460D01*
X9778158Y-14736460D02*
X9759110Y-14745984D01*
X9759110Y-14745984D02*
X9740063Y-14745984D01*
X9740063Y-14745984D02*
X9721015Y-14736460D01*
X9721015Y-14736460D02*
X9711491Y-14726936D01*
X9711491Y-14726936D02*
X9701967Y-14707888D01*
X9701967Y-14707888D02*
X9692444Y-14669793D01*
X9692444Y-14669793D02*
X9692444Y-14622174D01*
X9692444Y-14622174D02*
X9701967Y-14584079D01*
X9701967Y-14584079D02*
X9711491Y-14565031D01*
X9711491Y-14565031D02*
X9721015Y-14555508D01*
X9721015Y-14555508D02*
X9740063Y-14545984D01*
X9930539Y-14545984D02*
X9949586Y-14545984D01*
X9949586Y-14545984D02*
X9968634Y-14555508D01*
X9968634Y-14555508D02*
X9978158Y-14565031D01*
X9978158Y-14565031D02*
X9987682Y-14584079D01*
X9987682Y-14584079D02*
X9997205Y-14622174D01*
X9997205Y-14622174D02*
X9997205Y-14669793D01*
X9997205Y-14669793D02*
X9987682Y-14707888D01*
X9987682Y-14707888D02*
X9978158Y-14726936D01*
X9978158Y-14726936D02*
X9968634Y-14736460D01*
X9968634Y-14736460D02*
X9949586Y-14745984D01*
X9949586Y-14745984D02*
X9930539Y-14745984D01*
X9930539Y-14745984D02*
X9911491Y-14736460D01*
X9911491Y-14736460D02*
X9901967Y-14726936D01*
X9901967Y-14726936D02*
X9892444Y-14707888D01*
X9892444Y-14707888D02*
X9882920Y-14669793D01*
X9882920Y-14669793D02*
X9882920Y-14622174D01*
X9882920Y-14622174D02*
X9892444Y-14584079D01*
X9892444Y-14584079D02*
X9901967Y-14565031D01*
X9901967Y-14565031D02*
X9911491Y-14555508D01*
X9911491Y-14555508D02*
X9930539Y-14545984D01*
X10082920Y-14745984D02*
X10082920Y-14612650D01*
X10082920Y-14631698D02*
X10092444Y-14622174D01*
X10092444Y-14622174D02*
X10111491Y-14612650D01*
X10111491Y-14612650D02*
X10140063Y-14612650D01*
X10140063Y-14612650D02*
X10159110Y-14622174D01*
X10159110Y-14622174D02*
X10168634Y-14641222D01*
X10168634Y-14641222D02*
X10168634Y-14745984D01*
X10168634Y-14641222D02*
X10178158Y-14622174D01*
X10178158Y-14622174D02*
X10197205Y-14612650D01*
X10197205Y-14612650D02*
X10225777Y-14612650D01*
X10225777Y-14612650D02*
X10244825Y-14622174D01*
X10244825Y-14622174D02*
X10254348Y-14641222D01*
X10254348Y-14641222D02*
X10254348Y-14745984D01*
X10349586Y-14745984D02*
X10349586Y-14612650D01*
X10349586Y-14631698D02*
X10359110Y-14622174D01*
X10359110Y-14622174D02*
X10378158Y-14612650D01*
X10378158Y-14612650D02*
X10406729Y-14612650D01*
X10406729Y-14612650D02*
X10425777Y-14622174D01*
X10425777Y-14622174D02*
X10435301Y-14641222D01*
X10435301Y-14641222D02*
X10435301Y-14745984D01*
X10435301Y-14641222D02*
X10444825Y-14622174D01*
X10444825Y-14622174D02*
X10463872Y-14612650D01*
X10463872Y-14612650D02*
X10492444Y-14612650D01*
X10492444Y-14612650D02*
X10511491Y-14622174D01*
X10511491Y-14622174D02*
X10521015Y-14641222D01*
X10521015Y-14641222D02*
X10521015Y-14745984D01*
X10911491Y-14536460D02*
X10740063Y-14793603D01*
X11168634Y-14545984D02*
X11187682Y-14545984D01*
X11187682Y-14545984D02*
X11206729Y-14555508D01*
X11206729Y-14555508D02*
X11216253Y-14565031D01*
X11216253Y-14565031D02*
X11225777Y-14584079D01*
X11225777Y-14584079D02*
X11235301Y-14622174D01*
X11235301Y-14622174D02*
X11235301Y-14669793D01*
X11235301Y-14669793D02*
X11225777Y-14707888D01*
X11225777Y-14707888D02*
X11216253Y-14726936D01*
X11216253Y-14726936D02*
X11206729Y-14736460D01*
X11206729Y-14736460D02*
X11187682Y-14745984D01*
X11187682Y-14745984D02*
X11168634Y-14745984D01*
X11168634Y-14745984D02*
X11149587Y-14736460D01*
X11149587Y-14736460D02*
X11140063Y-14726936D01*
X11140063Y-14726936D02*
X11130539Y-14707888D01*
X11130539Y-14707888D02*
X11121015Y-14669793D01*
X11121015Y-14669793D02*
X11121015Y-14622174D01*
X11121015Y-14622174D02*
X11130539Y-14584079D01*
X11130539Y-14584079D02*
X11140063Y-14565031D01*
X11140063Y-14565031D02*
X11149587Y-14555508D01*
X11149587Y-14555508D02*
X11168634Y-14545984D01*
X11321015Y-14726936D02*
X11330539Y-14736460D01*
X11330539Y-14736460D02*
X11321015Y-14745984D01*
X11321015Y-14745984D02*
X11311491Y-14736460D01*
X11311491Y-14736460D02*
X11321015Y-14726936D01*
X11321015Y-14726936D02*
X11321015Y-14745984D01*
X11454348Y-14545984D02*
X11473396Y-14545984D01*
X11473396Y-14545984D02*
X11492444Y-14555508D01*
X11492444Y-14555508D02*
X11501967Y-14565031D01*
X11501967Y-14565031D02*
X11511491Y-14584079D01*
X11511491Y-14584079D02*
X11521015Y-14622174D01*
X11521015Y-14622174D02*
X11521015Y-14669793D01*
X11521015Y-14669793D02*
X11511491Y-14707888D01*
X11511491Y-14707888D02*
X11501967Y-14726936D01*
X11501967Y-14726936D02*
X11492444Y-14736460D01*
X11492444Y-14736460D02*
X11473396Y-14745984D01*
X11473396Y-14745984D02*
X11454348Y-14745984D01*
X11454348Y-14745984D02*
X11435301Y-14736460D01*
X11435301Y-14736460D02*
X11425777Y-14726936D01*
X11425777Y-14726936D02*
X11416253Y-14707888D01*
X11416253Y-14707888D02*
X11406729Y-14669793D01*
X11406729Y-14669793D02*
X11406729Y-14622174D01*
X11406729Y-14622174D02*
X11416253Y-14584079D01*
X11416253Y-14584079D02*
X11425777Y-14565031D01*
X11425777Y-14565031D02*
X11435301Y-14555508D01*
X11435301Y-14555508D02*
X11454348Y-14545984D01*
X11587682Y-14545984D02*
X11711491Y-14545984D01*
X11711491Y-14545984D02*
X11644825Y-14622174D01*
X11644825Y-14622174D02*
X11673396Y-14622174D01*
X11673396Y-14622174D02*
X11692444Y-14631698D01*
X11692444Y-14631698D02*
X11701967Y-14641222D01*
X11701967Y-14641222D02*
X11711491Y-14660269D01*
X11711491Y-14660269D02*
X11711491Y-14707888D01*
X11711491Y-14707888D02*
X11701967Y-14726936D01*
X11701967Y-14726936D02*
X11692444Y-14736460D01*
X11692444Y-14736460D02*
X11673396Y-14745984D01*
X11673396Y-14745984D02*
X11616253Y-14745984D01*
X11616253Y-14745984D02*
X11597206Y-14736460D01*
X11597206Y-14736460D02*
X11587682Y-14726936D01*
X11892444Y-14545984D02*
X11797206Y-14545984D01*
X11797206Y-14545984D02*
X11787682Y-14641222D01*
X11787682Y-14641222D02*
X11797206Y-14631698D01*
X11797206Y-14631698D02*
X11816253Y-14622174D01*
X11816253Y-14622174D02*
X11863872Y-14622174D01*
X11863872Y-14622174D02*
X11882920Y-14631698D01*
X11882920Y-14631698D02*
X11892444Y-14641222D01*
X11892444Y-14641222D02*
X11901967Y-14660269D01*
X11901967Y-14660269D02*
X11901967Y-14707888D01*
X11901967Y-14707888D02*
X11892444Y-14726936D01*
X11892444Y-14726936D02*
X11882920Y-14736460D01*
X11882920Y-14736460D02*
X11863872Y-14745984D01*
X11863872Y-14745984D02*
X11816253Y-14745984D01*
X11816253Y-14745984D02*
X11797206Y-14736460D01*
X11797206Y-14736460D02*
X11787682Y-14726936D01*
X12073396Y-14612650D02*
X12073396Y-14745984D01*
X12025777Y-14536460D02*
X11978158Y-14679317D01*
X11978158Y-14679317D02*
X12101967Y-14679317D01*
X12168634Y-14545984D02*
X12168634Y-14584079D01*
X12244825Y-14545984D02*
X12244825Y-14584079D01*
X12540063Y-14822174D02*
X12530539Y-14812650D01*
X12530539Y-14812650D02*
X12511491Y-14784079D01*
X12511491Y-14784079D02*
X12501968Y-14765031D01*
X12501968Y-14765031D02*
X12492444Y-14736460D01*
X12492444Y-14736460D02*
X12482920Y-14688841D01*
X12482920Y-14688841D02*
X12482920Y-14650746D01*
X12482920Y-14650746D02*
X12492444Y-14603127D01*
X12492444Y-14603127D02*
X12501968Y-14574555D01*
X12501968Y-14574555D02*
X12511491Y-14555508D01*
X12511491Y-14555508D02*
X12530539Y-14526936D01*
X12530539Y-14526936D02*
X12540063Y-14517412D01*
X12721015Y-14745984D02*
X12606729Y-14745984D01*
X12663872Y-14745984D02*
X12663872Y-14545984D01*
X12663872Y-14545984D02*
X12644825Y-14574555D01*
X12644825Y-14574555D02*
X12625777Y-14593603D01*
X12625777Y-14593603D02*
X12606729Y-14603127D01*
X12835301Y-14631698D02*
X12816253Y-14622174D01*
X12816253Y-14622174D02*
X12806729Y-14612650D01*
X12806729Y-14612650D02*
X12797206Y-14593603D01*
X12797206Y-14593603D02*
X12797206Y-14584079D01*
X12797206Y-14584079D02*
X12806729Y-14565031D01*
X12806729Y-14565031D02*
X12816253Y-14555508D01*
X12816253Y-14555508D02*
X12835301Y-14545984D01*
X12835301Y-14545984D02*
X12873396Y-14545984D01*
X12873396Y-14545984D02*
X12892444Y-14555508D01*
X12892444Y-14555508D02*
X12901968Y-14565031D01*
X12901968Y-14565031D02*
X12911491Y-14584079D01*
X12911491Y-14584079D02*
X12911491Y-14593603D01*
X12911491Y-14593603D02*
X12901968Y-14612650D01*
X12901968Y-14612650D02*
X12892444Y-14622174D01*
X12892444Y-14622174D02*
X12873396Y-14631698D01*
X12873396Y-14631698D02*
X12835301Y-14631698D01*
X12835301Y-14631698D02*
X12816253Y-14641222D01*
X12816253Y-14641222D02*
X12806729Y-14650746D01*
X12806729Y-14650746D02*
X12797206Y-14669793D01*
X12797206Y-14669793D02*
X12797206Y-14707888D01*
X12797206Y-14707888D02*
X12806729Y-14726936D01*
X12806729Y-14726936D02*
X12816253Y-14736460D01*
X12816253Y-14736460D02*
X12835301Y-14745984D01*
X12835301Y-14745984D02*
X12873396Y-14745984D01*
X12873396Y-14745984D02*
X12892444Y-14736460D01*
X12892444Y-14736460D02*
X12901968Y-14726936D01*
X12901968Y-14726936D02*
X12911491Y-14707888D01*
X12911491Y-14707888D02*
X12911491Y-14669793D01*
X12911491Y-14669793D02*
X12901968Y-14650746D01*
X12901968Y-14650746D02*
X12892444Y-14641222D01*
X12892444Y-14641222D02*
X12873396Y-14631698D01*
X13149587Y-14745984D02*
X13149587Y-14545984D01*
X13235301Y-14745984D02*
X13235301Y-14641222D01*
X13235301Y-14641222D02*
X13225777Y-14622174D01*
X13225777Y-14622174D02*
X13206730Y-14612650D01*
X13206730Y-14612650D02*
X13178158Y-14612650D01*
X13178158Y-14612650D02*
X13159110Y-14622174D01*
X13159110Y-14622174D02*
X13149587Y-14631698D01*
X13359110Y-14745984D02*
X13340063Y-14736460D01*
X13340063Y-14736460D02*
X13330539Y-14726936D01*
X13330539Y-14726936D02*
X13321015Y-14707888D01*
X13321015Y-14707888D02*
X13321015Y-14650746D01*
X13321015Y-14650746D02*
X13330539Y-14631698D01*
X13330539Y-14631698D02*
X13340063Y-14622174D01*
X13340063Y-14622174D02*
X13359110Y-14612650D01*
X13359110Y-14612650D02*
X13387682Y-14612650D01*
X13387682Y-14612650D02*
X13406730Y-14622174D01*
X13406730Y-14622174D02*
X13416253Y-14631698D01*
X13416253Y-14631698D02*
X13425777Y-14650746D01*
X13425777Y-14650746D02*
X13425777Y-14707888D01*
X13425777Y-14707888D02*
X13416253Y-14726936D01*
X13416253Y-14726936D02*
X13406730Y-14736460D01*
X13406730Y-14736460D02*
X13387682Y-14745984D01*
X13387682Y-14745984D02*
X13359110Y-14745984D01*
X13540063Y-14745984D02*
X13521015Y-14736460D01*
X13521015Y-14736460D02*
X13511491Y-14717412D01*
X13511491Y-14717412D02*
X13511491Y-14545984D01*
X13692444Y-14736460D02*
X13673396Y-14745984D01*
X13673396Y-14745984D02*
X13635301Y-14745984D01*
X13635301Y-14745984D02*
X13616253Y-14736460D01*
X13616253Y-14736460D02*
X13606730Y-14717412D01*
X13606730Y-14717412D02*
X13606730Y-14641222D01*
X13606730Y-14641222D02*
X13616253Y-14622174D01*
X13616253Y-14622174D02*
X13635301Y-14612650D01*
X13635301Y-14612650D02*
X13673396Y-14612650D01*
X13673396Y-14612650D02*
X13692444Y-14622174D01*
X13692444Y-14622174D02*
X13701968Y-14641222D01*
X13701968Y-14641222D02*
X13701968Y-14660269D01*
X13701968Y-14660269D02*
X13606730Y-14679317D01*
X13778158Y-14736460D02*
X13797206Y-14745984D01*
X13797206Y-14745984D02*
X13835301Y-14745984D01*
X13835301Y-14745984D02*
X13854349Y-14736460D01*
X13854349Y-14736460D02*
X13863872Y-14717412D01*
X13863872Y-14717412D02*
X13863872Y-14707888D01*
X13863872Y-14707888D02*
X13854349Y-14688841D01*
X13854349Y-14688841D02*
X13835301Y-14679317D01*
X13835301Y-14679317D02*
X13806730Y-14679317D01*
X13806730Y-14679317D02*
X13787682Y-14669793D01*
X13787682Y-14669793D02*
X13778158Y-14650746D01*
X13778158Y-14650746D02*
X13778158Y-14641222D01*
X13778158Y-14641222D02*
X13787682Y-14622174D01*
X13787682Y-14622174D02*
X13806730Y-14612650D01*
X13806730Y-14612650D02*
X13835301Y-14612650D01*
X13835301Y-14612650D02*
X13854349Y-14622174D01*
X14101968Y-14669793D02*
X14254349Y-14669793D01*
X14178158Y-14745984D02*
X14178158Y-14593603D01*
X14530539Y-14631698D02*
X14511492Y-14622174D01*
X14511492Y-14622174D02*
X14501968Y-14612650D01*
X14501968Y-14612650D02*
X14492444Y-14593603D01*
X14492444Y-14593603D02*
X14492444Y-14584079D01*
X14492444Y-14584079D02*
X14501968Y-14565031D01*
X14501968Y-14565031D02*
X14511492Y-14555508D01*
X14511492Y-14555508D02*
X14530539Y-14545984D01*
X14530539Y-14545984D02*
X14568634Y-14545984D01*
X14568634Y-14545984D02*
X14587682Y-14555508D01*
X14587682Y-14555508D02*
X14597206Y-14565031D01*
X14597206Y-14565031D02*
X14606730Y-14584079D01*
X14606730Y-14584079D02*
X14606730Y-14593603D01*
X14606730Y-14593603D02*
X14597206Y-14612650D01*
X14597206Y-14612650D02*
X14587682Y-14622174D01*
X14587682Y-14622174D02*
X14568634Y-14631698D01*
X14568634Y-14631698D02*
X14530539Y-14631698D01*
X14530539Y-14631698D02*
X14511492Y-14641222D01*
X14511492Y-14641222D02*
X14501968Y-14650746D01*
X14501968Y-14650746D02*
X14492444Y-14669793D01*
X14492444Y-14669793D02*
X14492444Y-14707888D01*
X14492444Y-14707888D02*
X14501968Y-14726936D01*
X14501968Y-14726936D02*
X14511492Y-14736460D01*
X14511492Y-14736460D02*
X14530539Y-14745984D01*
X14530539Y-14745984D02*
X14568634Y-14745984D01*
X14568634Y-14745984D02*
X14587682Y-14736460D01*
X14587682Y-14736460D02*
X14597206Y-14726936D01*
X14597206Y-14726936D02*
X14606730Y-14707888D01*
X14606730Y-14707888D02*
X14606730Y-14669793D01*
X14606730Y-14669793D02*
X14597206Y-14650746D01*
X14597206Y-14650746D02*
X14587682Y-14641222D01*
X14587682Y-14641222D02*
X14568634Y-14631698D01*
X14835301Y-14736460D02*
X14854349Y-14745984D01*
X14854349Y-14745984D02*
X14892444Y-14745984D01*
X14892444Y-14745984D02*
X14911492Y-14736460D01*
X14911492Y-14736460D02*
X14921015Y-14717412D01*
X14921015Y-14717412D02*
X14921015Y-14707888D01*
X14921015Y-14707888D02*
X14911492Y-14688841D01*
X14911492Y-14688841D02*
X14892444Y-14679317D01*
X14892444Y-14679317D02*
X14863873Y-14679317D01*
X14863873Y-14679317D02*
X14844825Y-14669793D01*
X14844825Y-14669793D02*
X14835301Y-14650746D01*
X14835301Y-14650746D02*
X14835301Y-14641222D01*
X14835301Y-14641222D02*
X14844825Y-14622174D01*
X14844825Y-14622174D02*
X14863873Y-14612650D01*
X14863873Y-14612650D02*
X14892444Y-14612650D01*
X14892444Y-14612650D02*
X14911492Y-14622174D01*
X15035301Y-14745984D02*
X15016254Y-14736460D01*
X15016254Y-14736460D02*
X15006730Y-14717412D01*
X15006730Y-14717412D02*
X15006730Y-14545984D01*
X15140063Y-14745984D02*
X15121015Y-14736460D01*
X15121015Y-14736460D02*
X15111492Y-14726936D01*
X15111492Y-14726936D02*
X15101968Y-14707888D01*
X15101968Y-14707888D02*
X15101968Y-14650746D01*
X15101968Y-14650746D02*
X15111492Y-14631698D01*
X15111492Y-14631698D02*
X15121015Y-14622174D01*
X15121015Y-14622174D02*
X15140063Y-14612650D01*
X15140063Y-14612650D02*
X15168635Y-14612650D01*
X15168635Y-14612650D02*
X15187682Y-14622174D01*
X15187682Y-14622174D02*
X15197206Y-14631698D01*
X15197206Y-14631698D02*
X15206730Y-14650746D01*
X15206730Y-14650746D02*
X15206730Y-14707888D01*
X15206730Y-14707888D02*
X15197206Y-14726936D01*
X15197206Y-14726936D02*
X15187682Y-14736460D01*
X15187682Y-14736460D02*
X15168635Y-14745984D01*
X15168635Y-14745984D02*
X15140063Y-14745984D01*
X15263873Y-14612650D02*
X15340063Y-14612650D01*
X15292444Y-14545984D02*
X15292444Y-14717412D01*
X15292444Y-14717412D02*
X15301968Y-14736460D01*
X15301968Y-14736460D02*
X15321015Y-14745984D01*
X15321015Y-14745984D02*
X15340063Y-14745984D01*
X15397206Y-14736460D02*
X15416254Y-14745984D01*
X15416254Y-14745984D02*
X15454349Y-14745984D01*
X15454349Y-14745984D02*
X15473396Y-14736460D01*
X15473396Y-14736460D02*
X15482920Y-14717412D01*
X15482920Y-14717412D02*
X15482920Y-14707888D01*
X15482920Y-14707888D02*
X15473396Y-14688841D01*
X15473396Y-14688841D02*
X15454349Y-14679317D01*
X15454349Y-14679317D02*
X15425777Y-14679317D01*
X15425777Y-14679317D02*
X15406730Y-14669793D01*
X15406730Y-14669793D02*
X15397206Y-14650746D01*
X15397206Y-14650746D02*
X15397206Y-14641222D01*
X15397206Y-14641222D02*
X15406730Y-14622174D01*
X15406730Y-14622174D02*
X15425777Y-14612650D01*
X15425777Y-14612650D02*
X15454349Y-14612650D01*
X15454349Y-14612650D02*
X15473396Y-14622174D01*
X15549587Y-14822174D02*
X15559111Y-14812650D01*
X15559111Y-14812650D02*
X15578158Y-14784079D01*
X15578158Y-14784079D02*
X15587682Y-14765031D01*
X15587682Y-14765031D02*
X15597206Y-14736460D01*
X15597206Y-14736460D02*
X15606730Y-14688841D01*
X15606730Y-14688841D02*
X15606730Y-14650746D01*
X15606730Y-14650746D02*
X15597206Y-14603127D01*
X15597206Y-14603127D02*
X15587682Y-14574555D01*
X15587682Y-14574555D02*
X15578158Y-14555508D01*
X15578158Y-14555508D02*
X15559111Y-14526936D01*
X15559111Y-14526936D02*
X15549587Y-14517412D01*
D12*
X8915000Y-14968500D02*
X8965000Y-14918500D01*
X8915000Y-14868500D01*
X8865000Y-14918500D01*
X8915000Y-14968500D01*
D11*
X9330539Y-15009984D02*
X9216253Y-15009984D01*
X9273396Y-15009984D02*
X9273396Y-14809984D01*
X9273396Y-14809984D02*
X9254348Y-14838555D01*
X9254348Y-14838555D02*
X9235301Y-14857603D01*
X9235301Y-14857603D02*
X9216253Y-14867127D01*
X9416253Y-14990936D02*
X9425777Y-15000460D01*
X9425777Y-15000460D02*
X9416253Y-15009984D01*
X9416253Y-15009984D02*
X9406729Y-15000460D01*
X9406729Y-15000460D02*
X9416253Y-14990936D01*
X9416253Y-14990936D02*
X9416253Y-15009984D01*
X9549586Y-14809984D02*
X9568634Y-14809984D01*
X9568634Y-14809984D02*
X9587682Y-14819508D01*
X9587682Y-14819508D02*
X9597205Y-14829031D01*
X9597205Y-14829031D02*
X9606729Y-14848079D01*
X9606729Y-14848079D02*
X9616253Y-14886174D01*
X9616253Y-14886174D02*
X9616253Y-14933793D01*
X9616253Y-14933793D02*
X9606729Y-14971888D01*
X9606729Y-14971888D02*
X9597205Y-14990936D01*
X9597205Y-14990936D02*
X9587682Y-15000460D01*
X9587682Y-15000460D02*
X9568634Y-15009984D01*
X9568634Y-15009984D02*
X9549586Y-15009984D01*
X9549586Y-15009984D02*
X9530539Y-15000460D01*
X9530539Y-15000460D02*
X9521015Y-14990936D01*
X9521015Y-14990936D02*
X9511491Y-14971888D01*
X9511491Y-14971888D02*
X9501967Y-14933793D01*
X9501967Y-14933793D02*
X9501967Y-14886174D01*
X9501967Y-14886174D02*
X9511491Y-14848079D01*
X9511491Y-14848079D02*
X9521015Y-14829031D01*
X9521015Y-14829031D02*
X9530539Y-14819508D01*
X9530539Y-14819508D02*
X9549586Y-14809984D01*
X9740063Y-14809984D02*
X9759110Y-14809984D01*
X9759110Y-14809984D02*
X9778158Y-14819508D01*
X9778158Y-14819508D02*
X9787682Y-14829031D01*
X9787682Y-14829031D02*
X9797205Y-14848079D01*
X9797205Y-14848079D02*
X9806729Y-14886174D01*
X9806729Y-14886174D02*
X9806729Y-14933793D01*
X9806729Y-14933793D02*
X9797205Y-14971888D01*
X9797205Y-14971888D02*
X9787682Y-14990936D01*
X9787682Y-14990936D02*
X9778158Y-15000460D01*
X9778158Y-15000460D02*
X9759110Y-15009984D01*
X9759110Y-15009984D02*
X9740063Y-15009984D01*
X9740063Y-15009984D02*
X9721015Y-15000460D01*
X9721015Y-15000460D02*
X9711491Y-14990936D01*
X9711491Y-14990936D02*
X9701967Y-14971888D01*
X9701967Y-14971888D02*
X9692444Y-14933793D01*
X9692444Y-14933793D02*
X9692444Y-14886174D01*
X9692444Y-14886174D02*
X9701967Y-14848079D01*
X9701967Y-14848079D02*
X9711491Y-14829031D01*
X9711491Y-14829031D02*
X9721015Y-14819508D01*
X9721015Y-14819508D02*
X9740063Y-14809984D01*
X9930539Y-14809984D02*
X9949586Y-14809984D01*
X9949586Y-14809984D02*
X9968634Y-14819508D01*
X9968634Y-14819508D02*
X9978158Y-14829031D01*
X9978158Y-14829031D02*
X9987682Y-14848079D01*
X9987682Y-14848079D02*
X9997205Y-14886174D01*
X9997205Y-14886174D02*
X9997205Y-14933793D01*
X9997205Y-14933793D02*
X9987682Y-14971888D01*
X9987682Y-14971888D02*
X9978158Y-14990936D01*
X9978158Y-14990936D02*
X9968634Y-15000460D01*
X9968634Y-15000460D02*
X9949586Y-15009984D01*
X9949586Y-15009984D02*
X9930539Y-15009984D01*
X9930539Y-15009984D02*
X9911491Y-15000460D01*
X9911491Y-15000460D02*
X9901967Y-14990936D01*
X9901967Y-14990936D02*
X9892444Y-14971888D01*
X9892444Y-14971888D02*
X9882920Y-14933793D01*
X9882920Y-14933793D02*
X9882920Y-14886174D01*
X9882920Y-14886174D02*
X9892444Y-14848079D01*
X9892444Y-14848079D02*
X9901967Y-14829031D01*
X9901967Y-14829031D02*
X9911491Y-14819508D01*
X9911491Y-14819508D02*
X9930539Y-14809984D01*
X10082920Y-15009984D02*
X10082920Y-14876650D01*
X10082920Y-14895698D02*
X10092444Y-14886174D01*
X10092444Y-14886174D02*
X10111491Y-14876650D01*
X10111491Y-14876650D02*
X10140063Y-14876650D01*
X10140063Y-14876650D02*
X10159110Y-14886174D01*
X10159110Y-14886174D02*
X10168634Y-14905222D01*
X10168634Y-14905222D02*
X10168634Y-15009984D01*
X10168634Y-14905222D02*
X10178158Y-14886174D01*
X10178158Y-14886174D02*
X10197205Y-14876650D01*
X10197205Y-14876650D02*
X10225777Y-14876650D01*
X10225777Y-14876650D02*
X10244825Y-14886174D01*
X10244825Y-14886174D02*
X10254348Y-14905222D01*
X10254348Y-14905222D02*
X10254348Y-15009984D01*
X10349586Y-15009984D02*
X10349586Y-14876650D01*
X10349586Y-14895698D02*
X10359110Y-14886174D01*
X10359110Y-14886174D02*
X10378158Y-14876650D01*
X10378158Y-14876650D02*
X10406729Y-14876650D01*
X10406729Y-14876650D02*
X10425777Y-14886174D01*
X10425777Y-14886174D02*
X10435301Y-14905222D01*
X10435301Y-14905222D02*
X10435301Y-15009984D01*
X10435301Y-14905222D02*
X10444825Y-14886174D01*
X10444825Y-14886174D02*
X10463872Y-14876650D01*
X10463872Y-14876650D02*
X10492444Y-14876650D01*
X10492444Y-14876650D02*
X10511491Y-14886174D01*
X10511491Y-14886174D02*
X10521015Y-14905222D01*
X10521015Y-14905222D02*
X10521015Y-15009984D01*
X10911491Y-14800460D02*
X10740063Y-15057603D01*
X11168634Y-14809984D02*
X11187682Y-14809984D01*
X11187682Y-14809984D02*
X11206729Y-14819508D01*
X11206729Y-14819508D02*
X11216253Y-14829031D01*
X11216253Y-14829031D02*
X11225777Y-14848079D01*
X11225777Y-14848079D02*
X11235301Y-14886174D01*
X11235301Y-14886174D02*
X11235301Y-14933793D01*
X11235301Y-14933793D02*
X11225777Y-14971888D01*
X11225777Y-14971888D02*
X11216253Y-14990936D01*
X11216253Y-14990936D02*
X11206729Y-15000460D01*
X11206729Y-15000460D02*
X11187682Y-15009984D01*
X11187682Y-15009984D02*
X11168634Y-15009984D01*
X11168634Y-15009984D02*
X11149587Y-15000460D01*
X11149587Y-15000460D02*
X11140063Y-14990936D01*
X11140063Y-14990936D02*
X11130539Y-14971888D01*
X11130539Y-14971888D02*
X11121015Y-14933793D01*
X11121015Y-14933793D02*
X11121015Y-14886174D01*
X11121015Y-14886174D02*
X11130539Y-14848079D01*
X11130539Y-14848079D02*
X11140063Y-14829031D01*
X11140063Y-14829031D02*
X11149587Y-14819508D01*
X11149587Y-14819508D02*
X11168634Y-14809984D01*
X11321015Y-14990936D02*
X11330539Y-15000460D01*
X11330539Y-15000460D02*
X11321015Y-15009984D01*
X11321015Y-15009984D02*
X11311491Y-15000460D01*
X11311491Y-15000460D02*
X11321015Y-14990936D01*
X11321015Y-14990936D02*
X11321015Y-15009984D01*
X11454348Y-14809984D02*
X11473396Y-14809984D01*
X11473396Y-14809984D02*
X11492444Y-14819508D01*
X11492444Y-14819508D02*
X11501967Y-14829031D01*
X11501967Y-14829031D02*
X11511491Y-14848079D01*
X11511491Y-14848079D02*
X11521015Y-14886174D01*
X11521015Y-14886174D02*
X11521015Y-14933793D01*
X11521015Y-14933793D02*
X11511491Y-14971888D01*
X11511491Y-14971888D02*
X11501967Y-14990936D01*
X11501967Y-14990936D02*
X11492444Y-15000460D01*
X11492444Y-15000460D02*
X11473396Y-15009984D01*
X11473396Y-15009984D02*
X11454348Y-15009984D01*
X11454348Y-15009984D02*
X11435301Y-15000460D01*
X11435301Y-15000460D02*
X11425777Y-14990936D01*
X11425777Y-14990936D02*
X11416253Y-14971888D01*
X11416253Y-14971888D02*
X11406729Y-14933793D01*
X11406729Y-14933793D02*
X11406729Y-14886174D01*
X11406729Y-14886174D02*
X11416253Y-14848079D01*
X11416253Y-14848079D02*
X11425777Y-14829031D01*
X11425777Y-14829031D02*
X11435301Y-14819508D01*
X11435301Y-14819508D02*
X11454348Y-14809984D01*
X11587682Y-14809984D02*
X11711491Y-14809984D01*
X11711491Y-14809984D02*
X11644825Y-14886174D01*
X11644825Y-14886174D02*
X11673396Y-14886174D01*
X11673396Y-14886174D02*
X11692444Y-14895698D01*
X11692444Y-14895698D02*
X11701967Y-14905222D01*
X11701967Y-14905222D02*
X11711491Y-14924269D01*
X11711491Y-14924269D02*
X11711491Y-14971888D01*
X11711491Y-14971888D02*
X11701967Y-14990936D01*
X11701967Y-14990936D02*
X11692444Y-15000460D01*
X11692444Y-15000460D02*
X11673396Y-15009984D01*
X11673396Y-15009984D02*
X11616253Y-15009984D01*
X11616253Y-15009984D02*
X11597206Y-15000460D01*
X11597206Y-15000460D02*
X11587682Y-14990936D01*
X11806729Y-15009984D02*
X11844825Y-15009984D01*
X11844825Y-15009984D02*
X11863872Y-15000460D01*
X11863872Y-15000460D02*
X11873396Y-14990936D01*
X11873396Y-14990936D02*
X11892444Y-14962365D01*
X11892444Y-14962365D02*
X11901967Y-14924269D01*
X11901967Y-14924269D02*
X11901967Y-14848079D01*
X11901967Y-14848079D02*
X11892444Y-14829031D01*
X11892444Y-14829031D02*
X11882920Y-14819508D01*
X11882920Y-14819508D02*
X11863872Y-14809984D01*
X11863872Y-14809984D02*
X11825777Y-14809984D01*
X11825777Y-14809984D02*
X11806729Y-14819508D01*
X11806729Y-14819508D02*
X11797206Y-14829031D01*
X11797206Y-14829031D02*
X11787682Y-14848079D01*
X11787682Y-14848079D02*
X11787682Y-14895698D01*
X11787682Y-14895698D02*
X11797206Y-14914746D01*
X11797206Y-14914746D02*
X11806729Y-14924269D01*
X11806729Y-14924269D02*
X11825777Y-14933793D01*
X11825777Y-14933793D02*
X11863872Y-14933793D01*
X11863872Y-14933793D02*
X11882920Y-14924269D01*
X11882920Y-14924269D02*
X11892444Y-14914746D01*
X11892444Y-14914746D02*
X11901967Y-14895698D01*
X12073396Y-14876650D02*
X12073396Y-15009984D01*
X12025777Y-14800460D02*
X11978158Y-14943317D01*
X11978158Y-14943317D02*
X12101967Y-14943317D01*
X12168634Y-14809984D02*
X12168634Y-14848079D01*
X12244825Y-14809984D02*
X12244825Y-14848079D01*
X12540063Y-15086174D02*
X12530539Y-15076650D01*
X12530539Y-15076650D02*
X12511491Y-15048079D01*
X12511491Y-15048079D02*
X12501968Y-15029031D01*
X12501968Y-15029031D02*
X12492444Y-15000460D01*
X12492444Y-15000460D02*
X12482920Y-14952841D01*
X12482920Y-14952841D02*
X12482920Y-14914746D01*
X12482920Y-14914746D02*
X12492444Y-14867127D01*
X12492444Y-14867127D02*
X12501968Y-14838555D01*
X12501968Y-14838555D02*
X12511491Y-14819508D01*
X12511491Y-14819508D02*
X12530539Y-14790936D01*
X12530539Y-14790936D02*
X12540063Y-14781412D01*
X12597206Y-14809984D02*
X12721015Y-14809984D01*
X12721015Y-14809984D02*
X12654348Y-14886174D01*
X12654348Y-14886174D02*
X12682920Y-14886174D01*
X12682920Y-14886174D02*
X12701968Y-14895698D01*
X12701968Y-14895698D02*
X12711491Y-14905222D01*
X12711491Y-14905222D02*
X12721015Y-14924269D01*
X12721015Y-14924269D02*
X12721015Y-14971888D01*
X12721015Y-14971888D02*
X12711491Y-14990936D01*
X12711491Y-14990936D02*
X12701968Y-15000460D01*
X12701968Y-15000460D02*
X12682920Y-15009984D01*
X12682920Y-15009984D02*
X12625777Y-15009984D01*
X12625777Y-15009984D02*
X12606729Y-15000460D01*
X12606729Y-15000460D02*
X12597206Y-14990936D01*
X12959110Y-15009984D02*
X12959110Y-14809984D01*
X13044825Y-15009984D02*
X13044825Y-14905222D01*
X13044825Y-14905222D02*
X13035301Y-14886174D01*
X13035301Y-14886174D02*
X13016253Y-14876650D01*
X13016253Y-14876650D02*
X12987682Y-14876650D01*
X12987682Y-14876650D02*
X12968634Y-14886174D01*
X12968634Y-14886174D02*
X12959110Y-14895698D01*
X13168634Y-15009984D02*
X13149587Y-15000460D01*
X13149587Y-15000460D02*
X13140063Y-14990936D01*
X13140063Y-14990936D02*
X13130539Y-14971888D01*
X13130539Y-14971888D02*
X13130539Y-14914746D01*
X13130539Y-14914746D02*
X13140063Y-14895698D01*
X13140063Y-14895698D02*
X13149587Y-14886174D01*
X13149587Y-14886174D02*
X13168634Y-14876650D01*
X13168634Y-14876650D02*
X13197206Y-14876650D01*
X13197206Y-14876650D02*
X13216253Y-14886174D01*
X13216253Y-14886174D02*
X13225777Y-14895698D01*
X13225777Y-14895698D02*
X13235301Y-14914746D01*
X13235301Y-14914746D02*
X13235301Y-14971888D01*
X13235301Y-14971888D02*
X13225777Y-14990936D01*
X13225777Y-14990936D02*
X13216253Y-15000460D01*
X13216253Y-15000460D02*
X13197206Y-15009984D01*
X13197206Y-15009984D02*
X13168634Y-15009984D01*
X13349587Y-15009984D02*
X13330539Y-15000460D01*
X13330539Y-15000460D02*
X13321015Y-14981412D01*
X13321015Y-14981412D02*
X13321015Y-14809984D01*
X13501968Y-15000460D02*
X13482920Y-15009984D01*
X13482920Y-15009984D02*
X13444825Y-15009984D01*
X13444825Y-15009984D02*
X13425777Y-15000460D01*
X13425777Y-15000460D02*
X13416253Y-14981412D01*
X13416253Y-14981412D02*
X13416253Y-14905222D01*
X13416253Y-14905222D02*
X13425777Y-14886174D01*
X13425777Y-14886174D02*
X13444825Y-14876650D01*
X13444825Y-14876650D02*
X13482920Y-14876650D01*
X13482920Y-14876650D02*
X13501968Y-14886174D01*
X13501968Y-14886174D02*
X13511491Y-14905222D01*
X13511491Y-14905222D02*
X13511491Y-14924269D01*
X13511491Y-14924269D02*
X13416253Y-14943317D01*
X13587682Y-15000460D02*
X13606730Y-15009984D01*
X13606730Y-15009984D02*
X13644825Y-15009984D01*
X13644825Y-15009984D02*
X13663872Y-15000460D01*
X13663872Y-15000460D02*
X13673396Y-14981412D01*
X13673396Y-14981412D02*
X13673396Y-14971888D01*
X13673396Y-14971888D02*
X13663872Y-14952841D01*
X13663872Y-14952841D02*
X13644825Y-14943317D01*
X13644825Y-14943317D02*
X13616253Y-14943317D01*
X13616253Y-14943317D02*
X13597206Y-14933793D01*
X13597206Y-14933793D02*
X13587682Y-14914746D01*
X13587682Y-14914746D02*
X13587682Y-14905222D01*
X13587682Y-14905222D02*
X13597206Y-14886174D01*
X13597206Y-14886174D02*
X13616253Y-14876650D01*
X13616253Y-14876650D02*
X13644825Y-14876650D01*
X13644825Y-14876650D02*
X13663872Y-14886174D01*
X13740063Y-15086174D02*
X13749587Y-15076650D01*
X13749587Y-15076650D02*
X13768634Y-15048079D01*
X13768634Y-15048079D02*
X13778158Y-15029031D01*
X13778158Y-15029031D02*
X13787682Y-15000460D01*
X13787682Y-15000460D02*
X13797206Y-14952841D01*
X13797206Y-14952841D02*
X13797206Y-14914746D01*
X13797206Y-14914746D02*
X13787682Y-14867127D01*
X13787682Y-14867127D02*
X13778158Y-14838555D01*
X13778158Y-14838555D02*
X13768634Y-14819508D01*
X13768634Y-14819508D02*
X13749587Y-14790936D01*
X13749587Y-14790936D02*
X13740063Y-14781412D01*
D13*
X8815000Y-15107500D02*
X8965000Y-15257500D01*
X8965000Y-15107500D02*
X8815000Y-15257500D01*
X8965000Y-15182500D02*
G75*
G02*
X8815000Y-15182500I-75000J0D01*
G01*
X8815000Y-15182500D02*
G75*
G02*
X8965000Y-15182500I75000J0D01*
G01*
D11*
X9330539Y-15273984D02*
X9216253Y-15273984D01*
X9273396Y-15273984D02*
X9273396Y-15073984D01*
X9273396Y-15073984D02*
X9254348Y-15102555D01*
X9254348Y-15102555D02*
X9235301Y-15121603D01*
X9235301Y-15121603D02*
X9216253Y-15131127D01*
X9416253Y-15254936D02*
X9425777Y-15264460D01*
X9425777Y-15264460D02*
X9416253Y-15273984D01*
X9416253Y-15273984D02*
X9406729Y-15264460D01*
X9406729Y-15264460D02*
X9416253Y-15254936D01*
X9416253Y-15254936D02*
X9416253Y-15273984D01*
X9606729Y-15073984D02*
X9511491Y-15073984D01*
X9511491Y-15073984D02*
X9501967Y-15169222D01*
X9501967Y-15169222D02*
X9511491Y-15159698D01*
X9511491Y-15159698D02*
X9530539Y-15150174D01*
X9530539Y-15150174D02*
X9578158Y-15150174D01*
X9578158Y-15150174D02*
X9597205Y-15159698D01*
X9597205Y-15159698D02*
X9606729Y-15169222D01*
X9606729Y-15169222D02*
X9616253Y-15188269D01*
X9616253Y-15188269D02*
X9616253Y-15235888D01*
X9616253Y-15235888D02*
X9606729Y-15254936D01*
X9606729Y-15254936D02*
X9597205Y-15264460D01*
X9597205Y-15264460D02*
X9578158Y-15273984D01*
X9578158Y-15273984D02*
X9530539Y-15273984D01*
X9530539Y-15273984D02*
X9511491Y-15264460D01*
X9511491Y-15264460D02*
X9501967Y-15254936D01*
X9740063Y-15073984D02*
X9759110Y-15073984D01*
X9759110Y-15073984D02*
X9778158Y-15083508D01*
X9778158Y-15083508D02*
X9787682Y-15093031D01*
X9787682Y-15093031D02*
X9797205Y-15112079D01*
X9797205Y-15112079D02*
X9806729Y-15150174D01*
X9806729Y-15150174D02*
X9806729Y-15197793D01*
X9806729Y-15197793D02*
X9797205Y-15235888D01*
X9797205Y-15235888D02*
X9787682Y-15254936D01*
X9787682Y-15254936D02*
X9778158Y-15264460D01*
X9778158Y-15264460D02*
X9759110Y-15273984D01*
X9759110Y-15273984D02*
X9740063Y-15273984D01*
X9740063Y-15273984D02*
X9721015Y-15264460D01*
X9721015Y-15264460D02*
X9711491Y-15254936D01*
X9711491Y-15254936D02*
X9701967Y-15235888D01*
X9701967Y-15235888D02*
X9692444Y-15197793D01*
X9692444Y-15197793D02*
X9692444Y-15150174D01*
X9692444Y-15150174D02*
X9701967Y-15112079D01*
X9701967Y-15112079D02*
X9711491Y-15093031D01*
X9711491Y-15093031D02*
X9721015Y-15083508D01*
X9721015Y-15083508D02*
X9740063Y-15073984D01*
X9930539Y-15073984D02*
X9949586Y-15073984D01*
X9949586Y-15073984D02*
X9968634Y-15083508D01*
X9968634Y-15083508D02*
X9978158Y-15093031D01*
X9978158Y-15093031D02*
X9987682Y-15112079D01*
X9987682Y-15112079D02*
X9997205Y-15150174D01*
X9997205Y-15150174D02*
X9997205Y-15197793D01*
X9997205Y-15197793D02*
X9987682Y-15235888D01*
X9987682Y-15235888D02*
X9978158Y-15254936D01*
X9978158Y-15254936D02*
X9968634Y-15264460D01*
X9968634Y-15264460D02*
X9949586Y-15273984D01*
X9949586Y-15273984D02*
X9930539Y-15273984D01*
X9930539Y-15273984D02*
X9911491Y-15264460D01*
X9911491Y-15264460D02*
X9901967Y-15254936D01*
X9901967Y-15254936D02*
X9892444Y-15235888D01*
X9892444Y-15235888D02*
X9882920Y-15197793D01*
X9882920Y-15197793D02*
X9882920Y-15150174D01*
X9882920Y-15150174D02*
X9892444Y-15112079D01*
X9892444Y-15112079D02*
X9901967Y-15093031D01*
X9901967Y-15093031D02*
X9911491Y-15083508D01*
X9911491Y-15083508D02*
X9930539Y-15073984D01*
X10082920Y-15273984D02*
X10082920Y-15140650D01*
X10082920Y-15159698D02*
X10092444Y-15150174D01*
X10092444Y-15150174D02*
X10111491Y-15140650D01*
X10111491Y-15140650D02*
X10140063Y-15140650D01*
X10140063Y-15140650D02*
X10159110Y-15150174D01*
X10159110Y-15150174D02*
X10168634Y-15169222D01*
X10168634Y-15169222D02*
X10168634Y-15273984D01*
X10168634Y-15169222D02*
X10178158Y-15150174D01*
X10178158Y-15150174D02*
X10197205Y-15140650D01*
X10197205Y-15140650D02*
X10225777Y-15140650D01*
X10225777Y-15140650D02*
X10244825Y-15150174D01*
X10244825Y-15150174D02*
X10254348Y-15169222D01*
X10254348Y-15169222D02*
X10254348Y-15273984D01*
X10349586Y-15273984D02*
X10349586Y-15140650D01*
X10349586Y-15159698D02*
X10359110Y-15150174D01*
X10359110Y-15150174D02*
X10378158Y-15140650D01*
X10378158Y-15140650D02*
X10406729Y-15140650D01*
X10406729Y-15140650D02*
X10425777Y-15150174D01*
X10425777Y-15150174D02*
X10435301Y-15169222D01*
X10435301Y-15169222D02*
X10435301Y-15273984D01*
X10435301Y-15169222D02*
X10444825Y-15150174D01*
X10444825Y-15150174D02*
X10463872Y-15140650D01*
X10463872Y-15140650D02*
X10492444Y-15140650D01*
X10492444Y-15140650D02*
X10511491Y-15150174D01*
X10511491Y-15150174D02*
X10521015Y-15169222D01*
X10521015Y-15169222D02*
X10521015Y-15273984D01*
X10911491Y-15064460D02*
X10740063Y-15321603D01*
X11168634Y-15073984D02*
X11187682Y-15073984D01*
X11187682Y-15073984D02*
X11206729Y-15083508D01*
X11206729Y-15083508D02*
X11216253Y-15093031D01*
X11216253Y-15093031D02*
X11225777Y-15112079D01*
X11225777Y-15112079D02*
X11235301Y-15150174D01*
X11235301Y-15150174D02*
X11235301Y-15197793D01*
X11235301Y-15197793D02*
X11225777Y-15235888D01*
X11225777Y-15235888D02*
X11216253Y-15254936D01*
X11216253Y-15254936D02*
X11206729Y-15264460D01*
X11206729Y-15264460D02*
X11187682Y-15273984D01*
X11187682Y-15273984D02*
X11168634Y-15273984D01*
X11168634Y-15273984D02*
X11149587Y-15264460D01*
X11149587Y-15264460D02*
X11140063Y-15254936D01*
X11140063Y-15254936D02*
X11130539Y-15235888D01*
X11130539Y-15235888D02*
X11121015Y-15197793D01*
X11121015Y-15197793D02*
X11121015Y-15150174D01*
X11121015Y-15150174D02*
X11130539Y-15112079D01*
X11130539Y-15112079D02*
X11140063Y-15093031D01*
X11140063Y-15093031D02*
X11149587Y-15083508D01*
X11149587Y-15083508D02*
X11168634Y-15073984D01*
X11321015Y-15254936D02*
X11330539Y-15264460D01*
X11330539Y-15264460D02*
X11321015Y-15273984D01*
X11321015Y-15273984D02*
X11311491Y-15264460D01*
X11311491Y-15264460D02*
X11321015Y-15254936D01*
X11321015Y-15254936D02*
X11321015Y-15273984D01*
X11454348Y-15073984D02*
X11473396Y-15073984D01*
X11473396Y-15073984D02*
X11492444Y-15083508D01*
X11492444Y-15083508D02*
X11501967Y-15093031D01*
X11501967Y-15093031D02*
X11511491Y-15112079D01*
X11511491Y-15112079D02*
X11521015Y-15150174D01*
X11521015Y-15150174D02*
X11521015Y-15197793D01*
X11521015Y-15197793D02*
X11511491Y-15235888D01*
X11511491Y-15235888D02*
X11501967Y-15254936D01*
X11501967Y-15254936D02*
X11492444Y-15264460D01*
X11492444Y-15264460D02*
X11473396Y-15273984D01*
X11473396Y-15273984D02*
X11454348Y-15273984D01*
X11454348Y-15273984D02*
X11435301Y-15264460D01*
X11435301Y-15264460D02*
X11425777Y-15254936D01*
X11425777Y-15254936D02*
X11416253Y-15235888D01*
X11416253Y-15235888D02*
X11406729Y-15197793D01*
X11406729Y-15197793D02*
X11406729Y-15150174D01*
X11406729Y-15150174D02*
X11416253Y-15112079D01*
X11416253Y-15112079D02*
X11425777Y-15093031D01*
X11425777Y-15093031D02*
X11435301Y-15083508D01*
X11435301Y-15083508D02*
X11454348Y-15073984D01*
X11701967Y-15073984D02*
X11606729Y-15073984D01*
X11606729Y-15073984D02*
X11597206Y-15169222D01*
X11597206Y-15169222D02*
X11606729Y-15159698D01*
X11606729Y-15159698D02*
X11625777Y-15150174D01*
X11625777Y-15150174D02*
X11673396Y-15150174D01*
X11673396Y-15150174D02*
X11692444Y-15159698D01*
X11692444Y-15159698D02*
X11701967Y-15169222D01*
X11701967Y-15169222D02*
X11711491Y-15188269D01*
X11711491Y-15188269D02*
X11711491Y-15235888D01*
X11711491Y-15235888D02*
X11701967Y-15254936D01*
X11701967Y-15254936D02*
X11692444Y-15264460D01*
X11692444Y-15264460D02*
X11673396Y-15273984D01*
X11673396Y-15273984D02*
X11625777Y-15273984D01*
X11625777Y-15273984D02*
X11606729Y-15264460D01*
X11606729Y-15264460D02*
X11597206Y-15254936D01*
X11806729Y-15273984D02*
X11844825Y-15273984D01*
X11844825Y-15273984D02*
X11863872Y-15264460D01*
X11863872Y-15264460D02*
X11873396Y-15254936D01*
X11873396Y-15254936D02*
X11892444Y-15226365D01*
X11892444Y-15226365D02*
X11901967Y-15188269D01*
X11901967Y-15188269D02*
X11901967Y-15112079D01*
X11901967Y-15112079D02*
X11892444Y-15093031D01*
X11892444Y-15093031D02*
X11882920Y-15083508D01*
X11882920Y-15083508D02*
X11863872Y-15073984D01*
X11863872Y-15073984D02*
X11825777Y-15073984D01*
X11825777Y-15073984D02*
X11806729Y-15083508D01*
X11806729Y-15083508D02*
X11797206Y-15093031D01*
X11797206Y-15093031D02*
X11787682Y-15112079D01*
X11787682Y-15112079D02*
X11787682Y-15159698D01*
X11787682Y-15159698D02*
X11797206Y-15178746D01*
X11797206Y-15178746D02*
X11806729Y-15188269D01*
X11806729Y-15188269D02*
X11825777Y-15197793D01*
X11825777Y-15197793D02*
X11863872Y-15197793D01*
X11863872Y-15197793D02*
X11882920Y-15188269D01*
X11882920Y-15188269D02*
X11892444Y-15178746D01*
X11892444Y-15178746D02*
X11901967Y-15159698D01*
X12092444Y-15273984D02*
X11978158Y-15273984D01*
X12035301Y-15273984D02*
X12035301Y-15073984D01*
X12035301Y-15073984D02*
X12016253Y-15102555D01*
X12016253Y-15102555D02*
X11997206Y-15121603D01*
X11997206Y-15121603D02*
X11978158Y-15131127D01*
X12168634Y-15073984D02*
X12168634Y-15112079D01*
X12244825Y-15073984D02*
X12244825Y-15112079D01*
X12540063Y-15350174D02*
X12530539Y-15340650D01*
X12530539Y-15340650D02*
X12511491Y-15312079D01*
X12511491Y-15312079D02*
X12501968Y-15293031D01*
X12501968Y-15293031D02*
X12492444Y-15264460D01*
X12492444Y-15264460D02*
X12482920Y-15216841D01*
X12482920Y-15216841D02*
X12482920Y-15178746D01*
X12482920Y-15178746D02*
X12492444Y-15131127D01*
X12492444Y-15131127D02*
X12501968Y-15102555D01*
X12501968Y-15102555D02*
X12511491Y-15083508D01*
X12511491Y-15083508D02*
X12530539Y-15054936D01*
X12530539Y-15054936D02*
X12540063Y-15045412D01*
X12654348Y-15073984D02*
X12673396Y-15073984D01*
X12673396Y-15073984D02*
X12692444Y-15083508D01*
X12692444Y-15083508D02*
X12701968Y-15093031D01*
X12701968Y-15093031D02*
X12711491Y-15112079D01*
X12711491Y-15112079D02*
X12721015Y-15150174D01*
X12721015Y-15150174D02*
X12721015Y-15197793D01*
X12721015Y-15197793D02*
X12711491Y-15235888D01*
X12711491Y-15235888D02*
X12701968Y-15254936D01*
X12701968Y-15254936D02*
X12692444Y-15264460D01*
X12692444Y-15264460D02*
X12673396Y-15273984D01*
X12673396Y-15273984D02*
X12654348Y-15273984D01*
X12654348Y-15273984D02*
X12635301Y-15264460D01*
X12635301Y-15264460D02*
X12625777Y-15254936D01*
X12625777Y-15254936D02*
X12616253Y-15235888D01*
X12616253Y-15235888D02*
X12606729Y-15197793D01*
X12606729Y-15197793D02*
X12606729Y-15150174D01*
X12606729Y-15150174D02*
X12616253Y-15112079D01*
X12616253Y-15112079D02*
X12625777Y-15093031D01*
X12625777Y-15093031D02*
X12635301Y-15083508D01*
X12635301Y-15083508D02*
X12654348Y-15073984D01*
X12959110Y-15273984D02*
X12959110Y-15073984D01*
X13044825Y-15273984D02*
X13044825Y-15169222D01*
X13044825Y-15169222D02*
X13035301Y-15150174D01*
X13035301Y-15150174D02*
X13016253Y-15140650D01*
X13016253Y-15140650D02*
X12987682Y-15140650D01*
X12987682Y-15140650D02*
X12968634Y-15150174D01*
X12968634Y-15150174D02*
X12959110Y-15159698D01*
X13168634Y-15273984D02*
X13149587Y-15264460D01*
X13149587Y-15264460D02*
X13140063Y-15254936D01*
X13140063Y-15254936D02*
X13130539Y-15235888D01*
X13130539Y-15235888D02*
X13130539Y-15178746D01*
X13130539Y-15178746D02*
X13140063Y-15159698D01*
X13140063Y-15159698D02*
X13149587Y-15150174D01*
X13149587Y-15150174D02*
X13168634Y-15140650D01*
X13168634Y-15140650D02*
X13197206Y-15140650D01*
X13197206Y-15140650D02*
X13216253Y-15150174D01*
X13216253Y-15150174D02*
X13225777Y-15159698D01*
X13225777Y-15159698D02*
X13235301Y-15178746D01*
X13235301Y-15178746D02*
X13235301Y-15235888D01*
X13235301Y-15235888D02*
X13225777Y-15254936D01*
X13225777Y-15254936D02*
X13216253Y-15264460D01*
X13216253Y-15264460D02*
X13197206Y-15273984D01*
X13197206Y-15273984D02*
X13168634Y-15273984D01*
X13349587Y-15273984D02*
X13330539Y-15264460D01*
X13330539Y-15264460D02*
X13321015Y-15245412D01*
X13321015Y-15245412D02*
X13321015Y-15073984D01*
X13501968Y-15264460D02*
X13482920Y-15273984D01*
X13482920Y-15273984D02*
X13444825Y-15273984D01*
X13444825Y-15273984D02*
X13425777Y-15264460D01*
X13425777Y-15264460D02*
X13416253Y-15245412D01*
X13416253Y-15245412D02*
X13416253Y-15169222D01*
X13416253Y-15169222D02*
X13425777Y-15150174D01*
X13425777Y-15150174D02*
X13444825Y-15140650D01*
X13444825Y-15140650D02*
X13482920Y-15140650D01*
X13482920Y-15140650D02*
X13501968Y-15150174D01*
X13501968Y-15150174D02*
X13511491Y-15169222D01*
X13511491Y-15169222D02*
X13511491Y-15188269D01*
X13511491Y-15188269D02*
X13416253Y-15207317D01*
X13587682Y-15264460D02*
X13606730Y-15273984D01*
X13606730Y-15273984D02*
X13644825Y-15273984D01*
X13644825Y-15273984D02*
X13663872Y-15264460D01*
X13663872Y-15264460D02*
X13673396Y-15245412D01*
X13673396Y-15245412D02*
X13673396Y-15235888D01*
X13673396Y-15235888D02*
X13663872Y-15216841D01*
X13663872Y-15216841D02*
X13644825Y-15207317D01*
X13644825Y-15207317D02*
X13616253Y-15207317D01*
X13616253Y-15207317D02*
X13597206Y-15197793D01*
X13597206Y-15197793D02*
X13587682Y-15178746D01*
X13587682Y-15178746D02*
X13587682Y-15169222D01*
X13587682Y-15169222D02*
X13597206Y-15150174D01*
X13597206Y-15150174D02*
X13616253Y-15140650D01*
X13616253Y-15140650D02*
X13644825Y-15140650D01*
X13644825Y-15140650D02*
X13663872Y-15150174D01*
X13911492Y-15197793D02*
X14063873Y-15197793D01*
X13987682Y-15273984D02*
X13987682Y-15121603D01*
X14301968Y-15093031D02*
X14311492Y-15083508D01*
X14311492Y-15083508D02*
X14330539Y-15073984D01*
X14330539Y-15073984D02*
X14378158Y-15073984D01*
X14378158Y-15073984D02*
X14397206Y-15083508D01*
X14397206Y-15083508D02*
X14406730Y-15093031D01*
X14406730Y-15093031D02*
X14416253Y-15112079D01*
X14416253Y-15112079D02*
X14416253Y-15131127D01*
X14416253Y-15131127D02*
X14406730Y-15159698D01*
X14406730Y-15159698D02*
X14292444Y-15273984D01*
X14292444Y-15273984D02*
X14416253Y-15273984D01*
X14644825Y-15264460D02*
X14663873Y-15273984D01*
X14663873Y-15273984D02*
X14701968Y-15273984D01*
X14701968Y-15273984D02*
X14721015Y-15264460D01*
X14721015Y-15264460D02*
X14730539Y-15245412D01*
X14730539Y-15245412D02*
X14730539Y-15235888D01*
X14730539Y-15235888D02*
X14721015Y-15216841D01*
X14721015Y-15216841D02*
X14701968Y-15207317D01*
X14701968Y-15207317D02*
X14673396Y-15207317D01*
X14673396Y-15207317D02*
X14654349Y-15197793D01*
X14654349Y-15197793D02*
X14644825Y-15178746D01*
X14644825Y-15178746D02*
X14644825Y-15169222D01*
X14644825Y-15169222D02*
X14654349Y-15150174D01*
X14654349Y-15150174D02*
X14673396Y-15140650D01*
X14673396Y-15140650D02*
X14701968Y-15140650D01*
X14701968Y-15140650D02*
X14721015Y-15150174D01*
X14844825Y-15273984D02*
X14825777Y-15264460D01*
X14825777Y-15264460D02*
X14816254Y-15245412D01*
X14816254Y-15245412D02*
X14816254Y-15073984D01*
X14949587Y-15273984D02*
X14930539Y-15264460D01*
X14930539Y-15264460D02*
X14921015Y-15254936D01*
X14921015Y-15254936D02*
X14911492Y-15235888D01*
X14911492Y-15235888D02*
X14911492Y-15178746D01*
X14911492Y-15178746D02*
X14921015Y-15159698D01*
X14921015Y-15159698D02*
X14930539Y-15150174D01*
X14930539Y-15150174D02*
X14949587Y-15140650D01*
X14949587Y-15140650D02*
X14978158Y-15140650D01*
X14978158Y-15140650D02*
X14997206Y-15150174D01*
X14997206Y-15150174D02*
X15006730Y-15159698D01*
X15006730Y-15159698D02*
X15016254Y-15178746D01*
X15016254Y-15178746D02*
X15016254Y-15235888D01*
X15016254Y-15235888D02*
X15006730Y-15254936D01*
X15006730Y-15254936D02*
X14997206Y-15264460D01*
X14997206Y-15264460D02*
X14978158Y-15273984D01*
X14978158Y-15273984D02*
X14949587Y-15273984D01*
X15073396Y-15140650D02*
X15149587Y-15140650D01*
X15101968Y-15073984D02*
X15101968Y-15245412D01*
X15101968Y-15245412D02*
X15111492Y-15264460D01*
X15111492Y-15264460D02*
X15130539Y-15273984D01*
X15130539Y-15273984D02*
X15149587Y-15273984D01*
X15206730Y-15264460D02*
X15225777Y-15273984D01*
X15225777Y-15273984D02*
X15263873Y-15273984D01*
X15263873Y-15273984D02*
X15282920Y-15264460D01*
X15282920Y-15264460D02*
X15292444Y-15245412D01*
X15292444Y-15245412D02*
X15292444Y-15235888D01*
X15292444Y-15235888D02*
X15282920Y-15216841D01*
X15282920Y-15216841D02*
X15263873Y-15207317D01*
X15263873Y-15207317D02*
X15235301Y-15207317D01*
X15235301Y-15207317D02*
X15216254Y-15197793D01*
X15216254Y-15197793D02*
X15206730Y-15178746D01*
X15206730Y-15178746D02*
X15206730Y-15169222D01*
X15206730Y-15169222D02*
X15216254Y-15150174D01*
X15216254Y-15150174D02*
X15235301Y-15140650D01*
X15235301Y-15140650D02*
X15263873Y-15140650D01*
X15263873Y-15140650D02*
X15282920Y-15150174D01*
X15359111Y-15350174D02*
X15368635Y-15340650D01*
X15368635Y-15340650D02*
X15387682Y-15312079D01*
X15387682Y-15312079D02*
X15397206Y-15293031D01*
X15397206Y-15293031D02*
X15406730Y-15264460D01*
X15406730Y-15264460D02*
X15416254Y-15216841D01*
X15416254Y-15216841D02*
X15416254Y-15178746D01*
X15416254Y-15178746D02*
X15406730Y-15131127D01*
X15406730Y-15131127D02*
X15397206Y-15102555D01*
X15397206Y-15102555D02*
X15387682Y-15083508D01*
X15387682Y-15083508D02*
X15368635Y-15054936D01*
X15368635Y-15054936D02*
X15359111Y-15045412D01*
M02*
