%TF.GenerationSoftware,KiCad,Pcbnew,9.0.5*%
%TF.CreationDate,2025-11-15T17:59:51+00:00*%
%TF.ProjectId,gk-controls,676b2d63-6f6e-4747-926f-6c732e6b6963,rev?*%
%TF.SameCoordinates,Original*%
%TF.FileFunction,Paste,Bot*%
%TF.FilePolarity,Positive*%
%FSLAX46Y46*%
G04 Gerber Fmt 4.6, Leading zero omitted, Abs format (unit mm)*
G04 Created by KiCad (PCBNEW 9.0.5) date 2025-11-15 17:59:51*
%MOMM*%
%LPD*%
G01*
G04 APERTURE LIST*
G04 Aperture macros list*
%AMRoundRect*
0 Rectangle with rounded corners*
0 $1 Rounding radius*
0 $2 $3 $4 $5 $6 $7 $8 $9 X,Y pos of 4 corners*
0 Add a 4 corners polygon primitive as box body*
4,1,4,$2,$3,$4,$5,$6,$7,$8,$9,$2,$3,0*
0 Add four circle primitives for the rounded corners*
1,1,$1+$1,$2,$3*
1,1,$1+$1,$4,$5*
1,1,$1+$1,$6,$7*
1,1,$1+$1,$8,$9*
0 Add four rect primitives between the rounded corners*
20,1,$1+$1,$2,$3,$4,$5,0*
20,1,$1+$1,$4,$5,$6,$7,0*
20,1,$1+$1,$6,$7,$8,$9,0*
20,1,$1+$1,$8,$9,$2,$3,0*%
G04 Aperture macros list end*
%ADD10C,3.200000*%
%ADD11RoundRect,0.200000X-0.200000X-0.275000X0.200000X-0.275000X0.200000X0.275000X-0.200000X0.275000X0*%
%ADD12RoundRect,0.200000X0.200000X0.275000X-0.200000X0.275000X-0.200000X-0.275000X0.200000X-0.275000X0*%
%ADD13R,0.740000X2.400000*%
%ADD14RoundRect,0.225000X-0.225000X-0.250000X0.225000X-0.250000X0.225000X0.250000X-0.225000X0.250000X0*%
%ADD15RoundRect,0.250000X-0.250000X-0.475000X0.250000X-0.475000X0.250000X0.475000X-0.250000X0.475000X0*%
G04 APERTURE END LIST*
D10*
%TO.C,H1*%
X81788000Y-86614000D03*
%TD*%
D11*
%TO.C,R21*%
X72835000Y-75565000D03*
X74485000Y-75565000D03*
%TD*%
D12*
%TO.C,R27*%
X84645000Y-73660000D03*
X82995000Y-73660000D03*
%TD*%
%TO.C,R25*%
X74485000Y-73660000D03*
X72835000Y-73660000D03*
%TD*%
%TO.C,R28*%
X89725000Y-73660000D03*
X88075000Y-73660000D03*
%TD*%
D13*
%TO.C,J1*%
X112395000Y-69260000D03*
X112395000Y-65360000D03*
X111125000Y-69260000D03*
X111125000Y-65360000D03*
X109855000Y-69260000D03*
X109855000Y-65360000D03*
X108585000Y-69260000D03*
X108585000Y-65360000D03*
X107315000Y-69260000D03*
X107315000Y-65360000D03*
X106045000Y-69260000D03*
X106045000Y-65360000D03*
X104775000Y-69260000D03*
X104775000Y-65360000D03*
X103505000Y-69260000D03*
X103505000Y-65360000D03*
X102235000Y-69260000D03*
X102235000Y-65360000D03*
X100965000Y-69260000D03*
X100965000Y-65360000D03*
%TD*%
D11*
%TO.C,R22*%
X77915000Y-75565000D03*
X79565000Y-75565000D03*
%TD*%
D14*
%TO.C,C12*%
X122415000Y-66675000D03*
X123965000Y-66675000D03*
%TD*%
D11*
%TO.C,R24*%
X88075000Y-75565000D03*
X89725000Y-75565000D03*
%TD*%
D14*
%TO.C,C15*%
X137655000Y-66675000D03*
X139205000Y-66675000D03*
%TD*%
D12*
%TO.C,R19*%
X134175000Y-68580000D03*
X132525000Y-68580000D03*
%TD*%
D11*
%TO.C,R13*%
X122365000Y-70485000D03*
X124015000Y-70485000D03*
%TD*%
D12*
%TO.C,R18*%
X129095000Y-68580000D03*
X127445000Y-68580000D03*
%TD*%
D14*
%TO.C,C22*%
X105905000Y-40005000D03*
X107455000Y-40005000D03*
%TD*%
D12*
%TO.C,R34*%
X107505000Y-41910000D03*
X105855000Y-41910000D03*
%TD*%
D11*
%TO.C,R23*%
X82995000Y-75565000D03*
X84645000Y-75565000D03*
%TD*%
D14*
%TO.C,C17*%
X77965000Y-71755000D03*
X79515000Y-71755000D03*
%TD*%
D11*
%TO.C,R10*%
X115380000Y-52070000D03*
X117030000Y-52070000D03*
%TD*%
D15*
%TO.C,C2*%
X116144000Y-74168000D03*
X118044000Y-74168000D03*
%TD*%
%TO.C,C1*%
X113985000Y-60325000D03*
X115885000Y-60325000D03*
%TD*%
D12*
%TO.C,R26*%
X79565000Y-73660000D03*
X77915000Y-73660000D03*
%TD*%
D14*
%TO.C,C19*%
X88125000Y-71755000D03*
X89675000Y-71755000D03*
%TD*%
%TO.C,C14*%
X132575000Y-66675000D03*
X134125000Y-66675000D03*
%TD*%
D12*
%TO.C,R6*%
X105600000Y-55245000D03*
X103950000Y-55245000D03*
%TD*%
D15*
%TO.C,C3*%
X95570000Y-74168000D03*
X97470000Y-74168000D03*
%TD*%
D12*
%TO.C,R7*%
X97345000Y-50165000D03*
X95695000Y-50165000D03*
%TD*%
D14*
%TO.C,C16*%
X72885000Y-71755000D03*
X74435000Y-71755000D03*
%TD*%
D12*
%TO.C,R17*%
X124015000Y-68580000D03*
X122365000Y-68580000D03*
%TD*%
D11*
%TO.C,R16*%
X137605000Y-70485000D03*
X139255000Y-70485000D03*
%TD*%
%TO.C,R15*%
X132525000Y-70485000D03*
X134175000Y-70485000D03*
%TD*%
D14*
%TO.C,C13*%
X127495000Y-66675000D03*
X129045000Y-66675000D03*
%TD*%
D12*
%TO.C,R20*%
X139255000Y-68580000D03*
X137605000Y-68580000D03*
%TD*%
D11*
%TO.C,R31*%
X105855000Y-43815000D03*
X107505000Y-43815000D03*
%TD*%
D12*
%TO.C,R9*%
X109410000Y-55245000D03*
X107760000Y-55245000D03*
%TD*%
D14*
%TO.C,C18*%
X83045000Y-71755000D03*
X84595000Y-71755000D03*
%TD*%
D11*
%TO.C,R12*%
X115380000Y-50165000D03*
X117030000Y-50165000D03*
%TD*%
D12*
%TO.C,R8*%
X97345000Y-52070000D03*
X95695000Y-52070000D03*
%TD*%
D11*
%TO.C,R14*%
X127445000Y-70485000D03*
X129095000Y-70485000D03*
%TD*%
M02*
