M48
; DRILL file {KiCad 9.0.5} date 2025-11-15T17:59:55+0000
; FORMAT={-:-/ absolute / metric / decimal}
; #@! TF.CreationDate,2025-11-15T17:59:55+00:00
; #@! TF.GenerationSoftware,Kicad,Pcbnew,9.0.5
; #@! TF.FileFunction,Plated,1,2,PTH
FMAT,2
METRIC
; #@! TA.AperFunction,Plated,PTH,ViaDrill
T1C0.400
; #@! TA.AperFunction,Plated,PTH,ComponentDrill
T2C0.900
; #@! TA.AperFunction,Plated,PTH,ComponentDrill
T3C1.000
; #@! TA.AperFunction,Plated,PTH,ComponentDrill
T4C1.500
%
G90
G05
T1
X70.612Y-81.28
X74.422Y-69.85
X74.422Y-80.518
X76.454Y-81.788
X76.454Y-103.378
X79.502Y-69.85
X84.074Y-82.042
X84.582Y-69.85
X86.614Y-92.202
X86.868Y-82.804
X89.662Y-69.85
X90.424Y-93.726
X91.694Y-78.232
X92.202Y-57.15
X92.456Y-53.34
X92.71Y-62.738
X92.71Y-79.248
X92.964Y-58.928
X93.472Y-46.482
X93.472Y-66.802
X93.98Y-94.742
X94.234Y-65.786
X95.504Y-71.882
X96.012Y-57.404
X96.266Y-92.456
X96.774Y-55.372
X97.028Y-68.58
X97.536Y-75.946
X98.044Y-55.88
X98.806Y-51.308
X98.806Y-78.232
X98.806Y-92.964
X99.06Y-50.038
X99.06Y-69.596
X99.568Y-71.882
X99.568Y-75.438
X99.822Y-79.248
X99.822Y-89.916
X100.076Y-54.61
X101.6Y-62.23
X101.854Y-91.44
X101.854Y-95.758
X102.235Y-72.898
X102.616Y-93.726
X103.759Y-74.549
X103.886Y-56.642
X104.648Y-72.644
X105.156Y-53.34
X105.156Y-102.108
X105.41Y-60.96
X105.41Y-78.994
X105.41Y-80.01
X105.664Y-67.31
X105.918Y-101.092
X106.934Y-93.98
X107.442Y-38.354
X107.696Y-56.642
X107.696Y-92.456
X107.95Y-60.96
X107.95Y-80.01
X107.95Y-83.566
X107.95Y-90.678
X108.143Y-79.039
X108.458Y-52.578
X108.458Y-67.31
X108.458Y-99.314
X108.966Y-41.656
X108.966Y-53.848
X110.49Y-60.96
X110.744Y-75.692
X111.212Y-91.44
X111.503Y-84.876
X111.506Y-74.422
X111.76Y-78.486
X111.76Y-81.534
X112.014Y-92.456
X112.268Y-73.7
X112.522Y-84.328
X112.776Y-79.502
X112.776Y-86.36
X112.776Y-89.916
X113.284Y-50.038
X113.284Y-85.344
X113.538Y-80.264
X113.792Y-51.308
X113.792Y-69.342
X114.808Y-81.28
X115.062Y-66.802
X115.062Y-76.708
X115.316Y-61.976
X115.824Y-58.42
X116.078Y-67.564
X116.332Y-71.12
X116.332Y-81.026
X117.094Y-92.71
X117.348Y-71.374
X118.364Y-50.292
X118.364Y-52.07
X118.618Y-71.374
X118.872Y-57.404
X119.38Y-74.168
X119.38Y-93.98
X119.634Y-71.374
X119.888Y-55.372
X120.142Y-56.388
X120.142Y-97.282
X120.65Y-54.61
X122.682Y-52.07
X122.682Y-53.34
X123.952Y-50.292
X123.952Y-65.024
X124.015Y-72.136
X125.222Y-46.482
X125.222Y-61.976
X125.222Y-76.2
X126.746Y-85.852
X126.746Y-100.076
X127.508Y-83.82
X129.032Y-65.024
X130.302Y-87.122
X130.556Y-62.484
X131.318Y-104.14
X134.112Y-65.024
X135.636Y-61.468
X135.89Y-88.138
X138.43Y-86.106
X140.716Y-62.23
X146.304Y-50.546
X147.828Y-74.93
T2
X64.023Y-53.596
X64.023Y-56.136
X64.023Y-58.676
X70.169Y-47.195
X72.709Y-47.195
X75.249Y-47.195
X78.475Y-59.235
X83.047Y-52.733
X83.047Y-59.235
X128.46Y-92.353
X128.46Y-96.925
X129.019Y-77.9
X131.559Y-77.9
X134.099Y-77.9
X134.962Y-96.925
X140.499Y-84.047
X140.499Y-86.587
X140.499Y-89.127
T3
X62.738Y-78.994
X148.359Y-37.086
T2
X67.279Y-49.634G85X67.979Y-49.634
G05
X67.279Y-62.334G85X67.979Y-62.334
G05
X77.414Y-49.634G85X78.114Y-49.634
G05
X77.414Y-62.334G85X78.114Y-62.334
G05
X125.361Y-81.157G85X125.361Y-81.857
G05
X125.361Y-91.292G85X125.361Y-91.992
G05
X138.061Y-81.157G85X138.061Y-81.857
G05
X138.061Y-91.292G85X138.061Y-91.992
G05
T4
X78.325Y-53.033G85X78.325Y-55.633
G05
X134.662Y-92.203G85X132.062Y-92.203
G05
M30
