%TF.GenerationSoftware,KiCad,Pcbnew,9.0.5*%
%TF.CreationDate,2025-11-15T17:59:55+00:00*%
%TF.ProjectId,gk-controls,676b2d63-6f6e-4747-926f-6c732e6b6963,rev?*%
%TF.SameCoordinates,Original*%
%TF.FileFunction,Drillmap*%
%TF.FilePolarity,Positive*%
%FSLAX45Y45*%
G04 Gerber Fmt 4.5, Leading zero omitted, Abs format (unit mm)*
G04 Created by KiCad (PCBNEW 9.0.5) date 2025-11-15 17:59:55*
%MOMM*%
%LPD*%
G01*
G04 APERTURE LIST*
%ADD10C,0.050000*%
%ADD11C,0.200000*%
%ADD12C,0.320000*%
G04 APERTURE END LIST*
D10*
X5588000Y-3048000D02*
X15748000Y-3048000D01*
X15748000Y-10668000D01*
X5588000Y-10668000D01*
X5588000Y-3048000D01*
D11*
D12*
X6190000Y-4031000D02*
X6510000Y-4351000D01*
X6510000Y-4031000D02*
X6190000Y-4351000D01*
X8018800Y-8501400D02*
X8338800Y-8821400D01*
X8338800Y-8501400D02*
X8018800Y-8821400D01*
X13910866Y-5453613D02*
X14230866Y-5773613D01*
X14230866Y-5453613D02*
X13910866Y-5773613D01*
X15080000Y-9619000D02*
X15400000Y-9939000D01*
X15400000Y-9619000D02*
X15080000Y-9939000D01*
D11*
X5846277Y-10981984D02*
X5846277Y-10781984D01*
X5846277Y-10781984D02*
X5893896Y-10781984D01*
X5893896Y-10781984D02*
X5922467Y-10791508D01*
X5922467Y-10791508D02*
X5941515Y-10810555D01*
X5941515Y-10810555D02*
X5951039Y-10829603D01*
X5951039Y-10829603D02*
X5960562Y-10867698D01*
X5960562Y-10867698D02*
X5960562Y-10896270D01*
X5960562Y-10896270D02*
X5951039Y-10934365D01*
X5951039Y-10934365D02*
X5941515Y-10953412D01*
X5941515Y-10953412D02*
X5922467Y-10972460D01*
X5922467Y-10972460D02*
X5893896Y-10981984D01*
X5893896Y-10981984D02*
X5846277Y-10981984D01*
X6046277Y-10981984D02*
X6046277Y-10848650D01*
X6046277Y-10886746D02*
X6055801Y-10867698D01*
X6055801Y-10867698D02*
X6065324Y-10858174D01*
X6065324Y-10858174D02*
X6084372Y-10848650D01*
X6084372Y-10848650D02*
X6103420Y-10848650D01*
X6170086Y-10981984D02*
X6170086Y-10848650D01*
X6170086Y-10781984D02*
X6160562Y-10791508D01*
X6160562Y-10791508D02*
X6170086Y-10801031D01*
X6170086Y-10801031D02*
X6179610Y-10791508D01*
X6179610Y-10791508D02*
X6170086Y-10781984D01*
X6170086Y-10781984D02*
X6170086Y-10801031D01*
X6293896Y-10981984D02*
X6274848Y-10972460D01*
X6274848Y-10972460D02*
X6265324Y-10953412D01*
X6265324Y-10953412D02*
X6265324Y-10781984D01*
X6398658Y-10981984D02*
X6379610Y-10972460D01*
X6379610Y-10972460D02*
X6370086Y-10953412D01*
X6370086Y-10953412D02*
X6370086Y-10781984D01*
X6627229Y-10981984D02*
X6627229Y-10781984D01*
X6627229Y-10781984D02*
X6693896Y-10924841D01*
X6693896Y-10924841D02*
X6760562Y-10781984D01*
X6760562Y-10781984D02*
X6760562Y-10981984D01*
X6941515Y-10981984D02*
X6941515Y-10877222D01*
X6941515Y-10877222D02*
X6931991Y-10858174D01*
X6931991Y-10858174D02*
X6912943Y-10848650D01*
X6912943Y-10848650D02*
X6874848Y-10848650D01*
X6874848Y-10848650D02*
X6855801Y-10858174D01*
X6941515Y-10972460D02*
X6922467Y-10981984D01*
X6922467Y-10981984D02*
X6874848Y-10981984D01*
X6874848Y-10981984D02*
X6855801Y-10972460D01*
X6855801Y-10972460D02*
X6846277Y-10953412D01*
X6846277Y-10953412D02*
X6846277Y-10934365D01*
X6846277Y-10934365D02*
X6855801Y-10915317D01*
X6855801Y-10915317D02*
X6874848Y-10905793D01*
X6874848Y-10905793D02*
X6922467Y-10905793D01*
X6922467Y-10905793D02*
X6941515Y-10896270D01*
X7036753Y-10848650D02*
X7036753Y-11048650D01*
X7036753Y-10858174D02*
X7055801Y-10848650D01*
X7055801Y-10848650D02*
X7093896Y-10848650D01*
X7093896Y-10848650D02*
X7112943Y-10858174D01*
X7112943Y-10858174D02*
X7122467Y-10867698D01*
X7122467Y-10867698D02*
X7131991Y-10886746D01*
X7131991Y-10886746D02*
X7131991Y-10943889D01*
X7131991Y-10943889D02*
X7122467Y-10962936D01*
X7122467Y-10962936D02*
X7112943Y-10972460D01*
X7112943Y-10972460D02*
X7093896Y-10981984D01*
X7093896Y-10981984D02*
X7055801Y-10981984D01*
X7055801Y-10981984D02*
X7036753Y-10972460D01*
X7217705Y-10962936D02*
X7227229Y-10972460D01*
X7227229Y-10972460D02*
X7217705Y-10981984D01*
X7217705Y-10981984D02*
X7208182Y-10972460D01*
X7208182Y-10972460D02*
X7217705Y-10962936D01*
X7217705Y-10962936D02*
X7217705Y-10981984D01*
X7217705Y-10858174D02*
X7227229Y-10867698D01*
X7227229Y-10867698D02*
X7217705Y-10877222D01*
X7217705Y-10877222D02*
X7208182Y-10867698D01*
X7208182Y-10867698D02*
X7217705Y-10858174D01*
X7217705Y-10858174D02*
X7217705Y-10877222D01*
X5385500Y-11210500D02*
X5585500Y-11410500D01*
X5585500Y-11210500D02*
X5385500Y-11410500D01*
X5827229Y-11201984D02*
X5951039Y-11201984D01*
X5951039Y-11201984D02*
X5884372Y-11278174D01*
X5884372Y-11278174D02*
X5912943Y-11278174D01*
X5912943Y-11278174D02*
X5931991Y-11287698D01*
X5931991Y-11287698D02*
X5941515Y-11297222D01*
X5941515Y-11297222D02*
X5951039Y-11316269D01*
X5951039Y-11316269D02*
X5951039Y-11363888D01*
X5951039Y-11363888D02*
X5941515Y-11382936D01*
X5941515Y-11382936D02*
X5931991Y-11392460D01*
X5931991Y-11392460D02*
X5912943Y-11401984D01*
X5912943Y-11401984D02*
X5855801Y-11401984D01*
X5855801Y-11401984D02*
X5836753Y-11392460D01*
X5836753Y-11392460D02*
X5827229Y-11382936D01*
X6036753Y-11382936D02*
X6046277Y-11392460D01*
X6046277Y-11392460D02*
X6036753Y-11401984D01*
X6036753Y-11401984D02*
X6027229Y-11392460D01*
X6027229Y-11392460D02*
X6036753Y-11382936D01*
X6036753Y-11382936D02*
X6036753Y-11401984D01*
X6122467Y-11221031D02*
X6131991Y-11211508D01*
X6131991Y-11211508D02*
X6151039Y-11201984D01*
X6151039Y-11201984D02*
X6198658Y-11201984D01*
X6198658Y-11201984D02*
X6217705Y-11211508D01*
X6217705Y-11211508D02*
X6227229Y-11221031D01*
X6227229Y-11221031D02*
X6236753Y-11240079D01*
X6236753Y-11240079D02*
X6236753Y-11259127D01*
X6236753Y-11259127D02*
X6227229Y-11287698D01*
X6227229Y-11287698D02*
X6112943Y-11401984D01*
X6112943Y-11401984D02*
X6236753Y-11401984D01*
X6360562Y-11201984D02*
X6379610Y-11201984D01*
X6379610Y-11201984D02*
X6398658Y-11211508D01*
X6398658Y-11211508D02*
X6408182Y-11221031D01*
X6408182Y-11221031D02*
X6417705Y-11240079D01*
X6417705Y-11240079D02*
X6427229Y-11278174D01*
X6427229Y-11278174D02*
X6427229Y-11325793D01*
X6427229Y-11325793D02*
X6417705Y-11363888D01*
X6417705Y-11363888D02*
X6408182Y-11382936D01*
X6408182Y-11382936D02*
X6398658Y-11392460D01*
X6398658Y-11392460D02*
X6379610Y-11401984D01*
X6379610Y-11401984D02*
X6360562Y-11401984D01*
X6360562Y-11401984D02*
X6341515Y-11392460D01*
X6341515Y-11392460D02*
X6331991Y-11382936D01*
X6331991Y-11382936D02*
X6322467Y-11363888D01*
X6322467Y-11363888D02*
X6312943Y-11325793D01*
X6312943Y-11325793D02*
X6312943Y-11278174D01*
X6312943Y-11278174D02*
X6322467Y-11240079D01*
X6322467Y-11240079D02*
X6331991Y-11221031D01*
X6331991Y-11221031D02*
X6341515Y-11211508D01*
X6341515Y-11211508D02*
X6360562Y-11201984D01*
X6551039Y-11201984D02*
X6570086Y-11201984D01*
X6570086Y-11201984D02*
X6589134Y-11211508D01*
X6589134Y-11211508D02*
X6598658Y-11221031D01*
X6598658Y-11221031D02*
X6608182Y-11240079D01*
X6608182Y-11240079D02*
X6617705Y-11278174D01*
X6617705Y-11278174D02*
X6617705Y-11325793D01*
X6617705Y-11325793D02*
X6608182Y-11363888D01*
X6608182Y-11363888D02*
X6598658Y-11382936D01*
X6598658Y-11382936D02*
X6589134Y-11392460D01*
X6589134Y-11392460D02*
X6570086Y-11401984D01*
X6570086Y-11401984D02*
X6551039Y-11401984D01*
X6551039Y-11401984D02*
X6531991Y-11392460D01*
X6531991Y-11392460D02*
X6522467Y-11382936D01*
X6522467Y-11382936D02*
X6512943Y-11363888D01*
X6512943Y-11363888D02*
X6503420Y-11325793D01*
X6503420Y-11325793D02*
X6503420Y-11278174D01*
X6503420Y-11278174D02*
X6512943Y-11240079D01*
X6512943Y-11240079D02*
X6522467Y-11221031D01*
X6522467Y-11221031D02*
X6531991Y-11211508D01*
X6531991Y-11211508D02*
X6551039Y-11201984D01*
X6703420Y-11401984D02*
X6703420Y-11268650D01*
X6703420Y-11287698D02*
X6712943Y-11278174D01*
X6712943Y-11278174D02*
X6731991Y-11268650D01*
X6731991Y-11268650D02*
X6760563Y-11268650D01*
X6760563Y-11268650D02*
X6779610Y-11278174D01*
X6779610Y-11278174D02*
X6789134Y-11297222D01*
X6789134Y-11297222D02*
X6789134Y-11401984D01*
X6789134Y-11297222D02*
X6798658Y-11278174D01*
X6798658Y-11278174D02*
X6817705Y-11268650D01*
X6817705Y-11268650D02*
X6846277Y-11268650D01*
X6846277Y-11268650D02*
X6865324Y-11278174D01*
X6865324Y-11278174D02*
X6874848Y-11297222D01*
X6874848Y-11297222D02*
X6874848Y-11401984D01*
X6970086Y-11401984D02*
X6970086Y-11268650D01*
X6970086Y-11287698D02*
X6979610Y-11278174D01*
X6979610Y-11278174D02*
X6998658Y-11268650D01*
X6998658Y-11268650D02*
X7027229Y-11268650D01*
X7027229Y-11268650D02*
X7046277Y-11278174D01*
X7046277Y-11278174D02*
X7055801Y-11297222D01*
X7055801Y-11297222D02*
X7055801Y-11401984D01*
X7055801Y-11297222D02*
X7065324Y-11278174D01*
X7065324Y-11278174D02*
X7084372Y-11268650D01*
X7084372Y-11268650D02*
X7112943Y-11268650D01*
X7112943Y-11268650D02*
X7131991Y-11278174D01*
X7131991Y-11278174D02*
X7141515Y-11297222D01*
X7141515Y-11297222D02*
X7141515Y-11401984D01*
X7531991Y-11192460D02*
X7360563Y-11449603D01*
X7789134Y-11201984D02*
X7808182Y-11201984D01*
X7808182Y-11201984D02*
X7827229Y-11211508D01*
X7827229Y-11211508D02*
X7836753Y-11221031D01*
X7836753Y-11221031D02*
X7846277Y-11240079D01*
X7846277Y-11240079D02*
X7855801Y-11278174D01*
X7855801Y-11278174D02*
X7855801Y-11325793D01*
X7855801Y-11325793D02*
X7846277Y-11363888D01*
X7846277Y-11363888D02*
X7836753Y-11382936D01*
X7836753Y-11382936D02*
X7827229Y-11392460D01*
X7827229Y-11392460D02*
X7808182Y-11401984D01*
X7808182Y-11401984D02*
X7789134Y-11401984D01*
X7789134Y-11401984D02*
X7770086Y-11392460D01*
X7770086Y-11392460D02*
X7760563Y-11382936D01*
X7760563Y-11382936D02*
X7751039Y-11363888D01*
X7751039Y-11363888D02*
X7741515Y-11325793D01*
X7741515Y-11325793D02*
X7741515Y-11278174D01*
X7741515Y-11278174D02*
X7751039Y-11240079D01*
X7751039Y-11240079D02*
X7760563Y-11221031D01*
X7760563Y-11221031D02*
X7770086Y-11211508D01*
X7770086Y-11211508D02*
X7789134Y-11201984D01*
X7941515Y-11382936D02*
X7951039Y-11392460D01*
X7951039Y-11392460D02*
X7941515Y-11401984D01*
X7941515Y-11401984D02*
X7931991Y-11392460D01*
X7931991Y-11392460D02*
X7941515Y-11382936D01*
X7941515Y-11382936D02*
X7941515Y-11401984D01*
X8141515Y-11401984D02*
X8027229Y-11401984D01*
X8084372Y-11401984D02*
X8084372Y-11201984D01*
X8084372Y-11201984D02*
X8065325Y-11230555D01*
X8065325Y-11230555D02*
X8046277Y-11249603D01*
X8046277Y-11249603D02*
X8027229Y-11259127D01*
X8217706Y-11221031D02*
X8227229Y-11211508D01*
X8227229Y-11211508D02*
X8246277Y-11201984D01*
X8246277Y-11201984D02*
X8293896Y-11201984D01*
X8293896Y-11201984D02*
X8312944Y-11211508D01*
X8312944Y-11211508D02*
X8322467Y-11221031D01*
X8322467Y-11221031D02*
X8331991Y-11240079D01*
X8331991Y-11240079D02*
X8331991Y-11259127D01*
X8331991Y-11259127D02*
X8322467Y-11287698D01*
X8322467Y-11287698D02*
X8208182Y-11401984D01*
X8208182Y-11401984D02*
X8331991Y-11401984D01*
X8503420Y-11201984D02*
X8465325Y-11201984D01*
X8465325Y-11201984D02*
X8446277Y-11211508D01*
X8446277Y-11211508D02*
X8436753Y-11221031D01*
X8436753Y-11221031D02*
X8417706Y-11249603D01*
X8417706Y-11249603D02*
X8408182Y-11287698D01*
X8408182Y-11287698D02*
X8408182Y-11363888D01*
X8408182Y-11363888D02*
X8417706Y-11382936D01*
X8417706Y-11382936D02*
X8427229Y-11392460D01*
X8427229Y-11392460D02*
X8446277Y-11401984D01*
X8446277Y-11401984D02*
X8484372Y-11401984D01*
X8484372Y-11401984D02*
X8503420Y-11392460D01*
X8503420Y-11392460D02*
X8512944Y-11382936D01*
X8512944Y-11382936D02*
X8522468Y-11363888D01*
X8522468Y-11363888D02*
X8522468Y-11316269D01*
X8522468Y-11316269D02*
X8512944Y-11297222D01*
X8512944Y-11297222D02*
X8503420Y-11287698D01*
X8503420Y-11287698D02*
X8484372Y-11278174D01*
X8484372Y-11278174D02*
X8446277Y-11278174D01*
X8446277Y-11278174D02*
X8427229Y-11287698D01*
X8427229Y-11287698D02*
X8417706Y-11297222D01*
X8417706Y-11297222D02*
X8408182Y-11316269D01*
X8646277Y-11201984D02*
X8665325Y-11201984D01*
X8665325Y-11201984D02*
X8684372Y-11211508D01*
X8684372Y-11211508D02*
X8693896Y-11221031D01*
X8693896Y-11221031D02*
X8703420Y-11240079D01*
X8703420Y-11240079D02*
X8712944Y-11278174D01*
X8712944Y-11278174D02*
X8712944Y-11325793D01*
X8712944Y-11325793D02*
X8703420Y-11363888D01*
X8703420Y-11363888D02*
X8693896Y-11382936D01*
X8693896Y-11382936D02*
X8684372Y-11392460D01*
X8684372Y-11392460D02*
X8665325Y-11401984D01*
X8665325Y-11401984D02*
X8646277Y-11401984D01*
X8646277Y-11401984D02*
X8627229Y-11392460D01*
X8627229Y-11392460D02*
X8617706Y-11382936D01*
X8617706Y-11382936D02*
X8608182Y-11363888D01*
X8608182Y-11363888D02*
X8598658Y-11325793D01*
X8598658Y-11325793D02*
X8598658Y-11278174D01*
X8598658Y-11278174D02*
X8608182Y-11240079D01*
X8608182Y-11240079D02*
X8617706Y-11221031D01*
X8617706Y-11221031D02*
X8627229Y-11211508D01*
X8627229Y-11211508D02*
X8646277Y-11201984D01*
X8789134Y-11201984D02*
X8789134Y-11240079D01*
X8865325Y-11201984D02*
X8865325Y-11240079D01*
X9160563Y-11478174D02*
X9151039Y-11468650D01*
X9151039Y-11468650D02*
X9131991Y-11440079D01*
X9131991Y-11440079D02*
X9122468Y-11421031D01*
X9122468Y-11421031D02*
X9112944Y-11392460D01*
X9112944Y-11392460D02*
X9103420Y-11344841D01*
X9103420Y-11344841D02*
X9103420Y-11306746D01*
X9103420Y-11306746D02*
X9112944Y-11259127D01*
X9112944Y-11259127D02*
X9122468Y-11230555D01*
X9122468Y-11230555D02*
X9131991Y-11211508D01*
X9131991Y-11211508D02*
X9151039Y-11182936D01*
X9151039Y-11182936D02*
X9160563Y-11173412D01*
X9322468Y-11268650D02*
X9322468Y-11401984D01*
X9274849Y-11192460D02*
X9227230Y-11335317D01*
X9227230Y-11335317D02*
X9351039Y-11335317D01*
X9579611Y-11401984D02*
X9579611Y-11201984D01*
X9665325Y-11401984D02*
X9665325Y-11297222D01*
X9665325Y-11297222D02*
X9655801Y-11278174D01*
X9655801Y-11278174D02*
X9636753Y-11268650D01*
X9636753Y-11268650D02*
X9608182Y-11268650D01*
X9608182Y-11268650D02*
X9589134Y-11278174D01*
X9589134Y-11278174D02*
X9579611Y-11287698D01*
X9789134Y-11401984D02*
X9770087Y-11392460D01*
X9770087Y-11392460D02*
X9760563Y-11382936D01*
X9760563Y-11382936D02*
X9751039Y-11363888D01*
X9751039Y-11363888D02*
X9751039Y-11306746D01*
X9751039Y-11306746D02*
X9760563Y-11287698D01*
X9760563Y-11287698D02*
X9770087Y-11278174D01*
X9770087Y-11278174D02*
X9789134Y-11268650D01*
X9789134Y-11268650D02*
X9817706Y-11268650D01*
X9817706Y-11268650D02*
X9836753Y-11278174D01*
X9836753Y-11278174D02*
X9846277Y-11287698D01*
X9846277Y-11287698D02*
X9855801Y-11306746D01*
X9855801Y-11306746D02*
X9855801Y-11363888D01*
X9855801Y-11363888D02*
X9846277Y-11382936D01*
X9846277Y-11382936D02*
X9836753Y-11392460D01*
X9836753Y-11392460D02*
X9817706Y-11401984D01*
X9817706Y-11401984D02*
X9789134Y-11401984D01*
X9970087Y-11401984D02*
X9951039Y-11392460D01*
X9951039Y-11392460D02*
X9941515Y-11373412D01*
X9941515Y-11373412D02*
X9941515Y-11201984D01*
X10122468Y-11392460D02*
X10103420Y-11401984D01*
X10103420Y-11401984D02*
X10065325Y-11401984D01*
X10065325Y-11401984D02*
X10046277Y-11392460D01*
X10046277Y-11392460D02*
X10036753Y-11373412D01*
X10036753Y-11373412D02*
X10036753Y-11297222D01*
X10036753Y-11297222D02*
X10046277Y-11278174D01*
X10046277Y-11278174D02*
X10065325Y-11268650D01*
X10065325Y-11268650D02*
X10103420Y-11268650D01*
X10103420Y-11268650D02*
X10122468Y-11278174D01*
X10122468Y-11278174D02*
X10131992Y-11297222D01*
X10131992Y-11297222D02*
X10131992Y-11316269D01*
X10131992Y-11316269D02*
X10036753Y-11335317D01*
X10208182Y-11392460D02*
X10227230Y-11401984D01*
X10227230Y-11401984D02*
X10265325Y-11401984D01*
X10265325Y-11401984D02*
X10284373Y-11392460D01*
X10284373Y-11392460D02*
X10293896Y-11373412D01*
X10293896Y-11373412D02*
X10293896Y-11363888D01*
X10293896Y-11363888D02*
X10284373Y-11344841D01*
X10284373Y-11344841D02*
X10265325Y-11335317D01*
X10265325Y-11335317D02*
X10236753Y-11335317D01*
X10236753Y-11335317D02*
X10217706Y-11325793D01*
X10217706Y-11325793D02*
X10208182Y-11306746D01*
X10208182Y-11306746D02*
X10208182Y-11297222D01*
X10208182Y-11297222D02*
X10217706Y-11278174D01*
X10217706Y-11278174D02*
X10236753Y-11268650D01*
X10236753Y-11268650D02*
X10265325Y-11268650D01*
X10265325Y-11268650D02*
X10284373Y-11278174D01*
X10360563Y-11478174D02*
X10370087Y-11468650D01*
X10370087Y-11468650D02*
X10389134Y-11440079D01*
X10389134Y-11440079D02*
X10398658Y-11421031D01*
X10398658Y-11421031D02*
X10408182Y-11392460D01*
X10408182Y-11392460D02*
X10417706Y-11344841D01*
X10417706Y-11344841D02*
X10417706Y-11306746D01*
X10417706Y-11306746D02*
X10408182Y-11259127D01*
X10408182Y-11259127D02*
X10398658Y-11230555D01*
X10398658Y-11230555D02*
X10389134Y-11211508D01*
X10389134Y-11211508D02*
X10370087Y-11182936D01*
X10370087Y-11182936D02*
X10360563Y-11173412D01*
X10722468Y-11478174D02*
X10712944Y-11468650D01*
X10712944Y-11468650D02*
X10693896Y-11440079D01*
X10693896Y-11440079D02*
X10684373Y-11421031D01*
X10684373Y-11421031D02*
X10674849Y-11392460D01*
X10674849Y-11392460D02*
X10665325Y-11344841D01*
X10665325Y-11344841D02*
X10665325Y-11306746D01*
X10665325Y-11306746D02*
X10674849Y-11259127D01*
X10674849Y-11259127D02*
X10684373Y-11230555D01*
X10684373Y-11230555D02*
X10693896Y-11211508D01*
X10693896Y-11211508D02*
X10712944Y-11182936D01*
X10712944Y-11182936D02*
X10722468Y-11173412D01*
X10798658Y-11268650D02*
X10798658Y-11401984D01*
X10798658Y-11287698D02*
X10808182Y-11278174D01*
X10808182Y-11278174D02*
X10827230Y-11268650D01*
X10827230Y-11268650D02*
X10855801Y-11268650D01*
X10855801Y-11268650D02*
X10874849Y-11278174D01*
X10874849Y-11278174D02*
X10884373Y-11297222D01*
X10884373Y-11297222D02*
X10884373Y-11401984D01*
X11008182Y-11401984D02*
X10989134Y-11392460D01*
X10989134Y-11392460D02*
X10979611Y-11382936D01*
X10979611Y-11382936D02*
X10970087Y-11363888D01*
X10970087Y-11363888D02*
X10970087Y-11306746D01*
X10970087Y-11306746D02*
X10979611Y-11287698D01*
X10979611Y-11287698D02*
X10989134Y-11278174D01*
X10989134Y-11278174D02*
X11008182Y-11268650D01*
X11008182Y-11268650D02*
X11036754Y-11268650D01*
X11036754Y-11268650D02*
X11055801Y-11278174D01*
X11055801Y-11278174D02*
X11065325Y-11287698D01*
X11065325Y-11287698D02*
X11074849Y-11306746D01*
X11074849Y-11306746D02*
X11074849Y-11363888D01*
X11074849Y-11363888D02*
X11065325Y-11382936D01*
X11065325Y-11382936D02*
X11055801Y-11392460D01*
X11055801Y-11392460D02*
X11036754Y-11401984D01*
X11036754Y-11401984D02*
X11008182Y-11401984D01*
X11131992Y-11268650D02*
X11208182Y-11268650D01*
X11160563Y-11201984D02*
X11160563Y-11373412D01*
X11160563Y-11373412D02*
X11170087Y-11392460D01*
X11170087Y-11392460D02*
X11189134Y-11401984D01*
X11189134Y-11401984D02*
X11208182Y-11401984D01*
X11427230Y-11268650D02*
X11427230Y-11468650D01*
X11427230Y-11278174D02*
X11446277Y-11268650D01*
X11446277Y-11268650D02*
X11484373Y-11268650D01*
X11484373Y-11268650D02*
X11503420Y-11278174D01*
X11503420Y-11278174D02*
X11512944Y-11287698D01*
X11512944Y-11287698D02*
X11522468Y-11306746D01*
X11522468Y-11306746D02*
X11522468Y-11363888D01*
X11522468Y-11363888D02*
X11512944Y-11382936D01*
X11512944Y-11382936D02*
X11503420Y-11392460D01*
X11503420Y-11392460D02*
X11484373Y-11401984D01*
X11484373Y-11401984D02*
X11446277Y-11401984D01*
X11446277Y-11401984D02*
X11427230Y-11392460D01*
X11636753Y-11401984D02*
X11617706Y-11392460D01*
X11617706Y-11392460D02*
X11608182Y-11373412D01*
X11608182Y-11373412D02*
X11608182Y-11201984D01*
X11798658Y-11401984D02*
X11798658Y-11297222D01*
X11798658Y-11297222D02*
X11789134Y-11278174D01*
X11789134Y-11278174D02*
X11770087Y-11268650D01*
X11770087Y-11268650D02*
X11731992Y-11268650D01*
X11731992Y-11268650D02*
X11712944Y-11278174D01*
X11798658Y-11392460D02*
X11779611Y-11401984D01*
X11779611Y-11401984D02*
X11731992Y-11401984D01*
X11731992Y-11401984D02*
X11712944Y-11392460D01*
X11712944Y-11392460D02*
X11703420Y-11373412D01*
X11703420Y-11373412D02*
X11703420Y-11354365D01*
X11703420Y-11354365D02*
X11712944Y-11335317D01*
X11712944Y-11335317D02*
X11731992Y-11325793D01*
X11731992Y-11325793D02*
X11779611Y-11325793D01*
X11779611Y-11325793D02*
X11798658Y-11316269D01*
X11865325Y-11268650D02*
X11941515Y-11268650D01*
X11893896Y-11201984D02*
X11893896Y-11373412D01*
X11893896Y-11373412D02*
X11903420Y-11392460D01*
X11903420Y-11392460D02*
X11922468Y-11401984D01*
X11922468Y-11401984D02*
X11941515Y-11401984D01*
X12084373Y-11392460D02*
X12065325Y-11401984D01*
X12065325Y-11401984D02*
X12027230Y-11401984D01*
X12027230Y-11401984D02*
X12008182Y-11392460D01*
X12008182Y-11392460D02*
X11998658Y-11373412D01*
X11998658Y-11373412D02*
X11998658Y-11297222D01*
X11998658Y-11297222D02*
X12008182Y-11278174D01*
X12008182Y-11278174D02*
X12027230Y-11268650D01*
X12027230Y-11268650D02*
X12065325Y-11268650D01*
X12065325Y-11268650D02*
X12084373Y-11278174D01*
X12084373Y-11278174D02*
X12093896Y-11297222D01*
X12093896Y-11297222D02*
X12093896Y-11316269D01*
X12093896Y-11316269D02*
X11998658Y-11335317D01*
X12265325Y-11401984D02*
X12265325Y-11201984D01*
X12265325Y-11392460D02*
X12246277Y-11401984D01*
X12246277Y-11401984D02*
X12208182Y-11401984D01*
X12208182Y-11401984D02*
X12189134Y-11392460D01*
X12189134Y-11392460D02*
X12179611Y-11382936D01*
X12179611Y-11382936D02*
X12170087Y-11363888D01*
X12170087Y-11363888D02*
X12170087Y-11306746D01*
X12170087Y-11306746D02*
X12179611Y-11287698D01*
X12179611Y-11287698D02*
X12189134Y-11278174D01*
X12189134Y-11278174D02*
X12208182Y-11268650D01*
X12208182Y-11268650D02*
X12246277Y-11268650D01*
X12246277Y-11268650D02*
X12265325Y-11278174D01*
X12341515Y-11478174D02*
X12351039Y-11468650D01*
X12351039Y-11468650D02*
X12370087Y-11440079D01*
X12370087Y-11440079D02*
X12379611Y-11421031D01*
X12379611Y-11421031D02*
X12389134Y-11392460D01*
X12389134Y-11392460D02*
X12398658Y-11344841D01*
X12398658Y-11344841D02*
X12398658Y-11306746D01*
X12398658Y-11306746D02*
X12389134Y-11259127D01*
X12389134Y-11259127D02*
X12379611Y-11230555D01*
X12379611Y-11230555D02*
X12370087Y-11211508D01*
X12370087Y-11211508D02*
X12351039Y-11182936D01*
X12351039Y-11182936D02*
X12341515Y-11173412D01*
M02*
