%TF.GenerationSoftware,KiCad,Pcbnew,10.0.5*%
%TF.CreationDate,2026-09-14T16:50:40+01:00*%
%TF.ProjectId,gk-controls,676b2d63-6f6e-4747-926f-6c732e6b6963,rev?*%
%TF.SameCoordinates,Original*%
%TF.FileFunction,Paste,Bot*%
%TF.FilePolarity,Positive*%
%FSLAX46Y46*%
G04 Gerber Fmt 4.6, Leading zero omitted, Abs format (unit mm)*
G04 Created by KiCad (PCBNEW 10.0.5) date 2026-09-14 16:50:40*
%MOMM*%
%LPD*%
G01*
G04 APERTURE LIST*
G04 Aperture macros list*
%AMRoundRect*
0 Rectangle with rounded corners*
0 $1 Rounding radius*
0 $2 $3 $4 $5 $6 $7 $8 $9 X,Y pos of 4 corners*
0 Add a 4 corners polygon primitive as box body*
4,1,4,$2,$3,$4,$5,$6,$7,$8,$9,$2,$3,0*
0 Add four circle primitives for the rounded corners*
1,1,$1+$1,$2,$3*
1,1,$1+$1,$4,$5*
1,1,$1+$1,$6,$7*
1,1,$1+$1,$8,$9*
0 Add four rect primitives between the rounded corners*
20,1,$1+$1,$2,$3,$4,$5,0*
20,1,$1+$1,$4,$5,$6,$7,0*
20,1,$1+$1,$6,$7,$8,$9,0*
20,1,$1+$1,$8,$9,$2,$3,0*%
G04 Aperture macros list end*
%ADD10RoundRect,0.200000X-0.200000X-0.275000X0.200000X-0.275000X0.200000X0.275000X-0.200000X0.275000X0*%
%ADD11RoundRect,0.200000X0.200000X0.275000X-0.200000X0.275000X-0.200000X-0.275000X0.200000X-0.275000X0*%
%ADD12RoundRect,0.200000X-0.275000X0.200000X-0.275000X-0.200000X0.275000X-0.200000X0.275000X0.200000X0*%
%ADD13R,0.740000X2.400000*%
%ADD14RoundRect,0.225000X-0.225000X-0.250000X0.225000X-0.250000X0.225000X0.250000X-0.225000X0.250000X0*%
%ADD15RoundRect,0.250000X-0.475000X0.250000X-0.475000X-0.250000X0.475000X-0.250000X0.475000X0.250000X0*%
%ADD16RoundRect,0.250000X-0.250000X-0.475000X0.250000X-0.475000X0.250000X0.475000X-0.250000X0.475000X0*%
%ADD17R,5.100000X5.100000*%
%ADD18R,0.300000X1.100000*%
%ADD19R,2.300000X3.100000*%
G04 APERTURE END LIST*
D10*
%TO.C,R21*%
X116110000Y-105085000D03*
X117760000Y-105085000D03*
%TD*%
D11*
%TO.C,R27*%
X127920000Y-103180000D03*
X126270000Y-103180000D03*
%TD*%
%TO.C,R25*%
X117760000Y-103180000D03*
X116110000Y-103180000D03*
%TD*%
%TO.C,R28*%
X133000000Y-103053000D03*
X131350000Y-103053000D03*
%TD*%
D12*
%TO.C,R53*%
X151638000Y-102807000D03*
X151638000Y-104457000D03*
%TD*%
D13*
%TO.C,J1*%
X144285000Y-123526000D03*
X144285000Y-127426000D03*
X145555000Y-123526000D03*
X145555000Y-127426000D03*
X146825000Y-123526000D03*
X146825000Y-127426000D03*
X148095000Y-123526000D03*
X148095000Y-127426000D03*
X149365000Y-123526000D03*
X149365000Y-127426000D03*
X150635000Y-123526000D03*
X150635000Y-127426000D03*
X151905000Y-123526000D03*
X151905000Y-127426000D03*
X153175000Y-123526000D03*
X153175000Y-127426000D03*
X154445000Y-123526000D03*
X154445000Y-127426000D03*
X155715000Y-123526000D03*
X155715000Y-127426000D03*
%TD*%
D10*
%TO.C,R22*%
X121190000Y-105085000D03*
X122840000Y-105085000D03*
%TD*%
D14*
%TO.C,C12*%
X165690000Y-96195000D03*
X167240000Y-96195000D03*
%TD*%
D10*
%TO.C,R24*%
X131350000Y-104958000D03*
X133000000Y-104958000D03*
%TD*%
D14*
%TO.C,C15*%
X180930000Y-96195000D03*
X182480000Y-96195000D03*
%TD*%
D11*
%TO.C,R19*%
X177450000Y-98100000D03*
X175800000Y-98100000D03*
%TD*%
D10*
%TO.C,R13*%
X165640000Y-100005000D03*
X167290000Y-100005000D03*
%TD*%
D11*
%TO.C,R18*%
X172275000Y-92710000D03*
X170625000Y-92710000D03*
%TD*%
D14*
%TO.C,C22*%
X127495000Y-63576200D03*
X129045000Y-63576200D03*
%TD*%
D11*
%TO.C,R34*%
X129095000Y-65481200D03*
X127445000Y-65481200D03*
%TD*%
D10*
%TO.C,R23*%
X126270000Y-105085000D03*
X127920000Y-105085000D03*
%TD*%
D12*
%TO.C,R51*%
X146304000Y-102807000D03*
X146304000Y-104457000D03*
%TD*%
D14*
%TO.C,C17*%
X121240000Y-101275000D03*
X122790000Y-101275000D03*
%TD*%
D10*
%TO.C,R10*%
X158782000Y-79431000D03*
X160432000Y-79431000D03*
%TD*%
D15*
%TO.C,C2*%
X136144000Y-122748000D03*
X136144000Y-124648000D03*
%TD*%
%TO.C,C1*%
X139954000Y-125034000D03*
X139954000Y-126934000D03*
%TD*%
D11*
%TO.C,R26*%
X122840000Y-103180000D03*
X121190000Y-103180000D03*
%TD*%
D14*
%TO.C,C19*%
X131400000Y-101148000D03*
X132950000Y-101148000D03*
%TD*%
%TO.C,C14*%
X175850000Y-96195000D03*
X177400000Y-96195000D03*
%TD*%
D11*
%TO.C,R6*%
X148875000Y-84765000D03*
X147225000Y-84765000D03*
%TD*%
D12*
%TO.C,R50*%
X148082000Y-102807000D03*
X148082000Y-104457000D03*
%TD*%
D16*
%TO.C,C3*%
X148402000Y-117094000D03*
X150302000Y-117094000D03*
%TD*%
D12*
%TO.C,R52*%
X149860000Y-102807000D03*
X149860000Y-104457000D03*
%TD*%
D11*
%TO.C,R7*%
X141382000Y-77272000D03*
X139732000Y-77272000D03*
%TD*%
D14*
%TO.C,C16*%
X116160000Y-101275000D03*
X117710000Y-101275000D03*
%TD*%
D11*
%TO.C,R17*%
X167290000Y-98100000D03*
X165640000Y-98100000D03*
%TD*%
D10*
%TO.C,R16*%
X180880000Y-100005000D03*
X182530000Y-100005000D03*
%TD*%
D17*
%TO.C,BT1*%
X100198756Y-91370000D03*
X100198756Y-116970000D03*
%TD*%
D10*
%TO.C,R15*%
X175800000Y-100005000D03*
X177450000Y-100005000D03*
%TD*%
D14*
%TO.C,C13*%
X170675000Y-90805000D03*
X172225000Y-90805000D03*
%TD*%
D11*
%TO.C,R20*%
X182530000Y-98100000D03*
X180880000Y-98100000D03*
%TD*%
D10*
%TO.C,R31*%
X127445000Y-67386200D03*
X129095000Y-67386200D03*
%TD*%
D11*
%TO.C,R9*%
X152685000Y-84765000D03*
X151035000Y-84765000D03*
%TD*%
D14*
%TO.C,C18*%
X126320000Y-101275000D03*
X127870000Y-101275000D03*
%TD*%
D10*
%TO.C,R12*%
X158782000Y-77526000D03*
X160432000Y-77526000D03*
%TD*%
D18*
%TO.C,J11*%
X108750000Y-84154000D03*
X109250000Y-84154000D03*
X109750000Y-84154000D03*
X110250000Y-84154000D03*
X110750000Y-84154000D03*
X111250000Y-84154000D03*
D19*
X107080000Y-82454000D03*
X112920000Y-82454000D03*
%TD*%
D11*
%TO.C,R8*%
X141382000Y-79177000D03*
X139732000Y-79177000D03*
%TD*%
D10*
%TO.C,R14*%
X170625000Y-94615000D03*
X172275000Y-94615000D03*
%TD*%
M02*
