%TF.GenerationSoftware,KiCad,Pcbnew,9.0.5*%
%TF.CreationDate,2026-02-23T17:17:35+00:00*%
%TF.ProjectId,gk-controls,676b2d63-6f6e-4747-926f-6c732e6b6963,rev?*%
%TF.SameCoordinates,Original*%
%TF.FileFunction,Legend,Bot*%
%TF.FilePolarity,Positive*%
%FSLAX46Y46*%
G04 Gerber Fmt 4.6, Leading zero omitted, Abs format (unit mm)*
G04 Created by KiCad (PCBNEW 9.0.5) date 2026-02-23 17:17:35*
%MOMM*%
%LPD*%
G01*
G04 APERTURE LIST*
G04 Aperture macros list*
%AMRoundRect*
0 Rectangle with rounded corners*
0 $1 Rounding radius*
0 $2 $3 $4 $5 $6 $7 $8 $9 X,Y pos of 4 corners*
0 Add a 4 corners polygon primitive as box body*
4,1,4,$2,$3,$4,$5,$6,$7,$8,$9,$2,$3,0*
0 Add four circle primitives for the rounded corners*
1,1,$1+$1,$2,$3*
1,1,$1+$1,$4,$5*
1,1,$1+$1,$6,$7*
1,1,$1+$1,$8,$9*
0 Add four rect primitives between the rounded corners*
20,1,$1+$1,$2,$3,$4,$5,0*
20,1,$1+$1,$4,$5,$6,$7,0*
20,1,$1+$1,$6,$7,$8,$9,0*
20,1,$1+$1,$8,$9,$2,$3,0*%
G04 Aperture macros list end*
%ADD10C,0.150000*%
%ADD11C,0.120000*%
%ADD12C,1.800000*%
%ADD13O,5.000000X2.400000*%
%ADD14O,1.800000X2.300000*%
%ADD15R,1.700000X1.700000*%
%ADD16C,3.200000*%
%ADD17O,2.400000X5.000000*%
%ADD18O,2.300000X1.800000*%
%ADD19RoundRect,0.200000X-0.200000X-0.275000X0.200000X-0.275000X0.200000X0.275000X-0.200000X0.275000X0*%
%ADD20RoundRect,0.200000X0.200000X0.275000X-0.200000X0.275000X-0.200000X-0.275000X0.200000X-0.275000X0*%
%ADD21R,0.740000X2.400000*%
%ADD22RoundRect,0.225000X-0.225000X-0.250000X0.225000X-0.250000X0.225000X0.250000X-0.225000X0.250000X0*%
%ADD23RoundRect,0.250000X-0.475000X0.250000X-0.475000X-0.250000X0.475000X-0.250000X0.475000X0.250000X0*%
%ADD24R,5.100000X5.100000*%
%ADD25C,17.800000*%
G04 APERTURE END LIST*
D10*
X113767857Y-105539819D02*
X114101190Y-105063628D01*
X114339285Y-105539819D02*
X114339285Y-104539819D01*
X114339285Y-104539819D02*
X113958333Y-104539819D01*
X113958333Y-104539819D02*
X113863095Y-104587438D01*
X113863095Y-104587438D02*
X113815476Y-104635057D01*
X113815476Y-104635057D02*
X113767857Y-104730295D01*
X113767857Y-104730295D02*
X113767857Y-104873152D01*
X113767857Y-104873152D02*
X113815476Y-104968390D01*
X113815476Y-104968390D02*
X113863095Y-105016009D01*
X113863095Y-105016009D02*
X113958333Y-105063628D01*
X113958333Y-105063628D02*
X114339285Y-105063628D01*
X113386904Y-104635057D02*
X113339285Y-104587438D01*
X113339285Y-104587438D02*
X113244047Y-104539819D01*
X113244047Y-104539819D02*
X113005952Y-104539819D01*
X113005952Y-104539819D02*
X112910714Y-104587438D01*
X112910714Y-104587438D02*
X112863095Y-104635057D01*
X112863095Y-104635057D02*
X112815476Y-104730295D01*
X112815476Y-104730295D02*
X112815476Y-104825533D01*
X112815476Y-104825533D02*
X112863095Y-104968390D01*
X112863095Y-104968390D02*
X113434523Y-105539819D01*
X113434523Y-105539819D02*
X112815476Y-105539819D01*
X111863095Y-105539819D02*
X112434523Y-105539819D01*
X112148809Y-105539819D02*
X112148809Y-104539819D01*
X112148809Y-104539819D02*
X112244047Y-104682676D01*
X112244047Y-104682676D02*
X112339285Y-104777914D01*
X112339285Y-104777914D02*
X112434523Y-104825533D01*
X125009819Y-102537142D02*
X124533628Y-102203809D01*
X125009819Y-101965714D02*
X124009819Y-101965714D01*
X124009819Y-101965714D02*
X124009819Y-102346666D01*
X124009819Y-102346666D02*
X124057438Y-102441904D01*
X124057438Y-102441904D02*
X124105057Y-102489523D01*
X124105057Y-102489523D02*
X124200295Y-102537142D01*
X124200295Y-102537142D02*
X124343152Y-102537142D01*
X124343152Y-102537142D02*
X124438390Y-102489523D01*
X124438390Y-102489523D02*
X124486009Y-102441904D01*
X124486009Y-102441904D02*
X124533628Y-102346666D01*
X124533628Y-102346666D02*
X124533628Y-101965714D01*
X124105057Y-102918095D02*
X124057438Y-102965714D01*
X124057438Y-102965714D02*
X124009819Y-103060952D01*
X124009819Y-103060952D02*
X124009819Y-103299047D01*
X124009819Y-103299047D02*
X124057438Y-103394285D01*
X124057438Y-103394285D02*
X124105057Y-103441904D01*
X124105057Y-103441904D02*
X124200295Y-103489523D01*
X124200295Y-103489523D02*
X124295533Y-103489523D01*
X124295533Y-103489523D02*
X124438390Y-103441904D01*
X124438390Y-103441904D02*
X125009819Y-102870476D01*
X125009819Y-102870476D02*
X125009819Y-103489523D01*
X124009819Y-103822857D02*
X124009819Y-104489523D01*
X124009819Y-104489523D02*
X125009819Y-104060952D01*
X113767857Y-103634819D02*
X114101190Y-103158628D01*
X114339285Y-103634819D02*
X114339285Y-102634819D01*
X114339285Y-102634819D02*
X113958333Y-102634819D01*
X113958333Y-102634819D02*
X113863095Y-102682438D01*
X113863095Y-102682438D02*
X113815476Y-102730057D01*
X113815476Y-102730057D02*
X113767857Y-102825295D01*
X113767857Y-102825295D02*
X113767857Y-102968152D01*
X113767857Y-102968152D02*
X113815476Y-103063390D01*
X113815476Y-103063390D02*
X113863095Y-103111009D01*
X113863095Y-103111009D02*
X113958333Y-103158628D01*
X113958333Y-103158628D02*
X114339285Y-103158628D01*
X113386904Y-102730057D02*
X113339285Y-102682438D01*
X113339285Y-102682438D02*
X113244047Y-102634819D01*
X113244047Y-102634819D02*
X113005952Y-102634819D01*
X113005952Y-102634819D02*
X112910714Y-102682438D01*
X112910714Y-102682438D02*
X112863095Y-102730057D01*
X112863095Y-102730057D02*
X112815476Y-102825295D01*
X112815476Y-102825295D02*
X112815476Y-102920533D01*
X112815476Y-102920533D02*
X112863095Y-103063390D01*
X112863095Y-103063390D02*
X113434523Y-103634819D01*
X113434523Y-103634819D02*
X112815476Y-103634819D01*
X111910714Y-102634819D02*
X112386904Y-102634819D01*
X112386904Y-102634819D02*
X112434523Y-103111009D01*
X112434523Y-103111009D02*
X112386904Y-103063390D01*
X112386904Y-103063390D02*
X112291666Y-103015771D01*
X112291666Y-103015771D02*
X112053571Y-103015771D01*
X112053571Y-103015771D02*
X111958333Y-103063390D01*
X111958333Y-103063390D02*
X111910714Y-103111009D01*
X111910714Y-103111009D02*
X111863095Y-103206247D01*
X111863095Y-103206247D02*
X111863095Y-103444342D01*
X111863095Y-103444342D02*
X111910714Y-103539580D01*
X111910714Y-103539580D02*
X111958333Y-103587200D01*
X111958333Y-103587200D02*
X112053571Y-103634819D01*
X112053571Y-103634819D02*
X112291666Y-103634819D01*
X112291666Y-103634819D02*
X112386904Y-103587200D01*
X112386904Y-103587200D02*
X112434523Y-103539580D01*
X136627857Y-103507819D02*
X136961190Y-103031628D01*
X137199285Y-103507819D02*
X137199285Y-102507819D01*
X137199285Y-102507819D02*
X136818333Y-102507819D01*
X136818333Y-102507819D02*
X136723095Y-102555438D01*
X136723095Y-102555438D02*
X136675476Y-102603057D01*
X136675476Y-102603057D02*
X136627857Y-102698295D01*
X136627857Y-102698295D02*
X136627857Y-102841152D01*
X136627857Y-102841152D02*
X136675476Y-102936390D01*
X136675476Y-102936390D02*
X136723095Y-102984009D01*
X136723095Y-102984009D02*
X136818333Y-103031628D01*
X136818333Y-103031628D02*
X137199285Y-103031628D01*
X136246904Y-102603057D02*
X136199285Y-102555438D01*
X136199285Y-102555438D02*
X136104047Y-102507819D01*
X136104047Y-102507819D02*
X135865952Y-102507819D01*
X135865952Y-102507819D02*
X135770714Y-102555438D01*
X135770714Y-102555438D02*
X135723095Y-102603057D01*
X135723095Y-102603057D02*
X135675476Y-102698295D01*
X135675476Y-102698295D02*
X135675476Y-102793533D01*
X135675476Y-102793533D02*
X135723095Y-102936390D01*
X135723095Y-102936390D02*
X136294523Y-103507819D01*
X136294523Y-103507819D02*
X135675476Y-103507819D01*
X135104047Y-102936390D02*
X135199285Y-102888771D01*
X135199285Y-102888771D02*
X135246904Y-102841152D01*
X135246904Y-102841152D02*
X135294523Y-102745914D01*
X135294523Y-102745914D02*
X135294523Y-102698295D01*
X135294523Y-102698295D02*
X135246904Y-102603057D01*
X135246904Y-102603057D02*
X135199285Y-102555438D01*
X135199285Y-102555438D02*
X135104047Y-102507819D01*
X135104047Y-102507819D02*
X134913571Y-102507819D01*
X134913571Y-102507819D02*
X134818333Y-102555438D01*
X134818333Y-102555438D02*
X134770714Y-102603057D01*
X134770714Y-102603057D02*
X134723095Y-102698295D01*
X134723095Y-102698295D02*
X134723095Y-102745914D01*
X134723095Y-102745914D02*
X134770714Y-102841152D01*
X134770714Y-102841152D02*
X134818333Y-102888771D01*
X134818333Y-102888771D02*
X134913571Y-102936390D01*
X134913571Y-102936390D02*
X135104047Y-102936390D01*
X135104047Y-102936390D02*
X135199285Y-102984009D01*
X135199285Y-102984009D02*
X135246904Y-103031628D01*
X135246904Y-103031628D02*
X135294523Y-103126866D01*
X135294523Y-103126866D02*
X135294523Y-103317342D01*
X135294523Y-103317342D02*
X135246904Y-103412580D01*
X135246904Y-103412580D02*
X135199285Y-103460200D01*
X135199285Y-103460200D02*
X135104047Y-103507819D01*
X135104047Y-103507819D02*
X134913571Y-103507819D01*
X134913571Y-103507819D02*
X134818333Y-103460200D01*
X134818333Y-103460200D02*
X134770714Y-103412580D01*
X134770714Y-103412580D02*
X134723095Y-103317342D01*
X134723095Y-103317342D02*
X134723095Y-103126866D01*
X134723095Y-103126866D02*
X134770714Y-103031628D01*
X134770714Y-103031628D02*
X134818333Y-102984009D01*
X134818333Y-102984009D02*
X134913571Y-102936390D01*
X157028819Y-99107666D02*
X157743104Y-99107666D01*
X157743104Y-99107666D02*
X157885961Y-99060047D01*
X157885961Y-99060047D02*
X157981200Y-98964809D01*
X157981200Y-98964809D02*
X158028819Y-98821952D01*
X158028819Y-98821952D02*
X158028819Y-98726714D01*
X158028819Y-100107666D02*
X158028819Y-99536238D01*
X158028819Y-99821952D02*
X157028819Y-99821952D01*
X157028819Y-99821952D02*
X157171676Y-99726714D01*
X157171676Y-99726714D02*
X157266914Y-99631476D01*
X157266914Y-99631476D02*
X157314533Y-99536238D01*
X122657857Y-107444819D02*
X122991190Y-106968628D01*
X123229285Y-107444819D02*
X123229285Y-106444819D01*
X123229285Y-106444819D02*
X122848333Y-106444819D01*
X122848333Y-106444819D02*
X122753095Y-106492438D01*
X122753095Y-106492438D02*
X122705476Y-106540057D01*
X122705476Y-106540057D02*
X122657857Y-106635295D01*
X122657857Y-106635295D02*
X122657857Y-106778152D01*
X122657857Y-106778152D02*
X122705476Y-106873390D01*
X122705476Y-106873390D02*
X122753095Y-106921009D01*
X122753095Y-106921009D02*
X122848333Y-106968628D01*
X122848333Y-106968628D02*
X123229285Y-106968628D01*
X122276904Y-106540057D02*
X122229285Y-106492438D01*
X122229285Y-106492438D02*
X122134047Y-106444819D01*
X122134047Y-106444819D02*
X121895952Y-106444819D01*
X121895952Y-106444819D02*
X121800714Y-106492438D01*
X121800714Y-106492438D02*
X121753095Y-106540057D01*
X121753095Y-106540057D02*
X121705476Y-106635295D01*
X121705476Y-106635295D02*
X121705476Y-106730533D01*
X121705476Y-106730533D02*
X121753095Y-106873390D01*
X121753095Y-106873390D02*
X122324523Y-107444819D01*
X122324523Y-107444819D02*
X121705476Y-107444819D01*
X121324523Y-106540057D02*
X121276904Y-106492438D01*
X121276904Y-106492438D02*
X121181666Y-106444819D01*
X121181666Y-106444819D02*
X120943571Y-106444819D01*
X120943571Y-106444819D02*
X120848333Y-106492438D01*
X120848333Y-106492438D02*
X120800714Y-106540057D01*
X120800714Y-106540057D02*
X120753095Y-106635295D01*
X120753095Y-106635295D02*
X120753095Y-106730533D01*
X120753095Y-106730533D02*
X120800714Y-106873390D01*
X120800714Y-106873390D02*
X121372142Y-107444819D01*
X121372142Y-107444819D02*
X120753095Y-107444819D01*
X163297857Y-96554580D02*
X163345476Y-96602200D01*
X163345476Y-96602200D02*
X163488333Y-96649819D01*
X163488333Y-96649819D02*
X163583571Y-96649819D01*
X163583571Y-96649819D02*
X163726428Y-96602200D01*
X163726428Y-96602200D02*
X163821666Y-96506961D01*
X163821666Y-96506961D02*
X163869285Y-96411723D01*
X163869285Y-96411723D02*
X163916904Y-96221247D01*
X163916904Y-96221247D02*
X163916904Y-96078390D01*
X163916904Y-96078390D02*
X163869285Y-95887914D01*
X163869285Y-95887914D02*
X163821666Y-95792676D01*
X163821666Y-95792676D02*
X163726428Y-95697438D01*
X163726428Y-95697438D02*
X163583571Y-95649819D01*
X163583571Y-95649819D02*
X163488333Y-95649819D01*
X163488333Y-95649819D02*
X163345476Y-95697438D01*
X163345476Y-95697438D02*
X163297857Y-95745057D01*
X162345476Y-96649819D02*
X162916904Y-96649819D01*
X162631190Y-96649819D02*
X162631190Y-95649819D01*
X162631190Y-95649819D02*
X162726428Y-95792676D01*
X162726428Y-95792676D02*
X162821666Y-95887914D01*
X162821666Y-95887914D02*
X162916904Y-95935533D01*
X161964523Y-95745057D02*
X161916904Y-95697438D01*
X161916904Y-95697438D02*
X161821666Y-95649819D01*
X161821666Y-95649819D02*
X161583571Y-95649819D01*
X161583571Y-95649819D02*
X161488333Y-95697438D01*
X161488333Y-95697438D02*
X161440714Y-95745057D01*
X161440714Y-95745057D02*
X161393095Y-95840295D01*
X161393095Y-95840295D02*
X161393095Y-95935533D01*
X161393095Y-95935533D02*
X161440714Y-96078390D01*
X161440714Y-96078390D02*
X162012142Y-96649819D01*
X162012142Y-96649819D02*
X161393095Y-96649819D01*
X136627857Y-105412819D02*
X136961190Y-104936628D01*
X137199285Y-105412819D02*
X137199285Y-104412819D01*
X137199285Y-104412819D02*
X136818333Y-104412819D01*
X136818333Y-104412819D02*
X136723095Y-104460438D01*
X136723095Y-104460438D02*
X136675476Y-104508057D01*
X136675476Y-104508057D02*
X136627857Y-104603295D01*
X136627857Y-104603295D02*
X136627857Y-104746152D01*
X136627857Y-104746152D02*
X136675476Y-104841390D01*
X136675476Y-104841390D02*
X136723095Y-104889009D01*
X136723095Y-104889009D02*
X136818333Y-104936628D01*
X136818333Y-104936628D02*
X137199285Y-104936628D01*
X136246904Y-104508057D02*
X136199285Y-104460438D01*
X136199285Y-104460438D02*
X136104047Y-104412819D01*
X136104047Y-104412819D02*
X135865952Y-104412819D01*
X135865952Y-104412819D02*
X135770714Y-104460438D01*
X135770714Y-104460438D02*
X135723095Y-104508057D01*
X135723095Y-104508057D02*
X135675476Y-104603295D01*
X135675476Y-104603295D02*
X135675476Y-104698533D01*
X135675476Y-104698533D02*
X135723095Y-104841390D01*
X135723095Y-104841390D02*
X136294523Y-105412819D01*
X136294523Y-105412819D02*
X135675476Y-105412819D01*
X134818333Y-104746152D02*
X134818333Y-105412819D01*
X135056428Y-104365200D02*
X135294523Y-105079485D01*
X135294523Y-105079485D02*
X134675476Y-105079485D01*
X186157857Y-96554580D02*
X186205476Y-96602200D01*
X186205476Y-96602200D02*
X186348333Y-96649819D01*
X186348333Y-96649819D02*
X186443571Y-96649819D01*
X186443571Y-96649819D02*
X186586428Y-96602200D01*
X186586428Y-96602200D02*
X186681666Y-96506961D01*
X186681666Y-96506961D02*
X186729285Y-96411723D01*
X186729285Y-96411723D02*
X186776904Y-96221247D01*
X186776904Y-96221247D02*
X186776904Y-96078390D01*
X186776904Y-96078390D02*
X186729285Y-95887914D01*
X186729285Y-95887914D02*
X186681666Y-95792676D01*
X186681666Y-95792676D02*
X186586428Y-95697438D01*
X186586428Y-95697438D02*
X186443571Y-95649819D01*
X186443571Y-95649819D02*
X186348333Y-95649819D01*
X186348333Y-95649819D02*
X186205476Y-95697438D01*
X186205476Y-95697438D02*
X186157857Y-95745057D01*
X185205476Y-96649819D02*
X185776904Y-96649819D01*
X185491190Y-96649819D02*
X185491190Y-95649819D01*
X185491190Y-95649819D02*
X185586428Y-95792676D01*
X185586428Y-95792676D02*
X185681666Y-95887914D01*
X185681666Y-95887914D02*
X185776904Y-95935533D01*
X184300714Y-95649819D02*
X184776904Y-95649819D01*
X184776904Y-95649819D02*
X184824523Y-96126009D01*
X184824523Y-96126009D02*
X184776904Y-96078390D01*
X184776904Y-96078390D02*
X184681666Y-96030771D01*
X184681666Y-96030771D02*
X184443571Y-96030771D01*
X184443571Y-96030771D02*
X184348333Y-96078390D01*
X184348333Y-96078390D02*
X184300714Y-96126009D01*
X184300714Y-96126009D02*
X184253095Y-96221247D01*
X184253095Y-96221247D02*
X184253095Y-96459342D01*
X184253095Y-96459342D02*
X184300714Y-96554580D01*
X184300714Y-96554580D02*
X184348333Y-96602200D01*
X184348333Y-96602200D02*
X184443571Y-96649819D01*
X184443571Y-96649819D02*
X184681666Y-96649819D01*
X184681666Y-96649819D02*
X184776904Y-96602200D01*
X184776904Y-96602200D02*
X184824523Y-96554580D01*
X174539819Y-97457142D02*
X174063628Y-97123809D01*
X174539819Y-96885714D02*
X173539819Y-96885714D01*
X173539819Y-96885714D02*
X173539819Y-97266666D01*
X173539819Y-97266666D02*
X173587438Y-97361904D01*
X173587438Y-97361904D02*
X173635057Y-97409523D01*
X173635057Y-97409523D02*
X173730295Y-97457142D01*
X173730295Y-97457142D02*
X173873152Y-97457142D01*
X173873152Y-97457142D02*
X173968390Y-97409523D01*
X173968390Y-97409523D02*
X174016009Y-97361904D01*
X174016009Y-97361904D02*
X174063628Y-97266666D01*
X174063628Y-97266666D02*
X174063628Y-96885714D01*
X174539819Y-98409523D02*
X174539819Y-97838095D01*
X174539819Y-98123809D02*
X173539819Y-98123809D01*
X173539819Y-98123809D02*
X173682676Y-98028571D01*
X173682676Y-98028571D02*
X173777914Y-97933333D01*
X173777914Y-97933333D02*
X173825533Y-97838095D01*
X174539819Y-98885714D02*
X174539819Y-99076190D01*
X174539819Y-99076190D02*
X174492200Y-99171428D01*
X174492200Y-99171428D02*
X174444580Y-99219047D01*
X174444580Y-99219047D02*
X174301723Y-99314285D01*
X174301723Y-99314285D02*
X174111247Y-99361904D01*
X174111247Y-99361904D02*
X173730295Y-99361904D01*
X173730295Y-99361904D02*
X173635057Y-99314285D01*
X173635057Y-99314285D02*
X173587438Y-99266666D01*
X173587438Y-99266666D02*
X173539819Y-99171428D01*
X173539819Y-99171428D02*
X173539819Y-98980952D01*
X173539819Y-98980952D02*
X173587438Y-98885714D01*
X173587438Y-98885714D02*
X173635057Y-98838095D01*
X173635057Y-98838095D02*
X173730295Y-98790476D01*
X173730295Y-98790476D02*
X173968390Y-98790476D01*
X173968390Y-98790476D02*
X174063628Y-98838095D01*
X174063628Y-98838095D02*
X174111247Y-98885714D01*
X174111247Y-98885714D02*
X174158866Y-98980952D01*
X174158866Y-98980952D02*
X174158866Y-99171428D01*
X174158866Y-99171428D02*
X174111247Y-99266666D01*
X174111247Y-99266666D02*
X174063628Y-99314285D01*
X174063628Y-99314285D02*
X173968390Y-99361904D01*
X163297857Y-100459819D02*
X163631190Y-99983628D01*
X163869285Y-100459819D02*
X163869285Y-99459819D01*
X163869285Y-99459819D02*
X163488333Y-99459819D01*
X163488333Y-99459819D02*
X163393095Y-99507438D01*
X163393095Y-99507438D02*
X163345476Y-99555057D01*
X163345476Y-99555057D02*
X163297857Y-99650295D01*
X163297857Y-99650295D02*
X163297857Y-99793152D01*
X163297857Y-99793152D02*
X163345476Y-99888390D01*
X163345476Y-99888390D02*
X163393095Y-99936009D01*
X163393095Y-99936009D02*
X163488333Y-99983628D01*
X163488333Y-99983628D02*
X163869285Y-99983628D01*
X162345476Y-100459819D02*
X162916904Y-100459819D01*
X162631190Y-100459819D02*
X162631190Y-99459819D01*
X162631190Y-99459819D02*
X162726428Y-99602676D01*
X162726428Y-99602676D02*
X162821666Y-99697914D01*
X162821666Y-99697914D02*
X162916904Y-99745533D01*
X162012142Y-99459819D02*
X161393095Y-99459819D01*
X161393095Y-99459819D02*
X161726428Y-99840771D01*
X161726428Y-99840771D02*
X161583571Y-99840771D01*
X161583571Y-99840771D02*
X161488333Y-99888390D01*
X161488333Y-99888390D02*
X161440714Y-99936009D01*
X161440714Y-99936009D02*
X161393095Y-100031247D01*
X161393095Y-100031247D02*
X161393095Y-100269342D01*
X161393095Y-100269342D02*
X161440714Y-100364580D01*
X161440714Y-100364580D02*
X161488333Y-100412200D01*
X161488333Y-100412200D02*
X161583571Y-100459819D01*
X161583571Y-100459819D02*
X161869285Y-100459819D01*
X161869285Y-100459819D02*
X161964523Y-100412200D01*
X161964523Y-100412200D02*
X162012142Y-100364580D01*
X169459819Y-97457142D02*
X168983628Y-97123809D01*
X169459819Y-96885714D02*
X168459819Y-96885714D01*
X168459819Y-96885714D02*
X168459819Y-97266666D01*
X168459819Y-97266666D02*
X168507438Y-97361904D01*
X168507438Y-97361904D02*
X168555057Y-97409523D01*
X168555057Y-97409523D02*
X168650295Y-97457142D01*
X168650295Y-97457142D02*
X168793152Y-97457142D01*
X168793152Y-97457142D02*
X168888390Y-97409523D01*
X168888390Y-97409523D02*
X168936009Y-97361904D01*
X168936009Y-97361904D02*
X168983628Y-97266666D01*
X168983628Y-97266666D02*
X168983628Y-96885714D01*
X169459819Y-98409523D02*
X169459819Y-97838095D01*
X169459819Y-98123809D02*
X168459819Y-98123809D01*
X168459819Y-98123809D02*
X168602676Y-98028571D01*
X168602676Y-98028571D02*
X168697914Y-97933333D01*
X168697914Y-97933333D02*
X168745533Y-97838095D01*
X168888390Y-98980952D02*
X168840771Y-98885714D01*
X168840771Y-98885714D02*
X168793152Y-98838095D01*
X168793152Y-98838095D02*
X168697914Y-98790476D01*
X168697914Y-98790476D02*
X168650295Y-98790476D01*
X168650295Y-98790476D02*
X168555057Y-98838095D01*
X168555057Y-98838095D02*
X168507438Y-98885714D01*
X168507438Y-98885714D02*
X168459819Y-98980952D01*
X168459819Y-98980952D02*
X168459819Y-99171428D01*
X168459819Y-99171428D02*
X168507438Y-99266666D01*
X168507438Y-99266666D02*
X168555057Y-99314285D01*
X168555057Y-99314285D02*
X168650295Y-99361904D01*
X168650295Y-99361904D02*
X168697914Y-99361904D01*
X168697914Y-99361904D02*
X168793152Y-99314285D01*
X168793152Y-99314285D02*
X168840771Y-99266666D01*
X168840771Y-99266666D02*
X168888390Y-99171428D01*
X168888390Y-99171428D02*
X168888390Y-98980952D01*
X168888390Y-98980952D02*
X168936009Y-98885714D01*
X168936009Y-98885714D02*
X168983628Y-98838095D01*
X168983628Y-98838095D02*
X169078866Y-98790476D01*
X169078866Y-98790476D02*
X169269342Y-98790476D01*
X169269342Y-98790476D02*
X169364580Y-98838095D01*
X169364580Y-98838095D02*
X169412200Y-98885714D01*
X169412200Y-98885714D02*
X169459819Y-98980952D01*
X169459819Y-98980952D02*
X169459819Y-99171428D01*
X169459819Y-99171428D02*
X169412200Y-99266666D01*
X169412200Y-99266666D02*
X169364580Y-99314285D01*
X169364580Y-99314285D02*
X169269342Y-99361904D01*
X169269342Y-99361904D02*
X169078866Y-99361904D01*
X169078866Y-99361904D02*
X168983628Y-99314285D01*
X168983628Y-99314285D02*
X168936009Y-99266666D01*
X168936009Y-99266666D02*
X168888390Y-99171428D01*
X151264857Y-66018580D02*
X151312476Y-66066200D01*
X151312476Y-66066200D02*
X151455333Y-66113819D01*
X151455333Y-66113819D02*
X151550571Y-66113819D01*
X151550571Y-66113819D02*
X151693428Y-66066200D01*
X151693428Y-66066200D02*
X151788666Y-65970961D01*
X151788666Y-65970961D02*
X151836285Y-65875723D01*
X151836285Y-65875723D02*
X151883904Y-65685247D01*
X151883904Y-65685247D02*
X151883904Y-65542390D01*
X151883904Y-65542390D02*
X151836285Y-65351914D01*
X151836285Y-65351914D02*
X151788666Y-65256676D01*
X151788666Y-65256676D02*
X151693428Y-65161438D01*
X151693428Y-65161438D02*
X151550571Y-65113819D01*
X151550571Y-65113819D02*
X151455333Y-65113819D01*
X151455333Y-65113819D02*
X151312476Y-65161438D01*
X151312476Y-65161438D02*
X151264857Y-65209057D01*
X150883904Y-65209057D02*
X150836285Y-65161438D01*
X150836285Y-65161438D02*
X150741047Y-65113819D01*
X150741047Y-65113819D02*
X150502952Y-65113819D01*
X150502952Y-65113819D02*
X150407714Y-65161438D01*
X150407714Y-65161438D02*
X150360095Y-65209057D01*
X150360095Y-65209057D02*
X150312476Y-65304295D01*
X150312476Y-65304295D02*
X150312476Y-65399533D01*
X150312476Y-65399533D02*
X150360095Y-65542390D01*
X150360095Y-65542390D02*
X150931523Y-66113819D01*
X150931523Y-66113819D02*
X150312476Y-66113819D01*
X149931523Y-65209057D02*
X149883904Y-65161438D01*
X149883904Y-65161438D02*
X149788666Y-65113819D01*
X149788666Y-65113819D02*
X149550571Y-65113819D01*
X149550571Y-65113819D02*
X149455333Y-65161438D01*
X149455333Y-65161438D02*
X149407714Y-65209057D01*
X149407714Y-65209057D02*
X149360095Y-65304295D01*
X149360095Y-65304295D02*
X149360095Y-65399533D01*
X149360095Y-65399533D02*
X149407714Y-65542390D01*
X149407714Y-65542390D02*
X149979142Y-66113819D01*
X149979142Y-66113819D02*
X149360095Y-66113819D01*
X151264857Y-68018819D02*
X151598190Y-67542628D01*
X151836285Y-68018819D02*
X151836285Y-67018819D01*
X151836285Y-67018819D02*
X151455333Y-67018819D01*
X151455333Y-67018819D02*
X151360095Y-67066438D01*
X151360095Y-67066438D02*
X151312476Y-67114057D01*
X151312476Y-67114057D02*
X151264857Y-67209295D01*
X151264857Y-67209295D02*
X151264857Y-67352152D01*
X151264857Y-67352152D02*
X151312476Y-67447390D01*
X151312476Y-67447390D02*
X151360095Y-67495009D01*
X151360095Y-67495009D02*
X151455333Y-67542628D01*
X151455333Y-67542628D02*
X151836285Y-67542628D01*
X150931523Y-67018819D02*
X150312476Y-67018819D01*
X150312476Y-67018819D02*
X150645809Y-67399771D01*
X150645809Y-67399771D02*
X150502952Y-67399771D01*
X150502952Y-67399771D02*
X150407714Y-67447390D01*
X150407714Y-67447390D02*
X150360095Y-67495009D01*
X150360095Y-67495009D02*
X150312476Y-67590247D01*
X150312476Y-67590247D02*
X150312476Y-67828342D01*
X150312476Y-67828342D02*
X150360095Y-67923580D01*
X150360095Y-67923580D02*
X150407714Y-67971200D01*
X150407714Y-67971200D02*
X150502952Y-68018819D01*
X150502952Y-68018819D02*
X150788666Y-68018819D01*
X150788666Y-68018819D02*
X150883904Y-67971200D01*
X150883904Y-67971200D02*
X150931523Y-67923580D01*
X149455333Y-67352152D02*
X149455333Y-68018819D01*
X149693428Y-66971200D02*
X149931523Y-67685485D01*
X149931523Y-67685485D02*
X149312476Y-67685485D01*
X127737857Y-107444819D02*
X128071190Y-106968628D01*
X128309285Y-107444819D02*
X128309285Y-106444819D01*
X128309285Y-106444819D02*
X127928333Y-106444819D01*
X127928333Y-106444819D02*
X127833095Y-106492438D01*
X127833095Y-106492438D02*
X127785476Y-106540057D01*
X127785476Y-106540057D02*
X127737857Y-106635295D01*
X127737857Y-106635295D02*
X127737857Y-106778152D01*
X127737857Y-106778152D02*
X127785476Y-106873390D01*
X127785476Y-106873390D02*
X127833095Y-106921009D01*
X127833095Y-106921009D02*
X127928333Y-106968628D01*
X127928333Y-106968628D02*
X128309285Y-106968628D01*
X127356904Y-106540057D02*
X127309285Y-106492438D01*
X127309285Y-106492438D02*
X127214047Y-106444819D01*
X127214047Y-106444819D02*
X126975952Y-106444819D01*
X126975952Y-106444819D02*
X126880714Y-106492438D01*
X126880714Y-106492438D02*
X126833095Y-106540057D01*
X126833095Y-106540057D02*
X126785476Y-106635295D01*
X126785476Y-106635295D02*
X126785476Y-106730533D01*
X126785476Y-106730533D02*
X126833095Y-106873390D01*
X126833095Y-106873390D02*
X127404523Y-107444819D01*
X127404523Y-107444819D02*
X126785476Y-107444819D01*
X126452142Y-106444819D02*
X125833095Y-106444819D01*
X125833095Y-106444819D02*
X126166428Y-106825771D01*
X126166428Y-106825771D02*
X126023571Y-106825771D01*
X126023571Y-106825771D02*
X125928333Y-106873390D01*
X125928333Y-106873390D02*
X125880714Y-106921009D01*
X125880714Y-106921009D02*
X125833095Y-107016247D01*
X125833095Y-107016247D02*
X125833095Y-107254342D01*
X125833095Y-107254342D02*
X125880714Y-107349580D01*
X125880714Y-107349580D02*
X125928333Y-107397200D01*
X125928333Y-107397200D02*
X126023571Y-107444819D01*
X126023571Y-107444819D02*
X126309285Y-107444819D01*
X126309285Y-107444819D02*
X126404523Y-107397200D01*
X126404523Y-107397200D02*
X126452142Y-107349580D01*
X122634047Y-99729580D02*
X122681666Y-99777200D01*
X122681666Y-99777200D02*
X122824523Y-99824819D01*
X122824523Y-99824819D02*
X122919761Y-99824819D01*
X122919761Y-99824819D02*
X123062618Y-99777200D01*
X123062618Y-99777200D02*
X123157856Y-99681961D01*
X123157856Y-99681961D02*
X123205475Y-99586723D01*
X123205475Y-99586723D02*
X123253094Y-99396247D01*
X123253094Y-99396247D02*
X123253094Y-99253390D01*
X123253094Y-99253390D02*
X123205475Y-99062914D01*
X123205475Y-99062914D02*
X123157856Y-98967676D01*
X123157856Y-98967676D02*
X123062618Y-98872438D01*
X123062618Y-98872438D02*
X122919761Y-98824819D01*
X122919761Y-98824819D02*
X122824523Y-98824819D01*
X122824523Y-98824819D02*
X122681666Y-98872438D01*
X122681666Y-98872438D02*
X122634047Y-98920057D01*
X121681666Y-99824819D02*
X122253094Y-99824819D01*
X121967380Y-99824819D02*
X121967380Y-98824819D01*
X121967380Y-98824819D02*
X122062618Y-98967676D01*
X122062618Y-98967676D02*
X122157856Y-99062914D01*
X122157856Y-99062914D02*
X122253094Y-99110533D01*
X121348332Y-98824819D02*
X120681666Y-98824819D01*
X120681666Y-98824819D02*
X121110237Y-99824819D01*
X163424857Y-79885819D02*
X163758190Y-79409628D01*
X163996285Y-79885819D02*
X163996285Y-78885819D01*
X163996285Y-78885819D02*
X163615333Y-78885819D01*
X163615333Y-78885819D02*
X163520095Y-78933438D01*
X163520095Y-78933438D02*
X163472476Y-78981057D01*
X163472476Y-78981057D02*
X163424857Y-79076295D01*
X163424857Y-79076295D02*
X163424857Y-79219152D01*
X163424857Y-79219152D02*
X163472476Y-79314390D01*
X163472476Y-79314390D02*
X163520095Y-79362009D01*
X163520095Y-79362009D02*
X163615333Y-79409628D01*
X163615333Y-79409628D02*
X163996285Y-79409628D01*
X162472476Y-79885819D02*
X163043904Y-79885819D01*
X162758190Y-79885819D02*
X162758190Y-78885819D01*
X162758190Y-78885819D02*
X162853428Y-79028676D01*
X162853428Y-79028676D02*
X162948666Y-79123914D01*
X162948666Y-79123914D02*
X163043904Y-79171533D01*
X161853428Y-78885819D02*
X161758190Y-78885819D01*
X161758190Y-78885819D02*
X161662952Y-78933438D01*
X161662952Y-78933438D02*
X161615333Y-78981057D01*
X161615333Y-78981057D02*
X161567714Y-79076295D01*
X161567714Y-79076295D02*
X161520095Y-79266771D01*
X161520095Y-79266771D02*
X161520095Y-79504866D01*
X161520095Y-79504866D02*
X161567714Y-79695342D01*
X161567714Y-79695342D02*
X161615333Y-79790580D01*
X161615333Y-79790580D02*
X161662952Y-79838200D01*
X161662952Y-79838200D02*
X161758190Y-79885819D01*
X161758190Y-79885819D02*
X161853428Y-79885819D01*
X161853428Y-79885819D02*
X161948666Y-79838200D01*
X161948666Y-79838200D02*
X161996285Y-79790580D01*
X161996285Y-79790580D02*
X162043904Y-79695342D01*
X162043904Y-79695342D02*
X162091523Y-79504866D01*
X162091523Y-79504866D02*
X162091523Y-79266771D01*
X162091523Y-79266771D02*
X162043904Y-79076295D01*
X162043904Y-79076295D02*
X161996285Y-78981057D01*
X161996285Y-78981057D02*
X161948666Y-78933438D01*
X161948666Y-78933438D02*
X161853428Y-78885819D01*
X156540580Y-105624333D02*
X156588200Y-105576714D01*
X156588200Y-105576714D02*
X156635819Y-105433857D01*
X156635819Y-105433857D02*
X156635819Y-105338619D01*
X156635819Y-105338619D02*
X156588200Y-105195762D01*
X156588200Y-105195762D02*
X156492961Y-105100524D01*
X156492961Y-105100524D02*
X156397723Y-105052905D01*
X156397723Y-105052905D02*
X156207247Y-105005286D01*
X156207247Y-105005286D02*
X156064390Y-105005286D01*
X156064390Y-105005286D02*
X155873914Y-105052905D01*
X155873914Y-105052905D02*
X155778676Y-105100524D01*
X155778676Y-105100524D02*
X155683438Y-105195762D01*
X155683438Y-105195762D02*
X155635819Y-105338619D01*
X155635819Y-105338619D02*
X155635819Y-105433857D01*
X155635819Y-105433857D02*
X155683438Y-105576714D01*
X155683438Y-105576714D02*
X155731057Y-105624333D01*
X155731057Y-106005286D02*
X155683438Y-106052905D01*
X155683438Y-106052905D02*
X155635819Y-106148143D01*
X155635819Y-106148143D02*
X155635819Y-106386238D01*
X155635819Y-106386238D02*
X155683438Y-106481476D01*
X155683438Y-106481476D02*
X155731057Y-106529095D01*
X155731057Y-106529095D02*
X155826295Y-106576714D01*
X155826295Y-106576714D02*
X155921533Y-106576714D01*
X155921533Y-106576714D02*
X156064390Y-106529095D01*
X156064390Y-106529095D02*
X156635819Y-105957667D01*
X156635819Y-105957667D02*
X156635819Y-106576714D01*
X154254580Y-89114333D02*
X154302200Y-89066714D01*
X154302200Y-89066714D02*
X154349819Y-88923857D01*
X154349819Y-88923857D02*
X154349819Y-88828619D01*
X154349819Y-88828619D02*
X154302200Y-88685762D01*
X154302200Y-88685762D02*
X154206961Y-88590524D01*
X154206961Y-88590524D02*
X154111723Y-88542905D01*
X154111723Y-88542905D02*
X153921247Y-88495286D01*
X153921247Y-88495286D02*
X153778390Y-88495286D01*
X153778390Y-88495286D02*
X153587914Y-88542905D01*
X153587914Y-88542905D02*
X153492676Y-88590524D01*
X153492676Y-88590524D02*
X153397438Y-88685762D01*
X153397438Y-88685762D02*
X153349819Y-88828619D01*
X153349819Y-88828619D02*
X153349819Y-88923857D01*
X153349819Y-88923857D02*
X153397438Y-89066714D01*
X153397438Y-89066714D02*
X153445057Y-89114333D01*
X154349819Y-90066714D02*
X154349819Y-89495286D01*
X154349819Y-89781000D02*
X153349819Y-89781000D01*
X153349819Y-89781000D02*
X153492676Y-89685762D01*
X153492676Y-89685762D02*
X153587914Y-89590524D01*
X153587914Y-89590524D02*
X153635533Y-89495286D01*
X119929819Y-102537142D02*
X119453628Y-102203809D01*
X119929819Y-101965714D02*
X118929819Y-101965714D01*
X118929819Y-101965714D02*
X118929819Y-102346666D01*
X118929819Y-102346666D02*
X118977438Y-102441904D01*
X118977438Y-102441904D02*
X119025057Y-102489523D01*
X119025057Y-102489523D02*
X119120295Y-102537142D01*
X119120295Y-102537142D02*
X119263152Y-102537142D01*
X119263152Y-102537142D02*
X119358390Y-102489523D01*
X119358390Y-102489523D02*
X119406009Y-102441904D01*
X119406009Y-102441904D02*
X119453628Y-102346666D01*
X119453628Y-102346666D02*
X119453628Y-101965714D01*
X119025057Y-102918095D02*
X118977438Y-102965714D01*
X118977438Y-102965714D02*
X118929819Y-103060952D01*
X118929819Y-103060952D02*
X118929819Y-103299047D01*
X118929819Y-103299047D02*
X118977438Y-103394285D01*
X118977438Y-103394285D02*
X119025057Y-103441904D01*
X119025057Y-103441904D02*
X119120295Y-103489523D01*
X119120295Y-103489523D02*
X119215533Y-103489523D01*
X119215533Y-103489523D02*
X119358390Y-103441904D01*
X119358390Y-103441904D02*
X119929819Y-102870476D01*
X119929819Y-102870476D02*
X119929819Y-103489523D01*
X118929819Y-104346666D02*
X118929819Y-104156190D01*
X118929819Y-104156190D02*
X118977438Y-104060952D01*
X118977438Y-104060952D02*
X119025057Y-104013333D01*
X119025057Y-104013333D02*
X119167914Y-103918095D01*
X119167914Y-103918095D02*
X119358390Y-103870476D01*
X119358390Y-103870476D02*
X119739342Y-103870476D01*
X119739342Y-103870476D02*
X119834580Y-103918095D01*
X119834580Y-103918095D02*
X119882200Y-103965714D01*
X119882200Y-103965714D02*
X119929819Y-104060952D01*
X119929819Y-104060952D02*
X119929819Y-104251428D01*
X119929819Y-104251428D02*
X119882200Y-104346666D01*
X119882200Y-104346666D02*
X119834580Y-104394285D01*
X119834580Y-104394285D02*
X119739342Y-104441904D01*
X119739342Y-104441904D02*
X119501247Y-104441904D01*
X119501247Y-104441904D02*
X119406009Y-104394285D01*
X119406009Y-104394285D02*
X119358390Y-104346666D01*
X119358390Y-104346666D02*
X119310771Y-104251428D01*
X119310771Y-104251428D02*
X119310771Y-104060952D01*
X119310771Y-104060952D02*
X119358390Y-103965714D01*
X119358390Y-103965714D02*
X119406009Y-103918095D01*
X119406009Y-103918095D02*
X119501247Y-103870476D01*
X136627857Y-101507580D02*
X136675476Y-101555200D01*
X136675476Y-101555200D02*
X136818333Y-101602819D01*
X136818333Y-101602819D02*
X136913571Y-101602819D01*
X136913571Y-101602819D02*
X137056428Y-101555200D01*
X137056428Y-101555200D02*
X137151666Y-101459961D01*
X137151666Y-101459961D02*
X137199285Y-101364723D01*
X137199285Y-101364723D02*
X137246904Y-101174247D01*
X137246904Y-101174247D02*
X137246904Y-101031390D01*
X137246904Y-101031390D02*
X137199285Y-100840914D01*
X137199285Y-100840914D02*
X137151666Y-100745676D01*
X137151666Y-100745676D02*
X137056428Y-100650438D01*
X137056428Y-100650438D02*
X136913571Y-100602819D01*
X136913571Y-100602819D02*
X136818333Y-100602819D01*
X136818333Y-100602819D02*
X136675476Y-100650438D01*
X136675476Y-100650438D02*
X136627857Y-100698057D01*
X135675476Y-101602819D02*
X136246904Y-101602819D01*
X135961190Y-101602819D02*
X135961190Y-100602819D01*
X135961190Y-100602819D02*
X136056428Y-100745676D01*
X136056428Y-100745676D02*
X136151666Y-100840914D01*
X136151666Y-100840914D02*
X136246904Y-100888533D01*
X135199285Y-101602819D02*
X135008809Y-101602819D01*
X135008809Y-101602819D02*
X134913571Y-101555200D01*
X134913571Y-101555200D02*
X134865952Y-101507580D01*
X134865952Y-101507580D02*
X134770714Y-101364723D01*
X134770714Y-101364723D02*
X134723095Y-101174247D01*
X134723095Y-101174247D02*
X134723095Y-100793295D01*
X134723095Y-100793295D02*
X134770714Y-100698057D01*
X134770714Y-100698057D02*
X134818333Y-100650438D01*
X134818333Y-100650438D02*
X134913571Y-100602819D01*
X134913571Y-100602819D02*
X135104047Y-100602819D01*
X135104047Y-100602819D02*
X135199285Y-100650438D01*
X135199285Y-100650438D02*
X135246904Y-100698057D01*
X135246904Y-100698057D02*
X135294523Y-100793295D01*
X135294523Y-100793295D02*
X135294523Y-101031390D01*
X135294523Y-101031390D02*
X135246904Y-101126628D01*
X135246904Y-101126628D02*
X135199285Y-101174247D01*
X135199285Y-101174247D02*
X135104047Y-101221866D01*
X135104047Y-101221866D02*
X134913571Y-101221866D01*
X134913571Y-101221866D02*
X134818333Y-101174247D01*
X134818333Y-101174247D02*
X134770714Y-101126628D01*
X134770714Y-101126628D02*
X134723095Y-101031390D01*
X177244047Y-94649580D02*
X177291666Y-94697200D01*
X177291666Y-94697200D02*
X177434523Y-94744819D01*
X177434523Y-94744819D02*
X177529761Y-94744819D01*
X177529761Y-94744819D02*
X177672618Y-94697200D01*
X177672618Y-94697200D02*
X177767856Y-94601961D01*
X177767856Y-94601961D02*
X177815475Y-94506723D01*
X177815475Y-94506723D02*
X177863094Y-94316247D01*
X177863094Y-94316247D02*
X177863094Y-94173390D01*
X177863094Y-94173390D02*
X177815475Y-93982914D01*
X177815475Y-93982914D02*
X177767856Y-93887676D01*
X177767856Y-93887676D02*
X177672618Y-93792438D01*
X177672618Y-93792438D02*
X177529761Y-93744819D01*
X177529761Y-93744819D02*
X177434523Y-93744819D01*
X177434523Y-93744819D02*
X177291666Y-93792438D01*
X177291666Y-93792438D02*
X177244047Y-93840057D01*
X176291666Y-94744819D02*
X176863094Y-94744819D01*
X176577380Y-94744819D02*
X176577380Y-93744819D01*
X176577380Y-93744819D02*
X176672618Y-93887676D01*
X176672618Y-93887676D02*
X176767856Y-93982914D01*
X176767856Y-93982914D02*
X176863094Y-94030533D01*
X175434523Y-94078152D02*
X175434523Y-94744819D01*
X175672618Y-93697200D02*
X175910713Y-94411485D01*
X175910713Y-94411485D02*
X175291666Y-94411485D01*
X148216666Y-83789819D02*
X148549999Y-83313628D01*
X148788094Y-83789819D02*
X148788094Y-82789819D01*
X148788094Y-82789819D02*
X148407142Y-82789819D01*
X148407142Y-82789819D02*
X148311904Y-82837438D01*
X148311904Y-82837438D02*
X148264285Y-82885057D01*
X148264285Y-82885057D02*
X148216666Y-82980295D01*
X148216666Y-82980295D02*
X148216666Y-83123152D01*
X148216666Y-83123152D02*
X148264285Y-83218390D01*
X148264285Y-83218390D02*
X148311904Y-83266009D01*
X148311904Y-83266009D02*
X148407142Y-83313628D01*
X148407142Y-83313628D02*
X148788094Y-83313628D01*
X147359523Y-82789819D02*
X147549999Y-82789819D01*
X147549999Y-82789819D02*
X147645237Y-82837438D01*
X147645237Y-82837438D02*
X147692856Y-82885057D01*
X147692856Y-82885057D02*
X147788094Y-83027914D01*
X147788094Y-83027914D02*
X147835713Y-83218390D01*
X147835713Y-83218390D02*
X147835713Y-83599342D01*
X147835713Y-83599342D02*
X147788094Y-83694580D01*
X147788094Y-83694580D02*
X147740475Y-83742200D01*
X147740475Y-83742200D02*
X147645237Y-83789819D01*
X147645237Y-83789819D02*
X147454761Y-83789819D01*
X147454761Y-83789819D02*
X147359523Y-83742200D01*
X147359523Y-83742200D02*
X147311904Y-83694580D01*
X147311904Y-83694580D02*
X147264285Y-83599342D01*
X147264285Y-83599342D02*
X147264285Y-83361247D01*
X147264285Y-83361247D02*
X147311904Y-83266009D01*
X147311904Y-83266009D02*
X147359523Y-83218390D01*
X147359523Y-83218390D02*
X147454761Y-83170771D01*
X147454761Y-83170771D02*
X147645237Y-83170771D01*
X147645237Y-83170771D02*
X147740475Y-83218390D01*
X147740475Y-83218390D02*
X147788094Y-83266009D01*
X147788094Y-83266009D02*
X147835713Y-83361247D01*
X165620237Y-81432200D02*
X165477380Y-81479819D01*
X165477380Y-81479819D02*
X165239285Y-81479819D01*
X165239285Y-81479819D02*
X165144047Y-81432200D01*
X165144047Y-81432200D02*
X165096428Y-81384580D01*
X165096428Y-81384580D02*
X165048809Y-81289342D01*
X165048809Y-81289342D02*
X165048809Y-81194104D01*
X165048809Y-81194104D02*
X165096428Y-81098866D01*
X165096428Y-81098866D02*
X165144047Y-81051247D01*
X165144047Y-81051247D02*
X165239285Y-81003628D01*
X165239285Y-81003628D02*
X165429761Y-80956009D01*
X165429761Y-80956009D02*
X165524999Y-80908390D01*
X165524999Y-80908390D02*
X165572618Y-80860771D01*
X165572618Y-80860771D02*
X165620237Y-80765533D01*
X165620237Y-80765533D02*
X165620237Y-80670295D01*
X165620237Y-80670295D02*
X165572618Y-80575057D01*
X165572618Y-80575057D02*
X165524999Y-80527438D01*
X165524999Y-80527438D02*
X165429761Y-80479819D01*
X165429761Y-80479819D02*
X165191666Y-80479819D01*
X165191666Y-80479819D02*
X165048809Y-80527438D01*
X164715475Y-80479819D02*
X164477380Y-81479819D01*
X164477380Y-81479819D02*
X164286904Y-80765533D01*
X164286904Y-80765533D02*
X164096428Y-81479819D01*
X164096428Y-81479819D02*
X163858333Y-80479819D01*
X163715476Y-81575057D02*
X162953571Y-81575057D01*
X162144047Y-81479819D02*
X162477380Y-81003628D01*
X162715475Y-81479819D02*
X162715475Y-80479819D01*
X162715475Y-80479819D02*
X162334523Y-80479819D01*
X162334523Y-80479819D02*
X162239285Y-80527438D01*
X162239285Y-80527438D02*
X162191666Y-80575057D01*
X162191666Y-80575057D02*
X162144047Y-80670295D01*
X162144047Y-80670295D02*
X162144047Y-80813152D01*
X162144047Y-80813152D02*
X162191666Y-80908390D01*
X162191666Y-80908390D02*
X162239285Y-80956009D01*
X162239285Y-80956009D02*
X162334523Y-81003628D01*
X162334523Y-81003628D02*
X162715475Y-81003628D01*
X161858332Y-80479819D02*
X161286904Y-80479819D01*
X161572618Y-81479819D02*
X161572618Y-80479819D01*
X160429761Y-81479819D02*
X161001189Y-81479819D01*
X160715475Y-81479819D02*
X160715475Y-80479819D01*
X160715475Y-80479819D02*
X160810713Y-80622676D01*
X160810713Y-80622676D02*
X160905951Y-80717914D01*
X160905951Y-80717914D02*
X161001189Y-80765533D01*
X137548666Y-77726819D02*
X137881999Y-77250628D01*
X138120094Y-77726819D02*
X138120094Y-76726819D01*
X138120094Y-76726819D02*
X137739142Y-76726819D01*
X137739142Y-76726819D02*
X137643904Y-76774438D01*
X137643904Y-76774438D02*
X137596285Y-76822057D01*
X137596285Y-76822057D02*
X137548666Y-76917295D01*
X137548666Y-76917295D02*
X137548666Y-77060152D01*
X137548666Y-77060152D02*
X137596285Y-77155390D01*
X137596285Y-77155390D02*
X137643904Y-77203009D01*
X137643904Y-77203009D02*
X137739142Y-77250628D01*
X137739142Y-77250628D02*
X138120094Y-77250628D01*
X137215332Y-76726819D02*
X136548666Y-76726819D01*
X136548666Y-76726819D02*
X136977237Y-77726819D01*
X113767857Y-101634580D02*
X113815476Y-101682200D01*
X113815476Y-101682200D02*
X113958333Y-101729819D01*
X113958333Y-101729819D02*
X114053571Y-101729819D01*
X114053571Y-101729819D02*
X114196428Y-101682200D01*
X114196428Y-101682200D02*
X114291666Y-101586961D01*
X114291666Y-101586961D02*
X114339285Y-101491723D01*
X114339285Y-101491723D02*
X114386904Y-101301247D01*
X114386904Y-101301247D02*
X114386904Y-101158390D01*
X114386904Y-101158390D02*
X114339285Y-100967914D01*
X114339285Y-100967914D02*
X114291666Y-100872676D01*
X114291666Y-100872676D02*
X114196428Y-100777438D01*
X114196428Y-100777438D02*
X114053571Y-100729819D01*
X114053571Y-100729819D02*
X113958333Y-100729819D01*
X113958333Y-100729819D02*
X113815476Y-100777438D01*
X113815476Y-100777438D02*
X113767857Y-100825057D01*
X112815476Y-101729819D02*
X113386904Y-101729819D01*
X113101190Y-101729819D02*
X113101190Y-100729819D01*
X113101190Y-100729819D02*
X113196428Y-100872676D01*
X113196428Y-100872676D02*
X113291666Y-100967914D01*
X113291666Y-100967914D02*
X113386904Y-101015533D01*
X111958333Y-100729819D02*
X112148809Y-100729819D01*
X112148809Y-100729819D02*
X112244047Y-100777438D01*
X112244047Y-100777438D02*
X112291666Y-100825057D01*
X112291666Y-100825057D02*
X112386904Y-100967914D01*
X112386904Y-100967914D02*
X112434523Y-101158390D01*
X112434523Y-101158390D02*
X112434523Y-101539342D01*
X112434523Y-101539342D02*
X112386904Y-101634580D01*
X112386904Y-101634580D02*
X112339285Y-101682200D01*
X112339285Y-101682200D02*
X112244047Y-101729819D01*
X112244047Y-101729819D02*
X112053571Y-101729819D01*
X112053571Y-101729819D02*
X111958333Y-101682200D01*
X111958333Y-101682200D02*
X111910714Y-101634580D01*
X111910714Y-101634580D02*
X111863095Y-101539342D01*
X111863095Y-101539342D02*
X111863095Y-101301247D01*
X111863095Y-101301247D02*
X111910714Y-101206009D01*
X111910714Y-101206009D02*
X111958333Y-101158390D01*
X111958333Y-101158390D02*
X112053571Y-101110771D01*
X112053571Y-101110771D02*
X112244047Y-101110771D01*
X112244047Y-101110771D02*
X112339285Y-101158390D01*
X112339285Y-101158390D02*
X112386904Y-101206009D01*
X112386904Y-101206009D02*
X112434523Y-101301247D01*
X163297857Y-98554819D02*
X163631190Y-98078628D01*
X163869285Y-98554819D02*
X163869285Y-97554819D01*
X163869285Y-97554819D02*
X163488333Y-97554819D01*
X163488333Y-97554819D02*
X163393095Y-97602438D01*
X163393095Y-97602438D02*
X163345476Y-97650057D01*
X163345476Y-97650057D02*
X163297857Y-97745295D01*
X163297857Y-97745295D02*
X163297857Y-97888152D01*
X163297857Y-97888152D02*
X163345476Y-97983390D01*
X163345476Y-97983390D02*
X163393095Y-98031009D01*
X163393095Y-98031009D02*
X163488333Y-98078628D01*
X163488333Y-98078628D02*
X163869285Y-98078628D01*
X162345476Y-98554819D02*
X162916904Y-98554819D01*
X162631190Y-98554819D02*
X162631190Y-97554819D01*
X162631190Y-97554819D02*
X162726428Y-97697676D01*
X162726428Y-97697676D02*
X162821666Y-97792914D01*
X162821666Y-97792914D02*
X162916904Y-97840533D01*
X162012142Y-97554819D02*
X161345476Y-97554819D01*
X161345476Y-97554819D02*
X161774047Y-98554819D01*
X139474999Y-81427200D02*
X139332142Y-81474819D01*
X139332142Y-81474819D02*
X139094047Y-81474819D01*
X139094047Y-81474819D02*
X138998809Y-81427200D01*
X138998809Y-81427200D02*
X138951190Y-81379580D01*
X138951190Y-81379580D02*
X138903571Y-81284342D01*
X138903571Y-81284342D02*
X138903571Y-81189104D01*
X138903571Y-81189104D02*
X138951190Y-81093866D01*
X138951190Y-81093866D02*
X138998809Y-81046247D01*
X138998809Y-81046247D02*
X139094047Y-80998628D01*
X139094047Y-80998628D02*
X139284523Y-80951009D01*
X139284523Y-80951009D02*
X139379761Y-80903390D01*
X139379761Y-80903390D02*
X139427380Y-80855771D01*
X139427380Y-80855771D02*
X139474999Y-80760533D01*
X139474999Y-80760533D02*
X139474999Y-80665295D01*
X139474999Y-80665295D02*
X139427380Y-80570057D01*
X139427380Y-80570057D02*
X139379761Y-80522438D01*
X139379761Y-80522438D02*
X139284523Y-80474819D01*
X139284523Y-80474819D02*
X139046428Y-80474819D01*
X139046428Y-80474819D02*
X138903571Y-80522438D01*
X138570237Y-80474819D02*
X138332142Y-81474819D01*
X138332142Y-81474819D02*
X138141666Y-80760533D01*
X138141666Y-80760533D02*
X137951190Y-81474819D01*
X137951190Y-81474819D02*
X137713095Y-80474819D01*
X137570238Y-81570057D02*
X136808333Y-81570057D01*
X136094047Y-81474819D02*
X136570237Y-81474819D01*
X136570237Y-81474819D02*
X136570237Y-80474819D01*
X135903570Y-80474819D02*
X135332142Y-80474819D01*
X135617856Y-81474819D02*
X135617856Y-80474819D01*
X134474999Y-81474819D02*
X135046427Y-81474819D01*
X134760713Y-81474819D02*
X134760713Y-80474819D01*
X134760713Y-80474819D02*
X134855951Y-80617676D01*
X134855951Y-80617676D02*
X134951189Y-80712914D01*
X134951189Y-80712914D02*
X135046427Y-80760533D01*
X186157857Y-100459819D02*
X186491190Y-99983628D01*
X186729285Y-100459819D02*
X186729285Y-99459819D01*
X186729285Y-99459819D02*
X186348333Y-99459819D01*
X186348333Y-99459819D02*
X186253095Y-99507438D01*
X186253095Y-99507438D02*
X186205476Y-99555057D01*
X186205476Y-99555057D02*
X186157857Y-99650295D01*
X186157857Y-99650295D02*
X186157857Y-99793152D01*
X186157857Y-99793152D02*
X186205476Y-99888390D01*
X186205476Y-99888390D02*
X186253095Y-99936009D01*
X186253095Y-99936009D02*
X186348333Y-99983628D01*
X186348333Y-99983628D02*
X186729285Y-99983628D01*
X185205476Y-100459819D02*
X185776904Y-100459819D01*
X185491190Y-100459819D02*
X185491190Y-99459819D01*
X185491190Y-99459819D02*
X185586428Y-99602676D01*
X185586428Y-99602676D02*
X185681666Y-99697914D01*
X185681666Y-99697914D02*
X185776904Y-99745533D01*
X184348333Y-99459819D02*
X184538809Y-99459819D01*
X184538809Y-99459819D02*
X184634047Y-99507438D01*
X184634047Y-99507438D02*
X184681666Y-99555057D01*
X184681666Y-99555057D02*
X184776904Y-99697914D01*
X184776904Y-99697914D02*
X184824523Y-99888390D01*
X184824523Y-99888390D02*
X184824523Y-100269342D01*
X184824523Y-100269342D02*
X184776904Y-100364580D01*
X184776904Y-100364580D02*
X184729285Y-100412200D01*
X184729285Y-100412200D02*
X184634047Y-100459819D01*
X184634047Y-100459819D02*
X184443571Y-100459819D01*
X184443571Y-100459819D02*
X184348333Y-100412200D01*
X184348333Y-100412200D02*
X184300714Y-100364580D01*
X184300714Y-100364580D02*
X184253095Y-100269342D01*
X184253095Y-100269342D02*
X184253095Y-100031247D01*
X184253095Y-100031247D02*
X184300714Y-99936009D01*
X184300714Y-99936009D02*
X184348333Y-99888390D01*
X184348333Y-99888390D02*
X184443571Y-99840771D01*
X184443571Y-99840771D02*
X184634047Y-99840771D01*
X184634047Y-99840771D02*
X184729285Y-99888390D01*
X184729285Y-99888390D02*
X184776904Y-99936009D01*
X184776904Y-99936009D02*
X184824523Y-100031247D01*
X109829765Y-94234285D02*
X109877384Y-94377142D01*
X109877384Y-94377142D02*
X109925003Y-94424761D01*
X109925003Y-94424761D02*
X110020241Y-94472380D01*
X110020241Y-94472380D02*
X110163098Y-94472380D01*
X110163098Y-94472380D02*
X110258336Y-94424761D01*
X110258336Y-94424761D02*
X110305956Y-94377142D01*
X110305956Y-94377142D02*
X110353575Y-94281904D01*
X110353575Y-94281904D02*
X110353575Y-93900952D01*
X110353575Y-93900952D02*
X109353575Y-93900952D01*
X109353575Y-93900952D02*
X109353575Y-94234285D01*
X109353575Y-94234285D02*
X109401194Y-94329523D01*
X109401194Y-94329523D02*
X109448813Y-94377142D01*
X109448813Y-94377142D02*
X109544051Y-94424761D01*
X109544051Y-94424761D02*
X109639289Y-94424761D01*
X109639289Y-94424761D02*
X109734527Y-94377142D01*
X109734527Y-94377142D02*
X109782146Y-94329523D01*
X109782146Y-94329523D02*
X109829765Y-94234285D01*
X109829765Y-94234285D02*
X109829765Y-93900952D01*
X109353575Y-94758095D02*
X109353575Y-95329523D01*
X110353575Y-95043809D02*
X109353575Y-95043809D01*
X110353575Y-96186666D02*
X110353575Y-95615238D01*
X110353575Y-95900952D02*
X109353575Y-95900952D01*
X109353575Y-95900952D02*
X109496432Y-95805714D01*
X109496432Y-95805714D02*
X109591670Y-95710476D01*
X109591670Y-95710476D02*
X109639289Y-95615238D01*
X177267857Y-102364819D02*
X177601190Y-101888628D01*
X177839285Y-102364819D02*
X177839285Y-101364819D01*
X177839285Y-101364819D02*
X177458333Y-101364819D01*
X177458333Y-101364819D02*
X177363095Y-101412438D01*
X177363095Y-101412438D02*
X177315476Y-101460057D01*
X177315476Y-101460057D02*
X177267857Y-101555295D01*
X177267857Y-101555295D02*
X177267857Y-101698152D01*
X177267857Y-101698152D02*
X177315476Y-101793390D01*
X177315476Y-101793390D02*
X177363095Y-101841009D01*
X177363095Y-101841009D02*
X177458333Y-101888628D01*
X177458333Y-101888628D02*
X177839285Y-101888628D01*
X176315476Y-102364819D02*
X176886904Y-102364819D01*
X176601190Y-102364819D02*
X176601190Y-101364819D01*
X176601190Y-101364819D02*
X176696428Y-101507676D01*
X176696428Y-101507676D02*
X176791666Y-101602914D01*
X176791666Y-101602914D02*
X176886904Y-101650533D01*
X175410714Y-101364819D02*
X175886904Y-101364819D01*
X175886904Y-101364819D02*
X175934523Y-101841009D01*
X175934523Y-101841009D02*
X175886904Y-101793390D01*
X175886904Y-101793390D02*
X175791666Y-101745771D01*
X175791666Y-101745771D02*
X175553571Y-101745771D01*
X175553571Y-101745771D02*
X175458333Y-101793390D01*
X175458333Y-101793390D02*
X175410714Y-101841009D01*
X175410714Y-101841009D02*
X175363095Y-101936247D01*
X175363095Y-101936247D02*
X175363095Y-102174342D01*
X175363095Y-102174342D02*
X175410714Y-102269580D01*
X175410714Y-102269580D02*
X175458333Y-102317200D01*
X175458333Y-102317200D02*
X175553571Y-102364819D01*
X175553571Y-102364819D02*
X175791666Y-102364819D01*
X175791666Y-102364819D02*
X175886904Y-102317200D01*
X175886904Y-102317200D02*
X175934523Y-102269580D01*
X172187857Y-94649580D02*
X172235476Y-94697200D01*
X172235476Y-94697200D02*
X172378333Y-94744819D01*
X172378333Y-94744819D02*
X172473571Y-94744819D01*
X172473571Y-94744819D02*
X172616428Y-94697200D01*
X172616428Y-94697200D02*
X172711666Y-94601961D01*
X172711666Y-94601961D02*
X172759285Y-94506723D01*
X172759285Y-94506723D02*
X172806904Y-94316247D01*
X172806904Y-94316247D02*
X172806904Y-94173390D01*
X172806904Y-94173390D02*
X172759285Y-93982914D01*
X172759285Y-93982914D02*
X172711666Y-93887676D01*
X172711666Y-93887676D02*
X172616428Y-93792438D01*
X172616428Y-93792438D02*
X172473571Y-93744819D01*
X172473571Y-93744819D02*
X172378333Y-93744819D01*
X172378333Y-93744819D02*
X172235476Y-93792438D01*
X172235476Y-93792438D02*
X172187857Y-93840057D01*
X171235476Y-94744819D02*
X171806904Y-94744819D01*
X171521190Y-94744819D02*
X171521190Y-93744819D01*
X171521190Y-93744819D02*
X171616428Y-93887676D01*
X171616428Y-93887676D02*
X171711666Y-93982914D01*
X171711666Y-93982914D02*
X171806904Y-94030533D01*
X170902142Y-93744819D02*
X170283095Y-93744819D01*
X170283095Y-93744819D02*
X170616428Y-94125771D01*
X170616428Y-94125771D02*
X170473571Y-94125771D01*
X170473571Y-94125771D02*
X170378333Y-94173390D01*
X170378333Y-94173390D02*
X170330714Y-94221009D01*
X170330714Y-94221009D02*
X170283095Y-94316247D01*
X170283095Y-94316247D02*
X170283095Y-94554342D01*
X170283095Y-94554342D02*
X170330714Y-94649580D01*
X170330714Y-94649580D02*
X170378333Y-94697200D01*
X170378333Y-94697200D02*
X170473571Y-94744819D01*
X170473571Y-94744819D02*
X170759285Y-94744819D01*
X170759285Y-94744819D02*
X170854523Y-94697200D01*
X170854523Y-94697200D02*
X170902142Y-94649580D01*
X186157857Y-98554819D02*
X186491190Y-98078628D01*
X186729285Y-98554819D02*
X186729285Y-97554819D01*
X186729285Y-97554819D02*
X186348333Y-97554819D01*
X186348333Y-97554819D02*
X186253095Y-97602438D01*
X186253095Y-97602438D02*
X186205476Y-97650057D01*
X186205476Y-97650057D02*
X186157857Y-97745295D01*
X186157857Y-97745295D02*
X186157857Y-97888152D01*
X186157857Y-97888152D02*
X186205476Y-97983390D01*
X186205476Y-97983390D02*
X186253095Y-98031009D01*
X186253095Y-98031009D02*
X186348333Y-98078628D01*
X186348333Y-98078628D02*
X186729285Y-98078628D01*
X185776904Y-97650057D02*
X185729285Y-97602438D01*
X185729285Y-97602438D02*
X185634047Y-97554819D01*
X185634047Y-97554819D02*
X185395952Y-97554819D01*
X185395952Y-97554819D02*
X185300714Y-97602438D01*
X185300714Y-97602438D02*
X185253095Y-97650057D01*
X185253095Y-97650057D02*
X185205476Y-97745295D01*
X185205476Y-97745295D02*
X185205476Y-97840533D01*
X185205476Y-97840533D02*
X185253095Y-97983390D01*
X185253095Y-97983390D02*
X185824523Y-98554819D01*
X185824523Y-98554819D02*
X185205476Y-98554819D01*
X184586428Y-97554819D02*
X184491190Y-97554819D01*
X184491190Y-97554819D02*
X184395952Y-97602438D01*
X184395952Y-97602438D02*
X184348333Y-97650057D01*
X184348333Y-97650057D02*
X184300714Y-97745295D01*
X184300714Y-97745295D02*
X184253095Y-97935771D01*
X184253095Y-97935771D02*
X184253095Y-98173866D01*
X184253095Y-98173866D02*
X184300714Y-98364342D01*
X184300714Y-98364342D02*
X184348333Y-98459580D01*
X184348333Y-98459580D02*
X184395952Y-98507200D01*
X184395952Y-98507200D02*
X184491190Y-98554819D01*
X184491190Y-98554819D02*
X184586428Y-98554819D01*
X184586428Y-98554819D02*
X184681666Y-98507200D01*
X184681666Y-98507200D02*
X184729285Y-98459580D01*
X184729285Y-98459580D02*
X184776904Y-98364342D01*
X184776904Y-98364342D02*
X184824523Y-98173866D01*
X184824523Y-98173866D02*
X184824523Y-97935771D01*
X184824523Y-97935771D02*
X184776904Y-97745295D01*
X184776904Y-97745295D02*
X184729285Y-97650057D01*
X184729285Y-97650057D02*
X184681666Y-97602438D01*
X184681666Y-97602438D02*
X184586428Y-97554819D01*
X151264857Y-69923819D02*
X151598190Y-69447628D01*
X151836285Y-69923819D02*
X151836285Y-68923819D01*
X151836285Y-68923819D02*
X151455333Y-68923819D01*
X151455333Y-68923819D02*
X151360095Y-68971438D01*
X151360095Y-68971438D02*
X151312476Y-69019057D01*
X151312476Y-69019057D02*
X151264857Y-69114295D01*
X151264857Y-69114295D02*
X151264857Y-69257152D01*
X151264857Y-69257152D02*
X151312476Y-69352390D01*
X151312476Y-69352390D02*
X151360095Y-69400009D01*
X151360095Y-69400009D02*
X151455333Y-69447628D01*
X151455333Y-69447628D02*
X151836285Y-69447628D01*
X150931523Y-68923819D02*
X150312476Y-68923819D01*
X150312476Y-68923819D02*
X150645809Y-69304771D01*
X150645809Y-69304771D02*
X150502952Y-69304771D01*
X150502952Y-69304771D02*
X150407714Y-69352390D01*
X150407714Y-69352390D02*
X150360095Y-69400009D01*
X150360095Y-69400009D02*
X150312476Y-69495247D01*
X150312476Y-69495247D02*
X150312476Y-69733342D01*
X150312476Y-69733342D02*
X150360095Y-69828580D01*
X150360095Y-69828580D02*
X150407714Y-69876200D01*
X150407714Y-69876200D02*
X150502952Y-69923819D01*
X150502952Y-69923819D02*
X150788666Y-69923819D01*
X150788666Y-69923819D02*
X150883904Y-69876200D01*
X150883904Y-69876200D02*
X150931523Y-69828580D01*
X149360095Y-69923819D02*
X149931523Y-69923819D01*
X149645809Y-69923819D02*
X149645809Y-68923819D01*
X149645809Y-68923819D02*
X149741047Y-69066676D01*
X149741047Y-69066676D02*
X149836285Y-69161914D01*
X149836285Y-69161914D02*
X149931523Y-69209533D01*
X152026666Y-83789819D02*
X152359999Y-83313628D01*
X152598094Y-83789819D02*
X152598094Y-82789819D01*
X152598094Y-82789819D02*
X152217142Y-82789819D01*
X152217142Y-82789819D02*
X152121904Y-82837438D01*
X152121904Y-82837438D02*
X152074285Y-82885057D01*
X152074285Y-82885057D02*
X152026666Y-82980295D01*
X152026666Y-82980295D02*
X152026666Y-83123152D01*
X152026666Y-83123152D02*
X152074285Y-83218390D01*
X152074285Y-83218390D02*
X152121904Y-83266009D01*
X152121904Y-83266009D02*
X152217142Y-83313628D01*
X152217142Y-83313628D02*
X152598094Y-83313628D01*
X151550475Y-83789819D02*
X151359999Y-83789819D01*
X151359999Y-83789819D02*
X151264761Y-83742200D01*
X151264761Y-83742200D02*
X151217142Y-83694580D01*
X151217142Y-83694580D02*
X151121904Y-83551723D01*
X151121904Y-83551723D02*
X151074285Y-83361247D01*
X151074285Y-83361247D02*
X151074285Y-82980295D01*
X151074285Y-82980295D02*
X151121904Y-82885057D01*
X151121904Y-82885057D02*
X151169523Y-82837438D01*
X151169523Y-82837438D02*
X151264761Y-82789819D01*
X151264761Y-82789819D02*
X151455237Y-82789819D01*
X151455237Y-82789819D02*
X151550475Y-82837438D01*
X151550475Y-82837438D02*
X151598094Y-82885057D01*
X151598094Y-82885057D02*
X151645713Y-82980295D01*
X151645713Y-82980295D02*
X151645713Y-83218390D01*
X151645713Y-83218390D02*
X151598094Y-83313628D01*
X151598094Y-83313628D02*
X151550475Y-83361247D01*
X151550475Y-83361247D02*
X151455237Y-83408866D01*
X151455237Y-83408866D02*
X151264761Y-83408866D01*
X151264761Y-83408866D02*
X151169523Y-83361247D01*
X151169523Y-83361247D02*
X151121904Y-83313628D01*
X151121904Y-83313628D02*
X151074285Y-83218390D01*
X127737857Y-99729580D02*
X127785476Y-99777200D01*
X127785476Y-99777200D02*
X127928333Y-99824819D01*
X127928333Y-99824819D02*
X128023571Y-99824819D01*
X128023571Y-99824819D02*
X128166428Y-99777200D01*
X128166428Y-99777200D02*
X128261666Y-99681961D01*
X128261666Y-99681961D02*
X128309285Y-99586723D01*
X128309285Y-99586723D02*
X128356904Y-99396247D01*
X128356904Y-99396247D02*
X128356904Y-99253390D01*
X128356904Y-99253390D02*
X128309285Y-99062914D01*
X128309285Y-99062914D02*
X128261666Y-98967676D01*
X128261666Y-98967676D02*
X128166428Y-98872438D01*
X128166428Y-98872438D02*
X128023571Y-98824819D01*
X128023571Y-98824819D02*
X127928333Y-98824819D01*
X127928333Y-98824819D02*
X127785476Y-98872438D01*
X127785476Y-98872438D02*
X127737857Y-98920057D01*
X126785476Y-99824819D02*
X127356904Y-99824819D01*
X127071190Y-99824819D02*
X127071190Y-98824819D01*
X127071190Y-98824819D02*
X127166428Y-98967676D01*
X127166428Y-98967676D02*
X127261666Y-99062914D01*
X127261666Y-99062914D02*
X127356904Y-99110533D01*
X126214047Y-99253390D02*
X126309285Y-99205771D01*
X126309285Y-99205771D02*
X126356904Y-99158152D01*
X126356904Y-99158152D02*
X126404523Y-99062914D01*
X126404523Y-99062914D02*
X126404523Y-99015295D01*
X126404523Y-99015295D02*
X126356904Y-98920057D01*
X126356904Y-98920057D02*
X126309285Y-98872438D01*
X126309285Y-98872438D02*
X126214047Y-98824819D01*
X126214047Y-98824819D02*
X126023571Y-98824819D01*
X126023571Y-98824819D02*
X125928333Y-98872438D01*
X125928333Y-98872438D02*
X125880714Y-98920057D01*
X125880714Y-98920057D02*
X125833095Y-99015295D01*
X125833095Y-99015295D02*
X125833095Y-99062914D01*
X125833095Y-99062914D02*
X125880714Y-99158152D01*
X125880714Y-99158152D02*
X125928333Y-99205771D01*
X125928333Y-99205771D02*
X126023571Y-99253390D01*
X126023571Y-99253390D02*
X126214047Y-99253390D01*
X126214047Y-99253390D02*
X126309285Y-99301009D01*
X126309285Y-99301009D02*
X126356904Y-99348628D01*
X126356904Y-99348628D02*
X126404523Y-99443866D01*
X126404523Y-99443866D02*
X126404523Y-99634342D01*
X126404523Y-99634342D02*
X126356904Y-99729580D01*
X126356904Y-99729580D02*
X126309285Y-99777200D01*
X126309285Y-99777200D02*
X126214047Y-99824819D01*
X126214047Y-99824819D02*
X126023571Y-99824819D01*
X126023571Y-99824819D02*
X125928333Y-99777200D01*
X125928333Y-99777200D02*
X125880714Y-99729580D01*
X125880714Y-99729580D02*
X125833095Y-99634342D01*
X125833095Y-99634342D02*
X125833095Y-99443866D01*
X125833095Y-99443866D02*
X125880714Y-99348628D01*
X125880714Y-99348628D02*
X125928333Y-99301009D01*
X125928333Y-99301009D02*
X126023571Y-99253390D01*
X163424857Y-77980819D02*
X163758190Y-77504628D01*
X163996285Y-77980819D02*
X163996285Y-76980819D01*
X163996285Y-76980819D02*
X163615333Y-76980819D01*
X163615333Y-76980819D02*
X163520095Y-77028438D01*
X163520095Y-77028438D02*
X163472476Y-77076057D01*
X163472476Y-77076057D02*
X163424857Y-77171295D01*
X163424857Y-77171295D02*
X163424857Y-77314152D01*
X163424857Y-77314152D02*
X163472476Y-77409390D01*
X163472476Y-77409390D02*
X163520095Y-77457009D01*
X163520095Y-77457009D02*
X163615333Y-77504628D01*
X163615333Y-77504628D02*
X163996285Y-77504628D01*
X162472476Y-77980819D02*
X163043904Y-77980819D01*
X162758190Y-77980819D02*
X162758190Y-76980819D01*
X162758190Y-76980819D02*
X162853428Y-77123676D01*
X162853428Y-77123676D02*
X162948666Y-77218914D01*
X162948666Y-77218914D02*
X163043904Y-77266533D01*
X162091523Y-77076057D02*
X162043904Y-77028438D01*
X162043904Y-77028438D02*
X161948666Y-76980819D01*
X161948666Y-76980819D02*
X161710571Y-76980819D01*
X161710571Y-76980819D02*
X161615333Y-77028438D01*
X161615333Y-77028438D02*
X161567714Y-77076057D01*
X161567714Y-77076057D02*
X161520095Y-77171295D01*
X161520095Y-77171295D02*
X161520095Y-77266533D01*
X161520095Y-77266533D02*
X161567714Y-77409390D01*
X161567714Y-77409390D02*
X162139142Y-77980819D01*
X162139142Y-77980819D02*
X161520095Y-77980819D01*
X137548666Y-79631819D02*
X137881999Y-79155628D01*
X138120094Y-79631819D02*
X138120094Y-78631819D01*
X138120094Y-78631819D02*
X137739142Y-78631819D01*
X137739142Y-78631819D02*
X137643904Y-78679438D01*
X137643904Y-78679438D02*
X137596285Y-78727057D01*
X137596285Y-78727057D02*
X137548666Y-78822295D01*
X137548666Y-78822295D02*
X137548666Y-78965152D01*
X137548666Y-78965152D02*
X137596285Y-79060390D01*
X137596285Y-79060390D02*
X137643904Y-79108009D01*
X137643904Y-79108009D02*
X137739142Y-79155628D01*
X137739142Y-79155628D02*
X138120094Y-79155628D01*
X136977237Y-79060390D02*
X137072475Y-79012771D01*
X137072475Y-79012771D02*
X137120094Y-78965152D01*
X137120094Y-78965152D02*
X137167713Y-78869914D01*
X137167713Y-78869914D02*
X137167713Y-78822295D01*
X137167713Y-78822295D02*
X137120094Y-78727057D01*
X137120094Y-78727057D02*
X137072475Y-78679438D01*
X137072475Y-78679438D02*
X136977237Y-78631819D01*
X136977237Y-78631819D02*
X136786761Y-78631819D01*
X136786761Y-78631819D02*
X136691523Y-78679438D01*
X136691523Y-78679438D02*
X136643904Y-78727057D01*
X136643904Y-78727057D02*
X136596285Y-78822295D01*
X136596285Y-78822295D02*
X136596285Y-78869914D01*
X136596285Y-78869914D02*
X136643904Y-78965152D01*
X136643904Y-78965152D02*
X136691523Y-79012771D01*
X136691523Y-79012771D02*
X136786761Y-79060390D01*
X136786761Y-79060390D02*
X136977237Y-79060390D01*
X136977237Y-79060390D02*
X137072475Y-79108009D01*
X137072475Y-79108009D02*
X137120094Y-79155628D01*
X137120094Y-79155628D02*
X137167713Y-79250866D01*
X137167713Y-79250866D02*
X137167713Y-79441342D01*
X137167713Y-79441342D02*
X137120094Y-79536580D01*
X137120094Y-79536580D02*
X137072475Y-79584200D01*
X137072475Y-79584200D02*
X136977237Y-79631819D01*
X136977237Y-79631819D02*
X136786761Y-79631819D01*
X136786761Y-79631819D02*
X136691523Y-79584200D01*
X136691523Y-79584200D02*
X136643904Y-79536580D01*
X136643904Y-79536580D02*
X136596285Y-79441342D01*
X136596285Y-79441342D02*
X136596285Y-79250866D01*
X136596285Y-79250866D02*
X136643904Y-79155628D01*
X136643904Y-79155628D02*
X136691523Y-79108009D01*
X136691523Y-79108009D02*
X136786761Y-79060390D01*
X172187857Y-102364819D02*
X172521190Y-101888628D01*
X172759285Y-102364819D02*
X172759285Y-101364819D01*
X172759285Y-101364819D02*
X172378333Y-101364819D01*
X172378333Y-101364819D02*
X172283095Y-101412438D01*
X172283095Y-101412438D02*
X172235476Y-101460057D01*
X172235476Y-101460057D02*
X172187857Y-101555295D01*
X172187857Y-101555295D02*
X172187857Y-101698152D01*
X172187857Y-101698152D02*
X172235476Y-101793390D01*
X172235476Y-101793390D02*
X172283095Y-101841009D01*
X172283095Y-101841009D02*
X172378333Y-101888628D01*
X172378333Y-101888628D02*
X172759285Y-101888628D01*
X171235476Y-102364819D02*
X171806904Y-102364819D01*
X171521190Y-102364819D02*
X171521190Y-101364819D01*
X171521190Y-101364819D02*
X171616428Y-101507676D01*
X171616428Y-101507676D02*
X171711666Y-101602914D01*
X171711666Y-101602914D02*
X171806904Y-101650533D01*
X170378333Y-101698152D02*
X170378333Y-102364819D01*
X170616428Y-101317200D02*
X170854523Y-102031485D01*
X170854523Y-102031485D02*
X170235476Y-102031485D01*
D11*
%TO.C,R21*%
X116697742Y-104562500D02*
X117172258Y-104562500D01*
X116697742Y-105607500D02*
X117172258Y-105607500D01*
%TO.C,R27*%
X127332258Y-102657500D02*
X126857742Y-102657500D01*
X127332258Y-103702500D02*
X126857742Y-103702500D01*
%TO.C,R25*%
X117172258Y-102657500D02*
X116697742Y-102657500D01*
X117172258Y-103702500D02*
X116697742Y-103702500D01*
%TO.C,R28*%
X132412258Y-102530500D02*
X131937742Y-102530500D01*
X132412258Y-103575500D02*
X131937742Y-103575500D01*
%TO.C,J1*%
X143654000Y-101256000D02*
X143654000Y-97626000D01*
X143719000Y-97626000D02*
X143654000Y-97626000D01*
X143719000Y-101256000D02*
X143654000Y-101256000D01*
X156509000Y-102531000D02*
X156509000Y-101256000D01*
X156574000Y-97626000D02*
X156509000Y-97626000D01*
X156574000Y-101256000D02*
X156509000Y-101256000D01*
X156574000Y-101256000D02*
X156574000Y-97626000D01*
%TO.C,R22*%
X121777742Y-104562500D02*
X122252258Y-104562500D01*
X121777742Y-105607500D02*
X122252258Y-105607500D01*
%TO.C,C12*%
X166324420Y-95685000D02*
X166605580Y-95685000D01*
X166324420Y-96705000D02*
X166605580Y-96705000D01*
%TO.C,R24*%
X131937742Y-104435500D02*
X132412258Y-104435500D01*
X131937742Y-105480500D02*
X132412258Y-105480500D01*
%TO.C,C15*%
X181564420Y-95685000D02*
X181845580Y-95685000D01*
X181564420Y-96705000D02*
X181845580Y-96705000D01*
%TO.C,R19*%
X176862258Y-97577500D02*
X176387742Y-97577500D01*
X176862258Y-98622500D02*
X176387742Y-98622500D01*
%TO.C,R13*%
X166227742Y-99482500D02*
X166702258Y-99482500D01*
X166227742Y-100527500D02*
X166702258Y-100527500D01*
%TO.C,R18*%
X171782258Y-97577500D02*
X171307742Y-97577500D01*
X171782258Y-98622500D02*
X171307742Y-98622500D01*
%TO.C,C22*%
X146671420Y-65149000D02*
X146952580Y-65149000D01*
X146671420Y-66169000D02*
X146952580Y-66169000D01*
%TO.C,R34*%
X147049258Y-67041500D02*
X146574742Y-67041500D01*
X147049258Y-68086500D02*
X146574742Y-68086500D01*
%TO.C,R23*%
X126857742Y-104562500D02*
X127332258Y-104562500D01*
X126857742Y-105607500D02*
X127332258Y-105607500D01*
%TO.C,C17*%
X121874420Y-100765000D02*
X122155580Y-100765000D01*
X121874420Y-101785000D02*
X122155580Y-101785000D01*
%TO.C,R10*%
X159369742Y-78908500D02*
X159844258Y-78908500D01*
X159369742Y-79953500D02*
X159844258Y-79953500D01*
%TO.C,C2*%
X157126000Y-105529748D02*
X157126000Y-106052252D01*
X158596000Y-105529748D02*
X158596000Y-106052252D01*
%TO.C,C1*%
X154840000Y-89019748D02*
X154840000Y-89542252D01*
X156310000Y-89019748D02*
X156310000Y-89542252D01*
%TO.C,R26*%
X122252258Y-102657500D02*
X121777742Y-102657500D01*
X122252258Y-103702500D02*
X121777742Y-103702500D01*
%TO.C,C19*%
X132034420Y-100638000D02*
X132315580Y-100638000D01*
X132034420Y-101658000D02*
X132315580Y-101658000D01*
%TO.C,C14*%
X176484420Y-95685000D02*
X176765580Y-95685000D01*
X176484420Y-96705000D02*
X176765580Y-96705000D01*
%TO.C,R6*%
X148287258Y-84242500D02*
X147812742Y-84242500D01*
X148287258Y-85287500D02*
X147812742Y-85287500D01*
D10*
%TO.C,SW_RT1*%
X159025000Y-82025000D02*
X159025000Y-90025000D01*
X159025000Y-90025000D02*
X167025000Y-90025000D01*
X167025000Y-82025000D02*
X159025000Y-82025000D01*
X167025000Y-90025000D02*
X167025000Y-82025000D01*
D11*
%TO.C,R7*%
X140794258Y-76749500D02*
X140319742Y-76749500D01*
X140794258Y-77794500D02*
X140319742Y-77794500D01*
%TO.C,C16*%
X116794420Y-100765000D02*
X117075580Y-100765000D01*
X116794420Y-101785000D02*
X117075580Y-101785000D01*
%TO.C,R17*%
X166702258Y-97577500D02*
X166227742Y-97577500D01*
X166702258Y-98622500D02*
X166227742Y-98622500D01*
D10*
%TO.C,SW_LT1*%
X132975000Y-82020000D02*
X132975000Y-90020000D01*
X132975000Y-90020000D02*
X140975000Y-90020000D01*
X140975000Y-82020000D02*
X132975000Y-82020000D01*
X140975000Y-90020000D02*
X140975000Y-82020000D01*
D11*
%TO.C,R16*%
X181467742Y-99482500D02*
X181942258Y-99482500D01*
X181467742Y-100527500D02*
X181942258Y-100527500D01*
%TO.C,BT1*%
X90698756Y-93620000D02*
X90698756Y-100320000D01*
X90698756Y-114720000D02*
X90698756Y-108020000D01*
X97448756Y-88620000D02*
X102948756Y-88620000D01*
X97448756Y-93420000D02*
X97448756Y-88620000D01*
X97448756Y-119720000D02*
X97448756Y-114920000D01*
X102948756Y-88620000D02*
X102948756Y-93420000D01*
X102948756Y-114920000D02*
X102948756Y-119720000D01*
X102948756Y-119720000D02*
X97448756Y-119720000D01*
X106248756Y-93370000D02*
X111048756Y-100220000D01*
X111048756Y-100220000D02*
X111048756Y-108120000D01*
X111048756Y-108120000D02*
X106248756Y-114920000D01*
X90698756Y-108020000D02*
G75*
G02*
X90697292Y-100323615I9500000J3850000D01*
G01*
%TO.C,R15*%
X176387742Y-99482500D02*
X176862258Y-99482500D01*
X176387742Y-100527500D02*
X176862258Y-100527500D01*
%TO.C,C13*%
X171404420Y-95685000D02*
X171685580Y-95685000D01*
X171404420Y-96705000D02*
X171685580Y-96705000D01*
%TO.C,R20*%
X181942258Y-97577500D02*
X181467742Y-97577500D01*
X181942258Y-98622500D02*
X181467742Y-98622500D01*
%TO.C,R31*%
X146574742Y-68946500D02*
X147049258Y-68946500D01*
X146574742Y-69991500D02*
X147049258Y-69991500D01*
%TO.C,R9*%
X152097258Y-84242500D02*
X151622742Y-84242500D01*
X152097258Y-85287500D02*
X151622742Y-85287500D01*
%TO.C,C18*%
X126954420Y-100765000D02*
X127235580Y-100765000D01*
X126954420Y-101785000D02*
X127235580Y-101785000D01*
%TO.C,R12*%
X159369742Y-77003500D02*
X159844258Y-77003500D01*
X159369742Y-78048500D02*
X159844258Y-78048500D01*
%TO.C,R8*%
X140794258Y-78654500D02*
X140319742Y-78654500D01*
X140794258Y-79699500D02*
X140319742Y-79699500D01*
%TO.C,R14*%
X171307742Y-99482500D02*
X171782258Y-99482500D01*
X171307742Y-100527500D02*
X171782258Y-100527500D01*
%TD*%
%LPC*%
%TO.C,SW_RT1*%
X167089000Y-81961000D02*
X158961000Y-81961000D01*
X158961000Y-90089000D01*
X167089000Y-90089000D01*
X167089000Y-81961000D01*
G36*
X167089000Y-81961000D02*
G01*
X158961000Y-81961000D01*
X158961000Y-90089000D01*
X167089000Y-90089000D01*
X167089000Y-81961000D01*
G37*
%TO.C,SW_LT1*%
X141039000Y-81956000D02*
X132911000Y-81956000D01*
X132911000Y-90084000D01*
X141039000Y-90084000D01*
X141039000Y-81956000D01*
G36*
X141039000Y-81956000D02*
G01*
X132911000Y-81956000D01*
X132911000Y-90084000D01*
X141039000Y-90084000D01*
X141039000Y-81956000D01*
G37*
%TD*%
D12*
%TO.C,SW2*%
X178328600Y-123508600D03*
D13*
X176728600Y-118786600D03*
D12*
X171826200Y-123508600D03*
X171826200Y-118936600D03*
X183865800Y-110630800D03*
X183865800Y-113170800D03*
X183865800Y-115710800D03*
X172385000Y-104484000D03*
X174925000Y-104484000D03*
X177465000Y-104484000D03*
D14*
X181427400Y-108090800D03*
X181427400Y-118225400D03*
X168727400Y-118225400D03*
X168727400Y-108090800D03*
%TD*%
D15*
%TO.C,H7*%
X207075000Y-90320000D03*
%TD*%
%TO.C,H5*%
X144125000Y-120770000D03*
%TD*%
D16*
%TO.C,H4*%
X203275000Y-125120000D03*
%TD*%
%TO.C,H2*%
X188025000Y-82670000D03*
%TD*%
%TO.C,H8*%
X96675000Y-125120000D03*
%TD*%
%TO.C,H3*%
X96725000Y-71470000D03*
%TD*%
%TO.C,H9*%
X96675000Y-82670000D03*
%TD*%
D12*
%TO.C,SW1*%
X122363600Y-79266400D03*
D17*
X117641600Y-80866400D03*
D12*
X122363600Y-85768800D03*
X117791600Y-85768800D03*
X109485800Y-73729200D03*
X112025800Y-73729200D03*
X114565800Y-73729200D03*
X103339000Y-85210000D03*
X103339000Y-82670000D03*
X103339000Y-80130000D03*
D18*
X106945800Y-76167600D03*
X117080400Y-76167600D03*
X117080400Y-88867600D03*
X106945800Y-88867600D03*
%TD*%
D16*
%TO.C,H1*%
X125075000Y-113120000D03*
%TD*%
%TO.C,H6*%
X176575000Y-71420000D03*
%TD*%
D19*
%TO.C,R21*%
X116110000Y-105085000D03*
X117760000Y-105085000D03*
%TD*%
D20*
%TO.C,R27*%
X127920000Y-103180000D03*
X126270000Y-103180000D03*
%TD*%
%TO.C,R25*%
X117760000Y-103180000D03*
X116110000Y-103180000D03*
%TD*%
%TO.C,R28*%
X133000000Y-103053000D03*
X131350000Y-103053000D03*
%TD*%
D21*
%TO.C,J1*%
X155829000Y-101391000D03*
X155829000Y-97491000D03*
X154559000Y-101391000D03*
X154559000Y-97491000D03*
X153289000Y-101391000D03*
X153289000Y-97491000D03*
X152019000Y-101391000D03*
X152019000Y-97491000D03*
X150749000Y-101391000D03*
X150749000Y-97491000D03*
X149479000Y-101391000D03*
X149479000Y-97491000D03*
X148209000Y-101391000D03*
X148209000Y-97491000D03*
X146939000Y-101391000D03*
X146939000Y-97491000D03*
X145669000Y-101391000D03*
X145669000Y-97491000D03*
X144399000Y-101391000D03*
X144399000Y-97491000D03*
%TD*%
D19*
%TO.C,R22*%
X121190000Y-105085000D03*
X122840000Y-105085000D03*
%TD*%
D22*
%TO.C,C12*%
X165690000Y-96195000D03*
X167240000Y-96195000D03*
%TD*%
D19*
%TO.C,R24*%
X131350000Y-104958000D03*
X133000000Y-104958000D03*
%TD*%
D22*
%TO.C,C15*%
X180930000Y-96195000D03*
X182480000Y-96195000D03*
%TD*%
D20*
%TO.C,R19*%
X177450000Y-98100000D03*
X175800000Y-98100000D03*
%TD*%
D19*
%TO.C,R13*%
X165640000Y-100005000D03*
X167290000Y-100005000D03*
%TD*%
D20*
%TO.C,R18*%
X172370000Y-98100000D03*
X170720000Y-98100000D03*
%TD*%
D22*
%TO.C,C22*%
X146037000Y-65659000D03*
X147587000Y-65659000D03*
%TD*%
D20*
%TO.C,R34*%
X147637000Y-67564000D03*
X145987000Y-67564000D03*
%TD*%
D19*
%TO.C,R23*%
X126270000Y-105085000D03*
X127920000Y-105085000D03*
%TD*%
D22*
%TO.C,C17*%
X121240000Y-101275000D03*
X122790000Y-101275000D03*
%TD*%
D19*
%TO.C,R10*%
X158782000Y-79431000D03*
X160432000Y-79431000D03*
%TD*%
D23*
%TO.C,C2*%
X157861000Y-104841000D03*
X157861000Y-106741000D03*
%TD*%
%TO.C,C1*%
X155575000Y-88331000D03*
X155575000Y-90231000D03*
%TD*%
D20*
%TO.C,R26*%
X122840000Y-103180000D03*
X121190000Y-103180000D03*
%TD*%
D22*
%TO.C,C19*%
X131400000Y-101148000D03*
X132950000Y-101148000D03*
%TD*%
%TO.C,C14*%
X175850000Y-96195000D03*
X177400000Y-96195000D03*
%TD*%
D20*
%TO.C,R6*%
X148875000Y-84765000D03*
X147225000Y-84765000D03*
%TD*%
%TO.C,R7*%
X141382000Y-77272000D03*
X139732000Y-77272000D03*
%TD*%
D22*
%TO.C,C16*%
X116160000Y-101275000D03*
X117710000Y-101275000D03*
%TD*%
D20*
%TO.C,R17*%
X167290000Y-98100000D03*
X165640000Y-98100000D03*
%TD*%
D19*
%TO.C,R16*%
X180880000Y-100005000D03*
X182530000Y-100005000D03*
%TD*%
D24*
%TO.C,BT1*%
X100198756Y-91370000D03*
X100198756Y-116970000D03*
D25*
X100198756Y-104170000D03*
%TD*%
D19*
%TO.C,R15*%
X175800000Y-100005000D03*
X177450000Y-100005000D03*
%TD*%
D22*
%TO.C,C13*%
X170770000Y-96195000D03*
X172320000Y-96195000D03*
%TD*%
D20*
%TO.C,R20*%
X182530000Y-98100000D03*
X180880000Y-98100000D03*
%TD*%
D19*
%TO.C,R31*%
X145987000Y-69469000D03*
X147637000Y-69469000D03*
%TD*%
D20*
%TO.C,R9*%
X152685000Y-84765000D03*
X151035000Y-84765000D03*
%TD*%
D22*
%TO.C,C18*%
X126320000Y-101275000D03*
X127870000Y-101275000D03*
%TD*%
D19*
%TO.C,R12*%
X158782000Y-77526000D03*
X160432000Y-77526000D03*
%TD*%
D20*
%TO.C,R8*%
X141382000Y-79177000D03*
X139732000Y-79177000D03*
%TD*%
D19*
%TO.C,R14*%
X170720000Y-100005000D03*
X172370000Y-100005000D03*
%TD*%
%LPD*%
M02*
