%TF.GenerationSoftware,KiCad,Pcbnew,10.0.5*%
%TF.CreationDate,2026-09-14T16:50:40+01:00*%
%TF.ProjectId,gk-controls,676b2d63-6f6e-4747-926f-6c732e6b6963,rev?*%
%TF.SameCoordinates,Original*%
%TF.FileFunction,Legend,Top*%
%TF.FilePolarity,Positive*%
%FSLAX46Y46*%
G04 Gerber Fmt 4.6, Leading zero omitted, Abs format (unit mm)*
G04 Created by KiCad (PCBNEW 10.0.5) date 2026-09-14 16:50:40*
%MOMM*%
%LPD*%
G01*
G04 APERTURE LIST*
G04 Aperture macros list*
%AMRoundRect*
0 Rectangle with rounded corners*
0 $1 Rounding radius*
0 $2 $3 $4 $5 $6 $7 $8 $9 X,Y pos of 4 corners*
0 Add a 4 corners polygon primitive as box body*
4,1,4,$2,$3,$4,$5,$6,$7,$8,$9,$2,$3,0*
0 Add four circle primitives for the rounded corners*
1,1,$1+$1,$2,$3*
1,1,$1+$1,$4,$5*
1,1,$1+$1,$6,$7*
1,1,$1+$1,$8,$9*
0 Add four rect primitives between the rounded corners*
20,1,$1+$1,$2,$3,$4,$5,0*
20,1,$1+$1,$4,$5,$6,$7,0*
20,1,$1+$1,$6,$7,$8,$9,0*
20,1,$1+$1,$8,$9,$2,$3,0*%
%AMRotRect*
0 Rectangle, with rotation*
0 The origin of the aperture is its center*
0 $1 length*
0 $2 width*
0 $3 Rotation angle, in degrees counterclockwise*
0 Add horizontal line*
21,1,$1,$2,0,0,$3*%
G04 Aperture macros list end*
%ADD10C,0.100000*%
%ADD11C,0.150000*%
%ADD12C,0.120000*%
%ADD13RoundRect,0.200000X-0.200000X-0.275000X0.200000X-0.275000X0.200000X0.275000X-0.200000X0.275000X0*%
%ADD14C,1.800000*%
%ADD15O,5.000000X2.400000*%
%ADD16O,1.800000X2.300000*%
%ADD17C,2.700000*%
%ADD18RoundRect,0.225000X-0.225000X-0.250000X0.225000X-0.250000X0.225000X0.250000X-0.225000X0.250000X0*%
%ADD19RoundRect,0.225000X0.250000X-0.225000X0.250000X0.225000X-0.250000X0.225000X-0.250000X-0.225000X0*%
%ADD20RoundRect,0.200000X0.200000X0.275000X-0.200000X0.275000X-0.200000X-0.275000X0.200000X-0.275000X0*%
%ADD21R,1.700000X1.700000*%
%ADD22RoundRect,0.250000X-0.525000X-0.250000X0.525000X-0.250000X0.525000X0.250000X-0.525000X0.250000X0*%
%ADD23RoundRect,0.150000X0.150000X-0.825000X0.150000X0.825000X-0.150000X0.825000X-0.150000X-0.825000X0*%
%ADD24C,3.200000*%
%ADD25RotRect,0.900000X0.800000X135.000000*%
%ADD26RoundRect,0.225000X0.225000X0.250000X-0.225000X0.250000X-0.225000X-0.250000X0.225000X-0.250000X0*%
%ADD27R,0.300000X1.100000*%
%ADD28R,2.300000X3.100000*%
%ADD29RoundRect,0.100000X-0.637500X-0.100000X0.637500X-0.100000X0.637500X0.100000X-0.637500X0.100000X0*%
%ADD30RotRect,0.900000X0.800000X45.000000*%
%ADD31O,2.400000X5.000000*%
%ADD32O,2.300000X1.800000*%
%ADD33RoundRect,0.062500X0.375000X0.062500X-0.375000X0.062500X-0.375000X-0.062500X0.375000X-0.062500X0*%
%ADD34RoundRect,0.062500X0.062500X0.375000X-0.062500X0.375000X-0.062500X-0.375000X0.062500X-0.375000X0*%
%ADD35R,1.600000X1.600000*%
G04 APERTURE END LIST*
D10*
X192024000Y-103632000D02*
X192278000Y-104140000D01*
D11*
X102735142Y-73345219D02*
X102401809Y-72869028D01*
X102163714Y-73345219D02*
X102163714Y-72345219D01*
X102163714Y-72345219D02*
X102544666Y-72345219D01*
X102544666Y-72345219D02*
X102639904Y-72392838D01*
X102639904Y-72392838D02*
X102687523Y-72440457D01*
X102687523Y-72440457D02*
X102735142Y-72535695D01*
X102735142Y-72535695D02*
X102735142Y-72678552D01*
X102735142Y-72678552D02*
X102687523Y-72773790D01*
X102687523Y-72773790D02*
X102639904Y-72821409D01*
X102639904Y-72821409D02*
X102544666Y-72869028D01*
X102544666Y-72869028D02*
X102163714Y-72869028D01*
X103592285Y-72678552D02*
X103592285Y-73345219D01*
X103354190Y-72297600D02*
X103116095Y-73011885D01*
X103116095Y-73011885D02*
X103735142Y-73011885D01*
X104020857Y-72345219D02*
X104687523Y-72345219D01*
X104687523Y-72345219D02*
X104258952Y-73345219D01*
D10*
X185691200Y-111786667D02*
X185643580Y-111929524D01*
X185643580Y-111929524D02*
X185643580Y-112167619D01*
X185643580Y-112167619D02*
X185691200Y-112262857D01*
X185691200Y-112262857D02*
X185738819Y-112310476D01*
X185738819Y-112310476D02*
X185834057Y-112358095D01*
X185834057Y-112358095D02*
X185929295Y-112358095D01*
X185929295Y-112358095D02*
X186024533Y-112310476D01*
X186024533Y-112310476D02*
X186072152Y-112262857D01*
X186072152Y-112262857D02*
X186119771Y-112167619D01*
X186119771Y-112167619D02*
X186167390Y-111977143D01*
X186167390Y-111977143D02*
X186215009Y-111881905D01*
X186215009Y-111881905D02*
X186262628Y-111834286D01*
X186262628Y-111834286D02*
X186357866Y-111786667D01*
X186357866Y-111786667D02*
X186453104Y-111786667D01*
X186453104Y-111786667D02*
X186548342Y-111834286D01*
X186548342Y-111834286D02*
X186595961Y-111881905D01*
X186595961Y-111881905D02*
X186643580Y-111977143D01*
X186643580Y-111977143D02*
X186643580Y-112215238D01*
X186643580Y-112215238D02*
X186595961Y-112358095D01*
X186643580Y-112691429D02*
X185643580Y-112929524D01*
X185643580Y-112929524D02*
X186357866Y-113120000D01*
X186357866Y-113120000D02*
X185643580Y-113310476D01*
X185643580Y-113310476D02*
X186643580Y-113548572D01*
X186548342Y-113881905D02*
X186595961Y-113929524D01*
X186595961Y-113929524D02*
X186643580Y-114024762D01*
X186643580Y-114024762D02*
X186643580Y-114262857D01*
X186643580Y-114262857D02*
X186595961Y-114358095D01*
X186595961Y-114358095D02*
X186548342Y-114405714D01*
X186548342Y-114405714D02*
X186453104Y-114453333D01*
X186453104Y-114453333D02*
X186357866Y-114453333D01*
X186357866Y-114453333D02*
X186215009Y-114405714D01*
X186215009Y-114405714D02*
X185643580Y-113834286D01*
X185643580Y-113834286D02*
X185643580Y-114453333D01*
D11*
X121243095Y-89407419D02*
X121243095Y-88407419D01*
X121243095Y-88883609D02*
X121814523Y-88883609D01*
X121814523Y-89407419D02*
X121814523Y-88407419D01*
X122766904Y-88407419D02*
X122290714Y-88407419D01*
X122290714Y-88407419D02*
X122243095Y-88883609D01*
X122243095Y-88883609D02*
X122290714Y-88835990D01*
X122290714Y-88835990D02*
X122385952Y-88788371D01*
X122385952Y-88788371D02*
X122624047Y-88788371D01*
X122624047Y-88788371D02*
X122719285Y-88835990D01*
X122719285Y-88835990D02*
X122766904Y-88883609D01*
X122766904Y-88883609D02*
X122814523Y-88978847D01*
X122814523Y-88978847D02*
X122814523Y-89216942D01*
X122814523Y-89216942D02*
X122766904Y-89312180D01*
X122766904Y-89312180D02*
X122719285Y-89359800D01*
X122719285Y-89359800D02*
X122624047Y-89407419D01*
X122624047Y-89407419D02*
X122385952Y-89407419D01*
X122385952Y-89407419D02*
X122290714Y-89359800D01*
X122290714Y-89359800D02*
X122243095Y-89312180D01*
X152360142Y-125097819D02*
X152026809Y-124621628D01*
X151788714Y-125097819D02*
X151788714Y-124097819D01*
X151788714Y-124097819D02*
X152169666Y-124097819D01*
X152169666Y-124097819D02*
X152264904Y-124145438D01*
X152264904Y-124145438D02*
X152312523Y-124193057D01*
X152312523Y-124193057D02*
X152360142Y-124288295D01*
X152360142Y-124288295D02*
X152360142Y-124431152D01*
X152360142Y-124431152D02*
X152312523Y-124526390D01*
X152312523Y-124526390D02*
X152264904Y-124574009D01*
X152264904Y-124574009D02*
X152169666Y-124621628D01*
X152169666Y-124621628D02*
X151788714Y-124621628D01*
X152693476Y-124097819D02*
X153312523Y-124097819D01*
X153312523Y-124097819D02*
X152979190Y-124478771D01*
X152979190Y-124478771D02*
X153122047Y-124478771D01*
X153122047Y-124478771D02*
X153217285Y-124526390D01*
X153217285Y-124526390D02*
X153264904Y-124574009D01*
X153264904Y-124574009D02*
X153312523Y-124669247D01*
X153312523Y-124669247D02*
X153312523Y-124907342D01*
X153312523Y-124907342D02*
X153264904Y-125002580D01*
X153264904Y-125002580D02*
X153217285Y-125050200D01*
X153217285Y-125050200D02*
X153122047Y-125097819D01*
X153122047Y-125097819D02*
X152836333Y-125097819D01*
X152836333Y-125097819D02*
X152741095Y-125050200D01*
X152741095Y-125050200D02*
X152693476Y-125002580D01*
X154169666Y-124097819D02*
X153979190Y-124097819D01*
X153979190Y-124097819D02*
X153883952Y-124145438D01*
X153883952Y-124145438D02*
X153836333Y-124193057D01*
X153836333Y-124193057D02*
X153741095Y-124335914D01*
X153741095Y-124335914D02*
X153693476Y-124526390D01*
X153693476Y-124526390D02*
X153693476Y-124907342D01*
X153693476Y-124907342D02*
X153741095Y-125002580D01*
X153741095Y-125002580D02*
X153788714Y-125050200D01*
X153788714Y-125050200D02*
X153883952Y-125097819D01*
X153883952Y-125097819D02*
X154074428Y-125097819D01*
X154074428Y-125097819D02*
X154169666Y-125050200D01*
X154169666Y-125050200D02*
X154217285Y-125002580D01*
X154217285Y-125002580D02*
X154264904Y-124907342D01*
X154264904Y-124907342D02*
X154264904Y-124669247D01*
X154264904Y-124669247D02*
X154217285Y-124574009D01*
X154217285Y-124574009D02*
X154169666Y-124526390D01*
X154169666Y-124526390D02*
X154074428Y-124478771D01*
X154074428Y-124478771D02*
X153883952Y-124478771D01*
X153883952Y-124478771D02*
X153788714Y-124526390D01*
X153788714Y-124526390D02*
X153741095Y-124574009D01*
X153741095Y-124574009D02*
X153693476Y-124669247D01*
X120718342Y-72176819D02*
X120385009Y-71700628D01*
X120146914Y-72176819D02*
X120146914Y-71176819D01*
X120146914Y-71176819D02*
X120527866Y-71176819D01*
X120527866Y-71176819D02*
X120623104Y-71224438D01*
X120623104Y-71224438D02*
X120670723Y-71272057D01*
X120670723Y-71272057D02*
X120718342Y-71367295D01*
X120718342Y-71367295D02*
X120718342Y-71510152D01*
X120718342Y-71510152D02*
X120670723Y-71605390D01*
X120670723Y-71605390D02*
X120623104Y-71653009D01*
X120623104Y-71653009D02*
X120527866Y-71700628D01*
X120527866Y-71700628D02*
X120146914Y-71700628D01*
X121670723Y-72176819D02*
X121099295Y-72176819D01*
X121385009Y-72176819D02*
X121385009Y-71176819D01*
X121385009Y-71176819D02*
X121289771Y-71319676D01*
X121289771Y-71319676D02*
X121194533Y-71414914D01*
X121194533Y-71414914D02*
X121099295Y-71462533D01*
X122623104Y-72176819D02*
X122051676Y-72176819D01*
X122337390Y-72176819D02*
X122337390Y-71176819D01*
X122337390Y-71176819D02*
X122242152Y-71319676D01*
X122242152Y-71319676D02*
X122146914Y-71414914D01*
X122146914Y-71414914D02*
X122051676Y-71462533D01*
X140295142Y-128812580D02*
X140247523Y-128860200D01*
X140247523Y-128860200D02*
X140104666Y-128907819D01*
X140104666Y-128907819D02*
X140009428Y-128907819D01*
X140009428Y-128907819D02*
X139866571Y-128860200D01*
X139866571Y-128860200D02*
X139771333Y-128764961D01*
X139771333Y-128764961D02*
X139723714Y-128669723D01*
X139723714Y-128669723D02*
X139676095Y-128479247D01*
X139676095Y-128479247D02*
X139676095Y-128336390D01*
X139676095Y-128336390D02*
X139723714Y-128145914D01*
X139723714Y-128145914D02*
X139771333Y-128050676D01*
X139771333Y-128050676D02*
X139866571Y-127955438D01*
X139866571Y-127955438D02*
X140009428Y-127907819D01*
X140009428Y-127907819D02*
X140104666Y-127907819D01*
X140104666Y-127907819D02*
X140247523Y-127955438D01*
X140247523Y-127955438D02*
X140295142Y-128003057D01*
X140676095Y-128003057D02*
X140723714Y-127955438D01*
X140723714Y-127955438D02*
X140818952Y-127907819D01*
X140818952Y-127907819D02*
X141057047Y-127907819D01*
X141057047Y-127907819D02*
X141152285Y-127955438D01*
X141152285Y-127955438D02*
X141199904Y-128003057D01*
X141199904Y-128003057D02*
X141247523Y-128098295D01*
X141247523Y-128098295D02*
X141247523Y-128193533D01*
X141247523Y-128193533D02*
X141199904Y-128336390D01*
X141199904Y-128336390D02*
X140628476Y-128907819D01*
X140628476Y-128907819D02*
X141247523Y-128907819D01*
X141580857Y-127907819D02*
X142199904Y-127907819D01*
X142199904Y-127907819D02*
X141866571Y-128288771D01*
X141866571Y-128288771D02*
X142009428Y-128288771D01*
X142009428Y-128288771D02*
X142104666Y-128336390D01*
X142104666Y-128336390D02*
X142152285Y-128384009D01*
X142152285Y-128384009D02*
X142199904Y-128479247D01*
X142199904Y-128479247D02*
X142199904Y-128717342D01*
X142199904Y-128717342D02*
X142152285Y-128812580D01*
X142152285Y-128812580D02*
X142104666Y-128860200D01*
X142104666Y-128860200D02*
X142009428Y-128907819D01*
X142009428Y-128907819D02*
X141723714Y-128907819D01*
X141723714Y-128907819D02*
X141628476Y-128860200D01*
X141628476Y-128860200D02*
X141580857Y-128812580D01*
X134057580Y-65666857D02*
X134105200Y-65714476D01*
X134105200Y-65714476D02*
X134152819Y-65857333D01*
X134152819Y-65857333D02*
X134152819Y-65952571D01*
X134152819Y-65952571D02*
X134105200Y-66095428D01*
X134105200Y-66095428D02*
X134009961Y-66190666D01*
X134009961Y-66190666D02*
X133914723Y-66238285D01*
X133914723Y-66238285D02*
X133724247Y-66285904D01*
X133724247Y-66285904D02*
X133581390Y-66285904D01*
X133581390Y-66285904D02*
X133390914Y-66238285D01*
X133390914Y-66238285D02*
X133295676Y-66190666D01*
X133295676Y-66190666D02*
X133200438Y-66095428D01*
X133200438Y-66095428D02*
X133152819Y-65952571D01*
X133152819Y-65952571D02*
X133152819Y-65857333D01*
X133152819Y-65857333D02*
X133200438Y-65714476D01*
X133200438Y-65714476D02*
X133248057Y-65666857D01*
X133248057Y-65285904D02*
X133200438Y-65238285D01*
X133200438Y-65238285D02*
X133152819Y-65143047D01*
X133152819Y-65143047D02*
X133152819Y-64904952D01*
X133152819Y-64904952D02*
X133200438Y-64809714D01*
X133200438Y-64809714D02*
X133248057Y-64762095D01*
X133248057Y-64762095D02*
X133343295Y-64714476D01*
X133343295Y-64714476D02*
X133438533Y-64714476D01*
X133438533Y-64714476D02*
X133581390Y-64762095D01*
X133581390Y-64762095D02*
X134152819Y-65333523D01*
X134152819Y-65333523D02*
X134152819Y-64714476D01*
X133152819Y-64381142D02*
X133152819Y-63714476D01*
X133152819Y-63714476D02*
X134152819Y-64143047D01*
X186199542Y-109116019D02*
X185866209Y-108639828D01*
X185628114Y-109116019D02*
X185628114Y-108116019D01*
X185628114Y-108116019D02*
X186009066Y-108116019D01*
X186009066Y-108116019D02*
X186104304Y-108163638D01*
X186104304Y-108163638D02*
X186151923Y-108211257D01*
X186151923Y-108211257D02*
X186199542Y-108306495D01*
X186199542Y-108306495D02*
X186199542Y-108449352D01*
X186199542Y-108449352D02*
X186151923Y-108544590D01*
X186151923Y-108544590D02*
X186104304Y-108592209D01*
X186104304Y-108592209D02*
X186009066Y-108639828D01*
X186009066Y-108639828D02*
X185628114Y-108639828D01*
X187056685Y-108449352D02*
X187056685Y-109116019D01*
X186818590Y-108068400D02*
X186580495Y-108782685D01*
X186580495Y-108782685D02*
X187199542Y-108782685D01*
X187628114Y-109116019D02*
X187818590Y-109116019D01*
X187818590Y-109116019D02*
X187913828Y-109068400D01*
X187913828Y-109068400D02*
X187961447Y-109020780D01*
X187961447Y-109020780D02*
X188056685Y-108877923D01*
X188056685Y-108877923D02*
X188104304Y-108687447D01*
X188104304Y-108687447D02*
X188104304Y-108306495D01*
X188104304Y-108306495D02*
X188056685Y-108211257D01*
X188056685Y-108211257D02*
X188009066Y-108163638D01*
X188009066Y-108163638D02*
X187913828Y-108116019D01*
X187913828Y-108116019D02*
X187723352Y-108116019D01*
X187723352Y-108116019D02*
X187628114Y-108163638D01*
X187628114Y-108163638D02*
X187580495Y-108211257D01*
X187580495Y-108211257D02*
X187532876Y-108306495D01*
X187532876Y-108306495D02*
X187532876Y-108544590D01*
X187532876Y-108544590D02*
X187580495Y-108639828D01*
X187580495Y-108639828D02*
X187628114Y-108687447D01*
X187628114Y-108687447D02*
X187723352Y-108735066D01*
X187723352Y-108735066D02*
X187913828Y-108735066D01*
X187913828Y-108735066D02*
X188009066Y-108687447D01*
X188009066Y-108687447D02*
X188056685Y-108639828D01*
X188056685Y-108639828D02*
X188104304Y-108544590D01*
X140295142Y-125097819D02*
X139961809Y-124621628D01*
X139723714Y-125097819D02*
X139723714Y-124097819D01*
X139723714Y-124097819D02*
X140104666Y-124097819D01*
X140104666Y-124097819D02*
X140199904Y-124145438D01*
X140199904Y-124145438D02*
X140247523Y-124193057D01*
X140247523Y-124193057D02*
X140295142Y-124288295D01*
X140295142Y-124288295D02*
X140295142Y-124431152D01*
X140295142Y-124431152D02*
X140247523Y-124526390D01*
X140247523Y-124526390D02*
X140199904Y-124574009D01*
X140199904Y-124574009D02*
X140104666Y-124621628D01*
X140104666Y-124621628D02*
X139723714Y-124621628D01*
X140628476Y-124097819D02*
X141247523Y-124097819D01*
X141247523Y-124097819D02*
X140914190Y-124478771D01*
X140914190Y-124478771D02*
X141057047Y-124478771D01*
X141057047Y-124478771D02*
X141152285Y-124526390D01*
X141152285Y-124526390D02*
X141199904Y-124574009D01*
X141199904Y-124574009D02*
X141247523Y-124669247D01*
X141247523Y-124669247D02*
X141247523Y-124907342D01*
X141247523Y-124907342D02*
X141199904Y-125002580D01*
X141199904Y-125002580D02*
X141152285Y-125050200D01*
X141152285Y-125050200D02*
X141057047Y-125097819D01*
X141057047Y-125097819D02*
X140771333Y-125097819D01*
X140771333Y-125097819D02*
X140676095Y-125050200D01*
X140676095Y-125050200D02*
X140628476Y-125002580D01*
X142152285Y-124097819D02*
X141676095Y-124097819D01*
X141676095Y-124097819D02*
X141628476Y-124574009D01*
X141628476Y-124574009D02*
X141676095Y-124526390D01*
X141676095Y-124526390D02*
X141771333Y-124478771D01*
X141771333Y-124478771D02*
X142009428Y-124478771D01*
X142009428Y-124478771D02*
X142104666Y-124526390D01*
X142104666Y-124526390D02*
X142152285Y-124574009D01*
X142152285Y-124574009D02*
X142199904Y-124669247D01*
X142199904Y-124669247D02*
X142199904Y-124907342D01*
X142199904Y-124907342D02*
X142152285Y-125002580D01*
X142152285Y-125002580D02*
X142104666Y-125050200D01*
X142104666Y-125050200D02*
X142009428Y-125097819D01*
X142009428Y-125097819D02*
X141771333Y-125097819D01*
X141771333Y-125097819D02*
X141676095Y-125050200D01*
X141676095Y-125050200D02*
X141628476Y-125002580D01*
X136390142Y-75416580D02*
X136342523Y-75464200D01*
X136342523Y-75464200D02*
X136199666Y-75511819D01*
X136199666Y-75511819D02*
X136104428Y-75511819D01*
X136104428Y-75511819D02*
X135961571Y-75464200D01*
X135961571Y-75464200D02*
X135866333Y-75368961D01*
X135866333Y-75368961D02*
X135818714Y-75273723D01*
X135818714Y-75273723D02*
X135771095Y-75083247D01*
X135771095Y-75083247D02*
X135771095Y-74940390D01*
X135771095Y-74940390D02*
X135818714Y-74749914D01*
X135818714Y-74749914D02*
X135866333Y-74654676D01*
X135866333Y-74654676D02*
X135961571Y-74559438D01*
X135961571Y-74559438D02*
X136104428Y-74511819D01*
X136104428Y-74511819D02*
X136199666Y-74511819D01*
X136199666Y-74511819D02*
X136342523Y-74559438D01*
X136342523Y-74559438D02*
X136390142Y-74607057D01*
X136771095Y-74607057D02*
X136818714Y-74559438D01*
X136818714Y-74559438D02*
X136913952Y-74511819D01*
X136913952Y-74511819D02*
X137152047Y-74511819D01*
X137152047Y-74511819D02*
X137247285Y-74559438D01*
X137247285Y-74559438D02*
X137294904Y-74607057D01*
X137294904Y-74607057D02*
X137342523Y-74702295D01*
X137342523Y-74702295D02*
X137342523Y-74797533D01*
X137342523Y-74797533D02*
X137294904Y-74940390D01*
X137294904Y-74940390D02*
X136723476Y-75511819D01*
X136723476Y-75511819D02*
X137342523Y-75511819D01*
X138294904Y-75511819D02*
X137723476Y-75511819D01*
X138009190Y-75511819D02*
X138009190Y-74511819D01*
X138009190Y-74511819D02*
X137913952Y-74654676D01*
X137913952Y-74654676D02*
X137818714Y-74749914D01*
X137818714Y-74749914D02*
X137723476Y-74797533D01*
X168964076Y-63818419D02*
X168964076Y-64532704D01*
X168964076Y-64532704D02*
X168916457Y-64675561D01*
X168916457Y-64675561D02*
X168821219Y-64770800D01*
X168821219Y-64770800D02*
X168678362Y-64818419D01*
X168678362Y-64818419D02*
X168583124Y-64818419D01*
X169964076Y-64818419D02*
X169392648Y-64818419D01*
X169678362Y-64818419D02*
X169678362Y-63818419D01*
X169678362Y-63818419D02*
X169583124Y-63961276D01*
X169583124Y-63961276D02*
X169487886Y-64056514D01*
X169487886Y-64056514D02*
X169392648Y-64104133D01*
X170583124Y-63818419D02*
X170678362Y-63818419D01*
X170678362Y-63818419D02*
X170773600Y-63866038D01*
X170773600Y-63866038D02*
X170821219Y-63913657D01*
X170821219Y-63913657D02*
X170868838Y-64008895D01*
X170868838Y-64008895D02*
X170916457Y-64199371D01*
X170916457Y-64199371D02*
X170916457Y-64437466D01*
X170916457Y-64437466D02*
X170868838Y-64627942D01*
X170868838Y-64627942D02*
X170821219Y-64723180D01*
X170821219Y-64723180D02*
X170773600Y-64770800D01*
X170773600Y-64770800D02*
X170678362Y-64818419D01*
X170678362Y-64818419D02*
X170583124Y-64818419D01*
X170583124Y-64818419D02*
X170487886Y-64770800D01*
X170487886Y-64770800D02*
X170440267Y-64723180D01*
X170440267Y-64723180D02*
X170392648Y-64627942D01*
X170392648Y-64627942D02*
X170345029Y-64437466D01*
X170345029Y-64437466D02*
X170345029Y-64199371D01*
X170345029Y-64199371D02*
X170392648Y-64008895D01*
X170392648Y-64008895D02*
X170440267Y-63913657D01*
X170440267Y-63913657D02*
X170487886Y-63866038D01*
X170487886Y-63866038D02*
X170583124Y-63818419D01*
X159144047Y-82382200D02*
X159286904Y-82429819D01*
X159286904Y-82429819D02*
X159524999Y-82429819D01*
X159524999Y-82429819D02*
X159620237Y-82382200D01*
X159620237Y-82382200D02*
X159667856Y-82334580D01*
X159667856Y-82334580D02*
X159715475Y-82239342D01*
X159715475Y-82239342D02*
X159715475Y-82144104D01*
X159715475Y-82144104D02*
X159667856Y-82048866D01*
X159667856Y-82048866D02*
X159620237Y-82001247D01*
X159620237Y-82001247D02*
X159524999Y-81953628D01*
X159524999Y-81953628D02*
X159334523Y-81906009D01*
X159334523Y-81906009D02*
X159239285Y-81858390D01*
X159239285Y-81858390D02*
X159191666Y-81810771D01*
X159191666Y-81810771D02*
X159144047Y-81715533D01*
X159144047Y-81715533D02*
X159144047Y-81620295D01*
X159144047Y-81620295D02*
X159191666Y-81525057D01*
X159191666Y-81525057D02*
X159239285Y-81477438D01*
X159239285Y-81477438D02*
X159334523Y-81429819D01*
X159334523Y-81429819D02*
X159572618Y-81429819D01*
X159572618Y-81429819D02*
X159715475Y-81477438D01*
X160048809Y-81429819D02*
X160286904Y-82429819D01*
X160286904Y-82429819D02*
X160477380Y-81715533D01*
X160477380Y-81715533D02*
X160667856Y-82429819D01*
X160667856Y-82429819D02*
X160905952Y-81429819D01*
X161048809Y-82525057D02*
X161810713Y-82525057D01*
X162001190Y-82382200D02*
X162144047Y-82429819D01*
X162144047Y-82429819D02*
X162382142Y-82429819D01*
X162382142Y-82429819D02*
X162477380Y-82382200D01*
X162477380Y-82382200D02*
X162524999Y-82334580D01*
X162524999Y-82334580D02*
X162572618Y-82239342D01*
X162572618Y-82239342D02*
X162572618Y-82144104D01*
X162572618Y-82144104D02*
X162524999Y-82048866D01*
X162524999Y-82048866D02*
X162477380Y-82001247D01*
X162477380Y-82001247D02*
X162382142Y-81953628D01*
X162382142Y-81953628D02*
X162191666Y-81906009D01*
X162191666Y-81906009D02*
X162096428Y-81858390D01*
X162096428Y-81858390D02*
X162048809Y-81810771D01*
X162048809Y-81810771D02*
X162001190Y-81715533D01*
X162001190Y-81715533D02*
X162001190Y-81620295D01*
X162001190Y-81620295D02*
X162048809Y-81525057D01*
X162048809Y-81525057D02*
X162096428Y-81477438D01*
X162096428Y-81477438D02*
X162191666Y-81429819D01*
X162191666Y-81429819D02*
X162429761Y-81429819D01*
X162429761Y-81429819D02*
X162572618Y-81477438D01*
X162858333Y-81429819D02*
X163429761Y-81429819D01*
X163144047Y-82429819D02*
X163144047Y-81429819D01*
X163715476Y-82144104D02*
X164191666Y-82144104D01*
X163620238Y-82429819D02*
X163953571Y-81429819D01*
X163953571Y-81429819D02*
X164286904Y-82429819D01*
X165191666Y-82429819D02*
X164858333Y-81953628D01*
X164620238Y-82429819D02*
X164620238Y-81429819D01*
X164620238Y-81429819D02*
X165001190Y-81429819D01*
X165001190Y-81429819D02*
X165096428Y-81477438D01*
X165096428Y-81477438D02*
X165144047Y-81525057D01*
X165144047Y-81525057D02*
X165191666Y-81620295D01*
X165191666Y-81620295D02*
X165191666Y-81763152D01*
X165191666Y-81763152D02*
X165144047Y-81858390D01*
X165144047Y-81858390D02*
X165096428Y-81906009D01*
X165096428Y-81906009D02*
X165001190Y-81953628D01*
X165001190Y-81953628D02*
X164620238Y-81953628D01*
X165477381Y-81429819D02*
X166048809Y-81429819D01*
X165763095Y-82429819D02*
X165763095Y-81429819D01*
X166905952Y-82429819D02*
X166334524Y-82429819D01*
X166620238Y-82429819D02*
X166620238Y-81429819D01*
X166620238Y-81429819D02*
X166525000Y-81572676D01*
X166525000Y-81572676D02*
X166429762Y-81667914D01*
X166429762Y-81667914D02*
X166334524Y-81715533D01*
X152360142Y-127002819D02*
X152026809Y-126526628D01*
X151788714Y-127002819D02*
X151788714Y-126002819D01*
X151788714Y-126002819D02*
X152169666Y-126002819D01*
X152169666Y-126002819D02*
X152264904Y-126050438D01*
X152264904Y-126050438D02*
X152312523Y-126098057D01*
X152312523Y-126098057D02*
X152360142Y-126193295D01*
X152360142Y-126193295D02*
X152360142Y-126336152D01*
X152360142Y-126336152D02*
X152312523Y-126431390D01*
X152312523Y-126431390D02*
X152264904Y-126479009D01*
X152264904Y-126479009D02*
X152169666Y-126526628D01*
X152169666Y-126526628D02*
X151788714Y-126526628D01*
X152693476Y-126002819D02*
X153312523Y-126002819D01*
X153312523Y-126002819D02*
X152979190Y-126383771D01*
X152979190Y-126383771D02*
X153122047Y-126383771D01*
X153122047Y-126383771D02*
X153217285Y-126431390D01*
X153217285Y-126431390D02*
X153264904Y-126479009D01*
X153264904Y-126479009D02*
X153312523Y-126574247D01*
X153312523Y-126574247D02*
X153312523Y-126812342D01*
X153312523Y-126812342D02*
X153264904Y-126907580D01*
X153264904Y-126907580D02*
X153217285Y-126955200D01*
X153217285Y-126955200D02*
X153122047Y-127002819D01*
X153122047Y-127002819D02*
X152836333Y-127002819D01*
X152836333Y-127002819D02*
X152741095Y-126955200D01*
X152741095Y-126955200D02*
X152693476Y-126907580D01*
X153883952Y-126431390D02*
X153788714Y-126383771D01*
X153788714Y-126383771D02*
X153741095Y-126336152D01*
X153741095Y-126336152D02*
X153693476Y-126240914D01*
X153693476Y-126240914D02*
X153693476Y-126193295D01*
X153693476Y-126193295D02*
X153741095Y-126098057D01*
X153741095Y-126098057D02*
X153788714Y-126050438D01*
X153788714Y-126050438D02*
X153883952Y-126002819D01*
X153883952Y-126002819D02*
X154074428Y-126002819D01*
X154074428Y-126002819D02*
X154169666Y-126050438D01*
X154169666Y-126050438D02*
X154217285Y-126098057D01*
X154217285Y-126098057D02*
X154264904Y-126193295D01*
X154264904Y-126193295D02*
X154264904Y-126240914D01*
X154264904Y-126240914D02*
X154217285Y-126336152D01*
X154217285Y-126336152D02*
X154169666Y-126383771D01*
X154169666Y-126383771D02*
X154074428Y-126431390D01*
X154074428Y-126431390D02*
X153883952Y-126431390D01*
X153883952Y-126431390D02*
X153788714Y-126479009D01*
X153788714Y-126479009D02*
X153741095Y-126526628D01*
X153741095Y-126526628D02*
X153693476Y-126621866D01*
X153693476Y-126621866D02*
X153693476Y-126812342D01*
X153693476Y-126812342D02*
X153741095Y-126907580D01*
X153741095Y-126907580D02*
X153788714Y-126955200D01*
X153788714Y-126955200D02*
X153883952Y-127002819D01*
X153883952Y-127002819D02*
X154074428Y-127002819D01*
X154074428Y-127002819D02*
X154169666Y-126955200D01*
X154169666Y-126955200D02*
X154217285Y-126907580D01*
X154217285Y-126907580D02*
X154264904Y-126812342D01*
X154264904Y-126812342D02*
X154264904Y-126621866D01*
X154264904Y-126621866D02*
X154217285Y-126526628D01*
X154217285Y-126526628D02*
X154169666Y-126479009D01*
X154169666Y-126479009D02*
X154074428Y-126431390D01*
X207133866Y-64936019D02*
X207133866Y-65650304D01*
X207133866Y-65650304D02*
X207086247Y-65793161D01*
X207086247Y-65793161D02*
X206991009Y-65888400D01*
X206991009Y-65888400D02*
X206848152Y-65936019D01*
X206848152Y-65936019D02*
X206752914Y-65936019D01*
X207657676Y-65936019D02*
X207848152Y-65936019D01*
X207848152Y-65936019D02*
X207943390Y-65888400D01*
X207943390Y-65888400D02*
X207991009Y-65840780D01*
X207991009Y-65840780D02*
X208086247Y-65697923D01*
X208086247Y-65697923D02*
X208133866Y-65507447D01*
X208133866Y-65507447D02*
X208133866Y-65126495D01*
X208133866Y-65126495D02*
X208086247Y-65031257D01*
X208086247Y-65031257D02*
X208038628Y-64983638D01*
X208038628Y-64983638D02*
X207943390Y-64936019D01*
X207943390Y-64936019D02*
X207752914Y-64936019D01*
X207752914Y-64936019D02*
X207657676Y-64983638D01*
X207657676Y-64983638D02*
X207610057Y-65031257D01*
X207610057Y-65031257D02*
X207562438Y-65126495D01*
X207562438Y-65126495D02*
X207562438Y-65364590D01*
X207562438Y-65364590D02*
X207610057Y-65459828D01*
X207610057Y-65459828D02*
X207657676Y-65507447D01*
X207657676Y-65507447D02*
X207752914Y-65555066D01*
X207752914Y-65555066D02*
X207943390Y-65555066D01*
X207943390Y-65555066D02*
X208038628Y-65507447D01*
X208038628Y-65507447D02*
X208086247Y-65459828D01*
X208086247Y-65459828D02*
X208133866Y-65364590D01*
X177243095Y-89407419D02*
X177243095Y-88407419D01*
X177243095Y-88883609D02*
X177814523Y-88883609D01*
X177814523Y-89407419D02*
X177814523Y-88407419D01*
X178195476Y-88407419D02*
X178862142Y-88407419D01*
X178862142Y-88407419D02*
X178433571Y-89407419D01*
X143541819Y-92201904D02*
X144351342Y-92201904D01*
X144351342Y-92201904D02*
X144446580Y-92154285D01*
X144446580Y-92154285D02*
X144494200Y-92106666D01*
X144494200Y-92106666D02*
X144541819Y-92011428D01*
X144541819Y-92011428D02*
X144541819Y-91820952D01*
X144541819Y-91820952D02*
X144494200Y-91725714D01*
X144494200Y-91725714D02*
X144446580Y-91678095D01*
X144446580Y-91678095D02*
X144351342Y-91630476D01*
X144351342Y-91630476D02*
X143541819Y-91630476D01*
X143637057Y-91201904D02*
X143589438Y-91154285D01*
X143589438Y-91154285D02*
X143541819Y-91059047D01*
X143541819Y-91059047D02*
X143541819Y-90820952D01*
X143541819Y-90820952D02*
X143589438Y-90725714D01*
X143589438Y-90725714D02*
X143637057Y-90678095D01*
X143637057Y-90678095D02*
X143732295Y-90630476D01*
X143732295Y-90630476D02*
X143827533Y-90630476D01*
X143827533Y-90630476D02*
X143970390Y-90678095D01*
X143970390Y-90678095D02*
X144541819Y-91249523D01*
X144541819Y-91249523D02*
X144541819Y-90630476D01*
X202513095Y-121424819D02*
X202513095Y-120424819D01*
X202513095Y-120901009D02*
X203084523Y-120901009D01*
X203084523Y-121424819D02*
X203084523Y-120424819D01*
X203989285Y-120758152D02*
X203989285Y-121424819D01*
X203751190Y-120377200D02*
X203513095Y-121091485D01*
X203513095Y-121091485D02*
X204132142Y-121091485D01*
X142614905Y-81695620D02*
X142614905Y-80695620D01*
X142614905Y-80695620D02*
X142853000Y-80695620D01*
X142853000Y-80695620D02*
X142995857Y-80743239D01*
X142995857Y-80743239D02*
X143091095Y-80838477D01*
X143091095Y-80838477D02*
X143138714Y-80933715D01*
X143138714Y-80933715D02*
X143186333Y-81124191D01*
X143186333Y-81124191D02*
X143186333Y-81267048D01*
X143186333Y-81267048D02*
X143138714Y-81457524D01*
X143138714Y-81457524D02*
X143091095Y-81552762D01*
X143091095Y-81552762D02*
X142995857Y-81648001D01*
X142995857Y-81648001D02*
X142853000Y-81695620D01*
X142853000Y-81695620D02*
X142614905Y-81695620D01*
X144138714Y-81695620D02*
X143567286Y-81695620D01*
X143853000Y-81695620D02*
X143853000Y-80695620D01*
X143853000Y-80695620D02*
X143757762Y-80838477D01*
X143757762Y-80838477D02*
X143662524Y-80933715D01*
X143662524Y-80933715D02*
X143567286Y-80981334D01*
X125531333Y-73662819D02*
X125198000Y-73186628D01*
X124959905Y-73662819D02*
X124959905Y-72662819D01*
X124959905Y-72662819D02*
X125340857Y-72662819D01*
X125340857Y-72662819D02*
X125436095Y-72710438D01*
X125436095Y-72710438D02*
X125483714Y-72758057D01*
X125483714Y-72758057D02*
X125531333Y-72853295D01*
X125531333Y-72853295D02*
X125531333Y-72996152D01*
X125531333Y-72996152D02*
X125483714Y-73091390D01*
X125483714Y-73091390D02*
X125436095Y-73139009D01*
X125436095Y-73139009D02*
X125340857Y-73186628D01*
X125340857Y-73186628D02*
X124959905Y-73186628D01*
X125912286Y-72758057D02*
X125959905Y-72710438D01*
X125959905Y-72710438D02*
X126055143Y-72662819D01*
X126055143Y-72662819D02*
X126293238Y-72662819D01*
X126293238Y-72662819D02*
X126388476Y-72710438D01*
X126388476Y-72710438D02*
X126436095Y-72758057D01*
X126436095Y-72758057D02*
X126483714Y-72853295D01*
X126483714Y-72853295D02*
X126483714Y-72948533D01*
X126483714Y-72948533D02*
X126436095Y-73091390D01*
X126436095Y-73091390D02*
X125864667Y-73662819D01*
X125864667Y-73662819D02*
X126483714Y-73662819D01*
X111525952Y-108527200D02*
X111668809Y-108574819D01*
X111668809Y-108574819D02*
X111906904Y-108574819D01*
X111906904Y-108574819D02*
X112002142Y-108527200D01*
X112002142Y-108527200D02*
X112049761Y-108479580D01*
X112049761Y-108479580D02*
X112097380Y-108384342D01*
X112097380Y-108384342D02*
X112097380Y-108289104D01*
X112097380Y-108289104D02*
X112049761Y-108193866D01*
X112049761Y-108193866D02*
X112002142Y-108146247D01*
X112002142Y-108146247D02*
X111906904Y-108098628D01*
X111906904Y-108098628D02*
X111716428Y-108051009D01*
X111716428Y-108051009D02*
X111621190Y-108003390D01*
X111621190Y-108003390D02*
X111573571Y-107955771D01*
X111573571Y-107955771D02*
X111525952Y-107860533D01*
X111525952Y-107860533D02*
X111525952Y-107765295D01*
X111525952Y-107765295D02*
X111573571Y-107670057D01*
X111573571Y-107670057D02*
X111621190Y-107622438D01*
X111621190Y-107622438D02*
X111716428Y-107574819D01*
X111716428Y-107574819D02*
X111954523Y-107574819D01*
X111954523Y-107574819D02*
X112097380Y-107622438D01*
X112430714Y-107574819D02*
X112668809Y-108574819D01*
X112668809Y-108574819D02*
X112859285Y-107860533D01*
X112859285Y-107860533D02*
X113049761Y-108574819D01*
X113049761Y-108574819D02*
X113287857Y-107574819D01*
X113430714Y-108670057D02*
X114192618Y-108670057D01*
X114906904Y-108574819D02*
X114430714Y-108574819D01*
X114430714Y-108574819D02*
X114430714Y-107574819D01*
X115764047Y-108574819D02*
X115192619Y-108574819D01*
X115478333Y-108574819D02*
X115478333Y-107574819D01*
X115478333Y-107574819D02*
X115383095Y-107717676D01*
X115383095Y-107717676D02*
X115287857Y-107812914D01*
X115287857Y-107812914D02*
X115192619Y-107860533D01*
X139057142Y-61319580D02*
X139009523Y-61367200D01*
X139009523Y-61367200D02*
X138866666Y-61414819D01*
X138866666Y-61414819D02*
X138771428Y-61414819D01*
X138771428Y-61414819D02*
X138628571Y-61367200D01*
X138628571Y-61367200D02*
X138533333Y-61271961D01*
X138533333Y-61271961D02*
X138485714Y-61176723D01*
X138485714Y-61176723D02*
X138438095Y-60986247D01*
X138438095Y-60986247D02*
X138438095Y-60843390D01*
X138438095Y-60843390D02*
X138485714Y-60652914D01*
X138485714Y-60652914D02*
X138533333Y-60557676D01*
X138533333Y-60557676D02*
X138628571Y-60462438D01*
X138628571Y-60462438D02*
X138771428Y-60414819D01*
X138771428Y-60414819D02*
X138866666Y-60414819D01*
X138866666Y-60414819D02*
X139009523Y-60462438D01*
X139009523Y-60462438D02*
X139057142Y-60510057D01*
X139438095Y-60510057D02*
X139485714Y-60462438D01*
X139485714Y-60462438D02*
X139580952Y-60414819D01*
X139580952Y-60414819D02*
X139819047Y-60414819D01*
X139819047Y-60414819D02*
X139914285Y-60462438D01*
X139914285Y-60462438D02*
X139961904Y-60510057D01*
X139961904Y-60510057D02*
X140009523Y-60605295D01*
X140009523Y-60605295D02*
X140009523Y-60700533D01*
X140009523Y-60700533D02*
X139961904Y-60843390D01*
X139961904Y-60843390D02*
X139390476Y-61414819D01*
X139390476Y-61414819D02*
X140009523Y-61414819D01*
X140866666Y-60414819D02*
X140676190Y-60414819D01*
X140676190Y-60414819D02*
X140580952Y-60462438D01*
X140580952Y-60462438D02*
X140533333Y-60510057D01*
X140533333Y-60510057D02*
X140438095Y-60652914D01*
X140438095Y-60652914D02*
X140390476Y-60843390D01*
X140390476Y-60843390D02*
X140390476Y-61224342D01*
X140390476Y-61224342D02*
X140438095Y-61319580D01*
X140438095Y-61319580D02*
X140485714Y-61367200D01*
X140485714Y-61367200D02*
X140580952Y-61414819D01*
X140580952Y-61414819D02*
X140771428Y-61414819D01*
X140771428Y-61414819D02*
X140866666Y-61367200D01*
X140866666Y-61367200D02*
X140914285Y-61319580D01*
X140914285Y-61319580D02*
X140961904Y-61224342D01*
X140961904Y-61224342D02*
X140961904Y-60986247D01*
X140961904Y-60986247D02*
X140914285Y-60891009D01*
X140914285Y-60891009D02*
X140866666Y-60843390D01*
X140866666Y-60843390D02*
X140771428Y-60795771D01*
X140771428Y-60795771D02*
X140580952Y-60795771D01*
X140580952Y-60795771D02*
X140485714Y-60843390D01*
X140485714Y-60843390D02*
X140438095Y-60891009D01*
X140438095Y-60891009D02*
X140390476Y-60986247D01*
X187263095Y-78924819D02*
X187263095Y-77924819D01*
X187263095Y-78401009D02*
X187834523Y-78401009D01*
X187834523Y-78924819D02*
X187834523Y-77924819D01*
X188263095Y-78020057D02*
X188310714Y-77972438D01*
X188310714Y-77972438D02*
X188405952Y-77924819D01*
X188405952Y-77924819D02*
X188644047Y-77924819D01*
X188644047Y-77924819D02*
X188739285Y-77972438D01*
X188739285Y-77972438D02*
X188786904Y-78020057D01*
X188786904Y-78020057D02*
X188834523Y-78115295D01*
X188834523Y-78115295D02*
X188834523Y-78210533D01*
X188834523Y-78210533D02*
X188786904Y-78353390D01*
X188786904Y-78353390D02*
X188215476Y-78924819D01*
X188215476Y-78924819D02*
X188834523Y-78924819D01*
X155408333Y-109579580D02*
X155360714Y-109627200D01*
X155360714Y-109627200D02*
X155217857Y-109674819D01*
X155217857Y-109674819D02*
X155122619Y-109674819D01*
X155122619Y-109674819D02*
X154979762Y-109627200D01*
X154979762Y-109627200D02*
X154884524Y-109531961D01*
X154884524Y-109531961D02*
X154836905Y-109436723D01*
X154836905Y-109436723D02*
X154789286Y-109246247D01*
X154789286Y-109246247D02*
X154789286Y-109103390D01*
X154789286Y-109103390D02*
X154836905Y-108912914D01*
X154836905Y-108912914D02*
X154884524Y-108817676D01*
X154884524Y-108817676D02*
X154979762Y-108722438D01*
X154979762Y-108722438D02*
X155122619Y-108674819D01*
X155122619Y-108674819D02*
X155217857Y-108674819D01*
X155217857Y-108674819D02*
X155360714Y-108722438D01*
X155360714Y-108722438D02*
X155408333Y-108770057D01*
X155884524Y-109674819D02*
X156075000Y-109674819D01*
X156075000Y-109674819D02*
X156170238Y-109627200D01*
X156170238Y-109627200D02*
X156217857Y-109579580D01*
X156217857Y-109579580D02*
X156313095Y-109436723D01*
X156313095Y-109436723D02*
X156360714Y-109246247D01*
X156360714Y-109246247D02*
X156360714Y-108865295D01*
X156360714Y-108865295D02*
X156313095Y-108770057D01*
X156313095Y-108770057D02*
X156265476Y-108722438D01*
X156265476Y-108722438D02*
X156170238Y-108674819D01*
X156170238Y-108674819D02*
X155979762Y-108674819D01*
X155979762Y-108674819D02*
X155884524Y-108722438D01*
X155884524Y-108722438D02*
X155836905Y-108770057D01*
X155836905Y-108770057D02*
X155789286Y-108865295D01*
X155789286Y-108865295D02*
X155789286Y-109103390D01*
X155789286Y-109103390D02*
X155836905Y-109198628D01*
X155836905Y-109198628D02*
X155884524Y-109246247D01*
X155884524Y-109246247D02*
X155979762Y-109293866D01*
X155979762Y-109293866D02*
X156170238Y-109293866D01*
X156170238Y-109293866D02*
X156265476Y-109246247D01*
X156265476Y-109246247D02*
X156313095Y-109198628D01*
X156313095Y-109198628D02*
X156360714Y-109103390D01*
X132594047Y-82377200D02*
X132736904Y-82424819D01*
X132736904Y-82424819D02*
X132974999Y-82424819D01*
X132974999Y-82424819D02*
X133070237Y-82377200D01*
X133070237Y-82377200D02*
X133117856Y-82329580D01*
X133117856Y-82329580D02*
X133165475Y-82234342D01*
X133165475Y-82234342D02*
X133165475Y-82139104D01*
X133165475Y-82139104D02*
X133117856Y-82043866D01*
X133117856Y-82043866D02*
X133070237Y-81996247D01*
X133070237Y-81996247D02*
X132974999Y-81948628D01*
X132974999Y-81948628D02*
X132784523Y-81901009D01*
X132784523Y-81901009D02*
X132689285Y-81853390D01*
X132689285Y-81853390D02*
X132641666Y-81805771D01*
X132641666Y-81805771D02*
X132594047Y-81710533D01*
X132594047Y-81710533D02*
X132594047Y-81615295D01*
X132594047Y-81615295D02*
X132641666Y-81520057D01*
X132641666Y-81520057D02*
X132689285Y-81472438D01*
X132689285Y-81472438D02*
X132784523Y-81424819D01*
X132784523Y-81424819D02*
X133022618Y-81424819D01*
X133022618Y-81424819D02*
X133165475Y-81472438D01*
X133498809Y-81424819D02*
X133736904Y-82424819D01*
X133736904Y-82424819D02*
X133927380Y-81710533D01*
X133927380Y-81710533D02*
X134117856Y-82424819D01*
X134117856Y-82424819D02*
X134355952Y-81424819D01*
X134498809Y-82520057D02*
X135260713Y-82520057D01*
X135451190Y-82377200D02*
X135594047Y-82424819D01*
X135594047Y-82424819D02*
X135832142Y-82424819D01*
X135832142Y-82424819D02*
X135927380Y-82377200D01*
X135927380Y-82377200D02*
X135974999Y-82329580D01*
X135974999Y-82329580D02*
X136022618Y-82234342D01*
X136022618Y-82234342D02*
X136022618Y-82139104D01*
X136022618Y-82139104D02*
X135974999Y-82043866D01*
X135974999Y-82043866D02*
X135927380Y-81996247D01*
X135927380Y-81996247D02*
X135832142Y-81948628D01*
X135832142Y-81948628D02*
X135641666Y-81901009D01*
X135641666Y-81901009D02*
X135546428Y-81853390D01*
X135546428Y-81853390D02*
X135498809Y-81805771D01*
X135498809Y-81805771D02*
X135451190Y-81710533D01*
X135451190Y-81710533D02*
X135451190Y-81615295D01*
X135451190Y-81615295D02*
X135498809Y-81520057D01*
X135498809Y-81520057D02*
X135546428Y-81472438D01*
X135546428Y-81472438D02*
X135641666Y-81424819D01*
X135641666Y-81424819D02*
X135879761Y-81424819D01*
X135879761Y-81424819D02*
X136022618Y-81472438D01*
X136451190Y-81901009D02*
X136784523Y-81901009D01*
X136927380Y-82424819D02*
X136451190Y-82424819D01*
X136451190Y-82424819D02*
X136451190Y-81424819D01*
X136451190Y-81424819D02*
X136927380Y-81424819D01*
X137832142Y-82424819D02*
X137355952Y-82424819D01*
X137355952Y-82424819D02*
X137355952Y-81424819D01*
X138165476Y-81901009D02*
X138498809Y-81901009D01*
X138641666Y-82424819D02*
X138165476Y-82424819D01*
X138165476Y-82424819D02*
X138165476Y-81424819D01*
X138165476Y-81424819D02*
X138641666Y-81424819D01*
X139641666Y-82329580D02*
X139594047Y-82377200D01*
X139594047Y-82377200D02*
X139451190Y-82424819D01*
X139451190Y-82424819D02*
X139355952Y-82424819D01*
X139355952Y-82424819D02*
X139213095Y-82377200D01*
X139213095Y-82377200D02*
X139117857Y-82281961D01*
X139117857Y-82281961D02*
X139070238Y-82186723D01*
X139070238Y-82186723D02*
X139022619Y-81996247D01*
X139022619Y-81996247D02*
X139022619Y-81853390D01*
X139022619Y-81853390D02*
X139070238Y-81662914D01*
X139070238Y-81662914D02*
X139117857Y-81567676D01*
X139117857Y-81567676D02*
X139213095Y-81472438D01*
X139213095Y-81472438D02*
X139355952Y-81424819D01*
X139355952Y-81424819D02*
X139451190Y-81424819D01*
X139451190Y-81424819D02*
X139594047Y-81472438D01*
X139594047Y-81472438D02*
X139641666Y-81520057D01*
X139927381Y-81424819D02*
X140498809Y-81424819D01*
X140213095Y-82424819D02*
X140213095Y-81424819D01*
X141355952Y-82424819D02*
X140784524Y-82424819D01*
X141070238Y-82424819D02*
X141070238Y-81424819D01*
X141070238Y-81424819D02*
X140975000Y-81567676D01*
X140975000Y-81567676D02*
X140879762Y-81662914D01*
X140879762Y-81662914D02*
X140784524Y-81710533D01*
X122860714Y-119957200D02*
X123003571Y-120004819D01*
X123003571Y-120004819D02*
X123241666Y-120004819D01*
X123241666Y-120004819D02*
X123336904Y-119957200D01*
X123336904Y-119957200D02*
X123384523Y-119909580D01*
X123384523Y-119909580D02*
X123432142Y-119814342D01*
X123432142Y-119814342D02*
X123432142Y-119719104D01*
X123432142Y-119719104D02*
X123384523Y-119623866D01*
X123384523Y-119623866D02*
X123336904Y-119576247D01*
X123336904Y-119576247D02*
X123241666Y-119528628D01*
X123241666Y-119528628D02*
X123051190Y-119481009D01*
X123051190Y-119481009D02*
X122955952Y-119433390D01*
X122955952Y-119433390D02*
X122908333Y-119385771D01*
X122908333Y-119385771D02*
X122860714Y-119290533D01*
X122860714Y-119290533D02*
X122860714Y-119195295D01*
X122860714Y-119195295D02*
X122908333Y-119100057D01*
X122908333Y-119100057D02*
X122955952Y-119052438D01*
X122955952Y-119052438D02*
X123051190Y-119004819D01*
X123051190Y-119004819D02*
X123289285Y-119004819D01*
X123289285Y-119004819D02*
X123432142Y-119052438D01*
X123765476Y-119004819D02*
X124003571Y-120004819D01*
X124003571Y-120004819D02*
X124194047Y-119290533D01*
X124194047Y-119290533D02*
X124384523Y-120004819D01*
X124384523Y-120004819D02*
X124622619Y-119004819D01*
X124765476Y-120100057D02*
X125527380Y-120100057D01*
X125765476Y-120004819D02*
X125765476Y-119004819D01*
X125765476Y-119004819D02*
X126003571Y-119004819D01*
X126003571Y-119004819D02*
X126146428Y-119052438D01*
X126146428Y-119052438D02*
X126241666Y-119147676D01*
X126241666Y-119147676D02*
X126289285Y-119242914D01*
X126289285Y-119242914D02*
X126336904Y-119433390D01*
X126336904Y-119433390D02*
X126336904Y-119576247D01*
X126336904Y-119576247D02*
X126289285Y-119766723D01*
X126289285Y-119766723D02*
X126241666Y-119861961D01*
X126241666Y-119861961D02*
X126146428Y-119957200D01*
X126146428Y-119957200D02*
X126003571Y-120004819D01*
X126003571Y-120004819D02*
X125765476Y-120004819D01*
X127289285Y-120004819D02*
X126717857Y-120004819D01*
X127003571Y-120004819D02*
X127003571Y-119004819D01*
X127003571Y-119004819D02*
X126908333Y-119147676D01*
X126908333Y-119147676D02*
X126813095Y-119242914D01*
X126813095Y-119242914D02*
X126717857Y-119290533D01*
X163256666Y-67924819D02*
X163256666Y-68639104D01*
X163256666Y-68639104D02*
X163209047Y-68781961D01*
X163209047Y-68781961D02*
X163113809Y-68877200D01*
X163113809Y-68877200D02*
X162970952Y-68924819D01*
X162970952Y-68924819D02*
X162875714Y-68924819D01*
X163637619Y-67924819D02*
X164304285Y-67924819D01*
X164304285Y-67924819D02*
X163875714Y-68924819D01*
X147185333Y-116857819D02*
X146852000Y-116381628D01*
X146613905Y-116857819D02*
X146613905Y-115857819D01*
X146613905Y-115857819D02*
X146994857Y-115857819D01*
X146994857Y-115857819D02*
X147090095Y-115905438D01*
X147090095Y-115905438D02*
X147137714Y-115953057D01*
X147137714Y-115953057D02*
X147185333Y-116048295D01*
X147185333Y-116048295D02*
X147185333Y-116191152D01*
X147185333Y-116191152D02*
X147137714Y-116286390D01*
X147137714Y-116286390D02*
X147090095Y-116334009D01*
X147090095Y-116334009D02*
X146994857Y-116381628D01*
X146994857Y-116381628D02*
X146613905Y-116381628D01*
X148090095Y-115857819D02*
X147613905Y-115857819D01*
X147613905Y-115857819D02*
X147566286Y-116334009D01*
X147566286Y-116334009D02*
X147613905Y-116286390D01*
X147613905Y-116286390D02*
X147709143Y-116238771D01*
X147709143Y-116238771D02*
X147947238Y-116238771D01*
X147947238Y-116238771D02*
X148042476Y-116286390D01*
X148042476Y-116286390D02*
X148090095Y-116334009D01*
X148090095Y-116334009D02*
X148137714Y-116429247D01*
X148137714Y-116429247D02*
X148137714Y-116667342D01*
X148137714Y-116667342D02*
X148090095Y-116762580D01*
X148090095Y-116762580D02*
X148042476Y-116810200D01*
X148042476Y-116810200D02*
X147947238Y-116857819D01*
X147947238Y-116857819D02*
X147709143Y-116857819D01*
X147709143Y-116857819D02*
X147613905Y-116810200D01*
X147613905Y-116810200D02*
X147566286Y-116762580D01*
X197240714Y-78077200D02*
X197383571Y-78124819D01*
X197383571Y-78124819D02*
X197621666Y-78124819D01*
X197621666Y-78124819D02*
X197716904Y-78077200D01*
X197716904Y-78077200D02*
X197764523Y-78029580D01*
X197764523Y-78029580D02*
X197812142Y-77934342D01*
X197812142Y-77934342D02*
X197812142Y-77839104D01*
X197812142Y-77839104D02*
X197764523Y-77743866D01*
X197764523Y-77743866D02*
X197716904Y-77696247D01*
X197716904Y-77696247D02*
X197621666Y-77648628D01*
X197621666Y-77648628D02*
X197431190Y-77601009D01*
X197431190Y-77601009D02*
X197335952Y-77553390D01*
X197335952Y-77553390D02*
X197288333Y-77505771D01*
X197288333Y-77505771D02*
X197240714Y-77410533D01*
X197240714Y-77410533D02*
X197240714Y-77315295D01*
X197240714Y-77315295D02*
X197288333Y-77220057D01*
X197288333Y-77220057D02*
X197335952Y-77172438D01*
X197335952Y-77172438D02*
X197431190Y-77124819D01*
X197431190Y-77124819D02*
X197669285Y-77124819D01*
X197669285Y-77124819D02*
X197812142Y-77172438D01*
X198145476Y-77124819D02*
X198383571Y-78124819D01*
X198383571Y-78124819D02*
X198574047Y-77410533D01*
X198574047Y-77410533D02*
X198764523Y-78124819D01*
X198764523Y-78124819D02*
X199002619Y-77124819D01*
X199145476Y-78220057D02*
X199907380Y-78220057D01*
X200478809Y-77601009D02*
X200621666Y-77648628D01*
X200621666Y-77648628D02*
X200669285Y-77696247D01*
X200669285Y-77696247D02*
X200716904Y-77791485D01*
X200716904Y-77791485D02*
X200716904Y-77934342D01*
X200716904Y-77934342D02*
X200669285Y-78029580D01*
X200669285Y-78029580D02*
X200621666Y-78077200D01*
X200621666Y-78077200D02*
X200526428Y-78124819D01*
X200526428Y-78124819D02*
X200145476Y-78124819D01*
X200145476Y-78124819D02*
X200145476Y-77124819D01*
X200145476Y-77124819D02*
X200478809Y-77124819D01*
X200478809Y-77124819D02*
X200574047Y-77172438D01*
X200574047Y-77172438D02*
X200621666Y-77220057D01*
X200621666Y-77220057D02*
X200669285Y-77315295D01*
X200669285Y-77315295D02*
X200669285Y-77410533D01*
X200669285Y-77410533D02*
X200621666Y-77505771D01*
X200621666Y-77505771D02*
X200574047Y-77553390D01*
X200574047Y-77553390D02*
X200478809Y-77601009D01*
X200478809Y-77601009D02*
X200145476Y-77601009D01*
X201669285Y-78124819D02*
X201097857Y-78124819D01*
X201383571Y-78124819D02*
X201383571Y-77124819D01*
X201383571Y-77124819D02*
X201288333Y-77267676D01*
X201288333Y-77267676D02*
X201193095Y-77362914D01*
X201193095Y-77362914D02*
X201097857Y-77410533D01*
X95913095Y-121424819D02*
X95913095Y-120424819D01*
X95913095Y-120901009D02*
X96484523Y-120901009D01*
X96484523Y-121424819D02*
X96484523Y-120424819D01*
X97103571Y-120853390D02*
X97008333Y-120805771D01*
X97008333Y-120805771D02*
X96960714Y-120758152D01*
X96960714Y-120758152D02*
X96913095Y-120662914D01*
X96913095Y-120662914D02*
X96913095Y-120615295D01*
X96913095Y-120615295D02*
X96960714Y-120520057D01*
X96960714Y-120520057D02*
X97008333Y-120472438D01*
X97008333Y-120472438D02*
X97103571Y-120424819D01*
X97103571Y-120424819D02*
X97294047Y-120424819D01*
X97294047Y-120424819D02*
X97389285Y-120472438D01*
X97389285Y-120472438D02*
X97436904Y-120520057D01*
X97436904Y-120520057D02*
X97484523Y-120615295D01*
X97484523Y-120615295D02*
X97484523Y-120662914D01*
X97484523Y-120662914D02*
X97436904Y-120758152D01*
X97436904Y-120758152D02*
X97389285Y-120805771D01*
X97389285Y-120805771D02*
X97294047Y-120853390D01*
X97294047Y-120853390D02*
X97103571Y-120853390D01*
X97103571Y-120853390D02*
X97008333Y-120901009D01*
X97008333Y-120901009D02*
X96960714Y-120948628D01*
X96960714Y-120948628D02*
X96913095Y-121043866D01*
X96913095Y-121043866D02*
X96913095Y-121234342D01*
X96913095Y-121234342D02*
X96960714Y-121329580D01*
X96960714Y-121329580D02*
X97008333Y-121377200D01*
X97008333Y-121377200D02*
X97103571Y-121424819D01*
X97103571Y-121424819D02*
X97294047Y-121424819D01*
X97294047Y-121424819D02*
X97389285Y-121377200D01*
X97389285Y-121377200D02*
X97436904Y-121329580D01*
X97436904Y-121329580D02*
X97484523Y-121234342D01*
X97484523Y-121234342D02*
X97484523Y-121043866D01*
X97484523Y-121043866D02*
X97436904Y-120948628D01*
X97436904Y-120948628D02*
X97389285Y-120901009D01*
X97389285Y-120901009D02*
X97294047Y-120853390D01*
X184827942Y-123500019D02*
X184494609Y-123023828D01*
X184256514Y-123500019D02*
X184256514Y-122500019D01*
X184256514Y-122500019D02*
X184637466Y-122500019D01*
X184637466Y-122500019D02*
X184732704Y-122547638D01*
X184732704Y-122547638D02*
X184780323Y-122595257D01*
X184780323Y-122595257D02*
X184827942Y-122690495D01*
X184827942Y-122690495D02*
X184827942Y-122833352D01*
X184827942Y-122833352D02*
X184780323Y-122928590D01*
X184780323Y-122928590D02*
X184732704Y-122976209D01*
X184732704Y-122976209D02*
X184637466Y-123023828D01*
X184637466Y-123023828D02*
X184256514Y-123023828D01*
X185685085Y-122833352D02*
X185685085Y-123500019D01*
X185446990Y-122452400D02*
X185208895Y-123166685D01*
X185208895Y-123166685D02*
X185827942Y-123166685D01*
X186351752Y-122928590D02*
X186256514Y-122880971D01*
X186256514Y-122880971D02*
X186208895Y-122833352D01*
X186208895Y-122833352D02*
X186161276Y-122738114D01*
X186161276Y-122738114D02*
X186161276Y-122690495D01*
X186161276Y-122690495D02*
X186208895Y-122595257D01*
X186208895Y-122595257D02*
X186256514Y-122547638D01*
X186256514Y-122547638D02*
X186351752Y-122500019D01*
X186351752Y-122500019D02*
X186542228Y-122500019D01*
X186542228Y-122500019D02*
X186637466Y-122547638D01*
X186637466Y-122547638D02*
X186685085Y-122595257D01*
X186685085Y-122595257D02*
X186732704Y-122690495D01*
X186732704Y-122690495D02*
X186732704Y-122738114D01*
X186732704Y-122738114D02*
X186685085Y-122833352D01*
X186685085Y-122833352D02*
X186637466Y-122880971D01*
X186637466Y-122880971D02*
X186542228Y-122928590D01*
X186542228Y-122928590D02*
X186351752Y-122928590D01*
X186351752Y-122928590D02*
X186256514Y-122976209D01*
X186256514Y-122976209D02*
X186208895Y-123023828D01*
X186208895Y-123023828D02*
X186161276Y-123119066D01*
X186161276Y-123119066D02*
X186161276Y-123309542D01*
X186161276Y-123309542D02*
X186208895Y-123404780D01*
X186208895Y-123404780D02*
X186256514Y-123452400D01*
X186256514Y-123452400D02*
X186351752Y-123500019D01*
X186351752Y-123500019D02*
X186542228Y-123500019D01*
X186542228Y-123500019D02*
X186637466Y-123452400D01*
X186637466Y-123452400D02*
X186685085Y-123404780D01*
X186685085Y-123404780D02*
X186732704Y-123309542D01*
X186732704Y-123309542D02*
X186732704Y-123119066D01*
X186732704Y-123119066D02*
X186685085Y-123023828D01*
X186685085Y-123023828D02*
X186637466Y-122976209D01*
X186637466Y-122976209D02*
X186542228Y-122928590D01*
X147193095Y-112484819D02*
X147193095Y-113294342D01*
X147193095Y-113294342D02*
X147240714Y-113389580D01*
X147240714Y-113389580D02*
X147288333Y-113437200D01*
X147288333Y-113437200D02*
X147383571Y-113484819D01*
X147383571Y-113484819D02*
X147574047Y-113484819D01*
X147574047Y-113484819D02*
X147669285Y-113437200D01*
X147669285Y-113437200D02*
X147716904Y-113389580D01*
X147716904Y-113389580D02*
X147764523Y-113294342D01*
X147764523Y-113294342D02*
X147764523Y-112484819D01*
X148764523Y-113484819D02*
X148193095Y-113484819D01*
X148478809Y-113484819D02*
X148478809Y-112484819D01*
X148478809Y-112484819D02*
X148383571Y-112627676D01*
X148383571Y-112627676D02*
X148288333Y-112722914D01*
X148288333Y-112722914D02*
X148193095Y-112770533D01*
X125531333Y-75472580D02*
X125483714Y-75520200D01*
X125483714Y-75520200D02*
X125340857Y-75567819D01*
X125340857Y-75567819D02*
X125245619Y-75567819D01*
X125245619Y-75567819D02*
X125102762Y-75520200D01*
X125102762Y-75520200D02*
X125007524Y-75424961D01*
X125007524Y-75424961D02*
X124959905Y-75329723D01*
X124959905Y-75329723D02*
X124912286Y-75139247D01*
X124912286Y-75139247D02*
X124912286Y-74996390D01*
X124912286Y-74996390D02*
X124959905Y-74805914D01*
X124959905Y-74805914D02*
X125007524Y-74710676D01*
X125007524Y-74710676D02*
X125102762Y-74615438D01*
X125102762Y-74615438D02*
X125245619Y-74567819D01*
X125245619Y-74567819D02*
X125340857Y-74567819D01*
X125340857Y-74567819D02*
X125483714Y-74615438D01*
X125483714Y-74615438D02*
X125531333Y-74663057D01*
X126102762Y-74996390D02*
X126007524Y-74948771D01*
X126007524Y-74948771D02*
X125959905Y-74901152D01*
X125959905Y-74901152D02*
X125912286Y-74805914D01*
X125912286Y-74805914D02*
X125912286Y-74758295D01*
X125912286Y-74758295D02*
X125959905Y-74663057D01*
X125959905Y-74663057D02*
X126007524Y-74615438D01*
X126007524Y-74615438D02*
X126102762Y-74567819D01*
X126102762Y-74567819D02*
X126293238Y-74567819D01*
X126293238Y-74567819D02*
X126388476Y-74615438D01*
X126388476Y-74615438D02*
X126436095Y-74663057D01*
X126436095Y-74663057D02*
X126483714Y-74758295D01*
X126483714Y-74758295D02*
X126483714Y-74805914D01*
X126483714Y-74805914D02*
X126436095Y-74901152D01*
X126436095Y-74901152D02*
X126388476Y-74948771D01*
X126388476Y-74948771D02*
X126293238Y-74996390D01*
X126293238Y-74996390D02*
X126102762Y-74996390D01*
X126102762Y-74996390D02*
X126007524Y-75044009D01*
X126007524Y-75044009D02*
X125959905Y-75091628D01*
X125959905Y-75091628D02*
X125912286Y-75186866D01*
X125912286Y-75186866D02*
X125912286Y-75377342D01*
X125912286Y-75377342D02*
X125959905Y-75472580D01*
X125959905Y-75472580D02*
X126007524Y-75520200D01*
X126007524Y-75520200D02*
X126102762Y-75567819D01*
X126102762Y-75567819D02*
X126293238Y-75567819D01*
X126293238Y-75567819D02*
X126388476Y-75520200D01*
X126388476Y-75520200D02*
X126436095Y-75472580D01*
X126436095Y-75472580D02*
X126483714Y-75377342D01*
X126483714Y-75377342D02*
X126483714Y-75186866D01*
X126483714Y-75186866D02*
X126436095Y-75091628D01*
X126436095Y-75091628D02*
X126388476Y-75044009D01*
X126388476Y-75044009D02*
X126293238Y-74996390D01*
X174404524Y-78077200D02*
X174547381Y-78124819D01*
X174547381Y-78124819D02*
X174785476Y-78124819D01*
X174785476Y-78124819D02*
X174880714Y-78077200D01*
X174880714Y-78077200D02*
X174928333Y-78029580D01*
X174928333Y-78029580D02*
X174975952Y-77934342D01*
X174975952Y-77934342D02*
X174975952Y-77839104D01*
X174975952Y-77839104D02*
X174928333Y-77743866D01*
X174928333Y-77743866D02*
X174880714Y-77696247D01*
X174880714Y-77696247D02*
X174785476Y-77648628D01*
X174785476Y-77648628D02*
X174595000Y-77601009D01*
X174595000Y-77601009D02*
X174499762Y-77553390D01*
X174499762Y-77553390D02*
X174452143Y-77505771D01*
X174452143Y-77505771D02*
X174404524Y-77410533D01*
X174404524Y-77410533D02*
X174404524Y-77315295D01*
X174404524Y-77315295D02*
X174452143Y-77220057D01*
X174452143Y-77220057D02*
X174499762Y-77172438D01*
X174499762Y-77172438D02*
X174595000Y-77124819D01*
X174595000Y-77124819D02*
X174833095Y-77124819D01*
X174833095Y-77124819D02*
X174975952Y-77172438D01*
X175309286Y-77124819D02*
X175547381Y-78124819D01*
X175547381Y-78124819D02*
X175737857Y-77410533D01*
X175737857Y-77410533D02*
X175928333Y-78124819D01*
X175928333Y-78124819D02*
X176166429Y-77124819D01*
X176309286Y-78220057D02*
X177071190Y-78220057D01*
X177214048Y-77124819D02*
X177880714Y-78124819D01*
X177880714Y-77124819D02*
X177214048Y-78124819D01*
X178785476Y-78124819D02*
X178214048Y-78124819D01*
X178499762Y-78124819D02*
X178499762Y-77124819D01*
X178499762Y-77124819D02*
X178404524Y-77267676D01*
X178404524Y-77267676D02*
X178309286Y-77362914D01*
X178309286Y-77362914D02*
X178214048Y-77410533D01*
X134290714Y-108527200D02*
X134433571Y-108574819D01*
X134433571Y-108574819D02*
X134671666Y-108574819D01*
X134671666Y-108574819D02*
X134766904Y-108527200D01*
X134766904Y-108527200D02*
X134814523Y-108479580D01*
X134814523Y-108479580D02*
X134862142Y-108384342D01*
X134862142Y-108384342D02*
X134862142Y-108289104D01*
X134862142Y-108289104D02*
X134814523Y-108193866D01*
X134814523Y-108193866D02*
X134766904Y-108146247D01*
X134766904Y-108146247D02*
X134671666Y-108098628D01*
X134671666Y-108098628D02*
X134481190Y-108051009D01*
X134481190Y-108051009D02*
X134385952Y-108003390D01*
X134385952Y-108003390D02*
X134338333Y-107955771D01*
X134338333Y-107955771D02*
X134290714Y-107860533D01*
X134290714Y-107860533D02*
X134290714Y-107765295D01*
X134290714Y-107765295D02*
X134338333Y-107670057D01*
X134338333Y-107670057D02*
X134385952Y-107622438D01*
X134385952Y-107622438D02*
X134481190Y-107574819D01*
X134481190Y-107574819D02*
X134719285Y-107574819D01*
X134719285Y-107574819D02*
X134862142Y-107622438D01*
X135195476Y-107574819D02*
X135433571Y-108574819D01*
X135433571Y-108574819D02*
X135624047Y-107860533D01*
X135624047Y-107860533D02*
X135814523Y-108574819D01*
X135814523Y-108574819D02*
X136052619Y-107574819D01*
X136195476Y-108670057D02*
X136957380Y-108670057D01*
X137766904Y-108574819D02*
X137433571Y-108098628D01*
X137195476Y-108574819D02*
X137195476Y-107574819D01*
X137195476Y-107574819D02*
X137576428Y-107574819D01*
X137576428Y-107574819D02*
X137671666Y-107622438D01*
X137671666Y-107622438D02*
X137719285Y-107670057D01*
X137719285Y-107670057D02*
X137766904Y-107765295D01*
X137766904Y-107765295D02*
X137766904Y-107908152D01*
X137766904Y-107908152D02*
X137719285Y-108003390D01*
X137719285Y-108003390D02*
X137671666Y-108051009D01*
X137671666Y-108051009D02*
X137576428Y-108098628D01*
X137576428Y-108098628D02*
X137195476Y-108098628D01*
X138719285Y-108574819D02*
X138147857Y-108574819D01*
X138433571Y-108574819D02*
X138433571Y-107574819D01*
X138433571Y-107574819D02*
X138338333Y-107717676D01*
X138338333Y-107717676D02*
X138243095Y-107812914D01*
X138243095Y-107812914D02*
X138147857Y-107860533D01*
X135755142Y-61319580D02*
X135707523Y-61367200D01*
X135707523Y-61367200D02*
X135564666Y-61414819D01*
X135564666Y-61414819D02*
X135469428Y-61414819D01*
X135469428Y-61414819D02*
X135326571Y-61367200D01*
X135326571Y-61367200D02*
X135231333Y-61271961D01*
X135231333Y-61271961D02*
X135183714Y-61176723D01*
X135183714Y-61176723D02*
X135136095Y-60986247D01*
X135136095Y-60986247D02*
X135136095Y-60843390D01*
X135136095Y-60843390D02*
X135183714Y-60652914D01*
X135183714Y-60652914D02*
X135231333Y-60557676D01*
X135231333Y-60557676D02*
X135326571Y-60462438D01*
X135326571Y-60462438D02*
X135469428Y-60414819D01*
X135469428Y-60414819D02*
X135564666Y-60414819D01*
X135564666Y-60414819D02*
X135707523Y-60462438D01*
X135707523Y-60462438D02*
X135755142Y-60510057D01*
X136136095Y-60510057D02*
X136183714Y-60462438D01*
X136183714Y-60462438D02*
X136278952Y-60414819D01*
X136278952Y-60414819D02*
X136517047Y-60414819D01*
X136517047Y-60414819D02*
X136612285Y-60462438D01*
X136612285Y-60462438D02*
X136659904Y-60510057D01*
X136659904Y-60510057D02*
X136707523Y-60605295D01*
X136707523Y-60605295D02*
X136707523Y-60700533D01*
X136707523Y-60700533D02*
X136659904Y-60843390D01*
X136659904Y-60843390D02*
X136088476Y-61414819D01*
X136088476Y-61414819D02*
X136707523Y-61414819D01*
X137612285Y-60414819D02*
X137136095Y-60414819D01*
X137136095Y-60414819D02*
X137088476Y-60891009D01*
X137088476Y-60891009D02*
X137136095Y-60843390D01*
X137136095Y-60843390D02*
X137231333Y-60795771D01*
X137231333Y-60795771D02*
X137469428Y-60795771D01*
X137469428Y-60795771D02*
X137564666Y-60843390D01*
X137564666Y-60843390D02*
X137612285Y-60891009D01*
X137612285Y-60891009D02*
X137659904Y-60986247D01*
X137659904Y-60986247D02*
X137659904Y-61224342D01*
X137659904Y-61224342D02*
X137612285Y-61319580D01*
X137612285Y-61319580D02*
X137564666Y-61367200D01*
X137564666Y-61367200D02*
X137469428Y-61414819D01*
X137469428Y-61414819D02*
X137231333Y-61414819D01*
X137231333Y-61414819D02*
X137136095Y-61367200D01*
X137136095Y-61367200D02*
X137088476Y-61319580D01*
X151540105Y-79308018D02*
X151540105Y-78308018D01*
X151540105Y-78308018D02*
X151778200Y-78308018D01*
X151778200Y-78308018D02*
X151921057Y-78355637D01*
X151921057Y-78355637D02*
X152016295Y-78450875D01*
X152016295Y-78450875D02*
X152063914Y-78546113D01*
X152063914Y-78546113D02*
X152111533Y-78736589D01*
X152111533Y-78736589D02*
X152111533Y-78879446D01*
X152111533Y-78879446D02*
X152063914Y-79069922D01*
X152063914Y-79069922D02*
X152016295Y-79165160D01*
X152016295Y-79165160D02*
X151921057Y-79260399D01*
X151921057Y-79260399D02*
X151778200Y-79308018D01*
X151778200Y-79308018D02*
X151540105Y-79308018D01*
X152492486Y-78403256D02*
X152540105Y-78355637D01*
X152540105Y-78355637D02*
X152635343Y-78308018D01*
X152635343Y-78308018D02*
X152873438Y-78308018D01*
X152873438Y-78308018D02*
X152968676Y-78355637D01*
X152968676Y-78355637D02*
X153016295Y-78403256D01*
X153016295Y-78403256D02*
X153063914Y-78498494D01*
X153063914Y-78498494D02*
X153063914Y-78593732D01*
X153063914Y-78593732D02*
X153016295Y-78736589D01*
X153016295Y-78736589D02*
X152444867Y-79308018D01*
X152444867Y-79308018D02*
X153063914Y-79308018D01*
X185882143Y-89507200D02*
X186025000Y-89554819D01*
X186025000Y-89554819D02*
X186263095Y-89554819D01*
X186263095Y-89554819D02*
X186358333Y-89507200D01*
X186358333Y-89507200D02*
X186405952Y-89459580D01*
X186405952Y-89459580D02*
X186453571Y-89364342D01*
X186453571Y-89364342D02*
X186453571Y-89269104D01*
X186453571Y-89269104D02*
X186405952Y-89173866D01*
X186405952Y-89173866D02*
X186358333Y-89126247D01*
X186358333Y-89126247D02*
X186263095Y-89078628D01*
X186263095Y-89078628D02*
X186072619Y-89031009D01*
X186072619Y-89031009D02*
X185977381Y-88983390D01*
X185977381Y-88983390D02*
X185929762Y-88935771D01*
X185929762Y-88935771D02*
X185882143Y-88840533D01*
X185882143Y-88840533D02*
X185882143Y-88745295D01*
X185882143Y-88745295D02*
X185929762Y-88650057D01*
X185929762Y-88650057D02*
X185977381Y-88602438D01*
X185977381Y-88602438D02*
X186072619Y-88554819D01*
X186072619Y-88554819D02*
X186310714Y-88554819D01*
X186310714Y-88554819D02*
X186453571Y-88602438D01*
X186786905Y-88554819D02*
X187025000Y-89554819D01*
X187025000Y-89554819D02*
X187215476Y-88840533D01*
X187215476Y-88840533D02*
X187405952Y-89554819D01*
X187405952Y-89554819D02*
X187644048Y-88554819D01*
X187786905Y-89650057D02*
X188548809Y-89650057D01*
X188739286Y-89269104D02*
X189215476Y-89269104D01*
X188644048Y-89554819D02*
X188977381Y-88554819D01*
X188977381Y-88554819D02*
X189310714Y-89554819D01*
X190167857Y-89554819D02*
X189596429Y-89554819D01*
X189882143Y-89554819D02*
X189882143Y-88554819D01*
X189882143Y-88554819D02*
X189786905Y-88697676D01*
X189786905Y-88697676D02*
X189691667Y-88792914D01*
X189691667Y-88792914D02*
X189596429Y-88840533D01*
X185882143Y-66647200D02*
X186025000Y-66694819D01*
X186025000Y-66694819D02*
X186263095Y-66694819D01*
X186263095Y-66694819D02*
X186358333Y-66647200D01*
X186358333Y-66647200D02*
X186405952Y-66599580D01*
X186405952Y-66599580D02*
X186453571Y-66504342D01*
X186453571Y-66504342D02*
X186453571Y-66409104D01*
X186453571Y-66409104D02*
X186405952Y-66313866D01*
X186405952Y-66313866D02*
X186358333Y-66266247D01*
X186358333Y-66266247D02*
X186263095Y-66218628D01*
X186263095Y-66218628D02*
X186072619Y-66171009D01*
X186072619Y-66171009D02*
X185977381Y-66123390D01*
X185977381Y-66123390D02*
X185929762Y-66075771D01*
X185929762Y-66075771D02*
X185882143Y-65980533D01*
X185882143Y-65980533D02*
X185882143Y-65885295D01*
X185882143Y-65885295D02*
X185929762Y-65790057D01*
X185929762Y-65790057D02*
X185977381Y-65742438D01*
X185977381Y-65742438D02*
X186072619Y-65694819D01*
X186072619Y-65694819D02*
X186310714Y-65694819D01*
X186310714Y-65694819D02*
X186453571Y-65742438D01*
X186786905Y-65694819D02*
X187025000Y-66694819D01*
X187025000Y-66694819D02*
X187215476Y-65980533D01*
X187215476Y-65980533D02*
X187405952Y-66694819D01*
X187405952Y-66694819D02*
X187644048Y-65694819D01*
X187786905Y-66790057D02*
X188548809Y-66790057D01*
X188977381Y-66218628D02*
X188977381Y-66694819D01*
X188644048Y-65694819D02*
X188977381Y-66218628D01*
X188977381Y-66218628D02*
X189310714Y-65694819D01*
X190167857Y-66694819D02*
X189596429Y-66694819D01*
X189882143Y-66694819D02*
X189882143Y-65694819D01*
X189882143Y-65694819D02*
X189786905Y-65837676D01*
X189786905Y-65837676D02*
X189691667Y-65932914D01*
X189691667Y-65932914D02*
X189596429Y-65980533D01*
X122836905Y-97097200D02*
X122979762Y-97144819D01*
X122979762Y-97144819D02*
X123217857Y-97144819D01*
X123217857Y-97144819D02*
X123313095Y-97097200D01*
X123313095Y-97097200D02*
X123360714Y-97049580D01*
X123360714Y-97049580D02*
X123408333Y-96954342D01*
X123408333Y-96954342D02*
X123408333Y-96859104D01*
X123408333Y-96859104D02*
X123360714Y-96763866D01*
X123360714Y-96763866D02*
X123313095Y-96716247D01*
X123313095Y-96716247D02*
X123217857Y-96668628D01*
X123217857Y-96668628D02*
X123027381Y-96621009D01*
X123027381Y-96621009D02*
X122932143Y-96573390D01*
X122932143Y-96573390D02*
X122884524Y-96525771D01*
X122884524Y-96525771D02*
X122836905Y-96430533D01*
X122836905Y-96430533D02*
X122836905Y-96335295D01*
X122836905Y-96335295D02*
X122884524Y-96240057D01*
X122884524Y-96240057D02*
X122932143Y-96192438D01*
X122932143Y-96192438D02*
X123027381Y-96144819D01*
X123027381Y-96144819D02*
X123265476Y-96144819D01*
X123265476Y-96144819D02*
X123408333Y-96192438D01*
X123741667Y-96144819D02*
X123979762Y-97144819D01*
X123979762Y-97144819D02*
X124170238Y-96430533D01*
X124170238Y-96430533D02*
X124360714Y-97144819D01*
X124360714Y-97144819D02*
X124598810Y-96144819D01*
X124741667Y-97240057D02*
X125503571Y-97240057D01*
X125741667Y-96144819D02*
X125741667Y-96954342D01*
X125741667Y-96954342D02*
X125789286Y-97049580D01*
X125789286Y-97049580D02*
X125836905Y-97097200D01*
X125836905Y-97097200D02*
X125932143Y-97144819D01*
X125932143Y-97144819D02*
X126122619Y-97144819D01*
X126122619Y-97144819D02*
X126217857Y-97097200D01*
X126217857Y-97097200D02*
X126265476Y-97049580D01*
X126265476Y-97049580D02*
X126313095Y-96954342D01*
X126313095Y-96954342D02*
X126313095Y-96144819D01*
X127313095Y-97144819D02*
X126741667Y-97144819D01*
X127027381Y-97144819D02*
X127027381Y-96144819D01*
X127027381Y-96144819D02*
X126932143Y-96287676D01*
X126932143Y-96287676D02*
X126836905Y-96382914D01*
X126836905Y-96382914D02*
X126741667Y-96430533D01*
X160361142Y-71757819D02*
X160027809Y-71281628D01*
X159789714Y-71757819D02*
X159789714Y-70757819D01*
X159789714Y-70757819D02*
X160170666Y-70757819D01*
X160170666Y-70757819D02*
X160265904Y-70805438D01*
X160265904Y-70805438D02*
X160313523Y-70853057D01*
X160313523Y-70853057D02*
X160361142Y-70948295D01*
X160361142Y-70948295D02*
X160361142Y-71091152D01*
X160361142Y-71091152D02*
X160313523Y-71186390D01*
X160313523Y-71186390D02*
X160265904Y-71234009D01*
X160265904Y-71234009D02*
X160170666Y-71281628D01*
X160170666Y-71281628D02*
X159789714Y-71281628D01*
X160742095Y-70853057D02*
X160789714Y-70805438D01*
X160789714Y-70805438D02*
X160884952Y-70757819D01*
X160884952Y-70757819D02*
X161123047Y-70757819D01*
X161123047Y-70757819D02*
X161218285Y-70805438D01*
X161218285Y-70805438D02*
X161265904Y-70853057D01*
X161265904Y-70853057D02*
X161313523Y-70948295D01*
X161313523Y-70948295D02*
X161313523Y-71043533D01*
X161313523Y-71043533D02*
X161265904Y-71186390D01*
X161265904Y-71186390D02*
X160694476Y-71757819D01*
X160694476Y-71757819D02*
X161313523Y-71757819D01*
X161789714Y-71757819D02*
X161980190Y-71757819D01*
X161980190Y-71757819D02*
X162075428Y-71710200D01*
X162075428Y-71710200D02*
X162123047Y-71662580D01*
X162123047Y-71662580D02*
X162218285Y-71519723D01*
X162218285Y-71519723D02*
X162265904Y-71329247D01*
X162265904Y-71329247D02*
X162265904Y-70948295D01*
X162265904Y-70948295D02*
X162218285Y-70853057D01*
X162218285Y-70853057D02*
X162170666Y-70805438D01*
X162170666Y-70805438D02*
X162075428Y-70757819D01*
X162075428Y-70757819D02*
X161884952Y-70757819D01*
X161884952Y-70757819D02*
X161789714Y-70805438D01*
X161789714Y-70805438D02*
X161742095Y-70853057D01*
X161742095Y-70853057D02*
X161694476Y-70948295D01*
X161694476Y-70948295D02*
X161694476Y-71186390D01*
X161694476Y-71186390D02*
X161742095Y-71281628D01*
X161742095Y-71281628D02*
X161789714Y-71329247D01*
X161789714Y-71329247D02*
X161884952Y-71376866D01*
X161884952Y-71376866D02*
X162075428Y-71376866D01*
X162075428Y-71376866D02*
X162170666Y-71329247D01*
X162170666Y-71329247D02*
X162218285Y-71281628D01*
X162218285Y-71281628D02*
X162265904Y-71186390D01*
X140295142Y-127002819D02*
X139961809Y-126526628D01*
X139723714Y-127002819D02*
X139723714Y-126002819D01*
X139723714Y-126002819D02*
X140104666Y-126002819D01*
X140104666Y-126002819D02*
X140199904Y-126050438D01*
X140199904Y-126050438D02*
X140247523Y-126098057D01*
X140247523Y-126098057D02*
X140295142Y-126193295D01*
X140295142Y-126193295D02*
X140295142Y-126336152D01*
X140295142Y-126336152D02*
X140247523Y-126431390D01*
X140247523Y-126431390D02*
X140199904Y-126479009D01*
X140199904Y-126479009D02*
X140104666Y-126526628D01*
X140104666Y-126526628D02*
X139723714Y-126526628D01*
X140628476Y-126002819D02*
X141247523Y-126002819D01*
X141247523Y-126002819D02*
X140914190Y-126383771D01*
X140914190Y-126383771D02*
X141057047Y-126383771D01*
X141057047Y-126383771D02*
X141152285Y-126431390D01*
X141152285Y-126431390D02*
X141199904Y-126479009D01*
X141199904Y-126479009D02*
X141247523Y-126574247D01*
X141247523Y-126574247D02*
X141247523Y-126812342D01*
X141247523Y-126812342D02*
X141199904Y-126907580D01*
X141199904Y-126907580D02*
X141152285Y-126955200D01*
X141152285Y-126955200D02*
X141057047Y-127002819D01*
X141057047Y-127002819D02*
X140771333Y-127002819D01*
X140771333Y-127002819D02*
X140676095Y-126955200D01*
X140676095Y-126955200D02*
X140628476Y-126907580D01*
X141580857Y-126002819D02*
X142247523Y-126002819D01*
X142247523Y-126002819D02*
X141818952Y-127002819D01*
X95963095Y-67774819D02*
X95963095Y-66774819D01*
X95963095Y-67251009D02*
X96534523Y-67251009D01*
X96534523Y-67774819D02*
X96534523Y-66774819D01*
X96915476Y-66774819D02*
X97534523Y-66774819D01*
X97534523Y-66774819D02*
X97201190Y-67155771D01*
X97201190Y-67155771D02*
X97344047Y-67155771D01*
X97344047Y-67155771D02*
X97439285Y-67203390D01*
X97439285Y-67203390D02*
X97486904Y-67251009D01*
X97486904Y-67251009D02*
X97534523Y-67346247D01*
X97534523Y-67346247D02*
X97534523Y-67584342D01*
X97534523Y-67584342D02*
X97486904Y-67679580D01*
X97486904Y-67679580D02*
X97439285Y-67727200D01*
X97439285Y-67727200D02*
X97344047Y-67774819D01*
X97344047Y-67774819D02*
X97058333Y-67774819D01*
X97058333Y-67774819D02*
X96963095Y-67727200D01*
X96963095Y-67727200D02*
X96915476Y-67679580D01*
X151249142Y-110087580D02*
X151201523Y-110135200D01*
X151201523Y-110135200D02*
X151058666Y-110182819D01*
X151058666Y-110182819D02*
X150963428Y-110182819D01*
X150963428Y-110182819D02*
X150820571Y-110135200D01*
X150820571Y-110135200D02*
X150725333Y-110039961D01*
X150725333Y-110039961D02*
X150677714Y-109944723D01*
X150677714Y-109944723D02*
X150630095Y-109754247D01*
X150630095Y-109754247D02*
X150630095Y-109611390D01*
X150630095Y-109611390D02*
X150677714Y-109420914D01*
X150677714Y-109420914D02*
X150725333Y-109325676D01*
X150725333Y-109325676D02*
X150820571Y-109230438D01*
X150820571Y-109230438D02*
X150963428Y-109182819D01*
X150963428Y-109182819D02*
X151058666Y-109182819D01*
X151058666Y-109182819D02*
X151201523Y-109230438D01*
X151201523Y-109230438D02*
X151249142Y-109278057D01*
X152201523Y-110182819D02*
X151630095Y-110182819D01*
X151915809Y-110182819D02*
X151915809Y-109182819D01*
X151915809Y-109182819D02*
X151820571Y-109325676D01*
X151820571Y-109325676D02*
X151725333Y-109420914D01*
X151725333Y-109420914D02*
X151630095Y-109468533D01*
X152820571Y-109182819D02*
X152915809Y-109182819D01*
X152915809Y-109182819D02*
X153011047Y-109230438D01*
X153011047Y-109230438D02*
X153058666Y-109278057D01*
X153058666Y-109278057D02*
X153106285Y-109373295D01*
X153106285Y-109373295D02*
X153153904Y-109563771D01*
X153153904Y-109563771D02*
X153153904Y-109801866D01*
X153153904Y-109801866D02*
X153106285Y-109992342D01*
X153106285Y-109992342D02*
X153058666Y-110087580D01*
X153058666Y-110087580D02*
X153011047Y-110135200D01*
X153011047Y-110135200D02*
X152915809Y-110182819D01*
X152915809Y-110182819D02*
X152820571Y-110182819D01*
X152820571Y-110182819D02*
X152725333Y-110135200D01*
X152725333Y-110135200D02*
X152677714Y-110087580D01*
X152677714Y-110087580D02*
X152630095Y-109992342D01*
X152630095Y-109992342D02*
X152582476Y-109801866D01*
X152582476Y-109801866D02*
X152582476Y-109563771D01*
X152582476Y-109563771D02*
X152630095Y-109373295D01*
X152630095Y-109373295D02*
X152677714Y-109278057D01*
X152677714Y-109278057D02*
X152725333Y-109230438D01*
X152725333Y-109230438D02*
X152820571Y-109182819D01*
X93980095Y-78854819D02*
X93980095Y-77854819D01*
X93980095Y-78331009D02*
X94551523Y-78331009D01*
X94551523Y-78854819D02*
X94551523Y-77854819D01*
X95075333Y-78854819D02*
X95265809Y-78854819D01*
X95265809Y-78854819D02*
X95361047Y-78807200D01*
X95361047Y-78807200D02*
X95408666Y-78759580D01*
X95408666Y-78759580D02*
X95503904Y-78616723D01*
X95503904Y-78616723D02*
X95551523Y-78426247D01*
X95551523Y-78426247D02*
X95551523Y-78045295D01*
X95551523Y-78045295D02*
X95503904Y-77950057D01*
X95503904Y-77950057D02*
X95456285Y-77902438D01*
X95456285Y-77902438D02*
X95361047Y-77854819D01*
X95361047Y-77854819D02*
X95170571Y-77854819D01*
X95170571Y-77854819D02*
X95075333Y-77902438D01*
X95075333Y-77902438D02*
X95027714Y-77950057D01*
X95027714Y-77950057D02*
X94980095Y-78045295D01*
X94980095Y-78045295D02*
X94980095Y-78283390D01*
X94980095Y-78283390D02*
X95027714Y-78378628D01*
X95027714Y-78378628D02*
X95075333Y-78426247D01*
X95075333Y-78426247D02*
X95170571Y-78473866D01*
X95170571Y-78473866D02*
X95361047Y-78473866D01*
X95361047Y-78473866D02*
X95456285Y-78426247D01*
X95456285Y-78426247D02*
X95503904Y-78378628D01*
X95503904Y-78378628D02*
X95551523Y-78283390D01*
X160361142Y-73662819D02*
X160027809Y-73186628D01*
X159789714Y-73662819D02*
X159789714Y-72662819D01*
X159789714Y-72662819D02*
X160170666Y-72662819D01*
X160170666Y-72662819D02*
X160265904Y-72710438D01*
X160265904Y-72710438D02*
X160313523Y-72758057D01*
X160313523Y-72758057D02*
X160361142Y-72853295D01*
X160361142Y-72853295D02*
X160361142Y-72996152D01*
X160361142Y-72996152D02*
X160313523Y-73091390D01*
X160313523Y-73091390D02*
X160265904Y-73139009D01*
X160265904Y-73139009D02*
X160170666Y-73186628D01*
X160170666Y-73186628D02*
X159789714Y-73186628D01*
X160694476Y-72662819D02*
X161313523Y-72662819D01*
X161313523Y-72662819D02*
X160980190Y-73043771D01*
X160980190Y-73043771D02*
X161123047Y-73043771D01*
X161123047Y-73043771D02*
X161218285Y-73091390D01*
X161218285Y-73091390D02*
X161265904Y-73139009D01*
X161265904Y-73139009D02*
X161313523Y-73234247D01*
X161313523Y-73234247D02*
X161313523Y-73472342D01*
X161313523Y-73472342D02*
X161265904Y-73567580D01*
X161265904Y-73567580D02*
X161218285Y-73615200D01*
X161218285Y-73615200D02*
X161123047Y-73662819D01*
X161123047Y-73662819D02*
X160837333Y-73662819D01*
X160837333Y-73662819D02*
X160742095Y-73615200D01*
X160742095Y-73615200D02*
X160694476Y-73567580D01*
X161694476Y-72758057D02*
X161742095Y-72710438D01*
X161742095Y-72710438D02*
X161837333Y-72662819D01*
X161837333Y-72662819D02*
X162075428Y-72662819D01*
X162075428Y-72662819D02*
X162170666Y-72710438D01*
X162170666Y-72710438D02*
X162218285Y-72758057D01*
X162218285Y-72758057D02*
X162265904Y-72853295D01*
X162265904Y-72853295D02*
X162265904Y-72948533D01*
X162265904Y-72948533D02*
X162218285Y-73091390D01*
X162218285Y-73091390D02*
X161646857Y-73662819D01*
X161646857Y-73662819D02*
X162265904Y-73662819D01*
D10*
X110641667Y-71903800D02*
X110784524Y-71951419D01*
X110784524Y-71951419D02*
X111022619Y-71951419D01*
X111022619Y-71951419D02*
X111117857Y-71903800D01*
X111117857Y-71903800D02*
X111165476Y-71856180D01*
X111165476Y-71856180D02*
X111213095Y-71760942D01*
X111213095Y-71760942D02*
X111213095Y-71665704D01*
X111213095Y-71665704D02*
X111165476Y-71570466D01*
X111165476Y-71570466D02*
X111117857Y-71522847D01*
X111117857Y-71522847D02*
X111022619Y-71475228D01*
X111022619Y-71475228D02*
X110832143Y-71427609D01*
X110832143Y-71427609D02*
X110736905Y-71379990D01*
X110736905Y-71379990D02*
X110689286Y-71332371D01*
X110689286Y-71332371D02*
X110641667Y-71237133D01*
X110641667Y-71237133D02*
X110641667Y-71141895D01*
X110641667Y-71141895D02*
X110689286Y-71046657D01*
X110689286Y-71046657D02*
X110736905Y-70999038D01*
X110736905Y-70999038D02*
X110832143Y-70951419D01*
X110832143Y-70951419D02*
X111070238Y-70951419D01*
X111070238Y-70951419D02*
X111213095Y-70999038D01*
X111546429Y-70951419D02*
X111784524Y-71951419D01*
X111784524Y-71951419D02*
X111975000Y-71237133D01*
X111975000Y-71237133D02*
X112165476Y-71951419D01*
X112165476Y-71951419D02*
X112403572Y-70951419D01*
X113308333Y-71951419D02*
X112736905Y-71951419D01*
X113022619Y-71951419D02*
X113022619Y-70951419D01*
X113022619Y-70951419D02*
X112927381Y-71094276D01*
X112927381Y-71094276D02*
X112832143Y-71189514D01*
X112832143Y-71189514D02*
X112736905Y-71237133D01*
D11*
X159751733Y-126997619D02*
X159418400Y-126521428D01*
X159180305Y-126997619D02*
X159180305Y-125997619D01*
X159180305Y-125997619D02*
X159561257Y-125997619D01*
X159561257Y-125997619D02*
X159656495Y-126045238D01*
X159656495Y-126045238D02*
X159704114Y-126092857D01*
X159704114Y-126092857D02*
X159751733Y-126188095D01*
X159751733Y-126188095D02*
X159751733Y-126330952D01*
X159751733Y-126330952D02*
X159704114Y-126426190D01*
X159704114Y-126426190D02*
X159656495Y-126473809D01*
X159656495Y-126473809D02*
X159561257Y-126521428D01*
X159561257Y-126521428D02*
X159180305Y-126521428D01*
X160608876Y-126330952D02*
X160608876Y-126997619D01*
X160370781Y-125950000D02*
X160132686Y-126664285D01*
X160132686Y-126664285D02*
X160751733Y-126664285D01*
X146214286Y-68262200D02*
X146357143Y-68309819D01*
X146357143Y-68309819D02*
X146595238Y-68309819D01*
X146595238Y-68309819D02*
X146690476Y-68262200D01*
X146690476Y-68262200D02*
X146738095Y-68214580D01*
X146738095Y-68214580D02*
X146785714Y-68119342D01*
X146785714Y-68119342D02*
X146785714Y-68024104D01*
X146785714Y-68024104D02*
X146738095Y-67928866D01*
X146738095Y-67928866D02*
X146690476Y-67881247D01*
X146690476Y-67881247D02*
X146595238Y-67833628D01*
X146595238Y-67833628D02*
X146404762Y-67786009D01*
X146404762Y-67786009D02*
X146309524Y-67738390D01*
X146309524Y-67738390D02*
X146261905Y-67690771D01*
X146261905Y-67690771D02*
X146214286Y-67595533D01*
X146214286Y-67595533D02*
X146214286Y-67500295D01*
X146214286Y-67500295D02*
X146261905Y-67405057D01*
X146261905Y-67405057D02*
X146309524Y-67357438D01*
X146309524Y-67357438D02*
X146404762Y-67309819D01*
X146404762Y-67309819D02*
X146642857Y-67309819D01*
X146642857Y-67309819D02*
X146785714Y-67357438D01*
X147119048Y-67309819D02*
X147357143Y-68309819D01*
X147357143Y-68309819D02*
X147547619Y-67595533D01*
X147547619Y-67595533D02*
X147738095Y-68309819D01*
X147738095Y-68309819D02*
X147976191Y-67309819D01*
X148119048Y-68405057D02*
X148880952Y-68405057D01*
X149119048Y-68309819D02*
X149119048Y-67309819D01*
X149119048Y-67309819D02*
X149452381Y-68024104D01*
X149452381Y-68024104D02*
X149785714Y-67309819D01*
X149785714Y-67309819D02*
X149785714Y-68309819D01*
X150261905Y-67786009D02*
X150595238Y-67786009D01*
X150738095Y-68309819D02*
X150261905Y-68309819D01*
X150261905Y-68309819D02*
X150261905Y-67309819D01*
X150261905Y-67309819D02*
X150738095Y-67309819D01*
X151166667Y-68309819D02*
X151166667Y-67309819D01*
X151166667Y-67309819D02*
X151738095Y-68309819D01*
X151738095Y-68309819D02*
X151738095Y-67309819D01*
X152214286Y-67309819D02*
X152214286Y-68119342D01*
X152214286Y-68119342D02*
X152261905Y-68214580D01*
X152261905Y-68214580D02*
X152309524Y-68262200D01*
X152309524Y-68262200D02*
X152404762Y-68309819D01*
X152404762Y-68309819D02*
X152595238Y-68309819D01*
X152595238Y-68309819D02*
X152690476Y-68262200D01*
X152690476Y-68262200D02*
X152738095Y-68214580D01*
X152738095Y-68214580D02*
X152785714Y-68119342D01*
X152785714Y-68119342D02*
X152785714Y-67309819D01*
X153785714Y-68309819D02*
X153214286Y-68309819D01*
X153500000Y-68309819D02*
X153500000Y-67309819D01*
X153500000Y-67309819D02*
X153404762Y-67452676D01*
X153404762Y-67452676D02*
X153309524Y-67547914D01*
X153309524Y-67547914D02*
X153214286Y-67595533D01*
X108966095Y-121476819D02*
X108966095Y-120476819D01*
X108966095Y-120953009D02*
X109537523Y-120953009D01*
X109537523Y-121476819D02*
X109537523Y-120476819D01*
X110537523Y-121476819D02*
X109966095Y-121476819D01*
X110251809Y-121476819D02*
X110251809Y-120476819D01*
X110251809Y-120476819D02*
X110156571Y-120619676D01*
X110156571Y-120619676D02*
X110061333Y-120714914D01*
X110061333Y-120714914D02*
X109966095Y-120762533D01*
X152360142Y-128812580D02*
X152312523Y-128860200D01*
X152312523Y-128860200D02*
X152169666Y-128907819D01*
X152169666Y-128907819D02*
X152074428Y-128907819D01*
X152074428Y-128907819D02*
X151931571Y-128860200D01*
X151931571Y-128860200D02*
X151836333Y-128764961D01*
X151836333Y-128764961D02*
X151788714Y-128669723D01*
X151788714Y-128669723D02*
X151741095Y-128479247D01*
X151741095Y-128479247D02*
X151741095Y-128336390D01*
X151741095Y-128336390D02*
X151788714Y-128145914D01*
X151788714Y-128145914D02*
X151836333Y-128050676D01*
X151836333Y-128050676D02*
X151931571Y-127955438D01*
X151931571Y-127955438D02*
X152074428Y-127907819D01*
X152074428Y-127907819D02*
X152169666Y-127907819D01*
X152169666Y-127907819D02*
X152312523Y-127955438D01*
X152312523Y-127955438D02*
X152360142Y-128003057D01*
X152741095Y-128003057D02*
X152788714Y-127955438D01*
X152788714Y-127955438D02*
X152883952Y-127907819D01*
X152883952Y-127907819D02*
X153122047Y-127907819D01*
X153122047Y-127907819D02*
X153217285Y-127955438D01*
X153217285Y-127955438D02*
X153264904Y-128003057D01*
X153264904Y-128003057D02*
X153312523Y-128098295D01*
X153312523Y-128098295D02*
X153312523Y-128193533D01*
X153312523Y-128193533D02*
X153264904Y-128336390D01*
X153264904Y-128336390D02*
X152693476Y-128907819D01*
X152693476Y-128907819D02*
X153312523Y-128907819D01*
X154169666Y-128241152D02*
X154169666Y-128907819D01*
X153931571Y-127860200D02*
X153693476Y-128574485D01*
X153693476Y-128574485D02*
X154312523Y-128574485D01*
X175813095Y-67724819D02*
X175813095Y-66724819D01*
X175813095Y-67201009D02*
X176384523Y-67201009D01*
X176384523Y-67724819D02*
X176384523Y-66724819D01*
X177289285Y-66724819D02*
X177098809Y-66724819D01*
X177098809Y-66724819D02*
X177003571Y-66772438D01*
X177003571Y-66772438D02*
X176955952Y-66820057D01*
X176955952Y-66820057D02*
X176860714Y-66962914D01*
X176860714Y-66962914D02*
X176813095Y-67153390D01*
X176813095Y-67153390D02*
X176813095Y-67534342D01*
X176813095Y-67534342D02*
X176860714Y-67629580D01*
X176860714Y-67629580D02*
X176908333Y-67677200D01*
X176908333Y-67677200D02*
X177003571Y-67724819D01*
X177003571Y-67724819D02*
X177194047Y-67724819D01*
X177194047Y-67724819D02*
X177289285Y-67677200D01*
X177289285Y-67677200D02*
X177336904Y-67629580D01*
X177336904Y-67629580D02*
X177384523Y-67534342D01*
X177384523Y-67534342D02*
X177384523Y-67296247D01*
X177384523Y-67296247D02*
X177336904Y-67201009D01*
X177336904Y-67201009D02*
X177289285Y-67153390D01*
X177289285Y-67153390D02*
X177194047Y-67105771D01*
X177194047Y-67105771D02*
X177003571Y-67105771D01*
X177003571Y-67105771D02*
X176908333Y-67153390D01*
X176908333Y-67153390D02*
X176860714Y-67201009D01*
X176860714Y-67201009D02*
X176813095Y-67296247D01*
X160361142Y-75472580D02*
X160313523Y-75520200D01*
X160313523Y-75520200D02*
X160170666Y-75567819D01*
X160170666Y-75567819D02*
X160075428Y-75567819D01*
X160075428Y-75567819D02*
X159932571Y-75520200D01*
X159932571Y-75520200D02*
X159837333Y-75424961D01*
X159837333Y-75424961D02*
X159789714Y-75329723D01*
X159789714Y-75329723D02*
X159742095Y-75139247D01*
X159742095Y-75139247D02*
X159742095Y-74996390D01*
X159742095Y-74996390D02*
X159789714Y-74805914D01*
X159789714Y-74805914D02*
X159837333Y-74710676D01*
X159837333Y-74710676D02*
X159932571Y-74615438D01*
X159932571Y-74615438D02*
X160075428Y-74567819D01*
X160075428Y-74567819D02*
X160170666Y-74567819D01*
X160170666Y-74567819D02*
X160313523Y-74615438D01*
X160313523Y-74615438D02*
X160361142Y-74663057D01*
X160742095Y-74663057D02*
X160789714Y-74615438D01*
X160789714Y-74615438D02*
X160884952Y-74567819D01*
X160884952Y-74567819D02*
X161123047Y-74567819D01*
X161123047Y-74567819D02*
X161218285Y-74615438D01*
X161218285Y-74615438D02*
X161265904Y-74663057D01*
X161265904Y-74663057D02*
X161313523Y-74758295D01*
X161313523Y-74758295D02*
X161313523Y-74853533D01*
X161313523Y-74853533D02*
X161265904Y-74996390D01*
X161265904Y-74996390D02*
X160694476Y-75567819D01*
X160694476Y-75567819D02*
X161313523Y-75567819D01*
X161932571Y-74567819D02*
X162027809Y-74567819D01*
X162027809Y-74567819D02*
X162123047Y-74615438D01*
X162123047Y-74615438D02*
X162170666Y-74663057D01*
X162170666Y-74663057D02*
X162218285Y-74758295D01*
X162218285Y-74758295D02*
X162265904Y-74948771D01*
X162265904Y-74948771D02*
X162265904Y-75186866D01*
X162265904Y-75186866D02*
X162218285Y-75377342D01*
X162218285Y-75377342D02*
X162170666Y-75472580D01*
X162170666Y-75472580D02*
X162123047Y-75520200D01*
X162123047Y-75520200D02*
X162027809Y-75567819D01*
X162027809Y-75567819D02*
X161932571Y-75567819D01*
X161932571Y-75567819D02*
X161837333Y-75520200D01*
X161837333Y-75520200D02*
X161789714Y-75472580D01*
X161789714Y-75472580D02*
X161742095Y-75377342D01*
X161742095Y-75377342D02*
X161694476Y-75186866D01*
X161694476Y-75186866D02*
X161694476Y-74948771D01*
X161694476Y-74948771D02*
X161742095Y-74758295D01*
X161742095Y-74758295D02*
X161789714Y-74663057D01*
X161789714Y-74663057D02*
X161837333Y-74615438D01*
X161837333Y-74615438D02*
X161932571Y-74567819D01*
X125531333Y-71757819D02*
X125198000Y-71281628D01*
X124959905Y-71757819D02*
X124959905Y-70757819D01*
X124959905Y-70757819D02*
X125340857Y-70757819D01*
X125340857Y-70757819D02*
X125436095Y-70805438D01*
X125436095Y-70805438D02*
X125483714Y-70853057D01*
X125483714Y-70853057D02*
X125531333Y-70948295D01*
X125531333Y-70948295D02*
X125531333Y-71091152D01*
X125531333Y-71091152D02*
X125483714Y-71186390D01*
X125483714Y-71186390D02*
X125436095Y-71234009D01*
X125436095Y-71234009D02*
X125340857Y-71281628D01*
X125340857Y-71281628D02*
X124959905Y-71281628D01*
X126483714Y-71757819D02*
X125912286Y-71757819D01*
X126198000Y-71757819D02*
X126198000Y-70757819D01*
X126198000Y-70757819D02*
X126102762Y-70900676D01*
X126102762Y-70900676D02*
X126007524Y-70995914D01*
X126007524Y-70995914D02*
X125912286Y-71043533D01*
X136390142Y-71701819D02*
X136056809Y-71225628D01*
X135818714Y-71701819D02*
X135818714Y-70701819D01*
X135818714Y-70701819D02*
X136199666Y-70701819D01*
X136199666Y-70701819D02*
X136294904Y-70749438D01*
X136294904Y-70749438D02*
X136342523Y-70797057D01*
X136342523Y-70797057D02*
X136390142Y-70892295D01*
X136390142Y-70892295D02*
X136390142Y-71035152D01*
X136390142Y-71035152D02*
X136342523Y-71130390D01*
X136342523Y-71130390D02*
X136294904Y-71178009D01*
X136294904Y-71178009D02*
X136199666Y-71225628D01*
X136199666Y-71225628D02*
X135818714Y-71225628D01*
X136723476Y-70701819D02*
X137342523Y-70701819D01*
X137342523Y-70701819D02*
X137009190Y-71082771D01*
X137009190Y-71082771D02*
X137152047Y-71082771D01*
X137152047Y-71082771D02*
X137247285Y-71130390D01*
X137247285Y-71130390D02*
X137294904Y-71178009D01*
X137294904Y-71178009D02*
X137342523Y-71273247D01*
X137342523Y-71273247D02*
X137342523Y-71511342D01*
X137342523Y-71511342D02*
X137294904Y-71606580D01*
X137294904Y-71606580D02*
X137247285Y-71654200D01*
X137247285Y-71654200D02*
X137152047Y-71701819D01*
X137152047Y-71701819D02*
X136866333Y-71701819D01*
X136866333Y-71701819D02*
X136771095Y-71654200D01*
X136771095Y-71654200D02*
X136723476Y-71606580D01*
X137961571Y-70701819D02*
X138056809Y-70701819D01*
X138056809Y-70701819D02*
X138152047Y-70749438D01*
X138152047Y-70749438D02*
X138199666Y-70797057D01*
X138199666Y-70797057D02*
X138247285Y-70892295D01*
X138247285Y-70892295D02*
X138294904Y-71082771D01*
X138294904Y-71082771D02*
X138294904Y-71320866D01*
X138294904Y-71320866D02*
X138247285Y-71511342D01*
X138247285Y-71511342D02*
X138199666Y-71606580D01*
X138199666Y-71606580D02*
X138152047Y-71654200D01*
X138152047Y-71654200D02*
X138056809Y-71701819D01*
X138056809Y-71701819D02*
X137961571Y-71701819D01*
X137961571Y-71701819D02*
X137866333Y-71654200D01*
X137866333Y-71654200D02*
X137818714Y-71606580D01*
X137818714Y-71606580D02*
X137771095Y-71511342D01*
X137771095Y-71511342D02*
X137723476Y-71320866D01*
X137723476Y-71320866D02*
X137723476Y-71082771D01*
X137723476Y-71082771D02*
X137771095Y-70892295D01*
X137771095Y-70892295D02*
X137818714Y-70797057D01*
X137818714Y-70797057D02*
X137866333Y-70749438D01*
X137866333Y-70749438D02*
X137961571Y-70701819D01*
X202968266Y-99081219D02*
X202968266Y-99795504D01*
X202968266Y-99795504D02*
X202920647Y-99938361D01*
X202920647Y-99938361D02*
X202825409Y-100033600D01*
X202825409Y-100033600D02*
X202682552Y-100081219D01*
X202682552Y-100081219D02*
X202587314Y-100081219D01*
X203587314Y-99509790D02*
X203492076Y-99462171D01*
X203492076Y-99462171D02*
X203444457Y-99414552D01*
X203444457Y-99414552D02*
X203396838Y-99319314D01*
X203396838Y-99319314D02*
X203396838Y-99271695D01*
X203396838Y-99271695D02*
X203444457Y-99176457D01*
X203444457Y-99176457D02*
X203492076Y-99128838D01*
X203492076Y-99128838D02*
X203587314Y-99081219D01*
X203587314Y-99081219D02*
X203777790Y-99081219D01*
X203777790Y-99081219D02*
X203873028Y-99128838D01*
X203873028Y-99128838D02*
X203920647Y-99176457D01*
X203920647Y-99176457D02*
X203968266Y-99271695D01*
X203968266Y-99271695D02*
X203968266Y-99319314D01*
X203968266Y-99319314D02*
X203920647Y-99414552D01*
X203920647Y-99414552D02*
X203873028Y-99462171D01*
X203873028Y-99462171D02*
X203777790Y-99509790D01*
X203777790Y-99509790D02*
X203587314Y-99509790D01*
X203587314Y-99509790D02*
X203492076Y-99557409D01*
X203492076Y-99557409D02*
X203444457Y-99605028D01*
X203444457Y-99605028D02*
X203396838Y-99700266D01*
X203396838Y-99700266D02*
X203396838Y-99890742D01*
X203396838Y-99890742D02*
X203444457Y-99985980D01*
X203444457Y-99985980D02*
X203492076Y-100033600D01*
X203492076Y-100033600D02*
X203587314Y-100081219D01*
X203587314Y-100081219D02*
X203777790Y-100081219D01*
X203777790Y-100081219D02*
X203873028Y-100033600D01*
X203873028Y-100033600D02*
X203920647Y-99985980D01*
X203920647Y-99985980D02*
X203968266Y-99890742D01*
X203968266Y-99890742D02*
X203968266Y-99700266D01*
X203968266Y-99700266D02*
X203920647Y-99605028D01*
X203920647Y-99605028D02*
X203873028Y-99557409D01*
X203873028Y-99557409D02*
X203777790Y-99509790D01*
X136390142Y-73606819D02*
X136056809Y-73130628D01*
X135818714Y-73606819D02*
X135818714Y-72606819D01*
X135818714Y-72606819D02*
X136199666Y-72606819D01*
X136199666Y-72606819D02*
X136294904Y-72654438D01*
X136294904Y-72654438D02*
X136342523Y-72702057D01*
X136342523Y-72702057D02*
X136390142Y-72797295D01*
X136390142Y-72797295D02*
X136390142Y-72940152D01*
X136390142Y-72940152D02*
X136342523Y-73035390D01*
X136342523Y-73035390D02*
X136294904Y-73083009D01*
X136294904Y-73083009D02*
X136199666Y-73130628D01*
X136199666Y-73130628D02*
X135818714Y-73130628D01*
X136723476Y-72606819D02*
X137342523Y-72606819D01*
X137342523Y-72606819D02*
X137009190Y-72987771D01*
X137009190Y-72987771D02*
X137152047Y-72987771D01*
X137152047Y-72987771D02*
X137247285Y-73035390D01*
X137247285Y-73035390D02*
X137294904Y-73083009D01*
X137294904Y-73083009D02*
X137342523Y-73178247D01*
X137342523Y-73178247D02*
X137342523Y-73416342D01*
X137342523Y-73416342D02*
X137294904Y-73511580D01*
X137294904Y-73511580D02*
X137247285Y-73559200D01*
X137247285Y-73559200D02*
X137152047Y-73606819D01*
X137152047Y-73606819D02*
X136866333Y-73606819D01*
X136866333Y-73606819D02*
X136771095Y-73559200D01*
X136771095Y-73559200D02*
X136723476Y-73511580D01*
X137675857Y-72606819D02*
X138294904Y-72606819D01*
X138294904Y-72606819D02*
X137961571Y-72987771D01*
X137961571Y-72987771D02*
X138104428Y-72987771D01*
X138104428Y-72987771D02*
X138199666Y-73035390D01*
X138199666Y-73035390D02*
X138247285Y-73083009D01*
X138247285Y-73083009D02*
X138294904Y-73178247D01*
X138294904Y-73178247D02*
X138294904Y-73416342D01*
X138294904Y-73416342D02*
X138247285Y-73511580D01*
X138247285Y-73511580D02*
X138199666Y-73559200D01*
X138199666Y-73559200D02*
X138104428Y-73606819D01*
X138104428Y-73606819D02*
X137818714Y-73606819D01*
X137818714Y-73606819D02*
X137723476Y-73559200D01*
X137723476Y-73559200D02*
X137675857Y-73511580D01*
X159275542Y-128807380D02*
X159227923Y-128855000D01*
X159227923Y-128855000D02*
X159085066Y-128902619D01*
X159085066Y-128902619D02*
X158989828Y-128902619D01*
X158989828Y-128902619D02*
X158846971Y-128855000D01*
X158846971Y-128855000D02*
X158751733Y-128759761D01*
X158751733Y-128759761D02*
X158704114Y-128664523D01*
X158704114Y-128664523D02*
X158656495Y-128474047D01*
X158656495Y-128474047D02*
X158656495Y-128331190D01*
X158656495Y-128331190D02*
X158704114Y-128140714D01*
X158704114Y-128140714D02*
X158751733Y-128045476D01*
X158751733Y-128045476D02*
X158846971Y-127950238D01*
X158846971Y-127950238D02*
X158989828Y-127902619D01*
X158989828Y-127902619D02*
X159085066Y-127902619D01*
X159085066Y-127902619D02*
X159227923Y-127950238D01*
X159227923Y-127950238D02*
X159275542Y-127997857D01*
X160227923Y-128902619D02*
X159656495Y-128902619D01*
X159942209Y-128902619D02*
X159942209Y-127902619D01*
X159942209Y-127902619D02*
X159846971Y-128045476D01*
X159846971Y-128045476D02*
X159751733Y-128140714D01*
X159751733Y-128140714D02*
X159656495Y-128188333D01*
X161180304Y-128902619D02*
X160608876Y-128902619D01*
X160894590Y-128902619D02*
X160894590Y-127902619D01*
X160894590Y-127902619D02*
X160799352Y-128045476D01*
X160799352Y-128045476D02*
X160704114Y-128140714D01*
X160704114Y-128140714D02*
X160608876Y-128188333D01*
X137922095Y-68324819D02*
X137922095Y-69134342D01*
X137922095Y-69134342D02*
X137969714Y-69229580D01*
X137969714Y-69229580D02*
X138017333Y-69277200D01*
X138017333Y-69277200D02*
X138112571Y-69324819D01*
X138112571Y-69324819D02*
X138303047Y-69324819D01*
X138303047Y-69324819D02*
X138398285Y-69277200D01*
X138398285Y-69277200D02*
X138445904Y-69229580D01*
X138445904Y-69229580D02*
X138493523Y-69134342D01*
X138493523Y-69134342D02*
X138493523Y-68324819D01*
X139445904Y-68324819D02*
X138969714Y-68324819D01*
X138969714Y-68324819D02*
X138922095Y-68801009D01*
X138922095Y-68801009D02*
X138969714Y-68753390D01*
X138969714Y-68753390D02*
X139064952Y-68705771D01*
X139064952Y-68705771D02*
X139303047Y-68705771D01*
X139303047Y-68705771D02*
X139398285Y-68753390D01*
X139398285Y-68753390D02*
X139445904Y-68801009D01*
X139445904Y-68801009D02*
X139493523Y-68896247D01*
X139493523Y-68896247D02*
X139493523Y-69134342D01*
X139493523Y-69134342D02*
X139445904Y-69229580D01*
X139445904Y-69229580D02*
X139398285Y-69277200D01*
X139398285Y-69277200D02*
X139303047Y-69324819D01*
X139303047Y-69324819D02*
X139064952Y-69324819D01*
X139064952Y-69324819D02*
X138969714Y-69277200D01*
X138969714Y-69277200D02*
X138922095Y-69229580D01*
X159751733Y-125092619D02*
X159418400Y-124616428D01*
X159180305Y-125092619D02*
X159180305Y-124092619D01*
X159180305Y-124092619D02*
X159561257Y-124092619D01*
X159561257Y-124092619D02*
X159656495Y-124140238D01*
X159656495Y-124140238D02*
X159704114Y-124187857D01*
X159704114Y-124187857D02*
X159751733Y-124283095D01*
X159751733Y-124283095D02*
X159751733Y-124425952D01*
X159751733Y-124425952D02*
X159704114Y-124521190D01*
X159704114Y-124521190D02*
X159656495Y-124568809D01*
X159656495Y-124568809D02*
X159561257Y-124616428D01*
X159561257Y-124616428D02*
X159180305Y-124616428D01*
X160085067Y-124092619D02*
X160704114Y-124092619D01*
X160704114Y-124092619D02*
X160370781Y-124473571D01*
X160370781Y-124473571D02*
X160513638Y-124473571D01*
X160513638Y-124473571D02*
X160608876Y-124521190D01*
X160608876Y-124521190D02*
X160656495Y-124568809D01*
X160656495Y-124568809D02*
X160704114Y-124664047D01*
X160704114Y-124664047D02*
X160704114Y-124902142D01*
X160704114Y-124902142D02*
X160656495Y-124997380D01*
X160656495Y-124997380D02*
X160608876Y-125045000D01*
X160608876Y-125045000D02*
X160513638Y-125092619D01*
X160513638Y-125092619D02*
X160227924Y-125092619D01*
X160227924Y-125092619D02*
X160132686Y-125045000D01*
X160132686Y-125045000D02*
X160085067Y-124997380D01*
%TO.C,R47*%
D12*
X103140742Y-73797900D02*
X103615258Y-73797900D01*
X103140742Y-74842900D02*
X103615258Y-74842900D01*
%TO.C,SW2*%
D10*
X166898600Y-109665600D02*
X168498800Y-109665600D01*
X166898600Y-116726800D02*
X166898600Y-109665600D01*
X168321000Y-106592200D02*
X170353000Y-106592200D01*
X168498800Y-116726800D02*
X166898600Y-116726800D01*
X170353000Y-103468000D02*
X179852600Y-103468000D01*
X170353000Y-106592200D02*
X170353000Y-103468000D01*
X170607000Y-119876400D02*
X168575000Y-119876400D01*
X170607000Y-124905600D02*
X170607000Y-119876400D01*
X179649400Y-119876400D02*
X179649400Y-124905600D01*
X179649400Y-124905600D02*
X170607000Y-124905600D01*
X179852600Y-103468000D02*
X179852600Y-106643000D01*
X179852600Y-106643000D02*
X181706800Y-106643000D01*
X181757600Y-119876400D02*
X179649400Y-119876400D01*
X182849800Y-108471800D02*
X184932600Y-108471800D01*
X184932600Y-108471800D02*
X184932600Y-118022200D01*
X184932600Y-118022200D02*
X182875200Y-118022200D01*
%TO.C,R36*%
D12*
X148955742Y-124120500D02*
X149430258Y-124120500D01*
X148955742Y-125165500D02*
X149430258Y-125165500D01*
%TO.C,R11*%
X121123942Y-72629500D02*
X121598458Y-72629500D01*
X121123942Y-73674500D02*
X121598458Y-73674500D01*
%TO.C,C23*%
X144607420Y-127943000D02*
X144888580Y-127943000D01*
X144607420Y-128963000D02*
X144888580Y-128963000D01*
%TO.C,C27*%
X134618000Y-65164580D02*
X134618000Y-64883420D01*
X135638000Y-65164580D02*
X135638000Y-64883420D01*
%TO.C,R49*%
X185911258Y-106360700D02*
X185436742Y-106360700D01*
X185911258Y-107405700D02*
X185436742Y-107405700D01*
%TO.C,R35*%
X144510742Y-124120500D02*
X144985258Y-124120500D01*
X144510742Y-125165500D02*
X144985258Y-125165500D01*
%TO.C,C21*%
X133717420Y-74547000D02*
X133998580Y-74547000D01*
X133717420Y-75567000D02*
X133998580Y-75567000D01*
%TO.C,J10*%
X168410000Y-60530000D02*
X169790000Y-60530000D01*
X168410000Y-61910000D02*
X168410000Y-60530000D01*
X168410000Y-63180000D02*
X168410000Y-63290000D01*
X168410000Y-63180000D02*
X171170000Y-63180000D01*
X168410000Y-63290000D02*
X171170000Y-63290000D01*
X171170000Y-63180000D02*
X171170000Y-63290000D01*
%TO.C,SW_START1*%
X160575000Y-83575000D02*
X160575000Y-83625000D01*
X160575000Y-83575000D02*
X165475000Y-83575000D01*
X160575000Y-85275000D02*
X160575000Y-86775000D01*
X160575000Y-88475000D02*
X160575000Y-88425000D01*
X160575000Y-88475000D02*
X165475000Y-88475000D01*
X165475000Y-83575000D02*
X165475000Y-83625000D01*
X165475000Y-85275000D02*
X165475000Y-86775000D01*
X165475000Y-88475000D02*
X165475000Y-88425000D01*
%TO.C,R38*%
X149430258Y-126025500D02*
X148955742Y-126025500D01*
X149430258Y-127070500D02*
X148955742Y-127070500D01*
%TO.C,J9*%
X206220000Y-61420000D02*
X207600000Y-61420000D01*
X206220000Y-62800000D02*
X206220000Y-61420000D01*
X206220000Y-64070000D02*
X206220000Y-64180000D01*
X206220000Y-64070000D02*
X208980000Y-64070000D01*
X206220000Y-64180000D02*
X208980000Y-64180000D01*
X208980000Y-64070000D02*
X208980000Y-64180000D01*
%TO.C,U2*%
X144927000Y-89380000D02*
X144982000Y-89380000D01*
X144927000Y-93500000D02*
X144927000Y-89380000D01*
X144982000Y-93500000D02*
X144927000Y-93500000D01*
X154992000Y-89380000D02*
X155047000Y-89380000D01*
X155047000Y-89380000D02*
X155047000Y-93500000D01*
X155047000Y-93500000D02*
X154992000Y-93500000D01*
X144977000Y-94040000D02*
X144647000Y-94280000D01*
X144647000Y-93800000D01*
X144977000Y-94040000D01*
G36*
X144977000Y-94040000D02*
G01*
X144647000Y-94280000D01*
X144647000Y-93800000D01*
X144977000Y-94040000D01*
G37*
%TO.C,D1*%
X144870487Y-80848544D02*
X142763309Y-78741365D01*
X144870487Y-80848544D02*
X145337178Y-80381853D01*
X146496833Y-79080777D02*
X144446223Y-77030167D01*
%TO.C,R2*%
X128635742Y-72685500D02*
X129110258Y-72685500D01*
X128635742Y-73730500D02*
X129110258Y-73730500D01*
%TO.C,SW_L1*%
D11*
X109645000Y-109120000D02*
X117645000Y-109120000D01*
X109645000Y-117120000D02*
X109645000Y-109120000D01*
X117645000Y-109120000D02*
X117645000Y-117120000D01*
X117645000Y-117120000D02*
X109645000Y-117120000D01*
%TO.C,C26*%
D12*
X139559420Y-61974000D02*
X139840580Y-61974000D01*
X139559420Y-62994000D02*
X139840580Y-62994000D01*
%TO.C,C9*%
X155715580Y-110615000D02*
X155434420Y-110615000D01*
X155715580Y-111635000D02*
X155434420Y-111635000D01*
%TO.C,SW_SELECT1*%
X134525000Y-83570000D02*
X134525000Y-83620000D01*
X134525000Y-83570000D02*
X139425000Y-83570000D01*
X134525000Y-85270000D02*
X134525000Y-86770000D01*
X134525000Y-88470000D02*
X134525000Y-88420000D01*
X134525000Y-88470000D02*
X139425000Y-88470000D01*
X139425000Y-83570000D02*
X139425000Y-83620000D01*
X139425000Y-85270000D02*
X139425000Y-86770000D01*
X139425000Y-88470000D02*
X139425000Y-88420000D01*
%TO.C,SW_D1*%
D11*
X121075000Y-120550000D02*
X129075000Y-120550000D01*
X121075000Y-128550000D02*
X121075000Y-120550000D01*
X129075000Y-120550000D02*
X129075000Y-128550000D01*
X129075000Y-128550000D02*
X121075000Y-128550000D01*
%TO.C,J7*%
D12*
X159265000Y-63320000D02*
X159265000Y-62720000D01*
X159375000Y-63320000D02*
X159265000Y-63320000D01*
X164640000Y-65910000D02*
X165040000Y-65910000D01*
X164840000Y-65510000D02*
X164640000Y-65910000D01*
X165040000Y-65910000D02*
X164840000Y-65510000D01*
X167805000Y-63320000D02*
X167915000Y-63320000D01*
X167915000Y-63320000D02*
X167915000Y-62720000D01*
%TO.C,R5*%
X147114742Y-114229500D02*
X147589258Y-114229500D01*
X147114742Y-115274500D02*
X147589258Y-115274500D01*
%TO.C,SW_B1*%
D11*
X195455000Y-78670000D02*
X203455000Y-78670000D01*
X195455000Y-86670000D02*
X195455000Y-78670000D01*
X203455000Y-78670000D02*
X203455000Y-86670000D01*
X203455000Y-86670000D02*
X195455000Y-86670000D01*
%TO.C,R48*%
D12*
X185708058Y-121092700D02*
X185233542Y-121092700D01*
X185708058Y-122137700D02*
X185233542Y-122137700D01*
%TO.C,U1*%
X151360000Y-112805000D02*
X155980000Y-112805000D01*
X155980000Y-120875000D02*
X151360000Y-120875000D01*
X149810000Y-113260000D02*
X149480000Y-113500000D01*
X149480000Y-113020000D01*
X149810000Y-113260000D01*
G36*
X149810000Y-113260000D02*
G01*
X149480000Y-113500000D01*
X149480000Y-113020000D01*
X149810000Y-113260000D01*
G37*
%TO.C,C8*%
X129013580Y-74603000D02*
X128732420Y-74603000D01*
X129013580Y-75623000D02*
X128732420Y-75623000D01*
%TO.C,SW_X1*%
D11*
X172595000Y-78670000D02*
X180595000Y-78670000D01*
X172595000Y-86670000D02*
X172595000Y-78670000D01*
X180595000Y-78670000D02*
X180595000Y-86670000D01*
X180595000Y-86670000D02*
X172595000Y-86670000D01*
%TO.C,SW_R1*%
X132505000Y-109120000D02*
X140505000Y-109120000D01*
X132505000Y-117120000D02*
X132505000Y-109120000D01*
X140505000Y-109120000D02*
X140505000Y-117120000D01*
X140505000Y-117120000D02*
X132505000Y-117120000D01*
%TO.C,C25*%
D12*
X136538580Y-61974000D02*
X136257420Y-61974000D01*
X136538580Y-62994000D02*
X136257420Y-62994000D01*
%TO.C,D2*%
X153432456Y-79151487D02*
X153899147Y-79618178D01*
X153432456Y-79151487D02*
X155539635Y-77044309D01*
X155200223Y-80777833D02*
X157250833Y-78727223D01*
%TO.C,SW_A1*%
D11*
X184025000Y-90100000D02*
X192025000Y-90100000D01*
X184025000Y-98100000D02*
X184025000Y-90100000D01*
X192025000Y-90100000D02*
X192025000Y-98100000D01*
X192025000Y-98100000D02*
X184025000Y-98100000D01*
%TO.C,SW_Y1*%
X184025000Y-67240000D02*
X192025000Y-67240000D01*
X184025000Y-75240000D02*
X184025000Y-67240000D01*
X192025000Y-67240000D02*
X192025000Y-75240000D01*
X192025000Y-75240000D02*
X184025000Y-75240000D01*
%TO.C,SW_U1*%
X121075000Y-97690000D02*
X129075000Y-97690000D01*
X121075000Y-105690000D02*
X121075000Y-97690000D01*
X129075000Y-97690000D02*
X129075000Y-105690000D01*
X129075000Y-105690000D02*
X121075000Y-105690000D01*
%TO.C,R29*%
D12*
X163941742Y-70780500D02*
X164416258Y-70780500D01*
X163941742Y-71825500D02*
X164416258Y-71825500D01*
%TO.C,R37*%
X144985258Y-126025500D02*
X144510742Y-126025500D01*
X144985258Y-127070500D02*
X144510742Y-127070500D01*
%TO.C,C10*%
X151624420Y-110615000D02*
X151905580Y-110615000D01*
X151624420Y-111635000D02*
X151905580Y-111635000D01*
%TO.C,R32*%
X164416258Y-72685500D02*
X163941742Y-72685500D01*
X164416258Y-73730500D02*
X163941742Y-73730500D01*
%TO.C,SW1*%
D10*
X102323000Y-77742400D02*
X105498000Y-77742400D01*
X102323000Y-87242000D02*
X102323000Y-77742400D01*
X105447200Y-87242000D02*
X102323000Y-87242000D01*
X105447200Y-89274000D02*
X105447200Y-87242000D01*
X105498000Y-77742400D02*
X105498000Y-75888200D01*
X107326800Y-72662400D02*
X116877200Y-72662400D01*
X107326800Y-74745200D02*
X107326800Y-72662400D01*
X108520600Y-90696400D02*
X108520600Y-89096200D01*
X115581800Y-89096200D02*
X115581800Y-90696400D01*
X115581800Y-90696400D02*
X108520600Y-90696400D01*
X116877200Y-72662400D02*
X116877200Y-74719800D01*
X118731400Y-75837400D02*
X118731400Y-77945600D01*
X118731400Y-77945600D02*
X123760600Y-77945600D01*
X118731400Y-86988000D02*
X118731400Y-89020000D01*
X123760600Y-77945600D02*
X123760600Y-86988000D01*
X123760600Y-86988000D02*
X118731400Y-86988000D01*
%TO.C,R4*%
D12*
X163330658Y-126020300D02*
X162856142Y-126020300D01*
X163330658Y-127065300D02*
X162856142Y-127065300D01*
%TO.C,SW_MENU1*%
D11*
X146000000Y-69570000D02*
X154000000Y-69570000D01*
X146000000Y-77570000D02*
X146000000Y-69570000D01*
X154000000Y-69570000D02*
X154000000Y-77570000D01*
X154000000Y-77570000D02*
X146000000Y-77570000D01*
%TO.C,C24*%
D12*
X149052420Y-127943000D02*
X149333580Y-127943000D01*
X149052420Y-128963000D02*
X149333580Y-128963000D01*
%TO.C,C20*%
X164038420Y-74603000D02*
X164319580Y-74603000D01*
X164038420Y-75623000D02*
X164319580Y-75623000D01*
%TO.C,R1*%
X128635742Y-70780500D02*
X129110258Y-70780500D01*
X128635742Y-71825500D02*
X129110258Y-71825500D01*
%TO.C,R30*%
X133620742Y-70724500D02*
X134095258Y-70724500D01*
X133620742Y-71769500D02*
X134095258Y-71769500D01*
%TO.C,J8*%
X201921600Y-100626400D02*
X203301600Y-100626400D01*
X201921600Y-102006400D02*
X201921600Y-100626400D01*
X201921600Y-103276400D02*
X201921600Y-103386400D01*
X201921600Y-103276400D02*
X204681600Y-103276400D01*
X201921600Y-103386400D02*
X204681600Y-103386400D01*
X204681600Y-103276400D02*
X204681600Y-103386400D01*
%TO.C,R33*%
X134095258Y-72629500D02*
X133620742Y-72629500D01*
X134095258Y-73674500D02*
X133620742Y-73674500D01*
%TO.C,C11*%
X162952820Y-127937800D02*
X163233980Y-127937800D01*
X162952820Y-128957800D02*
X163233980Y-128957800D01*
%TO.C,U5*%
X137074000Y-64430000D02*
X137549000Y-64430000D01*
X137074000Y-64905000D02*
X137074000Y-64430000D01*
X137074000Y-67650000D02*
X137074000Y-67175000D01*
X137549000Y-67650000D02*
X137074000Y-67650000D01*
X139819000Y-64430000D02*
X140294000Y-64430000D01*
X140294000Y-64430000D02*
X140294000Y-64905000D01*
X140294000Y-67175000D02*
X140294000Y-67650000D01*
X140294000Y-67650000D02*
X139819000Y-67650000D01*
X140824000Y-66790000D02*
X141154000Y-66550000D01*
X141154000Y-67030000D01*
X140824000Y-66790000D01*
G36*
X141154000Y-67030000D02*
G01*
X140824000Y-66790000D01*
X141154000Y-66550000D01*
X141154000Y-67030000D01*
G37*
%TO.C,R3*%
X163330658Y-124115300D02*
X162856142Y-124115300D01*
X163330658Y-125160300D02*
X162856142Y-125160300D01*
%TD*%
%LPC*%
%TO.C,SW_L1*%
X109581000Y-109056000D02*
X117709000Y-109056000D01*
X117709000Y-117184000D01*
X109581000Y-117184000D01*
X109581000Y-109056000D01*
G36*
X109581000Y-109056000D02*
G01*
X117709000Y-109056000D01*
X117709000Y-117184000D01*
X109581000Y-117184000D01*
X109581000Y-109056000D01*
G37*
%TO.C,SW_D1*%
X121011000Y-120486000D02*
X129139000Y-120486000D01*
X129139000Y-128614000D01*
X121011000Y-128614000D01*
X121011000Y-120486000D01*
G36*
X121011000Y-120486000D02*
G01*
X129139000Y-120486000D01*
X129139000Y-128614000D01*
X121011000Y-128614000D01*
X121011000Y-120486000D01*
G37*
%TO.C,SW_B1*%
X195391000Y-78606000D02*
X203519000Y-78606000D01*
X203519000Y-86734000D01*
X195391000Y-86734000D01*
X195391000Y-78606000D01*
G36*
X195391000Y-78606000D02*
G01*
X203519000Y-78606000D01*
X203519000Y-86734000D01*
X195391000Y-86734000D01*
X195391000Y-78606000D01*
G37*
%TO.C,SW_X1*%
X172531000Y-78606000D02*
X180659000Y-78606000D01*
X180659000Y-86734000D01*
X172531000Y-86734000D01*
X172531000Y-78606000D01*
G36*
X172531000Y-78606000D02*
G01*
X180659000Y-78606000D01*
X180659000Y-86734000D01*
X172531000Y-86734000D01*
X172531000Y-78606000D01*
G37*
%TO.C,SW_R1*%
X132441000Y-109056000D02*
X140569000Y-109056000D01*
X140569000Y-117184000D01*
X132441000Y-117184000D01*
X132441000Y-109056000D01*
G36*
X132441000Y-109056000D02*
G01*
X140569000Y-109056000D01*
X140569000Y-117184000D01*
X132441000Y-117184000D01*
X132441000Y-109056000D01*
G37*
%TO.C,SW_A1*%
X183961000Y-90036000D02*
X192089000Y-90036000D01*
X192089000Y-98164000D01*
X183961000Y-98164000D01*
X183961000Y-90036000D01*
G36*
X183961000Y-90036000D02*
G01*
X192089000Y-90036000D01*
X192089000Y-98164000D01*
X183961000Y-98164000D01*
X183961000Y-90036000D01*
G37*
%TO.C,SW_Y1*%
X183961000Y-67176000D02*
X192089000Y-67176000D01*
X192089000Y-75304000D01*
X183961000Y-75304000D01*
X183961000Y-67176000D01*
G36*
X183961000Y-67176000D02*
G01*
X192089000Y-67176000D01*
X192089000Y-75304000D01*
X183961000Y-75304000D01*
X183961000Y-67176000D01*
G37*
%TO.C,SW_U1*%
X121011000Y-97626000D02*
X129139000Y-97626000D01*
X129139000Y-105754000D01*
X121011000Y-105754000D01*
X121011000Y-97626000D01*
G36*
X121011000Y-97626000D02*
G01*
X129139000Y-97626000D01*
X129139000Y-105754000D01*
X121011000Y-105754000D01*
X121011000Y-97626000D01*
G37*
%TO.C,SW_MENU1*%
X145936000Y-69506000D02*
X154064000Y-69506000D01*
X154064000Y-77634000D01*
X145936000Y-77634000D01*
X145936000Y-69506000D01*
G36*
X145936000Y-69506000D02*
G01*
X154064000Y-69506000D01*
X154064000Y-77634000D01*
X145936000Y-77634000D01*
X145936000Y-69506000D01*
G37*
%TD*%
D13*
%TO.C,R47*%
X102553000Y-74320400D03*
X104203000Y-74320400D03*
%TD*%
D14*
%TO.C,SW2*%
X178328600Y-123508600D03*
D15*
X176728600Y-118786600D03*
D14*
X171826200Y-123508600D03*
X171826200Y-118936600D03*
X183865800Y-110630800D03*
X183865800Y-113170800D03*
X183865800Y-115710800D03*
X172385000Y-104484000D03*
X174925000Y-104484000D03*
X177465000Y-104484000D03*
D16*
X181427400Y-108090800D03*
X181427400Y-118225400D03*
X168727400Y-118225400D03*
X168727400Y-108090800D03*
%TD*%
D17*
%TO.C,H5*%
X122005000Y-92602600D03*
%TD*%
D13*
%TO.C,R36*%
X148368000Y-124643000D03*
X150018000Y-124643000D03*
%TD*%
%TO.C,R11*%
X120536200Y-73152000D03*
X122186200Y-73152000D03*
%TD*%
D18*
%TO.C,C23*%
X143973000Y-128453000D03*
X145523000Y-128453000D03*
%TD*%
D19*
%TO.C,C27*%
X135128000Y-65799000D03*
X135128000Y-64249000D03*
%TD*%
D20*
%TO.C,R49*%
X186499000Y-106883200D03*
X184849000Y-106883200D03*
%TD*%
D13*
%TO.C,R35*%
X143923000Y-124643000D03*
X145573000Y-124643000D03*
%TD*%
D18*
%TO.C,C21*%
X133083000Y-75057000D03*
X134633000Y-75057000D03*
%TD*%
D21*
%TO.C,J10*%
X169790000Y-61910000D03*
%TD*%
D22*
%TO.C,SW_START1*%
X160400000Y-84425000D03*
X165650000Y-84425000D03*
X160400000Y-87625000D03*
X165650000Y-87625000D03*
%TD*%
D20*
%TO.C,R38*%
X150018000Y-126548000D03*
X148368000Y-126548000D03*
%TD*%
D21*
%TO.C,J9*%
X207600000Y-62800000D03*
%TD*%
D17*
%TO.C,H7*%
X178005000Y-92602600D03*
%TD*%
D23*
%TO.C,U2*%
X145542000Y-93915000D03*
X146812000Y-93915000D03*
X148082000Y-93915000D03*
X149352000Y-93915000D03*
X150622000Y-93915000D03*
X151892000Y-93915000D03*
X153162000Y-93915000D03*
X154432000Y-93915000D03*
X154432000Y-88965000D03*
X153162000Y-88965000D03*
X151892000Y-88965000D03*
X150622000Y-88965000D03*
X149352000Y-88965000D03*
X148082000Y-88965000D03*
X146812000Y-88965000D03*
X145542000Y-88965000D03*
%TD*%
D24*
%TO.C,H4*%
X203275000Y-125120000D03*
%TD*%
D25*
%TO.C,D1*%
X144835132Y-79964660D03*
X145683660Y-79116132D03*
X144410868Y-77843340D03*
X143562340Y-78691868D03*
%TD*%
D13*
%TO.C,R2*%
X128048000Y-73208000D03*
X129698000Y-73208000D03*
%TD*%
D18*
%TO.C,C26*%
X138925000Y-62484000D03*
X140475000Y-62484000D03*
%TD*%
D24*
%TO.C,H2*%
X188025000Y-82670000D03*
%TD*%
D26*
%TO.C,C9*%
X156350000Y-111125000D03*
X154800000Y-111125000D03*
%TD*%
D22*
%TO.C,SW_SELECT1*%
X134350000Y-84420000D03*
X139600000Y-84420000D03*
X134350000Y-87620000D03*
X139600000Y-87620000D03*
%TD*%
D27*
%TO.C,J7*%
X164840000Y-66710000D03*
X164340000Y-66710000D03*
X163840000Y-66710000D03*
X163340000Y-66710000D03*
X162840000Y-66710000D03*
X162340000Y-66710000D03*
D28*
X166510000Y-65010000D03*
X160670000Y-65010000D03*
%TD*%
D13*
%TO.C,R5*%
X146527000Y-114752000D03*
X148177000Y-114752000D03*
%TD*%
D24*
%TO.C,H8*%
X96675000Y-125120000D03*
%TD*%
D20*
%TO.C,R48*%
X186295800Y-121615200D03*
X184645800Y-121615200D03*
%TD*%
D29*
%TO.C,U1*%
X150807500Y-113265000D03*
X150807500Y-113915000D03*
X150807500Y-114565000D03*
X150807500Y-115215000D03*
X150807500Y-115865000D03*
X150807500Y-116515000D03*
X150807500Y-117165000D03*
X150807500Y-117815000D03*
X150807500Y-118465000D03*
X150807500Y-119115000D03*
X150807500Y-119765000D03*
X150807500Y-120415000D03*
X156532500Y-120415000D03*
X156532500Y-119765000D03*
X156532500Y-119115000D03*
X156532500Y-118465000D03*
X156532500Y-117815000D03*
X156532500Y-117165000D03*
X156532500Y-116515000D03*
X156532500Y-115865000D03*
X156532500Y-115215000D03*
X156532500Y-114565000D03*
X156532500Y-113915000D03*
X156532500Y-113265000D03*
%TD*%
D26*
%TO.C,C8*%
X129648000Y-75113000D03*
X128098000Y-75113000D03*
%TD*%
%TO.C,C25*%
X137173000Y-62484000D03*
X135623000Y-62484000D03*
%TD*%
D30*
%TO.C,D2*%
X154316340Y-79116132D03*
X155164868Y-79964660D03*
X156437660Y-78691868D03*
X155589132Y-77843340D03*
%TD*%
D13*
%TO.C,R29*%
X163354000Y-71303000D03*
X165004000Y-71303000D03*
%TD*%
D20*
%TO.C,R37*%
X145573000Y-126548000D03*
X143923000Y-126548000D03*
%TD*%
D24*
%TO.C,H3*%
X96725000Y-71470000D03*
%TD*%
D18*
%TO.C,C10*%
X150990000Y-111125000D03*
X152540000Y-111125000D03*
%TD*%
D24*
%TO.C,H9*%
X94742000Y-82550000D03*
%TD*%
D20*
%TO.C,R32*%
X165004000Y-73208000D03*
X163354000Y-73208000D03*
%TD*%
D14*
%TO.C,SW1*%
X122363600Y-79266400D03*
D31*
X117641600Y-80866400D03*
D14*
X122363600Y-85768800D03*
X117791600Y-85768800D03*
X109485800Y-73729200D03*
X112025800Y-73729200D03*
X114565800Y-73729200D03*
X103339000Y-85210000D03*
X103339000Y-82670000D03*
X103339000Y-80130000D03*
D32*
X106945800Y-76167600D03*
X117080400Y-76167600D03*
X117080400Y-88867600D03*
X106945800Y-88867600D03*
%TD*%
D20*
%TO.C,R4*%
X163918400Y-126542800D03*
X162268400Y-126542800D03*
%TD*%
D24*
%TO.C,H1*%
X109728000Y-125222000D03*
%TD*%
D18*
%TO.C,C24*%
X148418000Y-128453000D03*
X149968000Y-128453000D03*
%TD*%
D24*
%TO.C,H6*%
X176575000Y-71420000D03*
%TD*%
D18*
%TO.C,C20*%
X163404000Y-75113000D03*
X164954000Y-75113000D03*
%TD*%
D13*
%TO.C,R1*%
X128048000Y-71303000D03*
X129698000Y-71303000D03*
%TD*%
%TO.C,R30*%
X133033000Y-71247000D03*
X134683000Y-71247000D03*
%TD*%
D21*
%TO.C,J8*%
X203301600Y-102006400D03*
%TD*%
D20*
%TO.C,R33*%
X134683000Y-73152000D03*
X133033000Y-73152000D03*
%TD*%
D18*
%TO.C,C11*%
X162318400Y-128447800D03*
X163868400Y-128447800D03*
%TD*%
D33*
%TO.C,U5*%
X140121500Y-66790000D03*
X140121500Y-66290000D03*
X140121500Y-65790000D03*
X140121500Y-65290000D03*
D34*
X139434000Y-64602500D03*
X138934000Y-64602500D03*
X138434000Y-64602500D03*
X137934000Y-64602500D03*
D33*
X137246500Y-65290000D03*
X137246500Y-65790000D03*
X137246500Y-66290000D03*
X137246500Y-66790000D03*
D34*
X137934000Y-67477500D03*
X138434000Y-67477500D03*
X138934000Y-67477500D03*
X139434000Y-67477500D03*
D35*
X138684000Y-66040000D03*
%TD*%
D20*
%TO.C,R3*%
X163918400Y-124637800D03*
X162268400Y-124637800D03*
%TD*%
%LPD*%
M02*
