%TF.GenerationSoftware,KiCad,Pcbnew,10.0.5*%
%TF.CreationDate,2026-09-14T16:50:40+01:00*%
%TF.ProjectId,gk-controls,676b2d63-6f6e-4747-926f-6c732e6b6963,rev?*%
%TF.SameCoordinates,Original*%
%TF.FileFunction,Soldermask,Bot*%
%TF.FilePolarity,Negative*%
%FSLAX46Y46*%
G04 Gerber Fmt 4.6, Leading zero omitted, Abs format (unit mm)*
G04 Created by KiCad (PCBNEW 10.0.5) date 2026-09-14 16:50:40*
%MOMM*%
%LPD*%
G01*
G04 APERTURE LIST*
G04 Aperture macros list*
%AMRoundRect*
0 Rectangle with rounded corners*
0 $1 Rounding radius*
0 $2 $3 $4 $5 $6 $7 $8 $9 X,Y pos of 4 corners*
0 Add a 4 corners polygon primitive as box body*
4,1,4,$2,$3,$4,$5,$6,$7,$8,$9,$2,$3,0*
0 Add four circle primitives for the rounded corners*
1,1,$1+$1,$2,$3*
1,1,$1+$1,$4,$5*
1,1,$1+$1,$6,$7*
1,1,$1+$1,$8,$9*
0 Add four rect primitives between the rounded corners*
20,1,$1+$1,$2,$3,$4,$5,0*
20,1,$1+$1,$4,$5,$6,$7,0*
20,1,$1+$1,$6,$7,$8,$9,0*
20,1,$1+$1,$8,$9,$2,$3,0*%
G04 Aperture macros list end*
%ADD10C,1.800000*%
%ADD11O,5.000000X2.400000*%
%ADD12O,1.800000X2.300000*%
%ADD13C,2.700000*%
%ADD14R,1.700000X1.700000*%
%ADD15C,3.200000*%
%ADD16O,2.400000X5.000000*%
%ADD17O,2.300000X1.800000*%
%ADD18RoundRect,0.200000X-0.200000X-0.275000X0.200000X-0.275000X0.200000X0.275000X-0.200000X0.275000X0*%
%ADD19RoundRect,0.200000X0.200000X0.275000X-0.200000X0.275000X-0.200000X-0.275000X0.200000X-0.275000X0*%
%ADD20RoundRect,0.200000X-0.275000X0.200000X-0.275000X-0.200000X0.275000X-0.200000X0.275000X0.200000X0*%
%ADD21R,0.740000X2.400000*%
%ADD22RoundRect,0.225000X-0.225000X-0.250000X0.225000X-0.250000X0.225000X0.250000X-0.225000X0.250000X0*%
%ADD23RoundRect,0.250000X-0.475000X0.250000X-0.475000X-0.250000X0.475000X-0.250000X0.475000X0.250000X0*%
%ADD24RoundRect,0.250000X-0.250000X-0.475000X0.250000X-0.475000X0.250000X0.475000X-0.250000X0.475000X0*%
%ADD25R,5.100000X5.100000*%
%ADD26C,17.800000*%
%ADD27R,0.300000X1.100000*%
%ADD28R,2.300000X3.100000*%
G04 APERTURE END LIST*
D10*
%TO.C,SW2*%
X178328600Y-123508600D03*
D11*
X176728600Y-118786600D03*
D10*
X171826200Y-123508600D03*
X171826200Y-118936600D03*
X183865800Y-110630800D03*
X183865800Y-113170800D03*
X183865800Y-115710800D03*
X172385000Y-104484000D03*
X174925000Y-104484000D03*
X177465000Y-104484000D03*
D12*
X181427400Y-108090800D03*
X181427400Y-118225400D03*
X168727400Y-118225400D03*
X168727400Y-108090800D03*
%TD*%
D13*
%TO.C,H5*%
X122005000Y-92602600D03*
%TD*%
D14*
%TO.C,J10*%
X169790000Y-61910000D03*
%TD*%
%TO.C,J9*%
X207600000Y-62800000D03*
%TD*%
D13*
%TO.C,H7*%
X178005000Y-92602600D03*
%TD*%
D15*
%TO.C,H4*%
X203275000Y-125120000D03*
%TD*%
%TO.C,H2*%
X188025000Y-82670000D03*
%TD*%
%TO.C,H8*%
X96675000Y-125120000D03*
%TD*%
%TO.C,H3*%
X96725000Y-71470000D03*
%TD*%
%TO.C,H9*%
X94742000Y-82550000D03*
%TD*%
D10*
%TO.C,SW1*%
X122363600Y-79266400D03*
D16*
X117641600Y-80866400D03*
D10*
X122363600Y-85768800D03*
X117791600Y-85768800D03*
X109485800Y-73729200D03*
X112025800Y-73729200D03*
X114565800Y-73729200D03*
X103339000Y-85210000D03*
X103339000Y-82670000D03*
X103339000Y-80130000D03*
D17*
X106945800Y-76167600D03*
X117080400Y-76167600D03*
X117080400Y-88867600D03*
X106945800Y-88867600D03*
%TD*%
D15*
%TO.C,H1*%
X109728000Y-125222000D03*
%TD*%
%TO.C,H6*%
X176575000Y-71420000D03*
%TD*%
D14*
%TO.C,J8*%
X203301600Y-102006400D03*
%TD*%
D18*
%TO.C,R21*%
X116110000Y-105085000D03*
X117760000Y-105085000D03*
%TD*%
D19*
%TO.C,R27*%
X127920000Y-103180000D03*
X126270000Y-103180000D03*
%TD*%
%TO.C,R25*%
X117760000Y-103180000D03*
X116110000Y-103180000D03*
%TD*%
%TO.C,R28*%
X133000000Y-103053000D03*
X131350000Y-103053000D03*
%TD*%
D20*
%TO.C,R53*%
X151638000Y-102807000D03*
X151638000Y-104457000D03*
%TD*%
D21*
%TO.C,J1*%
X144285000Y-123526000D03*
X144285000Y-127426000D03*
X145555000Y-123526000D03*
X145555000Y-127426000D03*
X146825000Y-123526000D03*
X146825000Y-127426000D03*
X148095000Y-123526000D03*
X148095000Y-127426000D03*
X149365000Y-123526000D03*
X149365000Y-127426000D03*
X150635000Y-123526000D03*
X150635000Y-127426000D03*
X151905000Y-123526000D03*
X151905000Y-127426000D03*
X153175000Y-123526000D03*
X153175000Y-127426000D03*
X154445000Y-123526000D03*
X154445000Y-127426000D03*
X155715000Y-123526000D03*
X155715000Y-127426000D03*
%TD*%
D18*
%TO.C,R22*%
X121190000Y-105085000D03*
X122840000Y-105085000D03*
%TD*%
D22*
%TO.C,C12*%
X165690000Y-96195000D03*
X167240000Y-96195000D03*
%TD*%
D18*
%TO.C,R24*%
X131350000Y-104958000D03*
X133000000Y-104958000D03*
%TD*%
D22*
%TO.C,C15*%
X180930000Y-96195000D03*
X182480000Y-96195000D03*
%TD*%
D19*
%TO.C,R19*%
X177450000Y-98100000D03*
X175800000Y-98100000D03*
%TD*%
D18*
%TO.C,R13*%
X165640000Y-100005000D03*
X167290000Y-100005000D03*
%TD*%
D19*
%TO.C,R18*%
X172275000Y-92710000D03*
X170625000Y-92710000D03*
%TD*%
D22*
%TO.C,C22*%
X127495000Y-63576200D03*
X129045000Y-63576200D03*
%TD*%
D19*
%TO.C,R34*%
X129095000Y-65481200D03*
X127445000Y-65481200D03*
%TD*%
D18*
%TO.C,R23*%
X126270000Y-105085000D03*
X127920000Y-105085000D03*
%TD*%
D20*
%TO.C,R51*%
X146304000Y-102807000D03*
X146304000Y-104457000D03*
%TD*%
D22*
%TO.C,C17*%
X121240000Y-101275000D03*
X122790000Y-101275000D03*
%TD*%
D18*
%TO.C,R10*%
X158782000Y-79431000D03*
X160432000Y-79431000D03*
%TD*%
D23*
%TO.C,C2*%
X136144000Y-122748000D03*
X136144000Y-124648000D03*
%TD*%
%TO.C,C1*%
X139954000Y-125034000D03*
X139954000Y-126934000D03*
%TD*%
D19*
%TO.C,R26*%
X122840000Y-103180000D03*
X121190000Y-103180000D03*
%TD*%
D22*
%TO.C,C19*%
X131400000Y-101148000D03*
X132950000Y-101148000D03*
%TD*%
%TO.C,C14*%
X175850000Y-96195000D03*
X177400000Y-96195000D03*
%TD*%
D19*
%TO.C,R6*%
X148875000Y-84765000D03*
X147225000Y-84765000D03*
%TD*%
D20*
%TO.C,R50*%
X148082000Y-102807000D03*
X148082000Y-104457000D03*
%TD*%
D24*
%TO.C,C3*%
X148402000Y-117094000D03*
X150302000Y-117094000D03*
%TD*%
D20*
%TO.C,R52*%
X149860000Y-102807000D03*
X149860000Y-104457000D03*
%TD*%
D19*
%TO.C,R7*%
X141382000Y-77272000D03*
X139732000Y-77272000D03*
%TD*%
D22*
%TO.C,C16*%
X116160000Y-101275000D03*
X117710000Y-101275000D03*
%TD*%
D19*
%TO.C,R17*%
X167290000Y-98100000D03*
X165640000Y-98100000D03*
%TD*%
D18*
%TO.C,R16*%
X180880000Y-100005000D03*
X182530000Y-100005000D03*
%TD*%
D25*
%TO.C,BT1*%
X100198756Y-91370000D03*
X100198756Y-116970000D03*
D26*
X100198756Y-104170000D03*
%TD*%
D18*
%TO.C,R15*%
X175800000Y-100005000D03*
X177450000Y-100005000D03*
%TD*%
D22*
%TO.C,C13*%
X170675000Y-90805000D03*
X172225000Y-90805000D03*
%TD*%
D19*
%TO.C,R20*%
X182530000Y-98100000D03*
X180880000Y-98100000D03*
%TD*%
D18*
%TO.C,R31*%
X127445000Y-67386200D03*
X129095000Y-67386200D03*
%TD*%
D19*
%TO.C,R9*%
X152685000Y-84765000D03*
X151035000Y-84765000D03*
%TD*%
D22*
%TO.C,C18*%
X126320000Y-101275000D03*
X127870000Y-101275000D03*
%TD*%
D18*
%TO.C,R12*%
X158782000Y-77526000D03*
X160432000Y-77526000D03*
%TD*%
D27*
%TO.C,J11*%
X108750000Y-84154000D03*
X109250000Y-84154000D03*
X109750000Y-84154000D03*
X110250000Y-84154000D03*
X110750000Y-84154000D03*
X111250000Y-84154000D03*
D28*
X107080000Y-82454000D03*
X112920000Y-82454000D03*
%TD*%
D19*
%TO.C,R8*%
X141382000Y-79177000D03*
X139732000Y-79177000D03*
%TD*%
D18*
%TO.C,R14*%
X170625000Y-94615000D03*
X172275000Y-94615000D03*
%TD*%
M02*
