%TF.GenerationSoftware,KiCad,Pcbnew,9.0.5*%
%TF.CreationDate,2025-11-15T17:59:51+00:00*%
%TF.ProjectId,gk-controls,676b2d63-6f6e-4747-926f-6c732e6b6963,rev?*%
%TF.SameCoordinates,Original*%
%TF.FileFunction,Legend,Bot*%
%TF.FilePolarity,Positive*%
%FSLAX46Y46*%
G04 Gerber Fmt 4.6, Leading zero omitted, Abs format (unit mm)*
G04 Created by KiCad (PCBNEW 9.0.5) date 2025-11-15 17:59:51*
%MOMM*%
%LPD*%
G01*
G04 APERTURE LIST*
G04 Aperture macros list*
%AMRoundRect*
0 Rectangle with rounded corners*
0 $1 Rounding radius*
0 $2 $3 $4 $5 $6 $7 $8 $9 X,Y pos of 4 corners*
0 Add a 4 corners polygon primitive as box body*
4,1,4,$2,$3,$4,$5,$6,$7,$8,$9,$2,$3,0*
0 Add four circle primitives for the rounded corners*
1,1,$1+$1,$2,$3*
1,1,$1+$1,$4,$5*
1,1,$1+$1,$6,$7*
1,1,$1+$1,$8,$9*
0 Add four rect primitives between the rounded corners*
20,1,$1+$1,$2,$3,$4,$5,0*
20,1,$1+$1,$4,$5,$6,$7,0*
20,1,$1+$1,$6,$7,$8,$9,0*
20,1,$1+$1,$8,$9,$2,$3,0*%
G04 Aperture macros list end*
%ADD10C,0.150000*%
%ADD11C,0.120000*%
%ADD12C,1.800000*%
%ADD13O,5.000000X2.400000*%
%ADD14O,1.800000X2.300000*%
%ADD15R,1.700000X1.700000*%
%ADD16C,3.200000*%
%ADD17O,2.400000X5.000000*%
%ADD18O,2.300000X1.800000*%
%ADD19RoundRect,0.200000X-0.200000X-0.275000X0.200000X-0.275000X0.200000X0.275000X-0.200000X0.275000X0*%
%ADD20RoundRect,0.200000X0.200000X0.275000X-0.200000X0.275000X-0.200000X-0.275000X0.200000X-0.275000X0*%
%ADD21R,0.740000X2.400000*%
%ADD22RoundRect,0.225000X-0.225000X-0.250000X0.225000X-0.250000X0.225000X0.250000X-0.225000X0.250000X0*%
%ADD23RoundRect,0.250000X-0.250000X-0.475000X0.250000X-0.475000X0.250000X0.475000X-0.250000X0.475000X0*%
G04 APERTURE END LIST*
D10*
X70492857Y-76019819D02*
X70826190Y-75543628D01*
X71064285Y-76019819D02*
X71064285Y-75019819D01*
X71064285Y-75019819D02*
X70683333Y-75019819D01*
X70683333Y-75019819D02*
X70588095Y-75067438D01*
X70588095Y-75067438D02*
X70540476Y-75115057D01*
X70540476Y-75115057D02*
X70492857Y-75210295D01*
X70492857Y-75210295D02*
X70492857Y-75353152D01*
X70492857Y-75353152D02*
X70540476Y-75448390D01*
X70540476Y-75448390D02*
X70588095Y-75496009D01*
X70588095Y-75496009D02*
X70683333Y-75543628D01*
X70683333Y-75543628D02*
X71064285Y-75543628D01*
X70111904Y-75115057D02*
X70064285Y-75067438D01*
X70064285Y-75067438D02*
X69969047Y-75019819D01*
X69969047Y-75019819D02*
X69730952Y-75019819D01*
X69730952Y-75019819D02*
X69635714Y-75067438D01*
X69635714Y-75067438D02*
X69588095Y-75115057D01*
X69588095Y-75115057D02*
X69540476Y-75210295D01*
X69540476Y-75210295D02*
X69540476Y-75305533D01*
X69540476Y-75305533D02*
X69588095Y-75448390D01*
X69588095Y-75448390D02*
X70159523Y-76019819D01*
X70159523Y-76019819D02*
X69540476Y-76019819D01*
X68588095Y-76019819D02*
X69159523Y-76019819D01*
X68873809Y-76019819D02*
X68873809Y-75019819D01*
X68873809Y-75019819D02*
X68969047Y-75162676D01*
X68969047Y-75162676D02*
X69064285Y-75257914D01*
X69064285Y-75257914D02*
X69159523Y-75305533D01*
X81734819Y-73017142D02*
X81258628Y-72683809D01*
X81734819Y-72445714D02*
X80734819Y-72445714D01*
X80734819Y-72445714D02*
X80734819Y-72826666D01*
X80734819Y-72826666D02*
X80782438Y-72921904D01*
X80782438Y-72921904D02*
X80830057Y-72969523D01*
X80830057Y-72969523D02*
X80925295Y-73017142D01*
X80925295Y-73017142D02*
X81068152Y-73017142D01*
X81068152Y-73017142D02*
X81163390Y-72969523D01*
X81163390Y-72969523D02*
X81211009Y-72921904D01*
X81211009Y-72921904D02*
X81258628Y-72826666D01*
X81258628Y-72826666D02*
X81258628Y-72445714D01*
X80830057Y-73398095D02*
X80782438Y-73445714D01*
X80782438Y-73445714D02*
X80734819Y-73540952D01*
X80734819Y-73540952D02*
X80734819Y-73779047D01*
X80734819Y-73779047D02*
X80782438Y-73874285D01*
X80782438Y-73874285D02*
X80830057Y-73921904D01*
X80830057Y-73921904D02*
X80925295Y-73969523D01*
X80925295Y-73969523D02*
X81020533Y-73969523D01*
X81020533Y-73969523D02*
X81163390Y-73921904D01*
X81163390Y-73921904D02*
X81734819Y-73350476D01*
X81734819Y-73350476D02*
X81734819Y-73969523D01*
X80734819Y-74302857D02*
X80734819Y-74969523D01*
X80734819Y-74969523D02*
X81734819Y-74540952D01*
X70492857Y-74114819D02*
X70826190Y-73638628D01*
X71064285Y-74114819D02*
X71064285Y-73114819D01*
X71064285Y-73114819D02*
X70683333Y-73114819D01*
X70683333Y-73114819D02*
X70588095Y-73162438D01*
X70588095Y-73162438D02*
X70540476Y-73210057D01*
X70540476Y-73210057D02*
X70492857Y-73305295D01*
X70492857Y-73305295D02*
X70492857Y-73448152D01*
X70492857Y-73448152D02*
X70540476Y-73543390D01*
X70540476Y-73543390D02*
X70588095Y-73591009D01*
X70588095Y-73591009D02*
X70683333Y-73638628D01*
X70683333Y-73638628D02*
X71064285Y-73638628D01*
X70111904Y-73210057D02*
X70064285Y-73162438D01*
X70064285Y-73162438D02*
X69969047Y-73114819D01*
X69969047Y-73114819D02*
X69730952Y-73114819D01*
X69730952Y-73114819D02*
X69635714Y-73162438D01*
X69635714Y-73162438D02*
X69588095Y-73210057D01*
X69588095Y-73210057D02*
X69540476Y-73305295D01*
X69540476Y-73305295D02*
X69540476Y-73400533D01*
X69540476Y-73400533D02*
X69588095Y-73543390D01*
X69588095Y-73543390D02*
X70159523Y-74114819D01*
X70159523Y-74114819D02*
X69540476Y-74114819D01*
X68635714Y-73114819D02*
X69111904Y-73114819D01*
X69111904Y-73114819D02*
X69159523Y-73591009D01*
X69159523Y-73591009D02*
X69111904Y-73543390D01*
X69111904Y-73543390D02*
X69016666Y-73495771D01*
X69016666Y-73495771D02*
X68778571Y-73495771D01*
X68778571Y-73495771D02*
X68683333Y-73543390D01*
X68683333Y-73543390D02*
X68635714Y-73591009D01*
X68635714Y-73591009D02*
X68588095Y-73686247D01*
X68588095Y-73686247D02*
X68588095Y-73924342D01*
X68588095Y-73924342D02*
X68635714Y-74019580D01*
X68635714Y-74019580D02*
X68683333Y-74067200D01*
X68683333Y-74067200D02*
X68778571Y-74114819D01*
X68778571Y-74114819D02*
X69016666Y-74114819D01*
X69016666Y-74114819D02*
X69111904Y-74067200D01*
X69111904Y-74067200D02*
X69159523Y-74019580D01*
X93352857Y-74114819D02*
X93686190Y-73638628D01*
X93924285Y-74114819D02*
X93924285Y-73114819D01*
X93924285Y-73114819D02*
X93543333Y-73114819D01*
X93543333Y-73114819D02*
X93448095Y-73162438D01*
X93448095Y-73162438D02*
X93400476Y-73210057D01*
X93400476Y-73210057D02*
X93352857Y-73305295D01*
X93352857Y-73305295D02*
X93352857Y-73448152D01*
X93352857Y-73448152D02*
X93400476Y-73543390D01*
X93400476Y-73543390D02*
X93448095Y-73591009D01*
X93448095Y-73591009D02*
X93543333Y-73638628D01*
X93543333Y-73638628D02*
X93924285Y-73638628D01*
X92971904Y-73210057D02*
X92924285Y-73162438D01*
X92924285Y-73162438D02*
X92829047Y-73114819D01*
X92829047Y-73114819D02*
X92590952Y-73114819D01*
X92590952Y-73114819D02*
X92495714Y-73162438D01*
X92495714Y-73162438D02*
X92448095Y-73210057D01*
X92448095Y-73210057D02*
X92400476Y-73305295D01*
X92400476Y-73305295D02*
X92400476Y-73400533D01*
X92400476Y-73400533D02*
X92448095Y-73543390D01*
X92448095Y-73543390D02*
X93019523Y-74114819D01*
X93019523Y-74114819D02*
X92400476Y-74114819D01*
X91829047Y-73543390D02*
X91924285Y-73495771D01*
X91924285Y-73495771D02*
X91971904Y-73448152D01*
X91971904Y-73448152D02*
X92019523Y-73352914D01*
X92019523Y-73352914D02*
X92019523Y-73305295D01*
X92019523Y-73305295D02*
X91971904Y-73210057D01*
X91971904Y-73210057D02*
X91924285Y-73162438D01*
X91924285Y-73162438D02*
X91829047Y-73114819D01*
X91829047Y-73114819D02*
X91638571Y-73114819D01*
X91638571Y-73114819D02*
X91543333Y-73162438D01*
X91543333Y-73162438D02*
X91495714Y-73210057D01*
X91495714Y-73210057D02*
X91448095Y-73305295D01*
X91448095Y-73305295D02*
X91448095Y-73352914D01*
X91448095Y-73352914D02*
X91495714Y-73448152D01*
X91495714Y-73448152D02*
X91543333Y-73495771D01*
X91543333Y-73495771D02*
X91638571Y-73543390D01*
X91638571Y-73543390D02*
X91829047Y-73543390D01*
X91829047Y-73543390D02*
X91924285Y-73591009D01*
X91924285Y-73591009D02*
X91971904Y-73638628D01*
X91971904Y-73638628D02*
X92019523Y-73733866D01*
X92019523Y-73733866D02*
X92019523Y-73924342D01*
X92019523Y-73924342D02*
X91971904Y-74019580D01*
X91971904Y-74019580D02*
X91924285Y-74067200D01*
X91924285Y-74067200D02*
X91829047Y-74114819D01*
X91829047Y-74114819D02*
X91638571Y-74114819D01*
X91638571Y-74114819D02*
X91543333Y-74067200D01*
X91543333Y-74067200D02*
X91495714Y-74019580D01*
X91495714Y-74019580D02*
X91448095Y-73924342D01*
X91448095Y-73924342D02*
X91448095Y-73733866D01*
X91448095Y-73733866D02*
X91495714Y-73638628D01*
X91495714Y-73638628D02*
X91543333Y-73591009D01*
X91543333Y-73591009D02*
X91638571Y-73543390D01*
X125672945Y-36543332D02*
X125530088Y-36590951D01*
X125530088Y-36590951D02*
X125291993Y-36590951D01*
X125291993Y-36590951D02*
X125196755Y-36543332D01*
X125196755Y-36543332D02*
X125149136Y-36495712D01*
X125149136Y-36495712D02*
X125101517Y-36400474D01*
X125101517Y-36400474D02*
X125101517Y-36305236D01*
X125101517Y-36305236D02*
X125149136Y-36209998D01*
X125149136Y-36209998D02*
X125196755Y-36162379D01*
X125196755Y-36162379D02*
X125291993Y-36114760D01*
X125291993Y-36114760D02*
X125482469Y-36067141D01*
X125482469Y-36067141D02*
X125577707Y-36019522D01*
X125577707Y-36019522D02*
X125625326Y-35971903D01*
X125625326Y-35971903D02*
X125672945Y-35876665D01*
X125672945Y-35876665D02*
X125672945Y-35781427D01*
X125672945Y-35781427D02*
X125625326Y-35686189D01*
X125625326Y-35686189D02*
X125577707Y-35638570D01*
X125577707Y-35638570D02*
X125482469Y-35590951D01*
X125482469Y-35590951D02*
X125244374Y-35590951D01*
X125244374Y-35590951D02*
X125101517Y-35638570D01*
X124768183Y-35590951D02*
X124530088Y-36590951D01*
X124530088Y-36590951D02*
X124339612Y-35876665D01*
X124339612Y-35876665D02*
X124149136Y-36590951D01*
X124149136Y-36590951D02*
X123911041Y-35590951D01*
X123768184Y-36686189D02*
X123006279Y-36686189D01*
X122196755Y-36590951D02*
X122530088Y-36114760D01*
X122768183Y-36590951D02*
X122768183Y-35590951D01*
X122768183Y-35590951D02*
X122387231Y-35590951D01*
X122387231Y-35590951D02*
X122291993Y-35638570D01*
X122291993Y-35638570D02*
X122244374Y-35686189D01*
X122244374Y-35686189D02*
X122196755Y-35781427D01*
X122196755Y-35781427D02*
X122196755Y-35924284D01*
X122196755Y-35924284D02*
X122244374Y-36019522D01*
X122244374Y-36019522D02*
X122291993Y-36067141D01*
X122291993Y-36067141D02*
X122387231Y-36114760D01*
X122387231Y-36114760D02*
X122768183Y-36114760D01*
X121434850Y-36067141D02*
X121291993Y-36114760D01*
X121291993Y-36114760D02*
X121244374Y-36162379D01*
X121244374Y-36162379D02*
X121196755Y-36257617D01*
X121196755Y-36257617D02*
X121196755Y-36400474D01*
X121196755Y-36400474D02*
X121244374Y-36495712D01*
X121244374Y-36495712D02*
X121291993Y-36543332D01*
X121291993Y-36543332D02*
X121387231Y-36590951D01*
X121387231Y-36590951D02*
X121768183Y-36590951D01*
X121768183Y-36590951D02*
X121768183Y-35590951D01*
X121768183Y-35590951D02*
X121434850Y-35590951D01*
X121434850Y-35590951D02*
X121339612Y-35638570D01*
X121339612Y-35638570D02*
X121291993Y-35686189D01*
X121291993Y-35686189D02*
X121244374Y-35781427D01*
X121244374Y-35781427D02*
X121244374Y-35876665D01*
X121244374Y-35876665D02*
X121291993Y-35971903D01*
X121291993Y-35971903D02*
X121339612Y-36019522D01*
X121339612Y-36019522D02*
X121434850Y-36067141D01*
X121434850Y-36067141D02*
X121768183Y-36067141D01*
X120244374Y-36590951D02*
X120815802Y-36590951D01*
X120530088Y-36590951D02*
X120530088Y-35590951D01*
X120530088Y-35590951D02*
X120625326Y-35733808D01*
X120625326Y-35733808D02*
X120720564Y-35829046D01*
X120720564Y-35829046D02*
X120815802Y-35876665D01*
X113594819Y-66976666D02*
X114309104Y-66976666D01*
X114309104Y-66976666D02*
X114451961Y-66929047D01*
X114451961Y-66929047D02*
X114547200Y-66833809D01*
X114547200Y-66833809D02*
X114594819Y-66690952D01*
X114594819Y-66690952D02*
X114594819Y-66595714D01*
X114594819Y-67976666D02*
X114594819Y-67405238D01*
X114594819Y-67690952D02*
X113594819Y-67690952D01*
X113594819Y-67690952D02*
X113737676Y-67595714D01*
X113737676Y-67595714D02*
X113832914Y-67500476D01*
X113832914Y-67500476D02*
X113880533Y-67405238D01*
X79382857Y-77924819D02*
X79716190Y-77448628D01*
X79954285Y-77924819D02*
X79954285Y-76924819D01*
X79954285Y-76924819D02*
X79573333Y-76924819D01*
X79573333Y-76924819D02*
X79478095Y-76972438D01*
X79478095Y-76972438D02*
X79430476Y-77020057D01*
X79430476Y-77020057D02*
X79382857Y-77115295D01*
X79382857Y-77115295D02*
X79382857Y-77258152D01*
X79382857Y-77258152D02*
X79430476Y-77353390D01*
X79430476Y-77353390D02*
X79478095Y-77401009D01*
X79478095Y-77401009D02*
X79573333Y-77448628D01*
X79573333Y-77448628D02*
X79954285Y-77448628D01*
X79001904Y-77020057D02*
X78954285Y-76972438D01*
X78954285Y-76972438D02*
X78859047Y-76924819D01*
X78859047Y-76924819D02*
X78620952Y-76924819D01*
X78620952Y-76924819D02*
X78525714Y-76972438D01*
X78525714Y-76972438D02*
X78478095Y-77020057D01*
X78478095Y-77020057D02*
X78430476Y-77115295D01*
X78430476Y-77115295D02*
X78430476Y-77210533D01*
X78430476Y-77210533D02*
X78478095Y-77353390D01*
X78478095Y-77353390D02*
X79049523Y-77924819D01*
X79049523Y-77924819D02*
X78430476Y-77924819D01*
X78049523Y-77020057D02*
X78001904Y-76972438D01*
X78001904Y-76972438D02*
X77906666Y-76924819D01*
X77906666Y-76924819D02*
X77668571Y-76924819D01*
X77668571Y-76924819D02*
X77573333Y-76972438D01*
X77573333Y-76972438D02*
X77525714Y-77020057D01*
X77525714Y-77020057D02*
X77478095Y-77115295D01*
X77478095Y-77115295D02*
X77478095Y-77210533D01*
X77478095Y-77210533D02*
X77525714Y-77353390D01*
X77525714Y-77353390D02*
X78097142Y-77924819D01*
X78097142Y-77924819D02*
X77478095Y-77924819D01*
X120022857Y-67034580D02*
X120070476Y-67082200D01*
X120070476Y-67082200D02*
X120213333Y-67129819D01*
X120213333Y-67129819D02*
X120308571Y-67129819D01*
X120308571Y-67129819D02*
X120451428Y-67082200D01*
X120451428Y-67082200D02*
X120546666Y-66986961D01*
X120546666Y-66986961D02*
X120594285Y-66891723D01*
X120594285Y-66891723D02*
X120641904Y-66701247D01*
X120641904Y-66701247D02*
X120641904Y-66558390D01*
X120641904Y-66558390D02*
X120594285Y-66367914D01*
X120594285Y-66367914D02*
X120546666Y-66272676D01*
X120546666Y-66272676D02*
X120451428Y-66177438D01*
X120451428Y-66177438D02*
X120308571Y-66129819D01*
X120308571Y-66129819D02*
X120213333Y-66129819D01*
X120213333Y-66129819D02*
X120070476Y-66177438D01*
X120070476Y-66177438D02*
X120022857Y-66225057D01*
X119070476Y-67129819D02*
X119641904Y-67129819D01*
X119356190Y-67129819D02*
X119356190Y-66129819D01*
X119356190Y-66129819D02*
X119451428Y-66272676D01*
X119451428Y-66272676D02*
X119546666Y-66367914D01*
X119546666Y-66367914D02*
X119641904Y-66415533D01*
X118689523Y-66225057D02*
X118641904Y-66177438D01*
X118641904Y-66177438D02*
X118546666Y-66129819D01*
X118546666Y-66129819D02*
X118308571Y-66129819D01*
X118308571Y-66129819D02*
X118213333Y-66177438D01*
X118213333Y-66177438D02*
X118165714Y-66225057D01*
X118165714Y-66225057D02*
X118118095Y-66320295D01*
X118118095Y-66320295D02*
X118118095Y-66415533D01*
X118118095Y-66415533D02*
X118165714Y-66558390D01*
X118165714Y-66558390D02*
X118737142Y-67129819D01*
X118737142Y-67129819D02*
X118118095Y-67129819D01*
X93352857Y-76019819D02*
X93686190Y-75543628D01*
X93924285Y-76019819D02*
X93924285Y-75019819D01*
X93924285Y-75019819D02*
X93543333Y-75019819D01*
X93543333Y-75019819D02*
X93448095Y-75067438D01*
X93448095Y-75067438D02*
X93400476Y-75115057D01*
X93400476Y-75115057D02*
X93352857Y-75210295D01*
X93352857Y-75210295D02*
X93352857Y-75353152D01*
X93352857Y-75353152D02*
X93400476Y-75448390D01*
X93400476Y-75448390D02*
X93448095Y-75496009D01*
X93448095Y-75496009D02*
X93543333Y-75543628D01*
X93543333Y-75543628D02*
X93924285Y-75543628D01*
X92971904Y-75115057D02*
X92924285Y-75067438D01*
X92924285Y-75067438D02*
X92829047Y-75019819D01*
X92829047Y-75019819D02*
X92590952Y-75019819D01*
X92590952Y-75019819D02*
X92495714Y-75067438D01*
X92495714Y-75067438D02*
X92448095Y-75115057D01*
X92448095Y-75115057D02*
X92400476Y-75210295D01*
X92400476Y-75210295D02*
X92400476Y-75305533D01*
X92400476Y-75305533D02*
X92448095Y-75448390D01*
X92448095Y-75448390D02*
X93019523Y-76019819D01*
X93019523Y-76019819D02*
X92400476Y-76019819D01*
X91543333Y-75353152D02*
X91543333Y-76019819D01*
X91781428Y-74972200D02*
X92019523Y-75686485D01*
X92019523Y-75686485D02*
X91400476Y-75686485D01*
X142882857Y-67034580D02*
X142930476Y-67082200D01*
X142930476Y-67082200D02*
X143073333Y-67129819D01*
X143073333Y-67129819D02*
X143168571Y-67129819D01*
X143168571Y-67129819D02*
X143311428Y-67082200D01*
X143311428Y-67082200D02*
X143406666Y-66986961D01*
X143406666Y-66986961D02*
X143454285Y-66891723D01*
X143454285Y-66891723D02*
X143501904Y-66701247D01*
X143501904Y-66701247D02*
X143501904Y-66558390D01*
X143501904Y-66558390D02*
X143454285Y-66367914D01*
X143454285Y-66367914D02*
X143406666Y-66272676D01*
X143406666Y-66272676D02*
X143311428Y-66177438D01*
X143311428Y-66177438D02*
X143168571Y-66129819D01*
X143168571Y-66129819D02*
X143073333Y-66129819D01*
X143073333Y-66129819D02*
X142930476Y-66177438D01*
X142930476Y-66177438D02*
X142882857Y-66225057D01*
X141930476Y-67129819D02*
X142501904Y-67129819D01*
X142216190Y-67129819D02*
X142216190Y-66129819D01*
X142216190Y-66129819D02*
X142311428Y-66272676D01*
X142311428Y-66272676D02*
X142406666Y-66367914D01*
X142406666Y-66367914D02*
X142501904Y-66415533D01*
X141025714Y-66129819D02*
X141501904Y-66129819D01*
X141501904Y-66129819D02*
X141549523Y-66606009D01*
X141549523Y-66606009D02*
X141501904Y-66558390D01*
X141501904Y-66558390D02*
X141406666Y-66510771D01*
X141406666Y-66510771D02*
X141168571Y-66510771D01*
X141168571Y-66510771D02*
X141073333Y-66558390D01*
X141073333Y-66558390D02*
X141025714Y-66606009D01*
X141025714Y-66606009D02*
X140978095Y-66701247D01*
X140978095Y-66701247D02*
X140978095Y-66939342D01*
X140978095Y-66939342D02*
X141025714Y-67034580D01*
X141025714Y-67034580D02*
X141073333Y-67082200D01*
X141073333Y-67082200D02*
X141168571Y-67129819D01*
X141168571Y-67129819D02*
X141406666Y-67129819D01*
X141406666Y-67129819D02*
X141501904Y-67082200D01*
X141501904Y-67082200D02*
X141549523Y-67034580D01*
X131264819Y-67937142D02*
X130788628Y-67603809D01*
X131264819Y-67365714D02*
X130264819Y-67365714D01*
X130264819Y-67365714D02*
X130264819Y-67746666D01*
X130264819Y-67746666D02*
X130312438Y-67841904D01*
X130312438Y-67841904D02*
X130360057Y-67889523D01*
X130360057Y-67889523D02*
X130455295Y-67937142D01*
X130455295Y-67937142D02*
X130598152Y-67937142D01*
X130598152Y-67937142D02*
X130693390Y-67889523D01*
X130693390Y-67889523D02*
X130741009Y-67841904D01*
X130741009Y-67841904D02*
X130788628Y-67746666D01*
X130788628Y-67746666D02*
X130788628Y-67365714D01*
X131264819Y-68889523D02*
X131264819Y-68318095D01*
X131264819Y-68603809D02*
X130264819Y-68603809D01*
X130264819Y-68603809D02*
X130407676Y-68508571D01*
X130407676Y-68508571D02*
X130502914Y-68413333D01*
X130502914Y-68413333D02*
X130550533Y-68318095D01*
X131264819Y-69365714D02*
X131264819Y-69556190D01*
X131264819Y-69556190D02*
X131217200Y-69651428D01*
X131217200Y-69651428D02*
X131169580Y-69699047D01*
X131169580Y-69699047D02*
X131026723Y-69794285D01*
X131026723Y-69794285D02*
X130836247Y-69841904D01*
X130836247Y-69841904D02*
X130455295Y-69841904D01*
X130455295Y-69841904D02*
X130360057Y-69794285D01*
X130360057Y-69794285D02*
X130312438Y-69746666D01*
X130312438Y-69746666D02*
X130264819Y-69651428D01*
X130264819Y-69651428D02*
X130264819Y-69460952D01*
X130264819Y-69460952D02*
X130312438Y-69365714D01*
X130312438Y-69365714D02*
X130360057Y-69318095D01*
X130360057Y-69318095D02*
X130455295Y-69270476D01*
X130455295Y-69270476D02*
X130693390Y-69270476D01*
X130693390Y-69270476D02*
X130788628Y-69318095D01*
X130788628Y-69318095D02*
X130836247Y-69365714D01*
X130836247Y-69365714D02*
X130883866Y-69460952D01*
X130883866Y-69460952D02*
X130883866Y-69651428D01*
X130883866Y-69651428D02*
X130836247Y-69746666D01*
X130836247Y-69746666D02*
X130788628Y-69794285D01*
X130788628Y-69794285D02*
X130693390Y-69841904D01*
X120022857Y-70939819D02*
X120356190Y-70463628D01*
X120594285Y-70939819D02*
X120594285Y-69939819D01*
X120594285Y-69939819D02*
X120213333Y-69939819D01*
X120213333Y-69939819D02*
X120118095Y-69987438D01*
X120118095Y-69987438D02*
X120070476Y-70035057D01*
X120070476Y-70035057D02*
X120022857Y-70130295D01*
X120022857Y-70130295D02*
X120022857Y-70273152D01*
X120022857Y-70273152D02*
X120070476Y-70368390D01*
X120070476Y-70368390D02*
X120118095Y-70416009D01*
X120118095Y-70416009D02*
X120213333Y-70463628D01*
X120213333Y-70463628D02*
X120594285Y-70463628D01*
X119070476Y-70939819D02*
X119641904Y-70939819D01*
X119356190Y-70939819D02*
X119356190Y-69939819D01*
X119356190Y-69939819D02*
X119451428Y-70082676D01*
X119451428Y-70082676D02*
X119546666Y-70177914D01*
X119546666Y-70177914D02*
X119641904Y-70225533D01*
X118737142Y-69939819D02*
X118118095Y-69939819D01*
X118118095Y-69939819D02*
X118451428Y-70320771D01*
X118451428Y-70320771D02*
X118308571Y-70320771D01*
X118308571Y-70320771D02*
X118213333Y-70368390D01*
X118213333Y-70368390D02*
X118165714Y-70416009D01*
X118165714Y-70416009D02*
X118118095Y-70511247D01*
X118118095Y-70511247D02*
X118118095Y-70749342D01*
X118118095Y-70749342D02*
X118165714Y-70844580D01*
X118165714Y-70844580D02*
X118213333Y-70892200D01*
X118213333Y-70892200D02*
X118308571Y-70939819D01*
X118308571Y-70939819D02*
X118594285Y-70939819D01*
X118594285Y-70939819D02*
X118689523Y-70892200D01*
X118689523Y-70892200D02*
X118737142Y-70844580D01*
X126184819Y-67937142D02*
X125708628Y-67603809D01*
X126184819Y-67365714D02*
X125184819Y-67365714D01*
X125184819Y-67365714D02*
X125184819Y-67746666D01*
X125184819Y-67746666D02*
X125232438Y-67841904D01*
X125232438Y-67841904D02*
X125280057Y-67889523D01*
X125280057Y-67889523D02*
X125375295Y-67937142D01*
X125375295Y-67937142D02*
X125518152Y-67937142D01*
X125518152Y-67937142D02*
X125613390Y-67889523D01*
X125613390Y-67889523D02*
X125661009Y-67841904D01*
X125661009Y-67841904D02*
X125708628Y-67746666D01*
X125708628Y-67746666D02*
X125708628Y-67365714D01*
X126184819Y-68889523D02*
X126184819Y-68318095D01*
X126184819Y-68603809D02*
X125184819Y-68603809D01*
X125184819Y-68603809D02*
X125327676Y-68508571D01*
X125327676Y-68508571D02*
X125422914Y-68413333D01*
X125422914Y-68413333D02*
X125470533Y-68318095D01*
X125613390Y-69460952D02*
X125565771Y-69365714D01*
X125565771Y-69365714D02*
X125518152Y-69318095D01*
X125518152Y-69318095D02*
X125422914Y-69270476D01*
X125422914Y-69270476D02*
X125375295Y-69270476D01*
X125375295Y-69270476D02*
X125280057Y-69318095D01*
X125280057Y-69318095D02*
X125232438Y-69365714D01*
X125232438Y-69365714D02*
X125184819Y-69460952D01*
X125184819Y-69460952D02*
X125184819Y-69651428D01*
X125184819Y-69651428D02*
X125232438Y-69746666D01*
X125232438Y-69746666D02*
X125280057Y-69794285D01*
X125280057Y-69794285D02*
X125375295Y-69841904D01*
X125375295Y-69841904D02*
X125422914Y-69841904D01*
X125422914Y-69841904D02*
X125518152Y-69794285D01*
X125518152Y-69794285D02*
X125565771Y-69746666D01*
X125565771Y-69746666D02*
X125613390Y-69651428D01*
X125613390Y-69651428D02*
X125613390Y-69460952D01*
X125613390Y-69460952D02*
X125661009Y-69365714D01*
X125661009Y-69365714D02*
X125708628Y-69318095D01*
X125708628Y-69318095D02*
X125803866Y-69270476D01*
X125803866Y-69270476D02*
X125994342Y-69270476D01*
X125994342Y-69270476D02*
X126089580Y-69318095D01*
X126089580Y-69318095D02*
X126137200Y-69365714D01*
X126137200Y-69365714D02*
X126184819Y-69460952D01*
X126184819Y-69460952D02*
X126184819Y-69651428D01*
X126184819Y-69651428D02*
X126137200Y-69746666D01*
X126137200Y-69746666D02*
X126089580Y-69794285D01*
X126089580Y-69794285D02*
X125994342Y-69841904D01*
X125994342Y-69841904D02*
X125803866Y-69841904D01*
X125803866Y-69841904D02*
X125708628Y-69794285D01*
X125708628Y-69794285D02*
X125661009Y-69746666D01*
X125661009Y-69746666D02*
X125613390Y-69651428D01*
X111132857Y-40364580D02*
X111180476Y-40412200D01*
X111180476Y-40412200D02*
X111323333Y-40459819D01*
X111323333Y-40459819D02*
X111418571Y-40459819D01*
X111418571Y-40459819D02*
X111561428Y-40412200D01*
X111561428Y-40412200D02*
X111656666Y-40316961D01*
X111656666Y-40316961D02*
X111704285Y-40221723D01*
X111704285Y-40221723D02*
X111751904Y-40031247D01*
X111751904Y-40031247D02*
X111751904Y-39888390D01*
X111751904Y-39888390D02*
X111704285Y-39697914D01*
X111704285Y-39697914D02*
X111656666Y-39602676D01*
X111656666Y-39602676D02*
X111561428Y-39507438D01*
X111561428Y-39507438D02*
X111418571Y-39459819D01*
X111418571Y-39459819D02*
X111323333Y-39459819D01*
X111323333Y-39459819D02*
X111180476Y-39507438D01*
X111180476Y-39507438D02*
X111132857Y-39555057D01*
X110751904Y-39555057D02*
X110704285Y-39507438D01*
X110704285Y-39507438D02*
X110609047Y-39459819D01*
X110609047Y-39459819D02*
X110370952Y-39459819D01*
X110370952Y-39459819D02*
X110275714Y-39507438D01*
X110275714Y-39507438D02*
X110228095Y-39555057D01*
X110228095Y-39555057D02*
X110180476Y-39650295D01*
X110180476Y-39650295D02*
X110180476Y-39745533D01*
X110180476Y-39745533D02*
X110228095Y-39888390D01*
X110228095Y-39888390D02*
X110799523Y-40459819D01*
X110799523Y-40459819D02*
X110180476Y-40459819D01*
X109799523Y-39555057D02*
X109751904Y-39507438D01*
X109751904Y-39507438D02*
X109656666Y-39459819D01*
X109656666Y-39459819D02*
X109418571Y-39459819D01*
X109418571Y-39459819D02*
X109323333Y-39507438D01*
X109323333Y-39507438D02*
X109275714Y-39555057D01*
X109275714Y-39555057D02*
X109228095Y-39650295D01*
X109228095Y-39650295D02*
X109228095Y-39745533D01*
X109228095Y-39745533D02*
X109275714Y-39888390D01*
X109275714Y-39888390D02*
X109847142Y-40459819D01*
X109847142Y-40459819D02*
X109228095Y-40459819D01*
X92827707Y-36593332D02*
X92684850Y-36640951D01*
X92684850Y-36640951D02*
X92446755Y-36640951D01*
X92446755Y-36640951D02*
X92351517Y-36593332D01*
X92351517Y-36593332D02*
X92303898Y-36545712D01*
X92303898Y-36545712D02*
X92256279Y-36450474D01*
X92256279Y-36450474D02*
X92256279Y-36355236D01*
X92256279Y-36355236D02*
X92303898Y-36259998D01*
X92303898Y-36259998D02*
X92351517Y-36212379D01*
X92351517Y-36212379D02*
X92446755Y-36164760D01*
X92446755Y-36164760D02*
X92637231Y-36117141D01*
X92637231Y-36117141D02*
X92732469Y-36069522D01*
X92732469Y-36069522D02*
X92780088Y-36021903D01*
X92780088Y-36021903D02*
X92827707Y-35926665D01*
X92827707Y-35926665D02*
X92827707Y-35831427D01*
X92827707Y-35831427D02*
X92780088Y-35736189D01*
X92780088Y-35736189D02*
X92732469Y-35688570D01*
X92732469Y-35688570D02*
X92637231Y-35640951D01*
X92637231Y-35640951D02*
X92399136Y-35640951D01*
X92399136Y-35640951D02*
X92256279Y-35688570D01*
X91922945Y-35640951D02*
X91684850Y-36640951D01*
X91684850Y-36640951D02*
X91494374Y-35926665D01*
X91494374Y-35926665D02*
X91303898Y-36640951D01*
X91303898Y-36640951D02*
X91065803Y-35640951D01*
X90922946Y-36736189D02*
X90161041Y-36736189D01*
X89446755Y-36640951D02*
X89922945Y-36640951D01*
X89922945Y-36640951D02*
X89922945Y-35640951D01*
X88780088Y-36117141D02*
X88637231Y-36164760D01*
X88637231Y-36164760D02*
X88589612Y-36212379D01*
X88589612Y-36212379D02*
X88541993Y-36307617D01*
X88541993Y-36307617D02*
X88541993Y-36450474D01*
X88541993Y-36450474D02*
X88589612Y-36545712D01*
X88589612Y-36545712D02*
X88637231Y-36593332D01*
X88637231Y-36593332D02*
X88732469Y-36640951D01*
X88732469Y-36640951D02*
X89113421Y-36640951D01*
X89113421Y-36640951D02*
X89113421Y-35640951D01*
X89113421Y-35640951D02*
X88780088Y-35640951D01*
X88780088Y-35640951D02*
X88684850Y-35688570D01*
X88684850Y-35688570D02*
X88637231Y-35736189D01*
X88637231Y-35736189D02*
X88589612Y-35831427D01*
X88589612Y-35831427D02*
X88589612Y-35926665D01*
X88589612Y-35926665D02*
X88637231Y-36021903D01*
X88637231Y-36021903D02*
X88684850Y-36069522D01*
X88684850Y-36069522D02*
X88780088Y-36117141D01*
X88780088Y-36117141D02*
X89113421Y-36117141D01*
X87589612Y-36640951D02*
X88161040Y-36640951D01*
X87875326Y-36640951D02*
X87875326Y-35640951D01*
X87875326Y-35640951D02*
X87970564Y-35783808D01*
X87970564Y-35783808D02*
X88065802Y-35879046D01*
X88065802Y-35879046D02*
X88161040Y-35926665D01*
X111132857Y-42364819D02*
X111466190Y-41888628D01*
X111704285Y-42364819D02*
X111704285Y-41364819D01*
X111704285Y-41364819D02*
X111323333Y-41364819D01*
X111323333Y-41364819D02*
X111228095Y-41412438D01*
X111228095Y-41412438D02*
X111180476Y-41460057D01*
X111180476Y-41460057D02*
X111132857Y-41555295D01*
X111132857Y-41555295D02*
X111132857Y-41698152D01*
X111132857Y-41698152D02*
X111180476Y-41793390D01*
X111180476Y-41793390D02*
X111228095Y-41841009D01*
X111228095Y-41841009D02*
X111323333Y-41888628D01*
X111323333Y-41888628D02*
X111704285Y-41888628D01*
X110799523Y-41364819D02*
X110180476Y-41364819D01*
X110180476Y-41364819D02*
X110513809Y-41745771D01*
X110513809Y-41745771D02*
X110370952Y-41745771D01*
X110370952Y-41745771D02*
X110275714Y-41793390D01*
X110275714Y-41793390D02*
X110228095Y-41841009D01*
X110228095Y-41841009D02*
X110180476Y-41936247D01*
X110180476Y-41936247D02*
X110180476Y-42174342D01*
X110180476Y-42174342D02*
X110228095Y-42269580D01*
X110228095Y-42269580D02*
X110275714Y-42317200D01*
X110275714Y-42317200D02*
X110370952Y-42364819D01*
X110370952Y-42364819D02*
X110656666Y-42364819D01*
X110656666Y-42364819D02*
X110751904Y-42317200D01*
X110751904Y-42317200D02*
X110799523Y-42269580D01*
X109323333Y-41698152D02*
X109323333Y-42364819D01*
X109561428Y-41317200D02*
X109799523Y-42031485D01*
X109799523Y-42031485D02*
X109180476Y-42031485D01*
X84462857Y-77924819D02*
X84796190Y-77448628D01*
X85034285Y-77924819D02*
X85034285Y-76924819D01*
X85034285Y-76924819D02*
X84653333Y-76924819D01*
X84653333Y-76924819D02*
X84558095Y-76972438D01*
X84558095Y-76972438D02*
X84510476Y-77020057D01*
X84510476Y-77020057D02*
X84462857Y-77115295D01*
X84462857Y-77115295D02*
X84462857Y-77258152D01*
X84462857Y-77258152D02*
X84510476Y-77353390D01*
X84510476Y-77353390D02*
X84558095Y-77401009D01*
X84558095Y-77401009D02*
X84653333Y-77448628D01*
X84653333Y-77448628D02*
X85034285Y-77448628D01*
X84081904Y-77020057D02*
X84034285Y-76972438D01*
X84034285Y-76972438D02*
X83939047Y-76924819D01*
X83939047Y-76924819D02*
X83700952Y-76924819D01*
X83700952Y-76924819D02*
X83605714Y-76972438D01*
X83605714Y-76972438D02*
X83558095Y-77020057D01*
X83558095Y-77020057D02*
X83510476Y-77115295D01*
X83510476Y-77115295D02*
X83510476Y-77210533D01*
X83510476Y-77210533D02*
X83558095Y-77353390D01*
X83558095Y-77353390D02*
X84129523Y-77924819D01*
X84129523Y-77924819D02*
X83510476Y-77924819D01*
X83177142Y-76924819D02*
X82558095Y-76924819D01*
X82558095Y-76924819D02*
X82891428Y-77305771D01*
X82891428Y-77305771D02*
X82748571Y-77305771D01*
X82748571Y-77305771D02*
X82653333Y-77353390D01*
X82653333Y-77353390D02*
X82605714Y-77401009D01*
X82605714Y-77401009D02*
X82558095Y-77496247D01*
X82558095Y-77496247D02*
X82558095Y-77734342D01*
X82558095Y-77734342D02*
X82605714Y-77829580D01*
X82605714Y-77829580D02*
X82653333Y-77877200D01*
X82653333Y-77877200D02*
X82748571Y-77924819D01*
X82748571Y-77924819D02*
X83034285Y-77924819D01*
X83034285Y-77924819D02*
X83129523Y-77877200D01*
X83129523Y-77877200D02*
X83177142Y-77829580D01*
X79359047Y-70209580D02*
X79406666Y-70257200D01*
X79406666Y-70257200D02*
X79549523Y-70304819D01*
X79549523Y-70304819D02*
X79644761Y-70304819D01*
X79644761Y-70304819D02*
X79787618Y-70257200D01*
X79787618Y-70257200D02*
X79882856Y-70161961D01*
X79882856Y-70161961D02*
X79930475Y-70066723D01*
X79930475Y-70066723D02*
X79978094Y-69876247D01*
X79978094Y-69876247D02*
X79978094Y-69733390D01*
X79978094Y-69733390D02*
X79930475Y-69542914D01*
X79930475Y-69542914D02*
X79882856Y-69447676D01*
X79882856Y-69447676D02*
X79787618Y-69352438D01*
X79787618Y-69352438D02*
X79644761Y-69304819D01*
X79644761Y-69304819D02*
X79549523Y-69304819D01*
X79549523Y-69304819D02*
X79406666Y-69352438D01*
X79406666Y-69352438D02*
X79359047Y-69400057D01*
X78406666Y-70304819D02*
X78978094Y-70304819D01*
X78692380Y-70304819D02*
X78692380Y-69304819D01*
X78692380Y-69304819D02*
X78787618Y-69447676D01*
X78787618Y-69447676D02*
X78882856Y-69542914D01*
X78882856Y-69542914D02*
X78978094Y-69590533D01*
X78073332Y-69304819D02*
X77406666Y-69304819D01*
X77406666Y-69304819D02*
X77835237Y-70304819D01*
X120022857Y-52524819D02*
X120356190Y-52048628D01*
X120594285Y-52524819D02*
X120594285Y-51524819D01*
X120594285Y-51524819D02*
X120213333Y-51524819D01*
X120213333Y-51524819D02*
X120118095Y-51572438D01*
X120118095Y-51572438D02*
X120070476Y-51620057D01*
X120070476Y-51620057D02*
X120022857Y-51715295D01*
X120022857Y-51715295D02*
X120022857Y-51858152D01*
X120022857Y-51858152D02*
X120070476Y-51953390D01*
X120070476Y-51953390D02*
X120118095Y-52001009D01*
X120118095Y-52001009D02*
X120213333Y-52048628D01*
X120213333Y-52048628D02*
X120594285Y-52048628D01*
X119070476Y-52524819D02*
X119641904Y-52524819D01*
X119356190Y-52524819D02*
X119356190Y-51524819D01*
X119356190Y-51524819D02*
X119451428Y-51667676D01*
X119451428Y-51667676D02*
X119546666Y-51762914D01*
X119546666Y-51762914D02*
X119641904Y-51810533D01*
X118451428Y-51524819D02*
X118356190Y-51524819D01*
X118356190Y-51524819D02*
X118260952Y-51572438D01*
X118260952Y-51572438D02*
X118213333Y-51620057D01*
X118213333Y-51620057D02*
X118165714Y-51715295D01*
X118165714Y-51715295D02*
X118118095Y-51905771D01*
X118118095Y-51905771D02*
X118118095Y-52143866D01*
X118118095Y-52143866D02*
X118165714Y-52334342D01*
X118165714Y-52334342D02*
X118213333Y-52429580D01*
X118213333Y-52429580D02*
X118260952Y-52477200D01*
X118260952Y-52477200D02*
X118356190Y-52524819D01*
X118356190Y-52524819D02*
X118451428Y-52524819D01*
X118451428Y-52524819D02*
X118546666Y-52477200D01*
X118546666Y-52477200D02*
X118594285Y-52429580D01*
X118594285Y-52429580D02*
X118641904Y-52334342D01*
X118641904Y-52334342D02*
X118689523Y-52143866D01*
X118689523Y-52143866D02*
X118689523Y-51905771D01*
X118689523Y-51905771D02*
X118641904Y-51715295D01*
X118641904Y-51715295D02*
X118594285Y-51620057D01*
X118594285Y-51620057D02*
X118546666Y-51572438D01*
X118546666Y-51572438D02*
X118451428Y-51524819D01*
X117260666Y-76207580D02*
X117308285Y-76255200D01*
X117308285Y-76255200D02*
X117451142Y-76302819D01*
X117451142Y-76302819D02*
X117546380Y-76302819D01*
X117546380Y-76302819D02*
X117689237Y-76255200D01*
X117689237Y-76255200D02*
X117784475Y-76159961D01*
X117784475Y-76159961D02*
X117832094Y-76064723D01*
X117832094Y-76064723D02*
X117879713Y-75874247D01*
X117879713Y-75874247D02*
X117879713Y-75731390D01*
X117879713Y-75731390D02*
X117832094Y-75540914D01*
X117832094Y-75540914D02*
X117784475Y-75445676D01*
X117784475Y-75445676D02*
X117689237Y-75350438D01*
X117689237Y-75350438D02*
X117546380Y-75302819D01*
X117546380Y-75302819D02*
X117451142Y-75302819D01*
X117451142Y-75302819D02*
X117308285Y-75350438D01*
X117308285Y-75350438D02*
X117260666Y-75398057D01*
X116879713Y-75398057D02*
X116832094Y-75350438D01*
X116832094Y-75350438D02*
X116736856Y-75302819D01*
X116736856Y-75302819D02*
X116498761Y-75302819D01*
X116498761Y-75302819D02*
X116403523Y-75350438D01*
X116403523Y-75350438D02*
X116355904Y-75398057D01*
X116355904Y-75398057D02*
X116308285Y-75493295D01*
X116308285Y-75493295D02*
X116308285Y-75588533D01*
X116308285Y-75588533D02*
X116355904Y-75731390D01*
X116355904Y-75731390D02*
X116927332Y-76302819D01*
X116927332Y-76302819D02*
X116308285Y-76302819D01*
X115101666Y-62364580D02*
X115149285Y-62412200D01*
X115149285Y-62412200D02*
X115292142Y-62459819D01*
X115292142Y-62459819D02*
X115387380Y-62459819D01*
X115387380Y-62459819D02*
X115530237Y-62412200D01*
X115530237Y-62412200D02*
X115625475Y-62316961D01*
X115625475Y-62316961D02*
X115673094Y-62221723D01*
X115673094Y-62221723D02*
X115720713Y-62031247D01*
X115720713Y-62031247D02*
X115720713Y-61888390D01*
X115720713Y-61888390D02*
X115673094Y-61697914D01*
X115673094Y-61697914D02*
X115625475Y-61602676D01*
X115625475Y-61602676D02*
X115530237Y-61507438D01*
X115530237Y-61507438D02*
X115387380Y-61459819D01*
X115387380Y-61459819D02*
X115292142Y-61459819D01*
X115292142Y-61459819D02*
X115149285Y-61507438D01*
X115149285Y-61507438D02*
X115101666Y-61555057D01*
X114149285Y-62459819D02*
X114720713Y-62459819D01*
X114434999Y-62459819D02*
X114434999Y-61459819D01*
X114434999Y-61459819D02*
X114530237Y-61602676D01*
X114530237Y-61602676D02*
X114625475Y-61697914D01*
X114625475Y-61697914D02*
X114720713Y-61745533D01*
X76654819Y-73017142D02*
X76178628Y-72683809D01*
X76654819Y-72445714D02*
X75654819Y-72445714D01*
X75654819Y-72445714D02*
X75654819Y-72826666D01*
X75654819Y-72826666D02*
X75702438Y-72921904D01*
X75702438Y-72921904D02*
X75750057Y-72969523D01*
X75750057Y-72969523D02*
X75845295Y-73017142D01*
X75845295Y-73017142D02*
X75988152Y-73017142D01*
X75988152Y-73017142D02*
X76083390Y-72969523D01*
X76083390Y-72969523D02*
X76131009Y-72921904D01*
X76131009Y-72921904D02*
X76178628Y-72826666D01*
X76178628Y-72826666D02*
X76178628Y-72445714D01*
X75750057Y-73398095D02*
X75702438Y-73445714D01*
X75702438Y-73445714D02*
X75654819Y-73540952D01*
X75654819Y-73540952D02*
X75654819Y-73779047D01*
X75654819Y-73779047D02*
X75702438Y-73874285D01*
X75702438Y-73874285D02*
X75750057Y-73921904D01*
X75750057Y-73921904D02*
X75845295Y-73969523D01*
X75845295Y-73969523D02*
X75940533Y-73969523D01*
X75940533Y-73969523D02*
X76083390Y-73921904D01*
X76083390Y-73921904D02*
X76654819Y-73350476D01*
X76654819Y-73350476D02*
X76654819Y-73969523D01*
X75654819Y-74826666D02*
X75654819Y-74636190D01*
X75654819Y-74636190D02*
X75702438Y-74540952D01*
X75702438Y-74540952D02*
X75750057Y-74493333D01*
X75750057Y-74493333D02*
X75892914Y-74398095D01*
X75892914Y-74398095D02*
X76083390Y-74350476D01*
X76083390Y-74350476D02*
X76464342Y-74350476D01*
X76464342Y-74350476D02*
X76559580Y-74398095D01*
X76559580Y-74398095D02*
X76607200Y-74445714D01*
X76607200Y-74445714D02*
X76654819Y-74540952D01*
X76654819Y-74540952D02*
X76654819Y-74731428D01*
X76654819Y-74731428D02*
X76607200Y-74826666D01*
X76607200Y-74826666D02*
X76559580Y-74874285D01*
X76559580Y-74874285D02*
X76464342Y-74921904D01*
X76464342Y-74921904D02*
X76226247Y-74921904D01*
X76226247Y-74921904D02*
X76131009Y-74874285D01*
X76131009Y-74874285D02*
X76083390Y-74826666D01*
X76083390Y-74826666D02*
X76035771Y-74731428D01*
X76035771Y-74731428D02*
X76035771Y-74540952D01*
X76035771Y-74540952D02*
X76083390Y-74445714D01*
X76083390Y-74445714D02*
X76131009Y-74398095D01*
X76131009Y-74398095D02*
X76226247Y-74350476D01*
X93352857Y-72114580D02*
X93400476Y-72162200D01*
X93400476Y-72162200D02*
X93543333Y-72209819D01*
X93543333Y-72209819D02*
X93638571Y-72209819D01*
X93638571Y-72209819D02*
X93781428Y-72162200D01*
X93781428Y-72162200D02*
X93876666Y-72066961D01*
X93876666Y-72066961D02*
X93924285Y-71971723D01*
X93924285Y-71971723D02*
X93971904Y-71781247D01*
X93971904Y-71781247D02*
X93971904Y-71638390D01*
X93971904Y-71638390D02*
X93924285Y-71447914D01*
X93924285Y-71447914D02*
X93876666Y-71352676D01*
X93876666Y-71352676D02*
X93781428Y-71257438D01*
X93781428Y-71257438D02*
X93638571Y-71209819D01*
X93638571Y-71209819D02*
X93543333Y-71209819D01*
X93543333Y-71209819D02*
X93400476Y-71257438D01*
X93400476Y-71257438D02*
X93352857Y-71305057D01*
X92400476Y-72209819D02*
X92971904Y-72209819D01*
X92686190Y-72209819D02*
X92686190Y-71209819D01*
X92686190Y-71209819D02*
X92781428Y-71352676D01*
X92781428Y-71352676D02*
X92876666Y-71447914D01*
X92876666Y-71447914D02*
X92971904Y-71495533D01*
X91924285Y-72209819D02*
X91733809Y-72209819D01*
X91733809Y-72209819D02*
X91638571Y-72162200D01*
X91638571Y-72162200D02*
X91590952Y-72114580D01*
X91590952Y-72114580D02*
X91495714Y-71971723D01*
X91495714Y-71971723D02*
X91448095Y-71781247D01*
X91448095Y-71781247D02*
X91448095Y-71400295D01*
X91448095Y-71400295D02*
X91495714Y-71305057D01*
X91495714Y-71305057D02*
X91543333Y-71257438D01*
X91543333Y-71257438D02*
X91638571Y-71209819D01*
X91638571Y-71209819D02*
X91829047Y-71209819D01*
X91829047Y-71209819D02*
X91924285Y-71257438D01*
X91924285Y-71257438D02*
X91971904Y-71305057D01*
X91971904Y-71305057D02*
X92019523Y-71400295D01*
X92019523Y-71400295D02*
X92019523Y-71638390D01*
X92019523Y-71638390D02*
X91971904Y-71733628D01*
X91971904Y-71733628D02*
X91924285Y-71781247D01*
X91924285Y-71781247D02*
X91829047Y-71828866D01*
X91829047Y-71828866D02*
X91638571Y-71828866D01*
X91638571Y-71828866D02*
X91543333Y-71781247D01*
X91543333Y-71781247D02*
X91495714Y-71733628D01*
X91495714Y-71733628D02*
X91448095Y-71638390D01*
X133969047Y-65129580D02*
X134016666Y-65177200D01*
X134016666Y-65177200D02*
X134159523Y-65224819D01*
X134159523Y-65224819D02*
X134254761Y-65224819D01*
X134254761Y-65224819D02*
X134397618Y-65177200D01*
X134397618Y-65177200D02*
X134492856Y-65081961D01*
X134492856Y-65081961D02*
X134540475Y-64986723D01*
X134540475Y-64986723D02*
X134588094Y-64796247D01*
X134588094Y-64796247D02*
X134588094Y-64653390D01*
X134588094Y-64653390D02*
X134540475Y-64462914D01*
X134540475Y-64462914D02*
X134492856Y-64367676D01*
X134492856Y-64367676D02*
X134397618Y-64272438D01*
X134397618Y-64272438D02*
X134254761Y-64224819D01*
X134254761Y-64224819D02*
X134159523Y-64224819D01*
X134159523Y-64224819D02*
X134016666Y-64272438D01*
X134016666Y-64272438D02*
X133969047Y-64320057D01*
X133016666Y-65224819D02*
X133588094Y-65224819D01*
X133302380Y-65224819D02*
X133302380Y-64224819D01*
X133302380Y-64224819D02*
X133397618Y-64367676D01*
X133397618Y-64367676D02*
X133492856Y-64462914D01*
X133492856Y-64462914D02*
X133588094Y-64510533D01*
X132159523Y-64558152D02*
X132159523Y-65224819D01*
X132397618Y-64177200D02*
X132635713Y-64891485D01*
X132635713Y-64891485D02*
X132016666Y-64891485D01*
X104941666Y-54269819D02*
X105274999Y-53793628D01*
X105513094Y-54269819D02*
X105513094Y-53269819D01*
X105513094Y-53269819D02*
X105132142Y-53269819D01*
X105132142Y-53269819D02*
X105036904Y-53317438D01*
X105036904Y-53317438D02*
X104989285Y-53365057D01*
X104989285Y-53365057D02*
X104941666Y-53460295D01*
X104941666Y-53460295D02*
X104941666Y-53603152D01*
X104941666Y-53603152D02*
X104989285Y-53698390D01*
X104989285Y-53698390D02*
X105036904Y-53746009D01*
X105036904Y-53746009D02*
X105132142Y-53793628D01*
X105132142Y-53793628D02*
X105513094Y-53793628D01*
X104084523Y-53269819D02*
X104274999Y-53269819D01*
X104274999Y-53269819D02*
X104370237Y-53317438D01*
X104370237Y-53317438D02*
X104417856Y-53365057D01*
X104417856Y-53365057D02*
X104513094Y-53507914D01*
X104513094Y-53507914D02*
X104560713Y-53698390D01*
X104560713Y-53698390D02*
X104560713Y-54079342D01*
X104560713Y-54079342D02*
X104513094Y-54174580D01*
X104513094Y-54174580D02*
X104465475Y-54222200D01*
X104465475Y-54222200D02*
X104370237Y-54269819D01*
X104370237Y-54269819D02*
X104179761Y-54269819D01*
X104179761Y-54269819D02*
X104084523Y-54222200D01*
X104084523Y-54222200D02*
X104036904Y-54174580D01*
X104036904Y-54174580D02*
X103989285Y-54079342D01*
X103989285Y-54079342D02*
X103989285Y-53841247D01*
X103989285Y-53841247D02*
X104036904Y-53746009D01*
X104036904Y-53746009D02*
X104084523Y-53698390D01*
X104084523Y-53698390D02*
X104179761Y-53650771D01*
X104179761Y-53650771D02*
X104370237Y-53650771D01*
X104370237Y-53650771D02*
X104465475Y-53698390D01*
X104465475Y-53698390D02*
X104513094Y-53746009D01*
X104513094Y-53746009D02*
X104560713Y-53841247D01*
X121953897Y-81943332D02*
X121811040Y-81990951D01*
X121811040Y-81990951D02*
X121572945Y-81990951D01*
X121572945Y-81990951D02*
X121477707Y-81943332D01*
X121477707Y-81943332D02*
X121430088Y-81895712D01*
X121430088Y-81895712D02*
X121382469Y-81800474D01*
X121382469Y-81800474D02*
X121382469Y-81705236D01*
X121382469Y-81705236D02*
X121430088Y-81609998D01*
X121430088Y-81609998D02*
X121477707Y-81562379D01*
X121477707Y-81562379D02*
X121572945Y-81514760D01*
X121572945Y-81514760D02*
X121763421Y-81467141D01*
X121763421Y-81467141D02*
X121858659Y-81419522D01*
X121858659Y-81419522D02*
X121906278Y-81371903D01*
X121906278Y-81371903D02*
X121953897Y-81276665D01*
X121953897Y-81276665D02*
X121953897Y-81181427D01*
X121953897Y-81181427D02*
X121906278Y-81086189D01*
X121906278Y-81086189D02*
X121858659Y-81038570D01*
X121858659Y-81038570D02*
X121763421Y-80990951D01*
X121763421Y-80990951D02*
X121525326Y-80990951D01*
X121525326Y-80990951D02*
X121382469Y-81038570D01*
X121049135Y-80990951D02*
X120811040Y-81990951D01*
X120811040Y-81990951D02*
X120620564Y-81276665D01*
X120620564Y-81276665D02*
X120430088Y-81990951D01*
X120430088Y-81990951D02*
X120191993Y-80990951D01*
X120049136Y-82086189D02*
X119287231Y-82086189D01*
X118477707Y-81990951D02*
X118811040Y-81514760D01*
X119049135Y-81990951D02*
X119049135Y-80990951D01*
X119049135Y-80990951D02*
X118668183Y-80990951D01*
X118668183Y-80990951D02*
X118572945Y-81038570D01*
X118572945Y-81038570D02*
X118525326Y-81086189D01*
X118525326Y-81086189D02*
X118477707Y-81181427D01*
X118477707Y-81181427D02*
X118477707Y-81324284D01*
X118477707Y-81324284D02*
X118525326Y-81419522D01*
X118525326Y-81419522D02*
X118572945Y-81467141D01*
X118572945Y-81467141D02*
X118668183Y-81514760D01*
X118668183Y-81514760D02*
X119049135Y-81514760D01*
X118191992Y-80990951D02*
X117620564Y-80990951D01*
X117906278Y-81990951D02*
X117906278Y-80990951D01*
X116763421Y-81990951D02*
X117334849Y-81990951D01*
X117049135Y-81990951D02*
X117049135Y-80990951D01*
X117049135Y-80990951D02*
X117144373Y-81133808D01*
X117144373Y-81133808D02*
X117239611Y-81229046D01*
X117239611Y-81229046D02*
X117334849Y-81276665D01*
X96686666Y-76207580D02*
X96734285Y-76255200D01*
X96734285Y-76255200D02*
X96877142Y-76302819D01*
X96877142Y-76302819D02*
X96972380Y-76302819D01*
X96972380Y-76302819D02*
X97115237Y-76255200D01*
X97115237Y-76255200D02*
X97210475Y-76159961D01*
X97210475Y-76159961D02*
X97258094Y-76064723D01*
X97258094Y-76064723D02*
X97305713Y-75874247D01*
X97305713Y-75874247D02*
X97305713Y-75731390D01*
X97305713Y-75731390D02*
X97258094Y-75540914D01*
X97258094Y-75540914D02*
X97210475Y-75445676D01*
X97210475Y-75445676D02*
X97115237Y-75350438D01*
X97115237Y-75350438D02*
X96972380Y-75302819D01*
X96972380Y-75302819D02*
X96877142Y-75302819D01*
X96877142Y-75302819D02*
X96734285Y-75350438D01*
X96734285Y-75350438D02*
X96686666Y-75398057D01*
X96353332Y-75302819D02*
X95734285Y-75302819D01*
X95734285Y-75302819D02*
X96067618Y-75683771D01*
X96067618Y-75683771D02*
X95924761Y-75683771D01*
X95924761Y-75683771D02*
X95829523Y-75731390D01*
X95829523Y-75731390D02*
X95781904Y-75779009D01*
X95781904Y-75779009D02*
X95734285Y-75874247D01*
X95734285Y-75874247D02*
X95734285Y-76112342D01*
X95734285Y-76112342D02*
X95781904Y-76207580D01*
X95781904Y-76207580D02*
X95829523Y-76255200D01*
X95829523Y-76255200D02*
X95924761Y-76302819D01*
X95924761Y-76302819D02*
X96210475Y-76302819D01*
X96210475Y-76302819D02*
X96305713Y-76255200D01*
X96305713Y-76255200D02*
X96353332Y-76207580D01*
X93511666Y-50619819D02*
X93844999Y-50143628D01*
X94083094Y-50619819D02*
X94083094Y-49619819D01*
X94083094Y-49619819D02*
X93702142Y-49619819D01*
X93702142Y-49619819D02*
X93606904Y-49667438D01*
X93606904Y-49667438D02*
X93559285Y-49715057D01*
X93559285Y-49715057D02*
X93511666Y-49810295D01*
X93511666Y-49810295D02*
X93511666Y-49953152D01*
X93511666Y-49953152D02*
X93559285Y-50048390D01*
X93559285Y-50048390D02*
X93606904Y-50096009D01*
X93606904Y-50096009D02*
X93702142Y-50143628D01*
X93702142Y-50143628D02*
X94083094Y-50143628D01*
X93178332Y-49619819D02*
X92511666Y-49619819D01*
X92511666Y-49619819D02*
X92940237Y-50619819D01*
X70492857Y-72114580D02*
X70540476Y-72162200D01*
X70540476Y-72162200D02*
X70683333Y-72209819D01*
X70683333Y-72209819D02*
X70778571Y-72209819D01*
X70778571Y-72209819D02*
X70921428Y-72162200D01*
X70921428Y-72162200D02*
X71016666Y-72066961D01*
X71016666Y-72066961D02*
X71064285Y-71971723D01*
X71064285Y-71971723D02*
X71111904Y-71781247D01*
X71111904Y-71781247D02*
X71111904Y-71638390D01*
X71111904Y-71638390D02*
X71064285Y-71447914D01*
X71064285Y-71447914D02*
X71016666Y-71352676D01*
X71016666Y-71352676D02*
X70921428Y-71257438D01*
X70921428Y-71257438D02*
X70778571Y-71209819D01*
X70778571Y-71209819D02*
X70683333Y-71209819D01*
X70683333Y-71209819D02*
X70540476Y-71257438D01*
X70540476Y-71257438D02*
X70492857Y-71305057D01*
X69540476Y-72209819D02*
X70111904Y-72209819D01*
X69826190Y-72209819D02*
X69826190Y-71209819D01*
X69826190Y-71209819D02*
X69921428Y-71352676D01*
X69921428Y-71352676D02*
X70016666Y-71447914D01*
X70016666Y-71447914D02*
X70111904Y-71495533D01*
X68683333Y-71209819D02*
X68873809Y-71209819D01*
X68873809Y-71209819D02*
X68969047Y-71257438D01*
X68969047Y-71257438D02*
X69016666Y-71305057D01*
X69016666Y-71305057D02*
X69111904Y-71447914D01*
X69111904Y-71447914D02*
X69159523Y-71638390D01*
X69159523Y-71638390D02*
X69159523Y-72019342D01*
X69159523Y-72019342D02*
X69111904Y-72114580D01*
X69111904Y-72114580D02*
X69064285Y-72162200D01*
X69064285Y-72162200D02*
X68969047Y-72209819D01*
X68969047Y-72209819D02*
X68778571Y-72209819D01*
X68778571Y-72209819D02*
X68683333Y-72162200D01*
X68683333Y-72162200D02*
X68635714Y-72114580D01*
X68635714Y-72114580D02*
X68588095Y-72019342D01*
X68588095Y-72019342D02*
X68588095Y-71781247D01*
X68588095Y-71781247D02*
X68635714Y-71686009D01*
X68635714Y-71686009D02*
X68683333Y-71638390D01*
X68683333Y-71638390D02*
X68778571Y-71590771D01*
X68778571Y-71590771D02*
X68969047Y-71590771D01*
X68969047Y-71590771D02*
X69064285Y-71638390D01*
X69064285Y-71638390D02*
X69111904Y-71686009D01*
X69111904Y-71686009D02*
X69159523Y-71781247D01*
X120022857Y-69034819D02*
X120356190Y-68558628D01*
X120594285Y-69034819D02*
X120594285Y-68034819D01*
X120594285Y-68034819D02*
X120213333Y-68034819D01*
X120213333Y-68034819D02*
X120118095Y-68082438D01*
X120118095Y-68082438D02*
X120070476Y-68130057D01*
X120070476Y-68130057D02*
X120022857Y-68225295D01*
X120022857Y-68225295D02*
X120022857Y-68368152D01*
X120022857Y-68368152D02*
X120070476Y-68463390D01*
X120070476Y-68463390D02*
X120118095Y-68511009D01*
X120118095Y-68511009D02*
X120213333Y-68558628D01*
X120213333Y-68558628D02*
X120594285Y-68558628D01*
X119070476Y-69034819D02*
X119641904Y-69034819D01*
X119356190Y-69034819D02*
X119356190Y-68034819D01*
X119356190Y-68034819D02*
X119451428Y-68177676D01*
X119451428Y-68177676D02*
X119546666Y-68272914D01*
X119546666Y-68272914D02*
X119641904Y-68320533D01*
X118737142Y-68034819D02*
X118070476Y-68034819D01*
X118070476Y-68034819D02*
X118499047Y-69034819D01*
X96492999Y-82021200D02*
X96350142Y-82068819D01*
X96350142Y-82068819D02*
X96112047Y-82068819D01*
X96112047Y-82068819D02*
X96016809Y-82021200D01*
X96016809Y-82021200D02*
X95969190Y-81973580D01*
X95969190Y-81973580D02*
X95921571Y-81878342D01*
X95921571Y-81878342D02*
X95921571Y-81783104D01*
X95921571Y-81783104D02*
X95969190Y-81687866D01*
X95969190Y-81687866D02*
X96016809Y-81640247D01*
X96016809Y-81640247D02*
X96112047Y-81592628D01*
X96112047Y-81592628D02*
X96302523Y-81545009D01*
X96302523Y-81545009D02*
X96397761Y-81497390D01*
X96397761Y-81497390D02*
X96445380Y-81449771D01*
X96445380Y-81449771D02*
X96492999Y-81354533D01*
X96492999Y-81354533D02*
X96492999Y-81259295D01*
X96492999Y-81259295D02*
X96445380Y-81164057D01*
X96445380Y-81164057D02*
X96397761Y-81116438D01*
X96397761Y-81116438D02*
X96302523Y-81068819D01*
X96302523Y-81068819D02*
X96064428Y-81068819D01*
X96064428Y-81068819D02*
X95921571Y-81116438D01*
X95588237Y-81068819D02*
X95350142Y-82068819D01*
X95350142Y-82068819D02*
X95159666Y-81354533D01*
X95159666Y-81354533D02*
X94969190Y-82068819D01*
X94969190Y-82068819D02*
X94731095Y-81068819D01*
X94588238Y-82164057D02*
X93826333Y-82164057D01*
X93112047Y-82068819D02*
X93588237Y-82068819D01*
X93588237Y-82068819D02*
X93588237Y-81068819D01*
X92921570Y-81068819D02*
X92350142Y-81068819D01*
X92635856Y-82068819D02*
X92635856Y-81068819D01*
X91492999Y-82068819D02*
X92064427Y-82068819D01*
X91778713Y-82068819D02*
X91778713Y-81068819D01*
X91778713Y-81068819D02*
X91873951Y-81211676D01*
X91873951Y-81211676D02*
X91969189Y-81306914D01*
X91969189Y-81306914D02*
X92064427Y-81354533D01*
X142882857Y-70939819D02*
X143216190Y-70463628D01*
X143454285Y-70939819D02*
X143454285Y-69939819D01*
X143454285Y-69939819D02*
X143073333Y-69939819D01*
X143073333Y-69939819D02*
X142978095Y-69987438D01*
X142978095Y-69987438D02*
X142930476Y-70035057D01*
X142930476Y-70035057D02*
X142882857Y-70130295D01*
X142882857Y-70130295D02*
X142882857Y-70273152D01*
X142882857Y-70273152D02*
X142930476Y-70368390D01*
X142930476Y-70368390D02*
X142978095Y-70416009D01*
X142978095Y-70416009D02*
X143073333Y-70463628D01*
X143073333Y-70463628D02*
X143454285Y-70463628D01*
X141930476Y-70939819D02*
X142501904Y-70939819D01*
X142216190Y-70939819D02*
X142216190Y-69939819D01*
X142216190Y-69939819D02*
X142311428Y-70082676D01*
X142311428Y-70082676D02*
X142406666Y-70177914D01*
X142406666Y-70177914D02*
X142501904Y-70225533D01*
X141073333Y-69939819D02*
X141263809Y-69939819D01*
X141263809Y-69939819D02*
X141359047Y-69987438D01*
X141359047Y-69987438D02*
X141406666Y-70035057D01*
X141406666Y-70035057D02*
X141501904Y-70177914D01*
X141501904Y-70177914D02*
X141549523Y-70368390D01*
X141549523Y-70368390D02*
X141549523Y-70749342D01*
X141549523Y-70749342D02*
X141501904Y-70844580D01*
X141501904Y-70844580D02*
X141454285Y-70892200D01*
X141454285Y-70892200D02*
X141359047Y-70939819D01*
X141359047Y-70939819D02*
X141168571Y-70939819D01*
X141168571Y-70939819D02*
X141073333Y-70892200D01*
X141073333Y-70892200D02*
X141025714Y-70844580D01*
X141025714Y-70844580D02*
X140978095Y-70749342D01*
X140978095Y-70749342D02*
X140978095Y-70511247D01*
X140978095Y-70511247D02*
X141025714Y-70416009D01*
X141025714Y-70416009D02*
X141073333Y-70368390D01*
X141073333Y-70368390D02*
X141168571Y-70320771D01*
X141168571Y-70320771D02*
X141359047Y-70320771D01*
X141359047Y-70320771D02*
X141454285Y-70368390D01*
X141454285Y-70368390D02*
X141501904Y-70416009D01*
X141501904Y-70416009D02*
X141549523Y-70511247D01*
X133992857Y-72844819D02*
X134326190Y-72368628D01*
X134564285Y-72844819D02*
X134564285Y-71844819D01*
X134564285Y-71844819D02*
X134183333Y-71844819D01*
X134183333Y-71844819D02*
X134088095Y-71892438D01*
X134088095Y-71892438D02*
X134040476Y-71940057D01*
X134040476Y-71940057D02*
X133992857Y-72035295D01*
X133992857Y-72035295D02*
X133992857Y-72178152D01*
X133992857Y-72178152D02*
X134040476Y-72273390D01*
X134040476Y-72273390D02*
X134088095Y-72321009D01*
X134088095Y-72321009D02*
X134183333Y-72368628D01*
X134183333Y-72368628D02*
X134564285Y-72368628D01*
X133040476Y-72844819D02*
X133611904Y-72844819D01*
X133326190Y-72844819D02*
X133326190Y-71844819D01*
X133326190Y-71844819D02*
X133421428Y-71987676D01*
X133421428Y-71987676D02*
X133516666Y-72082914D01*
X133516666Y-72082914D02*
X133611904Y-72130533D01*
X132135714Y-71844819D02*
X132611904Y-71844819D01*
X132611904Y-71844819D02*
X132659523Y-72321009D01*
X132659523Y-72321009D02*
X132611904Y-72273390D01*
X132611904Y-72273390D02*
X132516666Y-72225771D01*
X132516666Y-72225771D02*
X132278571Y-72225771D01*
X132278571Y-72225771D02*
X132183333Y-72273390D01*
X132183333Y-72273390D02*
X132135714Y-72321009D01*
X132135714Y-72321009D02*
X132088095Y-72416247D01*
X132088095Y-72416247D02*
X132088095Y-72654342D01*
X132088095Y-72654342D02*
X132135714Y-72749580D01*
X132135714Y-72749580D02*
X132183333Y-72797200D01*
X132183333Y-72797200D02*
X132278571Y-72844819D01*
X132278571Y-72844819D02*
X132516666Y-72844819D01*
X132516666Y-72844819D02*
X132611904Y-72797200D01*
X132611904Y-72797200D02*
X132659523Y-72749580D01*
X128912857Y-65129580D02*
X128960476Y-65177200D01*
X128960476Y-65177200D02*
X129103333Y-65224819D01*
X129103333Y-65224819D02*
X129198571Y-65224819D01*
X129198571Y-65224819D02*
X129341428Y-65177200D01*
X129341428Y-65177200D02*
X129436666Y-65081961D01*
X129436666Y-65081961D02*
X129484285Y-64986723D01*
X129484285Y-64986723D02*
X129531904Y-64796247D01*
X129531904Y-64796247D02*
X129531904Y-64653390D01*
X129531904Y-64653390D02*
X129484285Y-64462914D01*
X129484285Y-64462914D02*
X129436666Y-64367676D01*
X129436666Y-64367676D02*
X129341428Y-64272438D01*
X129341428Y-64272438D02*
X129198571Y-64224819D01*
X129198571Y-64224819D02*
X129103333Y-64224819D01*
X129103333Y-64224819D02*
X128960476Y-64272438D01*
X128960476Y-64272438D02*
X128912857Y-64320057D01*
X127960476Y-65224819D02*
X128531904Y-65224819D01*
X128246190Y-65224819D02*
X128246190Y-64224819D01*
X128246190Y-64224819D02*
X128341428Y-64367676D01*
X128341428Y-64367676D02*
X128436666Y-64462914D01*
X128436666Y-64462914D02*
X128531904Y-64510533D01*
X127627142Y-64224819D02*
X127008095Y-64224819D01*
X127008095Y-64224819D02*
X127341428Y-64605771D01*
X127341428Y-64605771D02*
X127198571Y-64605771D01*
X127198571Y-64605771D02*
X127103333Y-64653390D01*
X127103333Y-64653390D02*
X127055714Y-64701009D01*
X127055714Y-64701009D02*
X127008095Y-64796247D01*
X127008095Y-64796247D02*
X127008095Y-65034342D01*
X127008095Y-65034342D02*
X127055714Y-65129580D01*
X127055714Y-65129580D02*
X127103333Y-65177200D01*
X127103333Y-65177200D02*
X127198571Y-65224819D01*
X127198571Y-65224819D02*
X127484285Y-65224819D01*
X127484285Y-65224819D02*
X127579523Y-65177200D01*
X127579523Y-65177200D02*
X127627142Y-65129580D01*
X142882857Y-69034819D02*
X143216190Y-68558628D01*
X143454285Y-69034819D02*
X143454285Y-68034819D01*
X143454285Y-68034819D02*
X143073333Y-68034819D01*
X143073333Y-68034819D02*
X142978095Y-68082438D01*
X142978095Y-68082438D02*
X142930476Y-68130057D01*
X142930476Y-68130057D02*
X142882857Y-68225295D01*
X142882857Y-68225295D02*
X142882857Y-68368152D01*
X142882857Y-68368152D02*
X142930476Y-68463390D01*
X142930476Y-68463390D02*
X142978095Y-68511009D01*
X142978095Y-68511009D02*
X143073333Y-68558628D01*
X143073333Y-68558628D02*
X143454285Y-68558628D01*
X142501904Y-68130057D02*
X142454285Y-68082438D01*
X142454285Y-68082438D02*
X142359047Y-68034819D01*
X142359047Y-68034819D02*
X142120952Y-68034819D01*
X142120952Y-68034819D02*
X142025714Y-68082438D01*
X142025714Y-68082438D02*
X141978095Y-68130057D01*
X141978095Y-68130057D02*
X141930476Y-68225295D01*
X141930476Y-68225295D02*
X141930476Y-68320533D01*
X141930476Y-68320533D02*
X141978095Y-68463390D01*
X141978095Y-68463390D02*
X142549523Y-69034819D01*
X142549523Y-69034819D02*
X141930476Y-69034819D01*
X141311428Y-68034819D02*
X141216190Y-68034819D01*
X141216190Y-68034819D02*
X141120952Y-68082438D01*
X141120952Y-68082438D02*
X141073333Y-68130057D01*
X141073333Y-68130057D02*
X141025714Y-68225295D01*
X141025714Y-68225295D02*
X140978095Y-68415771D01*
X140978095Y-68415771D02*
X140978095Y-68653866D01*
X140978095Y-68653866D02*
X141025714Y-68844342D01*
X141025714Y-68844342D02*
X141073333Y-68939580D01*
X141073333Y-68939580D02*
X141120952Y-68987200D01*
X141120952Y-68987200D02*
X141216190Y-69034819D01*
X141216190Y-69034819D02*
X141311428Y-69034819D01*
X141311428Y-69034819D02*
X141406666Y-68987200D01*
X141406666Y-68987200D02*
X141454285Y-68939580D01*
X141454285Y-68939580D02*
X141501904Y-68844342D01*
X141501904Y-68844342D02*
X141549523Y-68653866D01*
X141549523Y-68653866D02*
X141549523Y-68415771D01*
X141549523Y-68415771D02*
X141501904Y-68225295D01*
X141501904Y-68225295D02*
X141454285Y-68130057D01*
X141454285Y-68130057D02*
X141406666Y-68082438D01*
X141406666Y-68082438D02*
X141311428Y-68034819D01*
X111132857Y-44269819D02*
X111466190Y-43793628D01*
X111704285Y-44269819D02*
X111704285Y-43269819D01*
X111704285Y-43269819D02*
X111323333Y-43269819D01*
X111323333Y-43269819D02*
X111228095Y-43317438D01*
X111228095Y-43317438D02*
X111180476Y-43365057D01*
X111180476Y-43365057D02*
X111132857Y-43460295D01*
X111132857Y-43460295D02*
X111132857Y-43603152D01*
X111132857Y-43603152D02*
X111180476Y-43698390D01*
X111180476Y-43698390D02*
X111228095Y-43746009D01*
X111228095Y-43746009D02*
X111323333Y-43793628D01*
X111323333Y-43793628D02*
X111704285Y-43793628D01*
X110799523Y-43269819D02*
X110180476Y-43269819D01*
X110180476Y-43269819D02*
X110513809Y-43650771D01*
X110513809Y-43650771D02*
X110370952Y-43650771D01*
X110370952Y-43650771D02*
X110275714Y-43698390D01*
X110275714Y-43698390D02*
X110228095Y-43746009D01*
X110228095Y-43746009D02*
X110180476Y-43841247D01*
X110180476Y-43841247D02*
X110180476Y-44079342D01*
X110180476Y-44079342D02*
X110228095Y-44174580D01*
X110228095Y-44174580D02*
X110275714Y-44222200D01*
X110275714Y-44222200D02*
X110370952Y-44269819D01*
X110370952Y-44269819D02*
X110656666Y-44269819D01*
X110656666Y-44269819D02*
X110751904Y-44222200D01*
X110751904Y-44222200D02*
X110799523Y-44174580D01*
X109228095Y-44269819D02*
X109799523Y-44269819D01*
X109513809Y-44269819D02*
X109513809Y-43269819D01*
X109513809Y-43269819D02*
X109609047Y-43412676D01*
X109609047Y-43412676D02*
X109704285Y-43507914D01*
X109704285Y-43507914D02*
X109799523Y-43555533D01*
X108751666Y-54269819D02*
X109084999Y-53793628D01*
X109323094Y-54269819D02*
X109323094Y-53269819D01*
X109323094Y-53269819D02*
X108942142Y-53269819D01*
X108942142Y-53269819D02*
X108846904Y-53317438D01*
X108846904Y-53317438D02*
X108799285Y-53365057D01*
X108799285Y-53365057D02*
X108751666Y-53460295D01*
X108751666Y-53460295D02*
X108751666Y-53603152D01*
X108751666Y-53603152D02*
X108799285Y-53698390D01*
X108799285Y-53698390D02*
X108846904Y-53746009D01*
X108846904Y-53746009D02*
X108942142Y-53793628D01*
X108942142Y-53793628D02*
X109323094Y-53793628D01*
X108275475Y-54269819D02*
X108084999Y-54269819D01*
X108084999Y-54269819D02*
X107989761Y-54222200D01*
X107989761Y-54222200D02*
X107942142Y-54174580D01*
X107942142Y-54174580D02*
X107846904Y-54031723D01*
X107846904Y-54031723D02*
X107799285Y-53841247D01*
X107799285Y-53841247D02*
X107799285Y-53460295D01*
X107799285Y-53460295D02*
X107846904Y-53365057D01*
X107846904Y-53365057D02*
X107894523Y-53317438D01*
X107894523Y-53317438D02*
X107989761Y-53269819D01*
X107989761Y-53269819D02*
X108180237Y-53269819D01*
X108180237Y-53269819D02*
X108275475Y-53317438D01*
X108275475Y-53317438D02*
X108323094Y-53365057D01*
X108323094Y-53365057D02*
X108370713Y-53460295D01*
X108370713Y-53460295D02*
X108370713Y-53698390D01*
X108370713Y-53698390D02*
X108323094Y-53793628D01*
X108323094Y-53793628D02*
X108275475Y-53841247D01*
X108275475Y-53841247D02*
X108180237Y-53888866D01*
X108180237Y-53888866D02*
X107989761Y-53888866D01*
X107989761Y-53888866D02*
X107894523Y-53841247D01*
X107894523Y-53841247D02*
X107846904Y-53793628D01*
X107846904Y-53793628D02*
X107799285Y-53698390D01*
X84462857Y-70209580D02*
X84510476Y-70257200D01*
X84510476Y-70257200D02*
X84653333Y-70304819D01*
X84653333Y-70304819D02*
X84748571Y-70304819D01*
X84748571Y-70304819D02*
X84891428Y-70257200D01*
X84891428Y-70257200D02*
X84986666Y-70161961D01*
X84986666Y-70161961D02*
X85034285Y-70066723D01*
X85034285Y-70066723D02*
X85081904Y-69876247D01*
X85081904Y-69876247D02*
X85081904Y-69733390D01*
X85081904Y-69733390D02*
X85034285Y-69542914D01*
X85034285Y-69542914D02*
X84986666Y-69447676D01*
X84986666Y-69447676D02*
X84891428Y-69352438D01*
X84891428Y-69352438D02*
X84748571Y-69304819D01*
X84748571Y-69304819D02*
X84653333Y-69304819D01*
X84653333Y-69304819D02*
X84510476Y-69352438D01*
X84510476Y-69352438D02*
X84462857Y-69400057D01*
X83510476Y-70304819D02*
X84081904Y-70304819D01*
X83796190Y-70304819D02*
X83796190Y-69304819D01*
X83796190Y-69304819D02*
X83891428Y-69447676D01*
X83891428Y-69447676D02*
X83986666Y-69542914D01*
X83986666Y-69542914D02*
X84081904Y-69590533D01*
X82939047Y-69733390D02*
X83034285Y-69685771D01*
X83034285Y-69685771D02*
X83081904Y-69638152D01*
X83081904Y-69638152D02*
X83129523Y-69542914D01*
X83129523Y-69542914D02*
X83129523Y-69495295D01*
X83129523Y-69495295D02*
X83081904Y-69400057D01*
X83081904Y-69400057D02*
X83034285Y-69352438D01*
X83034285Y-69352438D02*
X82939047Y-69304819D01*
X82939047Y-69304819D02*
X82748571Y-69304819D01*
X82748571Y-69304819D02*
X82653333Y-69352438D01*
X82653333Y-69352438D02*
X82605714Y-69400057D01*
X82605714Y-69400057D02*
X82558095Y-69495295D01*
X82558095Y-69495295D02*
X82558095Y-69542914D01*
X82558095Y-69542914D02*
X82605714Y-69638152D01*
X82605714Y-69638152D02*
X82653333Y-69685771D01*
X82653333Y-69685771D02*
X82748571Y-69733390D01*
X82748571Y-69733390D02*
X82939047Y-69733390D01*
X82939047Y-69733390D02*
X83034285Y-69781009D01*
X83034285Y-69781009D02*
X83081904Y-69828628D01*
X83081904Y-69828628D02*
X83129523Y-69923866D01*
X83129523Y-69923866D02*
X83129523Y-70114342D01*
X83129523Y-70114342D02*
X83081904Y-70209580D01*
X83081904Y-70209580D02*
X83034285Y-70257200D01*
X83034285Y-70257200D02*
X82939047Y-70304819D01*
X82939047Y-70304819D02*
X82748571Y-70304819D01*
X82748571Y-70304819D02*
X82653333Y-70257200D01*
X82653333Y-70257200D02*
X82605714Y-70209580D01*
X82605714Y-70209580D02*
X82558095Y-70114342D01*
X82558095Y-70114342D02*
X82558095Y-69923866D01*
X82558095Y-69923866D02*
X82605714Y-69828628D01*
X82605714Y-69828628D02*
X82653333Y-69781009D01*
X82653333Y-69781009D02*
X82748571Y-69733390D01*
X120022857Y-50619819D02*
X120356190Y-50143628D01*
X120594285Y-50619819D02*
X120594285Y-49619819D01*
X120594285Y-49619819D02*
X120213333Y-49619819D01*
X120213333Y-49619819D02*
X120118095Y-49667438D01*
X120118095Y-49667438D02*
X120070476Y-49715057D01*
X120070476Y-49715057D02*
X120022857Y-49810295D01*
X120022857Y-49810295D02*
X120022857Y-49953152D01*
X120022857Y-49953152D02*
X120070476Y-50048390D01*
X120070476Y-50048390D02*
X120118095Y-50096009D01*
X120118095Y-50096009D02*
X120213333Y-50143628D01*
X120213333Y-50143628D02*
X120594285Y-50143628D01*
X119070476Y-50619819D02*
X119641904Y-50619819D01*
X119356190Y-50619819D02*
X119356190Y-49619819D01*
X119356190Y-49619819D02*
X119451428Y-49762676D01*
X119451428Y-49762676D02*
X119546666Y-49857914D01*
X119546666Y-49857914D02*
X119641904Y-49905533D01*
X118689523Y-49715057D02*
X118641904Y-49667438D01*
X118641904Y-49667438D02*
X118546666Y-49619819D01*
X118546666Y-49619819D02*
X118308571Y-49619819D01*
X118308571Y-49619819D02*
X118213333Y-49667438D01*
X118213333Y-49667438D02*
X118165714Y-49715057D01*
X118165714Y-49715057D02*
X118118095Y-49810295D01*
X118118095Y-49810295D02*
X118118095Y-49905533D01*
X118118095Y-49905533D02*
X118165714Y-50048390D01*
X118165714Y-50048390D02*
X118737142Y-50619819D01*
X118737142Y-50619819D02*
X118118095Y-50619819D01*
X93511666Y-52524819D02*
X93844999Y-52048628D01*
X94083094Y-52524819D02*
X94083094Y-51524819D01*
X94083094Y-51524819D02*
X93702142Y-51524819D01*
X93702142Y-51524819D02*
X93606904Y-51572438D01*
X93606904Y-51572438D02*
X93559285Y-51620057D01*
X93559285Y-51620057D02*
X93511666Y-51715295D01*
X93511666Y-51715295D02*
X93511666Y-51858152D01*
X93511666Y-51858152D02*
X93559285Y-51953390D01*
X93559285Y-51953390D02*
X93606904Y-52001009D01*
X93606904Y-52001009D02*
X93702142Y-52048628D01*
X93702142Y-52048628D02*
X94083094Y-52048628D01*
X92940237Y-51953390D02*
X93035475Y-51905771D01*
X93035475Y-51905771D02*
X93083094Y-51858152D01*
X93083094Y-51858152D02*
X93130713Y-51762914D01*
X93130713Y-51762914D02*
X93130713Y-51715295D01*
X93130713Y-51715295D02*
X93083094Y-51620057D01*
X93083094Y-51620057D02*
X93035475Y-51572438D01*
X93035475Y-51572438D02*
X92940237Y-51524819D01*
X92940237Y-51524819D02*
X92749761Y-51524819D01*
X92749761Y-51524819D02*
X92654523Y-51572438D01*
X92654523Y-51572438D02*
X92606904Y-51620057D01*
X92606904Y-51620057D02*
X92559285Y-51715295D01*
X92559285Y-51715295D02*
X92559285Y-51762914D01*
X92559285Y-51762914D02*
X92606904Y-51858152D01*
X92606904Y-51858152D02*
X92654523Y-51905771D01*
X92654523Y-51905771D02*
X92749761Y-51953390D01*
X92749761Y-51953390D02*
X92940237Y-51953390D01*
X92940237Y-51953390D02*
X93035475Y-52001009D01*
X93035475Y-52001009D02*
X93083094Y-52048628D01*
X93083094Y-52048628D02*
X93130713Y-52143866D01*
X93130713Y-52143866D02*
X93130713Y-52334342D01*
X93130713Y-52334342D02*
X93083094Y-52429580D01*
X93083094Y-52429580D02*
X93035475Y-52477200D01*
X93035475Y-52477200D02*
X92940237Y-52524819D01*
X92940237Y-52524819D02*
X92749761Y-52524819D01*
X92749761Y-52524819D02*
X92654523Y-52477200D01*
X92654523Y-52477200D02*
X92606904Y-52429580D01*
X92606904Y-52429580D02*
X92559285Y-52334342D01*
X92559285Y-52334342D02*
X92559285Y-52143866D01*
X92559285Y-52143866D02*
X92606904Y-52048628D01*
X92606904Y-52048628D02*
X92654523Y-52001009D01*
X92654523Y-52001009D02*
X92749761Y-51953390D01*
X128912857Y-72844819D02*
X129246190Y-72368628D01*
X129484285Y-72844819D02*
X129484285Y-71844819D01*
X129484285Y-71844819D02*
X129103333Y-71844819D01*
X129103333Y-71844819D02*
X129008095Y-71892438D01*
X129008095Y-71892438D02*
X128960476Y-71940057D01*
X128960476Y-71940057D02*
X128912857Y-72035295D01*
X128912857Y-72035295D02*
X128912857Y-72178152D01*
X128912857Y-72178152D02*
X128960476Y-72273390D01*
X128960476Y-72273390D02*
X129008095Y-72321009D01*
X129008095Y-72321009D02*
X129103333Y-72368628D01*
X129103333Y-72368628D02*
X129484285Y-72368628D01*
X127960476Y-72844819D02*
X128531904Y-72844819D01*
X128246190Y-72844819D02*
X128246190Y-71844819D01*
X128246190Y-71844819D02*
X128341428Y-71987676D01*
X128341428Y-71987676D02*
X128436666Y-72082914D01*
X128436666Y-72082914D02*
X128531904Y-72130533D01*
X127103333Y-72178152D02*
X127103333Y-72844819D01*
X127341428Y-71797200D02*
X127579523Y-72511485D01*
X127579523Y-72511485D02*
X126960476Y-72511485D01*
D11*
%TO.C,R21*%
X73422742Y-75042500D02*
X73897258Y-75042500D01*
X73422742Y-76087500D02*
X73897258Y-76087500D01*
%TO.C,R27*%
X84057258Y-73137500D02*
X83582742Y-73137500D01*
X84057258Y-74182500D02*
X83582742Y-74182500D01*
%TO.C,R25*%
X73897258Y-73137500D02*
X73422742Y-73137500D01*
X73897258Y-74182500D02*
X73422742Y-74182500D01*
%TO.C,R28*%
X89137258Y-73137500D02*
X88662742Y-73137500D01*
X89137258Y-74182500D02*
X88662742Y-74182500D01*
D10*
%TO.C,SW_RB1*%
X118958660Y-37136132D02*
X118958660Y-45136132D01*
X118958660Y-45136132D02*
X126958660Y-45136132D01*
X126958660Y-37136132D02*
X118958660Y-37136132D01*
X126958660Y-45136132D02*
X126958660Y-37136132D01*
D11*
%TO.C,J1*%
X100220000Y-69125000D02*
X100220000Y-65495000D01*
X100285000Y-65495000D02*
X100220000Y-65495000D01*
X100285000Y-69125000D02*
X100220000Y-69125000D01*
X113075000Y-70400000D02*
X113075000Y-69125000D01*
X113140000Y-65495000D02*
X113075000Y-65495000D01*
X113140000Y-69125000D02*
X113075000Y-69125000D01*
X113140000Y-69125000D02*
X113140000Y-65495000D01*
%TO.C,R22*%
X78502742Y-75042500D02*
X78977258Y-75042500D01*
X78502742Y-76087500D02*
X78977258Y-76087500D01*
%TO.C,C12*%
X123049420Y-66165000D02*
X123330580Y-66165000D01*
X123049420Y-67185000D02*
X123330580Y-67185000D01*
%TO.C,R24*%
X88662742Y-75042500D02*
X89137258Y-75042500D01*
X88662742Y-76087500D02*
X89137258Y-76087500D01*
%TO.C,C15*%
X138289420Y-66165000D02*
X138570580Y-66165000D01*
X138289420Y-67185000D02*
X138570580Y-67185000D01*
%TO.C,R19*%
X133587258Y-68057500D02*
X133112742Y-68057500D01*
X133587258Y-69102500D02*
X133112742Y-69102500D01*
%TO.C,R13*%
X122952742Y-69962500D02*
X123427258Y-69962500D01*
X122952742Y-71007500D02*
X123427258Y-71007500D01*
%TO.C,R18*%
X128507258Y-68057500D02*
X128032742Y-68057500D01*
X128507258Y-69102500D02*
X128032742Y-69102500D01*
%TO.C,C22*%
X106539420Y-39495000D02*
X106820580Y-39495000D01*
X106539420Y-40515000D02*
X106820580Y-40515000D01*
D10*
%TO.C,SW_LB1*%
X86208660Y-37186132D02*
X86208660Y-45186132D01*
X86208660Y-45186132D02*
X94208660Y-45186132D01*
X94208660Y-37186132D02*
X86208660Y-37186132D01*
X94208660Y-45186132D02*
X94208660Y-37186132D01*
D11*
%TO.C,R34*%
X106917258Y-41387500D02*
X106442742Y-41387500D01*
X106917258Y-42432500D02*
X106442742Y-42432500D01*
%TO.C,R23*%
X83582742Y-75042500D02*
X84057258Y-75042500D01*
X83582742Y-76087500D02*
X84057258Y-76087500D01*
%TO.C,C17*%
X78599420Y-71245000D02*
X78880580Y-71245000D01*
X78599420Y-72265000D02*
X78880580Y-72265000D01*
%TO.C,R10*%
X115967742Y-51547500D02*
X116442258Y-51547500D01*
X115967742Y-52592500D02*
X116442258Y-52592500D01*
%TO.C,C2*%
X116832748Y-73433000D02*
X117355252Y-73433000D01*
X116832748Y-74903000D02*
X117355252Y-74903000D01*
%TO.C,C1*%
X114673748Y-59590000D02*
X115196252Y-59590000D01*
X114673748Y-61060000D02*
X115196252Y-61060000D01*
%TO.C,R26*%
X78977258Y-73137500D02*
X78502742Y-73137500D01*
X78977258Y-74182500D02*
X78502742Y-74182500D01*
%TO.C,C19*%
X88759420Y-71245000D02*
X89040580Y-71245000D01*
X88759420Y-72265000D02*
X89040580Y-72265000D01*
%TO.C,C14*%
X133209420Y-66165000D02*
X133490580Y-66165000D01*
X133209420Y-67185000D02*
X133490580Y-67185000D01*
%TO.C,R6*%
X105012258Y-54722500D02*
X104537742Y-54722500D01*
X105012258Y-55767500D02*
X104537742Y-55767500D01*
D10*
%TO.C,SW_RT1*%
X115358660Y-82536132D02*
X115358660Y-90536132D01*
X115358660Y-90536132D02*
X123358660Y-90536132D01*
X123358660Y-82536132D02*
X115358660Y-82536132D01*
X123358660Y-90536132D02*
X123358660Y-82536132D01*
D11*
%TO.C,C3*%
X96258748Y-73433000D02*
X96781252Y-73433000D01*
X96258748Y-74903000D02*
X96781252Y-74903000D01*
%TO.C,R7*%
X96757258Y-49642500D02*
X96282742Y-49642500D01*
X96757258Y-50687500D02*
X96282742Y-50687500D01*
%TO.C,C16*%
X73519420Y-71245000D02*
X73800580Y-71245000D01*
X73519420Y-72265000D02*
X73800580Y-72265000D01*
%TO.C,R17*%
X123427258Y-68057500D02*
X122952742Y-68057500D01*
X123427258Y-69102500D02*
X122952742Y-69102500D01*
D10*
%TO.C,SW_LT1*%
X89993000Y-82614000D02*
X89993000Y-90614000D01*
X89993000Y-90614000D02*
X97993000Y-90614000D01*
X97993000Y-82614000D02*
X89993000Y-82614000D01*
X97993000Y-90614000D02*
X97993000Y-82614000D01*
D11*
%TO.C,R16*%
X138192742Y-69962500D02*
X138667258Y-69962500D01*
X138192742Y-71007500D02*
X138667258Y-71007500D01*
%TO.C,R15*%
X133112742Y-69962500D02*
X133587258Y-69962500D01*
X133112742Y-71007500D02*
X133587258Y-71007500D01*
%TO.C,C13*%
X128129420Y-66165000D02*
X128410580Y-66165000D01*
X128129420Y-67185000D02*
X128410580Y-67185000D01*
%TO.C,R20*%
X138667258Y-68057500D02*
X138192742Y-68057500D01*
X138667258Y-69102500D02*
X138192742Y-69102500D01*
%TO.C,R31*%
X106442742Y-43292500D02*
X106917258Y-43292500D01*
X106442742Y-44337500D02*
X106917258Y-44337500D01*
%TO.C,R9*%
X108822258Y-54722500D02*
X108347742Y-54722500D01*
X108822258Y-55767500D02*
X108347742Y-55767500D01*
%TO.C,C18*%
X83679420Y-71245000D02*
X83960580Y-71245000D01*
X83679420Y-72265000D02*
X83960580Y-72265000D01*
%TO.C,R12*%
X115967742Y-49642500D02*
X116442258Y-49642500D01*
X115967742Y-50687500D02*
X116442258Y-50687500D01*
%TO.C,R8*%
X96757258Y-51547500D02*
X96282742Y-51547500D01*
X96757258Y-52592500D02*
X96282742Y-52592500D01*
%TO.C,R14*%
X128032742Y-69962500D02*
X128507258Y-69962500D01*
X128032742Y-71007500D02*
X128507258Y-71007500D01*
%TD*%
%LPC*%
%TO.C,SW_RB1*%
X127022660Y-37072132D02*
X118894660Y-37072132D01*
X118894660Y-45200132D01*
X127022660Y-45200132D01*
X127022660Y-37072132D01*
G36*
X127022660Y-37072132D02*
G01*
X118894660Y-37072132D01*
X118894660Y-45200132D01*
X127022660Y-45200132D01*
X127022660Y-37072132D01*
G37*
%TO.C,SW_LB1*%
X94272660Y-37122132D02*
X86144660Y-37122132D01*
X86144660Y-45250132D01*
X94272660Y-45250132D01*
X94272660Y-37122132D01*
G36*
X94272660Y-37122132D02*
G01*
X86144660Y-37122132D01*
X86144660Y-45250132D01*
X94272660Y-45250132D01*
X94272660Y-37122132D01*
G37*
%TO.C,SW_RT1*%
X123422660Y-82472132D02*
X115294660Y-82472132D01*
X115294660Y-90600132D01*
X123422660Y-90600132D01*
X123422660Y-82472132D01*
G36*
X123422660Y-82472132D02*
G01*
X115294660Y-82472132D01*
X115294660Y-90600132D01*
X123422660Y-90600132D01*
X123422660Y-82472132D01*
G37*
%TO.C,SW_LT1*%
X98057000Y-82550000D02*
X89929000Y-82550000D01*
X89929000Y-90678000D01*
X98057000Y-90678000D01*
X98057000Y-82550000D01*
G36*
X98057000Y-82550000D02*
G01*
X89929000Y-82550000D01*
X89929000Y-90678000D01*
X98057000Y-90678000D01*
X98057000Y-82550000D01*
G37*
%TD*%
D12*
%TO.C,SW2*%
X134962260Y-96924732D03*
D13*
X133362260Y-92202732D03*
D12*
X128459860Y-96924732D03*
X128459860Y-92352732D03*
X140499460Y-84046932D03*
X140499460Y-86586932D03*
X140499460Y-89126932D03*
X129018660Y-77900132D03*
X131558660Y-77900132D03*
X134098660Y-77900132D03*
D14*
X138061060Y-81506932D03*
X138061060Y-91641532D03*
X125361060Y-91641532D03*
X125361060Y-81506932D03*
%TD*%
D15*
%TO.C,H5*%
X62738000Y-78994000D03*
%TD*%
D16*
%TO.C,H4*%
X152400000Y-97790000D03*
%TD*%
%TO.C,H2*%
X140708660Y-56136132D03*
%TD*%
%TO.C,H3*%
X63500000Y-41910000D03*
%TD*%
D12*
%TO.C,SW1*%
X83047260Y-52732532D03*
D17*
X78325260Y-54332532D03*
D12*
X83047260Y-59234932D03*
X78475260Y-59234932D03*
X70169460Y-47195332D03*
X72709460Y-47195332D03*
X75249460Y-47195332D03*
X64022660Y-58676132D03*
X64022660Y-56136132D03*
X64022660Y-53596132D03*
D18*
X67629460Y-49633732D03*
X77764060Y-49633732D03*
X77764060Y-62333732D03*
X67629460Y-62333732D03*
%TD*%
D16*
%TO.C,H1*%
X81788000Y-86614000D03*
%TD*%
D15*
%TO.C,H6*%
X148358660Y-37086132D03*
%TD*%
D19*
%TO.C,R21*%
X72835000Y-75565000D03*
X74485000Y-75565000D03*
%TD*%
D20*
%TO.C,R27*%
X84645000Y-73660000D03*
X82995000Y-73660000D03*
%TD*%
%TO.C,R25*%
X74485000Y-73660000D03*
X72835000Y-73660000D03*
%TD*%
%TO.C,R28*%
X89725000Y-73660000D03*
X88075000Y-73660000D03*
%TD*%
D21*
%TO.C,J1*%
X112395000Y-69260000D03*
X112395000Y-65360000D03*
X111125000Y-69260000D03*
X111125000Y-65360000D03*
X109855000Y-69260000D03*
X109855000Y-65360000D03*
X108585000Y-69260000D03*
X108585000Y-65360000D03*
X107315000Y-69260000D03*
X107315000Y-65360000D03*
X106045000Y-69260000D03*
X106045000Y-65360000D03*
X104775000Y-69260000D03*
X104775000Y-65360000D03*
X103505000Y-69260000D03*
X103505000Y-65360000D03*
X102235000Y-69260000D03*
X102235000Y-65360000D03*
X100965000Y-69260000D03*
X100965000Y-65360000D03*
%TD*%
D19*
%TO.C,R22*%
X77915000Y-75565000D03*
X79565000Y-75565000D03*
%TD*%
D22*
%TO.C,C12*%
X122415000Y-66675000D03*
X123965000Y-66675000D03*
%TD*%
D19*
%TO.C,R24*%
X88075000Y-75565000D03*
X89725000Y-75565000D03*
%TD*%
D22*
%TO.C,C15*%
X137655000Y-66675000D03*
X139205000Y-66675000D03*
%TD*%
D20*
%TO.C,R19*%
X134175000Y-68580000D03*
X132525000Y-68580000D03*
%TD*%
D19*
%TO.C,R13*%
X122365000Y-70485000D03*
X124015000Y-70485000D03*
%TD*%
D20*
%TO.C,R18*%
X129095000Y-68580000D03*
X127445000Y-68580000D03*
%TD*%
D22*
%TO.C,C22*%
X105905000Y-40005000D03*
X107455000Y-40005000D03*
%TD*%
D20*
%TO.C,R34*%
X107505000Y-41910000D03*
X105855000Y-41910000D03*
%TD*%
D19*
%TO.C,R23*%
X82995000Y-75565000D03*
X84645000Y-75565000D03*
%TD*%
D22*
%TO.C,C17*%
X77965000Y-71755000D03*
X79515000Y-71755000D03*
%TD*%
D19*
%TO.C,R10*%
X115380000Y-52070000D03*
X117030000Y-52070000D03*
%TD*%
D23*
%TO.C,C2*%
X116144000Y-74168000D03*
X118044000Y-74168000D03*
%TD*%
%TO.C,C1*%
X113985000Y-60325000D03*
X115885000Y-60325000D03*
%TD*%
D20*
%TO.C,R26*%
X79565000Y-73660000D03*
X77915000Y-73660000D03*
%TD*%
D22*
%TO.C,C19*%
X88125000Y-71755000D03*
X89675000Y-71755000D03*
%TD*%
%TO.C,C14*%
X132575000Y-66675000D03*
X134125000Y-66675000D03*
%TD*%
D20*
%TO.C,R6*%
X105600000Y-55245000D03*
X103950000Y-55245000D03*
%TD*%
D23*
%TO.C,C3*%
X95570000Y-74168000D03*
X97470000Y-74168000D03*
%TD*%
D20*
%TO.C,R7*%
X97345000Y-50165000D03*
X95695000Y-50165000D03*
%TD*%
D22*
%TO.C,C16*%
X72885000Y-71755000D03*
X74435000Y-71755000D03*
%TD*%
D20*
%TO.C,R17*%
X124015000Y-68580000D03*
X122365000Y-68580000D03*
%TD*%
D19*
%TO.C,R16*%
X137605000Y-70485000D03*
X139255000Y-70485000D03*
%TD*%
%TO.C,R15*%
X132525000Y-70485000D03*
X134175000Y-70485000D03*
%TD*%
D22*
%TO.C,C13*%
X127495000Y-66675000D03*
X129045000Y-66675000D03*
%TD*%
D20*
%TO.C,R20*%
X139255000Y-68580000D03*
X137605000Y-68580000D03*
%TD*%
D19*
%TO.C,R31*%
X105855000Y-43815000D03*
X107505000Y-43815000D03*
%TD*%
D20*
%TO.C,R9*%
X109410000Y-55245000D03*
X107760000Y-55245000D03*
%TD*%
D22*
%TO.C,C18*%
X83045000Y-71755000D03*
X84595000Y-71755000D03*
%TD*%
D19*
%TO.C,R12*%
X115380000Y-50165000D03*
X117030000Y-50165000D03*
%TD*%
D20*
%TO.C,R8*%
X97345000Y-52070000D03*
X95695000Y-52070000D03*
%TD*%
D19*
%TO.C,R14*%
X127445000Y-70485000D03*
X129095000Y-70485000D03*
%TD*%
%LPD*%
M02*
