%TF.GenerationSoftware,KiCad,Pcbnew,9.0.5*%
%TF.CreationDate,2026-02-23T17:17:39+00:00*%
%TF.ProjectId,gk-controls,676b2d63-6f6e-4747-926f-6c732e6b6963,rev?*%
%TF.SameCoordinates,Original*%
%TF.FileFunction,Drillmap*%
%TF.FilePolarity,Positive*%
%FSLAX45Y45*%
G04 Gerber Fmt 4.5, Leading zero omitted, Abs format (unit mm)*
G04 Created by KiCad (PCBNEW 9.0.5) date 2026-02-23 17:17:39*
%MOMM*%
%LPD*%
G01*
G04 APERTURE LIST*
%ADD10C,0.050000*%
%ADD11C,0.200000*%
%ADD12C,0.320000*%
G04 APERTURE END LIST*
D10*
X8967500Y-12720000D02*
X8967500Y-6000000D01*
X8967500Y-6000000D02*
X21032500Y-6000000D01*
X21032500Y-12720000D02*
G75*
G02*
X20532500Y-13220000I-500000J0D01*
G01*
X20532500Y-13220000D02*
X9467500Y-13220000D01*
X21032500Y-6000000D02*
X21032500Y-12720000D01*
X9467500Y-13220000D02*
G75*
G02*
X8967500Y-12720000I0J500000D01*
G01*
D11*
D12*
X9507500Y-8107000D02*
X9827500Y-8427000D01*
X9827500Y-8107000D02*
X9507500Y-8427000D01*
X9507500Y-12352000D02*
X9827500Y-12672000D01*
X9827500Y-12352000D02*
X9507500Y-12672000D01*
X9512500Y-6987000D02*
X9832500Y-7307000D01*
X9832500Y-6987000D02*
X9512500Y-7307000D01*
X12347500Y-11152000D02*
X12667500Y-11472000D01*
X12667500Y-11152000D02*
X12347500Y-11472000D01*
X17497500Y-6982000D02*
X17817500Y-7302000D01*
X17817500Y-6982000D02*
X17497500Y-7302000D01*
X18642500Y-8107000D02*
X18962500Y-8427000D01*
X18962500Y-8107000D02*
X18642500Y-8427000D01*
X20167500Y-12352000D02*
X20487500Y-12672000D01*
X20487500Y-12352000D02*
X20167500Y-12672000D01*
D11*
X9225777Y-13533984D02*
X9225777Y-13333984D01*
X9225777Y-13333984D02*
X9273396Y-13333984D01*
X9273396Y-13333984D02*
X9301967Y-13343508D01*
X9301967Y-13343508D02*
X9321015Y-13362555D01*
X9321015Y-13362555D02*
X9330539Y-13381603D01*
X9330539Y-13381603D02*
X9340063Y-13419698D01*
X9340063Y-13419698D02*
X9340063Y-13448269D01*
X9340063Y-13448269D02*
X9330539Y-13486365D01*
X9330539Y-13486365D02*
X9321015Y-13505412D01*
X9321015Y-13505412D02*
X9301967Y-13524460D01*
X9301967Y-13524460D02*
X9273396Y-13533984D01*
X9273396Y-13533984D02*
X9225777Y-13533984D01*
X9425777Y-13533984D02*
X9425777Y-13400650D01*
X9425777Y-13438746D02*
X9435301Y-13419698D01*
X9435301Y-13419698D02*
X9444824Y-13410174D01*
X9444824Y-13410174D02*
X9463872Y-13400650D01*
X9463872Y-13400650D02*
X9482920Y-13400650D01*
X9549586Y-13533984D02*
X9549586Y-13400650D01*
X9549586Y-13333984D02*
X9540063Y-13343508D01*
X9540063Y-13343508D02*
X9549586Y-13353031D01*
X9549586Y-13353031D02*
X9559110Y-13343508D01*
X9559110Y-13343508D02*
X9549586Y-13333984D01*
X9549586Y-13333984D02*
X9549586Y-13353031D01*
X9673396Y-13533984D02*
X9654348Y-13524460D01*
X9654348Y-13524460D02*
X9644824Y-13505412D01*
X9644824Y-13505412D02*
X9644824Y-13333984D01*
X9778158Y-13533984D02*
X9759110Y-13524460D01*
X9759110Y-13524460D02*
X9749586Y-13505412D01*
X9749586Y-13505412D02*
X9749586Y-13333984D01*
X10006729Y-13533984D02*
X10006729Y-13333984D01*
X10006729Y-13333984D02*
X10073396Y-13476841D01*
X10073396Y-13476841D02*
X10140063Y-13333984D01*
X10140063Y-13333984D02*
X10140063Y-13533984D01*
X10321015Y-13533984D02*
X10321015Y-13429222D01*
X10321015Y-13429222D02*
X10311491Y-13410174D01*
X10311491Y-13410174D02*
X10292444Y-13400650D01*
X10292444Y-13400650D02*
X10254348Y-13400650D01*
X10254348Y-13400650D02*
X10235301Y-13410174D01*
X10321015Y-13524460D02*
X10301967Y-13533984D01*
X10301967Y-13533984D02*
X10254348Y-13533984D01*
X10254348Y-13533984D02*
X10235301Y-13524460D01*
X10235301Y-13524460D02*
X10225777Y-13505412D01*
X10225777Y-13505412D02*
X10225777Y-13486365D01*
X10225777Y-13486365D02*
X10235301Y-13467317D01*
X10235301Y-13467317D02*
X10254348Y-13457793D01*
X10254348Y-13457793D02*
X10301967Y-13457793D01*
X10301967Y-13457793D02*
X10321015Y-13448269D01*
X10416253Y-13400650D02*
X10416253Y-13600650D01*
X10416253Y-13410174D02*
X10435301Y-13400650D01*
X10435301Y-13400650D02*
X10473396Y-13400650D01*
X10473396Y-13400650D02*
X10492444Y-13410174D01*
X10492444Y-13410174D02*
X10501967Y-13419698D01*
X10501967Y-13419698D02*
X10511491Y-13438746D01*
X10511491Y-13438746D02*
X10511491Y-13495888D01*
X10511491Y-13495888D02*
X10501967Y-13514936D01*
X10501967Y-13514936D02*
X10492444Y-13524460D01*
X10492444Y-13524460D02*
X10473396Y-13533984D01*
X10473396Y-13533984D02*
X10435301Y-13533984D01*
X10435301Y-13533984D02*
X10416253Y-13524460D01*
X10597205Y-13514936D02*
X10606729Y-13524460D01*
X10606729Y-13524460D02*
X10597205Y-13533984D01*
X10597205Y-13533984D02*
X10587682Y-13524460D01*
X10587682Y-13524460D02*
X10597205Y-13514936D01*
X10597205Y-13514936D02*
X10597205Y-13533984D01*
X10597205Y-13410174D02*
X10606729Y-13419698D01*
X10606729Y-13419698D02*
X10597205Y-13429222D01*
X10597205Y-13429222D02*
X10587682Y-13419698D01*
X10587682Y-13419698D02*
X10597205Y-13410174D01*
X10597205Y-13410174D02*
X10597205Y-13429222D01*
X8765000Y-13762500D02*
X8965000Y-13962500D01*
X8965000Y-13762500D02*
X8765000Y-13962500D01*
X9206729Y-13753984D02*
X9330539Y-13753984D01*
X9330539Y-13753984D02*
X9263872Y-13830174D01*
X9263872Y-13830174D02*
X9292444Y-13830174D01*
X9292444Y-13830174D02*
X9311491Y-13839698D01*
X9311491Y-13839698D02*
X9321015Y-13849222D01*
X9321015Y-13849222D02*
X9330539Y-13868269D01*
X9330539Y-13868269D02*
X9330539Y-13915888D01*
X9330539Y-13915888D02*
X9321015Y-13934936D01*
X9321015Y-13934936D02*
X9311491Y-13944460D01*
X9311491Y-13944460D02*
X9292444Y-13953984D01*
X9292444Y-13953984D02*
X9235301Y-13953984D01*
X9235301Y-13953984D02*
X9216253Y-13944460D01*
X9216253Y-13944460D02*
X9206729Y-13934936D01*
X9416253Y-13934936D02*
X9425777Y-13944460D01*
X9425777Y-13944460D02*
X9416253Y-13953984D01*
X9416253Y-13953984D02*
X9406729Y-13944460D01*
X9406729Y-13944460D02*
X9416253Y-13934936D01*
X9416253Y-13934936D02*
X9416253Y-13953984D01*
X9501967Y-13773031D02*
X9511491Y-13763508D01*
X9511491Y-13763508D02*
X9530539Y-13753984D01*
X9530539Y-13753984D02*
X9578158Y-13753984D01*
X9578158Y-13753984D02*
X9597205Y-13763508D01*
X9597205Y-13763508D02*
X9606729Y-13773031D01*
X9606729Y-13773031D02*
X9616253Y-13792079D01*
X9616253Y-13792079D02*
X9616253Y-13811127D01*
X9616253Y-13811127D02*
X9606729Y-13839698D01*
X9606729Y-13839698D02*
X9492444Y-13953984D01*
X9492444Y-13953984D02*
X9616253Y-13953984D01*
X9740063Y-13753984D02*
X9759110Y-13753984D01*
X9759110Y-13753984D02*
X9778158Y-13763508D01*
X9778158Y-13763508D02*
X9787682Y-13773031D01*
X9787682Y-13773031D02*
X9797205Y-13792079D01*
X9797205Y-13792079D02*
X9806729Y-13830174D01*
X9806729Y-13830174D02*
X9806729Y-13877793D01*
X9806729Y-13877793D02*
X9797205Y-13915888D01*
X9797205Y-13915888D02*
X9787682Y-13934936D01*
X9787682Y-13934936D02*
X9778158Y-13944460D01*
X9778158Y-13944460D02*
X9759110Y-13953984D01*
X9759110Y-13953984D02*
X9740063Y-13953984D01*
X9740063Y-13953984D02*
X9721015Y-13944460D01*
X9721015Y-13944460D02*
X9711491Y-13934936D01*
X9711491Y-13934936D02*
X9701967Y-13915888D01*
X9701967Y-13915888D02*
X9692444Y-13877793D01*
X9692444Y-13877793D02*
X9692444Y-13830174D01*
X9692444Y-13830174D02*
X9701967Y-13792079D01*
X9701967Y-13792079D02*
X9711491Y-13773031D01*
X9711491Y-13773031D02*
X9721015Y-13763508D01*
X9721015Y-13763508D02*
X9740063Y-13753984D01*
X9930539Y-13753984D02*
X9949586Y-13753984D01*
X9949586Y-13753984D02*
X9968634Y-13763508D01*
X9968634Y-13763508D02*
X9978158Y-13773031D01*
X9978158Y-13773031D02*
X9987682Y-13792079D01*
X9987682Y-13792079D02*
X9997205Y-13830174D01*
X9997205Y-13830174D02*
X9997205Y-13877793D01*
X9997205Y-13877793D02*
X9987682Y-13915888D01*
X9987682Y-13915888D02*
X9978158Y-13934936D01*
X9978158Y-13934936D02*
X9968634Y-13944460D01*
X9968634Y-13944460D02*
X9949586Y-13953984D01*
X9949586Y-13953984D02*
X9930539Y-13953984D01*
X9930539Y-13953984D02*
X9911491Y-13944460D01*
X9911491Y-13944460D02*
X9901967Y-13934936D01*
X9901967Y-13934936D02*
X9892444Y-13915888D01*
X9892444Y-13915888D02*
X9882920Y-13877793D01*
X9882920Y-13877793D02*
X9882920Y-13830174D01*
X9882920Y-13830174D02*
X9892444Y-13792079D01*
X9892444Y-13792079D02*
X9901967Y-13773031D01*
X9901967Y-13773031D02*
X9911491Y-13763508D01*
X9911491Y-13763508D02*
X9930539Y-13753984D01*
X10082920Y-13953984D02*
X10082920Y-13820650D01*
X10082920Y-13839698D02*
X10092444Y-13830174D01*
X10092444Y-13830174D02*
X10111491Y-13820650D01*
X10111491Y-13820650D02*
X10140063Y-13820650D01*
X10140063Y-13820650D02*
X10159110Y-13830174D01*
X10159110Y-13830174D02*
X10168634Y-13849222D01*
X10168634Y-13849222D02*
X10168634Y-13953984D01*
X10168634Y-13849222D02*
X10178158Y-13830174D01*
X10178158Y-13830174D02*
X10197205Y-13820650D01*
X10197205Y-13820650D02*
X10225777Y-13820650D01*
X10225777Y-13820650D02*
X10244825Y-13830174D01*
X10244825Y-13830174D02*
X10254348Y-13849222D01*
X10254348Y-13849222D02*
X10254348Y-13953984D01*
X10349586Y-13953984D02*
X10349586Y-13820650D01*
X10349586Y-13839698D02*
X10359110Y-13830174D01*
X10359110Y-13830174D02*
X10378158Y-13820650D01*
X10378158Y-13820650D02*
X10406729Y-13820650D01*
X10406729Y-13820650D02*
X10425777Y-13830174D01*
X10425777Y-13830174D02*
X10435301Y-13849222D01*
X10435301Y-13849222D02*
X10435301Y-13953984D01*
X10435301Y-13849222D02*
X10444825Y-13830174D01*
X10444825Y-13830174D02*
X10463872Y-13820650D01*
X10463872Y-13820650D02*
X10492444Y-13820650D01*
X10492444Y-13820650D02*
X10511491Y-13830174D01*
X10511491Y-13830174D02*
X10521015Y-13849222D01*
X10521015Y-13849222D02*
X10521015Y-13953984D01*
X10911491Y-13744460D02*
X10740063Y-14001603D01*
X11168634Y-13753984D02*
X11187682Y-13753984D01*
X11187682Y-13753984D02*
X11206729Y-13763508D01*
X11206729Y-13763508D02*
X11216253Y-13773031D01*
X11216253Y-13773031D02*
X11225777Y-13792079D01*
X11225777Y-13792079D02*
X11235301Y-13830174D01*
X11235301Y-13830174D02*
X11235301Y-13877793D01*
X11235301Y-13877793D02*
X11225777Y-13915888D01*
X11225777Y-13915888D02*
X11216253Y-13934936D01*
X11216253Y-13934936D02*
X11206729Y-13944460D01*
X11206729Y-13944460D02*
X11187682Y-13953984D01*
X11187682Y-13953984D02*
X11168634Y-13953984D01*
X11168634Y-13953984D02*
X11149587Y-13944460D01*
X11149587Y-13944460D02*
X11140063Y-13934936D01*
X11140063Y-13934936D02*
X11130539Y-13915888D01*
X11130539Y-13915888D02*
X11121015Y-13877793D01*
X11121015Y-13877793D02*
X11121015Y-13830174D01*
X11121015Y-13830174D02*
X11130539Y-13792079D01*
X11130539Y-13792079D02*
X11140063Y-13773031D01*
X11140063Y-13773031D02*
X11149587Y-13763508D01*
X11149587Y-13763508D02*
X11168634Y-13753984D01*
X11321015Y-13934936D02*
X11330539Y-13944460D01*
X11330539Y-13944460D02*
X11321015Y-13953984D01*
X11321015Y-13953984D02*
X11311491Y-13944460D01*
X11311491Y-13944460D02*
X11321015Y-13934936D01*
X11321015Y-13934936D02*
X11321015Y-13953984D01*
X11521015Y-13953984D02*
X11406729Y-13953984D01*
X11463872Y-13953984D02*
X11463872Y-13753984D01*
X11463872Y-13753984D02*
X11444825Y-13782555D01*
X11444825Y-13782555D02*
X11425777Y-13801603D01*
X11425777Y-13801603D02*
X11406729Y-13811127D01*
X11597206Y-13773031D02*
X11606729Y-13763508D01*
X11606729Y-13763508D02*
X11625777Y-13753984D01*
X11625777Y-13753984D02*
X11673396Y-13753984D01*
X11673396Y-13753984D02*
X11692444Y-13763508D01*
X11692444Y-13763508D02*
X11701967Y-13773031D01*
X11701967Y-13773031D02*
X11711491Y-13792079D01*
X11711491Y-13792079D02*
X11711491Y-13811127D01*
X11711491Y-13811127D02*
X11701967Y-13839698D01*
X11701967Y-13839698D02*
X11587682Y-13953984D01*
X11587682Y-13953984D02*
X11711491Y-13953984D01*
X11882920Y-13753984D02*
X11844825Y-13753984D01*
X11844825Y-13753984D02*
X11825777Y-13763508D01*
X11825777Y-13763508D02*
X11816253Y-13773031D01*
X11816253Y-13773031D02*
X11797206Y-13801603D01*
X11797206Y-13801603D02*
X11787682Y-13839698D01*
X11787682Y-13839698D02*
X11787682Y-13915888D01*
X11787682Y-13915888D02*
X11797206Y-13934936D01*
X11797206Y-13934936D02*
X11806729Y-13944460D01*
X11806729Y-13944460D02*
X11825777Y-13953984D01*
X11825777Y-13953984D02*
X11863872Y-13953984D01*
X11863872Y-13953984D02*
X11882920Y-13944460D01*
X11882920Y-13944460D02*
X11892444Y-13934936D01*
X11892444Y-13934936D02*
X11901967Y-13915888D01*
X11901967Y-13915888D02*
X11901967Y-13868269D01*
X11901967Y-13868269D02*
X11892444Y-13849222D01*
X11892444Y-13849222D02*
X11882920Y-13839698D01*
X11882920Y-13839698D02*
X11863872Y-13830174D01*
X11863872Y-13830174D02*
X11825777Y-13830174D01*
X11825777Y-13830174D02*
X11806729Y-13839698D01*
X11806729Y-13839698D02*
X11797206Y-13849222D01*
X11797206Y-13849222D02*
X11787682Y-13868269D01*
X12025777Y-13753984D02*
X12044825Y-13753984D01*
X12044825Y-13753984D02*
X12063872Y-13763508D01*
X12063872Y-13763508D02*
X12073396Y-13773031D01*
X12073396Y-13773031D02*
X12082920Y-13792079D01*
X12082920Y-13792079D02*
X12092444Y-13830174D01*
X12092444Y-13830174D02*
X12092444Y-13877793D01*
X12092444Y-13877793D02*
X12082920Y-13915888D01*
X12082920Y-13915888D02*
X12073396Y-13934936D01*
X12073396Y-13934936D02*
X12063872Y-13944460D01*
X12063872Y-13944460D02*
X12044825Y-13953984D01*
X12044825Y-13953984D02*
X12025777Y-13953984D01*
X12025777Y-13953984D02*
X12006729Y-13944460D01*
X12006729Y-13944460D02*
X11997206Y-13934936D01*
X11997206Y-13934936D02*
X11987682Y-13915888D01*
X11987682Y-13915888D02*
X11978158Y-13877793D01*
X11978158Y-13877793D02*
X11978158Y-13830174D01*
X11978158Y-13830174D02*
X11987682Y-13792079D01*
X11987682Y-13792079D02*
X11997206Y-13773031D01*
X11997206Y-13773031D02*
X12006729Y-13763508D01*
X12006729Y-13763508D02*
X12025777Y-13753984D01*
X12168634Y-13753984D02*
X12168634Y-13792079D01*
X12244825Y-13753984D02*
X12244825Y-13792079D01*
X12540063Y-14030174D02*
X12530539Y-14020650D01*
X12530539Y-14020650D02*
X12511491Y-13992079D01*
X12511491Y-13992079D02*
X12501968Y-13973031D01*
X12501968Y-13973031D02*
X12492444Y-13944460D01*
X12492444Y-13944460D02*
X12482920Y-13896841D01*
X12482920Y-13896841D02*
X12482920Y-13858746D01*
X12482920Y-13858746D02*
X12492444Y-13811127D01*
X12492444Y-13811127D02*
X12501968Y-13782555D01*
X12501968Y-13782555D02*
X12511491Y-13763508D01*
X12511491Y-13763508D02*
X12530539Y-13734936D01*
X12530539Y-13734936D02*
X12540063Y-13725412D01*
X12597206Y-13753984D02*
X12730539Y-13753984D01*
X12730539Y-13753984D02*
X12644825Y-13953984D01*
X12959110Y-13953984D02*
X12959110Y-13753984D01*
X13044825Y-13953984D02*
X13044825Y-13849222D01*
X13044825Y-13849222D02*
X13035301Y-13830174D01*
X13035301Y-13830174D02*
X13016253Y-13820650D01*
X13016253Y-13820650D02*
X12987682Y-13820650D01*
X12987682Y-13820650D02*
X12968634Y-13830174D01*
X12968634Y-13830174D02*
X12959110Y-13839698D01*
X13168634Y-13953984D02*
X13149587Y-13944460D01*
X13149587Y-13944460D02*
X13140063Y-13934936D01*
X13140063Y-13934936D02*
X13130539Y-13915888D01*
X13130539Y-13915888D02*
X13130539Y-13858746D01*
X13130539Y-13858746D02*
X13140063Y-13839698D01*
X13140063Y-13839698D02*
X13149587Y-13830174D01*
X13149587Y-13830174D02*
X13168634Y-13820650D01*
X13168634Y-13820650D02*
X13197206Y-13820650D01*
X13197206Y-13820650D02*
X13216253Y-13830174D01*
X13216253Y-13830174D02*
X13225777Y-13839698D01*
X13225777Y-13839698D02*
X13235301Y-13858746D01*
X13235301Y-13858746D02*
X13235301Y-13915888D01*
X13235301Y-13915888D02*
X13225777Y-13934936D01*
X13225777Y-13934936D02*
X13216253Y-13944460D01*
X13216253Y-13944460D02*
X13197206Y-13953984D01*
X13197206Y-13953984D02*
X13168634Y-13953984D01*
X13349587Y-13953984D02*
X13330539Y-13944460D01*
X13330539Y-13944460D02*
X13321015Y-13925412D01*
X13321015Y-13925412D02*
X13321015Y-13753984D01*
X13501968Y-13944460D02*
X13482920Y-13953984D01*
X13482920Y-13953984D02*
X13444825Y-13953984D01*
X13444825Y-13953984D02*
X13425777Y-13944460D01*
X13425777Y-13944460D02*
X13416253Y-13925412D01*
X13416253Y-13925412D02*
X13416253Y-13849222D01*
X13416253Y-13849222D02*
X13425777Y-13830174D01*
X13425777Y-13830174D02*
X13444825Y-13820650D01*
X13444825Y-13820650D02*
X13482920Y-13820650D01*
X13482920Y-13820650D02*
X13501968Y-13830174D01*
X13501968Y-13830174D02*
X13511491Y-13849222D01*
X13511491Y-13849222D02*
X13511491Y-13868269D01*
X13511491Y-13868269D02*
X13416253Y-13887317D01*
X13587682Y-13944460D02*
X13606730Y-13953984D01*
X13606730Y-13953984D02*
X13644825Y-13953984D01*
X13644825Y-13953984D02*
X13663872Y-13944460D01*
X13663872Y-13944460D02*
X13673396Y-13925412D01*
X13673396Y-13925412D02*
X13673396Y-13915888D01*
X13673396Y-13915888D02*
X13663872Y-13896841D01*
X13663872Y-13896841D02*
X13644825Y-13887317D01*
X13644825Y-13887317D02*
X13616253Y-13887317D01*
X13616253Y-13887317D02*
X13597206Y-13877793D01*
X13597206Y-13877793D02*
X13587682Y-13858746D01*
X13587682Y-13858746D02*
X13587682Y-13849222D01*
X13587682Y-13849222D02*
X13597206Y-13830174D01*
X13597206Y-13830174D02*
X13616253Y-13820650D01*
X13616253Y-13820650D02*
X13644825Y-13820650D01*
X13644825Y-13820650D02*
X13663872Y-13830174D01*
X13740063Y-14030174D02*
X13749587Y-14020650D01*
X13749587Y-14020650D02*
X13768634Y-13992079D01*
X13768634Y-13992079D02*
X13778158Y-13973031D01*
X13778158Y-13973031D02*
X13787682Y-13944460D01*
X13787682Y-13944460D02*
X13797206Y-13896841D01*
X13797206Y-13896841D02*
X13797206Y-13858746D01*
X13797206Y-13858746D02*
X13787682Y-13811127D01*
X13787682Y-13811127D02*
X13778158Y-13782555D01*
X13778158Y-13782555D02*
X13768634Y-13763508D01*
X13768634Y-13763508D02*
X13749587Y-13734936D01*
X13749587Y-13734936D02*
X13740063Y-13725412D01*
X14101968Y-14030174D02*
X14092444Y-14020650D01*
X14092444Y-14020650D02*
X14073396Y-13992079D01*
X14073396Y-13992079D02*
X14063872Y-13973031D01*
X14063872Y-13973031D02*
X14054349Y-13944460D01*
X14054349Y-13944460D02*
X14044825Y-13896841D01*
X14044825Y-13896841D02*
X14044825Y-13858746D01*
X14044825Y-13858746D02*
X14054349Y-13811127D01*
X14054349Y-13811127D02*
X14063872Y-13782555D01*
X14063872Y-13782555D02*
X14073396Y-13763508D01*
X14073396Y-13763508D02*
X14092444Y-13734936D01*
X14092444Y-13734936D02*
X14101968Y-13725412D01*
X14178158Y-13820650D02*
X14178158Y-13953984D01*
X14178158Y-13839698D02*
X14187682Y-13830174D01*
X14187682Y-13830174D02*
X14206730Y-13820650D01*
X14206730Y-13820650D02*
X14235301Y-13820650D01*
X14235301Y-13820650D02*
X14254349Y-13830174D01*
X14254349Y-13830174D02*
X14263872Y-13849222D01*
X14263872Y-13849222D02*
X14263872Y-13953984D01*
X14387682Y-13953984D02*
X14368634Y-13944460D01*
X14368634Y-13944460D02*
X14359111Y-13934936D01*
X14359111Y-13934936D02*
X14349587Y-13915888D01*
X14349587Y-13915888D02*
X14349587Y-13858746D01*
X14349587Y-13858746D02*
X14359111Y-13839698D01*
X14359111Y-13839698D02*
X14368634Y-13830174D01*
X14368634Y-13830174D02*
X14387682Y-13820650D01*
X14387682Y-13820650D02*
X14416253Y-13820650D01*
X14416253Y-13820650D02*
X14435301Y-13830174D01*
X14435301Y-13830174D02*
X14444825Y-13839698D01*
X14444825Y-13839698D02*
X14454349Y-13858746D01*
X14454349Y-13858746D02*
X14454349Y-13915888D01*
X14454349Y-13915888D02*
X14444825Y-13934936D01*
X14444825Y-13934936D02*
X14435301Y-13944460D01*
X14435301Y-13944460D02*
X14416253Y-13953984D01*
X14416253Y-13953984D02*
X14387682Y-13953984D01*
X14511492Y-13820650D02*
X14587682Y-13820650D01*
X14540063Y-13753984D02*
X14540063Y-13925412D01*
X14540063Y-13925412D02*
X14549587Y-13944460D01*
X14549587Y-13944460D02*
X14568634Y-13953984D01*
X14568634Y-13953984D02*
X14587682Y-13953984D01*
X14806730Y-13820650D02*
X14806730Y-14020650D01*
X14806730Y-13830174D02*
X14825777Y-13820650D01*
X14825777Y-13820650D02*
X14863873Y-13820650D01*
X14863873Y-13820650D02*
X14882920Y-13830174D01*
X14882920Y-13830174D02*
X14892444Y-13839698D01*
X14892444Y-13839698D02*
X14901968Y-13858746D01*
X14901968Y-13858746D02*
X14901968Y-13915888D01*
X14901968Y-13915888D02*
X14892444Y-13934936D01*
X14892444Y-13934936D02*
X14882920Y-13944460D01*
X14882920Y-13944460D02*
X14863873Y-13953984D01*
X14863873Y-13953984D02*
X14825777Y-13953984D01*
X14825777Y-13953984D02*
X14806730Y-13944460D01*
X15016253Y-13953984D02*
X14997206Y-13944460D01*
X14997206Y-13944460D02*
X14987682Y-13925412D01*
X14987682Y-13925412D02*
X14987682Y-13753984D01*
X15178158Y-13953984D02*
X15178158Y-13849222D01*
X15178158Y-13849222D02*
X15168634Y-13830174D01*
X15168634Y-13830174D02*
X15149587Y-13820650D01*
X15149587Y-13820650D02*
X15111492Y-13820650D01*
X15111492Y-13820650D02*
X15092444Y-13830174D01*
X15178158Y-13944460D02*
X15159111Y-13953984D01*
X15159111Y-13953984D02*
X15111492Y-13953984D01*
X15111492Y-13953984D02*
X15092444Y-13944460D01*
X15092444Y-13944460D02*
X15082920Y-13925412D01*
X15082920Y-13925412D02*
X15082920Y-13906365D01*
X15082920Y-13906365D02*
X15092444Y-13887317D01*
X15092444Y-13887317D02*
X15111492Y-13877793D01*
X15111492Y-13877793D02*
X15159111Y-13877793D01*
X15159111Y-13877793D02*
X15178158Y-13868269D01*
X15244825Y-13820650D02*
X15321015Y-13820650D01*
X15273396Y-13753984D02*
X15273396Y-13925412D01*
X15273396Y-13925412D02*
X15282920Y-13944460D01*
X15282920Y-13944460D02*
X15301968Y-13953984D01*
X15301968Y-13953984D02*
X15321015Y-13953984D01*
X15463873Y-13944460D02*
X15444825Y-13953984D01*
X15444825Y-13953984D02*
X15406730Y-13953984D01*
X15406730Y-13953984D02*
X15387682Y-13944460D01*
X15387682Y-13944460D02*
X15378158Y-13925412D01*
X15378158Y-13925412D02*
X15378158Y-13849222D01*
X15378158Y-13849222D02*
X15387682Y-13830174D01*
X15387682Y-13830174D02*
X15406730Y-13820650D01*
X15406730Y-13820650D02*
X15444825Y-13820650D01*
X15444825Y-13820650D02*
X15463873Y-13830174D01*
X15463873Y-13830174D02*
X15473396Y-13849222D01*
X15473396Y-13849222D02*
X15473396Y-13868269D01*
X15473396Y-13868269D02*
X15378158Y-13887317D01*
X15644825Y-13953984D02*
X15644825Y-13753984D01*
X15644825Y-13944460D02*
X15625777Y-13953984D01*
X15625777Y-13953984D02*
X15587682Y-13953984D01*
X15587682Y-13953984D02*
X15568634Y-13944460D01*
X15568634Y-13944460D02*
X15559111Y-13934936D01*
X15559111Y-13934936D02*
X15549587Y-13915888D01*
X15549587Y-13915888D02*
X15549587Y-13858746D01*
X15549587Y-13858746D02*
X15559111Y-13839698D01*
X15559111Y-13839698D02*
X15568634Y-13830174D01*
X15568634Y-13830174D02*
X15587682Y-13820650D01*
X15587682Y-13820650D02*
X15625777Y-13820650D01*
X15625777Y-13820650D02*
X15644825Y-13830174D01*
X15721015Y-14030174D02*
X15730539Y-14020650D01*
X15730539Y-14020650D02*
X15749587Y-13992079D01*
X15749587Y-13992079D02*
X15759111Y-13973031D01*
X15759111Y-13973031D02*
X15768634Y-13944460D01*
X15768634Y-13944460D02*
X15778158Y-13896841D01*
X15778158Y-13896841D02*
X15778158Y-13858746D01*
X15778158Y-13858746D02*
X15768634Y-13811127D01*
X15768634Y-13811127D02*
X15759111Y-13782555D01*
X15759111Y-13782555D02*
X15749587Y-13763508D01*
X15749587Y-13763508D02*
X15730539Y-13734936D01*
X15730539Y-13734936D02*
X15721015Y-13725412D01*
M02*
