%TF.GenerationSoftware,KiCad,Pcbnew,9.0.5*%
%TF.CreationDate,2026-03-10T20:02:44+00:00*%
%TF.ProjectId,gk-controls-trigger,676b2d63-6f6e-4747-926f-6c732d747269,rev?*%
%TF.SameCoordinates,Original*%
%TF.FileFunction,Drillmap*%
%TF.FilePolarity,Positive*%
%FSLAX45Y45*%
G04 Gerber Fmt 4.5, Leading zero omitted, Abs format (unit mm)*
G04 Created by KiCad (PCBNEW 9.0.5) date 2026-03-10 20:02:44*
%MOMM*%
%LPD*%
G01*
G04 APERTURE LIST*
%ADD10C,0.100000*%
%ADD11C,0.200000*%
G04 APERTURE END LIST*
D10*
X5822000Y-5537000D02*
X11820000Y-5537000D01*
X11820000Y-9360000D01*
X5822000Y-9360000D01*
X5822000Y-5537000D01*
D11*
X6077777Y-9676484D02*
X6077777Y-9476484D01*
X6077777Y-9476484D02*
X6125396Y-9476484D01*
X6125396Y-9476484D02*
X6153967Y-9486008D01*
X6153967Y-9486008D02*
X6173015Y-9505055D01*
X6173015Y-9505055D02*
X6182539Y-9524103D01*
X6182539Y-9524103D02*
X6192062Y-9562198D01*
X6192062Y-9562198D02*
X6192062Y-9590770D01*
X6192062Y-9590770D02*
X6182539Y-9628865D01*
X6182539Y-9628865D02*
X6173015Y-9647912D01*
X6173015Y-9647912D02*
X6153967Y-9666960D01*
X6153967Y-9666960D02*
X6125396Y-9676484D01*
X6125396Y-9676484D02*
X6077777Y-9676484D01*
X6277777Y-9676484D02*
X6277777Y-9543150D01*
X6277777Y-9581246D02*
X6287301Y-9562198D01*
X6287301Y-9562198D02*
X6296824Y-9552674D01*
X6296824Y-9552674D02*
X6315872Y-9543150D01*
X6315872Y-9543150D02*
X6334920Y-9543150D01*
X6401586Y-9676484D02*
X6401586Y-9543150D01*
X6401586Y-9476484D02*
X6392062Y-9486008D01*
X6392062Y-9486008D02*
X6401586Y-9495531D01*
X6401586Y-9495531D02*
X6411110Y-9486008D01*
X6411110Y-9486008D02*
X6401586Y-9476484D01*
X6401586Y-9476484D02*
X6401586Y-9495531D01*
X6525396Y-9676484D02*
X6506348Y-9666960D01*
X6506348Y-9666960D02*
X6496824Y-9647912D01*
X6496824Y-9647912D02*
X6496824Y-9476484D01*
X6630158Y-9676484D02*
X6611110Y-9666960D01*
X6611110Y-9666960D02*
X6601586Y-9647912D01*
X6601586Y-9647912D02*
X6601586Y-9476484D01*
X6858729Y-9676484D02*
X6858729Y-9476484D01*
X6858729Y-9476484D02*
X6925396Y-9619341D01*
X6925396Y-9619341D02*
X6992062Y-9476484D01*
X6992062Y-9476484D02*
X6992062Y-9676484D01*
X7173015Y-9676484D02*
X7173015Y-9571722D01*
X7173015Y-9571722D02*
X7163491Y-9552674D01*
X7163491Y-9552674D02*
X7144443Y-9543150D01*
X7144443Y-9543150D02*
X7106348Y-9543150D01*
X7106348Y-9543150D02*
X7087301Y-9552674D01*
X7173015Y-9666960D02*
X7153967Y-9676484D01*
X7153967Y-9676484D02*
X7106348Y-9676484D01*
X7106348Y-9676484D02*
X7087301Y-9666960D01*
X7087301Y-9666960D02*
X7077777Y-9647912D01*
X7077777Y-9647912D02*
X7077777Y-9628865D01*
X7077777Y-9628865D02*
X7087301Y-9609817D01*
X7087301Y-9609817D02*
X7106348Y-9600293D01*
X7106348Y-9600293D02*
X7153967Y-9600293D01*
X7153967Y-9600293D02*
X7173015Y-9590770D01*
X7268253Y-9543150D02*
X7268253Y-9743150D01*
X7268253Y-9552674D02*
X7287301Y-9543150D01*
X7287301Y-9543150D02*
X7325396Y-9543150D01*
X7325396Y-9543150D02*
X7344443Y-9552674D01*
X7344443Y-9552674D02*
X7353967Y-9562198D01*
X7353967Y-9562198D02*
X7363491Y-9581246D01*
X7363491Y-9581246D02*
X7363491Y-9638389D01*
X7363491Y-9638389D02*
X7353967Y-9657436D01*
X7353967Y-9657436D02*
X7344443Y-9666960D01*
X7344443Y-9666960D02*
X7325396Y-9676484D01*
X7325396Y-9676484D02*
X7287301Y-9676484D01*
X7287301Y-9676484D02*
X7268253Y-9666960D01*
X7449205Y-9657436D02*
X7458729Y-9666960D01*
X7458729Y-9666960D02*
X7449205Y-9676484D01*
X7449205Y-9676484D02*
X7439682Y-9666960D01*
X7439682Y-9666960D02*
X7449205Y-9657436D01*
X7449205Y-9657436D02*
X7449205Y-9676484D01*
X7449205Y-9552674D02*
X7458729Y-9562198D01*
X7458729Y-9562198D02*
X7449205Y-9571722D01*
X7449205Y-9571722D02*
X7439682Y-9562198D01*
X7439682Y-9562198D02*
X7449205Y-9552674D01*
X7449205Y-9552674D02*
X7449205Y-9571722D01*
M02*
