%TF.GenerationSoftware,KiCad,Pcbnew,10.0.5*%
%TF.CreationDate,2026-09-14T16:50:05+01:00*%
%TF.ProjectId,gk-controls-trigger,676b2d63-6f6e-4747-926f-6c732d747269,rev?*%
%TF.SameCoordinates,Original*%
%TF.FileFunction,Copper,L2,Bot*%
%TF.FilePolarity,Positive*%
%FSLAX46Y46*%
G04 Gerber Fmt 4.6, Leading zero omitted, Abs format (unit mm)*
G04 Created by KiCad (PCBNEW 10.0.5) date 2026-09-14 16:50:05*
%MOMM*%
%LPD*%
G01*
G04 APERTURE LIST*
%TA.AperFunction,ComponentPad*%
%ADD10C,1.440000*%
%TD*%
%TA.AperFunction,SMDPad,CuDef*%
%ADD11R,0.675000X7.000000*%
%TD*%
%TA.AperFunction,SMDPad,CuDef*%
%ADD12R,0.250000X6.100000*%
%TD*%
%TA.AperFunction,SMDPad,CuDef*%
%ADD13R,3.492000X0.500000*%
%TD*%
%TA.AperFunction,SMDPad,CuDef*%
%ADD14R,8.000000X0.500000*%
%TD*%
%TA.AperFunction,SMDPad,CuDef*%
%ADD15R,0.400000X6.500000*%
%TD*%
%TA.AperFunction,SMDPad,CuDef*%
%ADD16R,0.400000X1.140000*%
%TD*%
%TA.AperFunction,SMDPad,CuDef*%
%ADD17R,6.150000X0.400000*%
%TD*%
%TA.AperFunction,ViaPad*%
%ADD18C,0.800000*%
%TD*%
%TA.AperFunction,ViaPad*%
%ADD19C,0.600000*%
%TD*%
%TA.AperFunction,Conductor*%
%ADD20C,0.254000*%
%TD*%
G04 APERTURE END LIST*
D10*
%TO.P,RV3,1,1_1*%
%TO.N,unconnected-(RV3-Pad1)*%
X85847287Y-125789543D03*
%TO.P,RV3,2,2_2*%
%TO.N,unconnected-(RV3-Pad2)*%
X87958672Y-122883471D03*
%TO.P,RV3,3,3_3*%
%TO.N,unconnected-(RV3-Pad3)*%
X85052600Y-120772086D03*
%TD*%
%TO.P,RV4,1,1_1*%
%TO.N,Net-(R2-Pad2)*%
X104287687Y-122843143D03*
%TO.P,RV4,2,2_2*%
%TO.N,RT_ANA*%
X106399072Y-119937071D03*
%TO.P,RV4,3,3_3*%
%TO.N,GND*%
X103493000Y-117825686D03*
%TD*%
%TO.P,RV2,1,1_1*%
%TO.N,unconnected-(RV2-Pad1)*%
X81673000Y-120772086D03*
%TO.P,RV2,2,2_2*%
%TO.N,unconnected-(RV2-Pad2)*%
X78766928Y-122883471D03*
%TO.P,RV2,3,3_3*%
%TO.N,unconnected-(RV2-Pad3)*%
X80878313Y-125789543D03*
%TD*%
D11*
%TO.P,SW_RB1,1,1_1*%
%TO.N,GND*%
X115639907Y-127524248D03*
D12*
X117002407Y-127974249D03*
D13*
X117048407Y-123774248D03*
D12*
X118152407Y-127974249D03*
X119302407Y-127974249D03*
D14*
X119302407Y-131274248D03*
D12*
X120452407Y-127974249D03*
D13*
X121556407Y-123774248D03*
D12*
X121602407Y-127974249D03*
D11*
X122964907Y-127524248D03*
D15*
%TO.P,SW_RB1,2,2_2*%
%TO.N,Net-(J6-Pin_3)*%
X116427407Y-127524248D03*
X117577407Y-127524248D03*
X118727407Y-127524248D03*
D16*
X119302407Y-124069248D03*
D17*
X119302407Y-124474248D03*
D15*
X119877407Y-127524248D03*
X121027407Y-127524248D03*
X122177407Y-127524248D03*
%TD*%
D10*
%TO.P,RV1,1,1_1*%
%TO.N,Net-(R1-Pad2)*%
X63181801Y-117825686D03*
%TO.P,RV1,2,2_2*%
%TO.N,LT_ANA*%
X60275729Y-119937071D03*
%TO.P,RV1,3,3_3*%
%TO.N,GND*%
X62387114Y-122843143D03*
%TD*%
D11*
%TO.P,SW_LB1,1,1_1*%
%TO.N,GND*%
X43748812Y-127523565D03*
D12*
X45111312Y-127973566D03*
D13*
X45157312Y-123773565D03*
D12*
X46261312Y-127973566D03*
X47411312Y-127973566D03*
D14*
X47411312Y-131273565D03*
D12*
X48561312Y-127973566D03*
D13*
X49665312Y-123773565D03*
D12*
X49711312Y-127973566D03*
D11*
X51073812Y-127523565D03*
D15*
%TO.P,SW_LB1,2,2_2*%
%TO.N,Net-(J6-Pin_2)*%
X44536312Y-127523565D03*
X45686312Y-127523565D03*
X46836312Y-127523565D03*
D16*
X47411312Y-124068565D03*
D17*
X47411312Y-124473565D03*
D15*
X47986312Y-127523565D03*
X49136312Y-127523565D03*
X50286312Y-127523565D03*
%TD*%
D18*
%TO.N,GND*%
X106426000Y-117348000D03*
X110744000Y-118364000D03*
X96266000Y-118364000D03*
X76200000Y-118364000D03*
X58166000Y-120904000D03*
X66802000Y-118618000D03*
X50292000Y-116840000D03*
X51816000Y-122174000D03*
X48514000Y-122174000D03*
%TO.N,Net-(J6-Pin_3)*%
X110744000Y-120650000D03*
%TO.N,Net-(J6-Pin_2)*%
X50038000Y-122682000D03*
D19*
%TO.N,GND*%
X40386000Y-121666000D03*
D18*
X98806000Y-121920000D03*
X93726000Y-121920000D03*
X72898000Y-121920000D03*
X67310000Y-121920000D03*
X108458000Y-124764800D03*
X40386000Y-125222000D03*
X128270000Y-127000000D03*
X57912000Y-124815600D03*
%TD*%
%TO.N,Net-(J6-Pin_2)*%
D20*
X47498000Y-122936000D02*
X47411312Y-123022688D01*
X49276000Y-122936000D02*
X47498000Y-122936000D01*
X49530000Y-122682000D02*
X49276000Y-122936000D01*
X47411312Y-123022688D02*
X47411312Y-124068565D01*
X50038000Y-122682000D02*
X49530000Y-122682000D01*
%TO.N,Net-(J6-Pin_3)*%
X119302407Y-122858407D02*
X119302407Y-124069248D01*
X118872000Y-122428000D02*
X119302407Y-122858407D01*
X114046000Y-122428000D02*
X118872000Y-122428000D01*
X112268000Y-120650000D02*
X114046000Y-122428000D01*
X110744000Y-120650000D02*
X112268000Y-120650000D01*
%TD*%
%TA.AperFunction,Conductor*%
%TO.N,GND*%
G36*
X114758539Y-115630585D02*
G01*
X114804294Y-115683389D01*
X114815500Y-115734900D01*
X114815500Y-121176291D01*
X114849608Y-121303587D01*
X114876094Y-121349461D01*
X114915500Y-121417714D01*
X115008686Y-121510900D01*
X115076551Y-121550082D01*
X115109513Y-121569113D01*
X115157729Y-121619680D01*
X115170951Y-121688287D01*
X115144983Y-121753152D01*
X115088069Y-121793680D01*
X115047513Y-121800500D01*
X114357281Y-121800500D01*
X114290242Y-121780815D01*
X114269600Y-121764181D01*
X112668013Y-120162593D01*
X112668010Y-120162590D01*
X112622833Y-120132404D01*
X112565238Y-120093920D01*
X112565226Y-120093913D01*
X112513823Y-120072622D01*
X112513822Y-120072621D01*
X112513822Y-120072622D01*
X112451035Y-120046614D01*
X112451032Y-120046613D01*
X112451028Y-120046612D01*
X112329807Y-120022500D01*
X112329803Y-120022500D01*
X111441361Y-120022500D01*
X111374322Y-120002815D01*
X111353679Y-119986180D01*
X111318038Y-119950538D01*
X111318034Y-119950535D01*
X111170553Y-119851990D01*
X111170540Y-119851983D01*
X111006667Y-119784106D01*
X111006658Y-119784103D01*
X110832694Y-119749500D01*
X110832691Y-119749500D01*
X110655309Y-119749500D01*
X110655306Y-119749500D01*
X110481341Y-119784103D01*
X110481332Y-119784106D01*
X110317459Y-119851983D01*
X110317446Y-119851990D01*
X110169965Y-119950535D01*
X110169961Y-119950538D01*
X110044538Y-120075961D01*
X110044535Y-120075965D01*
X109945990Y-120223446D01*
X109945983Y-120223459D01*
X109878106Y-120387332D01*
X109878103Y-120387341D01*
X109843500Y-120561304D01*
X109843500Y-120738695D01*
X109878103Y-120912658D01*
X109878106Y-120912667D01*
X109945983Y-121076540D01*
X109945990Y-121076553D01*
X110044535Y-121224034D01*
X110044538Y-121224038D01*
X110169961Y-121349461D01*
X110169965Y-121349464D01*
X110317446Y-121448009D01*
X110317459Y-121448016D01*
X110440363Y-121498923D01*
X110481334Y-121515894D01*
X110481336Y-121515894D01*
X110481341Y-121515896D01*
X110655304Y-121550499D01*
X110655307Y-121550500D01*
X110655309Y-121550500D01*
X110832693Y-121550500D01*
X110832694Y-121550499D01*
X110890682Y-121538964D01*
X111006658Y-121515896D01*
X111006661Y-121515894D01*
X111006666Y-121515894D01*
X111170547Y-121448013D01*
X111318035Y-121349464D01*
X111353679Y-121313820D01*
X111415001Y-121280334D01*
X111441361Y-121277500D01*
X111956719Y-121277500D01*
X112023758Y-121297185D01*
X112044400Y-121313819D01*
X113558589Y-122828008D01*
X113626385Y-122895804D01*
X113645994Y-122915413D01*
X113645996Y-122915414D01*
X113748756Y-122984076D01*
X113748758Y-122984077D01*
X113748767Y-122984083D01*
X113782521Y-122998064D01*
X113782522Y-122998065D01*
X113782523Y-122998065D01*
X113862966Y-123031386D01*
X113984192Y-123055499D01*
X113984196Y-123055500D01*
X113984197Y-123055500D01*
X114107803Y-123055500D01*
X118550907Y-123055500D01*
X118617946Y-123075185D01*
X118663701Y-123127989D01*
X118674907Y-123179500D01*
X118674907Y-123195423D01*
X118661365Y-123248478D01*
X118661710Y-123248607D01*
X118660513Y-123251815D01*
X118659739Y-123254849D01*
X118658612Y-123256912D01*
X118608315Y-123391765D01*
X118601908Y-123451364D01*
X118601908Y-123451371D01*
X118601907Y-123451383D01*
X118601907Y-123649748D01*
X118582222Y-123716787D01*
X118529418Y-123762542D01*
X118477907Y-123773748D01*
X116179536Y-123773748D01*
X116179530Y-123773749D01*
X116119923Y-123780156D01*
X115985078Y-123830450D01*
X115985071Y-123830454D01*
X115869862Y-123916700D01*
X115869859Y-123916703D01*
X115783613Y-124031912D01*
X115783609Y-124031919D01*
X115733315Y-124166765D01*
X115726908Y-124226364D01*
X115726908Y-124226371D01*
X115726907Y-124226383D01*
X115726907Y-130822118D01*
X115726908Y-130822124D01*
X115733315Y-130881731D01*
X115783609Y-131016576D01*
X115783613Y-131016583D01*
X115869859Y-131131792D01*
X115869862Y-131131795D01*
X115985071Y-131218041D01*
X115985078Y-131218045D01*
X115993481Y-131221179D01*
X116119924Y-131268339D01*
X116179534Y-131274748D01*
X116675279Y-131274747D01*
X116734890Y-131268339D01*
X116869738Y-131218044D01*
X116928096Y-131174356D01*
X116993560Y-131149940D01*
X117061833Y-131164791D01*
X117076718Y-131174357D01*
X117135076Y-131218044D01*
X117135078Y-131218045D01*
X117143481Y-131221179D01*
X117269924Y-131268339D01*
X117329534Y-131274748D01*
X117825279Y-131274747D01*
X117884890Y-131268339D01*
X118019738Y-131218044D01*
X118078096Y-131174356D01*
X118143560Y-131149940D01*
X118211833Y-131164791D01*
X118226718Y-131174357D01*
X118285076Y-131218044D01*
X118285078Y-131218045D01*
X118293481Y-131221179D01*
X118419924Y-131268339D01*
X118479534Y-131274748D01*
X118975279Y-131274747D01*
X119034890Y-131268339D01*
X119169738Y-131218044D01*
X119228096Y-131174356D01*
X119293560Y-131149940D01*
X119361833Y-131164791D01*
X119376718Y-131174357D01*
X119435076Y-131218044D01*
X119435078Y-131218045D01*
X119443481Y-131221179D01*
X119569924Y-131268339D01*
X119629534Y-131274748D01*
X120125279Y-131274747D01*
X120184890Y-131268339D01*
X120319738Y-131218044D01*
X120378096Y-131174356D01*
X120443560Y-131149940D01*
X120511833Y-131164791D01*
X120526718Y-131174357D01*
X120585076Y-131218044D01*
X120585078Y-131218045D01*
X120593481Y-131221179D01*
X120719924Y-131268339D01*
X120779534Y-131274748D01*
X121275279Y-131274747D01*
X121334890Y-131268339D01*
X121469738Y-131218044D01*
X121528096Y-131174356D01*
X121593560Y-131149940D01*
X121661833Y-131164791D01*
X121676718Y-131174357D01*
X121735076Y-131218044D01*
X121735078Y-131218045D01*
X121743481Y-131221179D01*
X121869924Y-131268339D01*
X121929534Y-131274748D01*
X122425279Y-131274747D01*
X122484890Y-131268339D01*
X122619738Y-131218044D01*
X122734953Y-131131794D01*
X122821203Y-131016579D01*
X122871498Y-130881731D01*
X122877907Y-130822121D01*
X122877906Y-124722129D01*
X122877907Y-124722121D01*
X122877906Y-124226376D01*
X122871498Y-124166765D01*
X122871243Y-124166082D01*
X122821204Y-124031919D01*
X122821200Y-124031912D01*
X122734954Y-123916703D01*
X122734951Y-123916700D01*
X122619742Y-123830454D01*
X122619735Y-123830450D01*
X122484889Y-123780156D01*
X122484890Y-123780156D01*
X122425290Y-123773749D01*
X122425288Y-123773748D01*
X122425280Y-123773748D01*
X122425272Y-123773748D01*
X120126906Y-123773748D01*
X120059867Y-123754063D01*
X120014112Y-123701259D01*
X120002906Y-123649748D01*
X120002906Y-123451377D01*
X120002905Y-123451371D01*
X120002904Y-123451364D01*
X119996498Y-123391765D01*
X119996243Y-123391082D01*
X119946201Y-123256912D01*
X119945075Y-123254849D01*
X119944300Y-123251815D01*
X119943104Y-123248607D01*
X119943448Y-123248478D01*
X119929907Y-123195423D01*
X119929907Y-122796604D01*
X119928079Y-122787417D01*
X119928078Y-122787411D01*
X119905794Y-122675379D01*
X119905791Y-122675370D01*
X119858493Y-122561179D01*
X119858486Y-122561167D01*
X119789818Y-122458399D01*
X119789815Y-122458395D01*
X119272011Y-121940591D01*
X119272007Y-121940588D01*
X119169239Y-121871920D01*
X119169226Y-121871913D01*
X119135785Y-121858062D01*
X119135783Y-121858061D01*
X119115021Y-121849461D01*
X119060617Y-121805621D01*
X119038552Y-121739327D01*
X119055831Y-121671627D01*
X119106968Y-121624016D01*
X119162473Y-121610900D01*
X130732778Y-121610900D01*
X130799817Y-121630585D01*
X130845572Y-121683389D01*
X130856778Y-121734900D01*
X130856778Y-133049467D01*
X130837093Y-133116506D01*
X130784289Y-133162261D01*
X130732778Y-133173467D01*
X111792423Y-133173467D01*
X111725384Y-133153782D01*
X111684351Y-133110265D01*
X111337603Y-132493900D01*
X108776191Y-127940838D01*
X109600700Y-127940838D01*
X109600700Y-128192761D01*
X109640110Y-128441585D01*
X109717960Y-128681183D01*
X109832332Y-128905648D01*
X109980401Y-129109449D01*
X109980405Y-129109454D01*
X110158545Y-129287594D01*
X110158550Y-129287598D01*
X110336317Y-129416752D01*
X110362355Y-129435670D01*
X110505384Y-129508547D01*
X110586816Y-129550039D01*
X110586818Y-129550039D01*
X110586821Y-129550041D01*
X110826415Y-129627890D01*
X111075238Y-129667300D01*
X111075239Y-129667300D01*
X111327161Y-129667300D01*
X111327162Y-129667300D01*
X111575985Y-129627890D01*
X111815579Y-129550041D01*
X112040045Y-129435670D01*
X112243856Y-129287593D01*
X112421993Y-129109456D01*
X112570070Y-128905645D01*
X112684441Y-128681179D01*
X112762290Y-128441585D01*
X112801700Y-128192762D01*
X112801700Y-127940838D01*
X112762290Y-127692015D01*
X112684441Y-127452421D01*
X112684439Y-127452418D01*
X112684439Y-127452416D01*
X112634945Y-127355280D01*
X112570070Y-127227955D01*
X112518558Y-127157054D01*
X112421998Y-127024150D01*
X112421994Y-127024145D01*
X112243854Y-126846005D01*
X112243849Y-126846001D01*
X112040048Y-126697932D01*
X112040047Y-126697931D01*
X112040045Y-126697930D01*
X111969947Y-126662213D01*
X111815583Y-126583560D01*
X111575985Y-126505710D01*
X111327162Y-126466300D01*
X111075238Y-126466300D01*
X110950826Y-126486005D01*
X110826414Y-126505710D01*
X110586816Y-126583560D01*
X110362351Y-126697932D01*
X110158550Y-126846001D01*
X110158545Y-126846005D01*
X109980405Y-127024145D01*
X109980401Y-127024150D01*
X109832332Y-127227951D01*
X109717960Y-127452416D01*
X109640110Y-127692014D01*
X109600700Y-127940838D01*
X108776191Y-127940838D01*
X108013239Y-126584646D01*
X107038452Y-124851904D01*
X107032780Y-124838439D01*
X107032340Y-124838634D01*
X107029059Y-124831203D01*
X107000357Y-124784041D01*
X106998211Y-124780374D01*
X106978692Y-124745678D01*
X106971155Y-124732280D01*
X106971151Y-124732276D01*
X106966278Y-124725776D01*
X106966663Y-124725486D01*
X106966019Y-124724657D01*
X106965644Y-124724959D01*
X106960549Y-124718627D01*
X106960076Y-124718175D01*
X106920600Y-124680482D01*
X106917612Y-124677529D01*
X106879013Y-124638059D01*
X106872622Y-124633041D01*
X106872919Y-124632661D01*
X106872083Y-124632028D01*
X106871800Y-124632416D01*
X106865239Y-124627618D01*
X106816781Y-124601114D01*
X106813129Y-124599035D01*
X106765629Y-124570900D01*
X106765627Y-124570899D01*
X106765625Y-124570898D01*
X106758160Y-124567708D01*
X106758348Y-124567267D01*
X106757360Y-124566864D01*
X106757187Y-124567312D01*
X106749610Y-124564376D01*
X106695972Y-124551324D01*
X106691864Y-124550249D01*
X106638722Y-124535372D01*
X106630676Y-124534221D01*
X106630744Y-124533745D01*
X106616258Y-124531926D01*
X104941675Y-124124431D01*
X104881191Y-124089454D01*
X104849218Y-124027329D01*
X104855909Y-123957780D01*
X104899138Y-123902889D01*
X104914686Y-123893469D01*
X104927368Y-123887008D01*
X105082789Y-123774088D01*
X105218632Y-123638245D01*
X105331552Y-123482824D01*
X105418769Y-123311652D01*
X105478134Y-123128944D01*
X105508187Y-122939198D01*
X105508187Y-122747088D01*
X105478134Y-122557342D01*
X105428861Y-122405694D01*
X105418770Y-122374636D01*
X105402464Y-122342634D01*
X105331552Y-122203462D01*
X105218632Y-122048041D01*
X105082789Y-121912198D01*
X104927368Y-121799278D01*
X104858487Y-121764181D01*
X104756193Y-121712059D01*
X104573489Y-121652696D01*
X104478615Y-121637669D01*
X104383742Y-121622643D01*
X104191632Y-121622643D01*
X104128383Y-121632660D01*
X104001884Y-121652696D01*
X103819180Y-121712059D01*
X103648005Y-121799278D01*
X103592499Y-121839606D01*
X103492585Y-121912198D01*
X103492583Y-121912200D01*
X103492582Y-121912200D01*
X103356744Y-122048038D01*
X103356744Y-122048039D01*
X103356742Y-122048041D01*
X103327442Y-122088369D01*
X103243822Y-122203461D01*
X103156603Y-122374636D01*
X103097240Y-122557340D01*
X103086891Y-122622680D01*
X103067187Y-122747088D01*
X103067187Y-122939198D01*
X103070622Y-122960885D01*
X103097240Y-123128945D01*
X103156603Y-123311649D01*
X103192176Y-123381464D01*
X103243822Y-123482824D01*
X103356742Y-123638245D01*
X103356744Y-123638247D01*
X103373700Y-123655203D01*
X103407185Y-123716526D01*
X103402201Y-123786218D01*
X103360329Y-123842151D01*
X103296160Y-123866469D01*
X90347711Y-124928953D01*
X90344987Y-124929146D01*
X90289759Y-124932455D01*
X90286107Y-124932674D01*
X90286105Y-124932674D01*
X90280689Y-124933720D01*
X90280631Y-124933727D01*
X90280591Y-124933739D01*
X90275206Y-124934902D01*
X90232783Y-124950083D01*
X90219991Y-124954662D01*
X90219658Y-124954781D01*
X90217077Y-124955672D01*
X90161074Y-124974332D01*
X90156106Y-124976747D01*
X90156074Y-124976760D01*
X90156039Y-124976781D01*
X90151122Y-124979307D01*
X90102600Y-125012893D01*
X90100337Y-125014423D01*
X87148018Y-126963129D01*
X87141712Y-126967026D01*
X87100820Y-126990635D01*
X87098966Y-126992490D01*
X87079620Y-127008276D01*
X87077433Y-127009719D01*
X87046101Y-127045042D01*
X87041019Y-127050436D01*
X87007640Y-127083815D01*
X87007635Y-127083821D01*
X87006328Y-127086086D01*
X86991723Y-127106346D01*
X86989991Y-127108299D01*
X86989979Y-127108315D01*
X86968865Y-127150529D01*
X86965354Y-127157054D01*
X86945662Y-127191161D01*
X86941790Y-127197871D01*
X86941744Y-127197950D01*
X86941068Y-127200473D01*
X86932199Y-127223837D01*
X86931032Y-127226170D01*
X86931031Y-127226172D01*
X86921558Y-127272429D01*
X86919854Y-127279642D01*
X86907637Y-127325236D01*
X86907637Y-127327848D01*
X86905116Y-127352726D01*
X86904592Y-127355280D01*
X86907415Y-127402402D01*
X86907637Y-127409815D01*
X86907637Y-132369900D01*
X86887952Y-132436939D01*
X86835148Y-132482694D01*
X86783637Y-132493900D01*
X79930084Y-132493900D01*
X79863045Y-132474215D01*
X79817290Y-132421411D01*
X79806084Y-132369900D01*
X79806084Y-130480838D01*
X81609900Y-130480838D01*
X81609900Y-130732762D01*
X81623947Y-130821448D01*
X81649310Y-130981585D01*
X81727160Y-131221183D01*
X81841532Y-131445648D01*
X81989601Y-131649449D01*
X81989605Y-131649454D01*
X82167745Y-131827594D01*
X82167750Y-131827598D01*
X82345517Y-131956752D01*
X82371555Y-131975670D01*
X82514584Y-132048547D01*
X82596016Y-132090039D01*
X82596018Y-132090039D01*
X82596021Y-132090041D01*
X82835615Y-132167890D01*
X83084438Y-132207300D01*
X83084439Y-132207300D01*
X83336361Y-132207300D01*
X83336362Y-132207300D01*
X83585185Y-132167890D01*
X83824779Y-132090041D01*
X84049245Y-131975670D01*
X84253056Y-131827593D01*
X84431193Y-131649456D01*
X84579270Y-131445645D01*
X84693641Y-131221179D01*
X84771490Y-130981585D01*
X84810900Y-130732762D01*
X84810900Y-130480838D01*
X84771490Y-130232015D01*
X84693641Y-129992421D01*
X84693639Y-129992418D01*
X84693639Y-129992416D01*
X84652147Y-129910984D01*
X84579270Y-129767955D01*
X84477507Y-129627890D01*
X84431198Y-129564150D01*
X84431194Y-129564145D01*
X84253054Y-129386005D01*
X84253049Y-129386001D01*
X84049248Y-129237932D01*
X84049247Y-129237931D01*
X84049245Y-129237930D01*
X83979147Y-129202213D01*
X83824783Y-129123560D01*
X83585185Y-129045710D01*
X83336362Y-129006300D01*
X83084438Y-129006300D01*
X82960026Y-129026005D01*
X82835614Y-129045710D01*
X82596016Y-129123560D01*
X82371551Y-129237932D01*
X82167750Y-129386001D01*
X82167745Y-129386005D01*
X81989605Y-129564145D01*
X81989601Y-129564150D01*
X81841532Y-129767951D01*
X81727160Y-129992416D01*
X81649310Y-130232014D01*
X81649310Y-130232015D01*
X81609900Y-130480838D01*
X79806084Y-130480838D01*
X79806084Y-127409736D01*
X79806306Y-127402321D01*
X79809128Y-127355211D01*
X79809127Y-127355209D01*
X79808604Y-127352651D01*
X79806084Y-127327780D01*
X79806084Y-127325167D01*
X79806084Y-127325165D01*
X79793864Y-127279559D01*
X79792159Y-127272340D01*
X79782693Y-127226106D01*
X79781525Y-127223771D01*
X79772648Y-127200381D01*
X79771996Y-127197948D01*
X79771976Y-127197871D01*
X79748358Y-127156965D01*
X79744857Y-127150458D01*
X79723744Y-127108242D01*
X79722010Y-127106287D01*
X79707388Y-127086001D01*
X79706128Y-127083820D01*
X79706084Y-127083743D01*
X79706083Y-127083742D01*
X79706081Y-127083739D01*
X79672700Y-127050359D01*
X79667612Y-127044957D01*
X79636299Y-127009652D01*
X79636297Y-127009651D01*
X79634114Y-127008210D01*
X79614746Y-126992405D01*
X79612900Y-126990559D01*
X79612898Y-126990557D01*
X79594594Y-126979989D01*
X79572001Y-126966944D01*
X79565692Y-126963045D01*
X77791771Y-125792103D01*
X77642374Y-125693488D01*
X79657813Y-125693488D01*
X79657813Y-125885597D01*
X79687866Y-126075345D01*
X79747229Y-126258049D01*
X79747231Y-126258052D01*
X79834448Y-126429224D01*
X79947368Y-126584645D01*
X80083211Y-126720488D01*
X80238632Y-126833408D01*
X80409804Y-126920625D01*
X80409806Y-126920626D01*
X80501158Y-126950307D01*
X80592512Y-126979990D01*
X80782258Y-127010043D01*
X80782259Y-127010043D01*
X80974367Y-127010043D01*
X80974368Y-127010043D01*
X81164114Y-126979990D01*
X81346822Y-126920625D01*
X81517994Y-126833408D01*
X81673415Y-126720488D01*
X81809258Y-126584645D01*
X81922178Y-126429224D01*
X82009395Y-126258052D01*
X82068760Y-126075344D01*
X82098813Y-125885598D01*
X82098813Y-125693488D01*
X84626787Y-125693488D01*
X84626787Y-125885597D01*
X84656840Y-126075345D01*
X84716203Y-126258049D01*
X84716205Y-126258052D01*
X84803422Y-126429224D01*
X84916342Y-126584645D01*
X85052185Y-126720488D01*
X85207606Y-126833408D01*
X85378778Y-126920625D01*
X85378780Y-126920626D01*
X85470132Y-126950307D01*
X85561486Y-126979990D01*
X85751232Y-127010043D01*
X85751233Y-127010043D01*
X85943341Y-127010043D01*
X85943342Y-127010043D01*
X86133088Y-126979990D01*
X86315796Y-126920625D01*
X86486968Y-126833408D01*
X86642389Y-126720488D01*
X86778232Y-126584645D01*
X86891152Y-126429224D01*
X86978369Y-126258052D01*
X87037734Y-126075344D01*
X87067787Y-125885598D01*
X87067787Y-125693488D01*
X87037734Y-125503742D01*
X86978369Y-125321034D01*
X86891152Y-125149862D01*
X86778232Y-124994441D01*
X86642389Y-124858598D01*
X86486968Y-124745678D01*
X86448462Y-124726058D01*
X86315793Y-124658459D01*
X86133089Y-124599096D01*
X86038215Y-124584069D01*
X85943342Y-124569043D01*
X85751232Y-124569043D01*
X85687983Y-124579060D01*
X85561484Y-124599096D01*
X85378780Y-124658459D01*
X85207605Y-124745678D01*
X85118932Y-124810103D01*
X85052185Y-124858598D01*
X85052183Y-124858600D01*
X85052182Y-124858600D01*
X84916344Y-124994438D01*
X84916344Y-124994439D01*
X84916342Y-124994441D01*
X84867847Y-125061188D01*
X84803422Y-125149861D01*
X84716203Y-125321036D01*
X84656840Y-125503740D01*
X84626787Y-125693488D01*
X82098813Y-125693488D01*
X82068760Y-125503742D01*
X82009395Y-125321034D01*
X81922178Y-125149862D01*
X81809258Y-124994441D01*
X81673415Y-124858598D01*
X81517994Y-124745678D01*
X81479488Y-124726058D01*
X81346819Y-124658459D01*
X81164115Y-124599096D01*
X81069241Y-124584069D01*
X80974368Y-124569043D01*
X80782258Y-124569043D01*
X80719009Y-124579060D01*
X80592510Y-124599096D01*
X80409806Y-124658459D01*
X80238631Y-124745678D01*
X80149958Y-124810103D01*
X80083211Y-124858598D01*
X80083209Y-124858600D01*
X80083208Y-124858600D01*
X79947370Y-124994438D01*
X79947370Y-124994439D01*
X79947368Y-124994441D01*
X79898873Y-125061188D01*
X79834448Y-125149861D01*
X79747229Y-125321036D01*
X79687866Y-125503740D01*
X79657813Y-125693488D01*
X77642374Y-125693488D01*
X76613445Y-125014305D01*
X76611180Y-125012774D01*
X76562647Y-124979178D01*
X76557747Y-124976661D01*
X76557696Y-124976631D01*
X76557631Y-124976604D01*
X76552688Y-124974201D01*
X76496729Y-124955555D01*
X76494145Y-124954662D01*
X76438574Y-124934773D01*
X76433192Y-124933611D01*
X76433129Y-124933593D01*
X76433066Y-124933585D01*
X76427663Y-124932542D01*
X76368740Y-124929011D01*
X76366014Y-124928817D01*
X63381291Y-123863108D01*
X63316086Y-123838006D01*
X63274804Y-123781636D01*
X63270551Y-123711896D01*
X63303755Y-123651840D01*
X63317684Y-123637910D01*
X63430548Y-123482565D01*
X63517730Y-123311464D01*
X63577073Y-123128827D01*
X63607114Y-122939158D01*
X63607114Y-122787416D01*
X77546428Y-122787416D01*
X77546428Y-122979525D01*
X77576481Y-123169273D01*
X77635844Y-123351977D01*
X77697651Y-123473279D01*
X77723063Y-123523152D01*
X77835983Y-123678573D01*
X77971826Y-123814416D01*
X78127247Y-123927336D01*
X78298419Y-124014553D01*
X78298421Y-124014554D01*
X78351860Y-124031917D01*
X78481127Y-124073918D01*
X78670873Y-124103971D01*
X78670874Y-124103971D01*
X78862982Y-124103971D01*
X78862983Y-124103971D01*
X79052729Y-124073918D01*
X79235437Y-124014553D01*
X79406609Y-123927336D01*
X79562030Y-123814416D01*
X79697873Y-123678573D01*
X79810793Y-123523152D01*
X79898010Y-123351980D01*
X79957375Y-123169272D01*
X79987428Y-122979526D01*
X79987428Y-122787416D01*
X86738172Y-122787416D01*
X86738172Y-122979525D01*
X86768225Y-123169273D01*
X86827588Y-123351977D01*
X86889395Y-123473279D01*
X86914807Y-123523152D01*
X87027727Y-123678573D01*
X87163570Y-123814416D01*
X87318991Y-123927336D01*
X87490163Y-124014553D01*
X87490165Y-124014554D01*
X87543604Y-124031917D01*
X87672871Y-124073918D01*
X87862617Y-124103971D01*
X87862618Y-124103971D01*
X88054726Y-124103971D01*
X88054727Y-124103971D01*
X88244473Y-124073918D01*
X88427181Y-124014553D01*
X88598353Y-123927336D01*
X88753774Y-123814416D01*
X88889617Y-123678573D01*
X89002537Y-123523152D01*
X89089754Y-123351980D01*
X89149119Y-123169272D01*
X89179172Y-122979526D01*
X89179172Y-122787416D01*
X89149119Y-122597670D01*
X89111302Y-122481281D01*
X89089755Y-122414964D01*
X89071899Y-122379920D01*
X89002537Y-122243790D01*
X88889617Y-122088369D01*
X88753774Y-121952526D01*
X88598353Y-121839606D01*
X88521604Y-121800500D01*
X88427178Y-121752387D01*
X88244474Y-121693024D01*
X88109378Y-121671627D01*
X88054727Y-121662971D01*
X87862617Y-121662971D01*
X87807966Y-121671627D01*
X87672869Y-121693024D01*
X87490165Y-121752387D01*
X87318990Y-121839606D01*
X87231505Y-121903168D01*
X87163570Y-121952526D01*
X87163568Y-121952528D01*
X87163567Y-121952528D01*
X87027729Y-122088366D01*
X87027729Y-122088367D01*
X87027727Y-122088369D01*
X86982657Y-122150403D01*
X86914807Y-122243789D01*
X86827588Y-122414964D01*
X86768225Y-122597668D01*
X86738172Y-122787416D01*
X79987428Y-122787416D01*
X79957375Y-122597670D01*
X79919558Y-122481281D01*
X79898011Y-122414964D01*
X79880155Y-122379920D01*
X79810793Y-122243790D01*
X79697873Y-122088369D01*
X79562030Y-121952526D01*
X79406609Y-121839606D01*
X79329860Y-121800500D01*
X79235434Y-121752387D01*
X79052730Y-121693024D01*
X78917634Y-121671627D01*
X78862983Y-121662971D01*
X78670873Y-121662971D01*
X78616222Y-121671627D01*
X78481125Y-121693024D01*
X78298421Y-121752387D01*
X78127246Y-121839606D01*
X78039761Y-121903168D01*
X77971826Y-121952526D01*
X77971824Y-121952528D01*
X77971823Y-121952528D01*
X77835985Y-122088366D01*
X77835985Y-122088367D01*
X77835983Y-122088369D01*
X77790913Y-122150403D01*
X77723063Y-122243789D01*
X77635844Y-122414964D01*
X77576481Y-122597668D01*
X77546428Y-122787416D01*
X63607114Y-122787416D01*
X63607114Y-122747127D01*
X63577072Y-122557457D01*
X63577072Y-122557454D01*
X63517733Y-122374828D01*
X63501329Y-122342634D01*
X62787114Y-122861543D01*
X62787114Y-122790482D01*
X62759855Y-122688749D01*
X62707194Y-122597537D01*
X62632720Y-122523063D01*
X62541508Y-122470402D01*
X62492787Y-122457347D01*
X63207435Y-121938125D01*
X63181882Y-121912572D01*
X63026536Y-121799708D01*
X62855435Y-121712526D01*
X62672798Y-121653183D01*
X62483129Y-121623143D01*
X62291099Y-121623143D01*
X62101428Y-121653184D01*
X62101425Y-121653184D01*
X61918803Y-121712522D01*
X61918791Y-121712527D01*
X61886606Y-121728925D01*
X61886606Y-121728926D01*
X62405514Y-122443143D01*
X62334453Y-122443143D01*
X62232720Y-122470402D01*
X62141508Y-122523063D01*
X62067034Y-122597537D01*
X62014373Y-122688749D01*
X62001318Y-122737468D01*
X61482096Y-122022820D01*
X61482095Y-122022820D01*
X61456549Y-122048367D01*
X61343679Y-122203720D01*
X61256497Y-122374821D01*
X61197154Y-122557458D01*
X61167114Y-122747127D01*
X61167114Y-122939158D01*
X61197155Y-123128828D01*
X61197155Y-123128831D01*
X61256494Y-123311456D01*
X61272897Y-123343649D01*
X61272898Y-123343649D01*
X61987114Y-122824740D01*
X61987114Y-122895804D01*
X62014373Y-122997537D01*
X62067034Y-123088749D01*
X62141508Y-123163223D01*
X62232720Y-123215884D01*
X62281438Y-123228938D01*
X61566791Y-123748158D01*
X61566791Y-123748159D01*
X61592345Y-123773713D01*
X61747690Y-123886577D01*
X61772900Y-123899422D01*
X61823697Y-123947396D01*
X61840493Y-124015217D01*
X61817957Y-124081352D01*
X61763242Y-124124804D01*
X61745923Y-124130393D01*
X60097517Y-124531484D01*
X60083029Y-124533303D01*
X60083098Y-124533780D01*
X60075051Y-124534930D01*
X60021909Y-124549806D01*
X60017803Y-124550880D01*
X59964159Y-124563933D01*
X59956580Y-124566869D01*
X59956407Y-124566423D01*
X59955426Y-124566823D01*
X59955614Y-124567263D01*
X59948145Y-124570454D01*
X59900664Y-124598576D01*
X59896979Y-124600674D01*
X59848546Y-124627165D01*
X59841980Y-124631967D01*
X59841697Y-124631580D01*
X59840856Y-124632217D01*
X59841152Y-124632594D01*
X59834757Y-124637615D01*
X59796166Y-124677074D01*
X59793149Y-124680055D01*
X59753225Y-124718175D01*
X59748133Y-124724504D01*
X59747760Y-124724204D01*
X59747108Y-124725043D01*
X59747491Y-124725330D01*
X59742615Y-124731833D01*
X59715559Y-124779921D01*
X59713418Y-124783578D01*
X59684713Y-124830746D01*
X59681429Y-124838185D01*
X59680990Y-124837991D01*
X59675319Y-124851448D01*
X55029249Y-133109749D01*
X54979222Y-133158525D01*
X54921184Y-133172949D01*
X43683105Y-133173452D01*
X43616064Y-133153770D01*
X43581308Y-133120265D01*
X37393785Y-124225700D01*
X43835812Y-124225700D01*
X43835812Y-130821435D01*
X43835813Y-130821441D01*
X43842220Y-130881048D01*
X43892514Y-131015893D01*
X43892518Y-131015900D01*
X43978764Y-131131109D01*
X43978767Y-131131112D01*
X44093976Y-131217358D01*
X44093983Y-131217362D01*
X44104228Y-131221183D01*
X44228829Y-131267656D01*
X44288439Y-131274065D01*
X44784184Y-131274064D01*
X44843795Y-131267656D01*
X44978643Y-131217361D01*
X45037001Y-131173673D01*
X45102465Y-131149257D01*
X45170738Y-131164108D01*
X45185623Y-131173674D01*
X45243981Y-131217361D01*
X45243983Y-131217362D01*
X45254228Y-131221183D01*
X45378829Y-131267656D01*
X45438439Y-131274065D01*
X45934184Y-131274064D01*
X45993795Y-131267656D01*
X46128643Y-131217361D01*
X46187001Y-131173673D01*
X46252465Y-131149257D01*
X46320738Y-131164108D01*
X46335623Y-131173674D01*
X46393981Y-131217361D01*
X46393983Y-131217362D01*
X46404228Y-131221183D01*
X46528829Y-131267656D01*
X46588439Y-131274065D01*
X47084184Y-131274064D01*
X47143795Y-131267656D01*
X47278643Y-131217361D01*
X47337001Y-131173673D01*
X47402465Y-131149257D01*
X47470738Y-131164108D01*
X47485623Y-131173674D01*
X47543981Y-131217361D01*
X47543983Y-131217362D01*
X47554228Y-131221183D01*
X47678829Y-131267656D01*
X47738439Y-131274065D01*
X48234184Y-131274064D01*
X48293795Y-131267656D01*
X48428643Y-131217361D01*
X48487001Y-131173673D01*
X48552465Y-131149257D01*
X48620738Y-131164108D01*
X48635623Y-131173674D01*
X48693981Y-131217361D01*
X48693983Y-131217362D01*
X48704228Y-131221183D01*
X48828829Y-131267656D01*
X48888439Y-131274065D01*
X49384184Y-131274064D01*
X49443795Y-131267656D01*
X49578643Y-131217361D01*
X49637001Y-131173673D01*
X49702465Y-131149257D01*
X49770738Y-131164108D01*
X49785623Y-131173674D01*
X49843981Y-131217361D01*
X49843983Y-131217362D01*
X49854228Y-131221183D01*
X49978829Y-131267656D01*
X50038439Y-131274065D01*
X50534184Y-131274064D01*
X50593795Y-131267656D01*
X50728643Y-131217361D01*
X50843858Y-131131111D01*
X50930108Y-131015896D01*
X50980403Y-130881048D01*
X50986812Y-130821438D01*
X50986811Y-127940838D01*
X53619100Y-127940838D01*
X53619100Y-128192761D01*
X53658510Y-128441585D01*
X53736360Y-128681183D01*
X53850732Y-128905648D01*
X53998801Y-129109449D01*
X53998805Y-129109454D01*
X54176945Y-129287594D01*
X54176950Y-129287598D01*
X54354717Y-129416752D01*
X54380755Y-129435670D01*
X54523784Y-129508547D01*
X54605216Y-129550039D01*
X54605218Y-129550039D01*
X54605221Y-129550041D01*
X54844815Y-129627890D01*
X55093638Y-129667300D01*
X55093639Y-129667300D01*
X55345561Y-129667300D01*
X55345562Y-129667300D01*
X55594385Y-129627890D01*
X55833979Y-129550041D01*
X56058445Y-129435670D01*
X56262256Y-129287593D01*
X56440393Y-129109456D01*
X56588470Y-128905645D01*
X56702841Y-128681179D01*
X56780690Y-128441585D01*
X56820100Y-128192762D01*
X56820100Y-127940838D01*
X56780690Y-127692015D01*
X56702841Y-127452421D01*
X56702839Y-127452418D01*
X56702839Y-127452416D01*
X56653345Y-127355280D01*
X56588470Y-127227955D01*
X56536958Y-127157054D01*
X56440398Y-127024150D01*
X56440394Y-127024145D01*
X56262254Y-126846005D01*
X56262249Y-126846001D01*
X56058448Y-126697932D01*
X56058447Y-126697931D01*
X56058445Y-126697930D01*
X55988347Y-126662213D01*
X55833983Y-126583560D01*
X55594385Y-126505710D01*
X55345562Y-126466300D01*
X55093638Y-126466300D01*
X54969226Y-126486005D01*
X54844814Y-126505710D01*
X54605216Y-126583560D01*
X54380751Y-126697932D01*
X54176950Y-126846001D01*
X54176945Y-126846005D01*
X53998805Y-127024145D01*
X53998801Y-127024150D01*
X53850732Y-127227951D01*
X53736360Y-127452416D01*
X53658510Y-127692014D01*
X53619100Y-127940838D01*
X50986811Y-127940838D01*
X50986811Y-127692015D01*
X50986811Y-124725310D01*
X50986811Y-124721446D01*
X50986812Y-124721438D01*
X50986811Y-124225693D01*
X50981611Y-124177322D01*
X50980403Y-124166081D01*
X50930109Y-124031236D01*
X50930105Y-124031229D01*
X50843859Y-123916020D01*
X50843856Y-123916017D01*
X50728647Y-123829771D01*
X50728640Y-123829767D01*
X50593794Y-123779473D01*
X50593795Y-123779473D01*
X50534195Y-123773066D01*
X50534193Y-123773065D01*
X50534185Y-123773065D01*
X50534177Y-123773065D01*
X50380445Y-123773065D01*
X50313406Y-123753380D01*
X50267651Y-123700576D01*
X50257707Y-123631418D01*
X50286732Y-123567862D01*
X50332993Y-123534504D01*
X50464540Y-123480016D01*
X50464540Y-123480015D01*
X50464547Y-123480013D01*
X50612035Y-123381464D01*
X50737464Y-123256035D01*
X50836013Y-123108547D01*
X50903894Y-122944666D01*
X50904982Y-122939200D01*
X50927099Y-122828008D01*
X50938500Y-122770691D01*
X50938500Y-122593309D01*
X50938500Y-122593306D01*
X50938499Y-122593304D01*
X50903896Y-122419341D01*
X50903893Y-122419332D01*
X50836016Y-122255459D01*
X50836009Y-122255446D01*
X50737464Y-122107965D01*
X50737461Y-122107961D01*
X50612038Y-121982538D01*
X50612034Y-121982535D01*
X50464553Y-121883990D01*
X50464546Y-121883986D01*
X50435397Y-121871913D01*
X50431079Y-121870124D01*
X50431078Y-121870123D01*
X50300667Y-121816106D01*
X50300658Y-121816103D01*
X50126694Y-121781500D01*
X50126691Y-121781500D01*
X49949309Y-121781500D01*
X49949306Y-121781500D01*
X49775341Y-121816103D01*
X49775332Y-121816106D01*
X49611459Y-121883983D01*
X49611446Y-121883990D01*
X49463968Y-121982533D01*
X49398956Y-122047544D01*
X49352277Y-122075524D01*
X49352592Y-122076284D01*
X49347471Y-122078404D01*
X49347283Y-122078518D01*
X49346967Y-122078613D01*
X49232773Y-122125913D01*
X49232760Y-122125920D01*
X49129993Y-122194587D01*
X49091197Y-122233384D01*
X49052398Y-122272182D01*
X48991078Y-122305666D01*
X48964719Y-122308500D01*
X47436195Y-122308500D01*
X47314970Y-122332613D01*
X47314960Y-122332616D01*
X47200773Y-122379913D01*
X47200760Y-122379920D01*
X47097993Y-122448587D01*
X47076179Y-122470402D01*
X47011304Y-122535277D01*
X46989241Y-122557340D01*
X46923898Y-122622682D01*
X46923897Y-122622684D01*
X46855235Y-122725444D01*
X46855224Y-122725464D01*
X46844650Y-122750991D01*
X46844651Y-122750992D01*
X46807927Y-122839650D01*
X46807924Y-122839660D01*
X46788125Y-122939199D01*
X46788125Y-122939200D01*
X46783812Y-122960882D01*
X46783812Y-123194740D01*
X46770270Y-123247795D01*
X46770615Y-123247924D01*
X46769418Y-123251132D01*
X46768644Y-123254166D01*
X46767517Y-123256229D01*
X46717220Y-123391082D01*
X46710813Y-123450681D01*
X46710812Y-123450700D01*
X46710812Y-123649065D01*
X46691127Y-123716104D01*
X46638323Y-123761859D01*
X46586812Y-123773065D01*
X44288441Y-123773065D01*
X44288435Y-123773066D01*
X44228828Y-123779473D01*
X44093983Y-123829767D01*
X44093976Y-123829771D01*
X43978767Y-123916017D01*
X43978764Y-123916020D01*
X43892518Y-124031229D01*
X43892514Y-124031236D01*
X43842220Y-124166082D01*
X43835813Y-124225681D01*
X43835813Y-124225688D01*
X43835812Y-124225700D01*
X37393785Y-124225700D01*
X35879508Y-122048926D01*
X35857383Y-121982652D01*
X35857300Y-121978114D01*
X35857300Y-119841016D01*
X59055229Y-119841016D01*
X59055229Y-120033126D01*
X59062014Y-120075965D01*
X59085282Y-120222873D01*
X59144645Y-120405577D01*
X59144647Y-120405580D01*
X59231864Y-120576752D01*
X59344784Y-120732173D01*
X59480627Y-120868016D01*
X59636048Y-120980936D01*
X59787072Y-121057887D01*
X59807222Y-121068154D01*
X59898574Y-121097835D01*
X59989928Y-121127518D01*
X60179674Y-121157571D01*
X60179675Y-121157571D01*
X60371783Y-121157571D01*
X60371784Y-121157571D01*
X60561530Y-121127518D01*
X60744238Y-121068153D01*
X60915410Y-120980936D01*
X61070831Y-120868016D01*
X61206674Y-120732173D01*
X61247464Y-120676031D01*
X80452500Y-120676031D01*
X80452500Y-120868141D01*
X80467526Y-120963014D01*
X80482553Y-121057888D01*
X80541916Y-121240592D01*
X80579228Y-121313820D01*
X80629135Y-121411767D01*
X80742055Y-121567188D01*
X80877898Y-121703031D01*
X81033319Y-121815951D01*
X81204491Y-121903168D01*
X81204493Y-121903169D01*
X81295845Y-121932850D01*
X81387199Y-121962533D01*
X81576945Y-121992586D01*
X81576946Y-121992586D01*
X81769054Y-121992586D01*
X81769055Y-121992586D01*
X81958801Y-121962533D01*
X82141509Y-121903168D01*
X82312681Y-121815951D01*
X82468102Y-121703031D01*
X82603945Y-121567188D01*
X82716865Y-121411767D01*
X82804082Y-121240595D01*
X82863447Y-121057887D01*
X82893500Y-120868141D01*
X82893500Y-120676031D01*
X83832100Y-120676031D01*
X83832100Y-120868141D01*
X83847126Y-120963014D01*
X83862153Y-121057888D01*
X83921516Y-121240592D01*
X83958828Y-121313820D01*
X84008735Y-121411767D01*
X84121655Y-121567188D01*
X84257498Y-121703031D01*
X84412919Y-121815951D01*
X84584091Y-121903168D01*
X84584093Y-121903169D01*
X84675445Y-121932850D01*
X84766799Y-121962533D01*
X84956545Y-121992586D01*
X84956546Y-121992586D01*
X85148654Y-121992586D01*
X85148655Y-121992586D01*
X85338401Y-121962533D01*
X85521109Y-121903168D01*
X85692281Y-121815951D01*
X85847702Y-121703031D01*
X85983545Y-121567188D01*
X86096465Y-121411767D01*
X86183682Y-121240595D01*
X86243047Y-121057887D01*
X86273100Y-120868141D01*
X86273100Y-120676031D01*
X86243047Y-120486285D01*
X86183682Y-120303577D01*
X86096465Y-120132405D01*
X85983545Y-119976984D01*
X85847702Y-119841141D01*
X85847530Y-119841016D01*
X105178572Y-119841016D01*
X105178572Y-120033126D01*
X105185357Y-120075965D01*
X105208625Y-120222873D01*
X105267988Y-120405577D01*
X105267990Y-120405580D01*
X105355207Y-120576752D01*
X105468127Y-120732173D01*
X105603970Y-120868016D01*
X105759391Y-120980936D01*
X105910415Y-121057887D01*
X105930565Y-121068154D01*
X106021917Y-121097835D01*
X106113271Y-121127518D01*
X106303017Y-121157571D01*
X106303018Y-121157571D01*
X106495126Y-121157571D01*
X106495127Y-121157571D01*
X106684873Y-121127518D01*
X106867581Y-121068153D01*
X107038753Y-120980936D01*
X107194174Y-120868016D01*
X107330017Y-120732173D01*
X107442937Y-120576752D01*
X107530154Y-120405580D01*
X107589519Y-120222872D01*
X107619572Y-120033126D01*
X107619572Y-119841016D01*
X107589519Y-119651270D01*
X107530154Y-119468562D01*
X107442937Y-119297390D01*
X107330017Y-119141969D01*
X107194174Y-119006126D01*
X107038753Y-118893206D01*
X106991482Y-118869120D01*
X106867578Y-118805987D01*
X106684874Y-118746624D01*
X106584346Y-118730702D01*
X106495127Y-118716571D01*
X106303017Y-118716571D01*
X106239768Y-118726588D01*
X106113269Y-118746624D01*
X105930565Y-118805987D01*
X105759390Y-118893206D01*
X105695121Y-118939901D01*
X105603970Y-119006126D01*
X105603968Y-119006128D01*
X105603967Y-119006128D01*
X105468129Y-119141966D01*
X105468129Y-119141967D01*
X105468127Y-119141969D01*
X105419632Y-119208716D01*
X105355207Y-119297389D01*
X105267988Y-119468564D01*
X105208625Y-119651268D01*
X105208625Y-119651270D01*
X105178572Y-119841016D01*
X85847530Y-119841016D01*
X85692281Y-119728221D01*
X85521106Y-119641002D01*
X85338402Y-119581639D01*
X85243528Y-119566612D01*
X85148655Y-119551586D01*
X84956545Y-119551586D01*
X84893296Y-119561603D01*
X84766797Y-119581639D01*
X84584093Y-119641002D01*
X84412918Y-119728221D01*
X84336004Y-119784103D01*
X84257498Y-119841141D01*
X84257496Y-119841143D01*
X84257495Y-119841143D01*
X84121657Y-119976981D01*
X84121657Y-119976982D01*
X84121655Y-119976984D01*
X84073160Y-120043731D01*
X84008735Y-120132404D01*
X83921516Y-120303579D01*
X83862153Y-120486283D01*
X83862153Y-120486285D01*
X83832100Y-120676031D01*
X82893500Y-120676031D01*
X82863447Y-120486285D01*
X82804082Y-120303577D01*
X82716865Y-120132405D01*
X82603945Y-119976984D01*
X82468102Y-119841141D01*
X82312681Y-119728221D01*
X82141506Y-119641002D01*
X81958802Y-119581639D01*
X81863928Y-119566612D01*
X81769055Y-119551586D01*
X81576945Y-119551586D01*
X81513696Y-119561603D01*
X81387197Y-119581639D01*
X81204493Y-119641002D01*
X81033318Y-119728221D01*
X80956404Y-119784103D01*
X80877898Y-119841141D01*
X80877896Y-119841143D01*
X80877895Y-119841143D01*
X80742057Y-119976981D01*
X80742057Y-119976982D01*
X80742055Y-119976984D01*
X80693560Y-120043731D01*
X80629135Y-120132404D01*
X80541916Y-120303579D01*
X80482553Y-120486283D01*
X80482553Y-120486285D01*
X80452500Y-120676031D01*
X61247464Y-120676031D01*
X61319594Y-120576752D01*
X61406811Y-120405580D01*
X61466176Y-120222872D01*
X61496229Y-120033126D01*
X61496229Y-119841016D01*
X61466176Y-119651270D01*
X61406811Y-119468562D01*
X61319594Y-119297390D01*
X61206674Y-119141969D01*
X61070831Y-119006126D01*
X60915410Y-118893206D01*
X60868139Y-118869120D01*
X60744235Y-118805987D01*
X60561531Y-118746624D01*
X60461003Y-118730702D01*
X60371784Y-118716571D01*
X60179674Y-118716571D01*
X60116425Y-118726588D01*
X59989926Y-118746624D01*
X59807222Y-118805987D01*
X59636047Y-118893206D01*
X59571778Y-118939901D01*
X59480627Y-119006126D01*
X59480625Y-119006128D01*
X59480624Y-119006128D01*
X59344786Y-119141966D01*
X59344786Y-119141967D01*
X59344784Y-119141969D01*
X59296289Y-119208716D01*
X59231864Y-119297389D01*
X59144645Y-119468564D01*
X59085282Y-119651268D01*
X59085282Y-119651270D01*
X59055229Y-119841016D01*
X35857300Y-119841016D01*
X35857300Y-117729631D01*
X61961301Y-117729631D01*
X61961301Y-117921740D01*
X61991354Y-118111488D01*
X62050717Y-118294192D01*
X62050719Y-118294195D01*
X62137936Y-118465367D01*
X62250856Y-118620788D01*
X62386699Y-118756631D01*
X62542120Y-118869551D01*
X62680189Y-118939901D01*
X62713294Y-118956769D01*
X62804646Y-118986450D01*
X62896000Y-119016133D01*
X63085746Y-119046186D01*
X63085747Y-119046186D01*
X63277855Y-119046186D01*
X63277856Y-119046186D01*
X63467602Y-119016133D01*
X63650310Y-118956768D01*
X63821482Y-118869551D01*
X63976903Y-118756631D01*
X64112746Y-118620788D01*
X64225666Y-118465367D01*
X64312883Y-118294195D01*
X64372248Y-118111487D01*
X64402301Y-117921741D01*
X64402301Y-117729670D01*
X102273000Y-117729670D01*
X102273000Y-117921701D01*
X102303040Y-118111370D01*
X102362383Y-118294007D01*
X102449565Y-118465108D01*
X102562429Y-118620454D01*
X102587982Y-118646007D01*
X103107204Y-117931359D01*
X103120259Y-117980080D01*
X103172920Y-118071292D01*
X103247394Y-118145766D01*
X103338606Y-118198427D01*
X103440339Y-118225686D01*
X103511399Y-118225686D01*
X102992491Y-118939901D01*
X102992491Y-118939902D01*
X103024685Y-118956305D01*
X103207313Y-119015644D01*
X103396985Y-119045686D01*
X103589015Y-119045686D01*
X103778684Y-119015645D01*
X103961321Y-118956302D01*
X104132422Y-118869120D01*
X104287777Y-118756249D01*
X104287780Y-118756246D01*
X104313321Y-118730704D01*
X104313321Y-118730702D01*
X103598675Y-118211480D01*
X103647394Y-118198427D01*
X103738606Y-118145766D01*
X103813080Y-118071292D01*
X103865741Y-117980080D01*
X103893000Y-117878347D01*
X103893000Y-117807285D01*
X104607215Y-118326192D01*
X104607216Y-118326192D01*
X104623615Y-118294008D01*
X104623616Y-118294004D01*
X104682959Y-118111370D01*
X104713000Y-117921701D01*
X104713000Y-117729670D01*
X104682959Y-117540001D01*
X104623616Y-117357364D01*
X104536434Y-117186263D01*
X104423570Y-117030917D01*
X104398016Y-117005363D01*
X103878794Y-117720008D01*
X103865741Y-117671292D01*
X103813080Y-117580080D01*
X103738606Y-117505606D01*
X103647394Y-117452945D01*
X103545661Y-117425686D01*
X103474598Y-117425686D01*
X103993506Y-116711470D01*
X103993506Y-116711469D01*
X103961313Y-116695066D01*
X103778686Y-116635727D01*
X103589015Y-116605686D01*
X103396985Y-116605686D01*
X103207315Y-116635726D01*
X103024678Y-116695069D01*
X102853577Y-116782251D01*
X102698224Y-116895121D01*
X102672677Y-116920667D01*
X102672677Y-116920668D01*
X103387325Y-117439890D01*
X103338606Y-117452945D01*
X103247394Y-117505606D01*
X103172920Y-117580080D01*
X103120259Y-117671292D01*
X103093000Y-117773025D01*
X103093000Y-117844086D01*
X103086499Y-117839363D01*
X102378783Y-117325178D01*
X102378782Y-117325178D01*
X102362384Y-117357363D01*
X102362379Y-117357375D01*
X102303041Y-117539997D01*
X102303041Y-117540000D01*
X102273000Y-117729670D01*
X64402301Y-117729670D01*
X64402301Y-117729631D01*
X64372248Y-117539885D01*
X64335143Y-117425686D01*
X64312884Y-117357179D01*
X64312883Y-117357177D01*
X64225666Y-117186005D01*
X64112746Y-117030584D01*
X63976903Y-116894741D01*
X63821482Y-116781821D01*
X63650307Y-116694602D01*
X63467603Y-116635239D01*
X63372729Y-116620212D01*
X63277856Y-116605186D01*
X63085746Y-116605186D01*
X63022497Y-116615203D01*
X62895998Y-116635239D01*
X62713294Y-116694602D01*
X62542119Y-116781821D01*
X62453446Y-116846246D01*
X62386699Y-116894741D01*
X62386697Y-116894743D01*
X62386696Y-116894743D01*
X62250858Y-117030581D01*
X62250858Y-117030582D01*
X62250856Y-117030584D01*
X62202361Y-117097331D01*
X62137936Y-117186004D01*
X62050717Y-117357179D01*
X61991354Y-117539883D01*
X61961301Y-117729631D01*
X35857300Y-117729631D01*
X35857300Y-115734900D01*
X35876985Y-115667861D01*
X35929789Y-115622106D01*
X35981300Y-115610900D01*
X114691500Y-115610900D01*
X114758539Y-115630585D01*
G37*
%TD.AperFunction*%
%TD*%
M02*
