%TF.GenerationSoftware,KiCad,Pcbnew,10.0.5*%
%TF.CreationDate,2026-09-14T16:50:05+01:00*%
%TF.ProjectId,gk-controls-trigger,676b2d63-6f6e-4747-926f-6c732d747269,rev?*%
%TF.SameCoordinates,Original*%
%TF.FileFunction,Copper,L1,Top*%
%TF.FilePolarity,Positive*%
%FSLAX46Y46*%
G04 Gerber Fmt 4.6, Leading zero omitted, Abs format (unit mm)*
G04 Created by KiCad (PCBNEW 10.0.5) date 2026-09-14 16:50:05*
%MOMM*%
%LPD*%
G01*
G04 APERTURE LIST*
G04 Aperture macros list*
%AMRoundRect*
0 Rectangle with rounded corners*
0 $1 Rounding radius*
0 $2 $3 $4 $5 $6 $7 $8 $9 X,Y pos of 4 corners*
0 Add a 4 corners polygon primitive as box body*
4,1,4,$2,$3,$4,$5,$6,$7,$8,$9,$2,$3,0*
0 Add four circle primitives for the rounded corners*
1,1,$1+$1,$2,$3*
1,1,$1+$1,$4,$5*
1,1,$1+$1,$6,$7*
1,1,$1+$1,$8,$9*
0 Add four rect primitives between the rounded corners*
20,1,$1+$1,$2,$3,$4,$5,0*
20,1,$1+$1,$4,$5,$6,$7,0*
20,1,$1+$1,$6,$7,$8,$9,0*
20,1,$1+$1,$8,$9,$2,$3,0*%
G04 Aperture macros list end*
%TA.AperFunction,SMDPad,CuDef*%
%ADD10RoundRect,0.200000X-0.200000X-0.275000X0.200000X-0.275000X0.200000X0.275000X-0.200000X0.275000X0*%
%TD*%
%TA.AperFunction,SMDPad,CuDef*%
%ADD11R,2.300000X3.100000*%
%TD*%
%TA.AperFunction,SMDPad,CuDef*%
%ADD12R,0.300000X1.100000*%
%TD*%
%TA.AperFunction,SMDPad,CuDef*%
%ADD13RoundRect,0.200000X0.200000X0.275000X-0.200000X0.275000X-0.200000X-0.275000X0.200000X-0.275000X0*%
%TD*%
%TA.AperFunction,SMDPad,CuDef*%
%ADD14RoundRect,0.225000X-0.225000X-0.250000X0.225000X-0.250000X0.225000X0.250000X-0.225000X0.250000X0*%
%TD*%
%TA.AperFunction,ComponentPad*%
%ADD15C,1.440000*%
%TD*%
%TA.AperFunction,ViaPad*%
%ADD16C,0.800000*%
%TD*%
%TA.AperFunction,ViaPad*%
%ADD17C,0.600000*%
%TD*%
%TA.AperFunction,Conductor*%
%ADD18C,0.254000*%
%TD*%
G04 APERTURE END LIST*
D10*
%TO.P,R1,1*%
%TO.N,VDDA*%
X55309000Y-117805200D03*
%TO.P,R1,2*%
%TO.N,Net-(R1-Pad2)*%
X56959000Y-117805200D03*
%TD*%
D11*
%TO.P,J6,MP*%
%TO.N,N/C*%
X40414200Y-117867200D03*
X46254200Y-117867200D03*
D12*
%TO.P,J6,6,Pin_6_6*%
%TO.N,GND*%
X42084200Y-119567200D03*
%TO.P,J6,5,Pin_5_5*%
%TO.N,RT_ANA*%
X42584200Y-119567200D03*
%TO.P,J6,4,Pin_4_4*%
%TO.N,LT_ANA*%
X43084200Y-119567200D03*
%TO.P,J6,3,Pin_3_3*%
%TO.N,Net-(J6-Pin_3)*%
X43584200Y-119567200D03*
%TO.P,J6,2,Pin_2_2*%
%TO.N,Net-(J6-Pin_2)*%
X44084200Y-119567200D03*
%TO.P,J6,1,Pin_1_1*%
%TO.N,VDDA*%
X44584200Y-119567200D03*
%TD*%
D13*
%TO.P,R2,1*%
%TO.N,VDDA*%
X112077000Y-122936000D03*
%TO.P,R2,2*%
%TO.N,Net-(R2-Pad2)*%
X110427000Y-122936000D03*
%TD*%
D14*
%TO.P,C1,1*%
%TO.N,VDDA*%
X45199000Y-121920000D03*
%TO.P,C1,2*%
%TO.N,GND*%
X46749000Y-121920000D03*
%TD*%
D15*
%TO.P,RV3,1,1_1*%
%TO.N,unconnected-(RV3-Pad1)*%
X85847287Y-125789543D03*
%TO.P,RV3,2,2_2*%
%TO.N,unconnected-(RV3-Pad2)*%
X87958672Y-122883471D03*
%TO.P,RV3,3,3_3*%
%TO.N,unconnected-(RV3-Pad3)*%
X85052600Y-120772086D03*
%TD*%
%TO.P,RV4,1,1_1*%
%TO.N,Net-(R2-Pad2)*%
X104287687Y-122843143D03*
%TO.P,RV4,2,2_2*%
%TO.N,RT_ANA*%
X106399072Y-119937071D03*
%TO.P,RV4,3,3_3*%
%TO.N,GND*%
X103493000Y-117825686D03*
%TD*%
%TO.P,RV2,1,1_1*%
%TO.N,unconnected-(RV2-Pad1)*%
X81673000Y-120772086D03*
%TO.P,RV2,2,2_2*%
%TO.N,unconnected-(RV2-Pad2)*%
X78766928Y-122883471D03*
%TO.P,RV2,3,3_3*%
%TO.N,unconnected-(RV2-Pad3)*%
X80878313Y-125789543D03*
%TD*%
%TO.P,RV1,1,1_1*%
%TO.N,Net-(R1-Pad2)*%
X63181801Y-117825686D03*
%TO.P,RV1,2,2_2*%
%TO.N,LT_ANA*%
X60275729Y-119937071D03*
%TO.P,RV1,3,3_3*%
%TO.N,GND*%
X62387114Y-122843143D03*
%TD*%
D16*
%TO.N,GND*%
X106426000Y-117348000D03*
X110744000Y-118364000D03*
X96266000Y-118364000D03*
X76200000Y-118364000D03*
X58166000Y-120904000D03*
X66802000Y-118618000D03*
X50292000Y-116840000D03*
X51816000Y-122174000D03*
X48514000Y-122174000D03*
%TO.N,Net-(J6-Pin_3)*%
X110744000Y-120650000D03*
%TO.N,Net-(J6-Pin_2)*%
X50038000Y-122682000D03*
D17*
%TO.N,GND*%
X40386000Y-121666000D03*
D16*
X98806000Y-121920000D03*
X93726000Y-121920000D03*
X72898000Y-121920000D03*
X67310000Y-121920000D03*
X108458000Y-124764800D03*
X40386000Y-125222000D03*
X128270000Y-127000000D03*
X57912000Y-124815600D03*
%TD*%
%TO.N,VDDA*%
D18*
X50850800Y-117805200D02*
X55309000Y-117805200D01*
X48006000Y-120650000D02*
X50850800Y-117805200D01*
%TO.N,Net-(R2-Pad2)*%
X104380544Y-122936000D02*
X104287687Y-122843143D01*
X110427000Y-122936000D02*
X104380544Y-122936000D01*
%TO.N,Net-(J6-Pin_3)*%
X109474000Y-118364000D02*
X110744000Y-119634000D01*
X105664000Y-118364000D02*
X109474000Y-118364000D01*
X104394000Y-119634000D02*
X105664000Y-118364000D01*
X95250000Y-119634000D02*
X104394000Y-119634000D01*
X93218000Y-117602000D02*
X95250000Y-119634000D01*
X78994000Y-117602000D02*
X93218000Y-117602000D01*
X76454000Y-120142000D02*
X78994000Y-117602000D01*
X62992000Y-120142000D02*
X76454000Y-120142000D01*
X58420000Y-118618000D02*
X61468000Y-118618000D01*
X56896000Y-119126000D02*
X57912000Y-119126000D01*
X51054000Y-124968000D02*
X56896000Y-119126000D01*
X57912000Y-119126000D02*
X58420000Y-118618000D01*
X44704000Y-124968000D02*
X51054000Y-124968000D01*
X43584200Y-123848200D02*
X44704000Y-124968000D01*
X61468000Y-118618000D02*
X62992000Y-120142000D01*
X43584200Y-119567200D02*
X43584200Y-123848200D01*
X110744000Y-119634000D02*
X110744000Y-120650000D01*
%TO.N,VDDA*%
X112077000Y-118173000D02*
X112077000Y-122936000D01*
X110236000Y-116332000D02*
X112077000Y-118173000D01*
X101092000Y-116840000D02*
X101600000Y-116332000D01*
X78994000Y-116840000D02*
X101092000Y-116840000D01*
X78486000Y-116332000D02*
X78994000Y-116840000D01*
X55880000Y-116332000D02*
X78486000Y-116332000D01*
X55309000Y-116903000D02*
X55880000Y-116332000D01*
X55309000Y-117805200D02*
X55309000Y-116903000D01*
X101600000Y-116332000D02*
X110236000Y-116332000D01*
%TO.N,RT_ANA*%
X105940143Y-120396000D02*
X106399072Y-119937071D01*
X92456000Y-118364000D02*
X94488000Y-120396000D01*
X79248000Y-118364000D02*
X92456000Y-118364000D01*
X76708000Y-120904000D02*
X79248000Y-118364000D01*
X61722000Y-120904000D02*
X76708000Y-120904000D01*
X60706000Y-121920000D02*
X61722000Y-120904000D01*
X56134000Y-121920000D02*
X60706000Y-121920000D01*
X51562000Y-126492000D02*
X56134000Y-121920000D01*
X43942000Y-126492000D02*
X51562000Y-126492000D01*
X42584200Y-125134200D02*
X43942000Y-126492000D01*
X42584200Y-119567200D02*
X42584200Y-125134200D01*
X94488000Y-120396000D02*
X105940143Y-120396000D01*
%TO.N,LT_ANA*%
X43084200Y-124618200D02*
X43084200Y-119567200D01*
X51308000Y-125730000D02*
X44196000Y-125730000D01*
X44196000Y-125730000D02*
X43084200Y-124618200D01*
X60275729Y-119937071D02*
X57100929Y-119937071D01*
X57100929Y-119937071D02*
X51308000Y-125730000D01*
%TO.N,Net-(R1-Pad2)*%
X63161315Y-117805200D02*
X63181801Y-117825686D01*
X56959000Y-117805200D02*
X63161315Y-117805200D01*
%TO.N,VDDA*%
X45720000Y-120650000D02*
X48006000Y-120650000D01*
X45199000Y-121171000D02*
X45720000Y-120650000D01*
X45199000Y-121920000D02*
X45199000Y-121171000D01*
%TO.N,Net-(J6-Pin_2)*%
X44084200Y-123078200D02*
X44958000Y-123952000D01*
X44958000Y-123952000D02*
X48768000Y-123952000D01*
X44084200Y-119567200D02*
X44084200Y-123078200D01*
X48768000Y-123952000D02*
X50038000Y-122682000D01*
%TO.N,GND*%
X42084200Y-119967800D02*
X40386000Y-121666000D01*
X42084200Y-119567200D02*
X42084200Y-119967800D01*
%TO.N,VDDA*%
X44584200Y-119567200D02*
X44584200Y-121305200D01*
X44584200Y-121305200D02*
X45199000Y-121920000D01*
%TD*%
%TA.AperFunction,Conductor*%
%TO.N,GND*%
G36*
X114758539Y-115630585D02*
G01*
X114804294Y-115683389D01*
X114815500Y-115734900D01*
X114815500Y-121044508D01*
X114815500Y-121176292D01*
X114823483Y-121206084D01*
X114849608Y-121303587D01*
X114876094Y-121349461D01*
X114915500Y-121417714D01*
X115008686Y-121510900D01*
X115122814Y-121576792D01*
X115250108Y-121610900D01*
X130732778Y-121610900D01*
X130799817Y-121630585D01*
X130845572Y-121683389D01*
X130856778Y-121734900D01*
X130856778Y-133049467D01*
X130837093Y-133116506D01*
X130784289Y-133162261D01*
X130732778Y-133173467D01*
X111792423Y-133173467D01*
X111725384Y-133153782D01*
X111684351Y-133110265D01*
X111337603Y-132493900D01*
X108776191Y-127940838D01*
X109600700Y-127940838D01*
X109600700Y-128192761D01*
X109640110Y-128441585D01*
X109717960Y-128681183D01*
X109832332Y-128905648D01*
X109980401Y-129109449D01*
X109980405Y-129109454D01*
X110158545Y-129287594D01*
X110158550Y-129287598D01*
X110336317Y-129416752D01*
X110362355Y-129435670D01*
X110505384Y-129508547D01*
X110586816Y-129550039D01*
X110586818Y-129550039D01*
X110586821Y-129550041D01*
X110826415Y-129627890D01*
X111075238Y-129667300D01*
X111075239Y-129667300D01*
X111327161Y-129667300D01*
X111327162Y-129667300D01*
X111575985Y-129627890D01*
X111815579Y-129550041D01*
X112040045Y-129435670D01*
X112243856Y-129287593D01*
X112421993Y-129109456D01*
X112570070Y-128905645D01*
X112684441Y-128681179D01*
X112762290Y-128441585D01*
X112801700Y-128192762D01*
X112801700Y-127940838D01*
X112762290Y-127692015D01*
X112684441Y-127452421D01*
X112684439Y-127452418D01*
X112684439Y-127452416D01*
X112634945Y-127355280D01*
X112570070Y-127227955D01*
X112518558Y-127157054D01*
X112421998Y-127024150D01*
X112421994Y-127024145D01*
X112243854Y-126846005D01*
X112243849Y-126846001D01*
X112040048Y-126697932D01*
X112040047Y-126697931D01*
X112040045Y-126697930D01*
X111969947Y-126662213D01*
X111815583Y-126583560D01*
X111575985Y-126505710D01*
X111327162Y-126466300D01*
X111075238Y-126466300D01*
X110950826Y-126486005D01*
X110826414Y-126505710D01*
X110586816Y-126583560D01*
X110362351Y-126697932D01*
X110158550Y-126846001D01*
X110158545Y-126846005D01*
X109980405Y-127024145D01*
X109980401Y-127024150D01*
X109832332Y-127227951D01*
X109717960Y-127452416D01*
X109640110Y-127692014D01*
X109600700Y-127940838D01*
X108776191Y-127940838D01*
X108013239Y-126584646D01*
X107038452Y-124851904D01*
X107032780Y-124838439D01*
X107032340Y-124838634D01*
X107029059Y-124831203D01*
X107000357Y-124784041D01*
X106998211Y-124780374D01*
X106978692Y-124745678D01*
X106971155Y-124732280D01*
X106971151Y-124732276D01*
X106966278Y-124725776D01*
X106966663Y-124725486D01*
X106966019Y-124724657D01*
X106965644Y-124724959D01*
X106960549Y-124718627D01*
X106960076Y-124718175D01*
X106920600Y-124680482D01*
X106917612Y-124677529D01*
X106879013Y-124638059D01*
X106872622Y-124633041D01*
X106872919Y-124632661D01*
X106872083Y-124632028D01*
X106871800Y-124632416D01*
X106865239Y-124627618D01*
X106816781Y-124601114D01*
X106813129Y-124599035D01*
X106765629Y-124570900D01*
X106765627Y-124570899D01*
X106765625Y-124570898D01*
X106758160Y-124567708D01*
X106758348Y-124567267D01*
X106757360Y-124566864D01*
X106757187Y-124567312D01*
X106749610Y-124564376D01*
X106695972Y-124551324D01*
X106691864Y-124550249D01*
X106638722Y-124535372D01*
X106630676Y-124534221D01*
X106630744Y-124533745D01*
X106616258Y-124531926D01*
X104941675Y-124124431D01*
X104881191Y-124089454D01*
X104849218Y-124027329D01*
X104855909Y-123957780D01*
X104899138Y-123902889D01*
X104914686Y-123893469D01*
X104927368Y-123887008D01*
X105082789Y-123774088D01*
X105218632Y-123638245D01*
X105235800Y-123614614D01*
X105291130Y-123571949D01*
X105336119Y-123563500D01*
X109551607Y-123563500D01*
X109618646Y-123583185D01*
X109657723Y-123623349D01*
X109671528Y-123646185D01*
X109671531Y-123646189D01*
X109791811Y-123766469D01*
X109791813Y-123766470D01*
X109791815Y-123766472D01*
X109937394Y-123854478D01*
X110099804Y-123905086D01*
X110170384Y-123911500D01*
X110170387Y-123911500D01*
X110683613Y-123911500D01*
X110683616Y-123911500D01*
X110754196Y-123905086D01*
X110916606Y-123854478D01*
X111062185Y-123766472D01*
X111112131Y-123716526D01*
X111164319Y-123664339D01*
X111225642Y-123630854D01*
X111295334Y-123635838D01*
X111339681Y-123664339D01*
X111441811Y-123766469D01*
X111441813Y-123766470D01*
X111441815Y-123766472D01*
X111587394Y-123854478D01*
X111749804Y-123905086D01*
X111820384Y-123911500D01*
X111820387Y-123911500D01*
X112333613Y-123911500D01*
X112333616Y-123911500D01*
X112404196Y-123905086D01*
X112566606Y-123854478D01*
X112712185Y-123766472D01*
X112832472Y-123646185D01*
X112920478Y-123500606D01*
X112971086Y-123338196D01*
X112977500Y-123267616D01*
X112977500Y-122604384D01*
X112971086Y-122533804D01*
X112920478Y-122371394D01*
X112832472Y-122225815D01*
X112832470Y-122225813D01*
X112832469Y-122225811D01*
X112740819Y-122134161D01*
X112707334Y-122072838D01*
X112704500Y-122046480D01*
X112704500Y-118111194D01*
X112680386Y-117989970D01*
X112680385Y-117989969D01*
X112680385Y-117989965D01*
X112652126Y-117921741D01*
X112633086Y-117875773D01*
X112633078Y-117875758D01*
X112564412Y-117772993D01*
X112521050Y-117729631D01*
X112477008Y-117685589D01*
X111621117Y-116829698D01*
X110636011Y-115844591D01*
X110636010Y-115844590D01*
X110626151Y-115838003D01*
X110581346Y-115784391D01*
X110572637Y-115715066D01*
X110602791Y-115652039D01*
X110662234Y-115615319D01*
X110695041Y-115610900D01*
X114691500Y-115610900D01*
X114758539Y-115630585D01*
G37*
%TD.AperFunction*%
%TA.AperFunction,Conductor*%
G36*
X39105423Y-115630585D02*
G01*
X39151178Y-115683389D01*
X39161122Y-115752547D01*
X39132097Y-115816103D01*
X39081717Y-115851082D01*
X39021871Y-115873402D01*
X39021864Y-115873406D01*
X38906655Y-115959652D01*
X38906652Y-115959655D01*
X38820406Y-116074864D01*
X38820402Y-116074871D01*
X38770108Y-116209717D01*
X38763701Y-116269316D01*
X38763701Y-116269323D01*
X38763700Y-116269335D01*
X38763700Y-119465070D01*
X38763701Y-119465076D01*
X38770108Y-119524683D01*
X38820402Y-119659528D01*
X38820406Y-119659535D01*
X38906652Y-119774744D01*
X38906655Y-119774747D01*
X39021864Y-119860993D01*
X39021871Y-119860997D01*
X39156717Y-119911291D01*
X39156716Y-119911291D01*
X39163644Y-119912035D01*
X39216327Y-119917700D01*
X41310200Y-119917699D01*
X41377239Y-119937384D01*
X41422994Y-119990187D01*
X41434200Y-120041699D01*
X41434200Y-120165044D01*
X41440601Y-120224572D01*
X41440603Y-120224579D01*
X41490845Y-120359286D01*
X41490849Y-120359293D01*
X41577009Y-120474387D01*
X41577012Y-120474390D01*
X41692106Y-120560550D01*
X41692113Y-120560554D01*
X41826820Y-120610796D01*
X41826827Y-120610798D01*
X41845955Y-120612855D01*
X41910506Y-120639593D01*
X41950355Y-120696985D01*
X41956700Y-120736144D01*
X41956700Y-125196007D01*
X41980812Y-125317227D01*
X41980814Y-125317235D01*
X42014262Y-125397985D01*
X42028117Y-125431434D01*
X42076431Y-125503742D01*
X42076432Y-125503742D01*
X42096788Y-125534208D01*
X42096791Y-125534211D01*
X43454589Y-126892008D01*
X43525626Y-126963045D01*
X43541993Y-126979412D01*
X43644760Y-127048079D01*
X43644773Y-127048086D01*
X43736515Y-127086086D01*
X43758965Y-127095385D01*
X43758969Y-127095385D01*
X43758970Y-127095386D01*
X43880194Y-127119500D01*
X43880197Y-127119500D01*
X51623804Y-127119500D01*
X51623805Y-127119499D01*
X51745035Y-127095386D01*
X51825784Y-127061937D01*
X51859233Y-127048083D01*
X51962008Y-126979411D01*
X52049411Y-126892008D01*
X56357600Y-122583819D01*
X56418923Y-122550334D01*
X56445281Y-122547500D01*
X60767804Y-122547500D01*
X60767805Y-122547499D01*
X60889035Y-122523386D01*
X60969784Y-122489937D01*
X61003233Y-122476083D01*
X61003237Y-122476079D01*
X61008604Y-122473212D01*
X61009879Y-122475598D01*
X61065349Y-122458162D01*
X61132750Y-122476572D01*
X61179498Y-122528500D01*
X61190750Y-122597457D01*
X61190173Y-122601538D01*
X61167114Y-122747127D01*
X61167114Y-122939158D01*
X61197155Y-123128828D01*
X61197155Y-123128831D01*
X61256494Y-123311456D01*
X61272897Y-123343649D01*
X61272898Y-123343649D01*
X61987114Y-122824741D01*
X61987114Y-122895804D01*
X62014373Y-122997537D01*
X62067034Y-123088749D01*
X62141508Y-123163223D01*
X62232720Y-123215884D01*
X62281438Y-123228938D01*
X61566791Y-123748158D01*
X61566791Y-123748159D01*
X61592345Y-123773713D01*
X61747690Y-123886577D01*
X61772900Y-123899422D01*
X61823697Y-123947396D01*
X61840493Y-124015217D01*
X61817957Y-124081352D01*
X61763242Y-124124804D01*
X61745923Y-124130393D01*
X60097517Y-124531484D01*
X60083029Y-124533303D01*
X60083098Y-124533780D01*
X60075051Y-124534930D01*
X60021909Y-124549806D01*
X60017803Y-124550880D01*
X59964159Y-124563933D01*
X59956580Y-124566869D01*
X59956407Y-124566423D01*
X59955426Y-124566823D01*
X59955614Y-124567263D01*
X59948145Y-124570454D01*
X59900664Y-124598576D01*
X59896979Y-124600674D01*
X59848546Y-124627165D01*
X59841980Y-124631967D01*
X59841697Y-124631580D01*
X59840856Y-124632217D01*
X59841152Y-124632594D01*
X59834757Y-124637615D01*
X59796166Y-124677074D01*
X59793149Y-124680055D01*
X59753225Y-124718175D01*
X59748133Y-124724504D01*
X59747760Y-124724204D01*
X59747108Y-124725043D01*
X59747491Y-124725330D01*
X59742615Y-124731833D01*
X59715559Y-124779921D01*
X59713418Y-124783578D01*
X59684713Y-124830746D01*
X59681429Y-124838185D01*
X59680990Y-124837991D01*
X59675319Y-124851448D01*
X55029249Y-133109749D01*
X54979222Y-133158525D01*
X54921184Y-133172949D01*
X43683105Y-133173452D01*
X43616064Y-133153770D01*
X43581308Y-133120265D01*
X39978229Y-127940838D01*
X53619100Y-127940838D01*
X53619100Y-128192761D01*
X53658510Y-128441585D01*
X53736360Y-128681183D01*
X53850732Y-128905648D01*
X53998801Y-129109449D01*
X53998805Y-129109454D01*
X54176945Y-129287594D01*
X54176950Y-129287598D01*
X54354717Y-129416752D01*
X54380755Y-129435670D01*
X54523784Y-129508547D01*
X54605216Y-129550039D01*
X54605218Y-129550039D01*
X54605221Y-129550041D01*
X54844815Y-129627890D01*
X55093638Y-129667300D01*
X55093639Y-129667300D01*
X55345561Y-129667300D01*
X55345562Y-129667300D01*
X55594385Y-129627890D01*
X55833979Y-129550041D01*
X56058445Y-129435670D01*
X56262256Y-129287593D01*
X56440393Y-129109456D01*
X56588470Y-128905645D01*
X56702841Y-128681179D01*
X56780690Y-128441585D01*
X56820100Y-128192762D01*
X56820100Y-127940838D01*
X56780690Y-127692015D01*
X56702841Y-127452421D01*
X56702839Y-127452418D01*
X56702839Y-127452416D01*
X56653345Y-127355280D01*
X56588470Y-127227955D01*
X56536958Y-127157054D01*
X56440398Y-127024150D01*
X56440394Y-127024145D01*
X56262254Y-126846005D01*
X56262249Y-126846001D01*
X56058448Y-126697932D01*
X56058447Y-126697931D01*
X56058445Y-126697930D01*
X55988347Y-126662213D01*
X55833983Y-126583560D01*
X55594385Y-126505710D01*
X55345562Y-126466300D01*
X55093638Y-126466300D01*
X54969226Y-126486005D01*
X54844814Y-126505710D01*
X54605216Y-126583560D01*
X54380751Y-126697932D01*
X54176950Y-126846001D01*
X54176945Y-126846005D01*
X53998805Y-127024145D01*
X53998801Y-127024150D01*
X53850732Y-127227951D01*
X53736360Y-127452416D01*
X53658510Y-127692014D01*
X53619100Y-127940838D01*
X39978229Y-127940838D01*
X35879508Y-122048926D01*
X35857383Y-121982652D01*
X35857300Y-121978114D01*
X35857300Y-115734900D01*
X35876985Y-115667861D01*
X35929789Y-115622106D01*
X35981300Y-115610900D01*
X39038384Y-115610900D01*
X39105423Y-115630585D01*
G37*
%TD.AperFunction*%
%TA.AperFunction,Conductor*%
G36*
X92211758Y-119011185D02*
G01*
X92232400Y-119027819D01*
X94000589Y-120796008D01*
X94072594Y-120868013D01*
X94087993Y-120883412D01*
X94190760Y-120952079D01*
X94190767Y-120952083D01*
X94223888Y-120965802D01*
X94223889Y-120965803D01*
X94257472Y-120979713D01*
X94304965Y-120999386D01*
X94426192Y-121023499D01*
X94426196Y-121023500D01*
X94426197Y-121023500D01*
X105813156Y-121023500D01*
X105869451Y-121037015D01*
X105930565Y-121068154D01*
X106021917Y-121097835D01*
X106113271Y-121127518D01*
X106303017Y-121157571D01*
X106303018Y-121157571D01*
X106495126Y-121157571D01*
X106495127Y-121157571D01*
X106684873Y-121127518D01*
X106867581Y-121068153D01*
X107038753Y-120980936D01*
X107194174Y-120868016D01*
X107330017Y-120732173D01*
X107442937Y-120576752D01*
X107530154Y-120405580D01*
X107589519Y-120222872D01*
X107619572Y-120033126D01*
X107619572Y-119841016D01*
X107589519Y-119651270D01*
X107538684Y-119494815D01*
X107530155Y-119468564D01*
X107504876Y-119418952D01*
X107442937Y-119297390D01*
X107363739Y-119188383D01*
X107340260Y-119122580D01*
X107356085Y-119054526D01*
X107406191Y-119005831D01*
X107464058Y-118991500D01*
X109162719Y-118991500D01*
X109229758Y-119011185D01*
X109250400Y-119027819D01*
X110080181Y-119857600D01*
X110113666Y-119918923D01*
X110116500Y-119945281D01*
X110116500Y-119952638D01*
X110096815Y-120019677D01*
X110080181Y-120040319D01*
X110044538Y-120075961D01*
X110044535Y-120075965D01*
X109945990Y-120223446D01*
X109945983Y-120223459D01*
X109878106Y-120387332D01*
X109878103Y-120387341D01*
X109843500Y-120561304D01*
X109843500Y-120738695D01*
X109878103Y-120912658D01*
X109878106Y-120912667D01*
X109945983Y-121076540D01*
X109945990Y-121076553D01*
X110044535Y-121224034D01*
X110044538Y-121224038D01*
X110169961Y-121349461D01*
X110169965Y-121349464D01*
X110317446Y-121448009D01*
X110317459Y-121448016D01*
X110427535Y-121493610D01*
X110481334Y-121515894D01*
X110481336Y-121515894D01*
X110481341Y-121515896D01*
X110655304Y-121550499D01*
X110655307Y-121550500D01*
X110655309Y-121550500D01*
X110832693Y-121550500D01*
X110832694Y-121550499D01*
X110890682Y-121538964D01*
X111006658Y-121515896D01*
X111006661Y-121515894D01*
X111006666Y-121515894D01*
X111170547Y-121448013D01*
X111255253Y-121391414D01*
X111256609Y-121390508D01*
X111323286Y-121369630D01*
X111390666Y-121388114D01*
X111437357Y-121440093D01*
X111449500Y-121493610D01*
X111449500Y-122046480D01*
X111429815Y-122113519D01*
X111413181Y-122134161D01*
X111339681Y-122207661D01*
X111278358Y-122241146D01*
X111208666Y-122236162D01*
X111164319Y-122207661D01*
X111062188Y-122105530D01*
X111054499Y-122100882D01*
X110916606Y-122017522D01*
X110754196Y-121966914D01*
X110754194Y-121966913D01*
X110754192Y-121966913D01*
X110704778Y-121962423D01*
X110683616Y-121960500D01*
X110170384Y-121960500D01*
X110151145Y-121962248D01*
X110099807Y-121966913D01*
X109937393Y-122017522D01*
X109791811Y-122105530D01*
X109671531Y-122225810D01*
X109671528Y-122225814D01*
X109657723Y-122248651D01*
X109606195Y-122295838D01*
X109551607Y-122308500D01*
X105461059Y-122308500D01*
X105394020Y-122288815D01*
X105350574Y-122240795D01*
X105350097Y-122239859D01*
X105331552Y-122203462D01*
X105218632Y-122048041D01*
X105082789Y-121912198D01*
X104927368Y-121799278D01*
X104892477Y-121781500D01*
X104756193Y-121712059D01*
X104573489Y-121652696D01*
X104478615Y-121637669D01*
X104383742Y-121622643D01*
X104191632Y-121622643D01*
X104128383Y-121632660D01*
X104001884Y-121652696D01*
X103819180Y-121712059D01*
X103648005Y-121799278D01*
X103624848Y-121816103D01*
X103492585Y-121912198D01*
X103492583Y-121912200D01*
X103492582Y-121912200D01*
X103356744Y-122048038D01*
X103356744Y-122048039D01*
X103356742Y-122048041D01*
X103327442Y-122088369D01*
X103243822Y-122203461D01*
X103156603Y-122374636D01*
X103097240Y-122557340D01*
X103067187Y-122747088D01*
X103067187Y-122939197D01*
X103097240Y-123128945D01*
X103156603Y-123311649D01*
X103192176Y-123381464D01*
X103243822Y-123482824D01*
X103356742Y-123638245D01*
X103356744Y-123638247D01*
X103373700Y-123655203D01*
X103407185Y-123716526D01*
X103402201Y-123786218D01*
X103360329Y-123842151D01*
X103296160Y-123866469D01*
X90347711Y-124928953D01*
X90344987Y-124929146D01*
X90289759Y-124932455D01*
X90286107Y-124932674D01*
X90286105Y-124932674D01*
X90280689Y-124933720D01*
X90280631Y-124933727D01*
X90280591Y-124933739D01*
X90275206Y-124934902D01*
X90232783Y-124950083D01*
X90219991Y-124954662D01*
X90219658Y-124954781D01*
X90217077Y-124955672D01*
X90161074Y-124974332D01*
X90156106Y-124976747D01*
X90156074Y-124976760D01*
X90156039Y-124976781D01*
X90151122Y-124979307D01*
X90102600Y-125012893D01*
X90100337Y-125014423D01*
X87148018Y-126963129D01*
X87141712Y-126967026D01*
X87100820Y-126990635D01*
X87098966Y-126992490D01*
X87079620Y-127008276D01*
X87077433Y-127009719D01*
X87046101Y-127045042D01*
X87041019Y-127050436D01*
X87007640Y-127083815D01*
X87007635Y-127083821D01*
X87006328Y-127086086D01*
X86991723Y-127106346D01*
X86989991Y-127108299D01*
X86989979Y-127108315D01*
X86968865Y-127150529D01*
X86965354Y-127157054D01*
X86945662Y-127191161D01*
X86941790Y-127197871D01*
X86941744Y-127197950D01*
X86941068Y-127200473D01*
X86932199Y-127223837D01*
X86931032Y-127226170D01*
X86931031Y-127226172D01*
X86921558Y-127272429D01*
X86919854Y-127279642D01*
X86907637Y-127325236D01*
X86907637Y-127327848D01*
X86905116Y-127352726D01*
X86904592Y-127355280D01*
X86907415Y-127402402D01*
X86907637Y-127409815D01*
X86907637Y-132369900D01*
X86887952Y-132436939D01*
X86835148Y-132482694D01*
X86783637Y-132493900D01*
X79930084Y-132493900D01*
X79863045Y-132474215D01*
X79817290Y-132421411D01*
X79806084Y-132369900D01*
X79806084Y-130480838D01*
X81609900Y-130480838D01*
X81609900Y-130732761D01*
X81649310Y-130981585D01*
X81727160Y-131221183D01*
X81841532Y-131445648D01*
X81989601Y-131649449D01*
X81989605Y-131649454D01*
X82167745Y-131827594D01*
X82167750Y-131827598D01*
X82345517Y-131956752D01*
X82371555Y-131975670D01*
X82514584Y-132048547D01*
X82596016Y-132090039D01*
X82596018Y-132090039D01*
X82596021Y-132090041D01*
X82835615Y-132167890D01*
X83084438Y-132207300D01*
X83084439Y-132207300D01*
X83336361Y-132207300D01*
X83336362Y-132207300D01*
X83585185Y-132167890D01*
X83824779Y-132090041D01*
X84049245Y-131975670D01*
X84253056Y-131827593D01*
X84431193Y-131649456D01*
X84579270Y-131445645D01*
X84693641Y-131221179D01*
X84771490Y-130981585D01*
X84810900Y-130732762D01*
X84810900Y-130480838D01*
X84771490Y-130232015D01*
X84693641Y-129992421D01*
X84693639Y-129992418D01*
X84693639Y-129992416D01*
X84652147Y-129910984D01*
X84579270Y-129767955D01*
X84477507Y-129627890D01*
X84431198Y-129564150D01*
X84431194Y-129564145D01*
X84253054Y-129386005D01*
X84253049Y-129386001D01*
X84049248Y-129237932D01*
X84049247Y-129237931D01*
X84049245Y-129237930D01*
X83979147Y-129202213D01*
X83824783Y-129123560D01*
X83585185Y-129045710D01*
X83336362Y-129006300D01*
X83084438Y-129006300D01*
X82960026Y-129026005D01*
X82835614Y-129045710D01*
X82596016Y-129123560D01*
X82371551Y-129237932D01*
X82167750Y-129386001D01*
X82167745Y-129386005D01*
X81989605Y-129564145D01*
X81989601Y-129564150D01*
X81841532Y-129767951D01*
X81727160Y-129992416D01*
X81649310Y-130232014D01*
X81609900Y-130480838D01*
X79806084Y-130480838D01*
X79806084Y-127409736D01*
X79806306Y-127402321D01*
X79809128Y-127355211D01*
X79809127Y-127355209D01*
X79808604Y-127352651D01*
X79806084Y-127327780D01*
X79806084Y-127325167D01*
X79806084Y-127325165D01*
X79793864Y-127279559D01*
X79792159Y-127272340D01*
X79782693Y-127226106D01*
X79781525Y-127223771D01*
X79772648Y-127200381D01*
X79771996Y-127197948D01*
X79771976Y-127197871D01*
X79748358Y-127156965D01*
X79744857Y-127150458D01*
X79733687Y-127128124D01*
X79723745Y-127108243D01*
X79722062Y-127106346D01*
X79722010Y-127106287D01*
X79707388Y-127086001D01*
X79706128Y-127083820D01*
X79706084Y-127083743D01*
X79706083Y-127083742D01*
X79706081Y-127083739D01*
X79672700Y-127050359D01*
X79667612Y-127044957D01*
X79636299Y-127009652D01*
X79636297Y-127009651D01*
X79634114Y-127008210D01*
X79614746Y-126992405D01*
X79612900Y-126990559D01*
X79612898Y-126990557D01*
X79593598Y-126979414D01*
X79572001Y-126966944D01*
X79565692Y-126963045D01*
X77791771Y-125792103D01*
X77642374Y-125693488D01*
X79657813Y-125693488D01*
X79657813Y-125885597D01*
X79687866Y-126075345D01*
X79747229Y-126258049D01*
X79747231Y-126258052D01*
X79834448Y-126429224D01*
X79947368Y-126584645D01*
X80083211Y-126720488D01*
X80238632Y-126833408D01*
X80409804Y-126920625D01*
X80409806Y-126920626D01*
X80501158Y-126950307D01*
X80592512Y-126979990D01*
X80782258Y-127010043D01*
X80782259Y-127010043D01*
X80974367Y-127010043D01*
X80974368Y-127010043D01*
X81164114Y-126979990D01*
X81346822Y-126920625D01*
X81517994Y-126833408D01*
X81673415Y-126720488D01*
X81809258Y-126584645D01*
X81922178Y-126429224D01*
X82009395Y-126258052D01*
X82068760Y-126075344D01*
X82098813Y-125885598D01*
X82098813Y-125693488D01*
X84626787Y-125693488D01*
X84626787Y-125885597D01*
X84656840Y-126075345D01*
X84716203Y-126258049D01*
X84716205Y-126258052D01*
X84803422Y-126429224D01*
X84916342Y-126584645D01*
X85052185Y-126720488D01*
X85207606Y-126833408D01*
X85378778Y-126920625D01*
X85378780Y-126920626D01*
X85470132Y-126950307D01*
X85561486Y-126979990D01*
X85751232Y-127010043D01*
X85751233Y-127010043D01*
X85943341Y-127010043D01*
X85943342Y-127010043D01*
X86133088Y-126979990D01*
X86315796Y-126920625D01*
X86486968Y-126833408D01*
X86642389Y-126720488D01*
X86778232Y-126584645D01*
X86891152Y-126429224D01*
X86978369Y-126258052D01*
X87037734Y-126075344D01*
X87067787Y-125885598D01*
X87067787Y-125693488D01*
X87037734Y-125503742D01*
X86978369Y-125321034D01*
X86891152Y-125149862D01*
X86778232Y-124994441D01*
X86642389Y-124858598D01*
X86486968Y-124745678D01*
X86448462Y-124726058D01*
X86315793Y-124658459D01*
X86133089Y-124599096D01*
X86038215Y-124584069D01*
X85943342Y-124569043D01*
X85751232Y-124569043D01*
X85687983Y-124579060D01*
X85561484Y-124599096D01*
X85378780Y-124658459D01*
X85207605Y-124745678D01*
X85118932Y-124810103D01*
X85052185Y-124858598D01*
X85052183Y-124858600D01*
X85052182Y-124858600D01*
X84916344Y-124994438D01*
X84916344Y-124994439D01*
X84916342Y-124994441D01*
X84867847Y-125061188D01*
X84803422Y-125149861D01*
X84716203Y-125321036D01*
X84656840Y-125503740D01*
X84626787Y-125693488D01*
X82098813Y-125693488D01*
X82068760Y-125503742D01*
X82009395Y-125321034D01*
X81922178Y-125149862D01*
X81809258Y-124994441D01*
X81673415Y-124858598D01*
X81517994Y-124745678D01*
X81479488Y-124726058D01*
X81346819Y-124658459D01*
X81164115Y-124599096D01*
X81069241Y-124584069D01*
X80974368Y-124569043D01*
X80782258Y-124569043D01*
X80719009Y-124579060D01*
X80592510Y-124599096D01*
X80409806Y-124658459D01*
X80238631Y-124745678D01*
X80149958Y-124810103D01*
X80083211Y-124858598D01*
X80083209Y-124858600D01*
X80083208Y-124858600D01*
X79947370Y-124994438D01*
X79947370Y-124994439D01*
X79947368Y-124994441D01*
X79898873Y-125061188D01*
X79834448Y-125149861D01*
X79747229Y-125321036D01*
X79687866Y-125503740D01*
X79657813Y-125693488D01*
X77642374Y-125693488D01*
X76613445Y-125014305D01*
X76611180Y-125012774D01*
X76562647Y-124979178D01*
X76557747Y-124976661D01*
X76557696Y-124976631D01*
X76557631Y-124976604D01*
X76552688Y-124974201D01*
X76496729Y-124955555D01*
X76494145Y-124954662D01*
X76438574Y-124934773D01*
X76433192Y-124933611D01*
X76433129Y-124933593D01*
X76433066Y-124933585D01*
X76427663Y-124932542D01*
X76368740Y-124929011D01*
X76366014Y-124928817D01*
X63381291Y-123863108D01*
X63316086Y-123838006D01*
X63274804Y-123781636D01*
X63270551Y-123711896D01*
X63303755Y-123651840D01*
X63317684Y-123637910D01*
X63430548Y-123482565D01*
X63517730Y-123311464D01*
X63577073Y-123128827D01*
X63607114Y-122939158D01*
X63607114Y-122787416D01*
X77546428Y-122787416D01*
X77546428Y-122979525D01*
X77576481Y-123169273D01*
X77635844Y-123351977D01*
X77635846Y-123351980D01*
X77723063Y-123523152D01*
X77835983Y-123678573D01*
X77971826Y-123814416D01*
X78127247Y-123927336D01*
X78298419Y-124014553D01*
X78298421Y-124014554D01*
X78357009Y-124033590D01*
X78481127Y-124073918D01*
X78670873Y-124103971D01*
X78670874Y-124103971D01*
X78862982Y-124103971D01*
X78862983Y-124103971D01*
X79052729Y-124073918D01*
X79235437Y-124014553D01*
X79406609Y-123927336D01*
X79562030Y-123814416D01*
X79697873Y-123678573D01*
X79810793Y-123523152D01*
X79898010Y-123351980D01*
X79957375Y-123169272D01*
X79987428Y-122979526D01*
X79987428Y-122787416D01*
X86738172Y-122787416D01*
X86738172Y-122979525D01*
X86768225Y-123169273D01*
X86827588Y-123351977D01*
X86827590Y-123351980D01*
X86914807Y-123523152D01*
X87027727Y-123678573D01*
X87163570Y-123814416D01*
X87318991Y-123927336D01*
X87490163Y-124014553D01*
X87490165Y-124014554D01*
X87548753Y-124033590D01*
X87672871Y-124073918D01*
X87862617Y-124103971D01*
X87862618Y-124103971D01*
X88054726Y-124103971D01*
X88054727Y-124103971D01*
X88244473Y-124073918D01*
X88427181Y-124014553D01*
X88598353Y-123927336D01*
X88753774Y-123814416D01*
X88889617Y-123678573D01*
X89002537Y-123523152D01*
X89089754Y-123351980D01*
X89149119Y-123169272D01*
X89179172Y-122979526D01*
X89179172Y-122787416D01*
X89149119Y-122597670D01*
X89110396Y-122478492D01*
X89089755Y-122414964D01*
X89074806Y-122385626D01*
X89002537Y-122243790D01*
X88889617Y-122088369D01*
X88753774Y-121952526D01*
X88598353Y-121839606D01*
X88551926Y-121815950D01*
X88427178Y-121752387D01*
X88244474Y-121693024D01*
X88099106Y-121670000D01*
X88054727Y-121662971D01*
X87862617Y-121662971D01*
X87818238Y-121670000D01*
X87672869Y-121693024D01*
X87490165Y-121752387D01*
X87318990Y-121839606D01*
X87231505Y-121903168D01*
X87163570Y-121952526D01*
X87163568Y-121952528D01*
X87163567Y-121952528D01*
X87027729Y-122088366D01*
X87027729Y-122088367D01*
X87027727Y-122088369D01*
X86994457Y-122134161D01*
X86914807Y-122243789D01*
X86827588Y-122414964D01*
X86768225Y-122597668D01*
X86738172Y-122787416D01*
X79987428Y-122787416D01*
X79957375Y-122597670D01*
X79918652Y-122478492D01*
X79898011Y-122414964D01*
X79883062Y-122385626D01*
X79810793Y-122243790D01*
X79697873Y-122088369D01*
X79562030Y-121952526D01*
X79406609Y-121839606D01*
X79360182Y-121815950D01*
X79235434Y-121752387D01*
X79052730Y-121693024D01*
X78907362Y-121670000D01*
X78862983Y-121662971D01*
X78670873Y-121662971D01*
X78626494Y-121670000D01*
X78481125Y-121693024D01*
X78298421Y-121752387D01*
X78127246Y-121839606D01*
X78039761Y-121903168D01*
X77971826Y-121952526D01*
X77971824Y-121952528D01*
X77971823Y-121952528D01*
X77835985Y-122088366D01*
X77835985Y-122088367D01*
X77835983Y-122088369D01*
X77802713Y-122134161D01*
X77723063Y-122243789D01*
X77635844Y-122414964D01*
X77576481Y-122597668D01*
X77546428Y-122787416D01*
X63607114Y-122787416D01*
X63607114Y-122747127D01*
X63577072Y-122557457D01*
X63577072Y-122557454D01*
X63517733Y-122374828D01*
X63501329Y-122342634D01*
X62787114Y-122861543D01*
X62787114Y-122790482D01*
X62759855Y-122688749D01*
X62707194Y-122597537D01*
X62632720Y-122523063D01*
X62541508Y-122470402D01*
X62492788Y-122457347D01*
X63207435Y-121938125D01*
X63181882Y-121912572D01*
X63026536Y-121799708D01*
X62960352Y-121765985D01*
X62909556Y-121718010D01*
X62892761Y-121650189D01*
X62915299Y-121584054D01*
X62970014Y-121540603D01*
X63016647Y-121531500D01*
X76769804Y-121531500D01*
X76769805Y-121531499D01*
X76891035Y-121507386D01*
X76950641Y-121482695D01*
X76985558Y-121468233D01*
X76993315Y-121465019D01*
X77005233Y-121460083D01*
X77108008Y-121391411D01*
X77195411Y-121304008D01*
X77253970Y-121245449D01*
X77253982Y-121245435D01*
X77823387Y-120676031D01*
X80452500Y-120676031D01*
X80452500Y-120868141D01*
X80465795Y-120952079D01*
X80482553Y-121057888D01*
X80541916Y-121240592D01*
X80618763Y-121391411D01*
X80629135Y-121411767D01*
X80742055Y-121567188D01*
X80877898Y-121703031D01*
X81033319Y-121815951D01*
X81204491Y-121903168D01*
X81204493Y-121903169D01*
X81290784Y-121931206D01*
X81387199Y-121962533D01*
X81576945Y-121992586D01*
X81576946Y-121992586D01*
X81769054Y-121992586D01*
X81769055Y-121992586D01*
X81958801Y-121962533D01*
X82141509Y-121903168D01*
X82312681Y-121815951D01*
X82468102Y-121703031D01*
X82603945Y-121567188D01*
X82716865Y-121411767D01*
X82804082Y-121240595D01*
X82863447Y-121057887D01*
X82893500Y-120868141D01*
X82893500Y-120676031D01*
X83832100Y-120676031D01*
X83832100Y-120868141D01*
X83845395Y-120952079D01*
X83862153Y-121057888D01*
X83921516Y-121240592D01*
X83998363Y-121391411D01*
X84008735Y-121411767D01*
X84121655Y-121567188D01*
X84257498Y-121703031D01*
X84412919Y-121815951D01*
X84584091Y-121903168D01*
X84584093Y-121903169D01*
X84670384Y-121931206D01*
X84766799Y-121962533D01*
X84956545Y-121992586D01*
X84956546Y-121992586D01*
X85148654Y-121992586D01*
X85148655Y-121992586D01*
X85338401Y-121962533D01*
X85521109Y-121903168D01*
X85692281Y-121815951D01*
X85847702Y-121703031D01*
X85983545Y-121567188D01*
X86096465Y-121411767D01*
X86183682Y-121240595D01*
X86243047Y-121057887D01*
X86273100Y-120868141D01*
X86273100Y-120676031D01*
X86243047Y-120486285D01*
X86183682Y-120303577D01*
X86096465Y-120132405D01*
X85983545Y-119976984D01*
X85847702Y-119841141D01*
X85692281Y-119728221D01*
X85639464Y-119701309D01*
X85521106Y-119641002D01*
X85338402Y-119581639D01*
X85243528Y-119566612D01*
X85148655Y-119551586D01*
X84956545Y-119551586D01*
X84893296Y-119561603D01*
X84766797Y-119581639D01*
X84584093Y-119641002D01*
X84412918Y-119728221D01*
X84348883Y-119774746D01*
X84257498Y-119841141D01*
X84257496Y-119841143D01*
X84257495Y-119841143D01*
X84121657Y-119976981D01*
X84121657Y-119976982D01*
X84121655Y-119976984D01*
X84075639Y-120040319D01*
X84008735Y-120132404D01*
X83921516Y-120303579D01*
X83862153Y-120486283D01*
X83849305Y-120567405D01*
X83832100Y-120676031D01*
X82893500Y-120676031D01*
X82863447Y-120486285D01*
X82804082Y-120303577D01*
X82716865Y-120132405D01*
X82603945Y-119976984D01*
X82468102Y-119841141D01*
X82312681Y-119728221D01*
X82259864Y-119701309D01*
X82141506Y-119641002D01*
X81958802Y-119581639D01*
X81863928Y-119566612D01*
X81769055Y-119551586D01*
X81576945Y-119551586D01*
X81513696Y-119561603D01*
X81387197Y-119581639D01*
X81204493Y-119641002D01*
X81033318Y-119728221D01*
X80969283Y-119774746D01*
X80877898Y-119841141D01*
X80877896Y-119841143D01*
X80877895Y-119841143D01*
X80742057Y-119976981D01*
X80742057Y-119976982D01*
X80742055Y-119976984D01*
X80696039Y-120040319D01*
X80629135Y-120132404D01*
X80541916Y-120303579D01*
X80482553Y-120486283D01*
X80469705Y-120567405D01*
X80452500Y-120676031D01*
X77823387Y-120676031D01*
X79471601Y-119027819D01*
X79532924Y-118994334D01*
X79559282Y-118991500D01*
X92144719Y-118991500D01*
X92211758Y-119011185D01*
G37*
%TD.AperFunction*%
%TA.AperFunction,Conductor*%
G36*
X54500646Y-118452385D02*
G01*
X54539723Y-118492549D01*
X54553528Y-118515385D01*
X54553531Y-118515389D01*
X54673811Y-118635669D01*
X54673813Y-118635670D01*
X54673815Y-118635672D01*
X54819394Y-118723678D01*
X54981804Y-118774286D01*
X55052384Y-118780700D01*
X55052387Y-118780700D01*
X55565613Y-118780700D01*
X55565616Y-118780700D01*
X55636196Y-118774286D01*
X55798606Y-118723678D01*
X55944185Y-118635672D01*
X56046320Y-118533536D01*
X56107641Y-118500053D01*
X56177333Y-118505037D01*
X56221681Y-118533538D01*
X56323680Y-118635537D01*
X56357165Y-118696860D01*
X56352181Y-118766552D01*
X56323680Y-118810899D01*
X50830400Y-124304181D01*
X50769077Y-124337666D01*
X50742719Y-124340500D01*
X49566281Y-124340500D01*
X49499242Y-124320815D01*
X49453487Y-124268011D01*
X49443543Y-124198853D01*
X49472568Y-124135297D01*
X49478600Y-124128819D01*
X49988600Y-123618819D01*
X50049923Y-123585334D01*
X50076281Y-123582500D01*
X50126693Y-123582500D01*
X50126694Y-123582499D01*
X50184682Y-123570964D01*
X50300658Y-123547896D01*
X50300661Y-123547894D01*
X50300666Y-123547894D01*
X50464547Y-123480013D01*
X50612035Y-123381464D01*
X50737464Y-123256035D01*
X50836013Y-123108547D01*
X50903894Y-122944666D01*
X50908755Y-122920232D01*
X50938499Y-122770695D01*
X50938500Y-122770693D01*
X50938500Y-122593306D01*
X50938499Y-122593304D01*
X50903896Y-122419341D01*
X50903893Y-122419332D01*
X50836016Y-122255459D01*
X50836009Y-122255446D01*
X50737464Y-122107965D01*
X50737461Y-122107961D01*
X50612038Y-121982538D01*
X50612034Y-121982535D01*
X50464553Y-121883990D01*
X50464540Y-121883983D01*
X50300667Y-121816106D01*
X50300658Y-121816103D01*
X50126694Y-121781500D01*
X50126691Y-121781500D01*
X49949309Y-121781500D01*
X49949306Y-121781500D01*
X49775341Y-121816103D01*
X49775332Y-121816106D01*
X49611459Y-121883983D01*
X49611446Y-121883990D01*
X49463965Y-121982535D01*
X49463961Y-121982538D01*
X49338538Y-122107961D01*
X49338535Y-122107965D01*
X49239990Y-122255446D01*
X49239983Y-122255459D01*
X49172106Y-122419332D01*
X49172103Y-122419341D01*
X49137500Y-122593304D01*
X49137500Y-122643719D01*
X49117815Y-122710758D01*
X49101181Y-122731400D01*
X48544400Y-123288181D01*
X48483077Y-123321666D01*
X48456719Y-123324500D01*
X45269281Y-123324500D01*
X45202242Y-123304815D01*
X45181600Y-123288181D01*
X45000599Y-123107180D01*
X44967114Y-123045857D01*
X44972098Y-122976165D01*
X45013970Y-122920232D01*
X45079434Y-122895815D01*
X45088260Y-122895499D01*
X45472344Y-122895499D01*
X45472352Y-122895498D01*
X45472355Y-122895498D01*
X45526760Y-122889940D01*
X45571708Y-122885349D01*
X45732697Y-122832003D01*
X45877044Y-122742968D01*
X45886668Y-122733343D01*
X45947987Y-122699856D01*
X46017679Y-122704835D01*
X46062034Y-122733339D01*
X46071267Y-122742572D01*
X46071271Y-122742575D01*
X46215507Y-122831542D01*
X46215518Y-122831547D01*
X46376393Y-122884855D01*
X46475683Y-122894999D01*
X46999000Y-122894999D01*
X47022308Y-122894999D01*
X47022322Y-122894998D01*
X47121607Y-122884855D01*
X47282481Y-122831547D01*
X47282492Y-122831542D01*
X47426728Y-122742575D01*
X47426732Y-122742572D01*
X47546572Y-122622732D01*
X47546575Y-122622728D01*
X47635542Y-122478492D01*
X47635547Y-122478481D01*
X47688855Y-122317606D01*
X47698999Y-122218322D01*
X47699000Y-122218309D01*
X47699000Y-122170000D01*
X46999000Y-122170000D01*
X46999000Y-122894999D01*
X46475683Y-122894999D01*
X46499000Y-122894998D01*
X46499000Y-122044000D01*
X46518685Y-121976961D01*
X46571489Y-121931206D01*
X46623000Y-121920000D01*
X46749000Y-121920000D01*
X46749000Y-121794000D01*
X46768685Y-121726961D01*
X46821489Y-121681206D01*
X46873000Y-121670000D01*
X47698999Y-121670000D01*
X47698999Y-121621692D01*
X47698998Y-121621677D01*
X47688855Y-121522391D01*
X47661721Y-121440503D01*
X47659319Y-121370675D01*
X47695051Y-121310633D01*
X47757572Y-121279441D01*
X47779427Y-121277500D01*
X48067804Y-121277500D01*
X48067805Y-121277499D01*
X48189035Y-121253386D01*
X48276983Y-121216956D01*
X48303233Y-121206083D01*
X48406008Y-121137411D01*
X48493411Y-121050008D01*
X51074400Y-118469019D01*
X51135723Y-118435534D01*
X51162081Y-118432700D01*
X54433607Y-118432700D01*
X54500646Y-118452385D01*
G37*
%TD.AperFunction*%
%TA.AperFunction,Conductor*%
G36*
X59226872Y-120584256D02*
G01*
X59260151Y-120615686D01*
X59280728Y-120644008D01*
X59344784Y-120732173D01*
X59480627Y-120868016D01*
X59636048Y-120980936D01*
X59719582Y-121023499D01*
X59787323Y-121058015D01*
X59838119Y-121105990D01*
X59854914Y-121173811D01*
X59832376Y-121239946D01*
X59777661Y-121283397D01*
X59731028Y-121292500D01*
X56932281Y-121292500D01*
X56865242Y-121272815D01*
X56819487Y-121220011D01*
X56809543Y-121150853D01*
X56838568Y-121087297D01*
X56844600Y-121080819D01*
X57324529Y-120600890D01*
X57385852Y-120567405D01*
X57412210Y-120564571D01*
X59159833Y-120564571D01*
X59226872Y-120584256D01*
G37*
%TD.AperFunction*%
%TA.AperFunction,Conductor*%
G36*
X55487998Y-115630585D02*
G01*
X55533753Y-115683389D01*
X55543697Y-115752547D01*
X55514672Y-115816103D01*
X55489849Y-115838003D01*
X55479989Y-115844590D01*
X55479988Y-115844591D01*
X54908992Y-116415589D01*
X54865289Y-116459292D01*
X54821586Y-116502994D01*
X54821585Y-116502996D01*
X54752233Y-116606789D01*
X54750586Y-116611393D01*
X54705614Y-116719964D01*
X54705612Y-116719972D01*
X54683786Y-116829698D01*
X54683787Y-116829699D01*
X54681500Y-116841197D01*
X54681500Y-116915680D01*
X54661815Y-116982719D01*
X54645181Y-117003361D01*
X54553531Y-117095010D01*
X54553528Y-117095014D01*
X54539723Y-117117851D01*
X54488195Y-117165038D01*
X54433607Y-117177700D01*
X50788992Y-117177700D01*
X50667773Y-117201811D01*
X50667773Y-117201812D01*
X50667770Y-117201813D01*
X50667766Y-117201814D01*
X50600870Y-117229523D01*
X50600868Y-117229523D01*
X50553570Y-117249115D01*
X50450789Y-117317790D01*
X48095771Y-119672808D01*
X48034448Y-119706293D01*
X47964756Y-119701309D01*
X47908823Y-119659437D01*
X47884406Y-119593973D01*
X47891909Y-119541792D01*
X47898291Y-119524683D01*
X47904700Y-119465073D01*
X47904699Y-116269328D01*
X47898291Y-116209717D01*
X47847996Y-116074869D01*
X47847995Y-116074868D01*
X47847993Y-116074864D01*
X47761747Y-115959655D01*
X47761744Y-115959652D01*
X47646535Y-115873406D01*
X47646528Y-115873402D01*
X47586683Y-115851082D01*
X47530749Y-115809211D01*
X47506332Y-115743747D01*
X47521183Y-115675474D01*
X47570588Y-115626068D01*
X47630016Y-115610900D01*
X55420959Y-115610900D01*
X55487998Y-115630585D01*
G37*
%TD.AperFunction*%
%TA.AperFunction,Conductor*%
G36*
X78241758Y-116979185D02*
G01*
X78262400Y-116995819D01*
X78399899Y-117133318D01*
X78433384Y-117194641D01*
X78428400Y-117264333D01*
X78399899Y-117308680D01*
X77832822Y-117875758D01*
X76771661Y-118936920D01*
X76230400Y-119478181D01*
X76169077Y-119511666D01*
X76142719Y-119514500D01*
X63303281Y-119514500D01*
X63236242Y-119494815D01*
X63215600Y-119478181D01*
X62995286Y-119257867D01*
X62961801Y-119196544D01*
X62966785Y-119126852D01*
X63008657Y-119070919D01*
X63074121Y-119046502D01*
X63082967Y-119046186D01*
X63277855Y-119046186D01*
X63277856Y-119046186D01*
X63467602Y-119016133D01*
X63650310Y-118956768D01*
X63821482Y-118869551D01*
X63976903Y-118756631D01*
X64112746Y-118620788D01*
X64225666Y-118465367D01*
X64312883Y-118294195D01*
X64372248Y-118111487D01*
X64402301Y-117921741D01*
X64402301Y-117729631D01*
X64372248Y-117539885D01*
X64325523Y-117396079D01*
X64312884Y-117357179D01*
X64297716Y-117327411D01*
X64225666Y-117186005D01*
X64225664Y-117186002D01*
X64225663Y-117186000D01*
X64204147Y-117156386D01*
X64180666Y-117090580D01*
X64196491Y-117022526D01*
X64246596Y-116973831D01*
X64304464Y-116959500D01*
X78174719Y-116959500D01*
X78241758Y-116979185D01*
G37*
%TD.AperFunction*%
%TA.AperFunction,Conductor*%
G36*
X109991758Y-116979185D02*
G01*
X110012400Y-116995819D01*
X111413181Y-118396600D01*
X111446666Y-118457923D01*
X111449500Y-118484281D01*
X111449500Y-119153176D01*
X111429815Y-119220215D01*
X111377011Y-119265970D01*
X111307853Y-119275914D01*
X111244297Y-119246889D01*
X111235827Y-119238191D01*
X111235719Y-119238300D01*
X111193963Y-119196544D01*
X111144008Y-119146589D01*
X109874008Y-117876589D01*
X109874002Y-117876585D01*
X109873995Y-117876579D01*
X109872782Y-117875769D01*
X109771239Y-117807920D01*
X109771226Y-117807913D01*
X109715992Y-117785035D01*
X109657035Y-117760614D01*
X109657027Y-117760612D01*
X109535807Y-117736500D01*
X109535803Y-117736500D01*
X105602197Y-117736500D01*
X105602195Y-117736500D01*
X105480970Y-117760613D01*
X105480960Y-117760616D01*
X105366770Y-117807915D01*
X105265217Y-117875770D01*
X105265216Y-117875769D01*
X105264004Y-117876579D01*
X105263986Y-117876594D01*
X104881524Y-118259056D01*
X104820201Y-118292541D01*
X104750509Y-118287557D01*
X104694576Y-118245685D01*
X104670159Y-118180221D01*
X104675913Y-118133052D01*
X104682959Y-118111368D01*
X104713000Y-117921701D01*
X104713000Y-117729670D01*
X104682959Y-117540001D01*
X104623616Y-117357364D01*
X104536436Y-117186266D01*
X104514727Y-117156386D01*
X104491247Y-117090579D01*
X104507072Y-117022525D01*
X104557178Y-116973830D01*
X104615045Y-116959500D01*
X109924719Y-116959500D01*
X109991758Y-116979185D01*
G37*
%TD.AperFunction*%
%TA.AperFunction,Conductor*%
G36*
X102752873Y-116979185D02*
G01*
X102758719Y-116983182D01*
X103387325Y-117439890D01*
X103338606Y-117452945D01*
X103247394Y-117505606D01*
X103172920Y-117580080D01*
X103120259Y-117671292D01*
X103093000Y-117773025D01*
X103093000Y-117844086D01*
X102378783Y-117325178D01*
X102378782Y-117325178D01*
X102362384Y-117357363D01*
X102362379Y-117357375D01*
X102303041Y-117539997D01*
X102303041Y-117540000D01*
X102273000Y-117729670D01*
X102273000Y-117921701D01*
X102303040Y-118111370D01*
X102362383Y-118294007D01*
X102449565Y-118465108D01*
X102562429Y-118620454D01*
X102587982Y-118646007D01*
X103107204Y-117931359D01*
X103120259Y-117980080D01*
X103172920Y-118071292D01*
X103247394Y-118145766D01*
X103338606Y-118198427D01*
X103440339Y-118225686D01*
X103511400Y-118225686D01*
X102981242Y-118955385D01*
X102925912Y-118998051D01*
X102880924Y-119006500D01*
X95561281Y-119006500D01*
X95494242Y-118986815D01*
X95473600Y-118970181D01*
X94182600Y-117679181D01*
X94149115Y-117617858D01*
X94154099Y-117548166D01*
X94195971Y-117492233D01*
X94261435Y-117467816D01*
X94270281Y-117467500D01*
X101153804Y-117467500D01*
X101153805Y-117467499D01*
X101275035Y-117443386D01*
X101355784Y-117409937D01*
X101389233Y-117396083D01*
X101492008Y-117327411D01*
X101579411Y-117240008D01*
X101823600Y-116995819D01*
X101884923Y-116962334D01*
X101911281Y-116959500D01*
X102685834Y-116959500D01*
X102752873Y-116979185D01*
G37*
%TD.AperFunction*%
%TD*%
M02*
