%TF.GenerationSoftware,KiCad,Pcbnew,9.0.5*%
%TF.CreationDate,2026-03-10T20:02:44+00:00*%
%TF.ProjectId,gk-controls-trigger,676b2d63-6f6e-4747-926f-6c732d747269,rev?*%
%TF.SameCoordinates,Original*%
%TF.FileFunction,Drillmap*%
%TF.FilePolarity,Positive*%
%FSLAX45Y45*%
G04 Gerber Fmt 4.5, Leading zero omitted, Abs format (unit mm)*
G04 Created by KiCad (PCBNEW 9.0.5) date 2026-03-10 20:02:44*
%MOMM*%
%LPD*%
G01*
G04 APERTURE LIST*
%ADD10C,0.100000*%
%ADD11C,0.200000*%
G04 APERTURE END LIST*
D10*
X5822000Y-5537000D02*
X11820000Y-5537000D01*
X11820000Y-9360000D01*
X5822000Y-9360000D01*
X5822000Y-5537000D01*
D11*
D10*
X6175000Y-5922000D02*
X6275000Y-6022000D01*
X6275000Y-5922000D02*
X6175000Y-6022000D01*
X7506000Y-8982000D02*
X7606000Y-9082000D01*
X7606000Y-8982000D02*
X7506000Y-9082000D01*
X8771000Y-7350000D02*
X8871000Y-7450000D01*
X8871000Y-7350000D02*
X8771000Y-7450000D01*
X9025000Y-7350000D02*
X9125000Y-7450000D01*
X9125000Y-7350000D02*
X9025000Y-7450000D01*
X9279000Y-7350000D02*
X9379000Y-7450000D01*
X9379000Y-7350000D02*
X9279000Y-7450000D01*
X10790000Y-8912000D02*
X10890000Y-9012000D01*
X10890000Y-8912000D02*
X10790000Y-9012000D01*
X11126000Y-6427000D02*
X11226000Y-6527000D01*
X11226000Y-6427000D02*
X11126000Y-6527000D01*
D11*
X6077777Y-9676484D02*
X6077777Y-9476484D01*
X6077777Y-9476484D02*
X6125396Y-9476484D01*
X6125396Y-9476484D02*
X6153967Y-9486008D01*
X6153967Y-9486008D02*
X6173015Y-9505055D01*
X6173015Y-9505055D02*
X6182539Y-9524103D01*
X6182539Y-9524103D02*
X6192062Y-9562198D01*
X6192062Y-9562198D02*
X6192062Y-9590770D01*
X6192062Y-9590770D02*
X6182539Y-9628865D01*
X6182539Y-9628865D02*
X6173015Y-9647912D01*
X6173015Y-9647912D02*
X6153967Y-9666960D01*
X6153967Y-9666960D02*
X6125396Y-9676484D01*
X6125396Y-9676484D02*
X6077777Y-9676484D01*
X6277777Y-9676484D02*
X6277777Y-9543150D01*
X6277777Y-9581246D02*
X6287301Y-9562198D01*
X6287301Y-9562198D02*
X6296824Y-9552674D01*
X6296824Y-9552674D02*
X6315872Y-9543150D01*
X6315872Y-9543150D02*
X6334920Y-9543150D01*
X6401586Y-9676484D02*
X6401586Y-9543150D01*
X6401586Y-9476484D02*
X6392062Y-9486008D01*
X6392062Y-9486008D02*
X6401586Y-9495531D01*
X6401586Y-9495531D02*
X6411110Y-9486008D01*
X6411110Y-9486008D02*
X6401586Y-9476484D01*
X6401586Y-9476484D02*
X6401586Y-9495531D01*
X6525396Y-9676484D02*
X6506348Y-9666960D01*
X6506348Y-9666960D02*
X6496824Y-9647912D01*
X6496824Y-9647912D02*
X6496824Y-9476484D01*
X6630158Y-9676484D02*
X6611110Y-9666960D01*
X6611110Y-9666960D02*
X6601586Y-9647912D01*
X6601586Y-9647912D02*
X6601586Y-9476484D01*
X6858729Y-9676484D02*
X6858729Y-9476484D01*
X6858729Y-9476484D02*
X6925396Y-9619341D01*
X6925396Y-9619341D02*
X6992062Y-9476484D01*
X6992062Y-9476484D02*
X6992062Y-9676484D01*
X7173015Y-9676484D02*
X7173015Y-9571722D01*
X7173015Y-9571722D02*
X7163491Y-9552674D01*
X7163491Y-9552674D02*
X7144443Y-9543150D01*
X7144443Y-9543150D02*
X7106348Y-9543150D01*
X7106348Y-9543150D02*
X7087301Y-9552674D01*
X7173015Y-9666960D02*
X7153967Y-9676484D01*
X7153967Y-9676484D02*
X7106348Y-9676484D01*
X7106348Y-9676484D02*
X7087301Y-9666960D01*
X7087301Y-9666960D02*
X7077777Y-9647912D01*
X7077777Y-9647912D02*
X7077777Y-9628865D01*
X7077777Y-9628865D02*
X7087301Y-9609817D01*
X7087301Y-9609817D02*
X7106348Y-9600293D01*
X7106348Y-9600293D02*
X7153967Y-9600293D01*
X7153967Y-9600293D02*
X7173015Y-9590770D01*
X7268253Y-9543150D02*
X7268253Y-9743150D01*
X7268253Y-9552674D02*
X7287301Y-9543150D01*
X7287301Y-9543150D02*
X7325396Y-9543150D01*
X7325396Y-9543150D02*
X7344443Y-9552674D01*
X7344443Y-9552674D02*
X7353967Y-9562198D01*
X7353967Y-9562198D02*
X7363491Y-9581246D01*
X7363491Y-9581246D02*
X7363491Y-9638389D01*
X7363491Y-9638389D02*
X7353967Y-9657436D01*
X7353967Y-9657436D02*
X7344443Y-9666960D01*
X7344443Y-9666960D02*
X7325396Y-9676484D01*
X7325396Y-9676484D02*
X7287301Y-9676484D01*
X7287301Y-9676484D02*
X7268253Y-9666960D01*
X7449205Y-9657436D02*
X7458729Y-9666960D01*
X7458729Y-9666960D02*
X7449205Y-9676484D01*
X7449205Y-9676484D02*
X7439682Y-9666960D01*
X7439682Y-9666960D02*
X7449205Y-9657436D01*
X7449205Y-9657436D02*
X7449205Y-9676484D01*
X7449205Y-9552674D02*
X7458729Y-9562198D01*
X7458729Y-9562198D02*
X7449205Y-9571722D01*
X7449205Y-9571722D02*
X7439682Y-9562198D01*
X7439682Y-9562198D02*
X7449205Y-9552674D01*
X7449205Y-9552674D02*
X7449205Y-9571722D01*
D10*
X5717000Y-9955000D02*
X5817000Y-10055000D01*
X5817000Y-9955000D02*
X5717000Y-10055000D01*
D11*
X6182539Y-10096484D02*
X6068253Y-10096484D01*
X6125396Y-10096484D02*
X6125396Y-9896484D01*
X6125396Y-9896484D02*
X6106348Y-9925055D01*
X6106348Y-9925055D02*
X6087301Y-9944103D01*
X6087301Y-9944103D02*
X6068253Y-9953627D01*
X6268253Y-10077436D02*
X6277777Y-10086960D01*
X6277777Y-10086960D02*
X6268253Y-10096484D01*
X6268253Y-10096484D02*
X6258729Y-10086960D01*
X6258729Y-10086960D02*
X6268253Y-10077436D01*
X6268253Y-10077436D02*
X6268253Y-10096484D01*
X6401586Y-9896484D02*
X6420634Y-9896484D01*
X6420634Y-9896484D02*
X6439682Y-9906008D01*
X6439682Y-9906008D02*
X6449205Y-9915531D01*
X6449205Y-9915531D02*
X6458729Y-9934579D01*
X6458729Y-9934579D02*
X6468253Y-9972674D01*
X6468253Y-9972674D02*
X6468253Y-10020293D01*
X6468253Y-10020293D02*
X6458729Y-10058389D01*
X6458729Y-10058389D02*
X6449205Y-10077436D01*
X6449205Y-10077436D02*
X6439682Y-10086960D01*
X6439682Y-10086960D02*
X6420634Y-10096484D01*
X6420634Y-10096484D02*
X6401586Y-10096484D01*
X6401586Y-10096484D02*
X6382539Y-10086960D01*
X6382539Y-10086960D02*
X6373015Y-10077436D01*
X6373015Y-10077436D02*
X6363491Y-10058389D01*
X6363491Y-10058389D02*
X6353967Y-10020293D01*
X6353967Y-10020293D02*
X6353967Y-9972674D01*
X6353967Y-9972674D02*
X6363491Y-9934579D01*
X6363491Y-9934579D02*
X6373015Y-9915531D01*
X6373015Y-9915531D02*
X6382539Y-9906008D01*
X6382539Y-9906008D02*
X6401586Y-9896484D01*
X6592062Y-9896484D02*
X6611110Y-9896484D01*
X6611110Y-9896484D02*
X6630158Y-9906008D01*
X6630158Y-9906008D02*
X6639682Y-9915531D01*
X6639682Y-9915531D02*
X6649205Y-9934579D01*
X6649205Y-9934579D02*
X6658729Y-9972674D01*
X6658729Y-9972674D02*
X6658729Y-10020293D01*
X6658729Y-10020293D02*
X6649205Y-10058389D01*
X6649205Y-10058389D02*
X6639682Y-10077436D01*
X6639682Y-10077436D02*
X6630158Y-10086960D01*
X6630158Y-10086960D02*
X6611110Y-10096484D01*
X6611110Y-10096484D02*
X6592062Y-10096484D01*
X6592062Y-10096484D02*
X6573015Y-10086960D01*
X6573015Y-10086960D02*
X6563491Y-10077436D01*
X6563491Y-10077436D02*
X6553967Y-10058389D01*
X6553967Y-10058389D02*
X6544443Y-10020293D01*
X6544443Y-10020293D02*
X6544443Y-9972674D01*
X6544443Y-9972674D02*
X6553967Y-9934579D01*
X6553967Y-9934579D02*
X6563491Y-9915531D01*
X6563491Y-9915531D02*
X6573015Y-9906008D01*
X6573015Y-9906008D02*
X6592062Y-9896484D01*
X6782539Y-9896484D02*
X6801586Y-9896484D01*
X6801586Y-9896484D02*
X6820634Y-9906008D01*
X6820634Y-9906008D02*
X6830158Y-9915531D01*
X6830158Y-9915531D02*
X6839682Y-9934579D01*
X6839682Y-9934579D02*
X6849205Y-9972674D01*
X6849205Y-9972674D02*
X6849205Y-10020293D01*
X6849205Y-10020293D02*
X6839682Y-10058389D01*
X6839682Y-10058389D02*
X6830158Y-10077436D01*
X6830158Y-10077436D02*
X6820634Y-10086960D01*
X6820634Y-10086960D02*
X6801586Y-10096484D01*
X6801586Y-10096484D02*
X6782539Y-10096484D01*
X6782539Y-10096484D02*
X6763491Y-10086960D01*
X6763491Y-10086960D02*
X6753967Y-10077436D01*
X6753967Y-10077436D02*
X6744443Y-10058389D01*
X6744443Y-10058389D02*
X6734920Y-10020293D01*
X6734920Y-10020293D02*
X6734920Y-9972674D01*
X6734920Y-9972674D02*
X6744443Y-9934579D01*
X6744443Y-9934579D02*
X6753967Y-9915531D01*
X6753967Y-9915531D02*
X6763491Y-9906008D01*
X6763491Y-9906008D02*
X6782539Y-9896484D01*
X6934920Y-10096484D02*
X6934920Y-9963150D01*
X6934920Y-9982198D02*
X6944443Y-9972674D01*
X6944443Y-9972674D02*
X6963491Y-9963150D01*
X6963491Y-9963150D02*
X6992063Y-9963150D01*
X6992063Y-9963150D02*
X7011110Y-9972674D01*
X7011110Y-9972674D02*
X7020634Y-9991722D01*
X7020634Y-9991722D02*
X7020634Y-10096484D01*
X7020634Y-9991722D02*
X7030158Y-9972674D01*
X7030158Y-9972674D02*
X7049205Y-9963150D01*
X7049205Y-9963150D02*
X7077777Y-9963150D01*
X7077777Y-9963150D02*
X7096824Y-9972674D01*
X7096824Y-9972674D02*
X7106348Y-9991722D01*
X7106348Y-9991722D02*
X7106348Y-10096484D01*
X7201586Y-10096484D02*
X7201586Y-9963150D01*
X7201586Y-9982198D02*
X7211110Y-9972674D01*
X7211110Y-9972674D02*
X7230158Y-9963150D01*
X7230158Y-9963150D02*
X7258729Y-9963150D01*
X7258729Y-9963150D02*
X7277777Y-9972674D01*
X7277777Y-9972674D02*
X7287301Y-9991722D01*
X7287301Y-9991722D02*
X7287301Y-10096484D01*
X7287301Y-9991722D02*
X7296824Y-9972674D01*
X7296824Y-9972674D02*
X7315872Y-9963150D01*
X7315872Y-9963150D02*
X7344443Y-9963150D01*
X7344443Y-9963150D02*
X7363491Y-9972674D01*
X7363491Y-9972674D02*
X7373015Y-9991722D01*
X7373015Y-9991722D02*
X7373015Y-10096484D01*
X7763491Y-9886960D02*
X7592063Y-10144103D01*
X8020634Y-9896484D02*
X8039682Y-9896484D01*
X8039682Y-9896484D02*
X8058729Y-9906008D01*
X8058729Y-9906008D02*
X8068253Y-9915531D01*
X8068253Y-9915531D02*
X8077777Y-9934579D01*
X8077777Y-9934579D02*
X8087301Y-9972674D01*
X8087301Y-9972674D02*
X8087301Y-10020293D01*
X8087301Y-10020293D02*
X8077777Y-10058389D01*
X8077777Y-10058389D02*
X8068253Y-10077436D01*
X8068253Y-10077436D02*
X8058729Y-10086960D01*
X8058729Y-10086960D02*
X8039682Y-10096484D01*
X8039682Y-10096484D02*
X8020634Y-10096484D01*
X8020634Y-10096484D02*
X8001586Y-10086960D01*
X8001586Y-10086960D02*
X7992063Y-10077436D01*
X7992063Y-10077436D02*
X7982539Y-10058389D01*
X7982539Y-10058389D02*
X7973015Y-10020293D01*
X7973015Y-10020293D02*
X7973015Y-9972674D01*
X7973015Y-9972674D02*
X7982539Y-9934579D01*
X7982539Y-9934579D02*
X7992063Y-9915531D01*
X7992063Y-9915531D02*
X8001586Y-9906008D01*
X8001586Y-9906008D02*
X8020634Y-9896484D01*
X8173015Y-10077436D02*
X8182539Y-10086960D01*
X8182539Y-10086960D02*
X8173015Y-10096484D01*
X8173015Y-10096484D02*
X8163491Y-10086960D01*
X8163491Y-10086960D02*
X8173015Y-10077436D01*
X8173015Y-10077436D02*
X8173015Y-10096484D01*
X8306348Y-9896484D02*
X8325396Y-9896484D01*
X8325396Y-9896484D02*
X8344444Y-9906008D01*
X8344444Y-9906008D02*
X8353967Y-9915531D01*
X8353967Y-9915531D02*
X8363491Y-9934579D01*
X8363491Y-9934579D02*
X8373015Y-9972674D01*
X8373015Y-9972674D02*
X8373015Y-10020293D01*
X8373015Y-10020293D02*
X8363491Y-10058389D01*
X8363491Y-10058389D02*
X8353967Y-10077436D01*
X8353967Y-10077436D02*
X8344444Y-10086960D01*
X8344444Y-10086960D02*
X8325396Y-10096484D01*
X8325396Y-10096484D02*
X8306348Y-10096484D01*
X8306348Y-10096484D02*
X8287301Y-10086960D01*
X8287301Y-10086960D02*
X8277777Y-10077436D01*
X8277777Y-10077436D02*
X8268253Y-10058389D01*
X8268253Y-10058389D02*
X8258729Y-10020293D01*
X8258729Y-10020293D02*
X8258729Y-9972674D01*
X8258729Y-9972674D02*
X8268253Y-9934579D01*
X8268253Y-9934579D02*
X8277777Y-9915531D01*
X8277777Y-9915531D02*
X8287301Y-9906008D01*
X8287301Y-9906008D02*
X8306348Y-9896484D01*
X8439682Y-9896484D02*
X8563491Y-9896484D01*
X8563491Y-9896484D02*
X8496825Y-9972674D01*
X8496825Y-9972674D02*
X8525396Y-9972674D01*
X8525396Y-9972674D02*
X8544444Y-9982198D01*
X8544444Y-9982198D02*
X8553968Y-9991722D01*
X8553968Y-9991722D02*
X8563491Y-10010770D01*
X8563491Y-10010770D02*
X8563491Y-10058389D01*
X8563491Y-10058389D02*
X8553968Y-10077436D01*
X8553968Y-10077436D02*
X8544444Y-10086960D01*
X8544444Y-10086960D02*
X8525396Y-10096484D01*
X8525396Y-10096484D02*
X8468253Y-10096484D01*
X8468253Y-10096484D02*
X8449206Y-10086960D01*
X8449206Y-10086960D02*
X8439682Y-10077436D01*
X8658729Y-10096484D02*
X8696825Y-10096484D01*
X8696825Y-10096484D02*
X8715872Y-10086960D01*
X8715872Y-10086960D02*
X8725396Y-10077436D01*
X8725396Y-10077436D02*
X8744444Y-10048865D01*
X8744444Y-10048865D02*
X8753968Y-10010770D01*
X8753968Y-10010770D02*
X8753968Y-9934579D01*
X8753968Y-9934579D02*
X8744444Y-9915531D01*
X8744444Y-9915531D02*
X8734920Y-9906008D01*
X8734920Y-9906008D02*
X8715872Y-9896484D01*
X8715872Y-9896484D02*
X8677777Y-9896484D01*
X8677777Y-9896484D02*
X8658729Y-9906008D01*
X8658729Y-9906008D02*
X8649206Y-9915531D01*
X8649206Y-9915531D02*
X8639682Y-9934579D01*
X8639682Y-9934579D02*
X8639682Y-9982198D01*
X8639682Y-9982198D02*
X8649206Y-10001246D01*
X8649206Y-10001246D02*
X8658729Y-10010770D01*
X8658729Y-10010770D02*
X8677777Y-10020293D01*
X8677777Y-10020293D02*
X8715872Y-10020293D01*
X8715872Y-10020293D02*
X8734920Y-10010770D01*
X8734920Y-10010770D02*
X8744444Y-10001246D01*
X8744444Y-10001246D02*
X8753968Y-9982198D01*
X8925396Y-9963150D02*
X8925396Y-10096484D01*
X8877777Y-9886960D02*
X8830158Y-10029817D01*
X8830158Y-10029817D02*
X8953968Y-10029817D01*
X9020634Y-9896484D02*
X9020634Y-9934579D01*
X9096825Y-9896484D02*
X9096825Y-9934579D01*
X9392063Y-10172674D02*
X9382539Y-10163150D01*
X9382539Y-10163150D02*
X9363491Y-10134579D01*
X9363491Y-10134579D02*
X9353968Y-10115531D01*
X9353968Y-10115531D02*
X9344444Y-10086960D01*
X9344444Y-10086960D02*
X9334920Y-10039341D01*
X9334920Y-10039341D02*
X9334920Y-10001246D01*
X9334920Y-10001246D02*
X9344444Y-9953627D01*
X9344444Y-9953627D02*
X9353968Y-9925055D01*
X9353968Y-9925055D02*
X9363491Y-9906008D01*
X9363491Y-9906008D02*
X9382539Y-9877436D01*
X9382539Y-9877436D02*
X9392063Y-9867912D01*
X9449206Y-9896484D02*
X9582539Y-9896484D01*
X9582539Y-9896484D02*
X9496825Y-10096484D01*
X9811111Y-10096484D02*
X9811111Y-9896484D01*
X9896825Y-10096484D02*
X9896825Y-9991722D01*
X9896825Y-9991722D02*
X9887301Y-9972674D01*
X9887301Y-9972674D02*
X9868253Y-9963150D01*
X9868253Y-9963150D02*
X9839682Y-9963150D01*
X9839682Y-9963150D02*
X9820634Y-9972674D01*
X9820634Y-9972674D02*
X9811111Y-9982198D01*
X10020634Y-10096484D02*
X10001587Y-10086960D01*
X10001587Y-10086960D02*
X9992063Y-10077436D01*
X9992063Y-10077436D02*
X9982539Y-10058389D01*
X9982539Y-10058389D02*
X9982539Y-10001246D01*
X9982539Y-10001246D02*
X9992063Y-9982198D01*
X9992063Y-9982198D02*
X10001587Y-9972674D01*
X10001587Y-9972674D02*
X10020634Y-9963150D01*
X10020634Y-9963150D02*
X10049206Y-9963150D01*
X10049206Y-9963150D02*
X10068253Y-9972674D01*
X10068253Y-9972674D02*
X10077777Y-9982198D01*
X10077777Y-9982198D02*
X10087301Y-10001246D01*
X10087301Y-10001246D02*
X10087301Y-10058389D01*
X10087301Y-10058389D02*
X10077777Y-10077436D01*
X10077777Y-10077436D02*
X10068253Y-10086960D01*
X10068253Y-10086960D02*
X10049206Y-10096484D01*
X10049206Y-10096484D02*
X10020634Y-10096484D01*
X10201587Y-10096484D02*
X10182539Y-10086960D01*
X10182539Y-10086960D02*
X10173015Y-10067912D01*
X10173015Y-10067912D02*
X10173015Y-9896484D01*
X10353968Y-10086960D02*
X10334920Y-10096484D01*
X10334920Y-10096484D02*
X10296825Y-10096484D01*
X10296825Y-10096484D02*
X10277777Y-10086960D01*
X10277777Y-10086960D02*
X10268253Y-10067912D01*
X10268253Y-10067912D02*
X10268253Y-9991722D01*
X10268253Y-9991722D02*
X10277777Y-9972674D01*
X10277777Y-9972674D02*
X10296825Y-9963150D01*
X10296825Y-9963150D02*
X10334920Y-9963150D01*
X10334920Y-9963150D02*
X10353968Y-9972674D01*
X10353968Y-9972674D02*
X10363492Y-9991722D01*
X10363492Y-9991722D02*
X10363492Y-10010770D01*
X10363492Y-10010770D02*
X10268253Y-10029817D01*
X10439682Y-10086960D02*
X10458730Y-10096484D01*
X10458730Y-10096484D02*
X10496825Y-10096484D01*
X10496825Y-10096484D02*
X10515873Y-10086960D01*
X10515873Y-10086960D02*
X10525396Y-10067912D01*
X10525396Y-10067912D02*
X10525396Y-10058389D01*
X10525396Y-10058389D02*
X10515873Y-10039341D01*
X10515873Y-10039341D02*
X10496825Y-10029817D01*
X10496825Y-10029817D02*
X10468253Y-10029817D01*
X10468253Y-10029817D02*
X10449206Y-10020293D01*
X10449206Y-10020293D02*
X10439682Y-10001246D01*
X10439682Y-10001246D02*
X10439682Y-9991722D01*
X10439682Y-9991722D02*
X10449206Y-9972674D01*
X10449206Y-9972674D02*
X10468253Y-9963150D01*
X10468253Y-9963150D02*
X10496825Y-9963150D01*
X10496825Y-9963150D02*
X10515873Y-9972674D01*
X10592063Y-10172674D02*
X10601587Y-10163150D01*
X10601587Y-10163150D02*
X10620634Y-10134579D01*
X10620634Y-10134579D02*
X10630158Y-10115531D01*
X10630158Y-10115531D02*
X10639682Y-10086960D01*
X10639682Y-10086960D02*
X10649206Y-10039341D01*
X10649206Y-10039341D02*
X10649206Y-10001246D01*
X10649206Y-10001246D02*
X10639682Y-9953627D01*
X10639682Y-9953627D02*
X10630158Y-9925055D01*
X10630158Y-9925055D02*
X10620634Y-9906008D01*
X10620634Y-9906008D02*
X10601587Y-9877436D01*
X10601587Y-9877436D02*
X10592063Y-9867912D01*
M02*
