%TF.GenerationSoftware,KiCad,Pcbnew,9.0.5*%
%TF.CreationDate,2026-03-10T20:02:33+00:00*%
%TF.ProjectId,gk-controls-trigger,676b2d63-6f6e-4747-926f-6c732d747269,rev?*%
%TF.SameCoordinates,Original*%
%TF.FileFunction,Legend,Bot*%
%TF.FilePolarity,Positive*%
%FSLAX46Y46*%
G04 Gerber Fmt 4.6, Leading zero omitted, Abs format (unit mm)*
G04 Created by KiCad (PCBNEW 9.0.5) date 2026-03-10 20:02:33*
%MOMM*%
%LPD*%
G01*
G04 APERTURE LIST*
%ADD10C,0.125000*%
%ADD11C,0.150000*%
%ADD12C,0.120000*%
%ADD13R,1.700000X1.700000*%
%ADD14C,1.700000*%
G04 APERTURE END LIST*
D10*
X91311119Y-76996521D02*
X91311119Y-76520331D01*
X91311119Y-76520331D02*
X90311119Y-76520331D01*
X90311119Y-77186998D02*
X90311119Y-77758426D01*
X91311119Y-77472712D02*
X90311119Y-77472712D01*
X93851119Y-77091759D02*
X93374928Y-76758426D01*
X93851119Y-76520331D02*
X92851119Y-76520331D01*
X92851119Y-76520331D02*
X92851119Y-76901283D01*
X92851119Y-76901283D02*
X92898738Y-76996521D01*
X92898738Y-76996521D02*
X92946357Y-77044140D01*
X92946357Y-77044140D02*
X93041595Y-77091759D01*
X93041595Y-77091759D02*
X93184452Y-77091759D01*
X93184452Y-77091759D02*
X93279690Y-77044140D01*
X93279690Y-77044140D02*
X93327309Y-76996521D01*
X93327309Y-76996521D02*
X93374928Y-76901283D01*
X93374928Y-76901283D02*
X93374928Y-76520331D01*
X92851119Y-77377474D02*
X92851119Y-77948902D01*
X93851119Y-77663188D02*
X92851119Y-77663188D01*
X87818738Y-77044140D02*
X87771119Y-76948902D01*
X87771119Y-76948902D02*
X87771119Y-76806045D01*
X87771119Y-76806045D02*
X87818738Y-76663188D01*
X87818738Y-76663188D02*
X87913976Y-76567950D01*
X87913976Y-76567950D02*
X88009214Y-76520331D01*
X88009214Y-76520331D02*
X88199690Y-76472712D01*
X88199690Y-76472712D02*
X88342547Y-76472712D01*
X88342547Y-76472712D02*
X88533023Y-76520331D01*
X88533023Y-76520331D02*
X88628261Y-76567950D01*
X88628261Y-76567950D02*
X88723500Y-76663188D01*
X88723500Y-76663188D02*
X88771119Y-76806045D01*
X88771119Y-76806045D02*
X88771119Y-76901283D01*
X88771119Y-76901283D02*
X88723500Y-77044140D01*
X88723500Y-77044140D02*
X88675880Y-77091759D01*
X88675880Y-77091759D02*
X88342547Y-77091759D01*
X88342547Y-77091759D02*
X88342547Y-76901283D01*
X88771119Y-77520331D02*
X87771119Y-77520331D01*
X87771119Y-77520331D02*
X88771119Y-78091759D01*
X88771119Y-78091759D02*
X87771119Y-78091759D01*
X88771119Y-78567950D02*
X87771119Y-78567950D01*
X87771119Y-78567950D02*
X87771119Y-78806045D01*
X87771119Y-78806045D02*
X87818738Y-78948902D01*
X87818738Y-78948902D02*
X87913976Y-79044140D01*
X87913976Y-79044140D02*
X88009214Y-79091759D01*
X88009214Y-79091759D02*
X88199690Y-79139378D01*
X88199690Y-79139378D02*
X88342547Y-79139378D01*
X88342547Y-79139378D02*
X88533023Y-79091759D01*
X88533023Y-79091759D02*
X88628261Y-79044140D01*
X88628261Y-79044140D02*
X88723500Y-78948902D01*
X88723500Y-78948902D02*
X88771119Y-78806045D01*
X88771119Y-78806045D02*
X88771119Y-78567950D01*
D11*
X109745237Y-79407200D02*
X109602380Y-79454819D01*
X109602380Y-79454819D02*
X109364285Y-79454819D01*
X109364285Y-79454819D02*
X109269047Y-79407200D01*
X109269047Y-79407200D02*
X109221428Y-79359580D01*
X109221428Y-79359580D02*
X109173809Y-79264342D01*
X109173809Y-79264342D02*
X109173809Y-79169104D01*
X109173809Y-79169104D02*
X109221428Y-79073866D01*
X109221428Y-79073866D02*
X109269047Y-79026247D01*
X109269047Y-79026247D02*
X109364285Y-78978628D01*
X109364285Y-78978628D02*
X109554761Y-78931009D01*
X109554761Y-78931009D02*
X109649999Y-78883390D01*
X109649999Y-78883390D02*
X109697618Y-78835771D01*
X109697618Y-78835771D02*
X109745237Y-78740533D01*
X109745237Y-78740533D02*
X109745237Y-78645295D01*
X109745237Y-78645295D02*
X109697618Y-78550057D01*
X109697618Y-78550057D02*
X109649999Y-78502438D01*
X109649999Y-78502438D02*
X109554761Y-78454819D01*
X109554761Y-78454819D02*
X109316666Y-78454819D01*
X109316666Y-78454819D02*
X109173809Y-78502438D01*
X108840475Y-78454819D02*
X108602380Y-79454819D01*
X108602380Y-79454819D02*
X108411904Y-78740533D01*
X108411904Y-78740533D02*
X108221428Y-79454819D01*
X108221428Y-79454819D02*
X107983333Y-78454819D01*
X107840476Y-79550057D02*
X107078571Y-79550057D01*
X106269047Y-79454819D02*
X106602380Y-78978628D01*
X106840475Y-79454819D02*
X106840475Y-78454819D01*
X106840475Y-78454819D02*
X106459523Y-78454819D01*
X106459523Y-78454819D02*
X106364285Y-78502438D01*
X106364285Y-78502438D02*
X106316666Y-78550057D01*
X106316666Y-78550057D02*
X106269047Y-78645295D01*
X106269047Y-78645295D02*
X106269047Y-78788152D01*
X106269047Y-78788152D02*
X106316666Y-78883390D01*
X106316666Y-78883390D02*
X106364285Y-78931009D01*
X106364285Y-78931009D02*
X106459523Y-78978628D01*
X106459523Y-78978628D02*
X106840475Y-78978628D01*
X105983332Y-78454819D02*
X105411904Y-78454819D01*
X105697618Y-79454819D02*
X105697618Y-78454819D01*
X104554761Y-79454819D02*
X105126189Y-79454819D01*
X104840475Y-79454819D02*
X104840475Y-78454819D01*
X104840475Y-78454819D02*
X104935713Y-78597676D01*
X104935713Y-78597676D02*
X105030951Y-78692914D01*
X105030951Y-78692914D02*
X105126189Y-78740533D01*
X76849999Y-79407200D02*
X76707142Y-79454819D01*
X76707142Y-79454819D02*
X76469047Y-79454819D01*
X76469047Y-79454819D02*
X76373809Y-79407200D01*
X76373809Y-79407200D02*
X76326190Y-79359580D01*
X76326190Y-79359580D02*
X76278571Y-79264342D01*
X76278571Y-79264342D02*
X76278571Y-79169104D01*
X76278571Y-79169104D02*
X76326190Y-79073866D01*
X76326190Y-79073866D02*
X76373809Y-79026247D01*
X76373809Y-79026247D02*
X76469047Y-78978628D01*
X76469047Y-78978628D02*
X76659523Y-78931009D01*
X76659523Y-78931009D02*
X76754761Y-78883390D01*
X76754761Y-78883390D02*
X76802380Y-78835771D01*
X76802380Y-78835771D02*
X76849999Y-78740533D01*
X76849999Y-78740533D02*
X76849999Y-78645295D01*
X76849999Y-78645295D02*
X76802380Y-78550057D01*
X76802380Y-78550057D02*
X76754761Y-78502438D01*
X76754761Y-78502438D02*
X76659523Y-78454819D01*
X76659523Y-78454819D02*
X76421428Y-78454819D01*
X76421428Y-78454819D02*
X76278571Y-78502438D01*
X75945237Y-78454819D02*
X75707142Y-79454819D01*
X75707142Y-79454819D02*
X75516666Y-78740533D01*
X75516666Y-78740533D02*
X75326190Y-79454819D01*
X75326190Y-79454819D02*
X75088095Y-78454819D01*
X74945238Y-79550057D02*
X74183333Y-79550057D01*
X73469047Y-79454819D02*
X73945237Y-79454819D01*
X73945237Y-79454819D02*
X73945237Y-78454819D01*
X73278570Y-78454819D02*
X72707142Y-78454819D01*
X72992856Y-79454819D02*
X72992856Y-78454819D01*
X71849999Y-79454819D02*
X72421427Y-79454819D01*
X72135713Y-79454819D02*
X72135713Y-78454819D01*
X72135713Y-78454819D02*
X72230951Y-78597676D01*
X72230951Y-78597676D02*
X72326189Y-78692914D01*
X72326189Y-78692914D02*
X72421427Y-78740533D01*
%TO.C,SW_RT1*%
X103150000Y-78000000D02*
X111150000Y-78000000D01*
X103150000Y-70000000D02*
X103150000Y-78000000D01*
X111150000Y-78000000D02*
X111150000Y-70000000D01*
X111150000Y-70000000D02*
X103150000Y-70000000D01*
%TO.C,SW_LT1*%
X70350000Y-78000000D02*
X78350000Y-78000000D01*
X70350000Y-70000000D02*
X70350000Y-78000000D01*
X78350000Y-78000000D02*
X78350000Y-70000000D01*
X78350000Y-70000000D02*
X70350000Y-70000000D01*
%TD*%
%LPC*%
%TO.C,SW_RT1*%
D12*
X103086000Y-78064000D02*
X111214000Y-78064000D01*
X111214000Y-69936000D01*
X103086000Y-69936000D01*
X103086000Y-78064000D01*
G36*
X103086000Y-78064000D02*
G01*
X111214000Y-78064000D01*
X111214000Y-69936000D01*
X103086000Y-69936000D01*
X103086000Y-78064000D01*
G37*
%TO.C,SW_LT1*%
X70286000Y-78064000D02*
X78414000Y-78064000D01*
X78414000Y-69936000D01*
X70286000Y-69936000D01*
X70286000Y-78064000D01*
G36*
X70286000Y-78064000D02*
G01*
X78414000Y-78064000D01*
X78414000Y-69936000D01*
X70286000Y-69936000D01*
X70286000Y-78064000D01*
G37*
%TD*%
D13*
%TO.C,J2*%
X62250000Y-59720000D03*
%TD*%
%TO.C,J5*%
X108400000Y-89620000D03*
%TD*%
%TO.C,J4*%
X75560000Y-90320000D03*
%TD*%
%TO.C,J3*%
X111760000Y-64770000D03*
%TD*%
%TO.C,J1*%
X88210000Y-74000000D03*
D14*
X90750000Y-74000000D03*
X93290000Y-74000000D03*
%TD*%
%LPD*%
M02*
