%TF.GenerationSoftware,KiCad,Pcbnew,9.0.5*%
%TF.CreationDate,2026-03-10T20:02:33+00:00*%
%TF.ProjectId,gk-controls-trigger,676b2d63-6f6e-4747-926f-6c732d747269,rev?*%
%TF.SameCoordinates,Original*%
%TF.FileFunction,Copper,L2,Bot*%
%TF.FilePolarity,Positive*%
%FSLAX46Y46*%
G04 Gerber Fmt 4.6, Leading zero omitted, Abs format (unit mm)*
G04 Created by KiCad (PCBNEW 9.0.5) date 2026-03-10 20:02:33*
%MOMM*%
%LPD*%
G01*
G04 APERTURE LIST*
%TA.AperFunction,ComponentPad*%
%ADD10R,1.700000X1.700000*%
%TD*%
%TA.AperFunction,SMDPad,CuDef*%
%ADD11R,0.675000X7.000000*%
%TD*%
%TA.AperFunction,SMDPad,CuDef*%
%ADD12R,0.250000X6.100000*%
%TD*%
%TA.AperFunction,SMDPad,CuDef*%
%ADD13R,3.492000X0.500000*%
%TD*%
%TA.AperFunction,SMDPad,CuDef*%
%ADD14R,8.000000X0.500000*%
%TD*%
%TA.AperFunction,SMDPad,CuDef*%
%ADD15R,0.400000X6.500000*%
%TD*%
%TA.AperFunction,SMDPad,CuDef*%
%ADD16R,6.150000X0.400000*%
%TD*%
%TA.AperFunction,SMDPad,CuDef*%
%ADD17R,0.400000X1.140000*%
%TD*%
%TA.AperFunction,ComponentPad*%
%ADD18C,1.700000*%
%TD*%
%TA.AperFunction,Conductor*%
%ADD19C,0.304800*%
%TD*%
G04 APERTURE END LIST*
D10*
%TO.P,J2,1,Pin_1*%
%TO.N,unconnected-(J2-Pin_1-Pad1)*%
X62250000Y-59720000D03*
%TD*%
D11*
%TO.P,SW_RT1,1,1*%
%TO.N,Net-(J1-Pin_1)*%
X103487500Y-74000000D03*
D12*
X104850000Y-74450001D03*
D13*
X104896000Y-70250000D03*
D12*
X106000000Y-74450001D03*
D14*
X107150000Y-77750000D03*
D12*
X107150000Y-74450001D03*
X108300000Y-74450001D03*
D13*
X109404000Y-70250000D03*
D12*
X109450000Y-74450001D03*
D11*
X110812500Y-74000000D03*
D15*
%TO.P,SW_RT1,2,2*%
%TO.N,Net-(J1-Pin_3)*%
X104275000Y-74000000D03*
X105425000Y-74000000D03*
X106575000Y-74000000D03*
D16*
X107150000Y-70950000D03*
D17*
X107150000Y-70545000D03*
D15*
X107725000Y-74000000D03*
X108875000Y-74000000D03*
X110025000Y-74000000D03*
%TD*%
D11*
%TO.P,SW_LT1,1,1*%
%TO.N,Net-(J1-Pin_1)*%
X70687500Y-74000000D03*
D12*
X72050000Y-74450001D03*
D13*
X72096000Y-70250000D03*
D12*
X73200000Y-74450001D03*
D14*
X74350000Y-77750000D03*
D12*
X74350000Y-74450001D03*
X75500000Y-74450001D03*
D13*
X76604000Y-70250000D03*
D12*
X76650000Y-74450001D03*
D11*
X78012500Y-74000000D03*
D15*
%TO.P,SW_LT1,2,2*%
%TO.N,Net-(J1-Pin_2)*%
X71475000Y-74000000D03*
X72625000Y-74000000D03*
X73775000Y-74000000D03*
D16*
X74350000Y-70950000D03*
D17*
X74350000Y-70545000D03*
D15*
X74925000Y-74000000D03*
X76075000Y-74000000D03*
X77225000Y-74000000D03*
%TD*%
D10*
%TO.P,J5,1,Pin_1*%
%TO.N,unconnected-(J5-Pin_1-Pad1)*%
X108400000Y-89620000D03*
%TD*%
%TO.P,J4,1,Pin_1*%
%TO.N,unconnected-(J4-Pin_1-Pad1)*%
X75560000Y-90320000D03*
%TD*%
%TO.P,J3,1,Pin_1*%
%TO.N,unconnected-(J3-Pin_1-Pad1)*%
X111760000Y-64770000D03*
%TD*%
%TO.P,J1,1,Pin_1*%
%TO.N,Net-(J1-Pin_1)*%
X88210000Y-74000000D03*
D18*
%TO.P,J1,2,Pin_2*%
%TO.N,Net-(J1-Pin_2)*%
X90750000Y-74000000D03*
%TO.P,J1,3,Pin_3*%
%TO.N,Net-(J1-Pin_3)*%
X93290000Y-74000000D03*
%TD*%
D19*
%TO.N,Net-(J1-Pin_1)*%
X97000000Y-79500000D02*
X102500000Y-74000000D01*
X88210000Y-76210000D02*
X91500000Y-79500000D01*
X88210000Y-74000000D02*
X88210000Y-76210000D01*
X91500000Y-79500000D02*
X97000000Y-79500000D01*
X102500000Y-74000000D02*
X103487500Y-74000000D01*
%TO.N,Net-(J1-Pin_3)*%
X94500000Y-68500000D02*
X106500000Y-68500000D01*
X106500000Y-68500000D02*
X107150000Y-69150000D01*
X93290000Y-69710000D02*
X94500000Y-68500000D01*
X93290000Y-74000000D02*
X93290000Y-69710000D01*
X107150000Y-69150000D02*
X107150000Y-70545000D01*
%TO.N,Net-(J1-Pin_1)*%
X88210000Y-74000000D02*
X78012500Y-74000000D01*
%TO.N,Net-(J1-Pin_2)*%
X89500000Y-68500000D02*
X90750000Y-69750000D01*
X74500000Y-68500000D02*
X89500000Y-68500000D01*
X74350000Y-68650000D02*
X74500000Y-68500000D01*
X74350000Y-70545000D02*
X74350000Y-68650000D01*
X90750000Y-69750000D02*
X90750000Y-74000000D01*
%TD*%
M02*
