M48
; DRILL file KiCad 10.0.5 date 2026-09-14T16:50:21
; FORMAT={-:-/ absolute / metric / decimal}
; #@! TF.CreationDate,2026-09-14T16:50:21+01:00
; #@! TF.GenerationSoftware,Kicad,Pcbnew,10.0.5
; #@! TF.FileFunction,Plated,1,2,PTH
FMAT,2
METRIC
; #@! TA.AperFunction,Plated,PTH,ViaDrill
T1C0.300
; #@! TA.AperFunction,Plated,PTH,ViaDrill
T2C0.400
; #@! TA.AperFunction,Plated,PTH,ComponentDrill
T3C0.800
%
G90
G05
T1
X40.386Y-121.666
T2
X40.386Y-125.222
X48.514Y-122.174
X50.038Y-122.682
X50.292Y-116.84
X51.816Y-122.174
X57.912Y-124.816
X58.166Y-120.904
X66.802Y-118.618
X67.31Y-121.92
X72.898Y-121.92
X76.2Y-118.364
X93.726Y-121.92
X96.266Y-118.364
X98.806Y-121.92
X106.426Y-117.348
X108.458Y-124.765
X110.744Y-118.364
X110.744Y-120.65
X128.27Y-127.0
T3
X60.276Y-119.937
X62.387Y-122.843
X63.182Y-117.826
X78.767Y-122.883
X80.878Y-125.79
X81.673Y-120.772
X85.053Y-120.772
X85.847Y-125.79
X87.959Y-122.883
X103.493Y-117.826
X104.288Y-122.843
X106.399Y-119.937
M30
