%TF.GenerationSoftware,KiCad,Pcbnew,10.0.5*%
%TF.CreationDate,2026-09-14T16:50:21+01:00*%
%TF.ProjectId,gk-controls-trigger,676b2d63-6f6e-4747-926f-6c732d747269,rev?*%
%TF.SameCoordinates,Original*%
%TF.FileFunction,Drillmap*%
%TF.FilePolarity,Positive*%
%FSLAX45Y45*%
G04 Gerber Fmt 4.5, Leading zero omitted, Abs format (unit mm)*
G04 Created by KiCad (PCBNEW 10.0.5) date 2026-09-14 16:50:21*
%MOMM*%
%LPD*%
G01*
G04 APERTURE LIST*
%ADD10C,0.100000*%
%ADD11C,0.200000*%
%ADD12C,0.270000*%
G04 APERTURE END LIST*
D10*
X7930558Y-13299440D02*
X8740814Y-13299440D01*
X4335680Y-13367397D02*
X3535680Y-12217397D01*
X11531600Y-12111040D02*
X11531600Y-11511040D01*
X13135728Y-12111040D02*
X11531600Y-12111040D01*
X13135728Y-13367397D02*
X13135728Y-12111040D01*
X6301954Y-12433560D02*
X7633196Y-12542821D01*
X3535680Y-11511040D02*
X11531600Y-11511040D01*
X3535680Y-12217397D02*
X3535680Y-11511040D01*
X4335680Y-13367397D02*
X5528639Y-13367343D01*
X6014651Y-12503467D02*
X5528639Y-13367343D01*
X6301954Y-12433560D02*
X6014651Y-12503467D01*
X7930558Y-12739106D02*
X7633196Y-12542821D01*
X7930558Y-13299440D02*
X7930558Y-12739106D01*
X8740814Y-13299440D02*
X8740814Y-12739113D01*
X8740814Y-12739113D02*
X9038180Y-12542834D01*
X10369424Y-12433599D02*
X10656725Y-12503511D01*
X10656725Y-12503511D02*
X11142721Y-13367397D01*
X13135728Y-13367397D02*
X11142721Y-13367397D01*
X10369424Y-12433599D02*
X9038180Y-12542834D01*
D11*
D12*
X5386960Y-12671680D02*
X5656960Y-12941680D01*
X5656960Y-12671680D02*
X5386960Y-12941680D01*
X8186040Y-12925680D02*
X8456040Y-13195680D01*
X8456040Y-12925680D02*
X8186040Y-13195680D01*
X10985120Y-12671680D02*
X11255120Y-12941680D01*
X11255120Y-12671680D02*
X10985120Y-12941680D01*
D11*
X3791457Y-13683880D02*
X3791457Y-13483880D01*
X3791457Y-13483880D02*
X3839076Y-13483880D01*
X3839076Y-13483880D02*
X3867647Y-13493404D01*
X3867647Y-13493404D02*
X3886695Y-13512452D01*
X3886695Y-13512452D02*
X3896219Y-13531499D01*
X3896219Y-13531499D02*
X3905742Y-13569595D01*
X3905742Y-13569595D02*
X3905742Y-13598166D01*
X3905742Y-13598166D02*
X3896219Y-13636261D01*
X3896219Y-13636261D02*
X3886695Y-13655309D01*
X3886695Y-13655309D02*
X3867647Y-13674357D01*
X3867647Y-13674357D02*
X3839076Y-13683880D01*
X3839076Y-13683880D02*
X3791457Y-13683880D01*
X3991457Y-13683880D02*
X3991457Y-13550547D01*
X3991457Y-13588642D02*
X4000981Y-13569595D01*
X4000981Y-13569595D02*
X4010504Y-13560071D01*
X4010504Y-13560071D02*
X4029552Y-13550547D01*
X4029552Y-13550547D02*
X4048600Y-13550547D01*
X4115266Y-13683880D02*
X4115266Y-13550547D01*
X4115266Y-13483880D02*
X4105742Y-13493404D01*
X4105742Y-13493404D02*
X4115266Y-13502928D01*
X4115266Y-13502928D02*
X4124790Y-13493404D01*
X4124790Y-13493404D02*
X4115266Y-13483880D01*
X4115266Y-13483880D02*
X4115266Y-13502928D01*
X4239076Y-13683880D02*
X4220028Y-13674357D01*
X4220028Y-13674357D02*
X4210504Y-13655309D01*
X4210504Y-13655309D02*
X4210504Y-13483880D01*
X4343838Y-13683880D02*
X4324790Y-13674357D01*
X4324790Y-13674357D02*
X4315266Y-13655309D01*
X4315266Y-13655309D02*
X4315266Y-13483880D01*
X4572409Y-13683880D02*
X4572409Y-13483880D01*
X4572409Y-13483880D02*
X4639076Y-13626738D01*
X4639076Y-13626738D02*
X4705743Y-13483880D01*
X4705743Y-13483880D02*
X4705743Y-13683880D01*
X4886695Y-13683880D02*
X4886695Y-13579119D01*
X4886695Y-13579119D02*
X4877171Y-13560071D01*
X4877171Y-13560071D02*
X4858124Y-13550547D01*
X4858124Y-13550547D02*
X4820028Y-13550547D01*
X4820028Y-13550547D02*
X4800981Y-13560071D01*
X4886695Y-13674357D02*
X4867647Y-13683880D01*
X4867647Y-13683880D02*
X4820028Y-13683880D01*
X4820028Y-13683880D02*
X4800981Y-13674357D01*
X4800981Y-13674357D02*
X4791457Y-13655309D01*
X4791457Y-13655309D02*
X4791457Y-13636261D01*
X4791457Y-13636261D02*
X4800981Y-13617214D01*
X4800981Y-13617214D02*
X4820028Y-13607690D01*
X4820028Y-13607690D02*
X4867647Y-13607690D01*
X4867647Y-13607690D02*
X4886695Y-13598166D01*
X4981933Y-13550547D02*
X4981933Y-13750547D01*
X4981933Y-13560071D02*
X5000981Y-13550547D01*
X5000981Y-13550547D02*
X5039076Y-13550547D01*
X5039076Y-13550547D02*
X5058124Y-13560071D01*
X5058124Y-13560071D02*
X5067647Y-13569595D01*
X5067647Y-13569595D02*
X5077171Y-13588642D01*
X5077171Y-13588642D02*
X5077171Y-13645785D01*
X5077171Y-13645785D02*
X5067647Y-13664833D01*
X5067647Y-13664833D02*
X5058124Y-13674357D01*
X5058124Y-13674357D02*
X5039076Y-13683880D01*
X5039076Y-13683880D02*
X5000981Y-13683880D01*
X5000981Y-13683880D02*
X4981933Y-13674357D01*
X5162885Y-13664833D02*
X5172409Y-13674357D01*
X5172409Y-13674357D02*
X5162885Y-13683880D01*
X5162885Y-13683880D02*
X5153362Y-13674357D01*
X5153362Y-13674357D02*
X5162885Y-13664833D01*
X5162885Y-13664833D02*
X5162885Y-13683880D01*
X5162885Y-13560071D02*
X5172409Y-13569595D01*
X5172409Y-13569595D02*
X5162885Y-13579119D01*
X5162885Y-13579119D02*
X5153362Y-13569595D01*
X5153362Y-13569595D02*
X5162885Y-13560071D01*
X5162885Y-13560071D02*
X5162885Y-13579119D01*
X3330680Y-13912397D02*
X3530680Y-14112397D01*
X3530680Y-13912397D02*
X3330680Y-14112397D01*
X3781933Y-13922928D02*
X3791457Y-13913404D01*
X3791457Y-13913404D02*
X3810504Y-13903880D01*
X3810504Y-13903880D02*
X3858123Y-13903880D01*
X3858123Y-13903880D02*
X3877171Y-13913404D01*
X3877171Y-13913404D02*
X3886695Y-13922928D01*
X3886695Y-13922928D02*
X3896219Y-13941976D01*
X3896219Y-13941976D02*
X3896219Y-13961023D01*
X3896219Y-13961023D02*
X3886695Y-13989595D01*
X3886695Y-13989595D02*
X3772409Y-14103880D01*
X3772409Y-14103880D02*
X3896219Y-14103880D01*
X3981933Y-14084833D02*
X3991457Y-14094357D01*
X3991457Y-14094357D02*
X3981933Y-14103880D01*
X3981933Y-14103880D02*
X3972409Y-14094357D01*
X3972409Y-14094357D02*
X3981933Y-14084833D01*
X3981933Y-14084833D02*
X3981933Y-14103880D01*
X4058123Y-13903880D02*
X4191457Y-13903880D01*
X4191457Y-13903880D02*
X4105742Y-14103880D01*
X4305743Y-13903880D02*
X4324790Y-13903880D01*
X4324790Y-13903880D02*
X4343838Y-13913404D01*
X4343838Y-13913404D02*
X4353362Y-13922928D01*
X4353362Y-13922928D02*
X4362885Y-13941976D01*
X4362885Y-13941976D02*
X4372409Y-13980071D01*
X4372409Y-13980071D02*
X4372409Y-14027690D01*
X4372409Y-14027690D02*
X4362885Y-14065785D01*
X4362885Y-14065785D02*
X4353362Y-14084833D01*
X4353362Y-14084833D02*
X4343838Y-14094357D01*
X4343838Y-14094357D02*
X4324790Y-14103880D01*
X4324790Y-14103880D02*
X4305743Y-14103880D01*
X4305743Y-14103880D02*
X4286695Y-14094357D01*
X4286695Y-14094357D02*
X4277171Y-14084833D01*
X4277171Y-14084833D02*
X4267647Y-14065785D01*
X4267647Y-14065785D02*
X4258124Y-14027690D01*
X4258124Y-14027690D02*
X4258124Y-13980071D01*
X4258124Y-13980071D02*
X4267647Y-13941976D01*
X4267647Y-13941976D02*
X4277171Y-13922928D01*
X4277171Y-13922928D02*
X4286695Y-13913404D01*
X4286695Y-13913404D02*
X4305743Y-13903880D01*
X4496219Y-13903880D02*
X4515266Y-13903880D01*
X4515266Y-13903880D02*
X4534314Y-13913404D01*
X4534314Y-13913404D02*
X4543838Y-13922928D01*
X4543838Y-13922928D02*
X4553362Y-13941976D01*
X4553362Y-13941976D02*
X4562885Y-13980071D01*
X4562885Y-13980071D02*
X4562885Y-14027690D01*
X4562885Y-14027690D02*
X4553362Y-14065785D01*
X4553362Y-14065785D02*
X4543838Y-14084833D01*
X4543838Y-14084833D02*
X4534314Y-14094357D01*
X4534314Y-14094357D02*
X4515266Y-14103880D01*
X4515266Y-14103880D02*
X4496219Y-14103880D01*
X4496219Y-14103880D02*
X4477171Y-14094357D01*
X4477171Y-14094357D02*
X4467647Y-14084833D01*
X4467647Y-14084833D02*
X4458124Y-14065785D01*
X4458124Y-14065785D02*
X4448600Y-14027690D01*
X4448600Y-14027690D02*
X4448600Y-13980071D01*
X4448600Y-13980071D02*
X4458124Y-13941976D01*
X4458124Y-13941976D02*
X4467647Y-13922928D01*
X4467647Y-13922928D02*
X4477171Y-13913404D01*
X4477171Y-13913404D02*
X4496219Y-13903880D01*
X4648600Y-14103880D02*
X4648600Y-13970547D01*
X4648600Y-13989595D02*
X4658124Y-13980071D01*
X4658124Y-13980071D02*
X4677171Y-13970547D01*
X4677171Y-13970547D02*
X4705743Y-13970547D01*
X4705743Y-13970547D02*
X4724790Y-13980071D01*
X4724790Y-13980071D02*
X4734314Y-13999119D01*
X4734314Y-13999119D02*
X4734314Y-14103880D01*
X4734314Y-13999119D02*
X4743838Y-13980071D01*
X4743838Y-13980071D02*
X4762885Y-13970547D01*
X4762885Y-13970547D02*
X4791457Y-13970547D01*
X4791457Y-13970547D02*
X4810505Y-13980071D01*
X4810505Y-13980071D02*
X4820028Y-13999119D01*
X4820028Y-13999119D02*
X4820028Y-14103880D01*
X4915266Y-14103880D02*
X4915266Y-13970547D01*
X4915266Y-13989595D02*
X4924790Y-13980071D01*
X4924790Y-13980071D02*
X4943838Y-13970547D01*
X4943838Y-13970547D02*
X4972409Y-13970547D01*
X4972409Y-13970547D02*
X4991457Y-13980071D01*
X4991457Y-13980071D02*
X5000981Y-13999119D01*
X5000981Y-13999119D02*
X5000981Y-14103880D01*
X5000981Y-13999119D02*
X5010505Y-13980071D01*
X5010505Y-13980071D02*
X5029552Y-13970547D01*
X5029552Y-13970547D02*
X5058124Y-13970547D01*
X5058124Y-13970547D02*
X5077171Y-13980071D01*
X5077171Y-13980071D02*
X5086695Y-13999119D01*
X5086695Y-13999119D02*
X5086695Y-14103880D01*
X5477171Y-13894357D02*
X5305743Y-14151499D01*
X5734314Y-13903880D02*
X5753362Y-13903880D01*
X5753362Y-13903880D02*
X5772409Y-13913404D01*
X5772409Y-13913404D02*
X5781933Y-13922928D01*
X5781933Y-13922928D02*
X5791457Y-13941976D01*
X5791457Y-13941976D02*
X5800981Y-13980071D01*
X5800981Y-13980071D02*
X5800981Y-14027690D01*
X5800981Y-14027690D02*
X5791457Y-14065785D01*
X5791457Y-14065785D02*
X5781933Y-14084833D01*
X5781933Y-14084833D02*
X5772409Y-14094357D01*
X5772409Y-14094357D02*
X5753362Y-14103880D01*
X5753362Y-14103880D02*
X5734314Y-14103880D01*
X5734314Y-14103880D02*
X5715266Y-14094357D01*
X5715266Y-14094357D02*
X5705743Y-14084833D01*
X5705743Y-14084833D02*
X5696219Y-14065785D01*
X5696219Y-14065785D02*
X5686695Y-14027690D01*
X5686695Y-14027690D02*
X5686695Y-13980071D01*
X5686695Y-13980071D02*
X5696219Y-13941976D01*
X5696219Y-13941976D02*
X5705743Y-13922928D01*
X5705743Y-13922928D02*
X5715266Y-13913404D01*
X5715266Y-13913404D02*
X5734314Y-13903880D01*
X5886695Y-14084833D02*
X5896219Y-14094357D01*
X5896219Y-14094357D02*
X5886695Y-14103880D01*
X5886695Y-14103880D02*
X5877171Y-14094357D01*
X5877171Y-14094357D02*
X5886695Y-14084833D01*
X5886695Y-14084833D02*
X5886695Y-14103880D01*
X6086695Y-14103880D02*
X5972409Y-14103880D01*
X6029552Y-14103880D02*
X6029552Y-13903880D01*
X6029552Y-13903880D02*
X6010505Y-13932452D01*
X6010505Y-13932452D02*
X5991457Y-13951499D01*
X5991457Y-13951499D02*
X5972409Y-13961023D01*
X6210505Y-13903880D02*
X6229552Y-13903880D01*
X6229552Y-13903880D02*
X6248600Y-13913404D01*
X6248600Y-13913404D02*
X6258124Y-13922928D01*
X6258124Y-13922928D02*
X6267647Y-13941976D01*
X6267647Y-13941976D02*
X6277171Y-13980071D01*
X6277171Y-13980071D02*
X6277171Y-14027690D01*
X6277171Y-14027690D02*
X6267647Y-14065785D01*
X6267647Y-14065785D02*
X6258124Y-14084833D01*
X6258124Y-14084833D02*
X6248600Y-14094357D01*
X6248600Y-14094357D02*
X6229552Y-14103880D01*
X6229552Y-14103880D02*
X6210505Y-14103880D01*
X6210505Y-14103880D02*
X6191457Y-14094357D01*
X6191457Y-14094357D02*
X6181933Y-14084833D01*
X6181933Y-14084833D02*
X6172409Y-14065785D01*
X6172409Y-14065785D02*
X6162886Y-14027690D01*
X6162886Y-14027690D02*
X6162886Y-13980071D01*
X6162886Y-13980071D02*
X6172409Y-13941976D01*
X6172409Y-13941976D02*
X6181933Y-13922928D01*
X6181933Y-13922928D02*
X6191457Y-13913404D01*
X6191457Y-13913404D02*
X6210505Y-13903880D01*
X6448600Y-13903880D02*
X6410505Y-13903880D01*
X6410505Y-13903880D02*
X6391457Y-13913404D01*
X6391457Y-13913404D02*
X6381933Y-13922928D01*
X6381933Y-13922928D02*
X6362886Y-13951499D01*
X6362886Y-13951499D02*
X6353362Y-13989595D01*
X6353362Y-13989595D02*
X6353362Y-14065785D01*
X6353362Y-14065785D02*
X6362886Y-14084833D01*
X6362886Y-14084833D02*
X6372409Y-14094357D01*
X6372409Y-14094357D02*
X6391457Y-14103880D01*
X6391457Y-14103880D02*
X6429552Y-14103880D01*
X6429552Y-14103880D02*
X6448600Y-14094357D01*
X6448600Y-14094357D02*
X6458124Y-14084833D01*
X6458124Y-14084833D02*
X6467647Y-14065785D01*
X6467647Y-14065785D02*
X6467647Y-14018166D01*
X6467647Y-14018166D02*
X6458124Y-13999119D01*
X6458124Y-13999119D02*
X6448600Y-13989595D01*
X6448600Y-13989595D02*
X6429552Y-13980071D01*
X6429552Y-13980071D02*
X6391457Y-13980071D01*
X6391457Y-13980071D02*
X6372409Y-13989595D01*
X6372409Y-13989595D02*
X6362886Y-13999119D01*
X6362886Y-13999119D02*
X6353362Y-14018166D01*
X6534314Y-13903880D02*
X6658124Y-13903880D01*
X6658124Y-13903880D02*
X6591457Y-13980071D01*
X6591457Y-13980071D02*
X6620028Y-13980071D01*
X6620028Y-13980071D02*
X6639076Y-13989595D01*
X6639076Y-13989595D02*
X6648600Y-13999119D01*
X6648600Y-13999119D02*
X6658124Y-14018166D01*
X6658124Y-14018166D02*
X6658124Y-14065785D01*
X6658124Y-14065785D02*
X6648600Y-14084833D01*
X6648600Y-14084833D02*
X6639076Y-14094357D01*
X6639076Y-14094357D02*
X6620028Y-14103880D01*
X6620028Y-14103880D02*
X6562886Y-14103880D01*
X6562886Y-14103880D02*
X6543838Y-14094357D01*
X6543838Y-14094357D02*
X6534314Y-14084833D01*
X6734314Y-13903880D02*
X6734314Y-13941976D01*
X6810505Y-13903880D02*
X6810505Y-13941976D01*
X7105743Y-14180071D02*
X7096219Y-14170547D01*
X7096219Y-14170547D02*
X7077171Y-14141976D01*
X7077171Y-14141976D02*
X7067648Y-14122928D01*
X7067648Y-14122928D02*
X7058124Y-14094357D01*
X7058124Y-14094357D02*
X7048600Y-14046738D01*
X7048600Y-14046738D02*
X7048600Y-14008642D01*
X7048600Y-14008642D02*
X7058124Y-13961023D01*
X7058124Y-13961023D02*
X7067648Y-13932452D01*
X7067648Y-13932452D02*
X7077171Y-13913404D01*
X7077171Y-13913404D02*
X7096219Y-13884833D01*
X7096219Y-13884833D02*
X7105743Y-13875309D01*
X7162886Y-13903880D02*
X7286695Y-13903880D01*
X7286695Y-13903880D02*
X7220028Y-13980071D01*
X7220028Y-13980071D02*
X7248600Y-13980071D01*
X7248600Y-13980071D02*
X7267648Y-13989595D01*
X7267648Y-13989595D02*
X7277171Y-13999119D01*
X7277171Y-13999119D02*
X7286695Y-14018166D01*
X7286695Y-14018166D02*
X7286695Y-14065785D01*
X7286695Y-14065785D02*
X7277171Y-14084833D01*
X7277171Y-14084833D02*
X7267648Y-14094357D01*
X7267648Y-14094357D02*
X7248600Y-14103880D01*
X7248600Y-14103880D02*
X7191457Y-14103880D01*
X7191457Y-14103880D02*
X7172409Y-14094357D01*
X7172409Y-14094357D02*
X7162886Y-14084833D01*
X7524790Y-14103880D02*
X7524790Y-13903880D01*
X7610505Y-14103880D02*
X7610505Y-13999119D01*
X7610505Y-13999119D02*
X7600981Y-13980071D01*
X7600981Y-13980071D02*
X7581933Y-13970547D01*
X7581933Y-13970547D02*
X7553362Y-13970547D01*
X7553362Y-13970547D02*
X7534314Y-13980071D01*
X7534314Y-13980071D02*
X7524790Y-13989595D01*
X7734314Y-14103880D02*
X7715267Y-14094357D01*
X7715267Y-14094357D02*
X7705743Y-14084833D01*
X7705743Y-14084833D02*
X7696219Y-14065785D01*
X7696219Y-14065785D02*
X7696219Y-14008642D01*
X7696219Y-14008642D02*
X7705743Y-13989595D01*
X7705743Y-13989595D02*
X7715267Y-13980071D01*
X7715267Y-13980071D02*
X7734314Y-13970547D01*
X7734314Y-13970547D02*
X7762886Y-13970547D01*
X7762886Y-13970547D02*
X7781933Y-13980071D01*
X7781933Y-13980071D02*
X7791457Y-13989595D01*
X7791457Y-13989595D02*
X7800981Y-14008642D01*
X7800981Y-14008642D02*
X7800981Y-14065785D01*
X7800981Y-14065785D02*
X7791457Y-14084833D01*
X7791457Y-14084833D02*
X7781933Y-14094357D01*
X7781933Y-14094357D02*
X7762886Y-14103880D01*
X7762886Y-14103880D02*
X7734314Y-14103880D01*
X7915267Y-14103880D02*
X7896219Y-14094357D01*
X7896219Y-14094357D02*
X7886695Y-14075309D01*
X7886695Y-14075309D02*
X7886695Y-13903880D01*
X8067648Y-14094357D02*
X8048600Y-14103880D01*
X8048600Y-14103880D02*
X8010505Y-14103880D01*
X8010505Y-14103880D02*
X7991457Y-14094357D01*
X7991457Y-14094357D02*
X7981933Y-14075309D01*
X7981933Y-14075309D02*
X7981933Y-13999119D01*
X7981933Y-13999119D02*
X7991457Y-13980071D01*
X7991457Y-13980071D02*
X8010505Y-13970547D01*
X8010505Y-13970547D02*
X8048600Y-13970547D01*
X8048600Y-13970547D02*
X8067648Y-13980071D01*
X8067648Y-13980071D02*
X8077171Y-13999119D01*
X8077171Y-13999119D02*
X8077171Y-14018166D01*
X8077171Y-14018166D02*
X7981933Y-14037214D01*
X8153362Y-14094357D02*
X8172410Y-14103880D01*
X8172410Y-14103880D02*
X8210505Y-14103880D01*
X8210505Y-14103880D02*
X8229552Y-14094357D01*
X8229552Y-14094357D02*
X8239076Y-14075309D01*
X8239076Y-14075309D02*
X8239076Y-14065785D01*
X8239076Y-14065785D02*
X8229552Y-14046738D01*
X8229552Y-14046738D02*
X8210505Y-14037214D01*
X8210505Y-14037214D02*
X8181933Y-14037214D01*
X8181933Y-14037214D02*
X8162886Y-14027690D01*
X8162886Y-14027690D02*
X8153362Y-14008642D01*
X8153362Y-14008642D02*
X8153362Y-13999119D01*
X8153362Y-13999119D02*
X8162886Y-13980071D01*
X8162886Y-13980071D02*
X8181933Y-13970547D01*
X8181933Y-13970547D02*
X8210505Y-13970547D01*
X8210505Y-13970547D02*
X8229552Y-13980071D01*
X8305743Y-14180071D02*
X8315267Y-14170547D01*
X8315267Y-14170547D02*
X8334314Y-14141976D01*
X8334314Y-14141976D02*
X8343838Y-14122928D01*
X8343838Y-14122928D02*
X8353362Y-14094357D01*
X8353362Y-14094357D02*
X8362886Y-14046738D01*
X8362886Y-14046738D02*
X8362886Y-14008642D01*
X8362886Y-14008642D02*
X8353362Y-13961023D01*
X8353362Y-13961023D02*
X8343838Y-13932452D01*
X8343838Y-13932452D02*
X8334314Y-13913404D01*
X8334314Y-13913404D02*
X8315267Y-13884833D01*
X8315267Y-13884833D02*
X8305743Y-13875309D01*
X8667648Y-14180071D02*
X8658124Y-14170547D01*
X8658124Y-14170547D02*
X8639076Y-14141976D01*
X8639076Y-14141976D02*
X8629553Y-14122928D01*
X8629553Y-14122928D02*
X8620029Y-14094357D01*
X8620029Y-14094357D02*
X8610505Y-14046738D01*
X8610505Y-14046738D02*
X8610505Y-14008642D01*
X8610505Y-14008642D02*
X8620029Y-13961023D01*
X8620029Y-13961023D02*
X8629553Y-13932452D01*
X8629553Y-13932452D02*
X8639076Y-13913404D01*
X8639076Y-13913404D02*
X8658124Y-13884833D01*
X8658124Y-13884833D02*
X8667648Y-13875309D01*
X8743838Y-13970547D02*
X8743838Y-14103880D01*
X8743838Y-13989595D02*
X8753362Y-13980071D01*
X8753362Y-13980071D02*
X8772410Y-13970547D01*
X8772410Y-13970547D02*
X8800981Y-13970547D01*
X8800981Y-13970547D02*
X8820029Y-13980071D01*
X8820029Y-13980071D02*
X8829553Y-13999119D01*
X8829553Y-13999119D02*
X8829553Y-14103880D01*
X8953362Y-14103880D02*
X8934314Y-14094357D01*
X8934314Y-14094357D02*
X8924791Y-14084833D01*
X8924791Y-14084833D02*
X8915267Y-14065785D01*
X8915267Y-14065785D02*
X8915267Y-14008642D01*
X8915267Y-14008642D02*
X8924791Y-13989595D01*
X8924791Y-13989595D02*
X8934314Y-13980071D01*
X8934314Y-13980071D02*
X8953362Y-13970547D01*
X8953362Y-13970547D02*
X8981934Y-13970547D01*
X8981934Y-13970547D02*
X9000981Y-13980071D01*
X9000981Y-13980071D02*
X9010505Y-13989595D01*
X9010505Y-13989595D02*
X9020029Y-14008642D01*
X9020029Y-14008642D02*
X9020029Y-14065785D01*
X9020029Y-14065785D02*
X9010505Y-14084833D01*
X9010505Y-14084833D02*
X9000981Y-14094357D01*
X9000981Y-14094357D02*
X8981934Y-14103880D01*
X8981934Y-14103880D02*
X8953362Y-14103880D01*
X9077172Y-13970547D02*
X9153362Y-13970547D01*
X9105743Y-13903880D02*
X9105743Y-14075309D01*
X9105743Y-14075309D02*
X9115267Y-14094357D01*
X9115267Y-14094357D02*
X9134314Y-14103880D01*
X9134314Y-14103880D02*
X9153362Y-14103880D01*
X9372410Y-13970547D02*
X9372410Y-14170547D01*
X9372410Y-13980071D02*
X9391457Y-13970547D01*
X9391457Y-13970547D02*
X9429553Y-13970547D01*
X9429553Y-13970547D02*
X9448600Y-13980071D01*
X9448600Y-13980071D02*
X9458124Y-13989595D01*
X9458124Y-13989595D02*
X9467648Y-14008642D01*
X9467648Y-14008642D02*
X9467648Y-14065785D01*
X9467648Y-14065785D02*
X9458124Y-14084833D01*
X9458124Y-14084833D02*
X9448600Y-14094357D01*
X9448600Y-14094357D02*
X9429553Y-14103880D01*
X9429553Y-14103880D02*
X9391457Y-14103880D01*
X9391457Y-14103880D02*
X9372410Y-14094357D01*
X9581934Y-14103880D02*
X9562886Y-14094357D01*
X9562886Y-14094357D02*
X9553362Y-14075309D01*
X9553362Y-14075309D02*
X9553362Y-13903880D01*
X9743838Y-14103880D02*
X9743838Y-13999119D01*
X9743838Y-13999119D02*
X9734315Y-13980071D01*
X9734315Y-13980071D02*
X9715267Y-13970547D01*
X9715267Y-13970547D02*
X9677172Y-13970547D01*
X9677172Y-13970547D02*
X9658124Y-13980071D01*
X9743838Y-14094357D02*
X9724791Y-14103880D01*
X9724791Y-14103880D02*
X9677172Y-14103880D01*
X9677172Y-14103880D02*
X9658124Y-14094357D01*
X9658124Y-14094357D02*
X9648600Y-14075309D01*
X9648600Y-14075309D02*
X9648600Y-14056261D01*
X9648600Y-14056261D02*
X9658124Y-14037214D01*
X9658124Y-14037214D02*
X9677172Y-14027690D01*
X9677172Y-14027690D02*
X9724791Y-14027690D01*
X9724791Y-14027690D02*
X9743838Y-14018166D01*
X9810505Y-13970547D02*
X9886695Y-13970547D01*
X9839076Y-13903880D02*
X9839076Y-14075309D01*
X9839076Y-14075309D02*
X9848600Y-14094357D01*
X9848600Y-14094357D02*
X9867648Y-14103880D01*
X9867648Y-14103880D02*
X9886695Y-14103880D01*
X10029553Y-14094357D02*
X10010505Y-14103880D01*
X10010505Y-14103880D02*
X9972410Y-14103880D01*
X9972410Y-14103880D02*
X9953362Y-14094357D01*
X9953362Y-14094357D02*
X9943838Y-14075309D01*
X9943838Y-14075309D02*
X9943838Y-13999119D01*
X9943838Y-13999119D02*
X9953362Y-13980071D01*
X9953362Y-13980071D02*
X9972410Y-13970547D01*
X9972410Y-13970547D02*
X10010505Y-13970547D01*
X10010505Y-13970547D02*
X10029553Y-13980071D01*
X10029553Y-13980071D02*
X10039076Y-13999119D01*
X10039076Y-13999119D02*
X10039076Y-14018166D01*
X10039076Y-14018166D02*
X9943838Y-14037214D01*
X10210505Y-14103880D02*
X10210505Y-13903880D01*
X10210505Y-14094357D02*
X10191457Y-14103880D01*
X10191457Y-14103880D02*
X10153362Y-14103880D01*
X10153362Y-14103880D02*
X10134315Y-14094357D01*
X10134315Y-14094357D02*
X10124791Y-14084833D01*
X10124791Y-14084833D02*
X10115267Y-14065785D01*
X10115267Y-14065785D02*
X10115267Y-14008642D01*
X10115267Y-14008642D02*
X10124791Y-13989595D01*
X10124791Y-13989595D02*
X10134315Y-13980071D01*
X10134315Y-13980071D02*
X10153362Y-13970547D01*
X10153362Y-13970547D02*
X10191457Y-13970547D01*
X10191457Y-13970547D02*
X10210505Y-13980071D01*
X10286696Y-14180071D02*
X10296219Y-14170547D01*
X10296219Y-14170547D02*
X10315267Y-14141976D01*
X10315267Y-14141976D02*
X10324791Y-14122928D01*
X10324791Y-14122928D02*
X10334315Y-14094357D01*
X10334315Y-14094357D02*
X10343838Y-14046738D01*
X10343838Y-14046738D02*
X10343838Y-14008642D01*
X10343838Y-14008642D02*
X10334315Y-13961023D01*
X10334315Y-13961023D02*
X10324791Y-13932452D01*
X10324791Y-13932452D02*
X10315267Y-13913404D01*
X10315267Y-13913404D02*
X10296219Y-13884833D01*
X10296219Y-13884833D02*
X10286696Y-13875309D01*
M02*
