%TF.GenerationSoftware,KiCad,Pcbnew,9.0.5*%
%TF.CreationDate,2026-03-10T20:02:33+00:00*%
%TF.ProjectId,gk-controls-trigger,676b2d63-6f6e-4747-926f-6c732d747269,rev?*%
%TF.SameCoordinates,Original*%
%TF.FileFunction,Legend,Top*%
%TF.FilePolarity,Positive*%
%FSLAX46Y46*%
G04 Gerber Fmt 4.6, Leading zero omitted, Abs format (unit mm)*
G04 Created by KiCad (PCBNEW 9.0.5) date 2026-03-10 20:02:33*
%MOMM*%
%LPD*%
G01*
G04 APERTURE LIST*
%ADD10C,0.100000*%
%ADD11C,0.125000*%
%ADD12C,0.150000*%
%ADD13C,0.120000*%
%ADD14R,1.700000X1.700000*%
%ADD15C,1.700000*%
G04 APERTURE END LIST*
D10*
X109690000Y-74000000D02*
G75*
G02*
X104610000Y-74000000I-2540000J0D01*
G01*
X104610000Y-74000000D02*
G75*
G02*
X109690000Y-74000000I2540000J0D01*
G01*
X76890000Y-74000000D02*
G75*
G02*
X71810000Y-74000000I-2540000J0D01*
G01*
X71810000Y-74000000D02*
G75*
G02*
X76890000Y-74000000I2540000J0D01*
G01*
D11*
X87818738Y-79165859D02*
X87771119Y-79261097D01*
X87771119Y-79261097D02*
X87771119Y-79403954D01*
X87771119Y-79403954D02*
X87818738Y-79546811D01*
X87818738Y-79546811D02*
X87913976Y-79642049D01*
X87913976Y-79642049D02*
X88009214Y-79689668D01*
X88009214Y-79689668D02*
X88199690Y-79737287D01*
X88199690Y-79737287D02*
X88342547Y-79737287D01*
X88342547Y-79737287D02*
X88533023Y-79689668D01*
X88533023Y-79689668D02*
X88628261Y-79642049D01*
X88628261Y-79642049D02*
X88723500Y-79546811D01*
X88723500Y-79546811D02*
X88771119Y-79403954D01*
X88771119Y-79403954D02*
X88771119Y-79308716D01*
X88771119Y-79308716D02*
X88723500Y-79165859D01*
X88723500Y-79165859D02*
X88675880Y-79118240D01*
X88675880Y-79118240D02*
X88342547Y-79118240D01*
X88342547Y-79118240D02*
X88342547Y-79308716D01*
X88771119Y-78689668D02*
X87771119Y-78689668D01*
X87771119Y-78689668D02*
X88771119Y-78118240D01*
X88771119Y-78118240D02*
X87771119Y-78118240D01*
X88771119Y-77642049D02*
X87771119Y-77642049D01*
X87771119Y-77642049D02*
X87771119Y-77403954D01*
X87771119Y-77403954D02*
X87818738Y-77261097D01*
X87818738Y-77261097D02*
X87913976Y-77165859D01*
X87913976Y-77165859D02*
X88009214Y-77118240D01*
X88009214Y-77118240D02*
X88199690Y-77070621D01*
X88199690Y-77070621D02*
X88342547Y-77070621D01*
X88342547Y-77070621D02*
X88533023Y-77118240D01*
X88533023Y-77118240D02*
X88628261Y-77165859D01*
X88628261Y-77165859D02*
X88723500Y-77261097D01*
X88723500Y-77261097D02*
X88771119Y-77403954D01*
X88771119Y-77403954D02*
X88771119Y-77642049D01*
X93851119Y-77848240D02*
X93374928Y-78181573D01*
X93851119Y-78419668D02*
X92851119Y-78419668D01*
X92851119Y-78419668D02*
X92851119Y-78038716D01*
X92851119Y-78038716D02*
X92898738Y-77943478D01*
X92898738Y-77943478D02*
X92946357Y-77895859D01*
X92946357Y-77895859D02*
X93041595Y-77848240D01*
X93041595Y-77848240D02*
X93184452Y-77848240D01*
X93184452Y-77848240D02*
X93279690Y-77895859D01*
X93279690Y-77895859D02*
X93327309Y-77943478D01*
X93327309Y-77943478D02*
X93374928Y-78038716D01*
X93374928Y-78038716D02*
X93374928Y-78419668D01*
X92851119Y-77562525D02*
X92851119Y-76991097D01*
X93851119Y-77276811D02*
X92851119Y-77276811D01*
X91311119Y-77943478D02*
X91311119Y-78419668D01*
X91311119Y-78419668D02*
X90311119Y-78419668D01*
X90311119Y-77753001D02*
X90311119Y-77181573D01*
X91311119Y-77467287D02*
X90311119Y-77467287D01*
D12*
X61916666Y-56794819D02*
X61916666Y-57509104D01*
X61916666Y-57509104D02*
X61869047Y-57651961D01*
X61869047Y-57651961D02*
X61773809Y-57747200D01*
X61773809Y-57747200D02*
X61630952Y-57794819D01*
X61630952Y-57794819D02*
X61535714Y-57794819D01*
X62345238Y-56890057D02*
X62392857Y-56842438D01*
X62392857Y-56842438D02*
X62488095Y-56794819D01*
X62488095Y-56794819D02*
X62726190Y-56794819D01*
X62726190Y-56794819D02*
X62821428Y-56842438D01*
X62821428Y-56842438D02*
X62869047Y-56890057D01*
X62869047Y-56890057D02*
X62916666Y-56985295D01*
X62916666Y-56985295D02*
X62916666Y-57080533D01*
X62916666Y-57080533D02*
X62869047Y-57223390D01*
X62869047Y-57223390D02*
X62297619Y-57794819D01*
X62297619Y-57794819D02*
X62916666Y-57794819D01*
X108066666Y-86694819D02*
X108066666Y-87409104D01*
X108066666Y-87409104D02*
X108019047Y-87551961D01*
X108019047Y-87551961D02*
X107923809Y-87647200D01*
X107923809Y-87647200D02*
X107780952Y-87694819D01*
X107780952Y-87694819D02*
X107685714Y-87694819D01*
X109019047Y-86694819D02*
X108542857Y-86694819D01*
X108542857Y-86694819D02*
X108495238Y-87171009D01*
X108495238Y-87171009D02*
X108542857Y-87123390D01*
X108542857Y-87123390D02*
X108638095Y-87075771D01*
X108638095Y-87075771D02*
X108876190Y-87075771D01*
X108876190Y-87075771D02*
X108971428Y-87123390D01*
X108971428Y-87123390D02*
X109019047Y-87171009D01*
X109019047Y-87171009D02*
X109066666Y-87266247D01*
X109066666Y-87266247D02*
X109066666Y-87504342D01*
X109066666Y-87504342D02*
X109019047Y-87599580D01*
X109019047Y-87599580D02*
X108971428Y-87647200D01*
X108971428Y-87647200D02*
X108876190Y-87694819D01*
X108876190Y-87694819D02*
X108638095Y-87694819D01*
X108638095Y-87694819D02*
X108542857Y-87647200D01*
X108542857Y-87647200D02*
X108495238Y-87599580D01*
X75226666Y-87394819D02*
X75226666Y-88109104D01*
X75226666Y-88109104D02*
X75179047Y-88251961D01*
X75179047Y-88251961D02*
X75083809Y-88347200D01*
X75083809Y-88347200D02*
X74940952Y-88394819D01*
X74940952Y-88394819D02*
X74845714Y-88394819D01*
X76131428Y-87728152D02*
X76131428Y-88394819D01*
X75893333Y-87347200D02*
X75655238Y-88061485D01*
X75655238Y-88061485D02*
X76274285Y-88061485D01*
X111426666Y-61844819D02*
X111426666Y-62559104D01*
X111426666Y-62559104D02*
X111379047Y-62701961D01*
X111379047Y-62701961D02*
X111283809Y-62797200D01*
X111283809Y-62797200D02*
X111140952Y-62844819D01*
X111140952Y-62844819D02*
X111045714Y-62844819D01*
X111807619Y-61844819D02*
X112426666Y-61844819D01*
X112426666Y-61844819D02*
X112093333Y-62225771D01*
X112093333Y-62225771D02*
X112236190Y-62225771D01*
X112236190Y-62225771D02*
X112331428Y-62273390D01*
X112331428Y-62273390D02*
X112379047Y-62321009D01*
X112379047Y-62321009D02*
X112426666Y-62416247D01*
X112426666Y-62416247D02*
X112426666Y-62654342D01*
X112426666Y-62654342D02*
X112379047Y-62749580D01*
X112379047Y-62749580D02*
X112331428Y-62797200D01*
X112331428Y-62797200D02*
X112236190Y-62844819D01*
X112236190Y-62844819D02*
X111950476Y-62844819D01*
X111950476Y-62844819D02*
X111855238Y-62797200D01*
X111855238Y-62797200D02*
X111807619Y-62749580D01*
X85284819Y-74333333D02*
X85999104Y-74333333D01*
X85999104Y-74333333D02*
X86141961Y-74380952D01*
X86141961Y-74380952D02*
X86237200Y-74476190D01*
X86237200Y-74476190D02*
X86284819Y-74619047D01*
X86284819Y-74619047D02*
X86284819Y-74714285D01*
X86284819Y-73333333D02*
X86284819Y-73904761D01*
X86284819Y-73619047D02*
X85284819Y-73619047D01*
X85284819Y-73619047D02*
X85427676Y-73714285D01*
X85427676Y-73714285D02*
X85522914Y-73809523D01*
X85522914Y-73809523D02*
X85570533Y-73904761D01*
D13*
%TO.C,J2*%
X63630000Y-60990000D02*
X63630000Y-61100000D01*
X60870000Y-61100000D02*
X63630000Y-61100000D01*
X60870000Y-60990000D02*
X63630000Y-60990000D01*
X60870000Y-60990000D02*
X60870000Y-61100000D01*
X60870000Y-59720000D02*
X60870000Y-58340000D01*
X60870000Y-58340000D02*
X62250000Y-58340000D01*
%TO.C,J5*%
X107020000Y-88240000D02*
X108400000Y-88240000D01*
X107020000Y-89620000D02*
X107020000Y-88240000D01*
X107020000Y-90890000D02*
X107020000Y-91000000D01*
X107020000Y-90890000D02*
X109780000Y-90890000D01*
X107020000Y-91000000D02*
X109780000Y-91000000D01*
X109780000Y-90890000D02*
X109780000Y-91000000D01*
%TO.C,J4*%
X74180000Y-88940000D02*
X75560000Y-88940000D01*
X74180000Y-90320000D02*
X74180000Y-88940000D01*
X74180000Y-91590000D02*
X74180000Y-91700000D01*
X74180000Y-91590000D02*
X76940000Y-91590000D01*
X74180000Y-91700000D02*
X76940000Y-91700000D01*
X76940000Y-91590000D02*
X76940000Y-91700000D01*
%TO.C,J3*%
X110380000Y-63390000D02*
X111760000Y-63390000D01*
X110380000Y-64770000D02*
X110380000Y-63390000D01*
X110380000Y-66040000D02*
X110380000Y-66150000D01*
X110380000Y-66040000D02*
X113140000Y-66040000D01*
X110380000Y-66150000D02*
X113140000Y-66150000D01*
X113140000Y-66040000D02*
X113140000Y-66150000D01*
%TO.C,J1*%
X86830000Y-75380000D02*
X86830000Y-74000000D01*
X88210000Y-75380000D02*
X86830000Y-75380000D01*
X89480000Y-75380000D02*
X94670000Y-75380000D01*
X89480000Y-75380000D02*
X89480000Y-72620000D01*
X94670000Y-75380000D02*
X94670000Y-72620000D01*
X89480000Y-72620000D02*
X94670000Y-72620000D01*
%TD*%
%LPC*%
D14*
%TO.C,J2*%
X62250000Y-59720000D03*
%TD*%
%TO.C,J5*%
X108400000Y-89620000D03*
%TD*%
%TO.C,J4*%
X75560000Y-90320000D03*
%TD*%
%TO.C,J3*%
X111760000Y-64770000D03*
%TD*%
%TO.C,J1*%
X88210000Y-74000000D03*
D15*
X90750000Y-74000000D03*
X93290000Y-74000000D03*
%TD*%
%LPD*%
M02*
