G04 #@! TF.GenerationSoftware,KiCad,Pcbnew,7.0.1*
G04 #@! TF.CreationDate,2024-01-01T11:46:02+00:00*
G04 #@! TF.ProjectId,gk,676b2e6b-6963-4616-945f-706362585858,rev?*
G04 #@! TF.SameCoordinates,Original*
G04 #@! TF.FileFunction,Paste,Bot*
G04 #@! TF.FilePolarity,Positive*
%FSLAX46Y46*%
G04 Gerber Fmt 4.6, Leading zero omitted, Abs format (unit mm)*
G04 Created by KiCad (PCBNEW 7.0.1) date 2024-01-01 11:46:02*
%MOMM*%
%LPD*%
G01*
G04 APERTURE LIST*
G04 Aperture macros list*
%AMRoundRect*
0 Rectangle with rounded corners*
0 $1 Rounding radius*
0 $2 $3 $4 $5 $6 $7 $8 $9 X,Y pos of 4 corners*
0 Add a 4 corners polygon primitive as box body*
4,1,4,$2,$3,$4,$5,$6,$7,$8,$9,$2,$3,0*
0 Add four circle primitives for the rounded corners*
1,1,$1+$1,$2,$3*
1,1,$1+$1,$4,$5*
1,1,$1+$1,$6,$7*
1,1,$1+$1,$8,$9*
0 Add four rect primitives between the rounded corners*
20,1,$1+$1,$2,$3,$4,$5,0*
20,1,$1+$1,$4,$5,$6,$7,0*
20,1,$1+$1,$6,$7,$8,$9,0*
20,1,$1+$1,$8,$9,$2,$3,0*%
%AMFreePoly0*
4,1,13,0.900000,0.500000,2.600000,0.500000,2.600000,-0.500000,0.900000,-0.500000,0.400000,-1.000000,-0.400000,-1.000000,-0.900000,-0.500000,-2.600000,-0.500000,-2.600000,0.500000,-0.900000,0.500000,-0.400000,1.000000,0.400000,1.000000,0.900000,0.500000,0.900000,0.500000,$1*%
G04 Aperture macros list end*
%ADD10RoundRect,0.200000X0.200000X0.275000X-0.200000X0.275000X-0.200000X-0.275000X0.200000X-0.275000X0*%
%ADD11R,0.600000X1.450000*%
%ADD12R,0.300000X1.450000*%
%ADD13RoundRect,0.225000X0.225000X0.250000X-0.225000X0.250000X-0.225000X-0.250000X0.225000X-0.250000X0*%
%ADD14RoundRect,0.200000X0.275000X-0.200000X0.275000X0.200000X-0.275000X0.200000X-0.275000X-0.200000X0*%
%ADD15RoundRect,0.225000X-0.225000X-0.250000X0.225000X-0.250000X0.225000X0.250000X-0.225000X0.250000X0*%
%ADD16RoundRect,0.200000X-0.275000X0.200000X-0.275000X-0.200000X0.275000X-0.200000X0.275000X0.200000X0*%
%ADD17RoundRect,0.250000X-0.250000X-0.475000X0.250000X-0.475000X0.250000X0.475000X-0.250000X0.475000X0*%
%ADD18RoundRect,0.250000X0.450000X0.800000X-0.450000X0.800000X-0.450000X-0.800000X0.450000X-0.800000X0*%
%ADD19R,1.500000X2.200000*%
%ADD20RoundRect,0.150000X0.512500X0.150000X-0.512500X0.150000X-0.512500X-0.150000X0.512500X-0.150000X0*%
%ADD21RoundRect,0.200000X-0.200000X-0.275000X0.200000X-0.275000X0.200000X0.275000X-0.200000X0.275000X0*%
%ADD22RoundRect,0.225000X-0.250000X0.225000X-0.250000X-0.225000X0.250000X-0.225000X0.250000X0.225000X0*%
%ADD23RoundRect,0.250000X0.250000X0.475000X-0.250000X0.475000X-0.250000X-0.475000X0.250000X-0.475000X0*%
%ADD24RoundRect,0.250000X0.475000X-0.250000X0.475000X0.250000X-0.475000X0.250000X-0.475000X-0.250000X0*%
%ADD25RoundRect,0.225000X0.250000X-0.225000X0.250000X0.225000X-0.250000X0.225000X-0.250000X-0.225000X0*%
%ADD26R,5.100000X5.100000*%
%ADD27RoundRect,0.150000X0.850000X0.150000X-0.850000X0.150000X-0.850000X-0.150000X0.850000X-0.150000X0*%
%ADD28R,2.400000X0.740000*%
%ADD29R,0.458000X1.510000*%
%ADD30R,1.500000X0.700000*%
%ADD31FreePoly0,0.000000*%
%ADD32R,1.200000X0.400000*%
%ADD33RoundRect,0.250000X0.362500X1.425000X-0.362500X1.425000X-0.362500X-1.425000X0.362500X-1.425000X0*%
%ADD34RoundRect,0.250000X-1.000000X-0.650000X1.000000X-0.650000X1.000000X0.650000X-1.000000X0.650000X0*%
%ADD35RoundRect,0.250000X-0.475000X0.250000X-0.475000X-0.250000X0.475000X-0.250000X0.475000X0.250000X0*%
%ADD36R,0.850000X1.100000*%
%ADD37R,0.750000X1.100000*%
%ADD38R,1.200000X1.000000*%
%ADD39R,1.550000X1.350000*%
%ADD40R,1.900000X1.350000*%
%ADD41R,1.170000X1.800000*%
%ADD42RoundRect,0.250000X-0.450000X-0.800000X0.450000X-0.800000X0.450000X0.800000X-0.450000X0.800000X0*%
%ADD43RoundRect,0.150000X0.150000X-0.512500X0.150000X0.512500X-0.150000X0.512500X-0.150000X-0.512500X0*%
%ADD44R,1.900000X0.800000*%
%ADD45R,0.800000X1.900000*%
%ADD46R,3.700000X3.700000*%
%ADD47RoundRect,0.218750X0.218750X0.256250X-0.218750X0.256250X-0.218750X-0.256250X0.218750X-0.256250X0*%
G04 APERTURE END LIST*
D10*
X74993000Y-142748000D03*
X73343000Y-142748000D03*
X100901000Y-129540000D03*
X99251000Y-129540000D03*
X149669000Y-32004000D03*
X148019000Y-32004000D03*
X71945000Y-29972000D03*
X70295000Y-29972000D03*
D11*
X101675000Y-170580000D03*
X100875000Y-170580000D03*
D12*
X99675000Y-170580000D03*
X98675000Y-170580000D03*
X98175000Y-170580000D03*
X97175000Y-170580000D03*
D11*
X95975000Y-170580000D03*
X95175000Y-170580000D03*
X95175000Y-170580000D03*
X95975000Y-170580000D03*
D12*
X96675000Y-170580000D03*
X97675000Y-170580000D03*
X99175000Y-170580000D03*
X100175000Y-170580000D03*
D11*
X100875000Y-170580000D03*
X101675000Y-170580000D03*
D13*
X74943000Y-166116000D03*
X73393000Y-166116000D03*
D10*
X149669000Y-130048000D03*
X148019000Y-130048000D03*
D14*
X119888000Y-166941000D03*
X119888000Y-165291000D03*
D10*
X137477000Y-117856000D03*
X135827000Y-117856000D03*
D15*
X131813000Y-24892000D03*
X133363000Y-24892000D03*
D16*
X79298800Y-37325800D03*
X79298800Y-38975800D03*
D13*
X87643000Y-152400000D03*
X86093000Y-152400000D03*
D17*
X58994000Y-50800000D03*
X60894000Y-50800000D03*
D18*
X65700000Y-120650000D03*
X61300000Y-120650000D03*
D10*
X74993000Y-169164000D03*
X73343000Y-169164000D03*
D13*
X66307000Y-36576000D03*
X64757000Y-36576000D03*
D10*
X124269000Y-130048000D03*
X122619000Y-130048000D03*
X133413000Y-23368000D03*
X131763000Y-23368000D03*
D19*
X117500000Y-146050000D03*
X111100000Y-146050000D03*
D20*
X115437500Y-154625000D03*
X115437500Y-155575000D03*
X115437500Y-156525000D03*
X113162500Y-156525000D03*
X113162500Y-155575000D03*
X113162500Y-154625000D03*
D18*
X93132000Y-162814000D03*
X88732000Y-162814000D03*
D21*
X107887000Y-155448000D03*
X109537000Y-155448000D03*
D14*
X106680000Y-172529000D03*
X106680000Y-170879000D03*
X149352000Y-149161000D03*
X149352000Y-147511000D03*
D21*
X148019000Y-62992000D03*
X149669000Y-62992000D03*
X148019000Y-30480000D03*
X149669000Y-30480000D03*
D22*
X97028000Y-76441000D03*
X97028000Y-77991000D03*
D21*
X107887000Y-160020000D03*
X109537000Y-160020000D03*
X99251000Y-128016000D03*
X100901000Y-128016000D03*
D10*
X93281000Y-166116000D03*
X91631000Y-166116000D03*
D21*
X102807000Y-166116000D03*
X104457000Y-166116000D03*
D23*
X114234000Y-163576000D03*
X112334000Y-163576000D03*
D10*
X71945000Y-23368000D03*
X70295000Y-23368000D03*
D21*
X131763000Y-21844000D03*
X133413000Y-21844000D03*
D24*
X48260000Y-113218000D03*
X48260000Y-111318000D03*
D10*
X87693000Y-155448000D03*
X86043000Y-155448000D03*
D25*
X145796000Y-149111000D03*
X145796000Y-147561000D03*
D26*
X139700000Y-104875000D03*
X139700000Y-79275000D03*
D10*
X137985000Y-142748000D03*
X136335000Y-142748000D03*
D13*
X61227000Y-153416000D03*
X59677000Y-153416000D03*
D21*
X129731000Y-168656000D03*
X131381000Y-168656000D03*
D25*
X67564000Y-28207000D03*
X67564000Y-26657000D03*
D27*
X55840000Y-50419000D03*
X55840000Y-51689000D03*
X55840000Y-52959000D03*
X55840000Y-54229000D03*
X55840000Y-55499000D03*
X55840000Y-56769000D03*
X55840000Y-58039000D03*
X55840000Y-59309000D03*
X50840000Y-59309000D03*
X50840000Y-58039000D03*
X50840000Y-56769000D03*
X50840000Y-55499000D03*
X50840000Y-54229000D03*
X50840000Y-52959000D03*
X50840000Y-51689000D03*
X50840000Y-50419000D03*
D21*
X59627000Y-154940000D03*
X61277000Y-154940000D03*
D28*
X125775000Y-45085000D03*
X121875000Y-45085000D03*
X125775000Y-46355000D03*
X121875000Y-46355000D03*
X125775000Y-47625000D03*
X121875000Y-47625000D03*
X125775000Y-48895000D03*
X121875000Y-48895000D03*
X125775000Y-50165000D03*
X121875000Y-50165000D03*
D20*
X124962500Y-167325000D03*
X124962500Y-168275000D03*
X124962500Y-169225000D03*
X122687500Y-169225000D03*
X122687500Y-167325000D03*
D13*
X146063000Y-61468000D03*
X144513000Y-61468000D03*
D10*
X149669000Y-61468000D03*
X148019000Y-61468000D03*
D13*
X137427000Y-114838000D03*
X135877000Y-114838000D03*
D29*
X88025000Y-60925000D03*
X88825000Y-60925000D03*
X89625000Y-60925000D03*
X90425000Y-60925000D03*
X91225000Y-60925000D03*
X92025000Y-60925000D03*
X92825000Y-60925000D03*
X93625000Y-60925000D03*
X94425000Y-60925000D03*
X95225000Y-60925000D03*
X96025000Y-60925000D03*
X96825000Y-60925000D03*
X97625000Y-60925000D03*
X98425000Y-60925000D03*
X99225000Y-60925000D03*
X100025000Y-60925000D03*
X100825000Y-60925000D03*
X101625000Y-60925000D03*
X102425000Y-60925000D03*
X103225000Y-60925000D03*
X104025000Y-60925000D03*
X104825000Y-60925000D03*
X105625000Y-60925000D03*
X106425000Y-60925000D03*
X107225000Y-60925000D03*
X108025000Y-60925000D03*
X108825000Y-60925000D03*
X108825000Y-72425000D03*
X108025000Y-72425000D03*
X107225000Y-72425000D03*
X106425000Y-72425000D03*
X105625000Y-72425000D03*
X104825000Y-72425000D03*
X104025000Y-72425000D03*
X103225000Y-72425000D03*
X102425000Y-72425000D03*
X101625000Y-72425000D03*
X100825000Y-72425000D03*
X100025000Y-72425000D03*
X99225000Y-72425000D03*
X98425000Y-72425000D03*
X97625000Y-72425000D03*
X96825000Y-72425000D03*
X96025000Y-72425000D03*
X95225000Y-72425000D03*
X94425000Y-72425000D03*
X93625000Y-72425000D03*
X92825000Y-72425000D03*
X92025000Y-72425000D03*
X91225000Y-72425000D03*
X90425000Y-72425000D03*
X89625000Y-72425000D03*
X88825000Y-72425000D03*
X88025000Y-72425000D03*
D21*
X136335000Y-141224000D03*
X137985000Y-141224000D03*
X86043000Y-153924000D03*
X87693000Y-153924000D03*
D23*
X47686000Y-49784000D03*
X45786000Y-49784000D03*
D10*
X109537000Y-162052000D03*
X107887000Y-162052000D03*
D24*
X143764000Y-149286000D03*
X143764000Y-147386000D03*
D30*
X52125000Y-112625000D03*
D31*
X53975000Y-111125000D03*
D30*
X52125000Y-109625000D03*
X55825000Y-109625000D03*
X55825000Y-112625000D03*
D32*
X70425000Y-40322500D03*
X70425000Y-39687500D03*
X70425000Y-39052500D03*
X70425000Y-38417500D03*
X70425000Y-37782500D03*
X70425000Y-37147500D03*
X70425000Y-36512500D03*
X70425000Y-35877500D03*
X75625000Y-35877500D03*
X75625000Y-36512500D03*
X75625000Y-37147500D03*
X75625000Y-37782500D03*
X75625000Y-38417500D03*
X75625000Y-39052500D03*
X75625000Y-39687500D03*
X75625000Y-40322500D03*
D21*
X73343000Y-141224000D03*
X74993000Y-141224000D03*
D10*
X61277000Y-156464000D03*
X59627000Y-156464000D03*
D13*
X47511000Y-57912000D03*
X45961000Y-57912000D03*
D21*
X122619000Y-128524000D03*
X124269000Y-128524000D03*
D13*
X74943000Y-139700000D03*
X73393000Y-139700000D03*
D10*
X48577000Y-109220000D03*
X46927000Y-109220000D03*
D33*
X56937500Y-104775000D03*
X51012500Y-104775000D03*
D34*
X81058000Y-163576000D03*
X85058000Y-163576000D03*
D25*
X87938000Y-56655000D03*
X87938000Y-55105000D03*
X90424000Y-56655000D03*
X90424000Y-55105000D03*
D23*
X47686000Y-59944000D03*
X45786000Y-59944000D03*
D35*
X104648000Y-146878000D03*
X104648000Y-148778000D03*
D25*
X98552000Y-56655000D03*
X98552000Y-55105000D03*
D13*
X146063000Y-32004000D03*
X144513000Y-32004000D03*
D18*
X125136000Y-175260000D03*
X120736000Y-175260000D03*
D36*
X120580000Y-23125000D03*
X119480000Y-23125000D03*
X118380000Y-23125000D03*
X117280000Y-23125000D03*
X116180000Y-23125000D03*
X115080000Y-23125000D03*
X113980000Y-23125000D03*
D37*
X112930000Y-23125000D03*
D38*
X123215000Y-29275000D03*
X123215000Y-32975000D03*
D39*
X123040000Y-23250000D03*
D40*
X119715000Y-33950000D03*
X113745000Y-33950000D03*
D41*
X111720000Y-23475000D03*
D22*
X91948000Y-76441000D03*
X91948000Y-77991000D03*
D14*
X140208000Y-149161000D03*
X140208000Y-147511000D03*
D42*
X120736000Y-161544000D03*
X125136000Y-161544000D03*
D13*
X115075000Y-152400000D03*
X113525000Y-152400000D03*
D21*
X148019000Y-128524000D03*
X149669000Y-128524000D03*
D43*
X99375000Y-163062500D03*
X98425000Y-163062500D03*
X97475000Y-163062500D03*
X97475000Y-160787500D03*
X98425000Y-160787500D03*
X99375000Y-160787500D03*
D13*
X100851000Y-126492000D03*
X99301000Y-126492000D03*
D15*
X107937000Y-157988000D03*
X109487000Y-157988000D03*
D19*
X50775000Y-120650000D03*
X57175000Y-120650000D03*
D13*
X47511000Y-51816000D03*
X45961000Y-51816000D03*
D21*
X73343000Y-167640000D03*
X74993000Y-167640000D03*
D23*
X64450000Y-116840000D03*
X62550000Y-116840000D03*
D13*
X149619000Y-127000000D03*
X148069000Y-127000000D03*
D22*
X67564000Y-23101000D03*
X67564000Y-24651000D03*
D44*
X150240000Y-156910000D03*
X150240000Y-157926000D03*
X150240000Y-158942000D03*
X150240000Y-159958000D03*
X150240000Y-164022000D03*
X150240000Y-166054000D03*
X150240000Y-167070000D03*
X150240000Y-168086000D03*
X150240000Y-169102000D03*
X135510000Y-167064000D03*
X135510000Y-166048000D03*
X135510000Y-165032000D03*
X135510000Y-164016000D03*
X135510000Y-163000000D03*
X135510000Y-161984000D03*
X135510000Y-160968000D03*
X135510000Y-159952000D03*
X135510000Y-158936000D03*
X135510000Y-157920000D03*
D45*
X137410000Y-154240000D03*
X140458000Y-154240000D03*
X141474000Y-154240000D03*
X142490000Y-154240000D03*
X143506000Y-154240000D03*
X144522000Y-154240000D03*
X145538000Y-154240000D03*
X146554000Y-154240000D03*
X147570000Y-154240000D03*
D46*
X142390000Y-160510000D03*
D10*
X56197000Y-47752000D03*
X54547000Y-47752000D03*
D13*
X124219000Y-127000000D03*
X122669000Y-127000000D03*
D25*
X108712000Y-56655000D03*
X108712000Y-55105000D03*
D17*
X122875000Y-171704000D03*
X124775000Y-171704000D03*
D25*
X141732000Y-149111000D03*
X141732000Y-147561000D03*
D23*
X115250000Y-159004000D03*
X113350000Y-159004000D03*
D35*
X107188000Y-146878000D03*
X107188000Y-148778000D03*
D13*
X137935000Y-139700000D03*
X136385000Y-139700000D03*
D25*
X94488000Y-56655000D03*
X94488000Y-55105000D03*
D21*
X135827000Y-116332000D03*
X137477000Y-116332000D03*
D47*
X108991500Y-174752000D03*
X107416500Y-174752000D03*
M02*
