G04 #@! TF.GenerationSoftware,KiCad,Pcbnew,7.0.1*
G04 #@! TF.CreationDate,2024-01-20T14:02:29+00:00*
G04 #@! TF.ProjectId,gk,676b2e6b-6963-4616-945f-706362585858,rev?*
G04 #@! TF.SameCoordinates,Original*
G04 #@! TF.FileFunction,Legend,Top*
G04 #@! TF.FilePolarity,Positive*
%FSLAX46Y46*%
G04 Gerber Fmt 4.6, Leading zero omitted, Abs format (unit mm)*
G04 Created by KiCad (PCBNEW 7.0.1) date 2024-01-20 14:02:29*
%MOMM*%
%LPD*%
G01*
G04 APERTURE LIST*
G04 Aperture macros list*
%AMRoundRect*
0 Rectangle with rounded corners*
0 $1 Rounding radius*
0 $2 $3 $4 $5 $6 $7 $8 $9 X,Y pos of 4 corners*
0 Add a 4 corners polygon primitive as box body*
4,1,4,$2,$3,$4,$5,$6,$7,$8,$9,$2,$3,0*
0 Add four circle primitives for the rounded corners*
1,1,$1+$1,$2,$3*
1,1,$1+$1,$4,$5*
1,1,$1+$1,$6,$7*
1,1,$1+$1,$8,$9*
0 Add four rect primitives between the rounded corners*
20,1,$1+$1,$2,$3,$4,$5,0*
20,1,$1+$1,$4,$5,$6,$7,0*
20,1,$1+$1,$6,$7,$8,$9,0*
20,1,$1+$1,$8,$9,$2,$3,0*%
%AMRotRect*
0 Rectangle, with rotation*
0 The origin of the aperture is its center*
0 $1 length*
0 $2 width*
0 $3 Rotation angle, in degrees counterclockwise*
0 Add horizontal line*
21,1,$1,$2,0,0,$3*%
G04 Aperture macros list end*
%ADD10C,0.150000*%
%ADD11C,0.120000*%
%ADD12RoundRect,0.225000X0.225000X0.250000X-0.225000X0.250000X-0.225000X-0.250000X0.225000X-0.250000X0*%
%ADD13RoundRect,0.200000X-0.200000X-0.275000X0.200000X-0.275000X0.200000X0.275000X-0.200000X0.275000X0*%
%ADD14RoundRect,0.225000X-0.225000X-0.250000X0.225000X-0.250000X0.225000X0.250000X-0.225000X0.250000X0*%
%ADD15RoundRect,0.250000X-0.250000X-0.475000X0.250000X-0.475000X0.250000X0.475000X-0.250000X0.475000X0*%
%ADD16C,3.200000*%
%ADD17RoundRect,0.250000X-0.475000X0.250000X-0.475000X-0.250000X0.475000X-0.250000X0.475000X0.250000X0*%
%ADD18RotRect,0.900000X0.800000X135.000000*%
%ADD19RoundRect,0.225000X-0.250000X0.225000X-0.250000X-0.225000X0.250000X-0.225000X0.250000X0.225000X0*%
%ADD20RoundRect,0.200000X0.275000X-0.200000X0.275000X0.200000X-0.275000X0.200000X-0.275000X-0.200000X0*%
%ADD21R,1.700000X1.700000*%
%ADD22RoundRect,0.200000X0.200000X0.275000X-0.200000X0.275000X-0.200000X-0.275000X0.200000X-0.275000X0*%
%ADD23RoundRect,0.250000X0.475000X-0.250000X0.475000X0.250000X-0.475000X0.250000X-0.475000X-0.250000X0*%
%ADD24RoundRect,0.225000X0.250000X-0.225000X0.250000X0.225000X-0.250000X0.225000X-0.250000X-0.225000X0*%
%ADD25R,1.400000X1.150000*%
%ADD26RotRect,0.900000X0.800000X45.000000*%
%ADD27RoundRect,0.087500X-0.225000X-0.087500X0.225000X-0.087500X0.225000X0.087500X-0.225000X0.087500X0*%
%ADD28RoundRect,0.087500X-0.087500X-0.225000X0.087500X-0.225000X0.087500X0.225000X-0.087500X0.225000X0*%
%ADD29RoundRect,0.200000X-0.275000X0.200000X-0.275000X-0.200000X0.275000X-0.200000X0.275000X0.200000X0*%
%ADD30R,2.000000X2.000000*%
%ADD31C,2.000000*%
%ADD32R,3.200000X2.000000*%
%ADD33RoundRect,0.075000X-0.675000X-0.075000X0.675000X-0.075000X0.675000X0.075000X-0.675000X0.075000X0*%
%ADD34RoundRect,0.075000X-0.075000X-0.675000X0.075000X-0.675000X0.075000X0.675000X-0.075000X0.675000X0*%
%ADD35RoundRect,0.250000X0.250000X0.475000X-0.250000X0.475000X-0.250000X-0.475000X0.250000X-0.475000X0*%
%ADD36C,2.200000*%
%ADD37C,1.700000*%
%ADD38R,1.600000X1.600000*%
%ADD39O,1.600000X1.600000*%
%ADD40RoundRect,0.200000X0.200000X0.450000X-0.200000X0.450000X-0.200000X-0.450000X0.200000X-0.450000X0*%
%ADD41O,0.800000X1.300000*%
%ADD42C,0.650000*%
%ADD43O,1.000000X1.600000*%
%ADD44O,1.000000X2.100000*%
%ADD45C,1.600000*%
%ADD46R,3.500000X3.500000*%
%ADD47RoundRect,0.750000X1.000000X-0.750000X1.000000X0.750000X-1.000000X0.750000X-1.000000X-0.750000X0*%
%ADD48RoundRect,0.875000X0.875000X-0.875000X0.875000X0.875000X-0.875000X0.875000X-0.875000X-0.875000X0*%
%ADD49O,2.200000X4.000000*%
%ADD50O,4.000000X2.200000*%
%ADD51R,2.200000X4.000000*%
%ADD52RoundRect,0.250000X-0.750000X0.600000X-0.750000X-0.600000X0.750000X-0.600000X0.750000X0.600000X0*%
%ADD53O,2.000000X1.700000*%
%ADD54RoundRect,0.250000X0.350000X0.625000X-0.350000X0.625000X-0.350000X-0.625000X0.350000X-0.625000X0*%
%ADD55O,1.200000X1.750000*%
G04 APERTURE END LIST*
D10*
X78097142Y-71901380D02*
X78049523Y-71949000D01*
X78049523Y-71949000D02*
X77906666Y-71996619D01*
X77906666Y-71996619D02*
X77811428Y-71996619D01*
X77811428Y-71996619D02*
X77668571Y-71949000D01*
X77668571Y-71949000D02*
X77573333Y-71853761D01*
X77573333Y-71853761D02*
X77525714Y-71758523D01*
X77525714Y-71758523D02*
X77478095Y-71568047D01*
X77478095Y-71568047D02*
X77478095Y-71425190D01*
X77478095Y-71425190D02*
X77525714Y-71234714D01*
X77525714Y-71234714D02*
X77573333Y-71139476D01*
X77573333Y-71139476D02*
X77668571Y-71044238D01*
X77668571Y-71044238D02*
X77811428Y-70996619D01*
X77811428Y-70996619D02*
X77906666Y-70996619D01*
X77906666Y-70996619D02*
X78049523Y-71044238D01*
X78049523Y-71044238D02*
X78097142Y-71091857D01*
X79049523Y-71996619D02*
X78478095Y-71996619D01*
X78763809Y-71996619D02*
X78763809Y-70996619D01*
X78763809Y-70996619D02*
X78668571Y-71139476D01*
X78668571Y-71139476D02*
X78573333Y-71234714D01*
X78573333Y-71234714D02*
X78478095Y-71282333D01*
X79906666Y-70996619D02*
X79716190Y-70996619D01*
X79716190Y-70996619D02*
X79620952Y-71044238D01*
X79620952Y-71044238D02*
X79573333Y-71091857D01*
X79573333Y-71091857D02*
X79478095Y-71234714D01*
X79478095Y-71234714D02*
X79430476Y-71425190D01*
X79430476Y-71425190D02*
X79430476Y-71806142D01*
X79430476Y-71806142D02*
X79478095Y-71901380D01*
X79478095Y-71901380D02*
X79525714Y-71949000D01*
X79525714Y-71949000D02*
X79620952Y-71996619D01*
X79620952Y-71996619D02*
X79811428Y-71996619D01*
X79811428Y-71996619D02*
X79906666Y-71949000D01*
X79906666Y-71949000D02*
X79954285Y-71901380D01*
X79954285Y-71901380D02*
X80001904Y-71806142D01*
X80001904Y-71806142D02*
X80001904Y-71568047D01*
X80001904Y-71568047D02*
X79954285Y-71472809D01*
X79954285Y-71472809D02*
X79906666Y-71425190D01*
X79906666Y-71425190D02*
X79811428Y-71377571D01*
X79811428Y-71377571D02*
X79620952Y-71377571D01*
X79620952Y-71377571D02*
X79525714Y-71425190D01*
X79525714Y-71425190D02*
X79478095Y-71472809D01*
X79478095Y-71472809D02*
X79430476Y-71568047D01*
X97401142Y-34084619D02*
X97067809Y-33608428D01*
X96829714Y-34084619D02*
X96829714Y-33084619D01*
X96829714Y-33084619D02*
X97210666Y-33084619D01*
X97210666Y-33084619D02*
X97305904Y-33132238D01*
X97305904Y-33132238D02*
X97353523Y-33179857D01*
X97353523Y-33179857D02*
X97401142Y-33275095D01*
X97401142Y-33275095D02*
X97401142Y-33417952D01*
X97401142Y-33417952D02*
X97353523Y-33513190D01*
X97353523Y-33513190D02*
X97305904Y-33560809D01*
X97305904Y-33560809D02*
X97210666Y-33608428D01*
X97210666Y-33608428D02*
X96829714Y-33608428D01*
X98353523Y-34084619D02*
X97782095Y-34084619D01*
X98067809Y-34084619D02*
X98067809Y-33084619D01*
X98067809Y-33084619D02*
X97972571Y-33227476D01*
X97972571Y-33227476D02*
X97877333Y-33322714D01*
X97877333Y-33322714D02*
X97782095Y-33370333D01*
X98972571Y-33084619D02*
X99067809Y-33084619D01*
X99067809Y-33084619D02*
X99163047Y-33132238D01*
X99163047Y-33132238D02*
X99210666Y-33179857D01*
X99210666Y-33179857D02*
X99258285Y-33275095D01*
X99258285Y-33275095D02*
X99305904Y-33465571D01*
X99305904Y-33465571D02*
X99305904Y-33703666D01*
X99305904Y-33703666D02*
X99258285Y-33894142D01*
X99258285Y-33894142D02*
X99210666Y-33989380D01*
X99210666Y-33989380D02*
X99163047Y-34037000D01*
X99163047Y-34037000D02*
X99067809Y-34084619D01*
X99067809Y-34084619D02*
X98972571Y-34084619D01*
X98972571Y-34084619D02*
X98877333Y-34037000D01*
X98877333Y-34037000D02*
X98829714Y-33989380D01*
X98829714Y-33989380D02*
X98782095Y-33894142D01*
X98782095Y-33894142D02*
X98734476Y-33703666D01*
X98734476Y-33703666D02*
X98734476Y-33465571D01*
X98734476Y-33465571D02*
X98782095Y-33275095D01*
X98782095Y-33275095D02*
X98829714Y-33179857D01*
X98829714Y-33179857D02*
X98877333Y-33132238D01*
X98877333Y-33132238D02*
X98972571Y-33084619D01*
X75255714Y-150355000D02*
X75398571Y-150402619D01*
X75398571Y-150402619D02*
X75636666Y-150402619D01*
X75636666Y-150402619D02*
X75731904Y-150355000D01*
X75731904Y-150355000D02*
X75779523Y-150307380D01*
X75779523Y-150307380D02*
X75827142Y-150212142D01*
X75827142Y-150212142D02*
X75827142Y-150116904D01*
X75827142Y-150116904D02*
X75779523Y-150021666D01*
X75779523Y-150021666D02*
X75731904Y-149974047D01*
X75731904Y-149974047D02*
X75636666Y-149926428D01*
X75636666Y-149926428D02*
X75446190Y-149878809D01*
X75446190Y-149878809D02*
X75350952Y-149831190D01*
X75350952Y-149831190D02*
X75303333Y-149783571D01*
X75303333Y-149783571D02*
X75255714Y-149688333D01*
X75255714Y-149688333D02*
X75255714Y-149593095D01*
X75255714Y-149593095D02*
X75303333Y-149497857D01*
X75303333Y-149497857D02*
X75350952Y-149450238D01*
X75350952Y-149450238D02*
X75446190Y-149402619D01*
X75446190Y-149402619D02*
X75684285Y-149402619D01*
X75684285Y-149402619D02*
X75827142Y-149450238D01*
X76160476Y-149402619D02*
X76398571Y-150402619D01*
X76398571Y-150402619D02*
X76589047Y-149688333D01*
X76589047Y-149688333D02*
X76779523Y-150402619D01*
X76779523Y-150402619D02*
X77017619Y-149402619D01*
X77160476Y-150497857D02*
X77922380Y-150497857D01*
X78731904Y-150402619D02*
X78398571Y-149926428D01*
X78160476Y-150402619D02*
X78160476Y-149402619D01*
X78160476Y-149402619D02*
X78541428Y-149402619D01*
X78541428Y-149402619D02*
X78636666Y-149450238D01*
X78636666Y-149450238D02*
X78684285Y-149497857D01*
X78684285Y-149497857D02*
X78731904Y-149593095D01*
X78731904Y-149593095D02*
X78731904Y-149735952D01*
X78731904Y-149735952D02*
X78684285Y-149831190D01*
X78684285Y-149831190D02*
X78636666Y-149878809D01*
X78636666Y-149878809D02*
X78541428Y-149926428D01*
X78541428Y-149926428D02*
X78160476Y-149926428D01*
X79684285Y-150402619D02*
X79112857Y-150402619D01*
X79398571Y-150402619D02*
X79398571Y-149402619D01*
X79398571Y-149402619D02*
X79303333Y-149545476D01*
X79303333Y-149545476D02*
X79208095Y-149640714D01*
X79208095Y-149640714D02*
X79112857Y-149688333D01*
X121531142Y-73519380D02*
X121483523Y-73567000D01*
X121483523Y-73567000D02*
X121340666Y-73614619D01*
X121340666Y-73614619D02*
X121245428Y-73614619D01*
X121245428Y-73614619D02*
X121102571Y-73567000D01*
X121102571Y-73567000D02*
X121007333Y-73471761D01*
X121007333Y-73471761D02*
X120959714Y-73376523D01*
X120959714Y-73376523D02*
X120912095Y-73186047D01*
X120912095Y-73186047D02*
X120912095Y-73043190D01*
X120912095Y-73043190D02*
X120959714Y-72852714D01*
X120959714Y-72852714D02*
X121007333Y-72757476D01*
X121007333Y-72757476D02*
X121102571Y-72662238D01*
X121102571Y-72662238D02*
X121245428Y-72614619D01*
X121245428Y-72614619D02*
X121340666Y-72614619D01*
X121340666Y-72614619D02*
X121483523Y-72662238D01*
X121483523Y-72662238D02*
X121531142Y-72709857D01*
X121912095Y-72709857D02*
X121959714Y-72662238D01*
X121959714Y-72662238D02*
X122054952Y-72614619D01*
X122054952Y-72614619D02*
X122293047Y-72614619D01*
X122293047Y-72614619D02*
X122388285Y-72662238D01*
X122388285Y-72662238D02*
X122435904Y-72709857D01*
X122435904Y-72709857D02*
X122483523Y-72805095D01*
X122483523Y-72805095D02*
X122483523Y-72900333D01*
X122483523Y-72900333D02*
X122435904Y-73043190D01*
X122435904Y-73043190D02*
X121864476Y-73614619D01*
X121864476Y-73614619D02*
X122483523Y-73614619D01*
X122816857Y-72614619D02*
X123483523Y-72614619D01*
X123483523Y-72614619D02*
X123054952Y-73614619D01*
X121531142Y-56247380D02*
X121483523Y-56295000D01*
X121483523Y-56295000D02*
X121340666Y-56342619D01*
X121340666Y-56342619D02*
X121245428Y-56342619D01*
X121245428Y-56342619D02*
X121102571Y-56295000D01*
X121102571Y-56295000D02*
X121007333Y-56199761D01*
X121007333Y-56199761D02*
X120959714Y-56104523D01*
X120959714Y-56104523D02*
X120912095Y-55914047D01*
X120912095Y-55914047D02*
X120912095Y-55771190D01*
X120912095Y-55771190D02*
X120959714Y-55580714D01*
X120959714Y-55580714D02*
X121007333Y-55485476D01*
X121007333Y-55485476D02*
X121102571Y-55390238D01*
X121102571Y-55390238D02*
X121245428Y-55342619D01*
X121245428Y-55342619D02*
X121340666Y-55342619D01*
X121340666Y-55342619D02*
X121483523Y-55390238D01*
X121483523Y-55390238D02*
X121531142Y-55437857D01*
X121864476Y-55342619D02*
X122531142Y-55342619D01*
X122531142Y-55342619D02*
X122102571Y-56342619D01*
X122816857Y-55342619D02*
X123483523Y-55342619D01*
X123483523Y-55342619D02*
X123054952Y-56342619D01*
X65278095Y-151202619D02*
X65278095Y-150202619D01*
X65278095Y-150678809D02*
X65849523Y-150678809D01*
X65849523Y-151202619D02*
X65849523Y-150202619D01*
X66849523Y-151202619D02*
X66278095Y-151202619D01*
X66563809Y-151202619D02*
X66563809Y-150202619D01*
X66563809Y-150202619D02*
X66468571Y-150345476D01*
X66468571Y-150345476D02*
X66373333Y-150440714D01*
X66373333Y-150440714D02*
X66278095Y-150488333D01*
X121531142Y-54215380D02*
X121483523Y-54263000D01*
X121483523Y-54263000D02*
X121340666Y-54310619D01*
X121340666Y-54310619D02*
X121245428Y-54310619D01*
X121245428Y-54310619D02*
X121102571Y-54263000D01*
X121102571Y-54263000D02*
X121007333Y-54167761D01*
X121007333Y-54167761D02*
X120959714Y-54072523D01*
X120959714Y-54072523D02*
X120912095Y-53882047D01*
X120912095Y-53882047D02*
X120912095Y-53739190D01*
X120912095Y-53739190D02*
X120959714Y-53548714D01*
X120959714Y-53548714D02*
X121007333Y-53453476D01*
X121007333Y-53453476D02*
X121102571Y-53358238D01*
X121102571Y-53358238D02*
X121245428Y-53310619D01*
X121245428Y-53310619D02*
X121340666Y-53310619D01*
X121340666Y-53310619D02*
X121483523Y-53358238D01*
X121483523Y-53358238D02*
X121531142Y-53405857D01*
X121912095Y-53405857D02*
X121959714Y-53358238D01*
X121959714Y-53358238D02*
X122054952Y-53310619D01*
X122054952Y-53310619D02*
X122293047Y-53310619D01*
X122293047Y-53310619D02*
X122388285Y-53358238D01*
X122388285Y-53358238D02*
X122435904Y-53405857D01*
X122435904Y-53405857D02*
X122483523Y-53501095D01*
X122483523Y-53501095D02*
X122483523Y-53596333D01*
X122483523Y-53596333D02*
X122435904Y-53739190D01*
X122435904Y-53739190D02*
X121864476Y-54310619D01*
X121864476Y-54310619D02*
X122483523Y-54310619D01*
X123340666Y-53643952D02*
X123340666Y-54310619D01*
X123102571Y-53263000D02*
X122864476Y-53977285D01*
X122864476Y-53977285D02*
X123483523Y-53977285D01*
X121531142Y-60819380D02*
X121483523Y-60867000D01*
X121483523Y-60867000D02*
X121340666Y-60914619D01*
X121340666Y-60914619D02*
X121245428Y-60914619D01*
X121245428Y-60914619D02*
X121102571Y-60867000D01*
X121102571Y-60867000D02*
X121007333Y-60771761D01*
X121007333Y-60771761D02*
X120959714Y-60676523D01*
X120959714Y-60676523D02*
X120912095Y-60486047D01*
X120912095Y-60486047D02*
X120912095Y-60343190D01*
X120912095Y-60343190D02*
X120959714Y-60152714D01*
X120959714Y-60152714D02*
X121007333Y-60057476D01*
X121007333Y-60057476D02*
X121102571Y-59962238D01*
X121102571Y-59962238D02*
X121245428Y-59914619D01*
X121245428Y-59914619D02*
X121340666Y-59914619D01*
X121340666Y-59914619D02*
X121483523Y-59962238D01*
X121483523Y-59962238D02*
X121531142Y-60009857D01*
X121912095Y-60009857D02*
X121959714Y-59962238D01*
X121959714Y-59962238D02*
X122054952Y-59914619D01*
X122054952Y-59914619D02*
X122293047Y-59914619D01*
X122293047Y-59914619D02*
X122388285Y-59962238D01*
X122388285Y-59962238D02*
X122435904Y-60009857D01*
X122435904Y-60009857D02*
X122483523Y-60105095D01*
X122483523Y-60105095D02*
X122483523Y-60200333D01*
X122483523Y-60200333D02*
X122435904Y-60343190D01*
X122435904Y-60343190D02*
X121864476Y-60914619D01*
X121864476Y-60914619D02*
X122483523Y-60914619D01*
X123388285Y-59914619D02*
X122912095Y-59914619D01*
X122912095Y-59914619D02*
X122864476Y-60390809D01*
X122864476Y-60390809D02*
X122912095Y-60343190D01*
X122912095Y-60343190D02*
X123007333Y-60295571D01*
X123007333Y-60295571D02*
X123245428Y-60295571D01*
X123245428Y-60295571D02*
X123340666Y-60343190D01*
X123340666Y-60343190D02*
X123388285Y-60390809D01*
X123388285Y-60390809D02*
X123435904Y-60486047D01*
X123435904Y-60486047D02*
X123435904Y-60724142D01*
X123435904Y-60724142D02*
X123388285Y-60819380D01*
X123388285Y-60819380D02*
X123340666Y-60867000D01*
X123340666Y-60867000D02*
X123245428Y-60914619D01*
X123245428Y-60914619D02*
X123007333Y-60914619D01*
X123007333Y-60914619D02*
X122912095Y-60867000D01*
X122912095Y-60867000D02*
X122864476Y-60819380D01*
X52490952Y-150355000D02*
X52633809Y-150402619D01*
X52633809Y-150402619D02*
X52871904Y-150402619D01*
X52871904Y-150402619D02*
X52967142Y-150355000D01*
X52967142Y-150355000D02*
X53014761Y-150307380D01*
X53014761Y-150307380D02*
X53062380Y-150212142D01*
X53062380Y-150212142D02*
X53062380Y-150116904D01*
X53062380Y-150116904D02*
X53014761Y-150021666D01*
X53014761Y-150021666D02*
X52967142Y-149974047D01*
X52967142Y-149974047D02*
X52871904Y-149926428D01*
X52871904Y-149926428D02*
X52681428Y-149878809D01*
X52681428Y-149878809D02*
X52586190Y-149831190D01*
X52586190Y-149831190D02*
X52538571Y-149783571D01*
X52538571Y-149783571D02*
X52490952Y-149688333D01*
X52490952Y-149688333D02*
X52490952Y-149593095D01*
X52490952Y-149593095D02*
X52538571Y-149497857D01*
X52538571Y-149497857D02*
X52586190Y-149450238D01*
X52586190Y-149450238D02*
X52681428Y-149402619D01*
X52681428Y-149402619D02*
X52919523Y-149402619D01*
X52919523Y-149402619D02*
X53062380Y-149450238D01*
X53395714Y-149402619D02*
X53633809Y-150402619D01*
X53633809Y-150402619D02*
X53824285Y-149688333D01*
X53824285Y-149688333D02*
X54014761Y-150402619D01*
X54014761Y-150402619D02*
X54252857Y-149402619D01*
X54395714Y-150497857D02*
X55157618Y-150497857D01*
X55871904Y-150402619D02*
X55395714Y-150402619D01*
X55395714Y-150402619D02*
X55395714Y-149402619D01*
X56729047Y-150402619D02*
X56157619Y-150402619D01*
X56443333Y-150402619D02*
X56443333Y-149402619D01*
X56443333Y-149402619D02*
X56348095Y-149545476D01*
X56348095Y-149545476D02*
X56252857Y-149640714D01*
X56252857Y-149640714D02*
X56157619Y-149688333D01*
X63801905Y-138925000D02*
X63944762Y-138972619D01*
X63944762Y-138972619D02*
X64182857Y-138972619D01*
X64182857Y-138972619D02*
X64278095Y-138925000D01*
X64278095Y-138925000D02*
X64325714Y-138877380D01*
X64325714Y-138877380D02*
X64373333Y-138782142D01*
X64373333Y-138782142D02*
X64373333Y-138686904D01*
X64373333Y-138686904D02*
X64325714Y-138591666D01*
X64325714Y-138591666D02*
X64278095Y-138544047D01*
X64278095Y-138544047D02*
X64182857Y-138496428D01*
X64182857Y-138496428D02*
X63992381Y-138448809D01*
X63992381Y-138448809D02*
X63897143Y-138401190D01*
X63897143Y-138401190D02*
X63849524Y-138353571D01*
X63849524Y-138353571D02*
X63801905Y-138258333D01*
X63801905Y-138258333D02*
X63801905Y-138163095D01*
X63801905Y-138163095D02*
X63849524Y-138067857D01*
X63849524Y-138067857D02*
X63897143Y-138020238D01*
X63897143Y-138020238D02*
X63992381Y-137972619D01*
X63992381Y-137972619D02*
X64230476Y-137972619D01*
X64230476Y-137972619D02*
X64373333Y-138020238D01*
X64706667Y-137972619D02*
X64944762Y-138972619D01*
X64944762Y-138972619D02*
X65135238Y-138258333D01*
X65135238Y-138258333D02*
X65325714Y-138972619D01*
X65325714Y-138972619D02*
X65563810Y-137972619D01*
X65706667Y-139067857D02*
X66468571Y-139067857D01*
X66706667Y-137972619D02*
X66706667Y-138782142D01*
X66706667Y-138782142D02*
X66754286Y-138877380D01*
X66754286Y-138877380D02*
X66801905Y-138925000D01*
X66801905Y-138925000D02*
X66897143Y-138972619D01*
X66897143Y-138972619D02*
X67087619Y-138972619D01*
X67087619Y-138972619D02*
X67182857Y-138925000D01*
X67182857Y-138925000D02*
X67230476Y-138877380D01*
X67230476Y-138877380D02*
X67278095Y-138782142D01*
X67278095Y-138782142D02*
X67278095Y-137972619D01*
X68278095Y-138972619D02*
X67706667Y-138972619D01*
X67992381Y-138972619D02*
X67992381Y-137972619D01*
X67992381Y-137972619D02*
X67897143Y-138115476D01*
X67897143Y-138115476D02*
X67801905Y-138210714D01*
X67801905Y-138210714D02*
X67706667Y-138258333D01*
X80279380Y-67190857D02*
X80327000Y-67238476D01*
X80327000Y-67238476D02*
X80374619Y-67381333D01*
X80374619Y-67381333D02*
X80374619Y-67476571D01*
X80374619Y-67476571D02*
X80327000Y-67619428D01*
X80327000Y-67619428D02*
X80231761Y-67714666D01*
X80231761Y-67714666D02*
X80136523Y-67762285D01*
X80136523Y-67762285D02*
X79946047Y-67809904D01*
X79946047Y-67809904D02*
X79803190Y-67809904D01*
X79803190Y-67809904D02*
X79612714Y-67762285D01*
X79612714Y-67762285D02*
X79517476Y-67714666D01*
X79517476Y-67714666D02*
X79422238Y-67619428D01*
X79422238Y-67619428D02*
X79374619Y-67476571D01*
X79374619Y-67476571D02*
X79374619Y-67381333D01*
X79374619Y-67381333D02*
X79422238Y-67238476D01*
X79422238Y-67238476D02*
X79469857Y-67190857D01*
X80374619Y-66238476D02*
X80374619Y-66809904D01*
X80374619Y-66524190D02*
X79374619Y-66524190D01*
X79374619Y-66524190D02*
X79517476Y-66619428D01*
X79517476Y-66619428D02*
X79612714Y-66714666D01*
X79612714Y-66714666D02*
X79660333Y-66809904D01*
X79374619Y-65619428D02*
X79374619Y-65524190D01*
X79374619Y-65524190D02*
X79422238Y-65428952D01*
X79422238Y-65428952D02*
X79469857Y-65381333D01*
X79469857Y-65381333D02*
X79565095Y-65333714D01*
X79565095Y-65333714D02*
X79755571Y-65286095D01*
X79755571Y-65286095D02*
X79993666Y-65286095D01*
X79993666Y-65286095D02*
X80184142Y-65333714D01*
X80184142Y-65333714D02*
X80279380Y-65381333D01*
X80279380Y-65381333D02*
X80327000Y-65428952D01*
X80327000Y-65428952D02*
X80374619Y-65524190D01*
X80374619Y-65524190D02*
X80374619Y-65619428D01*
X80374619Y-65619428D02*
X80327000Y-65714666D01*
X80327000Y-65714666D02*
X80279380Y-65762285D01*
X80279380Y-65762285D02*
X80184142Y-65809904D01*
X80184142Y-65809904D02*
X79993666Y-65857523D01*
X79993666Y-65857523D02*
X79755571Y-65857523D01*
X79755571Y-65857523D02*
X79565095Y-65809904D01*
X79565095Y-65809904D02*
X79469857Y-65762285D01*
X79469857Y-65762285D02*
X79422238Y-65714666D01*
X79422238Y-65714666D02*
X79374619Y-65619428D01*
X83081905Y-137419420D02*
X83081905Y-136419420D01*
X83081905Y-136419420D02*
X83320000Y-136419420D01*
X83320000Y-136419420D02*
X83462857Y-136467039D01*
X83462857Y-136467039D02*
X83558095Y-136562277D01*
X83558095Y-136562277D02*
X83605714Y-136657515D01*
X83605714Y-136657515D02*
X83653333Y-136847991D01*
X83653333Y-136847991D02*
X83653333Y-136990848D01*
X83653333Y-136990848D02*
X83605714Y-137181324D01*
X83605714Y-137181324D02*
X83558095Y-137276562D01*
X83558095Y-137276562D02*
X83462857Y-137371801D01*
X83462857Y-137371801D02*
X83320000Y-137419420D01*
X83320000Y-137419420D02*
X83081905Y-137419420D01*
X83986667Y-136419420D02*
X84653333Y-136419420D01*
X84653333Y-136419420D02*
X84224762Y-137419420D01*
X111017380Y-87510857D02*
X111065000Y-87558476D01*
X111065000Y-87558476D02*
X111112619Y-87701333D01*
X111112619Y-87701333D02*
X111112619Y-87796571D01*
X111112619Y-87796571D02*
X111065000Y-87939428D01*
X111065000Y-87939428D02*
X110969761Y-88034666D01*
X110969761Y-88034666D02*
X110874523Y-88082285D01*
X110874523Y-88082285D02*
X110684047Y-88129904D01*
X110684047Y-88129904D02*
X110541190Y-88129904D01*
X110541190Y-88129904D02*
X110350714Y-88082285D01*
X110350714Y-88082285D02*
X110255476Y-88034666D01*
X110255476Y-88034666D02*
X110160238Y-87939428D01*
X110160238Y-87939428D02*
X110112619Y-87796571D01*
X110112619Y-87796571D02*
X110112619Y-87701333D01*
X110112619Y-87701333D02*
X110160238Y-87558476D01*
X110160238Y-87558476D02*
X110207857Y-87510857D01*
X110207857Y-87129904D02*
X110160238Y-87082285D01*
X110160238Y-87082285D02*
X110112619Y-86987047D01*
X110112619Y-86987047D02*
X110112619Y-86748952D01*
X110112619Y-86748952D02*
X110160238Y-86653714D01*
X110160238Y-86653714D02*
X110207857Y-86606095D01*
X110207857Y-86606095D02*
X110303095Y-86558476D01*
X110303095Y-86558476D02*
X110398333Y-86558476D01*
X110398333Y-86558476D02*
X110541190Y-86606095D01*
X110541190Y-86606095D02*
X111112619Y-87177523D01*
X111112619Y-87177523D02*
X111112619Y-86558476D01*
X111112619Y-86082285D02*
X111112619Y-85891809D01*
X111112619Y-85891809D02*
X111065000Y-85796571D01*
X111065000Y-85796571D02*
X111017380Y-85748952D01*
X111017380Y-85748952D02*
X110874523Y-85653714D01*
X110874523Y-85653714D02*
X110684047Y-85606095D01*
X110684047Y-85606095D02*
X110303095Y-85606095D01*
X110303095Y-85606095D02*
X110207857Y-85653714D01*
X110207857Y-85653714D02*
X110160238Y-85701333D01*
X110160238Y-85701333D02*
X110112619Y-85796571D01*
X110112619Y-85796571D02*
X110112619Y-85987047D01*
X110112619Y-85987047D02*
X110160238Y-86082285D01*
X110160238Y-86082285D02*
X110207857Y-86129904D01*
X110207857Y-86129904D02*
X110303095Y-86177523D01*
X110303095Y-86177523D02*
X110541190Y-86177523D01*
X110541190Y-86177523D02*
X110636428Y-86129904D01*
X110636428Y-86129904D02*
X110684047Y-86082285D01*
X110684047Y-86082285D02*
X110731666Y-85987047D01*
X110731666Y-85987047D02*
X110731666Y-85796571D01*
X110731666Y-85796571D02*
X110684047Y-85701333D01*
X110684047Y-85701333D02*
X110636428Y-85653714D01*
X110636428Y-85653714D02*
X110541190Y-85606095D01*
X77589142Y-58693380D02*
X77541523Y-58741000D01*
X77541523Y-58741000D02*
X77398666Y-58788619D01*
X77398666Y-58788619D02*
X77303428Y-58788619D01*
X77303428Y-58788619D02*
X77160571Y-58741000D01*
X77160571Y-58741000D02*
X77065333Y-58645761D01*
X77065333Y-58645761D02*
X77017714Y-58550523D01*
X77017714Y-58550523D02*
X76970095Y-58360047D01*
X76970095Y-58360047D02*
X76970095Y-58217190D01*
X76970095Y-58217190D02*
X77017714Y-58026714D01*
X77017714Y-58026714D02*
X77065333Y-57931476D01*
X77065333Y-57931476D02*
X77160571Y-57836238D01*
X77160571Y-57836238D02*
X77303428Y-57788619D01*
X77303428Y-57788619D02*
X77398666Y-57788619D01*
X77398666Y-57788619D02*
X77541523Y-57836238D01*
X77541523Y-57836238D02*
X77589142Y-57883857D01*
X78541523Y-58788619D02*
X77970095Y-58788619D01*
X78255809Y-58788619D02*
X78255809Y-57788619D01*
X78255809Y-57788619D02*
X78160571Y-57931476D01*
X78160571Y-57931476D02*
X78065333Y-58026714D01*
X78065333Y-58026714D02*
X77970095Y-58074333D01*
X78874857Y-57788619D02*
X79541523Y-57788619D01*
X79541523Y-57788619D02*
X79112952Y-58788619D01*
X127881142Y-24845380D02*
X127833523Y-24893000D01*
X127833523Y-24893000D02*
X127690666Y-24940619D01*
X127690666Y-24940619D02*
X127595428Y-24940619D01*
X127595428Y-24940619D02*
X127452571Y-24893000D01*
X127452571Y-24893000D02*
X127357333Y-24797761D01*
X127357333Y-24797761D02*
X127309714Y-24702523D01*
X127309714Y-24702523D02*
X127262095Y-24512047D01*
X127262095Y-24512047D02*
X127262095Y-24369190D01*
X127262095Y-24369190D02*
X127309714Y-24178714D01*
X127309714Y-24178714D02*
X127357333Y-24083476D01*
X127357333Y-24083476D02*
X127452571Y-23988238D01*
X127452571Y-23988238D02*
X127595428Y-23940619D01*
X127595428Y-23940619D02*
X127690666Y-23940619D01*
X127690666Y-23940619D02*
X127833523Y-23988238D01*
X127833523Y-23988238D02*
X127881142Y-24035857D01*
X128738285Y-24273952D02*
X128738285Y-24940619D01*
X128500190Y-23893000D02*
X128262095Y-24607285D01*
X128262095Y-24607285D02*
X128881142Y-24607285D01*
X129690666Y-24273952D02*
X129690666Y-24940619D01*
X129452571Y-23893000D02*
X129214476Y-24607285D01*
X129214476Y-24607285D02*
X129833523Y-24607285D01*
X59047142Y-85457380D02*
X58999523Y-85505000D01*
X58999523Y-85505000D02*
X58856666Y-85552619D01*
X58856666Y-85552619D02*
X58761428Y-85552619D01*
X58761428Y-85552619D02*
X58618571Y-85505000D01*
X58618571Y-85505000D02*
X58523333Y-85409761D01*
X58523333Y-85409761D02*
X58475714Y-85314523D01*
X58475714Y-85314523D02*
X58428095Y-85124047D01*
X58428095Y-85124047D02*
X58428095Y-84981190D01*
X58428095Y-84981190D02*
X58475714Y-84790714D01*
X58475714Y-84790714D02*
X58523333Y-84695476D01*
X58523333Y-84695476D02*
X58618571Y-84600238D01*
X58618571Y-84600238D02*
X58761428Y-84552619D01*
X58761428Y-84552619D02*
X58856666Y-84552619D01*
X58856666Y-84552619D02*
X58999523Y-84600238D01*
X58999523Y-84600238D02*
X59047142Y-84647857D01*
X59380476Y-84552619D02*
X60047142Y-84552619D01*
X60047142Y-84552619D02*
X59618571Y-85552619D01*
X60856666Y-84552619D02*
X60666190Y-84552619D01*
X60666190Y-84552619D02*
X60570952Y-84600238D01*
X60570952Y-84600238D02*
X60523333Y-84647857D01*
X60523333Y-84647857D02*
X60428095Y-84790714D01*
X60428095Y-84790714D02*
X60380476Y-84981190D01*
X60380476Y-84981190D02*
X60380476Y-85362142D01*
X60380476Y-85362142D02*
X60428095Y-85457380D01*
X60428095Y-85457380D02*
X60475714Y-85505000D01*
X60475714Y-85505000D02*
X60570952Y-85552619D01*
X60570952Y-85552619D02*
X60761428Y-85552619D01*
X60761428Y-85552619D02*
X60856666Y-85505000D01*
X60856666Y-85505000D02*
X60904285Y-85457380D01*
X60904285Y-85457380D02*
X60951904Y-85362142D01*
X60951904Y-85362142D02*
X60951904Y-85124047D01*
X60951904Y-85124047D02*
X60904285Y-85028809D01*
X60904285Y-85028809D02*
X60856666Y-84981190D01*
X60856666Y-84981190D02*
X60761428Y-84933571D01*
X60761428Y-84933571D02*
X60570952Y-84933571D01*
X60570952Y-84933571D02*
X60475714Y-84981190D01*
X60475714Y-84981190D02*
X60428095Y-85028809D01*
X60428095Y-85028809D02*
X60380476Y-85124047D01*
X89202619Y-46362857D02*
X88726428Y-46696190D01*
X89202619Y-46934285D02*
X88202619Y-46934285D01*
X88202619Y-46934285D02*
X88202619Y-46553333D01*
X88202619Y-46553333D02*
X88250238Y-46458095D01*
X88250238Y-46458095D02*
X88297857Y-46410476D01*
X88297857Y-46410476D02*
X88393095Y-46362857D01*
X88393095Y-46362857D02*
X88535952Y-46362857D01*
X88535952Y-46362857D02*
X88631190Y-46410476D01*
X88631190Y-46410476D02*
X88678809Y-46458095D01*
X88678809Y-46458095D02*
X88726428Y-46553333D01*
X88726428Y-46553333D02*
X88726428Y-46934285D01*
X88297857Y-45981904D02*
X88250238Y-45934285D01*
X88250238Y-45934285D02*
X88202619Y-45839047D01*
X88202619Y-45839047D02*
X88202619Y-45600952D01*
X88202619Y-45600952D02*
X88250238Y-45505714D01*
X88250238Y-45505714D02*
X88297857Y-45458095D01*
X88297857Y-45458095D02*
X88393095Y-45410476D01*
X88393095Y-45410476D02*
X88488333Y-45410476D01*
X88488333Y-45410476D02*
X88631190Y-45458095D01*
X88631190Y-45458095D02*
X89202619Y-46029523D01*
X89202619Y-46029523D02*
X89202619Y-45410476D01*
X88202619Y-45077142D02*
X88202619Y-44458095D01*
X88202619Y-44458095D02*
X88583571Y-44791428D01*
X88583571Y-44791428D02*
X88583571Y-44648571D01*
X88583571Y-44648571D02*
X88631190Y-44553333D01*
X88631190Y-44553333D02*
X88678809Y-44505714D01*
X88678809Y-44505714D02*
X88774047Y-44458095D01*
X88774047Y-44458095D02*
X89012142Y-44458095D01*
X89012142Y-44458095D02*
X89107380Y-44505714D01*
X89107380Y-44505714D02*
X89155000Y-44553333D01*
X89155000Y-44553333D02*
X89202619Y-44648571D01*
X89202619Y-44648571D02*
X89202619Y-44934285D01*
X89202619Y-44934285D02*
X89155000Y-45029523D01*
X89155000Y-45029523D02*
X89107380Y-45077142D01*
X121158095Y-146722619D02*
X121158095Y-145722619D01*
X121158095Y-146198809D02*
X121729523Y-146198809D01*
X121729523Y-146722619D02*
X121729523Y-145722619D01*
X122634285Y-145722619D02*
X122443809Y-145722619D01*
X122443809Y-145722619D02*
X122348571Y-145770238D01*
X122348571Y-145770238D02*
X122300952Y-145817857D01*
X122300952Y-145817857D02*
X122205714Y-145960714D01*
X122205714Y-145960714D02*
X122158095Y-146151190D01*
X122158095Y-146151190D02*
X122158095Y-146532142D01*
X122158095Y-146532142D02*
X122205714Y-146627380D01*
X122205714Y-146627380D02*
X122253333Y-146675000D01*
X122253333Y-146675000D02*
X122348571Y-146722619D01*
X122348571Y-146722619D02*
X122539047Y-146722619D01*
X122539047Y-146722619D02*
X122634285Y-146675000D01*
X122634285Y-146675000D02*
X122681904Y-146627380D01*
X122681904Y-146627380D02*
X122729523Y-146532142D01*
X122729523Y-146532142D02*
X122729523Y-146294047D01*
X122729523Y-146294047D02*
X122681904Y-146198809D01*
X122681904Y-146198809D02*
X122634285Y-146151190D01*
X122634285Y-146151190D02*
X122539047Y-146103571D01*
X122539047Y-146103571D02*
X122348571Y-146103571D01*
X122348571Y-146103571D02*
X122253333Y-146151190D01*
X122253333Y-146151190D02*
X122205714Y-146198809D01*
X122205714Y-146198809D02*
X122158095Y-146294047D01*
X121531142Y-65899380D02*
X121483523Y-65947000D01*
X121483523Y-65947000D02*
X121340666Y-65994619D01*
X121340666Y-65994619D02*
X121245428Y-65994619D01*
X121245428Y-65994619D02*
X121102571Y-65947000D01*
X121102571Y-65947000D02*
X121007333Y-65851761D01*
X121007333Y-65851761D02*
X120959714Y-65756523D01*
X120959714Y-65756523D02*
X120912095Y-65566047D01*
X120912095Y-65566047D02*
X120912095Y-65423190D01*
X120912095Y-65423190D02*
X120959714Y-65232714D01*
X120959714Y-65232714D02*
X121007333Y-65137476D01*
X121007333Y-65137476D02*
X121102571Y-65042238D01*
X121102571Y-65042238D02*
X121245428Y-64994619D01*
X121245428Y-64994619D02*
X121340666Y-64994619D01*
X121340666Y-64994619D02*
X121483523Y-65042238D01*
X121483523Y-65042238D02*
X121531142Y-65089857D01*
X121912095Y-65089857D02*
X121959714Y-65042238D01*
X121959714Y-65042238D02*
X122054952Y-64994619D01*
X122054952Y-64994619D02*
X122293047Y-64994619D01*
X122293047Y-64994619D02*
X122388285Y-65042238D01*
X122388285Y-65042238D02*
X122435904Y-65089857D01*
X122435904Y-65089857D02*
X122483523Y-65185095D01*
X122483523Y-65185095D02*
X122483523Y-65280333D01*
X122483523Y-65280333D02*
X122435904Y-65423190D01*
X122435904Y-65423190D02*
X121864476Y-65994619D01*
X121864476Y-65994619D02*
X122483523Y-65994619D01*
X123340666Y-64994619D02*
X123150190Y-64994619D01*
X123150190Y-64994619D02*
X123054952Y-65042238D01*
X123054952Y-65042238D02*
X123007333Y-65089857D01*
X123007333Y-65089857D02*
X122912095Y-65232714D01*
X122912095Y-65232714D02*
X122864476Y-65423190D01*
X122864476Y-65423190D02*
X122864476Y-65804142D01*
X122864476Y-65804142D02*
X122912095Y-65899380D01*
X122912095Y-65899380D02*
X122959714Y-65947000D01*
X122959714Y-65947000D02*
X123054952Y-65994619D01*
X123054952Y-65994619D02*
X123245428Y-65994619D01*
X123245428Y-65994619D02*
X123340666Y-65947000D01*
X123340666Y-65947000D02*
X123388285Y-65899380D01*
X123388285Y-65899380D02*
X123435904Y-65804142D01*
X123435904Y-65804142D02*
X123435904Y-65566047D01*
X123435904Y-65566047D02*
X123388285Y-65470809D01*
X123388285Y-65470809D02*
X123340666Y-65423190D01*
X123340666Y-65423190D02*
X123245428Y-65375571D01*
X123245428Y-65375571D02*
X123054952Y-65375571D01*
X123054952Y-65375571D02*
X122959714Y-65423190D01*
X122959714Y-65423190D02*
X122912095Y-65470809D01*
X122912095Y-65470809D02*
X122864476Y-65566047D01*
X121531142Y-75043380D02*
X121483523Y-75091000D01*
X121483523Y-75091000D02*
X121340666Y-75138619D01*
X121340666Y-75138619D02*
X121245428Y-75138619D01*
X121245428Y-75138619D02*
X121102571Y-75091000D01*
X121102571Y-75091000D02*
X121007333Y-74995761D01*
X121007333Y-74995761D02*
X120959714Y-74900523D01*
X120959714Y-74900523D02*
X120912095Y-74710047D01*
X120912095Y-74710047D02*
X120912095Y-74567190D01*
X120912095Y-74567190D02*
X120959714Y-74376714D01*
X120959714Y-74376714D02*
X121007333Y-74281476D01*
X121007333Y-74281476D02*
X121102571Y-74186238D01*
X121102571Y-74186238D02*
X121245428Y-74138619D01*
X121245428Y-74138619D02*
X121340666Y-74138619D01*
X121340666Y-74138619D02*
X121483523Y-74186238D01*
X121483523Y-74186238D02*
X121531142Y-74233857D01*
X122483523Y-75138619D02*
X121912095Y-75138619D01*
X122197809Y-75138619D02*
X122197809Y-74138619D01*
X122197809Y-74138619D02*
X122102571Y-74281476D01*
X122102571Y-74281476D02*
X122007333Y-74376714D01*
X122007333Y-74376714D02*
X121912095Y-74424333D01*
X122959714Y-75138619D02*
X123150190Y-75138619D01*
X123150190Y-75138619D02*
X123245428Y-75091000D01*
X123245428Y-75091000D02*
X123293047Y-75043380D01*
X123293047Y-75043380D02*
X123388285Y-74900523D01*
X123388285Y-74900523D02*
X123435904Y-74710047D01*
X123435904Y-74710047D02*
X123435904Y-74329095D01*
X123435904Y-74329095D02*
X123388285Y-74233857D01*
X123388285Y-74233857D02*
X123340666Y-74186238D01*
X123340666Y-74186238D02*
X123245428Y-74138619D01*
X123245428Y-74138619D02*
X123054952Y-74138619D01*
X123054952Y-74138619D02*
X122959714Y-74186238D01*
X122959714Y-74186238D02*
X122912095Y-74233857D01*
X122912095Y-74233857D02*
X122864476Y-74329095D01*
X122864476Y-74329095D02*
X122864476Y-74567190D01*
X122864476Y-74567190D02*
X122912095Y-74662428D01*
X122912095Y-74662428D02*
X122959714Y-74710047D01*
X122959714Y-74710047D02*
X123054952Y-74757666D01*
X123054952Y-74757666D02*
X123245428Y-74757666D01*
X123245428Y-74757666D02*
X123340666Y-74710047D01*
X123340666Y-74710047D02*
X123388285Y-74662428D01*
X123388285Y-74662428D02*
X123435904Y-74567190D01*
X116191380Y-30868857D02*
X116239000Y-30916476D01*
X116239000Y-30916476D02*
X116286619Y-31059333D01*
X116286619Y-31059333D02*
X116286619Y-31154571D01*
X116286619Y-31154571D02*
X116239000Y-31297428D01*
X116239000Y-31297428D02*
X116143761Y-31392666D01*
X116143761Y-31392666D02*
X116048523Y-31440285D01*
X116048523Y-31440285D02*
X115858047Y-31487904D01*
X115858047Y-31487904D02*
X115715190Y-31487904D01*
X115715190Y-31487904D02*
X115524714Y-31440285D01*
X115524714Y-31440285D02*
X115429476Y-31392666D01*
X115429476Y-31392666D02*
X115334238Y-31297428D01*
X115334238Y-31297428D02*
X115286619Y-31154571D01*
X115286619Y-31154571D02*
X115286619Y-31059333D01*
X115286619Y-31059333D02*
X115334238Y-30916476D01*
X115334238Y-30916476D02*
X115381857Y-30868857D01*
X115619952Y-30011714D02*
X116286619Y-30011714D01*
X115239000Y-30249809D02*
X115953285Y-30487904D01*
X115953285Y-30487904D02*
X115953285Y-29868857D01*
X115286619Y-29011714D02*
X115286619Y-29487904D01*
X115286619Y-29487904D02*
X115762809Y-29535523D01*
X115762809Y-29535523D02*
X115715190Y-29487904D01*
X115715190Y-29487904D02*
X115667571Y-29392666D01*
X115667571Y-29392666D02*
X115667571Y-29154571D01*
X115667571Y-29154571D02*
X115715190Y-29059333D01*
X115715190Y-29059333D02*
X115762809Y-29011714D01*
X115762809Y-29011714D02*
X115858047Y-28964095D01*
X115858047Y-28964095D02*
X116096142Y-28964095D01*
X116096142Y-28964095D02*
X116191380Y-29011714D01*
X116191380Y-29011714D02*
X116239000Y-29059333D01*
X116239000Y-29059333D02*
X116286619Y-29154571D01*
X116286619Y-29154571D02*
X116286619Y-29392666D01*
X116286619Y-29392666D02*
X116239000Y-29487904D01*
X116239000Y-29487904D02*
X116191380Y-29535523D01*
X97809380Y-87510857D02*
X97857000Y-87558476D01*
X97857000Y-87558476D02*
X97904619Y-87701333D01*
X97904619Y-87701333D02*
X97904619Y-87796571D01*
X97904619Y-87796571D02*
X97857000Y-87939428D01*
X97857000Y-87939428D02*
X97761761Y-88034666D01*
X97761761Y-88034666D02*
X97666523Y-88082285D01*
X97666523Y-88082285D02*
X97476047Y-88129904D01*
X97476047Y-88129904D02*
X97333190Y-88129904D01*
X97333190Y-88129904D02*
X97142714Y-88082285D01*
X97142714Y-88082285D02*
X97047476Y-88034666D01*
X97047476Y-88034666D02*
X96952238Y-87939428D01*
X96952238Y-87939428D02*
X96904619Y-87796571D01*
X96904619Y-87796571D02*
X96904619Y-87701333D01*
X96904619Y-87701333D02*
X96952238Y-87558476D01*
X96952238Y-87558476D02*
X96999857Y-87510857D01*
X96904619Y-87177523D02*
X96904619Y-86558476D01*
X96904619Y-86558476D02*
X97285571Y-86891809D01*
X97285571Y-86891809D02*
X97285571Y-86748952D01*
X97285571Y-86748952D02*
X97333190Y-86653714D01*
X97333190Y-86653714D02*
X97380809Y-86606095D01*
X97380809Y-86606095D02*
X97476047Y-86558476D01*
X97476047Y-86558476D02*
X97714142Y-86558476D01*
X97714142Y-86558476D02*
X97809380Y-86606095D01*
X97809380Y-86606095D02*
X97857000Y-86653714D01*
X97857000Y-86653714D02*
X97904619Y-86748952D01*
X97904619Y-86748952D02*
X97904619Y-87034666D01*
X97904619Y-87034666D02*
X97857000Y-87129904D01*
X97857000Y-87129904D02*
X97809380Y-87177523D01*
X97904619Y-85606095D02*
X97904619Y-86177523D01*
X97904619Y-85891809D02*
X96904619Y-85891809D01*
X96904619Y-85891809D02*
X97047476Y-85987047D01*
X97047476Y-85987047D02*
X97142714Y-86082285D01*
X97142714Y-86082285D02*
X97190333Y-86177523D01*
X63974742Y-97396619D02*
X63641409Y-96920428D01*
X63403314Y-97396619D02*
X63403314Y-96396619D01*
X63403314Y-96396619D02*
X63784266Y-96396619D01*
X63784266Y-96396619D02*
X63879504Y-96444238D01*
X63879504Y-96444238D02*
X63927123Y-96491857D01*
X63927123Y-96491857D02*
X63974742Y-96587095D01*
X63974742Y-96587095D02*
X63974742Y-96729952D01*
X63974742Y-96729952D02*
X63927123Y-96825190D01*
X63927123Y-96825190D02*
X63879504Y-96872809D01*
X63879504Y-96872809D02*
X63784266Y-96920428D01*
X63784266Y-96920428D02*
X63403314Y-96920428D01*
X64879504Y-96396619D02*
X64403314Y-96396619D01*
X64403314Y-96396619D02*
X64355695Y-96872809D01*
X64355695Y-96872809D02*
X64403314Y-96825190D01*
X64403314Y-96825190D02*
X64498552Y-96777571D01*
X64498552Y-96777571D02*
X64736647Y-96777571D01*
X64736647Y-96777571D02*
X64831885Y-96825190D01*
X64831885Y-96825190D02*
X64879504Y-96872809D01*
X64879504Y-96872809D02*
X64927123Y-96968047D01*
X64927123Y-96968047D02*
X64927123Y-97206142D01*
X64927123Y-97206142D02*
X64879504Y-97301380D01*
X64879504Y-97301380D02*
X64831885Y-97349000D01*
X64831885Y-97349000D02*
X64736647Y-97396619D01*
X64736647Y-97396619D02*
X64498552Y-97396619D01*
X64498552Y-97396619D02*
X64403314Y-97349000D01*
X64403314Y-97349000D02*
X64355695Y-97301380D01*
X65784266Y-96396619D02*
X65593790Y-96396619D01*
X65593790Y-96396619D02*
X65498552Y-96444238D01*
X65498552Y-96444238D02*
X65450933Y-96491857D01*
X65450933Y-96491857D02*
X65355695Y-96634714D01*
X65355695Y-96634714D02*
X65308076Y-96825190D01*
X65308076Y-96825190D02*
X65308076Y-97206142D01*
X65308076Y-97206142D02*
X65355695Y-97301380D01*
X65355695Y-97301380D02*
X65403314Y-97349000D01*
X65403314Y-97349000D02*
X65498552Y-97396619D01*
X65498552Y-97396619D02*
X65689028Y-97396619D01*
X65689028Y-97396619D02*
X65784266Y-97349000D01*
X65784266Y-97349000D02*
X65831885Y-97301380D01*
X65831885Y-97301380D02*
X65879504Y-97206142D01*
X65879504Y-97206142D02*
X65879504Y-96968047D01*
X65879504Y-96968047D02*
X65831885Y-96872809D01*
X65831885Y-96872809D02*
X65784266Y-96825190D01*
X65784266Y-96825190D02*
X65689028Y-96777571D01*
X65689028Y-96777571D02*
X65498552Y-96777571D01*
X65498552Y-96777571D02*
X65403314Y-96825190D01*
X65403314Y-96825190D02*
X65355695Y-96872809D01*
X65355695Y-96872809D02*
X65308076Y-96968047D01*
X135763095Y-28012619D02*
X135763095Y-27012619D01*
X135763095Y-27488809D02*
X136334523Y-27488809D01*
X136334523Y-28012619D02*
X136334523Y-27012619D01*
X137239285Y-27345952D02*
X137239285Y-28012619D01*
X137001190Y-26965000D02*
X136763095Y-27679285D01*
X136763095Y-27679285D02*
X137382142Y-27679285D01*
X80377380Y-63126857D02*
X80425000Y-63174476D01*
X80425000Y-63174476D02*
X80472619Y-63317333D01*
X80472619Y-63317333D02*
X80472619Y-63412571D01*
X80472619Y-63412571D02*
X80425000Y-63555428D01*
X80425000Y-63555428D02*
X80329761Y-63650666D01*
X80329761Y-63650666D02*
X80234523Y-63698285D01*
X80234523Y-63698285D02*
X80044047Y-63745904D01*
X80044047Y-63745904D02*
X79901190Y-63745904D01*
X79901190Y-63745904D02*
X79710714Y-63698285D01*
X79710714Y-63698285D02*
X79615476Y-63650666D01*
X79615476Y-63650666D02*
X79520238Y-63555428D01*
X79520238Y-63555428D02*
X79472619Y-63412571D01*
X79472619Y-63412571D02*
X79472619Y-63317333D01*
X79472619Y-63317333D02*
X79520238Y-63174476D01*
X79520238Y-63174476D02*
X79567857Y-63126857D01*
X79472619Y-62793523D02*
X79472619Y-62174476D01*
X79472619Y-62174476D02*
X79853571Y-62507809D01*
X79853571Y-62507809D02*
X79853571Y-62364952D01*
X79853571Y-62364952D02*
X79901190Y-62269714D01*
X79901190Y-62269714D02*
X79948809Y-62222095D01*
X79948809Y-62222095D02*
X80044047Y-62174476D01*
X80044047Y-62174476D02*
X80282142Y-62174476D01*
X80282142Y-62174476D02*
X80377380Y-62222095D01*
X80377380Y-62222095D02*
X80425000Y-62269714D01*
X80425000Y-62269714D02*
X80472619Y-62364952D01*
X80472619Y-62364952D02*
X80472619Y-62650666D01*
X80472619Y-62650666D02*
X80425000Y-62745904D01*
X80425000Y-62745904D02*
X80377380Y-62793523D01*
X79567857Y-61793523D02*
X79520238Y-61745904D01*
X79520238Y-61745904D02*
X79472619Y-61650666D01*
X79472619Y-61650666D02*
X79472619Y-61412571D01*
X79472619Y-61412571D02*
X79520238Y-61317333D01*
X79520238Y-61317333D02*
X79567857Y-61269714D01*
X79567857Y-61269714D02*
X79663095Y-61222095D01*
X79663095Y-61222095D02*
X79758333Y-61222095D01*
X79758333Y-61222095D02*
X79901190Y-61269714D01*
X79901190Y-61269714D02*
X80472619Y-61841142D01*
X80472619Y-61841142D02*
X80472619Y-61222095D01*
X114762619Y-30868857D02*
X114286428Y-31202190D01*
X114762619Y-31440285D02*
X113762619Y-31440285D01*
X113762619Y-31440285D02*
X113762619Y-31059333D01*
X113762619Y-31059333D02*
X113810238Y-30964095D01*
X113810238Y-30964095D02*
X113857857Y-30916476D01*
X113857857Y-30916476D02*
X113953095Y-30868857D01*
X113953095Y-30868857D02*
X114095952Y-30868857D01*
X114095952Y-30868857D02*
X114191190Y-30916476D01*
X114191190Y-30916476D02*
X114238809Y-30964095D01*
X114238809Y-30964095D02*
X114286428Y-31059333D01*
X114286428Y-31059333D02*
X114286428Y-31440285D01*
X114762619Y-29916476D02*
X114762619Y-30487904D01*
X114762619Y-30202190D02*
X113762619Y-30202190D01*
X113762619Y-30202190D02*
X113905476Y-30297428D01*
X113905476Y-30297428D02*
X114000714Y-30392666D01*
X114000714Y-30392666D02*
X114048333Y-30487904D01*
X113762619Y-29011714D02*
X113762619Y-29487904D01*
X113762619Y-29487904D02*
X114238809Y-29535523D01*
X114238809Y-29535523D02*
X114191190Y-29487904D01*
X114191190Y-29487904D02*
X114143571Y-29392666D01*
X114143571Y-29392666D02*
X114143571Y-29154571D01*
X114143571Y-29154571D02*
X114191190Y-29059333D01*
X114191190Y-29059333D02*
X114238809Y-29011714D01*
X114238809Y-29011714D02*
X114334047Y-28964095D01*
X114334047Y-28964095D02*
X114572142Y-28964095D01*
X114572142Y-28964095D02*
X114667380Y-29011714D01*
X114667380Y-29011714D02*
X114715000Y-29059333D01*
X114715000Y-29059333D02*
X114762619Y-29154571D01*
X114762619Y-29154571D02*
X114762619Y-29392666D01*
X114762619Y-29392666D02*
X114715000Y-29487904D01*
X114715000Y-29487904D02*
X114667380Y-29535523D01*
X99521380Y-47378857D02*
X99569000Y-47426476D01*
X99569000Y-47426476D02*
X99616619Y-47569333D01*
X99616619Y-47569333D02*
X99616619Y-47664571D01*
X99616619Y-47664571D02*
X99569000Y-47807428D01*
X99569000Y-47807428D02*
X99473761Y-47902666D01*
X99473761Y-47902666D02*
X99378523Y-47950285D01*
X99378523Y-47950285D02*
X99188047Y-47997904D01*
X99188047Y-47997904D02*
X99045190Y-47997904D01*
X99045190Y-47997904D02*
X98854714Y-47950285D01*
X98854714Y-47950285D02*
X98759476Y-47902666D01*
X98759476Y-47902666D02*
X98664238Y-47807428D01*
X98664238Y-47807428D02*
X98616619Y-47664571D01*
X98616619Y-47664571D02*
X98616619Y-47569333D01*
X98616619Y-47569333D02*
X98664238Y-47426476D01*
X98664238Y-47426476D02*
X98711857Y-47378857D01*
X98711857Y-46997904D02*
X98664238Y-46950285D01*
X98664238Y-46950285D02*
X98616619Y-46855047D01*
X98616619Y-46855047D02*
X98616619Y-46616952D01*
X98616619Y-46616952D02*
X98664238Y-46521714D01*
X98664238Y-46521714D02*
X98711857Y-46474095D01*
X98711857Y-46474095D02*
X98807095Y-46426476D01*
X98807095Y-46426476D02*
X98902333Y-46426476D01*
X98902333Y-46426476D02*
X99045190Y-46474095D01*
X99045190Y-46474095D02*
X99616619Y-47045523D01*
X99616619Y-47045523D02*
X99616619Y-46426476D01*
X98711857Y-46045523D02*
X98664238Y-45997904D01*
X98664238Y-45997904D02*
X98616619Y-45902666D01*
X98616619Y-45902666D02*
X98616619Y-45664571D01*
X98616619Y-45664571D02*
X98664238Y-45569333D01*
X98664238Y-45569333D02*
X98711857Y-45521714D01*
X98711857Y-45521714D02*
X98807095Y-45474095D01*
X98807095Y-45474095D02*
X98902333Y-45474095D01*
X98902333Y-45474095D02*
X99045190Y-45521714D01*
X99045190Y-45521714D02*
X99616619Y-46093142D01*
X99616619Y-46093142D02*
X99616619Y-45474095D01*
X119842619Y-30868857D02*
X119366428Y-31202190D01*
X119842619Y-31440285D02*
X118842619Y-31440285D01*
X118842619Y-31440285D02*
X118842619Y-31059333D01*
X118842619Y-31059333D02*
X118890238Y-30964095D01*
X118890238Y-30964095D02*
X118937857Y-30916476D01*
X118937857Y-30916476D02*
X119033095Y-30868857D01*
X119033095Y-30868857D02*
X119175952Y-30868857D01*
X119175952Y-30868857D02*
X119271190Y-30916476D01*
X119271190Y-30916476D02*
X119318809Y-30964095D01*
X119318809Y-30964095D02*
X119366428Y-31059333D01*
X119366428Y-31059333D02*
X119366428Y-31440285D01*
X119842619Y-29916476D02*
X119842619Y-30487904D01*
X119842619Y-30202190D02*
X118842619Y-30202190D01*
X118842619Y-30202190D02*
X118985476Y-30297428D01*
X118985476Y-30297428D02*
X119080714Y-30392666D01*
X119080714Y-30392666D02*
X119128333Y-30487904D01*
X119271190Y-29345047D02*
X119223571Y-29440285D01*
X119223571Y-29440285D02*
X119175952Y-29487904D01*
X119175952Y-29487904D02*
X119080714Y-29535523D01*
X119080714Y-29535523D02*
X119033095Y-29535523D01*
X119033095Y-29535523D02*
X118937857Y-29487904D01*
X118937857Y-29487904D02*
X118890238Y-29440285D01*
X118890238Y-29440285D02*
X118842619Y-29345047D01*
X118842619Y-29345047D02*
X118842619Y-29154571D01*
X118842619Y-29154571D02*
X118890238Y-29059333D01*
X118890238Y-29059333D02*
X118937857Y-29011714D01*
X118937857Y-29011714D02*
X119033095Y-28964095D01*
X119033095Y-28964095D02*
X119080714Y-28964095D01*
X119080714Y-28964095D02*
X119175952Y-29011714D01*
X119175952Y-29011714D02*
X119223571Y-29059333D01*
X119223571Y-29059333D02*
X119271190Y-29154571D01*
X119271190Y-29154571D02*
X119271190Y-29345047D01*
X119271190Y-29345047D02*
X119318809Y-29440285D01*
X119318809Y-29440285D02*
X119366428Y-29487904D01*
X119366428Y-29487904D02*
X119461666Y-29535523D01*
X119461666Y-29535523D02*
X119652142Y-29535523D01*
X119652142Y-29535523D02*
X119747380Y-29487904D01*
X119747380Y-29487904D02*
X119795000Y-29440285D01*
X119795000Y-29440285D02*
X119842619Y-29345047D01*
X119842619Y-29345047D02*
X119842619Y-29154571D01*
X119842619Y-29154571D02*
X119795000Y-29059333D01*
X119795000Y-29059333D02*
X119747380Y-29011714D01*
X119747380Y-29011714D02*
X119652142Y-28964095D01*
X119652142Y-28964095D02*
X119461666Y-28964095D01*
X119461666Y-28964095D02*
X119366428Y-29011714D01*
X119366428Y-29011714D02*
X119318809Y-29059333D01*
X119318809Y-29059333D02*
X119271190Y-29154571D01*
X69461142Y-70471380D02*
X69413523Y-70519000D01*
X69413523Y-70519000D02*
X69270666Y-70566619D01*
X69270666Y-70566619D02*
X69175428Y-70566619D01*
X69175428Y-70566619D02*
X69032571Y-70519000D01*
X69032571Y-70519000D02*
X68937333Y-70423761D01*
X68937333Y-70423761D02*
X68889714Y-70328523D01*
X68889714Y-70328523D02*
X68842095Y-70138047D01*
X68842095Y-70138047D02*
X68842095Y-69995190D01*
X68842095Y-69995190D02*
X68889714Y-69804714D01*
X68889714Y-69804714D02*
X68937333Y-69709476D01*
X68937333Y-69709476D02*
X69032571Y-69614238D01*
X69032571Y-69614238D02*
X69175428Y-69566619D01*
X69175428Y-69566619D02*
X69270666Y-69566619D01*
X69270666Y-69566619D02*
X69413523Y-69614238D01*
X69413523Y-69614238D02*
X69461142Y-69661857D01*
X70413523Y-70566619D02*
X69842095Y-70566619D01*
X70127809Y-70566619D02*
X70127809Y-69566619D01*
X70127809Y-69566619D02*
X70032571Y-69709476D01*
X70032571Y-69709476D02*
X69937333Y-69804714D01*
X69937333Y-69804714D02*
X69842095Y-69852333D01*
X70794476Y-69661857D02*
X70842095Y-69614238D01*
X70842095Y-69614238D02*
X70937333Y-69566619D01*
X70937333Y-69566619D02*
X71175428Y-69566619D01*
X71175428Y-69566619D02*
X71270666Y-69614238D01*
X71270666Y-69614238D02*
X71318285Y-69661857D01*
X71318285Y-69661857D02*
X71365904Y-69757095D01*
X71365904Y-69757095D02*
X71365904Y-69852333D01*
X71365904Y-69852333D02*
X71318285Y-69995190D01*
X71318285Y-69995190D02*
X70746857Y-70566619D01*
X70746857Y-70566619D02*
X71365904Y-70566619D01*
X138755714Y-124955000D02*
X138898571Y-125002619D01*
X138898571Y-125002619D02*
X139136666Y-125002619D01*
X139136666Y-125002619D02*
X139231904Y-124955000D01*
X139231904Y-124955000D02*
X139279523Y-124907380D01*
X139279523Y-124907380D02*
X139327142Y-124812142D01*
X139327142Y-124812142D02*
X139327142Y-124716904D01*
X139327142Y-124716904D02*
X139279523Y-124621666D01*
X139279523Y-124621666D02*
X139231904Y-124574047D01*
X139231904Y-124574047D02*
X139136666Y-124526428D01*
X139136666Y-124526428D02*
X138946190Y-124478809D01*
X138946190Y-124478809D02*
X138850952Y-124431190D01*
X138850952Y-124431190D02*
X138803333Y-124383571D01*
X138803333Y-124383571D02*
X138755714Y-124288333D01*
X138755714Y-124288333D02*
X138755714Y-124193095D01*
X138755714Y-124193095D02*
X138803333Y-124097857D01*
X138803333Y-124097857D02*
X138850952Y-124050238D01*
X138850952Y-124050238D02*
X138946190Y-124002619D01*
X138946190Y-124002619D02*
X139184285Y-124002619D01*
X139184285Y-124002619D02*
X139327142Y-124050238D01*
X139660476Y-124002619D02*
X139898571Y-125002619D01*
X139898571Y-125002619D02*
X140089047Y-124288333D01*
X140089047Y-124288333D02*
X140279523Y-125002619D01*
X140279523Y-125002619D02*
X140517619Y-124002619D01*
X140660476Y-125097857D02*
X141422380Y-125097857D01*
X141993809Y-124478809D02*
X142136666Y-124526428D01*
X142136666Y-124526428D02*
X142184285Y-124574047D01*
X142184285Y-124574047D02*
X142231904Y-124669285D01*
X142231904Y-124669285D02*
X142231904Y-124812142D01*
X142231904Y-124812142D02*
X142184285Y-124907380D01*
X142184285Y-124907380D02*
X142136666Y-124955000D01*
X142136666Y-124955000D02*
X142041428Y-125002619D01*
X142041428Y-125002619D02*
X141660476Y-125002619D01*
X141660476Y-125002619D02*
X141660476Y-124002619D01*
X141660476Y-124002619D02*
X141993809Y-124002619D01*
X141993809Y-124002619D02*
X142089047Y-124050238D01*
X142089047Y-124050238D02*
X142136666Y-124097857D01*
X142136666Y-124097857D02*
X142184285Y-124193095D01*
X142184285Y-124193095D02*
X142184285Y-124288333D01*
X142184285Y-124288333D02*
X142136666Y-124383571D01*
X142136666Y-124383571D02*
X142089047Y-124431190D01*
X142089047Y-124431190D02*
X141993809Y-124478809D01*
X141993809Y-124478809D02*
X141660476Y-124478809D01*
X143184285Y-125002619D02*
X142612857Y-125002619D01*
X142898571Y-125002619D02*
X142898571Y-124002619D01*
X142898571Y-124002619D02*
X142803333Y-124145476D01*
X142803333Y-124145476D02*
X142708095Y-124240714D01*
X142708095Y-124240714D02*
X142612857Y-124288333D01*
X107203380Y-87034666D02*
X107251000Y-87082285D01*
X107251000Y-87082285D02*
X107298619Y-87225142D01*
X107298619Y-87225142D02*
X107298619Y-87320380D01*
X107298619Y-87320380D02*
X107251000Y-87463237D01*
X107251000Y-87463237D02*
X107155761Y-87558475D01*
X107155761Y-87558475D02*
X107060523Y-87606094D01*
X107060523Y-87606094D02*
X106870047Y-87653713D01*
X106870047Y-87653713D02*
X106727190Y-87653713D01*
X106727190Y-87653713D02*
X106536714Y-87606094D01*
X106536714Y-87606094D02*
X106441476Y-87558475D01*
X106441476Y-87558475D02*
X106346238Y-87463237D01*
X106346238Y-87463237D02*
X106298619Y-87320380D01*
X106298619Y-87320380D02*
X106298619Y-87225142D01*
X106298619Y-87225142D02*
X106346238Y-87082285D01*
X106346238Y-87082285D02*
X106393857Y-87034666D01*
X107298619Y-86558475D02*
X107298619Y-86367999D01*
X107298619Y-86367999D02*
X107251000Y-86272761D01*
X107251000Y-86272761D02*
X107203380Y-86225142D01*
X107203380Y-86225142D02*
X107060523Y-86129904D01*
X107060523Y-86129904D02*
X106870047Y-86082285D01*
X106870047Y-86082285D02*
X106489095Y-86082285D01*
X106489095Y-86082285D02*
X106393857Y-86129904D01*
X106393857Y-86129904D02*
X106346238Y-86177523D01*
X106346238Y-86177523D02*
X106298619Y-86272761D01*
X106298619Y-86272761D02*
X106298619Y-86463237D01*
X106298619Y-86463237D02*
X106346238Y-86558475D01*
X106346238Y-86558475D02*
X106393857Y-86606094D01*
X106393857Y-86606094D02*
X106489095Y-86653713D01*
X106489095Y-86653713D02*
X106727190Y-86653713D01*
X106727190Y-86653713D02*
X106822428Y-86606094D01*
X106822428Y-86606094D02*
X106870047Y-86558475D01*
X106870047Y-86558475D02*
X106917666Y-86463237D01*
X106917666Y-86463237D02*
X106917666Y-86272761D01*
X106917666Y-86272761D02*
X106870047Y-86177523D01*
X106870047Y-86177523D02*
X106822428Y-86129904D01*
X106822428Y-86129904D02*
X106727190Y-86082285D01*
X86384286Y-124955000D02*
X86527143Y-125002619D01*
X86527143Y-125002619D02*
X86765238Y-125002619D01*
X86765238Y-125002619D02*
X86860476Y-124955000D01*
X86860476Y-124955000D02*
X86908095Y-124907380D01*
X86908095Y-124907380D02*
X86955714Y-124812142D01*
X86955714Y-124812142D02*
X86955714Y-124716904D01*
X86955714Y-124716904D02*
X86908095Y-124621666D01*
X86908095Y-124621666D02*
X86860476Y-124574047D01*
X86860476Y-124574047D02*
X86765238Y-124526428D01*
X86765238Y-124526428D02*
X86574762Y-124478809D01*
X86574762Y-124478809D02*
X86479524Y-124431190D01*
X86479524Y-124431190D02*
X86431905Y-124383571D01*
X86431905Y-124383571D02*
X86384286Y-124288333D01*
X86384286Y-124288333D02*
X86384286Y-124193095D01*
X86384286Y-124193095D02*
X86431905Y-124097857D01*
X86431905Y-124097857D02*
X86479524Y-124050238D01*
X86479524Y-124050238D02*
X86574762Y-124002619D01*
X86574762Y-124002619D02*
X86812857Y-124002619D01*
X86812857Y-124002619D02*
X86955714Y-124050238D01*
X87289048Y-124002619D02*
X87527143Y-125002619D01*
X87527143Y-125002619D02*
X87717619Y-124288333D01*
X87717619Y-124288333D02*
X87908095Y-125002619D01*
X87908095Y-125002619D02*
X88146191Y-124002619D01*
X88289048Y-125097857D02*
X89050952Y-125097857D01*
X89289048Y-125002619D02*
X89289048Y-124002619D01*
X89289048Y-124002619D02*
X89622381Y-124716904D01*
X89622381Y-124716904D02*
X89955714Y-124002619D01*
X89955714Y-124002619D02*
X89955714Y-125002619D01*
X90431905Y-124478809D02*
X90765238Y-124478809D01*
X90908095Y-125002619D02*
X90431905Y-125002619D01*
X90431905Y-125002619D02*
X90431905Y-124002619D01*
X90431905Y-124002619D02*
X90908095Y-124002619D01*
X91336667Y-125002619D02*
X91336667Y-124002619D01*
X91336667Y-124002619D02*
X91908095Y-125002619D01*
X91908095Y-125002619D02*
X91908095Y-124002619D01*
X92384286Y-124002619D02*
X92384286Y-124812142D01*
X92384286Y-124812142D02*
X92431905Y-124907380D01*
X92431905Y-124907380D02*
X92479524Y-124955000D01*
X92479524Y-124955000D02*
X92574762Y-125002619D01*
X92574762Y-125002619D02*
X92765238Y-125002619D01*
X92765238Y-125002619D02*
X92860476Y-124955000D01*
X92860476Y-124955000D02*
X92908095Y-124907380D01*
X92908095Y-124907380D02*
X92955714Y-124812142D01*
X92955714Y-124812142D02*
X92955714Y-124002619D01*
X93955714Y-125002619D02*
X93384286Y-125002619D01*
X93670000Y-125002619D02*
X93670000Y-124002619D01*
X93670000Y-124002619D02*
X93574762Y-124145476D01*
X93574762Y-124145476D02*
X93479524Y-124240714D01*
X93479524Y-124240714D02*
X93384286Y-124288333D01*
X84789380Y-47378857D02*
X84837000Y-47426476D01*
X84837000Y-47426476D02*
X84884619Y-47569333D01*
X84884619Y-47569333D02*
X84884619Y-47664571D01*
X84884619Y-47664571D02*
X84837000Y-47807428D01*
X84837000Y-47807428D02*
X84741761Y-47902666D01*
X84741761Y-47902666D02*
X84646523Y-47950285D01*
X84646523Y-47950285D02*
X84456047Y-47997904D01*
X84456047Y-47997904D02*
X84313190Y-47997904D01*
X84313190Y-47997904D02*
X84122714Y-47950285D01*
X84122714Y-47950285D02*
X84027476Y-47902666D01*
X84027476Y-47902666D02*
X83932238Y-47807428D01*
X83932238Y-47807428D02*
X83884619Y-47664571D01*
X83884619Y-47664571D02*
X83884619Y-47569333D01*
X83884619Y-47569333D02*
X83932238Y-47426476D01*
X83932238Y-47426476D02*
X83979857Y-47378857D01*
X83979857Y-46997904D02*
X83932238Y-46950285D01*
X83932238Y-46950285D02*
X83884619Y-46855047D01*
X83884619Y-46855047D02*
X83884619Y-46616952D01*
X83884619Y-46616952D02*
X83932238Y-46521714D01*
X83932238Y-46521714D02*
X83979857Y-46474095D01*
X83979857Y-46474095D02*
X84075095Y-46426476D01*
X84075095Y-46426476D02*
X84170333Y-46426476D01*
X84170333Y-46426476D02*
X84313190Y-46474095D01*
X84313190Y-46474095D02*
X84884619Y-47045523D01*
X84884619Y-47045523D02*
X84884619Y-46426476D01*
X83884619Y-45807428D02*
X83884619Y-45712190D01*
X83884619Y-45712190D02*
X83932238Y-45616952D01*
X83932238Y-45616952D02*
X83979857Y-45569333D01*
X83979857Y-45569333D02*
X84075095Y-45521714D01*
X84075095Y-45521714D02*
X84265571Y-45474095D01*
X84265571Y-45474095D02*
X84503666Y-45474095D01*
X84503666Y-45474095D02*
X84694142Y-45521714D01*
X84694142Y-45521714D02*
X84789380Y-45569333D01*
X84789380Y-45569333D02*
X84837000Y-45616952D01*
X84837000Y-45616952D02*
X84884619Y-45712190D01*
X84884619Y-45712190D02*
X84884619Y-45807428D01*
X84884619Y-45807428D02*
X84837000Y-45902666D01*
X84837000Y-45902666D02*
X84789380Y-45950285D01*
X84789380Y-45950285D02*
X84694142Y-45997904D01*
X84694142Y-45997904D02*
X84503666Y-46045523D01*
X84503666Y-46045523D02*
X84265571Y-46045523D01*
X84265571Y-46045523D02*
X84075095Y-45997904D01*
X84075095Y-45997904D02*
X83979857Y-45950285D01*
X83979857Y-45950285D02*
X83932238Y-45902666D01*
X83932238Y-45902666D02*
X83884619Y-45807428D01*
X127881142Y-30688619D02*
X127547809Y-30212428D01*
X127309714Y-30688619D02*
X127309714Y-29688619D01*
X127309714Y-29688619D02*
X127690666Y-29688619D01*
X127690666Y-29688619D02*
X127785904Y-29736238D01*
X127785904Y-29736238D02*
X127833523Y-29783857D01*
X127833523Y-29783857D02*
X127881142Y-29879095D01*
X127881142Y-29879095D02*
X127881142Y-30021952D01*
X127881142Y-30021952D02*
X127833523Y-30117190D01*
X127833523Y-30117190D02*
X127785904Y-30164809D01*
X127785904Y-30164809D02*
X127690666Y-30212428D01*
X127690666Y-30212428D02*
X127309714Y-30212428D01*
X128833523Y-30688619D02*
X128262095Y-30688619D01*
X128547809Y-30688619D02*
X128547809Y-29688619D01*
X128547809Y-29688619D02*
X128452571Y-29831476D01*
X128452571Y-29831476D02*
X128357333Y-29926714D01*
X128357333Y-29926714D02*
X128262095Y-29974333D01*
X129166857Y-29688619D02*
X129785904Y-29688619D01*
X129785904Y-29688619D02*
X129452571Y-30069571D01*
X129452571Y-30069571D02*
X129595428Y-30069571D01*
X129595428Y-30069571D02*
X129690666Y-30117190D01*
X129690666Y-30117190D02*
X129738285Y-30164809D01*
X129738285Y-30164809D02*
X129785904Y-30260047D01*
X129785904Y-30260047D02*
X129785904Y-30498142D01*
X129785904Y-30498142D02*
X129738285Y-30593380D01*
X129738285Y-30593380D02*
X129690666Y-30641000D01*
X129690666Y-30641000D02*
X129595428Y-30688619D01*
X129595428Y-30688619D02*
X129309714Y-30688619D01*
X129309714Y-30688619D02*
X129214476Y-30641000D01*
X129214476Y-30641000D02*
X129166857Y-30593380D01*
X68445142Y-75965380D02*
X68397523Y-76013000D01*
X68397523Y-76013000D02*
X68254666Y-76060619D01*
X68254666Y-76060619D02*
X68159428Y-76060619D01*
X68159428Y-76060619D02*
X68016571Y-76013000D01*
X68016571Y-76013000D02*
X67921333Y-75917761D01*
X67921333Y-75917761D02*
X67873714Y-75822523D01*
X67873714Y-75822523D02*
X67826095Y-75632047D01*
X67826095Y-75632047D02*
X67826095Y-75489190D01*
X67826095Y-75489190D02*
X67873714Y-75298714D01*
X67873714Y-75298714D02*
X67921333Y-75203476D01*
X67921333Y-75203476D02*
X68016571Y-75108238D01*
X68016571Y-75108238D02*
X68159428Y-75060619D01*
X68159428Y-75060619D02*
X68254666Y-75060619D01*
X68254666Y-75060619D02*
X68397523Y-75108238D01*
X68397523Y-75108238D02*
X68445142Y-75155857D01*
X69397523Y-76060619D02*
X68826095Y-76060619D01*
X69111809Y-76060619D02*
X69111809Y-75060619D01*
X69111809Y-75060619D02*
X69016571Y-75203476D01*
X69016571Y-75203476D02*
X68921333Y-75298714D01*
X68921333Y-75298714D02*
X68826095Y-75346333D01*
X69730857Y-75060619D02*
X70349904Y-75060619D01*
X70349904Y-75060619D02*
X70016571Y-75441571D01*
X70016571Y-75441571D02*
X70159428Y-75441571D01*
X70159428Y-75441571D02*
X70254666Y-75489190D01*
X70254666Y-75489190D02*
X70302285Y-75536809D01*
X70302285Y-75536809D02*
X70349904Y-75632047D01*
X70349904Y-75632047D02*
X70349904Y-75870142D01*
X70349904Y-75870142D02*
X70302285Y-75965380D01*
X70302285Y-75965380D02*
X70254666Y-76013000D01*
X70254666Y-76013000D02*
X70159428Y-76060619D01*
X70159428Y-76060619D02*
X69873714Y-76060619D01*
X69873714Y-76060619D02*
X69778476Y-76013000D01*
X69778476Y-76013000D02*
X69730857Y-75965380D01*
X63825714Y-161785000D02*
X63968571Y-161832619D01*
X63968571Y-161832619D02*
X64206666Y-161832619D01*
X64206666Y-161832619D02*
X64301904Y-161785000D01*
X64301904Y-161785000D02*
X64349523Y-161737380D01*
X64349523Y-161737380D02*
X64397142Y-161642142D01*
X64397142Y-161642142D02*
X64397142Y-161546904D01*
X64397142Y-161546904D02*
X64349523Y-161451666D01*
X64349523Y-161451666D02*
X64301904Y-161404047D01*
X64301904Y-161404047D02*
X64206666Y-161356428D01*
X64206666Y-161356428D02*
X64016190Y-161308809D01*
X64016190Y-161308809D02*
X63920952Y-161261190D01*
X63920952Y-161261190D02*
X63873333Y-161213571D01*
X63873333Y-161213571D02*
X63825714Y-161118333D01*
X63825714Y-161118333D02*
X63825714Y-161023095D01*
X63825714Y-161023095D02*
X63873333Y-160927857D01*
X63873333Y-160927857D02*
X63920952Y-160880238D01*
X63920952Y-160880238D02*
X64016190Y-160832619D01*
X64016190Y-160832619D02*
X64254285Y-160832619D01*
X64254285Y-160832619D02*
X64397142Y-160880238D01*
X64730476Y-160832619D02*
X64968571Y-161832619D01*
X64968571Y-161832619D02*
X65159047Y-161118333D01*
X65159047Y-161118333D02*
X65349523Y-161832619D01*
X65349523Y-161832619D02*
X65587619Y-160832619D01*
X65730476Y-161927857D02*
X66492380Y-161927857D01*
X66730476Y-161832619D02*
X66730476Y-160832619D01*
X66730476Y-160832619D02*
X66968571Y-160832619D01*
X66968571Y-160832619D02*
X67111428Y-160880238D01*
X67111428Y-160880238D02*
X67206666Y-160975476D01*
X67206666Y-160975476D02*
X67254285Y-161070714D01*
X67254285Y-161070714D02*
X67301904Y-161261190D01*
X67301904Y-161261190D02*
X67301904Y-161404047D01*
X67301904Y-161404047D02*
X67254285Y-161594523D01*
X67254285Y-161594523D02*
X67206666Y-161689761D01*
X67206666Y-161689761D02*
X67111428Y-161785000D01*
X67111428Y-161785000D02*
X66968571Y-161832619D01*
X66968571Y-161832619D02*
X66730476Y-161832619D01*
X68254285Y-161832619D02*
X67682857Y-161832619D01*
X67968571Y-161832619D02*
X67968571Y-160832619D01*
X67968571Y-160832619D02*
X67873333Y-160975476D01*
X67873333Y-160975476D02*
X67778095Y-161070714D01*
X67778095Y-161070714D02*
X67682857Y-161118333D01*
X79589333Y-48816619D02*
X79256000Y-48340428D01*
X79017905Y-48816619D02*
X79017905Y-47816619D01*
X79017905Y-47816619D02*
X79398857Y-47816619D01*
X79398857Y-47816619D02*
X79494095Y-47864238D01*
X79494095Y-47864238D02*
X79541714Y-47911857D01*
X79541714Y-47911857D02*
X79589333Y-48007095D01*
X79589333Y-48007095D02*
X79589333Y-48149952D01*
X79589333Y-48149952D02*
X79541714Y-48245190D01*
X79541714Y-48245190D02*
X79494095Y-48292809D01*
X79494095Y-48292809D02*
X79398857Y-48340428D01*
X79398857Y-48340428D02*
X79017905Y-48340428D01*
X80160762Y-48245190D02*
X80065524Y-48197571D01*
X80065524Y-48197571D02*
X80017905Y-48149952D01*
X80017905Y-48149952D02*
X79970286Y-48054714D01*
X79970286Y-48054714D02*
X79970286Y-48007095D01*
X79970286Y-48007095D02*
X80017905Y-47911857D01*
X80017905Y-47911857D02*
X80065524Y-47864238D01*
X80065524Y-47864238D02*
X80160762Y-47816619D01*
X80160762Y-47816619D02*
X80351238Y-47816619D01*
X80351238Y-47816619D02*
X80446476Y-47864238D01*
X80446476Y-47864238D02*
X80494095Y-47911857D01*
X80494095Y-47911857D02*
X80541714Y-48007095D01*
X80541714Y-48007095D02*
X80541714Y-48054714D01*
X80541714Y-48054714D02*
X80494095Y-48149952D01*
X80494095Y-48149952D02*
X80446476Y-48197571D01*
X80446476Y-48197571D02*
X80351238Y-48245190D01*
X80351238Y-48245190D02*
X80160762Y-48245190D01*
X80160762Y-48245190D02*
X80065524Y-48292809D01*
X80065524Y-48292809D02*
X80017905Y-48340428D01*
X80017905Y-48340428D02*
X79970286Y-48435666D01*
X79970286Y-48435666D02*
X79970286Y-48626142D01*
X79970286Y-48626142D02*
X80017905Y-48721380D01*
X80017905Y-48721380D02*
X80065524Y-48769000D01*
X80065524Y-48769000D02*
X80160762Y-48816619D01*
X80160762Y-48816619D02*
X80351238Y-48816619D01*
X80351238Y-48816619D02*
X80446476Y-48769000D01*
X80446476Y-48769000D02*
X80494095Y-48721380D01*
X80494095Y-48721380D02*
X80541714Y-48626142D01*
X80541714Y-48626142D02*
X80541714Y-48435666D01*
X80541714Y-48435666D02*
X80494095Y-48340428D01*
X80494095Y-48340428D02*
X80446476Y-48292809D01*
X80446476Y-48292809D02*
X80351238Y-48245190D01*
X127397143Y-113525000D02*
X127540000Y-113572619D01*
X127540000Y-113572619D02*
X127778095Y-113572619D01*
X127778095Y-113572619D02*
X127873333Y-113525000D01*
X127873333Y-113525000D02*
X127920952Y-113477380D01*
X127920952Y-113477380D02*
X127968571Y-113382142D01*
X127968571Y-113382142D02*
X127968571Y-113286904D01*
X127968571Y-113286904D02*
X127920952Y-113191666D01*
X127920952Y-113191666D02*
X127873333Y-113144047D01*
X127873333Y-113144047D02*
X127778095Y-113096428D01*
X127778095Y-113096428D02*
X127587619Y-113048809D01*
X127587619Y-113048809D02*
X127492381Y-113001190D01*
X127492381Y-113001190D02*
X127444762Y-112953571D01*
X127444762Y-112953571D02*
X127397143Y-112858333D01*
X127397143Y-112858333D02*
X127397143Y-112763095D01*
X127397143Y-112763095D02*
X127444762Y-112667857D01*
X127444762Y-112667857D02*
X127492381Y-112620238D01*
X127492381Y-112620238D02*
X127587619Y-112572619D01*
X127587619Y-112572619D02*
X127825714Y-112572619D01*
X127825714Y-112572619D02*
X127968571Y-112620238D01*
X128301905Y-112572619D02*
X128540000Y-113572619D01*
X128540000Y-113572619D02*
X128730476Y-112858333D01*
X128730476Y-112858333D02*
X128920952Y-113572619D01*
X128920952Y-113572619D02*
X129159048Y-112572619D01*
X129301905Y-113667857D02*
X130063809Y-113667857D01*
X130492381Y-113096428D02*
X130492381Y-113572619D01*
X130159048Y-112572619D02*
X130492381Y-113096428D01*
X130492381Y-113096428D02*
X130825714Y-112572619D01*
X131682857Y-113572619D02*
X131111429Y-113572619D01*
X131397143Y-113572619D02*
X131397143Y-112572619D01*
X131397143Y-112572619D02*
X131301905Y-112715476D01*
X131301905Y-112715476D02*
X131206667Y-112810714D01*
X131206667Y-112810714D02*
X131111429Y-112858333D01*
X48379142Y-85457380D02*
X48331523Y-85505000D01*
X48331523Y-85505000D02*
X48188666Y-85552619D01*
X48188666Y-85552619D02*
X48093428Y-85552619D01*
X48093428Y-85552619D02*
X47950571Y-85505000D01*
X47950571Y-85505000D02*
X47855333Y-85409761D01*
X47855333Y-85409761D02*
X47807714Y-85314523D01*
X47807714Y-85314523D02*
X47760095Y-85124047D01*
X47760095Y-85124047D02*
X47760095Y-84981190D01*
X47760095Y-84981190D02*
X47807714Y-84790714D01*
X47807714Y-84790714D02*
X47855333Y-84695476D01*
X47855333Y-84695476D02*
X47950571Y-84600238D01*
X47950571Y-84600238D02*
X48093428Y-84552619D01*
X48093428Y-84552619D02*
X48188666Y-84552619D01*
X48188666Y-84552619D02*
X48331523Y-84600238D01*
X48331523Y-84600238D02*
X48379142Y-84647857D01*
X48712476Y-84552619D02*
X49379142Y-84552619D01*
X49379142Y-84552619D02*
X48950571Y-85552619D01*
X50236285Y-84552619D02*
X49760095Y-84552619D01*
X49760095Y-84552619D02*
X49712476Y-85028809D01*
X49712476Y-85028809D02*
X49760095Y-84981190D01*
X49760095Y-84981190D02*
X49855333Y-84933571D01*
X49855333Y-84933571D02*
X50093428Y-84933571D01*
X50093428Y-84933571D02*
X50188666Y-84981190D01*
X50188666Y-84981190D02*
X50236285Y-85028809D01*
X50236285Y-85028809D02*
X50283904Y-85124047D01*
X50283904Y-85124047D02*
X50283904Y-85362142D01*
X50283904Y-85362142D02*
X50236285Y-85457380D01*
X50236285Y-85457380D02*
X50188666Y-85505000D01*
X50188666Y-85505000D02*
X50093428Y-85552619D01*
X50093428Y-85552619D02*
X49855333Y-85552619D01*
X49855333Y-85552619D02*
X49760095Y-85505000D01*
X49760095Y-85505000D02*
X49712476Y-85457380D01*
X48379142Y-88600619D02*
X48045809Y-88124428D01*
X47807714Y-88600619D02*
X47807714Y-87600619D01*
X47807714Y-87600619D02*
X48188666Y-87600619D01*
X48188666Y-87600619D02*
X48283904Y-87648238D01*
X48283904Y-87648238D02*
X48331523Y-87695857D01*
X48331523Y-87695857D02*
X48379142Y-87791095D01*
X48379142Y-87791095D02*
X48379142Y-87933952D01*
X48379142Y-87933952D02*
X48331523Y-88029190D01*
X48331523Y-88029190D02*
X48283904Y-88076809D01*
X48283904Y-88076809D02*
X48188666Y-88124428D01*
X48188666Y-88124428D02*
X47807714Y-88124428D01*
X49283904Y-87600619D02*
X48807714Y-87600619D01*
X48807714Y-87600619D02*
X48760095Y-88076809D01*
X48760095Y-88076809D02*
X48807714Y-88029190D01*
X48807714Y-88029190D02*
X48902952Y-87981571D01*
X48902952Y-87981571D02*
X49141047Y-87981571D01*
X49141047Y-87981571D02*
X49236285Y-88029190D01*
X49236285Y-88029190D02*
X49283904Y-88076809D01*
X49283904Y-88076809D02*
X49331523Y-88172047D01*
X49331523Y-88172047D02*
X49331523Y-88410142D01*
X49331523Y-88410142D02*
X49283904Y-88505380D01*
X49283904Y-88505380D02*
X49236285Y-88553000D01*
X49236285Y-88553000D02*
X49141047Y-88600619D01*
X49141047Y-88600619D02*
X48902952Y-88600619D01*
X48902952Y-88600619D02*
X48807714Y-88553000D01*
X48807714Y-88553000D02*
X48760095Y-88505380D01*
X49712476Y-87695857D02*
X49760095Y-87648238D01*
X49760095Y-87648238D02*
X49855333Y-87600619D01*
X49855333Y-87600619D02*
X50093428Y-87600619D01*
X50093428Y-87600619D02*
X50188666Y-87648238D01*
X50188666Y-87648238D02*
X50236285Y-87695857D01*
X50236285Y-87695857D02*
X50283904Y-87791095D01*
X50283904Y-87791095D02*
X50283904Y-87886333D01*
X50283904Y-87886333D02*
X50236285Y-88029190D01*
X50236285Y-88029190D02*
X49664857Y-88600619D01*
X49664857Y-88600619D02*
X50283904Y-88600619D01*
X59047142Y-88600619D02*
X58713809Y-88124428D01*
X58475714Y-88600619D02*
X58475714Y-87600619D01*
X58475714Y-87600619D02*
X58856666Y-87600619D01*
X58856666Y-87600619D02*
X58951904Y-87648238D01*
X58951904Y-87648238D02*
X58999523Y-87695857D01*
X58999523Y-87695857D02*
X59047142Y-87791095D01*
X59047142Y-87791095D02*
X59047142Y-87933952D01*
X59047142Y-87933952D02*
X58999523Y-88029190D01*
X58999523Y-88029190D02*
X58951904Y-88076809D01*
X58951904Y-88076809D02*
X58856666Y-88124428D01*
X58856666Y-88124428D02*
X58475714Y-88124428D01*
X59951904Y-87600619D02*
X59475714Y-87600619D01*
X59475714Y-87600619D02*
X59428095Y-88076809D01*
X59428095Y-88076809D02*
X59475714Y-88029190D01*
X59475714Y-88029190D02*
X59570952Y-87981571D01*
X59570952Y-87981571D02*
X59809047Y-87981571D01*
X59809047Y-87981571D02*
X59904285Y-88029190D01*
X59904285Y-88029190D02*
X59951904Y-88076809D01*
X59951904Y-88076809D02*
X59999523Y-88172047D01*
X59999523Y-88172047D02*
X59999523Y-88410142D01*
X59999523Y-88410142D02*
X59951904Y-88505380D01*
X59951904Y-88505380D02*
X59904285Y-88553000D01*
X59904285Y-88553000D02*
X59809047Y-88600619D01*
X59809047Y-88600619D02*
X59570952Y-88600619D01*
X59570952Y-88600619D02*
X59475714Y-88553000D01*
X59475714Y-88553000D02*
X59428095Y-88505380D01*
X60856666Y-87933952D02*
X60856666Y-88600619D01*
X60618571Y-87553000D02*
X60380476Y-88267285D01*
X60380476Y-88267285D02*
X60999523Y-88267285D01*
X72548809Y-75461428D02*
X72548809Y-75937619D01*
X72215476Y-74937619D02*
X72548809Y-75461428D01*
X72548809Y-75461428D02*
X72882142Y-74937619D01*
X73739285Y-75937619D02*
X73167857Y-75937619D01*
X73453571Y-75937619D02*
X73453571Y-74937619D01*
X73453571Y-74937619D02*
X73358333Y-75080476D01*
X73358333Y-75080476D02*
X73263095Y-75175714D01*
X73263095Y-75175714D02*
X73167857Y-75223333D01*
X78097142Y-74535380D02*
X78049523Y-74583000D01*
X78049523Y-74583000D02*
X77906666Y-74630619D01*
X77906666Y-74630619D02*
X77811428Y-74630619D01*
X77811428Y-74630619D02*
X77668571Y-74583000D01*
X77668571Y-74583000D02*
X77573333Y-74487761D01*
X77573333Y-74487761D02*
X77525714Y-74392523D01*
X77525714Y-74392523D02*
X77478095Y-74202047D01*
X77478095Y-74202047D02*
X77478095Y-74059190D01*
X77478095Y-74059190D02*
X77525714Y-73868714D01*
X77525714Y-73868714D02*
X77573333Y-73773476D01*
X77573333Y-73773476D02*
X77668571Y-73678238D01*
X77668571Y-73678238D02*
X77811428Y-73630619D01*
X77811428Y-73630619D02*
X77906666Y-73630619D01*
X77906666Y-73630619D02*
X78049523Y-73678238D01*
X78049523Y-73678238D02*
X78097142Y-73725857D01*
X78430476Y-73630619D02*
X79049523Y-73630619D01*
X79049523Y-73630619D02*
X78716190Y-74011571D01*
X78716190Y-74011571D02*
X78859047Y-74011571D01*
X78859047Y-74011571D02*
X78954285Y-74059190D01*
X78954285Y-74059190D02*
X79001904Y-74106809D01*
X79001904Y-74106809D02*
X79049523Y-74202047D01*
X79049523Y-74202047D02*
X79049523Y-74440142D01*
X79049523Y-74440142D02*
X79001904Y-74535380D01*
X79001904Y-74535380D02*
X78954285Y-74583000D01*
X78954285Y-74583000D02*
X78859047Y-74630619D01*
X78859047Y-74630619D02*
X78573333Y-74630619D01*
X78573333Y-74630619D02*
X78478095Y-74583000D01*
X78478095Y-74583000D02*
X78430476Y-74535380D01*
X79906666Y-73963952D02*
X79906666Y-74630619D01*
X79668571Y-73583000D02*
X79430476Y-74297285D01*
X79430476Y-74297285D02*
X80049523Y-74297285D01*
X103491380Y-96400857D02*
X103539000Y-96448476D01*
X103539000Y-96448476D02*
X103586619Y-96591333D01*
X103586619Y-96591333D02*
X103586619Y-96686571D01*
X103586619Y-96686571D02*
X103539000Y-96829428D01*
X103539000Y-96829428D02*
X103443761Y-96924666D01*
X103443761Y-96924666D02*
X103348523Y-96972285D01*
X103348523Y-96972285D02*
X103158047Y-97019904D01*
X103158047Y-97019904D02*
X103015190Y-97019904D01*
X103015190Y-97019904D02*
X102824714Y-96972285D01*
X102824714Y-96972285D02*
X102729476Y-96924666D01*
X102729476Y-96924666D02*
X102634238Y-96829428D01*
X102634238Y-96829428D02*
X102586619Y-96686571D01*
X102586619Y-96686571D02*
X102586619Y-96591333D01*
X102586619Y-96591333D02*
X102634238Y-96448476D01*
X102634238Y-96448476D02*
X102681857Y-96400857D01*
X102586619Y-95496095D02*
X102586619Y-95972285D01*
X102586619Y-95972285D02*
X103062809Y-96019904D01*
X103062809Y-96019904D02*
X103015190Y-95972285D01*
X103015190Y-95972285D02*
X102967571Y-95877047D01*
X102967571Y-95877047D02*
X102967571Y-95638952D01*
X102967571Y-95638952D02*
X103015190Y-95543714D01*
X103015190Y-95543714D02*
X103062809Y-95496095D01*
X103062809Y-95496095D02*
X103158047Y-95448476D01*
X103158047Y-95448476D02*
X103396142Y-95448476D01*
X103396142Y-95448476D02*
X103491380Y-95496095D01*
X103491380Y-95496095D02*
X103539000Y-95543714D01*
X103539000Y-95543714D02*
X103586619Y-95638952D01*
X103586619Y-95638952D02*
X103586619Y-95877047D01*
X103586619Y-95877047D02*
X103539000Y-95972285D01*
X103539000Y-95972285D02*
X103491380Y-96019904D01*
X103015190Y-94877047D02*
X102967571Y-94972285D01*
X102967571Y-94972285D02*
X102919952Y-95019904D01*
X102919952Y-95019904D02*
X102824714Y-95067523D01*
X102824714Y-95067523D02*
X102777095Y-95067523D01*
X102777095Y-95067523D02*
X102681857Y-95019904D01*
X102681857Y-95019904D02*
X102634238Y-94972285D01*
X102634238Y-94972285D02*
X102586619Y-94877047D01*
X102586619Y-94877047D02*
X102586619Y-94686571D01*
X102586619Y-94686571D02*
X102634238Y-94591333D01*
X102634238Y-94591333D02*
X102681857Y-94543714D01*
X102681857Y-94543714D02*
X102777095Y-94496095D01*
X102777095Y-94496095D02*
X102824714Y-94496095D01*
X102824714Y-94496095D02*
X102919952Y-94543714D01*
X102919952Y-94543714D02*
X102967571Y-94591333D01*
X102967571Y-94591333D02*
X103015190Y-94686571D01*
X103015190Y-94686571D02*
X103015190Y-94877047D01*
X103015190Y-94877047D02*
X103062809Y-94972285D01*
X103062809Y-94972285D02*
X103110428Y-95019904D01*
X103110428Y-95019904D02*
X103205666Y-95067523D01*
X103205666Y-95067523D02*
X103396142Y-95067523D01*
X103396142Y-95067523D02*
X103491380Y-95019904D01*
X103491380Y-95019904D02*
X103539000Y-94972285D01*
X103539000Y-94972285D02*
X103586619Y-94877047D01*
X103586619Y-94877047D02*
X103586619Y-94686571D01*
X103586619Y-94686571D02*
X103539000Y-94591333D01*
X103539000Y-94591333D02*
X103491380Y-94543714D01*
X103491380Y-94543714D02*
X103396142Y-94496095D01*
X103396142Y-94496095D02*
X103205666Y-94496095D01*
X103205666Y-94496095D02*
X103110428Y-94543714D01*
X103110428Y-94543714D02*
X103062809Y-94591333D01*
X103062809Y-94591333D02*
X103015190Y-94686571D01*
X127397143Y-136385000D02*
X127540000Y-136432619D01*
X127540000Y-136432619D02*
X127778095Y-136432619D01*
X127778095Y-136432619D02*
X127873333Y-136385000D01*
X127873333Y-136385000D02*
X127920952Y-136337380D01*
X127920952Y-136337380D02*
X127968571Y-136242142D01*
X127968571Y-136242142D02*
X127968571Y-136146904D01*
X127968571Y-136146904D02*
X127920952Y-136051666D01*
X127920952Y-136051666D02*
X127873333Y-136004047D01*
X127873333Y-136004047D02*
X127778095Y-135956428D01*
X127778095Y-135956428D02*
X127587619Y-135908809D01*
X127587619Y-135908809D02*
X127492381Y-135861190D01*
X127492381Y-135861190D02*
X127444762Y-135813571D01*
X127444762Y-135813571D02*
X127397143Y-135718333D01*
X127397143Y-135718333D02*
X127397143Y-135623095D01*
X127397143Y-135623095D02*
X127444762Y-135527857D01*
X127444762Y-135527857D02*
X127492381Y-135480238D01*
X127492381Y-135480238D02*
X127587619Y-135432619D01*
X127587619Y-135432619D02*
X127825714Y-135432619D01*
X127825714Y-135432619D02*
X127968571Y-135480238D01*
X128301905Y-135432619D02*
X128540000Y-136432619D01*
X128540000Y-136432619D02*
X128730476Y-135718333D01*
X128730476Y-135718333D02*
X128920952Y-136432619D01*
X128920952Y-136432619D02*
X129159048Y-135432619D01*
X129301905Y-136527857D02*
X130063809Y-136527857D01*
X130254286Y-136146904D02*
X130730476Y-136146904D01*
X130159048Y-136432619D02*
X130492381Y-135432619D01*
X130492381Y-135432619D02*
X130825714Y-136432619D01*
X131682857Y-136432619D02*
X131111429Y-136432619D01*
X131397143Y-136432619D02*
X131397143Y-135432619D01*
X131397143Y-135432619D02*
X131301905Y-135575476D01*
X131301905Y-135575476D02*
X131206667Y-135670714D01*
X131206667Y-135670714D02*
X131111429Y-135718333D01*
X48379142Y-91648619D02*
X48045809Y-91172428D01*
X47807714Y-91648619D02*
X47807714Y-90648619D01*
X47807714Y-90648619D02*
X48188666Y-90648619D01*
X48188666Y-90648619D02*
X48283904Y-90696238D01*
X48283904Y-90696238D02*
X48331523Y-90743857D01*
X48331523Y-90743857D02*
X48379142Y-90839095D01*
X48379142Y-90839095D02*
X48379142Y-90981952D01*
X48379142Y-90981952D02*
X48331523Y-91077190D01*
X48331523Y-91077190D02*
X48283904Y-91124809D01*
X48283904Y-91124809D02*
X48188666Y-91172428D01*
X48188666Y-91172428D02*
X47807714Y-91172428D01*
X49283904Y-90648619D02*
X48807714Y-90648619D01*
X48807714Y-90648619D02*
X48760095Y-91124809D01*
X48760095Y-91124809D02*
X48807714Y-91077190D01*
X48807714Y-91077190D02*
X48902952Y-91029571D01*
X48902952Y-91029571D02*
X49141047Y-91029571D01*
X49141047Y-91029571D02*
X49236285Y-91077190D01*
X49236285Y-91077190D02*
X49283904Y-91124809D01*
X49283904Y-91124809D02*
X49331523Y-91220047D01*
X49331523Y-91220047D02*
X49331523Y-91458142D01*
X49331523Y-91458142D02*
X49283904Y-91553380D01*
X49283904Y-91553380D02*
X49236285Y-91601000D01*
X49236285Y-91601000D02*
X49141047Y-91648619D01*
X49141047Y-91648619D02*
X48902952Y-91648619D01*
X48902952Y-91648619D02*
X48807714Y-91601000D01*
X48807714Y-91601000D02*
X48760095Y-91553380D01*
X49664857Y-90648619D02*
X50283904Y-90648619D01*
X50283904Y-90648619D02*
X49950571Y-91029571D01*
X49950571Y-91029571D02*
X50093428Y-91029571D01*
X50093428Y-91029571D02*
X50188666Y-91077190D01*
X50188666Y-91077190D02*
X50236285Y-91124809D01*
X50236285Y-91124809D02*
X50283904Y-91220047D01*
X50283904Y-91220047D02*
X50283904Y-91458142D01*
X50283904Y-91458142D02*
X50236285Y-91553380D01*
X50236285Y-91553380D02*
X50188666Y-91601000D01*
X50188666Y-91601000D02*
X50093428Y-91648619D01*
X50093428Y-91648619D02*
X49807714Y-91648619D01*
X49807714Y-91648619D02*
X49712476Y-91601000D01*
X49712476Y-91601000D02*
X49664857Y-91553380D01*
X91413105Y-135031818D02*
X91413105Y-134031818D01*
X91413105Y-134031818D02*
X91651200Y-134031818D01*
X91651200Y-134031818D02*
X91794057Y-134079437D01*
X91794057Y-134079437D02*
X91889295Y-134174675D01*
X91889295Y-134174675D02*
X91936914Y-134269913D01*
X91936914Y-134269913D02*
X91984533Y-134460389D01*
X91984533Y-134460389D02*
X91984533Y-134603246D01*
X91984533Y-134603246D02*
X91936914Y-134793722D01*
X91936914Y-134793722D02*
X91889295Y-134888960D01*
X91889295Y-134888960D02*
X91794057Y-134984199D01*
X91794057Y-134984199D02*
X91651200Y-135031818D01*
X91651200Y-135031818D02*
X91413105Y-135031818D01*
X92555962Y-134460389D02*
X92460724Y-134412770D01*
X92460724Y-134412770D02*
X92413105Y-134365151D01*
X92413105Y-134365151D02*
X92365486Y-134269913D01*
X92365486Y-134269913D02*
X92365486Y-134222294D01*
X92365486Y-134222294D02*
X92413105Y-134127056D01*
X92413105Y-134127056D02*
X92460724Y-134079437D01*
X92460724Y-134079437D02*
X92555962Y-134031818D01*
X92555962Y-134031818D02*
X92746438Y-134031818D01*
X92746438Y-134031818D02*
X92841676Y-134079437D01*
X92841676Y-134079437D02*
X92889295Y-134127056D01*
X92889295Y-134127056D02*
X92936914Y-134222294D01*
X92936914Y-134222294D02*
X92936914Y-134269913D01*
X92936914Y-134269913D02*
X92889295Y-134365151D01*
X92889295Y-134365151D02*
X92841676Y-134412770D01*
X92841676Y-134412770D02*
X92746438Y-134460389D01*
X92746438Y-134460389D02*
X92555962Y-134460389D01*
X92555962Y-134460389D02*
X92460724Y-134508008D01*
X92460724Y-134508008D02*
X92413105Y-134555627D01*
X92413105Y-134555627D02*
X92365486Y-134650865D01*
X92365486Y-134650865D02*
X92365486Y-134841341D01*
X92365486Y-134841341D02*
X92413105Y-134936579D01*
X92413105Y-134936579D02*
X92460724Y-134984199D01*
X92460724Y-134984199D02*
X92555962Y-135031818D01*
X92555962Y-135031818D02*
X92746438Y-135031818D01*
X92746438Y-135031818D02*
X92841676Y-134984199D01*
X92841676Y-134984199D02*
X92889295Y-134936579D01*
X92889295Y-134936579D02*
X92936914Y-134841341D01*
X92936914Y-134841341D02*
X92936914Y-134650865D01*
X92936914Y-134650865D02*
X92889295Y-134555627D01*
X92889295Y-134555627D02*
X92841676Y-134508008D01*
X92841676Y-134508008D02*
X92746438Y-134460389D01*
X95758095Y-95687619D02*
X95758095Y-96497142D01*
X95758095Y-96497142D02*
X95805714Y-96592380D01*
X95805714Y-96592380D02*
X95853333Y-96640000D01*
X95853333Y-96640000D02*
X95948571Y-96687619D01*
X95948571Y-96687619D02*
X96139047Y-96687619D01*
X96139047Y-96687619D02*
X96234285Y-96640000D01*
X96234285Y-96640000D02*
X96281904Y-96592380D01*
X96281904Y-96592380D02*
X96329523Y-96497142D01*
X96329523Y-96497142D02*
X96329523Y-95687619D01*
X96853333Y-96687619D02*
X97043809Y-96687619D01*
X97043809Y-96687619D02*
X97139047Y-96640000D01*
X97139047Y-96640000D02*
X97186666Y-96592380D01*
X97186666Y-96592380D02*
X97281904Y-96449523D01*
X97281904Y-96449523D02*
X97329523Y-96259047D01*
X97329523Y-96259047D02*
X97329523Y-95878095D01*
X97329523Y-95878095D02*
X97281904Y-95782857D01*
X97281904Y-95782857D02*
X97234285Y-95735238D01*
X97234285Y-95735238D02*
X97139047Y-95687619D01*
X97139047Y-95687619D02*
X96948571Y-95687619D01*
X96948571Y-95687619D02*
X96853333Y-95735238D01*
X96853333Y-95735238D02*
X96805714Y-95782857D01*
X96805714Y-95782857D02*
X96758095Y-95878095D01*
X96758095Y-95878095D02*
X96758095Y-96116190D01*
X96758095Y-96116190D02*
X96805714Y-96211428D01*
X96805714Y-96211428D02*
X96853333Y-96259047D01*
X96853333Y-96259047D02*
X96948571Y-96306666D01*
X96948571Y-96306666D02*
X97139047Y-96306666D01*
X97139047Y-96306666D02*
X97234285Y-96259047D01*
X97234285Y-96259047D02*
X97281904Y-96211428D01*
X97281904Y-96211428D02*
X97329523Y-96116190D01*
X92062619Y-42959257D02*
X91586428Y-43292590D01*
X92062619Y-43530685D02*
X91062619Y-43530685D01*
X91062619Y-43530685D02*
X91062619Y-43149733D01*
X91062619Y-43149733D02*
X91110238Y-43054495D01*
X91110238Y-43054495D02*
X91157857Y-43006876D01*
X91157857Y-43006876D02*
X91253095Y-42959257D01*
X91253095Y-42959257D02*
X91395952Y-42959257D01*
X91395952Y-42959257D02*
X91491190Y-43006876D01*
X91491190Y-43006876D02*
X91538809Y-43054495D01*
X91538809Y-43054495D02*
X91586428Y-43149733D01*
X91586428Y-43149733D02*
X91586428Y-43530685D01*
X91157857Y-42578304D02*
X91110238Y-42530685D01*
X91110238Y-42530685D02*
X91062619Y-42435447D01*
X91062619Y-42435447D02*
X91062619Y-42197352D01*
X91062619Y-42197352D02*
X91110238Y-42102114D01*
X91110238Y-42102114D02*
X91157857Y-42054495D01*
X91157857Y-42054495D02*
X91253095Y-42006876D01*
X91253095Y-42006876D02*
X91348333Y-42006876D01*
X91348333Y-42006876D02*
X91491190Y-42054495D01*
X91491190Y-42054495D02*
X92062619Y-42625923D01*
X92062619Y-42625923D02*
X92062619Y-42006876D01*
X91395952Y-41149733D02*
X92062619Y-41149733D01*
X91015000Y-41387828D02*
X91729285Y-41625923D01*
X91729285Y-41625923D02*
X91729285Y-41006876D01*
X88665380Y-87510857D02*
X88713000Y-87558476D01*
X88713000Y-87558476D02*
X88760619Y-87701333D01*
X88760619Y-87701333D02*
X88760619Y-87796571D01*
X88760619Y-87796571D02*
X88713000Y-87939428D01*
X88713000Y-87939428D02*
X88617761Y-88034666D01*
X88617761Y-88034666D02*
X88522523Y-88082285D01*
X88522523Y-88082285D02*
X88332047Y-88129904D01*
X88332047Y-88129904D02*
X88189190Y-88129904D01*
X88189190Y-88129904D02*
X87998714Y-88082285D01*
X87998714Y-88082285D02*
X87903476Y-88034666D01*
X87903476Y-88034666D02*
X87808238Y-87939428D01*
X87808238Y-87939428D02*
X87760619Y-87796571D01*
X87760619Y-87796571D02*
X87760619Y-87701333D01*
X87760619Y-87701333D02*
X87808238Y-87558476D01*
X87808238Y-87558476D02*
X87855857Y-87510857D01*
X88760619Y-86558476D02*
X88760619Y-87129904D01*
X88760619Y-86844190D02*
X87760619Y-86844190D01*
X87760619Y-86844190D02*
X87903476Y-86939428D01*
X87903476Y-86939428D02*
X87998714Y-87034666D01*
X87998714Y-87034666D02*
X88046333Y-87129904D01*
X88093952Y-85701333D02*
X88760619Y-85701333D01*
X87713000Y-85939428D02*
X88427285Y-86177523D01*
X88427285Y-86177523D02*
X88427285Y-85558476D01*
X108727380Y-28074857D02*
X108775000Y-28122476D01*
X108775000Y-28122476D02*
X108822619Y-28265333D01*
X108822619Y-28265333D02*
X108822619Y-28360571D01*
X108822619Y-28360571D02*
X108775000Y-28503428D01*
X108775000Y-28503428D02*
X108679761Y-28598666D01*
X108679761Y-28598666D02*
X108584523Y-28646285D01*
X108584523Y-28646285D02*
X108394047Y-28693904D01*
X108394047Y-28693904D02*
X108251190Y-28693904D01*
X108251190Y-28693904D02*
X108060714Y-28646285D01*
X108060714Y-28646285D02*
X107965476Y-28598666D01*
X107965476Y-28598666D02*
X107870238Y-28503428D01*
X107870238Y-28503428D02*
X107822619Y-28360571D01*
X107822619Y-28360571D02*
X107822619Y-28265333D01*
X107822619Y-28265333D02*
X107870238Y-28122476D01*
X107870238Y-28122476D02*
X107917857Y-28074857D01*
X108155952Y-27217714D02*
X108822619Y-27217714D01*
X107775000Y-27455809D02*
X108489285Y-27693904D01*
X108489285Y-27693904D02*
X108489285Y-27074857D01*
X107822619Y-26265333D02*
X107822619Y-26455809D01*
X107822619Y-26455809D02*
X107870238Y-26551047D01*
X107870238Y-26551047D02*
X107917857Y-26598666D01*
X107917857Y-26598666D02*
X108060714Y-26693904D01*
X108060714Y-26693904D02*
X108251190Y-26741523D01*
X108251190Y-26741523D02*
X108632142Y-26741523D01*
X108632142Y-26741523D02*
X108727380Y-26693904D01*
X108727380Y-26693904D02*
X108775000Y-26646285D01*
X108775000Y-26646285D02*
X108822619Y-26551047D01*
X108822619Y-26551047D02*
X108822619Y-26360571D01*
X108822619Y-26360571D02*
X108775000Y-26265333D01*
X108775000Y-26265333D02*
X108727380Y-26217714D01*
X108727380Y-26217714D02*
X108632142Y-26170095D01*
X108632142Y-26170095D02*
X108394047Y-26170095D01*
X108394047Y-26170095D02*
X108298809Y-26217714D01*
X108298809Y-26217714D02*
X108251190Y-26265333D01*
X108251190Y-26265333D02*
X108203571Y-26360571D01*
X108203571Y-26360571D02*
X108203571Y-26551047D01*
X108203571Y-26551047D02*
X108251190Y-26646285D01*
X108251190Y-26646285D02*
X108298809Y-26693904D01*
X108298809Y-26693904D02*
X108394047Y-26741523D01*
X128778095Y-125802619D02*
X128778095Y-124802619D01*
X128778095Y-125278809D02*
X129349523Y-125278809D01*
X129349523Y-125802619D02*
X129349523Y-124802619D01*
X129778095Y-124897857D02*
X129825714Y-124850238D01*
X129825714Y-124850238D02*
X129920952Y-124802619D01*
X129920952Y-124802619D02*
X130159047Y-124802619D01*
X130159047Y-124802619D02*
X130254285Y-124850238D01*
X130254285Y-124850238D02*
X130301904Y-124897857D01*
X130301904Y-124897857D02*
X130349523Y-124993095D01*
X130349523Y-124993095D02*
X130349523Y-125088333D01*
X130349523Y-125088333D02*
X130301904Y-125231190D01*
X130301904Y-125231190D02*
X129730476Y-125802619D01*
X129730476Y-125802619D02*
X130349523Y-125802619D01*
X118318619Y-30868857D02*
X117842428Y-31202190D01*
X118318619Y-31440285D02*
X117318619Y-31440285D01*
X117318619Y-31440285D02*
X117318619Y-31059333D01*
X117318619Y-31059333D02*
X117366238Y-30964095D01*
X117366238Y-30964095D02*
X117413857Y-30916476D01*
X117413857Y-30916476D02*
X117509095Y-30868857D01*
X117509095Y-30868857D02*
X117651952Y-30868857D01*
X117651952Y-30868857D02*
X117747190Y-30916476D01*
X117747190Y-30916476D02*
X117794809Y-30964095D01*
X117794809Y-30964095D02*
X117842428Y-31059333D01*
X117842428Y-31059333D02*
X117842428Y-31440285D01*
X118318619Y-29916476D02*
X118318619Y-30487904D01*
X118318619Y-30202190D02*
X117318619Y-30202190D01*
X117318619Y-30202190D02*
X117461476Y-30297428D01*
X117461476Y-30297428D02*
X117556714Y-30392666D01*
X117556714Y-30392666D02*
X117604333Y-30487904D01*
X117651952Y-29059333D02*
X118318619Y-29059333D01*
X117271000Y-29297428D02*
X117985285Y-29535523D01*
X117985285Y-29535523D02*
X117985285Y-28916476D01*
X108665380Y-47378857D02*
X108713000Y-47426476D01*
X108713000Y-47426476D02*
X108760619Y-47569333D01*
X108760619Y-47569333D02*
X108760619Y-47664571D01*
X108760619Y-47664571D02*
X108713000Y-47807428D01*
X108713000Y-47807428D02*
X108617761Y-47902666D01*
X108617761Y-47902666D02*
X108522523Y-47950285D01*
X108522523Y-47950285D02*
X108332047Y-47997904D01*
X108332047Y-47997904D02*
X108189190Y-47997904D01*
X108189190Y-47997904D02*
X107998714Y-47950285D01*
X107998714Y-47950285D02*
X107903476Y-47902666D01*
X107903476Y-47902666D02*
X107808238Y-47807428D01*
X107808238Y-47807428D02*
X107760619Y-47664571D01*
X107760619Y-47664571D02*
X107760619Y-47569333D01*
X107760619Y-47569333D02*
X107808238Y-47426476D01*
X107808238Y-47426476D02*
X107855857Y-47378857D01*
X107855857Y-46997904D02*
X107808238Y-46950285D01*
X107808238Y-46950285D02*
X107760619Y-46855047D01*
X107760619Y-46855047D02*
X107760619Y-46616952D01*
X107760619Y-46616952D02*
X107808238Y-46521714D01*
X107808238Y-46521714D02*
X107855857Y-46474095D01*
X107855857Y-46474095D02*
X107951095Y-46426476D01*
X107951095Y-46426476D02*
X108046333Y-46426476D01*
X108046333Y-46426476D02*
X108189190Y-46474095D01*
X108189190Y-46474095D02*
X108760619Y-47045523D01*
X108760619Y-47045523D02*
X108760619Y-46426476D01*
X107760619Y-46093142D02*
X107760619Y-45474095D01*
X107760619Y-45474095D02*
X108141571Y-45807428D01*
X108141571Y-45807428D02*
X108141571Y-45664571D01*
X108141571Y-45664571D02*
X108189190Y-45569333D01*
X108189190Y-45569333D02*
X108236809Y-45521714D01*
X108236809Y-45521714D02*
X108332047Y-45474095D01*
X108332047Y-45474095D02*
X108570142Y-45474095D01*
X108570142Y-45474095D02*
X108665380Y-45521714D01*
X108665380Y-45521714D02*
X108713000Y-45569333D01*
X108713000Y-45569333D02*
X108760619Y-45664571D01*
X108760619Y-45664571D02*
X108760619Y-45950285D01*
X108760619Y-45950285D02*
X108713000Y-46045523D01*
X108713000Y-46045523D02*
X108665380Y-46093142D01*
X60256667Y-122145400D02*
X60399524Y-122193019D01*
X60399524Y-122193019D02*
X60637619Y-122193019D01*
X60637619Y-122193019D02*
X60732857Y-122145400D01*
X60732857Y-122145400D02*
X60780476Y-122097780D01*
X60780476Y-122097780D02*
X60828095Y-122002542D01*
X60828095Y-122002542D02*
X60828095Y-121907304D01*
X60828095Y-121907304D02*
X60780476Y-121812066D01*
X60780476Y-121812066D02*
X60732857Y-121764447D01*
X60732857Y-121764447D02*
X60637619Y-121716828D01*
X60637619Y-121716828D02*
X60447143Y-121669209D01*
X60447143Y-121669209D02*
X60351905Y-121621590D01*
X60351905Y-121621590D02*
X60304286Y-121573971D01*
X60304286Y-121573971D02*
X60256667Y-121478733D01*
X60256667Y-121478733D02*
X60256667Y-121383495D01*
X60256667Y-121383495D02*
X60304286Y-121288257D01*
X60304286Y-121288257D02*
X60351905Y-121240638D01*
X60351905Y-121240638D02*
X60447143Y-121193019D01*
X60447143Y-121193019D02*
X60685238Y-121193019D01*
X60685238Y-121193019D02*
X60828095Y-121240638D01*
X61161429Y-121193019D02*
X61399524Y-122193019D01*
X61399524Y-122193019D02*
X61590000Y-121478733D01*
X61590000Y-121478733D02*
X61780476Y-122193019D01*
X61780476Y-122193019D02*
X62018572Y-121193019D01*
X62304286Y-121193019D02*
X62923333Y-121193019D01*
X62923333Y-121193019D02*
X62590000Y-121573971D01*
X62590000Y-121573971D02*
X62732857Y-121573971D01*
X62732857Y-121573971D02*
X62828095Y-121621590D01*
X62828095Y-121621590D02*
X62875714Y-121669209D01*
X62875714Y-121669209D02*
X62923333Y-121764447D01*
X62923333Y-121764447D02*
X62923333Y-122002542D01*
X62923333Y-122002542D02*
X62875714Y-122097780D01*
X62875714Y-122097780D02*
X62828095Y-122145400D01*
X62828095Y-122145400D02*
X62732857Y-122193019D01*
X62732857Y-122193019D02*
X62447143Y-122193019D01*
X62447143Y-122193019D02*
X62351905Y-122145400D01*
X62351905Y-122145400D02*
X62304286Y-122097780D01*
X59047142Y-91140619D02*
X58713809Y-90664428D01*
X58475714Y-91140619D02*
X58475714Y-90140619D01*
X58475714Y-90140619D02*
X58856666Y-90140619D01*
X58856666Y-90140619D02*
X58951904Y-90188238D01*
X58951904Y-90188238D02*
X58999523Y-90235857D01*
X58999523Y-90235857D02*
X59047142Y-90331095D01*
X59047142Y-90331095D02*
X59047142Y-90473952D01*
X59047142Y-90473952D02*
X58999523Y-90569190D01*
X58999523Y-90569190D02*
X58951904Y-90616809D01*
X58951904Y-90616809D02*
X58856666Y-90664428D01*
X58856666Y-90664428D02*
X58475714Y-90664428D01*
X59951904Y-90140619D02*
X59475714Y-90140619D01*
X59475714Y-90140619D02*
X59428095Y-90616809D01*
X59428095Y-90616809D02*
X59475714Y-90569190D01*
X59475714Y-90569190D02*
X59570952Y-90521571D01*
X59570952Y-90521571D02*
X59809047Y-90521571D01*
X59809047Y-90521571D02*
X59904285Y-90569190D01*
X59904285Y-90569190D02*
X59951904Y-90616809D01*
X59951904Y-90616809D02*
X59999523Y-90712047D01*
X59999523Y-90712047D02*
X59999523Y-90950142D01*
X59999523Y-90950142D02*
X59951904Y-91045380D01*
X59951904Y-91045380D02*
X59904285Y-91093000D01*
X59904285Y-91093000D02*
X59809047Y-91140619D01*
X59809047Y-91140619D02*
X59570952Y-91140619D01*
X59570952Y-91140619D02*
X59475714Y-91093000D01*
X59475714Y-91093000D02*
X59428095Y-91045380D01*
X60904285Y-90140619D02*
X60428095Y-90140619D01*
X60428095Y-90140619D02*
X60380476Y-90616809D01*
X60380476Y-90616809D02*
X60428095Y-90569190D01*
X60428095Y-90569190D02*
X60523333Y-90521571D01*
X60523333Y-90521571D02*
X60761428Y-90521571D01*
X60761428Y-90521571D02*
X60856666Y-90569190D01*
X60856666Y-90569190D02*
X60904285Y-90616809D01*
X60904285Y-90616809D02*
X60951904Y-90712047D01*
X60951904Y-90712047D02*
X60951904Y-90950142D01*
X60951904Y-90950142D02*
X60904285Y-91045380D01*
X60904285Y-91045380D02*
X60856666Y-91093000D01*
X60856666Y-91093000D02*
X60761428Y-91140619D01*
X60761428Y-91140619D02*
X60523333Y-91140619D01*
X60523333Y-91140619D02*
X60428095Y-91093000D01*
X60428095Y-91093000D02*
X60380476Y-91045380D01*
X100857380Y-87510857D02*
X100905000Y-87558476D01*
X100905000Y-87558476D02*
X100952619Y-87701333D01*
X100952619Y-87701333D02*
X100952619Y-87796571D01*
X100952619Y-87796571D02*
X100905000Y-87939428D01*
X100905000Y-87939428D02*
X100809761Y-88034666D01*
X100809761Y-88034666D02*
X100714523Y-88082285D01*
X100714523Y-88082285D02*
X100524047Y-88129904D01*
X100524047Y-88129904D02*
X100381190Y-88129904D01*
X100381190Y-88129904D02*
X100190714Y-88082285D01*
X100190714Y-88082285D02*
X100095476Y-88034666D01*
X100095476Y-88034666D02*
X100000238Y-87939428D01*
X100000238Y-87939428D02*
X99952619Y-87796571D01*
X99952619Y-87796571D02*
X99952619Y-87701333D01*
X99952619Y-87701333D02*
X100000238Y-87558476D01*
X100000238Y-87558476D02*
X100047857Y-87510857D01*
X99952619Y-87177523D02*
X99952619Y-86558476D01*
X99952619Y-86558476D02*
X100333571Y-86891809D01*
X100333571Y-86891809D02*
X100333571Y-86748952D01*
X100333571Y-86748952D02*
X100381190Y-86653714D01*
X100381190Y-86653714D02*
X100428809Y-86606095D01*
X100428809Y-86606095D02*
X100524047Y-86558476D01*
X100524047Y-86558476D02*
X100762142Y-86558476D01*
X100762142Y-86558476D02*
X100857380Y-86606095D01*
X100857380Y-86606095D02*
X100905000Y-86653714D01*
X100905000Y-86653714D02*
X100952619Y-86748952D01*
X100952619Y-86748952D02*
X100952619Y-87034666D01*
X100952619Y-87034666D02*
X100905000Y-87129904D01*
X100905000Y-87129904D02*
X100857380Y-87177523D01*
X99952619Y-85939428D02*
X99952619Y-85844190D01*
X99952619Y-85844190D02*
X100000238Y-85748952D01*
X100000238Y-85748952D02*
X100047857Y-85701333D01*
X100047857Y-85701333D02*
X100143095Y-85653714D01*
X100143095Y-85653714D02*
X100333571Y-85606095D01*
X100333571Y-85606095D02*
X100571666Y-85606095D01*
X100571666Y-85606095D02*
X100762142Y-85653714D01*
X100762142Y-85653714D02*
X100857380Y-85701333D01*
X100857380Y-85701333D02*
X100905000Y-85748952D01*
X100905000Y-85748952D02*
X100952619Y-85844190D01*
X100952619Y-85844190D02*
X100952619Y-85939428D01*
X100952619Y-85939428D02*
X100905000Y-86034666D01*
X100905000Y-86034666D02*
X100857380Y-86082285D01*
X100857380Y-86082285D02*
X100762142Y-86129904D01*
X100762142Y-86129904D02*
X100571666Y-86177523D01*
X100571666Y-86177523D02*
X100333571Y-86177523D01*
X100333571Y-86177523D02*
X100143095Y-86129904D01*
X100143095Y-86129904D02*
X100047857Y-86082285D01*
X100047857Y-86082285D02*
X100000238Y-86034666D01*
X100000238Y-86034666D02*
X99952619Y-85939428D01*
X121531142Y-78091380D02*
X121483523Y-78139000D01*
X121483523Y-78139000D02*
X121340666Y-78186619D01*
X121340666Y-78186619D02*
X121245428Y-78186619D01*
X121245428Y-78186619D02*
X121102571Y-78139000D01*
X121102571Y-78139000D02*
X121007333Y-78043761D01*
X121007333Y-78043761D02*
X120959714Y-77948523D01*
X120959714Y-77948523D02*
X120912095Y-77758047D01*
X120912095Y-77758047D02*
X120912095Y-77615190D01*
X120912095Y-77615190D02*
X120959714Y-77424714D01*
X120959714Y-77424714D02*
X121007333Y-77329476D01*
X121007333Y-77329476D02*
X121102571Y-77234238D01*
X121102571Y-77234238D02*
X121245428Y-77186619D01*
X121245428Y-77186619D02*
X121340666Y-77186619D01*
X121340666Y-77186619D02*
X121483523Y-77234238D01*
X121483523Y-77234238D02*
X121531142Y-77281857D01*
X121912095Y-77281857D02*
X121959714Y-77234238D01*
X121959714Y-77234238D02*
X122054952Y-77186619D01*
X122054952Y-77186619D02*
X122293047Y-77186619D01*
X122293047Y-77186619D02*
X122388285Y-77234238D01*
X122388285Y-77234238D02*
X122435904Y-77281857D01*
X122435904Y-77281857D02*
X122483523Y-77377095D01*
X122483523Y-77377095D02*
X122483523Y-77472333D01*
X122483523Y-77472333D02*
X122435904Y-77615190D01*
X122435904Y-77615190D02*
X121864476Y-78186619D01*
X121864476Y-78186619D02*
X122483523Y-78186619D01*
X123054952Y-77615190D02*
X122959714Y-77567571D01*
X122959714Y-77567571D02*
X122912095Y-77519952D01*
X122912095Y-77519952D02*
X122864476Y-77424714D01*
X122864476Y-77424714D02*
X122864476Y-77377095D01*
X122864476Y-77377095D02*
X122912095Y-77281857D01*
X122912095Y-77281857D02*
X122959714Y-77234238D01*
X122959714Y-77234238D02*
X123054952Y-77186619D01*
X123054952Y-77186619D02*
X123245428Y-77186619D01*
X123245428Y-77186619D02*
X123340666Y-77234238D01*
X123340666Y-77234238D02*
X123388285Y-77281857D01*
X123388285Y-77281857D02*
X123435904Y-77377095D01*
X123435904Y-77377095D02*
X123435904Y-77424714D01*
X123435904Y-77424714D02*
X123388285Y-77519952D01*
X123388285Y-77519952D02*
X123340666Y-77567571D01*
X123340666Y-77567571D02*
X123245428Y-77615190D01*
X123245428Y-77615190D02*
X123054952Y-77615190D01*
X123054952Y-77615190D02*
X122959714Y-77662809D01*
X122959714Y-77662809D02*
X122912095Y-77710428D01*
X122912095Y-77710428D02*
X122864476Y-77805666D01*
X122864476Y-77805666D02*
X122864476Y-77996142D01*
X122864476Y-77996142D02*
X122912095Y-78091380D01*
X122912095Y-78091380D02*
X122959714Y-78139000D01*
X122959714Y-78139000D02*
X123054952Y-78186619D01*
X123054952Y-78186619D02*
X123245428Y-78186619D01*
X123245428Y-78186619D02*
X123340666Y-78139000D01*
X123340666Y-78139000D02*
X123388285Y-78091380D01*
X123388285Y-78091380D02*
X123435904Y-77996142D01*
X123435904Y-77996142D02*
X123435904Y-77805666D01*
X123435904Y-77805666D02*
X123388285Y-77710428D01*
X123388285Y-77710428D02*
X123340666Y-77662809D01*
X123340666Y-77662809D02*
X123245428Y-77615190D01*
X69937333Y-59201380D02*
X69889714Y-59249000D01*
X69889714Y-59249000D02*
X69746857Y-59296619D01*
X69746857Y-59296619D02*
X69651619Y-59296619D01*
X69651619Y-59296619D02*
X69508762Y-59249000D01*
X69508762Y-59249000D02*
X69413524Y-59153761D01*
X69413524Y-59153761D02*
X69365905Y-59058523D01*
X69365905Y-59058523D02*
X69318286Y-58868047D01*
X69318286Y-58868047D02*
X69318286Y-58725190D01*
X69318286Y-58725190D02*
X69365905Y-58534714D01*
X69365905Y-58534714D02*
X69413524Y-58439476D01*
X69413524Y-58439476D02*
X69508762Y-58344238D01*
X69508762Y-58344238D02*
X69651619Y-58296619D01*
X69651619Y-58296619D02*
X69746857Y-58296619D01*
X69746857Y-58296619D02*
X69889714Y-58344238D01*
X69889714Y-58344238D02*
X69937333Y-58391857D01*
X70508762Y-58725190D02*
X70413524Y-58677571D01*
X70413524Y-58677571D02*
X70365905Y-58629952D01*
X70365905Y-58629952D02*
X70318286Y-58534714D01*
X70318286Y-58534714D02*
X70318286Y-58487095D01*
X70318286Y-58487095D02*
X70365905Y-58391857D01*
X70365905Y-58391857D02*
X70413524Y-58344238D01*
X70413524Y-58344238D02*
X70508762Y-58296619D01*
X70508762Y-58296619D02*
X70699238Y-58296619D01*
X70699238Y-58296619D02*
X70794476Y-58344238D01*
X70794476Y-58344238D02*
X70842095Y-58391857D01*
X70842095Y-58391857D02*
X70889714Y-58487095D01*
X70889714Y-58487095D02*
X70889714Y-58534714D01*
X70889714Y-58534714D02*
X70842095Y-58629952D01*
X70842095Y-58629952D02*
X70794476Y-58677571D01*
X70794476Y-58677571D02*
X70699238Y-58725190D01*
X70699238Y-58725190D02*
X70508762Y-58725190D01*
X70508762Y-58725190D02*
X70413524Y-58772809D01*
X70413524Y-58772809D02*
X70365905Y-58820428D01*
X70365905Y-58820428D02*
X70318286Y-58915666D01*
X70318286Y-58915666D02*
X70318286Y-59106142D01*
X70318286Y-59106142D02*
X70365905Y-59201380D01*
X70365905Y-59201380D02*
X70413524Y-59249000D01*
X70413524Y-59249000D02*
X70508762Y-59296619D01*
X70508762Y-59296619D02*
X70699238Y-59296619D01*
X70699238Y-59296619D02*
X70794476Y-59249000D01*
X70794476Y-59249000D02*
X70842095Y-59201380D01*
X70842095Y-59201380D02*
X70889714Y-59106142D01*
X70889714Y-59106142D02*
X70889714Y-58915666D01*
X70889714Y-58915666D02*
X70842095Y-58820428D01*
X70842095Y-58820428D02*
X70794476Y-58772809D01*
X70794476Y-58772809D02*
X70699238Y-58725190D01*
X115919524Y-124955000D02*
X116062381Y-125002619D01*
X116062381Y-125002619D02*
X116300476Y-125002619D01*
X116300476Y-125002619D02*
X116395714Y-124955000D01*
X116395714Y-124955000D02*
X116443333Y-124907380D01*
X116443333Y-124907380D02*
X116490952Y-124812142D01*
X116490952Y-124812142D02*
X116490952Y-124716904D01*
X116490952Y-124716904D02*
X116443333Y-124621666D01*
X116443333Y-124621666D02*
X116395714Y-124574047D01*
X116395714Y-124574047D02*
X116300476Y-124526428D01*
X116300476Y-124526428D02*
X116110000Y-124478809D01*
X116110000Y-124478809D02*
X116014762Y-124431190D01*
X116014762Y-124431190D02*
X115967143Y-124383571D01*
X115967143Y-124383571D02*
X115919524Y-124288333D01*
X115919524Y-124288333D02*
X115919524Y-124193095D01*
X115919524Y-124193095D02*
X115967143Y-124097857D01*
X115967143Y-124097857D02*
X116014762Y-124050238D01*
X116014762Y-124050238D02*
X116110000Y-124002619D01*
X116110000Y-124002619D02*
X116348095Y-124002619D01*
X116348095Y-124002619D02*
X116490952Y-124050238D01*
X116824286Y-124002619D02*
X117062381Y-125002619D01*
X117062381Y-125002619D02*
X117252857Y-124288333D01*
X117252857Y-124288333D02*
X117443333Y-125002619D01*
X117443333Y-125002619D02*
X117681429Y-124002619D01*
X117824286Y-125097857D02*
X118586190Y-125097857D01*
X118729048Y-124002619D02*
X119395714Y-125002619D01*
X119395714Y-124002619D02*
X118729048Y-125002619D01*
X120300476Y-125002619D02*
X119729048Y-125002619D01*
X120014762Y-125002619D02*
X120014762Y-124002619D01*
X120014762Y-124002619D02*
X119919524Y-124145476D01*
X119919524Y-124145476D02*
X119824286Y-124240714D01*
X119824286Y-124240714D02*
X119729048Y-124288333D01*
X78097142Y-80029380D02*
X78049523Y-80077000D01*
X78049523Y-80077000D02*
X77906666Y-80124619D01*
X77906666Y-80124619D02*
X77811428Y-80124619D01*
X77811428Y-80124619D02*
X77668571Y-80077000D01*
X77668571Y-80077000D02*
X77573333Y-79981761D01*
X77573333Y-79981761D02*
X77525714Y-79886523D01*
X77525714Y-79886523D02*
X77478095Y-79696047D01*
X77478095Y-79696047D02*
X77478095Y-79553190D01*
X77478095Y-79553190D02*
X77525714Y-79362714D01*
X77525714Y-79362714D02*
X77573333Y-79267476D01*
X77573333Y-79267476D02*
X77668571Y-79172238D01*
X77668571Y-79172238D02*
X77811428Y-79124619D01*
X77811428Y-79124619D02*
X77906666Y-79124619D01*
X77906666Y-79124619D02*
X78049523Y-79172238D01*
X78049523Y-79172238D02*
X78097142Y-79219857D01*
X79049523Y-80124619D02*
X78478095Y-80124619D01*
X78763809Y-80124619D02*
X78763809Y-79124619D01*
X78763809Y-79124619D02*
X78668571Y-79267476D01*
X78668571Y-79267476D02*
X78573333Y-79362714D01*
X78573333Y-79362714D02*
X78478095Y-79410333D01*
X79954285Y-79124619D02*
X79478095Y-79124619D01*
X79478095Y-79124619D02*
X79430476Y-79600809D01*
X79430476Y-79600809D02*
X79478095Y-79553190D01*
X79478095Y-79553190D02*
X79573333Y-79505571D01*
X79573333Y-79505571D02*
X79811428Y-79505571D01*
X79811428Y-79505571D02*
X79906666Y-79553190D01*
X79906666Y-79553190D02*
X79954285Y-79600809D01*
X79954285Y-79600809D02*
X80001904Y-79696047D01*
X80001904Y-79696047D02*
X80001904Y-79934142D01*
X80001904Y-79934142D02*
X79954285Y-80029380D01*
X79954285Y-80029380D02*
X79906666Y-80077000D01*
X79906666Y-80077000D02*
X79811428Y-80124619D01*
X79811428Y-80124619D02*
X79573333Y-80124619D01*
X79573333Y-80124619D02*
X79478095Y-80077000D01*
X79478095Y-80077000D02*
X79430476Y-80029380D01*
X121874619Y-30868857D02*
X121398428Y-31202190D01*
X121874619Y-31440285D02*
X120874619Y-31440285D01*
X120874619Y-31440285D02*
X120874619Y-31059333D01*
X120874619Y-31059333D02*
X120922238Y-30964095D01*
X120922238Y-30964095D02*
X120969857Y-30916476D01*
X120969857Y-30916476D02*
X121065095Y-30868857D01*
X121065095Y-30868857D02*
X121207952Y-30868857D01*
X121207952Y-30868857D02*
X121303190Y-30916476D01*
X121303190Y-30916476D02*
X121350809Y-30964095D01*
X121350809Y-30964095D02*
X121398428Y-31059333D01*
X121398428Y-31059333D02*
X121398428Y-31440285D01*
X121874619Y-29916476D02*
X121874619Y-30487904D01*
X121874619Y-30202190D02*
X120874619Y-30202190D01*
X120874619Y-30202190D02*
X121017476Y-30297428D01*
X121017476Y-30297428D02*
X121112714Y-30392666D01*
X121112714Y-30392666D02*
X121160333Y-30487904D01*
X120874619Y-29583142D02*
X120874619Y-28916476D01*
X120874619Y-28916476D02*
X121874619Y-29345047D01*
X46228095Y-145452619D02*
X46228095Y-144452619D01*
X46228095Y-144928809D02*
X46799523Y-144928809D01*
X46799523Y-145452619D02*
X46799523Y-144452619D01*
X47751904Y-144452619D02*
X47275714Y-144452619D01*
X47275714Y-144452619D02*
X47228095Y-144928809D01*
X47228095Y-144928809D02*
X47275714Y-144881190D01*
X47275714Y-144881190D02*
X47370952Y-144833571D01*
X47370952Y-144833571D02*
X47609047Y-144833571D01*
X47609047Y-144833571D02*
X47704285Y-144881190D01*
X47704285Y-144881190D02*
X47751904Y-144928809D01*
X47751904Y-144928809D02*
X47799523Y-145024047D01*
X47799523Y-145024047D02*
X47799523Y-145262142D01*
X47799523Y-145262142D02*
X47751904Y-145357380D01*
X47751904Y-145357380D02*
X47704285Y-145405000D01*
X47704285Y-145405000D02*
X47609047Y-145452619D01*
X47609047Y-145452619D02*
X47370952Y-145452619D01*
X47370952Y-145452619D02*
X47275714Y-145405000D01*
X47275714Y-145405000D02*
X47228095Y-145357380D01*
X50038095Y-37537619D02*
X50038095Y-36537619D01*
X50038095Y-37013809D02*
X50609523Y-37013809D01*
X50609523Y-37537619D02*
X50609523Y-36537619D01*
X50990476Y-36537619D02*
X51609523Y-36537619D01*
X51609523Y-36537619D02*
X51276190Y-36918571D01*
X51276190Y-36918571D02*
X51419047Y-36918571D01*
X51419047Y-36918571D02*
X51514285Y-36966190D01*
X51514285Y-36966190D02*
X51561904Y-37013809D01*
X51561904Y-37013809D02*
X51609523Y-37109047D01*
X51609523Y-37109047D02*
X51609523Y-37347142D01*
X51609523Y-37347142D02*
X51561904Y-37442380D01*
X51561904Y-37442380D02*
X51514285Y-37490000D01*
X51514285Y-37490000D02*
X51419047Y-37537619D01*
X51419047Y-37537619D02*
X51133333Y-37537619D01*
X51133333Y-37537619D02*
X51038095Y-37490000D01*
X51038095Y-37490000D02*
X50990476Y-37442380D01*
X97663095Y-49757619D02*
X97663095Y-50567142D01*
X97663095Y-50567142D02*
X97710714Y-50662380D01*
X97710714Y-50662380D02*
X97758333Y-50710000D01*
X97758333Y-50710000D02*
X97853571Y-50757619D01*
X97853571Y-50757619D02*
X98044047Y-50757619D01*
X98044047Y-50757619D02*
X98139285Y-50710000D01*
X98139285Y-50710000D02*
X98186904Y-50662380D01*
X98186904Y-50662380D02*
X98234523Y-50567142D01*
X98234523Y-50567142D02*
X98234523Y-49757619D01*
X99139285Y-50090952D02*
X99139285Y-50757619D01*
X98901190Y-49710000D02*
X98663095Y-50424285D01*
X98663095Y-50424285D02*
X99282142Y-50424285D01*
X49649142Y-65899380D02*
X49601523Y-65947000D01*
X49601523Y-65947000D02*
X49458666Y-65994619D01*
X49458666Y-65994619D02*
X49363428Y-65994619D01*
X49363428Y-65994619D02*
X49220571Y-65947000D01*
X49220571Y-65947000D02*
X49125333Y-65851761D01*
X49125333Y-65851761D02*
X49077714Y-65756523D01*
X49077714Y-65756523D02*
X49030095Y-65566047D01*
X49030095Y-65566047D02*
X49030095Y-65423190D01*
X49030095Y-65423190D02*
X49077714Y-65232714D01*
X49077714Y-65232714D02*
X49125333Y-65137476D01*
X49125333Y-65137476D02*
X49220571Y-65042238D01*
X49220571Y-65042238D02*
X49363428Y-64994619D01*
X49363428Y-64994619D02*
X49458666Y-64994619D01*
X49458666Y-64994619D02*
X49601523Y-65042238D01*
X49601523Y-65042238D02*
X49649142Y-65089857D01*
X50601523Y-65994619D02*
X50030095Y-65994619D01*
X50315809Y-65994619D02*
X50315809Y-64994619D01*
X50315809Y-64994619D02*
X50220571Y-65137476D01*
X50220571Y-65137476D02*
X50125333Y-65232714D01*
X50125333Y-65232714D02*
X50030095Y-65280333D01*
X51553904Y-65994619D02*
X50982476Y-65994619D01*
X51268190Y-65994619D02*
X51268190Y-64994619D01*
X51268190Y-64994619D02*
X51172952Y-65137476D01*
X51172952Y-65137476D02*
X51077714Y-65232714D01*
X51077714Y-65232714D02*
X50982476Y-65280333D01*
X73017142Y-80279380D02*
X72969523Y-80327000D01*
X72969523Y-80327000D02*
X72826666Y-80374619D01*
X72826666Y-80374619D02*
X72731428Y-80374619D01*
X72731428Y-80374619D02*
X72588571Y-80327000D01*
X72588571Y-80327000D02*
X72493333Y-80231761D01*
X72493333Y-80231761D02*
X72445714Y-80136523D01*
X72445714Y-80136523D02*
X72398095Y-79946047D01*
X72398095Y-79946047D02*
X72398095Y-79803190D01*
X72398095Y-79803190D02*
X72445714Y-79612714D01*
X72445714Y-79612714D02*
X72493333Y-79517476D01*
X72493333Y-79517476D02*
X72588571Y-79422238D01*
X72588571Y-79422238D02*
X72731428Y-79374619D01*
X72731428Y-79374619D02*
X72826666Y-79374619D01*
X72826666Y-79374619D02*
X72969523Y-79422238D01*
X72969523Y-79422238D02*
X73017142Y-79469857D01*
X73350476Y-79374619D02*
X73969523Y-79374619D01*
X73969523Y-79374619D02*
X73636190Y-79755571D01*
X73636190Y-79755571D02*
X73779047Y-79755571D01*
X73779047Y-79755571D02*
X73874285Y-79803190D01*
X73874285Y-79803190D02*
X73921904Y-79850809D01*
X73921904Y-79850809D02*
X73969523Y-79946047D01*
X73969523Y-79946047D02*
X73969523Y-80184142D01*
X73969523Y-80184142D02*
X73921904Y-80279380D01*
X73921904Y-80279380D02*
X73874285Y-80327000D01*
X73874285Y-80327000D02*
X73779047Y-80374619D01*
X73779047Y-80374619D02*
X73493333Y-80374619D01*
X73493333Y-80374619D02*
X73398095Y-80327000D01*
X73398095Y-80327000D02*
X73350476Y-80279380D01*
X74302857Y-79374619D02*
X74921904Y-79374619D01*
X74921904Y-79374619D02*
X74588571Y-79755571D01*
X74588571Y-79755571D02*
X74731428Y-79755571D01*
X74731428Y-79755571D02*
X74826666Y-79803190D01*
X74826666Y-79803190D02*
X74874285Y-79850809D01*
X74874285Y-79850809D02*
X74921904Y-79946047D01*
X74921904Y-79946047D02*
X74921904Y-80184142D01*
X74921904Y-80184142D02*
X74874285Y-80279380D01*
X74874285Y-80279380D02*
X74826666Y-80327000D01*
X74826666Y-80327000D02*
X74731428Y-80374619D01*
X74731428Y-80374619D02*
X74445714Y-80374619D01*
X74445714Y-80374619D02*
X74350476Y-80327000D01*
X74350476Y-80327000D02*
X74302857Y-80279380D01*
X121531142Y-62343380D02*
X121483523Y-62391000D01*
X121483523Y-62391000D02*
X121340666Y-62438619D01*
X121340666Y-62438619D02*
X121245428Y-62438619D01*
X121245428Y-62438619D02*
X121102571Y-62391000D01*
X121102571Y-62391000D02*
X121007333Y-62295761D01*
X121007333Y-62295761D02*
X120959714Y-62200523D01*
X120959714Y-62200523D02*
X120912095Y-62010047D01*
X120912095Y-62010047D02*
X120912095Y-61867190D01*
X120912095Y-61867190D02*
X120959714Y-61676714D01*
X120959714Y-61676714D02*
X121007333Y-61581476D01*
X121007333Y-61581476D02*
X121102571Y-61486238D01*
X121102571Y-61486238D02*
X121245428Y-61438619D01*
X121245428Y-61438619D02*
X121340666Y-61438619D01*
X121340666Y-61438619D02*
X121483523Y-61486238D01*
X121483523Y-61486238D02*
X121531142Y-61533857D01*
X122483523Y-62438619D02*
X121912095Y-62438619D01*
X122197809Y-62438619D02*
X122197809Y-61438619D01*
X122197809Y-61438619D02*
X122102571Y-61581476D01*
X122102571Y-61581476D02*
X122007333Y-61676714D01*
X122007333Y-61676714D02*
X121912095Y-61724333D01*
X123054952Y-61867190D02*
X122959714Y-61819571D01*
X122959714Y-61819571D02*
X122912095Y-61771952D01*
X122912095Y-61771952D02*
X122864476Y-61676714D01*
X122864476Y-61676714D02*
X122864476Y-61629095D01*
X122864476Y-61629095D02*
X122912095Y-61533857D01*
X122912095Y-61533857D02*
X122959714Y-61486238D01*
X122959714Y-61486238D02*
X123054952Y-61438619D01*
X123054952Y-61438619D02*
X123245428Y-61438619D01*
X123245428Y-61438619D02*
X123340666Y-61486238D01*
X123340666Y-61486238D02*
X123388285Y-61533857D01*
X123388285Y-61533857D02*
X123435904Y-61629095D01*
X123435904Y-61629095D02*
X123435904Y-61676714D01*
X123435904Y-61676714D02*
X123388285Y-61771952D01*
X123388285Y-61771952D02*
X123340666Y-61819571D01*
X123340666Y-61819571D02*
X123245428Y-61867190D01*
X123245428Y-61867190D02*
X123054952Y-61867190D01*
X123054952Y-61867190D02*
X122959714Y-61914809D01*
X122959714Y-61914809D02*
X122912095Y-61962428D01*
X122912095Y-61962428D02*
X122864476Y-62057666D01*
X122864476Y-62057666D02*
X122864476Y-62248142D01*
X122864476Y-62248142D02*
X122912095Y-62343380D01*
X122912095Y-62343380D02*
X122959714Y-62391000D01*
X122959714Y-62391000D02*
X123054952Y-62438619D01*
X123054952Y-62438619D02*
X123245428Y-62438619D01*
X123245428Y-62438619D02*
X123340666Y-62391000D01*
X123340666Y-62391000D02*
X123388285Y-62343380D01*
X123388285Y-62343380D02*
X123435904Y-62248142D01*
X123435904Y-62248142D02*
X123435904Y-62057666D01*
X123435904Y-62057666D02*
X123388285Y-61962428D01*
X123388285Y-61962428D02*
X123340666Y-61914809D01*
X123340666Y-61914809D02*
X123245428Y-61867190D01*
X95457380Y-47378857D02*
X95505000Y-47426476D01*
X95505000Y-47426476D02*
X95552619Y-47569333D01*
X95552619Y-47569333D02*
X95552619Y-47664571D01*
X95552619Y-47664571D02*
X95505000Y-47807428D01*
X95505000Y-47807428D02*
X95409761Y-47902666D01*
X95409761Y-47902666D02*
X95314523Y-47950285D01*
X95314523Y-47950285D02*
X95124047Y-47997904D01*
X95124047Y-47997904D02*
X94981190Y-47997904D01*
X94981190Y-47997904D02*
X94790714Y-47950285D01*
X94790714Y-47950285D02*
X94695476Y-47902666D01*
X94695476Y-47902666D02*
X94600238Y-47807428D01*
X94600238Y-47807428D02*
X94552619Y-47664571D01*
X94552619Y-47664571D02*
X94552619Y-47569333D01*
X94552619Y-47569333D02*
X94600238Y-47426476D01*
X94600238Y-47426476D02*
X94647857Y-47378857D01*
X94647857Y-46997904D02*
X94600238Y-46950285D01*
X94600238Y-46950285D02*
X94552619Y-46855047D01*
X94552619Y-46855047D02*
X94552619Y-46616952D01*
X94552619Y-46616952D02*
X94600238Y-46521714D01*
X94600238Y-46521714D02*
X94647857Y-46474095D01*
X94647857Y-46474095D02*
X94743095Y-46426476D01*
X94743095Y-46426476D02*
X94838333Y-46426476D01*
X94838333Y-46426476D02*
X94981190Y-46474095D01*
X94981190Y-46474095D02*
X95552619Y-47045523D01*
X95552619Y-47045523D02*
X95552619Y-46426476D01*
X95552619Y-45474095D02*
X95552619Y-46045523D01*
X95552619Y-45759809D02*
X94552619Y-45759809D01*
X94552619Y-45759809D02*
X94695476Y-45855047D01*
X94695476Y-45855047D02*
X94790714Y-45950285D01*
X94790714Y-45950285D02*
X94838333Y-46045523D01*
X50125333Y-71074619D02*
X49792000Y-70598428D01*
X49553905Y-71074619D02*
X49553905Y-70074619D01*
X49553905Y-70074619D02*
X49934857Y-70074619D01*
X49934857Y-70074619D02*
X50030095Y-70122238D01*
X50030095Y-70122238D02*
X50077714Y-70169857D01*
X50077714Y-70169857D02*
X50125333Y-70265095D01*
X50125333Y-70265095D02*
X50125333Y-70407952D01*
X50125333Y-70407952D02*
X50077714Y-70503190D01*
X50077714Y-70503190D02*
X50030095Y-70550809D01*
X50030095Y-70550809D02*
X49934857Y-70598428D01*
X49934857Y-70598428D02*
X49553905Y-70598428D01*
X50601524Y-71074619D02*
X50792000Y-71074619D01*
X50792000Y-71074619D02*
X50887238Y-71027000D01*
X50887238Y-71027000D02*
X50934857Y-70979380D01*
X50934857Y-70979380D02*
X51030095Y-70836523D01*
X51030095Y-70836523D02*
X51077714Y-70646047D01*
X51077714Y-70646047D02*
X51077714Y-70265095D01*
X51077714Y-70265095D02*
X51030095Y-70169857D01*
X51030095Y-70169857D02*
X50982476Y-70122238D01*
X50982476Y-70122238D02*
X50887238Y-70074619D01*
X50887238Y-70074619D02*
X50696762Y-70074619D01*
X50696762Y-70074619D02*
X50601524Y-70122238D01*
X50601524Y-70122238D02*
X50553905Y-70169857D01*
X50553905Y-70169857D02*
X50506286Y-70265095D01*
X50506286Y-70265095D02*
X50506286Y-70503190D01*
X50506286Y-70503190D02*
X50553905Y-70598428D01*
X50553905Y-70598428D02*
X50601524Y-70646047D01*
X50601524Y-70646047D02*
X50696762Y-70693666D01*
X50696762Y-70693666D02*
X50887238Y-70693666D01*
X50887238Y-70693666D02*
X50982476Y-70646047D01*
X50982476Y-70646047D02*
X51030095Y-70598428D01*
X51030095Y-70598428D02*
X51077714Y-70503190D01*
X101973142Y-99013380D02*
X101925523Y-99061000D01*
X101925523Y-99061000D02*
X101782666Y-99108619D01*
X101782666Y-99108619D02*
X101687428Y-99108619D01*
X101687428Y-99108619D02*
X101544571Y-99061000D01*
X101544571Y-99061000D02*
X101449333Y-98965761D01*
X101449333Y-98965761D02*
X101401714Y-98870523D01*
X101401714Y-98870523D02*
X101354095Y-98680047D01*
X101354095Y-98680047D02*
X101354095Y-98537190D01*
X101354095Y-98537190D02*
X101401714Y-98346714D01*
X101401714Y-98346714D02*
X101449333Y-98251476D01*
X101449333Y-98251476D02*
X101544571Y-98156238D01*
X101544571Y-98156238D02*
X101687428Y-98108619D01*
X101687428Y-98108619D02*
X101782666Y-98108619D01*
X101782666Y-98108619D02*
X101925523Y-98156238D01*
X101925523Y-98156238D02*
X101973142Y-98203857D01*
X102877904Y-98108619D02*
X102401714Y-98108619D01*
X102401714Y-98108619D02*
X102354095Y-98584809D01*
X102354095Y-98584809D02*
X102401714Y-98537190D01*
X102401714Y-98537190D02*
X102496952Y-98489571D01*
X102496952Y-98489571D02*
X102735047Y-98489571D01*
X102735047Y-98489571D02*
X102830285Y-98537190D01*
X102830285Y-98537190D02*
X102877904Y-98584809D01*
X102877904Y-98584809D02*
X102925523Y-98680047D01*
X102925523Y-98680047D02*
X102925523Y-98918142D01*
X102925523Y-98918142D02*
X102877904Y-99013380D01*
X102877904Y-99013380D02*
X102830285Y-99061000D01*
X102830285Y-99061000D02*
X102735047Y-99108619D01*
X102735047Y-99108619D02*
X102496952Y-99108619D01*
X102496952Y-99108619D02*
X102401714Y-99061000D01*
X102401714Y-99061000D02*
X102354095Y-99013380D01*
X103401714Y-99108619D02*
X103592190Y-99108619D01*
X103592190Y-99108619D02*
X103687428Y-99061000D01*
X103687428Y-99061000D02*
X103735047Y-99013380D01*
X103735047Y-99013380D02*
X103830285Y-98870523D01*
X103830285Y-98870523D02*
X103877904Y-98680047D01*
X103877904Y-98680047D02*
X103877904Y-98299095D01*
X103877904Y-98299095D02*
X103830285Y-98203857D01*
X103830285Y-98203857D02*
X103782666Y-98156238D01*
X103782666Y-98156238D02*
X103687428Y-98108619D01*
X103687428Y-98108619D02*
X103496952Y-98108619D01*
X103496952Y-98108619D02*
X103401714Y-98156238D01*
X103401714Y-98156238D02*
X103354095Y-98203857D01*
X103354095Y-98203857D02*
X103306476Y-98299095D01*
X103306476Y-98299095D02*
X103306476Y-98537190D01*
X103306476Y-98537190D02*
X103354095Y-98632428D01*
X103354095Y-98632428D02*
X103401714Y-98680047D01*
X103401714Y-98680047D02*
X103496952Y-98727666D01*
X103496952Y-98727666D02*
X103687428Y-98727666D01*
X103687428Y-98727666D02*
X103782666Y-98680047D01*
X103782666Y-98680047D02*
X103830285Y-98632428D01*
X103830285Y-98632428D02*
X103877904Y-98537190D01*
X113238619Y-30868857D02*
X112762428Y-31202190D01*
X113238619Y-31440285D02*
X112238619Y-31440285D01*
X112238619Y-31440285D02*
X112238619Y-31059333D01*
X112238619Y-31059333D02*
X112286238Y-30964095D01*
X112286238Y-30964095D02*
X112333857Y-30916476D01*
X112333857Y-30916476D02*
X112429095Y-30868857D01*
X112429095Y-30868857D02*
X112571952Y-30868857D01*
X112571952Y-30868857D02*
X112667190Y-30916476D01*
X112667190Y-30916476D02*
X112714809Y-30964095D01*
X112714809Y-30964095D02*
X112762428Y-31059333D01*
X112762428Y-31059333D02*
X112762428Y-31440285D01*
X113238619Y-29916476D02*
X113238619Y-30487904D01*
X113238619Y-30202190D02*
X112238619Y-30202190D01*
X112238619Y-30202190D02*
X112381476Y-30297428D01*
X112381476Y-30297428D02*
X112476714Y-30392666D01*
X112476714Y-30392666D02*
X112524333Y-30487904D01*
X112238619Y-29059333D02*
X112238619Y-29249809D01*
X112238619Y-29249809D02*
X112286238Y-29345047D01*
X112286238Y-29345047D02*
X112333857Y-29392666D01*
X112333857Y-29392666D02*
X112476714Y-29487904D01*
X112476714Y-29487904D02*
X112667190Y-29535523D01*
X112667190Y-29535523D02*
X113048142Y-29535523D01*
X113048142Y-29535523D02*
X113143380Y-29487904D01*
X113143380Y-29487904D02*
X113191000Y-29440285D01*
X113191000Y-29440285D02*
X113238619Y-29345047D01*
X113238619Y-29345047D02*
X113238619Y-29154571D01*
X113238619Y-29154571D02*
X113191000Y-29059333D01*
X113191000Y-29059333D02*
X113143380Y-29011714D01*
X113143380Y-29011714D02*
X113048142Y-28964095D01*
X113048142Y-28964095D02*
X112810047Y-28964095D01*
X112810047Y-28964095D02*
X112714809Y-29011714D01*
X112714809Y-29011714D02*
X112667190Y-29059333D01*
X112667190Y-29059333D02*
X112619571Y-29154571D01*
X112619571Y-29154571D02*
X112619571Y-29345047D01*
X112619571Y-29345047D02*
X112667190Y-29440285D01*
X112667190Y-29440285D02*
X112714809Y-29487904D01*
X112714809Y-29487904D02*
X112810047Y-29535523D01*
D11*
X78880580Y-70614000D02*
X78599420Y-70614000D01*
X78880580Y-69594000D02*
X78599420Y-69594000D01*
X97806742Y-34529500D02*
X98281258Y-34529500D01*
X97806742Y-35574500D02*
X98281258Y-35574500D01*
D10*
X73470000Y-150940000D02*
X81470000Y-150940000D01*
X73470000Y-158940000D02*
X73470000Y-150940000D01*
X81470000Y-150940000D02*
X81470000Y-158940000D01*
X81470000Y-158940000D02*
X73470000Y-158940000D01*
D11*
X118731420Y-72642000D02*
X119012580Y-72642000D01*
X118731420Y-73662000D02*
X119012580Y-73662000D01*
X118610748Y-55145000D02*
X119133252Y-55145000D01*
X118610748Y-56615000D02*
X119133252Y-56615000D01*
X118731420Y-53338000D02*
X119012580Y-53338000D01*
X118731420Y-54358000D02*
X119012580Y-54358000D01*
X118731420Y-59942000D02*
X119012580Y-59942000D01*
X118731420Y-60962000D02*
X119012580Y-60962000D01*
D10*
X50610000Y-150940000D02*
X58610000Y-150940000D01*
X50610000Y-158940000D02*
X50610000Y-150940000D01*
X58610000Y-150940000D02*
X58610000Y-158940000D01*
X58610000Y-158940000D02*
X50610000Y-158940000D01*
X62040000Y-139510000D02*
X70040000Y-139510000D01*
X62040000Y-147510000D02*
X62040000Y-139510000D01*
X70040000Y-139510000D02*
X70040000Y-147510000D01*
X70040000Y-147510000D02*
X62040000Y-147510000D01*
D11*
X78967000Y-66286748D02*
X78967000Y-66809252D01*
X77497000Y-66286748D02*
X77497000Y-66809252D01*
X85337487Y-136564544D02*
X85804178Y-136097853D01*
X85337487Y-136564544D02*
X83230309Y-134457365D01*
X86963833Y-134796777D02*
X84913223Y-132746167D01*
X109730000Y-86727420D02*
X109730000Y-87008580D01*
X108710000Y-86727420D02*
X108710000Y-87008580D01*
X78372580Y-57406000D02*
X78091420Y-57406000D01*
X78372580Y-56386000D02*
X78091420Y-56386000D01*
X128383420Y-25398000D02*
X128664580Y-25398000D01*
X128383420Y-26418000D02*
X128664580Y-26418000D01*
X56399820Y-84600800D02*
X56680980Y-84600800D01*
X56399820Y-85620800D02*
X56680980Y-85620800D01*
X89647500Y-45957258D02*
X89647500Y-45482742D01*
X90692500Y-45957258D02*
X90692500Y-45482742D01*
X120590000Y-147260000D02*
X121920000Y-147260000D01*
X120590000Y-148590000D02*
X120590000Y-147260000D01*
X120590000Y-149860000D02*
X120590000Y-149920000D01*
X120590000Y-149860000D02*
X123250000Y-149860000D01*
X120590000Y-149920000D02*
X123250000Y-149920000D01*
X123250000Y-149860000D02*
X123250000Y-149920000D01*
X118731420Y-65022000D02*
X119012580Y-65022000D01*
X118731420Y-66042000D02*
X119012580Y-66042000D01*
X118731420Y-74166000D02*
X119012580Y-74166000D01*
X118731420Y-75186000D02*
X119012580Y-75186000D01*
X116334000Y-26783420D02*
X116334000Y-27064580D01*
X115314000Y-26783420D02*
X115314000Y-27064580D01*
X96522000Y-86727420D02*
X96522000Y-87008580D01*
X95502000Y-86727420D02*
X95502000Y-87008580D01*
X64854858Y-96026500D02*
X64380342Y-96026500D01*
X64854858Y-94981500D02*
X64380342Y-94981500D01*
X77497000Y-62745252D02*
X77497000Y-62222748D01*
X78967000Y-62745252D02*
X78967000Y-62222748D01*
X113777500Y-27161258D02*
X113777500Y-26686742D01*
X114822500Y-27161258D02*
X114822500Y-26686742D01*
X100074000Y-46876580D02*
X100074000Y-46595420D01*
X101094000Y-46876580D02*
X101094000Y-46595420D01*
X118857500Y-27161258D02*
X118857500Y-26686742D01*
X119902500Y-27161258D02*
X119902500Y-26686742D01*
X73292580Y-70614000D02*
X73011420Y-70614000D01*
X73292580Y-69594000D02*
X73011420Y-69594000D01*
D10*
X136970000Y-125540000D02*
X144970000Y-125540000D01*
X136970000Y-133540000D02*
X136970000Y-125540000D01*
X144970000Y-125540000D02*
X144970000Y-133540000D01*
X144970000Y-133540000D02*
X136970000Y-133540000D01*
D11*
X105891000Y-86606748D02*
X105891000Y-87129252D01*
X104421000Y-86606748D02*
X104421000Y-87129252D01*
D10*
X86170000Y-125540000D02*
X94170000Y-125540000D01*
X86170000Y-133540000D02*
X86170000Y-125540000D01*
X94170000Y-125540000D02*
X94170000Y-133540000D01*
X94170000Y-133540000D02*
X86170000Y-133540000D01*
D11*
X85342000Y-46876580D02*
X85342000Y-46595420D01*
X86362000Y-46876580D02*
X86362000Y-46595420D01*
X128286742Y-27925500D02*
X128761258Y-27925500D01*
X128286742Y-28970500D02*
X128761258Y-28970500D01*
X69228580Y-74678000D02*
X68947420Y-74678000D01*
X69228580Y-73658000D02*
X68947420Y-73658000D01*
D10*
X62040000Y-162370000D02*
X70040000Y-162370000D01*
X62040000Y-170370000D02*
X62040000Y-162370000D01*
X70040000Y-162370000D02*
X70040000Y-170370000D01*
X70040000Y-170370000D02*
X62040000Y-170370000D01*
D11*
X79518742Y-49261500D02*
X79993258Y-49261500D01*
X79518742Y-50306500D02*
X79993258Y-50306500D01*
D10*
X125540000Y-114110000D02*
X133540000Y-114110000D01*
X125540000Y-122110000D02*
X125540000Y-114110000D01*
X133540000Y-114110000D02*
X133540000Y-122110000D01*
X133540000Y-122110000D02*
X125540000Y-122110000D01*
D11*
X52335820Y-84660800D02*
X52616980Y-84660800D01*
X52335820Y-85680800D02*
X52616980Y-85680800D01*
X52239142Y-87636300D02*
X52713658Y-87636300D01*
X52239142Y-88681300D02*
X52713658Y-88681300D01*
X56303142Y-87666300D02*
X56777658Y-87666300D01*
X56303142Y-88711300D02*
X56777658Y-88711300D01*
X75025000Y-74600000D02*
X75025000Y-71450000D01*
X75025000Y-71450000D02*
X71025000Y-71450000D01*
X78880580Y-76202000D02*
X78599420Y-76202000D01*
X78880580Y-75182000D02*
X78599420Y-75182000D01*
X100836000Y-95898580D02*
X100836000Y-95617420D01*
X101856000Y-95898580D02*
X101856000Y-95617420D01*
D10*
X125540000Y-136970000D02*
X133540000Y-136970000D01*
X125540000Y-144970000D02*
X125540000Y-136970000D01*
X133540000Y-136970000D02*
X133540000Y-144970000D01*
X133540000Y-144970000D02*
X125540000Y-144970000D01*
D11*
X52239142Y-90684300D02*
X52713658Y-90684300D01*
X52239142Y-91729300D02*
X52713658Y-91729300D01*
X93305456Y-134867487D02*
X93772147Y-135334178D01*
X93305456Y-134867487D02*
X95412635Y-132760309D01*
X95073223Y-136493833D02*
X97123833Y-134443223D01*
X96815000Y-99785000D02*
X96815000Y-99610000D01*
X97490000Y-97065000D02*
X96815000Y-97065000D01*
X97490000Y-99785000D02*
X96815000Y-99785000D01*
X99360000Y-97065000D02*
X100035000Y-97065000D01*
X99360000Y-99785000D02*
X100035000Y-99785000D01*
X100035000Y-97065000D02*
X100035000Y-97240000D01*
X100035000Y-99785000D02*
X100035000Y-99610000D01*
X90692500Y-42079142D02*
X90692500Y-42553658D01*
X89647500Y-42079142D02*
X89647500Y-42553658D01*
X87378000Y-86727420D02*
X87378000Y-87008580D01*
X86358000Y-86727420D02*
X86358000Y-87008580D01*
X107415000Y-27170748D02*
X107415000Y-27693252D01*
X105945000Y-27170748D02*
X105945000Y-27693252D01*
X117333500Y-27161258D02*
X117333500Y-26686742D01*
X118378500Y-27161258D02*
X118378500Y-26686742D01*
X109218000Y-46876580D02*
X109218000Y-46595420D01*
X110238000Y-46876580D02*
X110238000Y-46595420D01*
X58490000Y-124830400D02*
X59090000Y-124830400D01*
X58790000Y-125130400D02*
X58490000Y-124830400D01*
X59090000Y-124830400D02*
X58790000Y-125130400D01*
X60190000Y-123030400D02*
X60190000Y-134830400D01*
X64290000Y-123030400D02*
X60190000Y-123030400D01*
X64290000Y-134830400D02*
X60190000Y-134830400D01*
X65790000Y-128930400D02*
X66790000Y-128930400D01*
X66290000Y-128430400D02*
X66290000Y-129430400D01*
X68290000Y-123030400D02*
X72390000Y-123030400D01*
X72390000Y-123030400D02*
X72390000Y-125430400D01*
X72390000Y-127630400D02*
X72390000Y-130230400D01*
X72390000Y-132430400D02*
X72390000Y-134830400D01*
X72390000Y-134830400D02*
X68290000Y-134830400D01*
X69290000Y-128930400D02*
G75*
G03*
X69290000Y-128930400I-3000000J0D01*
G01*
X56303142Y-90176300D02*
X56777658Y-90176300D01*
X56303142Y-91221300D02*
X56777658Y-91221300D01*
X99570000Y-86727420D02*
X99570000Y-87008580D01*
X98550000Y-86727420D02*
X98550000Y-87008580D01*
X118731420Y-77214000D02*
X119012580Y-77214000D01*
X118731420Y-78234000D02*
X119012580Y-78234000D01*
X70244580Y-57914000D02*
X69963420Y-57914000D01*
X70244580Y-56894000D02*
X69963420Y-56894000D01*
D10*
X114110000Y-125540000D02*
X122110000Y-125540000D01*
X114110000Y-133540000D02*
X114110000Y-125540000D01*
X122110000Y-125540000D02*
X122110000Y-133540000D01*
X122110000Y-133540000D02*
X114110000Y-133540000D01*
D11*
X78880580Y-78742000D02*
X78599420Y-78742000D01*
X78880580Y-77722000D02*
X78599420Y-77722000D01*
X120889500Y-27161258D02*
X120889500Y-26686742D01*
X121934500Y-27161258D02*
X121934500Y-26686742D01*
X45660000Y-145990000D02*
X46990000Y-145990000D01*
X45660000Y-147320000D02*
X45660000Y-145990000D01*
X45660000Y-148590000D02*
X45660000Y-148650000D01*
X45660000Y-148590000D02*
X48320000Y-148590000D01*
X45660000Y-148650000D02*
X48320000Y-148650000D01*
X48320000Y-148590000D02*
X48320000Y-148650000D01*
X63488180Y-102618000D02*
X63207020Y-102618000D01*
X63488180Y-101598000D02*
X63207020Y-101598000D01*
X84315000Y-52565000D02*
X84315000Y-53515000D01*
X84315000Y-53515000D02*
X83000000Y-53515000D01*
X84315000Y-80785000D02*
X84315000Y-79835000D01*
X85265000Y-52565000D02*
X84315000Y-52565000D01*
X85265000Y-80785000D02*
X84315000Y-80785000D01*
X111585000Y-52565000D02*
X112535000Y-52565000D01*
X111585000Y-80785000D02*
X112535000Y-80785000D01*
X112535000Y-52565000D02*
X112535000Y-53515000D01*
X112535000Y-80785000D02*
X112535000Y-79835000D01*
X50432580Y-67686000D02*
X50151420Y-67686000D01*
X50432580Y-66666000D02*
X50151420Y-66666000D01*
X73921252Y-78967000D02*
X73398748Y-78967000D01*
X73921252Y-77497000D02*
X73398748Y-77497000D01*
X118731420Y-61466000D02*
X119012580Y-61466000D01*
X118731420Y-62486000D02*
X119012580Y-62486000D01*
X96010000Y-46876580D02*
X96010000Y-46595420D01*
X97030000Y-46876580D02*
X97030000Y-46595420D01*
X50054742Y-68362300D02*
X50529258Y-68362300D01*
X50054742Y-69407300D02*
X50529258Y-69407300D01*
X102475420Y-99566000D02*
X102756580Y-99566000D01*
X102475420Y-100586000D02*
X102756580Y-100586000D01*
X112253500Y-27161258D02*
X112253500Y-26686742D01*
X113298500Y-27161258D02*
X113298500Y-26686742D01*
%LPC*%
X73406000Y-150876000D02*
X81534000Y-150876000D01*
X81534000Y-150876000D02*
X81534000Y-159004000D01*
X81534000Y-159004000D02*
X73406000Y-159004000D01*
X73406000Y-159004000D02*
X73406000Y-150876000D01*
G36*
X73406000Y-150876000D02*
G01*
X81534000Y-150876000D01*
X81534000Y-159004000D01*
X73406000Y-159004000D01*
X73406000Y-150876000D01*
G37*
X50546000Y-150876000D02*
X58674000Y-150876000D01*
X58674000Y-150876000D02*
X58674000Y-159004000D01*
X58674000Y-159004000D02*
X50546000Y-159004000D01*
X50546000Y-159004000D02*
X50546000Y-150876000D01*
G36*
X50546000Y-150876000D02*
G01*
X58674000Y-150876000D01*
X58674000Y-159004000D01*
X50546000Y-159004000D01*
X50546000Y-150876000D01*
G37*
X61976000Y-139446000D02*
X70104000Y-139446000D01*
X70104000Y-139446000D02*
X70104000Y-147574000D01*
X70104000Y-147574000D02*
X61976000Y-147574000D01*
X61976000Y-147574000D02*
X61976000Y-139446000D01*
G36*
X61976000Y-139446000D02*
G01*
X70104000Y-139446000D01*
X70104000Y-147574000D01*
X61976000Y-147574000D01*
X61976000Y-139446000D01*
G37*
X136906000Y-125476000D02*
X145034000Y-125476000D01*
X145034000Y-125476000D02*
X145034000Y-133604000D01*
X145034000Y-133604000D02*
X136906000Y-133604000D01*
X136906000Y-133604000D02*
X136906000Y-125476000D01*
G36*
X136906000Y-125476000D02*
G01*
X145034000Y-125476000D01*
X145034000Y-133604000D01*
X136906000Y-133604000D01*
X136906000Y-125476000D01*
G37*
X86106000Y-125476000D02*
X94234000Y-125476000D01*
X94234000Y-125476000D02*
X94234000Y-133604000D01*
X94234000Y-133604000D02*
X86106000Y-133604000D01*
X86106000Y-133604000D02*
X86106000Y-125476000D01*
G36*
X86106000Y-125476000D02*
G01*
X94234000Y-125476000D01*
X94234000Y-133604000D01*
X86106000Y-133604000D01*
X86106000Y-125476000D01*
G37*
X61976000Y-162306000D02*
X70104000Y-162306000D01*
X70104000Y-162306000D02*
X70104000Y-170434000D01*
X70104000Y-170434000D02*
X61976000Y-170434000D01*
X61976000Y-170434000D02*
X61976000Y-162306000D01*
G36*
X61976000Y-162306000D02*
G01*
X70104000Y-162306000D01*
X70104000Y-170434000D01*
X61976000Y-170434000D01*
X61976000Y-162306000D01*
G37*
X125476000Y-114046000D02*
X133604000Y-114046000D01*
X133604000Y-114046000D02*
X133604000Y-122174000D01*
X133604000Y-122174000D02*
X125476000Y-122174000D01*
X125476000Y-122174000D02*
X125476000Y-114046000D01*
G36*
X125476000Y-114046000D02*
G01*
X133604000Y-114046000D01*
X133604000Y-122174000D01*
X125476000Y-122174000D01*
X125476000Y-114046000D01*
G37*
X125476000Y-136906000D02*
X133604000Y-136906000D01*
X133604000Y-136906000D02*
X133604000Y-145034000D01*
X133604000Y-145034000D02*
X125476000Y-145034000D01*
X125476000Y-145034000D02*
X125476000Y-136906000D01*
G36*
X125476000Y-136906000D02*
G01*
X133604000Y-136906000D01*
X133604000Y-145034000D01*
X125476000Y-145034000D01*
X125476000Y-136906000D01*
G37*
X114046000Y-125476000D02*
X122174000Y-125476000D01*
X122174000Y-125476000D02*
X122174000Y-133604000D01*
X122174000Y-133604000D02*
X114046000Y-133604000D01*
X114046000Y-133604000D02*
X114046000Y-125476000D01*
G36*
X114046000Y-125476000D02*
G01*
X122174000Y-125476000D01*
X122174000Y-133604000D01*
X114046000Y-133604000D01*
X114046000Y-125476000D01*
G37*
D12*
X79515000Y-70104000D03*
X77965000Y-70104000D03*
D13*
X97219000Y-35052000D03*
X98869000Y-35052000D03*
D14*
X118097000Y-73152000D03*
X119647000Y-73152000D03*
D15*
X117922000Y-55880000D03*
X119822000Y-55880000D03*
D16*
X66040000Y-154940000D03*
D14*
X118097000Y-53848000D03*
X119647000Y-53848000D03*
X118097000Y-60452000D03*
X119647000Y-60452000D03*
D17*
X78232000Y-65598000D03*
X78232000Y-67498000D03*
D18*
X85302132Y-135680660D03*
X86150660Y-134832132D03*
X84877868Y-133559340D03*
X84029340Y-134407868D03*
D19*
X109220000Y-86093000D03*
X109220000Y-87643000D03*
D12*
X79007000Y-56896000D03*
X77457000Y-56896000D03*
D14*
X127749000Y-25908000D03*
X129299000Y-25908000D03*
X55765400Y-85110800D03*
X57315400Y-85110800D03*
D20*
X90170000Y-46545000D03*
X90170000Y-44895000D03*
D21*
X121920000Y-148590000D03*
D14*
X118097000Y-65532000D03*
X119647000Y-65532000D03*
X118097000Y-74676000D03*
X119647000Y-74676000D03*
D19*
X115824000Y-26149000D03*
X115824000Y-27699000D03*
X96012000Y-86093000D03*
X96012000Y-87643000D03*
D22*
X65442600Y-95504000D03*
X63792600Y-95504000D03*
D16*
X136525000Y-31750000D03*
D23*
X78232000Y-63434000D03*
X78232000Y-61534000D03*
D20*
X114300000Y-27749000D03*
X114300000Y-26099000D03*
D24*
X100584000Y-47511000D03*
X100584000Y-45961000D03*
D20*
X119380000Y-27749000D03*
X119380000Y-26099000D03*
D12*
X73927000Y-70104000D03*
X72377000Y-70104000D03*
D17*
X105156000Y-85918000D03*
X105156000Y-87818000D03*
D24*
X85852000Y-47511000D03*
X85852000Y-45961000D03*
D13*
X127699000Y-28448000D03*
X129349000Y-28448000D03*
D12*
X69863000Y-74168000D03*
X68313000Y-74168000D03*
D13*
X78931000Y-49784000D03*
X80581000Y-49784000D03*
D14*
X51701400Y-85170800D03*
X53251400Y-85170800D03*
D13*
X51651400Y-88158800D03*
X53301400Y-88158800D03*
X55715400Y-88188800D03*
X57365400Y-88188800D03*
D25*
X74125000Y-72225000D03*
X71925000Y-72225000D03*
X71925000Y-73825000D03*
X74125000Y-73825000D03*
D12*
X79515000Y-75692000D03*
X77965000Y-75692000D03*
D24*
X101346000Y-96533000D03*
X101346000Y-94983000D03*
D13*
X51651400Y-91206800D03*
X53301400Y-91206800D03*
D26*
X94189340Y-134832132D03*
X95037868Y-135680660D03*
X96310660Y-134407868D03*
X95462132Y-133559340D03*
D27*
X97262500Y-97675000D03*
X97262500Y-98175000D03*
X97262500Y-98675000D03*
X97262500Y-99175000D03*
D28*
X97925000Y-99337500D03*
X98425000Y-99337500D03*
X98925000Y-99337500D03*
D27*
X99587500Y-99175000D03*
X99587500Y-98675000D03*
X99587500Y-98175000D03*
X99587500Y-97675000D03*
D28*
X98925000Y-97512500D03*
X98425000Y-97512500D03*
X97925000Y-97512500D03*
D29*
X90170000Y-41491400D03*
X90170000Y-43141400D03*
D19*
X86868000Y-86093000D03*
X86868000Y-87643000D03*
D17*
X106680000Y-26482000D03*
X106680000Y-28382000D03*
D16*
X129540000Y-129540000D03*
D20*
X117856000Y-27749000D03*
X117856000Y-26099000D03*
D24*
X109728000Y-47511000D03*
X109728000Y-45961000D03*
D30*
X58790000Y-126430400D03*
D31*
X58790000Y-131430400D03*
X58790000Y-128930400D03*
D32*
X66290000Y-123330400D03*
X66290000Y-134530400D03*
D31*
X73290000Y-131430400D03*
X73290000Y-126430400D03*
D13*
X55715400Y-90698800D03*
X57365400Y-90698800D03*
D19*
X99060000Y-86093000D03*
X99060000Y-87643000D03*
D14*
X118097000Y-77724000D03*
X119647000Y-77724000D03*
D12*
X70879000Y-57404000D03*
X69329000Y-57404000D03*
X79515000Y-78232000D03*
X77965000Y-78232000D03*
D20*
X121412000Y-27749000D03*
X121412000Y-26099000D03*
D21*
X46990000Y-147320000D03*
D16*
X50800000Y-41275000D03*
D12*
X64122600Y-102108000D03*
X62572600Y-102108000D03*
D33*
X83750000Y-53925000D03*
X83750000Y-54425000D03*
X83750000Y-54925000D03*
X83750000Y-55425000D03*
X83750000Y-55925000D03*
X83750000Y-56425000D03*
X83750000Y-56925000D03*
X83750000Y-57425000D03*
X83750000Y-57925000D03*
X83750000Y-58425000D03*
X83750000Y-58925000D03*
X83750000Y-59425000D03*
X83750000Y-59925000D03*
X83750000Y-60425000D03*
X83750000Y-60925000D03*
X83750000Y-61425000D03*
X83750000Y-61925000D03*
X83750000Y-62425000D03*
X83750000Y-62925000D03*
X83750000Y-63425000D03*
X83750000Y-63925000D03*
X83750000Y-64425000D03*
X83750000Y-64925000D03*
X83750000Y-65425000D03*
X83750000Y-65925000D03*
X83750000Y-66425000D03*
X83750000Y-66925000D03*
X83750000Y-67425000D03*
X83750000Y-67925000D03*
X83750000Y-68425000D03*
X83750000Y-68925000D03*
X83750000Y-69425000D03*
X83750000Y-69925000D03*
X83750000Y-70425000D03*
X83750000Y-70925000D03*
X83750000Y-71425000D03*
X83750000Y-71925000D03*
X83750000Y-72425000D03*
X83750000Y-72925000D03*
X83750000Y-73425000D03*
X83750000Y-73925000D03*
X83750000Y-74425000D03*
X83750000Y-74925000D03*
X83750000Y-75425000D03*
X83750000Y-75925000D03*
X83750000Y-76425000D03*
X83750000Y-76925000D03*
X83750000Y-77425000D03*
X83750000Y-77925000D03*
X83750000Y-78425000D03*
X83750000Y-78925000D03*
X83750000Y-79425000D03*
D34*
X85675000Y-81350000D03*
X86175000Y-81350000D03*
X86675000Y-81350000D03*
X87175000Y-81350000D03*
X87675000Y-81350000D03*
X88175000Y-81350000D03*
X88675000Y-81350000D03*
X89175000Y-81350000D03*
X89675000Y-81350000D03*
X90175000Y-81350000D03*
X90675000Y-81350000D03*
X91175000Y-81350000D03*
X91675000Y-81350000D03*
X92175000Y-81350000D03*
X92675000Y-81350000D03*
X93175000Y-81350000D03*
X93675000Y-81350000D03*
X94175000Y-81350000D03*
X94675000Y-81350000D03*
X95175000Y-81350000D03*
X95675000Y-81350000D03*
X96175000Y-81350000D03*
X96675000Y-81350000D03*
X97175000Y-81350000D03*
X97675000Y-81350000D03*
X98175000Y-81350000D03*
X98675000Y-81350000D03*
X99175000Y-81350000D03*
X99675000Y-81350000D03*
X100175000Y-81350000D03*
X100675000Y-81350000D03*
X101175000Y-81350000D03*
X101675000Y-81350000D03*
X102175000Y-81350000D03*
X102675000Y-81350000D03*
X103175000Y-81350000D03*
X103675000Y-81350000D03*
X104175000Y-81350000D03*
X104675000Y-81350000D03*
X105175000Y-81350000D03*
X105675000Y-81350000D03*
X106175000Y-81350000D03*
X106675000Y-81350000D03*
X107175000Y-81350000D03*
X107675000Y-81350000D03*
X108175000Y-81350000D03*
X108675000Y-81350000D03*
X109175000Y-81350000D03*
X109675000Y-81350000D03*
X110175000Y-81350000D03*
X110675000Y-81350000D03*
X111175000Y-81350000D03*
D33*
X113100000Y-79425000D03*
X113100000Y-78925000D03*
X113100000Y-78425000D03*
X113100000Y-77925000D03*
X113100000Y-77425000D03*
X113100000Y-76925000D03*
X113100000Y-76425000D03*
X113100000Y-75925000D03*
X113100000Y-75425000D03*
X113100000Y-74925000D03*
X113100000Y-74425000D03*
X113100000Y-73925000D03*
X113100000Y-73425000D03*
X113100000Y-72925000D03*
X113100000Y-72425000D03*
X113100000Y-71925000D03*
X113100000Y-71425000D03*
X113100000Y-70925000D03*
X113100000Y-70425000D03*
X113100000Y-69925000D03*
X113100000Y-69425000D03*
X113100000Y-68925000D03*
X113100000Y-68425000D03*
X113100000Y-67925000D03*
X113100000Y-67425000D03*
X113100000Y-66925000D03*
X113100000Y-66425000D03*
X113100000Y-65925000D03*
X113100000Y-65425000D03*
X113100000Y-64925000D03*
X113100000Y-64425000D03*
X113100000Y-63925000D03*
X113100000Y-63425000D03*
X113100000Y-62925000D03*
X113100000Y-62425000D03*
X113100000Y-61925000D03*
X113100000Y-61425000D03*
X113100000Y-60925000D03*
X113100000Y-60425000D03*
X113100000Y-59925000D03*
X113100000Y-59425000D03*
X113100000Y-58925000D03*
X113100000Y-58425000D03*
X113100000Y-57925000D03*
X113100000Y-57425000D03*
X113100000Y-56925000D03*
X113100000Y-56425000D03*
X113100000Y-55925000D03*
X113100000Y-55425000D03*
X113100000Y-54925000D03*
X113100000Y-54425000D03*
X113100000Y-53925000D03*
D34*
X111175000Y-52000000D03*
X110675000Y-52000000D03*
X110175000Y-52000000D03*
X109675000Y-52000000D03*
X109175000Y-52000000D03*
X108675000Y-52000000D03*
X108175000Y-52000000D03*
X107675000Y-52000000D03*
X107175000Y-52000000D03*
X106675000Y-52000000D03*
X106175000Y-52000000D03*
X105675000Y-52000000D03*
X105175000Y-52000000D03*
X104675000Y-52000000D03*
X104175000Y-52000000D03*
X103675000Y-52000000D03*
X103175000Y-52000000D03*
X102675000Y-52000000D03*
X102175000Y-52000000D03*
X101675000Y-52000000D03*
X101175000Y-52000000D03*
X100675000Y-52000000D03*
X100175000Y-52000000D03*
X99675000Y-52000000D03*
X99175000Y-52000000D03*
X98675000Y-52000000D03*
X98175000Y-52000000D03*
X97675000Y-52000000D03*
X97175000Y-52000000D03*
X96675000Y-52000000D03*
X96175000Y-52000000D03*
X95675000Y-52000000D03*
X95175000Y-52000000D03*
X94675000Y-52000000D03*
X94175000Y-52000000D03*
X93675000Y-52000000D03*
X93175000Y-52000000D03*
X92675000Y-52000000D03*
X92175000Y-52000000D03*
X91675000Y-52000000D03*
X91175000Y-52000000D03*
X90675000Y-52000000D03*
X90175000Y-52000000D03*
X89675000Y-52000000D03*
X89175000Y-52000000D03*
X88675000Y-52000000D03*
X88175000Y-52000000D03*
X87675000Y-52000000D03*
X87175000Y-52000000D03*
X86675000Y-52000000D03*
X86175000Y-52000000D03*
X85675000Y-52000000D03*
D12*
X51067000Y-67176000D03*
X49517000Y-67176000D03*
D35*
X74610000Y-78232000D03*
X72710000Y-78232000D03*
D14*
X118097000Y-61976000D03*
X119647000Y-61976000D03*
D24*
X96520000Y-47511000D03*
X96520000Y-45961000D03*
D13*
X49467000Y-68884800D03*
X51117000Y-68884800D03*
D14*
X101841000Y-100076000D03*
X103391000Y-100076000D03*
D20*
X112776000Y-27749000D03*
X112776000Y-26099000D03*
D36*
X146725000Y-58400000D03*
X146725000Y-51400000D03*
D37*
X149225000Y-57150000D03*
X149225000Y-52650000D03*
D38*
X85725000Y-34925000D03*
D39*
X93345000Y-34925000D03*
D40*
X52898200Y-51436800D03*
D41*
X51648200Y-51436800D03*
D42*
X101315000Y-172025000D03*
X95535000Y-172025000D03*
D43*
X102745000Y-175675000D03*
D44*
X102745000Y-171495000D03*
D43*
X94105000Y-175675000D03*
D44*
X94105000Y-171495000D03*
D36*
X146725000Y-42525000D03*
X146725000Y-35525000D03*
D37*
X149225000Y-41275000D03*
X149225000Y-36775000D03*
D38*
X82356887Y-28956000D03*
D45*
X84356887Y-28956000D03*
D38*
X77155113Y-29972000D03*
D45*
X75155113Y-29972000D03*
D38*
X57150000Y-66675000D03*
D39*
X57150000Y-74295000D03*
D46*
X84523500Y-168244000D03*
D47*
X84523500Y-174244000D03*
D48*
X79823500Y-171244000D03*
D36*
X144125000Y-24725000D03*
X137125000Y-24725000D03*
D37*
X142875000Y-22225000D03*
X138375000Y-22225000D03*
D38*
X77155113Y-23368000D03*
D45*
X75155113Y-23368000D03*
D49*
X52007500Y-29850000D03*
X54707500Y-28650000D03*
D50*
X57207500Y-21850000D03*
D51*
X61807500Y-25750000D03*
D50*
X61307500Y-33050000D03*
D52*
X49382000Y-169692000D03*
D53*
X49382000Y-172192000D03*
D54*
X114300000Y-168275000D03*
D55*
X112300000Y-168275000D03*
M02*
