G04 #@! TF.GenerationSoftware,KiCad,Pcbnew,7.0.1*
G04 #@! TF.CreationDate,2024-01-01T11:46:02+00:00*
G04 #@! TF.ProjectId,gk,676b2e6b-6963-4616-945f-706362585858,rev?*
G04 #@! TF.SameCoordinates,Original*
G04 #@! TF.FileFunction,Soldermask,Top*
G04 #@! TF.FilePolarity,Negative*
%FSLAX46Y46*%
G04 Gerber Fmt 4.6, Leading zero omitted, Abs format (unit mm)*
G04 Created by KiCad (PCBNEW 7.0.1) date 2024-01-01 11:46:02*
%MOMM*%
%LPD*%
G01*
G04 APERTURE LIST*
G04 Aperture macros list*
%AMRoundRect*
0 Rectangle with rounded corners*
0 $1 Rounding radius*
0 $2 $3 $4 $5 $6 $7 $8 $9 X,Y pos of 4 corners*
0 Add a 4 corners polygon primitive as box body*
4,1,4,$2,$3,$4,$5,$6,$7,$8,$9,$2,$3,0*
0 Add four circle primitives for the rounded corners*
1,1,$1+$1,$2,$3*
1,1,$1+$1,$4,$5*
1,1,$1+$1,$6,$7*
1,1,$1+$1,$8,$9*
0 Add four rect primitives between the rounded corners*
20,1,$1+$1,$2,$3,$4,$5,0*
20,1,$1+$1,$4,$5,$6,$7,0*
20,1,$1+$1,$6,$7,$8,$9,0*
20,1,$1+$1,$8,$9,$2,$3,0*%
G04 Aperture macros list end*
%ADD10C,0.010000*%
%ADD11C,0.120000*%
%ADD12R,0.300000X1.500000*%
%ADD13RoundRect,0.225000X0.225000X0.250000X-0.225000X0.250000X-0.225000X-0.250000X0.225000X-0.250000X0*%
%ADD14RoundRect,0.200000X-0.200000X-0.275000X0.200000X-0.275000X0.200000X0.275000X-0.200000X0.275000X0*%
%ADD15RoundRect,0.225000X-0.225000X-0.250000X0.225000X-0.250000X0.225000X0.250000X-0.225000X0.250000X0*%
%ADD16RoundRect,0.250000X-0.250000X-0.475000X0.250000X-0.475000X0.250000X0.475000X-0.250000X0.475000X0*%
%ADD17C,3.200000*%
%ADD18RoundRect,0.250000X-0.475000X0.250000X-0.475000X-0.250000X0.475000X-0.250000X0.475000X0.250000X0*%
%ADD19RoundRect,0.225000X-0.250000X0.225000X-0.250000X-0.225000X0.250000X-0.225000X0.250000X0.225000X0*%
%ADD20RoundRect,0.200000X0.275000X-0.200000X0.275000X0.200000X-0.275000X0.200000X-0.275000X-0.200000X0*%
%ADD21R,0.300000X1.100000*%
%ADD22R,2.300000X3.100000*%
%ADD23RoundRect,0.200000X0.200000X0.275000X-0.200000X0.275000X-0.200000X-0.275000X0.200000X-0.275000X0*%
%ADD24RoundRect,0.250000X0.475000X-0.250000X0.475000X0.250000X-0.475000X0.250000X-0.475000X-0.250000X0*%
%ADD25RoundRect,0.225000X0.250000X-0.225000X0.250000X0.225000X-0.250000X0.225000X-0.250000X-0.225000X0*%
%ADD26R,1.400000X1.150000*%
%ADD27RoundRect,0.087500X-0.225000X-0.087500X0.225000X-0.087500X0.225000X0.087500X-0.225000X0.087500X0*%
%ADD28RoundRect,0.087500X-0.087500X-0.225000X0.087500X-0.225000X0.087500X0.225000X-0.087500X0.225000X0*%
%ADD29RoundRect,0.200000X-0.275000X0.200000X-0.275000X-0.200000X0.275000X-0.200000X0.275000X0.200000X0*%
%ADD30R,2.200000X1.500000*%
%ADD31RoundRect,0.075000X-0.675000X-0.075000X0.675000X-0.075000X0.675000X0.075000X-0.675000X0.075000X0*%
%ADD32RoundRect,0.075000X-0.075000X-0.675000X0.075000X-0.675000X0.075000X0.675000X-0.075000X0.675000X0*%
%ADD33RoundRect,0.250000X0.250000X0.475000X-0.250000X0.475000X-0.250000X-0.475000X0.250000X-0.475000X0*%
%ADD34C,2.200000*%
%ADD35C,1.700000*%
%ADD36R,1.600000X1.600000*%
%ADD37O,1.600000X1.600000*%
%ADD38C,0.650000*%
%ADD39O,1.000000X1.600000*%
%ADD40O,1.000000X2.100000*%
%ADD41C,1.600000*%
%ADD42R,3.500000X3.500000*%
%ADD43RoundRect,0.750000X1.000000X-0.750000X1.000000X0.750000X-1.000000X0.750000X-1.000000X-0.750000X0*%
%ADD44RoundRect,0.875000X0.875000X-0.875000X0.875000X0.875000X-0.875000X0.875000X-0.875000X-0.875000X0*%
%ADD45RoundRect,0.200000X0.200000X0.450000X-0.200000X0.450000X-0.200000X-0.450000X0.200000X-0.450000X0*%
%ADD46O,0.800000X1.300000*%
%ADD47O,2.200000X4.000000*%
%ADD48O,4.000000X2.200000*%
%ADD49R,2.200000X4.000000*%
%ADD50RoundRect,0.250000X0.350000X0.625000X-0.350000X0.625000X-0.350000X-0.625000X0.350000X-0.625000X0*%
%ADD51O,1.200000X1.750000*%
G04 APERTURE END LIST*
D10*
X106655500Y-113540000D02*
X105855500Y-113540000D01*
X105855500Y-113890000D01*
X104355500Y-113890000D01*
X104355500Y-111740000D01*
X106655500Y-111740000D01*
X106655500Y-113540000D01*
G36*
X106655500Y-113540000D02*
G01*
X105855500Y-113540000D01*
X105855500Y-113890000D01*
X104355500Y-113890000D01*
X104355500Y-111740000D01*
X106655500Y-111740000D01*
X106655500Y-113540000D01*
G37*
X75655500Y-113890000D02*
X74155500Y-113890000D01*
X74155500Y-113540000D01*
X73355500Y-113540000D01*
X73355500Y-111740000D01*
X75655500Y-111740000D01*
X75655500Y-113890000D01*
G36*
X75655500Y-113890000D02*
G01*
X74155500Y-113890000D01*
X74155500Y-113540000D01*
X73355500Y-113540000D01*
X73355500Y-111740000D01*
X75655500Y-111740000D01*
X75655500Y-113890000D01*
G37*
D11*
X74411000Y-150643500D02*
X82539000Y-150643500D01*
X82539000Y-150643500D02*
X82539000Y-158771500D01*
X82539000Y-158771500D02*
X74411000Y-158771500D01*
X74411000Y-158771500D02*
X74411000Y-150643500D01*
G36*
X74411000Y-150643500D02*
G01*
X82539000Y-150643500D01*
X82539000Y-158771500D01*
X74411000Y-158771500D01*
X74411000Y-150643500D01*
G37*
X49011000Y-150643500D02*
X57139000Y-150643500D01*
X57139000Y-150643500D02*
X57139000Y-158771500D01*
X57139000Y-158771500D02*
X49011000Y-158771500D01*
X49011000Y-158771500D02*
X49011000Y-150643500D01*
G36*
X49011000Y-150643500D02*
G01*
X57139000Y-150643500D01*
X57139000Y-158771500D01*
X49011000Y-158771500D01*
X49011000Y-150643500D01*
G37*
X61711000Y-137943500D02*
X69839000Y-137943500D01*
X69839000Y-137943500D02*
X69839000Y-146071500D01*
X69839000Y-146071500D02*
X61711000Y-146071500D01*
X61711000Y-146071500D02*
X61711000Y-137943500D01*
G36*
X61711000Y-137943500D02*
G01*
X69839000Y-137943500D01*
X69839000Y-146071500D01*
X61711000Y-146071500D01*
X61711000Y-137943500D01*
G37*
X137911000Y-125243500D02*
X146039000Y-125243500D01*
X146039000Y-125243500D02*
X146039000Y-133371500D01*
X146039000Y-133371500D02*
X137911000Y-133371500D01*
X137911000Y-133371500D02*
X137911000Y-125243500D01*
G36*
X137911000Y-125243500D02*
G01*
X146039000Y-125243500D01*
X146039000Y-133371500D01*
X137911000Y-133371500D01*
X137911000Y-125243500D01*
G37*
X87111000Y-125243500D02*
X95239000Y-125243500D01*
X95239000Y-125243500D02*
X95239000Y-133371500D01*
X95239000Y-133371500D02*
X87111000Y-133371500D01*
X87111000Y-133371500D02*
X87111000Y-125243500D01*
G36*
X87111000Y-125243500D02*
G01*
X95239000Y-125243500D01*
X95239000Y-133371500D01*
X87111000Y-133371500D01*
X87111000Y-125243500D01*
G37*
X61711000Y-163343500D02*
X69839000Y-163343500D01*
X69839000Y-163343500D02*
X69839000Y-171471500D01*
X69839000Y-171471500D02*
X61711000Y-171471500D01*
X61711000Y-171471500D02*
X61711000Y-163343500D01*
G36*
X61711000Y-163343500D02*
G01*
X69839000Y-163343500D01*
X69839000Y-171471500D01*
X61711000Y-171471500D01*
X61711000Y-163343500D01*
G37*
X125211000Y-112543500D02*
X133339000Y-112543500D01*
X133339000Y-112543500D02*
X133339000Y-120671500D01*
X133339000Y-120671500D02*
X125211000Y-120671500D01*
X125211000Y-120671500D02*
X125211000Y-112543500D01*
G36*
X125211000Y-112543500D02*
G01*
X133339000Y-112543500D01*
X133339000Y-120671500D01*
X125211000Y-120671500D01*
X125211000Y-112543500D01*
G37*
X125211000Y-137943500D02*
X133339000Y-137943500D01*
X133339000Y-137943500D02*
X133339000Y-146071500D01*
X133339000Y-146071500D02*
X125211000Y-146071500D01*
X125211000Y-146071500D02*
X125211000Y-137943500D01*
G36*
X125211000Y-137943500D02*
G01*
X133339000Y-137943500D01*
X133339000Y-146071500D01*
X125211000Y-146071500D01*
X125211000Y-137943500D01*
G37*
X112511000Y-125243500D02*
X120639000Y-125243500D01*
X120639000Y-125243500D02*
X120639000Y-133371500D01*
X120639000Y-133371500D02*
X112511000Y-133371500D01*
X112511000Y-133371500D02*
X112511000Y-125243500D01*
G36*
X112511000Y-125243500D02*
G01*
X120639000Y-125243500D01*
X120639000Y-133371500D01*
X112511000Y-133371500D01*
X112511000Y-125243500D01*
G37*
D12*
X103255500Y-111690000D03*
X102755500Y-111690000D03*
X102255500Y-111690000D03*
X101755500Y-111690000D03*
X101255500Y-111690000D03*
X100755500Y-111690000D03*
X100255500Y-111690000D03*
X99755500Y-111690000D03*
X99255500Y-111690000D03*
X98755500Y-111690000D03*
X98255500Y-111690000D03*
X97755500Y-111690000D03*
X97255500Y-111690000D03*
X96755500Y-111690000D03*
X96255500Y-111690000D03*
X95755500Y-111690000D03*
X95255500Y-111690000D03*
X94755500Y-111690000D03*
X94255500Y-111690000D03*
X93755500Y-111690000D03*
X93255500Y-111690000D03*
X92755500Y-111690000D03*
X92255500Y-111690000D03*
X91755500Y-111690000D03*
X91255500Y-111690000D03*
X90755500Y-111690000D03*
X90255500Y-111690000D03*
X89755500Y-111690000D03*
X89255500Y-111690000D03*
X88755500Y-111690000D03*
X88255500Y-111690000D03*
X87755500Y-111690000D03*
X87255500Y-111690000D03*
X86755500Y-111690000D03*
X86255500Y-111690000D03*
X85755500Y-111690000D03*
X85255500Y-111690000D03*
X84755500Y-111690000D03*
X84255500Y-111690000D03*
X83755500Y-111690000D03*
X83255500Y-111690000D03*
X82755500Y-111690000D03*
X82255500Y-111690000D03*
X81755500Y-111690000D03*
X81255500Y-111690000D03*
X80755500Y-111690000D03*
X80255500Y-111690000D03*
X79755500Y-111690000D03*
X79255500Y-111690000D03*
X78755500Y-111690000D03*
X78255500Y-111690000D03*
X77755500Y-111690000D03*
X77255500Y-111690000D03*
X76755500Y-111690000D03*
D13*
X79515000Y-70104000D03*
X77965000Y-70104000D03*
D14*
X97219000Y-35052000D03*
X98869000Y-35052000D03*
D15*
X118097000Y-73152000D03*
X119647000Y-73152000D03*
D16*
X117922000Y-55880000D03*
X119822000Y-55880000D03*
D17*
X66675000Y-155575000D03*
D15*
X118097000Y-53848000D03*
X119647000Y-53848000D03*
X118097000Y-60452000D03*
X119647000Y-60452000D03*
D18*
X78232000Y-65598000D03*
X78232000Y-67498000D03*
D19*
X109220000Y-86093000D03*
X109220000Y-87643000D03*
D13*
X79007000Y-56896000D03*
X77457000Y-56896000D03*
D15*
X127749000Y-25908000D03*
X129299000Y-25908000D03*
X55765400Y-85110800D03*
X57315400Y-85110800D03*
D20*
X90170000Y-46545000D03*
X90170000Y-44895000D03*
D15*
X118097000Y-65532000D03*
X119647000Y-65532000D03*
X118097000Y-74676000D03*
X119647000Y-74676000D03*
D19*
X115824000Y-26149000D03*
X115824000Y-27699000D03*
D21*
X64688400Y-107757800D03*
X65188400Y-107757800D03*
X65688400Y-107757800D03*
X66188400Y-107757800D03*
X66688400Y-107757800D03*
X67188400Y-107757800D03*
D22*
X63018400Y-109457800D03*
X68858400Y-109457800D03*
D19*
X96012000Y-86093000D03*
X96012000Y-87643000D03*
D23*
X65442600Y-95504000D03*
X63792600Y-95504000D03*
D17*
X136525000Y-31750000D03*
D24*
X78232000Y-63434000D03*
X78232000Y-61534000D03*
D20*
X114300000Y-27749000D03*
X114300000Y-26099000D03*
D25*
X100584000Y-47511000D03*
X100584000Y-45961000D03*
D20*
X119380000Y-27749000D03*
X119380000Y-26099000D03*
D13*
X73927000Y-70104000D03*
X72377000Y-70104000D03*
D18*
X105156000Y-85918000D03*
X105156000Y-87818000D03*
D25*
X85852000Y-47511000D03*
X85852000Y-45961000D03*
D14*
X127699000Y-28448000D03*
X129349000Y-28448000D03*
D13*
X69863000Y-74168000D03*
X68313000Y-74168000D03*
D14*
X78931000Y-49784000D03*
X80581000Y-49784000D03*
D15*
X51701400Y-85170800D03*
X53251400Y-85170800D03*
D14*
X51651400Y-88158800D03*
X53301400Y-88158800D03*
X55715400Y-88188800D03*
X57365400Y-88188800D03*
D26*
X74125000Y-72225000D03*
X71925000Y-72225000D03*
X71925000Y-73825000D03*
X74125000Y-73825000D03*
D13*
X79515000Y-75692000D03*
X77965000Y-75692000D03*
D25*
X101346000Y-96533000D03*
X101346000Y-94983000D03*
D14*
X51651400Y-91206800D03*
X53301400Y-91206800D03*
D27*
X97262500Y-97675000D03*
X97262500Y-98175000D03*
X97262500Y-98675000D03*
X97262500Y-99175000D03*
D28*
X97925000Y-99337500D03*
X98425000Y-99337500D03*
X98925000Y-99337500D03*
D27*
X99587500Y-99175000D03*
X99587500Y-98675000D03*
X99587500Y-98175000D03*
X99587500Y-97675000D03*
D28*
X98925000Y-97512500D03*
X98425000Y-97512500D03*
X97925000Y-97512500D03*
D29*
X90170000Y-41491400D03*
X90170000Y-43141400D03*
D19*
X86868000Y-86093000D03*
X86868000Y-87643000D03*
D18*
X106680000Y-26482000D03*
X106680000Y-28382000D03*
D17*
X130175000Y-130175000D03*
D20*
X117856000Y-27749000D03*
X117856000Y-26099000D03*
D25*
X109728000Y-47511000D03*
X109728000Y-45961000D03*
D14*
X55715400Y-90698800D03*
X57365400Y-90698800D03*
D19*
X99060000Y-86093000D03*
X99060000Y-87643000D03*
D15*
X118097000Y-77724000D03*
X119647000Y-77724000D03*
D13*
X70879000Y-57404000D03*
X69329000Y-57404000D03*
X79515000Y-78232000D03*
X77965000Y-78232000D03*
D20*
X121412000Y-27749000D03*
X121412000Y-26099000D03*
D17*
X50800000Y-41275000D03*
D13*
X64122600Y-102108000D03*
X62572600Y-102108000D03*
D30*
X73025000Y-66700000D03*
X73025000Y-60300000D03*
D31*
X83750000Y-53925000D03*
X83750000Y-54425000D03*
X83750000Y-54925000D03*
X83750000Y-55425000D03*
X83750000Y-55925000D03*
X83750000Y-56425000D03*
X83750000Y-56925000D03*
X83750000Y-57425000D03*
X83750000Y-57925000D03*
X83750000Y-58425000D03*
X83750000Y-58925000D03*
X83750000Y-59425000D03*
X83750000Y-59925000D03*
X83750000Y-60425000D03*
X83750000Y-60925000D03*
X83750000Y-61425000D03*
X83750000Y-61925000D03*
X83750000Y-62425000D03*
X83750000Y-62925000D03*
X83750000Y-63425000D03*
X83750000Y-63925000D03*
X83750000Y-64425000D03*
X83750000Y-64925000D03*
X83750000Y-65425000D03*
X83750000Y-65925000D03*
X83750000Y-66425000D03*
X83750000Y-66925000D03*
X83750000Y-67425000D03*
X83750000Y-67925000D03*
X83750000Y-68425000D03*
X83750000Y-68925000D03*
X83750000Y-69425000D03*
X83750000Y-69925000D03*
X83750000Y-70425000D03*
X83750000Y-70925000D03*
X83750000Y-71425000D03*
X83750000Y-71925000D03*
X83750000Y-72425000D03*
X83750000Y-72925000D03*
X83750000Y-73425000D03*
X83750000Y-73925000D03*
X83750000Y-74425000D03*
X83750000Y-74925000D03*
X83750000Y-75425000D03*
X83750000Y-75925000D03*
X83750000Y-76425000D03*
X83750000Y-76925000D03*
X83750000Y-77425000D03*
X83750000Y-77925000D03*
X83750000Y-78425000D03*
X83750000Y-78925000D03*
X83750000Y-79425000D03*
D32*
X85675000Y-81350000D03*
X86175000Y-81350000D03*
X86675000Y-81350000D03*
X87175000Y-81350000D03*
X87675000Y-81350000D03*
X88175000Y-81350000D03*
X88675000Y-81350000D03*
X89175000Y-81350000D03*
X89675000Y-81350000D03*
X90175000Y-81350000D03*
X90675000Y-81350000D03*
X91175000Y-81350000D03*
X91675000Y-81350000D03*
X92175000Y-81350000D03*
X92675000Y-81350000D03*
X93175000Y-81350000D03*
X93675000Y-81350000D03*
X94175000Y-81350000D03*
X94675000Y-81350000D03*
X95175000Y-81350000D03*
X95675000Y-81350000D03*
X96175000Y-81350000D03*
X96675000Y-81350000D03*
X97175000Y-81350000D03*
X97675000Y-81350000D03*
X98175000Y-81350000D03*
X98675000Y-81350000D03*
X99175000Y-81350000D03*
X99675000Y-81350000D03*
X100175000Y-81350000D03*
X100675000Y-81350000D03*
X101175000Y-81350000D03*
X101675000Y-81350000D03*
X102175000Y-81350000D03*
X102675000Y-81350000D03*
X103175000Y-81350000D03*
X103675000Y-81350000D03*
X104175000Y-81350000D03*
X104675000Y-81350000D03*
X105175000Y-81350000D03*
X105675000Y-81350000D03*
X106175000Y-81350000D03*
X106675000Y-81350000D03*
X107175000Y-81350000D03*
X107675000Y-81350000D03*
X108175000Y-81350000D03*
X108675000Y-81350000D03*
X109175000Y-81350000D03*
X109675000Y-81350000D03*
X110175000Y-81350000D03*
X110675000Y-81350000D03*
X111175000Y-81350000D03*
D31*
X113100000Y-79425000D03*
X113100000Y-78925000D03*
X113100000Y-78425000D03*
X113100000Y-77925000D03*
X113100000Y-77425000D03*
X113100000Y-76925000D03*
X113100000Y-76425000D03*
X113100000Y-75925000D03*
X113100000Y-75425000D03*
X113100000Y-74925000D03*
X113100000Y-74425000D03*
X113100000Y-73925000D03*
X113100000Y-73425000D03*
X113100000Y-72925000D03*
X113100000Y-72425000D03*
X113100000Y-71925000D03*
X113100000Y-71425000D03*
X113100000Y-70925000D03*
X113100000Y-70425000D03*
X113100000Y-69925000D03*
X113100000Y-69425000D03*
X113100000Y-68925000D03*
X113100000Y-68425000D03*
X113100000Y-67925000D03*
X113100000Y-67425000D03*
X113100000Y-66925000D03*
X113100000Y-66425000D03*
X113100000Y-65925000D03*
X113100000Y-65425000D03*
X113100000Y-64925000D03*
X113100000Y-64425000D03*
X113100000Y-63925000D03*
X113100000Y-63425000D03*
X113100000Y-62925000D03*
X113100000Y-62425000D03*
X113100000Y-61925000D03*
X113100000Y-61425000D03*
X113100000Y-60925000D03*
X113100000Y-60425000D03*
X113100000Y-59925000D03*
X113100000Y-59425000D03*
X113100000Y-58925000D03*
X113100000Y-58425000D03*
X113100000Y-57925000D03*
X113100000Y-57425000D03*
X113100000Y-56925000D03*
X113100000Y-56425000D03*
X113100000Y-55925000D03*
X113100000Y-55425000D03*
X113100000Y-54925000D03*
X113100000Y-54425000D03*
X113100000Y-53925000D03*
D32*
X111175000Y-52000000D03*
X110675000Y-52000000D03*
X110175000Y-52000000D03*
X109675000Y-52000000D03*
X109175000Y-52000000D03*
X108675000Y-52000000D03*
X108175000Y-52000000D03*
X107675000Y-52000000D03*
X107175000Y-52000000D03*
X106675000Y-52000000D03*
X106175000Y-52000000D03*
X105675000Y-52000000D03*
X105175000Y-52000000D03*
X104675000Y-52000000D03*
X104175000Y-52000000D03*
X103675000Y-52000000D03*
X103175000Y-52000000D03*
X102675000Y-52000000D03*
X102175000Y-52000000D03*
X101675000Y-52000000D03*
X101175000Y-52000000D03*
X100675000Y-52000000D03*
X100175000Y-52000000D03*
X99675000Y-52000000D03*
X99175000Y-52000000D03*
X98675000Y-52000000D03*
X98175000Y-52000000D03*
X97675000Y-52000000D03*
X97175000Y-52000000D03*
X96675000Y-52000000D03*
X96175000Y-52000000D03*
X95675000Y-52000000D03*
X95175000Y-52000000D03*
X94675000Y-52000000D03*
X94175000Y-52000000D03*
X93675000Y-52000000D03*
X93175000Y-52000000D03*
X92675000Y-52000000D03*
X92175000Y-52000000D03*
X91675000Y-52000000D03*
X91175000Y-52000000D03*
X90675000Y-52000000D03*
X90175000Y-52000000D03*
X89675000Y-52000000D03*
X89175000Y-52000000D03*
X88675000Y-52000000D03*
X88175000Y-52000000D03*
X87675000Y-52000000D03*
X87175000Y-52000000D03*
X86675000Y-52000000D03*
X86175000Y-52000000D03*
X85675000Y-52000000D03*
D13*
X51067000Y-67176000D03*
X49517000Y-67176000D03*
D33*
X74610000Y-78232000D03*
X72710000Y-78232000D03*
D15*
X118097000Y-61976000D03*
X119647000Y-61976000D03*
D25*
X96520000Y-47511000D03*
X96520000Y-45961000D03*
D14*
X49467000Y-68884800D03*
X51117000Y-68884800D03*
D15*
X101841000Y-100076000D03*
X103391000Y-100076000D03*
D20*
X112776000Y-27749000D03*
X112776000Y-26099000D03*
D34*
X146725000Y-58400000D03*
X146725000Y-51400000D03*
D35*
X149225000Y-57150000D03*
X149225000Y-52650000D03*
D36*
X85725000Y-34925000D03*
D37*
X93345000Y-34925000D03*
D38*
X101315000Y-172025000D03*
X95535000Y-172025000D03*
D39*
X102745000Y-175675000D03*
D40*
X102745000Y-171495000D03*
D39*
X94105000Y-175675000D03*
D40*
X94105000Y-171495000D03*
D34*
X146725000Y-42525000D03*
X146725000Y-35525000D03*
D35*
X149225000Y-41275000D03*
X149225000Y-36775000D03*
D36*
X82356887Y-28956000D03*
D41*
X84356887Y-28956000D03*
D36*
X77155113Y-29972000D03*
D41*
X75155113Y-29972000D03*
D36*
X57150000Y-66675000D03*
D37*
X57150000Y-74295000D03*
D42*
X84523500Y-168244000D03*
D43*
X84523500Y-174244000D03*
D44*
X79823500Y-171244000D03*
D34*
X144125000Y-24725000D03*
X137125000Y-24725000D03*
D35*
X142875000Y-22225000D03*
X138375000Y-22225000D03*
D45*
X136525000Y-41275000D03*
D46*
X135275000Y-41275000D03*
D45*
X63500000Y-41275000D03*
D46*
X62250000Y-41275000D03*
D36*
X77155113Y-23368000D03*
D41*
X75155113Y-23368000D03*
D47*
X52007500Y-29850000D03*
X54707500Y-28650000D03*
D48*
X57207500Y-21850000D03*
D49*
X61807500Y-25750000D03*
D48*
X61307500Y-33050000D03*
D50*
X114300000Y-168275000D03*
D51*
X112300000Y-168275000D03*
M02*
