G04 #@! TF.GenerationSoftware,KiCad,Pcbnew,7.0.1*
G04 #@! TF.CreationDate,2024-01-01T11:46:02+00:00*
G04 #@! TF.ProjectId,gk,676b2e6b-6963-4616-945f-706362585858,rev?*
G04 #@! TF.SameCoordinates,Original*
G04 #@! TF.FileFunction,Copper,L1,Top*
G04 #@! TF.FilePolarity,Positive*
%FSLAX46Y46*%
G04 Gerber Fmt 4.6, Leading zero omitted, Abs format (unit mm)*
G04 Created by KiCad (PCBNEW 7.0.1) date 2024-01-01 11:46:02*
%MOMM*%
%LPD*%
G01*
G04 APERTURE LIST*
G04 Aperture macros list*
%AMRoundRect*
0 Rectangle with rounded corners*
0 $1 Rounding radius*
0 $2 $3 $4 $5 $6 $7 $8 $9 X,Y pos of 4 corners*
0 Add a 4 corners polygon primitive as box body*
4,1,4,$2,$3,$4,$5,$6,$7,$8,$9,$2,$3,0*
0 Add four circle primitives for the rounded corners*
1,1,$1+$1,$2,$3*
1,1,$1+$1,$4,$5*
1,1,$1+$1,$6,$7*
1,1,$1+$1,$8,$9*
0 Add four rect primitives between the rounded corners*
20,1,$1+$1,$2,$3,$4,$5,0*
20,1,$1+$1,$4,$5,$6,$7,0*
20,1,$1+$1,$6,$7,$8,$9,0*
20,1,$1+$1,$8,$9,$2,$3,0*%
%AMFreePoly0*
4,1,17,1.053536,0.853536,1.055000,0.850000,1.055000,-0.750000,1.053536,-0.753536,1.050000,-0.755000,0.255000,-0.755000,0.255000,-1.100000,0.253536,-1.103536,0.250000,-1.105000,-1.050000,-1.105000,-1.053536,-1.103536,-1.055000,-1.100000,-1.055000,0.850000,-1.053536,0.853536,-1.050000,0.855000,1.050000,0.855000,1.053536,0.853536,1.053536,0.853536,$1*%
%AMFreePoly1*
4,1,17,1.053536,0.853536,1.055000,0.850000,1.055000,-1.100000,1.053536,-1.103536,1.050000,-1.105000,-0.250000,-1.105000,-0.253536,-1.103536,-0.255000,-1.100000,-0.255000,-0.755000,-1.050000,-0.755000,-1.053536,-0.753536,-1.055000,-0.750000,-1.055000,0.850000,-1.053536,0.853536,-1.050000,0.855000,1.050000,0.855000,1.053536,0.853536,1.053536,0.853536,$1*%
G04 Aperture macros list end*
G04 #@! TA.AperFunction,SMDPad,CuDef*
%ADD10FreePoly0,0.000000*%
G04 #@! TD*
G04 #@! TA.AperFunction,SMDPad,CuDef*
%ADD11FreePoly1,0.000000*%
G04 #@! TD*
G04 #@! TA.AperFunction,SMDPad,CuDef*
%ADD12R,0.300000X1.500000*%
G04 #@! TD*
G04 #@! TA.AperFunction,SMDPad,CuDef*
%ADD13RoundRect,0.225000X0.225000X0.250000X-0.225000X0.250000X-0.225000X-0.250000X0.225000X-0.250000X0*%
G04 #@! TD*
G04 #@! TA.AperFunction,SMDPad,CuDef*
%ADD14RoundRect,0.200000X-0.200000X-0.275000X0.200000X-0.275000X0.200000X0.275000X-0.200000X0.275000X0*%
G04 #@! TD*
G04 #@! TA.AperFunction,SMDPad,CuDef*
%ADD15R,0.675000X7.000000*%
G04 #@! TD*
G04 #@! TA.AperFunction,SMDPad,CuDef*
%ADD16R,0.250000X6.100000*%
G04 #@! TD*
G04 #@! TA.AperFunction,SMDPad,CuDef*
%ADD17R,8.000000X0.500000*%
G04 #@! TD*
G04 #@! TA.AperFunction,SMDPad,CuDef*
%ADD18R,0.400000X6.500000*%
G04 #@! TD*
G04 #@! TA.AperFunction,SMDPad,CuDef*
%ADD19R,6.150000X0.400000*%
G04 #@! TD*
G04 #@! TA.AperFunction,SMDPad,CuDef*
%ADD20RoundRect,0.225000X-0.225000X-0.250000X0.225000X-0.250000X0.225000X0.250000X-0.225000X0.250000X0*%
G04 #@! TD*
G04 #@! TA.AperFunction,SMDPad,CuDef*
%ADD21RoundRect,0.250000X-0.250000X-0.475000X0.250000X-0.475000X0.250000X0.475000X-0.250000X0.475000X0*%
G04 #@! TD*
G04 #@! TA.AperFunction,SMDPad,CuDef*
%ADD22RoundRect,0.250000X-0.475000X0.250000X-0.475000X-0.250000X0.475000X-0.250000X0.475000X0.250000X0*%
G04 #@! TD*
G04 #@! TA.AperFunction,SMDPad,CuDef*
%ADD23RoundRect,0.225000X-0.250000X0.225000X-0.250000X-0.225000X0.250000X-0.225000X0.250000X0.225000X0*%
G04 #@! TD*
G04 #@! TA.AperFunction,SMDPad,CuDef*
%ADD24RoundRect,0.200000X0.275000X-0.200000X0.275000X0.200000X-0.275000X0.200000X-0.275000X-0.200000X0*%
G04 #@! TD*
G04 #@! TA.AperFunction,SMDPad,CuDef*
%ADD25R,0.300000X1.100000*%
G04 #@! TD*
G04 #@! TA.AperFunction,SMDPad,CuDef*
%ADD26R,2.300000X3.100000*%
G04 #@! TD*
G04 #@! TA.AperFunction,SMDPad,CuDef*
%ADD27RoundRect,0.200000X0.200000X0.275000X-0.200000X0.275000X-0.200000X-0.275000X0.200000X-0.275000X0*%
G04 #@! TD*
G04 #@! TA.AperFunction,SMDPad,CuDef*
%ADD28RoundRect,0.250000X0.475000X-0.250000X0.475000X0.250000X-0.475000X0.250000X-0.475000X-0.250000X0*%
G04 #@! TD*
G04 #@! TA.AperFunction,SMDPad,CuDef*
%ADD29RoundRect,0.225000X0.250000X-0.225000X0.250000X0.225000X-0.250000X0.225000X-0.250000X-0.225000X0*%
G04 #@! TD*
G04 #@! TA.AperFunction,SMDPad,CuDef*
%ADD30R,1.400000X1.150000*%
G04 #@! TD*
G04 #@! TA.AperFunction,SMDPad,CuDef*
%ADD31RoundRect,0.087500X-0.225000X-0.087500X0.225000X-0.087500X0.225000X0.087500X-0.225000X0.087500X0*%
G04 #@! TD*
G04 #@! TA.AperFunction,SMDPad,CuDef*
%ADD32RoundRect,0.087500X-0.087500X-0.225000X0.087500X-0.225000X0.087500X0.225000X-0.087500X0.225000X0*%
G04 #@! TD*
G04 #@! TA.AperFunction,SMDPad,CuDef*
%ADD33RoundRect,0.200000X-0.275000X0.200000X-0.275000X-0.200000X0.275000X-0.200000X0.275000X0.200000X0*%
G04 #@! TD*
G04 #@! TA.AperFunction,SMDPad,CuDef*
%ADD34R,2.200000X1.500000*%
G04 #@! TD*
G04 #@! TA.AperFunction,SMDPad,CuDef*
%ADD35RoundRect,0.075000X-0.675000X-0.075000X0.675000X-0.075000X0.675000X0.075000X-0.675000X0.075000X0*%
G04 #@! TD*
G04 #@! TA.AperFunction,SMDPad,CuDef*
%ADD36RoundRect,0.075000X-0.075000X-0.675000X0.075000X-0.675000X0.075000X0.675000X-0.075000X0.675000X0*%
G04 #@! TD*
G04 #@! TA.AperFunction,SMDPad,CuDef*
%ADD37RoundRect,0.250000X0.250000X0.475000X-0.250000X0.475000X-0.250000X-0.475000X0.250000X-0.475000X0*%
G04 #@! TD*
G04 #@! TA.AperFunction,ComponentPad*
%ADD38C,2.200000*%
G04 #@! TD*
G04 #@! TA.AperFunction,ComponentPad*
%ADD39C,1.700000*%
G04 #@! TD*
G04 #@! TA.AperFunction,ComponentPad*
%ADD40R,1.600000X1.600000*%
G04 #@! TD*
G04 #@! TA.AperFunction,ComponentPad*
%ADD41O,1.600000X1.600000*%
G04 #@! TD*
G04 #@! TA.AperFunction,ComponentPad*
%ADD42O,1.000000X1.600000*%
G04 #@! TD*
G04 #@! TA.AperFunction,ComponentPad*
%ADD43O,1.000000X2.100000*%
G04 #@! TD*
G04 #@! TA.AperFunction,ComponentPad*
%ADD44C,1.600000*%
G04 #@! TD*
G04 #@! TA.AperFunction,ComponentPad*
%ADD45R,3.500000X3.500000*%
G04 #@! TD*
G04 #@! TA.AperFunction,ComponentPad*
%ADD46RoundRect,0.750000X1.000000X-0.750000X1.000000X0.750000X-1.000000X0.750000X-1.000000X-0.750000X0*%
G04 #@! TD*
G04 #@! TA.AperFunction,ComponentPad*
%ADD47RoundRect,0.875000X0.875000X-0.875000X0.875000X0.875000X-0.875000X0.875000X-0.875000X-0.875000X0*%
G04 #@! TD*
G04 #@! TA.AperFunction,ComponentPad*
%ADD48RoundRect,0.200000X0.200000X0.450000X-0.200000X0.450000X-0.200000X-0.450000X0.200000X-0.450000X0*%
G04 #@! TD*
G04 #@! TA.AperFunction,ComponentPad*
%ADD49O,0.800000X1.300000*%
G04 #@! TD*
G04 #@! TA.AperFunction,ComponentPad*
%ADD50O,2.200000X4.000000*%
G04 #@! TD*
G04 #@! TA.AperFunction,ComponentPad*
%ADD51O,4.000000X2.200000*%
G04 #@! TD*
G04 #@! TA.AperFunction,ComponentPad*
%ADD52R,2.200000X4.000000*%
G04 #@! TD*
G04 #@! TA.AperFunction,ComponentPad*
%ADD53RoundRect,0.250000X0.350000X0.625000X-0.350000X0.625000X-0.350000X-0.625000X0.350000X-0.625000X0*%
G04 #@! TD*
G04 #@! TA.AperFunction,ComponentPad*
%ADD54O,1.200000X1.750000*%
G04 #@! TD*
G04 #@! TA.AperFunction,ViaPad*
%ADD55C,0.450000*%
G04 #@! TD*
G04 #@! TA.AperFunction,ViaPad*
%ADD56C,0.800000*%
G04 #@! TD*
G04 #@! TA.AperFunction,Conductor*
%ADD57C,0.250000*%
G04 #@! TD*
G04 #@! TA.AperFunction,Conductor*
%ADD58C,0.762000*%
G04 #@! TD*
G04 #@! TA.AperFunction,Conductor*
%ADD59C,0.152400*%
G04 #@! TD*
G04 #@! TA.AperFunction,Conductor*
%ADD60C,0.508000*%
G04 #@! TD*
G04 #@! TA.AperFunction,Conductor*
%ADD61C,0.203200*%
G04 #@! TD*
G04 #@! TA.AperFunction,Conductor*
%ADD62C,0.366268*%
G04 #@! TD*
G04 #@! TA.AperFunction,Conductor*
%ADD63C,0.304800*%
G04 #@! TD*
G04 #@! TA.AperFunction,Conductor*
%ADD64C,0.254000*%
G04 #@! TD*
G04 APERTURE END LIST*
D10*
X105505500Y-112690000D03*
D11*
X74505500Y-112690000D03*
D12*
X103255500Y-111690000D03*
X102755500Y-111690000D03*
X102255500Y-111690000D03*
X101755500Y-111690000D03*
X101255500Y-111690000D03*
X100755500Y-111690000D03*
X100255500Y-111690000D03*
X99755500Y-111690000D03*
X99255500Y-111690000D03*
X98755500Y-111690000D03*
X98255500Y-111690000D03*
X97755500Y-111690000D03*
X97255500Y-111690000D03*
X96755500Y-111690000D03*
X96255500Y-111690000D03*
X95755500Y-111690000D03*
X95255500Y-111690000D03*
X94755500Y-111690000D03*
X94255500Y-111690000D03*
X93755500Y-111690000D03*
X93255500Y-111690000D03*
X92755500Y-111690000D03*
X92255500Y-111690000D03*
X91755500Y-111690000D03*
X91255500Y-111690000D03*
X90755500Y-111690000D03*
X90255500Y-111690000D03*
X89755500Y-111690000D03*
X89255500Y-111690000D03*
X88755500Y-111690000D03*
X88255500Y-111690000D03*
X87755500Y-111690000D03*
X87255500Y-111690000D03*
X86755500Y-111690000D03*
X86255500Y-111690000D03*
X85755500Y-111690000D03*
X85255500Y-111690000D03*
X84755500Y-111690000D03*
X84255500Y-111690000D03*
X83755500Y-111690000D03*
X83255500Y-111690000D03*
X82755500Y-111690000D03*
X82255500Y-111690000D03*
X81755500Y-111690000D03*
X81255500Y-111690000D03*
X80755500Y-111690000D03*
X80255500Y-111690000D03*
X79755500Y-111690000D03*
X79255500Y-111690000D03*
X78755500Y-111690000D03*
X78255500Y-111690000D03*
X77755500Y-111690000D03*
X77255500Y-111690000D03*
X76755500Y-111690000D03*
D13*
X79515000Y-70104000D03*
X77965000Y-70104000D03*
D14*
X97219000Y-35052000D03*
X98869000Y-35052000D03*
D15*
X74812500Y-154707500D03*
D16*
X76175000Y-154257499D03*
X77325000Y-154257499D03*
D17*
X78475000Y-150957500D03*
D16*
X78475000Y-154257499D03*
D17*
X78475000Y-158457500D03*
D16*
X79625000Y-154257499D03*
X80775000Y-154257499D03*
D15*
X82137500Y-154707500D03*
D18*
X75600000Y-154707500D03*
X76750000Y-154707500D03*
X77900000Y-154707500D03*
D19*
X78475000Y-157757500D03*
D18*
X79050000Y-154707500D03*
X80200000Y-154707500D03*
X81350000Y-154707500D03*
D20*
X118097000Y-73152000D03*
X119647000Y-73152000D03*
D21*
X117922000Y-55880000D03*
X119822000Y-55880000D03*
D20*
X118097000Y-53848000D03*
X119647000Y-53848000D03*
X118097000Y-60452000D03*
X119647000Y-60452000D03*
D15*
X49412500Y-154707500D03*
D16*
X50775000Y-154257499D03*
X51925000Y-154257499D03*
D17*
X53075000Y-150957500D03*
D16*
X53075000Y-154257499D03*
D17*
X53075000Y-158457500D03*
D16*
X54225000Y-154257499D03*
X55375000Y-154257499D03*
D15*
X56737500Y-154707500D03*
D18*
X50200000Y-154707500D03*
X51350000Y-154707500D03*
X52500000Y-154707500D03*
D19*
X53075000Y-157757500D03*
D18*
X53650000Y-154707500D03*
X54800000Y-154707500D03*
X55950000Y-154707500D03*
D15*
X62112500Y-142007500D03*
D16*
X63475000Y-141557499D03*
X64625000Y-141557499D03*
D17*
X65775000Y-138257500D03*
D16*
X65775000Y-141557499D03*
D17*
X65775000Y-145757500D03*
D16*
X66925000Y-141557499D03*
X68075000Y-141557499D03*
D15*
X69437500Y-142007500D03*
D18*
X62900000Y-142007500D03*
X64050000Y-142007500D03*
X65200000Y-142007500D03*
D19*
X65775000Y-145057500D03*
D18*
X66350000Y-142007500D03*
X67500000Y-142007500D03*
X68650000Y-142007500D03*
D22*
X78232000Y-65598000D03*
X78232000Y-67498000D03*
D23*
X109220000Y-86093000D03*
X109220000Y-87643000D03*
D13*
X79007000Y-56896000D03*
X77457000Y-56896000D03*
D20*
X127749000Y-25908000D03*
X129299000Y-25908000D03*
X55765400Y-85110800D03*
X57315400Y-85110800D03*
D24*
X90170000Y-46545000D03*
X90170000Y-44895000D03*
D20*
X118097000Y-65532000D03*
X119647000Y-65532000D03*
X118097000Y-74676000D03*
X119647000Y-74676000D03*
D23*
X115824000Y-26149000D03*
X115824000Y-27699000D03*
D25*
X64688400Y-107757800D03*
X65188400Y-107757800D03*
X65688400Y-107757800D03*
X66188400Y-107757800D03*
X66688400Y-107757800D03*
X67188400Y-107757800D03*
D26*
X63018400Y-109457800D03*
X68858400Y-109457800D03*
D23*
X96012000Y-86093000D03*
X96012000Y-87643000D03*
D27*
X65442600Y-95504000D03*
X63792600Y-95504000D03*
D28*
X78232000Y-63434000D03*
X78232000Y-61534000D03*
D24*
X114300000Y-27749000D03*
X114300000Y-26099000D03*
D29*
X100584000Y-47511000D03*
X100584000Y-45961000D03*
D24*
X119380000Y-27749000D03*
X119380000Y-26099000D03*
D13*
X73927000Y-70104000D03*
X72377000Y-70104000D03*
D15*
X138312500Y-129307500D03*
D16*
X139675000Y-128857499D03*
X140825000Y-128857499D03*
D17*
X141975000Y-125557500D03*
D16*
X141975000Y-128857499D03*
D17*
X141975000Y-133057500D03*
D16*
X143125000Y-128857499D03*
X144275000Y-128857499D03*
D15*
X145637500Y-129307500D03*
D18*
X139100000Y-129307500D03*
X140250000Y-129307500D03*
X141400000Y-129307500D03*
D19*
X141975000Y-132357500D03*
D18*
X142550000Y-129307500D03*
X143700000Y-129307500D03*
X144850000Y-129307500D03*
D22*
X105156000Y-85918000D03*
X105156000Y-87818000D03*
D15*
X87512500Y-129307500D03*
D16*
X88875000Y-128857499D03*
X90025000Y-128857499D03*
D17*
X91175000Y-125557500D03*
D16*
X91175000Y-128857499D03*
D17*
X91175000Y-133057500D03*
D16*
X92325000Y-128857499D03*
X93475000Y-128857499D03*
D15*
X94837500Y-129307500D03*
D18*
X88300000Y-129307500D03*
X89450000Y-129307500D03*
X90600000Y-129307500D03*
D19*
X91175000Y-132357500D03*
D18*
X91750000Y-129307500D03*
X92900000Y-129307500D03*
X94050000Y-129307500D03*
D29*
X85852000Y-47511000D03*
X85852000Y-45961000D03*
D14*
X127699000Y-28448000D03*
X129349000Y-28448000D03*
D13*
X69863000Y-74168000D03*
X68313000Y-74168000D03*
D15*
X62112500Y-167407500D03*
D16*
X63475000Y-166957499D03*
X64625000Y-166957499D03*
D17*
X65775000Y-163657500D03*
D16*
X65775000Y-166957499D03*
D17*
X65775000Y-171157500D03*
D16*
X66925000Y-166957499D03*
X68075000Y-166957499D03*
D15*
X69437500Y-167407500D03*
D18*
X62900000Y-167407500D03*
X64050000Y-167407500D03*
X65200000Y-167407500D03*
D19*
X65775000Y-170457500D03*
D18*
X66350000Y-167407500D03*
X67500000Y-167407500D03*
X68650000Y-167407500D03*
D14*
X78931000Y-49784000D03*
X80581000Y-49784000D03*
D15*
X125612500Y-116607500D03*
D16*
X126975000Y-116157499D03*
X128125000Y-116157499D03*
D17*
X129275000Y-112857500D03*
D16*
X129275000Y-116157499D03*
D17*
X129275000Y-120357500D03*
D16*
X130425000Y-116157499D03*
X131575000Y-116157499D03*
D15*
X132937500Y-116607500D03*
D18*
X126400000Y-116607500D03*
X127550000Y-116607500D03*
X128700000Y-116607500D03*
D19*
X129275000Y-119657500D03*
D18*
X129850000Y-116607500D03*
X131000000Y-116607500D03*
X132150000Y-116607500D03*
D20*
X51701400Y-85170800D03*
X53251400Y-85170800D03*
D14*
X51651400Y-88158800D03*
X53301400Y-88158800D03*
X55715400Y-88188800D03*
X57365400Y-88188800D03*
D30*
X74125000Y-72225000D03*
X71925000Y-72225000D03*
X71925000Y-73825000D03*
X74125000Y-73825000D03*
D13*
X79515000Y-75692000D03*
X77965000Y-75692000D03*
D29*
X101346000Y-96533000D03*
X101346000Y-94983000D03*
D15*
X125612500Y-142007500D03*
D16*
X126975000Y-141557499D03*
X128125000Y-141557499D03*
D17*
X129275000Y-138257500D03*
D16*
X129275000Y-141557499D03*
D17*
X129275000Y-145757500D03*
D16*
X130425000Y-141557499D03*
X131575000Y-141557499D03*
D15*
X132937500Y-142007500D03*
D18*
X126400000Y-142007500D03*
X127550000Y-142007500D03*
X128700000Y-142007500D03*
D19*
X129275000Y-145057500D03*
D18*
X129850000Y-142007500D03*
X131000000Y-142007500D03*
X132150000Y-142007500D03*
D14*
X51651400Y-91206800D03*
X53301400Y-91206800D03*
D31*
X97262500Y-97675000D03*
X97262500Y-98175000D03*
X97262500Y-98675000D03*
X97262500Y-99175000D03*
D32*
X97925000Y-99337500D03*
X98425000Y-99337500D03*
X98925000Y-99337500D03*
D31*
X99587500Y-99175000D03*
X99587500Y-98675000D03*
X99587500Y-98175000D03*
X99587500Y-97675000D03*
D32*
X98925000Y-97512500D03*
X98425000Y-97512500D03*
X97925000Y-97512500D03*
D33*
X90170000Y-41491400D03*
X90170000Y-43141400D03*
D23*
X86868000Y-86093000D03*
X86868000Y-87643000D03*
D22*
X106680000Y-26482000D03*
X106680000Y-28382000D03*
D24*
X117856000Y-27749000D03*
X117856000Y-26099000D03*
D29*
X109728000Y-47511000D03*
X109728000Y-45961000D03*
D14*
X55715400Y-90698800D03*
X57365400Y-90698800D03*
D23*
X99060000Y-86093000D03*
X99060000Y-87643000D03*
D20*
X118097000Y-77724000D03*
X119647000Y-77724000D03*
D13*
X70879000Y-57404000D03*
X69329000Y-57404000D03*
D15*
X112912500Y-129307500D03*
D16*
X114275000Y-128857499D03*
X115425000Y-128857499D03*
D17*
X116575000Y-125557500D03*
D16*
X116575000Y-128857499D03*
D17*
X116575000Y-133057500D03*
D16*
X117725000Y-128857499D03*
X118875000Y-128857499D03*
D15*
X120237500Y-129307500D03*
D18*
X113700000Y-129307500D03*
X114850000Y-129307500D03*
X116000000Y-129307500D03*
D19*
X116575000Y-132357500D03*
D18*
X117150000Y-129307500D03*
X118300000Y-129307500D03*
X119450000Y-129307500D03*
D13*
X79515000Y-78232000D03*
X77965000Y-78232000D03*
D24*
X121412000Y-27749000D03*
X121412000Y-26099000D03*
D13*
X64122600Y-102108000D03*
X62572600Y-102108000D03*
D34*
X73025000Y-66700000D03*
X73025000Y-60300000D03*
D35*
X83750000Y-53925000D03*
X83750000Y-54425000D03*
X83750000Y-54925000D03*
X83750000Y-55425000D03*
X83750000Y-55925000D03*
X83750000Y-56425000D03*
X83750000Y-56925000D03*
X83750000Y-57425000D03*
X83750000Y-57925000D03*
X83750000Y-58425000D03*
X83750000Y-58925000D03*
X83750000Y-59425000D03*
X83750000Y-59925000D03*
X83750000Y-60425000D03*
X83750000Y-60925000D03*
X83750000Y-61425000D03*
X83750000Y-61925000D03*
X83750000Y-62425000D03*
X83750000Y-62925000D03*
X83750000Y-63425000D03*
X83750000Y-63925000D03*
X83750000Y-64425000D03*
X83750000Y-64925000D03*
X83750000Y-65425000D03*
X83750000Y-65925000D03*
X83750000Y-66425000D03*
X83750000Y-66925000D03*
X83750000Y-67425000D03*
X83750000Y-67925000D03*
X83750000Y-68425000D03*
X83750000Y-68925000D03*
X83750000Y-69425000D03*
X83750000Y-69925000D03*
X83750000Y-70425000D03*
X83750000Y-70925000D03*
X83750000Y-71425000D03*
X83750000Y-71925000D03*
X83750000Y-72425000D03*
X83750000Y-72925000D03*
X83750000Y-73425000D03*
X83750000Y-73925000D03*
X83750000Y-74425000D03*
X83750000Y-74925000D03*
X83750000Y-75425000D03*
X83750000Y-75925000D03*
X83750000Y-76425000D03*
X83750000Y-76925000D03*
X83750000Y-77425000D03*
X83750000Y-77925000D03*
X83750000Y-78425000D03*
X83750000Y-78925000D03*
X83750000Y-79425000D03*
D36*
X85675000Y-81350000D03*
X86175000Y-81350000D03*
X86675000Y-81350000D03*
X87175000Y-81350000D03*
X87675000Y-81350000D03*
X88175000Y-81350000D03*
X88675000Y-81350000D03*
X89175000Y-81350000D03*
X89675000Y-81350000D03*
X90175000Y-81350000D03*
X90675000Y-81350000D03*
X91175000Y-81350000D03*
X91675000Y-81350000D03*
X92175000Y-81350000D03*
X92675000Y-81350000D03*
X93175000Y-81350000D03*
X93675000Y-81350000D03*
X94175000Y-81350000D03*
X94675000Y-81350000D03*
X95175000Y-81350000D03*
X95675000Y-81350000D03*
X96175000Y-81350000D03*
X96675000Y-81350000D03*
X97175000Y-81350000D03*
X97675000Y-81350000D03*
X98175000Y-81350000D03*
X98675000Y-81350000D03*
X99175000Y-81350000D03*
X99675000Y-81350000D03*
X100175000Y-81350000D03*
X100675000Y-81350000D03*
X101175000Y-81350000D03*
X101675000Y-81350000D03*
X102175000Y-81350000D03*
X102675000Y-81350000D03*
X103175000Y-81350000D03*
X103675000Y-81350000D03*
X104175000Y-81350000D03*
X104675000Y-81350000D03*
X105175000Y-81350000D03*
X105675000Y-81350000D03*
X106175000Y-81350000D03*
X106675000Y-81350000D03*
X107175000Y-81350000D03*
X107675000Y-81350000D03*
X108175000Y-81350000D03*
X108675000Y-81350000D03*
X109175000Y-81350000D03*
X109675000Y-81350000D03*
X110175000Y-81350000D03*
X110675000Y-81350000D03*
X111175000Y-81350000D03*
D35*
X113100000Y-79425000D03*
X113100000Y-78925000D03*
X113100000Y-78425000D03*
X113100000Y-77925000D03*
X113100000Y-77425000D03*
X113100000Y-76925000D03*
X113100000Y-76425000D03*
X113100000Y-75925000D03*
X113100000Y-75425000D03*
X113100000Y-74925000D03*
X113100000Y-74425000D03*
X113100000Y-73925000D03*
X113100000Y-73425000D03*
X113100000Y-72925000D03*
X113100000Y-72425000D03*
X113100000Y-71925000D03*
X113100000Y-71425000D03*
X113100000Y-70925000D03*
X113100000Y-70425000D03*
X113100000Y-69925000D03*
X113100000Y-69425000D03*
X113100000Y-68925000D03*
X113100000Y-68425000D03*
X113100000Y-67925000D03*
X113100000Y-67425000D03*
X113100000Y-66925000D03*
X113100000Y-66425000D03*
X113100000Y-65925000D03*
X113100000Y-65425000D03*
X113100000Y-64925000D03*
X113100000Y-64425000D03*
X113100000Y-63925000D03*
X113100000Y-63425000D03*
X113100000Y-62925000D03*
X113100000Y-62425000D03*
X113100000Y-61925000D03*
X113100000Y-61425000D03*
X113100000Y-60925000D03*
X113100000Y-60425000D03*
X113100000Y-59925000D03*
X113100000Y-59425000D03*
X113100000Y-58925000D03*
X113100000Y-58425000D03*
X113100000Y-57925000D03*
X113100000Y-57425000D03*
X113100000Y-56925000D03*
X113100000Y-56425000D03*
X113100000Y-55925000D03*
X113100000Y-55425000D03*
X113100000Y-54925000D03*
X113100000Y-54425000D03*
X113100000Y-53925000D03*
D36*
X111175000Y-52000000D03*
X110675000Y-52000000D03*
X110175000Y-52000000D03*
X109675000Y-52000000D03*
X109175000Y-52000000D03*
X108675000Y-52000000D03*
X108175000Y-52000000D03*
X107675000Y-52000000D03*
X107175000Y-52000000D03*
X106675000Y-52000000D03*
X106175000Y-52000000D03*
X105675000Y-52000000D03*
X105175000Y-52000000D03*
X104675000Y-52000000D03*
X104175000Y-52000000D03*
X103675000Y-52000000D03*
X103175000Y-52000000D03*
X102675000Y-52000000D03*
X102175000Y-52000000D03*
X101675000Y-52000000D03*
X101175000Y-52000000D03*
X100675000Y-52000000D03*
X100175000Y-52000000D03*
X99675000Y-52000000D03*
X99175000Y-52000000D03*
X98675000Y-52000000D03*
X98175000Y-52000000D03*
X97675000Y-52000000D03*
X97175000Y-52000000D03*
X96675000Y-52000000D03*
X96175000Y-52000000D03*
X95675000Y-52000000D03*
X95175000Y-52000000D03*
X94675000Y-52000000D03*
X94175000Y-52000000D03*
X93675000Y-52000000D03*
X93175000Y-52000000D03*
X92675000Y-52000000D03*
X92175000Y-52000000D03*
X91675000Y-52000000D03*
X91175000Y-52000000D03*
X90675000Y-52000000D03*
X90175000Y-52000000D03*
X89675000Y-52000000D03*
X89175000Y-52000000D03*
X88675000Y-52000000D03*
X88175000Y-52000000D03*
X87675000Y-52000000D03*
X87175000Y-52000000D03*
X86675000Y-52000000D03*
X86175000Y-52000000D03*
X85675000Y-52000000D03*
D13*
X51067000Y-67176000D03*
X49517000Y-67176000D03*
D37*
X74610000Y-78232000D03*
X72710000Y-78232000D03*
D20*
X118097000Y-61976000D03*
X119647000Y-61976000D03*
D29*
X96520000Y-47511000D03*
X96520000Y-45961000D03*
D14*
X49467000Y-68884800D03*
X51117000Y-68884800D03*
D20*
X101841000Y-100076000D03*
X103391000Y-100076000D03*
D24*
X112776000Y-27749000D03*
X112776000Y-26099000D03*
D38*
X146725000Y-58400000D03*
X146725000Y-51400000D03*
D39*
X149225000Y-57150000D03*
X149225000Y-52650000D03*
D40*
X85725000Y-34925000D03*
D41*
X93345000Y-34925000D03*
D42*
X102745000Y-175675000D03*
D43*
X102745000Y-171495000D03*
D42*
X94105000Y-175675000D03*
D43*
X94105000Y-171495000D03*
D38*
X146725000Y-42525000D03*
X146725000Y-35525000D03*
D39*
X149225000Y-41275000D03*
X149225000Y-36775000D03*
D40*
X82356887Y-28956000D03*
D44*
X84356887Y-28956000D03*
D40*
X77155113Y-29972000D03*
D44*
X75155113Y-29972000D03*
D40*
X57150000Y-66675000D03*
D41*
X57150000Y-74295000D03*
D45*
X84523500Y-168244000D03*
D46*
X84523500Y-174244000D03*
D47*
X79823500Y-171244000D03*
D38*
X144125000Y-24725000D03*
X137125000Y-24725000D03*
D39*
X142875000Y-22225000D03*
X138375000Y-22225000D03*
D48*
X136525000Y-41275000D03*
D49*
X135275000Y-41275000D03*
D48*
X63500000Y-41275000D03*
D49*
X62250000Y-41275000D03*
D40*
X77155113Y-23368000D03*
D44*
X75155113Y-23368000D03*
D50*
X52007500Y-29850000D03*
X54707500Y-28650000D03*
D51*
X57207500Y-21850000D03*
D52*
X61807500Y-25750000D03*
D51*
X61307500Y-33050000D03*
D53*
X114300000Y-168275000D03*
D54*
X112300000Y-168275000D03*
D55*
X117500400Y-136296400D03*
D56*
X100787200Y-146608800D03*
X122885200Y-149606000D03*
X96672400Y-146761200D03*
D55*
X80525000Y-56325000D03*
D56*
X143510000Y-161696400D03*
D55*
X80726821Y-61394271D03*
X86214900Y-49575000D03*
D56*
X58724800Y-85140800D03*
X61417200Y-52781200D03*
X66852800Y-74371200D03*
X109067600Y-22809200D03*
X106629200Y-29870400D03*
X106172000Y-88696800D03*
X46075600Y-47904400D03*
X57810400Y-54305200D03*
X99720400Y-94996000D03*
X127275000Y-171575000D03*
D55*
X81413540Y-78551851D03*
D56*
X89712800Y-166420800D03*
X110571007Y-87558607D03*
X48717200Y-54102000D03*
D55*
X100775000Y-49725700D03*
D56*
X128117600Y-46431200D03*
X143002000Y-32105600D03*
X58724800Y-90678000D03*
X111525000Y-159925000D03*
D55*
X81991200Y-66802000D03*
D56*
X149148800Y-145999200D03*
X147472400Y-152044400D03*
X84429600Y-46126400D03*
D55*
X86715600Y-83210400D03*
D56*
X98653600Y-100533200D03*
D55*
X89700000Y-49750000D03*
D56*
X75387200Y-56946800D03*
X62331600Y-95453200D03*
X89880000Y-53898800D03*
D55*
X92200000Y-58050000D03*
D56*
X112623600Y-45872400D03*
X103022400Y-109016800D03*
X110439200Y-55118000D03*
X95554800Y-98298000D03*
X143510000Y-160477200D03*
X119634000Y-71831200D03*
X58369200Y-153416000D03*
X108966000Y-28905200D03*
X141173200Y-160477200D03*
X146964400Y-127203200D03*
X104140000Y-109728000D03*
D55*
X108527235Y-84241733D03*
D56*
X75488800Y-68630800D03*
X75692000Y-61671200D03*
X102108000Y-45516800D03*
X69088000Y-26670000D03*
D55*
X96750000Y-49825000D03*
D56*
X126725000Y-168025000D03*
X148031200Y-169265600D03*
X115722400Y-67818000D03*
X142290800Y-160426400D03*
X117551200Y-51714400D03*
X117100000Y-154400000D03*
X77927200Y-37541200D03*
X57810400Y-55575200D03*
X143764000Y-59842400D03*
X61772800Y-100584000D03*
D55*
X115825000Y-77325000D03*
D56*
X96520000Y-44856400D03*
D55*
X98625000Y-83650000D03*
D56*
X133400800Y-26771600D03*
X98425000Y-165450000D03*
D55*
X116250000Y-66000000D03*
X109952104Y-50207197D03*
X116200000Y-75550000D03*
X96854049Y-58199300D03*
D56*
X141224000Y-159258000D03*
X136385000Y-139700000D03*
X142290800Y-161696400D03*
X53543200Y-83616800D03*
X48768000Y-55524400D03*
X84378800Y-87934800D03*
X128168400Y-50139600D03*
D55*
X104225000Y-84875700D03*
D56*
X102209600Y-168757600D03*
X84582000Y-152603200D03*
X64973200Y-34747200D03*
X71932800Y-68884800D03*
X100584000Y-88239600D03*
X121615200Y-127000000D03*
X147218400Y-84074000D03*
X53136800Y-47802800D03*
X60909200Y-116992400D03*
X80010000Y-166116000D03*
X87868700Y-53810163D03*
X94640400Y-87477600D03*
X125222000Y-22504400D03*
X132791200Y-164998400D03*
X106222800Y-166827200D03*
X75692000Y-73558400D03*
X115112800Y-21234400D03*
X111252000Y-35763200D03*
X53289200Y-92659200D03*
X117950000Y-165450000D03*
X107150000Y-150300000D03*
X97891600Y-126593600D03*
X123799600Y-60909200D03*
X71932800Y-166217600D03*
X147015200Y-100431600D03*
X104851200Y-100025200D03*
X100380800Y-35052000D03*
X141224000Y-161645600D03*
D55*
X81400000Y-74400000D03*
D56*
X104575000Y-150275000D03*
X106400000Y-162000000D03*
X67767200Y-106222800D03*
X68732400Y-38354000D03*
X134823200Y-113284000D03*
X143510000Y-159258000D03*
X45770800Y-61823600D03*
D55*
X87925000Y-75200000D03*
D56*
X94386400Y-77978000D03*
D55*
X89525000Y-75300000D03*
X116025000Y-55425000D03*
D56*
X145084800Y-145745200D03*
X119634000Y-79248000D03*
X46075600Y-56337200D03*
X120548400Y-64516000D03*
D55*
X108975000Y-75425000D03*
D56*
X67818000Y-57556400D03*
X94538800Y-168859200D03*
X46177200Y-53543200D03*
X72034400Y-139903200D03*
X128117600Y-47548800D03*
X76200000Y-78943200D03*
D55*
X98425000Y-75300000D03*
D56*
X75184000Y-76200000D03*
X129387600Y-24536400D03*
X143560800Y-145897600D03*
X46380400Y-110693200D03*
X71069200Y-78282800D03*
X77165200Y-34340800D03*
X142341600Y-159258000D03*
X97129600Y-54711600D03*
X48666400Y-104902000D03*
X119583200Y-76200000D03*
D55*
X95628483Y-83705488D03*
X116225000Y-70500000D03*
X94400000Y-75200000D03*
D56*
X47955200Y-67106800D03*
D55*
X116275000Y-62500000D03*
D56*
X69189600Y-24739600D03*
D55*
X81175000Y-62325000D03*
D56*
X130810000Y-28549600D03*
X119735600Y-36118800D03*
D55*
X116200000Y-72800000D03*
X98119971Y-157875000D03*
X99275000Y-168600000D03*
X98875000Y-167350000D03*
X98700000Y-168950000D03*
X98150000Y-168125000D03*
X98975000Y-156950000D03*
D56*
X95825000Y-159500000D03*
X100975000Y-159350000D03*
X98350000Y-159300000D03*
X119025000Y-175400000D03*
X108975000Y-170475000D03*
X110693200Y-84785200D03*
X92456000Y-42214800D03*
X150977600Y-130708400D03*
X96824800Y-109982000D03*
X139039600Y-117957600D03*
X47650400Y-48006000D03*
X104775000Y-144800000D03*
X116789200Y-61112400D03*
X76758800Y-169265600D03*
X116382800Y-52933600D03*
D55*
X81775000Y-61925000D03*
D56*
X94589600Y-85902800D03*
X78181200Y-47853600D03*
X65532000Y-102006400D03*
X116738400Y-65024000D03*
X91846400Y-55829200D03*
X110693200Y-86156800D03*
X106934000Y-24942800D03*
X124358400Y-131572000D03*
X139649200Y-142798800D03*
X118465600Y-71882000D03*
X148082000Y-28854400D03*
X84582000Y-50038000D03*
X80822800Y-57759600D03*
X130200400Y-21996400D03*
X76250800Y-77063600D03*
X47955200Y-68986400D03*
X80924400Y-67462400D03*
X125679200Y-33274000D03*
X86461600Y-55626000D03*
X100482400Y-87020400D03*
X148031200Y-64566800D03*
X142490000Y-151176800D03*
X118059200Y-76149200D03*
X48260000Y-120446800D03*
X138176000Y-151841200D03*
X85902800Y-79197200D03*
X87239207Y-83847299D03*
X98044000Y-109626400D03*
X128524000Y-45364400D03*
X100076000Y-96469200D03*
X80670400Y-37439600D03*
X118059200Y-79146400D03*
X101041200Y-131318000D03*
X95910400Y-77927200D03*
X117144800Y-21234400D03*
X97129600Y-55727600D03*
X97332800Y-100482400D03*
X129692400Y-167182800D03*
X91846400Y-46380400D03*
X47701200Y-61874400D03*
X99872800Y-100533200D03*
X110337600Y-56743600D03*
X61264800Y-157937200D03*
X76708000Y-143002000D03*
X109158771Y-49982635D03*
X92025000Y-75184000D03*
X95214500Y-46771185D03*
X89103200Y-155498800D03*
X46278800Y-113182400D03*
X102158800Y-46888400D03*
X68732400Y-37185600D03*
X75692000Y-63855600D03*
X88900000Y-48971200D03*
X116687600Y-56235600D03*
X80162400Y-65735200D03*
X104190800Y-79400400D03*
D55*
X67411600Y-40792400D03*
X124764800Y-52222400D03*
X75742800Y-75590400D03*
X124510800Y-40436800D03*
X73964800Y-76657200D03*
D56*
X66090800Y-116789200D03*
D55*
X106832400Y-48260000D03*
X126644400Y-28600400D03*
D56*
X75082400Y-32359600D03*
D55*
X123647200Y-108559600D03*
X116281200Y-108712000D03*
X108845602Y-79931401D03*
X113334800Y-108864400D03*
X106426000Y-108762800D03*
X107086400Y-108204000D03*
X113334800Y-107899200D03*
X116332000Y-107797600D03*
X142544800Y-115519200D03*
X109373415Y-80043100D03*
X123748800Y-57810400D03*
X130708400Y-58877200D03*
X122986800Y-52882800D03*
X124002800Y-57150000D03*
X113233200Y-50749200D03*
X131521200Y-58826400D03*
X110591600Y-53492400D03*
X122529600Y-52273200D03*
X110591600Y-79654400D03*
X76758800Y-139700000D03*
X113030000Y-82854800D03*
X97434400Y-139446000D03*
X113748039Y-84032057D03*
X109884853Y-79689500D03*
X113233200Y-83870800D03*
X112420400Y-82550000D03*
X63652400Y-83616800D03*
X132334000Y-82600800D03*
X107238800Y-110439200D03*
X116128800Y-109880400D03*
X111353600Y-79705200D03*
X113792000Y-82550000D03*
X113284000Y-109829600D03*
X127558800Y-109220000D03*
X111607600Y-75946000D03*
X117703600Y-50241200D03*
X116789200Y-42875200D03*
X104038400Y-75946000D03*
X113639600Y-52425600D03*
X132029200Y-43230800D03*
X102870000Y-80010000D03*
X113861934Y-83343666D03*
X109726030Y-83159764D03*
X134620000Y-81940400D03*
X83718400Y-44500800D03*
X83820000Y-40995600D03*
X66090800Y-48361600D03*
X66243200Y-80314800D03*
X131876800Y-26466800D03*
X108686600Y-113665000D03*
X95046800Y-44805600D03*
X113792000Y-110845600D03*
X146304000Y-112776000D03*
X136702800Y-110794800D03*
X116027200Y-110845600D03*
X96570800Y-39827200D03*
D56*
X102819200Y-167436800D03*
X99822000Y-167741600D03*
X93675200Y-167690800D03*
X97129600Y-167690800D03*
D55*
X106172000Y-47853600D03*
X120548400Y-21082000D03*
X122377200Y-37998400D03*
X105664000Y-47447200D03*
X119430800Y-21132800D03*
X121107200Y-37033200D03*
X103581200Y-47498000D03*
X117856000Y-36068000D03*
X118364000Y-21132800D03*
X116128800Y-21132800D03*
X104648000Y-45466000D03*
X116128800Y-35458400D03*
X119532400Y-58877200D03*
X114046000Y-21132800D03*
X118516400Y-58724800D03*
X112928400Y-21132800D03*
D56*
X53898800Y-56794400D03*
X53949600Y-51816000D03*
X59283600Y-61671200D03*
X58115200Y-61163200D03*
X130759200Y-33223200D03*
X132689600Y-35356800D03*
X49428400Y-49326800D03*
X52984400Y-53797200D03*
X131419600Y-36220400D03*
X129946400Y-34493200D03*
D55*
X120040400Y-45059600D03*
X112268000Y-47091600D03*
X95148400Y-50495200D03*
X113284000Y-49987200D03*
X113334800Y-47396400D03*
X92608400Y-45923200D03*
X103327200Y-41757600D03*
X114350800Y-50088800D03*
X62890400Y-48260000D03*
X111404400Y-57353200D03*
X103327200Y-45008800D03*
D56*
X58521600Y-104597200D03*
X58826400Y-109524800D03*
D55*
X86055200Y-39268400D03*
X86918800Y-50546000D03*
X65138333Y-106466269D03*
X97891600Y-96520000D03*
X65328800Y-48209200D03*
X97739200Y-91338400D03*
X66548000Y-89763600D03*
X98501200Y-96570800D03*
X64668400Y-105562400D03*
X66141600Y-89255600D03*
X98348800Y-90576400D03*
X64312800Y-48260000D03*
X139039600Y-145592800D03*
X113385600Y-115874800D03*
X114909600Y-76454000D03*
X115976400Y-115874800D03*
X111556800Y-116840000D03*
X115620800Y-75946000D03*
X128727200Y-145034000D03*
X141427200Y-132283200D03*
X116027200Y-132283200D03*
X128727200Y-119583200D03*
X64058800Y-145034000D03*
X64058800Y-170434000D03*
X51358800Y-157734000D03*
X76758800Y-157734000D03*
X89458800Y-132334000D03*
X75844400Y-52832000D03*
X130251200Y-163931600D03*
X74980800Y-54051200D03*
X70002400Y-54508400D03*
X86664800Y-90525600D03*
X81584800Y-55778400D03*
X86766400Y-108813600D03*
X83667600Y-90525600D03*
X84785200Y-84886800D03*
X66237900Y-106472203D03*
X66237900Y-93426500D03*
X67614800Y-87223600D03*
X85699600Y-58420000D03*
X68834000Y-86664800D03*
X66700400Y-105613200D03*
X85140800Y-58928000D03*
X84175600Y-85140800D03*
X78333600Y-96621600D03*
X80575814Y-59689252D03*
X94894400Y-96723200D03*
X94742000Y-108864400D03*
X82448400Y-94386400D03*
X82042000Y-60045600D03*
X94183200Y-94437200D03*
X94234000Y-109982000D03*
X81205352Y-60760883D03*
X88950800Y-89763600D03*
X89255600Y-109677200D03*
X82804000Y-89763600D03*
X105650000Y-62175000D03*
X105675000Y-66050000D03*
X106575000Y-66700000D03*
X106500000Y-62225000D03*
X107175000Y-62925000D03*
X107300000Y-67425000D03*
X108050000Y-62275000D03*
X108025000Y-68075000D03*
X107975000Y-69075000D03*
X107300000Y-69750000D03*
X81838800Y-68478400D03*
X70459600Y-106426000D03*
X70408800Y-85090000D03*
X82092800Y-84886800D03*
X71272400Y-106426000D03*
X81076800Y-80822800D03*
X71272400Y-83058000D03*
X81026000Y-69088000D03*
X69900800Y-107035600D03*
X69748400Y-85902800D03*
X82346800Y-69443600D03*
X82296000Y-85953600D03*
X72085200Y-83058000D03*
X72136000Y-106375200D03*
X80924400Y-82397600D03*
X81026000Y-69951600D03*
X102311200Y-95656400D03*
X78943200Y-95758000D03*
X80619600Y-70408800D03*
X102260400Y-109931200D03*
X86475000Y-56650000D03*
X86200000Y-72375000D03*
X100075000Y-56625000D03*
X100000000Y-59300000D03*
X76403200Y-75488800D03*
X102450000Y-70425000D03*
X85700000Y-73400000D03*
X102450000Y-59450000D03*
X85775000Y-70575000D03*
X86925000Y-71200000D03*
X86750000Y-73825000D03*
X101650000Y-71125000D03*
X80772000Y-98247200D03*
X91186000Y-98247200D03*
X81764999Y-76236976D03*
X91236800Y-109728000D03*
X80619600Y-76809600D03*
X90728800Y-99009200D03*
X90779600Y-108864400D03*
X79603600Y-99161600D03*
X80213200Y-100076000D03*
X90170000Y-100177600D03*
X80933134Y-77264332D03*
X90271600Y-109728000D03*
X81381600Y-79603600D03*
X80365600Y-97282000D03*
X88798400Y-97434400D03*
X88798400Y-108864400D03*
X84734400Y-108813600D03*
X85902800Y-84582000D03*
X81788000Y-51460400D03*
X85344000Y-75946000D03*
X61366400Y-58267600D03*
X88036400Y-84074000D03*
X88290400Y-95046800D03*
X88036400Y-75895200D03*
X92252800Y-109778800D03*
X92354400Y-95097600D03*
X88747600Y-76149200D03*
X89560400Y-93624400D03*
X87325200Y-93624400D03*
X87274400Y-109829600D03*
X91795600Y-108915200D03*
X90728800Y-79756000D03*
X91135200Y-83312000D03*
X86360000Y-91643200D03*
X86207600Y-109778800D03*
X92049600Y-91592400D03*
X91694000Y-80111600D03*
X92303600Y-37084000D03*
X77114400Y-37084000D03*
X80111600Y-105664000D03*
X92151200Y-82702400D03*
X80264000Y-109626400D03*
X93000000Y-63975000D03*
X101600000Y-59425000D03*
X101675000Y-63950000D03*
X92675000Y-80111600D03*
X93125000Y-83875000D03*
X106650000Y-74925000D03*
X107825000Y-83550000D03*
X105700000Y-74875000D03*
X107150000Y-84025000D03*
X93725000Y-84400000D03*
X106425000Y-83600000D03*
X104850000Y-74750000D03*
X94225000Y-83675000D03*
X95000000Y-84875000D03*
X104050000Y-74700000D03*
X105700000Y-84375000D03*
X94700000Y-65425000D03*
X95225000Y-79750000D03*
X104925000Y-65425000D03*
X105125000Y-62950000D03*
X102975000Y-79000000D03*
X96062800Y-79806800D03*
X103175000Y-74650000D03*
X96725000Y-83675000D03*
X96774000Y-79806800D03*
X96225000Y-58925000D03*
X93625000Y-58900000D03*
X95100000Y-58250000D03*
X97675000Y-79850000D03*
X97400000Y-58700000D03*
X98348800Y-80060800D03*
X95950000Y-59600000D03*
X97875000Y-59300000D03*
X100200000Y-85825000D03*
X99425000Y-62875000D03*
X100000000Y-77025000D03*
X100899650Y-85675103D03*
X101417399Y-85523450D03*
X95975000Y-75825000D03*
X100725000Y-75900000D03*
X101600000Y-86250000D03*
X101225000Y-74700000D03*
X95250000Y-74125000D03*
X93600000Y-74625000D03*
X101825000Y-75400000D03*
X102100000Y-87025000D03*
X93650000Y-76500000D03*
X102175000Y-76500000D03*
X102505557Y-86288447D03*
X88341200Y-105664000D03*
X103225600Y-86563200D03*
X88239600Y-109677200D03*
X103124000Y-105664000D03*
X92760800Y-108915200D03*
X92760800Y-92100400D03*
X106883200Y-91795600D03*
X106883200Y-84836000D03*
X107848400Y-93573600D03*
X107848400Y-84175600D03*
X93472000Y-93624400D03*
X93268800Y-109728000D03*
X90373200Y-79248000D03*
X91225000Y-74650000D03*
X90425000Y-73761600D03*
X90678000Y-78130400D03*
X88825000Y-75438000D03*
X114401600Y-76911200D03*
X88825000Y-62150000D03*
X109950000Y-64550000D03*
X88775000Y-64550000D03*
X110150000Y-74450000D03*
X90450000Y-63425000D03*
X110475000Y-63475000D03*
X110725000Y-73850000D03*
X111250000Y-70425000D03*
X120634300Y-66900000D03*
X103500000Y-70425000D03*
X111225000Y-66925000D03*
X115675000Y-58625000D03*
X111252000Y-58318400D03*
X103375000Y-58525000D03*
X115625000Y-64825000D03*
X103875000Y-59200000D03*
X111302800Y-59385200D03*
X115125000Y-59385200D03*
X115125000Y-64275000D03*
X93843300Y-102260400D03*
X93726000Y-108864400D03*
X122428000Y-63804800D03*
X113690400Y-102108000D03*
X95351600Y-102514400D03*
X95250000Y-109931200D03*
X113741200Y-102920800D03*
X123139200Y-63398400D03*
X109450000Y-74500000D03*
X100800000Y-73975000D03*
X109550000Y-62800000D03*
X83718400Y-103936800D03*
X124053600Y-59486800D03*
X112776000Y-103835200D03*
X83769200Y-108813600D03*
X122869500Y-58623200D03*
X82753200Y-104749600D03*
X82753200Y-108813600D03*
X112725200Y-104749600D03*
X113080800Y-100330000D03*
X111225000Y-48775000D03*
X87782400Y-108864400D03*
X87833200Y-101193600D03*
X120396000Y-69189600D03*
X110998000Y-46278800D03*
X129336800Y-42062400D03*
X96977200Y-89408000D03*
X113538000Y-88900000D03*
X96926400Y-96469200D03*
X126898400Y-69240400D03*
X114350800Y-42468800D03*
X130251200Y-40995600D03*
X113334800Y-42773600D03*
X108610400Y-47447200D03*
X89763600Y-108864400D03*
X113131600Y-101549200D03*
X89814400Y-101752400D03*
X108050000Y-48650000D03*
X90017600Y-48514000D03*
X107746800Y-53492400D03*
X89001600Y-45415200D03*
X59944000Y-59131200D03*
X107289600Y-54965600D03*
X91490800Y-53441600D03*
X104300000Y-62950000D03*
X104775000Y-54000000D03*
X91300000Y-62875000D03*
X104325000Y-54425000D03*
X92825000Y-62350000D03*
X104050000Y-62325000D03*
X112522000Y-92913200D03*
X83210400Y-92913200D03*
X83210400Y-109677200D03*
X102325000Y-48550000D03*
X131267200Y-159867600D03*
X131927600Y-160985200D03*
X132638800Y-158902400D03*
X112674400Y-102920800D03*
X84277200Y-102920800D03*
X98525000Y-47975000D03*
X84277200Y-109728000D03*
X97775000Y-47875000D03*
X74269600Y-102920800D03*
X82245200Y-102920800D03*
X82255500Y-109677200D03*
X100800000Y-58750000D03*
X95525000Y-49275000D03*
X101750000Y-49750000D03*
X133400800Y-162001200D03*
X85242400Y-109728000D03*
X87050000Y-47990700D03*
X75895200Y-101904800D03*
X85242400Y-101854000D03*
X85852000Y-100939600D03*
X77165200Y-100990400D03*
X85750400Y-108813600D03*
X86575000Y-48825000D03*
X99200000Y-58675000D03*
X99200000Y-48700000D03*
X91275000Y-48750000D03*
X98275000Y-53975000D03*
X100027443Y-70822738D03*
X87630000Y-49276000D03*
X87477600Y-40233600D03*
X86918800Y-38811200D03*
X87172800Y-49936400D03*
X86563200Y-84937600D03*
X87731600Y-84785200D03*
D56*
X70104000Y-81838800D03*
X75590400Y-58216800D03*
X135686800Y-79451200D03*
X136448800Y-105714800D03*
X109075000Y-153700000D03*
X117525000Y-157800000D03*
X104394000Y-158496000D03*
X118175000Y-161544000D03*
X127475000Y-175225000D03*
D57*
X98044000Y-109778800D02*
X98044000Y-109626400D01*
X97255500Y-110567300D02*
X98044000Y-109778800D01*
X97255500Y-111690000D02*
X97255500Y-110567300D01*
D58*
X73025000Y-59550000D02*
X70879000Y-57404000D01*
X73025000Y-60300000D02*
X73025000Y-59550000D01*
X77571600Y-59893200D02*
X77164800Y-60300000D01*
X79044800Y-59893200D02*
X77571600Y-59893200D01*
X79925000Y-61941800D02*
X79756000Y-61772800D01*
X79756000Y-61772800D02*
X79756000Y-60604400D01*
X79756000Y-60604400D02*
X79044800Y-59893200D01*
X77164800Y-60300000D02*
X73025000Y-60300000D01*
X79925000Y-62200000D02*
X79925000Y-61941800D01*
X76032400Y-65598000D02*
X78232000Y-65598000D01*
X74930400Y-66700000D02*
X76032400Y-65598000D01*
X73025000Y-66700000D02*
X74930400Y-66700000D01*
X80025200Y-65598000D02*
X80162400Y-65735200D01*
X78232000Y-65598000D02*
X80025200Y-65598000D01*
D59*
X117500400Y-139598400D02*
X117500400Y-136296400D01*
D60*
X58115200Y-148132800D02*
X53340000Y-143357600D01*
X49885600Y-114858800D02*
X49885600Y-108915200D01*
X55168800Y-88188800D02*
X55715400Y-88188800D01*
X122885200Y-149606000D02*
X116281200Y-143002000D01*
X74269600Y-148132800D02*
X58115200Y-148132800D01*
X74371200Y-148234400D02*
X74269600Y-148132800D01*
X75844400Y-146761200D02*
X74371200Y-148234400D01*
X47345600Y-106375200D02*
X47345600Y-100685600D01*
X104800400Y-143002000D02*
X103378000Y-144424400D01*
X101193600Y-146608800D02*
X100787200Y-146608800D01*
X49885600Y-108915200D02*
X47345600Y-106375200D01*
X54457600Y-93573600D02*
X54457600Y-88900000D01*
X54457600Y-88900000D02*
X55168800Y-88188800D01*
X47345600Y-100685600D02*
X54457600Y-93573600D01*
X46583600Y-124206000D02*
X46583600Y-118160800D01*
X53340000Y-143357600D02*
X53340000Y-130962400D01*
X46583600Y-118160800D02*
X49885600Y-114858800D01*
X53340000Y-130962400D02*
X46583600Y-124206000D01*
X105968800Y-143002000D02*
X104800400Y-143002000D01*
X116281200Y-143002000D02*
X105968800Y-143002000D01*
X103378000Y-144424400D02*
X101193600Y-146608800D01*
X96672400Y-146761200D02*
X75844400Y-146761200D01*
D59*
X113100000Y-72925000D02*
X116075000Y-72925000D01*
D57*
X109995000Y-45961000D02*
X110540800Y-45415200D01*
X112166400Y-45415200D02*
X112623600Y-45872400D01*
X103391000Y-100076000D02*
X104800400Y-100076000D01*
X106680000Y-29819600D02*
X106629200Y-29870400D01*
D59*
X116175000Y-65925000D02*
X116250000Y-66000000D01*
X89675000Y-52000000D02*
X89675000Y-49775000D01*
X113100000Y-75425000D02*
X116075000Y-75425000D01*
D57*
X69437500Y-142007500D02*
X69930100Y-142007500D01*
D59*
X113100000Y-55425000D02*
X116025000Y-55425000D01*
D57*
X110540800Y-45415200D02*
X112166400Y-45415200D01*
X57315400Y-85110800D02*
X58694800Y-85110800D01*
X76621600Y-67498000D02*
X75488800Y-68630800D01*
X99733400Y-94983000D02*
X99720400Y-94996000D01*
D59*
X96675000Y-52000000D02*
X96675000Y-49900000D01*
D57*
X69329000Y-57404000D02*
X67970400Y-57404000D01*
D59*
X69750000Y-72225000D02*
X68313000Y-73662000D01*
X82102368Y-61394271D02*
X80726821Y-61394271D01*
D57*
X119647000Y-74676000D02*
X119647000Y-76136200D01*
X109016800Y-28956000D02*
X108966000Y-28905200D01*
X57365400Y-90698800D02*
X58704000Y-90698800D01*
X75425400Y-73825000D02*
X75692000Y-73558400D01*
X82614200Y-67425000D02*
X81991200Y-66802000D01*
D61*
X104175000Y-84825700D02*
X104225000Y-84875700D01*
D57*
X62382400Y-95504000D02*
X62331600Y-95453200D01*
X119647000Y-53848000D02*
X119647000Y-53810200D01*
X145637500Y-129307500D02*
X145637500Y-128530100D01*
X119647000Y-65417400D02*
X120548400Y-64516000D01*
X98869000Y-35052000D02*
X100380800Y-35052000D01*
X119647000Y-60452000D02*
X119647000Y-61976000D01*
X114858800Y-28956000D02*
X109016800Y-28956000D01*
X68313000Y-74168000D02*
X67056000Y-74168000D01*
X115329400Y-67425000D02*
X115722400Y-67818000D01*
X78232000Y-61534000D02*
X75829200Y-61534000D01*
X129299000Y-24625000D02*
X129387600Y-24536400D01*
X53301400Y-92647000D02*
X53289200Y-92659200D01*
D59*
X100675000Y-49825700D02*
X100775000Y-49725700D01*
X95675000Y-83658971D02*
X95628483Y-83705488D01*
D57*
X105293200Y-87818000D02*
X106172000Y-88696800D01*
X86675000Y-81350000D02*
X86675000Y-83169800D01*
D59*
X113100000Y-70425000D02*
X116150000Y-70425000D01*
D57*
X134823200Y-114721800D02*
X134823200Y-113284000D01*
X96520000Y-45961000D02*
X96520000Y-44856400D01*
X115824000Y-27699000D02*
X115824000Y-27990800D01*
X94837500Y-129307500D02*
X96193700Y-129307500D01*
X97231200Y-128270000D02*
X97891600Y-127609600D01*
X58694800Y-85110800D02*
X58724800Y-85140800D01*
X119647000Y-65532000D02*
X119647000Y-65417400D01*
D59*
X113100000Y-65925000D02*
X116175000Y-65925000D01*
D57*
X145637500Y-128530100D02*
X146964400Y-127203200D01*
D59*
X83750000Y-62425000D02*
X83749300Y-62425700D01*
X83750000Y-61425000D02*
X82133097Y-61425000D01*
D57*
X76962000Y-70104000D02*
X75488800Y-68630800D01*
X77457000Y-56896000D02*
X75438000Y-56896000D01*
X86675000Y-83169800D02*
X86715600Y-83210400D01*
X103378000Y-110693200D02*
X104140000Y-109931200D01*
X123342400Y-60452000D02*
X123799600Y-60909200D01*
D59*
X116075000Y-72925000D02*
X116200000Y-72800000D01*
D57*
X99987400Y-87643000D02*
X100584000Y-88239600D01*
X62572600Y-101383800D02*
X61772800Y-100584000D01*
X84670600Y-87643000D02*
X84378800Y-87934800D01*
X120237500Y-128377700D02*
X121615200Y-127000000D01*
X74125000Y-73825000D02*
X75425400Y-73825000D01*
D59*
X74125000Y-73825000D02*
X73752400Y-73825000D01*
D57*
X132937500Y-142007500D02*
X133074500Y-142007500D01*
X77965000Y-78232000D02*
X76911200Y-78232000D01*
X119647000Y-73152000D02*
X119647000Y-71844200D01*
X103255500Y-110815700D02*
X103378000Y-110693200D01*
D59*
X113100000Y-77425000D02*
X115725000Y-77425000D01*
D57*
X57077700Y-154707500D02*
X58369200Y-153416000D01*
X119822000Y-54023000D02*
X119647000Y-53848000D01*
D59*
X109675000Y-52000000D02*
X109700000Y-51975000D01*
D57*
X110486614Y-87643000D02*
X110571007Y-87558607D01*
D59*
X108675000Y-81350000D02*
X108675000Y-84093968D01*
X81540391Y-78425000D02*
X81413540Y-78551851D01*
D57*
X104140000Y-109931200D02*
X104140000Y-109728000D01*
X103255500Y-111690000D02*
X103255500Y-110815700D01*
X84595000Y-45961000D02*
X84429600Y-46126400D01*
X71729600Y-166674800D02*
X71932800Y-166471600D01*
X119647000Y-76136200D02*
X119583200Y-76200000D01*
X97891600Y-127609600D02*
X97891600Y-126593600D01*
X67970400Y-57404000D02*
X67818000Y-57556400D01*
D59*
X116150000Y-70425000D02*
X116225000Y-70500000D01*
D57*
X98425000Y-99337500D02*
X98425000Y-100304600D01*
X70996900Y-167407500D02*
X71729600Y-166674800D01*
D59*
X72377000Y-70104000D02*
X71925000Y-70556000D01*
D57*
X67188400Y-106801600D02*
X67767200Y-106222800D01*
D59*
X113100000Y-62425000D02*
X116200000Y-62425000D01*
X83750000Y-56425000D02*
X80625000Y-56425000D01*
D57*
X83750000Y-67425000D02*
X82614200Y-67425000D01*
D59*
X96675000Y-49900000D02*
X96750000Y-49825000D01*
D57*
X53301400Y-91206800D02*
X53301400Y-92647000D01*
X102755500Y-110401300D02*
X102971600Y-110185200D01*
X129299000Y-25908000D02*
X129299000Y-24625000D01*
X119647000Y-71844200D02*
X119634000Y-71831200D01*
D59*
X73752400Y-73825000D02*
X72152400Y-72225000D01*
X86175000Y-52000000D02*
X86175000Y-49614900D01*
D57*
X76911200Y-78232000D02*
X76200000Y-78943200D01*
X62572600Y-102108000D02*
X62572600Y-101383800D01*
D59*
X109700000Y-50459301D02*
X109952104Y-50207197D01*
D57*
X102971600Y-110185200D02*
X102971600Y-109067600D01*
X133074500Y-142007500D02*
X135382000Y-139700000D01*
D59*
X83750000Y-78425000D02*
X81540391Y-78425000D01*
X100675000Y-52000000D02*
X100675000Y-49825700D01*
X68313000Y-73662000D02*
X68313000Y-74168000D01*
D57*
X77618200Y-76038800D02*
X76869200Y-76038800D01*
D59*
X115725000Y-77425000D02*
X115825000Y-77325000D01*
X98675000Y-81350000D02*
X98675000Y-83600000D01*
D57*
X119647000Y-77724000D02*
X119647000Y-79235000D01*
X109728000Y-45961000D02*
X109995000Y-45961000D01*
D59*
X86175000Y-49614900D02*
X86214900Y-49575000D01*
D57*
X82137500Y-154707500D02*
X82477700Y-154707500D01*
X106680000Y-28382000D02*
X106680000Y-29819600D01*
X76869200Y-76038800D02*
X76708000Y-76200000D01*
X48024400Y-67176000D02*
X47955200Y-67106800D01*
X69437500Y-167407500D02*
X70996900Y-167407500D01*
D59*
X89675000Y-49775000D02*
X89700000Y-49750000D01*
D57*
X72710000Y-78232000D02*
X71120000Y-78232000D01*
X109220000Y-87643000D02*
X110486614Y-87643000D01*
X100584000Y-45961000D02*
X101663800Y-45961000D01*
X105156000Y-87818000D02*
X105293200Y-87818000D01*
X94805800Y-87643000D02*
X94640400Y-87477600D01*
X98425000Y-100304600D02*
X98653600Y-100533200D01*
X119647000Y-60452000D02*
X123342400Y-60452000D01*
D59*
X116075000Y-75425000D02*
X116200000Y-75550000D01*
D57*
X98925000Y-99337500D02*
X98925000Y-100261800D01*
X49517000Y-67176000D02*
X48024400Y-67176000D01*
D59*
X109700000Y-51975000D02*
X109700000Y-50459301D01*
X95675000Y-81350000D02*
X95675000Y-83658971D01*
D57*
X96193700Y-129307500D02*
X97231200Y-128270000D01*
X96177800Y-97675000D02*
X95554800Y-98298000D01*
D59*
X72152400Y-72225000D02*
X71925000Y-72225000D01*
D57*
X119647000Y-53810200D02*
X117551200Y-51714400D01*
D59*
X71925000Y-70556000D02*
X71925000Y-72225000D01*
D57*
X53251400Y-83908600D02*
X53543200Y-83616800D01*
X63792600Y-95504000D02*
X62382400Y-95504000D01*
X67056000Y-74168000D02*
X66852800Y-74371200D01*
X72377000Y-69329000D02*
X71932800Y-68884800D01*
X56737500Y-154707500D02*
X57077700Y-154707500D01*
X85852000Y-45961000D02*
X84595000Y-45961000D01*
X97262500Y-97675000D02*
X96177800Y-97675000D01*
D59*
X82133097Y-61425000D02*
X82102368Y-61394271D01*
D57*
X120237500Y-129307500D02*
X120237500Y-128377700D01*
X113100000Y-67425000D02*
X115329400Y-67425000D01*
X102971600Y-109067600D02*
X103022400Y-109016800D01*
X129349000Y-28448000D02*
X130708400Y-28448000D01*
D59*
X81275700Y-62425700D02*
X81175000Y-62325000D01*
X116200000Y-62425000D02*
X116275000Y-62500000D01*
D61*
X104175000Y-81350000D02*
X104175000Y-84825700D01*
D57*
X132937500Y-116607500D02*
X134823200Y-114721800D01*
X97262500Y-98175000D02*
X95677800Y-98175000D01*
X104800400Y-100076000D02*
X104851200Y-100025200D01*
X115824000Y-27990800D02*
X114858800Y-28956000D01*
D59*
X83750000Y-74425000D02*
X81425000Y-74425000D01*
D57*
X58704000Y-90698800D02*
X58724800Y-90678000D01*
X99060000Y-87643000D02*
X99987400Y-87643000D01*
X102755500Y-111690000D02*
X102755500Y-110401300D01*
X101346000Y-94983000D02*
X99733400Y-94983000D01*
X76708000Y-76200000D02*
X75184000Y-76200000D01*
X75438000Y-56896000D02*
X75387200Y-56946800D01*
X96012000Y-87643000D02*
X94805800Y-87643000D01*
X86868000Y-87643000D02*
X84670600Y-87643000D01*
D59*
X108675000Y-84093968D02*
X108527235Y-84241733D01*
D57*
X130708400Y-28448000D02*
X130810000Y-28549600D01*
X77965000Y-75692000D02*
X77618200Y-76038800D01*
D59*
X98675000Y-83600000D02*
X98625000Y-83650000D01*
D57*
X71120000Y-78232000D02*
X71069200Y-78282800D01*
X95931800Y-98675000D02*
X95554800Y-98298000D01*
X101663800Y-45961000D02*
X102108000Y-45516800D01*
X119647000Y-79235000D02*
X119634000Y-79248000D01*
X82477700Y-154707500D02*
X84582000Y-152603200D01*
X67188400Y-107757800D02*
X67188400Y-106801600D01*
X71932800Y-166471600D02*
X71932800Y-166217600D01*
D59*
X83749300Y-62425700D02*
X81275700Y-62425700D01*
D57*
X97262500Y-98675000D02*
X95931800Y-98675000D01*
X78232000Y-67498000D02*
X76621600Y-67498000D01*
D59*
X81425000Y-74425000D02*
X81400000Y-74400000D01*
D57*
X98925000Y-100261800D02*
X98653600Y-100533200D01*
D59*
X80625000Y-56425000D02*
X80525000Y-56325000D01*
D57*
X95677800Y-98175000D02*
X95554800Y-98298000D01*
X53251400Y-85170800D02*
X53251400Y-83908600D01*
X72377000Y-70104000D02*
X72377000Y-69329000D01*
D59*
X71925000Y-72225000D02*
X69750000Y-72225000D01*
D57*
X77965000Y-70104000D02*
X76962000Y-70104000D01*
X69930100Y-142007500D02*
X72034400Y-139903200D01*
X135382000Y-139700000D02*
X136385000Y-139700000D01*
X75829200Y-61534000D02*
X75692000Y-61671200D01*
X119822000Y-55880000D02*
X119822000Y-54023000D01*
D62*
X114411837Y-86644363D02*
X114411837Y-117205637D01*
X105011837Y-126605637D02*
X105011837Y-137430637D01*
X111142474Y-83375000D02*
X114411837Y-86644363D01*
D59*
X110900000Y-83125000D02*
X111150000Y-83375000D01*
D62*
X111150000Y-83375000D02*
X111142474Y-83375000D01*
X105011837Y-137430637D02*
X98161836Y-144280638D01*
X114411837Y-117205637D02*
X105011837Y-126605637D01*
D59*
X110675000Y-82950000D02*
X110850000Y-83125000D01*
X110850000Y-83125000D02*
X110900000Y-83125000D01*
X98875000Y-168200000D02*
X99275000Y-168600000D01*
X98875000Y-167350000D02*
X98875000Y-168200000D01*
X110675000Y-81350000D02*
X110675000Y-82950000D01*
D62*
X98161836Y-144280638D02*
X98161836Y-157833135D01*
X98161836Y-157833135D02*
X98119971Y-157875000D01*
D59*
X98150000Y-168125000D02*
X98150000Y-168400000D01*
D62*
X111400000Y-82825000D02*
X111407526Y-82825000D01*
D59*
X111175000Y-81350000D02*
X111175000Y-82600000D01*
D62*
X98738164Y-156750000D02*
X98775000Y-156750000D01*
X114988163Y-117444363D02*
X105588163Y-126844363D01*
X105588163Y-126844363D02*
X105588163Y-137669363D01*
X114988163Y-86405637D02*
X114988163Y-117444363D01*
D59*
X98150000Y-168400000D02*
X98700000Y-168950000D01*
D62*
X105588163Y-137669363D02*
X98738164Y-144519362D01*
X98775000Y-156750000D02*
X98975000Y-156950000D01*
X98738164Y-144519362D02*
X98738164Y-156750000D01*
X111407526Y-82825000D02*
X114988163Y-86405637D01*
D59*
X111175000Y-82600000D02*
X111400000Y-82825000D01*
D57*
X110185200Y-81360200D02*
X110185200Y-82854800D01*
D60*
X75285600Y-149098000D02*
X57099200Y-149098000D01*
D57*
X110175000Y-81350000D02*
X110185200Y-81360200D01*
X110273800Y-83116182D02*
X110634340Y-83476722D01*
D60*
X98150000Y-159500000D02*
X98350000Y-159300000D01*
D57*
X110634340Y-83476722D02*
X110634340Y-84726340D01*
D60*
X109575000Y-172725000D02*
X112250000Y-175400000D01*
X112250000Y-175400000D02*
X119025000Y-175400000D01*
X100975000Y-159350000D02*
X98400000Y-159350000D01*
X48564800Y-114706400D02*
X48564800Y-109169200D01*
X108975000Y-168650000D02*
X108975000Y-170475000D01*
X45516800Y-117754400D02*
X48564800Y-114706400D01*
D57*
X110185200Y-82854800D02*
X110273800Y-82943400D01*
D60*
X93827600Y-147878800D02*
X76504800Y-147878800D01*
X108975000Y-172125000D02*
X109575000Y-172725000D01*
X48564800Y-109169200D02*
X46228000Y-106832400D01*
X46228000Y-91948000D02*
X49885600Y-88290400D01*
X49885600Y-88290400D02*
X51519800Y-88290400D01*
X108975000Y-167350000D02*
X108975000Y-168650000D01*
D57*
X110634340Y-84726340D02*
X110693200Y-84785200D01*
X110273800Y-82943400D02*
X110273800Y-83116182D01*
D60*
X108975000Y-170475000D02*
X108975000Y-172125000D01*
X57099200Y-149098000D02*
X52070000Y-144068800D01*
X46228000Y-106832400D02*
X46228000Y-91948000D01*
X52070000Y-144068800D02*
X52070000Y-131521200D01*
X98400000Y-159350000D02*
X98350000Y-159300000D01*
X95825000Y-149876200D02*
X93827600Y-147878800D01*
X51519800Y-88290400D02*
X51651400Y-88158800D01*
X52070000Y-131521200D02*
X45516800Y-124968000D01*
X95825000Y-159500000D02*
X98150000Y-159500000D01*
X100975000Y-159350000D02*
X108975000Y-167350000D01*
X95825000Y-159500000D02*
X95825000Y-149876200D01*
X76504800Y-147878800D02*
X75285600Y-149098000D01*
X45516800Y-124968000D02*
X45516800Y-117754400D01*
D61*
X79350000Y-63425000D02*
X79341000Y-63434000D01*
X117002000Y-53848000D02*
X118097000Y-53848000D01*
D57*
X79515000Y-75692000D02*
X79515000Y-77063600D01*
D61*
X109175000Y-83350618D02*
X109220000Y-83395618D01*
D57*
X117087600Y-61112400D02*
X116789200Y-61112400D01*
D61*
X113100000Y-73425000D02*
X117824000Y-73425000D01*
X87175000Y-83667600D02*
X87175000Y-83783092D01*
X113100000Y-77925000D02*
X117896000Y-77925000D01*
D57*
X96520000Y-47511000D02*
X95954315Y-47511000D01*
X78931000Y-49784000D02*
X78931000Y-48603400D01*
X95954315Y-47511000D02*
X95214500Y-46771185D01*
X80873600Y-57708800D02*
X80822800Y-57759600D01*
X117144800Y-21234400D02*
X117144800Y-23977600D01*
D61*
X87175000Y-82925782D02*
X87241700Y-82992482D01*
D57*
X65430400Y-102108000D02*
X65532000Y-102006400D01*
D61*
X109175000Y-49998864D02*
X109158771Y-49982635D01*
D57*
X81387000Y-67925000D02*
X80924400Y-67462400D01*
D61*
X96175000Y-52000000D02*
X96175000Y-47856000D01*
D57*
X106969600Y-26771600D02*
X106680000Y-26482000D01*
X109118400Y-26771600D02*
X106969600Y-26771600D01*
X91681800Y-46545000D02*
X91846400Y-46380400D01*
D61*
X100584000Y-48900489D02*
X100584000Y-47511000D01*
X116425000Y-54425000D02*
X117002000Y-53848000D01*
X109175000Y-52000000D02*
X109175000Y-49998864D01*
D57*
X109175000Y-49733200D02*
X109175000Y-49966406D01*
D61*
X109175000Y-49733200D02*
X109175000Y-48064000D01*
X118046000Y-61925000D02*
X118097000Y-61976000D01*
X79822000Y-77925000D02*
X79515000Y-78232000D01*
X86461600Y-79654400D02*
X86004400Y-79197200D01*
D57*
X94779800Y-86093000D02*
X94589600Y-85902800D01*
D61*
X79782000Y-75425000D02*
X79515000Y-75692000D01*
X87175000Y-80367800D02*
X86461600Y-79654400D01*
X83750000Y-56925000D02*
X80873600Y-56925000D01*
D57*
X117144800Y-23977600D02*
X115824000Y-25298400D01*
X110095800Y-27749000D02*
X109118400Y-26771600D01*
D61*
X85675000Y-50088800D02*
X85675000Y-47688000D01*
D57*
X99060000Y-96570800D02*
X99161600Y-96469200D01*
D61*
X87175000Y-81350000D02*
X87175000Y-82925782D01*
D57*
X96755500Y-111690000D02*
X96755500Y-110051300D01*
X81400000Y-67925000D02*
X81387000Y-67925000D01*
X112776000Y-27749000D02*
X110095800Y-27749000D01*
X98925000Y-97397500D02*
X99060000Y-97262500D01*
X99060000Y-97262500D02*
X99060000Y-96570800D01*
D61*
X83750000Y-67925000D02*
X81400000Y-67925000D01*
D57*
X100584000Y-47511000D02*
X101536200Y-47511000D01*
D61*
X113100000Y-61925000D02*
X116941600Y-61925000D01*
D57*
X109220000Y-86093000D02*
X110629400Y-86093000D01*
X100139800Y-96533000D02*
X100076000Y-96469200D01*
X116636800Y-65425000D02*
X116636800Y-65125600D01*
D61*
X83750000Y-63425000D02*
X79350000Y-63425000D01*
D57*
X80873600Y-56925000D02*
X80873600Y-57708800D01*
X96012000Y-86093000D02*
X94779800Y-86093000D01*
D61*
X117090800Y-61109200D02*
X117748000Y-60452000D01*
X113100000Y-74925000D02*
X117848000Y-74925000D01*
D57*
X65532000Y-103073200D02*
X65532000Y-102006400D01*
X106680000Y-25196800D02*
X106934000Y-24942800D01*
D61*
X109175000Y-81350000D02*
X109175000Y-83350618D01*
D57*
X78931000Y-48603400D02*
X78181200Y-47853600D01*
X49467000Y-68884800D02*
X48056800Y-68884800D01*
X118097000Y-73152000D02*
X118097000Y-72250600D01*
D61*
X109220000Y-83395618D02*
X109220000Y-86093000D01*
D57*
X64122600Y-102108000D02*
X65430400Y-102108000D01*
X116789200Y-61112400D02*
X116789200Y-61772600D01*
X118097000Y-79108600D02*
X118059200Y-79146400D01*
D61*
X85675000Y-52000000D02*
X85675000Y-50088800D01*
D57*
X91732600Y-41491400D02*
X92456000Y-42214800D01*
D61*
X113100000Y-54425000D02*
X116425000Y-54425000D01*
X116941600Y-61925000D02*
X118046000Y-61925000D01*
X117848000Y-74925000D02*
X118097000Y-74676000D01*
D57*
X118097000Y-72250600D02*
X118465600Y-71882000D01*
D61*
X83750000Y-75425000D02*
X79782000Y-75425000D01*
X100175000Y-52000000D02*
X100199301Y-51975699D01*
X96175000Y-85930000D02*
X96012000Y-86093000D01*
X81400000Y-67925000D02*
X79515000Y-69810000D01*
D57*
X118097000Y-74676000D02*
X118097000Y-76111400D01*
X65684400Y-103225600D02*
X65532000Y-103073200D01*
X85675000Y-50088800D02*
X84632800Y-50088800D01*
X115824000Y-26225000D02*
X114300000Y-27749000D01*
X117002000Y-53552800D02*
X116382800Y-52933600D01*
X117090800Y-61109200D02*
X117087600Y-61112400D01*
D61*
X87241700Y-83600900D02*
X87175000Y-83667600D01*
X79036000Y-56925000D02*
X79007000Y-56896000D01*
X87175000Y-83783092D02*
X87239207Y-83847299D01*
D57*
X48056800Y-68884800D02*
X47955200Y-68986400D01*
X76113600Y-63434000D02*
X75692000Y-63855600D01*
D61*
X86004400Y-79197200D02*
X85902800Y-79197200D01*
X83750000Y-77925000D02*
X79822000Y-77925000D01*
D57*
X101346000Y-96533000D02*
X100139800Y-96533000D01*
X117856000Y-27749000D02*
X119380000Y-27749000D01*
X115824000Y-26149000D02*
X115824000Y-26225000D01*
D61*
X96175000Y-81350000D02*
X96175000Y-85930000D01*
X117824000Y-73425000D02*
X118097000Y-73152000D01*
D57*
X114300000Y-27749000D02*
X112776000Y-27749000D01*
D61*
X96175000Y-47856000D02*
X96520000Y-47511000D01*
D57*
X98925000Y-97512500D02*
X98925000Y-97397500D01*
X100228400Y-100533200D02*
X99872800Y-100533200D01*
X78232000Y-63434000D02*
X76113600Y-63434000D01*
X99161600Y-96469200D02*
X100076000Y-96469200D01*
X97925000Y-99890200D02*
X97332800Y-100482400D01*
D61*
X109175000Y-48064000D02*
X109728000Y-47511000D01*
X87175000Y-83667600D02*
X87175000Y-85786000D01*
D57*
X118097000Y-76111400D02*
X118059200Y-76149200D01*
X100685600Y-100076000D02*
X100228400Y-100533200D01*
X101536200Y-47511000D02*
X102158800Y-46888400D01*
D61*
X99175000Y-85978000D02*
X99060000Y-86093000D01*
D57*
X99784600Y-99175000D02*
X100685600Y-100076000D01*
X99060000Y-86093000D02*
X99555000Y-86093000D01*
D61*
X80873600Y-56925000D02*
X79036000Y-56925000D01*
X100199301Y-49285188D02*
X100584000Y-48900489D01*
X79515000Y-69810000D02*
X79515000Y-70104000D01*
X87175000Y-85786000D02*
X86868000Y-86093000D01*
D57*
X115824000Y-25298400D02*
X115824000Y-26149000D01*
D61*
X100199301Y-51975699D02*
X100199301Y-49285188D01*
D59*
X83750000Y-61925000D02*
X81775000Y-61925000D01*
D61*
X87241700Y-82992482D02*
X87241700Y-83600900D01*
D57*
X115824000Y-26149000D02*
X116256000Y-26149000D01*
X97925000Y-99337500D02*
X97925000Y-99890200D01*
X119380000Y-27749000D02*
X121412000Y-27749000D01*
X96755500Y-110051300D02*
X96824800Y-109982000D01*
D61*
X116636800Y-65425000D02*
X117990000Y-65425000D01*
D57*
X90170000Y-41491400D02*
X91732600Y-41491400D01*
X75082400Y-78232000D02*
X76250800Y-77063600D01*
X99587500Y-99175000D02*
X99784600Y-99175000D01*
D61*
X85675000Y-47688000D02*
X85852000Y-47511000D01*
D57*
X90170000Y-46545000D02*
X91681800Y-46545000D01*
D61*
X87175000Y-81350000D02*
X87175000Y-80367800D01*
D57*
X116636800Y-65125600D02*
X116738400Y-65024000D01*
X65688400Y-107757800D02*
X65688400Y-103229600D01*
X100685600Y-100076000D02*
X101841000Y-100076000D01*
D61*
X113100000Y-61425000D02*
X116775000Y-61425000D01*
X117990000Y-65425000D02*
X118097000Y-65532000D01*
D57*
X118097000Y-77724000D02*
X118097000Y-79108600D01*
X110629400Y-86093000D02*
X110693200Y-86156800D01*
X106680000Y-26482000D02*
X106680000Y-25196800D01*
D61*
X116775000Y-61425000D02*
X117090800Y-61109200D01*
D57*
X79515000Y-77063600D02*
X79515000Y-78232000D01*
X65688400Y-103229600D02*
X65684400Y-103225600D01*
X109175000Y-49966406D02*
X109158771Y-49982635D01*
X79515000Y-77063600D02*
X76250800Y-77063600D01*
X116789200Y-61772600D02*
X116941600Y-61925000D01*
D61*
X99175000Y-81350000D02*
X99175000Y-85978000D01*
X117896000Y-77925000D02*
X118097000Y-77724000D01*
X113100000Y-65425000D02*
X116636800Y-65425000D01*
D57*
X84632800Y-50088800D02*
X84582000Y-50038000D01*
X99555000Y-86093000D02*
X100482400Y-87020400D01*
X74610000Y-78232000D02*
X75082400Y-78232000D01*
D61*
X117748000Y-60452000D02*
X118097000Y-60452000D01*
D57*
X117002000Y-53848000D02*
X117002000Y-53552800D01*
D61*
X79341000Y-63434000D02*
X78232000Y-63434000D01*
D57*
X116256000Y-26149000D02*
X117856000Y-27749000D01*
D63*
X80525000Y-62800000D02*
X80675000Y-62950000D01*
X79925000Y-62200000D02*
X80525000Y-62800000D01*
D61*
X82375000Y-62925000D02*
X82350000Y-62950000D01*
X83750000Y-62925000D02*
X82375000Y-62925000D01*
D63*
X80675000Y-62950000D02*
X82350000Y-62950000D01*
D57*
X90373200Y-50444400D02*
X90373200Y-49174400D01*
D61*
X103675000Y-81350000D02*
X103648900Y-81376100D01*
X103648900Y-85648900D02*
X103918000Y-85918000D01*
X113100000Y-55925000D02*
X113126100Y-55951100D01*
X104675000Y-81350000D02*
X104675000Y-79884600D01*
D57*
X88675000Y-52000000D02*
X88675000Y-49196200D01*
D61*
X116940900Y-54898900D02*
X117922000Y-55880000D01*
X113126100Y-55951100D02*
X117094000Y-55951100D01*
X80350000Y-63925000D02*
X78677000Y-65598000D01*
X103918000Y-85918000D02*
X105156000Y-85918000D01*
X117094000Y-55951100D02*
X116972100Y-55951100D01*
X83750000Y-63925000D02*
X80350000Y-63925000D01*
X116972100Y-55951100D02*
X116687600Y-56235600D01*
X104675000Y-81350000D02*
X104675000Y-84330982D01*
X104675000Y-84330982D02*
X105156000Y-84811982D01*
X103675000Y-79916200D02*
X104190800Y-79400400D01*
X104675000Y-79884600D02*
X104190800Y-79400400D01*
X105156000Y-84811982D02*
X105156000Y-85918000D01*
X113126100Y-54898900D02*
X116940900Y-54898900D01*
X103648900Y-81376100D02*
X103648900Y-85648900D01*
X113100000Y-54925000D02*
X113126100Y-54898900D01*
X103675000Y-81350000D02*
X103675000Y-79916200D01*
D57*
X90175000Y-52000000D02*
X90175000Y-50642600D01*
D61*
X78677000Y-65598000D02*
X78232000Y-65598000D01*
X117850900Y-55951100D02*
X117922000Y-55880000D01*
D57*
X90373200Y-49174400D02*
X89103200Y-49174400D01*
X90175000Y-50642600D02*
X90373200Y-50444400D01*
X88675000Y-49196200D02*
X88900000Y-48971200D01*
X89103200Y-49174400D02*
X88900000Y-48971200D01*
D61*
X117094000Y-55951100D02*
X117850900Y-55951100D01*
D59*
X57150000Y-66675000D02*
X51568000Y-66675000D01*
X51067000Y-67176000D02*
X51067000Y-68834800D01*
D61*
X94284800Y-39471600D02*
X91084400Y-39471600D01*
X89204800Y-39471600D02*
X88646000Y-40030400D01*
D59*
X81330800Y-72288400D02*
X80873600Y-72745600D01*
D61*
X82956400Y-41605200D02*
X68224400Y-41605200D01*
D59*
X60375800Y-66675000D02*
X61620400Y-67919600D01*
D61*
X87071200Y-41605200D02*
X82956400Y-41605200D01*
D59*
X61620400Y-67919600D02*
X61620400Y-75793600D01*
X77726396Y-73456800D02*
X75742800Y-75440396D01*
X79095600Y-73456800D02*
X78079600Y-73456800D01*
X51568000Y-66675000D02*
X51067000Y-67176000D01*
X78079600Y-73456800D02*
X77726396Y-73456800D01*
X80314800Y-72745600D02*
X79806800Y-72745600D01*
D61*
X95250000Y-40436800D02*
X94894400Y-40081200D01*
X68224400Y-41605200D02*
X67411600Y-40792400D01*
D59*
X57150000Y-66675000D02*
X60375800Y-66675000D01*
D61*
X91084400Y-39471600D02*
X89204800Y-39471600D01*
X124510800Y-40436800D02*
X95250000Y-40436800D01*
X88646000Y-40030400D02*
X87071200Y-41605200D01*
D59*
X81694200Y-71925000D02*
X81330800Y-72288400D01*
X61620400Y-75793600D02*
X62484000Y-76657200D01*
X51067000Y-68834800D02*
X51117000Y-68884800D01*
X79806800Y-72745600D02*
X79095600Y-73456800D01*
X83750000Y-71925000D02*
X81694200Y-71925000D01*
X62484000Y-76657200D02*
X73964800Y-76657200D01*
X75742800Y-75440396D02*
X75742800Y-75590400D01*
X80873600Y-72745600D02*
X80314800Y-72745600D01*
D61*
X94894400Y-40081200D02*
X94284800Y-39471600D01*
D59*
X75550000Y-70925000D02*
X74250000Y-72225000D01*
X73927000Y-70104000D02*
X74125000Y-70302000D01*
X74125000Y-70302000D02*
X74125000Y-72225000D01*
X83750000Y-70925000D02*
X75550000Y-70925000D01*
X74250000Y-72225000D02*
X74125000Y-72225000D01*
X73450000Y-75225000D02*
X75300000Y-75225000D01*
X70206000Y-73825000D02*
X71925000Y-73825000D01*
X72050000Y-73825000D02*
X73450000Y-75225000D01*
X79050097Y-71425000D02*
X83750000Y-71425000D01*
X75300000Y-75225000D02*
X75401299Y-75123701D01*
X71925000Y-73825000D02*
X72050000Y-73825000D01*
X69863000Y-74168000D02*
X70206000Y-73825000D01*
X75401299Y-75123701D02*
X75401299Y-75073798D01*
X75401299Y-75073798D02*
X79050097Y-71425000D01*
D57*
X75082400Y-116789200D02*
X66090800Y-116789200D01*
X77755500Y-114116100D02*
X77520800Y-114350800D01*
X77755500Y-111690000D02*
X77755500Y-114116100D01*
X78255500Y-113616100D02*
X77520800Y-114350800D01*
X78255500Y-111690000D02*
X78255500Y-113616100D01*
X77520800Y-114350800D02*
X75082400Y-116789200D01*
D59*
X127749000Y-25908000D02*
X127749000Y-28398000D01*
X106675000Y-48417400D02*
X106832400Y-48260000D01*
X127749000Y-28398000D02*
X127699000Y-28448000D01*
X106675000Y-52000000D02*
X106675000Y-48417400D01*
X126644400Y-28600400D02*
X127546600Y-28600400D01*
X127546600Y-28600400D02*
X127699000Y-28448000D01*
D63*
X79095600Y-26466800D02*
X77155113Y-24526313D01*
X79095600Y-30937200D02*
X79095600Y-26466800D01*
X75082400Y-32359600D02*
X77673200Y-32359600D01*
X77673200Y-32359600D02*
X79095600Y-30937200D01*
X77155113Y-24526313D02*
X77155113Y-23368000D01*
D59*
X106426000Y-108762800D02*
X113233200Y-108762800D01*
X113233200Y-108762800D02*
X113334800Y-108864400D01*
X108822601Y-79908400D02*
X108845602Y-79931401D01*
X107525492Y-79908400D02*
X108822601Y-79908400D01*
X116281200Y-108712000D02*
X123494800Y-108712000D01*
X106675000Y-80758892D02*
X107525492Y-79908400D01*
X123494800Y-108712000D02*
X123647200Y-108559600D01*
X106675000Y-81350000D02*
X106675000Y-80758892D01*
X140157200Y-114706400D02*
X140512800Y-114706400D01*
X107086400Y-108204000D02*
X113030000Y-108204000D01*
X107573599Y-80322101D02*
X109094414Y-80322101D01*
X113030000Y-108204000D02*
X113334800Y-107899200D01*
X138023600Y-112572800D02*
X140157200Y-114706400D01*
X116332000Y-107797600D02*
X135991600Y-107797600D01*
X109094414Y-80322101D02*
X109373415Y-80043100D01*
X141732000Y-114706400D02*
X142544800Y-115519200D01*
X107175000Y-81350000D02*
X107175000Y-80720700D01*
X107175000Y-80720700D02*
X107573599Y-80322101D01*
X138023600Y-109829600D02*
X138023600Y-112572800D01*
X135991600Y-107797600D02*
X137718800Y-109524800D01*
X140512800Y-114706400D02*
X141732000Y-114706400D01*
X137718800Y-109524800D02*
X138023600Y-109829600D01*
X122367766Y-52663900D02*
X122767900Y-52663900D01*
X114375400Y-53925000D02*
X115620800Y-52679600D01*
X113100000Y-53925000D02*
X114375400Y-53925000D01*
X129641600Y-57810400D02*
X130708400Y-58877200D01*
X120656266Y-50952400D02*
X122367766Y-52663900D01*
X123748800Y-57810400D02*
X129641600Y-57810400D01*
X115620800Y-52679600D02*
X115620800Y-52578000D01*
X115620800Y-52578000D02*
X117246400Y-50952400D01*
X122767900Y-52663900D02*
X122986800Y-52882800D01*
X117246400Y-50952400D02*
X120656266Y-50952400D01*
X115062000Y-50749200D02*
X115519200Y-50292000D01*
X116382800Y-49428400D02*
X117551200Y-49428400D01*
X122529600Y-52019200D02*
X122529600Y-52273200D01*
X129844800Y-57150000D02*
X131521200Y-58826400D01*
X113233200Y-50749200D02*
X115062000Y-50749200D01*
X115519200Y-50292000D02*
X116382800Y-49428400D01*
X117551200Y-49428400D02*
X119938800Y-49428400D01*
X119938800Y-49428400D02*
X120650000Y-50139600D01*
X120650000Y-50139600D02*
X122529600Y-52019200D01*
X124002800Y-57150000D02*
X129844800Y-57150000D01*
X110675000Y-53409000D02*
X110591600Y-53492400D01*
X110675000Y-52000000D02*
X110675000Y-53409000D01*
X113030000Y-83064266D02*
X113748039Y-83782305D01*
X105675000Y-80456200D02*
X106832400Y-79298800D01*
X113030000Y-82854800D02*
X113030000Y-83064266D01*
X97434400Y-139446000D02*
X77012800Y-139446000D01*
X113748039Y-83782305D02*
X113748039Y-84032057D01*
X106832400Y-79298800D02*
X110236000Y-79298800D01*
X110236000Y-79298800D02*
X110591600Y-79654400D01*
X105675000Y-81350000D02*
X105675000Y-80456200D01*
X77012800Y-139446000D02*
X76758800Y-139700000D01*
X109875398Y-79689500D02*
X109884853Y-79689500D01*
X107200099Y-79540701D02*
X109726599Y-79540701D01*
X112420400Y-83058000D02*
X113233200Y-83870800D01*
X106175000Y-80565800D02*
X107200099Y-79540701D01*
X109726599Y-79540701D02*
X109875398Y-79689500D01*
X112420400Y-82550000D02*
X112420400Y-83058000D01*
X106175000Y-81350000D02*
X106175000Y-80565800D01*
X63703200Y-83667600D02*
X63652400Y-83616800D01*
X85675000Y-82625400D02*
X85293200Y-83007200D01*
X85293200Y-83007200D02*
X83667600Y-83007200D01*
X70408800Y-83667600D02*
X63703200Y-83667600D01*
X83413600Y-83261200D02*
X83007200Y-83667600D01*
X83667600Y-83007200D02*
X83413600Y-83261200D01*
X83007200Y-83667600D02*
X70408800Y-83667600D01*
X85675000Y-81350000D02*
X85675000Y-82625400D01*
X110642400Y-78994000D02*
X111353600Y-79705200D01*
X132283200Y-82550000D02*
X132334000Y-82600800D01*
X113284000Y-109829600D02*
X107289600Y-109829600D01*
X127558800Y-109220000D02*
X116789200Y-109220000D01*
X107289600Y-109829600D02*
X107238800Y-109880400D01*
X107238800Y-109880400D02*
X107238800Y-110439200D01*
X105175000Y-81350000D02*
X105175000Y-80448200D01*
X106629200Y-78994000D02*
X110642400Y-78994000D01*
X113792000Y-82550000D02*
X132283200Y-82550000D01*
X105175000Y-80448200D02*
X106629200Y-78994000D01*
X116789200Y-109220000D02*
X116128800Y-109880400D01*
X116840000Y-50241200D02*
X117703600Y-50241200D01*
X103175000Y-80315000D02*
X102870000Y-80010000D01*
X104038400Y-75946000D02*
X111607600Y-75946000D01*
X103175000Y-81350000D02*
X103175000Y-80315000D01*
X113639600Y-52425600D02*
X114655600Y-52425600D01*
X131673600Y-42875200D02*
X132029200Y-43230800D01*
X114655600Y-52425600D02*
X116179600Y-50901600D01*
X116179600Y-50901600D02*
X116840000Y-50241200D01*
X116789200Y-42875200D02*
X131673600Y-42875200D01*
X113881068Y-83362800D02*
X113861934Y-83343666D01*
X109675000Y-81350000D02*
X109675000Y-83108734D01*
X109675000Y-83108734D02*
X109726030Y-83159764D01*
X134620000Y-81940400D02*
X133197600Y-83362800D01*
X133197600Y-83362800D02*
X113881068Y-83362800D01*
X83621949Y-79053051D02*
X81432400Y-79053051D01*
X81432400Y-79053051D02*
X79747749Y-79053051D01*
X69951600Y-44500800D02*
X83718400Y-44500800D01*
X129794000Y-36220400D02*
X131826000Y-34188400D01*
X131826000Y-34188400D02*
X131826000Y-27686000D01*
X86868000Y-39725600D02*
X88849200Y-37744400D01*
X66090800Y-48361600D02*
X69951600Y-44500800D01*
X79747749Y-79053051D02*
X79197200Y-79603600D01*
X78536800Y-80264000D02*
X73050400Y-80264000D01*
X69799200Y-80264000D02*
X69748400Y-80314800D01*
X73050400Y-80264000D02*
X69799200Y-80264000D01*
X83750000Y-78925000D02*
X83621949Y-79053051D01*
X103682800Y-37744400D02*
X117957600Y-37744400D01*
X88849200Y-37744400D02*
X103682800Y-37744400D01*
X69748400Y-80314800D02*
X66243200Y-80314800D01*
X123748800Y-38963600D02*
X127050800Y-38963600D01*
X117957600Y-37744400D02*
X118516400Y-38303200D01*
X118516400Y-38303200D02*
X119176800Y-38963600D01*
X79197200Y-79603600D02*
X78536800Y-80264000D01*
X131826000Y-26517600D02*
X131876800Y-26466800D01*
X127050800Y-38963600D02*
X129794000Y-36220400D01*
X119176800Y-38963600D02*
X123748800Y-38963600D01*
X83820000Y-40995600D02*
X85598000Y-40995600D01*
X85598000Y-40995600D02*
X86868000Y-39725600D01*
X131826000Y-27686000D02*
X131826000Y-26517600D01*
X94640400Y-47396400D02*
X94538800Y-47294800D01*
X130251200Y-39827200D02*
X133908800Y-43484800D01*
X111506000Y-110845600D02*
X113792000Y-110845600D01*
X136702800Y-110794800D02*
X116078000Y-110794800D01*
X142646400Y-52222400D02*
X142646400Y-67106800D01*
X94675000Y-52000000D02*
X94675000Y-50580600D01*
X94538800Y-47294800D02*
X94538800Y-45313600D01*
X96570800Y-39827200D02*
X130251200Y-39827200D01*
X94675000Y-50580600D02*
X94640400Y-50546000D01*
X94538800Y-45313600D02*
X95046800Y-44805600D01*
X142646400Y-109118400D02*
X146304000Y-112776000D01*
X94640400Y-50546000D02*
X94640400Y-47396400D01*
X116078000Y-110794800D02*
X116027200Y-110845600D01*
X142646400Y-67106800D02*
X142646400Y-109118400D01*
X108686600Y-113665000D02*
X111506000Y-110845600D01*
X133908800Y-43484800D02*
X142646400Y-52222400D01*
D57*
X99822000Y-167741600D02*
X102514400Y-167741600D01*
X102514400Y-167741600D02*
X102819200Y-167436800D01*
X97129600Y-167690800D02*
X93675200Y-167690800D01*
D59*
X106175000Y-47856600D02*
X106172000Y-47853600D01*
X121412000Y-21945600D02*
X120548400Y-21082000D01*
X121412000Y-26099000D02*
X121412000Y-21945600D01*
X106175000Y-52000000D02*
X106175000Y-47856600D01*
X119380000Y-21183600D02*
X119430800Y-21132800D01*
X105675000Y-52000000D02*
X105675000Y-47458200D01*
X119380000Y-26099000D02*
X119380000Y-21183600D01*
X105675000Y-47458200D02*
X105664000Y-47447200D01*
X103675000Y-47591800D02*
X103581200Y-47498000D01*
X117856000Y-26099000D02*
X117856000Y-21640800D01*
X103675000Y-52000000D02*
X103675000Y-47591800D01*
X117856000Y-21640800D02*
X118364000Y-21132800D01*
X105175000Y-52000000D02*
X105175000Y-45993000D01*
X105175000Y-45993000D02*
X104648000Y-45466000D01*
X117043200Y-59486800D02*
X118211600Y-59486800D01*
X114300000Y-21386800D02*
X114046000Y-21132800D01*
X116687600Y-59842400D02*
X117043200Y-59486800D01*
X114503200Y-60147200D02*
X114554000Y-60198000D01*
X118211600Y-59486800D02*
X118922800Y-59486800D01*
X114300000Y-26099000D02*
X114300000Y-21386800D01*
X118922800Y-59486800D02*
X119532400Y-58877200D01*
X115824000Y-60198000D02*
X116332000Y-60198000D01*
X114554000Y-60198000D02*
X115824000Y-60198000D01*
X116332000Y-60198000D02*
X116687600Y-59842400D01*
X113100000Y-59925000D02*
X114281000Y-59925000D01*
X114281000Y-59925000D02*
X114503200Y-60147200D01*
X115570000Y-59791600D02*
X115925600Y-59791600D01*
X116687600Y-59029600D02*
X118211600Y-59029600D01*
X114441400Y-59425000D02*
X114655600Y-59639200D01*
X114808000Y-59791600D02*
X115570000Y-59791600D01*
X115925600Y-59791600D02*
X116687600Y-59029600D01*
X112928400Y-25946600D02*
X112928400Y-21132800D01*
X113100000Y-59425000D02*
X114441400Y-59425000D01*
X112776000Y-26099000D02*
X112928400Y-25946600D01*
X118211600Y-59029600D02*
X118516400Y-58724800D01*
X114655600Y-59639200D02*
X114808000Y-59791600D01*
D63*
X53949600Y-56743600D02*
X53898800Y-56794400D01*
X53949600Y-51816000D02*
X53949600Y-56743600D01*
X63906400Y-52781200D02*
X63906400Y-50495200D01*
X58877200Y-57810400D02*
X63906400Y-52781200D01*
X63906400Y-50495200D02*
X61925200Y-48514000D01*
X59283600Y-59791600D02*
X58877200Y-59385200D01*
X59283600Y-61671200D02*
X59283600Y-59791600D01*
X58877200Y-59385200D02*
X58877200Y-57810400D01*
X61925200Y-45466000D02*
X63500000Y-43891200D01*
X63500000Y-43891200D02*
X63500000Y-41275000D01*
X61925200Y-48514000D02*
X61925200Y-45466000D01*
X61214000Y-42311000D02*
X62250000Y-41275000D01*
X63042800Y-52476400D02*
X63042800Y-50647600D01*
X61214000Y-48818800D02*
X61214000Y-42311000D01*
X58115200Y-57404000D02*
X63042800Y-52476400D01*
X58115200Y-61163200D02*
X58115200Y-57404000D01*
X63042800Y-50647600D02*
X61214000Y-48818800D01*
X132689600Y-35356800D02*
X136525000Y-39192200D01*
X75438000Y-33477200D02*
X75692000Y-33223200D01*
X67005200Y-37134800D02*
X67005200Y-35814000D01*
X56743600Y-45974000D02*
X58166000Y-44551600D01*
X49428400Y-49326800D02*
X52781200Y-45974000D01*
X75692000Y-33223200D02*
X75996800Y-32918400D01*
X69291200Y-33528000D02*
X69291200Y-33477200D01*
X85547200Y-30835600D02*
X89458800Y-30835600D01*
X78130400Y-32918400D02*
X83464400Y-32918400D01*
X89458800Y-30835600D02*
X128371600Y-30835600D01*
X84632800Y-31750000D02*
X85547200Y-30835600D01*
X136525000Y-39192200D02*
X136525000Y-41275000D01*
X128371600Y-30835600D02*
X130759200Y-33223200D01*
X52781200Y-45974000D02*
X55727600Y-45974000D01*
X58521600Y-44196000D02*
X58521600Y-41249600D01*
X69291200Y-33477200D02*
X75438000Y-33477200D01*
X75996800Y-32918400D02*
X78130400Y-32918400D01*
X58166000Y-44551600D02*
X58521600Y-44196000D01*
X65887600Y-38252400D02*
X66649600Y-37490400D01*
X58521600Y-41249600D02*
X61518800Y-38252400D01*
X83464400Y-32918400D02*
X84632800Y-31750000D01*
X66649600Y-37490400D02*
X67005200Y-37134800D01*
X67005200Y-35814000D02*
X69291200Y-33528000D01*
X63703200Y-38252400D02*
X65887600Y-38252400D01*
X55727600Y-45974000D02*
X56743600Y-45974000D01*
X61518800Y-38252400D02*
X63703200Y-38252400D01*
X59486800Y-43942000D02*
X59486800Y-41605200D01*
X85039200Y-32664400D02*
X86156800Y-31546800D01*
X52984400Y-53797200D02*
X52984400Y-50850800D01*
X62077600Y-39014400D02*
X65328800Y-39014400D01*
X131419600Y-36220400D02*
X135275000Y-40075800D01*
X54762400Y-49072800D02*
X57404000Y-49072800D01*
X61366400Y-39725600D02*
X62077600Y-39014400D01*
X76250800Y-33578800D02*
X79197200Y-33578800D01*
X53797200Y-50038000D02*
X54762400Y-49072800D01*
X79197200Y-33578800D02*
X79298800Y-33680400D01*
X125831600Y-31546800D02*
X127000000Y-31546800D01*
X66141600Y-39014400D02*
X67310000Y-37846000D01*
X67665600Y-36118800D02*
X69646800Y-34137600D01*
X67665600Y-37490400D02*
X67665600Y-36118800D01*
X67310000Y-37846000D02*
X67665600Y-37490400D01*
X127000000Y-31546800D02*
X129946400Y-34493200D01*
X75692000Y-34137600D02*
X76250800Y-33578800D01*
X135275000Y-40075800D02*
X135275000Y-41275000D01*
X84023200Y-33680400D02*
X85039200Y-32664400D01*
X73355200Y-34137600D02*
X75692000Y-34137600D01*
X52984400Y-50850800D02*
X53797200Y-50038000D01*
X57404000Y-49072800D02*
X59486800Y-46990000D01*
X59486800Y-46990000D02*
X59486800Y-43942000D01*
X69646800Y-34137600D02*
X73355200Y-34137600D01*
X65328800Y-39014400D02*
X66141600Y-39014400D01*
X59486800Y-41605200D02*
X61366400Y-39725600D01*
X79298800Y-33680400D02*
X84023200Y-33680400D01*
X86156800Y-31546800D02*
X125831600Y-31546800D01*
D59*
X123088400Y-57302400D02*
X123444000Y-56946800D01*
X115657800Y-56425000D02*
X116535200Y-57302400D01*
X113100000Y-56425000D02*
X115657800Y-56425000D01*
X116535200Y-57302400D02*
X123088400Y-57302400D01*
X120040400Y-49022000D02*
X120040400Y-45059600D01*
X123444000Y-56946800D02*
X123444000Y-52425600D01*
X123444000Y-52425600D02*
X120040400Y-49022000D01*
X112369600Y-50241200D02*
X111963200Y-49834800D01*
X111099600Y-54305200D02*
X112369600Y-53035200D01*
X107594400Y-54305200D02*
X111099600Y-54305200D01*
X112268000Y-49530000D02*
X111963200Y-49834800D01*
X107175000Y-53885800D02*
X107594400Y-54305200D01*
X107175000Y-52000000D02*
X107175000Y-53885800D01*
X112268000Y-47091600D02*
X112268000Y-49530000D01*
X112369600Y-53035200D02*
X112369600Y-50241200D01*
X95148400Y-50495200D02*
X95148400Y-51973400D01*
X113334800Y-49936400D02*
X113284000Y-49987200D01*
X113334800Y-47396400D02*
X113334800Y-49936400D01*
X95148400Y-51973400D02*
X95175000Y-52000000D01*
D57*
X85090000Y-53289200D02*
X85496400Y-53289200D01*
X83007200Y-51257200D02*
X83058000Y-51257200D01*
X87122000Y-54914800D02*
X88341200Y-54914800D01*
X85496400Y-53289200D02*
X87122000Y-54914800D01*
X89175000Y-53420600D02*
X89175000Y-52000000D01*
X88341200Y-54914800D02*
X88798400Y-54457600D01*
X81534000Y-49784000D02*
X80581000Y-49784000D01*
X88798400Y-54457600D02*
X88798400Y-53797200D01*
X83007200Y-51257200D02*
X81534000Y-49784000D01*
X83058000Y-51257200D02*
X85090000Y-53289200D01*
X88798400Y-53797200D02*
X89175000Y-53420600D01*
D59*
X92675000Y-49057000D02*
X92710000Y-49022000D01*
X92710000Y-46024800D02*
X92608400Y-45923200D01*
X92710000Y-49022000D02*
X92710000Y-46024800D01*
X97219000Y-35052000D02*
X97092000Y-34925000D01*
X92675000Y-52000000D02*
X92675000Y-49057000D01*
X97092000Y-34925000D02*
X93345000Y-34925000D01*
X114350800Y-45415200D02*
X114096800Y-45161200D01*
X63550800Y-46075600D02*
X62890400Y-46736000D01*
X114350800Y-50088800D02*
X114350800Y-45415200D01*
X94234000Y-40792400D02*
X93522800Y-40081200D01*
X91389200Y-40081200D02*
X89255600Y-40081200D01*
X111476200Y-57425000D02*
X111404400Y-57353200D01*
X113792000Y-44856400D02*
X110083600Y-44856400D01*
X110083600Y-44856400D02*
X104038400Y-44856400D01*
X114096800Y-45161200D02*
X113792000Y-44856400D01*
X67360800Y-42265600D02*
X63550800Y-46075600D01*
X113100000Y-57425000D02*
X111476200Y-57425000D01*
X103327200Y-41757600D02*
X95199200Y-41757600D01*
X87071200Y-42265600D02*
X83515200Y-42265600D01*
X103479600Y-44856400D02*
X103327200Y-45008800D01*
X83515200Y-42265600D02*
X67462400Y-42265600D01*
X95199200Y-41757600D02*
X94234000Y-40792400D01*
X93522800Y-40081200D02*
X91389200Y-40081200D01*
X67462400Y-42265600D02*
X67360800Y-42265600D01*
X89255600Y-40081200D02*
X88493600Y-40843200D01*
X62890400Y-46736000D02*
X62890400Y-48260000D01*
X88493600Y-40843200D02*
X87071200Y-42265600D01*
X104038400Y-44856400D02*
X103479600Y-44856400D01*
D57*
X59639200Y-114198400D02*
X58826400Y-113385600D01*
X77255500Y-111690000D02*
X77255500Y-112838100D01*
X72136000Y-115468400D02*
X67208400Y-115468400D01*
X58826400Y-104902000D02*
X58521600Y-104597200D01*
X58826400Y-113385600D02*
X58826400Y-109524800D01*
X77255500Y-112838100D02*
X76962000Y-113131600D01*
X58826400Y-109524800D02*
X58826400Y-104902000D01*
X76755500Y-111690000D02*
X76755500Y-112925100D01*
X76962000Y-113131600D02*
X74625200Y-115468400D01*
X65938400Y-114198400D02*
X59639200Y-114198400D01*
X76755500Y-112925100D02*
X76962000Y-113131600D01*
X74625200Y-115468400D02*
X72136000Y-115468400D01*
X67208400Y-115468400D02*
X66294000Y-114554000D01*
X66294000Y-114554000D02*
X65938400Y-114198400D01*
D59*
X87175000Y-52000000D02*
X87175000Y-50802200D01*
X87175000Y-50802200D02*
X86918800Y-50546000D01*
X69138800Y-44094400D02*
X68478400Y-44754800D01*
X93175000Y-45727800D02*
X92481400Y-45034200D01*
X97925000Y-96553400D02*
X97891600Y-96520000D01*
X85090000Y-44094400D02*
X69138800Y-44094400D01*
X89141800Y-44895000D02*
X88646000Y-44399200D01*
X68478400Y-44754800D02*
X65328800Y-47904400D01*
X90170000Y-44895000D02*
X89141800Y-44895000D01*
X88341200Y-44094400D02*
X85090000Y-44094400D01*
X96824800Y-91338400D02*
X94488000Y-89001600D01*
X65188400Y-107757800D02*
X65188400Y-106516336D01*
X67310000Y-89001600D02*
X66548000Y-89763600D01*
X90170000Y-44895000D02*
X92342200Y-44895000D01*
X97925000Y-97512500D02*
X97925000Y-96553400D01*
X88646000Y-44399200D02*
X88341200Y-44094400D01*
X92342200Y-44895000D02*
X92481400Y-45034200D01*
X93175000Y-52000000D02*
X93175000Y-45727800D01*
X65188400Y-106516336D02*
X65138333Y-106466269D01*
X97739200Y-91338400D02*
X96824800Y-91338400D01*
X94488000Y-89001600D02*
X67310000Y-89001600D01*
X65328800Y-47904400D02*
X65328800Y-48209200D01*
X91553800Y-43141400D02*
X90170000Y-43141400D01*
X66786700Y-88610500D02*
X66141600Y-89255600D01*
X96672400Y-90576400D02*
X94706500Y-88610500D01*
X90170000Y-43141400D02*
X88938600Y-43141400D01*
X88938600Y-43141400D02*
X88442800Y-43637200D01*
X98425000Y-96647000D02*
X98501200Y-96570800D01*
X98425000Y-97512500D02*
X98425000Y-96647000D01*
X98348800Y-90576400D02*
X96672400Y-90576400D01*
X93675000Y-45262600D02*
X91553800Y-43141400D01*
X88442800Y-43637200D02*
X68935600Y-43637200D01*
X68935600Y-43637200D02*
X64312800Y-48260000D01*
X94706500Y-88610500D02*
X66786700Y-88610500D01*
X64688400Y-105582400D02*
X64688400Y-107757800D01*
X93675000Y-52000000D02*
X93675000Y-45262600D01*
X64668400Y-105562400D02*
X64688400Y-105582400D01*
X126746000Y-123342400D02*
X129438400Y-123342400D01*
X135788400Y-133502400D02*
X140919200Y-138633200D01*
X141681200Y-138633200D02*
X141681200Y-142951200D01*
X132384800Y-123342400D02*
X135280400Y-126238000D01*
X114880600Y-76425000D02*
X114909600Y-76454000D01*
X140919200Y-138633200D02*
X141681200Y-138633200D01*
X141681200Y-142951200D02*
X139039600Y-145592800D01*
X122631200Y-119227600D02*
X126746000Y-123342400D01*
X112420400Y-116840000D02*
X113385600Y-115874800D01*
X111556800Y-116840000D02*
X112420400Y-116840000D01*
X119278400Y-115874800D02*
X122631200Y-119227600D01*
X135788400Y-126746000D02*
X135788400Y-133502400D01*
X129438400Y-123342400D02*
X132384800Y-123342400D01*
X113100000Y-76425000D02*
X114880600Y-76425000D01*
X115976400Y-115874800D02*
X119278400Y-115874800D01*
X135280400Y-126238000D02*
X135788400Y-126746000D01*
X115599800Y-75925000D02*
X115620800Y-75946000D01*
X113100000Y-75925000D02*
X115599800Y-75925000D01*
X81838800Y-52933600D02*
X82830200Y-53925000D01*
X78909600Y-52933600D02*
X78909600Y-52310850D01*
X78309600Y-52310846D02*
X78309600Y-52933600D01*
X81009600Y-52933600D02*
X81838800Y-52933600D01*
X78909600Y-53306352D02*
X78909600Y-52933600D01*
X79509600Y-52933600D02*
X79509600Y-53306352D01*
X79509600Y-52310850D02*
X79509600Y-52933600D01*
X75946000Y-52933600D02*
X76809600Y-52933600D01*
X80109600Y-52933600D02*
X80109600Y-52310852D01*
X77709600Y-53306355D02*
X77709600Y-53233600D01*
X80109600Y-53306352D02*
X80109600Y-52933600D01*
X82830200Y-53925000D02*
X83750000Y-53925000D01*
X77109600Y-53233600D02*
X77109600Y-53306355D01*
X80709600Y-52310852D02*
X80709600Y-52633600D01*
X75844400Y-52832000D02*
X75946000Y-52933600D01*
X77709600Y-53233600D02*
X77709600Y-52310846D01*
X78309600Y-52933600D02*
X78309600Y-53306352D01*
X80709648Y-52310852D02*
G75*
G03*
X80409600Y-52010852I-300048J-48D01*
G01*
X78309554Y-52310846D02*
G75*
G03*
X78009600Y-52010846I-299954J46D01*
G01*
X79809600Y-53606400D02*
G75*
G03*
X80109600Y-53306352I0J300000D01*
G01*
X79209600Y-52010900D02*
G75*
G03*
X78909600Y-52310850I0J-300000D01*
G01*
X79509648Y-53306352D02*
G75*
G03*
X79809600Y-53606352I299952J-48D01*
G01*
X78609600Y-53606400D02*
G75*
G03*
X78909600Y-53306352I0J300000D01*
G01*
X80409600Y-52010900D02*
G75*
G03*
X80109600Y-52310852I0J-300000D01*
G01*
X77109600Y-53233600D02*
G75*
G03*
X76809600Y-52933600I-300000J0D01*
G01*
X77109645Y-53306355D02*
G75*
G03*
X77409600Y-53606355I299955J-45D01*
G01*
X78009600Y-52010800D02*
G75*
G03*
X77709600Y-52310846I0J-300000D01*
G01*
X80709600Y-52633600D02*
G75*
G03*
X81009600Y-52933600I300000J0D01*
G01*
X79509650Y-52310850D02*
G75*
G03*
X79209600Y-52010850I-300050J-50D01*
G01*
X78309648Y-53306352D02*
G75*
G03*
X78609600Y-53606352I299952J-48D01*
G01*
X77409600Y-53606400D02*
G75*
G03*
X77709600Y-53306355I0J300000D01*
G01*
X130200400Y-154178000D02*
X130200400Y-158343600D01*
X123444000Y-147421600D02*
X130200400Y-154178000D01*
X117500400Y-139598400D02*
X120446800Y-142544800D01*
X130200400Y-163880800D02*
X130251200Y-163931600D01*
X120446800Y-142544800D02*
X123444000Y-145542000D01*
X123444000Y-145542000D02*
X123444000Y-147421600D01*
X130200400Y-158343600D02*
X130200400Y-163880800D01*
X81330800Y-53949600D02*
X82306200Y-54925000D01*
X76188000Y-54065576D02*
X76188000Y-54065575D01*
X76188000Y-54065575D02*
X76188000Y-53545742D01*
X76788000Y-53545742D02*
X76788000Y-53649600D01*
X75669950Y-54181551D02*
X76072025Y-54181551D01*
X77088000Y-53949600D02*
X78366496Y-53949600D01*
X82306200Y-54925000D02*
X83750000Y-54925000D01*
X78366496Y-53949600D02*
X81330800Y-53949600D01*
X75553975Y-54065575D02*
X75553975Y-54065576D01*
X74980800Y-54051200D02*
X75082400Y-53949600D01*
X75082400Y-53949600D02*
X75438000Y-53949600D01*
X75554000Y-54065575D02*
G75*
G03*
X75438000Y-53949600I-116000J-25D01*
G01*
X75553949Y-54065576D02*
G75*
G03*
X75669950Y-54181551I115951J-24D01*
G01*
X76787958Y-53545742D02*
G75*
G03*
X76488000Y-53245742I-299958J42D01*
G01*
X76072025Y-54181600D02*
G75*
G03*
X76188000Y-54065576I-25J116000D01*
G01*
X76788000Y-53649600D02*
G75*
G03*
X77088000Y-53949600I300000J0D01*
G01*
X76488000Y-53245700D02*
G75*
G03*
X76188000Y-53545742I0J-300000D01*
G01*
X81889600Y-55168800D02*
X81229200Y-54508400D01*
X81229200Y-54508400D02*
X70002400Y-54508400D01*
X82145800Y-55425000D02*
X81889600Y-55168800D01*
X83750000Y-55425000D02*
X82145800Y-55425000D01*
X86755500Y-111690000D02*
X86755500Y-108824500D01*
X86755500Y-108824500D02*
X86766400Y-108813600D01*
X81731400Y-55925000D02*
X81584800Y-55778400D01*
X83750000Y-55925000D02*
X81731400Y-55925000D01*
X86664800Y-90525600D02*
X83667600Y-90525600D01*
X66188400Y-106521703D02*
X66237900Y-106472203D01*
X84785200Y-84886800D02*
X84785200Y-86004400D01*
X66188400Y-107757800D02*
X66188400Y-106521703D01*
X83750000Y-58425000D02*
X85694600Y-58425000D01*
X65442600Y-95504000D02*
X66237900Y-94708700D01*
X85694600Y-58425000D02*
X85699600Y-58420000D01*
X83870800Y-86918800D02*
X83566000Y-87223600D01*
X84785200Y-86004400D02*
X83870800Y-86918800D01*
X83566000Y-87223600D02*
X67614800Y-87223600D01*
X66237900Y-94708700D02*
X66237900Y-93426500D01*
X83515200Y-86614000D02*
X68884800Y-86614000D01*
X85137800Y-58925000D02*
X85140800Y-58928000D01*
X84175600Y-85953600D02*
X83515200Y-86614000D01*
X83750000Y-58925000D02*
X85137800Y-58925000D01*
X66688400Y-105625200D02*
X66700400Y-105613200D01*
X66688400Y-107757800D02*
X66688400Y-105625200D01*
X84175600Y-85140800D02*
X84175600Y-85953600D01*
X68884800Y-86614000D02*
X68834000Y-86664800D01*
X83750000Y-59925000D02*
X82734200Y-59925000D01*
X82397600Y-59588400D02*
X80676666Y-59588400D01*
X94755500Y-111690000D02*
X94755500Y-108877900D01*
X80676666Y-59588400D02*
X80575814Y-59689252D01*
X94755500Y-108877900D02*
X94742000Y-108864400D01*
X78435200Y-96723200D02*
X94894400Y-96723200D01*
X78333600Y-96621600D02*
X78435200Y-96723200D01*
X82734200Y-59925000D02*
X82397600Y-59588400D01*
X82499200Y-94437200D02*
X82448400Y-94386400D01*
X94255500Y-110003500D02*
X94234000Y-109982000D01*
X82421400Y-60425000D02*
X82042000Y-60045600D01*
X94183200Y-94437200D02*
X82499200Y-94437200D01*
X94255500Y-111690000D02*
X94255500Y-110003500D01*
X83750000Y-60425000D02*
X82421400Y-60425000D01*
X89255500Y-109677300D02*
X89255600Y-109677200D01*
X81361835Y-60604400D02*
X81205352Y-60760883D01*
X82143600Y-60604400D02*
X81361835Y-60604400D01*
X89255500Y-111690000D02*
X89255500Y-109677300D01*
X83750000Y-60925000D02*
X82464200Y-60925000D01*
X82464200Y-60925000D02*
X82143600Y-60604400D01*
X88950800Y-89763600D02*
X82804000Y-89763600D01*
X102075000Y-66200000D02*
X102075000Y-66050000D01*
X100425000Y-66350000D02*
X100725000Y-66350000D01*
X100875000Y-66200000D02*
X100875000Y-66050000D01*
X99825000Y-65750000D02*
X100125000Y-65750000D01*
X104025000Y-66050000D02*
X104325000Y-66050000D01*
X96825000Y-66350000D02*
X97125000Y-66350000D01*
X98475000Y-66200000D02*
X98475000Y-66050000D01*
X97275000Y-66200000D02*
X97275000Y-66050000D01*
X97875000Y-65900000D02*
X97875000Y-66050000D01*
X98475000Y-66050000D02*
X98475000Y-65900000D01*
X88875000Y-65975000D02*
X92050000Y-65975000D01*
X98025000Y-66350000D02*
X98325000Y-66350000D01*
X92050000Y-65975000D02*
X92125000Y-66050000D01*
X101025000Y-65750000D02*
X101325000Y-65750000D01*
X99225000Y-66350000D02*
X99525000Y-66350000D01*
X99075000Y-66050000D02*
X99075000Y-66200000D01*
X102225000Y-65750000D02*
X102525000Y-65750000D01*
X97275000Y-66050000D02*
X97275000Y-65900000D01*
X97425000Y-65750000D02*
X97725000Y-65750000D01*
X99675000Y-66200000D02*
X99675000Y-66050000D01*
X96075000Y-66050000D02*
X96075000Y-65900000D01*
X99675000Y-66050000D02*
X99675000Y-65900000D01*
X99075000Y-65900000D02*
X99075000Y-66050000D01*
X96225000Y-65750000D02*
X96525000Y-65750000D01*
X83750000Y-64425000D02*
X86950000Y-64425000D01*
X98625000Y-65750000D02*
X98925000Y-65750000D01*
X101475000Y-66050000D02*
X101475000Y-66200000D01*
X96675000Y-66050000D02*
X96675000Y-66200000D01*
X103275000Y-66200000D02*
X103275000Y-66050000D01*
X101475000Y-65900000D02*
X101475000Y-66050000D01*
X96075000Y-66200000D02*
X96075000Y-66050000D01*
X86950000Y-64425000D02*
X87075000Y-64300000D01*
X97875000Y-66050000D02*
X97875000Y-66200000D01*
X102675000Y-66050000D02*
X102675000Y-66200000D01*
X96675000Y-65900000D02*
X96675000Y-66050000D01*
X87075000Y-64300000D02*
X87200000Y-64300000D01*
X92125000Y-66050000D02*
X95325000Y-66050000D01*
X103425000Y-65750000D02*
X103725000Y-65750000D01*
X100275000Y-65900000D02*
X100275000Y-66050000D01*
X102825000Y-66350000D02*
X103125000Y-66350000D01*
X101625000Y-66350000D02*
X101925000Y-66350000D01*
X87200000Y-64300000D02*
X88875000Y-65975000D01*
X100875000Y-66050000D02*
X100875000Y-65900000D01*
X104325000Y-66050000D02*
X105675000Y-66050000D01*
X102075000Y-66050000D02*
X102075000Y-65900000D01*
X102675000Y-65900000D02*
X102675000Y-66050000D01*
X95625000Y-66350000D02*
X95925000Y-66350000D01*
X100275000Y-66050000D02*
X100275000Y-66200000D01*
X103275000Y-66050000D02*
X103275000Y-65900000D01*
X101475000Y-66200000D02*
G75*
G03*
X101625000Y-66350000I150000J0D01*
G01*
X95475000Y-66200000D02*
G75*
G03*
X95325000Y-66050000I-150000J0D01*
G01*
X97425000Y-65750000D02*
G75*
G03*
X97275000Y-65900000I0J-150000D01*
G01*
X96675000Y-66200000D02*
G75*
G03*
X96825000Y-66350000I150000J0D01*
G01*
X98325000Y-66350000D02*
G75*
G03*
X98475000Y-66200000I0J150000D01*
G01*
X103425000Y-65750000D02*
G75*
G03*
X103275000Y-65900000I0J-150000D01*
G01*
X100275000Y-65900000D02*
G75*
G03*
X100125000Y-65750000I-150000J0D01*
G01*
X96225000Y-65750000D02*
G75*
G03*
X96075000Y-65900000I0J-150000D01*
G01*
X97875000Y-65900000D02*
G75*
G03*
X97725000Y-65750000I-150000J0D01*
G01*
X98625000Y-65750000D02*
G75*
G03*
X98475000Y-65900000I0J-150000D01*
G01*
X99525000Y-66350000D02*
G75*
G03*
X99675000Y-66200000I0J150000D01*
G01*
X103125000Y-66350000D02*
G75*
G03*
X103275000Y-66200000I0J150000D01*
G01*
X101925000Y-66350000D02*
G75*
G03*
X102075000Y-66200000I0J150000D01*
G01*
X101475000Y-65900000D02*
G75*
G03*
X101325000Y-65750000I-150000J0D01*
G01*
X100725000Y-66350000D02*
G75*
G03*
X100875000Y-66200000I0J150000D01*
G01*
X103875000Y-65900000D02*
G75*
G03*
X104025000Y-66050000I150000J0D01*
G01*
X100275000Y-66200000D02*
G75*
G03*
X100425000Y-66350000I150000J0D01*
G01*
X102225000Y-65750000D02*
G75*
G03*
X102075000Y-65900000I0J-150000D01*
G01*
X99075000Y-66200000D02*
G75*
G03*
X99225000Y-66350000I150000J0D01*
G01*
X97875000Y-66200000D02*
G75*
G03*
X98025000Y-66350000I150000J0D01*
G01*
X103875000Y-65900000D02*
G75*
G03*
X103725000Y-65750000I-150000J0D01*
G01*
X97125000Y-66350000D02*
G75*
G03*
X97275000Y-66200000I0J150000D01*
G01*
X99075000Y-65900000D02*
G75*
G03*
X98925000Y-65750000I-150000J0D01*
G01*
X102675000Y-65900000D02*
G75*
G03*
X102525000Y-65750000I-150000J0D01*
G01*
X95475000Y-66200000D02*
G75*
G03*
X95625000Y-66350000I150000J0D01*
G01*
X99825000Y-65750000D02*
G75*
G03*
X99675000Y-65900000I0J-150000D01*
G01*
X95925000Y-66350000D02*
G75*
G03*
X96075000Y-66200000I0J150000D01*
G01*
X96675000Y-65900000D02*
G75*
G03*
X96525000Y-65750000I-150000J0D01*
G01*
X101025000Y-65750000D02*
G75*
G03*
X100875000Y-65900000I0J-150000D01*
G01*
X102675000Y-66200000D02*
G75*
G03*
X102825000Y-66350000I150000J0D01*
G01*
X87175000Y-65350000D02*
X87150000Y-65350000D01*
X88475000Y-66650000D02*
X87175000Y-65350000D01*
X83750000Y-64925000D02*
X86725000Y-64925000D01*
X86725000Y-64925000D02*
X87150000Y-65350000D01*
X106575000Y-66700000D02*
X88525000Y-66700000D01*
X88525000Y-66700000D02*
X88475000Y-66650000D01*
X86275000Y-65425000D02*
X87200000Y-66350000D01*
X83750000Y-65425000D02*
X86275000Y-65425000D01*
X88575000Y-67400000D02*
X88250000Y-67400000D01*
X88600000Y-67425000D02*
X88575000Y-67400000D01*
X107300000Y-67425000D02*
X88600000Y-67425000D01*
X88250000Y-67400000D02*
X87200000Y-66350000D01*
X88750000Y-68050000D02*
X88100000Y-68050000D01*
X85975000Y-65925000D02*
X87150000Y-67100000D01*
X88775000Y-68075000D02*
X88750000Y-68050000D01*
X108025000Y-68075000D02*
X88775000Y-68075000D01*
X83750000Y-65925000D02*
X85975000Y-65925000D01*
X88100000Y-68050000D02*
X87150000Y-67100000D01*
X107975000Y-69075000D02*
X88625000Y-69075000D01*
X86025000Y-66875000D02*
X86025000Y-68825000D01*
X83750000Y-66425000D02*
X85575000Y-66425000D01*
X85575000Y-66425000D02*
X86025000Y-66875000D01*
X88625000Y-69075000D02*
X88525000Y-68975000D01*
X88525000Y-68975000D02*
X86175000Y-68975000D01*
X86175000Y-68975000D02*
X86025000Y-68825000D01*
X85500000Y-68700000D02*
X85500000Y-69350000D01*
X83750000Y-66925000D02*
X85425000Y-66925000D01*
X85600000Y-68600000D02*
X85500000Y-68700000D01*
X85875000Y-69700000D02*
X85825000Y-69650000D01*
X85500000Y-69350000D02*
X85525000Y-69350000D01*
X107300000Y-69750000D02*
X88375000Y-69750000D01*
X85600000Y-67100000D02*
X85600000Y-68600000D01*
X85525000Y-69350000D02*
X85825000Y-69650000D01*
X88375000Y-69750000D02*
X88325000Y-69700000D01*
X85425000Y-66925000D02*
X85600000Y-67100000D01*
X88325000Y-69700000D02*
X85875000Y-69700000D01*
X70612000Y-84886800D02*
X70408800Y-85090000D01*
X70459600Y-106426000D02*
X71424800Y-107391200D01*
X83750000Y-68425000D02*
X81892200Y-68425000D01*
X71424800Y-107391200D02*
X79298800Y-107391200D01*
X79298800Y-107391200D02*
X80755500Y-108847900D01*
X82092800Y-84886800D02*
X70612000Y-84886800D01*
X80755500Y-108847900D02*
X80755500Y-111690000D01*
X81892200Y-68425000D02*
X81838800Y-68478400D01*
X71272400Y-106426000D02*
X71780400Y-106934000D01*
X81076800Y-80822800D02*
X73304400Y-80822800D01*
X81255500Y-108535100D02*
X81255500Y-111690000D01*
X71780400Y-106934000D02*
X79654400Y-106934000D01*
X83750000Y-68925000D02*
X81189000Y-68925000D01*
X71272400Y-82854800D02*
X71272400Y-83058000D01*
X71983600Y-82143600D02*
X71272400Y-82854800D01*
X81189000Y-68925000D02*
X81026000Y-69088000D01*
X73304400Y-80822800D02*
X71983600Y-82143600D01*
X79654400Y-106934000D02*
X81255500Y-108535100D01*
X75909600Y-107774200D02*
X75909600Y-108199200D01*
X73509600Y-107774200D02*
X73509600Y-107899200D01*
X83750000Y-69425000D02*
X82365400Y-69425000D01*
X77465200Y-108199200D02*
X77465200Y-108599200D01*
X72309600Y-107899200D02*
X72309600Y-108599200D01*
X72909600Y-107899200D02*
X72909600Y-107774200D01*
X71834600Y-107649200D02*
X72184600Y-107649200D01*
X75309600Y-108599200D02*
X75309600Y-107899200D01*
X69799200Y-85953600D02*
X69748400Y-85902800D01*
X74109600Y-108599200D02*
X74109600Y-107899200D01*
X75309600Y-107899200D02*
X75309600Y-107774200D01*
X78638400Y-107899200D02*
X79755500Y-109016300D01*
X75909600Y-108199200D02*
X75909600Y-108599200D01*
X78065200Y-108599200D02*
X78065200Y-108199200D01*
X82296000Y-85953600D02*
X69799200Y-85953600D01*
X70764400Y-107899200D02*
X71584600Y-107899200D01*
X74109600Y-107899200D02*
X74109600Y-107774200D01*
X82365400Y-69425000D02*
X82346800Y-69443600D01*
X72909600Y-108599200D02*
X72909600Y-107899200D01*
X73034600Y-107649200D02*
X73384600Y-107649200D01*
X69900800Y-107035600D02*
X70764400Y-107899200D01*
X79755500Y-109016300D02*
X79755500Y-111690000D01*
X74234600Y-107649200D02*
X74584600Y-107649200D01*
X76809600Y-107899200D02*
X77165200Y-107899200D01*
X74709600Y-107899200D02*
X74709600Y-108599200D01*
X76509600Y-108599200D02*
X76509600Y-108199200D01*
X75434600Y-107649200D02*
X75784600Y-107649200D01*
X78365200Y-107899200D02*
X78638400Y-107899200D01*
X73509600Y-107899200D02*
X73509600Y-108599200D01*
X72309600Y-107774200D02*
X72309600Y-107899200D01*
X74709600Y-107774200D02*
X74709600Y-107899200D01*
X77765200Y-108899200D02*
G75*
G03*
X78065200Y-108599200I0J300000D01*
G01*
X72609600Y-108899200D02*
G75*
G03*
X72909600Y-108599200I0J300000D01*
G01*
X75434600Y-107649200D02*
G75*
G03*
X75309600Y-107774200I0J-125000D01*
G01*
X71584600Y-107899200D02*
G75*
G03*
X71709600Y-107774200I0J125000D01*
G01*
X75909600Y-108599200D02*
G75*
G03*
X76209600Y-108899200I300000J0D01*
G01*
X73034600Y-107649200D02*
G75*
G03*
X72909600Y-107774200I0J-125000D01*
G01*
X77465200Y-108599200D02*
G75*
G03*
X77765200Y-108899200I300000J0D01*
G01*
X74234600Y-107649200D02*
G75*
G03*
X74109600Y-107774200I0J-125000D01*
G01*
X75909600Y-107774200D02*
G75*
G03*
X75784600Y-107649200I-125000J0D01*
G01*
X73509600Y-108599200D02*
G75*
G03*
X73809600Y-108899200I300000J0D01*
G01*
X76809600Y-107899200D02*
G75*
G03*
X76509600Y-108199200I0J-300000D01*
G01*
X74709600Y-107774200D02*
G75*
G03*
X74584600Y-107649200I-125000J0D01*
G01*
X75009600Y-108899200D02*
G75*
G03*
X75309600Y-108599200I0J300000D01*
G01*
X71834600Y-107649200D02*
G75*
G03*
X71709600Y-107774200I0J-125000D01*
G01*
X72309600Y-108599200D02*
G75*
G03*
X72609600Y-108899200I300000J0D01*
G01*
X73509600Y-107774200D02*
G75*
G03*
X73384600Y-107649200I-125000J0D01*
G01*
X77465200Y-108199200D02*
G75*
G03*
X77165200Y-107899200I-300000J0D01*
G01*
X73809600Y-108899200D02*
G75*
G03*
X74109600Y-108599200I0J300000D01*
G01*
X78365200Y-107899200D02*
G75*
G03*
X78065200Y-108199200I0J-300000D01*
G01*
X74709600Y-108599200D02*
G75*
G03*
X75009600Y-108899200I300000J0D01*
G01*
X76209600Y-108899200D02*
G75*
G03*
X76509600Y-108599200I0J300000D01*
G01*
X72309600Y-107774200D02*
G75*
G03*
X72184600Y-107649200I-125000J0D01*
G01*
X76902410Y-106537581D02*
X76464790Y-106537581D01*
X76983600Y-105783298D02*
X76983600Y-106375200D01*
X78181200Y-106527600D02*
X77659800Y-106527600D01*
X76383600Y-106456391D02*
X76383600Y-106375200D01*
X81755500Y-108222300D02*
X79908400Y-106375200D01*
X77583600Y-106375200D02*
X77583600Y-105783298D01*
X81755500Y-111690000D02*
X81755500Y-108222300D01*
X76383600Y-106375200D02*
X76383600Y-105783285D01*
X80924400Y-82397600D02*
X72745600Y-82397600D01*
X73376797Y-106375200D02*
X72136000Y-106375200D01*
X83750000Y-69925000D02*
X81052600Y-69925000D01*
X81052600Y-69925000D02*
X81026000Y-69951600D01*
X75783600Y-105783285D02*
X75783600Y-106075200D01*
X79908400Y-106375200D02*
X78333600Y-106375200D01*
X75483600Y-106375200D02*
X73376797Y-106375200D01*
X72745600Y-82397600D02*
X72085200Y-83058000D01*
X76983600Y-106375200D02*
X76983600Y-106456391D01*
X77583600Y-106451400D02*
X77583600Y-106375200D01*
X77283600Y-105483300D02*
G75*
G03*
X76983600Y-105783298I0J-300000D01*
G01*
X76083600Y-105483300D02*
G75*
G03*
X75783600Y-105783285I0J-300000D01*
G01*
X75483600Y-106375200D02*
G75*
G03*
X75783600Y-106075200I0J300000D01*
G01*
X76383619Y-106456391D02*
G75*
G03*
X76464790Y-106537581I81181J-9D01*
G01*
X76902410Y-106537600D02*
G75*
G03*
X76983600Y-106456391I-10J81200D01*
G01*
X78181200Y-106527600D02*
G75*
G03*
X78257400Y-106451400I0J76200D01*
G01*
X77583600Y-106451400D02*
G75*
G03*
X77659800Y-106527600I76200J0D01*
G01*
X78333600Y-106375200D02*
G75*
G03*
X78257400Y-106451400I0J-76200D01*
G01*
X77583602Y-105783298D02*
G75*
G03*
X77283600Y-105483298I-300002J-2D01*
G01*
X76383615Y-105783285D02*
G75*
G03*
X76083600Y-105483285I-300015J-15D01*
G01*
X102255500Y-109936100D02*
X102260400Y-109931200D01*
X78954000Y-95747200D02*
X78943200Y-95758000D01*
X83750000Y-70425000D02*
X80635800Y-70425000D01*
X102255500Y-111690000D02*
X102255500Y-109936100D01*
X80635800Y-70425000D02*
X80619600Y-70408800D01*
X102220400Y-95747200D02*
X78954000Y-95747200D01*
X102311200Y-95656400D02*
X102220400Y-95747200D01*
X100075000Y-56625000D02*
X86500000Y-56625000D01*
X83750000Y-72425000D02*
X86150000Y-72425000D01*
X86150000Y-72425000D02*
X86200000Y-72375000D01*
X79959200Y-73253600D02*
X79248000Y-73964800D01*
X83750000Y-72925000D02*
X81507000Y-72925000D01*
X79248000Y-73964800D02*
X77927200Y-73964800D01*
X81507000Y-72925000D02*
X81178400Y-73253600D01*
X81178400Y-73253600D02*
X79959200Y-73253600D01*
X77927200Y-73964800D02*
X76403200Y-75488800D01*
X85675000Y-73425000D02*
X85700000Y-73400000D01*
X102450000Y-70425000D02*
X87050000Y-70425000D01*
X86925000Y-70550000D02*
X85800000Y-70550000D01*
X87050000Y-70425000D02*
X86925000Y-70550000D01*
X83750000Y-73425000D02*
X85675000Y-73425000D01*
X85800000Y-70550000D02*
X85775000Y-70575000D01*
X90600000Y-70950000D02*
X87100000Y-70950000D01*
X83750000Y-73925000D02*
X86650000Y-73925000D01*
X101450000Y-71325000D02*
X99375000Y-71325000D01*
X99375000Y-71325000D02*
X97700000Y-71325000D01*
X97700000Y-71325000D02*
X97450000Y-71075000D01*
X87100000Y-70950000D02*
X86900000Y-71150000D01*
X101650000Y-71125000D02*
X101450000Y-71325000D01*
X86900000Y-71150000D02*
X86925000Y-71175000D01*
X86925000Y-71175000D02*
X86925000Y-71200000D01*
X97325000Y-70950000D02*
X90600000Y-70950000D01*
X86650000Y-73925000D02*
X86750000Y-73825000D01*
X97450000Y-71075000D02*
X97325000Y-70950000D01*
X85428800Y-98747200D02*
X85328800Y-98747200D01*
X84228800Y-98747200D02*
X84128800Y-98747200D01*
X83628800Y-98247200D02*
X83528800Y-98247200D01*
X87228800Y-98247200D02*
X87128800Y-98247200D01*
X83750000Y-76425000D02*
X81953023Y-76425000D01*
X91186000Y-98247200D02*
X90728800Y-98247200D01*
X82678800Y-98497200D02*
X82678800Y-98247200D01*
X89878800Y-98497200D02*
X89878800Y-98247200D01*
X86028800Y-98247200D02*
X85928800Y-98247200D01*
X91255500Y-111690000D02*
X91255500Y-109746700D01*
X91255500Y-109746700D02*
X91236800Y-109728000D01*
X81953023Y-76425000D02*
X81764999Y-76236976D01*
X87828800Y-98747200D02*
X87728800Y-98747200D01*
X86628800Y-98747200D02*
X86528800Y-98747200D01*
X83028800Y-98747200D02*
X82928800Y-98747200D01*
X81978800Y-98247200D02*
X81578800Y-98247200D01*
X82578800Y-98047200D02*
X82178800Y-98047200D01*
X89878800Y-98247200D02*
X89878800Y-97547200D01*
X90228800Y-98747200D02*
X90128800Y-98747200D01*
X89278800Y-97547200D02*
X89278800Y-98247200D01*
X89028800Y-98747200D02*
X88928800Y-98747200D01*
X82678800Y-98247200D02*
X82678800Y-98147200D01*
X88428800Y-98247200D02*
X88328800Y-98247200D01*
X81578800Y-98247200D02*
X80772000Y-98247200D01*
X89278800Y-98247200D02*
X89278800Y-98497200D01*
X84828800Y-98247200D02*
X84728800Y-98247200D01*
X82678800Y-98147200D02*
G75*
G03*
X82578800Y-98047200I-100000J0D01*
G01*
X88328800Y-98247200D02*
G75*
G03*
X88078800Y-98497200I0J-250000D01*
G01*
X86278800Y-98497200D02*
G75*
G03*
X86528800Y-98747200I250000J0D01*
G01*
X90228800Y-98747200D02*
G75*
G03*
X90478800Y-98497200I0J250000D01*
G01*
X89028800Y-98747200D02*
G75*
G03*
X89278800Y-98497200I0J250000D01*
G01*
X87478800Y-98497200D02*
G75*
G03*
X87728800Y-98747200I250000J0D01*
G01*
X86628800Y-98747200D02*
G75*
G03*
X86878800Y-98497200I0J250000D01*
G01*
X87128800Y-98247200D02*
G75*
G03*
X86878800Y-98497200I0J-250000D01*
G01*
X85078800Y-98497200D02*
G75*
G03*
X84828800Y-98247200I-250000J0D01*
G01*
X81978800Y-98247200D02*
G75*
G03*
X82078800Y-98147200I0J100000D01*
G01*
X84728800Y-98247200D02*
G75*
G03*
X84478800Y-98497200I0J-250000D01*
G01*
X83528800Y-98247200D02*
G75*
G03*
X83278800Y-98497200I0J-250000D01*
G01*
X85928800Y-98247200D02*
G75*
G03*
X85678800Y-98497200I0J-250000D01*
G01*
X83878800Y-98497200D02*
G75*
G03*
X83628800Y-98247200I-250000J0D01*
G01*
X85078800Y-98497200D02*
G75*
G03*
X85328800Y-98747200I250000J0D01*
G01*
X84228800Y-98747200D02*
G75*
G03*
X84478800Y-98497200I0J250000D01*
G01*
X82678800Y-98497200D02*
G75*
G03*
X82928800Y-98747200I250000J0D01*
G01*
X85428800Y-98747200D02*
G75*
G03*
X85678800Y-98497200I0J250000D01*
G01*
X89878800Y-97547200D02*
G75*
G03*
X89578800Y-97247200I-300000J0D01*
G01*
X86278800Y-98497200D02*
G75*
G03*
X86028800Y-98247200I-250000J0D01*
G01*
X87828800Y-98747200D02*
G75*
G03*
X88078800Y-98497200I0J250000D01*
G01*
X88678800Y-98497200D02*
G75*
G03*
X88928800Y-98747200I250000J0D01*
G01*
X82178800Y-98047200D02*
G75*
G03*
X82078800Y-98147200I0J-100000D01*
G01*
X88678800Y-98497200D02*
G75*
G03*
X88428800Y-98247200I-250000J0D01*
G01*
X83878800Y-98497200D02*
G75*
G03*
X84128800Y-98747200I250000J0D01*
G01*
X89878800Y-98497200D02*
G75*
G03*
X90128800Y-98747200I250000J0D01*
G01*
X87478800Y-98497200D02*
G75*
G03*
X87228800Y-98247200I-250000J0D01*
G01*
X83028800Y-98747200D02*
G75*
G03*
X83278800Y-98497200I0J250000D01*
G01*
X89578800Y-97247200D02*
G75*
G03*
X89278800Y-97547200I0J-300000D01*
G01*
X90728800Y-98247200D02*
G75*
G03*
X90478800Y-98497200I0J-250000D01*
G01*
X83750000Y-76925000D02*
X81547800Y-76925000D01*
X81072400Y-98659200D02*
X80822400Y-98659200D01*
X89372400Y-99009200D02*
X89122400Y-99009200D01*
X81522400Y-99009200D02*
X81422400Y-99009200D01*
X81483200Y-76860400D02*
X80670400Y-76860400D01*
X90755500Y-111690000D02*
X90755500Y-108888500D01*
X81547800Y-76925000D02*
X81483200Y-76860400D01*
X90728800Y-99009200D02*
X90322400Y-99009200D01*
X89122400Y-99009200D02*
X82622400Y-99009200D01*
X89972400Y-99359200D02*
X89722400Y-99359200D01*
X90755500Y-108888500D02*
X90779600Y-108864400D01*
X80472400Y-99009200D02*
X80222400Y-99009200D01*
X79756000Y-99009200D02*
X79603600Y-99161600D01*
X80670400Y-76860400D02*
X80619600Y-76809600D01*
X80222400Y-99009200D02*
X79756000Y-99009200D01*
X82122400Y-98509200D02*
X82022400Y-98509200D01*
X81247400Y-98834200D02*
G75*
G03*
X81072400Y-98659200I-175000J0D01*
G01*
X80822400Y-98659200D02*
G75*
G03*
X80647400Y-98834200I0J-175000D01*
G01*
X81522400Y-99009200D02*
G75*
G03*
X81772400Y-98759200I0J250000D01*
G01*
X81247400Y-98834200D02*
G75*
G03*
X81422400Y-99009200I175000J0D01*
G01*
X90322400Y-99009200D02*
G75*
G03*
X90147400Y-99184200I0J-175000D01*
G01*
X80472400Y-99009200D02*
G75*
G03*
X80647400Y-98834200I0J175000D01*
G01*
X89547400Y-99184200D02*
G75*
G03*
X89372400Y-99009200I-175000J0D01*
G01*
X89972400Y-99359200D02*
G75*
G03*
X90147400Y-99184200I0J175000D01*
G01*
X89547400Y-99184200D02*
G75*
G03*
X89722400Y-99359200I175000J0D01*
G01*
X82372400Y-98759200D02*
G75*
G03*
X82622400Y-99009200I250000J0D01*
G01*
X82372400Y-98759200D02*
G75*
G03*
X82122400Y-98509200I-250000J0D01*
G01*
X82022400Y-98509200D02*
G75*
G03*
X81772400Y-98759200I0J-250000D01*
G01*
X88812800Y-99577600D02*
X88812800Y-99877600D01*
X86237800Y-100527600D02*
X85987800Y-100527600D01*
X88212800Y-100177600D02*
X88212800Y-99577600D01*
X81612800Y-99577600D02*
X81612800Y-99877600D01*
X87012800Y-100727600D02*
X87012800Y-100177600D01*
X84962800Y-100677600D02*
X84862800Y-100677600D01*
X90170000Y-100177600D02*
X89712800Y-100177600D01*
X88812800Y-99877600D02*
X88812800Y-100627600D01*
X90255500Y-111690000D02*
X90255500Y-109744100D01*
X88212800Y-100627600D02*
X88212800Y-100177600D01*
X90255500Y-109744100D02*
X90271600Y-109728000D01*
X82212800Y-100427600D02*
X82212800Y-100177600D01*
X89412800Y-99877600D02*
X89412800Y-99577600D01*
X85812800Y-100177600D02*
X85812800Y-99577600D01*
X86412800Y-99577600D02*
X86412800Y-100177600D01*
X83412800Y-100177600D02*
X83412800Y-99577600D01*
X82812800Y-99577600D02*
X82812800Y-100177600D01*
X82212800Y-100177600D02*
X82212800Y-99577600D01*
X81093802Y-77425000D02*
X80933134Y-77264332D01*
X80636911Y-100177600D02*
X80314800Y-100177600D01*
X83750000Y-77425000D02*
X81093802Y-77425000D01*
X85212800Y-100177600D02*
X85212800Y-100427600D01*
X86412800Y-100177600D02*
X86412800Y-100352600D01*
X80314800Y-100177600D02*
X80213200Y-100076000D01*
X87012800Y-100177600D02*
X87012800Y-99577600D01*
X85812800Y-100352600D02*
X85812800Y-100177600D01*
X84612800Y-100427600D02*
X84612800Y-100177600D01*
X87612800Y-99577600D02*
X87612800Y-100177600D01*
X83762800Y-100677600D02*
X83662800Y-100677600D01*
X87612800Y-100177600D02*
X87612800Y-100727600D01*
X81312800Y-100177600D02*
X80636911Y-100177600D01*
X85212800Y-99577600D02*
X85212800Y-100177600D01*
X84012800Y-99577600D02*
X84012800Y-100177600D01*
X82812800Y-100177600D02*
X82812800Y-100427600D01*
X84612800Y-100177600D02*
X84612800Y-99577600D01*
X82562800Y-100677600D02*
X82462800Y-100677600D01*
X83412800Y-100427600D02*
X83412800Y-100177600D01*
X84012800Y-100177600D02*
X84012800Y-100427600D01*
X84312800Y-99277600D02*
G75*
G03*
X84012800Y-99577600I0J-300000D01*
G01*
X87012800Y-100727600D02*
G75*
G03*
X87312800Y-101027600I300000J0D01*
G01*
X81912800Y-99277600D02*
G75*
G03*
X81612800Y-99577600I0J-300000D01*
G01*
X83112800Y-99277600D02*
G75*
G03*
X82812800Y-99577600I0J-300000D01*
G01*
X86712800Y-99277600D02*
G75*
G03*
X86412800Y-99577600I0J-300000D01*
G01*
X87312800Y-101027600D02*
G75*
G03*
X87612800Y-100727600I0J300000D01*
G01*
X85812800Y-100352600D02*
G75*
G03*
X85987800Y-100527600I175000J0D01*
G01*
X84612800Y-99577600D02*
G75*
G03*
X84312800Y-99277600I-300000J0D01*
G01*
X89112800Y-99277600D02*
G75*
G03*
X88812800Y-99577600I0J-300000D01*
G01*
X84612800Y-100427600D02*
G75*
G03*
X84862800Y-100677600I250000J0D01*
G01*
X89412800Y-99877600D02*
G75*
G03*
X89712800Y-100177600I300000J0D01*
G01*
X83412800Y-100427600D02*
G75*
G03*
X83662800Y-100677600I250000J0D01*
G01*
X83762800Y-100677600D02*
G75*
G03*
X84012800Y-100427600I0J250000D01*
G01*
X87012800Y-99577600D02*
G75*
G03*
X86712800Y-99277600I-300000J0D01*
G01*
X88212800Y-100627600D02*
G75*
G03*
X88512800Y-100927600I300000J0D01*
G01*
X88212800Y-99577600D02*
G75*
G03*
X87912800Y-99277600I-300000J0D01*
G01*
X82562800Y-100677600D02*
G75*
G03*
X82812800Y-100427600I0J250000D01*
G01*
X86237800Y-100527600D02*
G75*
G03*
X86412800Y-100352600I0J175000D01*
G01*
X87912800Y-99277600D02*
G75*
G03*
X87612800Y-99577600I0J-300000D01*
G01*
X89412800Y-99577600D02*
G75*
G03*
X89112800Y-99277600I-300000J0D01*
G01*
X85812800Y-99577600D02*
G75*
G03*
X85512800Y-99277600I-300000J0D01*
G01*
X85512800Y-99277600D02*
G75*
G03*
X85212800Y-99577600I0J-300000D01*
G01*
X84962800Y-100677600D02*
G75*
G03*
X85212800Y-100427600I0J250000D01*
G01*
X83412800Y-99577600D02*
G75*
G03*
X83112800Y-99277600I-300000J0D01*
G01*
X82212800Y-100427600D02*
G75*
G03*
X82462800Y-100677600I250000J0D01*
G01*
X88512800Y-100927600D02*
G75*
G03*
X88812800Y-100627600I0J300000D01*
G01*
X81312800Y-100177600D02*
G75*
G03*
X81612800Y-99877600I0J300000D01*
G01*
X82212800Y-99577600D02*
G75*
G03*
X81912800Y-99277600I-300000J0D01*
G01*
X87567800Y-97709400D02*
X87567800Y-97434400D01*
X87342800Y-96984400D02*
X87192800Y-96984400D01*
X84292800Y-97984400D02*
X84242800Y-97984400D01*
X82442800Y-97434400D02*
X81584800Y-97434400D01*
X87892800Y-97984400D02*
X87842800Y-97984400D01*
X83967800Y-97709400D02*
X83967800Y-97434400D01*
X84567800Y-97209400D02*
X84567800Y-97434400D01*
X86967800Y-97209400D02*
X86967800Y-97434400D01*
X86692800Y-97984400D02*
X86642800Y-97984400D01*
X81560200Y-79425000D02*
X81381600Y-79603600D01*
X85492800Y-97984400D02*
X85442800Y-97984400D01*
X85767800Y-97434400D02*
X85767800Y-97709400D01*
X85167800Y-97434400D02*
X85167800Y-97209400D01*
X83742800Y-96984400D02*
X83592800Y-96984400D01*
X81584800Y-97434400D02*
X81534000Y-97485200D01*
X85767800Y-97209400D02*
X85767800Y-97434400D01*
X86142800Y-96984400D02*
X85992800Y-96984400D01*
X82492800Y-97434400D02*
X82442800Y-97434400D01*
X80467200Y-97383600D02*
X80365600Y-97282000D01*
X84567800Y-97434400D02*
X84567800Y-97709400D01*
X86967800Y-97434400D02*
X86967800Y-97709400D01*
X83750000Y-79425000D02*
X81560200Y-79425000D01*
X81534000Y-97485200D02*
X80518000Y-97485200D01*
X84942800Y-96984400D02*
X84792800Y-96984400D01*
X80467200Y-97434400D02*
X80467200Y-97383600D01*
X83367800Y-97209400D02*
X83367800Y-97434400D01*
X83092800Y-97984400D02*
X83042800Y-97984400D01*
X87567800Y-97434400D02*
X87567800Y-97209400D01*
X88755500Y-108907300D02*
X88798400Y-108864400D01*
X80518000Y-97485200D02*
X80467200Y-97434400D01*
X88755500Y-111690000D02*
X88755500Y-108907300D01*
X83967800Y-97434400D02*
X83967800Y-97209400D01*
X86367800Y-97709400D02*
X86367800Y-97434400D01*
X83367800Y-97434400D02*
X83367800Y-97709400D01*
X86367800Y-97434400D02*
X86367800Y-97209400D01*
X88798400Y-97434400D02*
X88442800Y-97434400D01*
X85167800Y-97709400D02*
X85167800Y-97434400D01*
X88442800Y-97434400D02*
G75*
G03*
X88167800Y-97709400I0J-275000D01*
G01*
X87192800Y-96984400D02*
G75*
G03*
X86967800Y-97209400I0J-225000D01*
G01*
X87892800Y-97984400D02*
G75*
G03*
X88167800Y-97709400I0J275000D01*
G01*
X83592800Y-96984400D02*
G75*
G03*
X83367800Y-97209400I0J-225000D01*
G01*
X85167800Y-97709400D02*
G75*
G03*
X85442800Y-97984400I275000J0D01*
G01*
X85992800Y-96984400D02*
G75*
G03*
X85767800Y-97209400I0J-225000D01*
G01*
X84792800Y-96984400D02*
G75*
G03*
X84567800Y-97209400I0J-225000D01*
G01*
X86692800Y-97984400D02*
G75*
G03*
X86967800Y-97709400I0J275000D01*
G01*
X87567800Y-97209400D02*
G75*
G03*
X87342800Y-96984400I-225000J0D01*
G01*
X85167800Y-97209400D02*
G75*
G03*
X84942800Y-96984400I-225000J0D01*
G01*
X83967800Y-97209400D02*
G75*
G03*
X83742800Y-96984400I-225000J0D01*
G01*
X82767800Y-97709400D02*
G75*
G03*
X82492800Y-97434400I-275000J0D01*
G01*
X83092800Y-97984400D02*
G75*
G03*
X83367800Y-97709400I0J275000D01*
G01*
X85492800Y-97984400D02*
G75*
G03*
X85767800Y-97709400I0J275000D01*
G01*
X86367800Y-97209400D02*
G75*
G03*
X86142800Y-96984400I-225000J0D01*
G01*
X84292800Y-97984400D02*
G75*
G03*
X84567800Y-97709400I0J275000D01*
G01*
X86367800Y-97709400D02*
G75*
G03*
X86642800Y-97984400I275000J0D01*
G01*
X82767800Y-97709400D02*
G75*
G03*
X83042800Y-97984400I275000J0D01*
G01*
X87567800Y-97709400D02*
G75*
G03*
X87842800Y-97984400I275000J0D01*
G01*
X83967800Y-97709400D02*
G75*
G03*
X84242800Y-97984400I275000J0D01*
G01*
X86175000Y-81350000D02*
X86175000Y-83293800D01*
X84734400Y-108813600D02*
X84755500Y-108834700D01*
X85953600Y-83515200D02*
X85953600Y-84531200D01*
X85953600Y-84531200D02*
X85902800Y-84582000D01*
X84755500Y-108834700D02*
X84755500Y-111690000D01*
X86175000Y-83293800D02*
X85953600Y-83515200D01*
X81788000Y-51460400D02*
X70256400Y-51460400D01*
X70256400Y-51460400D02*
X68427600Y-53289200D01*
X68427600Y-53289200D02*
X66344800Y-53289200D01*
X66344800Y-53289200D02*
X61366400Y-58267600D01*
X83750000Y-75925000D02*
X85323000Y-75925000D01*
X85323000Y-75925000D02*
X85344000Y-75946000D01*
X90541600Y-94697600D02*
X90341600Y-94697600D01*
X90141600Y-94897600D02*
X90141600Y-95097600D01*
X88341200Y-95097600D02*
X88290400Y-95046800D01*
X92255500Y-109781500D02*
X92252800Y-109778800D01*
X88175000Y-79386600D02*
X88175000Y-81350000D01*
X92354400Y-95097600D02*
X91541600Y-95097600D01*
X88036400Y-79248000D02*
X88175000Y-79386600D01*
X90141600Y-95097600D02*
X90141600Y-95297600D01*
X89341600Y-95097600D02*
X89141600Y-95097600D01*
X90741600Y-95297600D02*
X90741600Y-95097600D01*
X91141600Y-95497600D02*
X90941600Y-95497600D01*
X90741600Y-95097600D02*
X90741600Y-94897600D01*
X89141600Y-95097600D02*
X88341200Y-95097600D01*
X92255500Y-111690000D02*
X92255500Y-109781500D01*
X89941600Y-95497600D02*
X89741600Y-95497600D01*
X88036400Y-75895200D02*
X88036400Y-79248000D01*
X91541600Y-95097600D02*
G75*
G03*
X91341600Y-95297600I0J-200000D01*
G01*
X89541600Y-95297600D02*
G75*
G03*
X89341600Y-95097600I-200000J0D01*
G01*
X90741600Y-94897600D02*
G75*
G03*
X90541600Y-94697600I-200000J0D01*
G01*
X91141600Y-95497600D02*
G75*
G03*
X91341600Y-95297600I0J200000D01*
G01*
X90341600Y-94697600D02*
G75*
G03*
X90141600Y-94897600I0J-200000D01*
G01*
X89941600Y-95497600D02*
G75*
G03*
X90141600Y-95297600I0J200000D01*
G01*
X89541600Y-95297600D02*
G75*
G03*
X89741600Y-95497600I200000J0D01*
G01*
X90741600Y-95297600D02*
G75*
G03*
X90941600Y-95497600I200000J0D01*
G01*
X88747600Y-76149200D02*
X88747600Y-81277400D01*
X87255500Y-109848500D02*
X87274400Y-109829600D01*
X88983200Y-93624400D02*
X89033200Y-93624400D01*
X88747600Y-81277400D02*
X88675000Y-81350000D01*
X87255500Y-111690000D02*
X87255500Y-109848500D01*
X89033200Y-93624400D02*
X89560400Y-93624400D01*
X87325200Y-93624400D02*
X87833200Y-93624400D01*
X88383200Y-94174400D02*
X88433200Y-94174400D01*
X88983200Y-93624400D02*
G75*
G03*
X88708200Y-93899400I0J-275000D01*
G01*
X88433200Y-94174400D02*
G75*
G03*
X88708200Y-93899400I0J275000D01*
G01*
X88108200Y-93899400D02*
G75*
G03*
X88383200Y-94174400I275000J0D01*
G01*
X88108200Y-93899400D02*
G75*
G03*
X87833200Y-93624400I-275000J0D01*
G01*
X91755500Y-111690000D02*
X91755500Y-108955300D01*
X91755500Y-108955300D02*
X91795600Y-108915200D01*
X90728800Y-79756000D02*
X90728800Y-81296200D01*
X90728800Y-81296200D02*
X90675000Y-81350000D01*
X89069600Y-91643200D02*
X89069600Y-90943200D01*
X89069600Y-92343200D02*
X89069600Y-91643200D01*
X91175000Y-81350000D02*
X91135200Y-81389800D01*
X88469600Y-91643200D02*
X88469600Y-92343200D01*
X86360000Y-91643200D02*
X86969600Y-91643200D01*
X90269600Y-92343200D02*
X90269600Y-91643200D01*
X90869600Y-90943200D02*
X90869600Y-91343200D01*
X87269600Y-91943200D02*
X87269600Y-92343200D01*
X91135200Y-81389800D02*
X91135200Y-83312000D01*
X91169600Y-91643200D02*
X91820716Y-91643200D01*
X91998800Y-91643200D02*
X92049600Y-91592400D01*
X86255500Y-111690000D02*
X86255500Y-109826700D01*
X89669600Y-91643200D02*
X89669600Y-92343200D01*
X90269600Y-91643200D02*
X90269600Y-90943200D01*
X87869600Y-91943200D02*
X87869600Y-90943200D01*
X87869600Y-92343200D02*
X87869600Y-91943200D01*
X88469600Y-90943200D02*
X88469600Y-91643200D01*
X91820716Y-91643200D02*
X91998800Y-91643200D01*
X89669600Y-90943200D02*
X89669600Y-91643200D01*
X86255500Y-109826700D02*
X86207600Y-109778800D01*
X89969600Y-92643200D02*
G75*
G03*
X90269600Y-92343200I0J300000D01*
G01*
X89369600Y-90643200D02*
G75*
G03*
X89069600Y-90943200I0J-300000D01*
G01*
X88469600Y-92343200D02*
G75*
G03*
X88769600Y-92643200I300000J0D01*
G01*
X89669600Y-92343200D02*
G75*
G03*
X89969600Y-92643200I300000J0D01*
G01*
X87269600Y-92343200D02*
G75*
G03*
X87569600Y-92643200I300000J0D01*
G01*
X87569600Y-92643200D02*
G75*
G03*
X87869600Y-92343200I0J300000D01*
G01*
X90569600Y-90643200D02*
G75*
G03*
X90269600Y-90943200I0J-300000D01*
G01*
X89669600Y-90943200D02*
G75*
G03*
X89369600Y-90643200I-300000J0D01*
G01*
X88169600Y-90643200D02*
G75*
G03*
X87869600Y-90943200I0J-300000D01*
G01*
X90869600Y-91343200D02*
G75*
G03*
X91169600Y-91643200I300000J0D01*
G01*
X87269600Y-91943200D02*
G75*
G03*
X86969600Y-91643200I-300000J0D01*
G01*
X90869600Y-90943200D02*
G75*
G03*
X90569600Y-90643200I-300000J0D01*
G01*
X88469600Y-90943200D02*
G75*
G03*
X88169600Y-90643200I-300000J0D01*
G01*
X88769600Y-92643200D02*
G75*
G03*
X89069600Y-92343200I0J300000D01*
G01*
X80670400Y-36220400D02*
X78994000Y-36220400D01*
X81178400Y-36728400D02*
X80670400Y-36220400D01*
X78994000Y-36220400D02*
X77978000Y-36220400D01*
X92303600Y-37084000D02*
X81534000Y-37084000D01*
X91675000Y-80130600D02*
X91694000Y-80111600D01*
X81534000Y-37084000D02*
X81178400Y-36728400D01*
X77978000Y-36220400D02*
X77114400Y-37084000D01*
X91675000Y-81350000D02*
X91675000Y-80130600D01*
X80255500Y-109634900D02*
X80264000Y-109626400D01*
X80255500Y-111690000D02*
X80255500Y-109634900D01*
X92175000Y-81350000D02*
X92175000Y-82678600D01*
X92175000Y-82678600D02*
X92151200Y-82702400D01*
X92675000Y-81350000D02*
X92675000Y-80111600D01*
X101650000Y-63975000D02*
X101675000Y-63950000D01*
X93000000Y-63975000D02*
X101650000Y-63975000D01*
X93175000Y-83825000D02*
X93125000Y-83875000D01*
X93175000Y-81350000D02*
X93175000Y-83825000D01*
X93675000Y-84350000D02*
X93725000Y-84400000D01*
X93675000Y-81350000D02*
X93675000Y-84350000D01*
X94175000Y-81350000D02*
X94175000Y-83625000D01*
X94175000Y-83625000D02*
X94225000Y-83675000D01*
X94675000Y-83300000D02*
X94775000Y-83400000D01*
X94775000Y-83400000D02*
X95000000Y-83625000D01*
X94675000Y-81350000D02*
X94675000Y-83300000D01*
X95000000Y-83625000D02*
X95000000Y-84875000D01*
X95175000Y-79800000D02*
X95225000Y-79750000D01*
X104925000Y-65425000D02*
X94700000Y-65425000D01*
X95175000Y-81350000D02*
X95175000Y-79800000D01*
X96469200Y-79400400D02*
X96062800Y-79806800D01*
X96675000Y-83625000D02*
X96725000Y-83675000D01*
X96675000Y-81350000D02*
X96675000Y-83625000D01*
X102975000Y-79000000D02*
X102574600Y-79400400D01*
X102574600Y-79400400D02*
X96469200Y-79400400D01*
X93625000Y-58900000D02*
X96200000Y-58900000D01*
X96774000Y-79806800D02*
X97175000Y-80207800D01*
X97175000Y-80207800D02*
X97175000Y-81350000D01*
X96625000Y-58700000D02*
X97400000Y-58700000D01*
X95100000Y-58250000D02*
X96175000Y-58250000D01*
X97675000Y-81350000D02*
X97675000Y-79850000D01*
X96175000Y-58250000D02*
X96625000Y-58700000D01*
X98348800Y-80060800D02*
X98175000Y-80234600D01*
X98175000Y-80234600D02*
X98175000Y-81350000D01*
X97575000Y-59600000D02*
X97875000Y-59300000D01*
X95950000Y-59600000D02*
X97575000Y-59600000D01*
X99675000Y-85300000D02*
X100200000Y-85825000D01*
X99675000Y-81350000D02*
X99675000Y-85300000D01*
X100175000Y-84625000D02*
X100175000Y-84950453D01*
X100175000Y-81350000D02*
X100175000Y-82825000D01*
X99925000Y-83675000D02*
X99925000Y-84025000D01*
X100300000Y-83550000D02*
X100175000Y-83550000D01*
X100175000Y-83550000D02*
X100050000Y-83550000D01*
X100425000Y-83075000D02*
X100425000Y-83425000D01*
X100175000Y-84950453D02*
X100899650Y-85675103D01*
X100175000Y-84275000D02*
X100175000Y-84625000D01*
X100425000Y-83075000D02*
G75*
G03*
X100300000Y-82950000I-125000J0D01*
G01*
X100300000Y-83550000D02*
G75*
G03*
X100425000Y-83425000I0J125000D01*
G01*
X100175000Y-82825000D02*
G75*
G03*
X100300000Y-82950000I125000J0D01*
G01*
X99925000Y-84025000D02*
G75*
G03*
X100050000Y-84150000I125000J0D01*
G01*
X100175000Y-84275000D02*
G75*
G03*
X100050000Y-84150000I-125000J0D01*
G01*
X100050000Y-83550000D02*
G75*
G03*
X99925000Y-83675000I0J-125000D01*
G01*
X100675000Y-81350000D02*
X100675000Y-84781051D01*
X100679000Y-75946000D02*
X100725000Y-75900000D01*
X100675000Y-84781051D02*
X101417399Y-85523450D01*
X95975000Y-75825000D02*
X99294600Y-75825000D01*
X99415600Y-75946000D02*
X100679000Y-75946000D01*
X99294600Y-75825000D02*
X99415600Y-75946000D01*
X101225000Y-74700000D02*
X99500000Y-74700000D01*
X99025000Y-74375000D02*
X98200000Y-74375000D01*
X101858099Y-85991901D02*
X101600000Y-86250000D01*
X95500000Y-74375000D02*
X95250000Y-74125000D01*
X101175000Y-81350000D02*
X101175000Y-84717100D01*
X99500000Y-74700000D02*
X99425000Y-74775000D01*
X98200000Y-74375000D02*
X95500000Y-74375000D01*
X101858099Y-85400199D02*
X101858099Y-85991901D01*
X99425000Y-74775000D02*
X99025000Y-74375000D01*
X101175000Y-84717100D02*
X101858099Y-85400199D01*
X101825000Y-75400000D02*
X99375000Y-75400000D01*
X99000000Y-75025000D02*
X98750000Y-74775000D01*
X98750000Y-74775000D02*
X97750000Y-74775000D01*
X99375000Y-75400000D02*
X99000000Y-75025000D01*
X102100000Y-85400000D02*
X102100000Y-87025000D01*
X95250000Y-74650000D02*
X95225000Y-74625000D01*
X95225000Y-74625000D02*
X93600000Y-74625000D01*
X102150000Y-85350000D02*
X102100000Y-85400000D01*
X101675000Y-84875000D02*
X102150000Y-85350000D01*
X101675000Y-81350000D02*
X101675000Y-84875000D01*
X97750000Y-74775000D02*
X95375000Y-74775000D01*
X95375000Y-74775000D02*
X95250000Y-74650000D01*
X102725000Y-86069004D02*
X102505557Y-86288447D01*
X102175000Y-84850000D02*
X102725000Y-85400000D01*
X102725000Y-85400000D02*
X102725000Y-86069004D01*
X102175000Y-81350000D02*
X102175000Y-84850000D01*
X102175000Y-76500000D02*
X93650000Y-76500000D01*
X95454000Y-105314000D02*
X95454000Y-105664000D01*
X102054000Y-106364000D02*
X102054000Y-105964000D01*
X99654000Y-105664000D02*
X99654000Y-105314000D01*
X100254000Y-105314000D02*
X100254000Y-105664000D01*
X94854000Y-106364000D02*
X94854000Y-105664000D01*
X101454000Y-105664000D02*
X101454000Y-106364000D01*
X94254000Y-105664000D02*
X94254000Y-106364000D01*
X95454000Y-105664000D02*
X95454000Y-106364000D01*
X93054000Y-105314000D02*
X93054000Y-105664000D01*
X97254000Y-105664000D02*
X97254000Y-105314000D01*
X100854000Y-106364000D02*
X100854000Y-105664000D01*
X90054000Y-106364000D02*
X90054000Y-105964000D01*
X99654000Y-106364000D02*
X99654000Y-105664000D01*
X98454000Y-106364000D02*
X98454000Y-105664000D01*
X93054000Y-105664000D02*
X93054000Y-106364000D01*
X88341200Y-105664000D02*
X89154000Y-105664000D01*
X96054000Y-106364000D02*
X96054000Y-105664000D01*
X96654000Y-105664000D02*
X96654000Y-106364000D01*
X102675000Y-84387000D02*
X103022400Y-84734400D01*
X103022400Y-84734400D02*
X103225600Y-84937600D01*
X103225600Y-84937600D02*
X103225600Y-86563200D01*
X97254000Y-106364000D02*
X97254000Y-105664000D01*
X97854000Y-105314000D02*
X97854000Y-105664000D01*
X92454000Y-106364000D02*
X92454000Y-105664000D01*
X91254000Y-105664000D02*
X91254000Y-105314000D01*
X92454000Y-105664000D02*
X92454000Y-105314000D01*
X94854000Y-105664000D02*
X94854000Y-105314000D01*
X100254000Y-105664000D02*
X100254000Y-106364000D01*
X102868413Y-105664000D02*
X103124000Y-105664000D01*
X88255500Y-111690000D02*
X88255500Y-109693100D01*
X94254000Y-105314000D02*
X94254000Y-105664000D01*
X90654000Y-105664000D02*
X90654000Y-106364000D01*
X89454000Y-105964000D02*
X89454000Y-106364000D01*
X91254000Y-106364000D02*
X91254000Y-105664000D01*
X93654000Y-105664000D02*
X93654000Y-105314000D01*
X102675000Y-81350000D02*
X102675000Y-84387000D01*
X101454000Y-105314000D02*
X101454000Y-105664000D01*
X88255500Y-109693100D02*
X88239600Y-109677200D01*
X96654000Y-105314000D02*
X96654000Y-105664000D01*
X91854000Y-105314000D02*
X91854000Y-105664000D01*
X98454000Y-105664000D02*
X98454000Y-105314000D01*
X91854000Y-105664000D02*
X91854000Y-106364000D01*
X102354000Y-105664000D02*
X102868413Y-105664000D01*
X99054000Y-105664000D02*
X99054000Y-106364000D01*
X90654000Y-105314000D02*
X90654000Y-105664000D01*
X97854000Y-105664000D02*
X97854000Y-106364000D01*
X90054000Y-105964000D02*
X90054000Y-105314000D01*
X100854000Y-105664000D02*
X100854000Y-105314000D01*
X99054000Y-105314000D02*
X99054000Y-105664000D01*
X96054000Y-105664000D02*
X96054000Y-105314000D01*
X93654000Y-106364000D02*
X93654000Y-105664000D01*
X93354000Y-106664000D02*
G75*
G03*
X93654000Y-106364000I0J300000D01*
G01*
X102354000Y-105664000D02*
G75*
G03*
X102054000Y-105964000I0J-300000D01*
G01*
X92754000Y-105014000D02*
G75*
G03*
X92454000Y-105314000I0J-300000D01*
G01*
X96354000Y-105014000D02*
G75*
G03*
X96054000Y-105314000I0J-300000D01*
G01*
X91554000Y-105014000D02*
G75*
G03*
X91254000Y-105314000I0J-300000D01*
G01*
X101154000Y-105014000D02*
G75*
G03*
X100854000Y-105314000I0J-300000D01*
G01*
X100254000Y-105314000D02*
G75*
G03*
X99954000Y-105014000I-300000J0D01*
G01*
X89454000Y-105964000D02*
G75*
G03*
X89154000Y-105664000I-300000J0D01*
G01*
X98754000Y-105014000D02*
G75*
G03*
X98454000Y-105314000I0J-300000D01*
G01*
X99354000Y-106664000D02*
G75*
G03*
X99654000Y-106364000I0J300000D01*
G01*
X99054000Y-105314000D02*
G75*
G03*
X98754000Y-105014000I-300000J0D01*
G01*
X94254000Y-105314000D02*
G75*
G03*
X93954000Y-105014000I-300000J0D01*
G01*
X100254000Y-106364000D02*
G75*
G03*
X100554000Y-106664000I300000J0D01*
G01*
X91854000Y-105314000D02*
G75*
G03*
X91554000Y-105014000I-300000J0D01*
G01*
X99054000Y-106364000D02*
G75*
G03*
X99354000Y-106664000I300000J0D01*
G01*
X93054000Y-105314000D02*
G75*
G03*
X92754000Y-105014000I-300000J0D01*
G01*
X96654000Y-105314000D02*
G75*
G03*
X96354000Y-105014000I-300000J0D01*
G01*
X97854000Y-106364000D02*
G75*
G03*
X98154000Y-106664000I300000J0D01*
G01*
X96654000Y-106364000D02*
G75*
G03*
X96954000Y-106664000I300000J0D01*
G01*
X95754000Y-106664000D02*
G75*
G03*
X96054000Y-106364000I0J300000D01*
G01*
X90654000Y-105314000D02*
G75*
G03*
X90354000Y-105014000I-300000J0D01*
G01*
X101454000Y-106364000D02*
G75*
G03*
X101754000Y-106664000I300000J0D01*
G01*
X95454000Y-106364000D02*
G75*
G03*
X95754000Y-106664000I300000J0D01*
G01*
X95454000Y-105314000D02*
G75*
G03*
X95154000Y-105014000I-300000J0D01*
G01*
X94554000Y-106664000D02*
G75*
G03*
X94854000Y-106364000I0J300000D01*
G01*
X95154000Y-105014000D02*
G75*
G03*
X94854000Y-105314000I0J-300000D01*
G01*
X97554000Y-105014000D02*
G75*
G03*
X97254000Y-105314000I0J-300000D01*
G01*
X98154000Y-106664000D02*
G75*
G03*
X98454000Y-106364000I0J300000D01*
G01*
X99954000Y-105014000D02*
G75*
G03*
X99654000Y-105314000I0J-300000D01*
G01*
X100554000Y-106664000D02*
G75*
G03*
X100854000Y-106364000I0J300000D01*
G01*
X92154000Y-106664000D02*
G75*
G03*
X92454000Y-106364000I0J300000D01*
G01*
X96954000Y-106664000D02*
G75*
G03*
X97254000Y-106364000I0J300000D01*
G01*
X101454000Y-105314000D02*
G75*
G03*
X101154000Y-105014000I-300000J0D01*
G01*
X90954000Y-106664000D02*
G75*
G03*
X91254000Y-106364000I0J300000D01*
G01*
X89754000Y-106664000D02*
G75*
G03*
X90054000Y-106364000I0J300000D01*
G01*
X97854000Y-105314000D02*
G75*
G03*
X97554000Y-105014000I-300000J0D01*
G01*
X91854000Y-106364000D02*
G75*
G03*
X92154000Y-106664000I300000J0D01*
G01*
X93954000Y-105014000D02*
G75*
G03*
X93654000Y-105314000I0J-300000D01*
G01*
X90654000Y-106364000D02*
G75*
G03*
X90954000Y-106664000I300000J0D01*
G01*
X101754000Y-106664000D02*
G75*
G03*
X102054000Y-106364000I0J300000D01*
G01*
X94254000Y-106364000D02*
G75*
G03*
X94554000Y-106664000I300000J0D01*
G01*
X90354000Y-105014000D02*
G75*
G03*
X90054000Y-105314000I0J-300000D01*
G01*
X93054000Y-106364000D02*
G75*
G03*
X93354000Y-106664000I300000J0D01*
G01*
X89454000Y-106364000D02*
G75*
G03*
X89754000Y-106664000I300000J0D01*
G01*
X107675000Y-81350000D02*
X107675000Y-82723400D01*
X99019600Y-92100400D02*
X99019600Y-92375400D01*
X94219600Y-91400400D02*
X94219600Y-91800400D01*
X107188000Y-83210400D02*
X107188000Y-83390241D01*
X103219600Y-92375400D02*
X103219600Y-92100400D01*
X99619600Y-92375400D02*
X99619600Y-92100400D01*
X100819600Y-92375400D02*
X100819600Y-92100400D01*
X102894600Y-92650400D02*
X102944600Y-92650400D01*
X103819600Y-92100400D02*
X103819600Y-92375400D01*
X92760800Y-92100400D02*
X93319600Y-92100400D01*
X102619600Y-91400400D02*
X102619600Y-92100400D01*
X94819600Y-92100400D02*
X94819600Y-91400400D01*
X92755500Y-108920500D02*
X92760800Y-108915200D01*
X96894600Y-92650400D02*
X96944600Y-92650400D01*
X96019600Y-92375400D02*
X96019600Y-92100400D01*
X101419600Y-91400400D02*
X101419600Y-92100400D01*
X92755500Y-111690000D02*
X92755500Y-108920500D01*
X96019600Y-92100400D02*
X96019600Y-91600400D01*
X95419600Y-91400400D02*
X95419600Y-92100400D01*
X102619600Y-92100400D02*
X102619600Y-92375400D01*
X97219600Y-92100400D02*
X97219600Y-91925400D01*
X106758800Y-84711600D02*
X106883200Y-84836000D01*
X99019600Y-91400400D02*
X99019600Y-92100400D01*
X95419600Y-92100400D02*
X95419600Y-92375400D01*
X98419600Y-92375400D02*
X98419600Y-92100400D01*
X97219600Y-92375400D02*
X97219600Y-92100400D01*
X98094600Y-92650400D02*
X98144600Y-92650400D01*
X96619600Y-92100400D02*
X96619600Y-92375400D01*
X100219600Y-91400400D02*
X100219600Y-92100400D01*
X105019600Y-91400400D02*
X105019600Y-92100400D01*
X101694600Y-92650400D02*
X101744600Y-92650400D01*
X94819600Y-92375400D02*
X94819600Y-92100400D01*
X105894600Y-92100400D02*
X105944600Y-92100400D01*
X106578400Y-92100400D02*
X106883200Y-91795600D01*
X107188000Y-83390241D02*
X106758800Y-83819441D01*
X104419600Y-92100400D02*
X104419600Y-91400400D01*
X94494600Y-92650400D02*
X94544600Y-92650400D01*
X103219600Y-92100400D02*
X103219600Y-91400400D01*
X94219600Y-91800400D02*
X94219600Y-92375400D01*
X93619600Y-91800400D02*
X93619600Y-91400400D01*
X102019600Y-92375400D02*
X102019600Y-92100400D01*
X104419600Y-92375400D02*
X104419600Y-92100400D01*
X99294600Y-92650400D02*
X99344600Y-92650400D01*
X95694600Y-92650400D02*
X95744600Y-92650400D01*
X101419600Y-92100400D02*
X101419600Y-92375400D01*
X96619600Y-91600400D02*
X96619600Y-92100400D01*
X103819600Y-91400400D02*
X103819600Y-92100400D01*
X105019600Y-92100400D02*
X105019600Y-92375400D01*
X100219600Y-92100400D02*
X100219600Y-92375400D01*
X100494600Y-92650400D02*
X100544600Y-92650400D01*
X100819600Y-92100400D02*
X100819600Y-91400400D01*
X97394600Y-91750400D02*
X97644600Y-91750400D01*
X105944600Y-92100400D02*
X106578400Y-92100400D01*
X102019600Y-92100400D02*
X102019600Y-91400400D01*
X104094600Y-92650400D02*
X104144600Y-92650400D01*
X97819600Y-91925400D02*
X97819600Y-92100400D01*
X98419600Y-92100400D02*
X98419600Y-91400400D01*
X99619600Y-92100400D02*
X99619600Y-91400400D01*
X97819600Y-92100400D02*
X97819600Y-92375400D01*
X105294600Y-92650400D02*
X105344600Y-92650400D01*
X107675000Y-82723400D02*
X107188000Y-83210400D01*
X106758800Y-83819441D02*
X106758800Y-84711600D01*
X101744600Y-92650400D02*
G75*
G03*
X102019600Y-92375400I0J275000D01*
G01*
X101119600Y-91100400D02*
G75*
G03*
X100819600Y-91400400I0J-300000D01*
G01*
X96619600Y-91600400D02*
G75*
G03*
X96319600Y-91300400I-300000J0D01*
G01*
X97819600Y-92375400D02*
G75*
G03*
X98094600Y-92650400I275000J0D01*
G01*
X105019600Y-92375400D02*
G75*
G03*
X105294600Y-92650400I275000J0D01*
G01*
X95119600Y-91100400D02*
G75*
G03*
X94819600Y-91400400I0J-300000D01*
G01*
X96944600Y-92650400D02*
G75*
G03*
X97219600Y-92375400I0J275000D01*
G01*
X94219600Y-91400400D02*
G75*
G03*
X93919600Y-91100400I-300000J0D01*
G01*
X99344600Y-92650400D02*
G75*
G03*
X99619600Y-92375400I0J275000D01*
G01*
X100544600Y-92650400D02*
G75*
G03*
X100819600Y-92375400I0J275000D01*
G01*
X103819600Y-91400400D02*
G75*
G03*
X103519600Y-91100400I-300000J0D01*
G01*
X101419600Y-92375400D02*
G75*
G03*
X101694600Y-92650400I275000J0D01*
G01*
X95744600Y-92650400D02*
G75*
G03*
X96019600Y-92375400I0J275000D01*
G01*
X105894600Y-92100400D02*
G75*
G03*
X105619600Y-92375400I0J-275000D01*
G01*
X93919600Y-91100400D02*
G75*
G03*
X93619600Y-91400400I0J-300000D01*
G01*
X102319600Y-91100400D02*
G75*
G03*
X102019600Y-91400400I0J-300000D01*
G01*
X94544600Y-92650400D02*
G75*
G03*
X94819600Y-92375400I0J275000D01*
G01*
X100219600Y-91400400D02*
G75*
G03*
X99919600Y-91100400I-300000J0D01*
G01*
X101419600Y-91400400D02*
G75*
G03*
X101119600Y-91100400I-300000J0D01*
G01*
X98719600Y-91100400D02*
G75*
G03*
X98419600Y-91400400I0J-300000D01*
G01*
X95419600Y-92375400D02*
G75*
G03*
X95694600Y-92650400I275000J0D01*
G01*
X100219600Y-92375400D02*
G75*
G03*
X100494600Y-92650400I275000J0D01*
G01*
X102619600Y-92375400D02*
G75*
G03*
X102894600Y-92650400I275000J0D01*
G01*
X95419600Y-91400400D02*
G75*
G03*
X95119600Y-91100400I-300000J0D01*
G01*
X99919600Y-91100400D02*
G75*
G03*
X99619600Y-91400400I0J-300000D01*
G01*
X102619600Y-91400400D02*
G75*
G03*
X102319600Y-91100400I-300000J0D01*
G01*
X96619600Y-92375400D02*
G75*
G03*
X96894600Y-92650400I275000J0D01*
G01*
X93319600Y-92100400D02*
G75*
G03*
X93619600Y-91800400I0J300000D01*
G01*
X105019600Y-91400400D02*
G75*
G03*
X104719600Y-91100400I-300000J0D01*
G01*
X104719600Y-91100400D02*
G75*
G03*
X104419600Y-91400400I0J-300000D01*
G01*
X104144600Y-92650400D02*
G75*
G03*
X104419600Y-92375400I0J275000D01*
G01*
X96319600Y-91300400D02*
G75*
G03*
X96019600Y-91600400I0J-300000D01*
G01*
X103819600Y-92375400D02*
G75*
G03*
X104094600Y-92650400I275000J0D01*
G01*
X102944600Y-92650400D02*
G75*
G03*
X103219600Y-92375400I0J275000D01*
G01*
X103519600Y-91100400D02*
G75*
G03*
X103219600Y-91400400I0J-300000D01*
G01*
X94219600Y-92375400D02*
G75*
G03*
X94494600Y-92650400I275000J0D01*
G01*
X97819600Y-91925400D02*
G75*
G03*
X97644600Y-91750400I-175000J0D01*
G01*
X97394600Y-91750400D02*
G75*
G03*
X97219600Y-91925400I0J-175000D01*
G01*
X105344600Y-92650400D02*
G75*
G03*
X105619600Y-92375400I0J275000D01*
G01*
X98144600Y-92650400D02*
G75*
G03*
X98419600Y-92375400I0J275000D01*
G01*
X99019600Y-92375400D02*
G75*
G03*
X99294600Y-92650400I275000J0D01*
G01*
X99019600Y-91400400D02*
G75*
G03*
X98719600Y-91100400I-300000J0D01*
G01*
X93255500Y-109741300D02*
X93268800Y-109728000D01*
X101032400Y-94024400D02*
X101032400Y-93624400D01*
X108175000Y-82978200D02*
X108254800Y-83058000D01*
X94432400Y-93924400D02*
X94432400Y-93974400D01*
X99832400Y-93624400D02*
X99832400Y-93399400D01*
X99832400Y-93924400D02*
X99832400Y-93624400D01*
X96232400Y-93624400D02*
X96232400Y-93399400D01*
X98032400Y-93624400D02*
X98032400Y-94324400D01*
X104632400Y-93624400D02*
X104632400Y-93399400D01*
X107688863Y-93624400D02*
X107797600Y-93624400D01*
X95257400Y-93174400D02*
X95407400Y-93174400D01*
X96832400Y-93399400D02*
X96832400Y-93624400D01*
X97432400Y-93624400D02*
X97432400Y-93399400D01*
X108254800Y-83058000D02*
X108254800Y-83769200D01*
X98632400Y-93624400D02*
X98632400Y-93399400D01*
X93255500Y-111690000D02*
X93255500Y-109741300D01*
X104857400Y-93174400D02*
X105007400Y-93174400D01*
X99232400Y-93624400D02*
X99232400Y-93924400D01*
X98032400Y-93399400D02*
X98032400Y-93624400D01*
X96232400Y-94324400D02*
X96232400Y-93624400D01*
X95032400Y-93974400D02*
X95032400Y-93924400D01*
X103432400Y-94324400D02*
X103432400Y-93624400D01*
X103432400Y-93624400D02*
X103432400Y-93399400D01*
X105232400Y-93399400D02*
X105232400Y-93624400D01*
X96832400Y-93624400D02*
X96832400Y-94324400D01*
X103657400Y-93174400D02*
X103807400Y-93174400D01*
X100432400Y-93399400D02*
X100432400Y-93624400D01*
X101632400Y-93624400D02*
X101632400Y-94024400D01*
X102457400Y-93174400D02*
X102607400Y-93174400D01*
X95032400Y-93924400D02*
X95032400Y-93399400D01*
X96457400Y-93174400D02*
X96607400Y-93174400D01*
X95632400Y-93624400D02*
X95632400Y-94324400D01*
X93472000Y-93624400D02*
X94132400Y-93624400D01*
X101032400Y-93624400D02*
X101032400Y-93399400D01*
X97432400Y-94324400D02*
X97432400Y-93624400D01*
X106432400Y-93624400D02*
X106432400Y-94324400D01*
X108175000Y-81350000D02*
X108175000Y-82978200D01*
X105832400Y-94324400D02*
X105832400Y-93624400D01*
X102832400Y-93399400D02*
X102832400Y-93624400D01*
X107032400Y-94324400D02*
X107032400Y-93924400D01*
X98857400Y-93174400D02*
X99007400Y-93174400D01*
X100057400Y-93174400D02*
X100207400Y-93174400D01*
X101632400Y-93399400D02*
X101632400Y-93624400D01*
X100432400Y-93624400D02*
X100432400Y-94024400D01*
X102232400Y-93624400D02*
X102232400Y-93399400D01*
X98632400Y-94324400D02*
X98632400Y-93624400D01*
X105832400Y-93624400D02*
X105832400Y-93399400D01*
X104032400Y-93399400D02*
X104032400Y-93624400D01*
X102832400Y-93624400D02*
X102832400Y-94324400D01*
X108254800Y-83769200D02*
X107848400Y-84175600D01*
X102232400Y-94024400D02*
X102232400Y-93624400D01*
X95632400Y-93399400D02*
X95632400Y-93624400D01*
X97657400Y-93174400D02*
X97807400Y-93174400D01*
X104632400Y-94324400D02*
X104632400Y-93624400D01*
X107797600Y-93624400D02*
X107848400Y-93573600D01*
X99232400Y-93399400D02*
X99232400Y-93624400D01*
X105232400Y-93624400D02*
X105232400Y-94324400D01*
X106432400Y-93399400D02*
X106432400Y-93624400D01*
X101257400Y-93174400D02*
X101407400Y-93174400D01*
X104032400Y-93624400D02*
X104032400Y-94324400D01*
X106057400Y-93174400D02*
X106207400Y-93174400D01*
X107332400Y-93624400D02*
X107688863Y-93624400D01*
X104032400Y-94324400D02*
G75*
G03*
X104332400Y-94624400I300000J0D01*
G01*
X106732400Y-94624400D02*
G75*
G03*
X107032400Y-94324400I0J300000D01*
G01*
X106432400Y-93399400D02*
G75*
G03*
X106207400Y-93174400I-225000J0D01*
G01*
X94432400Y-93974400D02*
G75*
G03*
X94732400Y-94274400I300000J0D01*
G01*
X105532400Y-94624400D02*
G75*
G03*
X105832400Y-94324400I0J300000D01*
G01*
X96457400Y-93174400D02*
G75*
G03*
X96232400Y-93399400I0J-225000D01*
G01*
X100732400Y-94324400D02*
G75*
G03*
X101032400Y-94024400I0J300000D01*
G01*
X94732400Y-94274400D02*
G75*
G03*
X95032400Y-93974400I0J300000D01*
G01*
X100432400Y-94024400D02*
G75*
G03*
X100732400Y-94324400I300000J0D01*
G01*
X95257400Y-93174400D02*
G75*
G03*
X95032400Y-93399400I0J-225000D01*
G01*
X98032400Y-93399400D02*
G75*
G03*
X97807400Y-93174400I-225000J0D01*
G01*
X102457400Y-93174400D02*
G75*
G03*
X102232400Y-93399400I0J-225000D01*
G01*
X100057400Y-93174400D02*
G75*
G03*
X99832400Y-93399400I0J-225000D01*
G01*
X94432400Y-93924400D02*
G75*
G03*
X94132400Y-93624400I-300000J0D01*
G01*
X98032400Y-94324400D02*
G75*
G03*
X98332400Y-94624400I300000J0D01*
G01*
X102832400Y-93399400D02*
G75*
G03*
X102607400Y-93174400I-225000J0D01*
G01*
X105232400Y-94324400D02*
G75*
G03*
X105532400Y-94624400I300000J0D01*
G01*
X99232400Y-93924400D02*
G75*
G03*
X99532400Y-94224400I300000J0D01*
G01*
X102832400Y-94324400D02*
G75*
G03*
X103132400Y-94624400I300000J0D01*
G01*
X101932400Y-94324400D02*
G75*
G03*
X102232400Y-94024400I0J300000D01*
G01*
X104332400Y-94624400D02*
G75*
G03*
X104632400Y-94324400I0J300000D01*
G01*
X107332400Y-93624400D02*
G75*
G03*
X107032400Y-93924400I0J-300000D01*
G01*
X96832400Y-94324400D02*
G75*
G03*
X97132400Y-94624400I300000J0D01*
G01*
X96832400Y-93399400D02*
G75*
G03*
X96607400Y-93174400I-225000J0D01*
G01*
X105232400Y-93399400D02*
G75*
G03*
X105007400Y-93174400I-225000J0D01*
G01*
X101632400Y-94024400D02*
G75*
G03*
X101932400Y-94324400I300000J0D01*
G01*
X104857400Y-93174400D02*
G75*
G03*
X104632400Y-93399400I0J-225000D01*
G01*
X98857400Y-93174400D02*
G75*
G03*
X98632400Y-93399400I0J-225000D01*
G01*
X103132400Y-94624400D02*
G75*
G03*
X103432400Y-94324400I0J300000D01*
G01*
X97657400Y-93174400D02*
G75*
G03*
X97432400Y-93399400I0J-225000D01*
G01*
X104032400Y-93399400D02*
G75*
G03*
X103807400Y-93174400I-225000J0D01*
G01*
X95632400Y-94324400D02*
G75*
G03*
X95932400Y-94624400I300000J0D01*
G01*
X101257400Y-93174400D02*
G75*
G03*
X101032400Y-93399400I0J-225000D01*
G01*
X95632400Y-93399400D02*
G75*
G03*
X95407400Y-93174400I-225000J0D01*
G01*
X95932400Y-94624400D02*
G75*
G03*
X96232400Y-94324400I0J300000D01*
G01*
X101632400Y-93399400D02*
G75*
G03*
X101407400Y-93174400I-225000J0D01*
G01*
X98332400Y-94624400D02*
G75*
G03*
X98632400Y-94324400I0J300000D01*
G01*
X106057400Y-93174400D02*
G75*
G03*
X105832400Y-93399400I0J-225000D01*
G01*
X100432400Y-93399400D02*
G75*
G03*
X100207400Y-93174400I-225000J0D01*
G01*
X99232400Y-93399400D02*
G75*
G03*
X99007400Y-93174400I-225000J0D01*
G01*
X103657400Y-93174400D02*
G75*
G03*
X103432400Y-93399400I0J-225000D01*
G01*
X97132400Y-94624400D02*
G75*
G03*
X97432400Y-94324400I0J300000D01*
G01*
X99532400Y-94224400D02*
G75*
G03*
X99832400Y-93924400I0J300000D01*
G01*
X106432400Y-94324400D02*
G75*
G03*
X106732400Y-94624400I300000J0D01*
G01*
X111300000Y-78950000D02*
X110925000Y-78575000D01*
X113100000Y-79425000D02*
X111775000Y-79425000D01*
X101752400Y-79146400D02*
X93776800Y-79146400D01*
X102362000Y-78536800D02*
X101752400Y-79146400D01*
X90830400Y-79095600D02*
X90525600Y-79095600D01*
X102528400Y-78536800D02*
X102362000Y-78536800D01*
X111775000Y-79425000D02*
X111300000Y-78950000D01*
X90525600Y-79095600D02*
X90373200Y-79248000D01*
X110925000Y-78575000D02*
X110475000Y-78575000D01*
X102565200Y-78500000D02*
X102528400Y-78536800D01*
X110475000Y-78575000D02*
X110400000Y-78500000D01*
X93776800Y-79146400D02*
X93319600Y-79603600D01*
X110400000Y-78500000D02*
X102565200Y-78500000D01*
X91338400Y-79603600D02*
X90830400Y-79095600D01*
X93319600Y-79603600D02*
X91338400Y-79603600D01*
X91033600Y-78841600D02*
X90678000Y-78486000D01*
X111150000Y-78025000D02*
X111425000Y-78300000D01*
X102971600Y-78000000D02*
X110475000Y-78000000D01*
X101752400Y-78638400D02*
X101549200Y-78841600D01*
X101549200Y-78841600D02*
X99669600Y-78841600D01*
X102390800Y-78000000D02*
X101752400Y-78638400D01*
X99669600Y-78841600D02*
X93675200Y-78841600D01*
X110500000Y-78025000D02*
X111150000Y-78025000D01*
X93319600Y-79197200D02*
X91389200Y-79197200D01*
X93675200Y-78841600D02*
X93319600Y-79197200D01*
X91389200Y-79197200D02*
X91033600Y-78841600D01*
X112050000Y-78925000D02*
X111425000Y-78300000D01*
X102971600Y-78000000D02*
X102390800Y-78000000D01*
X113100000Y-78925000D02*
X112050000Y-78925000D01*
X110475000Y-78000000D02*
X110500000Y-78025000D01*
X90678000Y-78486000D02*
X90678000Y-78130400D01*
X90025000Y-76600000D02*
X89987000Y-76600000D01*
X100400000Y-77700000D02*
X110225000Y-77700000D01*
X97375000Y-77425000D02*
X100125000Y-77425000D01*
X89987000Y-76600000D02*
X88825000Y-75438000D01*
X110225000Y-77700000D02*
X110275000Y-77650000D01*
X90025000Y-76600000D02*
X90625000Y-77200000D01*
X97150000Y-77200000D02*
X97375000Y-77425000D01*
X100125000Y-77425000D02*
X100400000Y-77700000D01*
X113100000Y-78425000D02*
X112250000Y-78425000D01*
X110275000Y-77650000D02*
X111425000Y-77650000D01*
X112250000Y-78425000D02*
X111450000Y-77625000D01*
X90625000Y-77200000D02*
X97150000Y-77200000D01*
X111425000Y-77650000D02*
X111450000Y-77625000D01*
X114387800Y-76925000D02*
X114401600Y-76911200D01*
X113100000Y-76925000D02*
X114387800Y-76925000D01*
X113100000Y-74425000D02*
X110175000Y-74425000D01*
X109950000Y-64550000D02*
X88775000Y-64550000D01*
X110175000Y-74425000D02*
X110150000Y-74450000D01*
X113100000Y-73925000D02*
X110800000Y-73925000D01*
X110800000Y-73925000D02*
X110725000Y-73850000D01*
X110475000Y-63475000D02*
X90500000Y-63475000D01*
X90500000Y-63475000D02*
X90450000Y-63425000D01*
D57*
X117297200Y-71018400D02*
X116230400Y-72085200D01*
X116230400Y-72085200D02*
X114909600Y-72085200D01*
X114569800Y-72425000D02*
X114655600Y-72339200D01*
X116778600Y-68925000D02*
X117297200Y-69443600D01*
X117297200Y-69443600D02*
X117297200Y-71018400D01*
X114655600Y-72339200D02*
X114241400Y-71925000D01*
X113100000Y-68925000D02*
X116778600Y-68925000D01*
X114241400Y-71925000D02*
X113100000Y-71925000D01*
X113100000Y-72425000D02*
X114569800Y-72425000D01*
X114909600Y-72085200D02*
X114655600Y-72339200D01*
D59*
X109250000Y-70425000D02*
X109250000Y-70575000D01*
X107450000Y-70575000D02*
X107450000Y-70425000D01*
X108650000Y-70425000D02*
X108650000Y-70275000D01*
X110900000Y-70425000D02*
X111250000Y-70425000D01*
X108650000Y-70575000D02*
X108650000Y-70425000D01*
X109400000Y-70725000D02*
X109700000Y-70725000D01*
X105800000Y-70725000D02*
X106100000Y-70725000D01*
X106250000Y-70425000D02*
X106250000Y-70275000D01*
X105650000Y-70425000D02*
X105650000Y-70575000D01*
X110000000Y-70125000D02*
X110300000Y-70125000D01*
X110600000Y-70425000D02*
X110900000Y-70425000D01*
X107600000Y-70125000D02*
X107900000Y-70125000D01*
X109850000Y-70425000D02*
X109850000Y-70275000D01*
X105050000Y-70575000D02*
X105050000Y-70425000D01*
X113100000Y-66925000D02*
X120609300Y-66925000D01*
X107000000Y-70725000D02*
X107300000Y-70725000D01*
X106250000Y-70575000D02*
X106250000Y-70425000D01*
X107450000Y-70425000D02*
X107450000Y-70275000D01*
X108050000Y-70425000D02*
X108050000Y-70575000D01*
X108050000Y-70275000D02*
X108050000Y-70425000D01*
X120609300Y-66925000D02*
X120634300Y-66900000D01*
X105650000Y-70275000D02*
X105650000Y-70425000D01*
X109250000Y-70275000D02*
X109250000Y-70425000D01*
X109850000Y-70575000D02*
X109850000Y-70425000D01*
X103500000Y-70425000D02*
X104300000Y-70425000D01*
X106850000Y-70425000D02*
X106850000Y-70575000D01*
X108200000Y-70725000D02*
X108500000Y-70725000D01*
X106850000Y-70275000D02*
X106850000Y-70425000D01*
X104600000Y-70725000D02*
X104900000Y-70725000D01*
X105200000Y-70125000D02*
X105500000Y-70125000D01*
X105050000Y-70425000D02*
X105050000Y-70275000D01*
X106400000Y-70125000D02*
X106700000Y-70125000D01*
X108800000Y-70125000D02*
X109100000Y-70125000D01*
X110450000Y-70275000D02*
G75*
G03*
X110300000Y-70125000I-150000J0D01*
G01*
X110000000Y-70125000D02*
G75*
G03*
X109850000Y-70275000I0J-150000D01*
G01*
X104450000Y-70575000D02*
G75*
G03*
X104600000Y-70725000I150000J0D01*
G01*
X108500000Y-70725000D02*
G75*
G03*
X108650000Y-70575000I0J150000D01*
G01*
X106400000Y-70125000D02*
G75*
G03*
X106250000Y-70275000I0J-150000D01*
G01*
X105200000Y-70125000D02*
G75*
G03*
X105050000Y-70275000I0J-150000D01*
G01*
X108050000Y-70575000D02*
G75*
G03*
X108200000Y-70725000I150000J0D01*
G01*
X106100000Y-70725000D02*
G75*
G03*
X106250000Y-70575000I0J150000D01*
G01*
X108050000Y-70275000D02*
G75*
G03*
X107900000Y-70125000I-150000J0D01*
G01*
X106850000Y-70575000D02*
G75*
G03*
X107000000Y-70725000I150000J0D01*
G01*
X105650000Y-70575000D02*
G75*
G03*
X105800000Y-70725000I150000J0D01*
G01*
X105650000Y-70275000D02*
G75*
G03*
X105500000Y-70125000I-150000J0D01*
G01*
X109250000Y-70575000D02*
G75*
G03*
X109400000Y-70725000I150000J0D01*
G01*
X108800000Y-70125000D02*
G75*
G03*
X108650000Y-70275000I0J-150000D01*
G01*
X110450000Y-70275000D02*
G75*
G03*
X110600000Y-70425000I150000J0D01*
G01*
X104900000Y-70725000D02*
G75*
G03*
X105050000Y-70575000I0J150000D01*
G01*
X107600000Y-70125000D02*
G75*
G03*
X107450000Y-70275000I0J-150000D01*
G01*
X107300000Y-70725000D02*
G75*
G03*
X107450000Y-70575000I0J150000D01*
G01*
X106850000Y-70275000D02*
G75*
G03*
X106700000Y-70125000I-150000J0D01*
G01*
X109250000Y-70275000D02*
G75*
G03*
X109100000Y-70125000I-150000J0D01*
G01*
X109700000Y-70725000D02*
G75*
G03*
X109850000Y-70575000I0J150000D01*
G01*
X104450000Y-70575000D02*
G75*
G03*
X104300000Y-70425000I-150000J0D01*
G01*
X105200000Y-58475000D02*
X105200000Y-58625000D01*
X107150000Y-58325000D02*
X107450000Y-58325000D01*
X106550000Y-58625000D02*
X106850000Y-58625000D01*
X104750000Y-58325000D02*
X105050000Y-58325000D01*
X108350000Y-58325000D02*
X108650000Y-58325000D01*
X107750000Y-58625000D02*
X108050000Y-58625000D01*
X103375000Y-58525000D02*
X103475000Y-58625000D01*
X108950000Y-58625000D02*
X109250000Y-58625000D01*
X111245400Y-58325000D02*
X111252000Y-58318400D01*
X115525000Y-64925000D02*
X115625000Y-64825000D01*
X105800000Y-58725000D02*
X105800000Y-58625000D01*
X105300000Y-58825000D02*
X105700000Y-58825000D01*
X105200000Y-58625000D02*
X105200000Y-58725000D01*
X103475000Y-58625000D02*
X104450000Y-58625000D01*
X105800000Y-58625000D02*
X105800000Y-58475000D01*
X113100000Y-64925000D02*
X115525000Y-64925000D01*
X110750000Y-58325000D02*
X111050000Y-58325000D01*
X105950000Y-58325000D02*
X106250000Y-58325000D01*
X109550000Y-58325000D02*
X109850000Y-58325000D01*
X111050000Y-58325000D02*
X111245400Y-58325000D01*
X110150000Y-58625000D02*
X110450000Y-58625000D01*
X105950000Y-58325000D02*
G75*
G03*
X105800000Y-58475000I0J-150000D01*
G01*
X110450000Y-58625000D02*
G75*
G03*
X110600000Y-58475000I0J150000D01*
G01*
X106400000Y-58475000D02*
G75*
G03*
X106550000Y-58625000I150000J0D01*
G01*
X109250000Y-58625000D02*
G75*
G03*
X109400000Y-58475000I0J150000D01*
G01*
X107600000Y-58475000D02*
G75*
G03*
X107450000Y-58325000I-150000J0D01*
G01*
X106850000Y-58625000D02*
G75*
G03*
X107000000Y-58475000I0J150000D01*
G01*
X110750000Y-58325000D02*
G75*
G03*
X110600000Y-58475000I0J-150000D01*
G01*
X106400000Y-58475000D02*
G75*
G03*
X106250000Y-58325000I-150000J0D01*
G01*
X109550000Y-58325000D02*
G75*
G03*
X109400000Y-58475000I0J-150000D01*
G01*
X108800000Y-58475000D02*
G75*
G03*
X108950000Y-58625000I150000J0D01*
G01*
X108350000Y-58325000D02*
G75*
G03*
X108200000Y-58475000I0J-150000D01*
G01*
X107150000Y-58325000D02*
G75*
G03*
X107000000Y-58475000I0J-150000D01*
G01*
X108800000Y-58475000D02*
G75*
G03*
X108650000Y-58325000I-150000J0D01*
G01*
X108050000Y-58625000D02*
G75*
G03*
X108200000Y-58475000I0J150000D01*
G01*
X105700000Y-58825000D02*
G75*
G03*
X105800000Y-58725000I0J100000D01*
G01*
X104750000Y-58325000D02*
G75*
G03*
X104600000Y-58475000I0J-150000D01*
G01*
X110000000Y-58475000D02*
G75*
G03*
X110150000Y-58625000I150000J0D01*
G01*
X105200000Y-58725000D02*
G75*
G03*
X105300000Y-58825000I100000J0D01*
G01*
X104450000Y-58625000D02*
G75*
G03*
X104600000Y-58475000I0J150000D01*
G01*
X110000000Y-58475000D02*
G75*
G03*
X109850000Y-58325000I-150000J0D01*
G01*
X107600000Y-58475000D02*
G75*
G03*
X107750000Y-58625000I150000J0D01*
G01*
X105200000Y-58475000D02*
G75*
G03*
X105050000Y-58325000I-150000J0D01*
G01*
X106400000Y-59100000D02*
X106400000Y-59250000D01*
X109400000Y-59250000D02*
X109400000Y-59100000D01*
X107000000Y-59250000D02*
X107000000Y-59100000D01*
X106900000Y-58900000D02*
X106500000Y-58900000D01*
X109850000Y-59400000D02*
X109550000Y-59400000D01*
X111050000Y-59400000D02*
X110750000Y-59400000D01*
X111050000Y-59400000D02*
X111288000Y-59400000D01*
X108100000Y-58900000D02*
X107700000Y-58900000D01*
X107450000Y-59400000D02*
X107150000Y-59400000D01*
X104250000Y-59100000D02*
X103975000Y-59100000D01*
X105650000Y-59100000D02*
X105450000Y-59100000D01*
X113100000Y-64425000D02*
X114975000Y-64425000D01*
X109300000Y-58900000D02*
X108900000Y-58900000D01*
X114975000Y-64425000D02*
X115125000Y-64275000D01*
X107600000Y-59100000D02*
X107600000Y-59250000D01*
X110500000Y-58900000D02*
X110100000Y-58900000D01*
X110600000Y-59100000D02*
X110600000Y-59000000D01*
X108200000Y-59100000D02*
X108200000Y-59000000D01*
X109400000Y-59100000D02*
X109400000Y-59000000D01*
X110000000Y-59000000D02*
X110000000Y-59100000D01*
X111288000Y-59400000D02*
X111302800Y-59385200D01*
X107600000Y-59000000D02*
X107600000Y-59100000D01*
X106250000Y-59400000D02*
X105950000Y-59400000D01*
X105150000Y-59400000D02*
X104850000Y-59400000D01*
X108200000Y-59250000D02*
X108200000Y-59100000D01*
X110600000Y-59250000D02*
X110600000Y-59100000D01*
X108800000Y-59100000D02*
X108800000Y-59250000D01*
X108800000Y-59000000D02*
X108800000Y-59100000D01*
X103975000Y-59100000D02*
X103875000Y-59200000D01*
X110000000Y-59100000D02*
X110000000Y-59250000D01*
X104550000Y-59100000D02*
X104250000Y-59100000D01*
X107000000Y-59100000D02*
X107000000Y-59000000D01*
X108650000Y-59400000D02*
X108350000Y-59400000D01*
X106400000Y-59000000D02*
X106400000Y-59100000D01*
X105150000Y-59400000D02*
G75*
G03*
X105300000Y-59250000I0J150000D01*
G01*
X110600000Y-59250000D02*
G75*
G03*
X110750000Y-59400000I150000J0D01*
G01*
X106500000Y-58900000D02*
G75*
G03*
X106400000Y-59000000I0J-100000D01*
G01*
X107450000Y-59400000D02*
G75*
G03*
X107600000Y-59250000I0J150000D01*
G01*
X107000000Y-59000000D02*
G75*
G03*
X106900000Y-58900000I-100000J0D01*
G01*
X109400000Y-59000000D02*
G75*
G03*
X109300000Y-58900000I-100000J0D01*
G01*
X109400000Y-59250000D02*
G75*
G03*
X109550000Y-59400000I150000J0D01*
G01*
X108900000Y-58900000D02*
G75*
G03*
X108800000Y-59000000I0J-100000D01*
G01*
X107000000Y-59250000D02*
G75*
G03*
X107150000Y-59400000I150000J0D01*
G01*
X108650000Y-59400000D02*
G75*
G03*
X108800000Y-59250000I0J150000D01*
G01*
X108200000Y-59250000D02*
G75*
G03*
X108350000Y-59400000I150000J0D01*
G01*
X104700000Y-59250000D02*
G75*
G03*
X104550000Y-59100000I-150000J0D01*
G01*
X105800000Y-59250000D02*
G75*
G03*
X105950000Y-59400000I150000J0D01*
G01*
X107700000Y-58900000D02*
G75*
G03*
X107600000Y-59000000I0J-100000D01*
G01*
X105800000Y-59250000D02*
G75*
G03*
X105650000Y-59100000I-150000J0D01*
G01*
X106250000Y-59400000D02*
G75*
G03*
X106400000Y-59250000I0J150000D01*
G01*
X109850000Y-59400000D02*
G75*
G03*
X110000000Y-59250000I0J150000D01*
G01*
X108200000Y-59000000D02*
G75*
G03*
X108100000Y-58900000I-100000J0D01*
G01*
X110100000Y-58900000D02*
G75*
G03*
X110000000Y-59000000I0J-100000D01*
G01*
X110600000Y-59000000D02*
G75*
G03*
X110500000Y-58900000I-100000J0D01*
G01*
X105450000Y-59100000D02*
G75*
G03*
X105300000Y-59250000I0J-150000D01*
G01*
X104700000Y-59250000D02*
G75*
G03*
X104850000Y-59400000I150000J0D01*
G01*
X112014000Y-102108000D02*
X111912400Y-102209600D01*
X93755500Y-111690000D02*
X93755500Y-108893900D01*
X95656400Y-102209600D02*
X95504000Y-102057200D01*
X93755500Y-108893900D02*
X93726000Y-108864400D01*
X114586200Y-63925000D02*
X114706400Y-63804800D01*
X113690400Y-102108000D02*
X112014000Y-102108000D01*
X94046500Y-102057200D02*
X93843300Y-102260400D01*
X111912400Y-102209600D02*
X95656400Y-102209600D01*
X114706400Y-63804800D02*
X122428000Y-63804800D01*
X95504000Y-102057200D02*
X94046500Y-102057200D01*
X113100000Y-63925000D02*
X114586200Y-63925000D01*
X113284000Y-102463600D02*
X113741200Y-102920800D01*
X117118200Y-63425000D02*
X117195600Y-63347600D01*
X95255500Y-111690000D02*
X95255500Y-109936700D01*
X102514400Y-102514400D02*
X112318800Y-102514400D01*
X95351600Y-102514400D02*
X102514400Y-102514400D01*
X123088400Y-63347600D02*
X123139200Y-63398400D01*
X95255500Y-109936700D02*
X95250000Y-109931200D01*
X112369600Y-102463600D02*
X113284000Y-102463600D01*
X117195600Y-63347600D02*
X123088400Y-63347600D01*
X113100000Y-63425000D02*
X117118200Y-63425000D01*
X112318800Y-102514400D02*
X112369600Y-102463600D01*
X106600000Y-73975000D02*
X106600000Y-73825000D01*
X102400000Y-73975000D02*
X102400000Y-74125000D01*
X107200000Y-73975000D02*
X107200000Y-74125000D01*
X101950000Y-73675000D02*
X102250000Y-73675000D01*
X103600000Y-73975000D02*
X103600000Y-74125000D01*
X111314000Y-62800000D02*
X111506000Y-62992000D01*
X104800000Y-73825000D02*
X104800000Y-73975000D01*
X106150000Y-74275000D02*
X106450000Y-74275000D01*
X107350000Y-74275000D02*
X107650000Y-74275000D01*
X108925000Y-73975000D02*
X109450000Y-74500000D01*
X102400000Y-73825000D02*
X102400000Y-73975000D01*
X111506000Y-62992000D02*
X113033000Y-62992000D01*
X103750000Y-74275000D02*
X104050000Y-74275000D01*
X105550000Y-73675000D02*
X105850000Y-73675000D01*
X107950000Y-73975000D02*
X108250000Y-73975000D01*
X104800000Y-73975000D02*
X104800000Y-74125000D01*
X108250000Y-73975000D02*
X108925000Y-73975000D01*
X103600000Y-73825000D02*
X103600000Y-73975000D01*
X106000000Y-73825000D02*
X106000000Y-73975000D01*
X106600000Y-74125000D02*
X106600000Y-73975000D01*
X104950000Y-74275000D02*
X105250000Y-74275000D01*
X107200000Y-73825000D02*
X107200000Y-73975000D01*
X104200000Y-73975000D02*
X104200000Y-73825000D01*
X104350000Y-73675000D02*
X104650000Y-73675000D01*
X105400000Y-73975000D02*
X105400000Y-73825000D01*
X104200000Y-74125000D02*
X104200000Y-73975000D01*
X102550000Y-74275000D02*
X102850000Y-74275000D01*
X106750000Y-73675000D02*
X107050000Y-73675000D01*
X109550000Y-62800000D02*
X111314000Y-62800000D01*
X106000000Y-73975000D02*
X106000000Y-74125000D01*
X105400000Y-74125000D02*
X105400000Y-73975000D01*
X103150000Y-73675000D02*
X103450000Y-73675000D01*
X113033000Y-62992000D02*
X113100000Y-62925000D01*
X103000000Y-73975000D02*
X103000000Y-73825000D01*
X103000000Y-74125000D02*
X103000000Y-73975000D01*
X100800000Y-73975000D02*
X101650000Y-73975000D01*
X104050000Y-74275000D02*
G75*
G03*
X104200000Y-74125000I0J150000D01*
G01*
X102400000Y-73825000D02*
G75*
G03*
X102250000Y-73675000I-150000J0D01*
G01*
X104800000Y-73825000D02*
G75*
G03*
X104650000Y-73675000I-150000J0D01*
G01*
X101650000Y-73975000D02*
G75*
G03*
X101800000Y-73825000I0J150000D01*
G01*
X103600000Y-74125000D02*
G75*
G03*
X103750000Y-74275000I150000J0D01*
G01*
X104800000Y-74125000D02*
G75*
G03*
X104950000Y-74275000I150000J0D01*
G01*
X107650000Y-74275000D02*
G75*
G03*
X107800000Y-74125000I0J150000D01*
G01*
X105550000Y-73675000D02*
G75*
G03*
X105400000Y-73825000I0J-150000D01*
G01*
X104350000Y-73675000D02*
G75*
G03*
X104200000Y-73825000I0J-150000D01*
G01*
X107200000Y-74125000D02*
G75*
G03*
X107350000Y-74275000I150000J0D01*
G01*
X103600000Y-73825000D02*
G75*
G03*
X103450000Y-73675000I-150000J0D01*
G01*
X101950000Y-73675000D02*
G75*
G03*
X101800000Y-73825000I0J-150000D01*
G01*
X106000000Y-73825000D02*
G75*
G03*
X105850000Y-73675000I-150000J0D01*
G01*
X107200000Y-73825000D02*
G75*
G03*
X107050000Y-73675000I-150000J0D01*
G01*
X106750000Y-73675000D02*
G75*
G03*
X106600000Y-73825000I0J-150000D01*
G01*
X106000000Y-74125000D02*
G75*
G03*
X106150000Y-74275000I150000J0D01*
G01*
X102850000Y-74275000D02*
G75*
G03*
X103000000Y-74125000I0J150000D01*
G01*
X103150000Y-73675000D02*
G75*
G03*
X103000000Y-73825000I0J-150000D01*
G01*
X107950000Y-73975000D02*
G75*
G03*
X107800000Y-74125000I0J-150000D01*
G01*
X105250000Y-74275000D02*
G75*
G03*
X105400000Y-74125000I0J150000D01*
G01*
X106450000Y-74275000D02*
G75*
G03*
X106600000Y-74125000I0J150000D01*
G01*
X102400000Y-74125000D02*
G75*
G03*
X102550000Y-74275000I150000J0D01*
G01*
X83820000Y-103835200D02*
X83718400Y-103936800D01*
X116890800Y-58216800D02*
X120700800Y-58216800D01*
X115414600Y-58925000D02*
X115519200Y-59029600D01*
X121970800Y-59486800D02*
X124053600Y-59486800D01*
X83755500Y-108827300D02*
X83769200Y-108813600D01*
X116535200Y-58572400D02*
X116890800Y-58216800D01*
X115519200Y-59029600D02*
X116078000Y-59029600D01*
X83755500Y-111690000D02*
X83755500Y-108827300D01*
X113100000Y-58925000D02*
X115414600Y-58925000D01*
X116078000Y-59029600D02*
X116535200Y-58572400D01*
X112776000Y-103835200D02*
X83820000Y-103835200D01*
X120700800Y-58216800D02*
X121970800Y-59486800D01*
X82755500Y-108815900D02*
X82753200Y-108813600D01*
X82755500Y-111690000D02*
X82755500Y-108815900D01*
X112725200Y-104749600D02*
X82753200Y-104749600D01*
X113100000Y-57925000D02*
X122171300Y-57925000D01*
X122171300Y-57925000D02*
X122869500Y-58623200D01*
X91287600Y-101244400D02*
X112166400Y-101244400D01*
X112166400Y-101244400D02*
X113080800Y-100330000D01*
X87755500Y-108891300D02*
X87782400Y-108864400D01*
X111175000Y-52000000D02*
X111175000Y-48825000D01*
X111175000Y-48825000D02*
X111225000Y-48775000D01*
X87755500Y-111690000D02*
X87755500Y-108891300D01*
X91236800Y-101193600D02*
X91287600Y-101244400D01*
X87833200Y-101193600D02*
X91236800Y-101193600D01*
X94857000Y-99175000D02*
X94589600Y-98907600D01*
X110998000Y-46278800D02*
X110998000Y-48056800D01*
X113030000Y-89408000D02*
X113538000Y-88900000D01*
X94589600Y-98907600D02*
X94589600Y-97688400D01*
X110642400Y-50292000D02*
X110175000Y-50759400D01*
X110642400Y-48412400D02*
X110642400Y-50292000D01*
X120396000Y-69189600D02*
X126847600Y-69189600D01*
X114757200Y-42062400D02*
X114350800Y-42468800D01*
X94742000Y-97536000D02*
X95808800Y-96469200D01*
X110175000Y-50759400D02*
X110175000Y-52000000D01*
X110998000Y-48056800D02*
X110642400Y-48412400D01*
X97262500Y-99175000D02*
X94857000Y-99175000D01*
X96977200Y-89408000D02*
X113030000Y-89408000D01*
X95808800Y-96469200D02*
X96926400Y-96469200D01*
X94589600Y-97688400D02*
X94742000Y-97536000D01*
X129336800Y-42062400D02*
X114757200Y-42062400D01*
X126847600Y-69189600D02*
X126898400Y-69240400D01*
X130251200Y-40995600D02*
X115112800Y-40995600D01*
X108483071Y-47574529D02*
X108483071Y-50262520D01*
X108675000Y-50454449D02*
X108675000Y-52000000D01*
X108610400Y-47447200D02*
X108483071Y-47574529D01*
X108483071Y-50262520D02*
X108675000Y-50454449D01*
X115112800Y-40995600D02*
X113334800Y-42773600D01*
X89755500Y-108872500D02*
X89763600Y-108864400D01*
X89814400Y-101752400D02*
X112928400Y-101752400D01*
X108175000Y-52000000D02*
X108175000Y-48775000D01*
X89755500Y-111690000D02*
X89755500Y-108872500D01*
X112928400Y-101752400D02*
X113131600Y-101549200D01*
X108175000Y-48775000D02*
X108050000Y-48650000D01*
X83007200Y-45008800D02*
X73710800Y-45008800D01*
X73710800Y-45008800D02*
X71424800Y-47294800D01*
X100584000Y-54152800D02*
X99872800Y-53441600D01*
X59944000Y-58775600D02*
X59944000Y-59131200D01*
X89001600Y-45415200D02*
X87172800Y-45415200D01*
X101396800Y-54965600D02*
X100584000Y-54152800D01*
X107675000Y-52000000D02*
X107675000Y-53420600D01*
X96672400Y-53441600D02*
X91490800Y-53441600D01*
X99872800Y-53441600D02*
X96672400Y-53441600D01*
X86817200Y-45059600D02*
X83058000Y-45059600D01*
X71424800Y-47294800D02*
X59944000Y-58775600D01*
X107289600Y-54965600D02*
X101396800Y-54965600D01*
X87172800Y-45415200D02*
X86817200Y-45059600D01*
X107675000Y-53420600D02*
X107746800Y-53492400D01*
X83058000Y-45059600D02*
X83007200Y-45008800D01*
X94400000Y-63025000D02*
X94400000Y-62875000D01*
X103700000Y-62950000D02*
X104300000Y-62950000D01*
X104675000Y-52000000D02*
X104675000Y-53900000D01*
X95150000Y-63175000D02*
X95450000Y-63175000D01*
X92125000Y-62625000D02*
X92475000Y-62625000D01*
X96800000Y-63025000D02*
X96800000Y-62875000D01*
X101600000Y-62650000D02*
X101900000Y-62650000D01*
X93325000Y-62625000D02*
X93675000Y-62625000D01*
X102050000Y-62800000D02*
X102050000Y-62950000D01*
X104675000Y-53900000D02*
X104775000Y-54000000D01*
X102650000Y-63075000D02*
X102650000Y-62950000D01*
X102800000Y-62650000D02*
X103100000Y-62650000D01*
X96200000Y-62750000D02*
X96200000Y-62875000D01*
X94400000Y-62875000D02*
X94400000Y-62750000D01*
X96800000Y-62875000D02*
X96800000Y-62750000D01*
X93950000Y-63175000D02*
X94250000Y-63175000D01*
X102175000Y-63200000D02*
X102525000Y-63200000D01*
X103400000Y-62950000D02*
X103700000Y-62950000D01*
X93800000Y-62875000D02*
X93800000Y-63025000D01*
X98175000Y-62875000D02*
X98675000Y-62375000D01*
X96350000Y-63175000D02*
X96650000Y-63175000D01*
X93800000Y-62750000D02*
X93800000Y-62875000D01*
X92750000Y-63175000D02*
X93050000Y-63175000D01*
X101450000Y-63075000D02*
X101450000Y-62950000D01*
X95600000Y-62875000D02*
X95600000Y-62750000D01*
X93200000Y-62875000D02*
X93200000Y-62750000D01*
X95600000Y-63025000D02*
X95600000Y-62875000D01*
X99800000Y-62375000D02*
X100375000Y-62950000D01*
X102050000Y-62950000D02*
X102050000Y-63075000D01*
X97875000Y-62875000D02*
X98175000Y-62875000D01*
X92600000Y-62750000D02*
X92600000Y-62875000D01*
X95000000Y-62750000D02*
X95000000Y-62875000D01*
X96925000Y-62625000D02*
X97275000Y-62625000D01*
X102650000Y-62950000D02*
X102650000Y-62800000D01*
X95725000Y-62625000D02*
X96075000Y-62625000D01*
X100375000Y-62950000D02*
X100725000Y-62950000D01*
X101450000Y-62950000D02*
X101450000Y-62800000D01*
X100975000Y-63200000D02*
X101325000Y-63200000D01*
X94525000Y-62625000D02*
X94875000Y-62625000D01*
X96200000Y-62875000D02*
X96200000Y-63025000D01*
X98675000Y-62375000D02*
X99800000Y-62375000D01*
X97525000Y-62875000D02*
X97875000Y-62875000D01*
X92600000Y-62875000D02*
X92600000Y-63025000D01*
X93200000Y-63025000D02*
X93200000Y-62875000D01*
X91300000Y-62875000D02*
X91875000Y-62875000D01*
X95000000Y-62875000D02*
X95000000Y-63025000D01*
X103250000Y-62800000D02*
G75*
G03*
X103100000Y-62650000I-150000J0D01*
G01*
X93800000Y-62750000D02*
G75*
G03*
X93675000Y-62625000I-125000J0D01*
G01*
X95725000Y-62625000D02*
G75*
G03*
X95600000Y-62750000I0J-125000D01*
G01*
X95000000Y-62750000D02*
G75*
G03*
X94875000Y-62625000I-125000J0D01*
G01*
X92600000Y-63025000D02*
G75*
G03*
X92750000Y-63175000I150000J0D01*
G01*
X97400000Y-62750000D02*
G75*
G03*
X97275000Y-62625000I-125000J0D01*
G01*
X102800000Y-62650000D02*
G75*
G03*
X102650000Y-62800000I0J-150000D01*
G01*
X92125000Y-62625000D02*
G75*
G03*
X92000000Y-62750000I0J-125000D01*
G01*
X101325000Y-63200000D02*
G75*
G03*
X101450000Y-63075000I0J125000D01*
G01*
X96650000Y-63175000D02*
G75*
G03*
X96800000Y-63025000I0J150000D01*
G01*
X91875000Y-62875000D02*
G75*
G03*
X92000000Y-62750000I0J125000D01*
G01*
X93800000Y-63025000D02*
G75*
G03*
X93950000Y-63175000I150000J0D01*
G01*
X100850000Y-63075000D02*
G75*
G03*
X100725000Y-62950000I-125000J0D01*
G01*
X102050000Y-62800000D02*
G75*
G03*
X101900000Y-62650000I-150000J0D01*
G01*
X93325000Y-62625000D02*
G75*
G03*
X93200000Y-62750000I0J-125000D01*
G01*
X100850000Y-63075000D02*
G75*
G03*
X100975000Y-63200000I125000J0D01*
G01*
X101600000Y-62650000D02*
G75*
G03*
X101450000Y-62800000I0J-150000D01*
G01*
X94250000Y-63175000D02*
G75*
G03*
X94400000Y-63025000I0J150000D01*
G01*
X96200000Y-63025000D02*
G75*
G03*
X96350000Y-63175000I150000J0D01*
G01*
X95450000Y-63175000D02*
G75*
G03*
X95600000Y-63025000I0J150000D01*
G01*
X97400000Y-62750000D02*
G75*
G03*
X97525000Y-62875000I125000J0D01*
G01*
X94525000Y-62625000D02*
G75*
G03*
X94400000Y-62750000I0J-125000D01*
G01*
X102050000Y-63075000D02*
G75*
G03*
X102175000Y-63200000I125000J0D01*
G01*
X95000000Y-63025000D02*
G75*
G03*
X95150000Y-63175000I150000J0D01*
G01*
X92600000Y-62750000D02*
G75*
G03*
X92475000Y-62625000I-125000J0D01*
G01*
X93050000Y-63175000D02*
G75*
G03*
X93200000Y-63025000I0J150000D01*
G01*
X96200000Y-62750000D02*
G75*
G03*
X96075000Y-62625000I-125000J0D01*
G01*
X102525000Y-63200000D02*
G75*
G03*
X102650000Y-63075000I0J125000D01*
G01*
X103250000Y-62800000D02*
G75*
G03*
X103400000Y-62950000I150000J0D01*
G01*
X96925000Y-62625000D02*
G75*
G03*
X96800000Y-62750000I0J-125000D01*
G01*
X100100000Y-62200000D02*
X99975000Y-62075000D01*
X99975000Y-62075000D02*
X99300000Y-62075000D01*
X100225000Y-62325000D02*
X100100000Y-62200000D01*
X98300000Y-62075000D02*
X98100000Y-62275000D01*
X99300000Y-62075000D02*
X98300000Y-62075000D01*
X98100000Y-62275000D02*
X98025000Y-62350000D01*
X104175000Y-52000000D02*
X104175000Y-54275000D01*
X98025000Y-62350000D02*
X92825000Y-62350000D01*
X104175000Y-54275000D02*
X104325000Y-54425000D01*
X104050000Y-62325000D02*
X100225000Y-62325000D01*
X83255500Y-111690000D02*
X83255500Y-109722300D01*
X101675000Y-52000000D02*
X101675000Y-50700000D01*
X102325000Y-50050000D02*
X102325000Y-48550000D01*
X83210400Y-92913200D02*
X112522000Y-92913200D01*
X101675000Y-50700000D02*
X102200000Y-50175000D01*
X83255500Y-109722300D02*
X83210400Y-109677200D01*
X102200000Y-50175000D02*
X102325000Y-50050000D01*
X148285200Y-137566400D02*
X148285200Y-120091200D01*
X137644576Y-146882876D02*
X137644579Y-146882874D01*
X137902451Y-148258747D02*
X137902452Y-148258746D01*
X135356859Y-150804339D02*
X135626323Y-150534874D01*
X135523277Y-149428494D02*
X135973193Y-149878410D01*
X134250470Y-150277018D02*
X134250473Y-150277016D01*
X99822000Y-49580800D02*
X99675000Y-49727800D01*
X99669600Y-45364400D02*
X99669600Y-47904400D01*
X132791200Y-152636136D02*
X132553426Y-152398362D01*
X132977693Y-151974096D02*
X133215468Y-152211871D01*
X136205352Y-149955796D02*
X136474842Y-149686305D01*
X134777796Y-151228608D02*
X134777796Y-151228609D01*
X138171917Y-147834482D02*
X138171916Y-147834481D01*
X137902452Y-148258746D02*
X138171916Y-147989281D01*
X134674737Y-150277016D02*
X135124662Y-150726941D01*
X134508337Y-151652874D02*
X134777796Y-151383414D01*
X135947495Y-148579919D02*
X135947498Y-148579917D01*
X133215468Y-152211871D02*
X133504985Y-152501389D01*
X131267200Y-154584400D02*
X132791200Y-153060400D01*
X134777796Y-151228609D02*
X134250470Y-150701282D01*
X133401908Y-151125518D02*
X133401911Y-151125516D01*
X138430000Y-110236000D02*
X138430000Y-53390800D01*
X138730918Y-147120685D02*
X138730917Y-147120684D01*
X99822000Y-49128905D02*
X99822000Y-49580800D01*
X99974400Y-48209200D02*
X99974400Y-48976505D01*
X135626323Y-150380074D02*
X135099010Y-149852760D01*
X136796056Y-147731418D02*
X136796059Y-147731416D01*
X136371762Y-148579917D02*
X136821724Y-149029879D01*
X134276131Y-151575472D02*
X134353532Y-151652874D01*
X133851861Y-151999736D02*
X133401908Y-151549782D01*
X99974400Y-48976505D02*
X99822000Y-49128905D01*
X131267200Y-159867600D02*
X131267200Y-154584400D01*
X133659759Y-152501389D02*
X133929249Y-152231898D01*
X135124662Y-150726941D02*
X135202059Y-150804339D01*
X137053931Y-149107281D02*
X137053930Y-149107281D01*
X135099010Y-149428496D02*
X135099013Y-149428494D01*
X136397454Y-149454143D02*
X135947495Y-149004183D01*
X135626324Y-150380075D02*
X135626323Y-150380074D01*
X129438400Y-44399200D02*
X113652395Y-44399200D01*
X135356858Y-150804340D02*
X135356859Y-150804339D01*
X138171916Y-147834481D02*
X137644576Y-147307140D01*
X136821724Y-149029879D02*
X136899125Y-149107281D01*
X137220323Y-147731416D02*
X137670255Y-148181348D01*
X137323389Y-148683016D02*
X136796056Y-148155682D01*
X100584000Y-44450000D02*
X99669600Y-45364400D01*
X99669600Y-47904400D02*
X99974400Y-48209200D01*
X137323389Y-148683015D02*
X137323389Y-148683016D01*
X138068843Y-146882874D02*
X138306654Y-147120685D01*
X138430000Y-53390800D02*
X129438400Y-44399200D01*
X137670255Y-148181348D02*
X137747652Y-148258746D01*
X137053930Y-149107281D02*
X137323389Y-148837821D01*
X132553426Y-151974098D02*
X132553429Y-151974096D01*
X113652395Y-44399200D02*
X113601595Y-44450000D01*
X133826175Y-151125516D02*
X134276131Y-151575472D01*
X113601595Y-44450000D02*
X100584000Y-44450000D01*
X136474842Y-149531531D02*
X136397454Y-149454143D01*
X99675000Y-49727800D02*
X99675000Y-52000000D01*
X133929249Y-152077124D02*
X133851861Y-151999736D01*
X134508338Y-151652874D02*
X134508337Y-151652874D01*
X148285200Y-120091200D02*
X138430000Y-110236000D01*
X138730917Y-147120684D02*
X148285200Y-137566400D01*
X135973193Y-149878410D02*
X136050578Y-149955796D01*
X136371761Y-148579918D02*
G75*
G03*
X135947499Y-148579918I-212131J-212131D01*
G01*
X136899125Y-149107281D02*
G75*
G03*
X137053931Y-149107281I77403J77404D01*
G01*
X135947544Y-148579968D02*
G75*
G03*
X135947495Y-149004183I212056J-212132D01*
G01*
X135626348Y-150534899D02*
G75*
G03*
X135626323Y-150380076I-77448J77399D01*
G01*
X133504985Y-152501389D02*
G75*
G03*
X133659759Y-152501389I77387J77386D01*
G01*
X138171934Y-147989299D02*
G75*
G03*
X138171916Y-147834483I-77434J77399D01*
G01*
X138306655Y-147120684D02*
G75*
G03*
X138730917Y-147120684I212131J212131D01*
G01*
X135523276Y-149428495D02*
G75*
G03*
X135099014Y-149428495I-212131J-212131D01*
G01*
X133929238Y-152231887D02*
G75*
G03*
X133929249Y-152077124I-77338J77387D01*
G01*
X137323370Y-148837802D02*
G75*
G03*
X137323388Y-148683016I-77370J77402D01*
G01*
X136796106Y-147731468D02*
G75*
G03*
X136796056Y-148155682I212094J-212132D01*
G01*
X133401958Y-151125568D02*
G75*
G03*
X133401908Y-151549782I212042J-212132D01*
G01*
X132977692Y-151974097D02*
G75*
G03*
X132553430Y-151974097I-212131J-212131D01*
G01*
X132791231Y-153060431D02*
G75*
G03*
X132791199Y-152636137I-212131J212131D01*
G01*
X137220322Y-147731417D02*
G75*
G03*
X136796060Y-147731417I-212131J-212131D01*
G01*
X133826174Y-151125517D02*
G75*
G03*
X133401912Y-151125517I-212131J-212131D01*
G01*
X137747701Y-148258697D02*
G75*
G03*
X137902450Y-148258746I77399J77397D01*
G01*
X134674736Y-150277017D02*
G75*
G03*
X134250474Y-150277017I-212131J-212131D01*
G01*
X135202101Y-150804297D02*
G75*
G03*
X135356857Y-150804339I77399J77397D01*
G01*
X132553397Y-151974069D02*
G75*
G03*
X132553427Y-152398361I212203J-212131D01*
G01*
X136050578Y-149955796D02*
G75*
G03*
X136205352Y-149955796I77387J77386D01*
G01*
X134353532Y-151652874D02*
G75*
G03*
X134508338Y-151652874I77403J77404D01*
G01*
X134250520Y-150277068D02*
G75*
G03*
X134250470Y-150701282I212080J-212132D01*
G01*
X137644569Y-146882869D02*
G75*
G03*
X137644577Y-147307139I212131J-212131D01*
G01*
X136474824Y-149686287D02*
G75*
G03*
X136474842Y-149531531I-77324J77387D01*
G01*
X134777785Y-151383403D02*
G75*
G03*
X134777796Y-151228608I-77385J77403D01*
G01*
X135098982Y-149428468D02*
G75*
G03*
X135099010Y-149852760I212118J-212132D01*
G01*
X138068842Y-146882875D02*
G75*
G03*
X137644580Y-146882875I-212131J-212131D01*
G01*
X99175000Y-49278241D02*
X99175000Y-52000000D01*
X144344944Y-142114550D02*
X144567524Y-142337128D01*
X99314000Y-45212000D02*
X99314000Y-48056800D01*
X144991789Y-141912863D02*
X144871662Y-141792736D01*
X145194041Y-141266586D02*
X145194041Y-141266587D01*
X140559154Y-146583400D02*
X140748546Y-146394007D01*
X143294710Y-143609909D02*
X143294711Y-143609909D01*
X143920678Y-142333908D02*
X144140038Y-142114549D01*
X141375085Y-144879494D02*
X141594439Y-144660141D01*
X140748546Y-146154930D02*
X140526586Y-145932970D01*
X141375083Y-144879495D02*
X141375085Y-144879494D01*
X142446192Y-144458453D02*
X142223630Y-144235890D01*
X144143250Y-142761387D02*
X143920678Y-142538814D01*
X142647897Y-143811624D02*
X142750338Y-143914065D01*
X144807776Y-142337128D02*
X144807777Y-142337128D01*
X99314000Y-48056800D02*
X99568000Y-48310800D01*
X144344945Y-142114548D02*
X144344944Y-142114550D01*
X143110666Y-144034174D02*
X143294711Y-143850128D01*
X148742400Y-137922000D02*
X148742400Y-120205595D01*
X129590800Y-44094400D02*
X100431600Y-44094400D01*
X140320076Y-146583400D02*
X140320077Y-146583400D01*
X143920679Y-142333907D02*
X143920678Y-142333908D01*
X145397816Y-141266587D02*
X148742400Y-137922000D01*
X144871662Y-141792736D02*
X144769776Y-141690850D01*
X144143249Y-142761386D02*
X144143250Y-142761387D01*
X148742400Y-120205595D02*
X138734800Y-110197995D01*
X141597673Y-145306995D02*
X141597673Y-145306996D01*
X140950852Y-145508706D02*
X140950853Y-145508704D01*
X142262173Y-144882717D02*
X142262173Y-144882718D01*
X141799351Y-144660140D02*
X142021928Y-144882718D01*
X141413678Y-145731261D02*
X141597673Y-145547265D01*
X143959223Y-143185651D02*
X143959222Y-143185652D01*
X140526587Y-145728127D02*
X140526587Y-145728126D01*
X140950853Y-145508704D02*
X141173409Y-145731261D01*
X144807777Y-142337128D02*
X144991789Y-142153115D01*
X140526587Y-145728126D02*
X140746009Y-145508705D01*
X145194041Y-141266587D02*
X145194042Y-141266588D01*
X141799350Y-144660142D02*
X141799351Y-144660140D01*
X138734800Y-53238400D02*
X129590800Y-44094400D01*
X99568000Y-48310800D02*
X99568000Y-48463200D01*
X141597673Y-145306996D02*
X141375084Y-145084406D01*
X131927600Y-154736800D02*
X140081000Y-146583400D01*
X141413678Y-145731260D02*
X141413678Y-145731261D01*
X140748545Y-146154930D02*
X140748546Y-146154930D01*
X142262173Y-144882718D02*
X142446192Y-144698698D01*
X99591200Y-48486400D02*
X99591200Y-48862041D01*
X143959222Y-143185652D02*
X144143250Y-143001623D01*
X143072173Y-143182515D02*
X143291584Y-142963105D01*
X99568000Y-48463200D02*
X99591200Y-48486400D01*
X99591200Y-48862041D02*
X99175000Y-49278241D01*
X142223630Y-144031010D02*
X142443017Y-143811624D01*
X138734800Y-110197995D02*
X138734800Y-53238400D01*
X144769776Y-141487078D02*
X144990269Y-141266586D01*
X131927600Y-160985200D02*
X131927600Y-154736800D01*
X144769777Y-141487077D02*
X144769776Y-141487078D01*
X143496440Y-142963105D02*
X143598869Y-143065534D01*
X143294711Y-143609909D02*
X143072173Y-143387371D01*
X100431600Y-44094400D02*
X99314000Y-45212000D01*
X142750338Y-143914065D02*
X142870446Y-144034174D01*
X140559154Y-146583401D02*
X140559154Y-146583400D01*
X142446192Y-144458452D02*
X142446192Y-144458453D01*
X145397815Y-141266589D02*
X145397816Y-141266587D01*
X143598869Y-143065534D02*
X143718986Y-143185652D01*
X141375133Y-144879545D02*
G75*
G03*
X141375084Y-145084406I102367J-102455D01*
G01*
X141799356Y-144660136D02*
G75*
G03*
X141594439Y-144660141I-102456J-102464D01*
G01*
X144991800Y-142153126D02*
G75*
G03*
X144991789Y-141912863I-120100J120126D01*
G01*
X143496439Y-142963106D02*
G75*
G03*
X143291585Y-142963106I-102427J-102431D01*
G01*
X144344953Y-142114540D02*
G75*
G03*
X144140038Y-142114549I-102453J-102460D01*
G01*
X144143245Y-143001618D02*
G75*
G03*
X144143249Y-142761386I-120145J120118D01*
G01*
X145194040Y-141266587D02*
G75*
G03*
X144990270Y-141266587I-101885J-101887D01*
G01*
X144567524Y-142337128D02*
G75*
G03*
X144807776Y-142337128I120126J120125D01*
G01*
X142223681Y-144031061D02*
G75*
G03*
X142223631Y-144235889I102419J-102439D01*
G01*
X145194013Y-141266617D02*
G75*
G03*
X145397815Y-141266589I101887J101917D01*
G01*
X143718982Y-143185656D02*
G75*
G03*
X143959223Y-143185651I120118J120156D01*
G01*
X140748576Y-146394037D02*
G75*
G03*
X140748544Y-146154931I-119576J119537D01*
G01*
X140320061Y-146583416D02*
G75*
G03*
X140559154Y-146583401I119539J119516D01*
G01*
X143920719Y-142333947D02*
G75*
G03*
X143920679Y-142538813I102381J-102453D01*
G01*
X143072131Y-143182473D02*
G75*
G03*
X143072174Y-143387370I102469J-102427D01*
G01*
X141597643Y-145547235D02*
G75*
G03*
X141597673Y-145306995I-120143J120135D01*
G01*
X144769814Y-141487114D02*
G75*
G03*
X144769777Y-141690849I101886J-101886D01*
G01*
X142446217Y-144698723D02*
G75*
G03*
X142446192Y-144458452I-120117J120123D01*
G01*
X143294691Y-143850108D02*
G75*
G03*
X143294709Y-143609910I-120091J120108D01*
G01*
X140950822Y-145508736D02*
G75*
G03*
X140746009Y-145508705I-102422J-102364D01*
G01*
X141173366Y-145731304D02*
G75*
G03*
X141413678Y-145731260I120134J120204D01*
G01*
X140320075Y-146583401D02*
G75*
G03*
X140081001Y-146583401I-119537J-119538D01*
G01*
X142647897Y-143811624D02*
G75*
G03*
X142443017Y-143811624I-102440J-102440D01*
G01*
X140526539Y-145728079D02*
G75*
G03*
X140526587Y-145932969I102461J-102421D01*
G01*
X142870447Y-144034173D02*
G75*
G03*
X143110665Y-144034173I120109J120110D01*
G01*
X142021979Y-144882667D02*
G75*
G03*
X142262172Y-144882716I120121J120067D01*
G01*
X134932354Y-152358051D02*
X134932355Y-152358052D01*
X99060000Y-48107600D02*
X98675000Y-48492600D01*
X137157601Y-150916249D02*
X137157600Y-150916250D01*
X139854543Y-147946402D02*
X139718069Y-147809928D01*
X135460637Y-152613344D02*
X135611910Y-152462070D01*
X137477948Y-149812459D02*
X137733207Y-150067719D01*
X136460419Y-151340526D02*
X136323945Y-151204052D01*
X139703225Y-148370667D02*
X139854543Y-148219348D01*
X136629416Y-150660989D02*
X136629417Y-150660990D01*
X132638800Y-158902400D02*
X132588000Y-158851600D01*
X139175043Y-148115430D02*
X139175044Y-148115431D01*
X136205150Y-150847662D02*
X136391823Y-150660990D01*
X138157471Y-149643454D02*
X138157470Y-149643454D01*
X135356619Y-151696193D02*
X135543292Y-151509521D01*
X135611910Y-152189078D02*
X135611910Y-152189079D01*
X135611910Y-152189079D02*
X135356619Y-151933787D01*
X139600058Y-147455892D02*
X139600060Y-147455891D01*
X139600060Y-147455891D02*
X139788298Y-147267654D01*
X149250400Y-138277600D02*
X149250400Y-120040400D01*
X136629417Y-150660990D02*
X136884676Y-150916250D01*
X138006132Y-150067718D02*
X138006131Y-150067719D01*
X136323945Y-151204052D02*
X136205150Y-151085256D01*
X137053681Y-149999131D02*
X137240354Y-149812459D01*
X140024323Y-147267653D02*
X140024324Y-147267654D01*
X135460637Y-152613345D02*
X135460637Y-152613344D01*
X100330000Y-43840400D02*
X99060000Y-45110400D01*
X129743200Y-43840400D02*
X100330000Y-43840400D01*
X138157470Y-149643454D02*
X137902212Y-149388194D01*
X149250400Y-120040400D02*
X138988800Y-109778800D01*
X134762576Y-153036807D02*
X134508088Y-152782318D01*
X137902212Y-149150600D02*
X138088885Y-148963928D01*
X134508088Y-152544724D02*
X134694761Y-152358052D01*
X138326478Y-148963927D02*
X138326479Y-148963928D01*
X137477947Y-149812458D02*
X137477948Y-149812459D01*
X99060000Y-45110400D02*
X99060000Y-48107600D01*
X138006131Y-150067719D02*
X138157470Y-149916379D01*
X138988800Y-53086000D02*
X129743200Y-43840400D01*
X98675000Y-48492600D02*
X98675000Y-52000000D01*
X138750777Y-148302171D02*
X138937518Y-148115431D01*
X132588000Y-158851600D02*
X132588000Y-154940000D01*
X136309101Y-151764791D02*
X136460419Y-151613472D01*
X139006012Y-148794933D02*
X138869538Y-148658459D01*
X132588000Y-154940000D02*
X134061200Y-153466800D01*
X134762577Y-153036808D02*
X134762576Y-153036807D01*
X137157600Y-150916250D02*
X137308939Y-150764910D01*
X139175044Y-148115431D02*
X139430279Y-148370667D01*
X140260349Y-147267655D02*
X140260350Y-147267654D01*
X138988800Y-109778800D02*
X138988800Y-53086000D01*
X141474956Y-146053044D02*
X149250400Y-138277600D01*
X138869538Y-148658459D02*
X138750777Y-148539697D01*
X134603972Y-153466800D02*
X134762577Y-153308194D01*
X140260350Y-147267654D02*
X141474956Y-146053044D01*
X135780886Y-151509521D02*
X136036155Y-151764791D01*
X137308939Y-150491985D02*
X137053681Y-150236725D01*
X134932355Y-152358052D02*
X135187646Y-152613344D01*
X138854694Y-149219198D02*
X139006012Y-149067879D01*
X139718069Y-147809928D02*
X139600059Y-147691917D01*
X138326479Y-148963928D02*
X138581748Y-149219198D01*
X137308940Y-150491985D02*
X137308939Y-150491985D01*
X135780885Y-151509520D02*
X135780886Y-151509521D01*
X140024288Y-147267690D02*
G75*
G03*
X140260348Y-147267654I118012J118090D01*
G01*
X140024312Y-147267664D02*
G75*
G03*
X139788298Y-147267654I-118012J-118036D01*
G01*
X136460420Y-151613473D02*
G75*
G03*
X136460419Y-151340526I-136520J136473D01*
G01*
X137902216Y-149150604D02*
G75*
G03*
X137902213Y-149388193I118784J-118796D01*
G01*
X139600054Y-147455888D02*
G75*
G03*
X139600059Y-147691917I118046J-118012D01*
G01*
X138581749Y-149219197D02*
G75*
G03*
X138854693Y-149219197I136472J136472D01*
G01*
X135356630Y-151696204D02*
G75*
G03*
X135356620Y-151933786I118770J-118796D01*
G01*
X136884639Y-150916287D02*
G75*
G03*
X137157600Y-150916248I136461J136487D01*
G01*
X135611935Y-152462095D02*
G75*
G03*
X135611909Y-152189079I-136535J136495D01*
G01*
X139175061Y-148115412D02*
G75*
G03*
X138937519Y-148115432I-118761J-118788D01*
G01*
X137308892Y-150764863D02*
G75*
G03*
X137308940Y-150491985I-136392J136463D01*
G01*
X138750743Y-148302137D02*
G75*
G03*
X138750777Y-148539697I118757J-118763D01*
G01*
X138326496Y-148963909D02*
G75*
G03*
X138088885Y-148963928I-118796J-118791D01*
G01*
X139006006Y-149067873D02*
G75*
G03*
X139006012Y-148794933I-136506J136473D01*
G01*
X134332587Y-153466799D02*
G75*
G03*
X134603971Y-153466799I135692J135692D01*
G01*
X138157454Y-149916363D02*
G75*
G03*
X138157471Y-149643454I-136454J136463D01*
G01*
X137733238Y-150067688D02*
G75*
G03*
X138006132Y-150067718I136462J136388D01*
G01*
X134762575Y-153308192D02*
G75*
G03*
X134762576Y-153036809I-135675J135692D01*
G01*
X134508068Y-152544704D02*
G75*
G03*
X134508089Y-152782317I118832J-118796D01*
G01*
X137477996Y-149812409D02*
G75*
G03*
X137240354Y-149812459I-118796J-118891D01*
G01*
X139430280Y-148370666D02*
G75*
G03*
X139703224Y-148370666I136472J136472D01*
G01*
X135187604Y-152613386D02*
G75*
G03*
X135460637Y-152613345I136496J136586D01*
G01*
X136205191Y-150847703D02*
G75*
G03*
X136205150Y-151085256I118709J-118797D01*
G01*
X134932396Y-152358009D02*
G75*
G03*
X134694761Y-152358052I-118796J-118791D01*
G01*
X139854568Y-148219373D02*
G75*
G03*
X139854543Y-147946402I-136468J136473D01*
G01*
X137053653Y-149999103D02*
G75*
G03*
X137053681Y-150236725I118847J-118797D01*
G01*
X135780896Y-151509509D02*
G75*
G03*
X135543292Y-151509521I-118796J-118791D01*
G01*
X136629396Y-150661009D02*
G75*
G03*
X136391823Y-150660990I-118796J-118791D01*
G01*
X136036156Y-151764790D02*
G75*
G03*
X136309100Y-151764790I136472J136472D01*
G01*
X134332585Y-153466801D02*
G75*
G03*
X134061201Y-153466801I-135692J-135692D01*
G01*
X98175000Y-52000000D02*
X98175000Y-48325000D01*
X84255500Y-111690000D02*
X84255500Y-109749700D01*
X84277200Y-102920800D02*
X112674400Y-102920800D01*
X84255500Y-109749700D02*
X84277200Y-109728000D01*
X98175000Y-48325000D02*
X98525000Y-47975000D01*
X97175000Y-52000000D02*
X97175000Y-50500000D01*
X97175000Y-50500000D02*
X97400000Y-50275000D01*
X97400000Y-48250000D02*
X97775000Y-47875000D01*
X97400000Y-50275000D02*
X97400000Y-48250000D01*
X82255500Y-111690000D02*
X82255500Y-109677200D01*
X82245200Y-102920800D02*
X74269600Y-102920800D01*
X95675000Y-52000000D02*
X95675000Y-49425000D01*
X95675000Y-49425000D02*
X95525000Y-49275000D01*
X94175000Y-44915400D02*
X95504000Y-43586400D01*
X94175000Y-52000000D02*
X94175000Y-44915400D01*
X139242800Y-109016800D02*
X149910800Y-119684800D01*
X149910800Y-119684800D02*
X149910800Y-138531600D01*
X129844800Y-43586400D02*
X139242800Y-52984400D01*
X133400800Y-155041600D02*
X133400800Y-162001200D01*
X95504000Y-43586400D02*
X129844800Y-43586400D01*
X149910800Y-138531600D02*
X133400800Y-155041600D01*
X139242800Y-52984400D02*
X139242800Y-109016800D01*
X88200000Y-47550000D02*
X87550000Y-48200000D01*
X85255500Y-111690000D02*
X85255500Y-109741100D01*
X87325000Y-48200000D02*
X87115700Y-47990700D01*
X75946000Y-101854000D02*
X75895200Y-101904800D01*
X92275000Y-48050000D02*
X91775000Y-47550000D01*
X85242400Y-101854000D02*
X75946000Y-101854000D01*
X92175000Y-52000000D02*
X92175000Y-50075000D01*
X85255500Y-109741100D02*
X85242400Y-109728000D01*
X92175000Y-50075000D02*
X92275000Y-49975000D01*
X92275000Y-49975000D02*
X92275000Y-48050000D01*
X87550000Y-48200000D02*
X87325000Y-48200000D01*
X91775000Y-47550000D02*
X88200000Y-47550000D01*
X87115700Y-47990700D02*
X87050000Y-47990700D01*
X91675000Y-52000000D02*
X91675000Y-49425000D01*
X91800000Y-49300000D02*
X91800000Y-48200000D01*
X88325000Y-48000000D02*
X88100000Y-48225000D01*
X91800000Y-48200000D02*
X91600000Y-48000000D01*
X91675000Y-49425000D02*
X91800000Y-49300000D01*
X85852000Y-100939600D02*
X77216000Y-100939600D01*
X77216000Y-100939600D02*
X77165200Y-100990400D01*
X88100000Y-48225000D02*
X87750000Y-48575000D01*
X85755500Y-108818700D02*
X85750400Y-108813600D01*
X91600000Y-48000000D02*
X88325000Y-48000000D01*
X87750000Y-48575000D02*
X87050000Y-48575000D01*
X86825000Y-48575000D02*
X86575000Y-48825000D01*
X85755500Y-111690000D02*
X85755500Y-108818700D01*
X87050000Y-48575000D02*
X86825000Y-48575000D01*
X91175000Y-52000000D02*
X91275000Y-51900000D01*
X91275000Y-51900000D02*
X91275000Y-48750000D01*
X90675000Y-52000000D02*
X90675000Y-53900000D01*
X98275000Y-53975000D02*
X90750000Y-53975000D01*
X90675000Y-53900000D02*
X90725000Y-53950000D01*
X90750000Y-53975000D02*
X90725000Y-53950000D01*
X88175000Y-52000000D02*
X88175000Y-49821000D01*
X88175000Y-49821000D02*
X87630000Y-49276000D01*
X87675000Y-52000000D02*
X87675000Y-50438600D01*
X87675000Y-50438600D02*
X87172800Y-49936400D01*
X86563200Y-84937600D02*
X86417600Y-85083200D01*
D57*
X51866800Y-86004400D02*
X51866800Y-85336200D01*
D59*
X58318400Y-82194400D02*
X53289200Y-82194400D01*
X86417600Y-85083200D02*
X85642000Y-85083200D01*
X89675000Y-83959400D02*
X89204800Y-84429600D01*
X53289200Y-82194400D02*
X51701400Y-83782200D01*
X85394800Y-84836000D02*
X85394800Y-84277200D01*
X85394800Y-84277200D02*
X85140800Y-84023200D01*
D57*
X52222400Y-86360000D02*
X51866800Y-86004400D01*
D59*
X85140800Y-84023200D02*
X65278000Y-84023200D01*
X61163200Y-85039200D02*
X58318400Y-82194400D01*
X88849200Y-84785200D02*
X87731600Y-84785200D01*
X85642000Y-85083200D02*
X85394800Y-84836000D01*
X51701400Y-83782200D02*
X51701400Y-85170800D01*
D57*
X53301400Y-87235800D02*
X52425600Y-86360000D01*
X51866800Y-85336200D02*
X51701400Y-85170800D01*
D59*
X65278000Y-84023200D02*
X64262000Y-85039200D01*
D57*
X52425600Y-86360000D02*
X52222400Y-86360000D01*
D59*
X89675000Y-81350000D02*
X89675000Y-83959400D01*
D57*
X53301400Y-88158800D02*
X53301400Y-87235800D01*
X53301400Y-88837000D02*
X53301400Y-88158800D01*
X51651400Y-90487000D02*
X53301400Y-88837000D01*
D59*
X64262000Y-85039200D02*
X61163200Y-85039200D01*
X89204800Y-84429600D02*
X88849200Y-84785200D01*
D57*
X51651400Y-91206800D02*
X51651400Y-90487000D01*
D59*
X90175000Y-81350000D02*
X90175000Y-84475400D01*
X57365400Y-87743800D02*
X55765400Y-86143800D01*
X83464400Y-87884000D02*
X57670200Y-87884000D01*
X88646000Y-86868000D02*
X84480400Y-86868000D01*
X89306400Y-85344000D02*
X89306400Y-86207600D01*
X89306400Y-86207600D02*
X88646000Y-86868000D01*
X57365400Y-88188800D02*
X57365400Y-87743800D01*
X90175000Y-84475400D02*
X89306400Y-85344000D01*
X55715400Y-90385400D02*
X55715400Y-90698800D01*
X57670200Y-87884000D02*
X57365400Y-88188800D01*
X57365400Y-88188800D02*
X57365400Y-88735400D01*
X84480400Y-86868000D02*
X83464400Y-87884000D01*
X57365400Y-88735400D02*
X55715400Y-90385400D01*
X55765400Y-86143800D02*
X55765400Y-85110800D01*
D64*
X80975200Y-58775600D02*
X80264000Y-58775600D01*
X82325800Y-57425000D02*
X82143600Y-57607200D01*
X81686400Y-58064400D02*
X80975200Y-58775600D01*
X82143600Y-57607200D02*
X81686400Y-58064400D01*
X80264000Y-58775600D02*
X76149200Y-58775600D01*
X76149200Y-58775600D02*
X75590400Y-58216800D01*
X83750000Y-57425000D02*
X82325800Y-57425000D01*
D60*
X122000000Y-169750000D02*
X122000000Y-165369000D01*
D63*
X109075000Y-153700000D02*
X113425000Y-153700000D01*
X113425000Y-153700000D02*
X117525000Y-157800000D01*
D60*
X127475000Y-175225000D02*
X122000000Y-169750000D01*
X116829000Y-158496000D02*
X117525000Y-157800000D01*
X122000000Y-165369000D02*
X118175000Y-161544000D01*
X104394000Y-158496000D02*
X116829000Y-158496000D01*
M02*
