G04 #@! TF.GenerationSoftware,KiCad,Pcbnew,7.0.1*
G04 #@! TF.CreationDate,2024-01-20T14:02:29+00:00*
G04 #@! TF.ProjectId,gk,676b2e6b-6963-4616-945f-706362585858,rev?*
G04 #@! TF.SameCoordinates,Original*
G04 #@! TF.FileFunction,Soldermask,Top*
G04 #@! TF.FilePolarity,Negative*
%FSLAX46Y46*%
G04 Gerber Fmt 4.6, Leading zero omitted, Abs format (unit mm)*
G04 Created by KiCad (PCBNEW 7.0.1) date 2024-01-20 14:02:29*
%MOMM*%
%LPD*%
G01*
G04 APERTURE LIST*
G04 Aperture macros list*
%AMRoundRect*
0 Rectangle with rounded corners*
0 $1 Rounding radius*
0 $2 $3 $4 $5 $6 $7 $8 $9 X,Y pos of 4 corners*
0 Add a 4 corners polygon primitive as box body*
4,1,4,$2,$3,$4,$5,$6,$7,$8,$9,$2,$3,0*
0 Add four circle primitives for the rounded corners*
1,1,$1+$1,$2,$3*
1,1,$1+$1,$4,$5*
1,1,$1+$1,$6,$7*
1,1,$1+$1,$8,$9*
0 Add four rect primitives between the rounded corners*
20,1,$1+$1,$2,$3,$4,$5,0*
20,1,$1+$1,$4,$5,$6,$7,0*
20,1,$1+$1,$6,$7,$8,$9,0*
20,1,$1+$1,$8,$9,$2,$3,0*%
%AMRotRect*
0 Rectangle, with rotation*
0 The origin of the aperture is its center*
0 $1 length*
0 $2 width*
0 $3 Rotation angle, in degrees counterclockwise*
0 Add horizontal line*
21,1,$1,$2,0,0,$3*%
G04 Aperture macros list end*
%ADD10C,0.120000*%
%ADD11RoundRect,0.225000X0.225000X0.250000X-0.225000X0.250000X-0.225000X-0.250000X0.225000X-0.250000X0*%
%ADD12RoundRect,0.200000X-0.200000X-0.275000X0.200000X-0.275000X0.200000X0.275000X-0.200000X0.275000X0*%
%ADD13RoundRect,0.225000X-0.225000X-0.250000X0.225000X-0.250000X0.225000X0.250000X-0.225000X0.250000X0*%
%ADD14RoundRect,0.250000X-0.250000X-0.475000X0.250000X-0.475000X0.250000X0.475000X-0.250000X0.475000X0*%
%ADD15C,3.200000*%
%ADD16RoundRect,0.250000X-0.475000X0.250000X-0.475000X-0.250000X0.475000X-0.250000X0.475000X0.250000X0*%
%ADD17RotRect,0.900000X0.800000X135.000000*%
%ADD18RoundRect,0.225000X-0.250000X0.225000X-0.250000X-0.225000X0.250000X-0.225000X0.250000X0.225000X0*%
%ADD19RoundRect,0.200000X0.275000X-0.200000X0.275000X0.200000X-0.275000X0.200000X-0.275000X-0.200000X0*%
%ADD20R,1.700000X1.700000*%
%ADD21RoundRect,0.200000X0.200000X0.275000X-0.200000X0.275000X-0.200000X-0.275000X0.200000X-0.275000X0*%
%ADD22RoundRect,0.250000X0.475000X-0.250000X0.475000X0.250000X-0.475000X0.250000X-0.475000X-0.250000X0*%
%ADD23RoundRect,0.225000X0.250000X-0.225000X0.250000X0.225000X-0.250000X0.225000X-0.250000X-0.225000X0*%
%ADD24R,1.400000X1.150000*%
%ADD25RotRect,0.900000X0.800000X45.000000*%
%ADD26RoundRect,0.087500X-0.225000X-0.087500X0.225000X-0.087500X0.225000X0.087500X-0.225000X0.087500X0*%
%ADD27RoundRect,0.087500X-0.087500X-0.225000X0.087500X-0.225000X0.087500X0.225000X-0.087500X0.225000X0*%
%ADD28RoundRect,0.200000X-0.275000X0.200000X-0.275000X-0.200000X0.275000X-0.200000X0.275000X0.200000X0*%
%ADD29R,2.000000X2.000000*%
%ADD30C,2.000000*%
%ADD31R,3.200000X2.000000*%
%ADD32RoundRect,0.075000X-0.675000X-0.075000X0.675000X-0.075000X0.675000X0.075000X-0.675000X0.075000X0*%
%ADD33RoundRect,0.075000X-0.075000X-0.675000X0.075000X-0.675000X0.075000X0.675000X-0.075000X0.675000X0*%
%ADD34RoundRect,0.250000X0.250000X0.475000X-0.250000X0.475000X-0.250000X-0.475000X0.250000X-0.475000X0*%
%ADD35C,2.200000*%
%ADD36C,1.700000*%
%ADD37R,1.600000X1.600000*%
%ADD38O,1.600000X1.600000*%
%ADD39RoundRect,0.200000X0.200000X0.450000X-0.200000X0.450000X-0.200000X-0.450000X0.200000X-0.450000X0*%
%ADD40O,0.800000X1.300000*%
%ADD41C,0.650000*%
%ADD42O,1.000000X1.600000*%
%ADD43O,1.000000X2.100000*%
%ADD44C,1.600000*%
%ADD45R,3.500000X3.500000*%
%ADD46RoundRect,0.750000X1.000000X-0.750000X1.000000X0.750000X-1.000000X0.750000X-1.000000X-0.750000X0*%
%ADD47RoundRect,0.875000X0.875000X-0.875000X0.875000X0.875000X-0.875000X0.875000X-0.875000X-0.875000X0*%
%ADD48O,2.200000X4.000000*%
%ADD49O,4.000000X2.200000*%
%ADD50R,2.200000X4.000000*%
%ADD51RoundRect,0.250000X-0.750000X0.600000X-0.750000X-0.600000X0.750000X-0.600000X0.750000X0.600000X0*%
%ADD52O,2.000000X1.700000*%
%ADD53RoundRect,0.250000X0.350000X0.625000X-0.350000X0.625000X-0.350000X-0.625000X0.350000X-0.625000X0*%
%ADD54O,1.200000X1.750000*%
G04 APERTURE END LIST*
D10*
X73406000Y-150876000D02*
X81534000Y-150876000D01*
X81534000Y-150876000D02*
X81534000Y-159004000D01*
X81534000Y-159004000D02*
X73406000Y-159004000D01*
X73406000Y-159004000D02*
X73406000Y-150876000D01*
G36*
X73406000Y-150876000D02*
G01*
X81534000Y-150876000D01*
X81534000Y-159004000D01*
X73406000Y-159004000D01*
X73406000Y-150876000D01*
G37*
X50546000Y-150876000D02*
X58674000Y-150876000D01*
X58674000Y-150876000D02*
X58674000Y-159004000D01*
X58674000Y-159004000D02*
X50546000Y-159004000D01*
X50546000Y-159004000D02*
X50546000Y-150876000D01*
G36*
X50546000Y-150876000D02*
G01*
X58674000Y-150876000D01*
X58674000Y-159004000D01*
X50546000Y-159004000D01*
X50546000Y-150876000D01*
G37*
X61976000Y-139446000D02*
X70104000Y-139446000D01*
X70104000Y-139446000D02*
X70104000Y-147574000D01*
X70104000Y-147574000D02*
X61976000Y-147574000D01*
X61976000Y-147574000D02*
X61976000Y-139446000D01*
G36*
X61976000Y-139446000D02*
G01*
X70104000Y-139446000D01*
X70104000Y-147574000D01*
X61976000Y-147574000D01*
X61976000Y-139446000D01*
G37*
X136906000Y-125476000D02*
X145034000Y-125476000D01*
X145034000Y-125476000D02*
X145034000Y-133604000D01*
X145034000Y-133604000D02*
X136906000Y-133604000D01*
X136906000Y-133604000D02*
X136906000Y-125476000D01*
G36*
X136906000Y-125476000D02*
G01*
X145034000Y-125476000D01*
X145034000Y-133604000D01*
X136906000Y-133604000D01*
X136906000Y-125476000D01*
G37*
X86106000Y-125476000D02*
X94234000Y-125476000D01*
X94234000Y-125476000D02*
X94234000Y-133604000D01*
X94234000Y-133604000D02*
X86106000Y-133604000D01*
X86106000Y-133604000D02*
X86106000Y-125476000D01*
G36*
X86106000Y-125476000D02*
G01*
X94234000Y-125476000D01*
X94234000Y-133604000D01*
X86106000Y-133604000D01*
X86106000Y-125476000D01*
G37*
X61976000Y-162306000D02*
X70104000Y-162306000D01*
X70104000Y-162306000D02*
X70104000Y-170434000D01*
X70104000Y-170434000D02*
X61976000Y-170434000D01*
X61976000Y-170434000D02*
X61976000Y-162306000D01*
G36*
X61976000Y-162306000D02*
G01*
X70104000Y-162306000D01*
X70104000Y-170434000D01*
X61976000Y-170434000D01*
X61976000Y-162306000D01*
G37*
X125476000Y-114046000D02*
X133604000Y-114046000D01*
X133604000Y-114046000D02*
X133604000Y-122174000D01*
X133604000Y-122174000D02*
X125476000Y-122174000D01*
X125476000Y-122174000D02*
X125476000Y-114046000D01*
G36*
X125476000Y-114046000D02*
G01*
X133604000Y-114046000D01*
X133604000Y-122174000D01*
X125476000Y-122174000D01*
X125476000Y-114046000D01*
G37*
X125476000Y-136906000D02*
X133604000Y-136906000D01*
X133604000Y-136906000D02*
X133604000Y-145034000D01*
X133604000Y-145034000D02*
X125476000Y-145034000D01*
X125476000Y-145034000D02*
X125476000Y-136906000D01*
G36*
X125476000Y-136906000D02*
G01*
X133604000Y-136906000D01*
X133604000Y-145034000D01*
X125476000Y-145034000D01*
X125476000Y-136906000D01*
G37*
X114046000Y-125476000D02*
X122174000Y-125476000D01*
X122174000Y-125476000D02*
X122174000Y-133604000D01*
X122174000Y-133604000D02*
X114046000Y-133604000D01*
X114046000Y-133604000D02*
X114046000Y-125476000D01*
G36*
X114046000Y-125476000D02*
G01*
X122174000Y-125476000D01*
X122174000Y-133604000D01*
X114046000Y-133604000D01*
X114046000Y-125476000D01*
G37*
D11*
X79515000Y-70104000D03*
X77965000Y-70104000D03*
D12*
X97219000Y-35052000D03*
X98869000Y-35052000D03*
D13*
X118097000Y-73152000D03*
X119647000Y-73152000D03*
D14*
X117922000Y-55880000D03*
X119822000Y-55880000D03*
D15*
X66040000Y-154940000D03*
D13*
X118097000Y-53848000D03*
X119647000Y-53848000D03*
X118097000Y-60452000D03*
X119647000Y-60452000D03*
D16*
X78232000Y-65598000D03*
X78232000Y-67498000D03*
D17*
X85302132Y-135680660D03*
X86150660Y-134832132D03*
X84877868Y-133559340D03*
X84029340Y-134407868D03*
D18*
X109220000Y-86093000D03*
X109220000Y-87643000D03*
D11*
X79007000Y-56896000D03*
X77457000Y-56896000D03*
D13*
X127749000Y-25908000D03*
X129299000Y-25908000D03*
X55765400Y-85110800D03*
X57315400Y-85110800D03*
D19*
X90170000Y-46545000D03*
X90170000Y-44895000D03*
D20*
X121920000Y-148590000D03*
D13*
X118097000Y-65532000D03*
X119647000Y-65532000D03*
X118097000Y-74676000D03*
X119647000Y-74676000D03*
D18*
X115824000Y-26149000D03*
X115824000Y-27699000D03*
X96012000Y-86093000D03*
X96012000Y-87643000D03*
D21*
X65442600Y-95504000D03*
X63792600Y-95504000D03*
D15*
X136525000Y-31750000D03*
D22*
X78232000Y-63434000D03*
X78232000Y-61534000D03*
D19*
X114300000Y-27749000D03*
X114300000Y-26099000D03*
D23*
X100584000Y-47511000D03*
X100584000Y-45961000D03*
D19*
X119380000Y-27749000D03*
X119380000Y-26099000D03*
D11*
X73927000Y-70104000D03*
X72377000Y-70104000D03*
D16*
X105156000Y-85918000D03*
X105156000Y-87818000D03*
D23*
X85852000Y-47511000D03*
X85852000Y-45961000D03*
D12*
X127699000Y-28448000D03*
X129349000Y-28448000D03*
D11*
X69863000Y-74168000D03*
X68313000Y-74168000D03*
D12*
X78931000Y-49784000D03*
X80581000Y-49784000D03*
D13*
X51701400Y-85170800D03*
X53251400Y-85170800D03*
D12*
X51651400Y-88158800D03*
X53301400Y-88158800D03*
X55715400Y-88188800D03*
X57365400Y-88188800D03*
D24*
X74125000Y-72225000D03*
X71925000Y-72225000D03*
X71925000Y-73825000D03*
X74125000Y-73825000D03*
D11*
X79515000Y-75692000D03*
X77965000Y-75692000D03*
D23*
X101346000Y-96533000D03*
X101346000Y-94983000D03*
D12*
X51651400Y-91206800D03*
X53301400Y-91206800D03*
D25*
X94189340Y-134832132D03*
X95037868Y-135680660D03*
X96310660Y-134407868D03*
X95462132Y-133559340D03*
D26*
X97262500Y-97675000D03*
X97262500Y-98175000D03*
X97262500Y-98675000D03*
X97262500Y-99175000D03*
D27*
X97925000Y-99337500D03*
X98425000Y-99337500D03*
X98925000Y-99337500D03*
D26*
X99587500Y-99175000D03*
X99587500Y-98675000D03*
X99587500Y-98175000D03*
X99587500Y-97675000D03*
D27*
X98925000Y-97512500D03*
X98425000Y-97512500D03*
X97925000Y-97512500D03*
D28*
X90170000Y-41491400D03*
X90170000Y-43141400D03*
D18*
X86868000Y-86093000D03*
X86868000Y-87643000D03*
D16*
X106680000Y-26482000D03*
X106680000Y-28382000D03*
D15*
X129540000Y-129540000D03*
D19*
X117856000Y-27749000D03*
X117856000Y-26099000D03*
D23*
X109728000Y-47511000D03*
X109728000Y-45961000D03*
D29*
X58790000Y-126430400D03*
D30*
X58790000Y-131430400D03*
X58790000Y-128930400D03*
D31*
X66290000Y-123330400D03*
X66290000Y-134530400D03*
D30*
X73290000Y-131430400D03*
X73290000Y-126430400D03*
D12*
X55715400Y-90698800D03*
X57365400Y-90698800D03*
D18*
X99060000Y-86093000D03*
X99060000Y-87643000D03*
D13*
X118097000Y-77724000D03*
X119647000Y-77724000D03*
D11*
X70879000Y-57404000D03*
X69329000Y-57404000D03*
X79515000Y-78232000D03*
X77965000Y-78232000D03*
D19*
X121412000Y-27749000D03*
X121412000Y-26099000D03*
D20*
X46990000Y-147320000D03*
D15*
X50800000Y-41275000D03*
D11*
X64122600Y-102108000D03*
X62572600Y-102108000D03*
D32*
X83750000Y-53925000D03*
X83750000Y-54425000D03*
X83750000Y-54925000D03*
X83750000Y-55425000D03*
X83750000Y-55925000D03*
X83750000Y-56425000D03*
X83750000Y-56925000D03*
X83750000Y-57425000D03*
X83750000Y-57925000D03*
X83750000Y-58425000D03*
X83750000Y-58925000D03*
X83750000Y-59425000D03*
X83750000Y-59925000D03*
X83750000Y-60425000D03*
X83750000Y-60925000D03*
X83750000Y-61425000D03*
X83750000Y-61925000D03*
X83750000Y-62425000D03*
X83750000Y-62925000D03*
X83750000Y-63425000D03*
X83750000Y-63925000D03*
X83750000Y-64425000D03*
X83750000Y-64925000D03*
X83750000Y-65425000D03*
X83750000Y-65925000D03*
X83750000Y-66425000D03*
X83750000Y-66925000D03*
X83750000Y-67425000D03*
X83750000Y-67925000D03*
X83750000Y-68425000D03*
X83750000Y-68925000D03*
X83750000Y-69425000D03*
X83750000Y-69925000D03*
X83750000Y-70425000D03*
X83750000Y-70925000D03*
X83750000Y-71425000D03*
X83750000Y-71925000D03*
X83750000Y-72425000D03*
X83750000Y-72925000D03*
X83750000Y-73425000D03*
X83750000Y-73925000D03*
X83750000Y-74425000D03*
X83750000Y-74925000D03*
X83750000Y-75425000D03*
X83750000Y-75925000D03*
X83750000Y-76425000D03*
X83750000Y-76925000D03*
X83750000Y-77425000D03*
X83750000Y-77925000D03*
X83750000Y-78425000D03*
X83750000Y-78925000D03*
X83750000Y-79425000D03*
D33*
X85675000Y-81350000D03*
X86175000Y-81350000D03*
X86675000Y-81350000D03*
X87175000Y-81350000D03*
X87675000Y-81350000D03*
X88175000Y-81350000D03*
X88675000Y-81350000D03*
X89175000Y-81350000D03*
X89675000Y-81350000D03*
X90175000Y-81350000D03*
X90675000Y-81350000D03*
X91175000Y-81350000D03*
X91675000Y-81350000D03*
X92175000Y-81350000D03*
X92675000Y-81350000D03*
X93175000Y-81350000D03*
X93675000Y-81350000D03*
X94175000Y-81350000D03*
X94675000Y-81350000D03*
X95175000Y-81350000D03*
X95675000Y-81350000D03*
X96175000Y-81350000D03*
X96675000Y-81350000D03*
X97175000Y-81350000D03*
X97675000Y-81350000D03*
X98175000Y-81350000D03*
X98675000Y-81350000D03*
X99175000Y-81350000D03*
X99675000Y-81350000D03*
X100175000Y-81350000D03*
X100675000Y-81350000D03*
X101175000Y-81350000D03*
X101675000Y-81350000D03*
X102175000Y-81350000D03*
X102675000Y-81350000D03*
X103175000Y-81350000D03*
X103675000Y-81350000D03*
X104175000Y-81350000D03*
X104675000Y-81350000D03*
X105175000Y-81350000D03*
X105675000Y-81350000D03*
X106175000Y-81350000D03*
X106675000Y-81350000D03*
X107175000Y-81350000D03*
X107675000Y-81350000D03*
X108175000Y-81350000D03*
X108675000Y-81350000D03*
X109175000Y-81350000D03*
X109675000Y-81350000D03*
X110175000Y-81350000D03*
X110675000Y-81350000D03*
X111175000Y-81350000D03*
D32*
X113100000Y-79425000D03*
X113100000Y-78925000D03*
X113100000Y-78425000D03*
X113100000Y-77925000D03*
X113100000Y-77425000D03*
X113100000Y-76925000D03*
X113100000Y-76425000D03*
X113100000Y-75925000D03*
X113100000Y-75425000D03*
X113100000Y-74925000D03*
X113100000Y-74425000D03*
X113100000Y-73925000D03*
X113100000Y-73425000D03*
X113100000Y-72925000D03*
X113100000Y-72425000D03*
X113100000Y-71925000D03*
X113100000Y-71425000D03*
X113100000Y-70925000D03*
X113100000Y-70425000D03*
X113100000Y-69925000D03*
X113100000Y-69425000D03*
X113100000Y-68925000D03*
X113100000Y-68425000D03*
X113100000Y-67925000D03*
X113100000Y-67425000D03*
X113100000Y-66925000D03*
X113100000Y-66425000D03*
X113100000Y-65925000D03*
X113100000Y-65425000D03*
X113100000Y-64925000D03*
X113100000Y-64425000D03*
X113100000Y-63925000D03*
X113100000Y-63425000D03*
X113100000Y-62925000D03*
X113100000Y-62425000D03*
X113100000Y-61925000D03*
X113100000Y-61425000D03*
X113100000Y-60925000D03*
X113100000Y-60425000D03*
X113100000Y-59925000D03*
X113100000Y-59425000D03*
X113100000Y-58925000D03*
X113100000Y-58425000D03*
X113100000Y-57925000D03*
X113100000Y-57425000D03*
X113100000Y-56925000D03*
X113100000Y-56425000D03*
X113100000Y-55925000D03*
X113100000Y-55425000D03*
X113100000Y-54925000D03*
X113100000Y-54425000D03*
X113100000Y-53925000D03*
D33*
X111175000Y-52000000D03*
X110675000Y-52000000D03*
X110175000Y-52000000D03*
X109675000Y-52000000D03*
X109175000Y-52000000D03*
X108675000Y-52000000D03*
X108175000Y-52000000D03*
X107675000Y-52000000D03*
X107175000Y-52000000D03*
X106675000Y-52000000D03*
X106175000Y-52000000D03*
X105675000Y-52000000D03*
X105175000Y-52000000D03*
X104675000Y-52000000D03*
X104175000Y-52000000D03*
X103675000Y-52000000D03*
X103175000Y-52000000D03*
X102675000Y-52000000D03*
X102175000Y-52000000D03*
X101675000Y-52000000D03*
X101175000Y-52000000D03*
X100675000Y-52000000D03*
X100175000Y-52000000D03*
X99675000Y-52000000D03*
X99175000Y-52000000D03*
X98675000Y-52000000D03*
X98175000Y-52000000D03*
X97675000Y-52000000D03*
X97175000Y-52000000D03*
X96675000Y-52000000D03*
X96175000Y-52000000D03*
X95675000Y-52000000D03*
X95175000Y-52000000D03*
X94675000Y-52000000D03*
X94175000Y-52000000D03*
X93675000Y-52000000D03*
X93175000Y-52000000D03*
X92675000Y-52000000D03*
X92175000Y-52000000D03*
X91675000Y-52000000D03*
X91175000Y-52000000D03*
X90675000Y-52000000D03*
X90175000Y-52000000D03*
X89675000Y-52000000D03*
X89175000Y-52000000D03*
X88675000Y-52000000D03*
X88175000Y-52000000D03*
X87675000Y-52000000D03*
X87175000Y-52000000D03*
X86675000Y-52000000D03*
X86175000Y-52000000D03*
X85675000Y-52000000D03*
D11*
X51067000Y-67176000D03*
X49517000Y-67176000D03*
D34*
X74610000Y-78232000D03*
X72710000Y-78232000D03*
D13*
X118097000Y-61976000D03*
X119647000Y-61976000D03*
D23*
X96520000Y-47511000D03*
X96520000Y-45961000D03*
D12*
X49467000Y-68884800D03*
X51117000Y-68884800D03*
D13*
X101841000Y-100076000D03*
X103391000Y-100076000D03*
D19*
X112776000Y-27749000D03*
X112776000Y-26099000D03*
D35*
X146725000Y-58400000D03*
X146725000Y-51400000D03*
D36*
X149225000Y-57150000D03*
X149225000Y-52650000D03*
D37*
X85725000Y-34925000D03*
D38*
X93345000Y-34925000D03*
D39*
X52898200Y-51436800D03*
D40*
X51648200Y-51436800D03*
D41*
X101315000Y-172025000D03*
X95535000Y-172025000D03*
D42*
X102745000Y-175675000D03*
D43*
X102745000Y-171495000D03*
D42*
X94105000Y-175675000D03*
D43*
X94105000Y-171495000D03*
D35*
X146725000Y-42525000D03*
X146725000Y-35525000D03*
D36*
X149225000Y-41275000D03*
X149225000Y-36775000D03*
D37*
X82356887Y-28956000D03*
D44*
X84356887Y-28956000D03*
D37*
X77155113Y-29972000D03*
D44*
X75155113Y-29972000D03*
D37*
X57150000Y-66675000D03*
D38*
X57150000Y-74295000D03*
D45*
X84523500Y-168244000D03*
D46*
X84523500Y-174244000D03*
D47*
X79823500Y-171244000D03*
D35*
X144125000Y-24725000D03*
X137125000Y-24725000D03*
D36*
X142875000Y-22225000D03*
X138375000Y-22225000D03*
D37*
X77155113Y-23368000D03*
D44*
X75155113Y-23368000D03*
D48*
X52007500Y-29850000D03*
X54707500Y-28650000D03*
D49*
X57207500Y-21850000D03*
D50*
X61807500Y-25750000D03*
D49*
X61307500Y-33050000D03*
D51*
X49382000Y-169692000D03*
D52*
X49382000Y-172192000D03*
D53*
X114300000Y-168275000D03*
D54*
X112300000Y-168275000D03*
M02*
