G04 #@! TF.GenerationSoftware,KiCad,Pcbnew,7.0.1*
G04 #@! TF.CreationDate,2024-01-01T11:46:02+00:00*
G04 #@! TF.ProjectId,gk,676b2e6b-6963-4616-945f-706362585858,rev?*
G04 #@! TF.SameCoordinates,Original*
G04 #@! TF.FileFunction,Copper,L4,Inr*
G04 #@! TF.FilePolarity,Positive*
%FSLAX46Y46*%
G04 Gerber Fmt 4.6, Leading zero omitted, Abs format (unit mm)*
G04 Created by KiCad (PCBNEW 7.0.1) date 2024-01-01 11:46:02*
%MOMM*%
%LPD*%
G01*
G04 APERTURE LIST*
G04 Aperture macros list*
%AMRoundRect*
0 Rectangle with rounded corners*
0 $1 Rounding radius*
0 $2 $3 $4 $5 $6 $7 $8 $9 X,Y pos of 4 corners*
0 Add a 4 corners polygon primitive as box body*
4,1,4,$2,$3,$4,$5,$6,$7,$8,$9,$2,$3,0*
0 Add four circle primitives for the rounded corners*
1,1,$1+$1,$2,$3*
1,1,$1+$1,$4,$5*
1,1,$1+$1,$6,$7*
1,1,$1+$1,$8,$9*
0 Add four rect primitives between the rounded corners*
20,1,$1+$1,$2,$3,$4,$5,0*
20,1,$1+$1,$4,$5,$6,$7,0*
20,1,$1+$1,$6,$7,$8,$9,0*
20,1,$1+$1,$8,$9,$2,$3,0*%
G04 Aperture macros list end*
G04 #@! TA.AperFunction,ComponentPad*
%ADD10C,2.200000*%
G04 #@! TD*
G04 #@! TA.AperFunction,ComponentPad*
%ADD11C,1.700000*%
G04 #@! TD*
G04 #@! TA.AperFunction,ComponentPad*
%ADD12R,1.600000X1.600000*%
G04 #@! TD*
G04 #@! TA.AperFunction,ComponentPad*
%ADD13O,1.600000X1.600000*%
G04 #@! TD*
G04 #@! TA.AperFunction,ComponentPad*
%ADD14O,1.000000X1.600000*%
G04 #@! TD*
G04 #@! TA.AperFunction,ComponentPad*
%ADD15O,1.000000X2.100000*%
G04 #@! TD*
G04 #@! TA.AperFunction,ComponentPad*
%ADD16C,1.600000*%
G04 #@! TD*
G04 #@! TA.AperFunction,ComponentPad*
%ADD17R,3.500000X3.500000*%
G04 #@! TD*
G04 #@! TA.AperFunction,ComponentPad*
%ADD18RoundRect,0.750000X1.000000X-0.750000X1.000000X0.750000X-1.000000X0.750000X-1.000000X-0.750000X0*%
G04 #@! TD*
G04 #@! TA.AperFunction,ComponentPad*
%ADD19RoundRect,0.875000X0.875000X-0.875000X0.875000X0.875000X-0.875000X0.875000X-0.875000X-0.875000X0*%
G04 #@! TD*
G04 #@! TA.AperFunction,ComponentPad*
%ADD20RoundRect,0.200000X0.200000X0.450000X-0.200000X0.450000X-0.200000X-0.450000X0.200000X-0.450000X0*%
G04 #@! TD*
G04 #@! TA.AperFunction,ComponentPad*
%ADD21O,0.800000X1.300000*%
G04 #@! TD*
G04 #@! TA.AperFunction,ComponentPad*
%ADD22O,2.200000X4.000000*%
G04 #@! TD*
G04 #@! TA.AperFunction,ComponentPad*
%ADD23O,4.000000X2.200000*%
G04 #@! TD*
G04 #@! TA.AperFunction,ComponentPad*
%ADD24R,2.200000X4.000000*%
G04 #@! TD*
G04 #@! TA.AperFunction,ComponentPad*
%ADD25RoundRect,0.250000X0.350000X0.625000X-0.350000X0.625000X-0.350000X-0.625000X0.350000X-0.625000X0*%
G04 #@! TD*
G04 #@! TA.AperFunction,ComponentPad*
%ADD26O,1.200000X1.750000*%
G04 #@! TD*
G04 #@! TA.AperFunction,ViaPad*
%ADD27C,0.450000*%
G04 #@! TD*
G04 #@! TA.AperFunction,ViaPad*
%ADD28C,0.800000*%
G04 #@! TD*
G04 #@! TA.AperFunction,Conductor*
%ADD29C,0.250000*%
G04 #@! TD*
G04 #@! TA.AperFunction,Conductor*
%ADD30C,0.203200*%
G04 #@! TD*
G04 #@! TA.AperFunction,Conductor*
%ADD31C,0.152400*%
G04 #@! TD*
G04 APERTURE END LIST*
D10*
X146725000Y-58400000D03*
X146725000Y-51400000D03*
D11*
X149225000Y-57150000D03*
X149225000Y-52650000D03*
D12*
X85725000Y-34925000D03*
D13*
X93345000Y-34925000D03*
D14*
X102745000Y-175675000D03*
D15*
X102745000Y-171495000D03*
D14*
X94105000Y-175675000D03*
D15*
X94105000Y-171495000D03*
D10*
X146725000Y-42525000D03*
X146725000Y-35525000D03*
D11*
X149225000Y-41275000D03*
X149225000Y-36775000D03*
D12*
X82356887Y-28956000D03*
D16*
X84356887Y-28956000D03*
D12*
X77155113Y-29972000D03*
D16*
X75155113Y-29972000D03*
D12*
X57150000Y-66675000D03*
D13*
X57150000Y-74295000D03*
D17*
X84523500Y-168244000D03*
D18*
X84523500Y-174244000D03*
D19*
X79823500Y-171244000D03*
D10*
X144125000Y-24725000D03*
X137125000Y-24725000D03*
D11*
X142875000Y-22225000D03*
X138375000Y-22225000D03*
D20*
X136525000Y-41275000D03*
D21*
X135275000Y-41275000D03*
D20*
X63500000Y-41275000D03*
D21*
X62250000Y-41275000D03*
D12*
X77155113Y-23368000D03*
D16*
X75155113Y-23368000D03*
D22*
X52007500Y-29850000D03*
X54707500Y-28650000D03*
D23*
X57207500Y-21850000D03*
D24*
X61807500Y-25750000D03*
D23*
X61307500Y-33050000D03*
D25*
X114300000Y-168275000D03*
D26*
X112300000Y-168275000D03*
D27*
X117500400Y-136296400D03*
D28*
X100787200Y-146608800D03*
X122885200Y-149606000D03*
X96672400Y-146761200D03*
D27*
X80525000Y-56325000D03*
D28*
X143510000Y-161696400D03*
D27*
X80726821Y-61394271D03*
X86214900Y-49575000D03*
D28*
X58724800Y-85140800D03*
X61417200Y-52781200D03*
X66852800Y-74371200D03*
X109067600Y-22809200D03*
X106629200Y-29870400D03*
X106172000Y-88696800D03*
X46075600Y-47904400D03*
X57810400Y-54305200D03*
X99720400Y-94996000D03*
X127275000Y-171575000D03*
D27*
X81413540Y-78551851D03*
D28*
X89712800Y-166420800D03*
X110571007Y-87558607D03*
X48717200Y-54102000D03*
D27*
X100775000Y-49725700D03*
D28*
X128117600Y-46431200D03*
X143002000Y-32105600D03*
X58724800Y-90678000D03*
X111525000Y-159925000D03*
D27*
X81991200Y-66802000D03*
D28*
X149148800Y-145999200D03*
X147472400Y-152044400D03*
X84429600Y-46126400D03*
D27*
X86715600Y-83210400D03*
D28*
X98653600Y-100533200D03*
D27*
X89700000Y-49750000D03*
D28*
X75387200Y-56946800D03*
X62331600Y-95453200D03*
X89880000Y-53898800D03*
D27*
X92200000Y-58050000D03*
D28*
X112623600Y-45872400D03*
X103022400Y-109016800D03*
X110439200Y-55118000D03*
X95554800Y-98298000D03*
X143510000Y-160477200D03*
X119634000Y-71831200D03*
X58369200Y-153416000D03*
X108966000Y-28905200D03*
X141173200Y-160477200D03*
X146964400Y-127203200D03*
X104140000Y-109728000D03*
D27*
X108527235Y-84241733D03*
D28*
X75488800Y-68630800D03*
X75692000Y-61671200D03*
X102108000Y-45516800D03*
X69088000Y-26670000D03*
D27*
X96750000Y-49825000D03*
D28*
X126725000Y-168025000D03*
X148031200Y-169265600D03*
X115722400Y-67818000D03*
X142290800Y-160426400D03*
X117551200Y-51714400D03*
X117100000Y-154400000D03*
X77927200Y-37541200D03*
X57810400Y-55575200D03*
X143764000Y-59842400D03*
X61772800Y-100584000D03*
D27*
X115825000Y-77325000D03*
D28*
X96520000Y-44856400D03*
D27*
X98625000Y-83650000D03*
D28*
X133400800Y-26771600D03*
X98425000Y-165450000D03*
D27*
X116250000Y-66000000D03*
X109952104Y-50207197D03*
X116200000Y-75550000D03*
X96854049Y-58199300D03*
D28*
X141224000Y-159258000D03*
X136385000Y-139700000D03*
X142290800Y-161696400D03*
X53543200Y-83616800D03*
X48768000Y-55524400D03*
X84378800Y-87934800D03*
X128168400Y-50139600D03*
D27*
X104225000Y-84875700D03*
D28*
X102209600Y-168757600D03*
X84582000Y-152603200D03*
X64973200Y-34747200D03*
X71932800Y-68884800D03*
X100584000Y-88239600D03*
X121615200Y-127000000D03*
X147218400Y-84074000D03*
X53136800Y-47802800D03*
X60909200Y-116992400D03*
X80010000Y-166116000D03*
X87868700Y-53810163D03*
X94640400Y-87477600D03*
X125222000Y-22504400D03*
X132791200Y-164998400D03*
X106222800Y-166827200D03*
X75692000Y-73558400D03*
X115112800Y-21234400D03*
X111252000Y-35763200D03*
X53289200Y-92659200D03*
X117950000Y-165450000D03*
X107150000Y-150300000D03*
X97891600Y-126593600D03*
X123799600Y-60909200D03*
X71932800Y-166217600D03*
X147015200Y-100431600D03*
X104851200Y-100025200D03*
X100380800Y-35052000D03*
X141224000Y-161645600D03*
D27*
X81400000Y-74400000D03*
D28*
X104575000Y-150275000D03*
X106400000Y-162000000D03*
X67767200Y-106222800D03*
X68732400Y-38354000D03*
X134823200Y-113284000D03*
X143510000Y-159258000D03*
X45770800Y-61823600D03*
D27*
X87925000Y-75200000D03*
D28*
X94386400Y-77978000D03*
D27*
X89525000Y-75300000D03*
X116025000Y-55425000D03*
D28*
X145084800Y-145745200D03*
X119634000Y-79248000D03*
X46075600Y-56337200D03*
X120548400Y-64516000D03*
D27*
X108975000Y-75425000D03*
D28*
X67818000Y-57556400D03*
X94538800Y-168859200D03*
X46177200Y-53543200D03*
X72034400Y-139903200D03*
X128117600Y-47548800D03*
X76200000Y-78943200D03*
D27*
X98425000Y-75300000D03*
D28*
X75184000Y-76200000D03*
X129387600Y-24536400D03*
X143560800Y-145897600D03*
X46380400Y-110693200D03*
X71069200Y-78282800D03*
X77165200Y-34340800D03*
X142341600Y-159258000D03*
X97129600Y-54711600D03*
X48666400Y-104902000D03*
X119583200Y-76200000D03*
D27*
X95628483Y-83705488D03*
X116225000Y-70500000D03*
X94400000Y-75200000D03*
D28*
X47955200Y-67106800D03*
D27*
X116275000Y-62500000D03*
D28*
X69189600Y-24739600D03*
D27*
X81175000Y-62325000D03*
D28*
X130810000Y-28549600D03*
X119735600Y-36118800D03*
D27*
X116200000Y-72800000D03*
X98119971Y-157875000D03*
X99275000Y-168600000D03*
X98875000Y-167350000D03*
X98700000Y-168950000D03*
X98150000Y-168125000D03*
X98975000Y-156950000D03*
D28*
X95825000Y-159500000D03*
X100975000Y-159350000D03*
X98350000Y-159300000D03*
X119025000Y-175400000D03*
X108975000Y-170475000D03*
X110693200Y-84785200D03*
X92456000Y-42214800D03*
X150977600Y-130708400D03*
X96824800Y-109982000D03*
X139039600Y-117957600D03*
X47650400Y-48006000D03*
X104775000Y-144800000D03*
X116789200Y-61112400D03*
X76758800Y-169265600D03*
X116382800Y-52933600D03*
D27*
X81775000Y-61925000D03*
D28*
X94589600Y-85902800D03*
X78181200Y-47853600D03*
X65532000Y-102006400D03*
X116738400Y-65024000D03*
X91846400Y-55829200D03*
X110693200Y-86156800D03*
X106934000Y-24942800D03*
X124358400Y-131572000D03*
X139649200Y-142798800D03*
X118465600Y-71882000D03*
X148082000Y-28854400D03*
X84582000Y-50038000D03*
X80822800Y-57759600D03*
X130200400Y-21996400D03*
X76250800Y-77063600D03*
X47955200Y-68986400D03*
X80924400Y-67462400D03*
X125679200Y-33274000D03*
X86461600Y-55626000D03*
X100482400Y-87020400D03*
X148031200Y-64566800D03*
X142490000Y-151176800D03*
X118059200Y-76149200D03*
X48260000Y-120446800D03*
X138176000Y-151841200D03*
X85902800Y-79197200D03*
X87239207Y-83847299D03*
X98044000Y-109626400D03*
X128524000Y-45364400D03*
X100076000Y-96469200D03*
X80670400Y-37439600D03*
X118059200Y-79146400D03*
X101041200Y-131318000D03*
X95910400Y-77927200D03*
X117144800Y-21234400D03*
X97129600Y-55727600D03*
X97332800Y-100482400D03*
X129692400Y-167182800D03*
X91846400Y-46380400D03*
X47701200Y-61874400D03*
X99872800Y-100533200D03*
X110337600Y-56743600D03*
X61264800Y-157937200D03*
X76708000Y-143002000D03*
X109158771Y-49982635D03*
X92025000Y-75184000D03*
X95214500Y-46771185D03*
X89103200Y-155498800D03*
X46278800Y-113182400D03*
X102158800Y-46888400D03*
X68732400Y-37185600D03*
X75692000Y-63855600D03*
X88900000Y-48971200D03*
X116687600Y-56235600D03*
X80162400Y-65735200D03*
X104190800Y-79400400D03*
D27*
X67411600Y-40792400D03*
X124764800Y-52222400D03*
X75742800Y-75590400D03*
X124510800Y-40436800D03*
X73964800Y-76657200D03*
D28*
X66090800Y-116789200D03*
D27*
X106832400Y-48260000D03*
X126644400Y-28600400D03*
D28*
X75082400Y-32359600D03*
D27*
X123647200Y-108559600D03*
X116281200Y-108712000D03*
X108845602Y-79931401D03*
X113334800Y-108864400D03*
X106426000Y-108762800D03*
X107086400Y-108204000D03*
X113334800Y-107899200D03*
X116332000Y-107797600D03*
X142544800Y-115519200D03*
X109373415Y-80043100D03*
X123748800Y-57810400D03*
X130708400Y-58877200D03*
X122986800Y-52882800D03*
X124002800Y-57150000D03*
X113233200Y-50749200D03*
X131521200Y-58826400D03*
X110591600Y-53492400D03*
X122529600Y-52273200D03*
X110591600Y-79654400D03*
X76758800Y-139700000D03*
X113030000Y-82854800D03*
X97434400Y-139446000D03*
X113748039Y-84032057D03*
X109884853Y-79689500D03*
X113233200Y-83870800D03*
X112420400Y-82550000D03*
X63652400Y-83616800D03*
X132334000Y-82600800D03*
X107238800Y-110439200D03*
X116128800Y-109880400D03*
X111353600Y-79705200D03*
X113792000Y-82550000D03*
X113284000Y-109829600D03*
X127558800Y-109220000D03*
X111607600Y-75946000D03*
X117703600Y-50241200D03*
X116789200Y-42875200D03*
X104038400Y-75946000D03*
X113639600Y-52425600D03*
X132029200Y-43230800D03*
X102870000Y-80010000D03*
X113861934Y-83343666D03*
X109726030Y-83159764D03*
X134620000Y-81940400D03*
X83718400Y-44500800D03*
X83820000Y-40995600D03*
X66090800Y-48361600D03*
X66243200Y-80314800D03*
X131876800Y-26466800D03*
X108686600Y-113665000D03*
X95046800Y-44805600D03*
X113792000Y-110845600D03*
X146304000Y-112776000D03*
X136702800Y-110794800D03*
X116027200Y-110845600D03*
X96570800Y-39827200D03*
D28*
X102819200Y-167436800D03*
X99822000Y-167741600D03*
X93675200Y-167690800D03*
X97129600Y-167690800D03*
D27*
X106172000Y-47853600D03*
X120548400Y-21082000D03*
X122377200Y-37998400D03*
X105664000Y-47447200D03*
X119430800Y-21132800D03*
X121107200Y-37033200D03*
X103581200Y-47498000D03*
X117856000Y-36068000D03*
X118364000Y-21132800D03*
X116128800Y-21132800D03*
X104648000Y-45466000D03*
X116128800Y-35458400D03*
X119532400Y-58877200D03*
X114046000Y-21132800D03*
X118516400Y-58724800D03*
X112928400Y-21132800D03*
D28*
X53898800Y-56794400D03*
X53949600Y-51816000D03*
X59283600Y-61671200D03*
X58115200Y-61163200D03*
X130759200Y-33223200D03*
X132689600Y-35356800D03*
X49428400Y-49326800D03*
X52984400Y-53797200D03*
X131419600Y-36220400D03*
X129946400Y-34493200D03*
D27*
X120040400Y-45059600D03*
X112268000Y-47091600D03*
X95148400Y-50495200D03*
X113284000Y-49987200D03*
X113334800Y-47396400D03*
X92608400Y-45923200D03*
X103327200Y-41757600D03*
X114350800Y-50088800D03*
X62890400Y-48260000D03*
X111404400Y-57353200D03*
X103327200Y-45008800D03*
D28*
X58521600Y-104597200D03*
X58826400Y-109524800D03*
D27*
X86055200Y-39268400D03*
X86918800Y-50546000D03*
X65138333Y-106466269D03*
X97891600Y-96520000D03*
X65328800Y-48209200D03*
X97739200Y-91338400D03*
X66548000Y-89763600D03*
X98501200Y-96570800D03*
X64668400Y-105562400D03*
X66141600Y-89255600D03*
X98348800Y-90576400D03*
X64312800Y-48260000D03*
X139039600Y-145592800D03*
X113385600Y-115874800D03*
X114909600Y-76454000D03*
X115976400Y-115874800D03*
X111556800Y-116840000D03*
X115620800Y-75946000D03*
X128727200Y-145034000D03*
X141427200Y-132283200D03*
X116027200Y-132283200D03*
X128727200Y-119583200D03*
X64058800Y-145034000D03*
X64058800Y-170434000D03*
X51358800Y-157734000D03*
X76758800Y-157734000D03*
X89458800Y-132334000D03*
X75844400Y-52832000D03*
X130251200Y-163931600D03*
X74980800Y-54051200D03*
X70002400Y-54508400D03*
X86664800Y-90525600D03*
X81584800Y-55778400D03*
X86766400Y-108813600D03*
X83667600Y-90525600D03*
X84785200Y-84886800D03*
X66237900Y-106472203D03*
X66237900Y-93426500D03*
X67614800Y-87223600D03*
X85699600Y-58420000D03*
X68834000Y-86664800D03*
X66700400Y-105613200D03*
X85140800Y-58928000D03*
X84175600Y-85140800D03*
X78333600Y-96621600D03*
X80575814Y-59689252D03*
X94894400Y-96723200D03*
X94742000Y-108864400D03*
X82448400Y-94386400D03*
X82042000Y-60045600D03*
X94183200Y-94437200D03*
X94234000Y-109982000D03*
X81205352Y-60760883D03*
X88950800Y-89763600D03*
X89255600Y-109677200D03*
X82804000Y-89763600D03*
X105650000Y-62175000D03*
X105675000Y-66050000D03*
X106575000Y-66700000D03*
X106500000Y-62225000D03*
X107175000Y-62925000D03*
X107300000Y-67425000D03*
X108050000Y-62275000D03*
X108025000Y-68075000D03*
X107975000Y-69075000D03*
X107300000Y-69750000D03*
X81838800Y-68478400D03*
X70459600Y-106426000D03*
X70408800Y-85090000D03*
X82092800Y-84886800D03*
X71272400Y-106426000D03*
X81076800Y-80822800D03*
X71272400Y-83058000D03*
X81026000Y-69088000D03*
X69900800Y-107035600D03*
X69748400Y-85902800D03*
X82346800Y-69443600D03*
X82296000Y-85953600D03*
X72085200Y-83058000D03*
X72136000Y-106375200D03*
X80924400Y-82397600D03*
X81026000Y-69951600D03*
X102311200Y-95656400D03*
X78943200Y-95758000D03*
X80619600Y-70408800D03*
X102260400Y-109931200D03*
X86475000Y-56650000D03*
X86200000Y-72375000D03*
X100075000Y-56625000D03*
X100000000Y-59300000D03*
X76403200Y-75488800D03*
X102450000Y-70425000D03*
X85700000Y-73400000D03*
X102450000Y-59450000D03*
X85775000Y-70575000D03*
X86925000Y-71200000D03*
X86750000Y-73825000D03*
X101650000Y-71125000D03*
X80772000Y-98247200D03*
X91186000Y-98247200D03*
X81764999Y-76236976D03*
X91236800Y-109728000D03*
X80619600Y-76809600D03*
X90728800Y-99009200D03*
X90779600Y-108864400D03*
X79603600Y-99161600D03*
X80213200Y-100076000D03*
X90170000Y-100177600D03*
X80933134Y-77264332D03*
X90271600Y-109728000D03*
X81381600Y-79603600D03*
X80365600Y-97282000D03*
X88798400Y-97434400D03*
X88798400Y-108864400D03*
X84734400Y-108813600D03*
X85902800Y-84582000D03*
X81788000Y-51460400D03*
X85344000Y-75946000D03*
X61366400Y-58267600D03*
X88036400Y-84074000D03*
X88290400Y-95046800D03*
X88036400Y-75895200D03*
X92252800Y-109778800D03*
X92354400Y-95097600D03*
X88747600Y-76149200D03*
X89560400Y-93624400D03*
X87325200Y-93624400D03*
X87274400Y-109829600D03*
X91795600Y-108915200D03*
X90728800Y-79756000D03*
X91135200Y-83312000D03*
X86360000Y-91643200D03*
X86207600Y-109778800D03*
X92049600Y-91592400D03*
X91694000Y-80111600D03*
X92303600Y-37084000D03*
X77114400Y-37084000D03*
X80111600Y-105664000D03*
X92151200Y-82702400D03*
X80264000Y-109626400D03*
X93000000Y-63975000D03*
X101600000Y-59425000D03*
X101675000Y-63950000D03*
X92675000Y-80111600D03*
X93125000Y-83875000D03*
X106650000Y-74925000D03*
X107825000Y-83550000D03*
X105700000Y-74875000D03*
X107150000Y-84025000D03*
X93725000Y-84400000D03*
X106425000Y-83600000D03*
X104850000Y-74750000D03*
X94225000Y-83675000D03*
X95000000Y-84875000D03*
X104050000Y-74700000D03*
X105700000Y-84375000D03*
X94700000Y-65425000D03*
X95225000Y-79750000D03*
X104925000Y-65425000D03*
X105125000Y-62950000D03*
X102975000Y-79000000D03*
X96062800Y-79806800D03*
X103175000Y-74650000D03*
X96725000Y-83675000D03*
X96774000Y-79806800D03*
X96225000Y-58925000D03*
X93625000Y-58900000D03*
X95100000Y-58250000D03*
X97675000Y-79850000D03*
X97400000Y-58700000D03*
X98348800Y-80060800D03*
X95950000Y-59600000D03*
X97875000Y-59300000D03*
X100200000Y-85825000D03*
X99425000Y-62875000D03*
X100000000Y-77025000D03*
X100899650Y-85675103D03*
X101417399Y-85523450D03*
X95975000Y-75825000D03*
X100725000Y-75900000D03*
X101600000Y-86250000D03*
X101225000Y-74700000D03*
X95250000Y-74125000D03*
X93600000Y-74625000D03*
X101825000Y-75400000D03*
X102100000Y-87025000D03*
X93650000Y-76500000D03*
X102175000Y-76500000D03*
X102505557Y-86288447D03*
X88341200Y-105664000D03*
X103225600Y-86563200D03*
X88239600Y-109677200D03*
X103124000Y-105664000D03*
X92760800Y-108915200D03*
X92760800Y-92100400D03*
X106883200Y-91795600D03*
X106883200Y-84836000D03*
X107848400Y-93573600D03*
X107848400Y-84175600D03*
X93472000Y-93624400D03*
X93268800Y-109728000D03*
X90373200Y-79248000D03*
X91225000Y-74650000D03*
X90425000Y-73761600D03*
X90678000Y-78130400D03*
X88825000Y-75438000D03*
X114401600Y-76911200D03*
X88825000Y-62150000D03*
X109950000Y-64550000D03*
X88775000Y-64550000D03*
X110150000Y-74450000D03*
X90450000Y-63425000D03*
X110475000Y-63475000D03*
X110725000Y-73850000D03*
X111250000Y-70425000D03*
X120634300Y-66900000D03*
X103500000Y-70425000D03*
X111225000Y-66925000D03*
X115675000Y-58625000D03*
X111252000Y-58318400D03*
X103375000Y-58525000D03*
X115625000Y-64825000D03*
X103875000Y-59200000D03*
X111302800Y-59385200D03*
X115125000Y-59385200D03*
X115125000Y-64275000D03*
X93843300Y-102260400D03*
X93726000Y-108864400D03*
X122428000Y-63804800D03*
X113690400Y-102108000D03*
X95351600Y-102514400D03*
X95250000Y-109931200D03*
X113741200Y-102920800D03*
X123139200Y-63398400D03*
X109450000Y-74500000D03*
X100800000Y-73975000D03*
X109550000Y-62800000D03*
X83718400Y-103936800D03*
X124053600Y-59486800D03*
X112776000Y-103835200D03*
X83769200Y-108813600D03*
X122869500Y-58623200D03*
X82753200Y-104749600D03*
X82753200Y-108813600D03*
X112725200Y-104749600D03*
X113080800Y-100330000D03*
X111225000Y-48775000D03*
X87782400Y-108864400D03*
X87833200Y-101193600D03*
X120396000Y-69189600D03*
X110998000Y-46278800D03*
X129336800Y-42062400D03*
X96977200Y-89408000D03*
X113538000Y-88900000D03*
X96926400Y-96469200D03*
X126898400Y-69240400D03*
X114350800Y-42468800D03*
X130251200Y-40995600D03*
X113334800Y-42773600D03*
X108610400Y-47447200D03*
X89763600Y-108864400D03*
X113131600Y-101549200D03*
X89814400Y-101752400D03*
X108050000Y-48650000D03*
X90017600Y-48514000D03*
X107746800Y-53492400D03*
X89001600Y-45415200D03*
X59944000Y-59131200D03*
X107289600Y-54965600D03*
X91490800Y-53441600D03*
X104300000Y-62950000D03*
X104775000Y-54000000D03*
X91300000Y-62875000D03*
X104325000Y-54425000D03*
X92825000Y-62350000D03*
X104050000Y-62325000D03*
X112522000Y-92913200D03*
X83210400Y-92913200D03*
X83210400Y-109677200D03*
X102325000Y-48550000D03*
X131267200Y-159867600D03*
X131927600Y-160985200D03*
X132638800Y-158902400D03*
X112674400Y-102920800D03*
X84277200Y-102920800D03*
X98525000Y-47975000D03*
X84277200Y-109728000D03*
X97775000Y-47875000D03*
X74269600Y-102920800D03*
X82245200Y-102920800D03*
X82255500Y-109677200D03*
X100800000Y-58750000D03*
X95525000Y-49275000D03*
X101750000Y-49750000D03*
X133400800Y-162001200D03*
X85242400Y-109728000D03*
X87050000Y-47990700D03*
X75895200Y-101904800D03*
X85242400Y-101854000D03*
X85852000Y-100939600D03*
X77165200Y-100990400D03*
X85750400Y-108813600D03*
X86575000Y-48825000D03*
X99200000Y-58675000D03*
X99200000Y-48700000D03*
X91275000Y-48750000D03*
X98275000Y-53975000D03*
X100027443Y-70822738D03*
X87630000Y-49276000D03*
X87477600Y-40233600D03*
X86918800Y-38811200D03*
X87172800Y-49936400D03*
X86563200Y-84937600D03*
X87731600Y-84785200D03*
D28*
X70104000Y-81838800D03*
X75590400Y-58216800D03*
X135686800Y-79451200D03*
X136448800Y-105714800D03*
X109075000Y-153700000D03*
X117525000Y-157800000D03*
X104394000Y-158496000D03*
X118175000Y-161544000D03*
X127475000Y-175225000D03*
D29*
X110134400Y-90678000D02*
X110134400Y-96316800D01*
X99618800Y-144068800D02*
X99618800Y-154940000D01*
X112014000Y-88798400D02*
X110134400Y-90678000D01*
X100975000Y-156296200D02*
X100975000Y-159350000D01*
X112014000Y-86106000D02*
X112014000Y-88798400D01*
X110693200Y-84785200D02*
X112014000Y-86106000D01*
X110083600Y-133604000D02*
X99618800Y-144068800D01*
X110134400Y-96316800D02*
X110083600Y-96367600D01*
X99618800Y-154940000D02*
X100975000Y-156296200D01*
X110083600Y-96367600D02*
X110083600Y-133604000D01*
D30*
X57150000Y-65684400D02*
X57150000Y-66675000D01*
X68173600Y-41554400D02*
X68173600Y-54660800D01*
X68173600Y-54660800D02*
X57150000Y-65684400D01*
X124764800Y-40690800D02*
X124510800Y-40436800D01*
X124764800Y-52222400D02*
X124764800Y-40690800D01*
X67411600Y-40792400D02*
X68173600Y-41554400D01*
D31*
X111861600Y-70764400D02*
X111861600Y-65532000D01*
X111607600Y-71018400D02*
X111861600Y-70764400D01*
X111912400Y-54000400D02*
X113487200Y-52425600D01*
X112115600Y-58978800D02*
X111912400Y-58775600D01*
X117703600Y-50241200D02*
X117703600Y-43789600D01*
X113487200Y-52425600D02*
X113639600Y-52425600D01*
X111861600Y-65532000D02*
X111861600Y-59232800D01*
X104038400Y-78536800D02*
X104038400Y-75946000D01*
X111607600Y-75946000D02*
X111607600Y-71018400D01*
X103581200Y-78994000D02*
X104038400Y-78536800D01*
X102870000Y-79705200D02*
X103581200Y-78994000D01*
X111861600Y-59232800D02*
X112115600Y-58978800D01*
X111912400Y-58775600D02*
X111912400Y-54000400D01*
X117703600Y-43789600D02*
X116789200Y-42875200D01*
X102870000Y-80010000D02*
X102870000Y-79705200D01*
X122518400Y-27468400D02*
X122118400Y-27468400D01*
X120548400Y-21082000D02*
X120548400Y-23977600D01*
X122456241Y-34275600D02*
X122118400Y-34275600D01*
X122377200Y-36220400D02*
X122377200Y-37998400D01*
X122118400Y-33675600D02*
X122456241Y-33675600D01*
X122118400Y-26868400D02*
X122518400Y-26868400D01*
X122118400Y-27468400D02*
X121593400Y-27468400D01*
X121818400Y-28443400D02*
X121818400Y-33375600D01*
X121818400Y-35661600D02*
X122377200Y-36220400D01*
X121818400Y-34575600D02*
X121818400Y-35661600D01*
X121368400Y-27693400D02*
X121368400Y-27843400D01*
X121818400Y-28293400D02*
X121818400Y-28443400D01*
X120548400Y-23977600D02*
X121818400Y-25247600D01*
X121818400Y-25247600D02*
X121818400Y-26568400D01*
X122518400Y-27468400D02*
G75*
G03*
X122818400Y-27168400I0J300000D01*
G01*
X122118400Y-34275600D02*
G75*
G03*
X121818400Y-34575600I0J-300000D01*
G01*
X122456241Y-34275641D02*
G75*
G03*
X122756241Y-33975600I-41J300041D01*
G01*
X121368400Y-27843400D02*
G75*
G03*
X121593400Y-28068400I225000J0D01*
G01*
X121818400Y-26568400D02*
G75*
G03*
X122118400Y-26868400I300000J0D01*
G01*
X121818400Y-28293400D02*
G75*
G03*
X121593400Y-28068400I-225000J0D01*
G01*
X121593400Y-27468400D02*
G75*
G03*
X121368400Y-27693400I0J-225000D01*
G01*
X122818400Y-27168400D02*
G75*
G03*
X122518400Y-26868400I-300000J0D01*
G01*
X121818400Y-33375600D02*
G75*
G03*
X122118400Y-33675600I300000J0D01*
G01*
X122756200Y-33975600D02*
G75*
G03*
X122456241Y-33675600I-300000J0D01*
G01*
X120465634Y-30838200D02*
X121107200Y-30838200D01*
X121289114Y-30238200D02*
X120465634Y-30238200D01*
X121289115Y-30238200D02*
X121289114Y-30238200D01*
X119430800Y-21132800D02*
X119430800Y-23876000D01*
X121471029Y-32220114D02*
X121471029Y-32456286D01*
X121107200Y-32820114D02*
X121107200Y-33013200D01*
X121471029Y-29777028D02*
X121471029Y-30056286D01*
X121482800Y-31026000D02*
X121482800Y-31250400D01*
X121107200Y-31438200D02*
X120465634Y-31438200D01*
X121289114Y-29595114D02*
X121289115Y-29595114D01*
X121107200Y-25552400D02*
X121107200Y-29413200D01*
X121289115Y-32638200D02*
X121289114Y-32638200D01*
X121107200Y-30838200D02*
X121295000Y-30838200D01*
X121107200Y-32038200D02*
X121289115Y-32038200D01*
X119430800Y-23876000D02*
X121107200Y-25552400D01*
X120465634Y-32038200D02*
X121107200Y-32038200D01*
X121295000Y-31438200D02*
X121107200Y-31438200D01*
X121107200Y-33013200D02*
X121107200Y-37033200D01*
X120165600Y-30538200D02*
G75*
G03*
X120465634Y-30838200I300000J0D01*
G01*
X121295000Y-31438200D02*
G75*
G03*
X121482800Y-31250400I0J187800D01*
G01*
X121482800Y-31026000D02*
G75*
G03*
X121295000Y-30838200I-187800J0D01*
G01*
X120465634Y-30238234D02*
G75*
G03*
X120165634Y-30538200I-34J-299966D01*
G01*
X121107186Y-29413200D02*
G75*
G03*
X121289114Y-29595114I181914J0D01*
G01*
X121289114Y-32638200D02*
G75*
G03*
X121107200Y-32820114I-14J-181900D01*
G01*
X120465634Y-31438234D02*
G75*
G03*
X120165634Y-31738200I-34J-299966D01*
G01*
X121289115Y-32638229D02*
G75*
G03*
X121471029Y-32456286I-15J181929D01*
G01*
X120165600Y-31738200D02*
G75*
G03*
X120465634Y-32038200I300000J0D01*
G01*
X121471000Y-32220114D02*
G75*
G03*
X121289115Y-32038200I-181900J14D01*
G01*
X121289115Y-30238229D02*
G75*
G03*
X121471029Y-30056286I-15J181929D01*
G01*
X121470986Y-29777028D02*
G75*
G03*
X121289115Y-29595114I-181886J28D01*
G01*
X117856000Y-32860800D02*
X117856000Y-34861846D01*
X117856000Y-31960800D02*
X117295966Y-31960800D01*
X117295979Y-31360800D02*
X117856000Y-31360800D01*
X117856000Y-34861846D02*
X117856000Y-36068000D01*
X117556000Y-30160800D02*
X118416021Y-30160800D01*
X117556000Y-29560800D02*
X117295966Y-29560800D01*
X118364000Y-21132800D02*
X117856000Y-21640800D01*
X118416021Y-30760800D02*
X117856000Y-30760800D01*
X117295966Y-30160800D02*
X117556000Y-30160800D01*
X117856000Y-21640800D02*
X117856000Y-29260800D01*
X117856000Y-31360800D02*
X118416008Y-31360800D01*
X117856000Y-30760800D02*
X117295979Y-30760800D01*
X118416008Y-31960800D02*
X117856000Y-31960800D01*
X117295966Y-32560800D02*
X117556000Y-32560800D01*
X117295979Y-30760779D02*
G75*
G03*
X116995979Y-31060800I21J-300021D01*
G01*
X118716000Y-30460800D02*
G75*
G03*
X118416021Y-30160800I-300000J0D01*
G01*
X117295966Y-31960766D02*
G75*
G03*
X116995966Y-32260800I34J-300034D01*
G01*
X118416021Y-30760821D02*
G75*
G03*
X118716021Y-30460800I-21J300021D01*
G01*
X117556000Y-29560800D02*
G75*
G03*
X117856000Y-29260800I0J300000D01*
G01*
X118416008Y-31960808D02*
G75*
G03*
X118716008Y-31660800I-8J300008D01*
G01*
X118716000Y-31660800D02*
G75*
G03*
X118416008Y-31360800I-300000J0D01*
G01*
X116996000Y-31060800D02*
G75*
G03*
X117295979Y-31360800I300000J0D01*
G01*
X117295966Y-29560766D02*
G75*
G03*
X116995966Y-29860800I34J-300034D01*
G01*
X116996000Y-29860800D02*
G75*
G03*
X117295966Y-30160800I300000J0D01*
G01*
X116996000Y-32260800D02*
G75*
G03*
X117295966Y-32560800I300000J0D01*
G01*
X117856000Y-32860800D02*
G75*
G03*
X117556000Y-32560800I-300000J0D01*
G01*
X116731695Y-28741200D02*
X116428800Y-28741200D01*
X115525879Y-25741200D02*
X115828800Y-25741200D01*
X116128800Y-32756162D02*
X116128800Y-35458400D01*
X115828800Y-25141200D02*
X115525879Y-25141200D01*
X116128800Y-21132800D02*
X116128800Y-24841200D01*
X116128800Y-27541200D02*
X115525879Y-27541200D01*
X116128800Y-26341200D02*
X115525879Y-26341200D01*
X116128800Y-26941200D02*
X116731695Y-26941200D01*
X116731695Y-27541200D02*
X116128800Y-27541200D01*
X116128800Y-29041200D02*
X116128800Y-32756162D01*
X116128800Y-28141200D02*
X116731695Y-28141200D01*
X115525879Y-28141200D02*
X116128800Y-28141200D01*
X116731695Y-26341200D02*
X116128800Y-26341200D01*
X115828800Y-25741200D02*
X116731695Y-25741200D01*
X115525879Y-26941200D02*
X116128800Y-26941200D01*
X115225900Y-25441200D02*
G75*
G03*
X115525879Y-25741200I300000J0D01*
G01*
X115225900Y-27841200D02*
G75*
G03*
X115525879Y-28141200I300000J0D01*
G01*
X116428800Y-28741200D02*
G75*
G03*
X116128800Y-29041200I0J-300000D01*
G01*
X115225900Y-26641200D02*
G75*
G03*
X115525879Y-26941200I300000J0D01*
G01*
X115525879Y-27541179D02*
G75*
G03*
X115225879Y-27841200I21J-300021D01*
G01*
X116731695Y-28741195D02*
G75*
G03*
X117031695Y-28441200I5J299995D01*
G01*
X115525879Y-26341179D02*
G75*
G03*
X115225879Y-26641200I21J-300021D01*
G01*
X117031700Y-26041200D02*
G75*
G03*
X116731695Y-25741200I-300000J0D01*
G01*
X116731695Y-27541195D02*
G75*
G03*
X117031695Y-27241200I5J299995D01*
G01*
X117031700Y-27241200D02*
G75*
G03*
X116731695Y-26941200I-300000J0D01*
G01*
X116731695Y-26341195D02*
G75*
G03*
X117031695Y-26041200I5J299995D01*
G01*
X115525879Y-25141179D02*
G75*
G03*
X115225879Y-25441200I21J-300021D01*
G01*
X117031700Y-28441200D02*
G75*
G03*
X116731695Y-28141200I-300000J0D01*
G01*
X115828800Y-25141200D02*
G75*
G03*
X116128800Y-24841200I0J300000D01*
G01*
X119532400Y-42672000D02*
X114046000Y-37185600D01*
X119532400Y-58877200D02*
X119532400Y-42672000D01*
X114046000Y-37185600D02*
X114046000Y-21132800D01*
X118516400Y-43129200D02*
X118516400Y-58724800D01*
X112628400Y-25242800D02*
X112361175Y-25242800D01*
X112928400Y-37541200D02*
X118516400Y-43129200D01*
X112928400Y-30111005D02*
X112928400Y-37541200D01*
X112361175Y-25842800D02*
X112628400Y-25842800D01*
X112928400Y-26142800D02*
X112928400Y-30111005D01*
X112928400Y-21132800D02*
X112928400Y-24942800D01*
X112061200Y-25542800D02*
G75*
G03*
X112361175Y-25842800I300000J0D01*
G01*
X112628400Y-25242800D02*
G75*
G03*
X112928400Y-24942800I0J300000D01*
G01*
X112928400Y-26142800D02*
G75*
G03*
X112628400Y-25842800I-300000J0D01*
G01*
X112361175Y-25242775D02*
G75*
G03*
X112061175Y-25542800I25J-300025D01*
G01*
X86715600Y-49237641D02*
X87528400Y-48424841D01*
X86715600Y-50342800D02*
X86715600Y-49428400D01*
X87528400Y-47396400D02*
X87528400Y-43180000D01*
X86055200Y-41706800D02*
X86055200Y-39268400D01*
X87528400Y-43180000D02*
X86664800Y-42316400D01*
X86918800Y-50546000D02*
X86715600Y-50342800D01*
X87528400Y-48424841D02*
X87528400Y-47396400D01*
X86664800Y-42316400D02*
X86055200Y-41706800D01*
X86715600Y-49428400D02*
X86715600Y-49237641D01*
X105800000Y-62325000D02*
X105650000Y-62175000D01*
X105675000Y-66050000D02*
X105675000Y-63225000D01*
X105800000Y-63100000D02*
X105800000Y-62325000D01*
X105675000Y-63225000D02*
X105800000Y-63100000D01*
X106575000Y-66700000D02*
X106575000Y-62300000D01*
X106575000Y-62300000D02*
X106500000Y-62225000D01*
X107300000Y-67425000D02*
X107300000Y-63050000D01*
X107300000Y-63050000D02*
X107175000Y-62925000D01*
X108025000Y-68075000D02*
X108025000Y-62300000D01*
X108025000Y-62300000D02*
X108050000Y-62275000D01*
X100000000Y-59300000D02*
X100000000Y-56700000D01*
X100000000Y-56700000D02*
X100075000Y-56625000D01*
X86475000Y-72100000D02*
X86200000Y-72375000D01*
X86475000Y-56650000D02*
X86475000Y-72100000D01*
X102450000Y-59450000D02*
X102450000Y-70425000D01*
X85775000Y-70575000D02*
X85775000Y-73325000D01*
X85775000Y-73325000D02*
X85700000Y-73400000D01*
X86925000Y-73650000D02*
X86750000Y-73825000D01*
X86925000Y-71200000D02*
X86925000Y-73650000D01*
X85750400Y-61518800D02*
X85750400Y-59131200D01*
X85090000Y-74117200D02*
X85090000Y-62179200D01*
X82042000Y-51206400D02*
X81788000Y-51460400D01*
X85242400Y-52578000D02*
X83870800Y-51206400D01*
X86207600Y-58674000D02*
X86207600Y-57759600D01*
X85344000Y-74371200D02*
X85090000Y-74117200D01*
X85344000Y-75946000D02*
X85344000Y-74371200D01*
X85090000Y-62179200D02*
X85750400Y-61518800D01*
X85242400Y-56794400D02*
X85242400Y-52578000D01*
X86207600Y-57759600D02*
X85242400Y-56794400D01*
X83870800Y-51206400D02*
X82042000Y-51206400D01*
X85750400Y-59131200D02*
X86207600Y-58674000D01*
X88036400Y-75895200D02*
X88036400Y-76911200D01*
X88036400Y-80211200D02*
X88736400Y-80211200D01*
X88736400Y-79611200D02*
X88036400Y-79611200D01*
X88736400Y-78411200D02*
X88036400Y-78411200D01*
X87336400Y-81411200D02*
X88036400Y-81411200D01*
X88736400Y-82011200D02*
X88036400Y-82011200D01*
X88036400Y-78411200D02*
X87336400Y-78411200D01*
X88736400Y-80811200D02*
X88036400Y-80811200D01*
X88036400Y-80811200D02*
X87336400Y-80811200D01*
X87736400Y-77811200D02*
X88736400Y-77811200D01*
X87336400Y-77811200D02*
X87736400Y-77811200D01*
X88036400Y-82011200D02*
X87336400Y-82011200D01*
X88036400Y-82911200D02*
X88036400Y-83219756D01*
X88036400Y-79611200D02*
X87336400Y-79611200D01*
X88036400Y-79011200D02*
X88736400Y-79011200D01*
X87336400Y-79011200D02*
X88036400Y-79011200D01*
X87736400Y-77211200D02*
X87336400Y-77211200D01*
X88036400Y-81411200D02*
X88736400Y-81411200D01*
X87336400Y-82611200D02*
X87736400Y-82611200D01*
X87336400Y-80211200D02*
X88036400Y-80211200D01*
X88036400Y-83219756D02*
X88036400Y-84074000D01*
X87736400Y-77211200D02*
G75*
G03*
X88036400Y-76911200I0J300000D01*
G01*
X87036400Y-77511200D02*
G75*
G03*
X87336400Y-77811200I300000J0D01*
G01*
X87036400Y-79911200D02*
G75*
G03*
X87336400Y-80211200I300000J0D01*
G01*
X87336400Y-82011200D02*
G75*
G03*
X87036400Y-82311200I0J-300000D01*
G01*
X87336400Y-77211200D02*
G75*
G03*
X87036400Y-77511200I0J-300000D01*
G01*
X87336400Y-80811200D02*
G75*
G03*
X87036400Y-81111200I0J-300000D01*
G01*
X88736400Y-82011200D02*
G75*
G03*
X89036400Y-81711200I0J300000D01*
G01*
X87036400Y-82311200D02*
G75*
G03*
X87336400Y-82611200I300000J0D01*
G01*
X88736400Y-79611200D02*
G75*
G03*
X89036400Y-79311200I0J300000D01*
G01*
X88736400Y-80811200D02*
G75*
G03*
X89036400Y-80511200I0J300000D01*
G01*
X87336400Y-79611200D02*
G75*
G03*
X87036400Y-79911200I0J-300000D01*
G01*
X88736400Y-78411200D02*
G75*
G03*
X89036400Y-78111200I0J300000D01*
G01*
X89036400Y-81711200D02*
G75*
G03*
X88736400Y-81411200I-300000J0D01*
G01*
X87036400Y-81111200D02*
G75*
G03*
X87336400Y-81411200I300000J0D01*
G01*
X89036400Y-78111200D02*
G75*
G03*
X88736400Y-77811200I-300000J0D01*
G01*
X88036400Y-82911200D02*
G75*
G03*
X87736400Y-82611200I-300000J0D01*
G01*
X89036400Y-80511200D02*
G75*
G03*
X88736400Y-80211200I-300000J0D01*
G01*
X87036400Y-78711200D02*
G75*
G03*
X87336400Y-79011200I300000J0D01*
G01*
X89036400Y-79311200D02*
G75*
G03*
X88736400Y-79011200I-300000J0D01*
G01*
X87336400Y-78411200D02*
G75*
G03*
X87036400Y-78711200I0J-300000D01*
G01*
X89814400Y-74218800D02*
X89814400Y-64363600D01*
X89814400Y-64363600D02*
X89662000Y-64211200D01*
X89611200Y-79248000D02*
X89611200Y-76098400D01*
X89662000Y-64211200D02*
X89662000Y-56134000D01*
X93014800Y-47040800D02*
X93624400Y-46431200D01*
X93624400Y-38404800D02*
X92303600Y-37084000D01*
X91440000Y-80365600D02*
X90474800Y-80365600D01*
X93014800Y-53187600D02*
X93014800Y-47040800D01*
X89611200Y-76098400D02*
X90068400Y-75641200D01*
X90474800Y-80365600D02*
X89611200Y-79502000D01*
X90068400Y-75641200D02*
X90068400Y-74472800D01*
X93624400Y-46431200D02*
X93624400Y-38404800D01*
X91694000Y-80111600D02*
X91440000Y-80365600D01*
X90068400Y-74472800D02*
X89814400Y-74218800D01*
X89662000Y-56134000D02*
X90728800Y-55067200D01*
X90728800Y-55067200D02*
X91135200Y-55067200D01*
X89611200Y-79502000D02*
X89611200Y-79248000D01*
X91135200Y-55067200D02*
X93014800Y-53187600D01*
X92151200Y-82702400D02*
X92151200Y-89357200D01*
X88849200Y-102565200D02*
X85547200Y-105867200D01*
X88849200Y-99466400D02*
X88849200Y-102565200D01*
X80314800Y-105867200D02*
X80111600Y-105664000D01*
X90170000Y-98145600D02*
X88849200Y-99466400D01*
X85547200Y-105867200D02*
X80314800Y-105867200D01*
X90170000Y-91338400D02*
X90170000Y-98145600D01*
X92151200Y-89357200D02*
X90170000Y-91338400D01*
X92850725Y-65950000D02*
X92850726Y-65950000D01*
X93000000Y-71950000D02*
X93149279Y-71950000D01*
X92850622Y-68350000D02*
X93000000Y-68350000D01*
X101675000Y-59500000D02*
X101600000Y-59425000D01*
X93149378Y-71350000D02*
X93000000Y-71350000D01*
X92850631Y-70750000D02*
X93000000Y-70750000D01*
X93149378Y-67750000D02*
X93000000Y-67750000D01*
X93000000Y-70750000D02*
X93149378Y-70750000D01*
X92725000Y-74775000D02*
X92725000Y-80061600D01*
X93149369Y-68950000D02*
X93000000Y-68950000D01*
X93000000Y-63975000D02*
X93000000Y-65200000D01*
X101675000Y-63950000D02*
X101675000Y-59500000D01*
X92850622Y-67150000D02*
X93000000Y-67150000D01*
X93149378Y-66550000D02*
X93000000Y-66550000D01*
X93298755Y-70899377D02*
X93298755Y-71200623D01*
X92850622Y-69550000D02*
X93000000Y-69550000D01*
X93298557Y-72099278D02*
X93298557Y-72400722D01*
X93000000Y-69550000D02*
X93149378Y-69550000D01*
X93298737Y-68499368D02*
X93298737Y-68800632D01*
X93000000Y-68350000D02*
X93149369Y-68350000D01*
X93000000Y-72699278D02*
X93000000Y-73000000D01*
X92701451Y-65498548D02*
X92701451Y-65800726D01*
X93000000Y-70150000D02*
X92850631Y-70150000D01*
X92701245Y-69099377D02*
X92701245Y-69400623D01*
X93000000Y-74500000D02*
X92725000Y-74775000D01*
X92850726Y-65950000D02*
X93149378Y-65950000D01*
X93298755Y-69699377D02*
X93298755Y-70000623D01*
X93000000Y-67150000D02*
X93149378Y-67150000D01*
X93149378Y-70150000D02*
X93000000Y-70150000D01*
X92701245Y-66699377D02*
X92701245Y-67000623D01*
X93298755Y-67299377D02*
X93298755Y-67600623D01*
X93000000Y-68950000D02*
X92850622Y-68950000D01*
X92701245Y-71499377D02*
X92701245Y-71800623D01*
X93149279Y-72550000D02*
X93149278Y-72550000D01*
X92701263Y-70299368D02*
X92701263Y-70600632D01*
X93000000Y-67750000D02*
X92850622Y-67750000D01*
X92850622Y-71950000D02*
X93000000Y-71950000D01*
X92725000Y-80061600D02*
X92675000Y-80111600D01*
X92701245Y-67899377D02*
X92701245Y-68200623D01*
X93000000Y-71350000D02*
X92850622Y-71350000D01*
X93000000Y-73000000D02*
X93000000Y-74500000D01*
X93298755Y-66099377D02*
X93298755Y-66400623D01*
X93000000Y-66550000D02*
X92850622Y-66550000D01*
X92850726Y-65349274D02*
X92850725Y-65349274D01*
X93149278Y-72550000D02*
G75*
G03*
X93000000Y-72699278I22J-149300D01*
G01*
X93298800Y-66099377D02*
G75*
G03*
X93149378Y-65950000I-149400J-23D01*
G01*
X93298800Y-68499368D02*
G75*
G03*
X93149369Y-68350000I-149400J-32D01*
G01*
X92850622Y-71350045D02*
G75*
G03*
X92701245Y-71499377I-22J-149355D01*
G01*
X92701200Y-71800623D02*
G75*
G03*
X92850622Y-71950000I149400J23D01*
G01*
X92850725Y-65349251D02*
G75*
G03*
X92701451Y-65498548I-25J-149249D01*
G01*
X92701200Y-67000623D02*
G75*
G03*
X92850622Y-67150000I149400J23D01*
G01*
X92850622Y-67750045D02*
G75*
G03*
X92701245Y-67899377I-22J-149355D01*
G01*
X92701200Y-68200623D02*
G75*
G03*
X92850622Y-68350000I149400J23D01*
G01*
X92850622Y-66550045D02*
G75*
G03*
X92701245Y-66699377I-22J-149355D01*
G01*
X93149378Y-67749955D02*
G75*
G03*
X93298755Y-67600623I22J149355D01*
G01*
X92850622Y-68950045D02*
G75*
G03*
X92701245Y-69099377I-22J-149355D01*
G01*
X93298800Y-69699377D02*
G75*
G03*
X93149378Y-69550000I-149400J-23D01*
G01*
X93149369Y-68949937D02*
G75*
G03*
X93298737Y-68800632I31J149337D01*
G01*
X93149378Y-66549955D02*
G75*
G03*
X93298755Y-66400623I22J149355D01*
G01*
X92850631Y-70150063D02*
G75*
G03*
X92701263Y-70299368I-31J-149337D01*
G01*
X93149378Y-70149955D02*
G75*
G03*
X93298755Y-70000623I22J149355D01*
G01*
X93298600Y-72099278D02*
G75*
G03*
X93149279Y-71950000I-149300J-22D01*
G01*
X93298800Y-67299377D02*
G75*
G03*
X93149378Y-67150000I-149400J-23D01*
G01*
X93149279Y-72549957D02*
G75*
G03*
X93298557Y-72400722I21J149257D01*
G01*
X92701400Y-65800726D02*
G75*
G03*
X92850725Y-65950000I149300J26D01*
G01*
X93149378Y-71349955D02*
G75*
G03*
X93298755Y-71200623I22J149355D01*
G01*
X92850726Y-65349300D02*
G75*
G03*
X93000000Y-65200000I-26J149300D01*
G01*
X93298800Y-70899377D02*
G75*
G03*
X93149378Y-70750000I-149400J-23D01*
G01*
X92701200Y-69400623D02*
G75*
G03*
X92850622Y-69550000I149400J23D01*
G01*
X92701200Y-70600632D02*
G75*
G03*
X92850631Y-70750000I149400J32D01*
G01*
X107825000Y-78575000D02*
X107825000Y-78875000D01*
X107825000Y-79775000D02*
X107825000Y-80075000D01*
X107825000Y-77375000D02*
X107825000Y-77675000D01*
X108125000Y-76775000D02*
X108125000Y-77075000D01*
X107825000Y-80975000D02*
X107825000Y-81275000D01*
X106650000Y-74925000D02*
X107825000Y-76100000D01*
X108125000Y-80375000D02*
X108125000Y-80675000D01*
X107825000Y-82175000D02*
X107825000Y-82475000D01*
X108125000Y-79175000D02*
X108125000Y-79475000D01*
X108125000Y-81575000D02*
X108125000Y-81875000D01*
X107825000Y-82475000D02*
X107825000Y-83550000D01*
X108125000Y-77975000D02*
X108125000Y-78275000D01*
X107825000Y-76100000D02*
X107825000Y-76475000D01*
X107975000Y-82025000D02*
G75*
G03*
X108125000Y-81875000I0J150000D01*
G01*
X107975000Y-77225000D02*
G75*
G03*
X108125000Y-77075000I0J150000D01*
G01*
X107825000Y-78875000D02*
G75*
G03*
X107975000Y-79025000I150000J0D01*
G01*
X107975000Y-82025000D02*
G75*
G03*
X107825000Y-82175000I0J-150000D01*
G01*
X108125000Y-77975000D02*
G75*
G03*
X107975000Y-77825000I-150000J0D01*
G01*
X107975000Y-78425000D02*
G75*
G03*
X108125000Y-78275000I0J150000D01*
G01*
X107975000Y-77225000D02*
G75*
G03*
X107825000Y-77375000I0J-150000D01*
G01*
X108125000Y-79175000D02*
G75*
G03*
X107975000Y-79025000I-150000J0D01*
G01*
X107975000Y-78425000D02*
G75*
G03*
X107825000Y-78575000I0J-150000D01*
G01*
X107975000Y-80825000D02*
G75*
G03*
X107825000Y-80975000I0J-150000D01*
G01*
X107975000Y-80825000D02*
G75*
G03*
X108125000Y-80675000I0J150000D01*
G01*
X108125000Y-76775000D02*
G75*
G03*
X107975000Y-76625000I-150000J0D01*
G01*
X107825000Y-77675000D02*
G75*
G03*
X107975000Y-77825000I150000J0D01*
G01*
X107825000Y-76475000D02*
G75*
G03*
X107975000Y-76625000I150000J0D01*
G01*
X107975000Y-79625000D02*
G75*
G03*
X107825000Y-79775000I0J-150000D01*
G01*
X108125000Y-81575000D02*
G75*
G03*
X107975000Y-81425000I-150000J0D01*
G01*
X107975000Y-79625000D02*
G75*
G03*
X108125000Y-79475000I0J150000D01*
G01*
X108125000Y-80375000D02*
G75*
G03*
X107975000Y-80225000I-150000J0D01*
G01*
X107825000Y-80075000D02*
G75*
G03*
X107975000Y-80225000I150000J0D01*
G01*
X107825000Y-81275000D02*
G75*
G03*
X107975000Y-81425000I150000J0D01*
G01*
X107450000Y-81875000D02*
X107450000Y-82175000D01*
X107450000Y-77075000D02*
X107450000Y-77375000D01*
X107150000Y-78875000D02*
X107150000Y-79175000D01*
X107450000Y-80675000D02*
X107450000Y-80975000D01*
X107150000Y-82775000D02*
X107150000Y-84025000D01*
X107150000Y-82475000D02*
X107150000Y-82775000D01*
X107150000Y-80075000D02*
X107150000Y-80375000D01*
X105700000Y-74875000D02*
X107150000Y-76325000D01*
X107150000Y-77675000D02*
X107150000Y-77975000D01*
X107450000Y-79475000D02*
X107450000Y-79775000D01*
X107450000Y-78275000D02*
X107450000Y-78575000D01*
X107150000Y-81275000D02*
X107150000Y-81575000D01*
X107150000Y-76325000D02*
X107150000Y-76775000D01*
X107150000Y-80375000D02*
G75*
G03*
X107300000Y-80525000I150000J0D01*
G01*
X107450000Y-77075000D02*
G75*
G03*
X107300000Y-76925000I-150000J0D01*
G01*
X107150000Y-79175000D02*
G75*
G03*
X107300000Y-79325000I150000J0D01*
G01*
X107450000Y-81875000D02*
G75*
G03*
X107300000Y-81725000I-150000J0D01*
G01*
X107300000Y-79925000D02*
G75*
G03*
X107450000Y-79775000I0J150000D01*
G01*
X107300000Y-81125000D02*
G75*
G03*
X107150000Y-81275000I0J-150000D01*
G01*
X107300000Y-82325000D02*
G75*
G03*
X107450000Y-82175000I0J150000D01*
G01*
X107150000Y-77975000D02*
G75*
G03*
X107300000Y-78125000I150000J0D01*
G01*
X107150000Y-76775000D02*
G75*
G03*
X107300000Y-76925000I150000J0D01*
G01*
X107450000Y-80675000D02*
G75*
G03*
X107300000Y-80525000I-150000J0D01*
G01*
X107450000Y-79475000D02*
G75*
G03*
X107300000Y-79325000I-150000J0D01*
G01*
X107450000Y-78275000D02*
G75*
G03*
X107300000Y-78125000I-150000J0D01*
G01*
X107300000Y-78725000D02*
G75*
G03*
X107150000Y-78875000I0J-150000D01*
G01*
X107300000Y-78725000D02*
G75*
G03*
X107450000Y-78575000I0J150000D01*
G01*
X107300000Y-82325000D02*
G75*
G03*
X107150000Y-82475000I0J-150000D01*
G01*
X107300000Y-79925000D02*
G75*
G03*
X107150000Y-80075000I0J-150000D01*
G01*
X107150000Y-81575000D02*
G75*
G03*
X107300000Y-81725000I150000J0D01*
G01*
X107300000Y-77525000D02*
G75*
G03*
X107450000Y-77375000I0J150000D01*
G01*
X107300000Y-77525000D02*
G75*
G03*
X107150000Y-77675000I0J-150000D01*
G01*
X107300000Y-81125000D02*
G75*
G03*
X107450000Y-80975000I0J150000D01*
G01*
X106125000Y-77525000D02*
X106125000Y-77825000D01*
X106425000Y-80375000D02*
X106575000Y-80375000D01*
X106725000Y-80525000D02*
X106725000Y-80825000D01*
X106425000Y-76325000D02*
X106425000Y-76625000D01*
X106575000Y-80975000D02*
X106425000Y-80975000D01*
X106425000Y-77375000D02*
X106275000Y-77375000D01*
X106425000Y-82325000D02*
X106425000Y-82625000D01*
X106425000Y-77975000D02*
X106575000Y-77975000D01*
X106425000Y-78575000D02*
X106275000Y-78575000D01*
X106425000Y-80975000D02*
X106275000Y-80975000D01*
X106575000Y-79775000D02*
X106425000Y-79775000D01*
X106125000Y-81125000D02*
X106125000Y-81425000D01*
X106125000Y-78725000D02*
X106125000Y-79025000D01*
X106275000Y-81575000D02*
X106425000Y-81575000D01*
X106425000Y-79175000D02*
X106575000Y-79175000D01*
X106275000Y-79175000D02*
X106425000Y-79175000D01*
X106425000Y-81575000D02*
X106575000Y-81575000D01*
X106275000Y-77975000D02*
X106425000Y-77975000D01*
X106725000Y-76925000D02*
X106725000Y-77225000D01*
X106125000Y-79925000D02*
X106125000Y-80225000D01*
X106725000Y-81725000D02*
X106725000Y-82025000D01*
X106425000Y-82625000D02*
X106425000Y-83600000D01*
X106725000Y-79325000D02*
X106725000Y-79625000D01*
X104850000Y-74750000D02*
X106425000Y-76325000D01*
X106725000Y-78125000D02*
X106725000Y-78425000D01*
X106575000Y-78575000D02*
X106425000Y-78575000D01*
X106575000Y-77375000D02*
X106425000Y-77375000D01*
X106275000Y-80375000D02*
X106425000Y-80375000D01*
X106425000Y-79775000D02*
X106275000Y-79775000D01*
X106275000Y-80975000D02*
G75*
G03*
X106125000Y-81125000I0J-150000D01*
G01*
X106575000Y-80975000D02*
G75*
G03*
X106725000Y-80825000I0J150000D01*
G01*
X106125000Y-79025000D02*
G75*
G03*
X106275000Y-79175000I150000J0D01*
G01*
X106425000Y-76625000D02*
G75*
G03*
X106575000Y-76775000I150000J0D01*
G01*
X106725000Y-76925000D02*
G75*
G03*
X106575000Y-76775000I-150000J0D01*
G01*
X106725000Y-78125000D02*
G75*
G03*
X106575000Y-77975000I-150000J0D01*
G01*
X106275000Y-77375000D02*
G75*
G03*
X106125000Y-77525000I0J-150000D01*
G01*
X106725000Y-81725000D02*
G75*
G03*
X106575000Y-81575000I-150000J0D01*
G01*
X106575000Y-82175000D02*
G75*
G03*
X106425000Y-82325000I0J-150000D01*
G01*
X106725000Y-79325000D02*
G75*
G03*
X106575000Y-79175000I-150000J0D01*
G01*
X106125000Y-77825000D02*
G75*
G03*
X106275000Y-77975000I150000J0D01*
G01*
X106575000Y-79775000D02*
G75*
G03*
X106725000Y-79625000I0J150000D01*
G01*
X106575000Y-77375000D02*
G75*
G03*
X106725000Y-77225000I0J150000D01*
G01*
X106725000Y-80525000D02*
G75*
G03*
X106575000Y-80375000I-150000J0D01*
G01*
X106125000Y-80225000D02*
G75*
G03*
X106275000Y-80375000I150000J0D01*
G01*
X106575000Y-82175000D02*
G75*
G03*
X106725000Y-82025000I0J150000D01*
G01*
X106575000Y-78575000D02*
G75*
G03*
X106725000Y-78425000I0J150000D01*
G01*
X106275000Y-79775000D02*
G75*
G03*
X106125000Y-79925000I0J-150000D01*
G01*
X106275000Y-78575000D02*
G75*
G03*
X106125000Y-78725000I0J-150000D01*
G01*
X106125000Y-81425000D02*
G75*
G03*
X106275000Y-81575000I150000J0D01*
G01*
X105700000Y-79125000D02*
X105700000Y-79425000D01*
X105550000Y-82575000D02*
X105700000Y-82575000D01*
X105400000Y-82125000D02*
X105400000Y-82425000D01*
X105400000Y-79725000D02*
X105400000Y-80025000D01*
X105400000Y-80925000D02*
X105400000Y-81225000D01*
X105700000Y-83625000D02*
X105700000Y-84375000D01*
X104050000Y-74700000D02*
X105700000Y-76350000D01*
X105700000Y-81525000D02*
X105700000Y-81825000D01*
X105400000Y-77325000D02*
X105400000Y-77625000D01*
X105700000Y-77925000D02*
X105700000Y-78225000D01*
X105700000Y-80325000D02*
X105700000Y-80625000D01*
X105700000Y-83325000D02*
X105700000Y-83625000D01*
X105400000Y-78525000D02*
X105400000Y-78825000D01*
X105700000Y-82575000D02*
X105850000Y-82575000D01*
X106000000Y-82725000D02*
X106000000Y-83025000D01*
X105700000Y-76350000D02*
X105700000Y-77025000D01*
X105550000Y-77175000D02*
G75*
G03*
X105400000Y-77325000I0J-150000D01*
G01*
X105550000Y-77175000D02*
G75*
G03*
X105700000Y-77025000I0J150000D01*
G01*
X105550000Y-80775000D02*
G75*
G03*
X105400000Y-80925000I0J-150000D01*
G01*
X105550000Y-78375000D02*
G75*
G03*
X105400000Y-78525000I0J-150000D01*
G01*
X105550000Y-79575000D02*
G75*
G03*
X105700000Y-79425000I0J150000D01*
G01*
X105550000Y-78375000D02*
G75*
G03*
X105700000Y-78225000I0J150000D01*
G01*
X105550000Y-80775000D02*
G75*
G03*
X105700000Y-80625000I0J150000D01*
G01*
X105850000Y-83175000D02*
G75*
G03*
X106000000Y-83025000I0J150000D01*
G01*
X106000000Y-82725000D02*
G75*
G03*
X105850000Y-82575000I-150000J0D01*
G01*
X105850000Y-83175000D02*
G75*
G03*
X105700000Y-83325000I0J-150000D01*
G01*
X105550000Y-79575000D02*
G75*
G03*
X105400000Y-79725000I0J-150000D01*
G01*
X105700000Y-79125000D02*
G75*
G03*
X105550000Y-78975000I-150000J0D01*
G01*
X105700000Y-81525000D02*
G75*
G03*
X105550000Y-81375000I-150000J0D01*
G01*
X105400000Y-78825000D02*
G75*
G03*
X105550000Y-78975000I150000J0D01*
G01*
X105400000Y-77625000D02*
G75*
G03*
X105550000Y-77775000I150000J0D01*
G01*
X105550000Y-81975000D02*
G75*
G03*
X105700000Y-81825000I0J150000D01*
G01*
X105400000Y-81225000D02*
G75*
G03*
X105550000Y-81375000I150000J0D01*
G01*
X105550000Y-81975000D02*
G75*
G03*
X105400000Y-82125000I0J-150000D01*
G01*
X105700000Y-77925000D02*
G75*
G03*
X105550000Y-77775000I-150000J0D01*
G01*
X105400000Y-80025000D02*
G75*
G03*
X105550000Y-80175000I150000J0D01*
G01*
X105400000Y-82425000D02*
G75*
G03*
X105550000Y-82575000I150000J0D01*
G01*
X105700000Y-80325000D02*
G75*
G03*
X105550000Y-80175000I-150000J0D01*
G01*
X94700000Y-70750000D02*
X94550000Y-70750000D01*
X94550000Y-70150000D02*
X94700000Y-70150000D01*
X94700000Y-72400000D02*
X94700000Y-74525000D01*
X94700000Y-69550000D02*
X94550000Y-69550000D01*
X94700000Y-67150000D02*
X94550000Y-67150000D01*
X94700000Y-67750000D02*
X94850000Y-67750000D01*
X94700000Y-70150000D02*
X94850000Y-70150000D01*
X94700000Y-68950000D02*
X94850000Y-68950000D01*
X94700000Y-74525000D02*
X95225000Y-75050000D01*
X94850000Y-68350000D02*
X94700000Y-68350000D01*
X94850000Y-70750000D02*
X94700000Y-70750000D01*
X95000000Y-70300000D02*
X95000000Y-70600000D01*
X94700000Y-68350000D02*
X94550000Y-68350000D01*
X95000000Y-71500000D02*
X95000000Y-71800000D01*
X94850000Y-69550000D02*
X94700000Y-69550000D01*
X94550000Y-67750000D02*
X94700000Y-67750000D01*
X94700000Y-71350000D02*
X94850000Y-71350000D01*
X94550000Y-68950000D02*
X94700000Y-68950000D01*
X104925000Y-63150000D02*
X105125000Y-62950000D01*
X94700000Y-65425000D02*
X94700000Y-66400000D01*
X95000000Y-69100000D02*
X95000000Y-69400000D01*
X104925000Y-65425000D02*
X104925000Y-63150000D01*
X94400000Y-70900000D02*
X94400000Y-71200000D01*
X94400000Y-67300000D02*
X94400000Y-67600000D01*
X94850000Y-67150000D02*
X94700000Y-67150000D01*
X94700000Y-72100000D02*
X94700000Y-72400000D01*
X95225000Y-75050000D02*
X95225000Y-79750000D01*
X94400000Y-68500000D02*
X94400000Y-68800000D01*
X94400000Y-69700000D02*
X94400000Y-70000000D01*
X95000000Y-67900000D02*
X95000000Y-68200000D01*
X95000000Y-66700000D02*
X95000000Y-67000000D01*
X94550000Y-71350000D02*
X94700000Y-71350000D01*
X95000000Y-66700000D02*
G75*
G03*
X94850000Y-66550000I-150000J0D01*
G01*
X94850000Y-68350000D02*
G75*
G03*
X95000000Y-68200000I0J150000D01*
G01*
X94550000Y-68350000D02*
G75*
G03*
X94400000Y-68500000I0J-150000D01*
G01*
X94850000Y-70750000D02*
G75*
G03*
X95000000Y-70600000I0J150000D01*
G01*
X94550000Y-69550000D02*
G75*
G03*
X94400000Y-69700000I0J-150000D01*
G01*
X94850000Y-67150000D02*
G75*
G03*
X95000000Y-67000000I0J150000D01*
G01*
X94400000Y-67600000D02*
G75*
G03*
X94550000Y-67750000I150000J0D01*
G01*
X94550000Y-67150000D02*
G75*
G03*
X94400000Y-67300000I0J-150000D01*
G01*
X95000000Y-69100000D02*
G75*
G03*
X94850000Y-68950000I-150000J0D01*
G01*
X94400000Y-68800000D02*
G75*
G03*
X94550000Y-68950000I150000J0D01*
G01*
X94700000Y-66400000D02*
G75*
G03*
X94850000Y-66550000I150000J0D01*
G01*
X94550000Y-70750000D02*
G75*
G03*
X94400000Y-70900000I0J-150000D01*
G01*
X94850000Y-69550000D02*
G75*
G03*
X95000000Y-69400000I0J150000D01*
G01*
X94850000Y-71950000D02*
G75*
G03*
X94700000Y-72100000I0J-150000D01*
G01*
X95000000Y-67900000D02*
G75*
G03*
X94850000Y-67750000I-150000J0D01*
G01*
X94400000Y-70000000D02*
G75*
G03*
X94550000Y-70150000I150000J0D01*
G01*
X95000000Y-71500000D02*
G75*
G03*
X94850000Y-71350000I-150000J0D01*
G01*
X95000000Y-70300000D02*
G75*
G03*
X94850000Y-70150000I-150000J0D01*
G01*
X94400000Y-71200000D02*
G75*
G03*
X94550000Y-71350000I150000J0D01*
G01*
X94850000Y-71950000D02*
G75*
G03*
X95000000Y-71800000I0J150000D01*
G01*
X103275000Y-76775000D02*
X103275000Y-77075000D01*
X96062800Y-79937800D02*
X96062800Y-79806800D01*
X96725000Y-80600000D02*
X96062800Y-79937800D01*
X103175000Y-74650000D02*
X102975000Y-74850000D01*
X102975000Y-78275000D02*
X102975000Y-79000000D01*
X96725000Y-83675000D02*
X96725000Y-80600000D01*
X103275000Y-75575000D02*
X103275000Y-75875000D01*
X102675000Y-77375000D02*
X102675000Y-77675000D01*
X102975000Y-76625000D02*
X103125000Y-76625000D01*
X102675000Y-76175000D02*
X102675000Y-76475000D01*
X102975000Y-77975000D02*
X102975000Y-78275000D01*
X102975000Y-77225000D02*
X102825000Y-77225000D01*
X103125000Y-77225000D02*
X102975000Y-77225000D01*
X102975000Y-76025000D02*
X102825000Y-76025000D01*
X103125000Y-76025000D02*
X102975000Y-76025000D01*
X102975000Y-74850000D02*
X102975000Y-75275000D01*
X102825000Y-76625000D02*
X102975000Y-76625000D01*
X102675000Y-76475000D02*
G75*
G03*
X102825000Y-76625000I150000J0D01*
G01*
X102975000Y-77975000D02*
G75*
G03*
X102825000Y-77825000I-150000J0D01*
G01*
X102825000Y-76025000D02*
G75*
G03*
X102675000Y-76175000I0J-150000D01*
G01*
X103125000Y-77225000D02*
G75*
G03*
X103275000Y-77075000I0J150000D01*
G01*
X103125000Y-76025000D02*
G75*
G03*
X103275000Y-75875000I0J150000D01*
G01*
X103275000Y-75575000D02*
G75*
G03*
X103125000Y-75425000I-150000J0D01*
G01*
X102975000Y-75275000D02*
G75*
G03*
X103125000Y-75425000I150000J0D01*
G01*
X103275000Y-76775000D02*
G75*
G03*
X103125000Y-76625000I-150000J0D01*
G01*
X102675000Y-77675000D02*
G75*
G03*
X102825000Y-77825000I150000J0D01*
G01*
X102825000Y-77225000D02*
G75*
G03*
X102675000Y-77375000I0J-150000D01*
G01*
X96700000Y-65000000D02*
X96850000Y-65000000D01*
X97150000Y-65150000D02*
X97150000Y-65450000D01*
X97150000Y-66350000D02*
X97150000Y-66650000D01*
X96700000Y-67400000D02*
X96850000Y-67400000D01*
X97000000Y-66800000D02*
X96850000Y-66800000D01*
X96825000Y-63675000D02*
X96825000Y-63975000D01*
X97150000Y-79430800D02*
X96774000Y-79806800D01*
X96700000Y-66200000D02*
X96850000Y-66200000D01*
X97150000Y-79300000D02*
X97150000Y-79430800D01*
X96850000Y-67400000D02*
X97000000Y-67400000D01*
X97150000Y-76100000D02*
X97150000Y-79300000D01*
X96850000Y-66200000D02*
X97000000Y-66200000D01*
X96825000Y-63975000D02*
X96825000Y-64225000D01*
X96850000Y-68150000D02*
X96850000Y-68450000D01*
X96525000Y-63075000D02*
X96525000Y-63375000D01*
X96550000Y-64550000D02*
X96550000Y-64850000D01*
X96850000Y-65000000D02*
X97000000Y-65000000D01*
X97000000Y-65600000D02*
X96850000Y-65600000D01*
X96850000Y-66800000D02*
X96700000Y-66800000D01*
X96225000Y-58925000D02*
X96825000Y-59525000D01*
X96850000Y-65600000D02*
X96700000Y-65600000D01*
X96850000Y-68450000D02*
X96850000Y-75800000D01*
X96825000Y-59525000D02*
X96825000Y-62775000D01*
X96850000Y-75800000D02*
X97150000Y-76100000D01*
X96825000Y-64225000D02*
X96850000Y-64250000D01*
X96550000Y-66950000D02*
X96550000Y-67250000D01*
X96550000Y-65750000D02*
X96550000Y-66050000D01*
X97150000Y-67550000D02*
X97150000Y-67850000D01*
X97150000Y-65150000D02*
G75*
G03*
X97000000Y-65000000I-150000J0D01*
G01*
X96700000Y-66800000D02*
G75*
G03*
X96550000Y-66950000I0J-150000D01*
G01*
X96675000Y-62925000D02*
G75*
G03*
X96825000Y-62775000I0J150000D01*
G01*
X96700000Y-64400000D02*
G75*
G03*
X96850000Y-64250000I0J150000D01*
G01*
X97000000Y-65600000D02*
G75*
G03*
X97150000Y-65450000I0J150000D01*
G01*
X96550000Y-64850000D02*
G75*
G03*
X96700000Y-65000000I150000J0D01*
G01*
X97000000Y-68000000D02*
G75*
G03*
X96850000Y-68150000I0J-150000D01*
G01*
X96525000Y-63375000D02*
G75*
G03*
X96675000Y-63525000I150000J0D01*
G01*
X97150000Y-67550000D02*
G75*
G03*
X97000000Y-67400000I-150000J0D01*
G01*
X96550000Y-66050000D02*
G75*
G03*
X96700000Y-66200000I150000J0D01*
G01*
X96825000Y-63675000D02*
G75*
G03*
X96675000Y-63525000I-150000J0D01*
G01*
X97000000Y-66800000D02*
G75*
G03*
X97150000Y-66650000I0J150000D01*
G01*
X96675000Y-62925000D02*
G75*
G03*
X96525000Y-63075000I0J-150000D01*
G01*
X97000000Y-68000000D02*
G75*
G03*
X97150000Y-67850000I0J150000D01*
G01*
X96550000Y-67250000D02*
G75*
G03*
X96700000Y-67400000I150000J0D01*
G01*
X96700000Y-65600000D02*
G75*
G03*
X96550000Y-65750000I0J-150000D01*
G01*
X96700000Y-64400000D02*
G75*
G03*
X96550000Y-64550000I0J-150000D01*
G01*
X97150000Y-66350000D02*
G75*
G03*
X97000000Y-66200000I-150000J0D01*
G01*
X97400000Y-69475000D02*
X97400000Y-69775000D01*
X97100000Y-72475000D02*
X97100000Y-72775000D01*
X97400000Y-73525000D02*
X97250000Y-73525000D01*
X97675000Y-76150000D02*
X97675000Y-79850000D01*
X97400000Y-70675000D02*
X97400000Y-70975000D01*
X97250000Y-71725000D02*
X97400000Y-71725000D01*
X97250000Y-72925000D02*
X97400000Y-72925000D01*
X97400000Y-72325000D02*
X97250000Y-72325000D01*
X97400000Y-72925000D02*
X97525000Y-72925000D01*
X97525000Y-72325000D02*
X97400000Y-72325000D01*
X97400000Y-74575000D02*
X97400000Y-75875000D01*
X97650000Y-73050000D02*
X97650000Y-73400000D01*
X97400000Y-74275000D02*
X97400000Y-74575000D01*
X97400000Y-75875000D02*
X97675000Y-76150000D01*
X97525000Y-73525000D02*
X97400000Y-73525000D01*
X97400000Y-58700000D02*
X97400000Y-68575000D01*
X97400000Y-71725000D02*
X97525000Y-71725000D01*
X97100000Y-73675000D02*
X97100000Y-73975000D01*
X97100000Y-71275000D02*
X97100000Y-71575000D01*
X97100000Y-68875000D02*
X97100000Y-69175000D01*
X97650000Y-71850000D02*
X97650000Y-72200000D01*
X97100000Y-70075000D02*
X97100000Y-70375000D01*
X97250000Y-68725000D02*
G75*
G03*
X97400000Y-68575000I0J150000D01*
G01*
X97100000Y-71575000D02*
G75*
G03*
X97250000Y-71725000I150000J0D01*
G01*
X97650000Y-71850000D02*
G75*
G03*
X97525000Y-71725000I-125000J0D01*
G01*
X97250000Y-68725000D02*
G75*
G03*
X97100000Y-68875000I0J-150000D01*
G01*
X97250000Y-71125000D02*
G75*
G03*
X97400000Y-70975000I0J150000D01*
G01*
X97250000Y-72325000D02*
G75*
G03*
X97100000Y-72475000I0J-150000D01*
G01*
X97650000Y-73050000D02*
G75*
G03*
X97525000Y-72925000I-125000J0D01*
G01*
X97100000Y-73975000D02*
G75*
G03*
X97250000Y-74125000I150000J0D01*
G01*
X97525000Y-73525000D02*
G75*
G03*
X97650000Y-73400000I0J125000D01*
G01*
X97100000Y-70375000D02*
G75*
G03*
X97250000Y-70525000I150000J0D01*
G01*
X97525000Y-72325000D02*
G75*
G03*
X97650000Y-72200000I0J125000D01*
G01*
X97100000Y-69175000D02*
G75*
G03*
X97250000Y-69325000I150000J0D01*
G01*
X97250000Y-73525000D02*
G75*
G03*
X97100000Y-73675000I0J-150000D01*
G01*
X97250000Y-71125000D02*
G75*
G03*
X97100000Y-71275000I0J-150000D01*
G01*
X97400000Y-74275000D02*
G75*
G03*
X97250000Y-74125000I-150000J0D01*
G01*
X97250000Y-69925000D02*
G75*
G03*
X97100000Y-70075000I0J-150000D01*
G01*
X97400000Y-70675000D02*
G75*
G03*
X97250000Y-70525000I-150000J0D01*
G01*
X97250000Y-69925000D02*
G75*
G03*
X97400000Y-69775000I0J150000D01*
G01*
X97400000Y-69475000D02*
G75*
G03*
X97250000Y-69325000I-150000J0D01*
G01*
X97100000Y-72775000D02*
G75*
G03*
X97250000Y-72925000I150000J0D01*
G01*
X97650000Y-68550000D02*
X97650000Y-68900000D01*
X97900000Y-67825000D02*
X98050000Y-67825000D01*
X98200000Y-69175000D02*
X98200000Y-69475000D01*
X98050000Y-68425000D02*
X97900000Y-68425000D01*
X97875000Y-63575000D02*
X97875000Y-64050000D01*
X97650000Y-69750000D02*
X97650000Y-70100000D01*
X97900000Y-66625000D02*
X98050000Y-66625000D01*
X97900000Y-69025000D02*
X98050000Y-69025000D01*
X98050000Y-69625000D02*
X97900000Y-69625000D01*
X98200000Y-66775000D02*
X98200000Y-67075000D01*
X98050000Y-70825000D02*
X97900000Y-70825000D01*
X97875000Y-59300000D02*
X97875000Y-61725000D01*
X98050000Y-64825000D02*
X97900000Y-64825000D01*
X98200000Y-70375000D02*
X98200000Y-70675000D01*
X97650000Y-70950000D02*
X97650000Y-71300000D01*
X98200000Y-67975000D02*
X98200000Y-68275000D01*
X98225000Y-76025000D02*
X98225000Y-79175000D01*
X97675000Y-62575000D02*
X97675000Y-62975000D01*
X98025000Y-62475000D02*
X97875000Y-62475000D01*
X97775000Y-69025000D02*
X97900000Y-69025000D01*
X97775000Y-70225000D02*
X97900000Y-70225000D01*
X97900000Y-68425000D02*
X97775000Y-68425000D01*
X97650000Y-64950000D02*
X97650000Y-65300000D01*
X98175000Y-62025000D02*
X98175000Y-62325000D01*
X97900000Y-71900000D02*
X97900000Y-75700000D01*
X97900000Y-67225000D02*
X97775000Y-67225000D01*
X98200000Y-65575000D02*
X98200000Y-65875000D01*
X97775000Y-65425000D02*
X97900000Y-65425000D01*
X97775000Y-67825000D02*
X97900000Y-67825000D01*
X97900000Y-64825000D02*
X97775000Y-64825000D01*
X97900000Y-70825000D02*
X97775000Y-70825000D01*
X98225000Y-79937000D02*
X98348800Y-80060800D01*
X97650000Y-66150000D02*
X97650000Y-66500000D01*
X97900000Y-66025000D02*
X97775000Y-66025000D01*
X97900000Y-69625000D02*
X97775000Y-69625000D01*
X97900000Y-70225000D02*
X98050000Y-70225000D01*
X97650000Y-67350000D02*
X97650000Y-67700000D01*
X98200000Y-64375000D02*
X98200000Y-64675000D01*
X98050000Y-67225000D02*
X97900000Y-67225000D01*
X97875000Y-63175000D02*
X97875000Y-63575000D01*
X98225000Y-79175000D02*
X98225000Y-79937000D01*
X97875000Y-64050000D02*
X97900000Y-64075000D01*
X98050000Y-66025000D02*
X97900000Y-66025000D01*
X97900000Y-71550000D02*
X97900000Y-71900000D01*
X97775000Y-66625000D02*
X97900000Y-66625000D01*
X97900000Y-65425000D02*
X98050000Y-65425000D01*
X97875000Y-62475000D02*
X97775000Y-62475000D01*
X97900000Y-75700000D02*
X98225000Y-76025000D01*
X97775000Y-70825000D02*
G75*
G03*
X97650000Y-70950000I0J-125000D01*
G01*
X98200000Y-67975000D02*
G75*
G03*
X98050000Y-67825000I-150000J0D01*
G01*
X98050000Y-70825000D02*
G75*
G03*
X98200000Y-70675000I0J150000D01*
G01*
X98200000Y-64375000D02*
G75*
G03*
X98050000Y-64225000I-150000J0D01*
G01*
X97775000Y-64825000D02*
G75*
G03*
X97650000Y-64950000I0J-125000D01*
G01*
X97900000Y-71550000D02*
G75*
G03*
X97775000Y-71425000I-125000J0D01*
G01*
X97650000Y-71300000D02*
G75*
G03*
X97775000Y-71425000I125000J0D01*
G01*
X97650000Y-65300000D02*
G75*
G03*
X97775000Y-65425000I125000J0D01*
G01*
X98050000Y-67225000D02*
G75*
G03*
X98200000Y-67075000I0J150000D01*
G01*
X98175000Y-62025000D02*
G75*
G03*
X98025000Y-61875000I-150000J0D01*
G01*
X97650000Y-66500000D02*
G75*
G03*
X97775000Y-66625000I125000J0D01*
G01*
X98200000Y-69175000D02*
G75*
G03*
X98050000Y-69025000I-150000J0D01*
G01*
X98200000Y-70375000D02*
G75*
G03*
X98050000Y-70225000I-150000J0D01*
G01*
X98050000Y-64825000D02*
G75*
G03*
X98200000Y-64675000I0J150000D01*
G01*
X97775000Y-68425000D02*
G75*
G03*
X97650000Y-68550000I0J-125000D01*
G01*
X97775000Y-66025000D02*
G75*
G03*
X97650000Y-66150000I0J-125000D01*
G01*
X98050000Y-68425000D02*
G75*
G03*
X98200000Y-68275000I0J150000D01*
G01*
X97775000Y-67225000D02*
G75*
G03*
X97650000Y-67350000I0J-125000D01*
G01*
X98025000Y-62475000D02*
G75*
G03*
X98175000Y-62325000I0J150000D01*
G01*
X98050000Y-66025000D02*
G75*
G03*
X98200000Y-65875000I0J150000D01*
G01*
X97775000Y-69625000D02*
G75*
G03*
X97650000Y-69750000I0J-125000D01*
G01*
X97875000Y-63175000D02*
G75*
G03*
X97775000Y-63075000I-100000J0D01*
G01*
X98200000Y-65575000D02*
G75*
G03*
X98050000Y-65425000I-150000J0D01*
G01*
X98050000Y-69625000D02*
G75*
G03*
X98200000Y-69475000I0J150000D01*
G01*
X97775000Y-62475000D02*
G75*
G03*
X97675000Y-62575000I0J-100000D01*
G01*
X97650000Y-70100000D02*
G75*
G03*
X97775000Y-70225000I125000J0D01*
G01*
X97900000Y-64075000D02*
G75*
G03*
X98050000Y-64225000I150000J0D01*
G01*
X98200000Y-66775000D02*
G75*
G03*
X98050000Y-66625000I-150000J0D01*
G01*
X97675000Y-62975000D02*
G75*
G03*
X97775000Y-63075000I100000J0D01*
G01*
X97650000Y-68900000D02*
G75*
G03*
X97775000Y-69025000I125000J0D01*
G01*
X97650000Y-67700000D02*
G75*
G03*
X97775000Y-67825000I125000J0D01*
G01*
X97875000Y-61725000D02*
G75*
G03*
X98025000Y-61875000I150000J0D01*
G01*
X99675000Y-85125000D02*
X99675000Y-85300000D01*
X99675000Y-85300000D02*
X100200000Y-85825000D01*
X99400000Y-79325000D02*
X99675000Y-79600000D01*
X99375000Y-83025000D02*
X99375000Y-83325000D01*
X99675000Y-80475000D02*
X99525000Y-80475000D01*
X99400000Y-62900000D02*
X99400000Y-79325000D01*
X99425000Y-62875000D02*
X99400000Y-62900000D01*
X99875000Y-79975000D02*
X99875000Y-80375000D01*
X99675000Y-84825000D02*
X99675000Y-85125000D01*
X99375000Y-80625000D02*
X99375000Y-80925000D01*
X99675000Y-81225000D02*
X99675000Y-81525000D01*
X99675000Y-82425000D02*
X99675000Y-82725000D01*
X99675000Y-79600000D02*
X99675000Y-79775000D01*
X99375000Y-84225000D02*
X99375000Y-84525000D01*
X99375000Y-81825000D02*
X99375000Y-82125000D01*
X99775000Y-80475000D02*
X99675000Y-80475000D01*
X99675000Y-83625000D02*
X99675000Y-83925000D01*
X99375000Y-80925000D02*
G75*
G03*
X99525000Y-81075000I150000J0D01*
G01*
X99525000Y-81675000D02*
G75*
G03*
X99375000Y-81825000I0J-150000D01*
G01*
X99675000Y-81225000D02*
G75*
G03*
X99525000Y-81075000I-150000J0D01*
G01*
X99525000Y-80475000D02*
G75*
G03*
X99375000Y-80625000I0J-150000D01*
G01*
X99375000Y-83325000D02*
G75*
G03*
X99525000Y-83475000I150000J0D01*
G01*
X99525000Y-84075000D02*
G75*
G03*
X99675000Y-83925000I0J150000D01*
G01*
X99375000Y-82125000D02*
G75*
G03*
X99525000Y-82275000I150000J0D01*
G01*
X99775000Y-80475000D02*
G75*
G03*
X99875000Y-80375000I0J100000D01*
G01*
X99675000Y-83625000D02*
G75*
G03*
X99525000Y-83475000I-150000J0D01*
G01*
X99525000Y-82875000D02*
G75*
G03*
X99375000Y-83025000I0J-150000D01*
G01*
X99675000Y-84825000D02*
G75*
G03*
X99525000Y-84675000I-150000J0D01*
G01*
X99675000Y-82425000D02*
G75*
G03*
X99525000Y-82275000I-150000J0D01*
G01*
X99525000Y-84075000D02*
G75*
G03*
X99375000Y-84225000I0J-150000D01*
G01*
X99875000Y-79975000D02*
G75*
G03*
X99775000Y-79875000I-100000J0D01*
G01*
X99675000Y-79775000D02*
G75*
G03*
X99775000Y-79875000I100000J0D01*
G01*
X99525000Y-81675000D02*
G75*
G03*
X99675000Y-81525000I0J150000D01*
G01*
X99525000Y-82875000D02*
G75*
G03*
X99675000Y-82725000I0J150000D01*
G01*
X99375000Y-84525000D02*
G75*
G03*
X99525000Y-84675000I150000J0D01*
G01*
X99950000Y-81300000D02*
X99950000Y-80900000D01*
X100050000Y-83200000D02*
X100150000Y-83200000D01*
X100400000Y-81875000D02*
X100400000Y-81525000D01*
X100150000Y-82600000D02*
X100050000Y-82600000D01*
X100150000Y-82000000D02*
X100275000Y-82000000D01*
X99950000Y-83700000D02*
X99950000Y-83300000D01*
X100050000Y-78475000D02*
X100050000Y-78575000D01*
X100875103Y-85675103D02*
X100150000Y-84950000D01*
X100275000Y-82600000D02*
X100150000Y-82600000D01*
X100150000Y-84950000D02*
X100150000Y-83900000D01*
X100050000Y-79250000D02*
X100050000Y-79200000D01*
X99950000Y-82500000D02*
X99950000Y-82100000D01*
X100050000Y-82000000D02*
X100150000Y-82000000D01*
X100275000Y-81400000D02*
X100150000Y-81400000D01*
X100050000Y-77075000D02*
X100050000Y-77575000D01*
X100150000Y-79300000D02*
X100050000Y-79200000D01*
X100000000Y-77025000D02*
X100050000Y-77075000D01*
X100400000Y-83075000D02*
X100400000Y-82725000D01*
X100150000Y-83200000D02*
X100275000Y-83200000D01*
X100050000Y-78575000D02*
X100050000Y-79200000D01*
X100150000Y-79550000D02*
X100150000Y-79300000D01*
X100150000Y-81400000D02*
X100050000Y-81400000D01*
X100150000Y-80700000D02*
X100150000Y-79550000D01*
X100350000Y-77875000D02*
X100350000Y-78175000D01*
X100899650Y-85675103D02*
X100875103Y-85675103D01*
X100275000Y-83200000D02*
G75*
G03*
X100400000Y-83075000I0J125000D01*
G01*
X100050000Y-80800000D02*
G75*
G03*
X100150000Y-80700000I0J100000D01*
G01*
X100200000Y-78325000D02*
G75*
G03*
X100350000Y-78175000I0J150000D01*
G01*
X100400000Y-82725000D02*
G75*
G03*
X100275000Y-82600000I-125000J0D01*
G01*
X100050000Y-83200000D02*
G75*
G03*
X99950000Y-83300000I0J-100000D01*
G01*
X99950000Y-83700000D02*
G75*
G03*
X100050000Y-83800000I100000J0D01*
G01*
X100050000Y-77575000D02*
G75*
G03*
X100200000Y-77725000I150000J0D01*
G01*
X100150000Y-83900000D02*
G75*
G03*
X100050000Y-83800000I-100000J0D01*
G01*
X100050000Y-82000000D02*
G75*
G03*
X99950000Y-82100000I0J-100000D01*
G01*
X100275000Y-82000000D02*
G75*
G03*
X100400000Y-81875000I0J125000D01*
G01*
X100350000Y-77875000D02*
G75*
G03*
X100200000Y-77725000I-150000J0D01*
G01*
X99950000Y-81300000D02*
G75*
G03*
X100050000Y-81400000I100000J0D01*
G01*
X100050000Y-80800000D02*
G75*
G03*
X99950000Y-80900000I0J-100000D01*
G01*
X100200000Y-78325000D02*
G75*
G03*
X100050000Y-78475000I0J-150000D01*
G01*
X100400000Y-81525000D02*
G75*
G03*
X100275000Y-81400000I-125000J0D01*
G01*
X99950000Y-82500000D02*
G75*
G03*
X100050000Y-82600000I100000J0D01*
G01*
X100725000Y-75900000D02*
X100675000Y-75950000D01*
X100675000Y-84781051D02*
X101417399Y-85523450D01*
X100675000Y-75950000D02*
X100675000Y-84781051D01*
X101175000Y-74750000D02*
X101175000Y-79240763D01*
X101808099Y-84983099D02*
X101808099Y-86041901D01*
X101224937Y-79290700D02*
X101224937Y-84399937D01*
X101175000Y-79240763D02*
X101224937Y-79290700D01*
X101224937Y-84399937D02*
X101808099Y-84983099D01*
X101225000Y-74700000D02*
X101175000Y-74750000D01*
X101808099Y-86041901D02*
X101600000Y-86250000D01*
X101625000Y-75600000D02*
X101625000Y-84275000D01*
X102050000Y-84700000D02*
X102050000Y-86975000D01*
X101825000Y-75400000D02*
X101625000Y-75600000D01*
X102050000Y-86975000D02*
X102100000Y-87025000D01*
X101625000Y-84275000D02*
X102050000Y-84700000D01*
X102600000Y-85275000D02*
X102600000Y-86194004D01*
X102175000Y-76500000D02*
X102175000Y-82325000D01*
X102325000Y-85000000D02*
X102600000Y-85275000D01*
X102600000Y-86194004D02*
X102505557Y-86288447D01*
X102325000Y-82475000D02*
X102325000Y-85000000D01*
X102175000Y-82325000D02*
X102325000Y-82475000D01*
X91135200Y-76403200D02*
X91135200Y-74739800D01*
X90373200Y-79248000D02*
X91236800Y-78384400D01*
X91236800Y-78384400D02*
X91236800Y-76504800D01*
X91236800Y-76504800D02*
X91135200Y-76403200D01*
X91135200Y-74739800D02*
X91225000Y-74650000D01*
X90678000Y-78130400D02*
X90678000Y-74014600D01*
X90678000Y-74014600D02*
X90425000Y-73761600D01*
X110150000Y-64750000D02*
X109950000Y-64550000D01*
X88775000Y-62200000D02*
X88825000Y-62150000D01*
X110150000Y-74450000D02*
X110150000Y-64750000D01*
X88775000Y-64550000D02*
X88775000Y-62200000D01*
X110725000Y-73850000D02*
X110725000Y-63725000D01*
X110725000Y-63725000D02*
X110475000Y-63475000D01*
X111250000Y-69525000D02*
X111250000Y-70425000D01*
X111250000Y-66950000D02*
X111250000Y-67750000D01*
X111225000Y-66925000D02*
X111250000Y-66950000D01*
X111250000Y-68475000D02*
X111400000Y-68475000D01*
X111125000Y-68475000D02*
X111250000Y-68475000D01*
X111000000Y-68000000D02*
X111000000Y-68350000D01*
X111250000Y-69225000D02*
X111250000Y-69525000D01*
X111550000Y-68625000D02*
X111550000Y-68925000D01*
X111400000Y-69075000D02*
G75*
G03*
X111550000Y-68925000I0J150000D01*
G01*
X111000000Y-68350000D02*
G75*
G03*
X111125000Y-68475000I125000J0D01*
G01*
X111125000Y-67875000D02*
G75*
G03*
X111250000Y-67750000I0J125000D01*
G01*
X111125000Y-67875000D02*
G75*
G03*
X111000000Y-68000000I0J-125000D01*
G01*
X111400000Y-69075000D02*
G75*
G03*
X111250000Y-69225000I0J-150000D01*
G01*
X111550000Y-68625000D02*
G75*
G03*
X111400000Y-68475000I-150000J0D01*
G01*
X115825000Y-60475000D02*
X115675000Y-60475000D01*
X115375000Y-63025000D02*
X115375000Y-63325000D01*
X115675000Y-62425000D02*
X115675000Y-62725000D01*
X115375000Y-61825000D02*
X115375000Y-62125000D01*
X115525000Y-61075000D02*
X115675000Y-61075000D01*
X115675000Y-61675000D02*
X115525000Y-61675000D01*
X115675000Y-60475000D02*
X115525000Y-60475000D01*
X115675000Y-63925000D02*
X115675000Y-64775000D01*
X115975000Y-61225000D02*
X115975000Y-61525000D01*
X115975000Y-60025000D02*
X115975000Y-60325000D01*
X115825000Y-61675000D02*
X115675000Y-61675000D01*
X115675000Y-64775000D02*
X115625000Y-64825000D01*
X115675000Y-61075000D02*
X115825000Y-61075000D01*
X115375000Y-60625000D02*
X115375000Y-60925000D01*
X115675000Y-58625000D02*
X115675000Y-59725000D01*
X115675000Y-63625000D02*
X115675000Y-63925000D01*
X115675000Y-63625000D02*
G75*
G03*
X115525000Y-63475000I-150000J0D01*
G01*
X115675000Y-59725000D02*
G75*
G03*
X115825000Y-59875000I150000J0D01*
G01*
X115525000Y-62875000D02*
G75*
G03*
X115375000Y-63025000I0J-150000D01*
G01*
X115375000Y-63325000D02*
G75*
G03*
X115525000Y-63475000I150000J0D01*
G01*
X115825000Y-61675000D02*
G75*
G03*
X115975000Y-61525000I0J150000D01*
G01*
X115975000Y-61225000D02*
G75*
G03*
X115825000Y-61075000I-150000J0D01*
G01*
X115975000Y-60025000D02*
G75*
G03*
X115825000Y-59875000I-150000J0D01*
G01*
X115525000Y-61675000D02*
G75*
G03*
X115375000Y-61825000I0J-150000D01*
G01*
X115375000Y-60925000D02*
G75*
G03*
X115525000Y-61075000I150000J0D01*
G01*
X115675000Y-62425000D02*
G75*
G03*
X115525000Y-62275000I-150000J0D01*
G01*
X115525000Y-60475000D02*
G75*
G03*
X115375000Y-60625000I0J-150000D01*
G01*
X115375000Y-62125000D02*
G75*
G03*
X115525000Y-62275000I150000J0D01*
G01*
X115525000Y-62875000D02*
G75*
G03*
X115675000Y-62725000I0J150000D01*
G01*
X115825000Y-60475000D02*
G75*
G03*
X115975000Y-60325000I0J150000D01*
G01*
X115125000Y-59385200D02*
X115125000Y-60050000D01*
X114825000Y-60350000D02*
X114825000Y-60650000D01*
X114825000Y-61550000D02*
X114825000Y-61850000D01*
X115125000Y-60950000D02*
X115125000Y-61250000D01*
X114825000Y-62750000D02*
X114825000Y-63050000D01*
X115125000Y-63650000D02*
X115125000Y-64275000D01*
X115125000Y-63350000D02*
X115125000Y-63650000D01*
X115125000Y-62150000D02*
X115125000Y-62450000D01*
X115125000Y-63350000D02*
G75*
G03*
X114975000Y-63200000I-150000J0D01*
G01*
X114825000Y-60650000D02*
G75*
G03*
X114975000Y-60800000I150000J0D01*
G01*
X115125000Y-62150000D02*
G75*
G03*
X114975000Y-62000000I-150000J0D01*
G01*
X114975000Y-60200000D02*
G75*
G03*
X115125000Y-60050000I0J150000D01*
G01*
X114825000Y-63050000D02*
G75*
G03*
X114975000Y-63200000I150000J0D01*
G01*
X114825000Y-61850000D02*
G75*
G03*
X114975000Y-62000000I150000J0D01*
G01*
X115125000Y-60950000D02*
G75*
G03*
X114975000Y-60800000I-150000J0D01*
G01*
X114975000Y-61400000D02*
G75*
G03*
X114825000Y-61550000I0J-150000D01*
G01*
X114975000Y-62600000D02*
G75*
G03*
X114825000Y-62750000I0J-150000D01*
G01*
X114975000Y-62600000D02*
G75*
G03*
X115125000Y-62450000I0J150000D01*
G01*
X114975000Y-61400000D02*
G75*
G03*
X115125000Y-61250000I0J150000D01*
G01*
X114975000Y-60200000D02*
G75*
G03*
X114825000Y-60350000I0J-150000D01*
G01*
X109150000Y-68675000D02*
X109150000Y-68975000D01*
X109750000Y-69275000D02*
X109750000Y-69575000D01*
X109300000Y-66725000D02*
X109450000Y-66725000D01*
X109150000Y-71075000D02*
X109150000Y-71375000D01*
X109600000Y-70925000D02*
X109450000Y-70925000D01*
X109550000Y-62800000D02*
X109550000Y-65875000D01*
X109300000Y-70325000D02*
X109450000Y-70325000D01*
X109450000Y-70925000D02*
X109300000Y-70925000D01*
X109300000Y-71525000D02*
X109450000Y-71525000D01*
X109450000Y-71525000D02*
X109600000Y-71525000D01*
X109600000Y-68525000D02*
X109450000Y-68525000D01*
X109300000Y-69125000D02*
X109450000Y-69125000D01*
X109600000Y-72125000D02*
X109450000Y-72125000D01*
X109450000Y-69125000D02*
X109600000Y-69125000D01*
X109450000Y-68525000D02*
X109300000Y-68525000D01*
X109450000Y-72875000D02*
X109450000Y-73175000D01*
X109550000Y-65875000D02*
X109450000Y-65975000D01*
X109150000Y-66275000D02*
X109150000Y-66575000D01*
X109150000Y-72275000D02*
X109150000Y-72575000D01*
X109450000Y-70325000D02*
X109600000Y-70325000D01*
X109600000Y-69725000D02*
X109450000Y-69725000D01*
X109450000Y-69725000D02*
X109300000Y-69725000D01*
X109450000Y-66725000D02*
X109600000Y-66725000D01*
X109750000Y-68075000D02*
X109750000Y-68375000D01*
X109450000Y-67325000D02*
X109300000Y-67325000D01*
X109300000Y-67925000D02*
X109450000Y-67925000D01*
X109450000Y-73175000D02*
X109450000Y-74500000D01*
X109450000Y-67925000D02*
X109600000Y-67925000D01*
X109450000Y-72125000D02*
X109300000Y-72125000D01*
X109600000Y-67325000D02*
X109450000Y-67325000D01*
X109150000Y-67475000D02*
X109150000Y-67775000D01*
X109150000Y-69875000D02*
X109150000Y-70175000D01*
X109750000Y-70475000D02*
X109750000Y-70775000D01*
X109750000Y-66875000D02*
X109750000Y-67175000D01*
X109750000Y-71675000D02*
X109750000Y-71975000D01*
X109150000Y-67775000D02*
G75*
G03*
X109300000Y-67925000I150000J0D01*
G01*
X109600000Y-69725000D02*
G75*
G03*
X109750000Y-69575000I0J150000D01*
G01*
X109600000Y-67325000D02*
G75*
G03*
X109750000Y-67175000I0J150000D01*
G01*
X109150000Y-71375000D02*
G75*
G03*
X109300000Y-71525000I150000J0D01*
G01*
X109750000Y-70475000D02*
G75*
G03*
X109600000Y-70325000I-150000J0D01*
G01*
X109150000Y-70175000D02*
G75*
G03*
X109300000Y-70325000I150000J0D01*
G01*
X109600000Y-68525000D02*
G75*
G03*
X109750000Y-68375000I0J150000D01*
G01*
X109300000Y-68525000D02*
G75*
G03*
X109150000Y-68675000I0J-150000D01*
G01*
X109450000Y-72875000D02*
G75*
G03*
X109300000Y-72725000I-150000J0D01*
G01*
X109600000Y-70925000D02*
G75*
G03*
X109750000Y-70775000I0J150000D01*
G01*
X109150000Y-68975000D02*
G75*
G03*
X109300000Y-69125000I150000J0D01*
G01*
X109750000Y-69275000D02*
G75*
G03*
X109600000Y-69125000I-150000J0D01*
G01*
X109150000Y-66575000D02*
G75*
G03*
X109300000Y-66725000I150000J0D01*
G01*
X109300000Y-66125000D02*
G75*
G03*
X109450000Y-65975000I0J150000D01*
G01*
X109600000Y-72125000D02*
G75*
G03*
X109750000Y-71975000I0J150000D01*
G01*
X109300000Y-72125000D02*
G75*
G03*
X109150000Y-72275000I0J-150000D01*
G01*
X109300000Y-69725000D02*
G75*
G03*
X109150000Y-69875000I0J-150000D01*
G01*
X109300000Y-66125000D02*
G75*
G03*
X109150000Y-66275000I0J-150000D01*
G01*
X109150000Y-72575000D02*
G75*
G03*
X109300000Y-72725000I150000J0D01*
G01*
X109300000Y-67325000D02*
G75*
G03*
X109150000Y-67475000I0J-150000D01*
G01*
X109750000Y-68075000D02*
G75*
G03*
X109600000Y-67925000I-150000J0D01*
G01*
X109750000Y-71675000D02*
G75*
G03*
X109600000Y-71525000I-150000J0D01*
G01*
X109300000Y-70925000D02*
G75*
G03*
X109150000Y-71075000I0J-150000D01*
G01*
X109750000Y-66875000D02*
G75*
G03*
X109600000Y-66725000I-150000J0D01*
G01*
X90017600Y-48514000D02*
X89001600Y-47498000D01*
X89001600Y-47498000D02*
X89001600Y-45415200D01*
X104775000Y-54000000D02*
X104775000Y-62475000D01*
X104775000Y-62475000D02*
X104300000Y-62950000D01*
X104325000Y-54425000D02*
X104325000Y-62050000D01*
X104325000Y-62050000D02*
X104050000Y-62325000D01*
X100950000Y-54025000D02*
X100800000Y-54025000D01*
X100800000Y-55825000D02*
X100950000Y-55825000D01*
X100800000Y-50700000D02*
X100800000Y-52675000D01*
X101100000Y-55975000D02*
X101100000Y-56275000D01*
X100800000Y-53425000D02*
X100950000Y-53425000D01*
X100650000Y-53425000D02*
X100800000Y-53425000D01*
X101100000Y-53575000D02*
X101100000Y-53875000D01*
X100500000Y-56575000D02*
X100500000Y-56875000D01*
X100500000Y-52975000D02*
X100500000Y-53275000D01*
X100500000Y-54175000D02*
X100500000Y-54475000D01*
X100800000Y-55225000D02*
X100650000Y-55225000D01*
X100800000Y-57775000D02*
X100800000Y-58075000D01*
X100800000Y-54625000D02*
X100950000Y-54625000D01*
X100800000Y-54025000D02*
X100650000Y-54025000D01*
X100500000Y-55375000D02*
X100500000Y-55675000D01*
X100650000Y-54625000D02*
X100800000Y-54625000D01*
X101100000Y-54775000D02*
X101100000Y-55075000D01*
X101750000Y-49750000D02*
X100800000Y-50700000D01*
X100950000Y-55225000D02*
X100800000Y-55225000D01*
X101100000Y-57175000D02*
X101100000Y-57475000D01*
X100800000Y-56425000D02*
X100650000Y-56425000D01*
X100950000Y-56425000D02*
X100800000Y-56425000D01*
X100800000Y-57025000D02*
X100950000Y-57025000D01*
X100650000Y-57025000D02*
X100800000Y-57025000D01*
X100800000Y-58075000D02*
X100800000Y-58750000D01*
X100650000Y-55825000D02*
X100800000Y-55825000D01*
X100500000Y-56875000D02*
G75*
G03*
X100650000Y-57025000I150000J0D01*
G01*
X100500000Y-53275000D02*
G75*
G03*
X100650000Y-53425000I150000J0D01*
G01*
X100650000Y-52825000D02*
G75*
G03*
X100500000Y-52975000I0J-150000D01*
G01*
X100500000Y-55675000D02*
G75*
G03*
X100650000Y-55825000I150000J0D01*
G01*
X101100000Y-57175000D02*
G75*
G03*
X100950000Y-57025000I-150000J0D01*
G01*
X101100000Y-55975000D02*
G75*
G03*
X100950000Y-55825000I-150000J0D01*
G01*
X100650000Y-55225000D02*
G75*
G03*
X100500000Y-55375000I0J-150000D01*
G01*
X100650000Y-56425000D02*
G75*
G03*
X100500000Y-56575000I0J-150000D01*
G01*
X100950000Y-55225000D02*
G75*
G03*
X101100000Y-55075000I0J150000D01*
G01*
X101100000Y-53575000D02*
G75*
G03*
X100950000Y-53425000I-150000J0D01*
G01*
X100950000Y-57625000D02*
G75*
G03*
X101100000Y-57475000I0J150000D01*
G01*
X100950000Y-56425000D02*
G75*
G03*
X101100000Y-56275000I0J150000D01*
G01*
X100950000Y-54025000D02*
G75*
G03*
X101100000Y-53875000I0J150000D01*
G01*
X100650000Y-54025000D02*
G75*
G03*
X100500000Y-54175000I0J-150000D01*
G01*
X101100000Y-54775000D02*
G75*
G03*
X100950000Y-54625000I-150000J0D01*
G01*
X100950000Y-57625000D02*
G75*
G03*
X100800000Y-57775000I0J-150000D01*
G01*
X100650000Y-52825000D02*
G75*
G03*
X100800000Y-52675000I0J150000D01*
G01*
X100500000Y-54475000D02*
G75*
G03*
X100650000Y-54625000I150000J0D01*
G01*
X99200000Y-58675000D02*
X99200000Y-48700000D01*
X100400000Y-61175000D02*
X99725000Y-60500000D01*
X98450000Y-58500000D02*
X98450000Y-54150000D01*
X100400000Y-63050000D02*
X100400000Y-61175000D01*
X99725000Y-60500000D02*
X98450000Y-59225000D01*
X100027443Y-63422557D02*
X100400000Y-63050000D01*
X98450000Y-54150000D02*
X98275000Y-53975000D01*
X98450000Y-59225000D02*
X98450000Y-58500000D01*
X100027443Y-70822738D02*
X100027443Y-63422557D01*
X87630000Y-49276000D02*
X88239600Y-48666400D01*
X88239600Y-40995600D02*
X87477600Y-40233600D01*
X88239600Y-48666400D02*
X88239600Y-46228000D01*
X88239600Y-46228000D02*
X88239600Y-40995600D01*
X87833200Y-48514000D02*
X87833200Y-41757600D01*
X87833200Y-41757600D02*
X86918800Y-40843200D01*
X87172800Y-49936400D02*
X87172800Y-49174400D01*
X86918800Y-40843200D02*
X86918800Y-38811200D01*
X87172800Y-49174400D02*
X87833200Y-48514000D01*
M02*
