M48
; DRILL file {KiCad 7.0.1} date Mon Jan  1 11:36:44 2024
; FORMAT={-:-/ absolute / metric / decimal}
; #@! TF.CreationDate,2024-01-01T11:36:44+00:00
; #@! TF.GenerationSoftware,Kicad,Pcbnew,7.0.1
; #@! TF.FileFunction,Plated,1,6,PTH
FMAT,2
METRIC
; #@! TA.AperFunction,Plated,PTH,ViaDrill
T1C0.200
; #@! TA.AperFunction,Plated,PTH,ViaDrill
T2C0.400
; #@! TA.AperFunction,Plated,PTH,ComponentDrill
T3C0.500
; #@! TA.AperFunction,Plated,PTH,ComponentDrill
T4C0.600
; #@! TA.AperFunction,Plated,PTH,ComponentDrill
T5C0.750
; #@! TA.AperFunction,Plated,PTH,ComponentDrill
T6C0.800
; #@! TA.AperFunction,Plated,PTH,ComponentDrill
T7C1.000
; #@! TA.AperFunction,Plated,PTH,ComponentDrill
T8C1.300
%
G90
G05
T1
X51.359Y-157.734
X59.944Y-59.131
X61.366Y-58.268
X62.89Y-48.26
X63.652Y-83.617
X64.059Y-145.034
X64.059Y-170.434
X64.313Y-48.26
X64.668Y-105.562
X65.138Y-106.466
X65.329Y-48.209
X66.091Y-48.362
X66.142Y-89.256
X66.238Y-93.426
X66.238Y-106.472
X66.243Y-80.315
X66.548Y-89.764
X66.7Y-105.613
X67.412Y-40.792
X67.615Y-87.224
X68.834Y-86.665
X69.748Y-85.903
X69.901Y-107.036
X70.002Y-54.508
X70.409Y-85.09
X70.46Y-106.426
X71.272Y-83.058
X71.272Y-106.426
X72.085Y-83.058
X72.136Y-106.375
X73.965Y-76.657
X74.27Y-102.921
X74.981Y-54.051
X75.743Y-75.59
X75.844Y-52.832
X75.895Y-101.905
X76.403Y-75.489
X76.759Y-139.7
X76.759Y-157.734
X77.114Y-37.084
X77.165Y-100.99
X78.334Y-96.622
X78.943Y-95.758
X79.604Y-99.162
X80.112Y-105.664
X80.213Y-100.076
X80.264Y-109.626
X80.366Y-97.282
X80.525Y-56.325
X80.576Y-59.689
X80.62Y-70.409
X80.62Y-76.81
X80.727Y-61.394
X80.772Y-98.247
X80.924Y-82.398
X80.933Y-77.264
X81.026Y-69.088
X81.026Y-69.952
X81.077Y-80.823
X81.175Y-62.325
X81.205Y-60.761
X81.382Y-79.604
X81.4Y-74.4
X81.414Y-78.552
X81.585Y-55.778
X81.765Y-76.237
X81.775Y-61.925
X81.788Y-51.46
X81.839Y-68.478
X81.991Y-66.802
X82.042Y-60.046
X82.093Y-84.887
X82.245Y-102.921
X82.255Y-109.677
X82.296Y-85.954
X82.347Y-69.444
X82.448Y-94.386
X82.753Y-104.75
X82.753Y-108.814
X82.804Y-89.764
X83.21Y-92.913
X83.21Y-109.677
X83.668Y-90.526
X83.718Y-44.501
X83.718Y-103.937
X83.769Y-108.814
X83.82Y-40.996
X84.176Y-85.141
X84.277Y-102.921
X84.277Y-109.728
X84.734Y-108.814
X84.785Y-84.887
X85.141Y-58.928
X85.242Y-101.854
X85.242Y-109.728
X85.344Y-75.946
X85.7Y-58.42
X85.7Y-73.4
X85.75Y-108.814
X85.775Y-70.575
X85.852Y-100.94
X85.903Y-84.582
X86.055Y-39.268
X86.2Y-72.375
X86.208Y-109.779
X86.215Y-49.575
X86.36Y-91.643
X86.475Y-56.65
X86.563Y-84.938
X86.575Y-48.825
X86.665Y-90.526
X86.716Y-83.21
X86.75Y-73.825
X86.766Y-108.814
X86.919Y-38.811
X86.919Y-50.546
X86.925Y-71.2
X87.05Y-47.991
X87.173Y-49.936
X87.274Y-109.83
X87.325Y-93.624
X87.478Y-40.234
X87.63Y-49.276
X87.732Y-84.785
X87.782Y-108.864
X87.833Y-101.194
X87.925Y-75.2
X88.036Y-75.895
X88.036Y-84.074
X88.24Y-109.677
X88.29Y-95.047
X88.341Y-105.664
X88.748Y-76.149
X88.775Y-64.55
X88.798Y-97.434
X88.798Y-108.864
X88.825Y-62.15
X88.825Y-75.438
X88.951Y-89.764
X89.002Y-45.415
X89.256Y-109.677
X89.459Y-132.334
X89.525Y-75.3
X89.56Y-93.624
X89.7Y-49.75
X89.764Y-108.864
X89.814Y-101.752
X90.018Y-48.514
X90.17Y-100.178
X90.272Y-109.728
X90.373Y-79.248
X90.425Y-73.762
X90.45Y-63.425
X90.678Y-78.13
X90.729Y-79.756
X90.729Y-99.009
X90.78Y-108.864
X91.135Y-83.312
X91.186Y-98.247
X91.225Y-74.65
X91.237Y-109.728
X91.275Y-48.75
X91.3Y-62.875
X91.491Y-53.442
X91.694Y-80.112
X91.796Y-108.915
X92.05Y-91.592
X92.151Y-82.702
X92.2Y-58.05
X92.253Y-109.779
X92.304Y-37.084
X92.354Y-95.098
X92.608Y-45.923
X92.675Y-80.112
X92.761Y-92.1
X92.761Y-108.915
X92.825Y-62.35
X93.0Y-63.975
X93.125Y-83.875
X93.269Y-109.728
X93.472Y-93.624
X93.6Y-74.625
X93.625Y-58.9
X93.65Y-76.5
X93.725Y-84.4
X93.726Y-108.864
X93.843Y-102.26
X94.183Y-94.437
X94.225Y-83.675
X94.234Y-109.982
X94.4Y-75.2
X94.7Y-65.425
X94.742Y-108.864
X94.894Y-96.723
X95.0Y-84.875
X95.047Y-44.806
X95.1Y-58.25
X95.148Y-50.495
X95.225Y-79.75
X95.25Y-74.125
X95.25Y-109.931
X95.352Y-102.514
X95.525Y-49.275
X95.628Y-83.705
X95.95Y-59.6
X95.975Y-75.825
X96.063Y-79.807
X96.225Y-58.925
X96.571Y-39.827
X96.725Y-83.675
X96.75Y-49.825
X96.774Y-79.807
X96.854Y-58.199
X96.926Y-96.469
X96.977Y-89.408
X97.4Y-58.7
X97.434Y-139.446
X97.675Y-79.85
X97.739Y-91.338
X97.775Y-47.875
X97.875Y-59.3
X97.892Y-96.52
X98.12Y-157.875
X98.15Y-168.125
X98.275Y-53.975
X98.349Y-80.061
X98.349Y-90.576
X98.425Y-75.3
X98.501Y-96.571
X98.525Y-47.975
X98.625Y-83.65
X98.7Y-168.95
X98.875Y-167.35
X98.975Y-156.95
X99.2Y-48.7
X99.2Y-58.675
X99.275Y-168.6
X99.425Y-62.875
X100.0Y-59.3
X100.0Y-77.025
X100.027Y-70.823
X100.075Y-56.625
X100.2Y-85.825
X100.725Y-75.9
X100.775Y-49.726
X100.8Y-58.75
X100.8Y-73.975
X100.9Y-85.675
X101.225Y-74.7
X101.417Y-85.523
X101.6Y-59.425
X101.6Y-86.25
X101.65Y-71.125
X101.675Y-63.95
X101.75Y-49.75
X101.825Y-75.4
X102.1Y-87.025
X102.175Y-76.5
X102.26Y-109.931
X102.311Y-95.656
X102.325Y-48.55
X102.45Y-59.45
X102.45Y-70.425
X102.506Y-86.288
X102.87Y-80.01
X102.975Y-79.0
X103.124Y-105.664
X103.175Y-74.65
X103.226Y-86.563
X103.327Y-41.758
X103.327Y-45.009
X103.375Y-58.525
X103.5Y-70.425
X103.581Y-47.498
X103.875Y-59.2
X104.038Y-75.946
X104.05Y-62.325
X104.05Y-74.7
X104.225Y-84.876
X104.3Y-62.95
X104.325Y-54.425
X104.648Y-45.466
X104.775Y-54.0
X104.85Y-74.75
X104.925Y-65.425
X105.125Y-62.95
X105.65Y-62.175
X105.664Y-47.447
X105.675Y-66.05
X105.7Y-74.875
X105.7Y-84.375
X106.172Y-47.854
X106.425Y-83.6
X106.426Y-108.763
X106.5Y-62.225
X106.575Y-66.7
X106.65Y-74.925
X106.832Y-48.26
X106.883Y-84.836
X106.883Y-91.796
X107.086Y-108.204
X107.15Y-84.025
X107.175Y-62.925
X107.239Y-110.439
X107.29Y-54.966
X107.3Y-67.425
X107.3Y-69.75
X107.747Y-53.492
X107.825Y-83.55
X107.848Y-84.176
X107.848Y-93.574
X107.975Y-69.075
X108.025Y-68.075
X108.05Y-48.65
X108.05Y-62.275
X108.527Y-84.242
X108.61Y-47.447
X108.687Y-113.665
X108.846Y-79.931
X108.975Y-75.425
X109.373Y-80.043
X109.45Y-74.5
X109.55Y-62.8
X109.726Y-83.16
X109.885Y-79.689
X109.95Y-64.55
X109.952Y-50.207
X110.15Y-74.45
X110.475Y-63.475
X110.592Y-53.492
X110.592Y-79.654
X110.725Y-73.85
X110.998Y-46.279
X111.225Y-48.775
X111.225Y-66.925
X111.25Y-70.425
X111.252Y-58.318
X111.303Y-59.385
X111.354Y-79.705
X111.404Y-57.353
X111.557Y-116.84
X111.608Y-75.946
X112.268Y-47.092
X112.42Y-82.55
X112.522Y-92.913
X112.674Y-102.921
X112.725Y-104.75
X112.776Y-103.835
X112.928Y-21.133
X113.03Y-82.855
X113.081Y-100.33
X113.132Y-101.549
X113.233Y-50.749
X113.233Y-83.871
X113.284Y-49.987
X113.284Y-109.83
X113.335Y-42.774
X113.335Y-47.396
X113.335Y-107.899
X113.335Y-108.864
X113.386Y-115.875
X113.538Y-88.9
X113.64Y-52.426
X113.69Y-102.108
X113.741Y-102.921
X113.748Y-84.032
X113.792Y-82.55
X113.792Y-110.846
X113.862Y-83.344
X114.046Y-21.133
X114.351Y-42.469
X114.351Y-50.089
X114.402Y-76.911
X114.91Y-76.454
X115.125Y-59.385
X115.125Y-64.275
X115.621Y-75.946
X115.625Y-64.825
X115.675Y-58.625
X115.825Y-77.325
X115.976Y-115.875
X116.025Y-55.425
X116.027Y-110.846
X116.027Y-132.283
X116.129Y-21.133
X116.129Y-35.458
X116.129Y-109.88
X116.2Y-72.8
X116.2Y-75.55
X116.225Y-70.5
X116.25Y-66.0
X116.275Y-62.5
X116.281Y-108.712
X116.332Y-107.798
X116.789Y-42.875
X117.5Y-136.296
X117.704Y-50.241
X117.856Y-36.068
X118.364Y-21.133
X118.516Y-58.725
X119.431Y-21.133
X119.532Y-58.877
X120.04Y-45.06
X120.396Y-69.19
X120.548Y-21.082
X120.634Y-66.9
X121.107Y-37.033
X122.377Y-37.998
X122.428Y-63.805
X122.53Y-52.273
X122.869Y-58.623
X122.987Y-52.883
X123.139Y-63.398
X123.647Y-108.56
X123.749Y-57.81
X124.003Y-57.15
X124.054Y-59.487
X124.511Y-40.437
X124.765Y-52.222
X126.644Y-28.6
X126.898Y-69.24
X127.559Y-109.22
X128.727Y-119.583
X128.727Y-145.034
X129.337Y-42.062
X130.251Y-40.996
X130.251Y-163.932
X130.708Y-58.877
X131.267Y-159.868
X131.521Y-58.826
X131.877Y-26.467
X131.928Y-160.985
X132.029Y-43.231
X132.334Y-82.601
X132.639Y-158.902
X133.401Y-162.001
X134.62Y-81.94
X136.703Y-110.795
X139.04Y-145.593
X141.427Y-132.283
X142.545Y-115.519
X146.304Y-112.776
T2
X45.771Y-61.824
X46.076Y-47.904
X46.076Y-56.337
X46.177Y-53.543
X46.279Y-113.182
X46.38Y-110.693
X47.65Y-48.006
X47.701Y-61.874
X47.955Y-67.107
X47.955Y-68.986
X48.26Y-120.447
X48.666Y-104.902
X48.717Y-54.102
X48.768Y-55.524
X49.428Y-49.327
X52.984Y-53.797
X53.137Y-47.803
X53.289Y-92.659
X53.543Y-83.617
X53.899Y-56.794
X53.95Y-51.816
X57.81Y-54.305
X57.81Y-55.575
X58.115Y-61.163
X58.369Y-153.416
X58.522Y-104.597
X58.725Y-85.141
X58.725Y-90.678
X58.826Y-109.525
X59.284Y-61.671
X60.909Y-116.992
X61.265Y-157.937
X61.417Y-52.781
X61.773Y-100.584
X62.332Y-95.453
X64.973Y-34.747
X65.532Y-102.006
X66.091Y-116.789
X66.853Y-74.371
X67.767Y-106.223
X67.818Y-57.556
X68.732Y-37.186
X68.732Y-38.354
X69.088Y-26.67
X69.19Y-24.74
X70.104Y-81.839
X71.069Y-78.283
X71.933Y-68.885
X71.933Y-166.218
X72.034Y-139.903
X75.082Y-32.36
X75.184Y-76.2
X75.387Y-56.947
X75.489Y-68.631
X75.59Y-58.217
X75.692Y-61.671
X75.692Y-63.856
X75.692Y-73.558
X76.2Y-78.943
X76.251Y-77.064
X76.708Y-143.002
X76.759Y-169.266
X77.165Y-34.341
X77.927Y-37.541
X78.181Y-47.854
X80.01Y-166.116
X80.162Y-65.735
X80.67Y-37.44
X80.823Y-57.76
X80.924Y-67.462
X84.379Y-87.935
X84.43Y-46.126
X84.582Y-50.038
X84.582Y-152.603
X85.903Y-79.197
X86.462Y-55.626
X87.239Y-83.847
X87.869Y-53.81
X88.9Y-48.971
X89.103Y-155.499
X89.713Y-166.421
X89.88Y-53.899
X91.846Y-46.38
X91.846Y-55.829
X92.025Y-75.184
X92.456Y-42.215
X93.675Y-167.691
X94.386Y-77.978
X94.539Y-168.859
X94.59Y-85.903
X94.64Y-87.478
X95.215Y-46.771
X95.555Y-98.298
X95.825Y-159.5
X95.91Y-77.927
X96.52Y-44.856
X96.672Y-146.761
X96.825Y-109.982
X97.13Y-54.712
X97.13Y-55.728
X97.13Y-167.691
X97.333Y-100.482
X97.892Y-126.594
X98.044Y-109.626
X98.35Y-159.3
X98.425Y-165.45
X98.654Y-100.533
X99.72Y-94.996
X99.822Y-167.742
X99.873Y-100.533
X100.076Y-96.469
X100.381Y-35.052
X100.482Y-87.02
X100.584Y-88.24
X100.787Y-146.609
X100.975Y-159.35
X101.041Y-131.318
X102.108Y-45.517
X102.159Y-46.888
X102.21Y-168.758
X102.819Y-167.437
X103.022Y-109.017
X104.14Y-109.728
X104.191Y-79.4
X104.394Y-158.496
X104.575Y-150.275
X104.775Y-144.8
X104.851Y-100.025
X106.172Y-88.697
X106.223Y-166.827
X106.4Y-162.0
X106.629Y-29.87
X106.934Y-24.943
X107.15Y-150.3
X108.966Y-28.905
X108.975Y-170.475
X109.068Y-22.809
X109.075Y-153.7
X109.159Y-49.983
X110.338Y-56.744
X110.439Y-55.118
X110.571Y-87.559
X110.693Y-84.785
X110.693Y-86.157
X111.252Y-35.763
X111.525Y-159.925
X112.624Y-45.872
X115.113Y-21.234
X115.722Y-67.818
X116.383Y-52.934
X116.688Y-56.236
X116.738Y-65.024
X116.789Y-61.112
X117.1Y-154.4
X117.145Y-21.234
X117.525Y-157.8
X117.551Y-51.714
X117.95Y-165.45
X118.059Y-76.149
X118.059Y-79.146
X118.175Y-161.544
X118.466Y-71.882
X119.025Y-175.4
X119.583Y-76.2
X119.634Y-71.831
X119.634Y-79.248
X119.736Y-36.119
X120.548Y-64.516
X121.615Y-127.0
X122.885Y-149.606
X123.8Y-60.909
X124.358Y-131.572
X125.222Y-22.504
X125.679Y-33.274
X126.725Y-168.025
X127.275Y-171.575
X127.475Y-175.225
X128.118Y-46.431
X128.118Y-47.549
X128.168Y-50.14
X128.524Y-45.364
X129.388Y-24.536
X129.692Y-167.183
X129.946Y-34.493
X130.2Y-21.996
X130.759Y-33.223
X130.81Y-28.55
X131.42Y-36.22
X132.69Y-35.357
X132.791Y-164.998
X133.401Y-26.772
X134.823Y-113.284
X135.687Y-79.451
X136.385Y-139.7
X136.449Y-105.715
X138.176Y-151.841
X139.04Y-117.958
X139.649Y-142.799
X141.173Y-160.477
X141.224Y-159.258
X141.224Y-161.646
X142.291Y-160.426
X142.291Y-161.696
X142.342Y-159.258
X142.49Y-151.177
X143.002Y-32.106
X143.51Y-159.258
X143.51Y-160.477
X143.51Y-161.696
X143.561Y-145.898
X143.764Y-59.842
X145.085Y-145.745
X146.964Y-127.203
X147.015Y-100.432
X147.218Y-84.074
X147.472Y-152.044
X148.031Y-64.567
X148.031Y-169.266
X148.082Y-28.854
X149.149Y-145.999
X150.978Y-130.708
T3
X62.25Y-41.275
X63.5Y-41.275
X135.275Y-41.275
X136.525Y-41.275
T5
X112.3Y-168.275
X114.3Y-168.275
T6
X57.15Y-66.675
X57.15Y-74.295
X75.155Y-23.368
X75.155Y-29.972
X77.155Y-23.368
X77.155Y-29.972
X82.357Y-28.956
X84.357Y-28.956
X85.725Y-34.925
X93.345Y-34.925
T7
X138.375Y-22.225
X142.875Y-22.225
X149.225Y-36.775
X149.225Y-41.275
X149.225Y-52.65
X149.225Y-57.15
T8
X52.008Y-29.85
X54.707Y-28.65
X57.207Y-21.85
X61.307Y-33.05
X61.807Y-25.75
X137.125Y-24.725
X144.125Y-24.725
X146.725Y-35.525
X146.725Y-42.525
X146.725Y-51.4
X146.725Y-58.4
T4
X94.105Y-172.045G85X94.105Y-170.945
G05
X94.105Y-175.975G85X94.105Y-175.375
G05
X102.745Y-172.045G85X102.745Y-170.945
G05
X102.745Y-175.975G85X102.745Y-175.375
G05
T7
X79.823Y-172.244G85X79.823Y-170.244
G05
X83.523Y-168.244G85X85.523Y-168.244
G05
X83.523Y-174.244G85X85.523Y-174.244
G05
T0
M30
