%TF.GenerationSoftware,KiCad,Pcbnew,7.0.1*%
%TF.CreationDate,2024-01-01T11:36:50+00:00*%
%TF.ProjectId,gk,676b2e6b-6963-4616-945f-706362585858,rev?*%
%TF.SameCoordinates,Original*%
%TF.FileFunction,Drillmap*%
%TF.FilePolarity,Positive*%
%FSLAX45Y45*%
G04 Gerber Fmt 4.5, Leading zero omitted, Abs format (unit mm)*
G04 Created by KiCad (PCBNEW 7.0.1) date 2024-01-01 11:36:50*
%MOMM*%
%LPD*%
G01*
G04 APERTURE LIST*
%ADD10C,0.100000*%
%ADD11C,0.200000*%
%ADD12C,0.020000*%
%ADD13C,0.040000*%
%ADD14C,0.050000*%
%ADD15C,0.060000*%
%ADD16C,0.075000*%
%ADD17C,0.080000*%
%ADD18C,0.130000*%
G04 APERTURE END LIST*
D10*
X4445000Y-1905000D02*
X15240000Y-1905000D01*
X15240000Y-17780000D01*
X4445000Y-17780000D01*
X4445000Y-1905000D01*
D11*
D12*
X5125880Y-15763400D02*
X5145880Y-15783400D01*
X5145880Y-15763400D02*
X5125880Y-15783400D01*
X5984400Y-5903120D02*
X6004400Y-5923120D01*
X6004400Y-5903120D02*
X5984400Y-5923120D01*
X6126640Y-5816760D02*
X6146640Y-5836760D01*
X6146640Y-5816760D02*
X6126640Y-5836760D01*
X6279040Y-4816000D02*
X6299040Y-4836000D01*
X6299040Y-4816000D02*
X6279040Y-4836000D01*
X6355240Y-8351680D02*
X6375240Y-8371680D01*
X6375240Y-8351680D02*
X6355240Y-8371680D01*
X6395880Y-14493400D02*
X6415880Y-14513400D01*
X6415880Y-14493400D02*
X6395880Y-14513400D01*
X6395880Y-17033400D02*
X6415880Y-17053400D01*
X6415880Y-17033400D02*
X6395880Y-17053400D01*
X6421280Y-4816000D02*
X6441280Y-4836000D01*
X6441280Y-4816000D02*
X6421280Y-4836000D01*
X6456840Y-10546240D02*
X6476840Y-10566240D01*
X6476840Y-10546240D02*
X6456840Y-10566240D01*
X6503833Y-10636627D02*
X6523833Y-10656627D01*
X6523833Y-10636627D02*
X6503833Y-10656627D01*
X6522880Y-4810920D02*
X6542880Y-4830920D01*
X6542880Y-4810920D02*
X6522880Y-4830920D01*
X6599080Y-4826160D02*
X6619080Y-4846160D01*
X6619080Y-4826160D02*
X6599080Y-4846160D01*
X6604160Y-8915560D02*
X6624160Y-8935560D01*
X6624160Y-8915560D02*
X6604160Y-8935560D01*
X6613790Y-9332650D02*
X6633790Y-9352650D01*
X6633790Y-9332650D02*
X6613790Y-9352650D01*
X6613790Y-10637220D02*
X6633790Y-10657220D01*
X6633790Y-10637220D02*
X6613790Y-10657220D01*
X6614320Y-8021480D02*
X6634320Y-8041480D01*
X6634320Y-8021480D02*
X6614320Y-8041480D01*
X6644800Y-8966360D02*
X6664800Y-8986360D01*
X6664800Y-8966360D02*
X6644800Y-8986360D01*
X6660040Y-10551320D02*
X6680040Y-10571320D01*
X6680040Y-10551320D02*
X6660040Y-10571320D01*
X6731160Y-4069240D02*
X6751160Y-4089240D01*
X6751160Y-4069240D02*
X6731160Y-4089240D01*
X6751480Y-8712360D02*
X6771480Y-8732360D01*
X6771480Y-8712360D02*
X6751480Y-8732360D01*
X6873400Y-8656480D02*
X6893400Y-8676480D01*
X6893400Y-8656480D02*
X6873400Y-8676480D01*
X6964840Y-8580280D02*
X6984840Y-8600280D01*
X6984840Y-8580280D02*
X6964840Y-8600280D01*
X6980080Y-10693560D02*
X7000080Y-10713560D01*
X7000080Y-10693560D02*
X6980080Y-10713560D01*
X6990240Y-5440840D02*
X7010240Y-5460840D01*
X7010240Y-5440840D02*
X6990240Y-5460840D01*
X7030880Y-8499000D02*
X7050880Y-8519000D01*
X7050880Y-8499000D02*
X7030880Y-8519000D01*
X7035960Y-10632600D02*
X7055960Y-10652600D01*
X7055960Y-10632600D02*
X7035960Y-10652600D01*
X7117240Y-8295800D02*
X7137240Y-8315800D01*
X7137240Y-8295800D02*
X7117240Y-8315800D01*
X7117240Y-10632600D02*
X7137240Y-10652600D01*
X7137240Y-10632600D02*
X7117240Y-10652600D01*
X7198520Y-8295800D02*
X7218520Y-8315800D01*
X7218520Y-8295800D02*
X7198520Y-8315800D01*
X7203600Y-10627520D02*
X7223600Y-10647520D01*
X7223600Y-10627520D02*
X7203600Y-10647520D01*
X7386480Y-7655720D02*
X7406480Y-7675720D01*
X7406480Y-7655720D02*
X7386480Y-7675720D01*
X7416960Y-10282080D02*
X7436960Y-10302080D01*
X7436960Y-10282080D02*
X7416960Y-10302080D01*
X7488080Y-5395120D02*
X7508080Y-5415120D01*
X7508080Y-5395120D02*
X7488080Y-5415120D01*
X7564280Y-7549040D02*
X7584280Y-7569040D01*
X7584280Y-7549040D02*
X7564280Y-7569040D01*
X7574440Y-5273200D02*
X7594440Y-5293200D01*
X7594440Y-5273200D02*
X7574440Y-5293200D01*
X7579520Y-10180480D02*
X7599520Y-10200480D01*
X7599520Y-10180480D02*
X7579520Y-10200480D01*
X7630320Y-7538880D02*
X7650320Y-7558880D01*
X7650320Y-7538880D02*
X7630320Y-7558880D01*
X7665880Y-13960000D02*
X7685880Y-13980000D01*
X7685880Y-13960000D02*
X7665880Y-13980000D01*
X7665880Y-15763400D02*
X7685880Y-15783400D01*
X7685880Y-15763400D02*
X7665880Y-15783400D01*
X7701440Y-3698400D02*
X7721440Y-3718400D01*
X7721440Y-3698400D02*
X7701440Y-3718400D01*
X7706520Y-10089040D02*
X7726520Y-10109040D01*
X7726520Y-10089040D02*
X7706520Y-10109040D01*
X7823360Y-9652160D02*
X7843360Y-9672160D01*
X7843360Y-9652160D02*
X7823360Y-9672160D01*
X7884320Y-9565800D02*
X7904320Y-9585800D01*
X7904320Y-9565800D02*
X7884320Y-9585800D01*
X7950360Y-9906160D02*
X7970360Y-9926160D01*
X7970360Y-9906160D02*
X7950360Y-9926160D01*
X8001160Y-10556400D02*
X8021160Y-10576400D01*
X8021160Y-10556400D02*
X8001160Y-10576400D01*
X8011320Y-9997600D02*
X8031320Y-10017600D01*
X8031320Y-9997600D02*
X8011320Y-10017600D01*
X8016400Y-10952640D02*
X8036400Y-10972640D01*
X8036400Y-10952640D02*
X8016400Y-10972640D01*
X8026560Y-9718200D02*
X8046560Y-9738200D01*
X8046560Y-9718200D02*
X8026560Y-9738200D01*
X8042500Y-5622500D02*
X8062500Y-5642500D01*
X8062500Y-5622500D02*
X8042500Y-5642500D01*
X8047581Y-5958925D02*
X8067581Y-5978925D01*
X8067581Y-5958925D02*
X8047581Y-5978925D01*
X8051960Y-7030880D02*
X8071960Y-7050880D01*
X8071960Y-7030880D02*
X8051960Y-7050880D01*
X8051960Y-7670960D02*
X8071960Y-7690960D01*
X8071960Y-7670960D02*
X8051960Y-7690960D01*
X8062682Y-6129427D02*
X8082682Y-6149427D01*
X8082682Y-6129427D02*
X8062682Y-6149427D01*
X8067200Y-9814720D02*
X8087200Y-9834720D01*
X8087200Y-9814720D02*
X8067200Y-9834720D01*
X8082440Y-8229760D02*
X8102440Y-8249760D01*
X8102440Y-8229760D02*
X8082440Y-8249760D01*
X8083313Y-7716433D02*
X8103313Y-7736433D01*
X8103313Y-7716433D02*
X8083313Y-7736433D01*
X8092600Y-6898800D02*
X8112600Y-6918800D01*
X8112600Y-6898800D02*
X8092600Y-6918800D01*
X8092600Y-6985160D02*
X8112600Y-7005160D01*
X8112600Y-6985160D02*
X8092600Y-7005160D01*
X8097680Y-8072280D02*
X8117680Y-8092280D01*
X8117680Y-8072280D02*
X8097680Y-8092280D01*
X8107500Y-6222500D02*
X8127500Y-6242500D01*
X8127500Y-6222500D02*
X8107500Y-6242500D01*
X8110535Y-6066088D02*
X8130535Y-6086088D01*
X8130535Y-6066088D02*
X8110535Y-6086088D01*
X8128160Y-7950360D02*
X8148160Y-7970360D01*
X8148160Y-7950360D02*
X8128160Y-7970360D01*
X8130000Y-7430000D02*
X8150000Y-7450000D01*
X8150000Y-7430000D02*
X8130000Y-7450000D01*
X8131354Y-7845185D02*
X8151354Y-7865185D01*
X8151354Y-7845185D02*
X8131354Y-7865185D01*
X8148480Y-5567840D02*
X8168480Y-5587840D01*
X8168480Y-5567840D02*
X8148480Y-5587840D01*
X8166500Y-7613698D02*
X8186500Y-7633698D01*
X8186500Y-7613698D02*
X8166500Y-7633698D01*
X8167500Y-6182500D02*
X8187500Y-6202500D01*
X8187500Y-6182500D02*
X8167500Y-6202500D01*
X8168800Y-5136040D02*
X8188800Y-5156040D01*
X8188800Y-5136040D02*
X8168800Y-5156040D01*
X8173880Y-6837840D02*
X8193880Y-6857840D01*
X8193880Y-6837840D02*
X8173880Y-6857840D01*
X8189120Y-6670200D02*
X8209120Y-6690200D01*
X8209120Y-6670200D02*
X8189120Y-6690200D01*
X8194200Y-5994560D02*
X8214200Y-6014560D01*
X8214200Y-5994560D02*
X8194200Y-6014560D01*
X8199280Y-8478680D02*
X8219280Y-8498680D01*
X8219280Y-8478680D02*
X8199280Y-8498680D01*
X8214520Y-10282080D02*
X8234520Y-10302080D01*
X8234520Y-10282080D02*
X8214520Y-10302080D01*
X8215550Y-10957720D02*
X8235550Y-10977720D01*
X8235550Y-10957720D02*
X8215550Y-10977720D01*
X8219600Y-8585360D02*
X8239600Y-8605360D01*
X8239600Y-8585360D02*
X8219600Y-8605360D01*
X8224680Y-6934360D02*
X8244680Y-6954360D01*
X8244680Y-6934360D02*
X8224680Y-6954360D01*
X8234840Y-9428640D02*
X8254840Y-9448640D01*
X8254840Y-9428640D02*
X8234840Y-9448640D01*
X8265320Y-10464960D02*
X8285320Y-10484960D01*
X8285320Y-10464960D02*
X8265320Y-10484960D01*
X8265320Y-10871360D02*
X8285320Y-10891360D01*
X8285320Y-10871360D02*
X8265320Y-10891360D01*
X8270400Y-8966360D02*
X8290400Y-8986360D01*
X8290400Y-8966360D02*
X8270400Y-8986360D01*
X8311040Y-9281320D02*
X8331040Y-9301320D01*
X8331040Y-9281320D02*
X8311040Y-9301320D01*
X8311040Y-10957720D02*
X8331040Y-10977720D01*
X8331040Y-10957720D02*
X8311040Y-10977720D01*
X8356760Y-9042560D02*
X8376760Y-9062560D01*
X8376760Y-9042560D02*
X8356760Y-9062560D01*
X8361840Y-4440080D02*
X8381840Y-4460080D01*
X8381840Y-4440080D02*
X8361840Y-4460080D01*
X8361840Y-10383680D02*
X8381840Y-10403680D01*
X8381840Y-10383680D02*
X8361840Y-10403680D01*
X8366920Y-10871360D02*
X8386920Y-10891360D01*
X8386920Y-10871360D02*
X8366920Y-10891360D01*
X8372000Y-4089560D02*
X8392000Y-4109560D01*
X8392000Y-4089560D02*
X8372000Y-4109560D01*
X8407560Y-8504080D02*
X8427560Y-8524080D01*
X8427560Y-8504080D02*
X8407560Y-8524080D01*
X8417720Y-10282080D02*
X8437720Y-10302080D01*
X8437720Y-10282080D02*
X8417720Y-10302080D01*
X8417720Y-10962800D02*
X8437720Y-10982800D01*
X8437720Y-10962800D02*
X8417720Y-10982800D01*
X8463440Y-10871360D02*
X8483440Y-10891360D01*
X8483440Y-10871360D02*
X8463440Y-10891360D01*
X8468520Y-8478680D02*
X8488520Y-8498680D01*
X8488520Y-8478680D02*
X8468520Y-8498680D01*
X8504080Y-5882800D02*
X8524080Y-5902800D01*
X8524080Y-5882800D02*
X8504080Y-5902800D01*
X8514240Y-10175400D02*
X8534240Y-10195400D01*
X8534240Y-10175400D02*
X8514240Y-10195400D01*
X8514240Y-10962800D02*
X8534240Y-10982800D01*
X8534240Y-10962800D02*
X8514240Y-10982800D01*
X8524400Y-7584600D02*
X8544400Y-7604600D01*
X8544400Y-7584600D02*
X8524400Y-7604600D01*
X8559960Y-5832000D02*
X8579960Y-5852000D01*
X8579960Y-5832000D02*
X8559960Y-5852000D01*
X8560000Y-7330000D02*
X8580000Y-7350000D01*
X8580000Y-7330000D02*
X8560000Y-7350000D01*
X8565040Y-10871360D02*
X8585040Y-10891360D01*
X8585040Y-10871360D02*
X8565040Y-10891360D01*
X8567500Y-7047500D02*
X8587500Y-7067500D01*
X8587500Y-7047500D02*
X8567500Y-7067500D01*
X8575200Y-10083960D02*
X8595200Y-10103960D01*
X8595200Y-10083960D02*
X8575200Y-10103960D01*
X8580280Y-8448200D02*
X8600280Y-8468200D01*
X8600280Y-8448200D02*
X8580280Y-8468200D01*
X8595520Y-3916840D02*
X8615520Y-3936840D01*
X8615520Y-3916840D02*
X8595520Y-3936840D01*
X8610000Y-7227500D02*
X8630000Y-7247500D01*
X8630000Y-7227500D02*
X8610000Y-7247500D01*
X8610760Y-10967880D02*
X8630760Y-10987880D01*
X8630760Y-10967880D02*
X8610760Y-10987880D01*
X8611490Y-4947500D02*
X8631490Y-4967500D01*
X8631490Y-4947500D02*
X8611490Y-4967500D01*
X8626000Y-9154320D02*
X8646000Y-9174320D01*
X8646000Y-9154320D02*
X8626000Y-9174320D01*
X8637500Y-5655000D02*
X8657500Y-5675000D01*
X8657500Y-5655000D02*
X8637500Y-5675000D01*
X8646320Y-8483760D02*
X8666320Y-8503760D01*
X8666320Y-8483760D02*
X8646320Y-8503760D01*
X8647500Y-4872500D02*
X8667500Y-4892500D01*
X8667500Y-4872500D02*
X8647500Y-4892500D01*
X8656480Y-9042560D02*
X8676480Y-9062560D01*
X8676480Y-9042560D02*
X8656480Y-9062560D01*
X8661560Y-8311040D02*
X8681560Y-8331040D01*
X8681560Y-8311040D02*
X8661560Y-8331040D01*
X8665000Y-7372500D02*
X8685000Y-7392500D01*
X8685000Y-7372500D02*
X8665000Y-7392500D01*
X8666640Y-10871360D02*
X8686640Y-10891360D01*
X8686640Y-10871360D02*
X8666640Y-10891360D01*
X8681880Y-3871120D02*
X8701880Y-3891120D01*
X8701880Y-3871120D02*
X8681880Y-3891120D01*
X8681880Y-5044600D02*
X8701880Y-5064600D01*
X8701880Y-5044600D02*
X8681880Y-5064600D01*
X8682500Y-7110000D02*
X8702500Y-7130000D01*
X8702500Y-7110000D02*
X8682500Y-7130000D01*
X8695000Y-4789070D02*
X8715000Y-4809070D01*
X8715000Y-4789070D02*
X8695000Y-4809070D01*
X8707280Y-4983640D02*
X8727280Y-5003640D01*
X8727280Y-4983640D02*
X8707280Y-5003640D01*
X8717440Y-10972960D02*
X8737440Y-10992960D01*
X8737440Y-10972960D02*
X8717440Y-10992960D01*
X8722520Y-9352440D02*
X8742520Y-9372440D01*
X8742520Y-9352440D02*
X8722520Y-9372440D01*
X8737760Y-4013360D02*
X8757760Y-4033360D01*
X8757760Y-4013360D02*
X8737760Y-4033360D01*
X8753000Y-4917600D02*
X8773000Y-4937600D01*
X8773000Y-4917600D02*
X8753000Y-4937600D01*
X8763160Y-8468520D02*
X8783160Y-8488520D01*
X8783160Y-8468520D02*
X8763160Y-8488520D01*
X8768240Y-10876440D02*
X8788240Y-10896440D01*
X8788240Y-10876440D02*
X8768240Y-10896440D01*
X8773320Y-10109360D02*
X8793320Y-10129360D01*
X8793320Y-10109360D02*
X8773320Y-10129360D01*
X8782500Y-7510000D02*
X8802500Y-7530000D01*
X8802500Y-7510000D02*
X8782500Y-7530000D01*
X8793640Y-7579520D02*
X8813640Y-7599520D01*
X8813640Y-7579520D02*
X8793640Y-7599520D01*
X8793640Y-8397400D02*
X8813640Y-8417400D01*
X8813640Y-8397400D02*
X8793640Y-8417400D01*
X8813960Y-10957720D02*
X8833960Y-10977720D01*
X8833960Y-10957720D02*
X8813960Y-10977720D01*
X8819040Y-9494680D02*
X8839040Y-9514680D01*
X8839040Y-9494680D02*
X8819040Y-9514680D01*
X8824120Y-10556400D02*
X8844120Y-10576400D01*
X8844120Y-10556400D02*
X8824120Y-10576400D01*
X8864760Y-7604920D02*
X8884760Y-7624920D01*
X8884760Y-7604920D02*
X8864760Y-7624920D01*
X8867500Y-6445000D02*
X8887500Y-6465000D01*
X8887500Y-6445000D02*
X8867500Y-6465000D01*
X8869840Y-9733440D02*
X8889840Y-9753440D01*
X8889840Y-9733440D02*
X8869840Y-9753440D01*
X8869840Y-10876440D02*
X8889840Y-10896440D01*
X8889840Y-10876440D02*
X8869840Y-10896440D01*
X8872500Y-6205000D02*
X8892500Y-6225000D01*
X8892500Y-6205000D02*
X8872500Y-6225000D01*
X8872500Y-7533800D02*
X8892500Y-7553800D01*
X8892500Y-7533800D02*
X8872500Y-7553800D01*
X8885080Y-8966360D02*
X8905080Y-8986360D01*
X8905080Y-8966360D02*
X8885080Y-8986360D01*
X8890160Y-4531520D02*
X8910160Y-4551520D01*
X8910160Y-4531520D02*
X8890160Y-4551520D01*
X8915560Y-10957720D02*
X8935560Y-10977720D01*
X8935560Y-10957720D02*
X8915560Y-10977720D01*
X8935880Y-13223400D02*
X8955880Y-13243400D01*
X8955880Y-13223400D02*
X8935880Y-13243400D01*
X8942500Y-7520000D02*
X8962500Y-7540000D01*
X8962500Y-7520000D02*
X8942500Y-7540000D01*
X8946040Y-9352440D02*
X8966040Y-9372440D01*
X8966040Y-9352440D02*
X8946040Y-9372440D01*
X8960000Y-4965000D02*
X8980000Y-4985000D01*
X8980000Y-4965000D02*
X8960000Y-4985000D01*
X8966360Y-10876440D02*
X8986360Y-10896440D01*
X8986360Y-10876440D02*
X8966360Y-10896440D01*
X8971440Y-10165240D02*
X8991440Y-10185240D01*
X8991440Y-10165240D02*
X8971440Y-10185240D01*
X8991760Y-4841400D02*
X9011760Y-4861400D01*
X9011760Y-4841400D02*
X8991760Y-4861400D01*
X9007000Y-10007760D02*
X9027000Y-10027760D01*
X9027000Y-10007760D02*
X9007000Y-10027760D01*
X9017160Y-10962800D02*
X9037160Y-10982800D01*
X9037160Y-10962800D02*
X9017160Y-10982800D01*
X9027320Y-7914800D02*
X9047320Y-7934800D01*
X9047320Y-7914800D02*
X9027320Y-7934800D01*
X9032500Y-7366160D02*
X9052500Y-7386160D01*
X9052500Y-7366160D02*
X9032500Y-7386160D01*
X9035000Y-6332500D02*
X9055000Y-6352500D01*
X9055000Y-6332500D02*
X9035000Y-6352500D01*
X9057800Y-7803040D02*
X9077800Y-7823040D01*
X9077800Y-7803040D02*
X9057800Y-7823040D01*
X9062880Y-7965600D02*
X9082880Y-7985600D01*
X9082880Y-7965600D02*
X9062880Y-7985600D01*
X9062880Y-9890920D02*
X9082880Y-9910920D01*
X9082880Y-9890920D02*
X9062880Y-9910920D01*
X9067960Y-10876440D02*
X9087960Y-10896440D01*
X9087960Y-10876440D02*
X9067960Y-10896440D01*
X9103520Y-8321200D02*
X9123520Y-8341200D01*
X9123520Y-8321200D02*
X9103520Y-8341200D01*
X9108600Y-9814720D02*
X9128600Y-9834720D01*
X9128600Y-9814720D02*
X9108600Y-9834720D01*
X9112500Y-7455000D02*
X9132500Y-7475000D01*
X9132500Y-7455000D02*
X9112500Y-7475000D01*
X9113680Y-10962800D02*
X9133680Y-10982800D01*
X9133680Y-10962800D02*
X9113680Y-10982800D01*
X9117500Y-4865000D02*
X9137500Y-4885000D01*
X9137500Y-4865000D02*
X9117500Y-4885000D01*
X9120000Y-6277500D02*
X9140000Y-6297500D01*
X9140000Y-6277500D02*
X9120000Y-6297500D01*
X9139080Y-5334160D02*
X9159080Y-5354160D01*
X9159080Y-5334160D02*
X9139080Y-5354160D01*
X9159400Y-8001160D02*
X9179400Y-8021160D01*
X9179400Y-8001160D02*
X9159400Y-8021160D01*
X9169560Y-10881520D02*
X9189560Y-10901520D01*
X9189560Y-10881520D02*
X9169560Y-10901520D01*
X9194960Y-9149240D02*
X9214960Y-9169240D01*
X9214960Y-9149240D02*
X9194960Y-9169240D01*
X9205120Y-8260240D02*
X9225120Y-8280240D01*
X9225120Y-8260240D02*
X9205120Y-8280240D01*
X9210000Y-5795000D02*
X9230000Y-5815000D01*
X9230000Y-5795000D02*
X9210000Y-5815000D01*
X9215280Y-10967880D02*
X9235280Y-10987880D01*
X9235280Y-10967880D02*
X9215280Y-10987880D01*
X9220360Y-3698400D02*
X9240360Y-3718400D01*
X9240360Y-3698400D02*
X9220360Y-3718400D01*
X9225440Y-9499760D02*
X9245440Y-9519760D01*
X9245440Y-9499760D02*
X9225440Y-9519760D01*
X9250840Y-4582320D02*
X9270840Y-4602320D01*
X9270840Y-4582320D02*
X9250840Y-4602320D01*
X9257500Y-8001160D02*
X9277500Y-8021160D01*
X9277500Y-8001160D02*
X9257500Y-8021160D01*
X9266080Y-9200040D02*
X9286080Y-9220040D01*
X9286080Y-9200040D02*
X9266080Y-9220040D01*
X9266080Y-10881520D02*
X9286080Y-10901520D01*
X9286080Y-10881520D02*
X9266080Y-10901520D01*
X9272500Y-6225000D02*
X9292500Y-6245000D01*
X9292500Y-6225000D02*
X9272500Y-6245000D01*
X9290000Y-6387500D02*
X9310000Y-6407500D01*
X9310000Y-6387500D02*
X9290000Y-6407500D01*
X9302500Y-8377500D02*
X9322500Y-8397500D01*
X9322500Y-8377500D02*
X9302500Y-8397500D01*
X9316880Y-10962800D02*
X9336880Y-10982800D01*
X9336880Y-10962800D02*
X9316880Y-10982800D01*
X9337200Y-9352440D02*
X9357200Y-9372440D01*
X9357200Y-9352440D02*
X9337200Y-9372440D01*
X9350000Y-7452500D02*
X9370000Y-7472500D01*
X9370000Y-7452500D02*
X9350000Y-7472500D01*
X9352500Y-5880000D02*
X9372500Y-5900000D01*
X9372500Y-5880000D02*
X9352500Y-5900000D01*
X9355000Y-7640000D02*
X9375000Y-7660000D01*
X9375000Y-7640000D02*
X9355000Y-7660000D01*
X9362500Y-8430000D02*
X9382500Y-8450000D01*
X9382500Y-8430000D02*
X9362500Y-8450000D01*
X9362600Y-10876440D02*
X9382600Y-10896440D01*
X9382600Y-10876440D02*
X9362600Y-10896440D01*
X9374330Y-10216040D02*
X9394330Y-10236040D01*
X9394330Y-10216040D02*
X9374330Y-10236040D01*
X9408320Y-9433720D02*
X9428320Y-9453720D01*
X9428320Y-9433720D02*
X9408320Y-9453720D01*
X9412500Y-8357500D02*
X9432500Y-8377500D01*
X9432500Y-8357500D02*
X9412500Y-8377500D01*
X9413400Y-10988200D02*
X9433400Y-11008200D01*
X9433400Y-10988200D02*
X9413400Y-11008200D01*
X9430000Y-7510000D02*
X9450000Y-7530000D01*
X9450000Y-7510000D02*
X9430000Y-7530000D01*
X9460000Y-6532500D02*
X9480000Y-6552500D01*
X9480000Y-6532500D02*
X9460000Y-6552500D01*
X9464200Y-10876440D02*
X9484200Y-10896440D01*
X9484200Y-10876440D02*
X9464200Y-10896440D01*
X9479440Y-9662320D02*
X9499440Y-9682320D01*
X9499440Y-9662320D02*
X9479440Y-9682320D01*
X9490000Y-8477500D02*
X9510000Y-8497500D01*
X9510000Y-8477500D02*
X9490000Y-8497500D01*
X9494680Y-4470560D02*
X9514680Y-4490560D01*
X9514680Y-4470560D02*
X9494680Y-4490560D01*
X9500000Y-5815000D02*
X9520000Y-5835000D01*
X9520000Y-5815000D02*
X9500000Y-5835000D01*
X9504840Y-5039520D02*
X9524840Y-5059520D01*
X9524840Y-5039520D02*
X9504840Y-5059520D01*
X9512500Y-7965000D02*
X9532500Y-7985000D01*
X9532500Y-7965000D02*
X9512500Y-7985000D01*
X9515000Y-7402500D02*
X9535000Y-7422500D01*
X9535000Y-7402500D02*
X9515000Y-7422500D01*
X9515000Y-10983120D02*
X9535000Y-11003120D01*
X9535000Y-10983120D02*
X9515000Y-11003120D01*
X9525160Y-10241440D02*
X9545160Y-10261440D01*
X9545160Y-10241440D02*
X9525160Y-10261440D01*
X9542500Y-4917500D02*
X9562500Y-4937500D01*
X9562500Y-4917500D02*
X9542500Y-4937500D01*
X9552848Y-8360549D02*
X9572848Y-8380549D01*
X9572848Y-8360549D02*
X9552848Y-8380549D01*
X9585000Y-5950000D02*
X9605000Y-5970000D01*
X9605000Y-5950000D02*
X9585000Y-5970000D01*
X9587500Y-7572500D02*
X9607500Y-7592500D01*
X9607500Y-7572500D02*
X9587500Y-7592500D01*
X9596280Y-7970680D02*
X9616280Y-7990680D01*
X9616280Y-7970680D02*
X9596280Y-7990680D01*
X9612500Y-5882500D02*
X9632500Y-5902500D01*
X9632500Y-5882500D02*
X9612500Y-5902500D01*
X9647080Y-3972720D02*
X9667080Y-3992720D01*
X9667080Y-3972720D02*
X9647080Y-3992720D01*
X9662500Y-8357500D02*
X9682500Y-8377500D01*
X9682500Y-8357500D02*
X9662500Y-8377500D01*
X9665000Y-4972500D02*
X9685000Y-4992500D01*
X9685000Y-4972500D02*
X9665000Y-4992500D01*
X9667400Y-7970680D02*
X9687400Y-7990680D01*
X9687400Y-7970680D02*
X9667400Y-7990680D01*
X9675405Y-5809930D02*
X9695405Y-5829930D01*
X9695405Y-5809930D02*
X9675405Y-5829930D01*
X9682640Y-9636920D02*
X9702640Y-9656920D01*
X9702640Y-9636920D02*
X9682640Y-9656920D01*
X9687720Y-8930800D02*
X9707720Y-8950800D01*
X9707720Y-8930800D02*
X9687720Y-8950800D01*
X9730000Y-5860000D02*
X9750000Y-5880000D01*
X9750000Y-5860000D02*
X9730000Y-5880000D01*
X9733440Y-13934600D02*
X9753440Y-13954600D01*
X9753440Y-13934600D02*
X9733440Y-13954600D01*
X9757500Y-7975000D02*
X9777500Y-7995000D01*
X9777500Y-7975000D02*
X9757500Y-7995000D01*
X9763920Y-9123840D02*
X9783920Y-9143840D01*
X9783920Y-9123840D02*
X9763920Y-9143840D01*
X9767500Y-4777500D02*
X9787500Y-4797500D01*
X9787500Y-4777500D02*
X9767500Y-4797500D01*
X9777500Y-5920000D02*
X9797500Y-5940000D01*
X9797500Y-5920000D02*
X9777500Y-5940000D01*
X9779160Y-9642000D02*
X9799160Y-9662000D01*
X9799160Y-9642000D02*
X9779160Y-9662000D01*
X9801997Y-15777500D02*
X9821997Y-15797500D01*
X9821997Y-15777500D02*
X9801997Y-15797500D01*
X9805000Y-16802500D02*
X9825000Y-16822500D01*
X9825000Y-16802500D02*
X9805000Y-16822500D01*
X9817500Y-5387500D02*
X9837500Y-5407500D01*
X9837500Y-5387500D02*
X9817500Y-5407500D01*
X9824880Y-7996080D02*
X9844880Y-8016080D01*
X9844880Y-7996080D02*
X9824880Y-8016080D01*
X9824880Y-9047640D02*
X9844880Y-9067640D01*
X9844880Y-9047640D02*
X9824880Y-9067640D01*
X9832500Y-7520000D02*
X9852500Y-7540000D01*
X9852500Y-7520000D02*
X9832500Y-7540000D01*
X9840120Y-9647080D02*
X9860120Y-9667080D01*
X9860120Y-9647080D02*
X9840120Y-9667080D01*
X9842500Y-4787500D02*
X9862500Y-4807500D01*
X9862500Y-4787500D02*
X9842500Y-4807500D01*
X9852500Y-8355000D02*
X9872500Y-8375000D01*
X9872500Y-8355000D02*
X9852500Y-8375000D01*
X9860000Y-16885000D02*
X9880000Y-16905000D01*
X9880000Y-16885000D02*
X9860000Y-16905000D01*
X9877500Y-16725000D02*
X9897500Y-16745000D01*
X9897500Y-16725000D02*
X9877500Y-16745000D01*
X9887500Y-15685000D02*
X9907500Y-15705000D01*
X9907500Y-15685000D02*
X9887500Y-15705000D01*
X9910000Y-4860000D02*
X9930000Y-4880000D01*
X9930000Y-4860000D02*
X9910000Y-4880000D01*
X9910000Y-5857500D02*
X9930000Y-5877500D01*
X9930000Y-5857500D02*
X9910000Y-5877500D01*
X9917500Y-16850000D02*
X9937500Y-16870000D01*
X9937500Y-16850000D02*
X9917500Y-16870000D01*
X9932500Y-6277500D02*
X9952500Y-6297500D01*
X9952500Y-6277500D02*
X9932500Y-6297500D01*
X9990000Y-5920000D02*
X10010000Y-5940000D01*
X10010000Y-5920000D02*
X9990000Y-5940000D01*
X9990000Y-7692500D02*
X10010000Y-7712500D01*
X10010000Y-7692500D02*
X9990000Y-7712500D01*
X9992744Y-7072274D02*
X10012744Y-7092274D01*
X10012744Y-7072274D02*
X9992744Y-7092274D01*
X9997500Y-5652500D02*
X10017500Y-5672500D01*
X10017500Y-5652500D02*
X9997500Y-5672500D01*
X10010000Y-8572500D02*
X10030000Y-8592500D01*
X10030000Y-8572500D02*
X10010000Y-8592500D01*
X10062500Y-7580000D02*
X10082500Y-7600000D01*
X10082500Y-7580000D02*
X10062500Y-7600000D01*
X10067500Y-4962570D02*
X10087500Y-4982570D01*
X10087500Y-4962570D02*
X10067500Y-4982570D01*
X10070000Y-5865000D02*
X10090000Y-5885000D01*
X10090000Y-5865000D02*
X10070000Y-5885000D01*
X10070000Y-7387500D02*
X10090000Y-7407500D01*
X10090000Y-7387500D02*
X10070000Y-7407500D01*
X10079965Y-8557510D02*
X10099965Y-8577510D01*
X10099965Y-8557510D02*
X10079965Y-8577510D01*
X10112500Y-7460000D02*
X10132500Y-7480000D01*
X10132500Y-7460000D02*
X10112500Y-7480000D01*
X10131740Y-8542345D02*
X10151740Y-8562345D01*
X10151740Y-8542345D02*
X10131740Y-8562345D01*
X10150000Y-5932500D02*
X10170000Y-5952500D01*
X10170000Y-5932500D02*
X10150000Y-5952500D01*
X10150000Y-8615000D02*
X10170000Y-8635000D01*
X10170000Y-8615000D02*
X10150000Y-8635000D01*
X10155000Y-7102500D02*
X10175000Y-7122500D01*
X10175000Y-7102500D02*
X10155000Y-7122500D01*
X10157500Y-6385000D02*
X10177500Y-6405000D01*
X10177500Y-6385000D02*
X10157500Y-6405000D01*
X10165000Y-4965000D02*
X10185000Y-4985000D01*
X10185000Y-4965000D02*
X10165000Y-4985000D01*
X10172500Y-7530000D02*
X10192500Y-7550000D01*
X10192500Y-7530000D02*
X10172500Y-7550000D01*
X10200000Y-8692500D02*
X10220000Y-8712500D01*
X10220000Y-8692500D02*
X10200000Y-8712500D01*
X10207500Y-7640000D02*
X10227500Y-7660000D01*
X10227500Y-7640000D02*
X10207500Y-7660000D01*
X10216040Y-10983120D02*
X10236040Y-11003120D01*
X10236040Y-10983120D02*
X10216040Y-11003120D01*
X10221120Y-9555640D02*
X10241120Y-9575640D01*
X10241120Y-9555640D02*
X10221120Y-9575640D01*
X10222500Y-4845000D02*
X10242500Y-4865000D01*
X10242500Y-4845000D02*
X10222500Y-4865000D01*
X10235000Y-5935000D02*
X10255000Y-5955000D01*
X10255000Y-5935000D02*
X10235000Y-5955000D01*
X10235000Y-7032500D02*
X10255000Y-7052500D01*
X10255000Y-7032500D02*
X10235000Y-7052500D01*
X10240556Y-8618845D02*
X10260556Y-8638845D01*
X10260556Y-8618845D02*
X10240556Y-8638845D01*
X10277000Y-7991000D02*
X10297000Y-8011000D01*
X10297000Y-7991000D02*
X10277000Y-8011000D01*
X10287500Y-7890000D02*
X10307500Y-7910000D01*
X10307500Y-7890000D02*
X10287500Y-7910000D01*
X10302400Y-10556400D02*
X10322400Y-10576400D01*
X10322400Y-10556400D02*
X10302400Y-10576400D01*
X10307500Y-7455000D02*
X10327500Y-7475000D01*
X10327500Y-7455000D02*
X10307500Y-7475000D01*
X10312560Y-8646320D02*
X10332560Y-8666320D01*
X10332560Y-8646320D02*
X10312560Y-8666320D01*
X10322720Y-4165760D02*
X10342720Y-4185760D01*
X10342720Y-4165760D02*
X10322720Y-4185760D01*
X10322720Y-4490880D02*
X10342720Y-4510880D01*
X10342720Y-4490880D02*
X10322720Y-4510880D01*
X10327500Y-5842500D02*
X10347500Y-5862500D01*
X10347500Y-5842500D02*
X10327500Y-5862500D01*
X10340000Y-7032500D02*
X10360000Y-7052500D01*
X10360000Y-7032500D02*
X10340000Y-7052500D01*
X10348120Y-4739800D02*
X10368120Y-4759800D01*
X10368120Y-4739800D02*
X10348120Y-4759800D01*
X10377500Y-5910000D02*
X10397500Y-5930000D01*
X10397500Y-5910000D02*
X10377500Y-5930000D01*
X10393840Y-7584600D02*
X10413840Y-7604600D01*
X10413840Y-7584600D02*
X10393840Y-7604600D01*
X10395000Y-6222500D02*
X10415000Y-6242500D01*
X10415000Y-6222500D02*
X10395000Y-6242500D01*
X10395000Y-7460000D02*
X10415000Y-7480000D01*
X10415000Y-7460000D02*
X10395000Y-7480000D01*
X10412500Y-8477570D02*
X10432500Y-8497570D01*
X10432500Y-8477570D02*
X10412500Y-8497570D01*
X10420000Y-6285000D02*
X10440000Y-6305000D01*
X10440000Y-6285000D02*
X10420000Y-6305000D01*
X10422500Y-5432500D02*
X10442500Y-5452500D01*
X10442500Y-5432500D02*
X10422500Y-5452500D01*
X10454800Y-4536600D02*
X10474800Y-4556600D01*
X10474800Y-4536600D02*
X10454800Y-4556600D01*
X10467500Y-5390000D02*
X10487500Y-5410000D01*
X10487500Y-5390000D02*
X10467500Y-5410000D01*
X10475000Y-7465000D02*
X10495000Y-7485000D01*
X10495000Y-7465000D02*
X10475000Y-7485000D01*
X10482500Y-6532500D02*
X10502500Y-6552500D01*
X10502500Y-6532500D02*
X10482500Y-6552500D01*
X10502500Y-6285000D02*
X10522500Y-6305000D01*
X10522500Y-6285000D02*
X10502500Y-6305000D01*
X10555000Y-6207500D02*
X10575000Y-6227500D01*
X10575000Y-6207500D02*
X10555000Y-6227500D01*
X10556400Y-4734720D02*
X10576400Y-4754720D01*
X10576400Y-4734720D02*
X10556400Y-4754720D01*
X10557500Y-6595000D02*
X10577500Y-6615000D01*
X10577500Y-6595000D02*
X10557500Y-6615000D01*
X10560000Y-7477500D02*
X10580000Y-7497500D01*
X10580000Y-7477500D02*
X10560000Y-7497500D01*
X10560000Y-8427500D02*
X10580000Y-8447500D01*
X10580000Y-8427500D02*
X10560000Y-8447500D01*
X10607200Y-4775360D02*
X10627200Y-4795360D01*
X10627200Y-4775360D02*
X10607200Y-4795360D01*
X10632500Y-8350000D02*
X10652500Y-8370000D01*
X10652500Y-8350000D02*
X10632500Y-8370000D01*
X10632600Y-10866280D02*
X10652600Y-10886280D01*
X10652600Y-10866280D02*
X10632600Y-10886280D01*
X10640000Y-6212500D02*
X10660000Y-6232500D01*
X10660000Y-6212500D02*
X10640000Y-6232500D01*
X10647500Y-6660000D02*
X10667500Y-6680000D01*
X10667500Y-6660000D02*
X10647500Y-6680000D01*
X10655000Y-7482500D02*
X10675000Y-7502500D01*
X10675000Y-7482500D02*
X10655000Y-7502500D01*
X10673240Y-4816000D02*
X10693240Y-4836000D01*
X10693240Y-4816000D02*
X10673240Y-4836000D01*
X10678320Y-8473600D02*
X10698320Y-8493600D01*
X10698320Y-8473600D02*
X10678320Y-8493600D01*
X10678320Y-9169560D02*
X10698320Y-9189560D01*
X10698320Y-9169560D02*
X10678320Y-9189560D01*
X10698640Y-10810400D02*
X10718640Y-10830400D01*
X10718640Y-10810400D02*
X10698640Y-10830400D01*
X10705000Y-8392500D02*
X10725000Y-8412500D01*
X10725000Y-8392500D02*
X10705000Y-8412500D01*
X10707500Y-6282500D02*
X10727500Y-6302500D01*
X10727500Y-6282500D02*
X10707500Y-6302500D01*
X10713880Y-11033920D02*
X10733880Y-11053920D01*
X10733880Y-11033920D02*
X10713880Y-11053920D01*
X10718960Y-5486560D02*
X10738960Y-5506560D01*
X10738960Y-5486560D02*
X10718960Y-5506560D01*
X10720000Y-6732500D02*
X10740000Y-6752500D01*
X10740000Y-6732500D02*
X10720000Y-6752500D01*
X10720000Y-6965000D02*
X10740000Y-6985000D01*
X10740000Y-6965000D02*
X10720000Y-6985000D01*
X10764680Y-5339240D02*
X10784680Y-5359240D01*
X10784680Y-5339240D02*
X10764680Y-5359240D01*
X10772500Y-8345000D02*
X10792500Y-8365000D01*
X10792500Y-8345000D02*
X10772500Y-8365000D01*
X10774840Y-8407560D02*
X10794840Y-8427560D01*
X10794840Y-8407560D02*
X10774840Y-8427560D01*
X10774840Y-9347360D02*
X10794840Y-9367360D01*
X10794840Y-9347360D02*
X10774840Y-9367360D01*
X10787500Y-6897500D02*
X10807500Y-6917500D01*
X10807500Y-6897500D02*
X10787500Y-6917500D01*
X10792500Y-6797500D02*
X10812500Y-6817500D01*
X10812500Y-6797500D02*
X10792500Y-6817500D01*
X10795000Y-4855000D02*
X10815000Y-4875000D01*
X10815000Y-4855000D02*
X10795000Y-4875000D01*
X10795000Y-6217500D02*
X10815000Y-6237500D01*
X10815000Y-6217500D02*
X10795000Y-6237500D01*
X10842724Y-8414173D02*
X10862724Y-8434173D01*
X10862724Y-8414173D02*
X10842724Y-8434173D01*
X10851040Y-4734720D02*
X10871040Y-4754720D01*
X10871040Y-4734720D02*
X10851040Y-4754720D01*
X10858660Y-11356500D02*
X10878660Y-11376500D01*
X10878660Y-11356500D02*
X10858660Y-11376500D01*
X10874560Y-7983140D02*
X10894560Y-8003140D01*
X10894560Y-7983140D02*
X10874560Y-8003140D01*
X10887500Y-7532500D02*
X10907500Y-7552500D01*
X10907500Y-7532500D02*
X10887500Y-7552500D01*
X10927342Y-7994310D02*
X10947342Y-8014310D01*
X10947342Y-7994310D02*
X10927342Y-8014310D01*
X10935000Y-7440000D02*
X10955000Y-7460000D01*
X10955000Y-7440000D02*
X10935000Y-7460000D01*
X10945000Y-6270000D02*
X10965000Y-6290000D01*
X10965000Y-6270000D02*
X10945000Y-6290000D01*
X10962603Y-8305976D02*
X10982603Y-8325976D01*
X10982603Y-8305976D02*
X10962603Y-8325976D01*
X10978485Y-7958950D02*
X10998485Y-7978950D01*
X10998485Y-7958950D02*
X10978485Y-7978950D01*
X10985000Y-6445000D02*
X11005000Y-6465000D01*
X11005000Y-6445000D02*
X10985000Y-6465000D01*
X10985210Y-5010720D02*
X11005210Y-5030720D01*
X11005210Y-5010720D02*
X10985210Y-5030720D01*
X11005000Y-7435000D02*
X11025000Y-7455000D01*
X11025000Y-7435000D02*
X11005000Y-7455000D01*
X11037500Y-6337500D02*
X11057500Y-6357500D01*
X11057500Y-6337500D02*
X11037500Y-6357500D01*
X11049160Y-5339240D02*
X11069160Y-5359240D01*
X11069160Y-5339240D02*
X11049160Y-5359240D01*
X11049160Y-7955440D02*
X11069160Y-7975440D01*
X11069160Y-7955440D02*
X11049160Y-7975440D01*
X11062500Y-7375000D02*
X11082500Y-7395000D01*
X11082500Y-7375000D02*
X11062500Y-7395000D01*
X11089800Y-4617880D02*
X11109800Y-4637880D01*
X11109800Y-4617880D02*
X11089800Y-4637880D01*
X11112500Y-4867500D02*
X11132500Y-4887500D01*
X11132500Y-4867500D02*
X11112500Y-4887500D01*
X11112500Y-6682500D02*
X11132500Y-6702500D01*
X11132500Y-6682500D02*
X11112500Y-6702500D01*
X11115000Y-7032500D02*
X11135000Y-7052500D01*
X11135000Y-7032500D02*
X11115000Y-7052500D01*
X11115200Y-5821840D02*
X11135200Y-5841840D01*
X11135200Y-5821840D02*
X11115200Y-5841840D01*
X11120280Y-5928520D02*
X11140280Y-5948520D01*
X11140280Y-5928520D02*
X11120280Y-5948520D01*
X11125360Y-7960520D02*
X11145360Y-7980520D01*
X11145360Y-7960520D02*
X11125360Y-7980520D01*
X11130440Y-5725320D02*
X11150440Y-5745320D01*
X11150440Y-5725320D02*
X11130440Y-5745320D01*
X11145680Y-11674000D02*
X11165680Y-11694000D01*
X11165680Y-11674000D02*
X11145680Y-11694000D01*
X11150760Y-7584600D02*
X11170760Y-7604600D01*
X11170760Y-7584600D02*
X11150760Y-7604600D01*
X11216800Y-4699160D02*
X11236800Y-4719160D01*
X11236800Y-4699160D02*
X11216800Y-4719160D01*
X11232040Y-8245000D02*
X11252040Y-8265000D01*
X11252040Y-8245000D02*
X11232040Y-8265000D01*
X11242200Y-9281320D02*
X11262200Y-9301320D01*
X11262200Y-9281320D02*
X11242200Y-9301320D01*
X11257440Y-10282080D02*
X11277440Y-10302080D01*
X11277440Y-10282080D02*
X11257440Y-10302080D01*
X11262520Y-10464960D02*
X11282520Y-10484960D01*
X11282520Y-10464960D02*
X11262520Y-10484960D01*
X11267600Y-10373520D02*
X11287600Y-10393520D01*
X11287600Y-10373520D02*
X11267600Y-10393520D01*
X11282840Y-2103280D02*
X11302840Y-2123280D01*
X11302840Y-2103280D02*
X11282840Y-2123280D01*
X11293000Y-8275480D02*
X11313000Y-8295480D01*
X11313000Y-8275480D02*
X11293000Y-8295480D01*
X11298080Y-10023000D02*
X11318080Y-10043000D01*
X11318080Y-10023000D02*
X11298080Y-10043000D01*
X11303160Y-10144920D02*
X11323160Y-10164920D01*
X11323160Y-10144920D02*
X11303160Y-10164920D01*
X11313320Y-5064920D02*
X11333320Y-5084920D01*
X11333320Y-5064920D02*
X11313320Y-5084920D01*
X11313320Y-8377080D02*
X11333320Y-8397080D01*
X11333320Y-8377080D02*
X11313320Y-8397080D01*
X11318400Y-4988720D02*
X11338400Y-5008720D01*
X11338400Y-4988720D02*
X11318400Y-5008720D01*
X11318400Y-10972960D02*
X11338400Y-10992960D01*
X11338400Y-10972960D02*
X11318400Y-10992960D01*
X11323480Y-4267360D02*
X11343480Y-4287360D01*
X11343480Y-4267360D02*
X11323480Y-4287360D01*
X11323480Y-4729640D02*
X11343480Y-4749640D01*
X11343480Y-4729640D02*
X11323480Y-4749640D01*
X11323480Y-10779920D02*
X11343480Y-10799920D01*
X11343480Y-10779920D02*
X11323480Y-10799920D01*
X11323480Y-10876440D02*
X11343480Y-10896440D01*
X11343480Y-10876440D02*
X11323480Y-10896440D01*
X11328560Y-11577480D02*
X11348560Y-11597480D01*
X11348560Y-11577480D02*
X11328560Y-11597480D01*
X11343800Y-8880000D02*
X11363800Y-8900000D01*
X11363800Y-8880000D02*
X11343800Y-8900000D01*
X11353960Y-5232560D02*
X11373960Y-5252560D01*
X11373960Y-5232560D02*
X11353960Y-5252560D01*
X11359040Y-10200800D02*
X11379040Y-10220800D01*
X11379040Y-10200800D02*
X11359040Y-10220800D01*
X11364120Y-10282080D02*
X11384120Y-10302080D01*
X11384120Y-10282080D02*
X11364120Y-10302080D01*
X11364804Y-8393206D02*
X11384804Y-8413206D01*
X11384804Y-8393206D02*
X11364804Y-8413206D01*
X11369200Y-8245000D02*
X11389200Y-8265000D01*
X11389200Y-8245000D02*
X11369200Y-8265000D01*
X11369200Y-11074560D02*
X11389200Y-11094560D01*
X11389200Y-11074560D02*
X11369200Y-11094560D01*
X11376193Y-8324367D02*
X11396193Y-8344367D01*
X11396193Y-8324367D02*
X11376193Y-8344367D01*
X11394600Y-2103280D02*
X11414600Y-2123280D01*
X11414600Y-2103280D02*
X11394600Y-2123280D01*
X11425080Y-4236880D02*
X11445080Y-4256880D01*
X11445080Y-4236880D02*
X11425080Y-4256880D01*
X11425080Y-4998880D02*
X11445080Y-5018880D01*
X11445080Y-4998880D02*
X11425080Y-5018880D01*
X11430160Y-7681120D02*
X11450160Y-7701120D01*
X11450160Y-7681120D02*
X11430160Y-7701120D01*
X11480960Y-7635400D02*
X11500960Y-7655400D01*
X11500960Y-7635400D02*
X11480960Y-7655400D01*
X11502500Y-5928520D02*
X11522500Y-5948520D01*
X11522500Y-5928520D02*
X11502500Y-5948520D01*
X11502500Y-6417500D02*
X11522500Y-6437500D01*
X11522500Y-6417500D02*
X11502500Y-6437500D01*
X11552080Y-7584600D02*
X11572080Y-7604600D01*
X11572080Y-7584600D02*
X11552080Y-7604600D01*
X11552500Y-6472500D02*
X11572500Y-6492500D01*
X11572500Y-6472500D02*
X11552500Y-6492500D01*
X11557500Y-5852500D02*
X11577500Y-5872500D01*
X11577500Y-5852500D02*
X11557500Y-5872500D01*
X11572500Y-7722500D02*
X11592500Y-7742500D01*
X11592500Y-7722500D02*
X11572500Y-7742500D01*
X11587640Y-11577480D02*
X11607640Y-11597480D01*
X11607640Y-11577480D02*
X11587640Y-11597480D01*
X11592500Y-5532500D02*
X11612500Y-5552500D01*
X11612500Y-5532500D02*
X11592500Y-5552500D01*
X11592720Y-11074560D02*
X11612720Y-11094560D01*
X11612720Y-11074560D02*
X11592720Y-11094560D01*
X11592720Y-13218320D02*
X11612720Y-13238320D01*
X11612720Y-13218320D02*
X11592720Y-13238320D01*
X11602880Y-2103280D02*
X11622880Y-2123280D01*
X11622880Y-2103280D02*
X11602880Y-2123280D01*
X11602880Y-3535840D02*
X11622880Y-3555840D01*
X11622880Y-3535840D02*
X11602880Y-3555840D01*
X11602880Y-10978040D02*
X11622880Y-10998040D01*
X11622880Y-10978040D02*
X11602880Y-10998040D01*
X11610000Y-7270000D02*
X11630000Y-7290000D01*
X11630000Y-7270000D02*
X11610000Y-7290000D01*
X11610000Y-7545000D02*
X11630000Y-7565000D01*
X11630000Y-7545000D02*
X11610000Y-7565000D01*
X11612500Y-7040000D02*
X11632500Y-7060000D01*
X11632500Y-7040000D02*
X11612500Y-7060000D01*
X11615000Y-6590000D02*
X11635000Y-6610000D01*
X11635000Y-6590000D02*
X11615000Y-6610000D01*
X11617500Y-6240000D02*
X11637500Y-6260000D01*
X11637500Y-6240000D02*
X11617500Y-6260000D01*
X11618120Y-10861200D02*
X11638120Y-10881200D01*
X11638120Y-10861200D02*
X11618120Y-10881200D01*
X11623200Y-10769760D02*
X11643200Y-10789760D01*
X11643200Y-10769760D02*
X11623200Y-10789760D01*
X11668920Y-4277520D02*
X11688920Y-4297520D01*
X11688920Y-4277520D02*
X11668920Y-4297520D01*
X11740040Y-13619640D02*
X11760040Y-13639640D01*
X11760040Y-13619640D02*
X11740040Y-13639640D01*
X11760360Y-5014120D02*
X11780360Y-5034120D01*
X11780360Y-5014120D02*
X11760360Y-5034120D01*
X11775600Y-3596800D02*
X11795600Y-3616800D01*
X11795600Y-3596800D02*
X11775600Y-3616800D01*
X11826400Y-2103280D02*
X11846400Y-2123280D01*
X11846400Y-2103280D02*
X11826400Y-2123280D01*
X11841640Y-5862480D02*
X11861640Y-5882480D01*
X11861640Y-5862480D02*
X11841640Y-5882480D01*
X11933080Y-2103280D02*
X11953080Y-2123280D01*
X11953080Y-2103280D02*
X11933080Y-2123280D01*
X11943240Y-5877720D02*
X11963240Y-5897720D01*
X11963240Y-5877720D02*
X11943240Y-5897720D01*
X11994040Y-4495960D02*
X12014040Y-4515960D01*
X12014040Y-4495960D02*
X11994040Y-4515960D01*
X12029600Y-6908960D02*
X12049600Y-6928960D01*
X12049600Y-6908960D02*
X12029600Y-6928960D01*
X12044840Y-2098200D02*
X12064840Y-2118200D01*
X12064840Y-2098200D02*
X12044840Y-2118200D01*
X12053430Y-6680000D02*
X12073430Y-6700000D01*
X12073430Y-6680000D02*
X12053430Y-6700000D01*
X12100720Y-3693320D02*
X12120720Y-3713320D01*
X12120720Y-3693320D02*
X12100720Y-3713320D01*
X12227720Y-3789840D02*
X12247720Y-3809840D01*
X12247720Y-3789840D02*
X12227720Y-3809840D01*
X12232800Y-6370480D02*
X12252800Y-6390480D01*
X12252800Y-6370480D02*
X12232800Y-6390480D01*
X12242960Y-5217320D02*
X12262960Y-5237320D01*
X12262960Y-5217320D02*
X12242960Y-5237320D01*
X12276950Y-5852320D02*
X12296950Y-5872320D01*
X12296950Y-5852320D02*
X12276950Y-5872320D01*
X12288680Y-5278280D02*
X12308680Y-5298280D01*
X12308680Y-5278280D02*
X12288680Y-5298280D01*
X12303920Y-6329840D02*
X12323920Y-6349840D01*
X12323920Y-6329840D02*
X12303920Y-6349840D01*
X12354720Y-10845960D02*
X12374720Y-10865960D01*
X12374720Y-10845960D02*
X12354720Y-10865960D01*
X12364880Y-5771040D02*
X12384880Y-5791040D01*
X12384880Y-5771040D02*
X12364880Y-5791040D01*
X12390280Y-5705000D02*
X12410280Y-5725000D01*
X12410280Y-5705000D02*
X12390280Y-5725000D01*
X12395360Y-5938680D02*
X12415360Y-5958680D01*
X12415360Y-5938680D02*
X12395360Y-5958680D01*
X12441080Y-4033680D02*
X12461080Y-4053680D01*
X12461080Y-4033680D02*
X12441080Y-4053680D01*
X12466480Y-5212240D02*
X12486480Y-5232240D01*
X12486480Y-5212240D02*
X12466480Y-5232240D01*
X12654440Y-2850040D02*
X12674440Y-2870040D01*
X12674440Y-2850040D02*
X12654440Y-2870040D01*
X12679840Y-6914040D02*
X12699840Y-6934040D01*
X12699840Y-6914040D02*
X12679840Y-6934040D01*
X12745880Y-10912000D02*
X12765880Y-10932000D01*
X12765880Y-10912000D02*
X12745880Y-10932000D01*
X12862720Y-11948320D02*
X12882720Y-11968320D01*
X12882720Y-11948320D02*
X12862720Y-11968320D01*
X12862720Y-14493400D02*
X12882720Y-14513400D01*
X12882720Y-14493400D02*
X12862720Y-14513400D01*
X12923680Y-4196240D02*
X12943680Y-4216240D01*
X12943680Y-4196240D02*
X12923680Y-4216240D01*
X13015120Y-4089560D02*
X13035120Y-4109560D01*
X13035120Y-4089560D02*
X13015120Y-4109560D01*
X13015120Y-16383160D02*
X13035120Y-16403160D01*
X13035120Y-16383160D02*
X13015120Y-16403160D01*
X13060840Y-5877720D02*
X13080840Y-5897720D01*
X13080840Y-5877720D02*
X13060840Y-5897720D01*
X13116720Y-15976760D02*
X13136720Y-15996760D01*
X13136720Y-15976760D02*
X13116720Y-15996760D01*
X13142120Y-5872640D02*
X13162120Y-5892640D01*
X13162120Y-5872640D02*
X13142120Y-5892640D01*
X13177680Y-2636680D02*
X13197680Y-2656680D01*
X13197680Y-2636680D02*
X13177680Y-2656680D01*
X13182760Y-16088520D02*
X13202760Y-16108520D01*
X13202760Y-16088520D02*
X13182760Y-16108520D01*
X13192920Y-4313080D02*
X13212920Y-4333080D01*
X13212920Y-4313080D02*
X13192920Y-4333080D01*
X13223400Y-8250080D02*
X13243400Y-8270080D01*
X13243400Y-8250080D02*
X13223400Y-8270080D01*
X13253880Y-15880240D02*
X13273880Y-15900240D01*
X13273880Y-15880240D02*
X13253880Y-15900240D01*
X13330080Y-16190120D02*
X13350080Y-16210120D01*
X13350080Y-16190120D02*
X13330080Y-16210120D01*
X13452000Y-8184040D02*
X13472000Y-8204040D01*
X13472000Y-8184040D02*
X13452000Y-8204040D01*
X13660280Y-11069480D02*
X13680280Y-11089480D01*
X13680280Y-11069480D02*
X13660280Y-11089480D01*
X13893960Y-14549280D02*
X13913960Y-14569280D01*
X13913960Y-14549280D02*
X13893960Y-14569280D01*
X14132720Y-13218320D02*
X14152720Y-13238320D01*
X14152720Y-13218320D02*
X14132720Y-13238320D01*
X14244480Y-11541920D02*
X14264480Y-11561920D01*
X14264480Y-11541920D02*
X14244480Y-11561920D01*
X14620400Y-11267600D02*
X14640400Y-11287600D01*
X14640400Y-11267600D02*
X14620400Y-11287600D01*
D13*
X4597080Y-6182360D02*
G75*
G03*
X4597080Y-6182360I-20000J0D01*
G01*
X4627560Y-4790440D02*
G75*
G03*
X4627560Y-4790440I-20000J0D01*
G01*
X4627560Y-5633720D02*
G75*
G03*
X4627560Y-5633720I-20000J0D01*
G01*
X4637720Y-5354320D02*
G75*
G03*
X4637720Y-5354320I-20000J0D01*
G01*
X4647880Y-11318240D02*
G75*
G03*
X4647880Y-11318240I-20000J0D01*
G01*
X4658040Y-11069320D02*
G75*
G03*
X4658040Y-11069320I-20000J0D01*
G01*
X4785040Y-4800600D02*
G75*
G03*
X4785040Y-4800600I-20000J0D01*
G01*
X4790120Y-6187440D02*
G75*
G03*
X4790120Y-6187440I-20000J0D01*
G01*
X4815520Y-6710680D02*
G75*
G03*
X4815520Y-6710680I-20000J0D01*
G01*
X4815520Y-6898640D02*
G75*
G03*
X4815520Y-6898640I-20000J0D01*
G01*
X4846000Y-12044680D02*
G75*
G03*
X4846000Y-12044680I-20000J0D01*
G01*
X4886640Y-10490200D02*
G75*
G03*
X4886640Y-10490200I-20000J0D01*
G01*
X4891720Y-5410200D02*
G75*
G03*
X4891720Y-5410200I-20000J0D01*
G01*
X4896800Y-5552440D02*
G75*
G03*
X4896800Y-5552440I-20000J0D01*
G01*
X4962840Y-4932680D02*
G75*
G03*
X4962840Y-4932680I-20000J0D01*
G01*
X5318440Y-5379720D02*
G75*
G03*
X5318440Y-5379720I-20000J0D01*
G01*
X5333680Y-4780280D02*
G75*
G03*
X5333680Y-4780280I-20000J0D01*
G01*
X5348920Y-9265920D02*
G75*
G03*
X5348920Y-9265920I-20000J0D01*
G01*
X5374320Y-8361680D02*
G75*
G03*
X5374320Y-8361680I-20000J0D01*
G01*
X5409880Y-5679440D02*
G75*
G03*
X5409880Y-5679440I-20000J0D01*
G01*
X5414960Y-5181600D02*
G75*
G03*
X5414960Y-5181600I-20000J0D01*
G01*
X5801040Y-5430520D02*
G75*
G03*
X5801040Y-5430520I-20000J0D01*
G01*
X5801040Y-5557520D02*
G75*
G03*
X5801040Y-5557520I-20000J0D01*
G01*
X5831520Y-6116320D02*
G75*
G03*
X5831520Y-6116320I-20000J0D01*
G01*
X5856920Y-15341600D02*
G75*
G03*
X5856920Y-15341600I-20000J0D01*
G01*
X5872160Y-10459720D02*
G75*
G03*
X5872160Y-10459720I-20000J0D01*
G01*
X5892480Y-8514080D02*
G75*
G03*
X5892480Y-8514080I-20000J0D01*
G01*
X5892480Y-9067800D02*
G75*
G03*
X5892480Y-9067800I-20000J0D01*
G01*
X5902640Y-10952480D02*
G75*
G03*
X5902640Y-10952480I-20000J0D01*
G01*
X5948360Y-6167120D02*
G75*
G03*
X5948360Y-6167120I-20000J0D01*
G01*
X6110920Y-11699240D02*
G75*
G03*
X6110920Y-11699240I-20000J0D01*
G01*
X6146480Y-15793720D02*
G75*
G03*
X6146480Y-15793720I-20000J0D01*
G01*
X6161720Y-5278120D02*
G75*
G03*
X6161720Y-5278120I-20000J0D01*
G01*
X6197280Y-10058400D02*
G75*
G03*
X6197280Y-10058400I-20000J0D01*
G01*
X6253160Y-9545320D02*
G75*
G03*
X6253160Y-9545320I-20000J0D01*
G01*
X6517320Y-3474720D02*
G75*
G03*
X6517320Y-3474720I-20000J0D01*
G01*
X6573200Y-10200640D02*
G75*
G03*
X6573200Y-10200640I-20000J0D01*
G01*
X6629080Y-11678920D02*
G75*
G03*
X6629080Y-11678920I-20000J0D01*
G01*
X6705280Y-7437120D02*
G75*
G03*
X6705280Y-7437120I-20000J0D01*
G01*
X6796720Y-10622280D02*
G75*
G03*
X6796720Y-10622280I-20000J0D01*
G01*
X6801800Y-5755640D02*
G75*
G03*
X6801800Y-5755640I-20000J0D01*
G01*
X6893240Y-3718560D02*
G75*
G03*
X6893240Y-3718560I-20000J0D01*
G01*
X6893240Y-3835400D02*
G75*
G03*
X6893240Y-3835400I-20000J0D01*
G01*
X6928800Y-2667000D02*
G75*
G03*
X6928800Y-2667000I-20000J0D01*
G01*
X6938960Y-2473960D02*
G75*
G03*
X6938960Y-2473960I-20000J0D01*
G01*
X7030400Y-8183880D02*
G75*
G03*
X7030400Y-8183880I-20000J0D01*
G01*
X7126920Y-7828280D02*
G75*
G03*
X7126920Y-7828280I-20000J0D01*
G01*
X7213280Y-6888480D02*
G75*
G03*
X7213280Y-6888480I-20000J0D01*
G01*
X7213280Y-16621760D02*
G75*
G03*
X7213280Y-16621760I-20000J0D01*
G01*
X7223440Y-13990320D02*
G75*
G03*
X7223440Y-13990320I-20000J0D01*
G01*
X7528240Y-3235960D02*
G75*
G03*
X7528240Y-3235960I-20000J0D01*
G01*
X7538400Y-7620000D02*
G75*
G03*
X7538400Y-7620000I-20000J0D01*
G01*
X7558720Y-5694680D02*
G75*
G03*
X7558720Y-5694680I-20000J0D01*
G01*
X7568880Y-6863080D02*
G75*
G03*
X7568880Y-6863080I-20000J0D01*
G01*
X7579040Y-5821680D02*
G75*
G03*
X7579040Y-5821680I-20000J0D01*
G01*
X7589200Y-6167120D02*
G75*
G03*
X7589200Y-6167120I-20000J0D01*
G01*
X7589200Y-6385560D02*
G75*
G03*
X7589200Y-6385560I-20000J0D01*
G01*
X7589200Y-7355840D02*
G75*
G03*
X7589200Y-7355840I-20000J0D01*
G01*
X7640000Y-7894320D02*
G75*
G03*
X7640000Y-7894320I-20000J0D01*
G01*
X7645080Y-7706360D02*
G75*
G03*
X7645080Y-7706360I-20000J0D01*
G01*
X7690800Y-14300200D02*
G75*
G03*
X7690800Y-14300200I-20000J0D01*
G01*
X7695880Y-16926560D02*
G75*
G03*
X7695880Y-16926560I-20000J0D01*
G01*
X7736520Y-3434080D02*
G75*
G03*
X7736520Y-3434080I-20000J0D01*
G01*
X7812720Y-3754120D02*
G75*
G03*
X7812720Y-3754120I-20000J0D01*
G01*
X7838120Y-4785360D02*
G75*
G03*
X7838120Y-4785360I-20000J0D01*
G01*
X8021000Y-16611600D02*
G75*
G03*
X8021000Y-16611600I-20000J0D01*
G01*
X8036240Y-6573520D02*
G75*
G03*
X8036240Y-6573520I-20000J0D01*
G01*
X8087040Y-3743960D02*
G75*
G03*
X8087040Y-3743960I-20000J0D01*
G01*
X8102280Y-5775960D02*
G75*
G03*
X8102280Y-5775960I-20000J0D01*
G01*
X8112440Y-6746240D02*
G75*
G03*
X8112440Y-6746240I-20000J0D01*
G01*
X8457880Y-8793480D02*
G75*
G03*
X8457880Y-8793480I-20000J0D01*
G01*
X8462960Y-4612640D02*
G75*
G03*
X8462960Y-4612640I-20000J0D01*
G01*
X8478200Y-5003800D02*
G75*
G03*
X8478200Y-5003800I-20000J0D01*
G01*
X8478200Y-15260320D02*
G75*
G03*
X8478200Y-15260320I-20000J0D01*
G01*
X8610280Y-7919720D02*
G75*
G03*
X8610280Y-7919720I-20000J0D01*
G01*
X8666160Y-5562600D02*
G75*
G03*
X8666160Y-5562600I-20000J0D01*
G01*
X8743921Y-8384730D02*
G75*
G03*
X8743921Y-8384730I-20000J0D01*
G01*
X8806870Y-5381016D02*
G75*
G03*
X8806870Y-5381016I-20000J0D01*
G01*
X8910000Y-4897120D02*
G75*
G03*
X8910000Y-4897120I-20000J0D01*
G01*
X8930320Y-15549880D02*
G75*
G03*
X8930320Y-15549880I-20000J0D01*
G01*
X8991280Y-16642080D02*
G75*
G03*
X8991280Y-16642080I-20000J0D01*
G01*
X9008000Y-5389880D02*
G75*
G03*
X9008000Y-5389880I-20000J0D01*
G01*
X9204640Y-4638040D02*
G75*
G03*
X9204640Y-4638040I-20000J0D01*
G01*
X9204640Y-5582920D02*
G75*
G03*
X9204640Y-5582920I-20000J0D01*
G01*
X9222500Y-7518400D02*
G75*
G03*
X9222500Y-7518400I-20000J0D01*
G01*
X9265600Y-4221480D02*
G75*
G03*
X9265600Y-4221480I-20000J0D01*
G01*
X9387520Y-16769080D02*
G75*
G03*
X9387520Y-16769080I-20000J0D01*
G01*
X9458640Y-7797800D02*
G75*
G03*
X9458640Y-7797800I-20000J0D01*
G01*
X9473880Y-16885920D02*
G75*
G03*
X9473880Y-16885920I-20000J0D01*
G01*
X9478960Y-8590280D02*
G75*
G03*
X9478960Y-8590280I-20000J0D01*
G01*
X9484040Y-8747760D02*
G75*
G03*
X9484040Y-8747760I-20000J0D01*
G01*
X9541450Y-4677119D02*
G75*
G03*
X9541450Y-4677119I-20000J0D01*
G01*
X9575480Y-9829800D02*
G75*
G03*
X9575480Y-9829800I-20000J0D01*
G01*
X9602500Y-15950000D02*
G75*
G03*
X9602500Y-15950000I-20000J0D01*
G01*
X9611040Y-7792720D02*
G75*
G03*
X9611040Y-7792720I-20000J0D01*
G01*
X9672000Y-4485640D02*
G75*
G03*
X9672000Y-4485640I-20000J0D01*
G01*
X9687240Y-14676120D02*
G75*
G03*
X9687240Y-14676120I-20000J0D01*
G01*
X9702480Y-10998200D02*
G75*
G03*
X9702480Y-10998200I-20000J0D01*
G01*
X9732960Y-5471160D02*
G75*
G03*
X9732960Y-5471160I-20000J0D01*
G01*
X9732960Y-5572760D02*
G75*
G03*
X9732960Y-5572760I-20000J0D01*
G01*
X9732960Y-16769080D02*
G75*
G03*
X9732960Y-16769080I-20000J0D01*
G01*
X9753280Y-10048240D02*
G75*
G03*
X9753280Y-10048240I-20000J0D01*
G01*
X9809160Y-12659360D02*
G75*
G03*
X9809160Y-12659360I-20000J0D01*
G01*
X9824400Y-10962640D02*
G75*
G03*
X9824400Y-10962640I-20000J0D01*
G01*
X9855000Y-15930000D02*
G75*
G03*
X9855000Y-15930000I-20000J0D01*
G01*
X9862500Y-16545000D02*
G75*
G03*
X9862500Y-16545000I-20000J0D01*
G01*
X9885360Y-10053320D02*
G75*
G03*
X9885360Y-10053320I-20000J0D01*
G01*
X9992040Y-9499600D02*
G75*
G03*
X9992040Y-9499600I-20000J0D01*
G01*
X10002200Y-16774160D02*
G75*
G03*
X10002200Y-16774160I-20000J0D01*
G01*
X10007280Y-10053320D02*
G75*
G03*
X10007280Y-10053320I-20000J0D01*
G01*
X10027600Y-9646920D02*
G75*
G03*
X10027600Y-9646920I-20000J0D01*
G01*
X10058080Y-3505200D02*
G75*
G03*
X10058080Y-3505200I-20000J0D01*
G01*
X10068240Y-8702040D02*
G75*
G03*
X10068240Y-8702040I-20000J0D01*
G01*
X10078400Y-8823960D02*
G75*
G03*
X10078400Y-8823960I-20000J0D01*
G01*
X10098720Y-14660880D02*
G75*
G03*
X10098720Y-14660880I-20000J0D01*
G01*
X10117500Y-15935000D02*
G75*
G03*
X10117500Y-15935000I-20000J0D01*
G01*
X10124120Y-13131800D02*
G75*
G03*
X10124120Y-13131800I-20000J0D01*
G01*
X10230800Y-4551680D02*
G75*
G03*
X10230800Y-4551680I-20000J0D01*
G01*
X10235880Y-4688840D02*
G75*
G03*
X10235880Y-4688840I-20000J0D01*
G01*
X10240960Y-16875760D02*
G75*
G03*
X10240960Y-16875760I-20000J0D01*
G01*
X10301920Y-16743680D02*
G75*
G03*
X10301920Y-16743680I-20000J0D01*
G01*
X10322240Y-10901680D02*
G75*
G03*
X10322240Y-10901680I-20000J0D01*
G01*
X10434000Y-10972800D02*
G75*
G03*
X10434000Y-10972800I-20000J0D01*
G01*
X10439080Y-7940040D02*
G75*
G03*
X10439080Y-7940040I-20000J0D01*
G01*
X10459400Y-15849600D02*
G75*
G03*
X10459400Y-15849600I-20000J0D01*
G01*
X10477500Y-15027500D02*
G75*
G03*
X10477500Y-15027500I-20000J0D01*
G01*
X10497500Y-14480000D02*
G75*
G03*
X10497500Y-14480000I-20000J0D01*
G01*
X10505120Y-10002520D02*
G75*
G03*
X10505120Y-10002520I-20000J0D01*
G01*
X10637200Y-8869680D02*
G75*
G03*
X10637200Y-8869680I-20000J0D01*
G01*
X10642280Y-16682720D02*
G75*
G03*
X10642280Y-16682720I-20000J0D01*
G01*
X10660000Y-16200000D02*
G75*
G03*
X10660000Y-16200000I-20000J0D01*
G01*
X10682920Y-2987040D02*
G75*
G03*
X10682920Y-2987040I-20000J0D01*
G01*
X10713400Y-2494280D02*
G75*
G03*
X10713400Y-2494280I-20000J0D01*
G01*
X10735000Y-15030000D02*
G75*
G03*
X10735000Y-15030000I-20000J0D01*
G01*
X10916600Y-2890520D02*
G75*
G03*
X10916600Y-2890520I-20000J0D01*
G01*
X10917500Y-17047500D02*
G75*
G03*
X10917500Y-17047500I-20000J0D01*
G01*
X10926760Y-2280920D02*
G75*
G03*
X10926760Y-2280920I-20000J0D01*
G01*
X10927500Y-15370000D02*
G75*
G03*
X10927500Y-15370000I-20000J0D01*
G01*
X10935877Y-4998264D02*
G75*
G03*
X10935877Y-4998264I-20000J0D01*
G01*
X11053760Y-5674360D02*
G75*
G03*
X11053760Y-5674360I-20000J0D01*
G01*
X11063920Y-5511800D02*
G75*
G03*
X11063920Y-5511800I-20000J0D01*
G01*
X11077101Y-8755861D02*
G75*
G03*
X11077101Y-8755861I-20000J0D01*
G01*
X11089320Y-8478520D02*
G75*
G03*
X11089320Y-8478520I-20000J0D01*
G01*
X11089320Y-8615680D02*
G75*
G03*
X11089320Y-8615680I-20000J0D01*
G01*
X11145200Y-3576320D02*
G75*
G03*
X11145200Y-3576320I-20000J0D01*
G01*
X11172500Y-15992500D02*
G75*
G03*
X11172500Y-15992500I-20000J0D01*
G01*
X11282360Y-4587240D02*
G75*
G03*
X11282360Y-4587240I-20000J0D01*
G01*
X11531280Y-2123440D02*
G75*
G03*
X11531280Y-2123440I-20000J0D01*
G01*
X11592240Y-6781800D02*
G75*
G03*
X11592240Y-6781800I-20000J0D01*
G01*
X11658280Y-5293360D02*
G75*
G03*
X11658280Y-5293360I-20000J0D01*
G01*
X11688760Y-5623560D02*
G75*
G03*
X11688760Y-5623560I-20000J0D01*
G01*
X11693840Y-6502400D02*
G75*
G03*
X11693840Y-6502400I-20000J0D01*
G01*
X11698920Y-6111240D02*
G75*
G03*
X11698920Y-6111240I-20000J0D01*
G01*
X11730000Y-15440000D02*
G75*
G03*
X11730000Y-15440000I-20000J0D01*
G01*
X11734480Y-2123440D02*
G75*
G03*
X11734480Y-2123440I-20000J0D01*
G01*
X11772500Y-15780000D02*
G75*
G03*
X11772500Y-15780000I-20000J0D01*
G01*
X11775120Y-5171440D02*
G75*
G03*
X11775120Y-5171440I-20000J0D01*
G01*
X11815000Y-16545000D02*
G75*
G03*
X11815000Y-16545000I-20000J0D01*
G01*
X11825920Y-7614920D02*
G75*
G03*
X11825920Y-7614920I-20000J0D01*
G01*
X11825920Y-7914640D02*
G75*
G03*
X11825920Y-7914640I-20000J0D01*
G01*
X11837500Y-16154400D02*
G75*
G03*
X11837500Y-16154400I-20000J0D01*
G01*
X11866560Y-7188200D02*
G75*
G03*
X11866560Y-7188200I-20000J0D01*
G01*
X11922500Y-17540000D02*
G75*
G03*
X11922500Y-17540000I-20000J0D01*
G01*
X11978320Y-7620000D02*
G75*
G03*
X11978320Y-7620000I-20000J0D01*
G01*
X11983400Y-7183120D02*
G75*
G03*
X11983400Y-7183120I-20000J0D01*
G01*
X11983400Y-7924800D02*
G75*
G03*
X11983400Y-7924800I-20000J0D01*
G01*
X11993560Y-3611880D02*
G75*
G03*
X11993560Y-3611880I-20000J0D01*
G01*
X12074840Y-6451600D02*
G75*
G03*
X12074840Y-6451600I-20000J0D01*
G01*
X12181520Y-12700000D02*
G75*
G03*
X12181520Y-12700000I-20000J0D01*
G01*
X12308520Y-14960600D02*
G75*
G03*
X12308520Y-14960600I-20000J0D01*
G01*
X12399960Y-6090920D02*
G75*
G03*
X12399960Y-6090920I-20000J0D01*
G01*
X12455840Y-13157200D02*
G75*
G03*
X12455840Y-13157200I-20000J0D01*
G01*
X12542200Y-2250440D02*
G75*
G03*
X12542200Y-2250440I-20000J0D01*
G01*
X12587920Y-3327400D02*
G75*
G03*
X12587920Y-3327400I-20000J0D01*
G01*
X12692500Y-16802500D02*
G75*
G03*
X12692500Y-16802500I-20000J0D01*
G01*
X12747500Y-17157500D02*
G75*
G03*
X12747500Y-17157500I-20000J0D01*
G01*
X12767500Y-17522500D02*
G75*
G03*
X12767500Y-17522500I-20000J0D01*
G01*
X12831760Y-4643120D02*
G75*
G03*
X12831760Y-4643120I-20000J0D01*
G01*
X12831760Y-4754880D02*
G75*
G03*
X12831760Y-4754880I-20000J0D01*
G01*
X12836840Y-5013960D02*
G75*
G03*
X12836840Y-5013960I-20000J0D01*
G01*
X12872400Y-4536440D02*
G75*
G03*
X12872400Y-4536440I-20000J0D01*
G01*
X12958760Y-2453640D02*
G75*
G03*
X12958760Y-2453640I-20000J0D01*
G01*
X12989240Y-16718280D02*
G75*
G03*
X12989240Y-16718280I-20000J0D01*
G01*
X13014640Y-3449320D02*
G75*
G03*
X13014640Y-3449320I-20000J0D01*
G01*
X13040040Y-2199640D02*
G75*
G03*
X13040040Y-2199640I-20000J0D01*
G01*
X13095920Y-3322320D02*
G75*
G03*
X13095920Y-3322320I-20000J0D01*
G01*
X13101000Y-2854960D02*
G75*
G03*
X13101000Y-2854960I-20000J0D01*
G01*
X13161960Y-3622040D02*
G75*
G03*
X13161960Y-3622040I-20000J0D01*
G01*
X13288960Y-3535680D02*
G75*
G03*
X13288960Y-3535680I-20000J0D01*
G01*
X13299120Y-16499840D02*
G75*
G03*
X13299120Y-16499840I-20000J0D01*
G01*
X13360080Y-2677160D02*
G75*
G03*
X13360080Y-2677160I-20000J0D01*
G01*
X13502320Y-11328400D02*
G75*
G03*
X13502320Y-11328400I-20000J0D01*
G01*
X13588680Y-7945120D02*
G75*
G03*
X13588680Y-7945120I-20000J0D01*
G01*
X13658500Y-13970000D02*
G75*
G03*
X13658500Y-13970000I-20000J0D01*
G01*
X13664880Y-10571480D02*
G75*
G03*
X13664880Y-10571480I-20000J0D01*
G01*
X13837600Y-15184120D02*
G75*
G03*
X13837600Y-15184120I-20000J0D01*
G01*
X13923960Y-11795760D02*
G75*
G03*
X13923960Y-11795760I-20000J0D01*
G01*
X13984920Y-14279880D02*
G75*
G03*
X13984920Y-14279880I-20000J0D01*
G01*
X14137320Y-16047720D02*
G75*
G03*
X14137320Y-16047720I-20000J0D01*
G01*
X14142400Y-15925800D02*
G75*
G03*
X14142400Y-15925800I-20000J0D01*
G01*
X14142400Y-16164560D02*
G75*
G03*
X14142400Y-16164560I-20000J0D01*
G01*
X14249080Y-16042640D02*
G75*
G03*
X14249080Y-16042640I-20000J0D01*
G01*
X14249080Y-16169640D02*
G75*
G03*
X14249080Y-16169640I-20000J0D01*
G01*
X14254160Y-15925800D02*
G75*
G03*
X14254160Y-15925800I-20000J0D01*
G01*
X14269000Y-15117680D02*
G75*
G03*
X14269000Y-15117680I-20000J0D01*
G01*
X14320200Y-3210560D02*
G75*
G03*
X14320200Y-3210560I-20000J0D01*
G01*
X14371000Y-15925800D02*
G75*
G03*
X14371000Y-15925800I-20000J0D01*
G01*
X14371000Y-16047720D02*
G75*
G03*
X14371000Y-16047720I-20000J0D01*
G01*
X14371000Y-16169640D02*
G75*
G03*
X14371000Y-16169640I-20000J0D01*
G01*
X14376080Y-14589760D02*
G75*
G03*
X14376080Y-14589760I-20000J0D01*
G01*
X14396400Y-5984240D02*
G75*
G03*
X14396400Y-5984240I-20000J0D01*
G01*
X14528480Y-14574520D02*
G75*
G03*
X14528480Y-14574520I-20000J0D01*
G01*
X14716440Y-12720320D02*
G75*
G03*
X14716440Y-12720320I-20000J0D01*
G01*
X14721520Y-10043160D02*
G75*
G03*
X14721520Y-10043160I-20000J0D01*
G01*
X14741840Y-8407400D02*
G75*
G03*
X14741840Y-8407400I-20000J0D01*
G01*
X14767240Y-15204440D02*
G75*
G03*
X14767240Y-15204440I-20000J0D01*
G01*
X14823120Y-6456680D02*
G75*
G03*
X14823120Y-6456680I-20000J0D01*
G01*
X14823120Y-16926560D02*
G75*
G03*
X14823120Y-16926560I-20000J0D01*
G01*
X14828200Y-2885440D02*
G75*
G03*
X14828200Y-2885440I-20000J0D01*
G01*
X14934880Y-14599920D02*
G75*
G03*
X14934880Y-14599920I-20000J0D01*
G01*
X15117760Y-13070840D02*
G75*
G03*
X15117760Y-13070840I-20000J0D01*
G01*
D14*
X6225000Y-4102500D02*
X6225000Y-4152500D01*
X6200000Y-4127500D02*
X6250000Y-4127500D01*
X6350000Y-4102500D02*
X6350000Y-4152500D01*
X6325000Y-4127500D02*
X6375000Y-4127500D01*
X13527500Y-4102500D02*
X13527500Y-4152500D01*
X13502500Y-4127500D02*
X13552500Y-4127500D01*
X13652500Y-4102500D02*
X13652500Y-4152500D01*
X13627500Y-4127500D02*
X13677500Y-4127500D01*
D15*
X9431713Y-17170713D02*
X9431713Y-17128287D01*
X9389287Y-17128287D01*
X9389287Y-17170713D01*
X9431713Y-17170713D01*
D11*
X9440500Y-17204500D02*
X9440500Y-17094500D01*
X9440500Y-17094500D02*
G75*
G03*
X9380500Y-17094500I-30000J0D01*
G01*
X9380500Y-17094500D02*
X9380500Y-17204500D01*
X9380500Y-17204500D02*
G75*
G03*
X9440500Y-17204500I30000J0D01*
G01*
D15*
X9431713Y-17588713D02*
X9431713Y-17546287D01*
X9389287Y-17546287D01*
X9389287Y-17588713D01*
X9431713Y-17588713D01*
D11*
X9440500Y-17597500D02*
X9440500Y-17537500D01*
X9440500Y-17537500D02*
G75*
G03*
X9380500Y-17537500I-30000J0D01*
G01*
X9380500Y-17537500D02*
X9380500Y-17597500D01*
X9380500Y-17597500D02*
G75*
G03*
X9440500Y-17597500I30000J0D01*
G01*
D15*
X10295713Y-17170713D02*
X10295713Y-17128287D01*
X10253287Y-17128287D01*
X10253287Y-17170713D01*
X10295713Y-17170713D01*
D11*
X10304500Y-17204500D02*
X10304500Y-17094500D01*
X10304500Y-17094500D02*
G75*
G03*
X10244500Y-17094500I-30000J0D01*
G01*
X10244500Y-17094500D02*
X10244500Y-17204500D01*
X10244500Y-17204500D02*
G75*
G03*
X10304500Y-17204500I30000J0D01*
G01*
D15*
X10295713Y-17588713D02*
X10295713Y-17546287D01*
X10253287Y-17546287D01*
X10253287Y-17588713D01*
X10295713Y-17588713D01*
D11*
X10304500Y-17597500D02*
X10304500Y-17537500D01*
X10304500Y-17537500D02*
G75*
G03*
X10244500Y-17537500I-30000J0D01*
G01*
X10244500Y-17537500D02*
X10244500Y-17597500D01*
X10244500Y-17597500D02*
G75*
G03*
X10304500Y-17597500I30000J0D01*
G01*
D16*
X11230000Y-16865000D02*
X11267500Y-16827500D01*
X11230000Y-16790000D01*
X11192500Y-16827500D01*
X11230000Y-16865000D01*
X11430000Y-16865000D02*
X11467500Y-16827500D01*
X11430000Y-16790000D01*
X11392500Y-16827500D01*
X11430000Y-16865000D01*
D17*
X5675000Y-6627500D02*
X5755000Y-6707500D01*
X5755000Y-6627500D02*
X5675000Y-6707500D01*
X5755000Y-6667500D02*
G75*
G03*
X5755000Y-6667500I-40000J0D01*
G01*
X5675000Y-7389500D02*
X5755000Y-7469500D01*
X5755000Y-7389500D02*
X5675000Y-7469500D01*
X5755000Y-7429500D02*
G75*
G03*
X5755000Y-7429500I-40000J0D01*
G01*
X7475511Y-2296800D02*
X7555511Y-2376800D01*
X7555511Y-2296800D02*
X7475511Y-2376800D01*
X7555511Y-2336800D02*
G75*
G03*
X7555511Y-2336800I-40000J0D01*
G01*
X7475511Y-2957200D02*
X7555511Y-3037200D01*
X7555511Y-2957200D02*
X7475511Y-3037200D01*
X7555511Y-2997200D02*
G75*
G03*
X7555511Y-2997200I-40000J0D01*
G01*
X7675511Y-2296800D02*
X7755511Y-2376800D01*
X7755511Y-2296800D02*
X7675511Y-2376800D01*
X7755511Y-2336800D02*
G75*
G03*
X7755511Y-2336800I-40000J0D01*
G01*
X7675511Y-2957200D02*
X7755511Y-3037200D01*
X7755511Y-2957200D02*
X7675511Y-3037200D01*
X7755511Y-2997200D02*
G75*
G03*
X7755511Y-2997200I-40000J0D01*
G01*
X8195689Y-2855600D02*
X8275689Y-2935600D01*
X8275689Y-2855600D02*
X8195689Y-2935600D01*
X8275689Y-2895600D02*
G75*
G03*
X8275689Y-2895600I-40000J0D01*
G01*
X8395689Y-2855600D02*
X8475689Y-2935600D01*
X8475689Y-2855600D02*
X8395689Y-2935600D01*
X8475689Y-2895600D02*
G75*
G03*
X8475689Y-2895600I-40000J0D01*
G01*
X8532500Y-3452500D02*
X8612500Y-3532500D01*
X8612500Y-3452500D02*
X8532500Y-3532500D01*
X8612500Y-3492500D02*
G75*
G03*
X8612500Y-3492500I-40000J0D01*
G01*
X9294500Y-3452500D02*
X9374500Y-3532500D01*
X9374500Y-3452500D02*
X9294500Y-3532500D01*
X9374500Y-3492500D02*
G75*
G03*
X9374500Y-3492500I-40000J0D01*
G01*
D10*
X7932350Y-17074400D02*
X8032350Y-17174400D01*
X8032350Y-17074400D02*
X7932350Y-17174400D01*
X7982350Y-17074400D02*
X7982350Y-17174400D01*
X7932350Y-17124400D02*
X8032350Y-17124400D01*
D11*
X8032350Y-17224400D02*
X8032350Y-17024400D01*
X8032350Y-17024400D02*
G75*
G03*
X7932350Y-17024400I-50000J0D01*
G01*
X7932350Y-17024400D02*
X7932350Y-17224400D01*
X7932350Y-17224400D02*
G75*
G03*
X8032350Y-17224400I50000J0D01*
G01*
D10*
X8402350Y-16774400D02*
X8502350Y-16874400D01*
X8502350Y-16774400D02*
X8402350Y-16874400D01*
X8452350Y-16774400D02*
X8452350Y-16874400D01*
X8402350Y-16824400D02*
X8502350Y-16824400D01*
D11*
X8352350Y-16874400D02*
X8552350Y-16874400D01*
X8552350Y-16874400D02*
G75*
G03*
X8552350Y-16774400I0J50000D01*
G01*
X8552350Y-16774400D02*
X8352350Y-16774400D01*
X8352350Y-16774400D02*
G75*
G03*
X8352350Y-16874400I0J-50000D01*
G01*
D10*
X8402350Y-17374400D02*
X8502350Y-17474400D01*
X8502350Y-17374400D02*
X8402350Y-17474400D01*
X8452350Y-17374400D02*
X8452350Y-17474400D01*
X8402350Y-17424400D02*
X8502350Y-17424400D01*
D11*
X8352350Y-17474400D02*
X8552350Y-17474400D01*
X8552350Y-17474400D02*
G75*
G03*
X8552350Y-17374400I0J50000D01*
G01*
X8552350Y-17374400D02*
X8352350Y-17374400D01*
X8352350Y-17374400D02*
G75*
G03*
X8352350Y-17474400I0J-50000D01*
G01*
D10*
X13787500Y-2172500D02*
X13887500Y-2272500D01*
X13887500Y-2172500D02*
X13787500Y-2272500D01*
X13837500Y-2172500D02*
X13837500Y-2272500D01*
X13787500Y-2222500D02*
X13887500Y-2222500D01*
X14237500Y-2172500D02*
X14337500Y-2272500D01*
X14337500Y-2172500D02*
X14237500Y-2272500D01*
X14287500Y-2172500D02*
X14287500Y-2272500D01*
X14237500Y-2222500D02*
X14337500Y-2222500D01*
X14872500Y-3627500D02*
X14972500Y-3727500D01*
X14972500Y-3627500D02*
X14872500Y-3727500D01*
X14922500Y-3627500D02*
X14922500Y-3727500D01*
X14872500Y-3677500D02*
X14972500Y-3677500D01*
X14872500Y-4077500D02*
X14972500Y-4177500D01*
X14972500Y-4077500D02*
X14872500Y-4177500D01*
X14922500Y-4077500D02*
X14922500Y-4177500D01*
X14872500Y-4127500D02*
X14972500Y-4127500D01*
X14872500Y-5215000D02*
X14972500Y-5315000D01*
X14972500Y-5215000D02*
X14872500Y-5315000D01*
X14922500Y-5215000D02*
X14922500Y-5315000D01*
X14872500Y-5265000D02*
X14972500Y-5265000D01*
X14872500Y-5665000D02*
X14972500Y-5765000D01*
X14972500Y-5665000D02*
X14872500Y-5765000D01*
X14922500Y-5665000D02*
X14922500Y-5765000D01*
X14872500Y-5715000D02*
X14972500Y-5715000D01*
D18*
X5135750Y-2920000D02*
X5265750Y-3050000D01*
X5265750Y-2920000D02*
X5135750Y-3050000D01*
X5246712Y-3030962D02*
X5246712Y-2939038D01*
X5154788Y-2939038D01*
X5154788Y-3030962D01*
X5246712Y-3030962D01*
X5405750Y-2800000D02*
X5535750Y-2930000D01*
X5535750Y-2800000D02*
X5405750Y-2930000D01*
X5516712Y-2910962D02*
X5516712Y-2819038D01*
X5424788Y-2819038D01*
X5424788Y-2910962D01*
X5516712Y-2910962D01*
X5655750Y-2120000D02*
X5785750Y-2250000D01*
X5785750Y-2120000D02*
X5655750Y-2250000D01*
X5766712Y-2230962D02*
X5766712Y-2139038D01*
X5674788Y-2139038D01*
X5674788Y-2230962D01*
X5766712Y-2230962D01*
X6065750Y-3240000D02*
X6195750Y-3370000D01*
X6195750Y-3240000D02*
X6065750Y-3370000D01*
X6176712Y-3350962D02*
X6176712Y-3259038D01*
X6084788Y-3259038D01*
X6084788Y-3350962D01*
X6176712Y-3350962D01*
X6115750Y-2510000D02*
X6245750Y-2640000D01*
X6245750Y-2510000D02*
X6115750Y-2640000D01*
X6226712Y-2620962D02*
X6226712Y-2529038D01*
X6134788Y-2529038D01*
X6134788Y-2620962D01*
X6226712Y-2620962D01*
X13647500Y-2407500D02*
X13777500Y-2537500D01*
X13777500Y-2407500D02*
X13647500Y-2537500D01*
X13758462Y-2518462D02*
X13758462Y-2426538D01*
X13666538Y-2426538D01*
X13666538Y-2518462D01*
X13758462Y-2518462D01*
X14347500Y-2407500D02*
X14477500Y-2537500D01*
X14477500Y-2407500D02*
X14347500Y-2537500D01*
X14458462Y-2518462D02*
X14458462Y-2426538D01*
X14366538Y-2426538D01*
X14366538Y-2518462D01*
X14458462Y-2518462D01*
X14607500Y-3487500D02*
X14737500Y-3617500D01*
X14737500Y-3487500D02*
X14607500Y-3617500D01*
X14718462Y-3598462D02*
X14718462Y-3506538D01*
X14626538Y-3506538D01*
X14626538Y-3598462D01*
X14718462Y-3598462D01*
X14607500Y-4187500D02*
X14737500Y-4317500D01*
X14737500Y-4187500D02*
X14607500Y-4317500D01*
X14718462Y-4298462D02*
X14718462Y-4206538D01*
X14626538Y-4206538D01*
X14626538Y-4298462D01*
X14718462Y-4298462D01*
X14607500Y-5075000D02*
X14737500Y-5205000D01*
X14737500Y-5075000D02*
X14607500Y-5205000D01*
X14718462Y-5185962D02*
X14718462Y-5094038D01*
X14626538Y-5094038D01*
X14626538Y-5185962D01*
X14718462Y-5185962D01*
X14607500Y-5775000D02*
X14737500Y-5905000D01*
X14737500Y-5775000D02*
X14607500Y-5905000D01*
X14718462Y-5885962D02*
X14718462Y-5794038D01*
X14626538Y-5794038D01*
X14626538Y-5885962D01*
X14718462Y-5885962D01*
D11*
X4687619Y-18097524D02*
X4687619Y-17897524D01*
X4687619Y-17897524D02*
X4735238Y-17897524D01*
X4735238Y-17897524D02*
X4763810Y-17907048D01*
X4763810Y-17907048D02*
X4782857Y-17926095D01*
X4782857Y-17926095D02*
X4792381Y-17945143D01*
X4792381Y-17945143D02*
X4801905Y-17983238D01*
X4801905Y-17983238D02*
X4801905Y-18011810D01*
X4801905Y-18011810D02*
X4792381Y-18049905D01*
X4792381Y-18049905D02*
X4782857Y-18068952D01*
X4782857Y-18068952D02*
X4763810Y-18088000D01*
X4763810Y-18088000D02*
X4735238Y-18097524D01*
X4735238Y-18097524D02*
X4687619Y-18097524D01*
X4887619Y-18097524D02*
X4887619Y-17964190D01*
X4887619Y-18002286D02*
X4897143Y-17983238D01*
X4897143Y-17983238D02*
X4906667Y-17973714D01*
X4906667Y-17973714D02*
X4925714Y-17964190D01*
X4925714Y-17964190D02*
X4944762Y-17964190D01*
X5011429Y-18097524D02*
X5011429Y-17964190D01*
X5011429Y-17897524D02*
X5001905Y-17907048D01*
X5001905Y-17907048D02*
X5011429Y-17916571D01*
X5011429Y-17916571D02*
X5020952Y-17907048D01*
X5020952Y-17907048D02*
X5011429Y-17897524D01*
X5011429Y-17897524D02*
X5011429Y-17916571D01*
X5135238Y-18097524D02*
X5116190Y-18088000D01*
X5116190Y-18088000D02*
X5106667Y-18068952D01*
X5106667Y-18068952D02*
X5106667Y-17897524D01*
X5240000Y-18097524D02*
X5220952Y-18088000D01*
X5220952Y-18088000D02*
X5211429Y-18068952D01*
X5211429Y-18068952D02*
X5211429Y-17897524D01*
X5468571Y-18097524D02*
X5468571Y-17897524D01*
X5468571Y-17897524D02*
X5535238Y-18040381D01*
X5535238Y-18040381D02*
X5601905Y-17897524D01*
X5601905Y-17897524D02*
X5601905Y-18097524D01*
X5782857Y-18097524D02*
X5782857Y-17992762D01*
X5782857Y-17992762D02*
X5773333Y-17973714D01*
X5773333Y-17973714D02*
X5754286Y-17964190D01*
X5754286Y-17964190D02*
X5716190Y-17964190D01*
X5716190Y-17964190D02*
X5697143Y-17973714D01*
X5782857Y-18088000D02*
X5763809Y-18097524D01*
X5763809Y-18097524D02*
X5716190Y-18097524D01*
X5716190Y-18097524D02*
X5697143Y-18088000D01*
X5697143Y-18088000D02*
X5687619Y-18068952D01*
X5687619Y-18068952D02*
X5687619Y-18049905D01*
X5687619Y-18049905D02*
X5697143Y-18030857D01*
X5697143Y-18030857D02*
X5716190Y-18021333D01*
X5716190Y-18021333D02*
X5763809Y-18021333D01*
X5763809Y-18021333D02*
X5782857Y-18011810D01*
X5878095Y-17964190D02*
X5878095Y-18164190D01*
X5878095Y-17973714D02*
X5897143Y-17964190D01*
X5897143Y-17964190D02*
X5935238Y-17964190D01*
X5935238Y-17964190D02*
X5954286Y-17973714D01*
X5954286Y-17973714D02*
X5963809Y-17983238D01*
X5963809Y-17983238D02*
X5973333Y-18002286D01*
X5973333Y-18002286D02*
X5973333Y-18059429D01*
X5973333Y-18059429D02*
X5963809Y-18078476D01*
X5963809Y-18078476D02*
X5954286Y-18088000D01*
X5954286Y-18088000D02*
X5935238Y-18097524D01*
X5935238Y-18097524D02*
X5897143Y-18097524D01*
X5897143Y-18097524D02*
X5878095Y-18088000D01*
X6059048Y-18078476D02*
X6068571Y-18088000D01*
X6068571Y-18088000D02*
X6059048Y-18097524D01*
X6059048Y-18097524D02*
X6049524Y-18088000D01*
X6049524Y-18088000D02*
X6059048Y-18078476D01*
X6059048Y-18078476D02*
X6059048Y-18097524D01*
X6059048Y-17973714D02*
X6068571Y-17983238D01*
X6068571Y-17983238D02*
X6059048Y-17992762D01*
X6059048Y-17992762D02*
X6049524Y-17983238D01*
X6049524Y-17983238D02*
X6059048Y-17973714D01*
X6059048Y-17973714D02*
X6059048Y-17992762D01*
D12*
X4420000Y-18415000D02*
X4440000Y-18435000D01*
X4440000Y-18415000D02*
X4420000Y-18435000D01*
D11*
X4725714Y-18317524D02*
X4744762Y-18317524D01*
X4744762Y-18317524D02*
X4763810Y-18327048D01*
X4763810Y-18327048D02*
X4773333Y-18336571D01*
X4773333Y-18336571D02*
X4782857Y-18355619D01*
X4782857Y-18355619D02*
X4792381Y-18393714D01*
X4792381Y-18393714D02*
X4792381Y-18441333D01*
X4792381Y-18441333D02*
X4782857Y-18479429D01*
X4782857Y-18479429D02*
X4773333Y-18498476D01*
X4773333Y-18498476D02*
X4763810Y-18508000D01*
X4763810Y-18508000D02*
X4744762Y-18517524D01*
X4744762Y-18517524D02*
X4725714Y-18517524D01*
X4725714Y-18517524D02*
X4706667Y-18508000D01*
X4706667Y-18508000D02*
X4697143Y-18498476D01*
X4697143Y-18498476D02*
X4687619Y-18479429D01*
X4687619Y-18479429D02*
X4678095Y-18441333D01*
X4678095Y-18441333D02*
X4678095Y-18393714D01*
X4678095Y-18393714D02*
X4687619Y-18355619D01*
X4687619Y-18355619D02*
X4697143Y-18336571D01*
X4697143Y-18336571D02*
X4706667Y-18327048D01*
X4706667Y-18327048D02*
X4725714Y-18317524D01*
X4878095Y-18498476D02*
X4887619Y-18508000D01*
X4887619Y-18508000D02*
X4878095Y-18517524D01*
X4878095Y-18517524D02*
X4868571Y-18508000D01*
X4868571Y-18508000D02*
X4878095Y-18498476D01*
X4878095Y-18498476D02*
X4878095Y-18517524D01*
X4963810Y-18336571D02*
X4973333Y-18327048D01*
X4973333Y-18327048D02*
X4992381Y-18317524D01*
X4992381Y-18317524D02*
X5040000Y-18317524D01*
X5040000Y-18317524D02*
X5059048Y-18327048D01*
X5059048Y-18327048D02*
X5068571Y-18336571D01*
X5068571Y-18336571D02*
X5078095Y-18355619D01*
X5078095Y-18355619D02*
X5078095Y-18374667D01*
X5078095Y-18374667D02*
X5068571Y-18403238D01*
X5068571Y-18403238D02*
X4954286Y-18517524D01*
X4954286Y-18517524D02*
X5078095Y-18517524D01*
X5201905Y-18317524D02*
X5220952Y-18317524D01*
X5220952Y-18317524D02*
X5240000Y-18327048D01*
X5240000Y-18327048D02*
X5249524Y-18336571D01*
X5249524Y-18336571D02*
X5259048Y-18355619D01*
X5259048Y-18355619D02*
X5268571Y-18393714D01*
X5268571Y-18393714D02*
X5268571Y-18441333D01*
X5268571Y-18441333D02*
X5259048Y-18479429D01*
X5259048Y-18479429D02*
X5249524Y-18498476D01*
X5249524Y-18498476D02*
X5240000Y-18508000D01*
X5240000Y-18508000D02*
X5220952Y-18517524D01*
X5220952Y-18517524D02*
X5201905Y-18517524D01*
X5201905Y-18517524D02*
X5182857Y-18508000D01*
X5182857Y-18508000D02*
X5173333Y-18498476D01*
X5173333Y-18498476D02*
X5163810Y-18479429D01*
X5163810Y-18479429D02*
X5154286Y-18441333D01*
X5154286Y-18441333D02*
X5154286Y-18393714D01*
X5154286Y-18393714D02*
X5163810Y-18355619D01*
X5163810Y-18355619D02*
X5173333Y-18336571D01*
X5173333Y-18336571D02*
X5182857Y-18327048D01*
X5182857Y-18327048D02*
X5201905Y-18317524D01*
X5392381Y-18317524D02*
X5411429Y-18317524D01*
X5411429Y-18317524D02*
X5430476Y-18327048D01*
X5430476Y-18327048D02*
X5440000Y-18336571D01*
X5440000Y-18336571D02*
X5449524Y-18355619D01*
X5449524Y-18355619D02*
X5459048Y-18393714D01*
X5459048Y-18393714D02*
X5459048Y-18441333D01*
X5459048Y-18441333D02*
X5449524Y-18479429D01*
X5449524Y-18479429D02*
X5440000Y-18498476D01*
X5440000Y-18498476D02*
X5430476Y-18508000D01*
X5430476Y-18508000D02*
X5411429Y-18517524D01*
X5411429Y-18517524D02*
X5392381Y-18517524D01*
X5392381Y-18517524D02*
X5373333Y-18508000D01*
X5373333Y-18508000D02*
X5363810Y-18498476D01*
X5363810Y-18498476D02*
X5354286Y-18479429D01*
X5354286Y-18479429D02*
X5344762Y-18441333D01*
X5344762Y-18441333D02*
X5344762Y-18393714D01*
X5344762Y-18393714D02*
X5354286Y-18355619D01*
X5354286Y-18355619D02*
X5363810Y-18336571D01*
X5363810Y-18336571D02*
X5373333Y-18327048D01*
X5373333Y-18327048D02*
X5392381Y-18317524D01*
X5544762Y-18517524D02*
X5544762Y-18384190D01*
X5544762Y-18403238D02*
X5554286Y-18393714D01*
X5554286Y-18393714D02*
X5573333Y-18384190D01*
X5573333Y-18384190D02*
X5601905Y-18384190D01*
X5601905Y-18384190D02*
X5620952Y-18393714D01*
X5620952Y-18393714D02*
X5630476Y-18412762D01*
X5630476Y-18412762D02*
X5630476Y-18517524D01*
X5630476Y-18412762D02*
X5640000Y-18393714D01*
X5640000Y-18393714D02*
X5659048Y-18384190D01*
X5659048Y-18384190D02*
X5687619Y-18384190D01*
X5687619Y-18384190D02*
X5706667Y-18393714D01*
X5706667Y-18393714D02*
X5716190Y-18412762D01*
X5716190Y-18412762D02*
X5716190Y-18517524D01*
X5811429Y-18517524D02*
X5811429Y-18384190D01*
X5811429Y-18403238D02*
X5820952Y-18393714D01*
X5820952Y-18393714D02*
X5840000Y-18384190D01*
X5840000Y-18384190D02*
X5868571Y-18384190D01*
X5868571Y-18384190D02*
X5887619Y-18393714D01*
X5887619Y-18393714D02*
X5897143Y-18412762D01*
X5897143Y-18412762D02*
X5897143Y-18517524D01*
X5897143Y-18412762D02*
X5906667Y-18393714D01*
X5906667Y-18393714D02*
X5925714Y-18384190D01*
X5925714Y-18384190D02*
X5954286Y-18384190D01*
X5954286Y-18384190D02*
X5973333Y-18393714D01*
X5973333Y-18393714D02*
X5982857Y-18412762D01*
X5982857Y-18412762D02*
X5982857Y-18517524D01*
X6373333Y-18308000D02*
X6201905Y-18565143D01*
X6630476Y-18317524D02*
X6649524Y-18317524D01*
X6649524Y-18317524D02*
X6668572Y-18327048D01*
X6668572Y-18327048D02*
X6678095Y-18336571D01*
X6678095Y-18336571D02*
X6687619Y-18355619D01*
X6687619Y-18355619D02*
X6697143Y-18393714D01*
X6697143Y-18393714D02*
X6697143Y-18441333D01*
X6697143Y-18441333D02*
X6687619Y-18479429D01*
X6687619Y-18479429D02*
X6678095Y-18498476D01*
X6678095Y-18498476D02*
X6668572Y-18508000D01*
X6668572Y-18508000D02*
X6649524Y-18517524D01*
X6649524Y-18517524D02*
X6630476Y-18517524D01*
X6630476Y-18517524D02*
X6611429Y-18508000D01*
X6611429Y-18508000D02*
X6601905Y-18498476D01*
X6601905Y-18498476D02*
X6592381Y-18479429D01*
X6592381Y-18479429D02*
X6582857Y-18441333D01*
X6582857Y-18441333D02*
X6582857Y-18393714D01*
X6582857Y-18393714D02*
X6592381Y-18355619D01*
X6592381Y-18355619D02*
X6601905Y-18336571D01*
X6601905Y-18336571D02*
X6611429Y-18327048D01*
X6611429Y-18327048D02*
X6630476Y-18317524D01*
X6782857Y-18498476D02*
X6792381Y-18508000D01*
X6792381Y-18508000D02*
X6782857Y-18517524D01*
X6782857Y-18517524D02*
X6773333Y-18508000D01*
X6773333Y-18508000D02*
X6782857Y-18498476D01*
X6782857Y-18498476D02*
X6782857Y-18517524D01*
X6916191Y-18317524D02*
X6935238Y-18317524D01*
X6935238Y-18317524D02*
X6954286Y-18327048D01*
X6954286Y-18327048D02*
X6963810Y-18336571D01*
X6963810Y-18336571D02*
X6973333Y-18355619D01*
X6973333Y-18355619D02*
X6982857Y-18393714D01*
X6982857Y-18393714D02*
X6982857Y-18441333D01*
X6982857Y-18441333D02*
X6973333Y-18479429D01*
X6973333Y-18479429D02*
X6963810Y-18498476D01*
X6963810Y-18498476D02*
X6954286Y-18508000D01*
X6954286Y-18508000D02*
X6935238Y-18517524D01*
X6935238Y-18517524D02*
X6916191Y-18517524D01*
X6916191Y-18517524D02*
X6897143Y-18508000D01*
X6897143Y-18508000D02*
X6887619Y-18498476D01*
X6887619Y-18498476D02*
X6878095Y-18479429D01*
X6878095Y-18479429D02*
X6868572Y-18441333D01*
X6868572Y-18441333D02*
X6868572Y-18393714D01*
X6868572Y-18393714D02*
X6878095Y-18355619D01*
X6878095Y-18355619D02*
X6887619Y-18336571D01*
X6887619Y-18336571D02*
X6897143Y-18327048D01*
X6897143Y-18327048D02*
X6916191Y-18317524D01*
X7106667Y-18317524D02*
X7125714Y-18317524D01*
X7125714Y-18317524D02*
X7144762Y-18327048D01*
X7144762Y-18327048D02*
X7154286Y-18336571D01*
X7154286Y-18336571D02*
X7163810Y-18355619D01*
X7163810Y-18355619D02*
X7173333Y-18393714D01*
X7173333Y-18393714D02*
X7173333Y-18441333D01*
X7173333Y-18441333D02*
X7163810Y-18479429D01*
X7163810Y-18479429D02*
X7154286Y-18498476D01*
X7154286Y-18498476D02*
X7144762Y-18508000D01*
X7144762Y-18508000D02*
X7125714Y-18517524D01*
X7125714Y-18517524D02*
X7106667Y-18517524D01*
X7106667Y-18517524D02*
X7087619Y-18508000D01*
X7087619Y-18508000D02*
X7078095Y-18498476D01*
X7078095Y-18498476D02*
X7068572Y-18479429D01*
X7068572Y-18479429D02*
X7059048Y-18441333D01*
X7059048Y-18441333D02*
X7059048Y-18393714D01*
X7059048Y-18393714D02*
X7068572Y-18355619D01*
X7068572Y-18355619D02*
X7078095Y-18336571D01*
X7078095Y-18336571D02*
X7087619Y-18327048D01*
X7087619Y-18327048D02*
X7106667Y-18317524D01*
X7240000Y-18317524D02*
X7373333Y-18317524D01*
X7373333Y-18317524D02*
X7287619Y-18517524D01*
X7459048Y-18517524D02*
X7497143Y-18517524D01*
X7497143Y-18517524D02*
X7516191Y-18508000D01*
X7516191Y-18508000D02*
X7525714Y-18498476D01*
X7525714Y-18498476D02*
X7544762Y-18469905D01*
X7544762Y-18469905D02*
X7554286Y-18431810D01*
X7554286Y-18431810D02*
X7554286Y-18355619D01*
X7554286Y-18355619D02*
X7544762Y-18336571D01*
X7544762Y-18336571D02*
X7535238Y-18327048D01*
X7535238Y-18327048D02*
X7516191Y-18317524D01*
X7516191Y-18317524D02*
X7478095Y-18317524D01*
X7478095Y-18317524D02*
X7459048Y-18327048D01*
X7459048Y-18327048D02*
X7449524Y-18336571D01*
X7449524Y-18336571D02*
X7440000Y-18355619D01*
X7440000Y-18355619D02*
X7440000Y-18403238D01*
X7440000Y-18403238D02*
X7449524Y-18422286D01*
X7449524Y-18422286D02*
X7459048Y-18431810D01*
X7459048Y-18431810D02*
X7478095Y-18441333D01*
X7478095Y-18441333D02*
X7516191Y-18441333D01*
X7516191Y-18441333D02*
X7535238Y-18431810D01*
X7535238Y-18431810D02*
X7544762Y-18422286D01*
X7544762Y-18422286D02*
X7554286Y-18403238D01*
X7630476Y-18317524D02*
X7630476Y-18355619D01*
X7706667Y-18317524D02*
X7706667Y-18355619D01*
X8001905Y-18593714D02*
X7992381Y-18584190D01*
X7992381Y-18584190D02*
X7973334Y-18555619D01*
X7973334Y-18555619D02*
X7963810Y-18536571D01*
X7963810Y-18536571D02*
X7954286Y-18508000D01*
X7954286Y-18508000D02*
X7944762Y-18460381D01*
X7944762Y-18460381D02*
X7944762Y-18422286D01*
X7944762Y-18422286D02*
X7954286Y-18374667D01*
X7954286Y-18374667D02*
X7963810Y-18346095D01*
X7963810Y-18346095D02*
X7973334Y-18327048D01*
X7973334Y-18327048D02*
X7992381Y-18298476D01*
X7992381Y-18298476D02*
X8001905Y-18288952D01*
X8163810Y-18384190D02*
X8163810Y-18517524D01*
X8116191Y-18308000D02*
X8068572Y-18450857D01*
X8068572Y-18450857D02*
X8192381Y-18450857D01*
X8354286Y-18384190D02*
X8354286Y-18517524D01*
X8306667Y-18308000D02*
X8259048Y-18450857D01*
X8259048Y-18450857D02*
X8382857Y-18450857D01*
X8449524Y-18336571D02*
X8459048Y-18327048D01*
X8459048Y-18327048D02*
X8478096Y-18317524D01*
X8478096Y-18317524D02*
X8525715Y-18317524D01*
X8525715Y-18317524D02*
X8544762Y-18327048D01*
X8544762Y-18327048D02*
X8554286Y-18336571D01*
X8554286Y-18336571D02*
X8563810Y-18355619D01*
X8563810Y-18355619D02*
X8563810Y-18374667D01*
X8563810Y-18374667D02*
X8554286Y-18403238D01*
X8554286Y-18403238D02*
X8440000Y-18517524D01*
X8440000Y-18517524D02*
X8563810Y-18517524D01*
X8801905Y-18517524D02*
X8801905Y-18317524D01*
X8887619Y-18517524D02*
X8887619Y-18412762D01*
X8887619Y-18412762D02*
X8878096Y-18393714D01*
X8878096Y-18393714D02*
X8859048Y-18384190D01*
X8859048Y-18384190D02*
X8830477Y-18384190D01*
X8830477Y-18384190D02*
X8811429Y-18393714D01*
X8811429Y-18393714D02*
X8801905Y-18403238D01*
X9011429Y-18517524D02*
X8992381Y-18508000D01*
X8992381Y-18508000D02*
X8982858Y-18498476D01*
X8982858Y-18498476D02*
X8973334Y-18479429D01*
X8973334Y-18479429D02*
X8973334Y-18422286D01*
X8973334Y-18422286D02*
X8982858Y-18403238D01*
X8982858Y-18403238D02*
X8992381Y-18393714D01*
X8992381Y-18393714D02*
X9011429Y-18384190D01*
X9011429Y-18384190D02*
X9040000Y-18384190D01*
X9040000Y-18384190D02*
X9059048Y-18393714D01*
X9059048Y-18393714D02*
X9068572Y-18403238D01*
X9068572Y-18403238D02*
X9078096Y-18422286D01*
X9078096Y-18422286D02*
X9078096Y-18479429D01*
X9078096Y-18479429D02*
X9068572Y-18498476D01*
X9068572Y-18498476D02*
X9059048Y-18508000D01*
X9059048Y-18508000D02*
X9040000Y-18517524D01*
X9040000Y-18517524D02*
X9011429Y-18517524D01*
X9192381Y-18517524D02*
X9173334Y-18508000D01*
X9173334Y-18508000D02*
X9163810Y-18488952D01*
X9163810Y-18488952D02*
X9163810Y-18317524D01*
X9344762Y-18508000D02*
X9325715Y-18517524D01*
X9325715Y-18517524D02*
X9287619Y-18517524D01*
X9287619Y-18517524D02*
X9268572Y-18508000D01*
X9268572Y-18508000D02*
X9259048Y-18488952D01*
X9259048Y-18488952D02*
X9259048Y-18412762D01*
X9259048Y-18412762D02*
X9268572Y-18393714D01*
X9268572Y-18393714D02*
X9287619Y-18384190D01*
X9287619Y-18384190D02*
X9325715Y-18384190D01*
X9325715Y-18384190D02*
X9344762Y-18393714D01*
X9344762Y-18393714D02*
X9354286Y-18412762D01*
X9354286Y-18412762D02*
X9354286Y-18431810D01*
X9354286Y-18431810D02*
X9259048Y-18450857D01*
X9430477Y-18508000D02*
X9449524Y-18517524D01*
X9449524Y-18517524D02*
X9487619Y-18517524D01*
X9487619Y-18517524D02*
X9506667Y-18508000D01*
X9506667Y-18508000D02*
X9516191Y-18488952D01*
X9516191Y-18488952D02*
X9516191Y-18479429D01*
X9516191Y-18479429D02*
X9506667Y-18460381D01*
X9506667Y-18460381D02*
X9487619Y-18450857D01*
X9487619Y-18450857D02*
X9459048Y-18450857D01*
X9459048Y-18450857D02*
X9440000Y-18441333D01*
X9440000Y-18441333D02*
X9430477Y-18422286D01*
X9430477Y-18422286D02*
X9430477Y-18412762D01*
X9430477Y-18412762D02*
X9440000Y-18393714D01*
X9440000Y-18393714D02*
X9459048Y-18384190D01*
X9459048Y-18384190D02*
X9487619Y-18384190D01*
X9487619Y-18384190D02*
X9506667Y-18393714D01*
X9582858Y-18593714D02*
X9592381Y-18584190D01*
X9592381Y-18584190D02*
X9611429Y-18555619D01*
X9611429Y-18555619D02*
X9620953Y-18536571D01*
X9620953Y-18536571D02*
X9630477Y-18508000D01*
X9630477Y-18508000D02*
X9640000Y-18460381D01*
X9640000Y-18460381D02*
X9640000Y-18422286D01*
X9640000Y-18422286D02*
X9630477Y-18374667D01*
X9630477Y-18374667D02*
X9620953Y-18346095D01*
X9620953Y-18346095D02*
X9611429Y-18327048D01*
X9611429Y-18327048D02*
X9592381Y-18298476D01*
X9592381Y-18298476D02*
X9582858Y-18288952D01*
D13*
X4440000Y-18689000D02*
G75*
G03*
X4440000Y-18689000I-20000J0D01*
G01*
D11*
X4725714Y-18581524D02*
X4744762Y-18581524D01*
X4744762Y-18581524D02*
X4763810Y-18591048D01*
X4763810Y-18591048D02*
X4773333Y-18600571D01*
X4773333Y-18600571D02*
X4782857Y-18619619D01*
X4782857Y-18619619D02*
X4792381Y-18657714D01*
X4792381Y-18657714D02*
X4792381Y-18705333D01*
X4792381Y-18705333D02*
X4782857Y-18743429D01*
X4782857Y-18743429D02*
X4773333Y-18762476D01*
X4773333Y-18762476D02*
X4763810Y-18772000D01*
X4763810Y-18772000D02*
X4744762Y-18781524D01*
X4744762Y-18781524D02*
X4725714Y-18781524D01*
X4725714Y-18781524D02*
X4706667Y-18772000D01*
X4706667Y-18772000D02*
X4697143Y-18762476D01*
X4697143Y-18762476D02*
X4687619Y-18743429D01*
X4687619Y-18743429D02*
X4678095Y-18705333D01*
X4678095Y-18705333D02*
X4678095Y-18657714D01*
X4678095Y-18657714D02*
X4687619Y-18619619D01*
X4687619Y-18619619D02*
X4697143Y-18600571D01*
X4697143Y-18600571D02*
X4706667Y-18591048D01*
X4706667Y-18591048D02*
X4725714Y-18581524D01*
X4878095Y-18762476D02*
X4887619Y-18772000D01*
X4887619Y-18772000D02*
X4878095Y-18781524D01*
X4878095Y-18781524D02*
X4868571Y-18772000D01*
X4868571Y-18772000D02*
X4878095Y-18762476D01*
X4878095Y-18762476D02*
X4878095Y-18781524D01*
X5059048Y-18648190D02*
X5059048Y-18781524D01*
X5011429Y-18572000D02*
X4963810Y-18714857D01*
X4963810Y-18714857D02*
X5087619Y-18714857D01*
X5201905Y-18581524D02*
X5220952Y-18581524D01*
X5220952Y-18581524D02*
X5240000Y-18591048D01*
X5240000Y-18591048D02*
X5249524Y-18600571D01*
X5249524Y-18600571D02*
X5259048Y-18619619D01*
X5259048Y-18619619D02*
X5268571Y-18657714D01*
X5268571Y-18657714D02*
X5268571Y-18705333D01*
X5268571Y-18705333D02*
X5259048Y-18743429D01*
X5259048Y-18743429D02*
X5249524Y-18762476D01*
X5249524Y-18762476D02*
X5240000Y-18772000D01*
X5240000Y-18772000D02*
X5220952Y-18781524D01*
X5220952Y-18781524D02*
X5201905Y-18781524D01*
X5201905Y-18781524D02*
X5182857Y-18772000D01*
X5182857Y-18772000D02*
X5173333Y-18762476D01*
X5173333Y-18762476D02*
X5163810Y-18743429D01*
X5163810Y-18743429D02*
X5154286Y-18705333D01*
X5154286Y-18705333D02*
X5154286Y-18657714D01*
X5154286Y-18657714D02*
X5163810Y-18619619D01*
X5163810Y-18619619D02*
X5173333Y-18600571D01*
X5173333Y-18600571D02*
X5182857Y-18591048D01*
X5182857Y-18591048D02*
X5201905Y-18581524D01*
X5392381Y-18581524D02*
X5411429Y-18581524D01*
X5411429Y-18581524D02*
X5430476Y-18591048D01*
X5430476Y-18591048D02*
X5440000Y-18600571D01*
X5440000Y-18600571D02*
X5449524Y-18619619D01*
X5449524Y-18619619D02*
X5459048Y-18657714D01*
X5459048Y-18657714D02*
X5459048Y-18705333D01*
X5459048Y-18705333D02*
X5449524Y-18743429D01*
X5449524Y-18743429D02*
X5440000Y-18762476D01*
X5440000Y-18762476D02*
X5430476Y-18772000D01*
X5430476Y-18772000D02*
X5411429Y-18781524D01*
X5411429Y-18781524D02*
X5392381Y-18781524D01*
X5392381Y-18781524D02*
X5373333Y-18772000D01*
X5373333Y-18772000D02*
X5363810Y-18762476D01*
X5363810Y-18762476D02*
X5354286Y-18743429D01*
X5354286Y-18743429D02*
X5344762Y-18705333D01*
X5344762Y-18705333D02*
X5344762Y-18657714D01*
X5344762Y-18657714D02*
X5354286Y-18619619D01*
X5354286Y-18619619D02*
X5363810Y-18600571D01*
X5363810Y-18600571D02*
X5373333Y-18591048D01*
X5373333Y-18591048D02*
X5392381Y-18581524D01*
X5544762Y-18781524D02*
X5544762Y-18648190D01*
X5544762Y-18667238D02*
X5554286Y-18657714D01*
X5554286Y-18657714D02*
X5573333Y-18648190D01*
X5573333Y-18648190D02*
X5601905Y-18648190D01*
X5601905Y-18648190D02*
X5620952Y-18657714D01*
X5620952Y-18657714D02*
X5630476Y-18676762D01*
X5630476Y-18676762D02*
X5630476Y-18781524D01*
X5630476Y-18676762D02*
X5640000Y-18657714D01*
X5640000Y-18657714D02*
X5659048Y-18648190D01*
X5659048Y-18648190D02*
X5687619Y-18648190D01*
X5687619Y-18648190D02*
X5706667Y-18657714D01*
X5706667Y-18657714D02*
X5716190Y-18676762D01*
X5716190Y-18676762D02*
X5716190Y-18781524D01*
X5811429Y-18781524D02*
X5811429Y-18648190D01*
X5811429Y-18667238D02*
X5820952Y-18657714D01*
X5820952Y-18657714D02*
X5840000Y-18648190D01*
X5840000Y-18648190D02*
X5868571Y-18648190D01*
X5868571Y-18648190D02*
X5887619Y-18657714D01*
X5887619Y-18657714D02*
X5897143Y-18676762D01*
X5897143Y-18676762D02*
X5897143Y-18781524D01*
X5897143Y-18676762D02*
X5906667Y-18657714D01*
X5906667Y-18657714D02*
X5925714Y-18648190D01*
X5925714Y-18648190D02*
X5954286Y-18648190D01*
X5954286Y-18648190D02*
X5973333Y-18657714D01*
X5973333Y-18657714D02*
X5982857Y-18676762D01*
X5982857Y-18676762D02*
X5982857Y-18781524D01*
X6373333Y-18572000D02*
X6201905Y-18829143D01*
X6630476Y-18581524D02*
X6649524Y-18581524D01*
X6649524Y-18581524D02*
X6668572Y-18591048D01*
X6668572Y-18591048D02*
X6678095Y-18600571D01*
X6678095Y-18600571D02*
X6687619Y-18619619D01*
X6687619Y-18619619D02*
X6697143Y-18657714D01*
X6697143Y-18657714D02*
X6697143Y-18705333D01*
X6697143Y-18705333D02*
X6687619Y-18743429D01*
X6687619Y-18743429D02*
X6678095Y-18762476D01*
X6678095Y-18762476D02*
X6668572Y-18772000D01*
X6668572Y-18772000D02*
X6649524Y-18781524D01*
X6649524Y-18781524D02*
X6630476Y-18781524D01*
X6630476Y-18781524D02*
X6611429Y-18772000D01*
X6611429Y-18772000D02*
X6601905Y-18762476D01*
X6601905Y-18762476D02*
X6592381Y-18743429D01*
X6592381Y-18743429D02*
X6582857Y-18705333D01*
X6582857Y-18705333D02*
X6582857Y-18657714D01*
X6582857Y-18657714D02*
X6592381Y-18619619D01*
X6592381Y-18619619D02*
X6601905Y-18600571D01*
X6601905Y-18600571D02*
X6611429Y-18591048D01*
X6611429Y-18591048D02*
X6630476Y-18581524D01*
X6782857Y-18762476D02*
X6792381Y-18772000D01*
X6792381Y-18772000D02*
X6782857Y-18781524D01*
X6782857Y-18781524D02*
X6773333Y-18772000D01*
X6773333Y-18772000D02*
X6782857Y-18762476D01*
X6782857Y-18762476D02*
X6782857Y-18781524D01*
X6916191Y-18581524D02*
X6935238Y-18581524D01*
X6935238Y-18581524D02*
X6954286Y-18591048D01*
X6954286Y-18591048D02*
X6963810Y-18600571D01*
X6963810Y-18600571D02*
X6973333Y-18619619D01*
X6973333Y-18619619D02*
X6982857Y-18657714D01*
X6982857Y-18657714D02*
X6982857Y-18705333D01*
X6982857Y-18705333D02*
X6973333Y-18743429D01*
X6973333Y-18743429D02*
X6963810Y-18762476D01*
X6963810Y-18762476D02*
X6954286Y-18772000D01*
X6954286Y-18772000D02*
X6935238Y-18781524D01*
X6935238Y-18781524D02*
X6916191Y-18781524D01*
X6916191Y-18781524D02*
X6897143Y-18772000D01*
X6897143Y-18772000D02*
X6887619Y-18762476D01*
X6887619Y-18762476D02*
X6878095Y-18743429D01*
X6878095Y-18743429D02*
X6868572Y-18705333D01*
X6868572Y-18705333D02*
X6868572Y-18657714D01*
X6868572Y-18657714D02*
X6878095Y-18619619D01*
X6878095Y-18619619D02*
X6887619Y-18600571D01*
X6887619Y-18600571D02*
X6897143Y-18591048D01*
X6897143Y-18591048D02*
X6916191Y-18581524D01*
X7173333Y-18781524D02*
X7059048Y-18781524D01*
X7116191Y-18781524D02*
X7116191Y-18581524D01*
X7116191Y-18581524D02*
X7097143Y-18610095D01*
X7097143Y-18610095D02*
X7078095Y-18629143D01*
X7078095Y-18629143D02*
X7059048Y-18638667D01*
X7354286Y-18581524D02*
X7259048Y-18581524D01*
X7259048Y-18581524D02*
X7249524Y-18676762D01*
X7249524Y-18676762D02*
X7259048Y-18667238D01*
X7259048Y-18667238D02*
X7278095Y-18657714D01*
X7278095Y-18657714D02*
X7325714Y-18657714D01*
X7325714Y-18657714D02*
X7344762Y-18667238D01*
X7344762Y-18667238D02*
X7354286Y-18676762D01*
X7354286Y-18676762D02*
X7363810Y-18695810D01*
X7363810Y-18695810D02*
X7363810Y-18743429D01*
X7363810Y-18743429D02*
X7354286Y-18762476D01*
X7354286Y-18762476D02*
X7344762Y-18772000D01*
X7344762Y-18772000D02*
X7325714Y-18781524D01*
X7325714Y-18781524D02*
X7278095Y-18781524D01*
X7278095Y-18781524D02*
X7259048Y-18772000D01*
X7259048Y-18772000D02*
X7249524Y-18762476D01*
X7430476Y-18581524D02*
X7563810Y-18581524D01*
X7563810Y-18581524D02*
X7478095Y-18781524D01*
X7630476Y-18581524D02*
X7630476Y-18619619D01*
X7706667Y-18581524D02*
X7706667Y-18619619D01*
X8001905Y-18857714D02*
X7992381Y-18848190D01*
X7992381Y-18848190D02*
X7973334Y-18819619D01*
X7973334Y-18819619D02*
X7963810Y-18800571D01*
X7963810Y-18800571D02*
X7954286Y-18772000D01*
X7954286Y-18772000D02*
X7944762Y-18724381D01*
X7944762Y-18724381D02*
X7944762Y-18686286D01*
X7944762Y-18686286D02*
X7954286Y-18638667D01*
X7954286Y-18638667D02*
X7963810Y-18610095D01*
X7963810Y-18610095D02*
X7973334Y-18591048D01*
X7973334Y-18591048D02*
X7992381Y-18562476D01*
X7992381Y-18562476D02*
X8001905Y-18552952D01*
X8068572Y-18600571D02*
X8078095Y-18591048D01*
X8078095Y-18591048D02*
X8097143Y-18581524D01*
X8097143Y-18581524D02*
X8144762Y-18581524D01*
X8144762Y-18581524D02*
X8163810Y-18591048D01*
X8163810Y-18591048D02*
X8173334Y-18600571D01*
X8173334Y-18600571D02*
X8182857Y-18619619D01*
X8182857Y-18619619D02*
X8182857Y-18638667D01*
X8182857Y-18638667D02*
X8173334Y-18667238D01*
X8173334Y-18667238D02*
X8059048Y-18781524D01*
X8059048Y-18781524D02*
X8182857Y-18781524D01*
X8259048Y-18600571D02*
X8268572Y-18591048D01*
X8268572Y-18591048D02*
X8287619Y-18581524D01*
X8287619Y-18581524D02*
X8335238Y-18581524D01*
X8335238Y-18581524D02*
X8354286Y-18591048D01*
X8354286Y-18591048D02*
X8363810Y-18600571D01*
X8363810Y-18600571D02*
X8373334Y-18619619D01*
X8373334Y-18619619D02*
X8373334Y-18638667D01*
X8373334Y-18638667D02*
X8363810Y-18667238D01*
X8363810Y-18667238D02*
X8249524Y-18781524D01*
X8249524Y-18781524D02*
X8373334Y-18781524D01*
X8563810Y-18781524D02*
X8449524Y-18781524D01*
X8506667Y-18781524D02*
X8506667Y-18581524D01*
X8506667Y-18581524D02*
X8487619Y-18610095D01*
X8487619Y-18610095D02*
X8468572Y-18629143D01*
X8468572Y-18629143D02*
X8449524Y-18638667D01*
X8801905Y-18781524D02*
X8801905Y-18581524D01*
X8887619Y-18781524D02*
X8887619Y-18676762D01*
X8887619Y-18676762D02*
X8878096Y-18657714D01*
X8878096Y-18657714D02*
X8859048Y-18648190D01*
X8859048Y-18648190D02*
X8830477Y-18648190D01*
X8830477Y-18648190D02*
X8811429Y-18657714D01*
X8811429Y-18657714D02*
X8801905Y-18667238D01*
X9011429Y-18781524D02*
X8992381Y-18772000D01*
X8992381Y-18772000D02*
X8982858Y-18762476D01*
X8982858Y-18762476D02*
X8973334Y-18743429D01*
X8973334Y-18743429D02*
X8973334Y-18686286D01*
X8973334Y-18686286D02*
X8982858Y-18667238D01*
X8982858Y-18667238D02*
X8992381Y-18657714D01*
X8992381Y-18657714D02*
X9011429Y-18648190D01*
X9011429Y-18648190D02*
X9040000Y-18648190D01*
X9040000Y-18648190D02*
X9059048Y-18657714D01*
X9059048Y-18657714D02*
X9068572Y-18667238D01*
X9068572Y-18667238D02*
X9078096Y-18686286D01*
X9078096Y-18686286D02*
X9078096Y-18743429D01*
X9078096Y-18743429D02*
X9068572Y-18762476D01*
X9068572Y-18762476D02*
X9059048Y-18772000D01*
X9059048Y-18772000D02*
X9040000Y-18781524D01*
X9040000Y-18781524D02*
X9011429Y-18781524D01*
X9192381Y-18781524D02*
X9173334Y-18772000D01*
X9173334Y-18772000D02*
X9163810Y-18752952D01*
X9163810Y-18752952D02*
X9163810Y-18581524D01*
X9344762Y-18772000D02*
X9325715Y-18781524D01*
X9325715Y-18781524D02*
X9287619Y-18781524D01*
X9287619Y-18781524D02*
X9268572Y-18772000D01*
X9268572Y-18772000D02*
X9259048Y-18752952D01*
X9259048Y-18752952D02*
X9259048Y-18676762D01*
X9259048Y-18676762D02*
X9268572Y-18657714D01*
X9268572Y-18657714D02*
X9287619Y-18648190D01*
X9287619Y-18648190D02*
X9325715Y-18648190D01*
X9325715Y-18648190D02*
X9344762Y-18657714D01*
X9344762Y-18657714D02*
X9354286Y-18676762D01*
X9354286Y-18676762D02*
X9354286Y-18695810D01*
X9354286Y-18695810D02*
X9259048Y-18714857D01*
X9430477Y-18772000D02*
X9449524Y-18781524D01*
X9449524Y-18781524D02*
X9487619Y-18781524D01*
X9487619Y-18781524D02*
X9506667Y-18772000D01*
X9506667Y-18772000D02*
X9516191Y-18752952D01*
X9516191Y-18752952D02*
X9516191Y-18743429D01*
X9516191Y-18743429D02*
X9506667Y-18724381D01*
X9506667Y-18724381D02*
X9487619Y-18714857D01*
X9487619Y-18714857D02*
X9459048Y-18714857D01*
X9459048Y-18714857D02*
X9440000Y-18705333D01*
X9440000Y-18705333D02*
X9430477Y-18686286D01*
X9430477Y-18686286D02*
X9430477Y-18676762D01*
X9430477Y-18676762D02*
X9440000Y-18657714D01*
X9440000Y-18657714D02*
X9459048Y-18648190D01*
X9459048Y-18648190D02*
X9487619Y-18648190D01*
X9487619Y-18648190D02*
X9506667Y-18657714D01*
X9582858Y-18857714D02*
X9592381Y-18848190D01*
X9592381Y-18848190D02*
X9611429Y-18819619D01*
X9611429Y-18819619D02*
X9620953Y-18800571D01*
X9620953Y-18800571D02*
X9630477Y-18772000D01*
X9630477Y-18772000D02*
X9640000Y-18724381D01*
X9640000Y-18724381D02*
X9640000Y-18686286D01*
X9640000Y-18686286D02*
X9630477Y-18638667D01*
X9630477Y-18638667D02*
X9620953Y-18610095D01*
X9620953Y-18610095D02*
X9611429Y-18591048D01*
X9611429Y-18591048D02*
X9592381Y-18562476D01*
X9592381Y-18562476D02*
X9582858Y-18552952D01*
D14*
X4415000Y-18928000D02*
X4415000Y-18978000D01*
X4390000Y-18953000D02*
X4440000Y-18953000D01*
D11*
X4725714Y-18845524D02*
X4744762Y-18845524D01*
X4744762Y-18845524D02*
X4763810Y-18855048D01*
X4763810Y-18855048D02*
X4773333Y-18864571D01*
X4773333Y-18864571D02*
X4782857Y-18883619D01*
X4782857Y-18883619D02*
X4792381Y-18921714D01*
X4792381Y-18921714D02*
X4792381Y-18969333D01*
X4792381Y-18969333D02*
X4782857Y-19007429D01*
X4782857Y-19007429D02*
X4773333Y-19026476D01*
X4773333Y-19026476D02*
X4763810Y-19036000D01*
X4763810Y-19036000D02*
X4744762Y-19045524D01*
X4744762Y-19045524D02*
X4725714Y-19045524D01*
X4725714Y-19045524D02*
X4706667Y-19036000D01*
X4706667Y-19036000D02*
X4697143Y-19026476D01*
X4697143Y-19026476D02*
X4687619Y-19007429D01*
X4687619Y-19007429D02*
X4678095Y-18969333D01*
X4678095Y-18969333D02*
X4678095Y-18921714D01*
X4678095Y-18921714D02*
X4687619Y-18883619D01*
X4687619Y-18883619D02*
X4697143Y-18864571D01*
X4697143Y-18864571D02*
X4706667Y-18855048D01*
X4706667Y-18855048D02*
X4725714Y-18845524D01*
X4878095Y-19026476D02*
X4887619Y-19036000D01*
X4887619Y-19036000D02*
X4878095Y-19045524D01*
X4878095Y-19045524D02*
X4868571Y-19036000D01*
X4868571Y-19036000D02*
X4878095Y-19026476D01*
X4878095Y-19026476D02*
X4878095Y-19045524D01*
X5068571Y-18845524D02*
X4973333Y-18845524D01*
X4973333Y-18845524D02*
X4963810Y-18940762D01*
X4963810Y-18940762D02*
X4973333Y-18931238D01*
X4973333Y-18931238D02*
X4992381Y-18921714D01*
X4992381Y-18921714D02*
X5040000Y-18921714D01*
X5040000Y-18921714D02*
X5059048Y-18931238D01*
X5059048Y-18931238D02*
X5068571Y-18940762D01*
X5068571Y-18940762D02*
X5078095Y-18959810D01*
X5078095Y-18959810D02*
X5078095Y-19007429D01*
X5078095Y-19007429D02*
X5068571Y-19026476D01*
X5068571Y-19026476D02*
X5059048Y-19036000D01*
X5059048Y-19036000D02*
X5040000Y-19045524D01*
X5040000Y-19045524D02*
X4992381Y-19045524D01*
X4992381Y-19045524D02*
X4973333Y-19036000D01*
X4973333Y-19036000D02*
X4963810Y-19026476D01*
X5201905Y-18845524D02*
X5220952Y-18845524D01*
X5220952Y-18845524D02*
X5240000Y-18855048D01*
X5240000Y-18855048D02*
X5249524Y-18864571D01*
X5249524Y-18864571D02*
X5259048Y-18883619D01*
X5259048Y-18883619D02*
X5268571Y-18921714D01*
X5268571Y-18921714D02*
X5268571Y-18969333D01*
X5268571Y-18969333D02*
X5259048Y-19007429D01*
X5259048Y-19007429D02*
X5249524Y-19026476D01*
X5249524Y-19026476D02*
X5240000Y-19036000D01*
X5240000Y-19036000D02*
X5220952Y-19045524D01*
X5220952Y-19045524D02*
X5201905Y-19045524D01*
X5201905Y-19045524D02*
X5182857Y-19036000D01*
X5182857Y-19036000D02*
X5173333Y-19026476D01*
X5173333Y-19026476D02*
X5163810Y-19007429D01*
X5163810Y-19007429D02*
X5154286Y-18969333D01*
X5154286Y-18969333D02*
X5154286Y-18921714D01*
X5154286Y-18921714D02*
X5163810Y-18883619D01*
X5163810Y-18883619D02*
X5173333Y-18864571D01*
X5173333Y-18864571D02*
X5182857Y-18855048D01*
X5182857Y-18855048D02*
X5201905Y-18845524D01*
X5392381Y-18845524D02*
X5411429Y-18845524D01*
X5411429Y-18845524D02*
X5430476Y-18855048D01*
X5430476Y-18855048D02*
X5440000Y-18864571D01*
X5440000Y-18864571D02*
X5449524Y-18883619D01*
X5449524Y-18883619D02*
X5459048Y-18921714D01*
X5459048Y-18921714D02*
X5459048Y-18969333D01*
X5459048Y-18969333D02*
X5449524Y-19007429D01*
X5449524Y-19007429D02*
X5440000Y-19026476D01*
X5440000Y-19026476D02*
X5430476Y-19036000D01*
X5430476Y-19036000D02*
X5411429Y-19045524D01*
X5411429Y-19045524D02*
X5392381Y-19045524D01*
X5392381Y-19045524D02*
X5373333Y-19036000D01*
X5373333Y-19036000D02*
X5363810Y-19026476D01*
X5363810Y-19026476D02*
X5354286Y-19007429D01*
X5354286Y-19007429D02*
X5344762Y-18969333D01*
X5344762Y-18969333D02*
X5344762Y-18921714D01*
X5344762Y-18921714D02*
X5354286Y-18883619D01*
X5354286Y-18883619D02*
X5363810Y-18864571D01*
X5363810Y-18864571D02*
X5373333Y-18855048D01*
X5373333Y-18855048D02*
X5392381Y-18845524D01*
X5544762Y-19045524D02*
X5544762Y-18912190D01*
X5544762Y-18931238D02*
X5554286Y-18921714D01*
X5554286Y-18921714D02*
X5573333Y-18912190D01*
X5573333Y-18912190D02*
X5601905Y-18912190D01*
X5601905Y-18912190D02*
X5620952Y-18921714D01*
X5620952Y-18921714D02*
X5630476Y-18940762D01*
X5630476Y-18940762D02*
X5630476Y-19045524D01*
X5630476Y-18940762D02*
X5640000Y-18921714D01*
X5640000Y-18921714D02*
X5659048Y-18912190D01*
X5659048Y-18912190D02*
X5687619Y-18912190D01*
X5687619Y-18912190D02*
X5706667Y-18921714D01*
X5706667Y-18921714D02*
X5716190Y-18940762D01*
X5716190Y-18940762D02*
X5716190Y-19045524D01*
X5811429Y-19045524D02*
X5811429Y-18912190D01*
X5811429Y-18931238D02*
X5820952Y-18921714D01*
X5820952Y-18921714D02*
X5840000Y-18912190D01*
X5840000Y-18912190D02*
X5868571Y-18912190D01*
X5868571Y-18912190D02*
X5887619Y-18921714D01*
X5887619Y-18921714D02*
X5897143Y-18940762D01*
X5897143Y-18940762D02*
X5897143Y-19045524D01*
X5897143Y-18940762D02*
X5906667Y-18921714D01*
X5906667Y-18921714D02*
X5925714Y-18912190D01*
X5925714Y-18912190D02*
X5954286Y-18912190D01*
X5954286Y-18912190D02*
X5973333Y-18921714D01*
X5973333Y-18921714D02*
X5982857Y-18940762D01*
X5982857Y-18940762D02*
X5982857Y-19045524D01*
X6373333Y-18836000D02*
X6201905Y-19093143D01*
X6630476Y-18845524D02*
X6649524Y-18845524D01*
X6649524Y-18845524D02*
X6668572Y-18855048D01*
X6668572Y-18855048D02*
X6678095Y-18864571D01*
X6678095Y-18864571D02*
X6687619Y-18883619D01*
X6687619Y-18883619D02*
X6697143Y-18921714D01*
X6697143Y-18921714D02*
X6697143Y-18969333D01*
X6697143Y-18969333D02*
X6687619Y-19007429D01*
X6687619Y-19007429D02*
X6678095Y-19026476D01*
X6678095Y-19026476D02*
X6668572Y-19036000D01*
X6668572Y-19036000D02*
X6649524Y-19045524D01*
X6649524Y-19045524D02*
X6630476Y-19045524D01*
X6630476Y-19045524D02*
X6611429Y-19036000D01*
X6611429Y-19036000D02*
X6601905Y-19026476D01*
X6601905Y-19026476D02*
X6592381Y-19007429D01*
X6592381Y-19007429D02*
X6582857Y-18969333D01*
X6582857Y-18969333D02*
X6582857Y-18921714D01*
X6582857Y-18921714D02*
X6592381Y-18883619D01*
X6592381Y-18883619D02*
X6601905Y-18864571D01*
X6601905Y-18864571D02*
X6611429Y-18855048D01*
X6611429Y-18855048D02*
X6630476Y-18845524D01*
X6782857Y-19026476D02*
X6792381Y-19036000D01*
X6792381Y-19036000D02*
X6782857Y-19045524D01*
X6782857Y-19045524D02*
X6773333Y-19036000D01*
X6773333Y-19036000D02*
X6782857Y-19026476D01*
X6782857Y-19026476D02*
X6782857Y-19045524D01*
X6916191Y-18845524D02*
X6935238Y-18845524D01*
X6935238Y-18845524D02*
X6954286Y-18855048D01*
X6954286Y-18855048D02*
X6963810Y-18864571D01*
X6963810Y-18864571D02*
X6973333Y-18883619D01*
X6973333Y-18883619D02*
X6982857Y-18921714D01*
X6982857Y-18921714D02*
X6982857Y-18969333D01*
X6982857Y-18969333D02*
X6973333Y-19007429D01*
X6973333Y-19007429D02*
X6963810Y-19026476D01*
X6963810Y-19026476D02*
X6954286Y-19036000D01*
X6954286Y-19036000D02*
X6935238Y-19045524D01*
X6935238Y-19045524D02*
X6916191Y-19045524D01*
X6916191Y-19045524D02*
X6897143Y-19036000D01*
X6897143Y-19036000D02*
X6887619Y-19026476D01*
X6887619Y-19026476D02*
X6878095Y-19007429D01*
X6878095Y-19007429D02*
X6868572Y-18969333D01*
X6868572Y-18969333D02*
X6868572Y-18921714D01*
X6868572Y-18921714D02*
X6878095Y-18883619D01*
X6878095Y-18883619D02*
X6887619Y-18864571D01*
X6887619Y-18864571D02*
X6897143Y-18855048D01*
X6897143Y-18855048D02*
X6916191Y-18845524D01*
X7173333Y-19045524D02*
X7059048Y-19045524D01*
X7116191Y-19045524D02*
X7116191Y-18845524D01*
X7116191Y-18845524D02*
X7097143Y-18874095D01*
X7097143Y-18874095D02*
X7078095Y-18893143D01*
X7078095Y-18893143D02*
X7059048Y-18902667D01*
X7268572Y-19045524D02*
X7306667Y-19045524D01*
X7306667Y-19045524D02*
X7325714Y-19036000D01*
X7325714Y-19036000D02*
X7335238Y-19026476D01*
X7335238Y-19026476D02*
X7354286Y-18997905D01*
X7354286Y-18997905D02*
X7363810Y-18959810D01*
X7363810Y-18959810D02*
X7363810Y-18883619D01*
X7363810Y-18883619D02*
X7354286Y-18864571D01*
X7354286Y-18864571D02*
X7344762Y-18855048D01*
X7344762Y-18855048D02*
X7325714Y-18845524D01*
X7325714Y-18845524D02*
X7287619Y-18845524D01*
X7287619Y-18845524D02*
X7268572Y-18855048D01*
X7268572Y-18855048D02*
X7259048Y-18864571D01*
X7259048Y-18864571D02*
X7249524Y-18883619D01*
X7249524Y-18883619D02*
X7249524Y-18931238D01*
X7249524Y-18931238D02*
X7259048Y-18950286D01*
X7259048Y-18950286D02*
X7268572Y-18959810D01*
X7268572Y-18959810D02*
X7287619Y-18969333D01*
X7287619Y-18969333D02*
X7325714Y-18969333D01*
X7325714Y-18969333D02*
X7344762Y-18959810D01*
X7344762Y-18959810D02*
X7354286Y-18950286D01*
X7354286Y-18950286D02*
X7363810Y-18931238D01*
X7430476Y-18845524D02*
X7563810Y-18845524D01*
X7563810Y-18845524D02*
X7478095Y-19045524D01*
X7630476Y-18845524D02*
X7630476Y-18883619D01*
X7706667Y-18845524D02*
X7706667Y-18883619D01*
X8001905Y-19121714D02*
X7992381Y-19112190D01*
X7992381Y-19112190D02*
X7973334Y-19083619D01*
X7973334Y-19083619D02*
X7963810Y-19064571D01*
X7963810Y-19064571D02*
X7954286Y-19036000D01*
X7954286Y-19036000D02*
X7944762Y-18988381D01*
X7944762Y-18988381D02*
X7944762Y-18950286D01*
X7944762Y-18950286D02*
X7954286Y-18902667D01*
X7954286Y-18902667D02*
X7963810Y-18874095D01*
X7963810Y-18874095D02*
X7973334Y-18855048D01*
X7973334Y-18855048D02*
X7992381Y-18826476D01*
X7992381Y-18826476D02*
X8001905Y-18816952D01*
X8163810Y-18912190D02*
X8163810Y-19045524D01*
X8116191Y-18836000D02*
X8068572Y-18978857D01*
X8068572Y-18978857D02*
X8192381Y-18978857D01*
X8420953Y-19045524D02*
X8420953Y-18845524D01*
X8506667Y-19045524D02*
X8506667Y-18940762D01*
X8506667Y-18940762D02*
X8497143Y-18921714D01*
X8497143Y-18921714D02*
X8478096Y-18912190D01*
X8478096Y-18912190D02*
X8449524Y-18912190D01*
X8449524Y-18912190D02*
X8430477Y-18921714D01*
X8430477Y-18921714D02*
X8420953Y-18931238D01*
X8630477Y-19045524D02*
X8611429Y-19036000D01*
X8611429Y-19036000D02*
X8601905Y-19026476D01*
X8601905Y-19026476D02*
X8592381Y-19007429D01*
X8592381Y-19007429D02*
X8592381Y-18950286D01*
X8592381Y-18950286D02*
X8601905Y-18931238D01*
X8601905Y-18931238D02*
X8611429Y-18921714D01*
X8611429Y-18921714D02*
X8630477Y-18912190D01*
X8630477Y-18912190D02*
X8659048Y-18912190D01*
X8659048Y-18912190D02*
X8678096Y-18921714D01*
X8678096Y-18921714D02*
X8687619Y-18931238D01*
X8687619Y-18931238D02*
X8697143Y-18950286D01*
X8697143Y-18950286D02*
X8697143Y-19007429D01*
X8697143Y-19007429D02*
X8687619Y-19026476D01*
X8687619Y-19026476D02*
X8678096Y-19036000D01*
X8678096Y-19036000D02*
X8659048Y-19045524D01*
X8659048Y-19045524D02*
X8630477Y-19045524D01*
X8811429Y-19045524D02*
X8792381Y-19036000D01*
X8792381Y-19036000D02*
X8782858Y-19016952D01*
X8782858Y-19016952D02*
X8782858Y-18845524D01*
X8963810Y-19036000D02*
X8944762Y-19045524D01*
X8944762Y-19045524D02*
X8906667Y-19045524D01*
X8906667Y-19045524D02*
X8887619Y-19036000D01*
X8887619Y-19036000D02*
X8878096Y-19016952D01*
X8878096Y-19016952D02*
X8878096Y-18940762D01*
X8878096Y-18940762D02*
X8887619Y-18921714D01*
X8887619Y-18921714D02*
X8906667Y-18912190D01*
X8906667Y-18912190D02*
X8944762Y-18912190D01*
X8944762Y-18912190D02*
X8963810Y-18921714D01*
X8963810Y-18921714D02*
X8973334Y-18940762D01*
X8973334Y-18940762D02*
X8973334Y-18959810D01*
X8973334Y-18959810D02*
X8878096Y-18978857D01*
X9049524Y-19036000D02*
X9068572Y-19045524D01*
X9068572Y-19045524D02*
X9106667Y-19045524D01*
X9106667Y-19045524D02*
X9125715Y-19036000D01*
X9125715Y-19036000D02*
X9135239Y-19016952D01*
X9135239Y-19016952D02*
X9135239Y-19007429D01*
X9135239Y-19007429D02*
X9125715Y-18988381D01*
X9125715Y-18988381D02*
X9106667Y-18978857D01*
X9106667Y-18978857D02*
X9078096Y-18978857D01*
X9078096Y-18978857D02*
X9059048Y-18969333D01*
X9059048Y-18969333D02*
X9049524Y-18950286D01*
X9049524Y-18950286D02*
X9049524Y-18940762D01*
X9049524Y-18940762D02*
X9059048Y-18921714D01*
X9059048Y-18921714D02*
X9078096Y-18912190D01*
X9078096Y-18912190D02*
X9106667Y-18912190D01*
X9106667Y-18912190D02*
X9125715Y-18921714D01*
X9201905Y-19121714D02*
X9211429Y-19112190D01*
X9211429Y-19112190D02*
X9230477Y-19083619D01*
X9230477Y-19083619D02*
X9240000Y-19064571D01*
X9240000Y-19064571D02*
X9249524Y-19036000D01*
X9249524Y-19036000D02*
X9259048Y-18988381D01*
X9259048Y-18988381D02*
X9259048Y-18950286D01*
X9259048Y-18950286D02*
X9249524Y-18902667D01*
X9249524Y-18902667D02*
X9240000Y-18874095D01*
X9240000Y-18874095D02*
X9230477Y-18855048D01*
X9230477Y-18855048D02*
X9211429Y-18826476D01*
X9211429Y-18826476D02*
X9201905Y-18816952D01*
D15*
X4431213Y-19238213D02*
X4431213Y-19195787D01*
X4388787Y-19195787D01*
X4388787Y-19238213D01*
X4431213Y-19238213D01*
D11*
X4725714Y-19109524D02*
X4744762Y-19109524D01*
X4744762Y-19109524D02*
X4763810Y-19119048D01*
X4763810Y-19119048D02*
X4773333Y-19128571D01*
X4773333Y-19128571D02*
X4782857Y-19147619D01*
X4782857Y-19147619D02*
X4792381Y-19185714D01*
X4792381Y-19185714D02*
X4792381Y-19233333D01*
X4792381Y-19233333D02*
X4782857Y-19271429D01*
X4782857Y-19271429D02*
X4773333Y-19290476D01*
X4773333Y-19290476D02*
X4763810Y-19300000D01*
X4763810Y-19300000D02*
X4744762Y-19309524D01*
X4744762Y-19309524D02*
X4725714Y-19309524D01*
X4725714Y-19309524D02*
X4706667Y-19300000D01*
X4706667Y-19300000D02*
X4697143Y-19290476D01*
X4697143Y-19290476D02*
X4687619Y-19271429D01*
X4687619Y-19271429D02*
X4678095Y-19233333D01*
X4678095Y-19233333D02*
X4678095Y-19185714D01*
X4678095Y-19185714D02*
X4687619Y-19147619D01*
X4687619Y-19147619D02*
X4697143Y-19128571D01*
X4697143Y-19128571D02*
X4706667Y-19119048D01*
X4706667Y-19119048D02*
X4725714Y-19109524D01*
X4878095Y-19290476D02*
X4887619Y-19300000D01*
X4887619Y-19300000D02*
X4878095Y-19309524D01*
X4878095Y-19309524D02*
X4868571Y-19300000D01*
X4868571Y-19300000D02*
X4878095Y-19290476D01*
X4878095Y-19290476D02*
X4878095Y-19309524D01*
X5059048Y-19109524D02*
X5020952Y-19109524D01*
X5020952Y-19109524D02*
X5001905Y-19119048D01*
X5001905Y-19119048D02*
X4992381Y-19128571D01*
X4992381Y-19128571D02*
X4973333Y-19157143D01*
X4973333Y-19157143D02*
X4963810Y-19195238D01*
X4963810Y-19195238D02*
X4963810Y-19271429D01*
X4963810Y-19271429D02*
X4973333Y-19290476D01*
X4973333Y-19290476D02*
X4982857Y-19300000D01*
X4982857Y-19300000D02*
X5001905Y-19309524D01*
X5001905Y-19309524D02*
X5040000Y-19309524D01*
X5040000Y-19309524D02*
X5059048Y-19300000D01*
X5059048Y-19300000D02*
X5068571Y-19290476D01*
X5068571Y-19290476D02*
X5078095Y-19271429D01*
X5078095Y-19271429D02*
X5078095Y-19223810D01*
X5078095Y-19223810D02*
X5068571Y-19204762D01*
X5068571Y-19204762D02*
X5059048Y-19195238D01*
X5059048Y-19195238D02*
X5040000Y-19185714D01*
X5040000Y-19185714D02*
X5001905Y-19185714D01*
X5001905Y-19185714D02*
X4982857Y-19195238D01*
X4982857Y-19195238D02*
X4973333Y-19204762D01*
X4973333Y-19204762D02*
X4963810Y-19223810D01*
X5201905Y-19109524D02*
X5220952Y-19109524D01*
X5220952Y-19109524D02*
X5240000Y-19119048D01*
X5240000Y-19119048D02*
X5249524Y-19128571D01*
X5249524Y-19128571D02*
X5259048Y-19147619D01*
X5259048Y-19147619D02*
X5268571Y-19185714D01*
X5268571Y-19185714D02*
X5268571Y-19233333D01*
X5268571Y-19233333D02*
X5259048Y-19271429D01*
X5259048Y-19271429D02*
X5249524Y-19290476D01*
X5249524Y-19290476D02*
X5240000Y-19300000D01*
X5240000Y-19300000D02*
X5220952Y-19309524D01*
X5220952Y-19309524D02*
X5201905Y-19309524D01*
X5201905Y-19309524D02*
X5182857Y-19300000D01*
X5182857Y-19300000D02*
X5173333Y-19290476D01*
X5173333Y-19290476D02*
X5163810Y-19271429D01*
X5163810Y-19271429D02*
X5154286Y-19233333D01*
X5154286Y-19233333D02*
X5154286Y-19185714D01*
X5154286Y-19185714D02*
X5163810Y-19147619D01*
X5163810Y-19147619D02*
X5173333Y-19128571D01*
X5173333Y-19128571D02*
X5182857Y-19119048D01*
X5182857Y-19119048D02*
X5201905Y-19109524D01*
X5392381Y-19109524D02*
X5411429Y-19109524D01*
X5411429Y-19109524D02*
X5430476Y-19119048D01*
X5430476Y-19119048D02*
X5440000Y-19128571D01*
X5440000Y-19128571D02*
X5449524Y-19147619D01*
X5449524Y-19147619D02*
X5459048Y-19185714D01*
X5459048Y-19185714D02*
X5459048Y-19233333D01*
X5459048Y-19233333D02*
X5449524Y-19271429D01*
X5449524Y-19271429D02*
X5440000Y-19290476D01*
X5440000Y-19290476D02*
X5430476Y-19300000D01*
X5430476Y-19300000D02*
X5411429Y-19309524D01*
X5411429Y-19309524D02*
X5392381Y-19309524D01*
X5392381Y-19309524D02*
X5373333Y-19300000D01*
X5373333Y-19300000D02*
X5363810Y-19290476D01*
X5363810Y-19290476D02*
X5354286Y-19271429D01*
X5354286Y-19271429D02*
X5344762Y-19233333D01*
X5344762Y-19233333D02*
X5344762Y-19185714D01*
X5344762Y-19185714D02*
X5354286Y-19147619D01*
X5354286Y-19147619D02*
X5363810Y-19128571D01*
X5363810Y-19128571D02*
X5373333Y-19119048D01*
X5373333Y-19119048D02*
X5392381Y-19109524D01*
X5544762Y-19309524D02*
X5544762Y-19176190D01*
X5544762Y-19195238D02*
X5554286Y-19185714D01*
X5554286Y-19185714D02*
X5573333Y-19176190D01*
X5573333Y-19176190D02*
X5601905Y-19176190D01*
X5601905Y-19176190D02*
X5620952Y-19185714D01*
X5620952Y-19185714D02*
X5630476Y-19204762D01*
X5630476Y-19204762D02*
X5630476Y-19309524D01*
X5630476Y-19204762D02*
X5640000Y-19185714D01*
X5640000Y-19185714D02*
X5659048Y-19176190D01*
X5659048Y-19176190D02*
X5687619Y-19176190D01*
X5687619Y-19176190D02*
X5706667Y-19185714D01*
X5706667Y-19185714D02*
X5716190Y-19204762D01*
X5716190Y-19204762D02*
X5716190Y-19309524D01*
X5811429Y-19309524D02*
X5811429Y-19176190D01*
X5811429Y-19195238D02*
X5820952Y-19185714D01*
X5820952Y-19185714D02*
X5840000Y-19176190D01*
X5840000Y-19176190D02*
X5868571Y-19176190D01*
X5868571Y-19176190D02*
X5887619Y-19185714D01*
X5887619Y-19185714D02*
X5897143Y-19204762D01*
X5897143Y-19204762D02*
X5897143Y-19309524D01*
X5897143Y-19204762D02*
X5906667Y-19185714D01*
X5906667Y-19185714D02*
X5925714Y-19176190D01*
X5925714Y-19176190D02*
X5954286Y-19176190D01*
X5954286Y-19176190D02*
X5973333Y-19185714D01*
X5973333Y-19185714D02*
X5982857Y-19204762D01*
X5982857Y-19204762D02*
X5982857Y-19309524D01*
X6373333Y-19100000D02*
X6201905Y-19357143D01*
X6630476Y-19109524D02*
X6649524Y-19109524D01*
X6649524Y-19109524D02*
X6668572Y-19119048D01*
X6668572Y-19119048D02*
X6678095Y-19128571D01*
X6678095Y-19128571D02*
X6687619Y-19147619D01*
X6687619Y-19147619D02*
X6697143Y-19185714D01*
X6697143Y-19185714D02*
X6697143Y-19233333D01*
X6697143Y-19233333D02*
X6687619Y-19271429D01*
X6687619Y-19271429D02*
X6678095Y-19290476D01*
X6678095Y-19290476D02*
X6668572Y-19300000D01*
X6668572Y-19300000D02*
X6649524Y-19309524D01*
X6649524Y-19309524D02*
X6630476Y-19309524D01*
X6630476Y-19309524D02*
X6611429Y-19300000D01*
X6611429Y-19300000D02*
X6601905Y-19290476D01*
X6601905Y-19290476D02*
X6592381Y-19271429D01*
X6592381Y-19271429D02*
X6582857Y-19233333D01*
X6582857Y-19233333D02*
X6582857Y-19185714D01*
X6582857Y-19185714D02*
X6592381Y-19147619D01*
X6592381Y-19147619D02*
X6601905Y-19128571D01*
X6601905Y-19128571D02*
X6611429Y-19119048D01*
X6611429Y-19119048D02*
X6630476Y-19109524D01*
X6782857Y-19290476D02*
X6792381Y-19300000D01*
X6792381Y-19300000D02*
X6782857Y-19309524D01*
X6782857Y-19309524D02*
X6773333Y-19300000D01*
X6773333Y-19300000D02*
X6782857Y-19290476D01*
X6782857Y-19290476D02*
X6782857Y-19309524D01*
X6916191Y-19109524D02*
X6935238Y-19109524D01*
X6935238Y-19109524D02*
X6954286Y-19119048D01*
X6954286Y-19119048D02*
X6963810Y-19128571D01*
X6963810Y-19128571D02*
X6973333Y-19147619D01*
X6973333Y-19147619D02*
X6982857Y-19185714D01*
X6982857Y-19185714D02*
X6982857Y-19233333D01*
X6982857Y-19233333D02*
X6973333Y-19271429D01*
X6973333Y-19271429D02*
X6963810Y-19290476D01*
X6963810Y-19290476D02*
X6954286Y-19300000D01*
X6954286Y-19300000D02*
X6935238Y-19309524D01*
X6935238Y-19309524D02*
X6916191Y-19309524D01*
X6916191Y-19309524D02*
X6897143Y-19300000D01*
X6897143Y-19300000D02*
X6887619Y-19290476D01*
X6887619Y-19290476D02*
X6878095Y-19271429D01*
X6878095Y-19271429D02*
X6868572Y-19233333D01*
X6868572Y-19233333D02*
X6868572Y-19185714D01*
X6868572Y-19185714D02*
X6878095Y-19147619D01*
X6878095Y-19147619D02*
X6887619Y-19128571D01*
X6887619Y-19128571D02*
X6897143Y-19119048D01*
X6897143Y-19119048D02*
X6916191Y-19109524D01*
X7059048Y-19128571D02*
X7068572Y-19119048D01*
X7068572Y-19119048D02*
X7087619Y-19109524D01*
X7087619Y-19109524D02*
X7135238Y-19109524D01*
X7135238Y-19109524D02*
X7154286Y-19119048D01*
X7154286Y-19119048D02*
X7163810Y-19128571D01*
X7163810Y-19128571D02*
X7173333Y-19147619D01*
X7173333Y-19147619D02*
X7173333Y-19166667D01*
X7173333Y-19166667D02*
X7163810Y-19195238D01*
X7163810Y-19195238D02*
X7049524Y-19309524D01*
X7049524Y-19309524D02*
X7173333Y-19309524D01*
X7240000Y-19109524D02*
X7363810Y-19109524D01*
X7363810Y-19109524D02*
X7297143Y-19185714D01*
X7297143Y-19185714D02*
X7325714Y-19185714D01*
X7325714Y-19185714D02*
X7344762Y-19195238D01*
X7344762Y-19195238D02*
X7354286Y-19204762D01*
X7354286Y-19204762D02*
X7363810Y-19223810D01*
X7363810Y-19223810D02*
X7363810Y-19271429D01*
X7363810Y-19271429D02*
X7354286Y-19290476D01*
X7354286Y-19290476D02*
X7344762Y-19300000D01*
X7344762Y-19300000D02*
X7325714Y-19309524D01*
X7325714Y-19309524D02*
X7268572Y-19309524D01*
X7268572Y-19309524D02*
X7249524Y-19300000D01*
X7249524Y-19300000D02*
X7240000Y-19290476D01*
X7535238Y-19109524D02*
X7497143Y-19109524D01*
X7497143Y-19109524D02*
X7478095Y-19119048D01*
X7478095Y-19119048D02*
X7468572Y-19128571D01*
X7468572Y-19128571D02*
X7449524Y-19157143D01*
X7449524Y-19157143D02*
X7440000Y-19195238D01*
X7440000Y-19195238D02*
X7440000Y-19271429D01*
X7440000Y-19271429D02*
X7449524Y-19290476D01*
X7449524Y-19290476D02*
X7459048Y-19300000D01*
X7459048Y-19300000D02*
X7478095Y-19309524D01*
X7478095Y-19309524D02*
X7516191Y-19309524D01*
X7516191Y-19309524D02*
X7535238Y-19300000D01*
X7535238Y-19300000D02*
X7544762Y-19290476D01*
X7544762Y-19290476D02*
X7554286Y-19271429D01*
X7554286Y-19271429D02*
X7554286Y-19223810D01*
X7554286Y-19223810D02*
X7544762Y-19204762D01*
X7544762Y-19204762D02*
X7535238Y-19195238D01*
X7535238Y-19195238D02*
X7516191Y-19185714D01*
X7516191Y-19185714D02*
X7478095Y-19185714D01*
X7478095Y-19185714D02*
X7459048Y-19195238D01*
X7459048Y-19195238D02*
X7449524Y-19204762D01*
X7449524Y-19204762D02*
X7440000Y-19223810D01*
X7630476Y-19109524D02*
X7630476Y-19147619D01*
X7706667Y-19109524D02*
X7706667Y-19147619D01*
X8001905Y-19385714D02*
X7992381Y-19376190D01*
X7992381Y-19376190D02*
X7973334Y-19347619D01*
X7973334Y-19347619D02*
X7963810Y-19328571D01*
X7963810Y-19328571D02*
X7954286Y-19300000D01*
X7954286Y-19300000D02*
X7944762Y-19252381D01*
X7944762Y-19252381D02*
X7944762Y-19214286D01*
X7944762Y-19214286D02*
X7954286Y-19166667D01*
X7954286Y-19166667D02*
X7963810Y-19138095D01*
X7963810Y-19138095D02*
X7973334Y-19119048D01*
X7973334Y-19119048D02*
X7992381Y-19090476D01*
X7992381Y-19090476D02*
X8001905Y-19080952D01*
X8116191Y-19109524D02*
X8135238Y-19109524D01*
X8135238Y-19109524D02*
X8154286Y-19119048D01*
X8154286Y-19119048D02*
X8163810Y-19128571D01*
X8163810Y-19128571D02*
X8173334Y-19147619D01*
X8173334Y-19147619D02*
X8182857Y-19185714D01*
X8182857Y-19185714D02*
X8182857Y-19233333D01*
X8182857Y-19233333D02*
X8173334Y-19271429D01*
X8173334Y-19271429D02*
X8163810Y-19290476D01*
X8163810Y-19290476D02*
X8154286Y-19300000D01*
X8154286Y-19300000D02*
X8135238Y-19309524D01*
X8135238Y-19309524D02*
X8116191Y-19309524D01*
X8116191Y-19309524D02*
X8097143Y-19300000D01*
X8097143Y-19300000D02*
X8087619Y-19290476D01*
X8087619Y-19290476D02*
X8078095Y-19271429D01*
X8078095Y-19271429D02*
X8068572Y-19233333D01*
X8068572Y-19233333D02*
X8068572Y-19185714D01*
X8068572Y-19185714D02*
X8078095Y-19147619D01*
X8078095Y-19147619D02*
X8087619Y-19128571D01*
X8087619Y-19128571D02*
X8097143Y-19119048D01*
X8097143Y-19119048D02*
X8116191Y-19109524D01*
X8420953Y-19309524D02*
X8420953Y-19109524D01*
X8506667Y-19309524D02*
X8506667Y-19204762D01*
X8506667Y-19204762D02*
X8497143Y-19185714D01*
X8497143Y-19185714D02*
X8478096Y-19176190D01*
X8478096Y-19176190D02*
X8449524Y-19176190D01*
X8449524Y-19176190D02*
X8430477Y-19185714D01*
X8430477Y-19185714D02*
X8420953Y-19195238D01*
X8630477Y-19309524D02*
X8611429Y-19300000D01*
X8611429Y-19300000D02*
X8601905Y-19290476D01*
X8601905Y-19290476D02*
X8592381Y-19271429D01*
X8592381Y-19271429D02*
X8592381Y-19214286D01*
X8592381Y-19214286D02*
X8601905Y-19195238D01*
X8601905Y-19195238D02*
X8611429Y-19185714D01*
X8611429Y-19185714D02*
X8630477Y-19176190D01*
X8630477Y-19176190D02*
X8659048Y-19176190D01*
X8659048Y-19176190D02*
X8678096Y-19185714D01*
X8678096Y-19185714D02*
X8687619Y-19195238D01*
X8687619Y-19195238D02*
X8697143Y-19214286D01*
X8697143Y-19214286D02*
X8697143Y-19271429D01*
X8697143Y-19271429D02*
X8687619Y-19290476D01*
X8687619Y-19290476D02*
X8678096Y-19300000D01*
X8678096Y-19300000D02*
X8659048Y-19309524D01*
X8659048Y-19309524D02*
X8630477Y-19309524D01*
X8811429Y-19309524D02*
X8792381Y-19300000D01*
X8792381Y-19300000D02*
X8782858Y-19280952D01*
X8782858Y-19280952D02*
X8782858Y-19109524D01*
X8963810Y-19300000D02*
X8944762Y-19309524D01*
X8944762Y-19309524D02*
X8906667Y-19309524D01*
X8906667Y-19309524D02*
X8887619Y-19300000D01*
X8887619Y-19300000D02*
X8878096Y-19280952D01*
X8878096Y-19280952D02*
X8878096Y-19204762D01*
X8878096Y-19204762D02*
X8887619Y-19185714D01*
X8887619Y-19185714D02*
X8906667Y-19176190D01*
X8906667Y-19176190D02*
X8944762Y-19176190D01*
X8944762Y-19176190D02*
X8963810Y-19185714D01*
X8963810Y-19185714D02*
X8973334Y-19204762D01*
X8973334Y-19204762D02*
X8973334Y-19223810D01*
X8973334Y-19223810D02*
X8878096Y-19242857D01*
X9049524Y-19300000D02*
X9068572Y-19309524D01*
X9068572Y-19309524D02*
X9106667Y-19309524D01*
X9106667Y-19309524D02*
X9125715Y-19300000D01*
X9125715Y-19300000D02*
X9135239Y-19280952D01*
X9135239Y-19280952D02*
X9135239Y-19271429D01*
X9135239Y-19271429D02*
X9125715Y-19252381D01*
X9125715Y-19252381D02*
X9106667Y-19242857D01*
X9106667Y-19242857D02*
X9078096Y-19242857D01*
X9078096Y-19242857D02*
X9059048Y-19233333D01*
X9059048Y-19233333D02*
X9049524Y-19214286D01*
X9049524Y-19214286D02*
X9049524Y-19204762D01*
X9049524Y-19204762D02*
X9059048Y-19185714D01*
X9059048Y-19185714D02*
X9078096Y-19176190D01*
X9078096Y-19176190D02*
X9106667Y-19176190D01*
X9106667Y-19176190D02*
X9125715Y-19185714D01*
X9373334Y-19233333D02*
X9525715Y-19233333D01*
X9449524Y-19309524D02*
X9449524Y-19157143D01*
X9859048Y-19176190D02*
X9859048Y-19309524D01*
X9811429Y-19100000D02*
X9763810Y-19242857D01*
X9763810Y-19242857D02*
X9887620Y-19242857D01*
X10106667Y-19300000D02*
X10125715Y-19309524D01*
X10125715Y-19309524D02*
X10163810Y-19309524D01*
X10163810Y-19309524D02*
X10182858Y-19300000D01*
X10182858Y-19300000D02*
X10192382Y-19280952D01*
X10192382Y-19280952D02*
X10192382Y-19271429D01*
X10192382Y-19271429D02*
X10182858Y-19252381D01*
X10182858Y-19252381D02*
X10163810Y-19242857D01*
X10163810Y-19242857D02*
X10135239Y-19242857D01*
X10135239Y-19242857D02*
X10116191Y-19233333D01*
X10116191Y-19233333D02*
X10106667Y-19214286D01*
X10106667Y-19214286D02*
X10106667Y-19204762D01*
X10106667Y-19204762D02*
X10116191Y-19185714D01*
X10116191Y-19185714D02*
X10135239Y-19176190D01*
X10135239Y-19176190D02*
X10163810Y-19176190D01*
X10163810Y-19176190D02*
X10182858Y-19185714D01*
X10306667Y-19309524D02*
X10287620Y-19300000D01*
X10287620Y-19300000D02*
X10278096Y-19280952D01*
X10278096Y-19280952D02*
X10278096Y-19109524D01*
X10411429Y-19309524D02*
X10392382Y-19300000D01*
X10392382Y-19300000D02*
X10382858Y-19290476D01*
X10382858Y-19290476D02*
X10373334Y-19271429D01*
X10373334Y-19271429D02*
X10373334Y-19214286D01*
X10373334Y-19214286D02*
X10382858Y-19195238D01*
X10382858Y-19195238D02*
X10392382Y-19185714D01*
X10392382Y-19185714D02*
X10411429Y-19176190D01*
X10411429Y-19176190D02*
X10440001Y-19176190D01*
X10440001Y-19176190D02*
X10459048Y-19185714D01*
X10459048Y-19185714D02*
X10468572Y-19195238D01*
X10468572Y-19195238D02*
X10478096Y-19214286D01*
X10478096Y-19214286D02*
X10478096Y-19271429D01*
X10478096Y-19271429D02*
X10468572Y-19290476D01*
X10468572Y-19290476D02*
X10459048Y-19300000D01*
X10459048Y-19300000D02*
X10440001Y-19309524D01*
X10440001Y-19309524D02*
X10411429Y-19309524D01*
X10535239Y-19176190D02*
X10611429Y-19176190D01*
X10563810Y-19109524D02*
X10563810Y-19280952D01*
X10563810Y-19280952D02*
X10573334Y-19300000D01*
X10573334Y-19300000D02*
X10592382Y-19309524D01*
X10592382Y-19309524D02*
X10611429Y-19309524D01*
X10668572Y-19300000D02*
X10687620Y-19309524D01*
X10687620Y-19309524D02*
X10725715Y-19309524D01*
X10725715Y-19309524D02*
X10744763Y-19300000D01*
X10744763Y-19300000D02*
X10754286Y-19280952D01*
X10754286Y-19280952D02*
X10754286Y-19271429D01*
X10754286Y-19271429D02*
X10744763Y-19252381D01*
X10744763Y-19252381D02*
X10725715Y-19242857D01*
X10725715Y-19242857D02*
X10697143Y-19242857D01*
X10697143Y-19242857D02*
X10678096Y-19233333D01*
X10678096Y-19233333D02*
X10668572Y-19214286D01*
X10668572Y-19214286D02*
X10668572Y-19204762D01*
X10668572Y-19204762D02*
X10678096Y-19185714D01*
X10678096Y-19185714D02*
X10697143Y-19176190D01*
X10697143Y-19176190D02*
X10725715Y-19176190D01*
X10725715Y-19176190D02*
X10744763Y-19185714D01*
X10820953Y-19385714D02*
X10830477Y-19376190D01*
X10830477Y-19376190D02*
X10849524Y-19347619D01*
X10849524Y-19347619D02*
X10859048Y-19328571D01*
X10859048Y-19328571D02*
X10868572Y-19300000D01*
X10868572Y-19300000D02*
X10878096Y-19252381D01*
X10878096Y-19252381D02*
X10878096Y-19214286D01*
X10878096Y-19214286D02*
X10868572Y-19166667D01*
X10868572Y-19166667D02*
X10859048Y-19138095D01*
X10859048Y-19138095D02*
X10849524Y-19119048D01*
X10849524Y-19119048D02*
X10830477Y-19090476D01*
X10830477Y-19090476D02*
X10820953Y-19080952D01*
D16*
X4402500Y-19518500D02*
X4440000Y-19481000D01*
X4402500Y-19443500D01*
X4365000Y-19481000D01*
X4402500Y-19518500D01*
D11*
X4725714Y-19373524D02*
X4744762Y-19373524D01*
X4744762Y-19373524D02*
X4763810Y-19383048D01*
X4763810Y-19383048D02*
X4773333Y-19392571D01*
X4773333Y-19392571D02*
X4782857Y-19411619D01*
X4782857Y-19411619D02*
X4792381Y-19449714D01*
X4792381Y-19449714D02*
X4792381Y-19497333D01*
X4792381Y-19497333D02*
X4782857Y-19535429D01*
X4782857Y-19535429D02*
X4773333Y-19554476D01*
X4773333Y-19554476D02*
X4763810Y-19564000D01*
X4763810Y-19564000D02*
X4744762Y-19573524D01*
X4744762Y-19573524D02*
X4725714Y-19573524D01*
X4725714Y-19573524D02*
X4706667Y-19564000D01*
X4706667Y-19564000D02*
X4697143Y-19554476D01*
X4697143Y-19554476D02*
X4687619Y-19535429D01*
X4687619Y-19535429D02*
X4678095Y-19497333D01*
X4678095Y-19497333D02*
X4678095Y-19449714D01*
X4678095Y-19449714D02*
X4687619Y-19411619D01*
X4687619Y-19411619D02*
X4697143Y-19392571D01*
X4697143Y-19392571D02*
X4706667Y-19383048D01*
X4706667Y-19383048D02*
X4725714Y-19373524D01*
X4878095Y-19554476D02*
X4887619Y-19564000D01*
X4887619Y-19564000D02*
X4878095Y-19573524D01*
X4878095Y-19573524D02*
X4868571Y-19564000D01*
X4868571Y-19564000D02*
X4878095Y-19554476D01*
X4878095Y-19554476D02*
X4878095Y-19573524D01*
X4954286Y-19373524D02*
X5087619Y-19373524D01*
X5087619Y-19373524D02*
X5001905Y-19573524D01*
X5259048Y-19373524D02*
X5163810Y-19373524D01*
X5163810Y-19373524D02*
X5154286Y-19468762D01*
X5154286Y-19468762D02*
X5163810Y-19459238D01*
X5163810Y-19459238D02*
X5182857Y-19449714D01*
X5182857Y-19449714D02*
X5230476Y-19449714D01*
X5230476Y-19449714D02*
X5249524Y-19459238D01*
X5249524Y-19459238D02*
X5259048Y-19468762D01*
X5259048Y-19468762D02*
X5268571Y-19487810D01*
X5268571Y-19487810D02*
X5268571Y-19535429D01*
X5268571Y-19535429D02*
X5259048Y-19554476D01*
X5259048Y-19554476D02*
X5249524Y-19564000D01*
X5249524Y-19564000D02*
X5230476Y-19573524D01*
X5230476Y-19573524D02*
X5182857Y-19573524D01*
X5182857Y-19573524D02*
X5163810Y-19564000D01*
X5163810Y-19564000D02*
X5154286Y-19554476D01*
X5392381Y-19373524D02*
X5411429Y-19373524D01*
X5411429Y-19373524D02*
X5430476Y-19383048D01*
X5430476Y-19383048D02*
X5440000Y-19392571D01*
X5440000Y-19392571D02*
X5449524Y-19411619D01*
X5449524Y-19411619D02*
X5459048Y-19449714D01*
X5459048Y-19449714D02*
X5459048Y-19497333D01*
X5459048Y-19497333D02*
X5449524Y-19535429D01*
X5449524Y-19535429D02*
X5440000Y-19554476D01*
X5440000Y-19554476D02*
X5430476Y-19564000D01*
X5430476Y-19564000D02*
X5411429Y-19573524D01*
X5411429Y-19573524D02*
X5392381Y-19573524D01*
X5392381Y-19573524D02*
X5373333Y-19564000D01*
X5373333Y-19564000D02*
X5363810Y-19554476D01*
X5363810Y-19554476D02*
X5354286Y-19535429D01*
X5354286Y-19535429D02*
X5344762Y-19497333D01*
X5344762Y-19497333D02*
X5344762Y-19449714D01*
X5344762Y-19449714D02*
X5354286Y-19411619D01*
X5354286Y-19411619D02*
X5363810Y-19392571D01*
X5363810Y-19392571D02*
X5373333Y-19383048D01*
X5373333Y-19383048D02*
X5392381Y-19373524D01*
X5544762Y-19573524D02*
X5544762Y-19440190D01*
X5544762Y-19459238D02*
X5554286Y-19449714D01*
X5554286Y-19449714D02*
X5573333Y-19440190D01*
X5573333Y-19440190D02*
X5601905Y-19440190D01*
X5601905Y-19440190D02*
X5620952Y-19449714D01*
X5620952Y-19449714D02*
X5630476Y-19468762D01*
X5630476Y-19468762D02*
X5630476Y-19573524D01*
X5630476Y-19468762D02*
X5640000Y-19449714D01*
X5640000Y-19449714D02*
X5659048Y-19440190D01*
X5659048Y-19440190D02*
X5687619Y-19440190D01*
X5687619Y-19440190D02*
X5706667Y-19449714D01*
X5706667Y-19449714D02*
X5716190Y-19468762D01*
X5716190Y-19468762D02*
X5716190Y-19573524D01*
X5811429Y-19573524D02*
X5811429Y-19440190D01*
X5811429Y-19459238D02*
X5820952Y-19449714D01*
X5820952Y-19449714D02*
X5840000Y-19440190D01*
X5840000Y-19440190D02*
X5868571Y-19440190D01*
X5868571Y-19440190D02*
X5887619Y-19449714D01*
X5887619Y-19449714D02*
X5897143Y-19468762D01*
X5897143Y-19468762D02*
X5897143Y-19573524D01*
X5897143Y-19468762D02*
X5906667Y-19449714D01*
X5906667Y-19449714D02*
X5925714Y-19440190D01*
X5925714Y-19440190D02*
X5954286Y-19440190D01*
X5954286Y-19440190D02*
X5973333Y-19449714D01*
X5973333Y-19449714D02*
X5982857Y-19468762D01*
X5982857Y-19468762D02*
X5982857Y-19573524D01*
X6373333Y-19364000D02*
X6201905Y-19621143D01*
X6630476Y-19373524D02*
X6649524Y-19373524D01*
X6649524Y-19373524D02*
X6668572Y-19383048D01*
X6668572Y-19383048D02*
X6678095Y-19392571D01*
X6678095Y-19392571D02*
X6687619Y-19411619D01*
X6687619Y-19411619D02*
X6697143Y-19449714D01*
X6697143Y-19449714D02*
X6697143Y-19497333D01*
X6697143Y-19497333D02*
X6687619Y-19535429D01*
X6687619Y-19535429D02*
X6678095Y-19554476D01*
X6678095Y-19554476D02*
X6668572Y-19564000D01*
X6668572Y-19564000D02*
X6649524Y-19573524D01*
X6649524Y-19573524D02*
X6630476Y-19573524D01*
X6630476Y-19573524D02*
X6611429Y-19564000D01*
X6611429Y-19564000D02*
X6601905Y-19554476D01*
X6601905Y-19554476D02*
X6592381Y-19535429D01*
X6592381Y-19535429D02*
X6582857Y-19497333D01*
X6582857Y-19497333D02*
X6582857Y-19449714D01*
X6582857Y-19449714D02*
X6592381Y-19411619D01*
X6592381Y-19411619D02*
X6601905Y-19392571D01*
X6601905Y-19392571D02*
X6611429Y-19383048D01*
X6611429Y-19383048D02*
X6630476Y-19373524D01*
X6782857Y-19554476D02*
X6792381Y-19564000D01*
X6792381Y-19564000D02*
X6782857Y-19573524D01*
X6782857Y-19573524D02*
X6773333Y-19564000D01*
X6773333Y-19564000D02*
X6782857Y-19554476D01*
X6782857Y-19554476D02*
X6782857Y-19573524D01*
X6916191Y-19373524D02*
X6935238Y-19373524D01*
X6935238Y-19373524D02*
X6954286Y-19383048D01*
X6954286Y-19383048D02*
X6963810Y-19392571D01*
X6963810Y-19392571D02*
X6973333Y-19411619D01*
X6973333Y-19411619D02*
X6982857Y-19449714D01*
X6982857Y-19449714D02*
X6982857Y-19497333D01*
X6982857Y-19497333D02*
X6973333Y-19535429D01*
X6973333Y-19535429D02*
X6963810Y-19554476D01*
X6963810Y-19554476D02*
X6954286Y-19564000D01*
X6954286Y-19564000D02*
X6935238Y-19573524D01*
X6935238Y-19573524D02*
X6916191Y-19573524D01*
X6916191Y-19573524D02*
X6897143Y-19564000D01*
X6897143Y-19564000D02*
X6887619Y-19554476D01*
X6887619Y-19554476D02*
X6878095Y-19535429D01*
X6878095Y-19535429D02*
X6868572Y-19497333D01*
X6868572Y-19497333D02*
X6868572Y-19449714D01*
X6868572Y-19449714D02*
X6878095Y-19411619D01*
X6878095Y-19411619D02*
X6887619Y-19392571D01*
X6887619Y-19392571D02*
X6897143Y-19383048D01*
X6897143Y-19383048D02*
X6916191Y-19373524D01*
X7059048Y-19392571D02*
X7068572Y-19383048D01*
X7068572Y-19383048D02*
X7087619Y-19373524D01*
X7087619Y-19373524D02*
X7135238Y-19373524D01*
X7135238Y-19373524D02*
X7154286Y-19383048D01*
X7154286Y-19383048D02*
X7163810Y-19392571D01*
X7163810Y-19392571D02*
X7173333Y-19411619D01*
X7173333Y-19411619D02*
X7173333Y-19430667D01*
X7173333Y-19430667D02*
X7163810Y-19459238D01*
X7163810Y-19459238D02*
X7049524Y-19573524D01*
X7049524Y-19573524D02*
X7173333Y-19573524D01*
X7268572Y-19573524D02*
X7306667Y-19573524D01*
X7306667Y-19573524D02*
X7325714Y-19564000D01*
X7325714Y-19564000D02*
X7335238Y-19554476D01*
X7335238Y-19554476D02*
X7354286Y-19525905D01*
X7354286Y-19525905D02*
X7363810Y-19487810D01*
X7363810Y-19487810D02*
X7363810Y-19411619D01*
X7363810Y-19411619D02*
X7354286Y-19392571D01*
X7354286Y-19392571D02*
X7344762Y-19383048D01*
X7344762Y-19383048D02*
X7325714Y-19373524D01*
X7325714Y-19373524D02*
X7287619Y-19373524D01*
X7287619Y-19373524D02*
X7268572Y-19383048D01*
X7268572Y-19383048D02*
X7259048Y-19392571D01*
X7259048Y-19392571D02*
X7249524Y-19411619D01*
X7249524Y-19411619D02*
X7249524Y-19459238D01*
X7249524Y-19459238D02*
X7259048Y-19478286D01*
X7259048Y-19478286D02*
X7268572Y-19487810D01*
X7268572Y-19487810D02*
X7287619Y-19497333D01*
X7287619Y-19497333D02*
X7325714Y-19497333D01*
X7325714Y-19497333D02*
X7344762Y-19487810D01*
X7344762Y-19487810D02*
X7354286Y-19478286D01*
X7354286Y-19478286D02*
X7363810Y-19459238D01*
X7544762Y-19373524D02*
X7449524Y-19373524D01*
X7449524Y-19373524D02*
X7440000Y-19468762D01*
X7440000Y-19468762D02*
X7449524Y-19459238D01*
X7449524Y-19459238D02*
X7468572Y-19449714D01*
X7468572Y-19449714D02*
X7516191Y-19449714D01*
X7516191Y-19449714D02*
X7535238Y-19459238D01*
X7535238Y-19459238D02*
X7544762Y-19468762D01*
X7544762Y-19468762D02*
X7554286Y-19487810D01*
X7554286Y-19487810D02*
X7554286Y-19535429D01*
X7554286Y-19535429D02*
X7544762Y-19554476D01*
X7544762Y-19554476D02*
X7535238Y-19564000D01*
X7535238Y-19564000D02*
X7516191Y-19573524D01*
X7516191Y-19573524D02*
X7468572Y-19573524D01*
X7468572Y-19573524D02*
X7449524Y-19564000D01*
X7449524Y-19564000D02*
X7440000Y-19554476D01*
X7630476Y-19373524D02*
X7630476Y-19411619D01*
X7706667Y-19373524D02*
X7706667Y-19411619D01*
X8001905Y-19649714D02*
X7992381Y-19640190D01*
X7992381Y-19640190D02*
X7973334Y-19611619D01*
X7973334Y-19611619D02*
X7963810Y-19592571D01*
X7963810Y-19592571D02*
X7954286Y-19564000D01*
X7954286Y-19564000D02*
X7944762Y-19516381D01*
X7944762Y-19516381D02*
X7944762Y-19478286D01*
X7944762Y-19478286D02*
X7954286Y-19430667D01*
X7954286Y-19430667D02*
X7963810Y-19402095D01*
X7963810Y-19402095D02*
X7973334Y-19383048D01*
X7973334Y-19383048D02*
X7992381Y-19354476D01*
X7992381Y-19354476D02*
X8001905Y-19344952D01*
X8068572Y-19392571D02*
X8078095Y-19383048D01*
X8078095Y-19383048D02*
X8097143Y-19373524D01*
X8097143Y-19373524D02*
X8144762Y-19373524D01*
X8144762Y-19373524D02*
X8163810Y-19383048D01*
X8163810Y-19383048D02*
X8173334Y-19392571D01*
X8173334Y-19392571D02*
X8182857Y-19411619D01*
X8182857Y-19411619D02*
X8182857Y-19430667D01*
X8182857Y-19430667D02*
X8173334Y-19459238D01*
X8173334Y-19459238D02*
X8059048Y-19573524D01*
X8059048Y-19573524D02*
X8182857Y-19573524D01*
X8420953Y-19573524D02*
X8420953Y-19373524D01*
X8506667Y-19573524D02*
X8506667Y-19468762D01*
X8506667Y-19468762D02*
X8497143Y-19449714D01*
X8497143Y-19449714D02*
X8478096Y-19440190D01*
X8478096Y-19440190D02*
X8449524Y-19440190D01*
X8449524Y-19440190D02*
X8430477Y-19449714D01*
X8430477Y-19449714D02*
X8420953Y-19459238D01*
X8630477Y-19573524D02*
X8611429Y-19564000D01*
X8611429Y-19564000D02*
X8601905Y-19554476D01*
X8601905Y-19554476D02*
X8592381Y-19535429D01*
X8592381Y-19535429D02*
X8592381Y-19478286D01*
X8592381Y-19478286D02*
X8601905Y-19459238D01*
X8601905Y-19459238D02*
X8611429Y-19449714D01*
X8611429Y-19449714D02*
X8630477Y-19440190D01*
X8630477Y-19440190D02*
X8659048Y-19440190D01*
X8659048Y-19440190D02*
X8678096Y-19449714D01*
X8678096Y-19449714D02*
X8687619Y-19459238D01*
X8687619Y-19459238D02*
X8697143Y-19478286D01*
X8697143Y-19478286D02*
X8697143Y-19535429D01*
X8697143Y-19535429D02*
X8687619Y-19554476D01*
X8687619Y-19554476D02*
X8678096Y-19564000D01*
X8678096Y-19564000D02*
X8659048Y-19573524D01*
X8659048Y-19573524D02*
X8630477Y-19573524D01*
X8811429Y-19573524D02*
X8792381Y-19564000D01*
X8792381Y-19564000D02*
X8782858Y-19544952D01*
X8782858Y-19544952D02*
X8782858Y-19373524D01*
X8963810Y-19564000D02*
X8944762Y-19573524D01*
X8944762Y-19573524D02*
X8906667Y-19573524D01*
X8906667Y-19573524D02*
X8887619Y-19564000D01*
X8887619Y-19564000D02*
X8878096Y-19544952D01*
X8878096Y-19544952D02*
X8878096Y-19468762D01*
X8878096Y-19468762D02*
X8887619Y-19449714D01*
X8887619Y-19449714D02*
X8906667Y-19440190D01*
X8906667Y-19440190D02*
X8944762Y-19440190D01*
X8944762Y-19440190D02*
X8963810Y-19449714D01*
X8963810Y-19449714D02*
X8973334Y-19468762D01*
X8973334Y-19468762D02*
X8973334Y-19487810D01*
X8973334Y-19487810D02*
X8878096Y-19506857D01*
X9049524Y-19564000D02*
X9068572Y-19573524D01*
X9068572Y-19573524D02*
X9106667Y-19573524D01*
X9106667Y-19573524D02*
X9125715Y-19564000D01*
X9125715Y-19564000D02*
X9135239Y-19544952D01*
X9135239Y-19544952D02*
X9135239Y-19535429D01*
X9135239Y-19535429D02*
X9125715Y-19516381D01*
X9125715Y-19516381D02*
X9106667Y-19506857D01*
X9106667Y-19506857D02*
X9078096Y-19506857D01*
X9078096Y-19506857D02*
X9059048Y-19497333D01*
X9059048Y-19497333D02*
X9049524Y-19478286D01*
X9049524Y-19478286D02*
X9049524Y-19468762D01*
X9049524Y-19468762D02*
X9059048Y-19449714D01*
X9059048Y-19449714D02*
X9078096Y-19440190D01*
X9078096Y-19440190D02*
X9106667Y-19440190D01*
X9106667Y-19440190D02*
X9125715Y-19449714D01*
X9201905Y-19649714D02*
X9211429Y-19640190D01*
X9211429Y-19640190D02*
X9230477Y-19611619D01*
X9230477Y-19611619D02*
X9240000Y-19592571D01*
X9240000Y-19592571D02*
X9249524Y-19564000D01*
X9249524Y-19564000D02*
X9259048Y-19516381D01*
X9259048Y-19516381D02*
X9259048Y-19478286D01*
X9259048Y-19478286D02*
X9249524Y-19430667D01*
X9249524Y-19430667D02*
X9240000Y-19402095D01*
X9240000Y-19402095D02*
X9230477Y-19383048D01*
X9230477Y-19383048D02*
X9211429Y-19354476D01*
X9211429Y-19354476D02*
X9201905Y-19344952D01*
D17*
X4360000Y-19705000D02*
X4440000Y-19785000D01*
X4440000Y-19705000D02*
X4360000Y-19785000D01*
X4440000Y-19745000D02*
G75*
G03*
X4440000Y-19745000I-40000J0D01*
G01*
D11*
X4725714Y-19637524D02*
X4744762Y-19637524D01*
X4744762Y-19637524D02*
X4763810Y-19647048D01*
X4763810Y-19647048D02*
X4773333Y-19656571D01*
X4773333Y-19656571D02*
X4782857Y-19675619D01*
X4782857Y-19675619D02*
X4792381Y-19713714D01*
X4792381Y-19713714D02*
X4792381Y-19761333D01*
X4792381Y-19761333D02*
X4782857Y-19799429D01*
X4782857Y-19799429D02*
X4773333Y-19818476D01*
X4773333Y-19818476D02*
X4763810Y-19828000D01*
X4763810Y-19828000D02*
X4744762Y-19837524D01*
X4744762Y-19837524D02*
X4725714Y-19837524D01*
X4725714Y-19837524D02*
X4706667Y-19828000D01*
X4706667Y-19828000D02*
X4697143Y-19818476D01*
X4697143Y-19818476D02*
X4687619Y-19799429D01*
X4687619Y-19799429D02*
X4678095Y-19761333D01*
X4678095Y-19761333D02*
X4678095Y-19713714D01*
X4678095Y-19713714D02*
X4687619Y-19675619D01*
X4687619Y-19675619D02*
X4697143Y-19656571D01*
X4697143Y-19656571D02*
X4706667Y-19647048D01*
X4706667Y-19647048D02*
X4725714Y-19637524D01*
X4878095Y-19818476D02*
X4887619Y-19828000D01*
X4887619Y-19828000D02*
X4878095Y-19837524D01*
X4878095Y-19837524D02*
X4868571Y-19828000D01*
X4868571Y-19828000D02*
X4878095Y-19818476D01*
X4878095Y-19818476D02*
X4878095Y-19837524D01*
X5001905Y-19723238D02*
X4982857Y-19713714D01*
X4982857Y-19713714D02*
X4973333Y-19704190D01*
X4973333Y-19704190D02*
X4963810Y-19685143D01*
X4963810Y-19685143D02*
X4963810Y-19675619D01*
X4963810Y-19675619D02*
X4973333Y-19656571D01*
X4973333Y-19656571D02*
X4982857Y-19647048D01*
X4982857Y-19647048D02*
X5001905Y-19637524D01*
X5001905Y-19637524D02*
X5040000Y-19637524D01*
X5040000Y-19637524D02*
X5059048Y-19647048D01*
X5059048Y-19647048D02*
X5068571Y-19656571D01*
X5068571Y-19656571D02*
X5078095Y-19675619D01*
X5078095Y-19675619D02*
X5078095Y-19685143D01*
X5078095Y-19685143D02*
X5068571Y-19704190D01*
X5068571Y-19704190D02*
X5059048Y-19713714D01*
X5059048Y-19713714D02*
X5040000Y-19723238D01*
X5040000Y-19723238D02*
X5001905Y-19723238D01*
X5001905Y-19723238D02*
X4982857Y-19732762D01*
X4982857Y-19732762D02*
X4973333Y-19742286D01*
X4973333Y-19742286D02*
X4963810Y-19761333D01*
X4963810Y-19761333D02*
X4963810Y-19799429D01*
X4963810Y-19799429D02*
X4973333Y-19818476D01*
X4973333Y-19818476D02*
X4982857Y-19828000D01*
X4982857Y-19828000D02*
X5001905Y-19837524D01*
X5001905Y-19837524D02*
X5040000Y-19837524D01*
X5040000Y-19837524D02*
X5059048Y-19828000D01*
X5059048Y-19828000D02*
X5068571Y-19818476D01*
X5068571Y-19818476D02*
X5078095Y-19799429D01*
X5078095Y-19799429D02*
X5078095Y-19761333D01*
X5078095Y-19761333D02*
X5068571Y-19742286D01*
X5068571Y-19742286D02*
X5059048Y-19732762D01*
X5059048Y-19732762D02*
X5040000Y-19723238D01*
X5201905Y-19637524D02*
X5220952Y-19637524D01*
X5220952Y-19637524D02*
X5240000Y-19647048D01*
X5240000Y-19647048D02*
X5249524Y-19656571D01*
X5249524Y-19656571D02*
X5259048Y-19675619D01*
X5259048Y-19675619D02*
X5268571Y-19713714D01*
X5268571Y-19713714D02*
X5268571Y-19761333D01*
X5268571Y-19761333D02*
X5259048Y-19799429D01*
X5259048Y-19799429D02*
X5249524Y-19818476D01*
X5249524Y-19818476D02*
X5240000Y-19828000D01*
X5240000Y-19828000D02*
X5220952Y-19837524D01*
X5220952Y-19837524D02*
X5201905Y-19837524D01*
X5201905Y-19837524D02*
X5182857Y-19828000D01*
X5182857Y-19828000D02*
X5173333Y-19818476D01*
X5173333Y-19818476D02*
X5163810Y-19799429D01*
X5163810Y-19799429D02*
X5154286Y-19761333D01*
X5154286Y-19761333D02*
X5154286Y-19713714D01*
X5154286Y-19713714D02*
X5163810Y-19675619D01*
X5163810Y-19675619D02*
X5173333Y-19656571D01*
X5173333Y-19656571D02*
X5182857Y-19647048D01*
X5182857Y-19647048D02*
X5201905Y-19637524D01*
X5392381Y-19637524D02*
X5411429Y-19637524D01*
X5411429Y-19637524D02*
X5430476Y-19647048D01*
X5430476Y-19647048D02*
X5440000Y-19656571D01*
X5440000Y-19656571D02*
X5449524Y-19675619D01*
X5449524Y-19675619D02*
X5459048Y-19713714D01*
X5459048Y-19713714D02*
X5459048Y-19761333D01*
X5459048Y-19761333D02*
X5449524Y-19799429D01*
X5449524Y-19799429D02*
X5440000Y-19818476D01*
X5440000Y-19818476D02*
X5430476Y-19828000D01*
X5430476Y-19828000D02*
X5411429Y-19837524D01*
X5411429Y-19837524D02*
X5392381Y-19837524D01*
X5392381Y-19837524D02*
X5373333Y-19828000D01*
X5373333Y-19828000D02*
X5363810Y-19818476D01*
X5363810Y-19818476D02*
X5354286Y-19799429D01*
X5354286Y-19799429D02*
X5344762Y-19761333D01*
X5344762Y-19761333D02*
X5344762Y-19713714D01*
X5344762Y-19713714D02*
X5354286Y-19675619D01*
X5354286Y-19675619D02*
X5363810Y-19656571D01*
X5363810Y-19656571D02*
X5373333Y-19647048D01*
X5373333Y-19647048D02*
X5392381Y-19637524D01*
X5544762Y-19837524D02*
X5544762Y-19704190D01*
X5544762Y-19723238D02*
X5554286Y-19713714D01*
X5554286Y-19713714D02*
X5573333Y-19704190D01*
X5573333Y-19704190D02*
X5601905Y-19704190D01*
X5601905Y-19704190D02*
X5620952Y-19713714D01*
X5620952Y-19713714D02*
X5630476Y-19732762D01*
X5630476Y-19732762D02*
X5630476Y-19837524D01*
X5630476Y-19732762D02*
X5640000Y-19713714D01*
X5640000Y-19713714D02*
X5659048Y-19704190D01*
X5659048Y-19704190D02*
X5687619Y-19704190D01*
X5687619Y-19704190D02*
X5706667Y-19713714D01*
X5706667Y-19713714D02*
X5716190Y-19732762D01*
X5716190Y-19732762D02*
X5716190Y-19837524D01*
X5811429Y-19837524D02*
X5811429Y-19704190D01*
X5811429Y-19723238D02*
X5820952Y-19713714D01*
X5820952Y-19713714D02*
X5840000Y-19704190D01*
X5840000Y-19704190D02*
X5868571Y-19704190D01*
X5868571Y-19704190D02*
X5887619Y-19713714D01*
X5887619Y-19713714D02*
X5897143Y-19732762D01*
X5897143Y-19732762D02*
X5897143Y-19837524D01*
X5897143Y-19732762D02*
X5906667Y-19713714D01*
X5906667Y-19713714D02*
X5925714Y-19704190D01*
X5925714Y-19704190D02*
X5954286Y-19704190D01*
X5954286Y-19704190D02*
X5973333Y-19713714D01*
X5973333Y-19713714D02*
X5982857Y-19732762D01*
X5982857Y-19732762D02*
X5982857Y-19837524D01*
X6373333Y-19628000D02*
X6201905Y-19885143D01*
X6630476Y-19637524D02*
X6649524Y-19637524D01*
X6649524Y-19637524D02*
X6668572Y-19647048D01*
X6668572Y-19647048D02*
X6678095Y-19656571D01*
X6678095Y-19656571D02*
X6687619Y-19675619D01*
X6687619Y-19675619D02*
X6697143Y-19713714D01*
X6697143Y-19713714D02*
X6697143Y-19761333D01*
X6697143Y-19761333D02*
X6687619Y-19799429D01*
X6687619Y-19799429D02*
X6678095Y-19818476D01*
X6678095Y-19818476D02*
X6668572Y-19828000D01*
X6668572Y-19828000D02*
X6649524Y-19837524D01*
X6649524Y-19837524D02*
X6630476Y-19837524D01*
X6630476Y-19837524D02*
X6611429Y-19828000D01*
X6611429Y-19828000D02*
X6601905Y-19818476D01*
X6601905Y-19818476D02*
X6592381Y-19799429D01*
X6592381Y-19799429D02*
X6582857Y-19761333D01*
X6582857Y-19761333D02*
X6582857Y-19713714D01*
X6582857Y-19713714D02*
X6592381Y-19675619D01*
X6592381Y-19675619D02*
X6601905Y-19656571D01*
X6601905Y-19656571D02*
X6611429Y-19647048D01*
X6611429Y-19647048D02*
X6630476Y-19637524D01*
X6782857Y-19818476D02*
X6792381Y-19828000D01*
X6792381Y-19828000D02*
X6782857Y-19837524D01*
X6782857Y-19837524D02*
X6773333Y-19828000D01*
X6773333Y-19828000D02*
X6782857Y-19818476D01*
X6782857Y-19818476D02*
X6782857Y-19837524D01*
X6916191Y-19637524D02*
X6935238Y-19637524D01*
X6935238Y-19637524D02*
X6954286Y-19647048D01*
X6954286Y-19647048D02*
X6963810Y-19656571D01*
X6963810Y-19656571D02*
X6973333Y-19675619D01*
X6973333Y-19675619D02*
X6982857Y-19713714D01*
X6982857Y-19713714D02*
X6982857Y-19761333D01*
X6982857Y-19761333D02*
X6973333Y-19799429D01*
X6973333Y-19799429D02*
X6963810Y-19818476D01*
X6963810Y-19818476D02*
X6954286Y-19828000D01*
X6954286Y-19828000D02*
X6935238Y-19837524D01*
X6935238Y-19837524D02*
X6916191Y-19837524D01*
X6916191Y-19837524D02*
X6897143Y-19828000D01*
X6897143Y-19828000D02*
X6887619Y-19818476D01*
X6887619Y-19818476D02*
X6878095Y-19799429D01*
X6878095Y-19799429D02*
X6868572Y-19761333D01*
X6868572Y-19761333D02*
X6868572Y-19713714D01*
X6868572Y-19713714D02*
X6878095Y-19675619D01*
X6878095Y-19675619D02*
X6887619Y-19656571D01*
X6887619Y-19656571D02*
X6897143Y-19647048D01*
X6897143Y-19647048D02*
X6916191Y-19637524D01*
X7049524Y-19637524D02*
X7173333Y-19637524D01*
X7173333Y-19637524D02*
X7106667Y-19713714D01*
X7106667Y-19713714D02*
X7135238Y-19713714D01*
X7135238Y-19713714D02*
X7154286Y-19723238D01*
X7154286Y-19723238D02*
X7163810Y-19732762D01*
X7163810Y-19732762D02*
X7173333Y-19751810D01*
X7173333Y-19751810D02*
X7173333Y-19799429D01*
X7173333Y-19799429D02*
X7163810Y-19818476D01*
X7163810Y-19818476D02*
X7154286Y-19828000D01*
X7154286Y-19828000D02*
X7135238Y-19837524D01*
X7135238Y-19837524D02*
X7078095Y-19837524D01*
X7078095Y-19837524D02*
X7059048Y-19828000D01*
X7059048Y-19828000D02*
X7049524Y-19818476D01*
X7363810Y-19837524D02*
X7249524Y-19837524D01*
X7306667Y-19837524D02*
X7306667Y-19637524D01*
X7306667Y-19637524D02*
X7287619Y-19666095D01*
X7287619Y-19666095D02*
X7268572Y-19685143D01*
X7268572Y-19685143D02*
X7249524Y-19694667D01*
X7544762Y-19637524D02*
X7449524Y-19637524D01*
X7449524Y-19637524D02*
X7440000Y-19732762D01*
X7440000Y-19732762D02*
X7449524Y-19723238D01*
X7449524Y-19723238D02*
X7468572Y-19713714D01*
X7468572Y-19713714D02*
X7516191Y-19713714D01*
X7516191Y-19713714D02*
X7535238Y-19723238D01*
X7535238Y-19723238D02*
X7544762Y-19732762D01*
X7544762Y-19732762D02*
X7554286Y-19751810D01*
X7554286Y-19751810D02*
X7554286Y-19799429D01*
X7554286Y-19799429D02*
X7544762Y-19818476D01*
X7544762Y-19818476D02*
X7535238Y-19828000D01*
X7535238Y-19828000D02*
X7516191Y-19837524D01*
X7516191Y-19837524D02*
X7468572Y-19837524D01*
X7468572Y-19837524D02*
X7449524Y-19828000D01*
X7449524Y-19828000D02*
X7440000Y-19818476D01*
X7630476Y-19637524D02*
X7630476Y-19675619D01*
X7706667Y-19637524D02*
X7706667Y-19675619D01*
X8001905Y-19913714D02*
X7992381Y-19904190D01*
X7992381Y-19904190D02*
X7973334Y-19875619D01*
X7973334Y-19875619D02*
X7963810Y-19856571D01*
X7963810Y-19856571D02*
X7954286Y-19828000D01*
X7954286Y-19828000D02*
X7944762Y-19780381D01*
X7944762Y-19780381D02*
X7944762Y-19742286D01*
X7944762Y-19742286D02*
X7954286Y-19694667D01*
X7954286Y-19694667D02*
X7963810Y-19666095D01*
X7963810Y-19666095D02*
X7973334Y-19647048D01*
X7973334Y-19647048D02*
X7992381Y-19618476D01*
X7992381Y-19618476D02*
X8001905Y-19608952D01*
X8182857Y-19837524D02*
X8068572Y-19837524D01*
X8125714Y-19837524D02*
X8125714Y-19637524D01*
X8125714Y-19637524D02*
X8106667Y-19666095D01*
X8106667Y-19666095D02*
X8087619Y-19685143D01*
X8087619Y-19685143D02*
X8068572Y-19694667D01*
X8306667Y-19637524D02*
X8325715Y-19637524D01*
X8325715Y-19637524D02*
X8344762Y-19647048D01*
X8344762Y-19647048D02*
X8354286Y-19656571D01*
X8354286Y-19656571D02*
X8363810Y-19675619D01*
X8363810Y-19675619D02*
X8373334Y-19713714D01*
X8373334Y-19713714D02*
X8373334Y-19761333D01*
X8373334Y-19761333D02*
X8363810Y-19799429D01*
X8363810Y-19799429D02*
X8354286Y-19818476D01*
X8354286Y-19818476D02*
X8344762Y-19828000D01*
X8344762Y-19828000D02*
X8325715Y-19837524D01*
X8325715Y-19837524D02*
X8306667Y-19837524D01*
X8306667Y-19837524D02*
X8287619Y-19828000D01*
X8287619Y-19828000D02*
X8278095Y-19818476D01*
X8278095Y-19818476D02*
X8268572Y-19799429D01*
X8268572Y-19799429D02*
X8259048Y-19761333D01*
X8259048Y-19761333D02*
X8259048Y-19713714D01*
X8259048Y-19713714D02*
X8268572Y-19675619D01*
X8268572Y-19675619D02*
X8278095Y-19656571D01*
X8278095Y-19656571D02*
X8287619Y-19647048D01*
X8287619Y-19647048D02*
X8306667Y-19637524D01*
X8611429Y-19837524D02*
X8611429Y-19637524D01*
X8697143Y-19837524D02*
X8697143Y-19732762D01*
X8697143Y-19732762D02*
X8687619Y-19713714D01*
X8687619Y-19713714D02*
X8668572Y-19704190D01*
X8668572Y-19704190D02*
X8640000Y-19704190D01*
X8640000Y-19704190D02*
X8620953Y-19713714D01*
X8620953Y-19713714D02*
X8611429Y-19723238D01*
X8820953Y-19837524D02*
X8801905Y-19828000D01*
X8801905Y-19828000D02*
X8792381Y-19818476D01*
X8792381Y-19818476D02*
X8782858Y-19799429D01*
X8782858Y-19799429D02*
X8782858Y-19742286D01*
X8782858Y-19742286D02*
X8792381Y-19723238D01*
X8792381Y-19723238D02*
X8801905Y-19713714D01*
X8801905Y-19713714D02*
X8820953Y-19704190D01*
X8820953Y-19704190D02*
X8849524Y-19704190D01*
X8849524Y-19704190D02*
X8868572Y-19713714D01*
X8868572Y-19713714D02*
X8878096Y-19723238D01*
X8878096Y-19723238D02*
X8887619Y-19742286D01*
X8887619Y-19742286D02*
X8887619Y-19799429D01*
X8887619Y-19799429D02*
X8878096Y-19818476D01*
X8878096Y-19818476D02*
X8868572Y-19828000D01*
X8868572Y-19828000D02*
X8849524Y-19837524D01*
X8849524Y-19837524D02*
X8820953Y-19837524D01*
X9001905Y-19837524D02*
X8982858Y-19828000D01*
X8982858Y-19828000D02*
X8973334Y-19808952D01*
X8973334Y-19808952D02*
X8973334Y-19637524D01*
X9154286Y-19828000D02*
X9135239Y-19837524D01*
X9135239Y-19837524D02*
X9097143Y-19837524D01*
X9097143Y-19837524D02*
X9078096Y-19828000D01*
X9078096Y-19828000D02*
X9068572Y-19808952D01*
X9068572Y-19808952D02*
X9068572Y-19732762D01*
X9068572Y-19732762D02*
X9078096Y-19713714D01*
X9078096Y-19713714D02*
X9097143Y-19704190D01*
X9097143Y-19704190D02*
X9135239Y-19704190D01*
X9135239Y-19704190D02*
X9154286Y-19713714D01*
X9154286Y-19713714D02*
X9163810Y-19732762D01*
X9163810Y-19732762D02*
X9163810Y-19751810D01*
X9163810Y-19751810D02*
X9068572Y-19770857D01*
X9240000Y-19828000D02*
X9259048Y-19837524D01*
X9259048Y-19837524D02*
X9297143Y-19837524D01*
X9297143Y-19837524D02*
X9316191Y-19828000D01*
X9316191Y-19828000D02*
X9325715Y-19808952D01*
X9325715Y-19808952D02*
X9325715Y-19799429D01*
X9325715Y-19799429D02*
X9316191Y-19780381D01*
X9316191Y-19780381D02*
X9297143Y-19770857D01*
X9297143Y-19770857D02*
X9268572Y-19770857D01*
X9268572Y-19770857D02*
X9249524Y-19761333D01*
X9249524Y-19761333D02*
X9240000Y-19742286D01*
X9240000Y-19742286D02*
X9240000Y-19732762D01*
X9240000Y-19732762D02*
X9249524Y-19713714D01*
X9249524Y-19713714D02*
X9268572Y-19704190D01*
X9268572Y-19704190D02*
X9297143Y-19704190D01*
X9297143Y-19704190D02*
X9316191Y-19713714D01*
X9392381Y-19913714D02*
X9401905Y-19904190D01*
X9401905Y-19904190D02*
X9420953Y-19875619D01*
X9420953Y-19875619D02*
X9430477Y-19856571D01*
X9430477Y-19856571D02*
X9440000Y-19828000D01*
X9440000Y-19828000D02*
X9449524Y-19780381D01*
X9449524Y-19780381D02*
X9449524Y-19742286D01*
X9449524Y-19742286D02*
X9440000Y-19694667D01*
X9440000Y-19694667D02*
X9430477Y-19666095D01*
X9430477Y-19666095D02*
X9420953Y-19647048D01*
X9420953Y-19647048D02*
X9401905Y-19618476D01*
X9401905Y-19618476D02*
X9392381Y-19608952D01*
D10*
X4340000Y-19959000D02*
X4440000Y-20059000D01*
X4440000Y-19959000D02*
X4340000Y-20059000D01*
X4390000Y-19959000D02*
X4390000Y-20059000D01*
X4340000Y-20009000D02*
X4440000Y-20009000D01*
D11*
X4792381Y-20101524D02*
X4678095Y-20101524D01*
X4735238Y-20101524D02*
X4735238Y-19901524D01*
X4735238Y-19901524D02*
X4716190Y-19930095D01*
X4716190Y-19930095D02*
X4697143Y-19949143D01*
X4697143Y-19949143D02*
X4678095Y-19958667D01*
X4878095Y-20082476D02*
X4887619Y-20092000D01*
X4887619Y-20092000D02*
X4878095Y-20101524D01*
X4878095Y-20101524D02*
X4868571Y-20092000D01*
X4868571Y-20092000D02*
X4878095Y-20082476D01*
X4878095Y-20082476D02*
X4878095Y-20101524D01*
X5011429Y-19901524D02*
X5030476Y-19901524D01*
X5030476Y-19901524D02*
X5049524Y-19911048D01*
X5049524Y-19911048D02*
X5059048Y-19920571D01*
X5059048Y-19920571D02*
X5068571Y-19939619D01*
X5068571Y-19939619D02*
X5078095Y-19977714D01*
X5078095Y-19977714D02*
X5078095Y-20025333D01*
X5078095Y-20025333D02*
X5068571Y-20063429D01*
X5068571Y-20063429D02*
X5059048Y-20082476D01*
X5059048Y-20082476D02*
X5049524Y-20092000D01*
X5049524Y-20092000D02*
X5030476Y-20101524D01*
X5030476Y-20101524D02*
X5011429Y-20101524D01*
X5011429Y-20101524D02*
X4992381Y-20092000D01*
X4992381Y-20092000D02*
X4982857Y-20082476D01*
X4982857Y-20082476D02*
X4973333Y-20063429D01*
X4973333Y-20063429D02*
X4963810Y-20025333D01*
X4963810Y-20025333D02*
X4963810Y-19977714D01*
X4963810Y-19977714D02*
X4973333Y-19939619D01*
X4973333Y-19939619D02*
X4982857Y-19920571D01*
X4982857Y-19920571D02*
X4992381Y-19911048D01*
X4992381Y-19911048D02*
X5011429Y-19901524D01*
X5201905Y-19901524D02*
X5220952Y-19901524D01*
X5220952Y-19901524D02*
X5240000Y-19911048D01*
X5240000Y-19911048D02*
X5249524Y-19920571D01*
X5249524Y-19920571D02*
X5259048Y-19939619D01*
X5259048Y-19939619D02*
X5268571Y-19977714D01*
X5268571Y-19977714D02*
X5268571Y-20025333D01*
X5268571Y-20025333D02*
X5259048Y-20063429D01*
X5259048Y-20063429D02*
X5249524Y-20082476D01*
X5249524Y-20082476D02*
X5240000Y-20092000D01*
X5240000Y-20092000D02*
X5220952Y-20101524D01*
X5220952Y-20101524D02*
X5201905Y-20101524D01*
X5201905Y-20101524D02*
X5182857Y-20092000D01*
X5182857Y-20092000D02*
X5173333Y-20082476D01*
X5173333Y-20082476D02*
X5163810Y-20063429D01*
X5163810Y-20063429D02*
X5154286Y-20025333D01*
X5154286Y-20025333D02*
X5154286Y-19977714D01*
X5154286Y-19977714D02*
X5163810Y-19939619D01*
X5163810Y-19939619D02*
X5173333Y-19920571D01*
X5173333Y-19920571D02*
X5182857Y-19911048D01*
X5182857Y-19911048D02*
X5201905Y-19901524D01*
X5392381Y-19901524D02*
X5411429Y-19901524D01*
X5411429Y-19901524D02*
X5430476Y-19911048D01*
X5430476Y-19911048D02*
X5440000Y-19920571D01*
X5440000Y-19920571D02*
X5449524Y-19939619D01*
X5449524Y-19939619D02*
X5459048Y-19977714D01*
X5459048Y-19977714D02*
X5459048Y-20025333D01*
X5459048Y-20025333D02*
X5449524Y-20063429D01*
X5449524Y-20063429D02*
X5440000Y-20082476D01*
X5440000Y-20082476D02*
X5430476Y-20092000D01*
X5430476Y-20092000D02*
X5411429Y-20101524D01*
X5411429Y-20101524D02*
X5392381Y-20101524D01*
X5392381Y-20101524D02*
X5373333Y-20092000D01*
X5373333Y-20092000D02*
X5363810Y-20082476D01*
X5363810Y-20082476D02*
X5354286Y-20063429D01*
X5354286Y-20063429D02*
X5344762Y-20025333D01*
X5344762Y-20025333D02*
X5344762Y-19977714D01*
X5344762Y-19977714D02*
X5354286Y-19939619D01*
X5354286Y-19939619D02*
X5363810Y-19920571D01*
X5363810Y-19920571D02*
X5373333Y-19911048D01*
X5373333Y-19911048D02*
X5392381Y-19901524D01*
X5544762Y-20101524D02*
X5544762Y-19968190D01*
X5544762Y-19987238D02*
X5554286Y-19977714D01*
X5554286Y-19977714D02*
X5573333Y-19968190D01*
X5573333Y-19968190D02*
X5601905Y-19968190D01*
X5601905Y-19968190D02*
X5620952Y-19977714D01*
X5620952Y-19977714D02*
X5630476Y-19996762D01*
X5630476Y-19996762D02*
X5630476Y-20101524D01*
X5630476Y-19996762D02*
X5640000Y-19977714D01*
X5640000Y-19977714D02*
X5659048Y-19968190D01*
X5659048Y-19968190D02*
X5687619Y-19968190D01*
X5687619Y-19968190D02*
X5706667Y-19977714D01*
X5706667Y-19977714D02*
X5716190Y-19996762D01*
X5716190Y-19996762D02*
X5716190Y-20101524D01*
X5811429Y-20101524D02*
X5811429Y-19968190D01*
X5811429Y-19987238D02*
X5820952Y-19977714D01*
X5820952Y-19977714D02*
X5840000Y-19968190D01*
X5840000Y-19968190D02*
X5868571Y-19968190D01*
X5868571Y-19968190D02*
X5887619Y-19977714D01*
X5887619Y-19977714D02*
X5897143Y-19996762D01*
X5897143Y-19996762D02*
X5897143Y-20101524D01*
X5897143Y-19996762D02*
X5906667Y-19977714D01*
X5906667Y-19977714D02*
X5925714Y-19968190D01*
X5925714Y-19968190D02*
X5954286Y-19968190D01*
X5954286Y-19968190D02*
X5973333Y-19977714D01*
X5973333Y-19977714D02*
X5982857Y-19996762D01*
X5982857Y-19996762D02*
X5982857Y-20101524D01*
X6373333Y-19892000D02*
X6201905Y-20149143D01*
X6630476Y-19901524D02*
X6649524Y-19901524D01*
X6649524Y-19901524D02*
X6668572Y-19911048D01*
X6668572Y-19911048D02*
X6678095Y-19920571D01*
X6678095Y-19920571D02*
X6687619Y-19939619D01*
X6687619Y-19939619D02*
X6697143Y-19977714D01*
X6697143Y-19977714D02*
X6697143Y-20025333D01*
X6697143Y-20025333D02*
X6687619Y-20063429D01*
X6687619Y-20063429D02*
X6678095Y-20082476D01*
X6678095Y-20082476D02*
X6668572Y-20092000D01*
X6668572Y-20092000D02*
X6649524Y-20101524D01*
X6649524Y-20101524D02*
X6630476Y-20101524D01*
X6630476Y-20101524D02*
X6611429Y-20092000D01*
X6611429Y-20092000D02*
X6601905Y-20082476D01*
X6601905Y-20082476D02*
X6592381Y-20063429D01*
X6592381Y-20063429D02*
X6582857Y-20025333D01*
X6582857Y-20025333D02*
X6582857Y-19977714D01*
X6582857Y-19977714D02*
X6592381Y-19939619D01*
X6592381Y-19939619D02*
X6601905Y-19920571D01*
X6601905Y-19920571D02*
X6611429Y-19911048D01*
X6611429Y-19911048D02*
X6630476Y-19901524D01*
X6782857Y-20082476D02*
X6792381Y-20092000D01*
X6792381Y-20092000D02*
X6782857Y-20101524D01*
X6782857Y-20101524D02*
X6773333Y-20092000D01*
X6773333Y-20092000D02*
X6782857Y-20082476D01*
X6782857Y-20082476D02*
X6782857Y-20101524D01*
X6916191Y-19901524D02*
X6935238Y-19901524D01*
X6935238Y-19901524D02*
X6954286Y-19911048D01*
X6954286Y-19911048D02*
X6963810Y-19920571D01*
X6963810Y-19920571D02*
X6973333Y-19939619D01*
X6973333Y-19939619D02*
X6982857Y-19977714D01*
X6982857Y-19977714D02*
X6982857Y-20025333D01*
X6982857Y-20025333D02*
X6973333Y-20063429D01*
X6973333Y-20063429D02*
X6963810Y-20082476D01*
X6963810Y-20082476D02*
X6954286Y-20092000D01*
X6954286Y-20092000D02*
X6935238Y-20101524D01*
X6935238Y-20101524D02*
X6916191Y-20101524D01*
X6916191Y-20101524D02*
X6897143Y-20092000D01*
X6897143Y-20092000D02*
X6887619Y-20082476D01*
X6887619Y-20082476D02*
X6878095Y-20063429D01*
X6878095Y-20063429D02*
X6868572Y-20025333D01*
X6868572Y-20025333D02*
X6868572Y-19977714D01*
X6868572Y-19977714D02*
X6878095Y-19939619D01*
X6878095Y-19939619D02*
X6887619Y-19920571D01*
X6887619Y-19920571D02*
X6897143Y-19911048D01*
X6897143Y-19911048D02*
X6916191Y-19901524D01*
X7049524Y-19901524D02*
X7173333Y-19901524D01*
X7173333Y-19901524D02*
X7106667Y-19977714D01*
X7106667Y-19977714D02*
X7135238Y-19977714D01*
X7135238Y-19977714D02*
X7154286Y-19987238D01*
X7154286Y-19987238D02*
X7163810Y-19996762D01*
X7163810Y-19996762D02*
X7173333Y-20015810D01*
X7173333Y-20015810D02*
X7173333Y-20063429D01*
X7173333Y-20063429D02*
X7163810Y-20082476D01*
X7163810Y-20082476D02*
X7154286Y-20092000D01*
X7154286Y-20092000D02*
X7135238Y-20101524D01*
X7135238Y-20101524D02*
X7078095Y-20101524D01*
X7078095Y-20101524D02*
X7059048Y-20092000D01*
X7059048Y-20092000D02*
X7049524Y-20082476D01*
X7268572Y-20101524D02*
X7306667Y-20101524D01*
X7306667Y-20101524D02*
X7325714Y-20092000D01*
X7325714Y-20092000D02*
X7335238Y-20082476D01*
X7335238Y-20082476D02*
X7354286Y-20053905D01*
X7354286Y-20053905D02*
X7363810Y-20015810D01*
X7363810Y-20015810D02*
X7363810Y-19939619D01*
X7363810Y-19939619D02*
X7354286Y-19920571D01*
X7354286Y-19920571D02*
X7344762Y-19911048D01*
X7344762Y-19911048D02*
X7325714Y-19901524D01*
X7325714Y-19901524D02*
X7287619Y-19901524D01*
X7287619Y-19901524D02*
X7268572Y-19911048D01*
X7268572Y-19911048D02*
X7259048Y-19920571D01*
X7259048Y-19920571D02*
X7249524Y-19939619D01*
X7249524Y-19939619D02*
X7249524Y-19987238D01*
X7249524Y-19987238D02*
X7259048Y-20006286D01*
X7259048Y-20006286D02*
X7268572Y-20015810D01*
X7268572Y-20015810D02*
X7287619Y-20025333D01*
X7287619Y-20025333D02*
X7325714Y-20025333D01*
X7325714Y-20025333D02*
X7344762Y-20015810D01*
X7344762Y-20015810D02*
X7354286Y-20006286D01*
X7354286Y-20006286D02*
X7363810Y-19987238D01*
X7535238Y-19968190D02*
X7535238Y-20101524D01*
X7487619Y-19892000D02*
X7440000Y-20034857D01*
X7440000Y-20034857D02*
X7563810Y-20034857D01*
X7630476Y-19901524D02*
X7630476Y-19939619D01*
X7706667Y-19901524D02*
X7706667Y-19939619D01*
X8001905Y-20177714D02*
X7992381Y-20168190D01*
X7992381Y-20168190D02*
X7973334Y-20139619D01*
X7973334Y-20139619D02*
X7963810Y-20120571D01*
X7963810Y-20120571D02*
X7954286Y-20092000D01*
X7954286Y-20092000D02*
X7944762Y-20044381D01*
X7944762Y-20044381D02*
X7944762Y-20006286D01*
X7944762Y-20006286D02*
X7954286Y-19958667D01*
X7954286Y-19958667D02*
X7963810Y-19930095D01*
X7963810Y-19930095D02*
X7973334Y-19911048D01*
X7973334Y-19911048D02*
X7992381Y-19882476D01*
X7992381Y-19882476D02*
X8001905Y-19872952D01*
X8163810Y-19901524D02*
X8125714Y-19901524D01*
X8125714Y-19901524D02*
X8106667Y-19911048D01*
X8106667Y-19911048D02*
X8097143Y-19920571D01*
X8097143Y-19920571D02*
X8078095Y-19949143D01*
X8078095Y-19949143D02*
X8068572Y-19987238D01*
X8068572Y-19987238D02*
X8068572Y-20063429D01*
X8068572Y-20063429D02*
X8078095Y-20082476D01*
X8078095Y-20082476D02*
X8087619Y-20092000D01*
X8087619Y-20092000D02*
X8106667Y-20101524D01*
X8106667Y-20101524D02*
X8144762Y-20101524D01*
X8144762Y-20101524D02*
X8163810Y-20092000D01*
X8163810Y-20092000D02*
X8173334Y-20082476D01*
X8173334Y-20082476D02*
X8182857Y-20063429D01*
X8182857Y-20063429D02*
X8182857Y-20015810D01*
X8182857Y-20015810D02*
X8173334Y-19996762D01*
X8173334Y-19996762D02*
X8163810Y-19987238D01*
X8163810Y-19987238D02*
X8144762Y-19977714D01*
X8144762Y-19977714D02*
X8106667Y-19977714D01*
X8106667Y-19977714D02*
X8087619Y-19987238D01*
X8087619Y-19987238D02*
X8078095Y-19996762D01*
X8078095Y-19996762D02*
X8068572Y-20015810D01*
X8420953Y-20101524D02*
X8420953Y-19901524D01*
X8506667Y-20101524D02*
X8506667Y-19996762D01*
X8506667Y-19996762D02*
X8497143Y-19977714D01*
X8497143Y-19977714D02*
X8478096Y-19968190D01*
X8478096Y-19968190D02*
X8449524Y-19968190D01*
X8449524Y-19968190D02*
X8430477Y-19977714D01*
X8430477Y-19977714D02*
X8420953Y-19987238D01*
X8630477Y-20101524D02*
X8611429Y-20092000D01*
X8611429Y-20092000D02*
X8601905Y-20082476D01*
X8601905Y-20082476D02*
X8592381Y-20063429D01*
X8592381Y-20063429D02*
X8592381Y-20006286D01*
X8592381Y-20006286D02*
X8601905Y-19987238D01*
X8601905Y-19987238D02*
X8611429Y-19977714D01*
X8611429Y-19977714D02*
X8630477Y-19968190D01*
X8630477Y-19968190D02*
X8659048Y-19968190D01*
X8659048Y-19968190D02*
X8678096Y-19977714D01*
X8678096Y-19977714D02*
X8687619Y-19987238D01*
X8687619Y-19987238D02*
X8697143Y-20006286D01*
X8697143Y-20006286D02*
X8697143Y-20063429D01*
X8697143Y-20063429D02*
X8687619Y-20082476D01*
X8687619Y-20082476D02*
X8678096Y-20092000D01*
X8678096Y-20092000D02*
X8659048Y-20101524D01*
X8659048Y-20101524D02*
X8630477Y-20101524D01*
X8811429Y-20101524D02*
X8792381Y-20092000D01*
X8792381Y-20092000D02*
X8782858Y-20072952D01*
X8782858Y-20072952D02*
X8782858Y-19901524D01*
X8963810Y-20092000D02*
X8944762Y-20101524D01*
X8944762Y-20101524D02*
X8906667Y-20101524D01*
X8906667Y-20101524D02*
X8887619Y-20092000D01*
X8887619Y-20092000D02*
X8878096Y-20072952D01*
X8878096Y-20072952D02*
X8878096Y-19996762D01*
X8878096Y-19996762D02*
X8887619Y-19977714D01*
X8887619Y-19977714D02*
X8906667Y-19968190D01*
X8906667Y-19968190D02*
X8944762Y-19968190D01*
X8944762Y-19968190D02*
X8963810Y-19977714D01*
X8963810Y-19977714D02*
X8973334Y-19996762D01*
X8973334Y-19996762D02*
X8973334Y-20015810D01*
X8973334Y-20015810D02*
X8878096Y-20034857D01*
X9049524Y-20092000D02*
X9068572Y-20101524D01*
X9068572Y-20101524D02*
X9106667Y-20101524D01*
X9106667Y-20101524D02*
X9125715Y-20092000D01*
X9125715Y-20092000D02*
X9135239Y-20072952D01*
X9135239Y-20072952D02*
X9135239Y-20063429D01*
X9135239Y-20063429D02*
X9125715Y-20044381D01*
X9125715Y-20044381D02*
X9106667Y-20034857D01*
X9106667Y-20034857D02*
X9078096Y-20034857D01*
X9078096Y-20034857D02*
X9059048Y-20025333D01*
X9059048Y-20025333D02*
X9049524Y-20006286D01*
X9049524Y-20006286D02*
X9049524Y-19996762D01*
X9049524Y-19996762D02*
X9059048Y-19977714D01*
X9059048Y-19977714D02*
X9078096Y-19968190D01*
X9078096Y-19968190D02*
X9106667Y-19968190D01*
X9106667Y-19968190D02*
X9125715Y-19977714D01*
X9373334Y-20025333D02*
X9525715Y-20025333D01*
X9449524Y-20101524D02*
X9449524Y-19949143D01*
X9754286Y-19901524D02*
X9878096Y-19901524D01*
X9878096Y-19901524D02*
X9811429Y-19977714D01*
X9811429Y-19977714D02*
X9840001Y-19977714D01*
X9840001Y-19977714D02*
X9859048Y-19987238D01*
X9859048Y-19987238D02*
X9868572Y-19996762D01*
X9868572Y-19996762D02*
X9878096Y-20015810D01*
X9878096Y-20015810D02*
X9878096Y-20063429D01*
X9878096Y-20063429D02*
X9868572Y-20082476D01*
X9868572Y-20082476D02*
X9859048Y-20092000D01*
X9859048Y-20092000D02*
X9840001Y-20101524D01*
X9840001Y-20101524D02*
X9782858Y-20101524D01*
X9782858Y-20101524D02*
X9763810Y-20092000D01*
X9763810Y-20092000D02*
X9754286Y-20082476D01*
X10106667Y-20092000D02*
X10125715Y-20101524D01*
X10125715Y-20101524D02*
X10163810Y-20101524D01*
X10163810Y-20101524D02*
X10182858Y-20092000D01*
X10182858Y-20092000D02*
X10192382Y-20072952D01*
X10192382Y-20072952D02*
X10192382Y-20063429D01*
X10192382Y-20063429D02*
X10182858Y-20044381D01*
X10182858Y-20044381D02*
X10163810Y-20034857D01*
X10163810Y-20034857D02*
X10135239Y-20034857D01*
X10135239Y-20034857D02*
X10116191Y-20025333D01*
X10116191Y-20025333D02*
X10106667Y-20006286D01*
X10106667Y-20006286D02*
X10106667Y-19996762D01*
X10106667Y-19996762D02*
X10116191Y-19977714D01*
X10116191Y-19977714D02*
X10135239Y-19968190D01*
X10135239Y-19968190D02*
X10163810Y-19968190D01*
X10163810Y-19968190D02*
X10182858Y-19977714D01*
X10306667Y-20101524D02*
X10287620Y-20092000D01*
X10287620Y-20092000D02*
X10278096Y-20072952D01*
X10278096Y-20072952D02*
X10278096Y-19901524D01*
X10411429Y-20101524D02*
X10392382Y-20092000D01*
X10392382Y-20092000D02*
X10382858Y-20082476D01*
X10382858Y-20082476D02*
X10373334Y-20063429D01*
X10373334Y-20063429D02*
X10373334Y-20006286D01*
X10373334Y-20006286D02*
X10382858Y-19987238D01*
X10382858Y-19987238D02*
X10392382Y-19977714D01*
X10392382Y-19977714D02*
X10411429Y-19968190D01*
X10411429Y-19968190D02*
X10440001Y-19968190D01*
X10440001Y-19968190D02*
X10459048Y-19977714D01*
X10459048Y-19977714D02*
X10468572Y-19987238D01*
X10468572Y-19987238D02*
X10478096Y-20006286D01*
X10478096Y-20006286D02*
X10478096Y-20063429D01*
X10478096Y-20063429D02*
X10468572Y-20082476D01*
X10468572Y-20082476D02*
X10459048Y-20092000D01*
X10459048Y-20092000D02*
X10440001Y-20101524D01*
X10440001Y-20101524D02*
X10411429Y-20101524D01*
X10535239Y-19968190D02*
X10611429Y-19968190D01*
X10563810Y-19901524D02*
X10563810Y-20072952D01*
X10563810Y-20072952D02*
X10573334Y-20092000D01*
X10573334Y-20092000D02*
X10592382Y-20101524D01*
X10592382Y-20101524D02*
X10611429Y-20101524D01*
X10668572Y-20092000D02*
X10687620Y-20101524D01*
X10687620Y-20101524D02*
X10725715Y-20101524D01*
X10725715Y-20101524D02*
X10744763Y-20092000D01*
X10744763Y-20092000D02*
X10754286Y-20072952D01*
X10754286Y-20072952D02*
X10754286Y-20063429D01*
X10754286Y-20063429D02*
X10744763Y-20044381D01*
X10744763Y-20044381D02*
X10725715Y-20034857D01*
X10725715Y-20034857D02*
X10697143Y-20034857D01*
X10697143Y-20034857D02*
X10678096Y-20025333D01*
X10678096Y-20025333D02*
X10668572Y-20006286D01*
X10668572Y-20006286D02*
X10668572Y-19996762D01*
X10668572Y-19996762D02*
X10678096Y-19977714D01*
X10678096Y-19977714D02*
X10697143Y-19968190D01*
X10697143Y-19968190D02*
X10725715Y-19968190D01*
X10725715Y-19968190D02*
X10744763Y-19977714D01*
X10820953Y-20177714D02*
X10830477Y-20168190D01*
X10830477Y-20168190D02*
X10849524Y-20139619D01*
X10849524Y-20139619D02*
X10859048Y-20120571D01*
X10859048Y-20120571D02*
X10868572Y-20092000D01*
X10868572Y-20092000D02*
X10878096Y-20044381D01*
X10878096Y-20044381D02*
X10878096Y-20006286D01*
X10878096Y-20006286D02*
X10868572Y-19958667D01*
X10868572Y-19958667D02*
X10859048Y-19930095D01*
X10859048Y-19930095D02*
X10849524Y-19911048D01*
X10849524Y-19911048D02*
X10830477Y-19882476D01*
X10830477Y-19882476D02*
X10820953Y-19872952D01*
D18*
X4310000Y-20208000D02*
X4440000Y-20338000D01*
X4440000Y-20208000D02*
X4310000Y-20338000D01*
X4420962Y-20318962D02*
X4420962Y-20227038D01*
X4329038Y-20227038D01*
X4329038Y-20318962D01*
X4420962Y-20318962D01*
D11*
X4792381Y-20365524D02*
X4678095Y-20365524D01*
X4735238Y-20365524D02*
X4735238Y-20165524D01*
X4735238Y-20165524D02*
X4716190Y-20194095D01*
X4716190Y-20194095D02*
X4697143Y-20213143D01*
X4697143Y-20213143D02*
X4678095Y-20222667D01*
X4878095Y-20346476D02*
X4887619Y-20356000D01*
X4887619Y-20356000D02*
X4878095Y-20365524D01*
X4878095Y-20365524D02*
X4868571Y-20356000D01*
X4868571Y-20356000D02*
X4878095Y-20346476D01*
X4878095Y-20346476D02*
X4878095Y-20365524D01*
X4954286Y-20165524D02*
X5078095Y-20165524D01*
X5078095Y-20165524D02*
X5011429Y-20241714D01*
X5011429Y-20241714D02*
X5040000Y-20241714D01*
X5040000Y-20241714D02*
X5059048Y-20251238D01*
X5059048Y-20251238D02*
X5068571Y-20260762D01*
X5068571Y-20260762D02*
X5078095Y-20279810D01*
X5078095Y-20279810D02*
X5078095Y-20327429D01*
X5078095Y-20327429D02*
X5068571Y-20346476D01*
X5068571Y-20346476D02*
X5059048Y-20356000D01*
X5059048Y-20356000D02*
X5040000Y-20365524D01*
X5040000Y-20365524D02*
X4982857Y-20365524D01*
X4982857Y-20365524D02*
X4963810Y-20356000D01*
X4963810Y-20356000D02*
X4954286Y-20346476D01*
X5201905Y-20165524D02*
X5220952Y-20165524D01*
X5220952Y-20165524D02*
X5240000Y-20175048D01*
X5240000Y-20175048D02*
X5249524Y-20184571D01*
X5249524Y-20184571D02*
X5259048Y-20203619D01*
X5259048Y-20203619D02*
X5268571Y-20241714D01*
X5268571Y-20241714D02*
X5268571Y-20289333D01*
X5268571Y-20289333D02*
X5259048Y-20327429D01*
X5259048Y-20327429D02*
X5249524Y-20346476D01*
X5249524Y-20346476D02*
X5240000Y-20356000D01*
X5240000Y-20356000D02*
X5220952Y-20365524D01*
X5220952Y-20365524D02*
X5201905Y-20365524D01*
X5201905Y-20365524D02*
X5182857Y-20356000D01*
X5182857Y-20356000D02*
X5173333Y-20346476D01*
X5173333Y-20346476D02*
X5163810Y-20327429D01*
X5163810Y-20327429D02*
X5154286Y-20289333D01*
X5154286Y-20289333D02*
X5154286Y-20241714D01*
X5154286Y-20241714D02*
X5163810Y-20203619D01*
X5163810Y-20203619D02*
X5173333Y-20184571D01*
X5173333Y-20184571D02*
X5182857Y-20175048D01*
X5182857Y-20175048D02*
X5201905Y-20165524D01*
X5392381Y-20165524D02*
X5411429Y-20165524D01*
X5411429Y-20165524D02*
X5430476Y-20175048D01*
X5430476Y-20175048D02*
X5440000Y-20184571D01*
X5440000Y-20184571D02*
X5449524Y-20203619D01*
X5449524Y-20203619D02*
X5459048Y-20241714D01*
X5459048Y-20241714D02*
X5459048Y-20289333D01*
X5459048Y-20289333D02*
X5449524Y-20327429D01*
X5449524Y-20327429D02*
X5440000Y-20346476D01*
X5440000Y-20346476D02*
X5430476Y-20356000D01*
X5430476Y-20356000D02*
X5411429Y-20365524D01*
X5411429Y-20365524D02*
X5392381Y-20365524D01*
X5392381Y-20365524D02*
X5373333Y-20356000D01*
X5373333Y-20356000D02*
X5363810Y-20346476D01*
X5363810Y-20346476D02*
X5354286Y-20327429D01*
X5354286Y-20327429D02*
X5344762Y-20289333D01*
X5344762Y-20289333D02*
X5344762Y-20241714D01*
X5344762Y-20241714D02*
X5354286Y-20203619D01*
X5354286Y-20203619D02*
X5363810Y-20184571D01*
X5363810Y-20184571D02*
X5373333Y-20175048D01*
X5373333Y-20175048D02*
X5392381Y-20165524D01*
X5544762Y-20365524D02*
X5544762Y-20232190D01*
X5544762Y-20251238D02*
X5554286Y-20241714D01*
X5554286Y-20241714D02*
X5573333Y-20232190D01*
X5573333Y-20232190D02*
X5601905Y-20232190D01*
X5601905Y-20232190D02*
X5620952Y-20241714D01*
X5620952Y-20241714D02*
X5630476Y-20260762D01*
X5630476Y-20260762D02*
X5630476Y-20365524D01*
X5630476Y-20260762D02*
X5640000Y-20241714D01*
X5640000Y-20241714D02*
X5659048Y-20232190D01*
X5659048Y-20232190D02*
X5687619Y-20232190D01*
X5687619Y-20232190D02*
X5706667Y-20241714D01*
X5706667Y-20241714D02*
X5716190Y-20260762D01*
X5716190Y-20260762D02*
X5716190Y-20365524D01*
X5811429Y-20365524D02*
X5811429Y-20232190D01*
X5811429Y-20251238D02*
X5820952Y-20241714D01*
X5820952Y-20241714D02*
X5840000Y-20232190D01*
X5840000Y-20232190D02*
X5868571Y-20232190D01*
X5868571Y-20232190D02*
X5887619Y-20241714D01*
X5887619Y-20241714D02*
X5897143Y-20260762D01*
X5897143Y-20260762D02*
X5897143Y-20365524D01*
X5897143Y-20260762D02*
X5906667Y-20241714D01*
X5906667Y-20241714D02*
X5925714Y-20232190D01*
X5925714Y-20232190D02*
X5954286Y-20232190D01*
X5954286Y-20232190D02*
X5973333Y-20241714D01*
X5973333Y-20241714D02*
X5982857Y-20260762D01*
X5982857Y-20260762D02*
X5982857Y-20365524D01*
X6373333Y-20156000D02*
X6201905Y-20413143D01*
X6630476Y-20165524D02*
X6649524Y-20165524D01*
X6649524Y-20165524D02*
X6668572Y-20175048D01*
X6668572Y-20175048D02*
X6678095Y-20184571D01*
X6678095Y-20184571D02*
X6687619Y-20203619D01*
X6687619Y-20203619D02*
X6697143Y-20241714D01*
X6697143Y-20241714D02*
X6697143Y-20289333D01*
X6697143Y-20289333D02*
X6687619Y-20327429D01*
X6687619Y-20327429D02*
X6678095Y-20346476D01*
X6678095Y-20346476D02*
X6668572Y-20356000D01*
X6668572Y-20356000D02*
X6649524Y-20365524D01*
X6649524Y-20365524D02*
X6630476Y-20365524D01*
X6630476Y-20365524D02*
X6611429Y-20356000D01*
X6611429Y-20356000D02*
X6601905Y-20346476D01*
X6601905Y-20346476D02*
X6592381Y-20327429D01*
X6592381Y-20327429D02*
X6582857Y-20289333D01*
X6582857Y-20289333D02*
X6582857Y-20241714D01*
X6582857Y-20241714D02*
X6592381Y-20203619D01*
X6592381Y-20203619D02*
X6601905Y-20184571D01*
X6601905Y-20184571D02*
X6611429Y-20175048D01*
X6611429Y-20175048D02*
X6630476Y-20165524D01*
X6782857Y-20346476D02*
X6792381Y-20356000D01*
X6792381Y-20356000D02*
X6782857Y-20365524D01*
X6782857Y-20365524D02*
X6773333Y-20356000D01*
X6773333Y-20356000D02*
X6782857Y-20346476D01*
X6782857Y-20346476D02*
X6782857Y-20365524D01*
X6916191Y-20165524D02*
X6935238Y-20165524D01*
X6935238Y-20165524D02*
X6954286Y-20175048D01*
X6954286Y-20175048D02*
X6963810Y-20184571D01*
X6963810Y-20184571D02*
X6973333Y-20203619D01*
X6973333Y-20203619D02*
X6982857Y-20241714D01*
X6982857Y-20241714D02*
X6982857Y-20289333D01*
X6982857Y-20289333D02*
X6973333Y-20327429D01*
X6973333Y-20327429D02*
X6963810Y-20346476D01*
X6963810Y-20346476D02*
X6954286Y-20356000D01*
X6954286Y-20356000D02*
X6935238Y-20365524D01*
X6935238Y-20365524D02*
X6916191Y-20365524D01*
X6916191Y-20365524D02*
X6897143Y-20356000D01*
X6897143Y-20356000D02*
X6887619Y-20346476D01*
X6887619Y-20346476D02*
X6878095Y-20327429D01*
X6878095Y-20327429D02*
X6868572Y-20289333D01*
X6868572Y-20289333D02*
X6868572Y-20241714D01*
X6868572Y-20241714D02*
X6878095Y-20203619D01*
X6878095Y-20203619D02*
X6887619Y-20184571D01*
X6887619Y-20184571D02*
X6897143Y-20175048D01*
X6897143Y-20175048D02*
X6916191Y-20165524D01*
X7163810Y-20165524D02*
X7068572Y-20165524D01*
X7068572Y-20165524D02*
X7059048Y-20260762D01*
X7059048Y-20260762D02*
X7068572Y-20251238D01*
X7068572Y-20251238D02*
X7087619Y-20241714D01*
X7087619Y-20241714D02*
X7135238Y-20241714D01*
X7135238Y-20241714D02*
X7154286Y-20251238D01*
X7154286Y-20251238D02*
X7163810Y-20260762D01*
X7163810Y-20260762D02*
X7173333Y-20279810D01*
X7173333Y-20279810D02*
X7173333Y-20327429D01*
X7173333Y-20327429D02*
X7163810Y-20346476D01*
X7163810Y-20346476D02*
X7154286Y-20356000D01*
X7154286Y-20356000D02*
X7135238Y-20365524D01*
X7135238Y-20365524D02*
X7087619Y-20365524D01*
X7087619Y-20365524D02*
X7068572Y-20356000D01*
X7068572Y-20356000D02*
X7059048Y-20346476D01*
X7363810Y-20365524D02*
X7249524Y-20365524D01*
X7306667Y-20365524D02*
X7306667Y-20165524D01*
X7306667Y-20165524D02*
X7287619Y-20194095D01*
X7287619Y-20194095D02*
X7268572Y-20213143D01*
X7268572Y-20213143D02*
X7249524Y-20222667D01*
X7440000Y-20184571D02*
X7449524Y-20175048D01*
X7449524Y-20175048D02*
X7468572Y-20165524D01*
X7468572Y-20165524D02*
X7516191Y-20165524D01*
X7516191Y-20165524D02*
X7535238Y-20175048D01*
X7535238Y-20175048D02*
X7544762Y-20184571D01*
X7544762Y-20184571D02*
X7554286Y-20203619D01*
X7554286Y-20203619D02*
X7554286Y-20222667D01*
X7554286Y-20222667D02*
X7544762Y-20251238D01*
X7544762Y-20251238D02*
X7430476Y-20365524D01*
X7430476Y-20365524D02*
X7554286Y-20365524D01*
X7630476Y-20165524D02*
X7630476Y-20203619D01*
X7706667Y-20165524D02*
X7706667Y-20203619D01*
X8001905Y-20441714D02*
X7992381Y-20432190D01*
X7992381Y-20432190D02*
X7973334Y-20403619D01*
X7973334Y-20403619D02*
X7963810Y-20384571D01*
X7963810Y-20384571D02*
X7954286Y-20356000D01*
X7954286Y-20356000D02*
X7944762Y-20308381D01*
X7944762Y-20308381D02*
X7944762Y-20270286D01*
X7944762Y-20270286D02*
X7954286Y-20222667D01*
X7954286Y-20222667D02*
X7963810Y-20194095D01*
X7963810Y-20194095D02*
X7973334Y-20175048D01*
X7973334Y-20175048D02*
X7992381Y-20146476D01*
X7992381Y-20146476D02*
X8001905Y-20136952D01*
X8182857Y-20365524D02*
X8068572Y-20365524D01*
X8125714Y-20365524D02*
X8125714Y-20165524D01*
X8125714Y-20165524D02*
X8106667Y-20194095D01*
X8106667Y-20194095D02*
X8087619Y-20213143D01*
X8087619Y-20213143D02*
X8068572Y-20222667D01*
X8373334Y-20365524D02*
X8259048Y-20365524D01*
X8316191Y-20365524D02*
X8316191Y-20165524D01*
X8316191Y-20165524D02*
X8297143Y-20194095D01*
X8297143Y-20194095D02*
X8278095Y-20213143D01*
X8278095Y-20213143D02*
X8259048Y-20222667D01*
X8611429Y-20365524D02*
X8611429Y-20165524D01*
X8697143Y-20365524D02*
X8697143Y-20260762D01*
X8697143Y-20260762D02*
X8687619Y-20241714D01*
X8687619Y-20241714D02*
X8668572Y-20232190D01*
X8668572Y-20232190D02*
X8640000Y-20232190D01*
X8640000Y-20232190D02*
X8620953Y-20241714D01*
X8620953Y-20241714D02*
X8611429Y-20251238D01*
X8820953Y-20365524D02*
X8801905Y-20356000D01*
X8801905Y-20356000D02*
X8792381Y-20346476D01*
X8792381Y-20346476D02*
X8782858Y-20327429D01*
X8782858Y-20327429D02*
X8782858Y-20270286D01*
X8782858Y-20270286D02*
X8792381Y-20251238D01*
X8792381Y-20251238D02*
X8801905Y-20241714D01*
X8801905Y-20241714D02*
X8820953Y-20232190D01*
X8820953Y-20232190D02*
X8849524Y-20232190D01*
X8849524Y-20232190D02*
X8868572Y-20241714D01*
X8868572Y-20241714D02*
X8878096Y-20251238D01*
X8878096Y-20251238D02*
X8887619Y-20270286D01*
X8887619Y-20270286D02*
X8887619Y-20327429D01*
X8887619Y-20327429D02*
X8878096Y-20346476D01*
X8878096Y-20346476D02*
X8868572Y-20356000D01*
X8868572Y-20356000D02*
X8849524Y-20365524D01*
X8849524Y-20365524D02*
X8820953Y-20365524D01*
X9001905Y-20365524D02*
X8982858Y-20356000D01*
X8982858Y-20356000D02*
X8973334Y-20336952D01*
X8973334Y-20336952D02*
X8973334Y-20165524D01*
X9154286Y-20356000D02*
X9135239Y-20365524D01*
X9135239Y-20365524D02*
X9097143Y-20365524D01*
X9097143Y-20365524D02*
X9078096Y-20356000D01*
X9078096Y-20356000D02*
X9068572Y-20336952D01*
X9068572Y-20336952D02*
X9068572Y-20260762D01*
X9068572Y-20260762D02*
X9078096Y-20241714D01*
X9078096Y-20241714D02*
X9097143Y-20232190D01*
X9097143Y-20232190D02*
X9135239Y-20232190D01*
X9135239Y-20232190D02*
X9154286Y-20241714D01*
X9154286Y-20241714D02*
X9163810Y-20260762D01*
X9163810Y-20260762D02*
X9163810Y-20279810D01*
X9163810Y-20279810D02*
X9068572Y-20298857D01*
X9240000Y-20356000D02*
X9259048Y-20365524D01*
X9259048Y-20365524D02*
X9297143Y-20365524D01*
X9297143Y-20365524D02*
X9316191Y-20356000D01*
X9316191Y-20356000D02*
X9325715Y-20336952D01*
X9325715Y-20336952D02*
X9325715Y-20327429D01*
X9325715Y-20327429D02*
X9316191Y-20308381D01*
X9316191Y-20308381D02*
X9297143Y-20298857D01*
X9297143Y-20298857D02*
X9268572Y-20298857D01*
X9268572Y-20298857D02*
X9249524Y-20289333D01*
X9249524Y-20289333D02*
X9240000Y-20270286D01*
X9240000Y-20270286D02*
X9240000Y-20260762D01*
X9240000Y-20260762D02*
X9249524Y-20241714D01*
X9249524Y-20241714D02*
X9268572Y-20232190D01*
X9268572Y-20232190D02*
X9297143Y-20232190D01*
X9297143Y-20232190D02*
X9316191Y-20241714D01*
X9392381Y-20441714D02*
X9401905Y-20432190D01*
X9401905Y-20432190D02*
X9420953Y-20403619D01*
X9420953Y-20403619D02*
X9430477Y-20384571D01*
X9430477Y-20384571D02*
X9440000Y-20356000D01*
X9440000Y-20356000D02*
X9449524Y-20308381D01*
X9449524Y-20308381D02*
X9449524Y-20270286D01*
X9449524Y-20270286D02*
X9440000Y-20222667D01*
X9440000Y-20222667D02*
X9430477Y-20194095D01*
X9430477Y-20194095D02*
X9420953Y-20175048D01*
X9420953Y-20175048D02*
X9401905Y-20146476D01*
X9401905Y-20146476D02*
X9392381Y-20136952D01*
M02*
