%TF.GenerationSoftware,KiCad,Pcbnew,10.0.5*%
%TF.CreationDate,2026-09-14T16:49:18+01:00*%
%TF.ProjectId,gk_oled_pcb,676b5f6f-6c65-4645-9f70-63622e6b6963,rev?*%
%TF.SameCoordinates,Original*%
%TF.FileFunction,Legend,Top*%
%TF.FilePolarity,Positive*%
%FSLAX46Y46*%
G04 Gerber Fmt 4.6, Leading zero omitted, Abs format (unit mm)*
G04 Created by KiCad (PCBNEW 10.0.5) date 2026-09-14 16:49:18*
%MOMM*%
%LPD*%
G01*
G04 APERTURE LIST*
%ADD10C,0.100000*%
%ADD11C,0.180000*%
%ADD12C,0.150000*%
%ADD13C,0.120000*%
G04 APERTURE END LIST*
D10*
X107612000Y-73800000D02*
X116540000Y-73800000D01*
X116540000Y-101400000D01*
X107612000Y-101400000D01*
X107612000Y-73800000D01*
X107746800Y-69799200D02*
X109778800Y-69799200D01*
X109778800Y-70815200D01*
X107746800Y-70815200D01*
X107746800Y-69799200D01*
G36*
X107746800Y-69799200D02*
G01*
X109778800Y-69799200D01*
X109778800Y-70815200D01*
X107746800Y-70815200D01*
X107746800Y-69799200D01*
G37*
X115760000Y-101532000D02*
X143360000Y-101532000D01*
X143360000Y-110460000D01*
X115760000Y-110460000D01*
X115760000Y-101532000D01*
X117602000Y-66649600D02*
X118618000Y-66649600D01*
X118618000Y-68681600D01*
X117602000Y-68681600D01*
X117602000Y-66649600D01*
G36*
X117602000Y-66649600D02*
G01*
X118618000Y-66649600D01*
X118618000Y-68681600D01*
X117602000Y-68681600D01*
X117602000Y-66649600D01*
G37*
X119032000Y-63340000D02*
X127960000Y-63340000D01*
X127960000Y-90940000D01*
X119032000Y-90940000D01*
X119032000Y-63340000D01*
X130302000Y-70307200D02*
X132334000Y-70307200D01*
X132334000Y-71323200D01*
X130302000Y-71323200D01*
X130302000Y-70307200D01*
G36*
X130302000Y-70307200D02*
G01*
X132334000Y-70307200D01*
X132334000Y-71323200D01*
X130302000Y-71323200D01*
X130302000Y-70307200D01*
G37*
X130522000Y-73750000D02*
X139450000Y-73750000D01*
X139450000Y-101350000D01*
X130522000Y-101350000D01*
X130522000Y-73750000D01*
X142189200Y-97586800D02*
X144221200Y-97586800D01*
X144221200Y-98602800D01*
X142189200Y-98602800D01*
X142189200Y-97586800D01*
G36*
X142189200Y-97586800D02*
G01*
X144221200Y-97586800D01*
X144221200Y-98602800D01*
X142189200Y-98602800D01*
X142189200Y-97586800D01*
G37*
D11*
X92218482Y-73882971D02*
X92261340Y-73925828D01*
X92261340Y-73925828D02*
X92304197Y-74054400D01*
X92304197Y-74054400D02*
X92304197Y-74140114D01*
X92304197Y-74140114D02*
X92261340Y-74268685D01*
X92261340Y-74268685D02*
X92175625Y-74354400D01*
X92175625Y-74354400D02*
X92089911Y-74397257D01*
X92089911Y-74397257D02*
X91918482Y-74440114D01*
X91918482Y-74440114D02*
X91789911Y-74440114D01*
X91789911Y-74440114D02*
X91618482Y-74397257D01*
X91618482Y-74397257D02*
X91532768Y-74354400D01*
X91532768Y-74354400D02*
X91447054Y-74268685D01*
X91447054Y-74268685D02*
X91404197Y-74140114D01*
X91404197Y-74140114D02*
X91404197Y-74054400D01*
X91404197Y-74054400D02*
X91447054Y-73925828D01*
X91447054Y-73925828D02*
X91489911Y-73882971D01*
X91489911Y-73540114D02*
X91447054Y-73497257D01*
X91447054Y-73497257D02*
X91404197Y-73411543D01*
X91404197Y-73411543D02*
X91404197Y-73197257D01*
X91404197Y-73197257D02*
X91447054Y-73111543D01*
X91447054Y-73111543D02*
X91489911Y-73068685D01*
X91489911Y-73068685D02*
X91575625Y-73025828D01*
X91575625Y-73025828D02*
X91661340Y-73025828D01*
X91661340Y-73025828D02*
X91789911Y-73068685D01*
X91789911Y-73068685D02*
X92304197Y-73582971D01*
X92304197Y-73582971D02*
X92304197Y-73025828D01*
X91404197Y-72211542D02*
X91404197Y-72640114D01*
X91404197Y-72640114D02*
X91832768Y-72682971D01*
X91832768Y-72682971D02*
X91789911Y-72640114D01*
X91789911Y-72640114D02*
X91747054Y-72554400D01*
X91747054Y-72554400D02*
X91747054Y-72340114D01*
X91747054Y-72340114D02*
X91789911Y-72254400D01*
X91789911Y-72254400D02*
X91832768Y-72211542D01*
X91832768Y-72211542D02*
X91918482Y-72168685D01*
X91918482Y-72168685D02*
X92132768Y-72168685D01*
X92132768Y-72168685D02*
X92218482Y-72211542D01*
X92218482Y-72211542D02*
X92261340Y-72254400D01*
X92261340Y-72254400D02*
X92304197Y-72340114D01*
X92304197Y-72340114D02*
X92304197Y-72554400D01*
X92304197Y-72554400D02*
X92261340Y-72640114D01*
X92261340Y-72640114D02*
X92218482Y-72682971D01*
X118634482Y-72562171D02*
X118677340Y-72605028D01*
X118677340Y-72605028D02*
X118720197Y-72733600D01*
X118720197Y-72733600D02*
X118720197Y-72819314D01*
X118720197Y-72819314D02*
X118677340Y-72947885D01*
X118677340Y-72947885D02*
X118591625Y-73033600D01*
X118591625Y-73033600D02*
X118505911Y-73076457D01*
X118505911Y-73076457D02*
X118334482Y-73119314D01*
X118334482Y-73119314D02*
X118205911Y-73119314D01*
X118205911Y-73119314D02*
X118034482Y-73076457D01*
X118034482Y-73076457D02*
X117948768Y-73033600D01*
X117948768Y-73033600D02*
X117863054Y-72947885D01*
X117863054Y-72947885D02*
X117820197Y-72819314D01*
X117820197Y-72819314D02*
X117820197Y-72733600D01*
X117820197Y-72733600D02*
X117863054Y-72605028D01*
X117863054Y-72605028D02*
X117905911Y-72562171D01*
X117905911Y-72219314D02*
X117863054Y-72176457D01*
X117863054Y-72176457D02*
X117820197Y-72090743D01*
X117820197Y-72090743D02*
X117820197Y-71876457D01*
X117820197Y-71876457D02*
X117863054Y-71790743D01*
X117863054Y-71790743D02*
X117905911Y-71747885D01*
X117905911Y-71747885D02*
X117991625Y-71705028D01*
X117991625Y-71705028D02*
X118077340Y-71705028D01*
X118077340Y-71705028D02*
X118205911Y-71747885D01*
X118205911Y-71747885D02*
X118720197Y-72262171D01*
X118720197Y-72262171D02*
X118720197Y-71705028D01*
X117820197Y-71147885D02*
X117820197Y-71062171D01*
X117820197Y-71062171D02*
X117863054Y-70976457D01*
X117863054Y-70976457D02*
X117905911Y-70933600D01*
X117905911Y-70933600D02*
X117991625Y-70890742D01*
X117991625Y-70890742D02*
X118163054Y-70847885D01*
X118163054Y-70847885D02*
X118377340Y-70847885D01*
X118377340Y-70847885D02*
X118548768Y-70890742D01*
X118548768Y-70890742D02*
X118634482Y-70933600D01*
X118634482Y-70933600D02*
X118677340Y-70976457D01*
X118677340Y-70976457D02*
X118720197Y-71062171D01*
X118720197Y-71062171D02*
X118720197Y-71147885D01*
X118720197Y-71147885D02*
X118677340Y-71233600D01*
X118677340Y-71233600D02*
X118634482Y-71276457D01*
X118634482Y-71276457D02*
X118548768Y-71319314D01*
X118548768Y-71319314D02*
X118377340Y-71362171D01*
X118377340Y-71362171D02*
X118163054Y-71362171D01*
X118163054Y-71362171D02*
X117991625Y-71319314D01*
X117991625Y-71319314D02*
X117905911Y-71276457D01*
X117905911Y-71276457D02*
X117863054Y-71233600D01*
X117863054Y-71233600D02*
X117820197Y-71147885D01*
X145406082Y-93571199D02*
X145448940Y-93614056D01*
X145448940Y-93614056D02*
X145491797Y-93742628D01*
X145491797Y-93742628D02*
X145491797Y-93828342D01*
X145491797Y-93828342D02*
X145448940Y-93956913D01*
X145448940Y-93956913D02*
X145363225Y-94042628D01*
X145363225Y-94042628D02*
X145277511Y-94085485D01*
X145277511Y-94085485D02*
X145106082Y-94128342D01*
X145106082Y-94128342D02*
X144977511Y-94128342D01*
X144977511Y-94128342D02*
X144806082Y-94085485D01*
X144806082Y-94085485D02*
X144720368Y-94042628D01*
X144720368Y-94042628D02*
X144634654Y-93956913D01*
X144634654Y-93956913D02*
X144591797Y-93828342D01*
X144591797Y-93828342D02*
X144591797Y-93742628D01*
X144591797Y-93742628D02*
X144634654Y-93614056D01*
X144634654Y-93614056D02*
X144677511Y-93571199D01*
X144591797Y-92799771D02*
X144591797Y-92971199D01*
X144591797Y-92971199D02*
X144634654Y-93056913D01*
X144634654Y-93056913D02*
X144677511Y-93099771D01*
X144677511Y-93099771D02*
X144806082Y-93185485D01*
X144806082Y-93185485D02*
X144977511Y-93228342D01*
X144977511Y-93228342D02*
X145320368Y-93228342D01*
X145320368Y-93228342D02*
X145406082Y-93185485D01*
X145406082Y-93185485D02*
X145448940Y-93142628D01*
X145448940Y-93142628D02*
X145491797Y-93056913D01*
X145491797Y-93056913D02*
X145491797Y-92885485D01*
X145491797Y-92885485D02*
X145448940Y-92799771D01*
X145448940Y-92799771D02*
X145406082Y-92756913D01*
X145406082Y-92756913D02*
X145320368Y-92714056D01*
X145320368Y-92714056D02*
X145106082Y-92714056D01*
X145106082Y-92714056D02*
X145020368Y-92756913D01*
X145020368Y-92756913D02*
X144977511Y-92799771D01*
X144977511Y-92799771D02*
X144934654Y-92885485D01*
X144934654Y-92885485D02*
X144934654Y-93056913D01*
X144934654Y-93056913D02*
X144977511Y-93142628D01*
X144977511Y-93142628D02*
X145020368Y-93185485D01*
X145020368Y-93185485D02*
X145106082Y-93228342D01*
X142394800Y-82855397D02*
X142094800Y-82426825D01*
X141880514Y-82855397D02*
X141880514Y-81955397D01*
X141880514Y-81955397D02*
X142223371Y-81955397D01*
X142223371Y-81955397D02*
X142309086Y-81998254D01*
X142309086Y-81998254D02*
X142351943Y-82041111D01*
X142351943Y-82041111D02*
X142394800Y-82126825D01*
X142394800Y-82126825D02*
X142394800Y-82255397D01*
X142394800Y-82255397D02*
X142351943Y-82341111D01*
X142351943Y-82341111D02*
X142309086Y-82383968D01*
X142309086Y-82383968D02*
X142223371Y-82426825D01*
X142223371Y-82426825D02*
X141880514Y-82426825D01*
X143166229Y-82255397D02*
X143166229Y-82855397D01*
X142951943Y-81912540D02*
X142737657Y-82555397D01*
X142737657Y-82555397D02*
X143294800Y-82555397D01*
X120107682Y-70580971D02*
X120150540Y-70623828D01*
X120150540Y-70623828D02*
X120193397Y-70752400D01*
X120193397Y-70752400D02*
X120193397Y-70838114D01*
X120193397Y-70838114D02*
X120150540Y-70966685D01*
X120150540Y-70966685D02*
X120064825Y-71052400D01*
X120064825Y-71052400D02*
X119979111Y-71095257D01*
X119979111Y-71095257D02*
X119807682Y-71138114D01*
X119807682Y-71138114D02*
X119679111Y-71138114D01*
X119679111Y-71138114D02*
X119507682Y-71095257D01*
X119507682Y-71095257D02*
X119421968Y-71052400D01*
X119421968Y-71052400D02*
X119336254Y-70966685D01*
X119336254Y-70966685D02*
X119293397Y-70838114D01*
X119293397Y-70838114D02*
X119293397Y-70752400D01*
X119293397Y-70752400D02*
X119336254Y-70623828D01*
X119336254Y-70623828D02*
X119379111Y-70580971D01*
X120193397Y-69723828D02*
X120193397Y-70238114D01*
X120193397Y-69980971D02*
X119293397Y-69980971D01*
X119293397Y-69980971D02*
X119421968Y-70066685D01*
X119421968Y-70066685D02*
X119507682Y-70152400D01*
X119507682Y-70152400D02*
X119550540Y-70238114D01*
X119293397Y-68952400D02*
X119293397Y-69123828D01*
X119293397Y-69123828D02*
X119336254Y-69209542D01*
X119336254Y-69209542D02*
X119379111Y-69252400D01*
X119379111Y-69252400D02*
X119507682Y-69338114D01*
X119507682Y-69338114D02*
X119679111Y-69380971D01*
X119679111Y-69380971D02*
X120021968Y-69380971D01*
X120021968Y-69380971D02*
X120107682Y-69338114D01*
X120107682Y-69338114D02*
X120150540Y-69295257D01*
X120150540Y-69295257D02*
X120193397Y-69209542D01*
X120193397Y-69209542D02*
X120193397Y-69038114D01*
X120193397Y-69038114D02*
X120150540Y-68952400D01*
X120150540Y-68952400D02*
X120107682Y-68909542D01*
X120107682Y-68909542D02*
X120021968Y-68866685D01*
X120021968Y-68866685D02*
X119807682Y-68866685D01*
X119807682Y-68866685D02*
X119721968Y-68909542D01*
X119721968Y-68909542D02*
X119679111Y-68952400D01*
X119679111Y-68952400D02*
X119636254Y-69038114D01*
X119636254Y-69038114D02*
X119636254Y-69209542D01*
X119636254Y-69209542D02*
X119679111Y-69295257D01*
X119679111Y-69295257D02*
X119721968Y-69338114D01*
X119721968Y-69338114D02*
X119807682Y-69380971D01*
X110267028Y-71695282D02*
X110224171Y-71738140D01*
X110224171Y-71738140D02*
X110095599Y-71780997D01*
X110095599Y-71780997D02*
X110009885Y-71780997D01*
X110009885Y-71780997D02*
X109881314Y-71738140D01*
X109881314Y-71738140D02*
X109795599Y-71652425D01*
X109795599Y-71652425D02*
X109752742Y-71566711D01*
X109752742Y-71566711D02*
X109709885Y-71395282D01*
X109709885Y-71395282D02*
X109709885Y-71266711D01*
X109709885Y-71266711D02*
X109752742Y-71095282D01*
X109752742Y-71095282D02*
X109795599Y-71009568D01*
X109795599Y-71009568D02*
X109881314Y-70923854D01*
X109881314Y-70923854D02*
X110009885Y-70880997D01*
X110009885Y-70880997D02*
X110095599Y-70880997D01*
X110095599Y-70880997D02*
X110224171Y-70923854D01*
X110224171Y-70923854D02*
X110267028Y-70966711D01*
X110609885Y-70966711D02*
X110652742Y-70923854D01*
X110652742Y-70923854D02*
X110738457Y-70880997D01*
X110738457Y-70880997D02*
X110952742Y-70880997D01*
X110952742Y-70880997D02*
X111038457Y-70923854D01*
X111038457Y-70923854D02*
X111081314Y-70966711D01*
X111081314Y-70966711D02*
X111124171Y-71052425D01*
X111124171Y-71052425D02*
X111124171Y-71138140D01*
X111124171Y-71138140D02*
X111081314Y-71266711D01*
X111081314Y-71266711D02*
X110567028Y-71780997D01*
X110567028Y-71780997D02*
X111124171Y-71780997D01*
X111895600Y-71180997D02*
X111895600Y-71780997D01*
X111681314Y-70838140D02*
X111467028Y-71480997D01*
X111467028Y-71480997D02*
X112024171Y-71480997D01*
D10*
X135808933Y-77541380D02*
X135808933Y-76827095D01*
X135808933Y-76827095D02*
X135856552Y-76684238D01*
X135856552Y-76684238D02*
X135951790Y-76589000D01*
X135951790Y-76589000D02*
X136094647Y-76541380D01*
X136094647Y-76541380D02*
X136189885Y-76541380D01*
X135332742Y-76541380D02*
X135332742Y-77541380D01*
X135332742Y-77541380D02*
X134951790Y-77541380D01*
X134951790Y-77541380D02*
X134856552Y-77493761D01*
X134856552Y-77493761D02*
X134808933Y-77446142D01*
X134808933Y-77446142D02*
X134761314Y-77350904D01*
X134761314Y-77350904D02*
X134761314Y-77208047D01*
X134761314Y-77208047D02*
X134808933Y-77112809D01*
X134808933Y-77112809D02*
X134856552Y-77065190D01*
X134856552Y-77065190D02*
X134951790Y-77017571D01*
X134951790Y-77017571D02*
X135332742Y-77017571D01*
X134380361Y-77446142D02*
X134332742Y-77493761D01*
X134332742Y-77493761D02*
X134237504Y-77541380D01*
X134237504Y-77541380D02*
X133999409Y-77541380D01*
X133999409Y-77541380D02*
X133904171Y-77493761D01*
X133904171Y-77493761D02*
X133856552Y-77446142D01*
X133856552Y-77446142D02*
X133808933Y-77350904D01*
X133808933Y-77350904D02*
X133808933Y-77255666D01*
X133808933Y-77255666D02*
X133856552Y-77112809D01*
X133856552Y-77112809D02*
X134427980Y-76541380D01*
X134427980Y-76541380D02*
X133808933Y-76541380D01*
D11*
X146980882Y-113687999D02*
X147023740Y-113730856D01*
X147023740Y-113730856D02*
X147066597Y-113859428D01*
X147066597Y-113859428D02*
X147066597Y-113945142D01*
X147066597Y-113945142D02*
X147023740Y-114073713D01*
X147023740Y-114073713D02*
X146938025Y-114159428D01*
X146938025Y-114159428D02*
X146852311Y-114202285D01*
X146852311Y-114202285D02*
X146680882Y-114245142D01*
X146680882Y-114245142D02*
X146552311Y-114245142D01*
X146552311Y-114245142D02*
X146380882Y-114202285D01*
X146380882Y-114202285D02*
X146295168Y-114159428D01*
X146295168Y-114159428D02*
X146209454Y-114073713D01*
X146209454Y-114073713D02*
X146166597Y-113945142D01*
X146166597Y-113945142D02*
X146166597Y-113859428D01*
X146166597Y-113859428D02*
X146209454Y-113730856D01*
X146209454Y-113730856D02*
X146252311Y-113687999D01*
X146252311Y-113345142D02*
X146209454Y-113302285D01*
X146209454Y-113302285D02*
X146166597Y-113216571D01*
X146166597Y-113216571D02*
X146166597Y-113002285D01*
X146166597Y-113002285D02*
X146209454Y-112916571D01*
X146209454Y-112916571D02*
X146252311Y-112873713D01*
X146252311Y-112873713D02*
X146338025Y-112830856D01*
X146338025Y-112830856D02*
X146423740Y-112830856D01*
X146423740Y-112830856D02*
X146552311Y-112873713D01*
X146552311Y-112873713D02*
X147066597Y-113387999D01*
X147066597Y-113387999D02*
X147066597Y-112830856D01*
X134941282Y-66516971D02*
X134984140Y-66559828D01*
X134984140Y-66559828D02*
X135026997Y-66688400D01*
X135026997Y-66688400D02*
X135026997Y-66774114D01*
X135026997Y-66774114D02*
X134984140Y-66902685D01*
X134984140Y-66902685D02*
X134898425Y-66988400D01*
X134898425Y-66988400D02*
X134812711Y-67031257D01*
X134812711Y-67031257D02*
X134641282Y-67074114D01*
X134641282Y-67074114D02*
X134512711Y-67074114D01*
X134512711Y-67074114D02*
X134341282Y-67031257D01*
X134341282Y-67031257D02*
X134255568Y-66988400D01*
X134255568Y-66988400D02*
X134169854Y-66902685D01*
X134169854Y-66902685D02*
X134126997Y-66774114D01*
X134126997Y-66774114D02*
X134126997Y-66688400D01*
X134126997Y-66688400D02*
X134169854Y-66559828D01*
X134169854Y-66559828D02*
X134212711Y-66516971D01*
X135026997Y-65659828D02*
X135026997Y-66174114D01*
X135026997Y-65916971D02*
X134126997Y-65916971D01*
X134126997Y-65916971D02*
X134255568Y-66002685D01*
X134255568Y-66002685D02*
X134341282Y-66088400D01*
X134341282Y-66088400D02*
X134384140Y-66174114D01*
X134126997Y-65102685D02*
X134126997Y-65016971D01*
X134126997Y-65016971D02*
X134169854Y-64931257D01*
X134169854Y-64931257D02*
X134212711Y-64888400D01*
X134212711Y-64888400D02*
X134298425Y-64845542D01*
X134298425Y-64845542D02*
X134469854Y-64802685D01*
X134469854Y-64802685D02*
X134684140Y-64802685D01*
X134684140Y-64802685D02*
X134855568Y-64845542D01*
X134855568Y-64845542D02*
X134941282Y-64888400D01*
X134941282Y-64888400D02*
X134984140Y-64931257D01*
X134984140Y-64931257D02*
X135026997Y-65016971D01*
X135026997Y-65016971D02*
X135026997Y-65102685D01*
X135026997Y-65102685D02*
X134984140Y-65188400D01*
X134984140Y-65188400D02*
X134941282Y-65231257D01*
X134941282Y-65231257D02*
X134855568Y-65274114D01*
X134855568Y-65274114D02*
X134684140Y-65316971D01*
X134684140Y-65316971D02*
X134469854Y-65316971D01*
X134469854Y-65316971D02*
X134298425Y-65274114D01*
X134298425Y-65274114D02*
X134212711Y-65231257D01*
X134212711Y-65231257D02*
X134169854Y-65188400D01*
X134169854Y-65188400D02*
X134126997Y-65102685D01*
X133047600Y-64668997D02*
X132747600Y-64240425D01*
X132533314Y-64668997D02*
X132533314Y-63768997D01*
X132533314Y-63768997D02*
X132876171Y-63768997D01*
X132876171Y-63768997D02*
X132961886Y-63811854D01*
X132961886Y-63811854D02*
X133004743Y-63854711D01*
X133004743Y-63854711D02*
X133047600Y-63940425D01*
X133047600Y-63940425D02*
X133047600Y-64068997D01*
X133047600Y-64068997D02*
X133004743Y-64154711D01*
X133004743Y-64154711D02*
X132961886Y-64197568D01*
X132961886Y-64197568D02*
X132876171Y-64240425D01*
X132876171Y-64240425D02*
X132533314Y-64240425D01*
X133347600Y-63768997D02*
X133947600Y-63768997D01*
X133947600Y-63768997D02*
X133561886Y-64668997D01*
X143360000Y-97333397D02*
X143060000Y-96904825D01*
X142845714Y-97333397D02*
X142845714Y-96433397D01*
X142845714Y-96433397D02*
X143188571Y-96433397D01*
X143188571Y-96433397D02*
X143274286Y-96476254D01*
X143274286Y-96476254D02*
X143317143Y-96519111D01*
X143317143Y-96519111D02*
X143360000Y-96604825D01*
X143360000Y-96604825D02*
X143360000Y-96733397D01*
X143360000Y-96733397D02*
X143317143Y-96819111D01*
X143317143Y-96819111D02*
X143274286Y-96861968D01*
X143274286Y-96861968D02*
X143188571Y-96904825D01*
X143188571Y-96904825D02*
X142845714Y-96904825D01*
X144217143Y-97333397D02*
X143702857Y-97333397D01*
X143960000Y-97333397D02*
X143960000Y-96433397D01*
X143960000Y-96433397D02*
X143874286Y-96561968D01*
X143874286Y-96561968D02*
X143788571Y-96647682D01*
X143788571Y-96647682D02*
X143702857Y-96690540D01*
X115042228Y-69472082D02*
X114999371Y-69514940D01*
X114999371Y-69514940D02*
X114870799Y-69557797D01*
X114870799Y-69557797D02*
X114785085Y-69557797D01*
X114785085Y-69557797D02*
X114656514Y-69514940D01*
X114656514Y-69514940D02*
X114570799Y-69429225D01*
X114570799Y-69429225D02*
X114527942Y-69343511D01*
X114527942Y-69343511D02*
X114485085Y-69172082D01*
X114485085Y-69172082D02*
X114485085Y-69043511D01*
X114485085Y-69043511D02*
X114527942Y-68872082D01*
X114527942Y-68872082D02*
X114570799Y-68786368D01*
X114570799Y-68786368D02*
X114656514Y-68700654D01*
X114656514Y-68700654D02*
X114785085Y-68657797D01*
X114785085Y-68657797D02*
X114870799Y-68657797D01*
X114870799Y-68657797D02*
X114999371Y-68700654D01*
X114999371Y-68700654D02*
X115042228Y-68743511D01*
X115385085Y-68743511D02*
X115427942Y-68700654D01*
X115427942Y-68700654D02*
X115513657Y-68657797D01*
X115513657Y-68657797D02*
X115727942Y-68657797D01*
X115727942Y-68657797D02*
X115813657Y-68700654D01*
X115813657Y-68700654D02*
X115856514Y-68743511D01*
X115856514Y-68743511D02*
X115899371Y-68829225D01*
X115899371Y-68829225D02*
X115899371Y-68914940D01*
X115899371Y-68914940D02*
X115856514Y-69043511D01*
X115856514Y-69043511D02*
X115342228Y-69557797D01*
X115342228Y-69557797D02*
X115899371Y-69557797D01*
X116199371Y-68657797D02*
X116756514Y-68657797D01*
X116756514Y-68657797D02*
X116456514Y-69000654D01*
X116456514Y-69000654D02*
X116585085Y-69000654D01*
X116585085Y-69000654D02*
X116670800Y-69043511D01*
X116670800Y-69043511D02*
X116713657Y-69086368D01*
X116713657Y-69086368D02*
X116756514Y-69172082D01*
X116756514Y-69172082D02*
X116756514Y-69386368D01*
X116756514Y-69386368D02*
X116713657Y-69472082D01*
X116713657Y-69472082D02*
X116670800Y-69514940D01*
X116670800Y-69514940D02*
X116585085Y-69557797D01*
X116585085Y-69557797D02*
X116327942Y-69557797D01*
X116327942Y-69557797D02*
X116242228Y-69514940D01*
X116242228Y-69514940D02*
X116199371Y-69472082D01*
X93691682Y-73882971D02*
X93734540Y-73925828D01*
X93734540Y-73925828D02*
X93777397Y-74054400D01*
X93777397Y-74054400D02*
X93777397Y-74140114D01*
X93777397Y-74140114D02*
X93734540Y-74268685D01*
X93734540Y-74268685D02*
X93648825Y-74354400D01*
X93648825Y-74354400D02*
X93563111Y-74397257D01*
X93563111Y-74397257D02*
X93391682Y-74440114D01*
X93391682Y-74440114D02*
X93263111Y-74440114D01*
X93263111Y-74440114D02*
X93091682Y-74397257D01*
X93091682Y-74397257D02*
X93005968Y-74354400D01*
X93005968Y-74354400D02*
X92920254Y-74268685D01*
X92920254Y-74268685D02*
X92877397Y-74140114D01*
X92877397Y-74140114D02*
X92877397Y-74054400D01*
X92877397Y-74054400D02*
X92920254Y-73925828D01*
X92920254Y-73925828D02*
X92963111Y-73882971D01*
X92963111Y-73540114D02*
X92920254Y-73497257D01*
X92920254Y-73497257D02*
X92877397Y-73411543D01*
X92877397Y-73411543D02*
X92877397Y-73197257D01*
X92877397Y-73197257D02*
X92920254Y-73111543D01*
X92920254Y-73111543D02*
X92963111Y-73068685D01*
X92963111Y-73068685D02*
X93048825Y-73025828D01*
X93048825Y-73025828D02*
X93134540Y-73025828D01*
X93134540Y-73025828D02*
X93263111Y-73068685D01*
X93263111Y-73068685D02*
X93777397Y-73582971D01*
X93777397Y-73582971D02*
X93777397Y-73025828D01*
X92877397Y-72254400D02*
X92877397Y-72425828D01*
X92877397Y-72425828D02*
X92920254Y-72511542D01*
X92920254Y-72511542D02*
X92963111Y-72554400D01*
X92963111Y-72554400D02*
X93091682Y-72640114D01*
X93091682Y-72640114D02*
X93263111Y-72682971D01*
X93263111Y-72682971D02*
X93605968Y-72682971D01*
X93605968Y-72682971D02*
X93691682Y-72640114D01*
X93691682Y-72640114D02*
X93734540Y-72597257D01*
X93734540Y-72597257D02*
X93777397Y-72511542D01*
X93777397Y-72511542D02*
X93777397Y-72340114D01*
X93777397Y-72340114D02*
X93734540Y-72254400D01*
X93734540Y-72254400D02*
X93691682Y-72211542D01*
X93691682Y-72211542D02*
X93605968Y-72168685D01*
X93605968Y-72168685D02*
X93391682Y-72168685D01*
X93391682Y-72168685D02*
X93305968Y-72211542D01*
X93305968Y-72211542D02*
X93263111Y-72254400D01*
X93263111Y-72254400D02*
X93220254Y-72340114D01*
X93220254Y-72340114D02*
X93220254Y-72511542D01*
X93220254Y-72511542D02*
X93263111Y-72597257D01*
X93263111Y-72597257D02*
X93305968Y-72640114D01*
X93305968Y-72640114D02*
X93391682Y-72682971D01*
X112400628Y-69370482D02*
X112357771Y-69413340D01*
X112357771Y-69413340D02*
X112229199Y-69456197D01*
X112229199Y-69456197D02*
X112143485Y-69456197D01*
X112143485Y-69456197D02*
X112014914Y-69413340D01*
X112014914Y-69413340D02*
X111929199Y-69327625D01*
X111929199Y-69327625D02*
X111886342Y-69241911D01*
X111886342Y-69241911D02*
X111843485Y-69070482D01*
X111843485Y-69070482D02*
X111843485Y-68941911D01*
X111843485Y-68941911D02*
X111886342Y-68770482D01*
X111886342Y-68770482D02*
X111929199Y-68684768D01*
X111929199Y-68684768D02*
X112014914Y-68599054D01*
X112014914Y-68599054D02*
X112143485Y-68556197D01*
X112143485Y-68556197D02*
X112229199Y-68556197D01*
X112229199Y-68556197D02*
X112357771Y-68599054D01*
X112357771Y-68599054D02*
X112400628Y-68641911D01*
X112743485Y-68641911D02*
X112786342Y-68599054D01*
X112786342Y-68599054D02*
X112872057Y-68556197D01*
X112872057Y-68556197D02*
X113086342Y-68556197D01*
X113086342Y-68556197D02*
X113172057Y-68599054D01*
X113172057Y-68599054D02*
X113214914Y-68641911D01*
X113214914Y-68641911D02*
X113257771Y-68727625D01*
X113257771Y-68727625D02*
X113257771Y-68813340D01*
X113257771Y-68813340D02*
X113214914Y-68941911D01*
X113214914Y-68941911D02*
X112700628Y-69456197D01*
X112700628Y-69456197D02*
X113257771Y-69456197D01*
X113600628Y-68641911D02*
X113643485Y-68599054D01*
X113643485Y-68599054D02*
X113729200Y-68556197D01*
X113729200Y-68556197D02*
X113943485Y-68556197D01*
X113943485Y-68556197D02*
X114029200Y-68599054D01*
X114029200Y-68599054D02*
X114072057Y-68641911D01*
X114072057Y-68641911D02*
X114114914Y-68727625D01*
X114114914Y-68727625D02*
X114114914Y-68813340D01*
X114114914Y-68813340D02*
X114072057Y-68941911D01*
X114072057Y-68941911D02*
X113557771Y-69456197D01*
X113557771Y-69456197D02*
X114114914Y-69456197D01*
X145406082Y-95603199D02*
X145448940Y-95646056D01*
X145448940Y-95646056D02*
X145491797Y-95774628D01*
X145491797Y-95774628D02*
X145491797Y-95860342D01*
X145491797Y-95860342D02*
X145448940Y-95988913D01*
X145448940Y-95988913D02*
X145363225Y-96074628D01*
X145363225Y-96074628D02*
X145277511Y-96117485D01*
X145277511Y-96117485D02*
X145106082Y-96160342D01*
X145106082Y-96160342D02*
X144977511Y-96160342D01*
X144977511Y-96160342D02*
X144806082Y-96117485D01*
X144806082Y-96117485D02*
X144720368Y-96074628D01*
X144720368Y-96074628D02*
X144634654Y-95988913D01*
X144634654Y-95988913D02*
X144591797Y-95860342D01*
X144591797Y-95860342D02*
X144591797Y-95774628D01*
X144591797Y-95774628D02*
X144634654Y-95646056D01*
X144634654Y-95646056D02*
X144677511Y-95603199D01*
X144591797Y-94788913D02*
X144591797Y-95217485D01*
X144591797Y-95217485D02*
X145020368Y-95260342D01*
X145020368Y-95260342D02*
X144977511Y-95217485D01*
X144977511Y-95217485D02*
X144934654Y-95131771D01*
X144934654Y-95131771D02*
X144934654Y-94917485D01*
X144934654Y-94917485D02*
X144977511Y-94831771D01*
X144977511Y-94831771D02*
X145020368Y-94788913D01*
X145020368Y-94788913D02*
X145106082Y-94746056D01*
X145106082Y-94746056D02*
X145320368Y-94746056D01*
X145320368Y-94746056D02*
X145406082Y-94788913D01*
X145406082Y-94788913D02*
X145448940Y-94831771D01*
X145448940Y-94831771D02*
X145491797Y-94917485D01*
X145491797Y-94917485D02*
X145491797Y-95131771D01*
X145491797Y-95131771D02*
X145448940Y-95217485D01*
X145448940Y-95217485D02*
X145406082Y-95260342D01*
X136022628Y-66767682D02*
X135979771Y-66810540D01*
X135979771Y-66810540D02*
X135851199Y-66853397D01*
X135851199Y-66853397D02*
X135765485Y-66853397D01*
X135765485Y-66853397D02*
X135636914Y-66810540D01*
X135636914Y-66810540D02*
X135551199Y-66724825D01*
X135551199Y-66724825D02*
X135508342Y-66639111D01*
X135508342Y-66639111D02*
X135465485Y-66467682D01*
X135465485Y-66467682D02*
X135465485Y-66339111D01*
X135465485Y-66339111D02*
X135508342Y-66167682D01*
X135508342Y-66167682D02*
X135551199Y-66081968D01*
X135551199Y-66081968D02*
X135636914Y-65996254D01*
X135636914Y-65996254D02*
X135765485Y-65953397D01*
X135765485Y-65953397D02*
X135851199Y-65953397D01*
X135851199Y-65953397D02*
X135979771Y-65996254D01*
X135979771Y-65996254D02*
X136022628Y-66039111D01*
X136879771Y-66853397D02*
X136365485Y-66853397D01*
X136622628Y-66853397D02*
X136622628Y-65953397D01*
X136622628Y-65953397D02*
X136536914Y-66081968D01*
X136536914Y-66081968D02*
X136451199Y-66167682D01*
X136451199Y-66167682D02*
X136365485Y-66210540D01*
X137222628Y-66039111D02*
X137265485Y-65996254D01*
X137265485Y-65996254D02*
X137351200Y-65953397D01*
X137351200Y-65953397D02*
X137565485Y-65953397D01*
X137565485Y-65953397D02*
X137651200Y-65996254D01*
X137651200Y-65996254D02*
X137694057Y-66039111D01*
X137694057Y-66039111D02*
X137736914Y-66124825D01*
X137736914Y-66124825D02*
X137736914Y-66210540D01*
X137736914Y-66210540D02*
X137694057Y-66339111D01*
X137694057Y-66339111D02*
X137179771Y-66853397D01*
X137179771Y-66853397D02*
X137736914Y-66853397D01*
X143258400Y-116094482D02*
X143215543Y-116137340D01*
X143215543Y-116137340D02*
X143086971Y-116180197D01*
X143086971Y-116180197D02*
X143001257Y-116180197D01*
X143001257Y-116180197D02*
X142872686Y-116137340D01*
X142872686Y-116137340D02*
X142786971Y-116051625D01*
X142786971Y-116051625D02*
X142744114Y-115965911D01*
X142744114Y-115965911D02*
X142701257Y-115794482D01*
X142701257Y-115794482D02*
X142701257Y-115665911D01*
X142701257Y-115665911D02*
X142744114Y-115494482D01*
X142744114Y-115494482D02*
X142786971Y-115408768D01*
X142786971Y-115408768D02*
X142872686Y-115323054D01*
X142872686Y-115323054D02*
X143001257Y-115280197D01*
X143001257Y-115280197D02*
X143086971Y-115280197D01*
X143086971Y-115280197D02*
X143215543Y-115323054D01*
X143215543Y-115323054D02*
X143258400Y-115365911D01*
X144029829Y-115580197D02*
X144029829Y-116180197D01*
X143815543Y-115237340D02*
X143601257Y-115880197D01*
X143601257Y-115880197D02*
X144158400Y-115880197D01*
X142090000Y-72609682D02*
X142047143Y-72652540D01*
X142047143Y-72652540D02*
X141918571Y-72695397D01*
X141918571Y-72695397D02*
X141832857Y-72695397D01*
X141832857Y-72695397D02*
X141704286Y-72652540D01*
X141704286Y-72652540D02*
X141618571Y-72566825D01*
X141618571Y-72566825D02*
X141575714Y-72481111D01*
X141575714Y-72481111D02*
X141532857Y-72309682D01*
X141532857Y-72309682D02*
X141532857Y-72181111D01*
X141532857Y-72181111D02*
X141575714Y-72009682D01*
X141575714Y-72009682D02*
X141618571Y-71923968D01*
X141618571Y-71923968D02*
X141704286Y-71838254D01*
X141704286Y-71838254D02*
X141832857Y-71795397D01*
X141832857Y-71795397D02*
X141918571Y-71795397D01*
X141918571Y-71795397D02*
X142047143Y-71838254D01*
X142047143Y-71838254D02*
X142090000Y-71881111D01*
X142604286Y-72181111D02*
X142518571Y-72138254D01*
X142518571Y-72138254D02*
X142475714Y-72095397D01*
X142475714Y-72095397D02*
X142432857Y-72009682D01*
X142432857Y-72009682D02*
X142432857Y-71966825D01*
X142432857Y-71966825D02*
X142475714Y-71881111D01*
X142475714Y-71881111D02*
X142518571Y-71838254D01*
X142518571Y-71838254D02*
X142604286Y-71795397D01*
X142604286Y-71795397D02*
X142775714Y-71795397D01*
X142775714Y-71795397D02*
X142861429Y-71838254D01*
X142861429Y-71838254D02*
X142904286Y-71881111D01*
X142904286Y-71881111D02*
X142947143Y-71966825D01*
X142947143Y-71966825D02*
X142947143Y-72009682D01*
X142947143Y-72009682D02*
X142904286Y-72095397D01*
X142904286Y-72095397D02*
X142861429Y-72138254D01*
X142861429Y-72138254D02*
X142775714Y-72181111D01*
X142775714Y-72181111D02*
X142604286Y-72181111D01*
X142604286Y-72181111D02*
X142518571Y-72223968D01*
X142518571Y-72223968D02*
X142475714Y-72266825D01*
X142475714Y-72266825D02*
X142432857Y-72352540D01*
X142432857Y-72352540D02*
X142432857Y-72523968D01*
X142432857Y-72523968D02*
X142475714Y-72609682D01*
X142475714Y-72609682D02*
X142518571Y-72652540D01*
X142518571Y-72652540D02*
X142604286Y-72695397D01*
X142604286Y-72695397D02*
X142775714Y-72695397D01*
X142775714Y-72695397D02*
X142861429Y-72652540D01*
X142861429Y-72652540D02*
X142904286Y-72609682D01*
X142904286Y-72609682D02*
X142947143Y-72523968D01*
X142947143Y-72523968D02*
X142947143Y-72352540D01*
X142947143Y-72352540D02*
X142904286Y-72266825D01*
X142904286Y-72266825D02*
X142861429Y-72223968D01*
X142861429Y-72223968D02*
X142775714Y-72181111D01*
X128656628Y-60163682D02*
X128613771Y-60206540D01*
X128613771Y-60206540D02*
X128485199Y-60249397D01*
X128485199Y-60249397D02*
X128399485Y-60249397D01*
X128399485Y-60249397D02*
X128270914Y-60206540D01*
X128270914Y-60206540D02*
X128185199Y-60120825D01*
X128185199Y-60120825D02*
X128142342Y-60035111D01*
X128142342Y-60035111D02*
X128099485Y-59863682D01*
X128099485Y-59863682D02*
X128099485Y-59735111D01*
X128099485Y-59735111D02*
X128142342Y-59563682D01*
X128142342Y-59563682D02*
X128185199Y-59477968D01*
X128185199Y-59477968D02*
X128270914Y-59392254D01*
X128270914Y-59392254D02*
X128399485Y-59349397D01*
X128399485Y-59349397D02*
X128485199Y-59349397D01*
X128485199Y-59349397D02*
X128613771Y-59392254D01*
X128613771Y-59392254D02*
X128656628Y-59435111D01*
X129513771Y-60249397D02*
X128999485Y-60249397D01*
X129256628Y-60249397D02*
X129256628Y-59349397D01*
X129256628Y-59349397D02*
X129170914Y-59477968D01*
X129170914Y-59477968D02*
X129085199Y-59563682D01*
X129085199Y-59563682D02*
X128999485Y-59606540D01*
X130285200Y-59649397D02*
X130285200Y-60249397D01*
X130070914Y-59306540D02*
X129856628Y-59949397D01*
X129856628Y-59949397D02*
X130413771Y-59949397D01*
X139651600Y-85090597D02*
X139351600Y-84662025D01*
X139137314Y-85090597D02*
X139137314Y-84190597D01*
X139137314Y-84190597D02*
X139480171Y-84190597D01*
X139480171Y-84190597D02*
X139565886Y-84233454D01*
X139565886Y-84233454D02*
X139608743Y-84276311D01*
X139608743Y-84276311D02*
X139651600Y-84362025D01*
X139651600Y-84362025D02*
X139651600Y-84490597D01*
X139651600Y-84490597D02*
X139608743Y-84576311D01*
X139608743Y-84576311D02*
X139565886Y-84619168D01*
X139565886Y-84619168D02*
X139480171Y-84662025D01*
X139480171Y-84662025D02*
X139137314Y-84662025D01*
X139951600Y-84190597D02*
X140508743Y-84190597D01*
X140508743Y-84190597D02*
X140208743Y-84533454D01*
X140208743Y-84533454D02*
X140337314Y-84533454D01*
X140337314Y-84533454D02*
X140423029Y-84576311D01*
X140423029Y-84576311D02*
X140465886Y-84619168D01*
X140465886Y-84619168D02*
X140508743Y-84704882D01*
X140508743Y-84704882D02*
X140508743Y-84919168D01*
X140508743Y-84919168D02*
X140465886Y-85004882D01*
X140465886Y-85004882D02*
X140423029Y-85047740D01*
X140423029Y-85047740D02*
X140337314Y-85090597D01*
X140337314Y-85090597D02*
X140080171Y-85090597D01*
X140080171Y-85090597D02*
X139994457Y-85047740D01*
X139994457Y-85047740D02*
X139951600Y-85004882D01*
X115942082Y-67736171D02*
X115984940Y-67779028D01*
X115984940Y-67779028D02*
X116027797Y-67907600D01*
X116027797Y-67907600D02*
X116027797Y-67993314D01*
X116027797Y-67993314D02*
X115984940Y-68121885D01*
X115984940Y-68121885D02*
X115899225Y-68207600D01*
X115899225Y-68207600D02*
X115813511Y-68250457D01*
X115813511Y-68250457D02*
X115642082Y-68293314D01*
X115642082Y-68293314D02*
X115513511Y-68293314D01*
X115513511Y-68293314D02*
X115342082Y-68250457D01*
X115342082Y-68250457D02*
X115256368Y-68207600D01*
X115256368Y-68207600D02*
X115170654Y-68121885D01*
X115170654Y-68121885D02*
X115127797Y-67993314D01*
X115127797Y-67993314D02*
X115127797Y-67907600D01*
X115127797Y-67907600D02*
X115170654Y-67779028D01*
X115170654Y-67779028D02*
X115213511Y-67736171D01*
X116027797Y-66879028D02*
X116027797Y-67393314D01*
X116027797Y-67136171D02*
X115127797Y-67136171D01*
X115127797Y-67136171D02*
X115256368Y-67221885D01*
X115256368Y-67221885D02*
X115342082Y-67307600D01*
X115342082Y-67307600D02*
X115384940Y-67393314D01*
X115127797Y-66064742D02*
X115127797Y-66493314D01*
X115127797Y-66493314D02*
X115556368Y-66536171D01*
X115556368Y-66536171D02*
X115513511Y-66493314D01*
X115513511Y-66493314D02*
X115470654Y-66407600D01*
X115470654Y-66407600D02*
X115470654Y-66193314D01*
X115470654Y-66193314D02*
X115513511Y-66107600D01*
X115513511Y-66107600D02*
X115556368Y-66064742D01*
X115556368Y-66064742D02*
X115642082Y-66021885D01*
X115642082Y-66021885D02*
X115856368Y-66021885D01*
X115856368Y-66021885D02*
X115942082Y-66064742D01*
X115942082Y-66064742D02*
X115984940Y-66107600D01*
X115984940Y-66107600D02*
X116027797Y-66193314D01*
X116027797Y-66193314D02*
X116027797Y-66407600D01*
X116027797Y-66407600D02*
X115984940Y-66493314D01*
X115984940Y-66493314D02*
X115942082Y-66536171D01*
X107676228Y-71933397D02*
X107376228Y-71504825D01*
X107161942Y-71933397D02*
X107161942Y-71033397D01*
X107161942Y-71033397D02*
X107504799Y-71033397D01*
X107504799Y-71033397D02*
X107590514Y-71076254D01*
X107590514Y-71076254D02*
X107633371Y-71119111D01*
X107633371Y-71119111D02*
X107676228Y-71204825D01*
X107676228Y-71204825D02*
X107676228Y-71333397D01*
X107676228Y-71333397D02*
X107633371Y-71419111D01*
X107633371Y-71419111D02*
X107590514Y-71461968D01*
X107590514Y-71461968D02*
X107504799Y-71504825D01*
X107504799Y-71504825D02*
X107161942Y-71504825D01*
X108533371Y-71933397D02*
X108019085Y-71933397D01*
X108276228Y-71933397D02*
X108276228Y-71033397D01*
X108276228Y-71033397D02*
X108190514Y-71161968D01*
X108190514Y-71161968D02*
X108104799Y-71247682D01*
X108104799Y-71247682D02*
X108019085Y-71290540D01*
X108876228Y-71119111D02*
X108919085Y-71076254D01*
X108919085Y-71076254D02*
X109004800Y-71033397D01*
X109004800Y-71033397D02*
X109219085Y-71033397D01*
X109219085Y-71033397D02*
X109304800Y-71076254D01*
X109304800Y-71076254D02*
X109347657Y-71119111D01*
X109347657Y-71119111D02*
X109390514Y-71204825D01*
X109390514Y-71204825D02*
X109390514Y-71290540D01*
X109390514Y-71290540D02*
X109347657Y-71419111D01*
X109347657Y-71419111D02*
X108833371Y-71933397D01*
X108833371Y-71933397D02*
X109390514Y-71933397D01*
D10*
X139543019Y-106852933D02*
X140257304Y-106852933D01*
X140257304Y-106852933D02*
X140400161Y-106900552D01*
X140400161Y-106900552D02*
X140495400Y-106995790D01*
X140495400Y-106995790D02*
X140543019Y-107138647D01*
X140543019Y-107138647D02*
X140543019Y-107233885D01*
X140543019Y-106376742D02*
X139543019Y-106376742D01*
X139543019Y-106376742D02*
X139543019Y-105995790D01*
X139543019Y-105995790D02*
X139590638Y-105900552D01*
X139590638Y-105900552D02*
X139638257Y-105852933D01*
X139638257Y-105852933D02*
X139733495Y-105805314D01*
X139733495Y-105805314D02*
X139876352Y-105805314D01*
X139876352Y-105805314D02*
X139971590Y-105852933D01*
X139971590Y-105852933D02*
X140019209Y-105900552D01*
X140019209Y-105900552D02*
X140066828Y-105995790D01*
X140066828Y-105995790D02*
X140066828Y-106376742D01*
X140543019Y-104852933D02*
X140543019Y-105424361D01*
X140543019Y-105138647D02*
X139543019Y-105138647D01*
X139543019Y-105138647D02*
X139685876Y-105233885D01*
X139685876Y-105233885D02*
X139781114Y-105329123D01*
X139781114Y-105329123D02*
X139828733Y-105424361D01*
D11*
X117582228Y-59858882D02*
X117539371Y-59901740D01*
X117539371Y-59901740D02*
X117410799Y-59944597D01*
X117410799Y-59944597D02*
X117325085Y-59944597D01*
X117325085Y-59944597D02*
X117196514Y-59901740D01*
X117196514Y-59901740D02*
X117110799Y-59816025D01*
X117110799Y-59816025D02*
X117067942Y-59730311D01*
X117067942Y-59730311D02*
X117025085Y-59558882D01*
X117025085Y-59558882D02*
X117025085Y-59430311D01*
X117025085Y-59430311D02*
X117067942Y-59258882D01*
X117067942Y-59258882D02*
X117110799Y-59173168D01*
X117110799Y-59173168D02*
X117196514Y-59087454D01*
X117196514Y-59087454D02*
X117325085Y-59044597D01*
X117325085Y-59044597D02*
X117410799Y-59044597D01*
X117410799Y-59044597D02*
X117539371Y-59087454D01*
X117539371Y-59087454D02*
X117582228Y-59130311D01*
X118439371Y-59944597D02*
X117925085Y-59944597D01*
X118182228Y-59944597D02*
X118182228Y-59044597D01*
X118182228Y-59044597D02*
X118096514Y-59173168D01*
X118096514Y-59173168D02*
X118010799Y-59258882D01*
X118010799Y-59258882D02*
X117925085Y-59301740D01*
X118739371Y-59044597D02*
X119296514Y-59044597D01*
X119296514Y-59044597D02*
X118996514Y-59387454D01*
X118996514Y-59387454D02*
X119125085Y-59387454D01*
X119125085Y-59387454D02*
X119210800Y-59430311D01*
X119210800Y-59430311D02*
X119253657Y-59473168D01*
X119253657Y-59473168D02*
X119296514Y-59558882D01*
X119296514Y-59558882D02*
X119296514Y-59773168D01*
X119296514Y-59773168D02*
X119253657Y-59858882D01*
X119253657Y-59858882D02*
X119210800Y-59901740D01*
X119210800Y-59901740D02*
X119125085Y-59944597D01*
X119125085Y-59944597D02*
X118867942Y-59944597D01*
X118867942Y-59944597D02*
X118782228Y-59901740D01*
X118782228Y-59901740D02*
X118739371Y-59858882D01*
X104816882Y-69717371D02*
X104859740Y-69760228D01*
X104859740Y-69760228D02*
X104902597Y-69888800D01*
X104902597Y-69888800D02*
X104902597Y-69974514D01*
X104902597Y-69974514D02*
X104859740Y-70103085D01*
X104859740Y-70103085D02*
X104774025Y-70188800D01*
X104774025Y-70188800D02*
X104688311Y-70231657D01*
X104688311Y-70231657D02*
X104516882Y-70274514D01*
X104516882Y-70274514D02*
X104388311Y-70274514D01*
X104388311Y-70274514D02*
X104216882Y-70231657D01*
X104216882Y-70231657D02*
X104131168Y-70188800D01*
X104131168Y-70188800D02*
X104045454Y-70103085D01*
X104045454Y-70103085D02*
X104002597Y-69974514D01*
X104002597Y-69974514D02*
X104002597Y-69888800D01*
X104002597Y-69888800D02*
X104045454Y-69760228D01*
X104045454Y-69760228D02*
X104088311Y-69717371D01*
X104902597Y-68860228D02*
X104902597Y-69374514D01*
X104902597Y-69117371D02*
X104002597Y-69117371D01*
X104002597Y-69117371D02*
X104131168Y-69203085D01*
X104131168Y-69203085D02*
X104216882Y-69288800D01*
X104216882Y-69288800D02*
X104259740Y-69374514D01*
X104902597Y-68431657D02*
X104902597Y-68260228D01*
X104902597Y-68260228D02*
X104859740Y-68174514D01*
X104859740Y-68174514D02*
X104816882Y-68131657D01*
X104816882Y-68131657D02*
X104688311Y-68045942D01*
X104688311Y-68045942D02*
X104516882Y-68003085D01*
X104516882Y-68003085D02*
X104174025Y-68003085D01*
X104174025Y-68003085D02*
X104088311Y-68045942D01*
X104088311Y-68045942D02*
X104045454Y-68088800D01*
X104045454Y-68088800D02*
X104002597Y-68174514D01*
X104002597Y-68174514D02*
X104002597Y-68345942D01*
X104002597Y-68345942D02*
X104045454Y-68431657D01*
X104045454Y-68431657D02*
X104088311Y-68474514D01*
X104088311Y-68474514D02*
X104174025Y-68517371D01*
X104174025Y-68517371D02*
X104388311Y-68517371D01*
X104388311Y-68517371D02*
X104474025Y-68474514D01*
X104474025Y-68474514D02*
X104516882Y-68431657D01*
X104516882Y-68431657D02*
X104559740Y-68345942D01*
X104559740Y-68345942D02*
X104559740Y-68174514D01*
X104559740Y-68174514D02*
X104516882Y-68088800D01*
X104516882Y-68088800D02*
X104474025Y-68045942D01*
X104474025Y-68045942D02*
X104388311Y-68003085D01*
D10*
X124328133Y-67111380D02*
X124328133Y-66397095D01*
X124328133Y-66397095D02*
X124375752Y-66254238D01*
X124375752Y-66254238D02*
X124470990Y-66159000D01*
X124470990Y-66159000D02*
X124613847Y-66111380D01*
X124613847Y-66111380D02*
X124709085Y-66111380D01*
X123851942Y-66111380D02*
X123851942Y-67111380D01*
X123851942Y-67111380D02*
X123470990Y-67111380D01*
X123470990Y-67111380D02*
X123375752Y-67063761D01*
X123375752Y-67063761D02*
X123328133Y-67016142D01*
X123328133Y-67016142D02*
X123280514Y-66920904D01*
X123280514Y-66920904D02*
X123280514Y-66778047D01*
X123280514Y-66778047D02*
X123328133Y-66682809D01*
X123328133Y-66682809D02*
X123375752Y-66635190D01*
X123375752Y-66635190D02*
X123470990Y-66587571D01*
X123470990Y-66587571D02*
X123851942Y-66587571D01*
X122947180Y-67111380D02*
X122328133Y-67111380D01*
X122328133Y-67111380D02*
X122661466Y-66730428D01*
X122661466Y-66730428D02*
X122518609Y-66730428D01*
X122518609Y-66730428D02*
X122423371Y-66682809D01*
X122423371Y-66682809D02*
X122375752Y-66635190D01*
X122375752Y-66635190D02*
X122328133Y-66539952D01*
X122328133Y-66539952D02*
X122328133Y-66301857D01*
X122328133Y-66301857D02*
X122375752Y-66206619D01*
X122375752Y-66206619D02*
X122423371Y-66159000D01*
X122423371Y-66159000D02*
X122518609Y-66111380D01*
X122518609Y-66111380D02*
X122804323Y-66111380D01*
X122804323Y-66111380D02*
X122899561Y-66159000D01*
X122899561Y-66159000D02*
X122947180Y-66206619D01*
D11*
X141124800Y-116145282D02*
X141081943Y-116188140D01*
X141081943Y-116188140D02*
X140953371Y-116230997D01*
X140953371Y-116230997D02*
X140867657Y-116230997D01*
X140867657Y-116230997D02*
X140739086Y-116188140D01*
X140739086Y-116188140D02*
X140653371Y-116102425D01*
X140653371Y-116102425D02*
X140610514Y-116016711D01*
X140610514Y-116016711D02*
X140567657Y-115845282D01*
X140567657Y-115845282D02*
X140567657Y-115716711D01*
X140567657Y-115716711D02*
X140610514Y-115545282D01*
X140610514Y-115545282D02*
X140653371Y-115459568D01*
X140653371Y-115459568D02*
X140739086Y-115373854D01*
X140739086Y-115373854D02*
X140867657Y-115330997D01*
X140867657Y-115330997D02*
X140953371Y-115330997D01*
X140953371Y-115330997D02*
X141081943Y-115373854D01*
X141081943Y-115373854D02*
X141124800Y-115416711D01*
X141424800Y-115330997D02*
X141981943Y-115330997D01*
X141981943Y-115330997D02*
X141681943Y-115673854D01*
X141681943Y-115673854D02*
X141810514Y-115673854D01*
X141810514Y-115673854D02*
X141896229Y-115716711D01*
X141896229Y-115716711D02*
X141939086Y-115759568D01*
X141939086Y-115759568D02*
X141981943Y-115845282D01*
X141981943Y-115845282D02*
X141981943Y-116059568D01*
X141981943Y-116059568D02*
X141939086Y-116145282D01*
X141939086Y-116145282D02*
X141896229Y-116188140D01*
X141896229Y-116188140D02*
X141810514Y-116230997D01*
X141810514Y-116230997D02*
X141553371Y-116230997D01*
X141553371Y-116230997D02*
X141467657Y-116188140D01*
X141467657Y-116188140D02*
X141424800Y-116145282D01*
X132844400Y-66243797D02*
X132544400Y-65815225D01*
X132330114Y-66243797D02*
X132330114Y-65343797D01*
X132330114Y-65343797D02*
X132672971Y-65343797D01*
X132672971Y-65343797D02*
X132758686Y-65386654D01*
X132758686Y-65386654D02*
X132801543Y-65429511D01*
X132801543Y-65429511D02*
X132844400Y-65515225D01*
X132844400Y-65515225D02*
X132844400Y-65643797D01*
X132844400Y-65643797D02*
X132801543Y-65729511D01*
X132801543Y-65729511D02*
X132758686Y-65772368D01*
X132758686Y-65772368D02*
X132672971Y-65815225D01*
X132672971Y-65815225D02*
X132330114Y-65815225D01*
X133615829Y-65343797D02*
X133444400Y-65343797D01*
X133444400Y-65343797D02*
X133358686Y-65386654D01*
X133358686Y-65386654D02*
X133315829Y-65429511D01*
X133315829Y-65429511D02*
X133230114Y-65558082D01*
X133230114Y-65558082D02*
X133187257Y-65729511D01*
X133187257Y-65729511D02*
X133187257Y-66072368D01*
X133187257Y-66072368D02*
X133230114Y-66158082D01*
X133230114Y-66158082D02*
X133272971Y-66200940D01*
X133272971Y-66200940D02*
X133358686Y-66243797D01*
X133358686Y-66243797D02*
X133530114Y-66243797D01*
X133530114Y-66243797D02*
X133615829Y-66200940D01*
X133615829Y-66200940D02*
X133658686Y-66158082D01*
X133658686Y-66158082D02*
X133701543Y-66072368D01*
X133701543Y-66072368D02*
X133701543Y-65858082D01*
X133701543Y-65858082D02*
X133658686Y-65772368D01*
X133658686Y-65772368D02*
X133615829Y-65729511D01*
X133615829Y-65729511D02*
X133530114Y-65686654D01*
X133530114Y-65686654D02*
X133358686Y-65686654D01*
X133358686Y-65686654D02*
X133272971Y-65729511D01*
X133272971Y-65729511D02*
X133230114Y-65772368D01*
X133230114Y-65772368D02*
X133187257Y-65858082D01*
X125187682Y-71523999D02*
X125230540Y-71566856D01*
X125230540Y-71566856D02*
X125273397Y-71695428D01*
X125273397Y-71695428D02*
X125273397Y-71781142D01*
X125273397Y-71781142D02*
X125230540Y-71909713D01*
X125230540Y-71909713D02*
X125144825Y-71995428D01*
X125144825Y-71995428D02*
X125059111Y-72038285D01*
X125059111Y-72038285D02*
X124887682Y-72081142D01*
X124887682Y-72081142D02*
X124759111Y-72081142D01*
X124759111Y-72081142D02*
X124587682Y-72038285D01*
X124587682Y-72038285D02*
X124501968Y-71995428D01*
X124501968Y-71995428D02*
X124416254Y-71909713D01*
X124416254Y-71909713D02*
X124373397Y-71781142D01*
X124373397Y-71781142D02*
X124373397Y-71695428D01*
X124373397Y-71695428D02*
X124416254Y-71566856D01*
X124416254Y-71566856D02*
X124459111Y-71523999D01*
X124373397Y-71223999D02*
X124373397Y-70623999D01*
X124373397Y-70623999D02*
X125273397Y-71009713D01*
X126116628Y-71222197D02*
X125816628Y-70793625D01*
X125602342Y-71222197D02*
X125602342Y-70322197D01*
X125602342Y-70322197D02*
X125945199Y-70322197D01*
X125945199Y-70322197D02*
X126030914Y-70365054D01*
X126030914Y-70365054D02*
X126073771Y-70407911D01*
X126073771Y-70407911D02*
X126116628Y-70493625D01*
X126116628Y-70493625D02*
X126116628Y-70622197D01*
X126116628Y-70622197D02*
X126073771Y-70707911D01*
X126073771Y-70707911D02*
X126030914Y-70750768D01*
X126030914Y-70750768D02*
X125945199Y-70793625D01*
X125945199Y-70793625D02*
X125602342Y-70793625D01*
X126973771Y-71222197D02*
X126459485Y-71222197D01*
X126716628Y-71222197D02*
X126716628Y-70322197D01*
X126716628Y-70322197D02*
X126630914Y-70450768D01*
X126630914Y-70450768D02*
X126545199Y-70536482D01*
X126545199Y-70536482D02*
X126459485Y-70579340D01*
X127530914Y-70322197D02*
X127616628Y-70322197D01*
X127616628Y-70322197D02*
X127702342Y-70365054D01*
X127702342Y-70365054D02*
X127745200Y-70407911D01*
X127745200Y-70407911D02*
X127788057Y-70493625D01*
X127788057Y-70493625D02*
X127830914Y-70665054D01*
X127830914Y-70665054D02*
X127830914Y-70879340D01*
X127830914Y-70879340D02*
X127788057Y-71050768D01*
X127788057Y-71050768D02*
X127745200Y-71136482D01*
X127745200Y-71136482D02*
X127702342Y-71179340D01*
X127702342Y-71179340D02*
X127616628Y-71222197D01*
X127616628Y-71222197D02*
X127530914Y-71222197D01*
X127530914Y-71222197D02*
X127445200Y-71179340D01*
X127445200Y-71179340D02*
X127402342Y-71136482D01*
X127402342Y-71136482D02*
X127359485Y-71050768D01*
X127359485Y-71050768D02*
X127316628Y-70879340D01*
X127316628Y-70879340D02*
X127316628Y-70665054D01*
X127316628Y-70665054D02*
X127359485Y-70493625D01*
X127359485Y-70493625D02*
X127402342Y-70407911D01*
X127402342Y-70407911D02*
X127445200Y-70365054D01*
X127445200Y-70365054D02*
X127530914Y-70322197D01*
X142344000Y-77673797D02*
X142044000Y-77245225D01*
X141829714Y-77673797D02*
X141829714Y-76773797D01*
X141829714Y-76773797D02*
X142172571Y-76773797D01*
X142172571Y-76773797D02*
X142258286Y-76816654D01*
X142258286Y-76816654D02*
X142301143Y-76859511D01*
X142301143Y-76859511D02*
X142344000Y-76945225D01*
X142344000Y-76945225D02*
X142344000Y-77073797D01*
X142344000Y-77073797D02*
X142301143Y-77159511D01*
X142301143Y-77159511D02*
X142258286Y-77202368D01*
X142258286Y-77202368D02*
X142172571Y-77245225D01*
X142172571Y-77245225D02*
X141829714Y-77245225D01*
X143158286Y-76773797D02*
X142729714Y-76773797D01*
X142729714Y-76773797D02*
X142686857Y-77202368D01*
X142686857Y-77202368D02*
X142729714Y-77159511D01*
X142729714Y-77159511D02*
X142815429Y-77116654D01*
X142815429Y-77116654D02*
X143029714Y-77116654D01*
X143029714Y-77116654D02*
X143115429Y-77159511D01*
X143115429Y-77159511D02*
X143158286Y-77202368D01*
X143158286Y-77202368D02*
X143201143Y-77288082D01*
X143201143Y-77288082D02*
X143201143Y-77502368D01*
X143201143Y-77502368D02*
X143158286Y-77588082D01*
X143158286Y-77588082D02*
X143115429Y-77630940D01*
X143115429Y-77630940D02*
X143029714Y-77673797D01*
X143029714Y-77673797D02*
X142815429Y-77673797D01*
X142815429Y-77673797D02*
X142729714Y-77630940D01*
X142729714Y-77630940D02*
X142686857Y-77588082D01*
X109070000Y-66345397D02*
X108770000Y-65916825D01*
X108555714Y-66345397D02*
X108555714Y-65445397D01*
X108555714Y-65445397D02*
X108898571Y-65445397D01*
X108898571Y-65445397D02*
X108984286Y-65488254D01*
X108984286Y-65488254D02*
X109027143Y-65531111D01*
X109027143Y-65531111D02*
X109070000Y-65616825D01*
X109070000Y-65616825D02*
X109070000Y-65745397D01*
X109070000Y-65745397D02*
X109027143Y-65831111D01*
X109027143Y-65831111D02*
X108984286Y-65873968D01*
X108984286Y-65873968D02*
X108898571Y-65916825D01*
X108898571Y-65916825D02*
X108555714Y-65916825D01*
X109498571Y-66345397D02*
X109670000Y-66345397D01*
X109670000Y-66345397D02*
X109755714Y-66302540D01*
X109755714Y-66302540D02*
X109798571Y-66259682D01*
X109798571Y-66259682D02*
X109884286Y-66131111D01*
X109884286Y-66131111D02*
X109927143Y-65959682D01*
X109927143Y-65959682D02*
X109927143Y-65616825D01*
X109927143Y-65616825D02*
X109884286Y-65531111D01*
X109884286Y-65531111D02*
X109841429Y-65488254D01*
X109841429Y-65488254D02*
X109755714Y-65445397D01*
X109755714Y-65445397D02*
X109584286Y-65445397D01*
X109584286Y-65445397D02*
X109498571Y-65488254D01*
X109498571Y-65488254D02*
X109455714Y-65531111D01*
X109455714Y-65531111D02*
X109412857Y-65616825D01*
X109412857Y-65616825D02*
X109412857Y-65831111D01*
X109412857Y-65831111D02*
X109455714Y-65916825D01*
X109455714Y-65916825D02*
X109498571Y-65959682D01*
X109498571Y-65959682D02*
X109584286Y-66002540D01*
X109584286Y-66002540D02*
X109755714Y-66002540D01*
X109755714Y-66002540D02*
X109841429Y-65959682D01*
X109841429Y-65959682D02*
X109884286Y-65916825D01*
X109884286Y-65916825D02*
X109927143Y-65831111D01*
X106086882Y-69158571D02*
X106129740Y-69201428D01*
X106129740Y-69201428D02*
X106172597Y-69330000D01*
X106172597Y-69330000D02*
X106172597Y-69415714D01*
X106172597Y-69415714D02*
X106129740Y-69544285D01*
X106129740Y-69544285D02*
X106044025Y-69630000D01*
X106044025Y-69630000D02*
X105958311Y-69672857D01*
X105958311Y-69672857D02*
X105786882Y-69715714D01*
X105786882Y-69715714D02*
X105658311Y-69715714D01*
X105658311Y-69715714D02*
X105486882Y-69672857D01*
X105486882Y-69672857D02*
X105401168Y-69630000D01*
X105401168Y-69630000D02*
X105315454Y-69544285D01*
X105315454Y-69544285D02*
X105272597Y-69415714D01*
X105272597Y-69415714D02*
X105272597Y-69330000D01*
X105272597Y-69330000D02*
X105315454Y-69201428D01*
X105315454Y-69201428D02*
X105358311Y-69158571D01*
X105358311Y-68815714D02*
X105315454Y-68772857D01*
X105315454Y-68772857D02*
X105272597Y-68687143D01*
X105272597Y-68687143D02*
X105272597Y-68472857D01*
X105272597Y-68472857D02*
X105315454Y-68387143D01*
X105315454Y-68387143D02*
X105358311Y-68344285D01*
X105358311Y-68344285D02*
X105444025Y-68301428D01*
X105444025Y-68301428D02*
X105529740Y-68301428D01*
X105529740Y-68301428D02*
X105658311Y-68344285D01*
X105658311Y-68344285D02*
X106172597Y-68858571D01*
X106172597Y-68858571D02*
X106172597Y-68301428D01*
X106172597Y-67444285D02*
X106172597Y-67958571D01*
X106172597Y-67701428D02*
X105272597Y-67701428D01*
X105272597Y-67701428D02*
X105401168Y-67787142D01*
X105401168Y-67787142D02*
X105486882Y-67872857D01*
X105486882Y-67872857D02*
X105529740Y-67958571D01*
X127575282Y-69361771D02*
X127618140Y-69404628D01*
X127618140Y-69404628D02*
X127660997Y-69533200D01*
X127660997Y-69533200D02*
X127660997Y-69618914D01*
X127660997Y-69618914D02*
X127618140Y-69747485D01*
X127618140Y-69747485D02*
X127532425Y-69833200D01*
X127532425Y-69833200D02*
X127446711Y-69876057D01*
X127446711Y-69876057D02*
X127275282Y-69918914D01*
X127275282Y-69918914D02*
X127146711Y-69918914D01*
X127146711Y-69918914D02*
X126975282Y-69876057D01*
X126975282Y-69876057D02*
X126889568Y-69833200D01*
X126889568Y-69833200D02*
X126803854Y-69747485D01*
X126803854Y-69747485D02*
X126760997Y-69618914D01*
X126760997Y-69618914D02*
X126760997Y-69533200D01*
X126760997Y-69533200D02*
X126803854Y-69404628D01*
X126803854Y-69404628D02*
X126846711Y-69361771D01*
X127660997Y-68504628D02*
X127660997Y-69018914D01*
X127660997Y-68761771D02*
X126760997Y-68761771D01*
X126760997Y-68761771D02*
X126889568Y-68847485D01*
X126889568Y-68847485D02*
X126975282Y-68933200D01*
X126975282Y-68933200D02*
X127018140Y-69018914D01*
X127146711Y-67990342D02*
X127103854Y-68076057D01*
X127103854Y-68076057D02*
X127060997Y-68118914D01*
X127060997Y-68118914D02*
X126975282Y-68161771D01*
X126975282Y-68161771D02*
X126932425Y-68161771D01*
X126932425Y-68161771D02*
X126846711Y-68118914D01*
X126846711Y-68118914D02*
X126803854Y-68076057D01*
X126803854Y-68076057D02*
X126760997Y-67990342D01*
X126760997Y-67990342D02*
X126760997Y-67818914D01*
X126760997Y-67818914D02*
X126803854Y-67733200D01*
X126803854Y-67733200D02*
X126846711Y-67690342D01*
X126846711Y-67690342D02*
X126932425Y-67647485D01*
X126932425Y-67647485D02*
X126975282Y-67647485D01*
X126975282Y-67647485D02*
X127060997Y-67690342D01*
X127060997Y-67690342D02*
X127103854Y-67733200D01*
X127103854Y-67733200D02*
X127146711Y-67818914D01*
X127146711Y-67818914D02*
X127146711Y-67990342D01*
X127146711Y-67990342D02*
X127189568Y-68076057D01*
X127189568Y-68076057D02*
X127232425Y-68118914D01*
X127232425Y-68118914D02*
X127318140Y-68161771D01*
X127318140Y-68161771D02*
X127489568Y-68161771D01*
X127489568Y-68161771D02*
X127575282Y-68118914D01*
X127575282Y-68118914D02*
X127618140Y-68076057D01*
X127618140Y-68076057D02*
X127660997Y-67990342D01*
X127660997Y-67990342D02*
X127660997Y-67818914D01*
X127660997Y-67818914D02*
X127618140Y-67733200D01*
X127618140Y-67733200D02*
X127575282Y-67690342D01*
X127575282Y-67690342D02*
X127489568Y-67647485D01*
X127489568Y-67647485D02*
X127318140Y-67647485D01*
X127318140Y-67647485D02*
X127232425Y-67690342D01*
X127232425Y-67690342D02*
X127189568Y-67733200D01*
X127189568Y-67733200D02*
X127146711Y-67818914D01*
D10*
X112898133Y-77541380D02*
X112898133Y-76827095D01*
X112898133Y-76827095D02*
X112945752Y-76684238D01*
X112945752Y-76684238D02*
X113040990Y-76589000D01*
X113040990Y-76589000D02*
X113183847Y-76541380D01*
X113183847Y-76541380D02*
X113279085Y-76541380D01*
X112421942Y-76541380D02*
X112421942Y-77541380D01*
X112421942Y-77541380D02*
X112040990Y-77541380D01*
X112040990Y-77541380D02*
X111945752Y-77493761D01*
X111945752Y-77493761D02*
X111898133Y-77446142D01*
X111898133Y-77446142D02*
X111850514Y-77350904D01*
X111850514Y-77350904D02*
X111850514Y-77208047D01*
X111850514Y-77208047D02*
X111898133Y-77112809D01*
X111898133Y-77112809D02*
X111945752Y-77065190D01*
X111945752Y-77065190D02*
X112040990Y-77017571D01*
X112040990Y-77017571D02*
X112421942Y-77017571D01*
X110993371Y-77208047D02*
X110993371Y-76541380D01*
X111231466Y-77589000D02*
X111469561Y-76874714D01*
X111469561Y-76874714D02*
X110850514Y-76874714D01*
D11*
X123917682Y-71473199D02*
X123960540Y-71516056D01*
X123960540Y-71516056D02*
X124003397Y-71644628D01*
X124003397Y-71644628D02*
X124003397Y-71730342D01*
X124003397Y-71730342D02*
X123960540Y-71858913D01*
X123960540Y-71858913D02*
X123874825Y-71944628D01*
X123874825Y-71944628D02*
X123789111Y-71987485D01*
X123789111Y-71987485D02*
X123617682Y-72030342D01*
X123617682Y-72030342D02*
X123489111Y-72030342D01*
X123489111Y-72030342D02*
X123317682Y-71987485D01*
X123317682Y-71987485D02*
X123231968Y-71944628D01*
X123231968Y-71944628D02*
X123146254Y-71858913D01*
X123146254Y-71858913D02*
X123103397Y-71730342D01*
X123103397Y-71730342D02*
X123103397Y-71644628D01*
X123103397Y-71644628D02*
X123146254Y-71516056D01*
X123146254Y-71516056D02*
X123189111Y-71473199D01*
X124003397Y-71044628D02*
X124003397Y-70873199D01*
X124003397Y-70873199D02*
X123960540Y-70787485D01*
X123960540Y-70787485D02*
X123917682Y-70744628D01*
X123917682Y-70744628D02*
X123789111Y-70658913D01*
X123789111Y-70658913D02*
X123617682Y-70616056D01*
X123617682Y-70616056D02*
X123274825Y-70616056D01*
X123274825Y-70616056D02*
X123189111Y-70658913D01*
X123189111Y-70658913D02*
X123146254Y-70701771D01*
X123146254Y-70701771D02*
X123103397Y-70787485D01*
X123103397Y-70787485D02*
X123103397Y-70958913D01*
X123103397Y-70958913D02*
X123146254Y-71044628D01*
X123146254Y-71044628D02*
X123189111Y-71087485D01*
X123189111Y-71087485D02*
X123274825Y-71130342D01*
X123274825Y-71130342D02*
X123489111Y-71130342D01*
X123489111Y-71130342D02*
X123574825Y-71087485D01*
X123574825Y-71087485D02*
X123617682Y-71044628D01*
X123617682Y-71044628D02*
X123660540Y-70958913D01*
X123660540Y-70958913D02*
X123660540Y-70787485D01*
X123660540Y-70787485D02*
X123617682Y-70701771D01*
X123617682Y-70701771D02*
X123574825Y-70658913D01*
X123574825Y-70658913D02*
X123489111Y-70616056D01*
X128402628Y-66259682D02*
X128359771Y-66302540D01*
X128359771Y-66302540D02*
X128231199Y-66345397D01*
X128231199Y-66345397D02*
X128145485Y-66345397D01*
X128145485Y-66345397D02*
X128016914Y-66302540D01*
X128016914Y-66302540D02*
X127931199Y-66216825D01*
X127931199Y-66216825D02*
X127888342Y-66131111D01*
X127888342Y-66131111D02*
X127845485Y-65959682D01*
X127845485Y-65959682D02*
X127845485Y-65831111D01*
X127845485Y-65831111D02*
X127888342Y-65659682D01*
X127888342Y-65659682D02*
X127931199Y-65573968D01*
X127931199Y-65573968D02*
X128016914Y-65488254D01*
X128016914Y-65488254D02*
X128145485Y-65445397D01*
X128145485Y-65445397D02*
X128231199Y-65445397D01*
X128231199Y-65445397D02*
X128359771Y-65488254D01*
X128359771Y-65488254D02*
X128402628Y-65531111D01*
X129259771Y-66345397D02*
X128745485Y-66345397D01*
X129002628Y-66345397D02*
X129002628Y-65445397D01*
X129002628Y-65445397D02*
X128916914Y-65573968D01*
X128916914Y-65573968D02*
X128831199Y-65659682D01*
X128831199Y-65659682D02*
X128745485Y-65702540D01*
X129559771Y-65445397D02*
X130159771Y-65445397D01*
X130159771Y-65445397D02*
X129774057Y-66345397D01*
X97638197Y-77591371D02*
X97209625Y-77891371D01*
X97638197Y-78105657D02*
X96738197Y-78105657D01*
X96738197Y-78105657D02*
X96738197Y-77762800D01*
X96738197Y-77762800D02*
X96781054Y-77677085D01*
X96781054Y-77677085D02*
X96823911Y-77634228D01*
X96823911Y-77634228D02*
X96909625Y-77591371D01*
X96909625Y-77591371D02*
X97038197Y-77591371D01*
X97038197Y-77591371D02*
X97123911Y-77634228D01*
X97123911Y-77634228D02*
X97166768Y-77677085D01*
X97166768Y-77677085D02*
X97209625Y-77762800D01*
X97209625Y-77762800D02*
X97209625Y-78105657D01*
X97638197Y-76734228D02*
X97638197Y-77248514D01*
X97638197Y-76991371D02*
X96738197Y-76991371D01*
X96738197Y-76991371D02*
X96866768Y-77077085D01*
X96866768Y-77077085D02*
X96952482Y-77162800D01*
X96952482Y-77162800D02*
X96995340Y-77248514D01*
X96738197Y-76434228D02*
X96738197Y-75877085D01*
X96738197Y-75877085D02*
X97081054Y-76177085D01*
X97081054Y-76177085D02*
X97081054Y-76048514D01*
X97081054Y-76048514D02*
X97123911Y-75962800D01*
X97123911Y-75962800D02*
X97166768Y-75919942D01*
X97166768Y-75919942D02*
X97252482Y-75877085D01*
X97252482Y-75877085D02*
X97466768Y-75877085D01*
X97466768Y-75877085D02*
X97552482Y-75919942D01*
X97552482Y-75919942D02*
X97595340Y-75962800D01*
X97595340Y-75962800D02*
X97638197Y-76048514D01*
X97638197Y-76048514D02*
X97638197Y-76305657D01*
X97638197Y-76305657D02*
X97595340Y-76391371D01*
X97595340Y-76391371D02*
X97552482Y-76434228D01*
X96687397Y-80441714D02*
X97415968Y-80441714D01*
X97415968Y-80441714D02*
X97501682Y-80398857D01*
X97501682Y-80398857D02*
X97544540Y-80356000D01*
X97544540Y-80356000D02*
X97587397Y-80270285D01*
X97587397Y-80270285D02*
X97587397Y-80098857D01*
X97587397Y-80098857D02*
X97544540Y-80013142D01*
X97544540Y-80013142D02*
X97501682Y-79970285D01*
X97501682Y-79970285D02*
X97415968Y-79927428D01*
X97415968Y-79927428D02*
X96687397Y-79927428D01*
X97587397Y-79027428D02*
X97587397Y-79541714D01*
X97587397Y-79284571D02*
X96687397Y-79284571D01*
X96687397Y-79284571D02*
X96815968Y-79370285D01*
X96815968Y-79370285D02*
X96901682Y-79456000D01*
X96901682Y-79456000D02*
X96944540Y-79541714D01*
X139600800Y-87071797D02*
X139300800Y-86643225D01*
X139086514Y-87071797D02*
X139086514Y-86171797D01*
X139086514Y-86171797D02*
X139429371Y-86171797D01*
X139429371Y-86171797D02*
X139515086Y-86214654D01*
X139515086Y-86214654D02*
X139557943Y-86257511D01*
X139557943Y-86257511D02*
X139600800Y-86343225D01*
X139600800Y-86343225D02*
X139600800Y-86471797D01*
X139600800Y-86471797D02*
X139557943Y-86557511D01*
X139557943Y-86557511D02*
X139515086Y-86600368D01*
X139515086Y-86600368D02*
X139429371Y-86643225D01*
X139429371Y-86643225D02*
X139086514Y-86643225D01*
X139943657Y-86257511D02*
X139986514Y-86214654D01*
X139986514Y-86214654D02*
X140072229Y-86171797D01*
X140072229Y-86171797D02*
X140286514Y-86171797D01*
X140286514Y-86171797D02*
X140372229Y-86214654D01*
X140372229Y-86214654D02*
X140415086Y-86257511D01*
X140415086Y-86257511D02*
X140457943Y-86343225D01*
X140457943Y-86343225D02*
X140457943Y-86428940D01*
X140457943Y-86428940D02*
X140415086Y-86557511D01*
X140415086Y-86557511D02*
X139900800Y-87071797D01*
X139900800Y-87071797D02*
X140457943Y-87071797D01*
X120193397Y-67888571D02*
X119764825Y-68188571D01*
X120193397Y-68402857D02*
X119293397Y-68402857D01*
X119293397Y-68402857D02*
X119293397Y-68060000D01*
X119293397Y-68060000D02*
X119336254Y-67974285D01*
X119336254Y-67974285D02*
X119379111Y-67931428D01*
X119379111Y-67931428D02*
X119464825Y-67888571D01*
X119464825Y-67888571D02*
X119593397Y-67888571D01*
X119593397Y-67888571D02*
X119679111Y-67931428D01*
X119679111Y-67931428D02*
X119721968Y-67974285D01*
X119721968Y-67974285D02*
X119764825Y-68060000D01*
X119764825Y-68060000D02*
X119764825Y-68402857D01*
X120193397Y-67031428D02*
X120193397Y-67545714D01*
X120193397Y-67288571D02*
X119293397Y-67288571D01*
X119293397Y-67288571D02*
X119421968Y-67374285D01*
X119421968Y-67374285D02*
X119507682Y-67460000D01*
X119507682Y-67460000D02*
X119550540Y-67545714D01*
X120193397Y-66174285D02*
X120193397Y-66688571D01*
X120193397Y-66431428D02*
X119293397Y-66431428D01*
X119293397Y-66431428D02*
X119421968Y-66517142D01*
X119421968Y-66517142D02*
X119507682Y-66602857D01*
X119507682Y-66602857D02*
X119550540Y-66688571D01*
X138715028Y-66716882D02*
X138672171Y-66759740D01*
X138672171Y-66759740D02*
X138543599Y-66802597D01*
X138543599Y-66802597D02*
X138457885Y-66802597D01*
X138457885Y-66802597D02*
X138329314Y-66759740D01*
X138329314Y-66759740D02*
X138243599Y-66674025D01*
X138243599Y-66674025D02*
X138200742Y-66588311D01*
X138200742Y-66588311D02*
X138157885Y-66416882D01*
X138157885Y-66416882D02*
X138157885Y-66288311D01*
X138157885Y-66288311D02*
X138200742Y-66116882D01*
X138200742Y-66116882D02*
X138243599Y-66031168D01*
X138243599Y-66031168D02*
X138329314Y-65945454D01*
X138329314Y-65945454D02*
X138457885Y-65902597D01*
X138457885Y-65902597D02*
X138543599Y-65902597D01*
X138543599Y-65902597D02*
X138672171Y-65945454D01*
X138672171Y-65945454D02*
X138715028Y-65988311D01*
X139572171Y-66802597D02*
X139057885Y-66802597D01*
X139315028Y-66802597D02*
X139315028Y-65902597D01*
X139315028Y-65902597D02*
X139229314Y-66031168D01*
X139229314Y-66031168D02*
X139143599Y-66116882D01*
X139143599Y-66116882D02*
X139057885Y-66159740D01*
X140429314Y-66802597D02*
X139915028Y-66802597D01*
X140172171Y-66802597D02*
X140172171Y-65902597D01*
X140172171Y-65902597D02*
X140086457Y-66031168D01*
X140086457Y-66031168D02*
X140000742Y-66116882D01*
X140000742Y-66116882D02*
X139915028Y-66159740D01*
D12*
X98756666Y-71804819D02*
X98756666Y-72519104D01*
X98756666Y-72519104D02*
X98709047Y-72661961D01*
X98709047Y-72661961D02*
X98613809Y-72757200D01*
X98613809Y-72757200D02*
X98470952Y-72804819D01*
X98470952Y-72804819D02*
X98375714Y-72804819D01*
X99661428Y-72138152D02*
X99661428Y-72804819D01*
X99423333Y-71757200D02*
X99185238Y-72471485D01*
X99185238Y-72471485D02*
X99804285Y-72471485D01*
D11*
X106682400Y-66345397D02*
X106382400Y-65916825D01*
X106168114Y-66345397D02*
X106168114Y-65445397D01*
X106168114Y-65445397D02*
X106510971Y-65445397D01*
X106510971Y-65445397D02*
X106596686Y-65488254D01*
X106596686Y-65488254D02*
X106639543Y-65531111D01*
X106639543Y-65531111D02*
X106682400Y-65616825D01*
X106682400Y-65616825D02*
X106682400Y-65745397D01*
X106682400Y-65745397D02*
X106639543Y-65831111D01*
X106639543Y-65831111D02*
X106596686Y-65873968D01*
X106596686Y-65873968D02*
X106510971Y-65916825D01*
X106510971Y-65916825D02*
X106168114Y-65916825D01*
X107196686Y-65831111D02*
X107110971Y-65788254D01*
X107110971Y-65788254D02*
X107068114Y-65745397D01*
X107068114Y-65745397D02*
X107025257Y-65659682D01*
X107025257Y-65659682D02*
X107025257Y-65616825D01*
X107025257Y-65616825D02*
X107068114Y-65531111D01*
X107068114Y-65531111D02*
X107110971Y-65488254D01*
X107110971Y-65488254D02*
X107196686Y-65445397D01*
X107196686Y-65445397D02*
X107368114Y-65445397D01*
X107368114Y-65445397D02*
X107453829Y-65488254D01*
X107453829Y-65488254D02*
X107496686Y-65531111D01*
X107496686Y-65531111D02*
X107539543Y-65616825D01*
X107539543Y-65616825D02*
X107539543Y-65659682D01*
X107539543Y-65659682D02*
X107496686Y-65745397D01*
X107496686Y-65745397D02*
X107453829Y-65788254D01*
X107453829Y-65788254D02*
X107368114Y-65831111D01*
X107368114Y-65831111D02*
X107196686Y-65831111D01*
X107196686Y-65831111D02*
X107110971Y-65873968D01*
X107110971Y-65873968D02*
X107068114Y-65916825D01*
X107068114Y-65916825D02*
X107025257Y-66002540D01*
X107025257Y-66002540D02*
X107025257Y-66173968D01*
X107025257Y-66173968D02*
X107068114Y-66259682D01*
X107068114Y-66259682D02*
X107110971Y-66302540D01*
X107110971Y-66302540D02*
X107196686Y-66345397D01*
X107196686Y-66345397D02*
X107368114Y-66345397D01*
X107368114Y-66345397D02*
X107453829Y-66302540D01*
X107453829Y-66302540D02*
X107496686Y-66259682D01*
X107496686Y-66259682D02*
X107539543Y-66173968D01*
X107539543Y-66173968D02*
X107539543Y-66002540D01*
X107539543Y-66002540D02*
X107496686Y-65916825D01*
X107496686Y-65916825D02*
X107453829Y-65873968D01*
X107453829Y-65873968D02*
X107368114Y-65831111D01*
X146980882Y-111605199D02*
X147023740Y-111648056D01*
X147023740Y-111648056D02*
X147066597Y-111776628D01*
X147066597Y-111776628D02*
X147066597Y-111862342D01*
X147066597Y-111862342D02*
X147023740Y-111990913D01*
X147023740Y-111990913D02*
X146938025Y-112076628D01*
X146938025Y-112076628D02*
X146852311Y-112119485D01*
X146852311Y-112119485D02*
X146680882Y-112162342D01*
X146680882Y-112162342D02*
X146552311Y-112162342D01*
X146552311Y-112162342D02*
X146380882Y-112119485D01*
X146380882Y-112119485D02*
X146295168Y-112076628D01*
X146295168Y-112076628D02*
X146209454Y-111990913D01*
X146209454Y-111990913D02*
X146166597Y-111862342D01*
X146166597Y-111862342D02*
X146166597Y-111776628D01*
X146166597Y-111776628D02*
X146209454Y-111648056D01*
X146209454Y-111648056D02*
X146252311Y-111605199D01*
X147066597Y-110748056D02*
X147066597Y-111262342D01*
X147066597Y-111005199D02*
X146166597Y-111005199D01*
X146166597Y-111005199D02*
X146295168Y-111090913D01*
X146295168Y-111090913D02*
X146380882Y-111176628D01*
X146380882Y-111176628D02*
X146423740Y-111262342D01*
%TO.C,C25*%
D13*
X96118000Y-73196564D02*
X96118000Y-73412236D01*
X95398000Y-73196564D02*
X95398000Y-73412236D01*
%TO.C,C20*%
X116683200Y-71431036D02*
X116683200Y-71215364D01*
X117403200Y-71431036D02*
X117403200Y-71215364D01*
%TO.C,C6*%
X144775600Y-97580564D02*
X144775600Y-97796236D01*
X145495600Y-97580564D02*
X145495600Y-97796236D01*
%TO.C,R4*%
X142731258Y-80249500D02*
X142256742Y-80249500D01*
X142731258Y-81294500D02*
X142256742Y-81294500D01*
%TO.C,C16*%
X117800800Y-69856236D02*
X117800800Y-69640564D01*
X118520800Y-69856236D02*
X118520800Y-69640564D01*
%TO.C,C24*%
X110953436Y-69896400D02*
X110737764Y-69896400D01*
X110953436Y-70616400D02*
X110737764Y-70616400D01*
%TO.C,C2*%
X144724800Y-113430164D02*
X144724800Y-113645836D01*
X145444800Y-113430164D02*
X145444800Y-113645836D01*
%TO.C,C10*%
X133955200Y-70262636D02*
X133955200Y-70046964D01*
X134675200Y-70262636D02*
X134675200Y-70046964D01*
%TO.C,R7*%
X131588742Y-67346300D02*
X132063258Y-67346300D01*
X131588742Y-68391300D02*
X132063258Y-68391300D01*
%TO.C,R1*%
X143102359Y-97765600D02*
X143409641Y-97765600D01*
X143102359Y-98525600D02*
X143409641Y-98525600D01*
%TO.C,C23*%
X115220636Y-69896400D02*
X115004964Y-69896400D01*
X115220636Y-70616400D02*
X115004964Y-70616400D01*
%TO.C,C26*%
X96617200Y-73247364D02*
X96617200Y-73463036D01*
X97337200Y-73247364D02*
X97337200Y-73463036D01*
%TO.C,C22*%
X113036236Y-69896400D02*
X112820564Y-69896400D01*
X113036236Y-70616400D02*
X112820564Y-70616400D01*
%TO.C,C5*%
X144775600Y-100590236D02*
X144775600Y-100374564D01*
X145495600Y-100590236D02*
X145495600Y-100374564D01*
%TO.C,C12*%
X135947036Y-70099600D02*
X135731364Y-70099600D01*
X135947036Y-70819600D02*
X135731364Y-70819600D01*
%TO.C,C4*%
X143300564Y-113990800D02*
X143516236Y-113990800D01*
X143300564Y-114710800D02*
X143516236Y-114710800D01*
%TO.C,C8*%
X140303364Y-71623600D02*
X140519036Y-71623600D01*
X140303364Y-72343600D02*
X140519036Y-72343600D01*
%TO.C,C14*%
X129076564Y-61057200D02*
X129292236Y-61057200D01*
X129076564Y-61777200D02*
X129292236Y-61777200D01*
%TO.C,R3*%
X142794488Y-84161100D02*
X142319972Y-84161100D01*
X142794488Y-85206100D02*
X142319972Y-85206100D01*
%TO.C,C15*%
X116683200Y-67608564D02*
X116683200Y-67824236D01*
X117403200Y-67608564D02*
X117403200Y-67824236D01*
%TO.C,R12*%
X108916441Y-69927200D02*
X108609159Y-69927200D01*
X108916441Y-70687200D02*
X108609159Y-70687200D01*
%TO.C,C13*%
X118217836Y-61108000D02*
X118002164Y-61108000D01*
X118217836Y-61828000D02*
X118002164Y-61828000D01*
%TO.C,C19*%
X105050000Y-71583436D02*
X105050000Y-71367764D01*
X105770000Y-71583436D02*
X105770000Y-71367764D01*
%TO.C,C3*%
X141382636Y-113990800D02*
X141166964Y-113990800D01*
X141382636Y-114710800D02*
X141166964Y-114710800D01*
%TO.C,R6*%
X131588742Y-68971900D02*
X132063258Y-68971900D01*
X131588742Y-70016900D02*
X132063258Y-70016900D01*
%TO.C,C7*%
X129332400Y-71380236D02*
X129332400Y-71164564D01*
X130052400Y-71380236D02*
X130052400Y-71164564D01*
%TO.C,R10*%
X131420841Y-70435200D02*
X131113559Y-70435200D01*
X131420841Y-71195200D02*
X131113559Y-71195200D01*
%TO.C,R5*%
X142731258Y-78319100D02*
X142256742Y-78319100D01*
X142731258Y-79364100D02*
X142256742Y-79364100D01*
%TO.C,R9*%
X108595900Y-67936342D02*
X108595900Y-68410858D01*
X109640900Y-67936342D02*
X109640900Y-68410858D01*
%TO.C,C21*%
X106167600Y-70910564D02*
X106167600Y-71126236D01*
X106887600Y-70910564D02*
X106887600Y-71126236D01*
%TO.C,C18*%
X128316400Y-68675364D02*
X128316400Y-68891036D01*
X129036400Y-68675364D02*
X129036400Y-68891036D01*
%TO.C,C9*%
X128265600Y-71380236D02*
X128265600Y-71164564D01*
X128985600Y-71380236D02*
X128985600Y-71164564D01*
%TO.C,C17*%
X129190636Y-66848400D02*
X128974964Y-66848400D01*
X129190636Y-67568400D02*
X128974964Y-67568400D01*
%TO.C,R13*%
X95133900Y-77486742D02*
X95133900Y-77961258D01*
X96178900Y-77486742D02*
X96178900Y-77961258D01*
%TO.C,U1*%
X97950600Y-78205200D02*
X97950600Y-73585200D01*
X103420600Y-73585200D02*
X103420600Y-78205200D01*
X98405600Y-79755200D02*
X98645600Y-80085200D01*
X98165600Y-80085200D01*
X98405600Y-79755200D01*
G36*
X98645600Y-80085200D02*
G01*
X98165600Y-80085200D01*
X98405600Y-79755200D01*
X98645600Y-80085200D01*
G37*
%TO.C,R2*%
X142794488Y-86091500D02*
X142319972Y-86091500D01*
X142794488Y-87136500D02*
X142319972Y-87136500D01*
%TO.C,R11*%
X117780800Y-67562759D02*
X117780800Y-67870041D01*
X118540800Y-67562759D02*
X118540800Y-67870041D01*
%TO.C,C11*%
X137979036Y-70150400D02*
X137763364Y-70150400D01*
X137979036Y-70870400D02*
X137763364Y-70870400D01*
%TO.C,J4*%
X94765000Y-67200000D02*
X94765000Y-66600000D01*
X94875000Y-67200000D02*
X94765000Y-67200000D01*
X100140000Y-69790000D02*
X100540000Y-69790000D01*
X100340000Y-69390000D02*
X100140000Y-69790000D01*
X100540000Y-69790000D02*
X100340000Y-69390000D01*
X103305000Y-67200000D02*
X103415000Y-67200000D01*
X103415000Y-67200000D02*
X103415000Y-66600000D01*
%TO.C,R8*%
X106665500Y-67936342D02*
X106665500Y-68410858D01*
X107710500Y-67936342D02*
X107710500Y-68410858D01*
%TO.C,C1*%
X144724800Y-111398164D02*
X144724800Y-111613836D01*
X145444800Y-111398164D02*
X145444800Y-111613836D01*
%TD*%
M02*
