%TF.GenerationSoftware,KiCad,Pcbnew,10.0.5*%
%TF.CreationDate,2026-09-14T16:49:34+01:00*%
%TF.ProjectId,gk_oled_pcb,676b5f6f-6c65-4645-9f70-63622e6b6963,rev?*%
%TF.SameCoordinates,Original*%
%TF.FileFunction,Drillmap*%
%TF.FilePolarity,Positive*%
%FSLAX45Y45*%
G04 Gerber Fmt 4.5, Leading zero omitted, Abs format (unit mm)*
G04 Created by KiCad (PCBNEW 10.0.5) date 2026-09-14 16:49:34*
%MOMM*%
%LPD*%
G01*
G04 APERTURE LIST*
%ADD10C,0.100000*%
%ADD11C,0.200000*%
G04 APERTURE END LIST*
D10*
X9450000Y-6516447D02*
X9450000Y-8090160D01*
X9450000Y-8090160D02*
X11530640Y-8090000D01*
X11062755Y-6516447D02*
X9450000Y-6516447D01*
X11448174Y-6516447D02*
X11062755Y-6516447D01*
X11530640Y-8090000D02*
X11781000Y-7698000D01*
X11703600Y-6061845D02*
X11703600Y-6293160D01*
X11703600Y-6293160D02*
X11448174Y-6516447D01*
X11781000Y-7698000D02*
X12075100Y-7498932D01*
X12075100Y-7498932D02*
X12492676Y-7498932D01*
X12492676Y-7498932D02*
X12939876Y-7676132D01*
X12939876Y-7676132D02*
X13201348Y-8090160D01*
X13112800Y-6061845D02*
X11703600Y-6061845D01*
X13112800Y-6593840D02*
X13112800Y-6061845D01*
X13201348Y-8090160D02*
X13318000Y-8226000D01*
X13318000Y-8226000D02*
X14141900Y-8948397D01*
X13720000Y-10525000D02*
X13720000Y-10165248D01*
X13720000Y-10525000D02*
X13720100Y-11497160D01*
X13720100Y-11497160D02*
X14580100Y-11497160D01*
X14141900Y-8948397D02*
X14258636Y-9239201D01*
X14141900Y-9896141D02*
X13720000Y-10165248D01*
X14258636Y-9239201D02*
X14258636Y-9643653D01*
X14258636Y-9643653D02*
X14141900Y-9896141D01*
X14580100Y-7290160D02*
X13112800Y-6593840D01*
X14580100Y-11497160D02*
X14580100Y-7290160D01*
D11*
X9705777Y-11813644D02*
X9705777Y-11613644D01*
X9705777Y-11613644D02*
X9753396Y-11613644D01*
X9753396Y-11613644D02*
X9781967Y-11623168D01*
X9781967Y-11623168D02*
X9801015Y-11642216D01*
X9801015Y-11642216D02*
X9810539Y-11661263D01*
X9810539Y-11661263D02*
X9820063Y-11699358D01*
X9820063Y-11699358D02*
X9820063Y-11727930D01*
X9820063Y-11727930D02*
X9810539Y-11766025D01*
X9810539Y-11766025D02*
X9801015Y-11785073D01*
X9801015Y-11785073D02*
X9781967Y-11804120D01*
X9781967Y-11804120D02*
X9753396Y-11813644D01*
X9753396Y-11813644D02*
X9705777Y-11813644D01*
X9905777Y-11813644D02*
X9905777Y-11680311D01*
X9905777Y-11718406D02*
X9915301Y-11699358D01*
X9915301Y-11699358D02*
X9924824Y-11689835D01*
X9924824Y-11689835D02*
X9943872Y-11680311D01*
X9943872Y-11680311D02*
X9962920Y-11680311D01*
X10029586Y-11813644D02*
X10029586Y-11680311D01*
X10029586Y-11613644D02*
X10020063Y-11623168D01*
X10020063Y-11623168D02*
X10029586Y-11632692D01*
X10029586Y-11632692D02*
X10039110Y-11623168D01*
X10039110Y-11623168D02*
X10029586Y-11613644D01*
X10029586Y-11613644D02*
X10029586Y-11632692D01*
X10153396Y-11813644D02*
X10134348Y-11804120D01*
X10134348Y-11804120D02*
X10124824Y-11785073D01*
X10124824Y-11785073D02*
X10124824Y-11613644D01*
X10258158Y-11813644D02*
X10239110Y-11804120D01*
X10239110Y-11804120D02*
X10229586Y-11785073D01*
X10229586Y-11785073D02*
X10229586Y-11613644D01*
X10486729Y-11813644D02*
X10486729Y-11613644D01*
X10486729Y-11613644D02*
X10553396Y-11756501D01*
X10553396Y-11756501D02*
X10620063Y-11613644D01*
X10620063Y-11613644D02*
X10620063Y-11813644D01*
X10801015Y-11813644D02*
X10801015Y-11708882D01*
X10801015Y-11708882D02*
X10791491Y-11689835D01*
X10791491Y-11689835D02*
X10772444Y-11680311D01*
X10772444Y-11680311D02*
X10734348Y-11680311D01*
X10734348Y-11680311D02*
X10715301Y-11689835D01*
X10801015Y-11804120D02*
X10781967Y-11813644D01*
X10781967Y-11813644D02*
X10734348Y-11813644D01*
X10734348Y-11813644D02*
X10715301Y-11804120D01*
X10715301Y-11804120D02*
X10705777Y-11785073D01*
X10705777Y-11785073D02*
X10705777Y-11766025D01*
X10705777Y-11766025D02*
X10715301Y-11746977D01*
X10715301Y-11746977D02*
X10734348Y-11737454D01*
X10734348Y-11737454D02*
X10781967Y-11737454D01*
X10781967Y-11737454D02*
X10801015Y-11727930D01*
X10896253Y-11680311D02*
X10896253Y-11880311D01*
X10896253Y-11689835D02*
X10915301Y-11680311D01*
X10915301Y-11680311D02*
X10953396Y-11680311D01*
X10953396Y-11680311D02*
X10972444Y-11689835D01*
X10972444Y-11689835D02*
X10981967Y-11699358D01*
X10981967Y-11699358D02*
X10991491Y-11718406D01*
X10991491Y-11718406D02*
X10991491Y-11775549D01*
X10991491Y-11775549D02*
X10981967Y-11794596D01*
X10981967Y-11794596D02*
X10972444Y-11804120D01*
X10972444Y-11804120D02*
X10953396Y-11813644D01*
X10953396Y-11813644D02*
X10915301Y-11813644D01*
X10915301Y-11813644D02*
X10896253Y-11804120D01*
X11077205Y-11794596D02*
X11086729Y-11804120D01*
X11086729Y-11804120D02*
X11077205Y-11813644D01*
X11077205Y-11813644D02*
X11067682Y-11804120D01*
X11067682Y-11804120D02*
X11077205Y-11794596D01*
X11077205Y-11794596D02*
X11077205Y-11813644D01*
X11077205Y-11689835D02*
X11086729Y-11699358D01*
X11086729Y-11699358D02*
X11077205Y-11708882D01*
X11077205Y-11708882D02*
X11067682Y-11699358D01*
X11067682Y-11699358D02*
X11077205Y-11689835D01*
X11077205Y-11689835D02*
X11077205Y-11708882D01*
M02*
