M48
; DRILL file KiCad 10.0.5 date 2026-09-14T16:49:34
; FORMAT={-:-/ absolute / metric / decimal}
; #@! TF.CreationDate,2026-09-14T16:49:34+01:00
; #@! TF.GenerationSoftware,Kicad,Pcbnew,10.0.5
; #@! TF.FileFunction,Plated,1,4,PTH
FMAT,2
METRIC
; #@! TA.AperFunction,Plated,PTH,ViaDrill
T1C0.200
; #@! TA.AperFunction,Plated,PTH,ViaDrill
T2C0.300
; #@! TA.AperFunction,Plated,PTH,ViaDrill
T3C0.400
; #@! TA.AperFunction,Plated,PTH,ComponentDrill
T4C1.000
%
G90
G05
T1
X98.95Y-76.65
X99.517Y-69.24
X100.17Y-76.97
X101.1Y-76.9
X101.346Y-74.828
X101.651Y-77.47
X102.006Y-74.473
X102.26Y-77.013
X102.362Y-71.069
X103.022Y-71.476
X140.462Y-84.633
X140.614Y-86.716
X141.834Y-103.784
X142.596Y-104.496
X143.358Y-105.004
T2
X106.172Y-68.732
X108.204Y-68.224
X109.88Y-75.692
X110.338Y-76.454
X111.201Y-77.14
X121.26Y-66.396
X121.92Y-65.278
X121.92Y-67.056
X131.424Y-66.927
X131.877Y-68.682
X132.791Y-75.59
X133.629Y-75.565
X134.264Y-74.473
X139.395Y-78.943
X139.446Y-80.772
X143.561Y-109.068
X144.17Y-112.37
T3
X95.758Y-74.93
X96.825Y-71.323
X96.977Y-74.93
X97.18Y-78.791
X100.33Y-74.676
X101.448Y-71.222
X104.14Y-78.791
X105.105Y-69.24
X108.052Y-66.091
X110.439Y-68.58
X111.333Y-67.848
X112.522Y-69.342
X113.589Y-69.24
X117.043Y-69.037
X118.008Y-62.484
X120.574Y-68.301
X124.155Y-63.449
X125.476Y-63.805
X129.692Y-68.834
X129.692Y-69.952
X135.298Y-69.34
X135.687Y-74.117
X136.296Y-69.393
X140.767Y-110.693
X143.104Y-106.578
X143.22Y-113.456
X144.628Y-85.649
X144.78Y-79.807
X145.136Y-99.06
X145.151Y-95.961
T4
X105.766Y-78.74
X138.75Y-113.48
X143.116Y-74.219
M30
