%TF.GenerationSoftware,KiCad,Pcbnew,10.0.5*%
%TF.CreationDate,2026-09-14T16:49:18+01:00*%
%TF.ProjectId,gk_oled_pcb,676b5f6f-6c65-4645-9f70-63622e6b6963,rev?*%
%TF.SameCoordinates,Original*%
%TF.FileFunction,Soldermask,Top*%
%TF.FilePolarity,Negative*%
%FSLAX46Y46*%
G04 Gerber Fmt 4.6, Leading zero omitted, Abs format (unit mm)*
G04 Created by KiCad (PCBNEW 10.0.5) date 2026-09-14 16:49:18*
%MOMM*%
%LPD*%
G01*
G04 APERTURE LIST*
G04 Aperture macros list*
%AMRoundRect*
0 Rectangle with rounded corners*
0 $1 Rounding radius*
0 $2 $3 $4 $5 $6 $7 $8 $9 X,Y pos of 4 corners*
0 Add a 4 corners polygon primitive as box body*
4,1,4,$2,$3,$4,$5,$6,$7,$8,$9,$2,$3,0*
0 Add four circle primitives for the rounded corners*
1,1,$1+$1,$2,$3*
1,1,$1+$1,$4,$5*
1,1,$1+$1,$6,$7*
1,1,$1+$1,$8,$9*
0 Add four rect primitives between the rounded corners*
20,1,$1+$1,$2,$3,$4,$5,0*
20,1,$1+$1,$4,$5,$6,$7,0*
20,1,$1+$1,$6,$7,$8,$9,0*
20,1,$1+$1,$8,$9,$2,$3,0*%
G04 Aperture macros list end*
%ADD10RoundRect,0.140000X-0.170000X0.140000X-0.170000X-0.140000X0.170000X-0.140000X0.170000X0.140000X0*%
%ADD11RoundRect,0.140000X0.170000X-0.140000X0.170000X0.140000X-0.170000X0.140000X-0.170000X-0.140000X0*%
%ADD12RoundRect,0.200000X0.200000X0.275000X-0.200000X0.275000X-0.200000X-0.275000X0.200000X-0.275000X0*%
%ADD13RoundRect,0.140000X0.140000X0.170000X-0.140000X0.170000X-0.140000X-0.170000X0.140000X-0.170000X0*%
%ADD14RoundRect,0.045000X0.105000X0.555000X-0.105000X0.555000X-0.105000X-0.555000X0.105000X-0.555000X0*%
%ADD15RoundRect,0.255000X0.745000X0.595000X-0.745000X0.595000X-0.745000X-0.595000X0.745000X-0.595000X0*%
%ADD16RoundRect,0.200000X-0.200000X-0.275000X0.200000X-0.275000X0.200000X0.275000X-0.200000X0.275000X0*%
%ADD17RoundRect,0.135000X-0.135000X-0.185000X0.135000X-0.185000X0.135000X0.185000X-0.135000X0.185000X0*%
%ADD18RoundRect,0.140000X-0.140000X-0.170000X0.140000X-0.170000X0.140000X0.170000X-0.140000X0.170000X0*%
%ADD19RoundRect,0.135000X0.135000X0.185000X-0.135000X0.185000X-0.135000X-0.185000X0.135000X-0.185000X0*%
%ADD20RoundRect,0.045000X0.555000X-0.105000X0.555000X0.105000X-0.555000X0.105000X-0.555000X-0.105000X0*%
%ADD21RoundRect,0.255000X0.595000X-0.745000X0.595000X0.745000X-0.595000X0.745000X-0.595000X-0.745000X0*%
%ADD22RoundRect,0.200000X-0.275000X0.200000X-0.275000X-0.200000X0.275000X-0.200000X0.275000X0.200000X0*%
%ADD23RoundRect,0.100000X0.100000X-0.637500X0.100000X0.637500X-0.100000X0.637500X-0.100000X-0.637500X0*%
%ADD24RoundRect,0.135000X-0.185000X0.135000X-0.185000X-0.135000X0.185000X-0.135000X0.185000X0.135000X0*%
%ADD25R,0.300000X1.100000*%
%ADD26R,2.300000X3.100000*%
%ADD27R,1.700000X1.700000*%
G04 APERTURE END LIST*
D10*
%TO.C,C25*%
X95758000Y-73784400D03*
X95758000Y-72824400D03*
%TD*%
D11*
%TO.C,C20*%
X117043200Y-71803200D03*
X117043200Y-70843200D03*
%TD*%
D10*
%TO.C,C6*%
X145135600Y-97208400D03*
X145135600Y-98168400D03*
%TD*%
D12*
%TO.C,R4*%
X143319000Y-80772000D03*
X141669000Y-80772000D03*
%TD*%
D11*
%TO.C,C16*%
X118160800Y-70228400D03*
X118160800Y-69268400D03*
%TD*%
D13*
%TO.C,C24*%
X111325600Y-70256400D03*
X110365600Y-70256400D03*
%TD*%
D14*
%TO.C,JP2*%
X139005600Y-72278800D03*
X138385600Y-72278800D03*
X137765600Y-72278800D03*
X137145600Y-72278800D03*
X136525600Y-72278800D03*
X135905600Y-72278800D03*
X135285600Y-72278800D03*
X134665600Y-72278800D03*
X134045600Y-72278800D03*
X133425600Y-72278800D03*
X132805600Y-72278800D03*
X132185600Y-72278800D03*
X131565600Y-72278800D03*
X130945600Y-72278800D03*
D15*
X140755600Y-74828800D03*
X129195600Y-74828800D03*
%TD*%
D10*
%TO.C,C2*%
X145084800Y-113058000D03*
X145084800Y-114018000D03*
%TD*%
D11*
%TO.C,C10*%
X134315200Y-70634800D03*
X134315200Y-69674800D03*
%TD*%
D16*
%TO.C,R7*%
X131001000Y-67868800D03*
X132651000Y-67868800D03*
%TD*%
D17*
%TO.C,R1*%
X142746000Y-98145600D03*
X143766000Y-98145600D03*
%TD*%
D13*
%TO.C,C23*%
X115592800Y-70256400D03*
X114632800Y-70256400D03*
%TD*%
D10*
%TO.C,C26*%
X96977200Y-72875200D03*
X96977200Y-73835200D03*
%TD*%
D13*
%TO.C,C22*%
X113408400Y-70256400D03*
X112448400Y-70256400D03*
%TD*%
D11*
%TO.C,C5*%
X145135600Y-100962400D03*
X145135600Y-100002400D03*
%TD*%
D13*
%TO.C,C12*%
X136319200Y-70459600D03*
X135359200Y-70459600D03*
%TD*%
D18*
%TO.C,C4*%
X142928400Y-114350800D03*
X143888400Y-114350800D03*
%TD*%
%TO.C,C8*%
X139931200Y-71983600D03*
X140891200Y-71983600D03*
%TD*%
%TO.C,C14*%
X128704400Y-61417200D03*
X129664400Y-61417200D03*
%TD*%
D12*
%TO.C,R3*%
X143382230Y-84683600D03*
X141732230Y-84683600D03*
%TD*%
D10*
%TO.C,C15*%
X117043200Y-67236400D03*
X117043200Y-68196400D03*
%TD*%
D19*
%TO.C,R12*%
X109272800Y-70307200D03*
X108252800Y-70307200D03*
%TD*%
D20*
%TO.C,JP1*%
X144805600Y-110049600D03*
X144805600Y-109429600D03*
X144805600Y-108809600D03*
X144805600Y-108189600D03*
X144805600Y-107569600D03*
X144805600Y-106949600D03*
X144805600Y-106329600D03*
X144805600Y-105709600D03*
X144805600Y-105089600D03*
X144805600Y-104469600D03*
X144805600Y-103849600D03*
X144805600Y-103229600D03*
X144805600Y-102609600D03*
X144805600Y-101989600D03*
D21*
X142255600Y-111799600D03*
X142255600Y-100239600D03*
%TD*%
D13*
%TO.C,C13*%
X118590000Y-61468000D03*
X117630000Y-61468000D03*
%TD*%
D11*
%TO.C,C19*%
X105410000Y-71955600D03*
X105410000Y-70995600D03*
%TD*%
D14*
%TO.C,JP3*%
X127524800Y-61848800D03*
X126904800Y-61848800D03*
X126284800Y-61848800D03*
X125664800Y-61848800D03*
X125044800Y-61848800D03*
X124424800Y-61848800D03*
X123804800Y-61848800D03*
X123184800Y-61848800D03*
X122564800Y-61848800D03*
X121944800Y-61848800D03*
X121324800Y-61848800D03*
X120704800Y-61848800D03*
X120084800Y-61848800D03*
X119464800Y-61848800D03*
D15*
X129274800Y-64398800D03*
X117714800Y-64398800D03*
%TD*%
D13*
%TO.C,C3*%
X141754800Y-114350800D03*
X140794800Y-114350800D03*
%TD*%
D16*
%TO.C,R6*%
X131001000Y-69494400D03*
X132651000Y-69494400D03*
%TD*%
D11*
%TO.C,C7*%
X129692400Y-71752400D03*
X129692400Y-70792400D03*
%TD*%
D19*
%TO.C,R10*%
X131777200Y-70815200D03*
X130757200Y-70815200D03*
%TD*%
D12*
%TO.C,R5*%
X143319000Y-78841600D03*
X141669000Y-78841600D03*
%TD*%
D22*
%TO.C,R9*%
X109118400Y-67348600D03*
X109118400Y-68998600D03*
%TD*%
D10*
%TO.C,C21*%
X106527600Y-70538400D03*
X106527600Y-71498400D03*
%TD*%
%TO.C,C18*%
X128676400Y-68303200D03*
X128676400Y-69263200D03*
%TD*%
D14*
%TO.C,JP4*%
X116094800Y-72278800D03*
X115474800Y-72278800D03*
X114854800Y-72278800D03*
X114234800Y-72278800D03*
X113614800Y-72278800D03*
X112994800Y-72278800D03*
X112374800Y-72278800D03*
X111754800Y-72278800D03*
X111134800Y-72278800D03*
X110514800Y-72278800D03*
X109894800Y-72278800D03*
X109274800Y-72278800D03*
X108654800Y-72278800D03*
X108034800Y-72278800D03*
D15*
X117844800Y-74828800D03*
X106284800Y-74828800D03*
%TD*%
D11*
%TO.C,C9*%
X128625600Y-71752400D03*
X128625600Y-70792400D03*
%TD*%
D13*
%TO.C,C17*%
X129562800Y-67208400D03*
X128602800Y-67208400D03*
%TD*%
D22*
%TO.C,R13*%
X95656400Y-76899000D03*
X95656400Y-78549000D03*
%TD*%
D23*
%TO.C,U1*%
X98410600Y-78757700D03*
X99060600Y-78757700D03*
X99710600Y-78757700D03*
X100360600Y-78757700D03*
X101010600Y-78757700D03*
X101660600Y-78757700D03*
X102310600Y-78757700D03*
X102960600Y-78757700D03*
X102960600Y-73032700D03*
X102310600Y-73032700D03*
X101660600Y-73032700D03*
X101010600Y-73032700D03*
X100360600Y-73032700D03*
X99710600Y-73032700D03*
X99060600Y-73032700D03*
X98410600Y-73032700D03*
%TD*%
D12*
%TO.C,R2*%
X143382230Y-86614000D03*
X141732230Y-86614000D03*
%TD*%
D24*
%TO.C,R11*%
X118160800Y-67206400D03*
X118160800Y-68226400D03*
%TD*%
D13*
%TO.C,C11*%
X138351200Y-70510400D03*
X137391200Y-70510400D03*
%TD*%
D25*
%TO.C,J4*%
X100340000Y-70590000D03*
X99840000Y-70590000D03*
X99340000Y-70590000D03*
X98840000Y-70590000D03*
X98340000Y-70590000D03*
X97840000Y-70590000D03*
D26*
X102010000Y-68890000D03*
X96170000Y-68890000D03*
%TD*%
D22*
%TO.C,R8*%
X107188000Y-67348600D03*
X107188000Y-68998600D03*
%TD*%
D10*
%TO.C,C1*%
X145084800Y-111026000D03*
X145084800Y-111986000D03*
%TD*%
D27*
%TO.C,J3*%
X138750000Y-113480000D03*
%TD*%
%TO.C,J2*%
X143116030Y-74218800D03*
%TD*%
%TO.C,J5*%
X105765600Y-78740000D03*
%TD*%
M02*
