%TF.GenerationSoftware,KiCad,Pcbnew,10.0.5*%
%TF.CreationDate,2026-09-14T16:49:18+01:00*%
%TF.ProjectId,gk_oled_pcb,676b5f6f-6c65-4645-9f70-63622e6b6963,rev?*%
%TF.SameCoordinates,Original*%
%TF.FileFunction,Copper,L1,Top*%
%TF.FilePolarity,Positive*%
%FSLAX46Y46*%
G04 Gerber Fmt 4.6, Leading zero omitted, Abs format (unit mm)*
G04 Created by KiCad (PCBNEW 10.0.5) date 2026-09-14 16:49:18*
%MOMM*%
%LPD*%
G01*
G04 APERTURE LIST*
G04 Aperture macros list*
%AMRoundRect*
0 Rectangle with rounded corners*
0 $1 Rounding radius*
0 $2 $3 $4 $5 $6 $7 $8 $9 X,Y pos of 4 corners*
0 Add a 4 corners polygon primitive as box body*
4,1,4,$2,$3,$4,$5,$6,$7,$8,$9,$2,$3,0*
0 Add four circle primitives for the rounded corners*
1,1,$1+$1,$2,$3*
1,1,$1+$1,$4,$5*
1,1,$1+$1,$6,$7*
1,1,$1+$1,$8,$9*
0 Add four rect primitives between the rounded corners*
20,1,$1+$1,$2,$3,$4,$5,0*
20,1,$1+$1,$4,$5,$6,$7,0*
20,1,$1+$1,$6,$7,$8,$9,0*
20,1,$1+$1,$8,$9,$2,$3,0*%
G04 Aperture macros list end*
%TA.AperFunction,SMDPad,CuDef*%
%ADD10RoundRect,0.140000X-0.170000X0.140000X-0.170000X-0.140000X0.170000X-0.140000X0.170000X0.140000X0*%
%TD*%
%TA.AperFunction,SMDPad,CuDef*%
%ADD11RoundRect,0.140000X0.170000X-0.140000X0.170000X0.140000X-0.170000X0.140000X-0.170000X-0.140000X0*%
%TD*%
%TA.AperFunction,SMDPad,CuDef*%
%ADD12RoundRect,0.200000X0.200000X0.275000X-0.200000X0.275000X-0.200000X-0.275000X0.200000X-0.275000X0*%
%TD*%
%TA.AperFunction,SMDPad,CuDef*%
%ADD13RoundRect,0.140000X0.140000X0.170000X-0.140000X0.170000X-0.140000X-0.170000X0.140000X-0.170000X0*%
%TD*%
%TA.AperFunction,SMDPad,CuDef*%
%ADD14RoundRect,0.045000X0.105000X0.555000X-0.105000X0.555000X-0.105000X-0.555000X0.105000X-0.555000X0*%
%TD*%
%TA.AperFunction,SMDPad,CuDef*%
%ADD15RoundRect,0.255000X0.745000X0.595000X-0.745000X0.595000X-0.745000X-0.595000X0.745000X-0.595000X0*%
%TD*%
%TA.AperFunction,SMDPad,CuDef*%
%ADD16RoundRect,0.200000X-0.200000X-0.275000X0.200000X-0.275000X0.200000X0.275000X-0.200000X0.275000X0*%
%TD*%
%TA.AperFunction,SMDPad,CuDef*%
%ADD17RoundRect,0.135000X-0.135000X-0.185000X0.135000X-0.185000X0.135000X0.185000X-0.135000X0.185000X0*%
%TD*%
%TA.AperFunction,SMDPad,CuDef*%
%ADD18RoundRect,0.140000X-0.140000X-0.170000X0.140000X-0.170000X0.140000X0.170000X-0.140000X0.170000X0*%
%TD*%
%TA.AperFunction,SMDPad,CuDef*%
%ADD19RoundRect,0.135000X0.135000X0.185000X-0.135000X0.185000X-0.135000X-0.185000X0.135000X-0.185000X0*%
%TD*%
%TA.AperFunction,SMDPad,CuDef*%
%ADD20RoundRect,0.045000X0.555000X-0.105000X0.555000X0.105000X-0.555000X0.105000X-0.555000X-0.105000X0*%
%TD*%
%TA.AperFunction,SMDPad,CuDef*%
%ADD21RoundRect,0.255000X0.595000X-0.745000X0.595000X0.745000X-0.595000X0.745000X-0.595000X-0.745000X0*%
%TD*%
%TA.AperFunction,SMDPad,CuDef*%
%ADD22RoundRect,0.200000X-0.275000X0.200000X-0.275000X-0.200000X0.275000X-0.200000X0.275000X0.200000X0*%
%TD*%
%TA.AperFunction,SMDPad,CuDef*%
%ADD23RoundRect,0.100000X0.100000X-0.637500X0.100000X0.637500X-0.100000X0.637500X-0.100000X-0.637500X0*%
%TD*%
%TA.AperFunction,SMDPad,CuDef*%
%ADD24RoundRect,0.135000X-0.185000X0.135000X-0.185000X-0.135000X0.185000X-0.135000X0.185000X0.135000X0*%
%TD*%
%TA.AperFunction,SMDPad,CuDef*%
%ADD25R,0.300000X1.100000*%
%TD*%
%TA.AperFunction,SMDPad,CuDef*%
%ADD26R,2.300000X3.100000*%
%TD*%
%TA.AperFunction,ComponentPad*%
%ADD27R,1.700000X1.700000*%
%TD*%
%TA.AperFunction,ViaPad*%
%ADD28C,0.800000*%
%TD*%
%TA.AperFunction,ViaPad*%
%ADD29C,0.450000*%
%TD*%
%TA.AperFunction,ViaPad*%
%ADD30C,0.600000*%
%TD*%
%TA.AperFunction,Conductor*%
%ADD31C,0.203200*%
%TD*%
%TA.AperFunction,Conductor*%
%ADD32C,0.304800*%
%TD*%
%TA.AperFunction,Conductor*%
%ADD33C,0.152400*%
%TD*%
G04 APERTURE END LIST*
D10*
%TO.P,C25,2*%
%TO.N,GND*%
X95758000Y-73784400D03*
%TO.P,C25,1*%
%TO.N,VDDIO*%
X95758000Y-72824400D03*
%TD*%
D11*
%TO.P,C20,1*%
%TO.N,Net-(JP4-C2P)*%
X117043200Y-71803200D03*
%TO.P,C20,2*%
%TO.N,Net-(JP4-C2N)*%
X117043200Y-70843200D03*
%TD*%
D10*
%TO.P,C6,1*%
%TO.N,Net-(JP1-VCOMH)*%
X145135600Y-97208400D03*
%TO.P,C6,2*%
%TO.N,GND*%
X145135600Y-98168400D03*
%TD*%
D12*
%TO.P,R4,1*%
%TO.N,VCC*%
X143319000Y-80772000D03*
%TO.P,R4,2*%
%TO.N,SDA2*%
X141669000Y-80772000D03*
%TD*%
D11*
%TO.P,C16,1*%
%TO.N,VCC*%
X118160800Y-70228400D03*
%TO.P,C16,2*%
%TO.N,GND*%
X118160800Y-69268400D03*
%TD*%
D13*
%TO.P,C24,1*%
%TO.N,VCC*%
X111325600Y-70256400D03*
%TO.P,C24,2*%
%TO.N,GND*%
X110365600Y-70256400D03*
%TD*%
D14*
%TO.P,JP2,1,C2P_1*%
%TO.N,Net-(JP2-C2P)*%
X139005600Y-72278800D03*
%TO.P,JP2,2,C2N_2*%
%TO.N,Net-(JP2-C2N)*%
X138385600Y-72278800D03*
%TO.P,JP2,3,C1P_3*%
%TO.N,Net-(JP2-C1P)*%
X137765600Y-72278800D03*
%TO.P,JP2,4,C1N_4*%
%TO.N,Net-(JP2-C1N)*%
X137145600Y-72278800D03*
%TO.P,JP2,5,VDD2_5*%
%TO.N,VCC*%
X136525600Y-72278800D03*
%TO.P,JP2,6,NC_6*%
%TO.N,unconnected-(JP2-NC-Pad6)*%
X135905600Y-72278800D03*
%TO.P,JP2,7,VSS_7*%
%TO.N,GND*%
X135285600Y-72278800D03*
%TO.P,JP2,8,VDD1_8*%
%TO.N,VCC*%
X134665600Y-72278800D03*
%TO.P,JP2,9,NRES_9*%
%TO.N,OLED_NRES*%
X134045600Y-72278800D03*
%TO.P,JP2,10,SCL_10*%
%TO.N,SCL2*%
X133425600Y-72278800D03*
%TO.P,JP2,11,SDA_11*%
%TO.N,SDA2*%
X132805600Y-72278800D03*
%TO.P,JP2,12,IREF_12*%
%TO.N,Net-(JP2-IREF)*%
X132185600Y-72278800D03*
%TO.P,JP2,13,VCOMH_13*%
%TO.N,Net-(JP2-VCOMH)*%
X131565600Y-72278800D03*
%TO.P,JP2,14,VPP_14*%
%TO.N,Net-(JP2-VPP)*%
X130945600Y-72278800D03*
D15*
%TO.P,JP2,15*%
%TO.N,N/C*%
X140755600Y-74828800D03*
X129195600Y-74828800D03*
%TD*%
D10*
%TO.P,C2,1*%
%TO.N,Net-(JP1-C1P)*%
X145084800Y-113058000D03*
%TO.P,C2,2*%
%TO.N,Net-(JP1-C1N)*%
X145084800Y-114018000D03*
%TD*%
D11*
%TO.P,C10,1*%
%TO.N,VCC*%
X134315200Y-70634800D03*
%TO.P,C10,2*%
%TO.N,GND*%
X134315200Y-69674800D03*
%TD*%
D16*
%TO.P,R7,1*%
%TO.N,VCC*%
X131001000Y-67868800D03*
%TO.P,R7,2*%
%TO.N,SCL3*%
X132651000Y-67868800D03*
%TD*%
D17*
%TO.P,R1,1*%
%TO.N,Net-(JP1-IREF)*%
X142746000Y-98145600D03*
%TO.P,R1,2*%
%TO.N,GND*%
X143766000Y-98145600D03*
%TD*%
D13*
%TO.P,C23,1*%
%TO.N,Net-(JP4-C1P)*%
X115592800Y-70256400D03*
%TO.P,C23,2*%
%TO.N,Net-(JP4-C1N)*%
X114632800Y-70256400D03*
%TD*%
D10*
%TO.P,C26,1*%
%TO.N,VDDIO*%
X96977200Y-72875200D03*
%TO.P,C26,2*%
%TO.N,GND*%
X96977200Y-73835200D03*
%TD*%
D13*
%TO.P,C22,1*%
%TO.N,VCC*%
X113408400Y-70256400D03*
%TO.P,C22,2*%
%TO.N,GND*%
X112448400Y-70256400D03*
%TD*%
D11*
%TO.P,C5,1*%
%TO.N,Net-(JP1-VPP)*%
X145135600Y-100962400D03*
%TO.P,C5,2*%
%TO.N,GND*%
X145135600Y-100002400D03*
%TD*%
D13*
%TO.P,C12,1*%
%TO.N,VCC*%
X136319200Y-70459600D03*
%TO.P,C12,2*%
%TO.N,GND*%
X135359200Y-70459600D03*
%TD*%
D18*
%TO.P,C4,1*%
%TO.N,VCC*%
X142928400Y-114350800D03*
%TO.P,C4,2*%
%TO.N,GND*%
X143888400Y-114350800D03*
%TD*%
%TO.P,C8,1*%
%TO.N,Net-(JP2-C2P)*%
X139931200Y-71983600D03*
%TO.P,C8,2*%
%TO.N,Net-(JP2-C2N)*%
X140891200Y-71983600D03*
%TD*%
%TO.P,C14,1*%
%TO.N,Net-(JP3-C2P)*%
X128704400Y-61417200D03*
%TO.P,C14,2*%
%TO.N,Net-(JP3-C2N)*%
X129664400Y-61417200D03*
%TD*%
D12*
%TO.P,R3,1*%
%TO.N,VCC*%
X143382230Y-84683600D03*
%TO.P,R3,2*%
%TO.N,SCL1*%
X141732230Y-84683600D03*
%TD*%
D10*
%TO.P,C15,1*%
%TO.N,Net-(JP3-VCOMH)*%
X117043200Y-67236400D03*
%TO.P,C15,2*%
%TO.N,GND*%
X117043200Y-68196400D03*
%TD*%
D19*
%TO.P,R12,1*%
%TO.N,Net-(JP4-IREF)*%
X109272800Y-70307200D03*
%TO.P,R12,2*%
%TO.N,GND*%
X108252800Y-70307200D03*
%TD*%
D20*
%TO.P,JP1,1,C2P_1*%
%TO.N,Net-(JP1-C2P)*%
X144805600Y-110049600D03*
%TO.P,JP1,2,C2N_2*%
%TO.N,Net-(JP1-C2N)*%
X144805600Y-109429600D03*
%TO.P,JP1,3,C1P_3*%
%TO.N,Net-(JP1-C1P)*%
X144805600Y-108809600D03*
%TO.P,JP1,4,C1N_4*%
%TO.N,Net-(JP1-C1N)*%
X144805600Y-108189600D03*
%TO.P,JP1,5,VDD2_5*%
%TO.N,VCC*%
X144805600Y-107569600D03*
%TO.P,JP1,6,NC_6*%
%TO.N,unconnected-(JP1-NC-Pad6)*%
X144805600Y-106949600D03*
%TO.P,JP1,7,VSS_7*%
%TO.N,GND*%
X144805600Y-106329600D03*
%TO.P,JP1,8,VDD1_8*%
%TO.N,VCC*%
X144805600Y-105709600D03*
%TO.P,JP1,9,NRES_9*%
%TO.N,OLED_NRES*%
X144805600Y-105089600D03*
%TO.P,JP1,10,SCL_10*%
%TO.N,SCL1*%
X144805600Y-104469600D03*
%TO.P,JP1,11,SDA_11*%
%TO.N,SDA1*%
X144805600Y-103849600D03*
%TO.P,JP1,12,IREF_12*%
%TO.N,Net-(JP1-IREF)*%
X144805600Y-103229600D03*
%TO.P,JP1,13,VCOMH_13*%
%TO.N,Net-(JP1-VCOMH)*%
X144805600Y-102609600D03*
%TO.P,JP1,14,VPP_14*%
%TO.N,Net-(JP1-VPP)*%
X144805600Y-101989600D03*
D21*
%TO.P,JP1,15*%
%TO.N,N/C*%
X142255600Y-111799600D03*
X142255600Y-100239600D03*
%TD*%
D13*
%TO.P,C13,1*%
%TO.N,Net-(JP3-VPP)*%
X118590000Y-61468000D03*
%TO.P,C13,2*%
%TO.N,GND*%
X117630000Y-61468000D03*
%TD*%
D11*
%TO.P,C19,1*%
%TO.N,Net-(JP4-VPP)*%
X105410000Y-71955600D03*
%TO.P,C19,2*%
%TO.N,GND*%
X105410000Y-70995600D03*
%TD*%
D14*
%TO.P,JP3,1,C2P_1*%
%TO.N,Net-(JP3-C2P)*%
X127524800Y-61848800D03*
%TO.P,JP3,2,C2N_2*%
%TO.N,Net-(JP3-C2N)*%
X126904800Y-61848800D03*
%TO.P,JP3,3,C1P_3*%
%TO.N,Net-(JP3-C1P)*%
X126284800Y-61848800D03*
%TO.P,JP3,4,C1N_4*%
%TO.N,Net-(JP3-C1N)*%
X125664800Y-61848800D03*
%TO.P,JP3,5,VDD2_5*%
%TO.N,VCC*%
X125044800Y-61848800D03*
%TO.P,JP3,6,NC_6*%
%TO.N,unconnected-(JP3-NC-Pad6)*%
X124424800Y-61848800D03*
%TO.P,JP3,7,VSS_7*%
%TO.N,GND*%
X123804800Y-61848800D03*
%TO.P,JP3,8,VDD1_8*%
%TO.N,VCC*%
X123184800Y-61848800D03*
%TO.P,JP3,9,NRES_9*%
%TO.N,OLED_NRES*%
X122564800Y-61848800D03*
%TO.P,JP3,10,SCL_10*%
%TO.N,SCL3*%
X121944800Y-61848800D03*
%TO.P,JP3,11,SDA_11*%
%TO.N,SDA3*%
X121324800Y-61848800D03*
%TO.P,JP3,12,IREF_12*%
%TO.N,Net-(JP3-IREF)*%
X120704800Y-61848800D03*
%TO.P,JP3,13,VCOMH_13*%
%TO.N,Net-(JP3-VCOMH)*%
X120084800Y-61848800D03*
%TO.P,JP3,14,VPP_14*%
%TO.N,Net-(JP3-VPP)*%
X119464800Y-61848800D03*
D15*
%TO.P,JP3,15*%
%TO.N,N/C*%
X129274800Y-64398800D03*
X117714800Y-64398800D03*
%TD*%
D13*
%TO.P,C3,1*%
%TO.N,VCC*%
X141754800Y-114350800D03*
%TO.P,C3,2*%
%TO.N,GND*%
X140794800Y-114350800D03*
%TD*%
D16*
%TO.P,R6,1*%
%TO.N,VCC*%
X131001000Y-69494400D03*
%TO.P,R6,2*%
%TO.N,SDA3*%
X132651000Y-69494400D03*
%TD*%
D11*
%TO.P,C7,1*%
%TO.N,Net-(JP2-VPP)*%
X129692400Y-71752400D03*
%TO.P,C7,2*%
%TO.N,GND*%
X129692400Y-70792400D03*
%TD*%
D19*
%TO.P,R10,1*%
%TO.N,Net-(JP2-IREF)*%
X131777200Y-70815200D03*
%TO.P,R10,2*%
%TO.N,GND*%
X130757200Y-70815200D03*
%TD*%
D12*
%TO.P,R5,1*%
%TO.N,VCC*%
X143319000Y-78841600D03*
%TO.P,R5,2*%
%TO.N,SCL2*%
X141669000Y-78841600D03*
%TD*%
D22*
%TO.P,R9,1*%
%TO.N,VCC*%
X109118400Y-67348600D03*
%TO.P,R9,2*%
%TO.N,SCL4*%
X109118400Y-68998600D03*
%TD*%
D10*
%TO.P,C21,1*%
%TO.N,Net-(JP4-VCOMH)*%
X106527600Y-70538400D03*
%TO.P,C21,2*%
%TO.N,GND*%
X106527600Y-71498400D03*
%TD*%
%TO.P,C18,1*%
%TO.N,VCC*%
X128676400Y-68303200D03*
%TO.P,C18,2*%
%TO.N,GND*%
X128676400Y-69263200D03*
%TD*%
D14*
%TO.P,JP4,1,C2P_1*%
%TO.N,Net-(JP4-C2P)*%
X116094800Y-72278800D03*
%TO.P,JP4,2,C2N_2*%
%TO.N,Net-(JP4-C2N)*%
X115474800Y-72278800D03*
%TO.P,JP4,3,C1P_3*%
%TO.N,Net-(JP4-C1P)*%
X114854800Y-72278800D03*
%TO.P,JP4,4,C1N_4*%
%TO.N,Net-(JP4-C1N)*%
X114234800Y-72278800D03*
%TO.P,JP4,5,VDD2_5*%
%TO.N,VCC*%
X113614800Y-72278800D03*
%TO.P,JP4,6,NC_6*%
%TO.N,unconnected-(JP4-NC-Pad6)*%
X112994800Y-72278800D03*
%TO.P,JP4,7,VSS_7*%
%TO.N,GND*%
X112374800Y-72278800D03*
%TO.P,JP4,8,VDD1_8*%
%TO.N,VCC*%
X111754800Y-72278800D03*
%TO.P,JP4,9,NRES_9*%
%TO.N,OLED_NRES*%
X111134800Y-72278800D03*
%TO.P,JP4,10,SCL_10*%
%TO.N,SCL4*%
X110514800Y-72278800D03*
%TO.P,JP4,11,SDA_11*%
%TO.N,SDA4*%
X109894800Y-72278800D03*
%TO.P,JP4,12,IREF_12*%
%TO.N,Net-(JP4-IREF)*%
X109274800Y-72278800D03*
%TO.P,JP4,13,VCOMH_13*%
%TO.N,Net-(JP4-VCOMH)*%
X108654800Y-72278800D03*
%TO.P,JP4,14,VPP_14*%
%TO.N,Net-(JP4-VPP)*%
X108034800Y-72278800D03*
D15*
%TO.P,JP4,15*%
%TO.N,N/C*%
X117844800Y-74828800D03*
X106284800Y-74828800D03*
%TD*%
D11*
%TO.P,C9,1*%
%TO.N,Net-(JP2-VCOMH)*%
X128625600Y-71752400D03*
%TO.P,C9,2*%
%TO.N,GND*%
X128625600Y-70792400D03*
%TD*%
D13*
%TO.P,C17,1*%
%TO.N,Net-(JP3-C1P)*%
X129562800Y-67208400D03*
%TO.P,C17,2*%
%TO.N,Net-(JP3-C1N)*%
X128602800Y-67208400D03*
%TD*%
D22*
%TO.P,R13,1*%
%TO.N,OLED_NRES*%
X95656400Y-76899000D03*
%TO.P,R13,2*%
%TO.N,GND*%
X95656400Y-78549000D03*
%TD*%
D23*
%TO.P,U1,1,A0_1*%
%TO.N,GND*%
X98410600Y-78757700D03*
%TO.P,U1,2,A1_2*%
X99060600Y-78757700D03*
%TO.P,U1,3,~{RESET}_3*%
%TO.N,OLED_NRES*%
X99710600Y-78757700D03*
%TO.P,U1,4,SD0_4*%
%TO.N,SDA1*%
X100360600Y-78757700D03*
%TO.P,U1,5,SC0_5*%
%TO.N,SCL1*%
X101010600Y-78757700D03*
%TO.P,U1,6,SD1_6*%
%TO.N,SDA2*%
X101660600Y-78757700D03*
%TO.P,U1,7,SC1_7*%
%TO.N,SCL2*%
X102310600Y-78757700D03*
%TO.P,U1,8,GND_8*%
%TO.N,GND*%
X102960600Y-78757700D03*
%TO.P,U1,9,SD2_9*%
%TO.N,SDA3*%
X102960600Y-73032700D03*
%TO.P,U1,10,SC2_10*%
%TO.N,SCL3*%
X102310600Y-73032700D03*
%TO.P,U1,11,SD3_11*%
%TO.N,SDA4*%
X101660600Y-73032700D03*
%TO.P,U1,12,SC3_12*%
%TO.N,SCL4*%
X101010600Y-73032700D03*
%TO.P,U1,13,A2_13*%
%TO.N,GND*%
X100360600Y-73032700D03*
%TO.P,U1,14,SCL_14*%
%TO.N,I2C1_SCL*%
X99710600Y-73032700D03*
%TO.P,U1,15,SDA_15*%
%TO.N,I2C1_SDA*%
X99060600Y-73032700D03*
%TO.P,U1,16,VCC_16*%
%TO.N,VDDIO*%
X98410600Y-73032700D03*
%TD*%
D12*
%TO.P,R2,1*%
%TO.N,VCC*%
X143382230Y-86614000D03*
%TO.P,R2,2*%
%TO.N,SDA1*%
X141732230Y-86614000D03*
%TD*%
D24*
%TO.P,R11,1*%
%TO.N,Net-(JP3-IREF)*%
X118160800Y-67206400D03*
%TO.P,R11,2*%
%TO.N,GND*%
X118160800Y-68226400D03*
%TD*%
D13*
%TO.P,C11,1*%
%TO.N,Net-(JP2-C1P)*%
X138351200Y-70510400D03*
%TO.P,C11,2*%
%TO.N,Net-(JP2-C1N)*%
X137391200Y-70510400D03*
%TD*%
D25*
%TO.P,J4,1,Pin_1_1*%
%TO.N,GND*%
X100340000Y-70590000D03*
%TO.P,J4,2,Pin_2_2*%
%TO.N,OLED_NRES*%
X99840000Y-70590000D03*
%TO.P,J4,3,Pin_3_3*%
%TO.N,I2C1_SCL*%
X99340000Y-70590000D03*
%TO.P,J4,4,Pin_4_4*%
%TO.N,I2C1_SDA*%
X98840000Y-70590000D03*
%TO.P,J4,5,Pin_5_5*%
%TO.N,VDDIO*%
X98340000Y-70590000D03*
%TO.P,J4,6,Pin_6_6*%
%TO.N,VCC*%
X97840000Y-70590000D03*
D26*
%TO.P,J4,MP*%
%TO.N,N/C*%
X102010000Y-68890000D03*
X96170000Y-68890000D03*
%TD*%
D22*
%TO.P,R8,1*%
%TO.N,VCC*%
X107188000Y-67348600D03*
%TO.P,R8,2*%
%TO.N,SDA4*%
X107188000Y-68998600D03*
%TD*%
D10*
%TO.P,C1,1*%
%TO.N,Net-(JP1-C2P)*%
X145084800Y-111026000D03*
%TO.P,C1,2*%
%TO.N,Net-(JP1-C2N)*%
X145084800Y-111986000D03*
%TD*%
D27*
%TO.P,J3,1,Pin_1_1*%
%TO.N,GND*%
X138750000Y-113480000D03*
%TD*%
%TO.P,J2,1,Pin_1_1*%
%TO.N,GND*%
X143116030Y-74218800D03*
%TD*%
%TO.P,J5,1,Pin_1_1*%
%TO.N,N/C*%
X105765600Y-78740000D03*
%TD*%
D28*
%TO.N,GND*%
X112522000Y-69342000D03*
X110439200Y-68580000D03*
X129692400Y-69951600D03*
X97180400Y-78790800D03*
X124155200Y-63449200D03*
X118008400Y-62484000D03*
X96977200Y-74930000D03*
X95758000Y-74930000D03*
X143219822Y-113456422D03*
X105105200Y-69240400D03*
X145135600Y-99060000D03*
X117043200Y-69037200D03*
X104140000Y-78790800D03*
X145151400Y-95961200D03*
X143103600Y-106578400D03*
X100330000Y-74676000D03*
X135297779Y-69340241D03*
X101447600Y-71221600D03*
%TO.N,VCC*%
X136296400Y-69392800D03*
X129692400Y-68834000D03*
X120573800Y-68300600D03*
X125476000Y-63804800D03*
X144780000Y-79806800D03*
X144627600Y-85648800D03*
X111332654Y-67847854D03*
X113588800Y-69240400D03*
X135686800Y-74117200D03*
X108051600Y-66090800D03*
X96824800Y-71323200D03*
X140766800Y-110693200D03*
D29*
%TO.N,SDA2*%
X101650800Y-77470000D03*
D30*
X132791200Y-75590400D03*
X139446000Y-80772000D03*
D29*
%TO.N,OLED_NRES*%
X143357600Y-105003600D03*
D30*
X111201200Y-77139800D03*
X134264400Y-74472800D03*
X121920000Y-67056000D03*
D29*
X99517200Y-69240400D03*
X98950000Y-76650000D03*
D30*
%TO.N,SCL2*%
X139395200Y-78943200D03*
D29*
X102260400Y-77012800D03*
D30*
X133629400Y-75565000D03*
%TO.N,Net-(JP1-C1P)*%
X143560800Y-109067600D03*
X144170400Y-112369600D03*
D29*
%TO.N,SCL3*%
X102362000Y-71069200D03*
D30*
X131424179Y-66926934D03*
X121920000Y-65278000D03*
D29*
%TO.N,SCL1*%
X142595600Y-104495600D03*
X101100000Y-76900000D03*
X140462000Y-84632800D03*
%TO.N,SDA1*%
X100170000Y-76970000D03*
X141833600Y-103784400D03*
X140614400Y-86715600D03*
%TO.N,SDA3*%
X103022400Y-71475600D03*
D30*
X121259600Y-66395600D03*
X131876800Y-68681600D03*
%TO.N,SCL4*%
X110337600Y-76454000D03*
X108204000Y-68224400D03*
D29*
X101346000Y-74828400D03*
D30*
%TO.N,SDA4*%
X106172000Y-68732400D03*
D29*
X102006400Y-74472800D03*
D30*
X109880400Y-75692000D03*
%TD*%
%TO.N,Net-(JP4-C2P)*%
D31*
X116094800Y-72278800D02*
X116567600Y-72278800D01*
X116567600Y-72278800D02*
X117043200Y-71803200D01*
%TO.N,Net-(JP4-C2N)*%
X115474800Y-71469200D02*
X115620800Y-71323200D01*
X116659600Y-70843200D02*
X117043200Y-70843200D01*
X115620800Y-71323200D02*
X116179600Y-71323200D01*
X116179600Y-71323200D02*
X116659600Y-70843200D01*
X115474800Y-72278800D02*
X115474800Y-71469200D01*
%TO.N,Net-(JP1-VCOMH)*%
X144011600Y-102609600D02*
X143764000Y-102362000D01*
X143764000Y-102362000D02*
X143764000Y-101701600D01*
X143764000Y-101701600D02*
X144373600Y-101092000D01*
X144373600Y-97970400D02*
X145135600Y-97208400D01*
X144805600Y-102609600D02*
X144011600Y-102609600D01*
X144373600Y-101092000D02*
X144373600Y-97970400D01*
%TO.N,GND*%
D32*
X112374800Y-70330000D02*
X112448400Y-70256400D01*
D33*
X95656400Y-78549000D02*
X96938600Y-78549000D01*
D32*
X143888400Y-114125000D02*
X143219822Y-113456422D01*
X100360600Y-70608200D02*
X100342400Y-70590000D01*
X98410600Y-78757700D02*
X97213500Y-78757700D01*
D31*
X105410000Y-70995600D02*
X105410000Y-69850000D01*
D32*
X128676400Y-69263200D02*
X129004000Y-69263200D01*
D31*
X107645200Y-70307200D02*
X107238800Y-69900800D01*
X105410000Y-69545200D02*
X105105200Y-69240400D01*
D32*
X117274400Y-69268400D02*
X117043200Y-69037200D01*
X117043200Y-68196400D02*
X117043200Y-69037200D01*
D31*
X105460800Y-69900800D02*
X105410000Y-69850000D01*
D32*
X140794800Y-114350800D02*
X139620800Y-114350800D01*
X129715200Y-70815200D02*
X129692400Y-70792400D01*
X129692400Y-70792400D02*
X129692400Y-69951600D01*
X135285600Y-70533200D02*
X135359200Y-70459600D01*
X130757200Y-70815200D02*
X129715200Y-70815200D01*
X129692400Y-70792400D02*
X128625600Y-70792400D01*
X100360600Y-73032700D02*
X100360600Y-71628000D01*
X118160800Y-69268400D02*
X117274400Y-69268400D01*
X134315200Y-69674800D02*
X134963220Y-69674800D01*
X100360600Y-73032700D02*
X100360600Y-74645400D01*
X143352400Y-106329600D02*
X143103600Y-106578400D01*
X96977200Y-73835200D02*
X96977200Y-74930000D01*
X123804800Y-61848800D02*
X123804800Y-63098800D01*
X117630000Y-62105600D02*
X118008400Y-62484000D01*
D31*
X108252800Y-70307200D02*
X107645200Y-70307200D01*
D32*
X118160800Y-69268400D02*
X118160800Y-68226400D01*
D31*
X145135600Y-98168400D02*
X145135600Y-99060000D01*
D32*
X123804800Y-63098800D02*
X124155200Y-63449200D01*
X117630000Y-61468000D02*
X117630000Y-62105600D01*
X101041200Y-71628000D02*
X101447600Y-71221600D01*
D31*
X145135600Y-100002400D02*
X145135600Y-99060000D01*
D32*
X110365600Y-70256400D02*
X110365600Y-68653600D01*
X97213500Y-78757700D02*
X97180400Y-78790800D01*
X135359200Y-69401662D02*
X135297779Y-69340241D01*
X135359200Y-70459600D02*
X135359200Y-69401662D01*
X100360600Y-71628000D02*
X100360600Y-70608200D01*
X112448400Y-70256400D02*
X112448400Y-69415600D01*
D31*
X143766000Y-98145600D02*
X143766000Y-97346600D01*
X105410000Y-69850000D02*
X105410000Y-69545200D01*
X106527600Y-71498400D02*
X105912800Y-71498400D01*
D32*
X118160800Y-68226400D02*
X117073200Y-68226400D01*
X99060600Y-78757700D02*
X98410600Y-78757700D01*
X102960600Y-78757700D02*
X104106900Y-78757700D01*
X100360600Y-74645400D02*
X100330000Y-74676000D01*
X144805600Y-106329600D02*
X143352400Y-106329600D01*
X117073200Y-68226400D02*
X117043200Y-68196400D01*
X112374800Y-72278800D02*
X112374800Y-70330000D01*
X143888400Y-114350800D02*
X143888400Y-114125000D01*
D31*
X107238800Y-69900800D02*
X105460800Y-69900800D01*
D32*
X104106900Y-78757700D02*
X104140000Y-78790800D01*
D33*
X96938600Y-78549000D02*
X97180400Y-78790800D01*
D32*
X112448400Y-69415600D02*
X112522000Y-69342000D01*
X95758000Y-73784400D02*
X95758000Y-74930000D01*
X134963220Y-69674800D02*
X135297779Y-69340241D01*
D31*
X143766000Y-97346600D02*
X145151400Y-95961200D01*
D32*
X100360600Y-71628000D02*
X101041200Y-71628000D01*
D31*
X105912800Y-71498400D02*
X105410000Y-70995600D01*
D32*
X110365600Y-68653600D02*
X110439200Y-68580000D01*
X139620800Y-114350800D02*
X138750000Y-113480000D01*
X135285600Y-72278800D02*
X135285600Y-70533200D01*
X129004000Y-69263200D02*
X129692400Y-69951600D01*
%TO.N,VCC*%
D31*
X97586800Y-71272400D02*
X96875600Y-71272400D01*
D32*
X111325600Y-68907600D02*
X111325600Y-70256400D01*
X142951200Y-105714800D02*
X142956400Y-105709600D01*
X129161600Y-68303200D02*
X129692400Y-68834000D01*
D31*
X107188000Y-67348600D02*
X107188000Y-66954400D01*
D32*
X127558800Y-67767200D02*
X127660400Y-67767200D01*
X128196400Y-68303200D02*
X128676400Y-68303200D01*
D31*
X107188000Y-66954400D02*
X108051600Y-66090800D01*
D32*
X134665600Y-72278800D02*
X134665600Y-70985200D01*
D31*
X131001000Y-67868800D02*
X130657600Y-67868800D01*
D32*
X140766800Y-107752000D02*
X141429800Y-107089000D01*
X125044800Y-61848800D02*
X125044800Y-63373600D01*
X111754800Y-72278800D02*
X111754800Y-70685600D01*
X118646000Y-70228400D02*
X118160800Y-70228400D01*
X120573800Y-68300600D02*
X118646000Y-70228400D01*
X123184800Y-67010400D02*
X121894600Y-68300600D01*
X140766800Y-110693200D02*
X140766800Y-107752000D01*
X141910400Y-107569600D02*
X141429800Y-107089000D01*
X113408400Y-69420800D02*
X113588800Y-69240400D01*
X125044800Y-63373600D02*
X125476000Y-63804800D01*
D31*
X109118400Y-67157600D02*
X108051600Y-66090800D01*
D32*
X141754800Y-113713200D02*
X140766800Y-112725200D01*
D31*
X143319000Y-80772000D02*
X143814800Y-80772000D01*
X97840000Y-71019200D02*
X97586800Y-71272400D01*
D32*
X129692400Y-68834000D02*
X130340600Y-68834000D01*
X130340600Y-68834000D02*
X131001000Y-69494400D01*
X126492000Y-65887600D02*
X127558800Y-66954400D01*
X125476000Y-63804800D02*
X126492000Y-64820800D01*
D31*
X97840000Y-70590000D02*
X97840000Y-71019200D01*
D32*
X142804000Y-105714800D02*
X142951200Y-105714800D01*
X123184800Y-61848800D02*
X123184800Y-67010400D01*
X142956400Y-105709600D02*
X144805600Y-105709600D01*
D31*
X143662400Y-84683600D02*
X144627600Y-85648800D01*
D32*
X141754800Y-114350800D02*
X141754800Y-113713200D01*
D31*
X96875600Y-71272400D02*
X96824800Y-71323200D01*
D32*
X126492000Y-64820800D02*
X126492000Y-65887600D01*
X136319200Y-70459600D02*
X136319200Y-69415600D01*
X140766800Y-112725200D02*
X140766800Y-110693200D01*
D31*
X143814800Y-78841600D02*
X144780000Y-79806800D01*
X130657600Y-67868800D02*
X129692400Y-68834000D01*
D32*
X142928400Y-114350800D02*
X141754800Y-114350800D01*
X134665600Y-72278800D02*
X134665600Y-73096000D01*
X136319200Y-69415600D02*
X136296400Y-69392800D01*
X128676400Y-68303200D02*
X129161600Y-68303200D01*
X144805600Y-107569600D02*
X141910400Y-107569600D01*
X111754800Y-70685600D02*
X111325600Y-70256400D01*
X113614800Y-70462800D02*
X113408400Y-70256400D01*
X136525600Y-72278800D02*
X136525600Y-70666000D01*
X113408400Y-70256400D02*
X113408400Y-69420800D01*
D31*
X143382230Y-84683600D02*
X143662400Y-84683600D01*
D32*
X134665600Y-73096000D02*
X135686800Y-74117200D01*
X111332654Y-67847854D02*
X111332654Y-68900546D01*
X121894600Y-68300600D02*
X120573800Y-68300600D01*
X111332654Y-68900546D02*
X111325600Y-68907600D01*
X141429800Y-107089000D02*
X142804000Y-105714800D01*
D31*
X143382230Y-86614000D02*
X143662400Y-86614000D01*
D32*
X134665600Y-70985200D02*
X134315200Y-70634800D01*
D31*
X143814800Y-80772000D02*
X144780000Y-79806800D01*
D32*
X127558800Y-66954400D02*
X127558800Y-67767200D01*
X136525600Y-70666000D02*
X136319200Y-70459600D01*
D31*
X143662400Y-86614000D02*
X144627600Y-85648800D01*
X143319000Y-78841600D02*
X143814800Y-78841600D01*
D32*
X127660400Y-67767200D02*
X128196400Y-68303200D01*
X113614800Y-72278800D02*
X113614800Y-70462800D01*
D31*
X109118400Y-67348600D02*
X109118400Y-67157600D01*
%TO.N,SDA2*%
D33*
X132805600Y-75576000D02*
X132791200Y-75590400D01*
X101650800Y-77470000D02*
X101650800Y-78747900D01*
X139446000Y-80772000D02*
X141669000Y-80772000D01*
X132805600Y-72278800D02*
X132805600Y-75576000D01*
X101650800Y-78747900D02*
X101660600Y-78757700D01*
%TO.N,Net-(JP2-C2P)*%
D31*
X139005600Y-72278800D02*
X139636000Y-72278800D01*
X139636000Y-72278800D02*
X139931200Y-71983600D01*
%TO.N,Net-(JP2-C2N)*%
X138385600Y-73158400D02*
X138633200Y-73406000D01*
X138633200Y-73406000D02*
X139801600Y-73406000D01*
X139801600Y-73406000D02*
X140891200Y-72316400D01*
X140891200Y-72316400D02*
X140891200Y-71983600D01*
X138385600Y-72278800D02*
X138385600Y-73158400D01*
%TO.N,Net-(JP2-C1P)*%
X137765600Y-71581200D02*
X138351200Y-70995600D01*
X137765600Y-72278800D02*
X137765600Y-71581200D01*
X138351200Y-70995600D02*
X138351200Y-70510400D01*
%TO.N,Net-(JP2-C1N)*%
X137145600Y-71388400D02*
X137391200Y-71142800D01*
X137145600Y-72278800D02*
X137145600Y-71388400D01*
X137391200Y-71142800D02*
X137391200Y-70510400D01*
%TO.N,OLED_NRES*%
D33*
X99771200Y-77471200D02*
X99771200Y-78697100D01*
X122580400Y-66395600D02*
X121920000Y-67056000D01*
X122564800Y-61848800D02*
X122564800Y-65008400D01*
X122580400Y-65024000D02*
X122580400Y-66395600D01*
X98950000Y-76650000D02*
X98701000Y-76899000D01*
X98701000Y-76899000D02*
X95656400Y-76899000D01*
X134045600Y-72278800D02*
X134045600Y-74254000D01*
X99840000Y-70590000D02*
X99840000Y-69563200D01*
X122564800Y-65008400D02*
X122580400Y-65024000D01*
X98950000Y-76650000D02*
X99771200Y-77471200D01*
X99771200Y-78697100D02*
X99710600Y-78757700D01*
X111134800Y-72278800D02*
X111134800Y-77073400D01*
X144068800Y-105105200D02*
X144084400Y-105089600D01*
X134045600Y-74254000D02*
X134264400Y-74472800D01*
X144084400Y-105089600D02*
X144805600Y-105089600D01*
X143459200Y-105105200D02*
X144068800Y-105105200D01*
X111134800Y-77073400D02*
X111201200Y-77139800D01*
X143357600Y-105003600D02*
X143459200Y-105105200D01*
X99840000Y-69563200D02*
X99517200Y-69240400D01*
%TO.N,SCL2*%
X133425600Y-72278800D02*
X133425600Y-75361200D01*
X102310600Y-77063000D02*
X102310600Y-78757700D01*
X139395200Y-78943200D02*
X139496800Y-78841600D01*
X139496800Y-78841600D02*
X141669000Y-78841600D01*
X102260400Y-77012800D02*
X102310600Y-77063000D01*
%TO.N,Net-(JP2-IREF)*%
D31*
X132185600Y-72278800D02*
X132185600Y-71223600D01*
X132185600Y-71223600D02*
X131777200Y-70815200D01*
%TO.N,Net-(JP2-VCOMH)*%
X128625600Y-72491600D02*
X128625600Y-71752400D01*
X129540000Y-73406000D02*
X128625600Y-72491600D01*
X131565600Y-72278800D02*
X131565600Y-73056800D01*
X131565600Y-73056800D02*
X131216400Y-73406000D01*
X131216400Y-73406000D02*
X129540000Y-73406000D01*
%TO.N,Net-(JP2-VPP)*%
X130006800Y-72278800D02*
X130945600Y-72278800D01*
X129692400Y-71752400D02*
X129692400Y-71983600D01*
X129997200Y-72288400D02*
X130006800Y-72278800D01*
X129692400Y-71983600D02*
X129997200Y-72288400D01*
%TO.N,Net-(JP1-C1P)*%
X144858800Y-113058000D02*
X144170400Y-112369600D01*
X143560800Y-109067600D02*
X143818800Y-108809600D01*
X145084800Y-113058000D02*
X144858800Y-113058000D01*
X143818800Y-108809600D02*
X144805600Y-108809600D01*
%TO.N,Net-(JP1-C1N)*%
X144904400Y-114018000D02*
X145084800Y-114018000D01*
X142951200Y-108762800D02*
X142951200Y-110286800D01*
X143524400Y-108189600D02*
X142951200Y-108762800D01*
X143560800Y-112674400D02*
X144904400Y-114018000D01*
X144805600Y-108189600D02*
X143524400Y-108189600D01*
X143560800Y-110896400D02*
X143560800Y-112674400D01*
X142951200Y-110286800D02*
X143560800Y-110896400D01*
%TO.N,SCL3*%
D33*
X121944800Y-61848800D02*
X121944800Y-65253200D01*
X131424179Y-66926934D02*
X131709134Y-66926934D01*
X121944800Y-65253200D02*
X121920000Y-65278000D01*
X102310600Y-71120600D02*
X102310600Y-73032700D01*
X102362000Y-71069200D02*
X102310600Y-71120600D01*
X131709134Y-66926934D02*
X132651000Y-67868800D01*
%TO.N,Net-(JP1-IREF)*%
D31*
X143768000Y-103229600D02*
X143306800Y-102768400D01*
X143306800Y-101549200D02*
X143970400Y-100885600D01*
X143970400Y-100885600D02*
X143970400Y-99370000D01*
X144805600Y-103229600D02*
X143768000Y-103229600D01*
X143306800Y-102768400D02*
X143306800Y-101549200D01*
X143970400Y-99370000D02*
X142746000Y-98145600D01*
%TO.N,Net-(JP4-C1P)*%
X114854800Y-72278800D02*
X114854800Y-71378000D01*
X115592800Y-70640000D02*
X115592800Y-70256400D01*
X114854800Y-71378000D02*
X115592800Y-70640000D01*
%TO.N,Net-(JP4-C1N)*%
X114632800Y-70888800D02*
X114632800Y-70256400D01*
X114234800Y-71286800D02*
X114632800Y-70888800D01*
X114234800Y-72278800D02*
X114234800Y-71286800D01*
%TO.N,VDDIO*%
D32*
X98410600Y-73032700D02*
X97134700Y-73032700D01*
X96977200Y-72875200D02*
X95808800Y-72875200D01*
X95808800Y-72875200D02*
X95758000Y-72824400D01*
D31*
X98340000Y-72962100D02*
X98410600Y-73032700D01*
X98340000Y-70590000D02*
X98340000Y-72962100D01*
D32*
X97134700Y-73032700D02*
X96977200Y-72875200D01*
%TO.N,Net-(JP1-VPP)*%
X144805600Y-101989600D02*
X144805600Y-101292400D01*
X144805600Y-101292400D02*
X145135600Y-100962400D01*
%TO.N,Net-(JP3-C2P)*%
D31*
X128704400Y-61417200D02*
X127956400Y-61417200D01*
X127956400Y-61417200D02*
X127524800Y-61848800D01*
%TO.N,Net-(JP3-C2N)*%
X128574800Y-62941200D02*
X127304800Y-62941200D01*
X129664400Y-61417200D02*
X129664400Y-61851600D01*
X127304800Y-62941200D02*
X126904800Y-62541200D01*
X129664400Y-61851600D02*
X128574800Y-62941200D01*
X126904800Y-62541200D02*
X126904800Y-61848800D01*
%TO.N,SCL1*%
D33*
X141681430Y-84632800D02*
X141732230Y-84683600D01*
X142595600Y-104495600D02*
X142900400Y-104495600D01*
X142926400Y-104469600D02*
X144805600Y-104469600D01*
X142900400Y-104495600D02*
X142926400Y-104469600D01*
X101010600Y-78757700D02*
X101010600Y-76989400D01*
X101010600Y-76989400D02*
X101100000Y-76900000D01*
X140462000Y-84632800D02*
X141681430Y-84632800D01*
%TO.N,Net-(JP3-VCOMH)*%
D31*
X120084800Y-64624000D02*
X118821200Y-65887600D01*
X117602000Y-65887600D02*
X117043200Y-66446400D01*
X120084800Y-61848800D02*
X120084800Y-64624000D01*
X118821200Y-65887600D02*
X117602000Y-65887600D01*
X117043200Y-66446400D02*
X117043200Y-67236400D01*
%TO.N,Net-(JP4-IREF)*%
X109274800Y-72278800D02*
X109274800Y-70309200D01*
X109274800Y-70309200D02*
X109272800Y-70307200D01*
%TO.N,Net-(JP1-C2P)*%
X145084800Y-110328800D02*
X144805600Y-110049600D01*
X145084800Y-111026000D02*
X145084800Y-110328800D01*
%TO.N,Net-(JP1-C2N)*%
X143904000Y-109799788D02*
X143916400Y-109787388D01*
X143916400Y-110311812D02*
X143904000Y-110299412D01*
X144164000Y-109429600D02*
X144805600Y-109429600D01*
X143916400Y-109787388D02*
X143916400Y-109677200D01*
X144752000Y-111986000D02*
X144373600Y-111607600D01*
X145084800Y-111986000D02*
X144752000Y-111986000D01*
X144373600Y-110947200D02*
X143916400Y-110490000D01*
X143916400Y-109677200D02*
X144164000Y-109429600D01*
X144373600Y-111607600D02*
X144373600Y-110947200D01*
X143916400Y-110490000D02*
X143916400Y-110311812D01*
X143904000Y-110299412D02*
X143904000Y-109799788D01*
%TO.N,SDA1*%
D33*
X100360600Y-77160600D02*
X100170000Y-76970000D01*
X141833600Y-103784400D02*
X142087600Y-103784400D01*
X142152800Y-103849600D02*
X144805600Y-103849600D01*
X141630630Y-86715600D02*
X141732230Y-86614000D01*
X142087600Y-103784400D02*
X142152800Y-103849600D01*
X100360600Y-78757700D02*
X100360600Y-77160600D01*
X140614400Y-86715600D02*
X141630630Y-86715600D01*
%TO.N,Net-(JP3-VPP)*%
D32*
X118970800Y-61848800D02*
X118590000Y-61468000D01*
X119464800Y-61848800D02*
X118970800Y-61848800D01*
%TO.N,Net-(JP4-VPP)*%
D31*
X108034800Y-72278800D02*
X105733200Y-72278800D01*
X105733200Y-72278800D02*
X105410000Y-71955600D01*
%TO.N,Net-(JP3-C1P)*%
X128168400Y-65735200D02*
X129082800Y-65735200D01*
X129562800Y-66215200D02*
X129562800Y-67208400D01*
X127660400Y-65227200D02*
X128168400Y-65735200D01*
X126284800Y-61848800D02*
X126284800Y-62683200D01*
X129082800Y-65735200D02*
X129562800Y-66215200D01*
X126284800Y-62683200D02*
X127660400Y-64058800D01*
X127660400Y-64058800D02*
X127660400Y-65227200D01*
%TO.N,Net-(JP3-C1N)*%
X128602800Y-67208400D02*
X128602800Y-66474400D01*
X128602800Y-66474400D02*
X128270000Y-66141600D01*
X127812800Y-66141600D02*
X127254000Y-65582800D01*
X125664800Y-62723600D02*
X125664800Y-61848800D01*
X127254000Y-64312800D02*
X125664800Y-62723600D01*
X128270000Y-66141600D02*
X127812800Y-66141600D01*
X127254000Y-65582800D02*
X127254000Y-64312800D01*
%TO.N,SDA3*%
D33*
X131876800Y-68720200D02*
X132651000Y-69494400D01*
X103022400Y-71475600D02*
X102960600Y-71537400D01*
X102960600Y-71537400D02*
X102960600Y-73032700D01*
X121324800Y-66330400D02*
X121259600Y-66395600D01*
X121324800Y-61848800D02*
X121324800Y-66330400D01*
X131876800Y-68681600D02*
X131876800Y-68720200D01*
%TO.N,Net-(JP3-IREF)*%
D31*
X120704800Y-64664400D02*
X120704800Y-61848800D01*
X118160800Y-67206400D02*
X118162800Y-67206400D01*
X118162800Y-67206400D02*
X120704800Y-64664400D01*
%TO.N,SCL4*%
D33*
X110514800Y-76276800D02*
X110337600Y-76454000D01*
X108344200Y-68224400D02*
X109118400Y-68998600D01*
X101346000Y-74625200D02*
X101010600Y-74289800D01*
X108204000Y-68224400D02*
X108344200Y-68224400D01*
X110514800Y-72278800D02*
X110514800Y-76276800D01*
X101346000Y-74828400D02*
X101346000Y-74625200D01*
X101010600Y-74289800D02*
X101010600Y-73032700D01*
%TO.N,Net-(JP4-VCOMH)*%
D31*
X107114400Y-70538400D02*
X106527600Y-70538400D01*
X108559600Y-71120000D02*
X107696000Y-71120000D01*
X108654800Y-71215200D02*
X108559600Y-71120000D01*
X108654800Y-72278800D02*
X108654800Y-71215200D01*
X107696000Y-71120000D02*
X107114400Y-70538400D01*
%TO.N,SDA4*%
D33*
X106921800Y-68732400D02*
X107188000Y-68998600D01*
X106172000Y-68732400D02*
X106921800Y-68732400D01*
X109894800Y-75677600D02*
X109880400Y-75692000D01*
X109894800Y-72278800D02*
X109894800Y-75677600D01*
X101660600Y-74127000D02*
X101660600Y-73032700D01*
X102006400Y-74472800D02*
X101660600Y-74127000D01*
%TO.N,I2C1_SCL*%
D31*
X99340000Y-70590000D02*
X99340000Y-71450800D01*
X99340000Y-71450800D02*
X99710600Y-71821400D01*
X99710600Y-71821400D02*
X99710600Y-73032700D01*
%TO.N,I2C1_SDA*%
X98840000Y-71560400D02*
X99060600Y-71781000D01*
X99060600Y-71781000D02*
X99060600Y-73032700D01*
X98840000Y-70590000D02*
X98840000Y-71560400D01*
%TD*%
M02*
