%TF.GenerationSoftware,KiCad,Pcbnew,10.0.5*%
%TF.CreationDate,2026-09-14T16:49:18+01:00*%
%TF.ProjectId,gk_oled_pcb,676b5f6f-6c65-4645-9f70-63622e6b6963,rev?*%
%TF.SameCoordinates,Original*%
%TF.FileFunction,Copper,L3,Inr*%
%TF.FilePolarity,Positive*%
%FSLAX46Y46*%
G04 Gerber Fmt 4.6, Leading zero omitted, Abs format (unit mm)*
G04 Created by KiCad (PCBNEW 10.0.5) date 2026-09-14 16:49:18*
%MOMM*%
%LPD*%
G01*
G04 APERTURE LIST*
%TA.AperFunction,ComponentPad*%
%ADD10R,1.700000X1.700000*%
%TD*%
%TA.AperFunction,ViaPad*%
%ADD11C,0.800000*%
%TD*%
%TA.AperFunction,ViaPad*%
%ADD12C,0.450000*%
%TD*%
%TA.AperFunction,ViaPad*%
%ADD13C,0.600000*%
%TD*%
G04 APERTURE END LIST*
D10*
%TO.N,GND*%
%TO.C,J3*%
X138750000Y-113480000D03*
%TD*%
%TO.N,GND*%
%TO.C,J2*%
X143116030Y-74218800D03*
%TD*%
%TO.N,N/C*%
%TO.C,J5*%
X105765600Y-78740000D03*
%TD*%
D11*
%TO.N,GND*%
X112522000Y-69342000D03*
X110439200Y-68580000D03*
X129692400Y-69951600D03*
X97180400Y-78790800D03*
X124155200Y-63449200D03*
X118008400Y-62484000D03*
X96977200Y-74930000D03*
X95758000Y-74930000D03*
X143219822Y-113456422D03*
X105105200Y-69240400D03*
X145135600Y-99060000D03*
X117043200Y-69037200D03*
X104140000Y-78790800D03*
X145151400Y-95961200D03*
X143103600Y-106578400D03*
X100330000Y-74676000D03*
X135297779Y-69340241D03*
X101447600Y-71221600D03*
%TO.N,VCC*%
X136296400Y-69392800D03*
X129692400Y-68834000D03*
X120573800Y-68300600D03*
X125476000Y-63804800D03*
X144780000Y-79806800D03*
X144627600Y-85648800D03*
X111332654Y-67847854D03*
X113588800Y-69240400D03*
X135686800Y-74117200D03*
X108051600Y-66090800D03*
X96824800Y-71323200D03*
X140766800Y-110693200D03*
D12*
%TO.N,SDA2*%
X101650800Y-77470000D03*
D13*
X132791200Y-75590400D03*
X139446000Y-80772000D03*
D12*
%TO.N,OLED_NRES*%
X143357600Y-105003600D03*
D13*
X111201200Y-77139800D03*
X134264400Y-74472800D03*
X121920000Y-67056000D03*
D12*
X99517200Y-69240400D03*
X98950000Y-76650000D03*
D13*
%TO.N,SCL2*%
X139395200Y-78943200D03*
D12*
X102260400Y-77012800D03*
D13*
X133629400Y-75565000D03*
%TO.N,Net-(JP1-C1P)*%
X143560800Y-109067600D03*
X144170400Y-112369600D03*
D12*
%TO.N,SCL3*%
X102362000Y-71069200D03*
D13*
X131424179Y-66926934D03*
X121920000Y-65278000D03*
D12*
%TO.N,SCL1*%
X142595600Y-104495600D03*
X101100000Y-76900000D03*
X140462000Y-84632800D03*
%TO.N,SDA1*%
X100170000Y-76970000D03*
X141833600Y-103784400D03*
X140614400Y-86715600D03*
%TO.N,SDA3*%
X103022400Y-71475600D03*
D13*
X121259600Y-66395600D03*
X131876800Y-68681600D03*
%TO.N,SCL4*%
X110337600Y-76454000D03*
X108204000Y-68224400D03*
D12*
X101346000Y-74828400D03*
D13*
%TO.N,SDA4*%
X106172000Y-68732400D03*
D12*
X102006400Y-74472800D03*
D13*
X109880400Y-75692000D03*
%TD*%
%TA.AperFunction,Conductor*%
%TO.N,VCC*%
G36*
X130870543Y-60838631D02*
G01*
X130916298Y-60891435D01*
X130927504Y-60942946D01*
X130927504Y-65933336D01*
X130925749Y-65968132D01*
X130927504Y-65973056D01*
X130927504Y-65978282D01*
X130940833Y-66010461D01*
X130952524Y-66043269D01*
X130956027Y-66047144D01*
X130958028Y-66051974D01*
X130982662Y-66076608D01*
X131000205Y-66096014D01*
X131008487Y-66117527D01*
X131005959Y-66118500D01*
X131019641Y-66146860D01*
X131011159Y-66216213D01*
X130966529Y-66269971D01*
X130966195Y-66270194D01*
X130913892Y-66305142D01*
X130913886Y-66305147D01*
X130802392Y-66416641D01*
X130802389Y-66416645D01*
X130714788Y-66547748D01*
X130714781Y-66547761D01*
X130654443Y-66693432D01*
X130654440Y-66693444D01*
X130623679Y-66848087D01*
X130623679Y-67005780D01*
X130654440Y-67160423D01*
X130654443Y-67160435D01*
X130714781Y-67306106D01*
X130714788Y-67306119D01*
X130802389Y-67437222D01*
X130802392Y-67437226D01*
X130913886Y-67548720D01*
X130913890Y-67548723D01*
X131044993Y-67636324D01*
X131045006Y-67636331D01*
X131145089Y-67677786D01*
X131190682Y-67696671D01*
X131345332Y-67727433D01*
X131345335Y-67727434D01*
X131465162Y-67727434D01*
X131532201Y-67747119D01*
X131577956Y-67799923D01*
X131587900Y-67869081D01*
X131558875Y-67932637D01*
X131512615Y-67965995D01*
X131497624Y-67972204D01*
X131497614Y-67972209D01*
X131366511Y-68059810D01*
X131366507Y-68059813D01*
X131255013Y-68171307D01*
X131255010Y-68171311D01*
X131167409Y-68302414D01*
X131167402Y-68302427D01*
X131107064Y-68448098D01*
X131107061Y-68448110D01*
X131076300Y-68602753D01*
X131076300Y-68760446D01*
X131107061Y-68915089D01*
X131107064Y-68915101D01*
X131167402Y-69060772D01*
X131167409Y-69060785D01*
X131255010Y-69191888D01*
X131255013Y-69191892D01*
X131366507Y-69303386D01*
X131366511Y-69303389D01*
X131497614Y-69390990D01*
X131497627Y-69390997D01*
X131593468Y-69430695D01*
X131643303Y-69451337D01*
X131789909Y-69480499D01*
X131797953Y-69482099D01*
X131797956Y-69482100D01*
X131797958Y-69482100D01*
X131955644Y-69482100D01*
X131955645Y-69482099D01*
X132110297Y-69451337D01*
X132255979Y-69390994D01*
X132387089Y-69303389D01*
X132498589Y-69191889D01*
X132586194Y-69060779D01*
X132646537Y-68915097D01*
X132677300Y-68760442D01*
X132677300Y-68602758D01*
X132677300Y-68602755D01*
X132677299Y-68602753D01*
X132665610Y-68543990D01*
X132646537Y-68448103D01*
X132620112Y-68384306D01*
X132586197Y-68302427D01*
X132586190Y-68302414D01*
X132498589Y-68171311D01*
X132498586Y-68171307D01*
X132387092Y-68059813D01*
X132387088Y-68059810D01*
X132255985Y-67972209D01*
X132255972Y-67972202D01*
X132110301Y-67911864D01*
X132110289Y-67911861D01*
X131955645Y-67881100D01*
X131955642Y-67881100D01*
X131835817Y-67881100D01*
X131768778Y-67861415D01*
X131723023Y-67808611D01*
X131713079Y-67739453D01*
X131742104Y-67675897D01*
X131788364Y-67642539D01*
X131793368Y-67640465D01*
X131803358Y-67636328D01*
X131934468Y-67548723D01*
X132045968Y-67437223D01*
X132133573Y-67306113D01*
X132193916Y-67160431D01*
X132224679Y-67005776D01*
X132224679Y-66876867D01*
X132244364Y-66809828D01*
X132297168Y-66764073D01*
X132366326Y-66754129D01*
X132401836Y-66764839D01*
X134818869Y-67911863D01*
X135433865Y-68203715D01*
X135485991Y-68250241D01*
X135504689Y-68317562D01*
X135484021Y-68384306D01*
X135430551Y-68429280D01*
X135380702Y-68439741D01*
X135209085Y-68439741D01*
X135035120Y-68474344D01*
X135035111Y-68474347D01*
X134871238Y-68542224D01*
X134871225Y-68542231D01*
X134723744Y-68640776D01*
X134723740Y-68640779D01*
X134598317Y-68766202D01*
X134598314Y-68766206D01*
X134499769Y-68913687D01*
X134499762Y-68913700D01*
X134431885Y-69077573D01*
X134431882Y-69077582D01*
X134397279Y-69251545D01*
X134397279Y-69428936D01*
X134431882Y-69602899D01*
X134431885Y-69602908D01*
X134499762Y-69766781D01*
X134499769Y-69766794D01*
X134598314Y-69914275D01*
X134598317Y-69914279D01*
X134723740Y-70039702D01*
X134723744Y-70039705D01*
X134871225Y-70138250D01*
X134871238Y-70138257D01*
X134994142Y-70189164D01*
X135035113Y-70206135D01*
X135035115Y-70206135D01*
X135035120Y-70206137D01*
X135209083Y-70240740D01*
X135209086Y-70240741D01*
X135209088Y-70240741D01*
X135386472Y-70240741D01*
X135386473Y-70240740D01*
X135444461Y-70229205D01*
X135560437Y-70206137D01*
X135560440Y-70206135D01*
X135560445Y-70206135D01*
X135717938Y-70140900D01*
X135724319Y-70138257D01*
X135724319Y-70138256D01*
X135724326Y-70138254D01*
X135871814Y-70039705D01*
X135997243Y-69914276D01*
X136095792Y-69766788D01*
X136163673Y-69602907D01*
X136163811Y-69602216D01*
X136193823Y-69451335D01*
X136198279Y-69428932D01*
X136198279Y-69251550D01*
X136198279Y-69251547D01*
X136198278Y-69251545D01*
X136163675Y-69077582D01*
X136163672Y-69077573D01*
X136095795Y-68913700D01*
X136095788Y-68913687D01*
X135997243Y-68766206D01*
X135997240Y-68766202D01*
X135942834Y-68711796D01*
X135909349Y-68650473D01*
X135914333Y-68580781D01*
X135956205Y-68524848D01*
X136021669Y-68500431D01*
X136083677Y-68512088D01*
X145529668Y-72994766D01*
X145581793Y-73041291D01*
X145600504Y-73106791D01*
X145600504Y-94986952D01*
X145580819Y-95053991D01*
X145528015Y-95099746D01*
X145458857Y-95109690D01*
X145429054Y-95101514D01*
X145414067Y-95095306D01*
X145414058Y-95095303D01*
X145240094Y-95060700D01*
X145240091Y-95060700D01*
X145062709Y-95060700D01*
X145062706Y-95060700D01*
X144888741Y-95095303D01*
X144888732Y-95095306D01*
X144724859Y-95163183D01*
X144724846Y-95163190D01*
X144577365Y-95261735D01*
X144577361Y-95261738D01*
X144451938Y-95387161D01*
X144451935Y-95387165D01*
X144353390Y-95534646D01*
X144353383Y-95534659D01*
X144285506Y-95698532D01*
X144285503Y-95698541D01*
X144250900Y-95872504D01*
X144250900Y-96049895D01*
X144285503Y-96223858D01*
X144285506Y-96223867D01*
X144353383Y-96387740D01*
X144353390Y-96387753D01*
X144451935Y-96535234D01*
X144451938Y-96535238D01*
X144577361Y-96660661D01*
X144577365Y-96660664D01*
X144724846Y-96759209D01*
X144724859Y-96759216D01*
X144847763Y-96810123D01*
X144888734Y-96827094D01*
X144888736Y-96827094D01*
X144888741Y-96827096D01*
X145062704Y-96861699D01*
X145062707Y-96861700D01*
X145062709Y-96861700D01*
X145240093Y-96861700D01*
X145240094Y-96861699D01*
X145298082Y-96850164D01*
X145414058Y-96827096D01*
X145414060Y-96827095D01*
X145414066Y-96827094D01*
X145429051Y-96820886D01*
X145498519Y-96813417D01*
X145560998Y-96844691D01*
X145596652Y-96904779D01*
X145600504Y-96935447D01*
X145600504Y-98092296D01*
X145580819Y-98159335D01*
X145528015Y-98205090D01*
X145458857Y-98215034D01*
X145429054Y-98206858D01*
X145398267Y-98194106D01*
X145398258Y-98194103D01*
X145224294Y-98159500D01*
X145224291Y-98159500D01*
X145046909Y-98159500D01*
X145046906Y-98159500D01*
X144872941Y-98194103D01*
X144872932Y-98194106D01*
X144709059Y-98261983D01*
X144709046Y-98261990D01*
X144561565Y-98360535D01*
X144561561Y-98360538D01*
X144436138Y-98485961D01*
X144436135Y-98485965D01*
X144337590Y-98633446D01*
X144337583Y-98633459D01*
X144269706Y-98797332D01*
X144269703Y-98797341D01*
X144235100Y-98971304D01*
X144235100Y-99148695D01*
X144269703Y-99322658D01*
X144269706Y-99322667D01*
X144337583Y-99486540D01*
X144337590Y-99486553D01*
X144436135Y-99634034D01*
X144436138Y-99634038D01*
X144561561Y-99759461D01*
X144561565Y-99759464D01*
X144709046Y-99858009D01*
X144709059Y-99858016D01*
X144824116Y-99905673D01*
X144872934Y-99925894D01*
X144872936Y-99925894D01*
X144872941Y-99925896D01*
X145046904Y-99960499D01*
X145046907Y-99960500D01*
X145046909Y-99960500D01*
X145224293Y-99960500D01*
X145224294Y-99960499D01*
X145282282Y-99948964D01*
X145398258Y-99925896D01*
X145398261Y-99925894D01*
X145398266Y-99925894D01*
X145429052Y-99913141D01*
X145498521Y-99905673D01*
X145561000Y-99936948D01*
X145596652Y-99997037D01*
X145600504Y-100027703D01*
X145600504Y-114647104D01*
X145580819Y-114714143D01*
X145528015Y-114759898D01*
X145476504Y-114771104D01*
X140142717Y-114771104D01*
X140075678Y-114751419D01*
X140029923Y-114698615D01*
X140019979Y-114629457D01*
X140040257Y-114580502D01*
X140039546Y-114580114D01*
X140043158Y-114573499D01*
X140043451Y-114572792D01*
X140043483Y-114572748D01*
X140043796Y-114572331D01*
X140094091Y-114437483D01*
X140100500Y-114377873D01*
X140100499Y-113367726D01*
X142319322Y-113367726D01*
X142319322Y-113545117D01*
X142353925Y-113719080D01*
X142353928Y-113719089D01*
X142421805Y-113882962D01*
X142421812Y-113882975D01*
X142520357Y-114030456D01*
X142520360Y-114030460D01*
X142645783Y-114155883D01*
X142645787Y-114155886D01*
X142793268Y-114254431D01*
X142793281Y-114254438D01*
X142916185Y-114305345D01*
X142957156Y-114322316D01*
X142957158Y-114322316D01*
X142957163Y-114322318D01*
X143131126Y-114356921D01*
X143131129Y-114356922D01*
X143131131Y-114356922D01*
X143308515Y-114356922D01*
X143308516Y-114356921D01*
X143366504Y-114345386D01*
X143482480Y-114322318D01*
X143482483Y-114322316D01*
X143482488Y-114322316D01*
X143646369Y-114254435D01*
X143793857Y-114155886D01*
X143919286Y-114030457D01*
X144017835Y-113882969D01*
X144085716Y-113719088D01*
X144120322Y-113545113D01*
X144120322Y-113367731D01*
X144120322Y-113367728D01*
X144110488Y-113318292D01*
X144116715Y-113248701D01*
X144159577Y-113193523D01*
X144225467Y-113170278D01*
X144232105Y-113170100D01*
X144249244Y-113170100D01*
X144249245Y-113170099D01*
X144403897Y-113139337D01*
X144549579Y-113078994D01*
X144680689Y-112991389D01*
X144792189Y-112879889D01*
X144879794Y-112748779D01*
X144940137Y-112603097D01*
X144970900Y-112448442D01*
X144970900Y-112290758D01*
X144970900Y-112290755D01*
X144970899Y-112290753D01*
X144958761Y-112229733D01*
X144940137Y-112136103D01*
X144940056Y-112135908D01*
X144879797Y-111990427D01*
X144879790Y-111990414D01*
X144792189Y-111859311D01*
X144792186Y-111859307D01*
X144680692Y-111747813D01*
X144680688Y-111747810D01*
X144549585Y-111660209D01*
X144549572Y-111660202D01*
X144403901Y-111599864D01*
X144403889Y-111599861D01*
X144249245Y-111569100D01*
X144249242Y-111569100D01*
X144091558Y-111569100D01*
X144091555Y-111569100D01*
X143936910Y-111599861D01*
X143936898Y-111599864D01*
X143791227Y-111660202D01*
X143791214Y-111660209D01*
X143660111Y-111747810D01*
X143660107Y-111747813D01*
X143548613Y-111859307D01*
X143548610Y-111859311D01*
X143461009Y-111990414D01*
X143461002Y-111990427D01*
X143400664Y-112136098D01*
X143400661Y-112136110D01*
X143369900Y-112290753D01*
X143369900Y-112431922D01*
X143350215Y-112498961D01*
X143297411Y-112544716D01*
X143245900Y-112555922D01*
X143131128Y-112555922D01*
X142957163Y-112590525D01*
X142957154Y-112590528D01*
X142793281Y-112658405D01*
X142793268Y-112658412D01*
X142645787Y-112756957D01*
X142645783Y-112756960D01*
X142520360Y-112882383D01*
X142520357Y-112882387D01*
X142421812Y-113029868D01*
X142421805Y-113029881D01*
X142353928Y-113193754D01*
X142353925Y-113193763D01*
X142319322Y-113367726D01*
X140100499Y-113367726D01*
X140100499Y-112582128D01*
X140094091Y-112522517D01*
X140085305Y-112498961D01*
X140043797Y-112387671D01*
X140043793Y-112387664D01*
X139957547Y-112272455D01*
X139957544Y-112272452D01*
X139842335Y-112186206D01*
X139842328Y-112186202D01*
X139707482Y-112135908D01*
X139707483Y-112135908D01*
X139647883Y-112129501D01*
X139647881Y-112129500D01*
X139647873Y-112129500D01*
X139647864Y-112129500D01*
X137852129Y-112129500D01*
X137852123Y-112129501D01*
X137792516Y-112135908D01*
X137657671Y-112186202D01*
X137657665Y-112186206D01*
X137599520Y-112229733D01*
X137534056Y-112254150D01*
X137465783Y-112239298D01*
X137416378Y-112189893D01*
X137401210Y-112130479D01*
X137401162Y-111670211D01*
X137420840Y-111603169D01*
X137437476Y-111582522D01*
X138090000Y-110930000D01*
X138090000Y-108988753D01*
X142760300Y-108988753D01*
X142760300Y-109146446D01*
X142791061Y-109301089D01*
X142791064Y-109301101D01*
X142851402Y-109446772D01*
X142851409Y-109446785D01*
X142939010Y-109577888D01*
X142939013Y-109577892D01*
X143050507Y-109689386D01*
X143050511Y-109689389D01*
X143181614Y-109776990D01*
X143181627Y-109776997D01*
X143327298Y-109837335D01*
X143327303Y-109837337D01*
X143481953Y-109868099D01*
X143481956Y-109868100D01*
X143481958Y-109868100D01*
X143639644Y-109868100D01*
X143639645Y-109868099D01*
X143794297Y-109837337D01*
X143939979Y-109776994D01*
X144071089Y-109689389D01*
X144182589Y-109577889D01*
X144270194Y-109446779D01*
X144330537Y-109301097D01*
X144361300Y-109146442D01*
X144361300Y-108988758D01*
X144361300Y-108988755D01*
X144361299Y-108988753D01*
X144330538Y-108834110D01*
X144330537Y-108834103D01*
X144330535Y-108834098D01*
X144270197Y-108688427D01*
X144270190Y-108688414D01*
X144182589Y-108557311D01*
X144182586Y-108557307D01*
X144071092Y-108445813D01*
X144071088Y-108445810D01*
X143939985Y-108358209D01*
X143939972Y-108358202D01*
X143794301Y-108297864D01*
X143794289Y-108297861D01*
X143639645Y-108267100D01*
X143639642Y-108267100D01*
X143481958Y-108267100D01*
X143481955Y-108267100D01*
X143327310Y-108297861D01*
X143327298Y-108297864D01*
X143181627Y-108358202D01*
X143181614Y-108358209D01*
X143050511Y-108445810D01*
X143050507Y-108445813D01*
X142939013Y-108557307D01*
X142939010Y-108557311D01*
X142851409Y-108688414D01*
X142851402Y-108688427D01*
X142791064Y-108834098D01*
X142791061Y-108834110D01*
X142760300Y-108988753D01*
X138090000Y-108988753D01*
X138090000Y-104450000D01*
X137495857Y-103855857D01*
X141108099Y-103855857D01*
X141135979Y-103996014D01*
X141135981Y-103996020D01*
X141190669Y-104128050D01*
X141190674Y-104128059D01*
X141270067Y-104246878D01*
X141270070Y-104246882D01*
X141371117Y-104347929D01*
X141371121Y-104347932D01*
X141489940Y-104427325D01*
X141489946Y-104427328D01*
X141489947Y-104427329D01*
X141621980Y-104482019D01*
X141621984Y-104482019D01*
X141621985Y-104482020D01*
X141762142Y-104509900D01*
X141768205Y-104510497D01*
X141767946Y-104513123D01*
X141824006Y-104529585D01*
X141869761Y-104582389D01*
X141878584Y-104609708D01*
X141897979Y-104707214D01*
X141897981Y-104707220D01*
X141952669Y-104839250D01*
X141952674Y-104839259D01*
X142032067Y-104958078D01*
X142032070Y-104958082D01*
X142133117Y-105059129D01*
X142133121Y-105059132D01*
X142251940Y-105138525D01*
X142251946Y-105138528D01*
X142251947Y-105138529D01*
X142383980Y-105193219D01*
X142383984Y-105193219D01*
X142383985Y-105193220D01*
X142524142Y-105221100D01*
X142524145Y-105221100D01*
X142579563Y-105221100D01*
X142646602Y-105240785D01*
X142692357Y-105293589D01*
X142694105Y-105297603D01*
X142714670Y-105347250D01*
X142714672Y-105347255D01*
X142714674Y-105347259D01*
X142794067Y-105466078D01*
X142794070Y-105466082D01*
X142850820Y-105522832D01*
X142884305Y-105584155D01*
X142879321Y-105653847D01*
X142837449Y-105709780D01*
X142810591Y-105725074D01*
X142677059Y-105780383D01*
X142677046Y-105780390D01*
X142529565Y-105878935D01*
X142529561Y-105878938D01*
X142404138Y-106004361D01*
X142404135Y-106004365D01*
X142305590Y-106151846D01*
X142305583Y-106151859D01*
X142237706Y-106315732D01*
X142237703Y-106315741D01*
X142203100Y-106489704D01*
X142203100Y-106667095D01*
X142237703Y-106841058D01*
X142237706Y-106841067D01*
X142305583Y-107004940D01*
X142305590Y-107004953D01*
X142404135Y-107152434D01*
X142404138Y-107152438D01*
X142529561Y-107277861D01*
X142529565Y-107277864D01*
X142677046Y-107376409D01*
X142677059Y-107376416D01*
X142799963Y-107427323D01*
X142840934Y-107444294D01*
X142840936Y-107444294D01*
X142840941Y-107444296D01*
X143014904Y-107478899D01*
X143014907Y-107478900D01*
X143014909Y-107478900D01*
X143192293Y-107478900D01*
X143192294Y-107478899D01*
X143250282Y-107467364D01*
X143366258Y-107444296D01*
X143366261Y-107444294D01*
X143366266Y-107444294D01*
X143530147Y-107376413D01*
X143677635Y-107277864D01*
X143803064Y-107152435D01*
X143901613Y-107004947D01*
X143969494Y-106841066D01*
X144004100Y-106667091D01*
X144004100Y-106489709D01*
X144004100Y-106489706D01*
X144004099Y-106489704D01*
X143969496Y-106315741D01*
X143969493Y-106315732D01*
X143901616Y-106151859D01*
X143901609Y-106151846D01*
X143803064Y-106004365D01*
X143803061Y-106004361D01*
X143677638Y-105878938D01*
X143677629Y-105878931D01*
X143664846Y-105870389D01*
X143620042Y-105816776D01*
X143611336Y-105747451D01*
X143641493Y-105684424D01*
X143686290Y-105652727D01*
X143701246Y-105646532D01*
X143701246Y-105646531D01*
X143701253Y-105646529D01*
X143820079Y-105567132D01*
X143921132Y-105466079D01*
X144000529Y-105347253D01*
X144055219Y-105215220D01*
X144083100Y-105075055D01*
X144083100Y-104932145D01*
X144083100Y-104932142D01*
X144055220Y-104791985D01*
X144055219Y-104791984D01*
X144055219Y-104791980D01*
X144000529Y-104659947D01*
X144000528Y-104659946D01*
X144000525Y-104659940D01*
X143921132Y-104541121D01*
X143921129Y-104541117D01*
X143820082Y-104440070D01*
X143820078Y-104440067D01*
X143701259Y-104360674D01*
X143701250Y-104360669D01*
X143569220Y-104305981D01*
X143569214Y-104305979D01*
X143429057Y-104278100D01*
X143429055Y-104278100D01*
X143373637Y-104278100D01*
X143306598Y-104258415D01*
X143260843Y-104205611D01*
X143259094Y-104201596D01*
X143238529Y-104151947D01*
X143238527Y-104151944D01*
X143238525Y-104151940D01*
X143159132Y-104033121D01*
X143159129Y-104033117D01*
X143058082Y-103932070D01*
X143058078Y-103932067D01*
X142939259Y-103852674D01*
X142939250Y-103852669D01*
X142807220Y-103797981D01*
X142807214Y-103797979D01*
X142667057Y-103770099D01*
X142660995Y-103769503D01*
X142661253Y-103766876D01*
X142605194Y-103750415D01*
X142559439Y-103697611D01*
X142550616Y-103670292D01*
X142531220Y-103572785D01*
X142531219Y-103572784D01*
X142531219Y-103572780D01*
X142476529Y-103440747D01*
X142476528Y-103440746D01*
X142476525Y-103440740D01*
X142397132Y-103321921D01*
X142397129Y-103321917D01*
X142296082Y-103220870D01*
X142296078Y-103220867D01*
X142177259Y-103141474D01*
X142177250Y-103141469D01*
X142045220Y-103086781D01*
X142045214Y-103086779D01*
X141905057Y-103058900D01*
X141905055Y-103058900D01*
X141762145Y-103058900D01*
X141762143Y-103058900D01*
X141621985Y-103086779D01*
X141621979Y-103086781D01*
X141489949Y-103141469D01*
X141489940Y-103141474D01*
X141371121Y-103220867D01*
X141371117Y-103220870D01*
X141270070Y-103321917D01*
X141270067Y-103321921D01*
X141190674Y-103440740D01*
X141190669Y-103440749D01*
X141135981Y-103572779D01*
X141135979Y-103572785D01*
X141108100Y-103712942D01*
X141108100Y-103712945D01*
X141108100Y-103855855D01*
X141108100Y-103855857D01*
X141108099Y-103855857D01*
X137495857Y-103855857D01*
X137436819Y-103796819D01*
X137422832Y-103771204D01*
X137411706Y-103758364D01*
X137410170Y-103751304D01*
X137405523Y-103744073D01*
X137404631Y-103737872D01*
X137403334Y-103735496D01*
X137400500Y-103709138D01*
X137400500Y-101830394D01*
X137420185Y-101763355D01*
X137457815Y-101725851D01*
X141497235Y-99149319D01*
X141521131Y-99137480D01*
X141521163Y-99137468D01*
X141525622Y-99135829D01*
X141533741Y-99128339D01*
X141551131Y-99114942D01*
X141560446Y-99109002D01*
X141563187Y-99105083D01*
X141580732Y-99084997D01*
X141584253Y-99081750D01*
X141588883Y-99071732D01*
X141599829Y-99052691D01*
X141602135Y-99049393D01*
X141606161Y-99043638D01*
X141607194Y-99038966D01*
X141615716Y-99013695D01*
X142747096Y-96566635D01*
X142756237Y-96550336D01*
X142756331Y-96550108D01*
X142756332Y-96550108D01*
X142769088Y-96519307D01*
X142771099Y-96514718D01*
X142785083Y-96484475D01*
X142785083Y-96484473D01*
X142785191Y-96484240D01*
X142785467Y-96483392D01*
X142785561Y-96482921D01*
X142786645Y-96477996D01*
X142786750Y-96477560D01*
X142786856Y-96476669D01*
X142786856Y-96443097D01*
X142786957Y-96438091D01*
X142788303Y-96404777D01*
X142788302Y-96404774D01*
X142788312Y-96404530D01*
X142786856Y-96385885D01*
X142786856Y-92393835D01*
X142786863Y-92392478D01*
X142786867Y-92392025D01*
X142787281Y-92354333D01*
X142787280Y-92354331D01*
X142787281Y-92354268D01*
X142787193Y-92353826D01*
X142786933Y-92352479D01*
X142786876Y-92352179D01*
X142772256Y-92316883D01*
X142771770Y-92315694D01*
X141624339Y-89457286D01*
X141620980Y-89442472D01*
X141619619Y-89442837D01*
X141616457Y-89431040D01*
X141604312Y-89406420D01*
X141600442Y-89397754D01*
X141598352Y-89392548D01*
X141590211Y-89372266D01*
X141590209Y-89372264D01*
X141585939Y-89365718D01*
X141581172Y-89359506D01*
X141581171Y-89359505D01*
X141560517Y-89341395D01*
X141553646Y-89334889D01*
X141534432Y-89315249D01*
X141534430Y-89315248D01*
X141524352Y-89308353D01*
X141525138Y-89307203D01*
X141512284Y-89299105D01*
X138647272Y-86787057D01*
X139888899Y-86787057D01*
X139916779Y-86927214D01*
X139916781Y-86927220D01*
X139971469Y-87059250D01*
X139971474Y-87059259D01*
X140050867Y-87178078D01*
X140050870Y-87178082D01*
X140151917Y-87279129D01*
X140151921Y-87279132D01*
X140270740Y-87358525D01*
X140270746Y-87358528D01*
X140270747Y-87358529D01*
X140402780Y-87413219D01*
X140402784Y-87413219D01*
X140402785Y-87413220D01*
X140542942Y-87441100D01*
X140542945Y-87441100D01*
X140685857Y-87441100D01*
X140780151Y-87422342D01*
X140826020Y-87413219D01*
X140958053Y-87358529D01*
X141076879Y-87279132D01*
X141177932Y-87178079D01*
X141257329Y-87059253D01*
X141312019Y-86927220D01*
X141339900Y-86787055D01*
X141339900Y-86644145D01*
X141339900Y-86644142D01*
X141312020Y-86503985D01*
X141312019Y-86503984D01*
X141312019Y-86503980D01*
X141257329Y-86371947D01*
X141257328Y-86371946D01*
X141257325Y-86371940D01*
X141177932Y-86253121D01*
X141177929Y-86253117D01*
X141076882Y-86152070D01*
X141076878Y-86152067D01*
X140958059Y-86072674D01*
X140958050Y-86072669D01*
X140826020Y-86017981D01*
X140826014Y-86017979D01*
X140685857Y-85990100D01*
X140685855Y-85990100D01*
X140542945Y-85990100D01*
X140542943Y-85990100D01*
X140402785Y-86017979D01*
X140402779Y-86017981D01*
X140270749Y-86072669D01*
X140270740Y-86072674D01*
X140151921Y-86152067D01*
X140151917Y-86152070D01*
X140050870Y-86253117D01*
X140050867Y-86253121D01*
X139971474Y-86371940D01*
X139971469Y-86371949D01*
X139916781Y-86503979D01*
X139916779Y-86503985D01*
X139888900Y-86644142D01*
X139888900Y-86644145D01*
X139888900Y-86787055D01*
X139888900Y-86787057D01*
X139888899Y-86787057D01*
X138647272Y-86787057D01*
X138583668Y-86731289D01*
X137075250Y-85408705D01*
X137037820Y-85349707D01*
X137033000Y-85315469D01*
X137033000Y-84704257D01*
X139736499Y-84704257D01*
X139764379Y-84844414D01*
X139764381Y-84844420D01*
X139819069Y-84976450D01*
X139819074Y-84976459D01*
X139898467Y-85095278D01*
X139898470Y-85095282D01*
X139999517Y-85196329D01*
X139999521Y-85196332D01*
X140118340Y-85275725D01*
X140118346Y-85275728D01*
X140118347Y-85275729D01*
X140250380Y-85330419D01*
X140250384Y-85330419D01*
X140250385Y-85330420D01*
X140390542Y-85358300D01*
X140390545Y-85358300D01*
X140533457Y-85358300D01*
X140627751Y-85339542D01*
X140673620Y-85330419D01*
X140805653Y-85275729D01*
X140924479Y-85196332D01*
X141025532Y-85095279D01*
X141104929Y-84976453D01*
X141159619Y-84844420D01*
X141187500Y-84704255D01*
X141187500Y-84561345D01*
X141187500Y-84561342D01*
X141159620Y-84421185D01*
X141159619Y-84421184D01*
X141159619Y-84421180D01*
X141104929Y-84289147D01*
X141104928Y-84289146D01*
X141104925Y-84289140D01*
X141025532Y-84170321D01*
X141025529Y-84170317D01*
X140924482Y-84069270D01*
X140924478Y-84069267D01*
X140805659Y-83989874D01*
X140805650Y-83989869D01*
X140673620Y-83935181D01*
X140673614Y-83935179D01*
X140533457Y-83907300D01*
X140533455Y-83907300D01*
X140390545Y-83907300D01*
X140390543Y-83907300D01*
X140250385Y-83935179D01*
X140250379Y-83935181D01*
X140118349Y-83989869D01*
X140118340Y-83989874D01*
X139999521Y-84069267D01*
X139999517Y-84069270D01*
X139898470Y-84170317D01*
X139898467Y-84170321D01*
X139819074Y-84289140D01*
X139819069Y-84289149D01*
X139764381Y-84421179D01*
X139764379Y-84421185D01*
X139736500Y-84561342D01*
X139736500Y-84561345D01*
X139736500Y-84704255D01*
X139736500Y-84704257D01*
X139736499Y-84704257D01*
X137033000Y-84704257D01*
X137033000Y-84582000D01*
X133985000Y-81534000D01*
X132877795Y-81534000D01*
X132810756Y-81514315D01*
X132783722Y-81490785D01*
X132775657Y-81481394D01*
X132181081Y-80789018D01*
X132170312Y-80774446D01*
X132123609Y-80700494D01*
X130964027Y-78864353D01*
X138594700Y-78864353D01*
X138594700Y-79022046D01*
X138625461Y-79176689D01*
X138625464Y-79176701D01*
X138685802Y-79322372D01*
X138685809Y-79322385D01*
X138773410Y-79453488D01*
X138773413Y-79453492D01*
X138884907Y-79564986D01*
X138884911Y-79564989D01*
X139016014Y-79652590D01*
X139016027Y-79652597D01*
X139109466Y-79691300D01*
X139161703Y-79712937D01*
X139248691Y-79730240D01*
X139302959Y-79741035D01*
X139364870Y-79773420D01*
X139399444Y-79834135D01*
X139395705Y-79903905D01*
X139354838Y-79960577D01*
X139302960Y-79984269D01*
X139212508Y-80002261D01*
X139212498Y-80002264D01*
X139066827Y-80062602D01*
X139066814Y-80062609D01*
X138935711Y-80150210D01*
X138935707Y-80150213D01*
X138824213Y-80261707D01*
X138824210Y-80261711D01*
X138736609Y-80392814D01*
X138736602Y-80392827D01*
X138676264Y-80538498D01*
X138676261Y-80538510D01*
X138645500Y-80693153D01*
X138645500Y-80850846D01*
X138676261Y-81005489D01*
X138676264Y-81005501D01*
X138736602Y-81151172D01*
X138736609Y-81151185D01*
X138824210Y-81282288D01*
X138824213Y-81282292D01*
X138935707Y-81393786D01*
X138935711Y-81393789D01*
X139066814Y-81481390D01*
X139066827Y-81481397D01*
X139193824Y-81534000D01*
X139212503Y-81541737D01*
X139367153Y-81572499D01*
X139367156Y-81572500D01*
X139367158Y-81572500D01*
X139524844Y-81572500D01*
X139524845Y-81572499D01*
X139679497Y-81541737D01*
X139825179Y-81481394D01*
X139956289Y-81393789D01*
X140067789Y-81282289D01*
X140155394Y-81151179D01*
X140215737Y-81005497D01*
X140246500Y-80850842D01*
X140246500Y-80693158D01*
X140246500Y-80693155D01*
X140246499Y-80693153D01*
X140215738Y-80538510D01*
X140215737Y-80538503D01*
X140215735Y-80538498D01*
X140155397Y-80392827D01*
X140155390Y-80392814D01*
X140067789Y-80261711D01*
X140067786Y-80261707D01*
X139956292Y-80150213D01*
X139956288Y-80150210D01*
X139825185Y-80062609D01*
X139825172Y-80062602D01*
X139679501Y-80002264D01*
X139679491Y-80002261D01*
X139538239Y-79974164D01*
X139476328Y-79941779D01*
X139441754Y-79881063D01*
X139445494Y-79811294D01*
X139486361Y-79754622D01*
X139538239Y-79730930D01*
X139628697Y-79712937D01*
X139774379Y-79652594D01*
X139905489Y-79564989D01*
X140016989Y-79453489D01*
X140104594Y-79322379D01*
X140164937Y-79176697D01*
X140195700Y-79022042D01*
X140195700Y-78864358D01*
X140195700Y-78864355D01*
X140195699Y-78864353D01*
X140164938Y-78709710D01*
X140164937Y-78709703D01*
X140164935Y-78709698D01*
X140104597Y-78564027D01*
X140104590Y-78564014D01*
X140016989Y-78432911D01*
X140016986Y-78432907D01*
X139905492Y-78321413D01*
X139905488Y-78321410D01*
X139774385Y-78233809D01*
X139774372Y-78233802D01*
X139628701Y-78173464D01*
X139628689Y-78173461D01*
X139474045Y-78142700D01*
X139474042Y-78142700D01*
X139316358Y-78142700D01*
X139316355Y-78142700D01*
X139161710Y-78173461D01*
X139161698Y-78173464D01*
X139016027Y-78233802D01*
X139016014Y-78233809D01*
X138884911Y-78321410D01*
X138884907Y-78321413D01*
X138773413Y-78432907D01*
X138773410Y-78432911D01*
X138685809Y-78564014D01*
X138685802Y-78564027D01*
X138625464Y-78709698D01*
X138625461Y-78709710D01*
X138594700Y-78864353D01*
X130964027Y-78864353D01*
X129576607Y-76667441D01*
X129566964Y-76645139D01*
X129555508Y-76634032D01*
X129546990Y-76620543D01*
X129527143Y-76606528D01*
X129509699Y-76589615D01*
X129494866Y-76583737D01*
X129481832Y-76574534D01*
X129458131Y-76569181D01*
X129430858Y-76558374D01*
X129430857Y-76558373D01*
X127064574Y-75620746D01*
X126789004Y-75511553D01*
X131990700Y-75511553D01*
X131990700Y-75669246D01*
X132021461Y-75823889D01*
X132021464Y-75823901D01*
X132081802Y-75969572D01*
X132081809Y-75969585D01*
X132169410Y-76100688D01*
X132169413Y-76100692D01*
X132280907Y-76212186D01*
X132280911Y-76212189D01*
X132412014Y-76299790D01*
X132412027Y-76299797D01*
X132557698Y-76360135D01*
X132557703Y-76360137D01*
X132700509Y-76388543D01*
X132712353Y-76390899D01*
X132712356Y-76390900D01*
X132712358Y-76390900D01*
X132870044Y-76390900D01*
X132870045Y-76390899D01*
X133024697Y-76360137D01*
X133170379Y-76299794D01*
X133170384Y-76299790D01*
X133175752Y-76296922D01*
X133176475Y-76298276D01*
X133235946Y-76279643D01*
X133285632Y-76289061D01*
X133395903Y-76334737D01*
X133538910Y-76363183D01*
X133550553Y-76365499D01*
X133550556Y-76365500D01*
X133550558Y-76365500D01*
X133708244Y-76365500D01*
X133708245Y-76365499D01*
X133862897Y-76334737D01*
X134008579Y-76274394D01*
X134139689Y-76186789D01*
X134251189Y-76075289D01*
X134338794Y-75944179D01*
X134399137Y-75798497D01*
X134429900Y-75643842D01*
X134429900Y-75486158D01*
X134429900Y-75486155D01*
X134411157Y-75391932D01*
X134409993Y-75386079D01*
X134416220Y-75316490D01*
X134459082Y-75261312D01*
X134492275Y-75244882D01*
X134492269Y-75244868D01*
X134492492Y-75244775D01*
X134495621Y-75243227D01*
X134497890Y-75242538D01*
X134497897Y-75242537D01*
X134643579Y-75182194D01*
X134774689Y-75094589D01*
X134886189Y-74983089D01*
X134973794Y-74851979D01*
X135034137Y-74706297D01*
X135064900Y-74551642D01*
X135064900Y-74393958D01*
X135064900Y-74393955D01*
X135064899Y-74393953D01*
X135039467Y-74266101D01*
X135034137Y-74239303D01*
X135034135Y-74239298D01*
X134973797Y-74093627D01*
X134973790Y-74093614D01*
X134886189Y-73962511D01*
X134886186Y-73962507D01*
X134774692Y-73851013D01*
X134774688Y-73851010D01*
X134643585Y-73763409D01*
X134643572Y-73763402D01*
X134497901Y-73703064D01*
X134497889Y-73703061D01*
X134343245Y-73672300D01*
X134343242Y-73672300D01*
X134185558Y-73672300D01*
X134185555Y-73672300D01*
X134030910Y-73703061D01*
X134030898Y-73703064D01*
X133885227Y-73763402D01*
X133885214Y-73763409D01*
X133754111Y-73851010D01*
X133754107Y-73851013D01*
X133642613Y-73962507D01*
X133642610Y-73962511D01*
X133555009Y-74093614D01*
X133555002Y-74093627D01*
X133494664Y-74239298D01*
X133494661Y-74239310D01*
X133463900Y-74393953D01*
X133463900Y-74551646D01*
X133483806Y-74651719D01*
X133477579Y-74721310D01*
X133434716Y-74776488D01*
X133401524Y-74792918D01*
X133401530Y-74792932D01*
X133401327Y-74793015D01*
X133398192Y-74794568D01*
X133395905Y-74795261D01*
X133250228Y-74855602D01*
X133244847Y-74858479D01*
X133244126Y-74857131D01*
X133184609Y-74875757D01*
X133134966Y-74866337D01*
X133024701Y-74820664D01*
X133024689Y-74820661D01*
X132870045Y-74789900D01*
X132870042Y-74789900D01*
X132712358Y-74789900D01*
X132712355Y-74789900D01*
X132557710Y-74820661D01*
X132557698Y-74820664D01*
X132412027Y-74881002D01*
X132412014Y-74881009D01*
X132280911Y-74968610D01*
X132280907Y-74968613D01*
X132169413Y-75080107D01*
X132169410Y-75080111D01*
X132081809Y-75211214D01*
X132081802Y-75211227D01*
X132021464Y-75356898D01*
X132021461Y-75356910D01*
X131990700Y-75511553D01*
X126789004Y-75511553D01*
X125002896Y-74803817D01*
X125001123Y-74803098D01*
X124966531Y-74788770D01*
X124965990Y-74788671D01*
X124964123Y-74788315D01*
X124963654Y-74788221D01*
X124926160Y-74788801D01*
X124924245Y-74788816D01*
X120770141Y-74788816D01*
X120749777Y-74784892D01*
X120730649Y-74788816D01*
X120711119Y-74788816D01*
X120691956Y-74796753D01*
X120671640Y-74800921D01*
X120655468Y-74811866D01*
X120637427Y-74819340D01*
X120622761Y-74834005D01*
X120597573Y-74851054D01*
X120597570Y-74851055D01*
X117740092Y-76785206D01*
X117733637Y-76788768D01*
X117697095Y-76814292D01*
X117695602Y-76815319D01*
X117664496Y-76836375D01*
X117664142Y-76836745D01*
X117662874Y-76838047D01*
X117662546Y-76838378D01*
X117642326Y-76870037D01*
X117641338Y-76871559D01*
X117616801Y-76908763D01*
X117613419Y-76915297D01*
X115233106Y-80642257D01*
X115180431Y-80688161D01*
X115128611Y-80699513D01*
X102421862Y-80700490D01*
X102354821Y-80680811D01*
X102334171Y-80664171D01*
X101840000Y-80170000D01*
X97560000Y-80170000D01*
X97559999Y-80170000D01*
X97065410Y-80664588D01*
X97004087Y-80698073D01*
X96977739Y-80700907D01*
X94824510Y-80701074D01*
X94757469Y-80681395D01*
X94711710Y-80628594D01*
X94700500Y-80577074D01*
X94700500Y-78702104D01*
X96279900Y-78702104D01*
X96279900Y-78879495D01*
X96314503Y-79053458D01*
X96314506Y-79053467D01*
X96382383Y-79217340D01*
X96382390Y-79217353D01*
X96480935Y-79364834D01*
X96480938Y-79364838D01*
X96606361Y-79490261D01*
X96606365Y-79490264D01*
X96753846Y-79588809D01*
X96753859Y-79588816D01*
X96872274Y-79637864D01*
X96917734Y-79656694D01*
X96917736Y-79656694D01*
X96917741Y-79656696D01*
X97091704Y-79691299D01*
X97091707Y-79691300D01*
X97091709Y-79691300D01*
X97269093Y-79691300D01*
X97269094Y-79691299D01*
X97342947Y-79676609D01*
X97443058Y-79656696D01*
X97443061Y-79656694D01*
X97443066Y-79656694D01*
X97606947Y-79588813D01*
X97754435Y-79490264D01*
X97879864Y-79364835D01*
X97978413Y-79217347D01*
X98046294Y-79053466D01*
X98052545Y-79022044D01*
X98080899Y-78879495D01*
X98080900Y-78879493D01*
X98080900Y-78702106D01*
X98080899Y-78702104D01*
X103239500Y-78702104D01*
X103239500Y-78879495D01*
X103274103Y-79053458D01*
X103274106Y-79053467D01*
X103341983Y-79217340D01*
X103341990Y-79217353D01*
X103440535Y-79364834D01*
X103440538Y-79364838D01*
X103565961Y-79490261D01*
X103565965Y-79490264D01*
X103713446Y-79588809D01*
X103713459Y-79588816D01*
X103831874Y-79637864D01*
X103877334Y-79656694D01*
X103877336Y-79656694D01*
X103877341Y-79656696D01*
X104051304Y-79691299D01*
X104051307Y-79691300D01*
X104051309Y-79691300D01*
X104228693Y-79691300D01*
X104302547Y-79676609D01*
X104372139Y-79682836D01*
X104427316Y-79725698D01*
X104442921Y-79754893D01*
X104471802Y-79832328D01*
X104471806Y-79832335D01*
X104558052Y-79947544D01*
X104558055Y-79947547D01*
X104673264Y-80033793D01*
X104673271Y-80033797D01*
X104808117Y-80084091D01*
X104808116Y-80084091D01*
X104815044Y-80084835D01*
X104867727Y-80090500D01*
X106663472Y-80090499D01*
X106723083Y-80084091D01*
X106857931Y-80033796D01*
X106973146Y-79947546D01*
X107059396Y-79832331D01*
X107109691Y-79697483D01*
X107116100Y-79637873D01*
X107116099Y-77842128D01*
X107109691Y-77782517D01*
X107101885Y-77761589D01*
X107059397Y-77647671D01*
X107059393Y-77647664D01*
X106973147Y-77532455D01*
X106973144Y-77532452D01*
X106857935Y-77446206D01*
X106857928Y-77446202D01*
X106723082Y-77395908D01*
X106723083Y-77395908D01*
X106663483Y-77389501D01*
X106663481Y-77389500D01*
X106663473Y-77389500D01*
X106663464Y-77389500D01*
X104867729Y-77389500D01*
X104867723Y-77389501D01*
X104808116Y-77395908D01*
X104673271Y-77446202D01*
X104673264Y-77446206D01*
X104558055Y-77532452D01*
X104558052Y-77532455D01*
X104471806Y-77647664D01*
X104471802Y-77647671D01*
X104421509Y-77782516D01*
X104420620Y-77790783D01*
X104393880Y-77855333D01*
X104336486Y-77895180D01*
X104273139Y-77899141D01*
X104228693Y-77890300D01*
X104228691Y-77890300D01*
X104051309Y-77890300D01*
X104051306Y-77890300D01*
X103877341Y-77924903D01*
X103877332Y-77924906D01*
X103713459Y-77992783D01*
X103713446Y-77992790D01*
X103565965Y-78091335D01*
X103565961Y-78091338D01*
X103440538Y-78216761D01*
X103440535Y-78216765D01*
X103341990Y-78364246D01*
X103341983Y-78364259D01*
X103274106Y-78528132D01*
X103274103Y-78528141D01*
X103239500Y-78702104D01*
X98080899Y-78702104D01*
X98046296Y-78528141D01*
X98046293Y-78528132D01*
X97978416Y-78364259D01*
X97978409Y-78364246D01*
X97879864Y-78216765D01*
X97879861Y-78216761D01*
X97754438Y-78091338D01*
X97754434Y-78091335D01*
X97606953Y-77992790D01*
X97606940Y-77992783D01*
X97443067Y-77924906D01*
X97443058Y-77924903D01*
X97269094Y-77890300D01*
X97269091Y-77890300D01*
X97091709Y-77890300D01*
X97091706Y-77890300D01*
X96917741Y-77924903D01*
X96917732Y-77924906D01*
X96753859Y-77992783D01*
X96753846Y-77992790D01*
X96606365Y-78091335D01*
X96606361Y-78091338D01*
X96480938Y-78216761D01*
X96480935Y-78216765D01*
X96382390Y-78364246D01*
X96382383Y-78364259D01*
X96314506Y-78528132D01*
X96314503Y-78528141D01*
X96279900Y-78702104D01*
X94700500Y-78702104D01*
X94700500Y-76721457D01*
X98224499Y-76721457D01*
X98252379Y-76861614D01*
X98252381Y-76861620D01*
X98307069Y-76993650D01*
X98307074Y-76993659D01*
X98386467Y-77112478D01*
X98386470Y-77112482D01*
X98487517Y-77213529D01*
X98487521Y-77213532D01*
X98606340Y-77292925D01*
X98606346Y-77292928D01*
X98606347Y-77292929D01*
X98738380Y-77347619D01*
X98738384Y-77347619D01*
X98738385Y-77347620D01*
X98878542Y-77375500D01*
X98878545Y-77375500D01*
X99021457Y-77375500D01*
X99117224Y-77356450D01*
X99161620Y-77347619D01*
X99293653Y-77292929D01*
X99293658Y-77292925D01*
X99293661Y-77292924D01*
X99344117Y-77259210D01*
X99410794Y-77238331D01*
X99478174Y-77256815D01*
X99524865Y-77308793D01*
X99526838Y-77313217D01*
X99527074Y-77313659D01*
X99606467Y-77432478D01*
X99606470Y-77432482D01*
X99707517Y-77533529D01*
X99707521Y-77533532D01*
X99826340Y-77612925D01*
X99826346Y-77612928D01*
X99826347Y-77612929D01*
X99958380Y-77667619D01*
X99958384Y-77667619D01*
X99958385Y-77667620D01*
X100098542Y-77695500D01*
X100098545Y-77695500D01*
X100241457Y-77695500D01*
X100340552Y-77675788D01*
X100381620Y-77667619D01*
X100513653Y-77612929D01*
X100618490Y-77542878D01*
X100685167Y-77522001D01*
X100752547Y-77540485D01*
X100756279Y-77542884D01*
X100756342Y-77542926D01*
X100756353Y-77542932D01*
X100815583Y-77567465D01*
X100879556Y-77593964D01*
X100933959Y-77637803D01*
X100950242Y-77676142D01*
X100951412Y-77675788D01*
X100953181Y-77681620D01*
X101007869Y-77813650D01*
X101007874Y-77813659D01*
X101087267Y-77932478D01*
X101087270Y-77932482D01*
X101188317Y-78033529D01*
X101188321Y-78033532D01*
X101307140Y-78112925D01*
X101307146Y-78112928D01*
X101307147Y-78112929D01*
X101439180Y-78167619D01*
X101439184Y-78167619D01*
X101439185Y-78167620D01*
X101579342Y-78195500D01*
X101579345Y-78195500D01*
X101722257Y-78195500D01*
X101816551Y-78176742D01*
X101862420Y-78167619D01*
X101994453Y-78112929D01*
X102113279Y-78033532D01*
X102214332Y-77932479D01*
X102293729Y-77813653D01*
X102298954Y-77801037D01*
X102342792Y-77746632D01*
X102389325Y-77726868D01*
X102472020Y-77710419D01*
X102604053Y-77655729D01*
X102722879Y-77576332D01*
X102823932Y-77475279D01*
X102903329Y-77356453D01*
X102958019Y-77224420D01*
X102985900Y-77084255D01*
X102985900Y-76941345D01*
X102985900Y-76941342D01*
X102958020Y-76801185D01*
X102958019Y-76801184D01*
X102958019Y-76801180D01*
X102912897Y-76692245D01*
X102903330Y-76669149D01*
X102903325Y-76669140D01*
X102823932Y-76550321D01*
X102823929Y-76550317D01*
X102722882Y-76449270D01*
X102722878Y-76449267D01*
X102604059Y-76369874D01*
X102604050Y-76369869D01*
X102472020Y-76315181D01*
X102472014Y-76315179D01*
X102331857Y-76287300D01*
X102331855Y-76287300D01*
X102188945Y-76287300D01*
X102188943Y-76287300D01*
X102048785Y-76315179D01*
X102048779Y-76315181D01*
X101916749Y-76369869D01*
X101916742Y-76369873D01*
X101809015Y-76441854D01*
X101742338Y-76462731D01*
X101674958Y-76444246D01*
X101652444Y-76426432D01*
X101562482Y-76336470D01*
X101562478Y-76336467D01*
X101443659Y-76257074D01*
X101443650Y-76257069D01*
X101311620Y-76202381D01*
X101311614Y-76202379D01*
X101171457Y-76174500D01*
X101171455Y-76174500D01*
X101028545Y-76174500D01*
X101028543Y-76174500D01*
X100888385Y-76202379D01*
X100888379Y-76202381D01*
X100756349Y-76257069D01*
X100756342Y-76257073D01*
X100651508Y-76327121D01*
X100584831Y-76347998D01*
X100517451Y-76329513D01*
X100513724Y-76327118D01*
X100513657Y-76327073D01*
X100513650Y-76327069D01*
X100381620Y-76272381D01*
X100381614Y-76272379D01*
X100241457Y-76244500D01*
X100241455Y-76244500D01*
X100098545Y-76244500D01*
X100098543Y-76244500D01*
X99958385Y-76272379D01*
X99958379Y-76272381D01*
X99826349Y-76327069D01*
X99826342Y-76327073D01*
X99775880Y-76360791D01*
X99709202Y-76381668D01*
X99641822Y-76363183D01*
X99595133Y-76311204D01*
X99593161Y-76306782D01*
X99592925Y-76306340D01*
X99513532Y-76187521D01*
X99513529Y-76187517D01*
X99412482Y-76086470D01*
X99412478Y-76086467D01*
X99293659Y-76007074D01*
X99293650Y-76007069D01*
X99161620Y-75952381D01*
X99161614Y-75952379D01*
X99021457Y-75924500D01*
X99021455Y-75924500D01*
X98878545Y-75924500D01*
X98878543Y-75924500D01*
X98738385Y-75952379D01*
X98738379Y-75952381D01*
X98606349Y-76007069D01*
X98606340Y-76007074D01*
X98487521Y-76086467D01*
X98487517Y-76086470D01*
X98386470Y-76187517D01*
X98386467Y-76187521D01*
X98307074Y-76306340D01*
X98307069Y-76306349D01*
X98252381Y-76438379D01*
X98252379Y-76438385D01*
X98224500Y-76578542D01*
X98224500Y-76578545D01*
X98224500Y-76721455D01*
X98224500Y-76721457D01*
X98224499Y-76721457D01*
X94700500Y-76721457D01*
X94700500Y-75353479D01*
X94720185Y-75286440D01*
X94772989Y-75240685D01*
X94842147Y-75230741D01*
X94905703Y-75259766D01*
X94939060Y-75306024D01*
X94949614Y-75331503D01*
X94959988Y-75356549D01*
X94959990Y-75356553D01*
X95058535Y-75504034D01*
X95058538Y-75504038D01*
X95183961Y-75629461D01*
X95183965Y-75629464D01*
X95331446Y-75728009D01*
X95331459Y-75728016D01*
X95371512Y-75744606D01*
X95495334Y-75795894D01*
X95495336Y-75795894D01*
X95495341Y-75795896D01*
X95669304Y-75830499D01*
X95669307Y-75830500D01*
X95669309Y-75830500D01*
X95846693Y-75830500D01*
X95846694Y-75830499D01*
X95904682Y-75818964D01*
X96020658Y-75795896D01*
X96020661Y-75795894D01*
X96020666Y-75795894D01*
X96184547Y-75728013D01*
X96298709Y-75651732D01*
X96365386Y-75630854D01*
X96432766Y-75649338D01*
X96436491Y-75651732D01*
X96514480Y-75703843D01*
X96550653Y-75728013D01*
X96550655Y-75728014D01*
X96550659Y-75728016D01*
X96590712Y-75744606D01*
X96714534Y-75795894D01*
X96714536Y-75795894D01*
X96714541Y-75795896D01*
X96888504Y-75830499D01*
X96888507Y-75830500D01*
X96888509Y-75830500D01*
X97065893Y-75830500D01*
X97065894Y-75830499D01*
X97123882Y-75818964D01*
X97239858Y-75795896D01*
X97239861Y-75795894D01*
X97239866Y-75795894D01*
X97403747Y-75728013D01*
X97551235Y-75629464D01*
X97567546Y-75613153D01*
X109079900Y-75613153D01*
X109079900Y-75770846D01*
X109110661Y-75925489D01*
X109110664Y-75925501D01*
X109171002Y-76071172D01*
X109171009Y-76071185D01*
X109258610Y-76202288D01*
X109258613Y-76202292D01*
X109370108Y-76313787D01*
X109370111Y-76313789D01*
X109481992Y-76388545D01*
X109526795Y-76442155D01*
X109537100Y-76491646D01*
X109537100Y-76532846D01*
X109567861Y-76687489D01*
X109567864Y-76687501D01*
X109628202Y-76833172D01*
X109628209Y-76833185D01*
X109715810Y-76964288D01*
X109715813Y-76964292D01*
X109827307Y-77075786D01*
X109827311Y-77075789D01*
X109958414Y-77163390D01*
X109958427Y-77163397D01*
X110091802Y-77218642D01*
X110104103Y-77223737D01*
X110258753Y-77254499D01*
X110258756Y-77254500D01*
X110258758Y-77254500D01*
X110306069Y-77254500D01*
X110373108Y-77274185D01*
X110418863Y-77326989D01*
X110427685Y-77354306D01*
X110428112Y-77356450D01*
X110431462Y-77373295D01*
X110431463Y-77373298D01*
X110491802Y-77518972D01*
X110491809Y-77518985D01*
X110579410Y-77650088D01*
X110579413Y-77650092D01*
X110690907Y-77761586D01*
X110690911Y-77761589D01*
X110822014Y-77849190D01*
X110822027Y-77849197D01*
X110967698Y-77909535D01*
X110967703Y-77909537D01*
X111083055Y-77932482D01*
X111122353Y-77940299D01*
X111122356Y-77940300D01*
X111122358Y-77940300D01*
X111280044Y-77940300D01*
X111280045Y-77940299D01*
X111434697Y-77909537D01*
X111580379Y-77849194D01*
X111711489Y-77761589D01*
X111822989Y-77650089D01*
X111910594Y-77518979D01*
X111970937Y-77373297D01*
X112001700Y-77218642D01*
X112001700Y-77060958D01*
X112001700Y-77060955D01*
X112001699Y-77060953D01*
X111988312Y-76993653D01*
X111970937Y-76906303D01*
X111952429Y-76861620D01*
X111910597Y-76760627D01*
X111910590Y-76760614D01*
X111822989Y-76629511D01*
X111822986Y-76629507D01*
X111711492Y-76518013D01*
X111711488Y-76518010D01*
X111580385Y-76430409D01*
X111580372Y-76430402D01*
X111434701Y-76370064D01*
X111434689Y-76370061D01*
X111280045Y-76339300D01*
X111280042Y-76339300D01*
X111232731Y-76339300D01*
X111165692Y-76319615D01*
X111119937Y-76266811D01*
X111111114Y-76239493D01*
X111107337Y-76220503D01*
X111057709Y-76100689D01*
X111046997Y-76074827D01*
X111046990Y-76074814D01*
X110959389Y-75943711D01*
X110959386Y-75943707D01*
X110847889Y-75832210D01*
X110736009Y-75757455D01*
X110691204Y-75703843D01*
X110680900Y-75654353D01*
X110680900Y-75613155D01*
X110680899Y-75613153D01*
X110666725Y-75541896D01*
X110650137Y-75458503D01*
X110636817Y-75426346D01*
X110589797Y-75312827D01*
X110589790Y-75312814D01*
X110502189Y-75181711D01*
X110502186Y-75181707D01*
X110390692Y-75070213D01*
X110390688Y-75070210D01*
X110259585Y-74982609D01*
X110259572Y-74982602D01*
X110113901Y-74922264D01*
X110113889Y-74922261D01*
X109959245Y-74891500D01*
X109959242Y-74891500D01*
X109801558Y-74891500D01*
X109801555Y-74891500D01*
X109646910Y-74922261D01*
X109646898Y-74922264D01*
X109501227Y-74982602D01*
X109501214Y-74982609D01*
X109370111Y-75070210D01*
X109370107Y-75070213D01*
X109258613Y-75181707D01*
X109258610Y-75181711D01*
X109171009Y-75312814D01*
X109171002Y-75312827D01*
X109110664Y-75458498D01*
X109110661Y-75458510D01*
X109079900Y-75613153D01*
X97567546Y-75613153D01*
X97676664Y-75504035D01*
X97775213Y-75356547D01*
X97843094Y-75192666D01*
X97845177Y-75182197D01*
X97874191Y-75036332D01*
X97877700Y-75018691D01*
X97877700Y-74841309D01*
X97877700Y-74841306D01*
X97877699Y-74841304D01*
X97843096Y-74667341D01*
X97843094Y-74667338D01*
X97843094Y-74667334D01*
X97809945Y-74587304D01*
X99429500Y-74587304D01*
X99429500Y-74764695D01*
X99464103Y-74938658D01*
X99464106Y-74938667D01*
X99531983Y-75102540D01*
X99531990Y-75102553D01*
X99630535Y-75250034D01*
X99630538Y-75250038D01*
X99755961Y-75375461D01*
X99755965Y-75375464D01*
X99903446Y-75474009D01*
X99903459Y-75474016D01*
X99996604Y-75512597D01*
X100067334Y-75541894D01*
X100067336Y-75541894D01*
X100067341Y-75541896D01*
X100241304Y-75576499D01*
X100241307Y-75576500D01*
X100241309Y-75576500D01*
X100418693Y-75576500D01*
X100418694Y-75576499D01*
X100487108Y-75562891D01*
X100592658Y-75541896D01*
X100592661Y-75541894D01*
X100592666Y-75541894D01*
X100756547Y-75474013D01*
X100812565Y-75436581D01*
X100879238Y-75415704D01*
X100946618Y-75434187D01*
X100950346Y-75436583D01*
X101002338Y-75471324D01*
X101002349Y-75471330D01*
X101008834Y-75474016D01*
X101134380Y-75526019D01*
X101134384Y-75526019D01*
X101134385Y-75526020D01*
X101274542Y-75553900D01*
X101274545Y-75553900D01*
X101417457Y-75553900D01*
X101511751Y-75535142D01*
X101557620Y-75526019D01*
X101689653Y-75471329D01*
X101808479Y-75391932D01*
X101909532Y-75290879D01*
X101934567Y-75253410D01*
X101988178Y-75208605D01*
X102037670Y-75198300D01*
X102077857Y-75198300D01*
X102188545Y-75176282D01*
X102218020Y-75170419D01*
X102350053Y-75115729D01*
X102468879Y-75036332D01*
X102569932Y-74935279D01*
X102649329Y-74816453D01*
X102704019Y-74684420D01*
X102723337Y-74587304D01*
X102731900Y-74544257D01*
X102731900Y-74401342D01*
X102704020Y-74261185D01*
X102704019Y-74261184D01*
X102704019Y-74261180D01*
X102650507Y-74131990D01*
X102649330Y-74129149D01*
X102649325Y-74129140D01*
X102569932Y-74010321D01*
X102569929Y-74010317D01*
X102468882Y-73909270D01*
X102468878Y-73909267D01*
X102350059Y-73829874D01*
X102350050Y-73829869D01*
X102218020Y-73775181D01*
X102218014Y-73775179D01*
X102077857Y-73747300D01*
X102077855Y-73747300D01*
X101934945Y-73747300D01*
X101934943Y-73747300D01*
X101794785Y-73775179D01*
X101794779Y-73775181D01*
X101662749Y-73829869D01*
X101662740Y-73829874D01*
X101543921Y-73909267D01*
X101543917Y-73909270D01*
X101442870Y-74010317D01*
X101442866Y-74010322D01*
X101417833Y-74047789D01*
X101364222Y-74092595D01*
X101314730Y-74102900D01*
X101274540Y-74102900D01*
X101135911Y-74130475D01*
X101066319Y-74124248D01*
X101024039Y-74096539D01*
X100904038Y-73976538D01*
X100904034Y-73976535D01*
X100756553Y-73877990D01*
X100756540Y-73877983D01*
X100592667Y-73810106D01*
X100592658Y-73810103D01*
X100418694Y-73775500D01*
X100418691Y-73775500D01*
X100241309Y-73775500D01*
X100241306Y-73775500D01*
X100067341Y-73810103D01*
X100067332Y-73810106D01*
X99903459Y-73877983D01*
X99903446Y-73877990D01*
X99755965Y-73976535D01*
X99755961Y-73976538D01*
X99630538Y-74101961D01*
X99630535Y-74101965D01*
X99531990Y-74249446D01*
X99531983Y-74249459D01*
X99464106Y-74413332D01*
X99464103Y-74413341D01*
X99429500Y-74587304D01*
X97809945Y-74587304D01*
X97799474Y-74562025D01*
X97775216Y-74503459D01*
X97775209Y-74503446D01*
X97676664Y-74355965D01*
X97676661Y-74355961D01*
X97551238Y-74230538D01*
X97551234Y-74230535D01*
X97403753Y-74131990D01*
X97403740Y-74131983D01*
X97239867Y-74064106D01*
X97239858Y-74064103D01*
X97065894Y-74029500D01*
X97065891Y-74029500D01*
X96888509Y-74029500D01*
X96888506Y-74029500D01*
X96714541Y-74064103D01*
X96714532Y-74064106D01*
X96550659Y-74131983D01*
X96550646Y-74131990D01*
X96436491Y-74208267D01*
X96369813Y-74229145D01*
X96302433Y-74210660D01*
X96298709Y-74208267D01*
X96184553Y-74131990D01*
X96184540Y-74131983D01*
X96020667Y-74064106D01*
X96020658Y-74064103D01*
X95846694Y-74029500D01*
X95846691Y-74029500D01*
X95669309Y-74029500D01*
X95669306Y-74029500D01*
X95495341Y-74064103D01*
X95495332Y-74064106D01*
X95331459Y-74131983D01*
X95331446Y-74131990D01*
X95183965Y-74230535D01*
X95183961Y-74230538D01*
X95058538Y-74355961D01*
X95058535Y-74355965D01*
X94959990Y-74503446D01*
X94959983Y-74503459D01*
X94939061Y-74553972D01*
X94895220Y-74608376D01*
X94828926Y-74630441D01*
X94761227Y-74613162D01*
X94713616Y-74562025D01*
X94700500Y-74506520D01*
X94700500Y-73320935D01*
X141765530Y-73320935D01*
X141765530Y-75116670D01*
X141765531Y-75116676D01*
X141771938Y-75176283D01*
X141822232Y-75311128D01*
X141822236Y-75311135D01*
X141908482Y-75426344D01*
X141908485Y-75426347D01*
X142023694Y-75512593D01*
X142023701Y-75512597D01*
X142158547Y-75562891D01*
X142158546Y-75562891D01*
X142165474Y-75563635D01*
X142218157Y-75569300D01*
X144013902Y-75569299D01*
X144073513Y-75562891D01*
X144208361Y-75512596D01*
X144323576Y-75426346D01*
X144409826Y-75311131D01*
X144460121Y-75176283D01*
X144466530Y-75116673D01*
X144466529Y-73320928D01*
X144460121Y-73261317D01*
X144409826Y-73126469D01*
X144409825Y-73126468D01*
X144409823Y-73126464D01*
X144323577Y-73011255D01*
X144323574Y-73011252D01*
X144208365Y-72925006D01*
X144208358Y-72925002D01*
X144073512Y-72874708D01*
X144073513Y-72874708D01*
X144013913Y-72868301D01*
X144013911Y-72868300D01*
X144013903Y-72868300D01*
X144013894Y-72868300D01*
X142218159Y-72868300D01*
X142218153Y-72868301D01*
X142158546Y-72874708D01*
X142023701Y-72925002D01*
X142023694Y-72925006D01*
X141908485Y-73011252D01*
X141908482Y-73011255D01*
X141822236Y-73126464D01*
X141822232Y-73126471D01*
X141771938Y-73261317D01*
X141765531Y-73320916D01*
X141765531Y-73320923D01*
X141765530Y-73320935D01*
X94700500Y-73320935D01*
X94700500Y-71132904D01*
X100547100Y-71132904D01*
X100547100Y-71310295D01*
X100581703Y-71484258D01*
X100581706Y-71484267D01*
X100649583Y-71648140D01*
X100649590Y-71648153D01*
X100748135Y-71795634D01*
X100748138Y-71795638D01*
X100873561Y-71921061D01*
X100873565Y-71921064D01*
X101021046Y-72019609D01*
X101021059Y-72019616D01*
X101143963Y-72070523D01*
X101184934Y-72087494D01*
X101184936Y-72087494D01*
X101184941Y-72087496D01*
X101358904Y-72122099D01*
X101358907Y-72122100D01*
X101358909Y-72122100D01*
X101536293Y-72122100D01*
X101536294Y-72122099D01*
X101594282Y-72110564D01*
X101710258Y-72087496D01*
X101710261Y-72087494D01*
X101710266Y-72087494D01*
X101874147Y-72019613D01*
X102021635Y-71921064D01*
X102124783Y-71817915D01*
X102186104Y-71784431D01*
X102236653Y-71783980D01*
X102275031Y-71791614D01*
X102290544Y-71794700D01*
X102290545Y-71794700D01*
X102296786Y-71794700D01*
X102363825Y-71814385D01*
X102399888Y-71849810D01*
X102458864Y-71938074D01*
X102458870Y-71938082D01*
X102559917Y-72039129D01*
X102559921Y-72039132D01*
X102678740Y-72118525D01*
X102678749Y-72118530D01*
X102687368Y-72122100D01*
X102810780Y-72173219D01*
X102810784Y-72173219D01*
X102810785Y-72173220D01*
X102950942Y-72201100D01*
X102950945Y-72201100D01*
X103093857Y-72201100D01*
X103188151Y-72182342D01*
X103234020Y-72173219D01*
X103366053Y-72118529D01*
X103484879Y-72039132D01*
X103585932Y-71938079D01*
X103665329Y-71819253D01*
X103720019Y-71687220D01*
X103747900Y-71547055D01*
X103747900Y-71404145D01*
X103747900Y-71404142D01*
X103720020Y-71263985D01*
X103720019Y-71263984D01*
X103720019Y-71263980D01*
X103677718Y-71161858D01*
X103665330Y-71131949D01*
X103665325Y-71131940D01*
X103585932Y-71013121D01*
X103585929Y-71013117D01*
X103484882Y-70912070D01*
X103484878Y-70912067D01*
X103366059Y-70832674D01*
X103366050Y-70832669D01*
X103234020Y-70777981D01*
X103234014Y-70777979D01*
X103093857Y-70750100D01*
X103093855Y-70750100D01*
X103087614Y-70750100D01*
X103020575Y-70730415D01*
X102984512Y-70694990D01*
X102925535Y-70606725D01*
X102925529Y-70606717D01*
X102824482Y-70505670D01*
X102824478Y-70505667D01*
X102705659Y-70426274D01*
X102705650Y-70426269D01*
X102573620Y-70371581D01*
X102573614Y-70371579D01*
X102433457Y-70343700D01*
X102433455Y-70343700D01*
X102290545Y-70343700D01*
X102290543Y-70343700D01*
X102150385Y-70371579D01*
X102150379Y-70371581D01*
X102018346Y-70426271D01*
X102017140Y-70427077D01*
X102016411Y-70427304D01*
X102012977Y-70429141D01*
X102012628Y-70428489D01*
X101950462Y-70447951D01*
X101883083Y-70429463D01*
X101879394Y-70427093D01*
X101874147Y-70423587D01*
X101874143Y-70423585D01*
X101874139Y-70423583D01*
X101710267Y-70355706D01*
X101710258Y-70355703D01*
X101536294Y-70321100D01*
X101536291Y-70321100D01*
X101358909Y-70321100D01*
X101358906Y-70321100D01*
X101184941Y-70355703D01*
X101184932Y-70355706D01*
X101021059Y-70423583D01*
X101021046Y-70423590D01*
X100873565Y-70522135D01*
X100873561Y-70522138D01*
X100748138Y-70647561D01*
X100748135Y-70647565D01*
X100649590Y-70795046D01*
X100649583Y-70795059D01*
X100581706Y-70958932D01*
X100581703Y-70958941D01*
X100547100Y-71132904D01*
X94700500Y-71132904D01*
X94700500Y-69311857D01*
X98791699Y-69311857D01*
X98819579Y-69452014D01*
X98819581Y-69452020D01*
X98874269Y-69584050D01*
X98874274Y-69584059D01*
X98953667Y-69702878D01*
X98953670Y-69702882D01*
X99054717Y-69803929D01*
X99054721Y-69803932D01*
X99173540Y-69883325D01*
X99173546Y-69883328D01*
X99173547Y-69883329D01*
X99305580Y-69938019D01*
X99305584Y-69938019D01*
X99305585Y-69938020D01*
X99445742Y-69965900D01*
X99445745Y-69965900D01*
X99588657Y-69965900D01*
X99682951Y-69947142D01*
X99728820Y-69938019D01*
X99860853Y-69883329D01*
X99979679Y-69803932D01*
X100080732Y-69702879D01*
X100160129Y-69584053D01*
X100214819Y-69452020D01*
X100239271Y-69329095D01*
X100242700Y-69311857D01*
X100242700Y-69168943D01*
X100239271Y-69151704D01*
X104204700Y-69151704D01*
X104204700Y-69329095D01*
X104239303Y-69503058D01*
X104239306Y-69503067D01*
X104307183Y-69666940D01*
X104307190Y-69666953D01*
X104405735Y-69814434D01*
X104405738Y-69814438D01*
X104531161Y-69939861D01*
X104531165Y-69939864D01*
X104678646Y-70038409D01*
X104678659Y-70038416D01*
X104801563Y-70089323D01*
X104842534Y-70106294D01*
X104842536Y-70106294D01*
X104842541Y-70106296D01*
X105016504Y-70140899D01*
X105016507Y-70140900D01*
X105016509Y-70140900D01*
X105193893Y-70140900D01*
X105193894Y-70140899D01*
X105251882Y-70129364D01*
X105367858Y-70106296D01*
X105367861Y-70106294D01*
X105367866Y-70106294D01*
X105524381Y-70041464D01*
X105531740Y-70038416D01*
X105531740Y-70038415D01*
X105531747Y-70038413D01*
X105679235Y-69939864D01*
X105804664Y-69814435D01*
X105903213Y-69666947D01*
X105930025Y-69602213D01*
X105973865Y-69547812D01*
X106040159Y-69525746D01*
X106068771Y-69528049D01*
X106093158Y-69532900D01*
X106093159Y-69532900D01*
X106250844Y-69532900D01*
X106250845Y-69532899D01*
X106405497Y-69502137D01*
X106551179Y-69441794D01*
X106682289Y-69354189D01*
X106793789Y-69242689D01*
X106881394Y-69111579D01*
X106941737Y-68965897D01*
X106972500Y-68811242D01*
X106972500Y-68653558D01*
X106972500Y-68653555D01*
X106972499Y-68653553D01*
X106963967Y-68610659D01*
X106941737Y-68498903D01*
X106941735Y-68498898D01*
X106881397Y-68353227D01*
X106881390Y-68353214D01*
X106793792Y-68222116D01*
X106793789Y-68222111D01*
X106793784Y-68222106D01*
X106793781Y-68222102D01*
X106717232Y-68145553D01*
X107403500Y-68145553D01*
X107403500Y-68303246D01*
X107434261Y-68457889D01*
X107434264Y-68457901D01*
X107494602Y-68603572D01*
X107494609Y-68603585D01*
X107582210Y-68734688D01*
X107582213Y-68734692D01*
X107693707Y-68846186D01*
X107693711Y-68846189D01*
X107824814Y-68933790D01*
X107824827Y-68933797D01*
X107930902Y-68977734D01*
X107970503Y-68994137D01*
X108125153Y-69024899D01*
X108125156Y-69024900D01*
X108125158Y-69024900D01*
X108282844Y-69024900D01*
X108282845Y-69024899D01*
X108437497Y-68994137D01*
X108583179Y-68933794D01*
X108714289Y-68846189D01*
X108825789Y-68734689D01*
X108913394Y-68603579D01*
X108959899Y-68491304D01*
X109538700Y-68491304D01*
X109538700Y-68668695D01*
X109573303Y-68842658D01*
X109573306Y-68842667D01*
X109641183Y-69006540D01*
X109641190Y-69006553D01*
X109739735Y-69154034D01*
X109739738Y-69154038D01*
X109865161Y-69279461D01*
X109865165Y-69279464D01*
X110012646Y-69378009D01*
X110012659Y-69378016D01*
X110043999Y-69390997D01*
X110176534Y-69445894D01*
X110176536Y-69445894D01*
X110176541Y-69445896D01*
X110350504Y-69480499D01*
X110350507Y-69480500D01*
X110350509Y-69480500D01*
X110527893Y-69480500D01*
X110527894Y-69480499D01*
X110585882Y-69468964D01*
X110701858Y-69445896D01*
X110701861Y-69445894D01*
X110701866Y-69445894D01*
X110865747Y-69378013D01*
X111013235Y-69279464D01*
X111039395Y-69253304D01*
X111621500Y-69253304D01*
X111621500Y-69430695D01*
X111656103Y-69604658D01*
X111656106Y-69604667D01*
X111723983Y-69768540D01*
X111723990Y-69768553D01*
X111822535Y-69916034D01*
X111822538Y-69916038D01*
X111947961Y-70041461D01*
X111947965Y-70041464D01*
X112095446Y-70140009D01*
X112095459Y-70140016D01*
X112218363Y-70190923D01*
X112259334Y-70207894D01*
X112259336Y-70207894D01*
X112259341Y-70207896D01*
X112433304Y-70242499D01*
X112433307Y-70242500D01*
X112433309Y-70242500D01*
X112610693Y-70242500D01*
X112610694Y-70242499D01*
X112668682Y-70230964D01*
X112784658Y-70207896D01*
X112784661Y-70207894D01*
X112784666Y-70207894D01*
X112948547Y-70140013D01*
X113096035Y-70041464D01*
X113221464Y-69916035D01*
X113320013Y-69768547D01*
X113320745Y-69766781D01*
X113347214Y-69702878D01*
X113387894Y-69604666D01*
X113388246Y-69602899D01*
X113412592Y-69480500D01*
X113422500Y-69430691D01*
X113422500Y-69253309D01*
X113422500Y-69253306D01*
X113422499Y-69253304D01*
X113387896Y-69079341D01*
X113387893Y-69079332D01*
X113387164Y-69077573D01*
X113365347Y-69024899D01*
X113350837Y-68989869D01*
X113333704Y-68948504D01*
X116142700Y-68948504D01*
X116142700Y-69125895D01*
X116177303Y-69299858D01*
X116177306Y-69299867D01*
X116245183Y-69463740D01*
X116245190Y-69463753D01*
X116343735Y-69611234D01*
X116343738Y-69611238D01*
X116469161Y-69736661D01*
X116469165Y-69736664D01*
X116616646Y-69835209D01*
X116616659Y-69835216D01*
X116732819Y-69883330D01*
X116780534Y-69903094D01*
X116780536Y-69903094D01*
X116780541Y-69903096D01*
X116954504Y-69937699D01*
X116954507Y-69937700D01*
X116954509Y-69937700D01*
X117131893Y-69937700D01*
X117131894Y-69937699D01*
X117240793Y-69916038D01*
X117305858Y-69903096D01*
X117305861Y-69903094D01*
X117305866Y-69903094D01*
X117402894Y-69862904D01*
X128791900Y-69862904D01*
X128791900Y-70040295D01*
X128826503Y-70214258D01*
X128826506Y-70214267D01*
X128894383Y-70378140D01*
X128894390Y-70378153D01*
X128992935Y-70525634D01*
X128992938Y-70525638D01*
X129118361Y-70651061D01*
X129118365Y-70651064D01*
X129265846Y-70749609D01*
X129265859Y-70749616D01*
X129388763Y-70800523D01*
X129429734Y-70817494D01*
X129429736Y-70817494D01*
X129429741Y-70817496D01*
X129603704Y-70852099D01*
X129603707Y-70852100D01*
X129603709Y-70852100D01*
X129781093Y-70852100D01*
X129781094Y-70852099D01*
X129839082Y-70840564D01*
X129955058Y-70817496D01*
X129955061Y-70817494D01*
X129955066Y-70817494D01*
X130118947Y-70749613D01*
X130266435Y-70651064D01*
X130391864Y-70525635D01*
X130490413Y-70378147D01*
X130558294Y-70214266D01*
X130559562Y-70207894D01*
X130581364Y-70098282D01*
X130592900Y-70040291D01*
X130592900Y-69862909D01*
X130592900Y-69862906D01*
X130592899Y-69862904D01*
X130558296Y-69688941D01*
X130558293Y-69688932D01*
X130490416Y-69525059D01*
X130490409Y-69525046D01*
X130391864Y-69377565D01*
X130391861Y-69377561D01*
X130266438Y-69252138D01*
X130266434Y-69252135D01*
X130118953Y-69153590D01*
X130118940Y-69153583D01*
X129955067Y-69085706D01*
X129955058Y-69085703D01*
X129781094Y-69051100D01*
X129781091Y-69051100D01*
X129603709Y-69051100D01*
X129603706Y-69051100D01*
X129429741Y-69085703D01*
X129429732Y-69085706D01*
X129265859Y-69153583D01*
X129265846Y-69153590D01*
X129118365Y-69252135D01*
X129118361Y-69252138D01*
X128992938Y-69377561D01*
X128992935Y-69377565D01*
X128894390Y-69525046D01*
X128894383Y-69525059D01*
X128826506Y-69688932D01*
X128826503Y-69688941D01*
X128791900Y-69862904D01*
X117402894Y-69862904D01*
X117469747Y-69835213D01*
X117617235Y-69736664D01*
X117742664Y-69611235D01*
X117841213Y-69463747D01*
X117909094Y-69299866D01*
X117913153Y-69279464D01*
X117935137Y-69168942D01*
X117943700Y-69125891D01*
X117943700Y-68948509D01*
X117943700Y-68948506D01*
X117943699Y-68948504D01*
X117909096Y-68774541D01*
X117909093Y-68774532D01*
X117841216Y-68610659D01*
X117841209Y-68610646D01*
X117742664Y-68463165D01*
X117742661Y-68463161D01*
X117617238Y-68337738D01*
X117617234Y-68337735D01*
X117469753Y-68239190D01*
X117469740Y-68239183D01*
X117305867Y-68171306D01*
X117305858Y-68171303D01*
X117131894Y-68136700D01*
X117131891Y-68136700D01*
X116954509Y-68136700D01*
X116954506Y-68136700D01*
X116780541Y-68171303D01*
X116780532Y-68171306D01*
X116616659Y-68239183D01*
X116616646Y-68239190D01*
X116469165Y-68337735D01*
X116469161Y-68337738D01*
X116343738Y-68463161D01*
X116343735Y-68463165D01*
X116245190Y-68610646D01*
X116245183Y-68610659D01*
X116177306Y-68774532D01*
X116177303Y-68774541D01*
X116142700Y-68948504D01*
X113333704Y-68948504D01*
X113320016Y-68915458D01*
X113320009Y-68915446D01*
X113221464Y-68767965D01*
X113221461Y-68767961D01*
X113096038Y-68642538D01*
X113096034Y-68642535D01*
X112948553Y-68543990D01*
X112948540Y-68543983D01*
X112784667Y-68476106D01*
X112784658Y-68476103D01*
X112610694Y-68441500D01*
X112610691Y-68441500D01*
X112433309Y-68441500D01*
X112433306Y-68441500D01*
X112259341Y-68476103D01*
X112259332Y-68476106D01*
X112095459Y-68543983D01*
X112095446Y-68543990D01*
X111947965Y-68642535D01*
X111947961Y-68642538D01*
X111822538Y-68767961D01*
X111822535Y-68767965D01*
X111723990Y-68915446D01*
X111723983Y-68915459D01*
X111656106Y-69079332D01*
X111656103Y-69079341D01*
X111621500Y-69253304D01*
X111039395Y-69253304D01*
X111050011Y-69242688D01*
X111133164Y-69159536D01*
X111138661Y-69154038D01*
X111138664Y-69154035D01*
X111237213Y-69006547D01*
X111305094Y-68842666D01*
X111310826Y-68813853D01*
X111339699Y-68668695D01*
X111339700Y-68668693D01*
X111339700Y-68491306D01*
X111339699Y-68491304D01*
X111305096Y-68317341D01*
X111305093Y-68317332D01*
X111237216Y-68153459D01*
X111237209Y-68153446D01*
X111138664Y-68005965D01*
X111138661Y-68005961D01*
X111013238Y-67880538D01*
X111013234Y-67880535D01*
X110865753Y-67781990D01*
X110865740Y-67781983D01*
X110701867Y-67714106D01*
X110701858Y-67714103D01*
X110527894Y-67679500D01*
X110527891Y-67679500D01*
X110350509Y-67679500D01*
X110350506Y-67679500D01*
X110176541Y-67714103D01*
X110176532Y-67714106D01*
X110012659Y-67781983D01*
X110012646Y-67781990D01*
X109865165Y-67880535D01*
X109865161Y-67880538D01*
X109739738Y-68005961D01*
X109739735Y-68005965D01*
X109641190Y-68153446D01*
X109641183Y-68153459D01*
X109573306Y-68317332D01*
X109573303Y-68317341D01*
X109538700Y-68491304D01*
X108959899Y-68491304D01*
X108973737Y-68457897D01*
X108976999Y-68441500D01*
X109004500Y-68303244D01*
X109004500Y-68145555D01*
X109004499Y-68145553D01*
X108997549Y-68110613D01*
X108973737Y-67990903D01*
X108949603Y-67932637D01*
X108913397Y-67845227D01*
X108913390Y-67845214D01*
X108825789Y-67714111D01*
X108825786Y-67714107D01*
X108714292Y-67602613D01*
X108714288Y-67602610D01*
X108583185Y-67515009D01*
X108583172Y-67515002D01*
X108437501Y-67454664D01*
X108437489Y-67454661D01*
X108282845Y-67423900D01*
X108282842Y-67423900D01*
X108125158Y-67423900D01*
X108125155Y-67423900D01*
X107970510Y-67454661D01*
X107970498Y-67454664D01*
X107824827Y-67515002D01*
X107824814Y-67515009D01*
X107693711Y-67602610D01*
X107693707Y-67602613D01*
X107582213Y-67714107D01*
X107582210Y-67714111D01*
X107494609Y-67845214D01*
X107494602Y-67845227D01*
X107434264Y-67990898D01*
X107434261Y-67990910D01*
X107403500Y-68145553D01*
X106717232Y-68145553D01*
X106682292Y-68110613D01*
X106682288Y-68110610D01*
X106551185Y-68023009D01*
X106551172Y-68023002D01*
X106405501Y-67962664D01*
X106405489Y-67962661D01*
X106250845Y-67931900D01*
X106250842Y-67931900D01*
X106093158Y-67931900D01*
X106093155Y-67931900D01*
X105938510Y-67962661D01*
X105938498Y-67962664D01*
X105792827Y-68023002D01*
X105792814Y-68023009D01*
X105661711Y-68110610D01*
X105661707Y-68110613D01*
X105550213Y-68222107D01*
X105550210Y-68222111D01*
X105484969Y-68319752D01*
X105431357Y-68364557D01*
X105362032Y-68373264D01*
X105357676Y-68372478D01*
X105193895Y-68339900D01*
X105193891Y-68339900D01*
X105016509Y-68339900D01*
X105016506Y-68339900D01*
X104842541Y-68374503D01*
X104842532Y-68374506D01*
X104678659Y-68442383D01*
X104678646Y-68442390D01*
X104531165Y-68540935D01*
X104531161Y-68540938D01*
X104405738Y-68666361D01*
X104405735Y-68666365D01*
X104307190Y-68813846D01*
X104307183Y-68813859D01*
X104239306Y-68977732D01*
X104239303Y-68977741D01*
X104204700Y-69151704D01*
X100239271Y-69151704D01*
X100224875Y-69079334D01*
X100214819Y-69028780D01*
X100167874Y-68915446D01*
X100160130Y-68896749D01*
X100160125Y-68896740D01*
X100080732Y-68777921D01*
X100080729Y-68777917D01*
X99979682Y-68676870D01*
X99979678Y-68676867D01*
X99860859Y-68597474D01*
X99860850Y-68597469D01*
X99728820Y-68542781D01*
X99728814Y-68542779D01*
X99588657Y-68514900D01*
X99588655Y-68514900D01*
X99445745Y-68514900D01*
X99445743Y-68514900D01*
X99305585Y-68542779D01*
X99305579Y-68542781D01*
X99173549Y-68597469D01*
X99173540Y-68597474D01*
X99054721Y-68676867D01*
X99054717Y-68676870D01*
X98953670Y-68777917D01*
X98953667Y-68777921D01*
X98874274Y-68896740D01*
X98874269Y-68896749D01*
X98819581Y-69028779D01*
X98819579Y-69028785D01*
X98791700Y-69168942D01*
X98791700Y-69168943D01*
X98791700Y-69168945D01*
X98791700Y-69311855D01*
X98791700Y-69311857D01*
X98791699Y-69311857D01*
X94700500Y-69311857D01*
X94700500Y-66316753D01*
X120459100Y-66316753D01*
X120459100Y-66474446D01*
X120489861Y-66629089D01*
X120489864Y-66629101D01*
X120550202Y-66774772D01*
X120550209Y-66774785D01*
X120637810Y-66905888D01*
X120637813Y-66905892D01*
X120749307Y-67017386D01*
X120749311Y-67017389D01*
X120880414Y-67104990D01*
X120880427Y-67104997D01*
X120967830Y-67141199D01*
X121026103Y-67165337D01*
X121048401Y-67169772D01*
X121110310Y-67202155D01*
X121144886Y-67262870D01*
X121145827Y-67267198D01*
X121150261Y-67289489D01*
X121150264Y-67289501D01*
X121210602Y-67435172D01*
X121210609Y-67435185D01*
X121298210Y-67566288D01*
X121298213Y-67566292D01*
X121409707Y-67677786D01*
X121409711Y-67677789D01*
X121540814Y-67765390D01*
X121540827Y-67765397D01*
X121686498Y-67825735D01*
X121686503Y-67825737D01*
X121841153Y-67856499D01*
X121841156Y-67856500D01*
X121841158Y-67856500D01*
X121998844Y-67856500D01*
X121998845Y-67856499D01*
X122153497Y-67825737D01*
X122299179Y-67765394D01*
X122430289Y-67677789D01*
X122541789Y-67566289D01*
X122629394Y-67435179D01*
X122689737Y-67289497D01*
X122720500Y-67134842D01*
X122720500Y-66977158D01*
X122720500Y-66977155D01*
X122720499Y-66977153D01*
X122706324Y-66905892D01*
X122689737Y-66822503D01*
X122669969Y-66774779D01*
X122629397Y-66676827D01*
X122629390Y-66676814D01*
X122541789Y-66545711D01*
X122541786Y-66545707D01*
X122430292Y-66434213D01*
X122430288Y-66434210D01*
X122299185Y-66346609D01*
X122299172Y-66346602D01*
X122153497Y-66286262D01*
X122151510Y-66285660D01*
X122150596Y-66285061D01*
X122147870Y-66283932D01*
X122148084Y-66283414D01*
X122093072Y-66247363D01*
X122064615Y-66183550D01*
X122075176Y-66114483D01*
X122121401Y-66062090D01*
X122151510Y-66048340D01*
X122153497Y-66047737D01*
X122299172Y-65987397D01*
X122299172Y-65987396D01*
X122299179Y-65987394D01*
X122430289Y-65899789D01*
X122541789Y-65788289D01*
X122629394Y-65657179D01*
X122689737Y-65511497D01*
X122720500Y-65356842D01*
X122720500Y-65199158D01*
X122720500Y-65199155D01*
X122720499Y-65199153D01*
X122689737Y-65044503D01*
X122656381Y-64963973D01*
X122629397Y-64898827D01*
X122629390Y-64898814D01*
X122541789Y-64767711D01*
X122541786Y-64767707D01*
X122430292Y-64656213D01*
X122430288Y-64656210D01*
X122299185Y-64568609D01*
X122299172Y-64568602D01*
X122153501Y-64508264D01*
X122153489Y-64508261D01*
X121998845Y-64477500D01*
X121998842Y-64477500D01*
X121841158Y-64477500D01*
X121841155Y-64477500D01*
X121686510Y-64508261D01*
X121686498Y-64508264D01*
X121540827Y-64568602D01*
X121540814Y-64568609D01*
X121409711Y-64656210D01*
X121409707Y-64656213D01*
X121298213Y-64767707D01*
X121298210Y-64767711D01*
X121210609Y-64898814D01*
X121210602Y-64898827D01*
X121150264Y-65044498D01*
X121150261Y-65044510D01*
X121119500Y-65199153D01*
X121119500Y-65356846D01*
X121143228Y-65476135D01*
X121137001Y-65545727D01*
X121094138Y-65600904D01*
X121045807Y-65621942D01*
X121026112Y-65625860D01*
X121026098Y-65625864D01*
X120880427Y-65686202D01*
X120880414Y-65686209D01*
X120749311Y-65773810D01*
X120749307Y-65773813D01*
X120637813Y-65885307D01*
X120637810Y-65885311D01*
X120550209Y-66016414D01*
X120550202Y-66016427D01*
X120489864Y-66162098D01*
X120489861Y-66162110D01*
X120459100Y-66316753D01*
X94700500Y-66316753D01*
X94700500Y-65488973D01*
X94720185Y-65421934D01*
X94772989Y-65376179D01*
X94824500Y-65364973D01*
X110587670Y-65364973D01*
X114475025Y-65364973D01*
X114508107Y-65367194D01*
X114514684Y-65364973D01*
X114521627Y-65364973D01*
X114552262Y-65352283D01*
X114583678Y-65341675D01*
X114588904Y-65337105D01*
X114595319Y-65334449D01*
X114618767Y-65311000D01*
X117129221Y-63116416D01*
X117141939Y-63106675D01*
X117149564Y-63101579D01*
X117149574Y-63101576D01*
X117163342Y-63087807D01*
X117224660Y-63054321D01*
X117294352Y-63059302D01*
X117338705Y-63087805D01*
X117434361Y-63183461D01*
X117434365Y-63183464D01*
X117581846Y-63282009D01*
X117581859Y-63282016D01*
X117704763Y-63332923D01*
X117745734Y-63349894D01*
X117745736Y-63349894D01*
X117745741Y-63349896D01*
X117919704Y-63384499D01*
X117919707Y-63384500D01*
X117919709Y-63384500D01*
X118097093Y-63384500D01*
X118097094Y-63384499D01*
X118155082Y-63372964D01*
X118217726Y-63360504D01*
X123254700Y-63360504D01*
X123254700Y-63537895D01*
X123289303Y-63711858D01*
X123289306Y-63711867D01*
X123357183Y-63875740D01*
X123357190Y-63875753D01*
X123455735Y-64023234D01*
X123455738Y-64023238D01*
X123581161Y-64148661D01*
X123581165Y-64148664D01*
X123728646Y-64247209D01*
X123728659Y-64247216D01*
X123851563Y-64298123D01*
X123892534Y-64315094D01*
X123892536Y-64315094D01*
X123892541Y-64315096D01*
X124066504Y-64349699D01*
X124066507Y-64349700D01*
X124066509Y-64349700D01*
X124243893Y-64349700D01*
X124243894Y-64349699D01*
X124301882Y-64338164D01*
X124417858Y-64315096D01*
X124417861Y-64315094D01*
X124417866Y-64315094D01*
X124581747Y-64247213D01*
X124729235Y-64148664D01*
X124854664Y-64023235D01*
X124953213Y-63875747D01*
X125021094Y-63711866D01*
X125055700Y-63537891D01*
X125055700Y-63360509D01*
X125055700Y-63360506D01*
X125055699Y-63360504D01*
X125021096Y-63186541D01*
X125021093Y-63186532D01*
X124953216Y-63022659D01*
X124953209Y-63022646D01*
X124854664Y-62875165D01*
X124854661Y-62875161D01*
X124729238Y-62749738D01*
X124729234Y-62749735D01*
X124581753Y-62651190D01*
X124581740Y-62651183D01*
X124417867Y-62583306D01*
X124417858Y-62583303D01*
X124243894Y-62548700D01*
X124243891Y-62548700D01*
X124066509Y-62548700D01*
X124066506Y-62548700D01*
X123892541Y-62583303D01*
X123892532Y-62583306D01*
X123728659Y-62651183D01*
X123728646Y-62651190D01*
X123581165Y-62749735D01*
X123581161Y-62749738D01*
X123455738Y-62875161D01*
X123455735Y-62875165D01*
X123357190Y-63022646D01*
X123357183Y-63022659D01*
X123289306Y-63186532D01*
X123289303Y-63186541D01*
X123254700Y-63360504D01*
X118217726Y-63360504D01*
X118271058Y-63349896D01*
X118271061Y-63349894D01*
X118271066Y-63349894D01*
X118434947Y-63282013D01*
X118465269Y-63261751D01*
X118480890Y-63251315D01*
X118515106Y-63228451D01*
X118582435Y-63183464D01*
X118707864Y-63058035D01*
X118806413Y-62910547D01*
X118874294Y-62746666D01*
X118893286Y-62651190D01*
X118897364Y-62630682D01*
X118908900Y-62572691D01*
X118908900Y-62395309D01*
X118908900Y-62395306D01*
X118908899Y-62395304D01*
X118874296Y-62221341D01*
X118874293Y-62221332D01*
X118806416Y-62057459D01*
X118806409Y-62057446D01*
X118707864Y-61909965D01*
X118707861Y-61909961D01*
X118582438Y-61784538D01*
X118582434Y-61784535D01*
X118434953Y-61685990D01*
X118434940Y-61685983D01*
X118271067Y-61618106D01*
X118271058Y-61618103D01*
X118097094Y-61583500D01*
X118097091Y-61583500D01*
X117919709Y-61583500D01*
X117919706Y-61583500D01*
X117745741Y-61618103D01*
X117745732Y-61618106D01*
X117581859Y-61685983D01*
X117581846Y-61685990D01*
X117429391Y-61787859D01*
X117362714Y-61808737D01*
X117295334Y-61790253D01*
X117248643Y-61738274D01*
X117236500Y-61684757D01*
X117236500Y-60942946D01*
X117256185Y-60875907D01*
X117308989Y-60830152D01*
X117360500Y-60818946D01*
X130803504Y-60818946D01*
X130870543Y-60838631D01*
G37*
%TD.AperFunction*%
%TD*%
M02*
