%TF.GenerationSoftware,KiCad,Pcbnew,10.0.5*%
%TF.CreationDate,2026-09-14T16:49:18+01:00*%
%TF.ProjectId,gk_oled_pcb,676b5f6f-6c65-4645-9f70-63622e6b6963,rev?*%
%TF.SameCoordinates,Original*%
%TF.FileFunction,Copper,L2,Inr*%
%TF.FilePolarity,Positive*%
%FSLAX46Y46*%
G04 Gerber Fmt 4.6, Leading zero omitted, Abs format (unit mm)*
G04 Created by KiCad (PCBNEW 10.0.5) date 2026-09-14 16:49:18*
%MOMM*%
%LPD*%
G01*
G04 APERTURE LIST*
%TA.AperFunction,ComponentPad*%
%ADD10R,1.700000X1.700000*%
%TD*%
%TA.AperFunction,ViaPad*%
%ADD11C,0.800000*%
%TD*%
%TA.AperFunction,ViaPad*%
%ADD12C,0.450000*%
%TD*%
%TA.AperFunction,ViaPad*%
%ADD13C,0.600000*%
%TD*%
G04 APERTURE END LIST*
D10*
%TO.N,GND*%
%TO.C,J3*%
X138750000Y-113480000D03*
%TD*%
%TO.N,GND*%
%TO.C,J2*%
X143116030Y-74218800D03*
%TD*%
%TO.N,N/C*%
%TO.C,J5*%
X105765600Y-78740000D03*
%TD*%
D11*
%TO.N,GND*%
X112522000Y-69342000D03*
X110439200Y-68580000D03*
X129692400Y-69951600D03*
X97180400Y-78790800D03*
X124155200Y-63449200D03*
X118008400Y-62484000D03*
X96977200Y-74930000D03*
X95758000Y-74930000D03*
X143219822Y-113456422D03*
X105105200Y-69240400D03*
X145135600Y-99060000D03*
X117043200Y-69037200D03*
X104140000Y-78790800D03*
X145151400Y-95961200D03*
X143103600Y-106578400D03*
X100330000Y-74676000D03*
X135297779Y-69340241D03*
X101447600Y-71221600D03*
%TO.N,VCC*%
X136296400Y-69392800D03*
X129692400Y-68834000D03*
X120573800Y-68300600D03*
X125476000Y-63804800D03*
X144780000Y-79806800D03*
X144627600Y-85648800D03*
X111332654Y-67847854D03*
X113588800Y-69240400D03*
X135686800Y-74117200D03*
X108051600Y-66090800D03*
X96824800Y-71323200D03*
X140766800Y-110693200D03*
D12*
%TO.N,SDA2*%
X101650800Y-77470000D03*
D13*
X132791200Y-75590400D03*
X139446000Y-80772000D03*
D12*
%TO.N,OLED_NRES*%
X143357600Y-105003600D03*
D13*
X111201200Y-77139800D03*
X134264400Y-74472800D03*
X121920000Y-67056000D03*
D12*
X99517200Y-69240400D03*
X98950000Y-76650000D03*
D13*
%TO.N,SCL2*%
X139395200Y-78943200D03*
D12*
X102260400Y-77012800D03*
D13*
X133629400Y-75565000D03*
%TO.N,Net-(JP1-C1P)*%
X143560800Y-109067600D03*
X144170400Y-112369600D03*
D12*
%TO.N,SCL3*%
X102362000Y-71069200D03*
D13*
X131424179Y-66926934D03*
X121920000Y-65278000D03*
D12*
%TO.N,SCL1*%
X142595600Y-104495600D03*
X101100000Y-76900000D03*
X140462000Y-84632800D03*
%TO.N,SDA1*%
X100170000Y-76970000D03*
X141833600Y-103784400D03*
X140614400Y-86715600D03*
%TO.N,SDA3*%
X103022400Y-71475600D03*
D13*
X121259600Y-66395600D03*
X131876800Y-68681600D03*
%TO.N,SCL4*%
X110337600Y-76454000D03*
X108204000Y-68224400D03*
D12*
X101346000Y-74828400D03*
D13*
%TO.N,SDA4*%
X106172000Y-68732400D03*
D12*
X102006400Y-74472800D03*
D13*
X109880400Y-75692000D03*
%TD*%
%TA.AperFunction,Conductor*%
%TO.N,GND*%
G36*
X130870543Y-60838631D02*
G01*
X130916298Y-60891435D01*
X130927504Y-60942946D01*
X130927504Y-65933336D01*
X130925749Y-65968132D01*
X130927504Y-65973056D01*
X130927504Y-65978282D01*
X130940833Y-66010461D01*
X130952524Y-66043269D01*
X130956027Y-66047144D01*
X130958028Y-66051974D01*
X130982662Y-66076608D01*
X131000205Y-66096014D01*
X131008487Y-66117527D01*
X131005959Y-66118500D01*
X131019641Y-66146860D01*
X131011159Y-66216213D01*
X130966529Y-66269971D01*
X130966195Y-66270194D01*
X130913892Y-66305142D01*
X130913886Y-66305147D01*
X130802392Y-66416641D01*
X130802389Y-66416645D01*
X130714788Y-66547748D01*
X130714781Y-66547761D01*
X130654443Y-66693432D01*
X130654440Y-66693444D01*
X130623679Y-66848087D01*
X130623679Y-67005780D01*
X130654440Y-67160423D01*
X130654443Y-67160435D01*
X130714781Y-67306106D01*
X130714788Y-67306119D01*
X130802389Y-67437222D01*
X130802392Y-67437226D01*
X130913886Y-67548720D01*
X130913890Y-67548723D01*
X131044993Y-67636324D01*
X131045006Y-67636331D01*
X131145089Y-67677786D01*
X131190682Y-67696671D01*
X131340948Y-67726561D01*
X131345332Y-67727433D01*
X131345335Y-67727434D01*
X131465162Y-67727434D01*
X131532201Y-67747119D01*
X131577956Y-67799923D01*
X131587900Y-67869081D01*
X131558875Y-67932637D01*
X131512615Y-67965995D01*
X131497624Y-67972204D01*
X131497614Y-67972209D01*
X131366511Y-68059810D01*
X131366507Y-68059813D01*
X131255013Y-68171307D01*
X131255010Y-68171311D01*
X131167409Y-68302414D01*
X131167402Y-68302427D01*
X131107064Y-68448098D01*
X131107061Y-68448110D01*
X131076300Y-68602753D01*
X131076300Y-68760446D01*
X131107061Y-68915089D01*
X131107064Y-68915101D01*
X131167402Y-69060772D01*
X131167409Y-69060785D01*
X131255010Y-69191888D01*
X131255013Y-69191892D01*
X131366507Y-69303386D01*
X131366511Y-69303389D01*
X131497614Y-69390990D01*
X131497627Y-69390997D01*
X131620254Y-69441790D01*
X131643303Y-69451337D01*
X131797953Y-69482099D01*
X131797956Y-69482100D01*
X131797958Y-69482100D01*
X131955644Y-69482100D01*
X131955645Y-69482099D01*
X132110297Y-69451337D01*
X132255979Y-69390994D01*
X132387089Y-69303389D01*
X132498589Y-69191889D01*
X132586194Y-69060779D01*
X132646537Y-68915097D01*
X132677300Y-68760442D01*
X132677300Y-68602758D01*
X132677300Y-68602755D01*
X132677299Y-68602753D01*
X132666272Y-68547318D01*
X132646537Y-68448103D01*
X132635679Y-68421889D01*
X132586197Y-68302427D01*
X132586190Y-68302414D01*
X132498589Y-68171311D01*
X132498586Y-68171307D01*
X132387092Y-68059813D01*
X132387088Y-68059810D01*
X132255985Y-67972209D01*
X132255972Y-67972202D01*
X132110301Y-67911864D01*
X132110289Y-67911861D01*
X131955645Y-67881100D01*
X131955642Y-67881100D01*
X131835817Y-67881100D01*
X131768778Y-67861415D01*
X131723023Y-67808611D01*
X131713079Y-67739453D01*
X131742104Y-67675897D01*
X131788364Y-67642539D01*
X131793368Y-67640465D01*
X131803358Y-67636328D01*
X131934468Y-67548723D01*
X132045968Y-67437223D01*
X132133573Y-67306113D01*
X132193916Y-67160431D01*
X132224679Y-67005776D01*
X132224679Y-66876867D01*
X132244364Y-66809828D01*
X132297168Y-66764073D01*
X132366326Y-66754129D01*
X132401836Y-66764839D01*
X135833566Y-68393396D01*
X135885691Y-68439921D01*
X135904389Y-68507242D01*
X135883721Y-68573985D01*
X135849294Y-68608522D01*
X135722367Y-68693333D01*
X135722361Y-68693338D01*
X135596938Y-68818761D01*
X135596935Y-68818765D01*
X135498390Y-68966246D01*
X135498383Y-68966259D01*
X135430506Y-69130132D01*
X135430503Y-69130141D01*
X135395900Y-69304104D01*
X135395900Y-69481495D01*
X135430503Y-69655458D01*
X135430506Y-69655467D01*
X135498383Y-69819340D01*
X135498390Y-69819353D01*
X135596935Y-69966834D01*
X135596938Y-69966838D01*
X135722361Y-70092261D01*
X135722365Y-70092264D01*
X135869846Y-70190809D01*
X135869859Y-70190816D01*
X135992763Y-70241723D01*
X136033734Y-70258694D01*
X136033736Y-70258694D01*
X136033741Y-70258696D01*
X136207704Y-70293299D01*
X136207707Y-70293300D01*
X136207709Y-70293300D01*
X136385093Y-70293300D01*
X136385094Y-70293299D01*
X136443082Y-70281764D01*
X136559058Y-70258696D01*
X136559061Y-70258694D01*
X136559066Y-70258694D01*
X136722947Y-70190813D01*
X136870435Y-70092264D01*
X136995864Y-69966835D01*
X137094413Y-69819347D01*
X137162294Y-69655466D01*
X137196900Y-69481491D01*
X137196900Y-69304109D01*
X137196756Y-69303386D01*
X137188235Y-69260547D01*
X137187110Y-69254892D01*
X137193337Y-69185302D01*
X137236199Y-69130124D01*
X137302088Y-69106879D01*
X137361888Y-69118674D01*
X145529668Y-72994766D01*
X145581793Y-73041291D01*
X145600504Y-73106791D01*
X145600504Y-79054442D01*
X145580819Y-79121481D01*
X145528015Y-79167236D01*
X145458857Y-79177180D01*
X145395301Y-79148155D01*
X145388823Y-79142123D01*
X145354038Y-79107338D01*
X145354034Y-79107335D01*
X145206553Y-79008790D01*
X145206540Y-79008783D01*
X145042667Y-78940906D01*
X145042658Y-78940903D01*
X144868694Y-78906300D01*
X144868691Y-78906300D01*
X144691309Y-78906300D01*
X144691306Y-78906300D01*
X144517341Y-78940903D01*
X144517332Y-78940906D01*
X144353459Y-79008783D01*
X144353446Y-79008790D01*
X144205965Y-79107335D01*
X144205961Y-79107338D01*
X144080538Y-79232761D01*
X144080535Y-79232765D01*
X143981990Y-79380246D01*
X143981983Y-79380259D01*
X143914106Y-79544132D01*
X143914103Y-79544141D01*
X143879500Y-79718104D01*
X143879500Y-79895495D01*
X143914103Y-80069458D01*
X143914106Y-80069467D01*
X143981983Y-80233340D01*
X143981990Y-80233353D01*
X144080535Y-80380834D01*
X144080538Y-80380838D01*
X144205961Y-80506261D01*
X144205965Y-80506264D01*
X144353446Y-80604809D01*
X144353459Y-80604816D01*
X144476363Y-80655723D01*
X144517334Y-80672694D01*
X144517336Y-80672694D01*
X144517341Y-80672696D01*
X144691304Y-80707299D01*
X144691307Y-80707300D01*
X144691309Y-80707300D01*
X144868693Y-80707300D01*
X144868694Y-80707299D01*
X144939802Y-80693155D01*
X145042658Y-80672696D01*
X145042661Y-80672694D01*
X145042666Y-80672694D01*
X145206547Y-80604813D01*
X145354035Y-80506264D01*
X145354038Y-80506261D01*
X145388823Y-80471477D01*
X145450146Y-80437992D01*
X145519838Y-80442976D01*
X145575771Y-80484848D01*
X145600188Y-80550312D01*
X145600504Y-80559158D01*
X145600504Y-85075222D01*
X145580819Y-85142261D01*
X145528015Y-85188016D01*
X145458857Y-85197960D01*
X145395301Y-85168935D01*
X145373402Y-85144113D01*
X145327064Y-85074765D01*
X145327061Y-85074761D01*
X145201638Y-84949338D01*
X145201634Y-84949335D01*
X145054153Y-84850790D01*
X145054140Y-84850783D01*
X144890267Y-84782906D01*
X144890258Y-84782903D01*
X144716294Y-84748300D01*
X144716291Y-84748300D01*
X144538909Y-84748300D01*
X144538906Y-84748300D01*
X144364941Y-84782903D01*
X144364932Y-84782906D01*
X144201059Y-84850783D01*
X144201046Y-84850790D01*
X144053565Y-84949335D01*
X144053561Y-84949338D01*
X143928138Y-85074761D01*
X143928135Y-85074765D01*
X143829590Y-85222246D01*
X143829583Y-85222259D01*
X143761706Y-85386132D01*
X143761703Y-85386141D01*
X143727100Y-85560104D01*
X143727100Y-85737495D01*
X143761703Y-85911458D01*
X143761706Y-85911467D01*
X143829583Y-86075340D01*
X143829590Y-86075353D01*
X143928135Y-86222834D01*
X143928138Y-86222838D01*
X144053561Y-86348261D01*
X144053565Y-86348264D01*
X144201046Y-86446809D01*
X144201059Y-86446816D01*
X144323963Y-86497723D01*
X144364934Y-86514694D01*
X144364936Y-86514694D01*
X144364941Y-86514696D01*
X144538904Y-86549299D01*
X144538907Y-86549300D01*
X144538909Y-86549300D01*
X144716293Y-86549300D01*
X144716294Y-86549299D01*
X144774282Y-86537764D01*
X144890258Y-86514696D01*
X144890261Y-86514694D01*
X144890266Y-86514694D01*
X145054147Y-86446813D01*
X145201635Y-86348264D01*
X145327064Y-86222835D01*
X145373402Y-86153486D01*
X145427014Y-86108681D01*
X145496339Y-86099974D01*
X145559367Y-86130128D01*
X145596086Y-86189572D01*
X145600504Y-86222377D01*
X145600504Y-114647104D01*
X145580819Y-114714143D01*
X145528015Y-114759898D01*
X145476504Y-114771104D01*
X140142093Y-114771104D01*
X140075054Y-114751419D01*
X140029299Y-114698615D01*
X140019355Y-114629457D01*
X140039748Y-114580224D01*
X140039103Y-114579872D01*
X140042379Y-114573870D01*
X140042826Y-114572794D01*
X140043350Y-114572092D01*
X140043354Y-114572086D01*
X140093596Y-114437379D01*
X140093598Y-114437372D01*
X140099999Y-114377844D01*
X140100000Y-114377827D01*
X140100000Y-113730000D01*
X139183012Y-113730000D01*
X139215925Y-113672993D01*
X139250000Y-113545826D01*
X139250000Y-113414174D01*
X139215925Y-113287007D01*
X139183012Y-113230000D01*
X140100000Y-113230000D01*
X140100000Y-112582172D01*
X140099999Y-112582155D01*
X140093598Y-112522627D01*
X140093596Y-112522620D01*
X140043354Y-112387913D01*
X140043352Y-112387911D01*
X140021693Y-112358977D01*
X140021692Y-112358976D01*
X139970620Y-112290753D01*
X143369900Y-112290753D01*
X143369900Y-112448446D01*
X143400661Y-112603089D01*
X143400664Y-112603101D01*
X143461002Y-112748772D01*
X143461009Y-112748785D01*
X143548610Y-112879888D01*
X143548613Y-112879892D01*
X143660107Y-112991386D01*
X143660111Y-112991389D01*
X143791214Y-113078990D01*
X143791227Y-113078997D01*
X143936898Y-113139335D01*
X143936903Y-113139337D01*
X144091553Y-113170099D01*
X144091556Y-113170100D01*
X144091558Y-113170100D01*
X144249244Y-113170100D01*
X144249245Y-113170099D01*
X144403897Y-113139337D01*
X144516566Y-113092667D01*
X144549572Y-113078997D01*
X144549572Y-113078996D01*
X144549579Y-113078994D01*
X144680689Y-112991389D01*
X144792189Y-112879889D01*
X144879794Y-112748779D01*
X144940137Y-112603097D01*
X144970900Y-112448442D01*
X144970900Y-112290758D01*
X144970900Y-112290755D01*
X144970899Y-112290753D01*
X144960788Y-112239923D01*
X144940137Y-112136103D01*
X144937609Y-112130000D01*
X144879797Y-111990427D01*
X144879790Y-111990414D01*
X144792189Y-111859311D01*
X144792186Y-111859307D01*
X144680692Y-111747813D01*
X144680688Y-111747810D01*
X144549585Y-111660209D01*
X144549572Y-111660202D01*
X144403901Y-111599864D01*
X144403889Y-111599861D01*
X144249245Y-111569100D01*
X144249242Y-111569100D01*
X144091558Y-111569100D01*
X144091555Y-111569100D01*
X143936910Y-111599861D01*
X143936898Y-111599864D01*
X143791227Y-111660202D01*
X143791214Y-111660209D01*
X143660111Y-111747810D01*
X143660107Y-111747813D01*
X143548613Y-111859307D01*
X143548610Y-111859311D01*
X143461009Y-111990414D01*
X143461002Y-111990427D01*
X143400664Y-112136098D01*
X143400661Y-112136110D01*
X143369900Y-112290753D01*
X139970620Y-112290753D01*
X139957187Y-112272809D01*
X139842093Y-112186649D01*
X139842086Y-112186645D01*
X139707379Y-112136403D01*
X139707372Y-112136401D01*
X139647844Y-112130000D01*
X139000000Y-112130000D01*
X139000000Y-113046988D01*
X138942993Y-113014075D01*
X138815826Y-112980000D01*
X138684174Y-112980000D01*
X138557007Y-113014075D01*
X138500000Y-113046988D01*
X138500000Y-112130000D01*
X137852155Y-112130000D01*
X137792627Y-112136401D01*
X137792620Y-112136403D01*
X137657913Y-112186645D01*
X137657907Y-112186649D01*
X137599519Y-112230358D01*
X137534055Y-112254775D01*
X137465782Y-112239923D01*
X137416377Y-112190518D01*
X137401209Y-112131107D01*
X137401162Y-111670209D01*
X137420840Y-111603169D01*
X137437476Y-111582522D01*
X138090000Y-110930000D01*
X138090000Y-110604504D01*
X139866300Y-110604504D01*
X139866300Y-110781895D01*
X139900903Y-110955858D01*
X139900906Y-110955867D01*
X139968783Y-111119740D01*
X139968790Y-111119753D01*
X140067335Y-111267234D01*
X140067338Y-111267238D01*
X140192761Y-111392661D01*
X140192765Y-111392664D01*
X140340246Y-111491209D01*
X140340259Y-111491216D01*
X140463163Y-111542123D01*
X140504134Y-111559094D01*
X140504136Y-111559094D01*
X140504141Y-111559096D01*
X140678104Y-111593699D01*
X140678107Y-111593700D01*
X140678109Y-111593700D01*
X140855493Y-111593700D01*
X140855494Y-111593699D01*
X140913482Y-111582164D01*
X141029458Y-111559096D01*
X141029461Y-111559094D01*
X141029466Y-111559094D01*
X141193347Y-111491213D01*
X141340835Y-111392664D01*
X141466264Y-111267235D01*
X141564813Y-111119747D01*
X141632694Y-110955866D01*
X141637840Y-110929999D01*
X141667299Y-110781895D01*
X141667300Y-110781893D01*
X141667300Y-110604506D01*
X141667299Y-110604504D01*
X141632696Y-110430541D01*
X141632693Y-110430532D01*
X141564816Y-110266659D01*
X141564809Y-110266646D01*
X141466264Y-110119165D01*
X141466261Y-110119161D01*
X141340838Y-109993738D01*
X141340834Y-109993735D01*
X141193353Y-109895190D01*
X141193340Y-109895183D01*
X141029467Y-109827306D01*
X141029458Y-109827303D01*
X140855494Y-109792700D01*
X140855491Y-109792700D01*
X140678109Y-109792700D01*
X140678106Y-109792700D01*
X140504141Y-109827303D01*
X140504132Y-109827306D01*
X140340259Y-109895183D01*
X140340246Y-109895190D01*
X140192765Y-109993735D01*
X140192761Y-109993738D01*
X140067338Y-110119161D01*
X140067335Y-110119165D01*
X139968790Y-110266646D01*
X139968783Y-110266659D01*
X139900906Y-110430532D01*
X139900903Y-110430541D01*
X139866300Y-110604504D01*
X138090000Y-110604504D01*
X138090000Y-108988753D01*
X142760300Y-108988753D01*
X142760300Y-109146446D01*
X142791061Y-109301089D01*
X142791064Y-109301101D01*
X142851402Y-109446772D01*
X142851409Y-109446785D01*
X142939010Y-109577888D01*
X142939013Y-109577892D01*
X143050507Y-109689386D01*
X143050511Y-109689389D01*
X143181614Y-109776990D01*
X143181627Y-109776997D01*
X143327298Y-109837335D01*
X143327303Y-109837337D01*
X143481953Y-109868099D01*
X143481956Y-109868100D01*
X143481958Y-109868100D01*
X143639644Y-109868100D01*
X143639645Y-109868099D01*
X143794297Y-109837337D01*
X143939979Y-109776994D01*
X144071089Y-109689389D01*
X144182589Y-109577889D01*
X144270194Y-109446779D01*
X144330537Y-109301097D01*
X144361300Y-109146442D01*
X144361300Y-108988758D01*
X144361300Y-108988755D01*
X144361299Y-108988753D01*
X144330538Y-108834110D01*
X144330537Y-108834103D01*
X144330535Y-108834098D01*
X144270197Y-108688427D01*
X144270190Y-108688414D01*
X144182589Y-108557311D01*
X144182586Y-108557307D01*
X144071092Y-108445813D01*
X144071088Y-108445810D01*
X143939985Y-108358209D01*
X143939972Y-108358202D01*
X143794301Y-108297864D01*
X143794289Y-108297861D01*
X143639645Y-108267100D01*
X143639642Y-108267100D01*
X143481958Y-108267100D01*
X143481955Y-108267100D01*
X143327310Y-108297861D01*
X143327298Y-108297864D01*
X143181627Y-108358202D01*
X143181614Y-108358209D01*
X143050511Y-108445810D01*
X143050507Y-108445813D01*
X142939013Y-108557307D01*
X142939010Y-108557311D01*
X142851409Y-108688414D01*
X142851402Y-108688427D01*
X142791064Y-108834098D01*
X142791061Y-108834110D01*
X142760300Y-108988753D01*
X138090000Y-108988753D01*
X138090000Y-104450000D01*
X137495857Y-103855857D01*
X141108099Y-103855857D01*
X141135979Y-103996014D01*
X141135981Y-103996020D01*
X141190669Y-104128050D01*
X141190674Y-104128059D01*
X141270067Y-104246878D01*
X141270070Y-104246882D01*
X141371117Y-104347929D01*
X141371121Y-104347932D01*
X141489940Y-104427325D01*
X141489946Y-104427328D01*
X141489947Y-104427329D01*
X141621980Y-104482019D01*
X141621984Y-104482019D01*
X141621985Y-104482020D01*
X141762142Y-104509900D01*
X141768205Y-104510497D01*
X141767946Y-104513123D01*
X141824006Y-104529585D01*
X141869761Y-104582389D01*
X141878584Y-104609708D01*
X141897979Y-104707214D01*
X141897981Y-104707220D01*
X141952669Y-104839250D01*
X141952674Y-104839259D01*
X142032067Y-104958078D01*
X142032070Y-104958082D01*
X142133117Y-105059129D01*
X142133121Y-105059132D01*
X142251940Y-105138525D01*
X142251946Y-105138528D01*
X142251947Y-105138529D01*
X142383980Y-105193219D01*
X142383984Y-105193219D01*
X142383985Y-105193220D01*
X142524142Y-105221100D01*
X142524145Y-105221100D01*
X142579563Y-105221100D01*
X142646602Y-105240785D01*
X142692357Y-105293589D01*
X142694105Y-105297603D01*
X142714670Y-105347250D01*
X142714672Y-105347255D01*
X142714674Y-105347259D01*
X142794067Y-105466078D01*
X142794070Y-105466082D01*
X142895117Y-105567129D01*
X142895121Y-105567132D01*
X143013940Y-105646525D01*
X143013946Y-105646528D01*
X143013947Y-105646529D01*
X143145980Y-105701219D01*
X143145984Y-105701219D01*
X143145985Y-105701220D01*
X143286142Y-105729100D01*
X143286145Y-105729100D01*
X143429057Y-105729100D01*
X143523351Y-105710342D01*
X143569220Y-105701219D01*
X143701253Y-105646529D01*
X143820079Y-105567132D01*
X143921132Y-105466079D01*
X144000529Y-105347253D01*
X144055219Y-105215220D01*
X144083100Y-105075055D01*
X144083100Y-104932145D01*
X144083100Y-104932142D01*
X144055220Y-104791985D01*
X144055219Y-104791984D01*
X144055219Y-104791980D01*
X144000529Y-104659947D01*
X144000528Y-104659946D01*
X144000525Y-104659940D01*
X143921132Y-104541121D01*
X143921129Y-104541117D01*
X143820082Y-104440070D01*
X143820078Y-104440067D01*
X143701259Y-104360674D01*
X143701250Y-104360669D01*
X143569220Y-104305981D01*
X143569214Y-104305979D01*
X143429057Y-104278100D01*
X143429055Y-104278100D01*
X143373637Y-104278100D01*
X143306598Y-104258415D01*
X143260843Y-104205611D01*
X143259094Y-104201596D01*
X143238529Y-104151947D01*
X143238527Y-104151944D01*
X143238525Y-104151940D01*
X143159132Y-104033121D01*
X143159129Y-104033117D01*
X143058082Y-103932070D01*
X143058078Y-103932067D01*
X142939259Y-103852674D01*
X142939250Y-103852669D01*
X142807220Y-103797981D01*
X142807214Y-103797979D01*
X142667057Y-103770099D01*
X142660995Y-103769503D01*
X142661253Y-103766876D01*
X142605194Y-103750415D01*
X142559439Y-103697611D01*
X142550616Y-103670292D01*
X142531220Y-103572785D01*
X142531219Y-103572784D01*
X142531219Y-103572780D01*
X142476529Y-103440747D01*
X142476528Y-103440746D01*
X142476525Y-103440740D01*
X142397132Y-103321921D01*
X142397129Y-103321917D01*
X142296082Y-103220870D01*
X142296078Y-103220867D01*
X142177259Y-103141474D01*
X142177250Y-103141469D01*
X142045220Y-103086781D01*
X142045214Y-103086779D01*
X141905057Y-103058900D01*
X141905055Y-103058900D01*
X141762145Y-103058900D01*
X141762143Y-103058900D01*
X141621985Y-103086779D01*
X141621979Y-103086781D01*
X141489949Y-103141469D01*
X141489940Y-103141474D01*
X141371121Y-103220867D01*
X141371117Y-103220870D01*
X141270070Y-103321917D01*
X141270067Y-103321921D01*
X141190674Y-103440740D01*
X141190669Y-103440749D01*
X141135981Y-103572779D01*
X141135979Y-103572785D01*
X141108100Y-103712942D01*
X141108100Y-103712945D01*
X141108100Y-103855855D01*
X141108100Y-103855857D01*
X141108099Y-103855857D01*
X137495857Y-103855857D01*
X137436819Y-103796819D01*
X137422832Y-103771204D01*
X137411706Y-103758364D01*
X137410170Y-103751304D01*
X137405523Y-103744073D01*
X137404631Y-103737872D01*
X137403334Y-103735496D01*
X137400500Y-103709138D01*
X137400500Y-101830394D01*
X137420185Y-101763355D01*
X137457815Y-101725851D01*
X141497235Y-99149319D01*
X141521131Y-99137480D01*
X141521163Y-99137468D01*
X141525622Y-99135829D01*
X141533741Y-99128339D01*
X141551131Y-99114942D01*
X141560446Y-99109002D01*
X141563187Y-99105083D01*
X141580732Y-99084997D01*
X141584253Y-99081750D01*
X141588883Y-99071732D01*
X141599829Y-99052691D01*
X141602135Y-99049393D01*
X141606161Y-99043638D01*
X141607194Y-99038966D01*
X141615716Y-99013695D01*
X142747096Y-96566635D01*
X142756237Y-96550336D01*
X142756331Y-96550108D01*
X142756332Y-96550108D01*
X142769088Y-96519307D01*
X142771099Y-96514718D01*
X142785083Y-96484475D01*
X142785083Y-96484473D01*
X142785191Y-96484240D01*
X142785467Y-96483392D01*
X142785561Y-96482921D01*
X142786645Y-96477996D01*
X142786750Y-96477560D01*
X142786856Y-96476669D01*
X142786856Y-96443097D01*
X142786957Y-96438091D01*
X142788303Y-96404777D01*
X142788302Y-96404774D01*
X142788312Y-96404530D01*
X142786856Y-96385885D01*
X142786856Y-92393835D01*
X142786863Y-92392478D01*
X142786867Y-92392025D01*
X142787281Y-92354333D01*
X142787280Y-92354331D01*
X142787281Y-92354268D01*
X142787193Y-92353826D01*
X142786933Y-92352479D01*
X142786876Y-92352179D01*
X142772256Y-92316883D01*
X142771770Y-92315694D01*
X141624339Y-89457286D01*
X141620980Y-89442472D01*
X141619619Y-89442837D01*
X141616457Y-89431040D01*
X141604312Y-89406420D01*
X141600442Y-89397754D01*
X141598352Y-89392548D01*
X141590211Y-89372266D01*
X141590209Y-89372264D01*
X141585939Y-89365718D01*
X141581172Y-89359506D01*
X141581171Y-89359505D01*
X141560517Y-89341395D01*
X141553646Y-89334889D01*
X141534432Y-89315249D01*
X141534430Y-89315248D01*
X141524352Y-89308353D01*
X141525138Y-89307203D01*
X141512284Y-89299105D01*
X138647272Y-86787057D01*
X139888899Y-86787057D01*
X139916779Y-86927214D01*
X139916781Y-86927220D01*
X139971469Y-87059250D01*
X139971474Y-87059259D01*
X140050867Y-87178078D01*
X140050870Y-87178082D01*
X140151917Y-87279129D01*
X140151921Y-87279132D01*
X140270740Y-87358525D01*
X140270746Y-87358528D01*
X140270747Y-87358529D01*
X140402780Y-87413219D01*
X140402784Y-87413219D01*
X140402785Y-87413220D01*
X140542942Y-87441100D01*
X140542945Y-87441100D01*
X140685857Y-87441100D01*
X140780151Y-87422342D01*
X140826020Y-87413219D01*
X140958053Y-87358529D01*
X141076879Y-87279132D01*
X141177932Y-87178079D01*
X141257329Y-87059253D01*
X141312019Y-86927220D01*
X141339900Y-86787055D01*
X141339900Y-86644145D01*
X141339900Y-86644142D01*
X141312020Y-86503985D01*
X141312019Y-86503984D01*
X141312019Y-86503980D01*
X141257329Y-86371947D01*
X141257328Y-86371946D01*
X141257325Y-86371940D01*
X141177932Y-86253121D01*
X141177929Y-86253117D01*
X141076882Y-86152070D01*
X141076878Y-86152067D01*
X140958059Y-86072674D01*
X140958050Y-86072669D01*
X140826020Y-86017981D01*
X140826014Y-86017979D01*
X140685857Y-85990100D01*
X140685855Y-85990100D01*
X140542945Y-85990100D01*
X140542943Y-85990100D01*
X140402785Y-86017979D01*
X140402779Y-86017981D01*
X140270749Y-86072669D01*
X140270740Y-86072674D01*
X140151921Y-86152067D01*
X140151917Y-86152070D01*
X140050870Y-86253117D01*
X140050867Y-86253121D01*
X139971474Y-86371940D01*
X139971469Y-86371949D01*
X139916781Y-86503979D01*
X139916779Y-86503985D01*
X139888900Y-86644142D01*
X139888900Y-86644145D01*
X139888900Y-86787055D01*
X139888900Y-86787057D01*
X139888899Y-86787057D01*
X138647272Y-86787057D01*
X138583668Y-86731289D01*
X137075250Y-85408705D01*
X137037820Y-85349707D01*
X137033000Y-85315469D01*
X137033000Y-84704257D01*
X139736499Y-84704257D01*
X139764379Y-84844414D01*
X139764381Y-84844420D01*
X139819069Y-84976450D01*
X139819074Y-84976459D01*
X139898467Y-85095278D01*
X139898470Y-85095282D01*
X139999517Y-85196329D01*
X139999521Y-85196332D01*
X140118340Y-85275725D01*
X140118346Y-85275728D01*
X140118347Y-85275729D01*
X140250380Y-85330419D01*
X140250384Y-85330419D01*
X140250385Y-85330420D01*
X140390542Y-85358300D01*
X140390545Y-85358300D01*
X140533457Y-85358300D01*
X140627751Y-85339542D01*
X140673620Y-85330419D01*
X140805653Y-85275729D01*
X140924479Y-85196332D01*
X141025532Y-85095279D01*
X141104929Y-84976453D01*
X141159619Y-84844420D01*
X141187500Y-84704255D01*
X141187500Y-84561345D01*
X141187500Y-84561342D01*
X141159620Y-84421185D01*
X141159619Y-84421184D01*
X141159619Y-84421180D01*
X141104929Y-84289147D01*
X141104928Y-84289146D01*
X141104925Y-84289140D01*
X141025532Y-84170321D01*
X141025529Y-84170317D01*
X140924482Y-84069270D01*
X140924478Y-84069267D01*
X140805659Y-83989874D01*
X140805650Y-83989869D01*
X140673620Y-83935181D01*
X140673614Y-83935179D01*
X140533457Y-83907300D01*
X140533455Y-83907300D01*
X140390545Y-83907300D01*
X140390543Y-83907300D01*
X140250385Y-83935179D01*
X140250379Y-83935181D01*
X140118349Y-83989869D01*
X140118340Y-83989874D01*
X139999521Y-84069267D01*
X139999517Y-84069270D01*
X139898470Y-84170317D01*
X139898467Y-84170321D01*
X139819074Y-84289140D01*
X139819069Y-84289149D01*
X139764381Y-84421179D01*
X139764379Y-84421185D01*
X139736500Y-84561342D01*
X139736500Y-84561345D01*
X139736500Y-84704255D01*
X139736500Y-84704257D01*
X139736499Y-84704257D01*
X137033000Y-84704257D01*
X137033000Y-84582000D01*
X133985000Y-81534000D01*
X132877795Y-81534000D01*
X132810756Y-81514315D01*
X132783722Y-81490785D01*
X132775657Y-81481394D01*
X132181081Y-80789018D01*
X132170312Y-80774446D01*
X132123609Y-80700494D01*
X130964027Y-78864353D01*
X138594700Y-78864353D01*
X138594700Y-79022046D01*
X138625461Y-79176689D01*
X138625464Y-79176701D01*
X138685802Y-79322372D01*
X138685809Y-79322385D01*
X138773410Y-79453488D01*
X138773413Y-79453492D01*
X138884907Y-79564986D01*
X138884911Y-79564989D01*
X139016014Y-79652590D01*
X139016027Y-79652597D01*
X139124391Y-79697482D01*
X139161703Y-79712937D01*
X139248691Y-79730240D01*
X139302959Y-79741035D01*
X139364870Y-79773420D01*
X139399444Y-79834135D01*
X139395705Y-79903905D01*
X139354838Y-79960577D01*
X139302960Y-79984269D01*
X139212508Y-80002261D01*
X139212498Y-80002264D01*
X139066827Y-80062602D01*
X139066814Y-80062609D01*
X138935711Y-80150210D01*
X138935707Y-80150213D01*
X138824213Y-80261707D01*
X138824210Y-80261711D01*
X138736609Y-80392814D01*
X138736602Y-80392827D01*
X138676264Y-80538498D01*
X138676261Y-80538510D01*
X138645500Y-80693153D01*
X138645500Y-80850846D01*
X138676261Y-81005489D01*
X138676264Y-81005501D01*
X138736602Y-81151172D01*
X138736609Y-81151185D01*
X138824210Y-81282288D01*
X138824213Y-81282292D01*
X138935707Y-81393786D01*
X138935711Y-81393789D01*
X139066814Y-81481390D01*
X139066827Y-81481397D01*
X139193824Y-81534000D01*
X139212503Y-81541737D01*
X139367153Y-81572499D01*
X139367156Y-81572500D01*
X139367158Y-81572500D01*
X139524844Y-81572500D01*
X139524845Y-81572499D01*
X139679497Y-81541737D01*
X139825179Y-81481394D01*
X139956289Y-81393789D01*
X140067789Y-81282289D01*
X140155394Y-81151179D01*
X140215737Y-81005497D01*
X140246500Y-80850842D01*
X140246500Y-80693158D01*
X140246500Y-80693155D01*
X140246499Y-80693153D01*
X140233657Y-80628594D01*
X140215737Y-80538503D01*
X140176169Y-80442976D01*
X140155397Y-80392827D01*
X140155390Y-80392814D01*
X140067789Y-80261711D01*
X140067786Y-80261707D01*
X139956292Y-80150213D01*
X139956288Y-80150210D01*
X139825185Y-80062609D01*
X139825172Y-80062602D01*
X139679501Y-80002264D01*
X139679491Y-80002261D01*
X139538239Y-79974164D01*
X139476328Y-79941779D01*
X139441754Y-79881063D01*
X139445494Y-79811294D01*
X139486361Y-79754622D01*
X139538239Y-79730930D01*
X139628697Y-79712937D01*
X139774379Y-79652594D01*
X139905489Y-79564989D01*
X140016989Y-79453489D01*
X140104594Y-79322379D01*
X140164937Y-79176697D01*
X140195700Y-79022042D01*
X140195700Y-78864358D01*
X140195700Y-78864355D01*
X140195699Y-78864353D01*
X140164938Y-78709710D01*
X140164937Y-78709703D01*
X140164935Y-78709698D01*
X140104597Y-78564027D01*
X140104590Y-78564014D01*
X140016989Y-78432911D01*
X140016986Y-78432907D01*
X139905492Y-78321413D01*
X139905488Y-78321410D01*
X139774385Y-78233809D01*
X139774372Y-78233802D01*
X139628701Y-78173464D01*
X139628689Y-78173461D01*
X139474045Y-78142700D01*
X139474042Y-78142700D01*
X139316358Y-78142700D01*
X139316355Y-78142700D01*
X139161710Y-78173461D01*
X139161698Y-78173464D01*
X139016027Y-78233802D01*
X139016014Y-78233809D01*
X138884911Y-78321410D01*
X138884907Y-78321413D01*
X138773413Y-78432907D01*
X138773410Y-78432911D01*
X138685809Y-78564014D01*
X138685802Y-78564027D01*
X138625464Y-78709698D01*
X138625461Y-78709710D01*
X138594700Y-78864353D01*
X130964027Y-78864353D01*
X129576607Y-76667441D01*
X129566964Y-76645139D01*
X129555508Y-76634032D01*
X129546990Y-76620543D01*
X129527143Y-76606528D01*
X129509699Y-76589615D01*
X129494866Y-76583737D01*
X129481832Y-76574534D01*
X129458131Y-76569181D01*
X129430858Y-76558374D01*
X129430857Y-76558373D01*
X127064574Y-75620746D01*
X126789004Y-75511553D01*
X131990700Y-75511553D01*
X131990700Y-75669246D01*
X132021461Y-75823889D01*
X132021464Y-75823901D01*
X132081802Y-75969572D01*
X132081809Y-75969585D01*
X132169410Y-76100688D01*
X132169413Y-76100692D01*
X132280907Y-76212186D01*
X132280911Y-76212189D01*
X132412014Y-76299790D01*
X132412027Y-76299797D01*
X132557698Y-76360135D01*
X132557703Y-76360137D01*
X132700509Y-76388543D01*
X132712353Y-76390899D01*
X132712356Y-76390900D01*
X132712358Y-76390900D01*
X132870044Y-76390900D01*
X132870045Y-76390899D01*
X133024697Y-76360137D01*
X133170379Y-76299794D01*
X133170384Y-76299790D01*
X133175752Y-76296922D01*
X133176475Y-76298276D01*
X133235946Y-76279643D01*
X133285632Y-76289061D01*
X133395903Y-76334737D01*
X133538910Y-76363183D01*
X133550553Y-76365499D01*
X133550556Y-76365500D01*
X133550558Y-76365500D01*
X133708244Y-76365500D01*
X133708245Y-76365499D01*
X133862897Y-76334737D01*
X134008579Y-76274394D01*
X134139689Y-76186789D01*
X134251189Y-76075289D01*
X134338794Y-75944179D01*
X134399137Y-75798497D01*
X134429900Y-75643842D01*
X134429900Y-75486158D01*
X134429900Y-75486155D01*
X134411157Y-75391932D01*
X134409993Y-75386079D01*
X134416220Y-75316490D01*
X134459082Y-75261312D01*
X134492275Y-75244882D01*
X134492269Y-75244868D01*
X134492492Y-75244775D01*
X134495621Y-75243227D01*
X134497890Y-75242538D01*
X134497897Y-75242537D01*
X134643579Y-75182194D01*
X134774689Y-75094589D01*
X134886189Y-74983089D01*
X134954399Y-74881006D01*
X134964111Y-74866471D01*
X135017723Y-74821665D01*
X135087048Y-74812958D01*
X135136104Y-74832259D01*
X135175345Y-74858479D01*
X135260253Y-74915213D01*
X135260255Y-74915214D01*
X135260259Y-74915216D01*
X135308704Y-74935282D01*
X135424134Y-74983094D01*
X135424136Y-74983094D01*
X135424141Y-74983096D01*
X135598104Y-75017699D01*
X135598107Y-75017700D01*
X135598109Y-75017700D01*
X135775493Y-75017700D01*
X135775494Y-75017699D01*
X135833482Y-75006164D01*
X135949458Y-74983096D01*
X135949461Y-74983094D01*
X135949466Y-74983094D01*
X136096327Y-74922263D01*
X136113340Y-74915216D01*
X136113340Y-74915215D01*
X136113347Y-74915213D01*
X136260835Y-74816664D01*
X136386264Y-74691235D01*
X136484813Y-74543747D01*
X136552694Y-74379866D01*
X136587300Y-74205891D01*
X136587300Y-74028509D01*
X136587300Y-74028506D01*
X136587299Y-74028504D01*
X136552696Y-73854541D01*
X136552693Y-73854532D01*
X136551235Y-73851013D01*
X136519825Y-73775181D01*
X136484816Y-73690659D01*
X136484809Y-73690646D01*
X136386264Y-73543165D01*
X136386261Y-73543161D01*
X136260838Y-73417738D01*
X136260833Y-73417734D01*
X136115994Y-73320955D01*
X141766030Y-73320955D01*
X141766030Y-73968800D01*
X142683018Y-73968800D01*
X142650105Y-74025807D01*
X142616030Y-74152974D01*
X142616030Y-74284626D01*
X142650105Y-74411793D01*
X142683018Y-74468800D01*
X141766030Y-74468800D01*
X141766030Y-75116644D01*
X141772431Y-75176172D01*
X141772433Y-75176179D01*
X141822675Y-75310886D01*
X141822679Y-75310893D01*
X141908839Y-75425987D01*
X141908842Y-75425990D01*
X142023936Y-75512150D01*
X142023943Y-75512154D01*
X142158650Y-75562396D01*
X142158657Y-75562398D01*
X142218185Y-75568799D01*
X142218202Y-75568800D01*
X142866030Y-75568800D01*
X142866030Y-74651812D01*
X142923037Y-74684725D01*
X143050204Y-74718800D01*
X143181856Y-74718800D01*
X143309023Y-74684725D01*
X143366030Y-74651812D01*
X143366030Y-75568800D01*
X144013858Y-75568800D01*
X144013874Y-75568799D01*
X144073402Y-75562398D01*
X144073409Y-75562396D01*
X144208116Y-75512154D01*
X144208123Y-75512150D01*
X144323217Y-75425990D01*
X144323220Y-75425987D01*
X144409380Y-75310893D01*
X144409384Y-75310886D01*
X144459626Y-75176179D01*
X144459628Y-75176172D01*
X144466029Y-75116644D01*
X144466030Y-75116627D01*
X144466030Y-74468800D01*
X143549042Y-74468800D01*
X143581955Y-74411793D01*
X143616030Y-74284626D01*
X143616030Y-74152974D01*
X143581955Y-74025807D01*
X143549042Y-73968800D01*
X144466030Y-73968800D01*
X144466030Y-73320972D01*
X144466029Y-73320955D01*
X144459628Y-73261427D01*
X144459626Y-73261420D01*
X144409384Y-73126713D01*
X144409380Y-73126706D01*
X144323220Y-73011612D01*
X144323217Y-73011609D01*
X144208123Y-72925449D01*
X144208116Y-72925445D01*
X144073409Y-72875203D01*
X144073402Y-72875201D01*
X144013874Y-72868800D01*
X143366030Y-72868800D01*
X143366030Y-73785788D01*
X143309023Y-73752875D01*
X143181856Y-73718800D01*
X143050204Y-73718800D01*
X142923037Y-73752875D01*
X142866030Y-73785788D01*
X142866030Y-72868800D01*
X142218185Y-72868800D01*
X142158657Y-72875201D01*
X142158650Y-72875203D01*
X142023943Y-72925445D01*
X142023936Y-72925449D01*
X141908842Y-73011609D01*
X141908839Y-73011612D01*
X141822679Y-73126706D01*
X141822675Y-73126713D01*
X141772433Y-73261420D01*
X141772431Y-73261427D01*
X141766030Y-73320955D01*
X136115994Y-73320955D01*
X136113353Y-73319190D01*
X136113340Y-73319183D01*
X135949467Y-73251306D01*
X135949458Y-73251303D01*
X135775494Y-73216700D01*
X135775491Y-73216700D01*
X135598109Y-73216700D01*
X135598106Y-73216700D01*
X135424141Y-73251303D01*
X135424132Y-73251306D01*
X135260259Y-73319183D01*
X135260246Y-73319190D01*
X135112765Y-73417735D01*
X135112761Y-73417738D01*
X134987338Y-73543161D01*
X134987335Y-73543165D01*
X134888790Y-73690646D01*
X134888785Y-73690656D01*
X134869851Y-73736368D01*
X134826010Y-73790771D01*
X134759716Y-73812836D01*
X134692016Y-73795557D01*
X134686399Y-73792017D01*
X134643585Y-73763409D01*
X134643572Y-73763402D01*
X134497901Y-73703064D01*
X134497889Y-73703061D01*
X134343245Y-73672300D01*
X134343242Y-73672300D01*
X134185558Y-73672300D01*
X134185555Y-73672300D01*
X134030910Y-73703061D01*
X134030898Y-73703064D01*
X133885227Y-73763402D01*
X133885214Y-73763409D01*
X133754111Y-73851010D01*
X133754107Y-73851013D01*
X133642613Y-73962507D01*
X133642610Y-73962511D01*
X133555009Y-74093614D01*
X133555002Y-74093627D01*
X133494664Y-74239298D01*
X133494661Y-74239310D01*
X133463900Y-74393953D01*
X133463900Y-74551646D01*
X133483806Y-74651719D01*
X133477579Y-74721310D01*
X133434716Y-74776488D01*
X133401524Y-74792918D01*
X133401530Y-74792932D01*
X133401327Y-74793015D01*
X133398192Y-74794568D01*
X133395905Y-74795261D01*
X133250228Y-74855602D01*
X133244847Y-74858479D01*
X133244126Y-74857131D01*
X133184609Y-74875757D01*
X133134966Y-74866337D01*
X133024701Y-74820664D01*
X133024689Y-74820661D01*
X132870045Y-74789900D01*
X132870042Y-74789900D01*
X132712358Y-74789900D01*
X132712355Y-74789900D01*
X132557710Y-74820661D01*
X132557698Y-74820664D01*
X132412027Y-74881002D01*
X132412014Y-74881009D01*
X132280911Y-74968610D01*
X132280907Y-74968613D01*
X132169413Y-75080107D01*
X132169410Y-75080111D01*
X132081809Y-75211214D01*
X132081802Y-75211227D01*
X132021464Y-75356898D01*
X132021461Y-75356910D01*
X131990700Y-75511553D01*
X126789004Y-75511553D01*
X125002896Y-74803817D01*
X125001123Y-74803098D01*
X124966531Y-74788770D01*
X124965990Y-74788671D01*
X124964123Y-74788315D01*
X124963654Y-74788221D01*
X124926160Y-74788801D01*
X124924245Y-74788816D01*
X120770141Y-74788816D01*
X120749777Y-74784892D01*
X120730649Y-74788816D01*
X120711119Y-74788816D01*
X120691956Y-74796753D01*
X120671640Y-74800921D01*
X120655468Y-74811866D01*
X120637427Y-74819340D01*
X120622761Y-74834005D01*
X120597573Y-74851054D01*
X120597570Y-74851055D01*
X117740092Y-76785206D01*
X117733637Y-76788768D01*
X117697095Y-76814292D01*
X117695602Y-76815319D01*
X117664496Y-76836375D01*
X117664142Y-76836745D01*
X117662874Y-76838047D01*
X117662546Y-76838378D01*
X117642326Y-76870037D01*
X117641338Y-76871559D01*
X117616801Y-76908763D01*
X117613419Y-76915297D01*
X115233106Y-80642257D01*
X115180431Y-80688161D01*
X115128611Y-80699513D01*
X102421862Y-80700490D01*
X102354821Y-80680811D01*
X102334171Y-80664171D01*
X101840000Y-80170000D01*
X97560000Y-80170000D01*
X97559999Y-80170000D01*
X97065410Y-80664588D01*
X97004087Y-80698073D01*
X96977739Y-80700907D01*
X94824510Y-80701074D01*
X94757469Y-80681395D01*
X94711710Y-80628594D01*
X94700500Y-80577074D01*
X94700500Y-76721457D01*
X98224499Y-76721457D01*
X98252379Y-76861614D01*
X98252381Y-76861620D01*
X98307069Y-76993650D01*
X98307074Y-76993659D01*
X98386467Y-77112478D01*
X98386470Y-77112482D01*
X98487517Y-77213529D01*
X98487521Y-77213532D01*
X98606340Y-77292925D01*
X98606346Y-77292928D01*
X98606347Y-77292929D01*
X98738380Y-77347619D01*
X98738384Y-77347619D01*
X98738385Y-77347620D01*
X98878542Y-77375500D01*
X98878545Y-77375500D01*
X99021457Y-77375500D01*
X99117224Y-77356450D01*
X99161620Y-77347619D01*
X99293653Y-77292929D01*
X99293658Y-77292925D01*
X99293661Y-77292924D01*
X99344117Y-77259210D01*
X99410794Y-77238331D01*
X99478174Y-77256815D01*
X99524865Y-77308793D01*
X99526838Y-77313217D01*
X99527074Y-77313659D01*
X99606467Y-77432478D01*
X99606470Y-77432482D01*
X99707517Y-77533529D01*
X99707521Y-77533532D01*
X99826340Y-77612925D01*
X99826346Y-77612928D01*
X99826347Y-77612929D01*
X99958380Y-77667619D01*
X99958384Y-77667619D01*
X99958385Y-77667620D01*
X100098542Y-77695500D01*
X100098545Y-77695500D01*
X100241457Y-77695500D01*
X100340552Y-77675788D01*
X100381620Y-77667619D01*
X100513653Y-77612929D01*
X100618490Y-77542878D01*
X100685167Y-77522001D01*
X100752547Y-77540485D01*
X100756279Y-77542884D01*
X100756342Y-77542926D01*
X100756353Y-77542932D01*
X100815583Y-77567465D01*
X100879556Y-77593964D01*
X100933959Y-77637803D01*
X100950242Y-77676142D01*
X100951412Y-77675788D01*
X100953181Y-77681620D01*
X101007869Y-77813650D01*
X101007874Y-77813659D01*
X101087267Y-77932478D01*
X101087270Y-77932482D01*
X101188317Y-78033529D01*
X101188321Y-78033532D01*
X101307140Y-78112925D01*
X101307146Y-78112928D01*
X101307147Y-78112929D01*
X101439180Y-78167619D01*
X101439184Y-78167619D01*
X101439185Y-78167620D01*
X101579342Y-78195500D01*
X101579345Y-78195500D01*
X101722257Y-78195500D01*
X101816551Y-78176742D01*
X101862420Y-78167619D01*
X101994453Y-78112929D01*
X102113279Y-78033532D01*
X102214332Y-77932479D01*
X102274698Y-77842135D01*
X104415100Y-77842135D01*
X104415100Y-79637870D01*
X104415101Y-79637876D01*
X104421508Y-79697483D01*
X104471802Y-79832328D01*
X104471806Y-79832335D01*
X104558052Y-79947544D01*
X104558055Y-79947547D01*
X104673264Y-80033793D01*
X104673271Y-80033797D01*
X104808117Y-80084091D01*
X104808116Y-80084091D01*
X104815044Y-80084835D01*
X104867727Y-80090500D01*
X106663472Y-80090499D01*
X106723083Y-80084091D01*
X106857931Y-80033796D01*
X106973146Y-79947546D01*
X107059396Y-79832331D01*
X107109691Y-79697483D01*
X107116100Y-79637873D01*
X107116099Y-77842128D01*
X107109691Y-77782517D01*
X107101885Y-77761589D01*
X107059397Y-77647671D01*
X107059393Y-77647664D01*
X106973147Y-77532455D01*
X106973144Y-77532452D01*
X106857935Y-77446206D01*
X106857928Y-77446202D01*
X106723082Y-77395908D01*
X106723083Y-77395908D01*
X106663483Y-77389501D01*
X106663481Y-77389500D01*
X106663473Y-77389500D01*
X106663464Y-77389500D01*
X104867729Y-77389500D01*
X104867723Y-77389501D01*
X104808116Y-77395908D01*
X104673271Y-77446202D01*
X104673264Y-77446206D01*
X104558055Y-77532452D01*
X104558052Y-77532455D01*
X104471806Y-77647664D01*
X104471802Y-77647671D01*
X104421508Y-77782517D01*
X104415101Y-77842116D01*
X104415101Y-77842123D01*
X104415100Y-77842135D01*
X102274698Y-77842135D01*
X102293729Y-77813653D01*
X102298954Y-77801037D01*
X102303936Y-77794854D01*
X102305763Y-77787124D01*
X102325546Y-77768035D01*
X102342792Y-77746632D01*
X102351609Y-77742886D01*
X102356043Y-77738609D01*
X102389318Y-77726869D01*
X102472020Y-77710419D01*
X102604053Y-77655729D01*
X102722879Y-77576332D01*
X102823932Y-77475279D01*
X102903329Y-77356453D01*
X102958019Y-77224420D01*
X102985900Y-77084255D01*
X102985900Y-76941345D01*
X102985900Y-76941342D01*
X102958020Y-76801185D01*
X102958019Y-76801184D01*
X102958019Y-76801180D01*
X102912897Y-76692245D01*
X102903330Y-76669149D01*
X102903325Y-76669140D01*
X102823932Y-76550321D01*
X102823929Y-76550317D01*
X102722882Y-76449270D01*
X102722878Y-76449267D01*
X102604059Y-76369874D01*
X102604050Y-76369869D01*
X102472020Y-76315181D01*
X102472014Y-76315179D01*
X102331857Y-76287300D01*
X102331855Y-76287300D01*
X102188945Y-76287300D01*
X102188943Y-76287300D01*
X102048785Y-76315179D01*
X102048779Y-76315181D01*
X101916749Y-76369869D01*
X101916742Y-76369873D01*
X101809015Y-76441854D01*
X101742338Y-76462731D01*
X101674958Y-76444246D01*
X101652444Y-76426432D01*
X101562482Y-76336470D01*
X101562478Y-76336467D01*
X101443659Y-76257074D01*
X101443650Y-76257069D01*
X101311620Y-76202381D01*
X101311614Y-76202379D01*
X101171457Y-76174500D01*
X101171455Y-76174500D01*
X101028545Y-76174500D01*
X101028543Y-76174500D01*
X100888385Y-76202379D01*
X100888379Y-76202381D01*
X100756349Y-76257069D01*
X100756342Y-76257073D01*
X100651508Y-76327121D01*
X100584831Y-76347998D01*
X100517451Y-76329513D01*
X100513724Y-76327118D01*
X100513657Y-76327073D01*
X100513650Y-76327069D01*
X100381620Y-76272381D01*
X100381614Y-76272379D01*
X100241457Y-76244500D01*
X100241455Y-76244500D01*
X100098545Y-76244500D01*
X100098543Y-76244500D01*
X99958385Y-76272379D01*
X99958379Y-76272381D01*
X99826349Y-76327069D01*
X99826342Y-76327073D01*
X99775880Y-76360791D01*
X99709202Y-76381668D01*
X99641822Y-76363183D01*
X99595133Y-76311204D01*
X99593161Y-76306782D01*
X99592925Y-76306340D01*
X99513532Y-76187521D01*
X99513529Y-76187517D01*
X99412482Y-76086470D01*
X99412478Y-76086467D01*
X99293659Y-76007074D01*
X99293650Y-76007069D01*
X99161620Y-75952381D01*
X99161614Y-75952379D01*
X99021457Y-75924500D01*
X99021455Y-75924500D01*
X98878545Y-75924500D01*
X98878543Y-75924500D01*
X98738385Y-75952379D01*
X98738379Y-75952381D01*
X98606349Y-76007069D01*
X98606340Y-76007074D01*
X98487521Y-76086467D01*
X98487517Y-76086470D01*
X98386470Y-76187517D01*
X98386467Y-76187521D01*
X98307074Y-76306340D01*
X98307069Y-76306349D01*
X98252381Y-76438379D01*
X98252379Y-76438385D01*
X98224500Y-76578542D01*
X98224500Y-76578545D01*
X98224500Y-76721455D01*
X98224500Y-76721457D01*
X98224499Y-76721457D01*
X94700500Y-76721457D01*
X94700500Y-75613153D01*
X109079900Y-75613153D01*
X109079900Y-75770846D01*
X109110661Y-75925489D01*
X109110664Y-75925501D01*
X109171002Y-76071172D01*
X109171009Y-76071185D01*
X109258610Y-76202288D01*
X109258613Y-76202292D01*
X109370108Y-76313787D01*
X109370111Y-76313789D01*
X109481992Y-76388545D01*
X109526795Y-76442155D01*
X109537100Y-76491646D01*
X109537100Y-76532846D01*
X109567861Y-76687489D01*
X109567864Y-76687501D01*
X109628202Y-76833172D01*
X109628209Y-76833185D01*
X109715810Y-76964288D01*
X109715813Y-76964292D01*
X109827307Y-77075786D01*
X109827311Y-77075789D01*
X109958414Y-77163390D01*
X109958427Y-77163397D01*
X110091802Y-77218642D01*
X110104103Y-77223737D01*
X110258753Y-77254499D01*
X110258756Y-77254500D01*
X110258758Y-77254500D01*
X110306069Y-77254500D01*
X110373108Y-77274185D01*
X110418863Y-77326989D01*
X110427685Y-77354306D01*
X110428112Y-77356450D01*
X110431462Y-77373295D01*
X110431463Y-77373298D01*
X110491802Y-77518972D01*
X110491809Y-77518985D01*
X110579410Y-77650088D01*
X110579413Y-77650092D01*
X110690907Y-77761586D01*
X110690911Y-77761589D01*
X110822014Y-77849190D01*
X110822027Y-77849197D01*
X110967698Y-77909535D01*
X110967703Y-77909537D01*
X111083055Y-77932482D01*
X111122353Y-77940299D01*
X111122356Y-77940300D01*
X111122358Y-77940300D01*
X111280044Y-77940300D01*
X111280045Y-77940299D01*
X111434697Y-77909537D01*
X111580379Y-77849194D01*
X111711489Y-77761589D01*
X111822989Y-77650089D01*
X111910594Y-77518979D01*
X111970937Y-77373297D01*
X112001700Y-77218642D01*
X112001700Y-77060958D01*
X112001700Y-77060955D01*
X112001699Y-77060953D01*
X111988312Y-76993653D01*
X111970937Y-76906303D01*
X111952429Y-76861620D01*
X111910597Y-76760627D01*
X111910590Y-76760614D01*
X111822989Y-76629511D01*
X111822986Y-76629507D01*
X111711492Y-76518013D01*
X111711488Y-76518010D01*
X111580385Y-76430409D01*
X111580372Y-76430402D01*
X111434701Y-76370064D01*
X111434689Y-76370061D01*
X111280045Y-76339300D01*
X111280042Y-76339300D01*
X111232731Y-76339300D01*
X111165692Y-76319615D01*
X111119937Y-76266811D01*
X111111114Y-76239493D01*
X111107337Y-76220503D01*
X111057709Y-76100689D01*
X111046997Y-76074827D01*
X111046990Y-76074814D01*
X110959389Y-75943711D01*
X110959386Y-75943707D01*
X110847889Y-75832210D01*
X110736009Y-75757455D01*
X110691204Y-75703843D01*
X110680900Y-75654353D01*
X110680900Y-75613155D01*
X110680899Y-75613153D01*
X110650137Y-75458503D01*
X110622563Y-75391932D01*
X110589797Y-75312827D01*
X110589790Y-75312814D01*
X110502189Y-75181711D01*
X110502186Y-75181707D01*
X110390692Y-75070213D01*
X110390688Y-75070210D01*
X110259585Y-74982609D01*
X110259572Y-74982602D01*
X110113901Y-74922264D01*
X110113889Y-74922261D01*
X109959245Y-74891500D01*
X109959242Y-74891500D01*
X109801558Y-74891500D01*
X109801555Y-74891500D01*
X109646910Y-74922261D01*
X109646898Y-74922264D01*
X109501227Y-74982602D01*
X109501214Y-74982609D01*
X109370111Y-75070210D01*
X109370107Y-75070213D01*
X109258613Y-75181707D01*
X109258610Y-75181711D01*
X109171009Y-75312814D01*
X109171002Y-75312827D01*
X109110664Y-75458498D01*
X109110661Y-75458510D01*
X109079900Y-75613153D01*
X94700500Y-75613153D01*
X94700500Y-74899857D01*
X100620499Y-74899857D01*
X100648379Y-75040014D01*
X100648381Y-75040020D01*
X100703069Y-75172050D01*
X100703074Y-75172059D01*
X100782467Y-75290878D01*
X100782470Y-75290882D01*
X100883517Y-75391929D01*
X100883521Y-75391932D01*
X101002340Y-75471325D01*
X101002346Y-75471328D01*
X101002347Y-75471329D01*
X101134380Y-75526019D01*
X101134384Y-75526019D01*
X101134385Y-75526020D01*
X101274542Y-75553900D01*
X101274545Y-75553900D01*
X101417457Y-75553900D01*
X101511751Y-75535142D01*
X101557620Y-75526019D01*
X101689653Y-75471329D01*
X101808479Y-75391932D01*
X101909532Y-75290879D01*
X101934567Y-75253410D01*
X101988178Y-75208605D01*
X102037670Y-75198300D01*
X102077857Y-75198300D01*
X102189098Y-75176172D01*
X102218020Y-75170419D01*
X102350053Y-75115729D01*
X102468879Y-75036332D01*
X102569932Y-74935279D01*
X102649329Y-74816453D01*
X102704019Y-74684420D01*
X102731900Y-74544255D01*
X102731900Y-74401345D01*
X102731900Y-74401342D01*
X102704020Y-74261185D01*
X102704019Y-74261184D01*
X102704019Y-74261180D01*
X102661718Y-74159058D01*
X102649330Y-74129149D01*
X102649325Y-74129140D01*
X102569932Y-74010321D01*
X102569929Y-74010317D01*
X102468882Y-73909270D01*
X102468878Y-73909267D01*
X102350059Y-73829874D01*
X102350050Y-73829869D01*
X102218020Y-73775181D01*
X102218014Y-73775179D01*
X102077857Y-73747300D01*
X102077855Y-73747300D01*
X101934945Y-73747300D01*
X101934943Y-73747300D01*
X101794785Y-73775179D01*
X101794779Y-73775181D01*
X101662749Y-73829869D01*
X101662740Y-73829874D01*
X101543921Y-73909267D01*
X101543917Y-73909270D01*
X101442870Y-74010317D01*
X101442866Y-74010322D01*
X101417833Y-74047789D01*
X101364222Y-74092595D01*
X101314730Y-74102900D01*
X101274543Y-74102900D01*
X101134385Y-74130779D01*
X101134379Y-74130781D01*
X101002349Y-74185469D01*
X101002340Y-74185474D01*
X100883521Y-74264867D01*
X100883517Y-74264870D01*
X100782470Y-74365917D01*
X100782467Y-74365921D01*
X100703074Y-74484740D01*
X100703069Y-74484749D01*
X100648381Y-74616779D01*
X100648379Y-74616785D01*
X100620500Y-74756942D01*
X100620500Y-74756945D01*
X100620500Y-74899855D01*
X100620500Y-74899857D01*
X100620499Y-74899857D01*
X94700500Y-74899857D01*
X94700500Y-71234504D01*
X95924300Y-71234504D01*
X95924300Y-71411895D01*
X95958903Y-71585858D01*
X95958906Y-71585867D01*
X96026783Y-71749740D01*
X96026790Y-71749753D01*
X96125335Y-71897234D01*
X96125338Y-71897238D01*
X96250761Y-72022661D01*
X96250765Y-72022664D01*
X96398246Y-72121209D01*
X96398259Y-72121216D01*
X96521163Y-72172123D01*
X96562134Y-72189094D01*
X96562136Y-72189094D01*
X96562141Y-72189096D01*
X96736104Y-72223699D01*
X96736107Y-72223700D01*
X96736109Y-72223700D01*
X96913493Y-72223700D01*
X96913494Y-72223699D01*
X96971482Y-72212164D01*
X97087458Y-72189096D01*
X97087461Y-72189094D01*
X97087466Y-72189094D01*
X97251347Y-72121213D01*
X97398835Y-72022664D01*
X97524264Y-71897235D01*
X97622813Y-71749747D01*
X97690694Y-71585866D01*
X97725300Y-71411891D01*
X97725300Y-71234509D01*
X97725300Y-71234506D01*
X97725299Y-71234504D01*
X97706632Y-71140657D01*
X101636499Y-71140657D01*
X101664379Y-71280814D01*
X101664381Y-71280820D01*
X101719069Y-71412850D01*
X101719074Y-71412859D01*
X101798467Y-71531678D01*
X101798470Y-71531682D01*
X101899517Y-71632729D01*
X101899521Y-71632732D01*
X102018340Y-71712125D01*
X102018346Y-71712128D01*
X102018347Y-71712129D01*
X102150380Y-71766819D01*
X102150384Y-71766819D01*
X102150385Y-71766820D01*
X102290542Y-71794700D01*
X102290545Y-71794700D01*
X102296786Y-71794700D01*
X102363825Y-71814385D01*
X102399888Y-71849810D01*
X102458864Y-71938074D01*
X102458870Y-71938082D01*
X102559917Y-72039129D01*
X102559921Y-72039132D01*
X102678740Y-72118525D01*
X102678749Y-72118530D01*
X102685234Y-72121216D01*
X102810780Y-72173219D01*
X102810784Y-72173219D01*
X102810785Y-72173220D01*
X102950942Y-72201100D01*
X102950945Y-72201100D01*
X103093857Y-72201100D01*
X103188151Y-72182342D01*
X103234020Y-72173219D01*
X103366053Y-72118529D01*
X103484879Y-72039132D01*
X103585932Y-71938079D01*
X103665329Y-71819253D01*
X103720019Y-71687220D01*
X103740180Y-71585866D01*
X103747900Y-71547057D01*
X103747900Y-71404142D01*
X103720020Y-71263985D01*
X103720019Y-71263984D01*
X103720019Y-71263980D01*
X103665329Y-71131947D01*
X103665328Y-71131946D01*
X103665325Y-71131940D01*
X103585932Y-71013121D01*
X103585929Y-71013117D01*
X103484882Y-70912070D01*
X103484878Y-70912067D01*
X103366059Y-70832674D01*
X103366050Y-70832669D01*
X103234020Y-70777981D01*
X103234014Y-70777979D01*
X103093857Y-70750100D01*
X103093855Y-70750100D01*
X103087614Y-70750100D01*
X103020575Y-70730415D01*
X102984512Y-70694990D01*
X102925535Y-70606725D01*
X102925529Y-70606717D01*
X102824482Y-70505670D01*
X102824478Y-70505667D01*
X102705659Y-70426274D01*
X102705650Y-70426269D01*
X102573620Y-70371581D01*
X102573614Y-70371579D01*
X102433457Y-70343700D01*
X102433455Y-70343700D01*
X102290545Y-70343700D01*
X102290543Y-70343700D01*
X102150385Y-70371579D01*
X102150379Y-70371581D01*
X102018349Y-70426269D01*
X102018340Y-70426274D01*
X101899521Y-70505667D01*
X101899517Y-70505670D01*
X101798470Y-70606717D01*
X101798467Y-70606721D01*
X101719074Y-70725540D01*
X101719069Y-70725549D01*
X101664381Y-70857579D01*
X101664379Y-70857585D01*
X101636500Y-70997742D01*
X101636500Y-70997745D01*
X101636500Y-71140655D01*
X101636500Y-71140657D01*
X101636499Y-71140657D01*
X97706632Y-71140657D01*
X97690696Y-71060541D01*
X97690694Y-71060538D01*
X97690694Y-71060534D01*
X97629198Y-70912067D01*
X97622816Y-70896659D01*
X97622809Y-70896646D01*
X97524264Y-70749165D01*
X97524261Y-70749161D01*
X97398838Y-70623738D01*
X97398834Y-70623735D01*
X97251353Y-70525190D01*
X97251340Y-70525183D01*
X97087467Y-70457306D01*
X97087458Y-70457303D01*
X96913494Y-70422700D01*
X96913491Y-70422700D01*
X96736109Y-70422700D01*
X96736106Y-70422700D01*
X96562141Y-70457303D01*
X96562132Y-70457306D01*
X96398259Y-70525183D01*
X96398246Y-70525190D01*
X96250765Y-70623735D01*
X96250761Y-70623738D01*
X96125338Y-70749161D01*
X96125335Y-70749165D01*
X96026790Y-70896646D01*
X96026783Y-70896659D01*
X95958906Y-71060532D01*
X95958903Y-71060541D01*
X95924300Y-71234504D01*
X94700500Y-71234504D01*
X94700500Y-69311857D01*
X98791699Y-69311857D01*
X98819579Y-69452014D01*
X98819581Y-69452020D01*
X98874269Y-69584050D01*
X98874274Y-69584059D01*
X98953667Y-69702878D01*
X98953670Y-69702882D01*
X99054717Y-69803929D01*
X99054721Y-69803932D01*
X99173540Y-69883325D01*
X99173546Y-69883328D01*
X99173547Y-69883329D01*
X99305580Y-69938019D01*
X99305584Y-69938019D01*
X99305585Y-69938020D01*
X99445742Y-69965900D01*
X99445745Y-69965900D01*
X99588657Y-69965900D01*
X99682951Y-69947142D01*
X99728820Y-69938019D01*
X99860853Y-69883329D01*
X99979679Y-69803932D01*
X100080732Y-69702879D01*
X100160129Y-69584053D01*
X100214819Y-69452020D01*
X100239271Y-69329093D01*
X100242700Y-69311857D01*
X100242700Y-69168942D01*
X100214820Y-69028785D01*
X100214819Y-69028784D01*
X100214819Y-69028780D01*
X100170875Y-68922691D01*
X100160130Y-68896749D01*
X100160125Y-68896740D01*
X100080732Y-68777921D01*
X100080729Y-68777917D01*
X99979682Y-68676870D01*
X99979678Y-68676867D01*
X99944786Y-68653553D01*
X105371500Y-68653553D01*
X105371500Y-68811246D01*
X105402261Y-68965889D01*
X105402264Y-68965901D01*
X105462602Y-69111572D01*
X105462609Y-69111585D01*
X105550210Y-69242688D01*
X105550213Y-69242692D01*
X105661707Y-69354186D01*
X105661711Y-69354189D01*
X105792814Y-69441790D01*
X105792827Y-69441797D01*
X105890129Y-69482100D01*
X105938503Y-69502137D01*
X106093153Y-69532899D01*
X106093156Y-69532900D01*
X106093158Y-69532900D01*
X106250844Y-69532900D01*
X106250845Y-69532899D01*
X106405497Y-69502137D01*
X106551179Y-69441794D01*
X106682289Y-69354189D01*
X106793789Y-69242689D01*
X106854583Y-69151704D01*
X112688300Y-69151704D01*
X112688300Y-69329095D01*
X112722903Y-69503058D01*
X112722906Y-69503067D01*
X112790783Y-69666940D01*
X112790790Y-69666953D01*
X112889335Y-69814434D01*
X112889338Y-69814438D01*
X113014761Y-69939861D01*
X113014765Y-69939864D01*
X113162246Y-70038409D01*
X113162259Y-70038416D01*
X113285163Y-70089323D01*
X113326134Y-70106294D01*
X113326136Y-70106294D01*
X113326141Y-70106296D01*
X113500104Y-70140899D01*
X113500107Y-70140900D01*
X113500109Y-70140900D01*
X113677493Y-70140900D01*
X113677494Y-70140899D01*
X113735482Y-70129364D01*
X113851458Y-70106296D01*
X113851461Y-70106294D01*
X113851466Y-70106294D01*
X114015347Y-70038413D01*
X114162835Y-69939864D01*
X114288264Y-69814435D01*
X114386813Y-69666947D01*
X114454694Y-69503066D01*
X114454880Y-69502135D01*
X114489299Y-69329095D01*
X114489300Y-69329093D01*
X114489300Y-69151706D01*
X114489299Y-69151704D01*
X114454696Y-68977741D01*
X114454693Y-68977732D01*
X114449935Y-68966246D01*
X114421149Y-68896749D01*
X114386816Y-68813859D01*
X114386809Y-68813846D01*
X114288264Y-68666365D01*
X114288261Y-68666361D01*
X114162838Y-68540938D01*
X114162834Y-68540935D01*
X114015353Y-68442390D01*
X114015340Y-68442383D01*
X113851467Y-68374506D01*
X113851458Y-68374503D01*
X113677494Y-68339900D01*
X113677491Y-68339900D01*
X113500109Y-68339900D01*
X113500106Y-68339900D01*
X113326141Y-68374503D01*
X113326132Y-68374506D01*
X113162259Y-68442383D01*
X113162246Y-68442390D01*
X113014765Y-68540935D01*
X113014761Y-68540938D01*
X112889338Y-68666361D01*
X112889335Y-68666365D01*
X112790790Y-68813846D01*
X112790783Y-68813859D01*
X112722906Y-68977732D01*
X112722903Y-68977741D01*
X112688300Y-69151704D01*
X106854583Y-69151704D01*
X106881394Y-69111579D01*
X106941737Y-68965897D01*
X106972500Y-68811242D01*
X106972500Y-68653558D01*
X106972500Y-68653555D01*
X106972499Y-68653553D01*
X106962395Y-68602758D01*
X106941737Y-68498903D01*
X106918329Y-68442390D01*
X106881397Y-68353227D01*
X106881390Y-68353214D01*
X106793792Y-68222116D01*
X106793789Y-68222111D01*
X106793784Y-68222106D01*
X106793781Y-68222102D01*
X106717232Y-68145553D01*
X107403500Y-68145553D01*
X107403500Y-68303246D01*
X107434261Y-68457889D01*
X107434264Y-68457901D01*
X107494602Y-68603572D01*
X107494609Y-68603585D01*
X107582210Y-68734688D01*
X107582213Y-68734692D01*
X107693707Y-68846186D01*
X107693711Y-68846189D01*
X107824814Y-68933790D01*
X107824827Y-68933797D01*
X107930902Y-68977734D01*
X107970503Y-68994137D01*
X108125153Y-69024899D01*
X108125156Y-69024900D01*
X108125158Y-69024900D01*
X108282844Y-69024900D01*
X108282845Y-69024899D01*
X108283889Y-69024691D01*
X108287370Y-69024000D01*
X108367736Y-69008013D01*
X108437497Y-68994137D01*
X108583179Y-68933794D01*
X108714289Y-68846189D01*
X108825789Y-68734689D01*
X108913394Y-68603579D01*
X108973737Y-68457897D01*
X109004500Y-68303242D01*
X109004500Y-68145558D01*
X109004500Y-68145555D01*
X109004499Y-68145553D01*
X108997549Y-68110613D01*
X108973737Y-67990903D01*
X108951222Y-67936547D01*
X108913397Y-67845227D01*
X108913389Y-67845212D01*
X108897854Y-67821963D01*
X108897853Y-67821962D01*
X108855889Y-67759158D01*
X110432154Y-67759158D01*
X110432154Y-67936549D01*
X110466757Y-68110512D01*
X110466760Y-68110521D01*
X110534637Y-68274394D01*
X110534644Y-68274407D01*
X110633189Y-68421888D01*
X110633192Y-68421892D01*
X110758615Y-68547315D01*
X110758619Y-68547318D01*
X110906100Y-68645863D01*
X110906113Y-68645870D01*
X111020713Y-68693338D01*
X111069988Y-68713748D01*
X111069990Y-68713748D01*
X111069995Y-68713750D01*
X111243958Y-68748353D01*
X111243961Y-68748354D01*
X111243963Y-68748354D01*
X111421347Y-68748354D01*
X111421348Y-68748353D01*
X111490048Y-68734688D01*
X111595312Y-68713750D01*
X111595315Y-68713748D01*
X111595320Y-68713748D01*
X111759201Y-68645867D01*
X111906689Y-68547318D01*
X112032118Y-68421889D01*
X112130667Y-68274401D01*
X112130668Y-68274398D01*
X112130670Y-68274395D01*
X112156554Y-68211904D01*
X119673300Y-68211904D01*
X119673300Y-68389295D01*
X119707903Y-68563258D01*
X119707906Y-68563267D01*
X119775783Y-68727140D01*
X119775790Y-68727153D01*
X119874335Y-68874634D01*
X119874338Y-68874638D01*
X119999761Y-69000061D01*
X119999765Y-69000064D01*
X120147246Y-69098609D01*
X120147259Y-69098616D01*
X120195687Y-69118675D01*
X120311134Y-69166494D01*
X120311136Y-69166494D01*
X120311141Y-69166496D01*
X120485104Y-69201099D01*
X120485107Y-69201100D01*
X120485109Y-69201100D01*
X120662493Y-69201100D01*
X120662494Y-69201099D01*
X120720482Y-69189564D01*
X120836458Y-69166496D01*
X120836461Y-69166494D01*
X120836466Y-69166494D01*
X121000347Y-69098613D01*
X121147835Y-69000064D01*
X121273264Y-68874635D01*
X121359681Y-68745304D01*
X128791900Y-68745304D01*
X128791900Y-68922695D01*
X128826503Y-69096658D01*
X128826506Y-69096667D01*
X128894383Y-69260540D01*
X128894390Y-69260553D01*
X128992935Y-69408034D01*
X128992938Y-69408038D01*
X129118361Y-69533461D01*
X129118365Y-69533464D01*
X129265846Y-69632009D01*
X129265859Y-69632016D01*
X129388763Y-69682923D01*
X129429734Y-69699894D01*
X129429736Y-69699894D01*
X129429741Y-69699896D01*
X129603704Y-69734499D01*
X129603707Y-69734500D01*
X129603709Y-69734500D01*
X129781093Y-69734500D01*
X129781094Y-69734499D01*
X129839082Y-69722964D01*
X129955058Y-69699896D01*
X129955061Y-69699894D01*
X129955066Y-69699894D01*
X130118947Y-69632013D01*
X130266435Y-69533464D01*
X130391864Y-69408035D01*
X130490413Y-69260547D01*
X130558294Y-69096666D01*
X130565432Y-69060785D01*
X130592899Y-68922695D01*
X130592900Y-68922693D01*
X130592900Y-68745306D01*
X130592899Y-68745304D01*
X130558296Y-68571341D01*
X130558293Y-68571332D01*
X130554952Y-68563267D01*
X130528295Y-68498910D01*
X130490416Y-68407459D01*
X130490409Y-68407446D01*
X130391864Y-68259965D01*
X130391861Y-68259961D01*
X130266438Y-68134538D01*
X130266434Y-68134535D01*
X130118953Y-68035990D01*
X130118940Y-68035983D01*
X129955067Y-67968106D01*
X129955058Y-67968103D01*
X129781094Y-67933500D01*
X129781091Y-67933500D01*
X129603709Y-67933500D01*
X129603706Y-67933500D01*
X129429741Y-67968103D01*
X129429732Y-67968106D01*
X129265859Y-68035983D01*
X129265846Y-68035990D01*
X129118365Y-68134535D01*
X129118361Y-68134538D01*
X128992938Y-68259961D01*
X128992935Y-68259965D01*
X128894390Y-68407446D01*
X128894383Y-68407459D01*
X128826506Y-68571332D01*
X128826503Y-68571341D01*
X128791900Y-68745304D01*
X121359681Y-68745304D01*
X121371813Y-68727147D01*
X121377363Y-68713748D01*
X121386469Y-68691765D01*
X121409706Y-68635662D01*
X121439694Y-68563266D01*
X121442867Y-68547318D01*
X121470689Y-68407446D01*
X121474300Y-68389291D01*
X121474300Y-68211909D01*
X121474300Y-68211906D01*
X121474299Y-68211904D01*
X121439696Y-68037941D01*
X121439693Y-68037932D01*
X121438889Y-68035990D01*
X121397040Y-67934959D01*
X121389572Y-67865491D01*
X121420847Y-67803012D01*
X121480936Y-67767360D01*
X121550762Y-67769854D01*
X121559054Y-67772947D01*
X121686498Y-67825735D01*
X121686503Y-67825737D01*
X121841153Y-67856499D01*
X121841156Y-67856500D01*
X121841158Y-67856500D01*
X121998844Y-67856500D01*
X121998845Y-67856499D01*
X122153497Y-67825737D01*
X122299179Y-67765394D01*
X122430289Y-67677789D01*
X122541789Y-67566289D01*
X122629394Y-67435179D01*
X122689737Y-67289497D01*
X122720500Y-67134842D01*
X122720500Y-66977158D01*
X122720500Y-66977155D01*
X122720499Y-66977153D01*
X122716429Y-66956693D01*
X122689737Y-66822503D01*
X122669969Y-66774779D01*
X122629397Y-66676827D01*
X122629390Y-66676814D01*
X122541789Y-66545711D01*
X122541786Y-66545707D01*
X122430292Y-66434213D01*
X122430288Y-66434210D01*
X122299185Y-66346609D01*
X122299172Y-66346602D01*
X122153497Y-66286262D01*
X122151510Y-66285660D01*
X122150596Y-66285061D01*
X122147870Y-66283932D01*
X122148084Y-66283414D01*
X122093072Y-66247363D01*
X122064615Y-66183550D01*
X122075176Y-66114483D01*
X122121401Y-66062090D01*
X122151510Y-66048340D01*
X122153497Y-66047737D01*
X122299172Y-65987397D01*
X122299172Y-65987396D01*
X122299179Y-65987394D01*
X122430289Y-65899789D01*
X122541789Y-65788289D01*
X122629394Y-65657179D01*
X122689737Y-65511497D01*
X122720500Y-65356842D01*
X122720500Y-65199158D01*
X122720500Y-65199155D01*
X122720499Y-65199153D01*
X122689737Y-65044503D01*
X122656381Y-64963973D01*
X122629397Y-64898827D01*
X122629390Y-64898814D01*
X122541789Y-64767711D01*
X122541786Y-64767707D01*
X122430292Y-64656213D01*
X122430288Y-64656210D01*
X122299185Y-64568609D01*
X122299172Y-64568602D01*
X122153501Y-64508264D01*
X122153489Y-64508261D01*
X121998845Y-64477500D01*
X121998842Y-64477500D01*
X121841158Y-64477500D01*
X121841155Y-64477500D01*
X121686510Y-64508261D01*
X121686498Y-64508264D01*
X121540827Y-64568602D01*
X121540814Y-64568609D01*
X121409711Y-64656210D01*
X121409707Y-64656213D01*
X121298213Y-64767707D01*
X121298210Y-64767711D01*
X121210609Y-64898814D01*
X121210602Y-64898827D01*
X121150264Y-65044498D01*
X121150261Y-65044510D01*
X121119500Y-65199153D01*
X121119500Y-65356846D01*
X121143228Y-65476135D01*
X121137001Y-65545727D01*
X121094138Y-65600904D01*
X121045807Y-65621942D01*
X121026112Y-65625860D01*
X121026098Y-65625864D01*
X120880427Y-65686202D01*
X120880414Y-65686209D01*
X120749311Y-65773810D01*
X120749307Y-65773813D01*
X120637813Y-65885307D01*
X120637810Y-65885311D01*
X120550209Y-66016414D01*
X120550202Y-66016427D01*
X120489864Y-66162098D01*
X120489861Y-66162110D01*
X120459100Y-66316753D01*
X120459100Y-66474446D01*
X120489861Y-66629089D01*
X120489864Y-66629101D01*
X120550202Y-66774772D01*
X120550209Y-66774785D01*
X120637810Y-66905888D01*
X120637813Y-66905892D01*
X120749307Y-67017386D01*
X120749311Y-67017389D01*
X120880414Y-67104990D01*
X120880427Y-67104997D01*
X120967830Y-67141199D01*
X121026103Y-67165337D01*
X121048401Y-67169772D01*
X121110310Y-67202155D01*
X121144886Y-67262870D01*
X121145827Y-67267198D01*
X121147143Y-67273815D01*
X121150263Y-67289497D01*
X121173635Y-67345922D01*
X121181103Y-67415392D01*
X121149827Y-67477871D01*
X121089738Y-67513523D01*
X121019913Y-67511028D01*
X121000625Y-67502735D01*
X121000347Y-67502586D01*
X120836467Y-67434706D01*
X120836458Y-67434703D01*
X120662494Y-67400100D01*
X120662491Y-67400100D01*
X120485109Y-67400100D01*
X120485106Y-67400100D01*
X120311141Y-67434703D01*
X120311132Y-67434706D01*
X120147259Y-67502583D01*
X120147246Y-67502590D01*
X119999765Y-67601135D01*
X119999761Y-67601138D01*
X119874338Y-67726561D01*
X119874335Y-67726565D01*
X119775790Y-67874046D01*
X119775783Y-67874059D01*
X119707906Y-68037932D01*
X119707903Y-68037941D01*
X119673300Y-68211904D01*
X112156554Y-68211904D01*
X112178730Y-68158365D01*
X112184037Y-68145553D01*
X112198548Y-68110520D01*
X112208635Y-68059813D01*
X112226060Y-67972209D01*
X112233154Y-67936545D01*
X112233154Y-67759163D01*
X112233154Y-67759160D01*
X112233153Y-67759158D01*
X112198550Y-67585195D01*
X112198547Y-67585186D01*
X112130670Y-67421313D01*
X112130663Y-67421300D01*
X112032118Y-67273819D01*
X112032115Y-67273815D01*
X111906692Y-67148392D01*
X111906688Y-67148389D01*
X111759207Y-67049844D01*
X111759194Y-67049837D01*
X111595321Y-66981960D01*
X111595312Y-66981957D01*
X111421348Y-66947354D01*
X111421345Y-66947354D01*
X111243963Y-66947354D01*
X111243960Y-66947354D01*
X111069995Y-66981957D01*
X111069986Y-66981960D01*
X110906113Y-67049837D01*
X110906100Y-67049844D01*
X110758619Y-67148389D01*
X110758615Y-67148392D01*
X110633192Y-67273815D01*
X110633189Y-67273819D01*
X110534644Y-67421300D01*
X110534637Y-67421313D01*
X110466760Y-67585186D01*
X110466757Y-67585195D01*
X110432154Y-67759158D01*
X108855889Y-67759158D01*
X108825789Y-67714111D01*
X108825786Y-67714107D01*
X108714292Y-67602613D01*
X108714288Y-67602610D01*
X108583185Y-67515009D01*
X108583172Y-67515002D01*
X108437501Y-67454664D01*
X108437489Y-67454661D01*
X108282845Y-67423900D01*
X108282842Y-67423900D01*
X108125158Y-67423900D01*
X108125155Y-67423900D01*
X107970510Y-67454661D01*
X107970498Y-67454664D01*
X107824827Y-67515002D01*
X107824814Y-67515009D01*
X107693711Y-67602610D01*
X107693707Y-67602613D01*
X107582213Y-67714107D01*
X107582210Y-67714111D01*
X107494609Y-67845214D01*
X107494602Y-67845227D01*
X107434264Y-67990898D01*
X107434261Y-67990910D01*
X107403500Y-68145553D01*
X106717232Y-68145553D01*
X106682292Y-68110613D01*
X106682288Y-68110610D01*
X106551185Y-68023009D01*
X106551172Y-68023002D01*
X106405501Y-67962664D01*
X106405489Y-67962661D01*
X106250845Y-67931900D01*
X106250842Y-67931900D01*
X106093158Y-67931900D01*
X106093155Y-67931900D01*
X105938510Y-67962661D01*
X105938498Y-67962664D01*
X105792827Y-68023002D01*
X105792814Y-68023009D01*
X105661711Y-68110610D01*
X105661707Y-68110613D01*
X105550213Y-68222107D01*
X105550210Y-68222111D01*
X105462609Y-68353214D01*
X105462602Y-68353227D01*
X105402264Y-68498898D01*
X105402261Y-68498910D01*
X105371500Y-68653553D01*
X99944786Y-68653553D01*
X99860859Y-68597474D01*
X99860850Y-68597469D01*
X99728820Y-68542781D01*
X99728814Y-68542779D01*
X99588657Y-68514900D01*
X99588655Y-68514900D01*
X99445745Y-68514900D01*
X99445743Y-68514900D01*
X99305585Y-68542779D01*
X99305579Y-68542781D01*
X99173549Y-68597469D01*
X99173540Y-68597474D01*
X99054721Y-68676867D01*
X99054717Y-68676870D01*
X98953670Y-68777917D01*
X98953667Y-68777921D01*
X98874274Y-68896740D01*
X98874269Y-68896749D01*
X98819581Y-69028779D01*
X98819579Y-69028785D01*
X98791700Y-69168942D01*
X98791700Y-69168945D01*
X98791700Y-69311855D01*
X98791700Y-69311857D01*
X98791699Y-69311857D01*
X94700500Y-69311857D01*
X94700500Y-65488973D01*
X94720185Y-65421934D01*
X94772989Y-65376179D01*
X94824500Y-65364973D01*
X107221572Y-65364973D01*
X107288611Y-65384658D01*
X107334366Y-65437462D01*
X107344310Y-65506620D01*
X107324674Y-65557864D01*
X107253590Y-65664247D01*
X107253583Y-65664259D01*
X107185706Y-65828132D01*
X107185703Y-65828141D01*
X107151100Y-66002104D01*
X107151100Y-66179495D01*
X107185703Y-66353458D01*
X107185706Y-66353467D01*
X107253583Y-66517340D01*
X107253590Y-66517353D01*
X107352135Y-66664834D01*
X107352138Y-66664838D01*
X107477561Y-66790261D01*
X107477565Y-66790264D01*
X107625046Y-66888809D01*
X107625059Y-66888816D01*
X107747963Y-66939723D01*
X107788934Y-66956694D01*
X107788936Y-66956694D01*
X107788941Y-66956696D01*
X107962904Y-66991299D01*
X107962907Y-66991300D01*
X107962909Y-66991300D01*
X108140293Y-66991300D01*
X108140294Y-66991299D01*
X108211402Y-66977155D01*
X108314258Y-66956696D01*
X108314261Y-66956694D01*
X108314266Y-66956694D01*
X108478147Y-66888813D01*
X108625635Y-66790264D01*
X108751064Y-66664835D01*
X108849613Y-66517347D01*
X108917494Y-66353466D01*
X108918860Y-66346602D01*
X108940564Y-66237482D01*
X108952100Y-66179491D01*
X108952100Y-66002109D01*
X108952100Y-66002106D01*
X108952099Y-66002104D01*
X108917496Y-65828141D01*
X108917493Y-65828132D01*
X108910652Y-65811617D01*
X108894993Y-65773810D01*
X108849616Y-65664259D01*
X108849614Y-65664255D01*
X108849613Y-65664253D01*
X108823962Y-65625864D01*
X108778526Y-65557864D01*
X108757648Y-65491187D01*
X108776132Y-65423807D01*
X108828111Y-65377116D01*
X108881628Y-65364973D01*
X110587670Y-65364973D01*
X114475025Y-65364973D01*
X114508107Y-65367194D01*
X114514684Y-65364973D01*
X114521627Y-65364973D01*
X114552262Y-65352283D01*
X114583678Y-65341675D01*
X114588904Y-65337105D01*
X114595319Y-65334449D01*
X114618767Y-65311000D01*
X116443219Y-63716104D01*
X124575500Y-63716104D01*
X124575500Y-63893495D01*
X124610103Y-64067458D01*
X124610106Y-64067467D01*
X124677983Y-64231340D01*
X124677990Y-64231353D01*
X124776535Y-64378834D01*
X124776538Y-64378838D01*
X124901961Y-64504261D01*
X124901965Y-64504264D01*
X125049446Y-64602809D01*
X125049459Y-64602816D01*
X125172363Y-64653723D01*
X125213334Y-64670694D01*
X125213336Y-64670694D01*
X125213341Y-64670696D01*
X125387304Y-64705299D01*
X125387307Y-64705300D01*
X125387309Y-64705300D01*
X125564693Y-64705300D01*
X125564694Y-64705299D01*
X125622682Y-64693764D01*
X125738658Y-64670696D01*
X125738661Y-64670694D01*
X125738666Y-64670694D01*
X125902547Y-64602813D01*
X126050035Y-64504264D01*
X126175464Y-64378835D01*
X126274013Y-64231347D01*
X126341894Y-64067466D01*
X126376500Y-63893491D01*
X126376500Y-63716109D01*
X126376500Y-63716106D01*
X126376499Y-63716104D01*
X126341896Y-63542141D01*
X126341893Y-63542132D01*
X126274016Y-63378259D01*
X126274009Y-63378246D01*
X126175464Y-63230765D01*
X126175461Y-63230761D01*
X126050038Y-63105338D01*
X126050034Y-63105335D01*
X125902553Y-63006790D01*
X125902540Y-63006783D01*
X125738667Y-62938906D01*
X125738658Y-62938903D01*
X125564694Y-62904300D01*
X125564691Y-62904300D01*
X125387309Y-62904300D01*
X125387306Y-62904300D01*
X125213341Y-62938903D01*
X125213332Y-62938906D01*
X125049459Y-63006783D01*
X125049446Y-63006790D01*
X124901965Y-63105335D01*
X124901961Y-63105338D01*
X124776538Y-63230761D01*
X124776535Y-63230765D01*
X124677990Y-63378246D01*
X124677983Y-63378259D01*
X124610106Y-63542132D01*
X124610103Y-63542141D01*
X124575500Y-63716104D01*
X116443219Y-63716104D01*
X117143159Y-63104232D01*
X117149574Y-63101576D01*
X117173022Y-63078127D01*
X117197986Y-63056305D01*
X117201066Y-63050083D01*
X117205976Y-63045174D01*
X117218666Y-63014535D01*
X117233378Y-62984823D01*
X117233843Y-62977896D01*
X117236500Y-62971482D01*
X117236500Y-62938320D01*
X117238721Y-62905238D01*
X117236500Y-62898661D01*
X117236500Y-60942946D01*
X117256185Y-60875907D01*
X117308989Y-60830152D01*
X117360500Y-60818946D01*
X130803504Y-60818946D01*
X130870543Y-60838631D01*
G37*
%TD.AperFunction*%
%TD*%
M02*
