0
SECTION
2
HEADER
9
$INSUNITS
70
4
9
$ACADVER
1
AC1014
9
$HANDSEED
5
FFFF
0
ENDSEC
0
SECTION
2
TABLES
0
TABLE
2
VPORT
5
8
100
AcDbSymbolTable
0
ENDTAB
0
TABLE
2
LTYPE
5
5
100
AcDbSymbolTable
0
LTYPE
5
14
100
AcDbSymbolTableRecord
100
AcDbLinetypeTableRecord
2
BYBLOCK
70
0
0
LTYPE
5
15
100
AcDbSymbolTableRecord
100
AcDbLinetypeTableRecord
2
BYLAYER
70
0
0
LTYPE
5
16
100
AcDbSymbolTableRecord
100
AcDbLinetypeTableRecord
2
DASHED
70
0
3
Dashed __ __ __ __ __ __ __ __ __ __ __ __ __ _
72
65
73
2
40
0.75
49
0.5
74
0
49
-0.25
74
0
0
ENDTAB
0
TABLE
2
LAYER
5
2
100
AcDbSymbolTable
70
2
0
LAYER
5
50
100
AcDbSymbolTableRecord
100
AcDbLayerTableRecord
2
0
70
0
62
7
6
CONTINUOUS
0
ENDTAB
0
TABLE
2
STYLE
5
3
100
AcDbSymbolTable
70
1
0
STYLE
5
11
100
AcDbSymbolTableRecord
100
AcDbTextStyleTableRecord
2
STANDARD
70
0
0
ENDTAB
0
TABLE
2
VIEW
5
6
100
AcDbSymbolTable
70
0
0
ENDTAB
0
TABLE
2
UCS
5
7
100
AcDbSymbolTable
70
0
0
ENDTAB
0
TABLE
2
APPID
5
9
100
AcDbSymbolTable
70
2
0
APPID
5
12
100
AcDbSymbolTableRecord
100
AcDbRegAppTableRecord
2
ACAD
70
0
0
ENDTAB
0
TABLE
2
DIMSTYLE
5
A
100
AcDbSymbolTable
70
1
0
ENDTAB
0
TABLE
2
BLOCK_RECORD
5
1
100
AcDbSymbolTable
70
1
0
BLOCK_RECORD
5
1F
100
AcDbSymbolTableRecord
100
AcDbBlockTableRecord
2
*MODEL_SPACE
0
BLOCK_RECORD
5
1B
100
AcDbSymbolTableRecord
100
AcDbBlockTableRecord
2
*PAPER_SPACE
0
ENDTAB
0
ENDSEC
0
SECTION
2
BLOCKS
0
BLOCK
5
20
100
AcDbEntity
100
AcDbBlockBegin
2
*MODEL_SPACE
0
ENDBLK
5
21
100
AcDbEntity
100
AcDbBlockEnd
0
BLOCK
5
1C
100
AcDbEntity
100
AcDbBlockBegin
2
*PAPER_SPACE
0
ENDBLK
5
1D
100
AcDbEntity
100
AcDbBlockEnd
0
ENDSEC
0
SECTION
2
ENTITIES
0
LWPOLYLINE
5
100
100
AcDbEntity
8
0
100
AcDbPolyline
90
6
70
1
43
0.0
10
55.350000000000001
20
-55
42
0.41421356237309503
10
60.350000000000001
20
-50
10
60.350000000000001
20
55
10
-60.350000000000001
20
55
10
-60.350000000000001
20
-50
42
0.41421356237309503
10
-55.350000000000001
20
-55
0
CIRCLE
5
101
100
AcDbEntity
8
0
100
AcDbCircle
10
-26.59865999999996
20
48.329999999999998
30
0
40
1.6000000000000014
210
0
220
0
230
1
0
CIRCLE
5
102
100
AcDbEntity
8
0
100
AcDbCircle
10
53.275000000000006
20
48.354500000000009
30
0
40
1.6000000000000003
210
0
220
-0
230
1
0
CIRCLE
5
103
100
AcDbEntity
8
0
100
AcDbCircle
10
54.481499999999997
20
37.115000000000002
30
0
40
0.5
210
0
220
-0
230
1
0
CIRCLE
5
104
100
AcDbEntity
8
0
100
AcDbCircle
10
-9.7615090000000002
20
49.020561000000001
30
0
40
0.5
210
0
220
-0
230
1
0
CIRCLE
5
105
100
AcDbEntity
8
0
100
AcDbCircle
10
-27.306500000000003
20
26.828000000000003
30
0
40
1.6000000000000003
210
0
220
-0
230
1
0
CIRCLE
5
106
100
AcDbEntity
8
0
100
AcDbCircle
10
-45.75
20
45.125
30
0
40
1.1000000000000001
210
0
220
-0
230
1
0
CIRCLE
5
107
100
AcDbEntity
8
0
100
AcDbCircle
10
-35.75
20
16.875
30
0
40
0.57499999999999996
210
0
220
-0
230
1
0
CIRCLE
5
108
100
AcDbEntity
8
0
100
AcDbCircle
10
-55.75
20
16.875
30
0
40
0.82500000000000007
210
0
220
-0
230
1
0
CIRCLE
5
109
100
AcDbEntity
8
0
100
AcDbCircle
10
56.600000000000001
20
-21.475000000000005
30
0
40
0.5
210
0
220
-0
230
1
0
CIRCLE
5
110
100
AcDbEntity
8
0
100
AcDbCircle
10
42.402000000000008
20
-22.204000000000001
30
0
40
0.25
210
0
220
-0
230
1
0
CIRCLE
5
111
100
AcDbEntity
8
0
100
AcDbCircle
10
42.402000000000008
20
-23.454000000000001
30
0
40
0.25
210
0
220
-0
230
1
0
CIRCLE
5
112
100
AcDbEntity
8
0
100
AcDbCircle
10
51.70750000000001
20
-40.975000000000001
30
0
40
0.65000000000000002
210
-0
220
0
230
1
0
CIRCLE
5
113
100
AcDbEntity
8
0
100
AcDbCircle
10
41.212522
20
-32.828232
30
0
40
1.6000000000000003
210
0
220
-0
230
1
0
CIRCLE
5
114
100
AcDbEntity
8
0
100
AcDbCircle
10
45.107500000000009
20
-45.375000000000007
30
0
40
0.65000000000000002
210
0
220
-0
230
1
0
CIRCLE
5
115
100
AcDbEntity
8
0
100
AcDbCircle
10
52.20750000000001
20
-48.275000000000006
30
0
40
0.65000000000000002
210
-0
220
0
230
1
0
CIRCLE
5
116
100
AcDbEntity
8
0
100
AcDbCircle
10
47.607500000000009
20
-52.175000000000004
30
0
40
0.65000000000000002
210
0
220
-0
230
1
0
CIRCLE
5
117
100
AcDbEntity
8
0
100
AcDbCircle
10
42.407499999999999
20
-44.174999999999997
30
0
40
0.65000000000000002
210
0
220
-0
230
1
0
CIRCLE
5
118
100
AcDbEntity
8
0
100
AcDbCircle
10
28.719999999999999
20
-45.525000000000006
30
0
40
1.1499999999999999
210
0
220
-0
230
1
0
CIRCLE
5
119
100
AcDbEntity
8
0
100
AcDbCircle
10
11.288491
20
-39.129439000000005
30
0
40
0.5
210
0
220
-0
230
1
0
CIRCLE
5
120
100
AcDbEntity
8
0
100
AcDbCircle
10
8.7484910000000013
20
-39.129439000000005
30
0
40
0.5
210
0
220
-0
230
1
0
CIRCLE
5
121
100
AcDbEntity
8
0
100
AcDbCircle
10
6.2084910000000004
20
-39.129439000000005
30
0
40
0.5
210
0
220
-0
230
1
0
CIRCLE
5
122
100
AcDbEntity
8
0
100
AcDbCircle
10
25.649999999999999
20
-42.815000000000005
30
0
40
0.47499999999999998
210
0
220
-0
230
1
0
CIRCLE
5
123
100
AcDbEntity
8
0
100
AcDbCircle
10
23.149999999999999
20
-42.815000000000005
30
0
40
0.47499999999999998
210
0
220
-0
230
1
0
CIRCLE
5
124
100
AcDbEntity
8
0
100
AcDbCircle
10
21.149999999999999
20
-42.815000000000005
30
0
40
0.47499999999999998
210
0
220
-0
230
1
0
CIRCLE
5
125
100
AcDbEntity
8
0
100
AcDbCircle
10
18.649999999999999
20
-42.815000000000005
30
0
40
0.47499999999999998
210
0
220
-0
230
1
0
CIRCLE
5
126
100
AcDbEntity
8
0
100
AcDbCircle
10
15.58
20
-45.525000000000006
30
0
40
1.1499999999999999
210
0
220
-0
230
1
0
LWPOLYLINE
5
127
100
AcDbEntity
8
0
100
AcDbPolyline
90
4
70
1
43
0.0
10
4.0427
20
-49.755700000000004
42
0.99999999999999989
10
4.6426999999999996
20
-49.755700000000004
10
4.6426999999999996
20
-48.65570000000001
42
0.99999999999999989
10
4.0427
20
-48.65570000000001
0
CIRCLE
5
128
100
AcDbEntity
8
0
100
AcDbCircle
10
2.9127000000000001
20
-49.735700000000008
30
0
40
0.32500000000000001
210
0
220
-0
230
1
0
LWPOLYLINE
5
129
100
AcDbEntity
8
0
100
AcDbPolyline
90
4
70
1
43
0.0
10
4.0427
20
-53.685699999999997
42
0.99999999999999989
10
4.6426999999999996
20
-53.685700000000018
10
4.6426999999999996
20
-53.085700000000003
42
0.99999999999999989
10
4.0427
20
-53.085700000000003
0
CIRCLE
5
130
100
AcDbEntity
8
0
100
AcDbCircle
10
-54.675000000000004
20
-15.675000000000001
30
0
40
0.65000000000000002
210
0
220
-0
230
1
0
CIRCLE
5
131
100
AcDbEntity
8
0
100
AcDbCircle
10
-57.175000000000004
20
-16.925000000000001
30
0
40
0.5
210
0
220
-0
230
1
0
CIRCLE
5
132
100
AcDbEntity
8
0
100
AcDbCircle
10
-57.175000000000004
20
-21.425000000000001
30
0
40
0.5
210
0
220
-0
230
1
0
CIRCLE
5
133
100
AcDbEntity
8
0
100
AcDbCircle
10
-54.675000000000004
20
-22.675000000000001
30
0
40
0.65000000000000002
210
0
220
-0
230
1
0
CIRCLE
5
134
100
AcDbEntity
8
0
100
AcDbCircle
10
-10.880000000000001
20
-35.131
30
0
40
0.5
210
0
220
-0
230
1
0
CIRCLE
5
135
100
AcDbEntity
8
0
100
AcDbCircle
10
-13.380000000000001
20
-35.131
30
0
40
0.5
210
0
220
-0
230
1
0
CIRCLE
5
136
100
AcDbEntity
8
0
100
AcDbCircle
10
-19.765999999999998
20
-35.741
30
0
40
0.37500000000000006
210
0
220
-0
230
1
0
CIRCLE
5
137
100
AcDbEntity
8
0
100
AcDbCircle
10
-21.766000000000002
20
-35.741
30
0
40
0.37500000000000006
210
0
220
-0
230
1
0
CIRCLE
5
138
100
AcDbEntity
8
0
100
AcDbCircle
10
-2.8673000000000002
20
-49.735700000000008
30
0
40
0.32500000000000001
210
0
220
-0
230
1
0
LWPOLYLINE
5
139
100
AcDbEntity
8
0
100
AcDbPolyline
90
4
70
1
43
0.0
10
-4.5972999999999997
20
-49.755700000000004
42
0.99999999999999989
10
-3.9973000000000001
20
-49.755700000000004
10
-3.9973000000000001
20
-48.65570000000001
42
0.99999999999999989
10
-4.5972999999999997
20
-48.65570000000001
0
LWPOLYLINE
5
140
100
AcDbEntity
8
0
100
AcDbPolyline
90
4
70
1
43
0.0
10
-4.5972999999999997
20
-53.685699999999997
42
0.99999999999999989
10
-3.9973000000000001
20
-53.685700000000018
10
-3.9973000000000001
20
-53.085700000000003
42
0.99999999999999989
10
-4.5972999999999997
20
-53.085700000000003
0
CIRCLE
5
141
100
AcDbEntity
8
0
100
AcDbCircle
10
-54.675000000000004
20
-31.524999999999999
30
0
40
0.65000000000000002
210
0
220
-0
230
1
0
CIRCLE
5
142
100
AcDbEntity
8
0
100
AcDbCircle
10
-57.175000000000004
20
-32.774999999999999
30
0
40
0.5
210
0
220
-0
230
1
0
CIRCLE
5
143
100
AcDbEntity
8
0
100
AcDbCircle
10
-57.175000000000004
20
-37.274999999999999
30
0
40
0.5
210
0
220
-0
230
1
0
CIRCLE
5
144
100
AcDbEntity
8
0
100
AcDbCircle
10
-54.675000000000004
20
-38.524999999999999
30
0
40
0.65000000000000002
210
0
220
-0
230
1
0
CIRCLE
5
145
100
AcDbEntity
8
0
100
AcDbCircle
10
-35.625
20
-49.372000000000007
30
0
40
0.5
210
0
220
-0
230
1
0
CIRCLE
5
146
100
AcDbEntity
8
0
100
AcDbCircle
10
-44.512478000000002
20
-42.353231999999998
30
0
40
1.6000000000000003
210
0
220
-0
230
1
0
CIRCLE
5
147
100
AcDbEntity
8
0
100
AcDbCircle
10
-45.100000000000009
20
-49.350000000000009
30
0
40
0.65000000000000002
210
0
220
-0
230
1
0
CIRCLE
5
148
100
AcDbEntity
8
0
100
AcDbCircle
10
-46.350000000000009
20
-51.850000000000009
30
0
40
0.5
210
0
220
-0
230
1
0
CIRCLE
5
149
100
AcDbEntity
8
0
100
AcDbCircle
10
-52.100000000000009
20
-49.350000000000009
30
0
40
0.65000000000000002
210
0
220
-0
230
1
0
CIRCLE
5
150
100
AcDbEntity
8
0
100
AcDbCircle
10
-50.850000000000009
20
-51.850000000000009
30
0
40
0.5
210
0
220
-0
230
1
0
LWPOLYLINE
5
151
100
AcDbEntity
8
0
100
AcDbPolyline
90
6
70
1
43
0.0
10
-60.350000000000001
20
55
10
60.350000000000001
20
55
10
60.350000000000001
20
-50
42
-0.41421356237309503
10
55.350000000000001
20
-55
10
-55.350000000000001
20
-55
42
-0.41421356237309503
10
-60.350000000000001
20
-50
0
CIRCLE
5
152
100
AcDbEntity
8
0
100
AcDbCircle
10
53.275000000000006
20
48.354500000000009
30
0
40
1.6000000000000003
210
0
220
-0
230
1
0
CIRCLE
5
153
100
AcDbEntity
8
0
100
AcDbCircle
10
-26.59865999999996
20
48.329999999999998
30
0
40
1.6000000000000014
210
0
220
0
230
1
0
CIRCLE
5
154
100
AcDbEntity
8
0
100
AcDbCircle
10
35.000000521540642
20
-51.000000759959221
30
0
40
1.6000000000000014
210
0
220
0
230
1
0
CIRCLE
5
155
100
AcDbEntity
8
0
100
AcDbCircle
10
-34.999999478459358
20
-51.000000759959221
30
0
40
1.6000000000000014
210
0
220
0
230
1
0
ENDSEC
0
SECTION
2
OBJECTS
0
DICTIONARY
5
C
100
AcDbDictionary
3
ACAD_GROUP
350
D
3
ACAD_MLINESTYLE
350
17
0
DICTIONARY
5
D
100
AcDbDictionary
0
DICTIONARY
5
1A
330
C
100
AcDbDictionary
0
DICTIONARY
5
17
100
AcDbDictionary
0
ENDSEC
0
EOF
