0
SECTION
2
HEADER
9
$INSUNITS
70
4
9
$ACADVER
1
AC1014
9
$HANDSEED
5
FFFF
0
ENDSEC
0
SECTION
2
TABLES
0
TABLE
2
VPORT
5
8
100
AcDbSymbolTable
0
ENDTAB
0
TABLE
2
LTYPE
5
5
100
AcDbSymbolTable
0
LTYPE
5
14
100
AcDbSymbolTableRecord
100
AcDbLinetypeTableRecord
2
BYBLOCK
70
0
0
LTYPE
5
15
100
AcDbSymbolTableRecord
100
AcDbLinetypeTableRecord
2
BYLAYER
70
0
0
LTYPE
5
16
100
AcDbSymbolTableRecord
100
AcDbLinetypeTableRecord
2
DASHED
70
0
3
Dashed __ __ __ __ __ __ __ __ __ __ __ __ __ _
72
65
73
2
40
0.75
49
0.5
74
0
49
-0.25
74
0
0
ENDTAB
0
TABLE
2
LAYER
5
2
100
AcDbSymbolTable
70
2
0
LAYER
5
50
100
AcDbSymbolTableRecord
100
AcDbLayerTableRecord
2
0
70
0
62
7
6
CONTINUOUS
0
ENDTAB
0
TABLE
2
STYLE
5
3
100
AcDbSymbolTable
70
1
0
STYLE
5
11
100
AcDbSymbolTableRecord
100
AcDbTextStyleTableRecord
2
STANDARD
70
0
0
ENDTAB
0
TABLE
2
VIEW
5
6
100
AcDbSymbolTable
70
0
0
ENDTAB
0
TABLE
2
UCS
5
7
100
AcDbSymbolTable
70
0
0
ENDTAB
0
TABLE
2
APPID
5
9
100
AcDbSymbolTable
70
2
0
APPID
5
12
100
AcDbSymbolTableRecord
100
AcDbRegAppTableRecord
2
ACAD
70
0
0
ENDTAB
0
TABLE
2
DIMSTYLE
5
A
100
AcDbSymbolTable
70
1
0
ENDTAB
0
TABLE
2
BLOCK_RECORD
5
1
100
AcDbSymbolTable
70
1
0
BLOCK_RECORD
5
1F
100
AcDbSymbolTableRecord
100
AcDbBlockTableRecord
2
*MODEL_SPACE
0
BLOCK_RECORD
5
1B
100
AcDbSymbolTableRecord
100
AcDbBlockTableRecord
2
*PAPER_SPACE
0
ENDTAB
0
ENDSEC
0
SECTION
2
BLOCKS
0
BLOCK
5
20
100
AcDbEntity
100
AcDbBlockBegin
2
*MODEL_SPACE
0
ENDBLK
5
21
100
AcDbEntity
100
AcDbBlockEnd
0
BLOCK
5
1C
100
AcDbEntity
100
AcDbBlockBegin
2
*PAPER_SPACE
0
ENDBLK
5
1D
100
AcDbEntity
100
AcDbBlockEnd
0
ENDSEC
0
SECTION
2
ENTITIES
0
LWPOLYLINE
5
100
100
AcDbEntity
8
0
100
AcDbPolyline
90
4
70
1
43
0.0
10
23.026136289385772
20
61.687341637432276
10
23.322442791564313
20
61.640411297920195
10
23.212938666036152
20
60.949029459503606
10
22.91663216385761
20
60.995959799015679
0
LWPOLYLINE
5
101
100
AcDbEntity
8
0
100
AcDbPolyline
90
12
70
1
43
0.0
10
20.799848349409235
20
64.571113821276754
10
21.096154851587773
20
64.524183481764666
10
20.986650726059612
20
63.83280164334807
10
20.69034422388107
20
63.879731982860129
10
20.017676024208079
20
59.632672118301038
10
20.313982526386617
20
59.585741778788979
10
20.204478400858456
20
58.894359940372368
10
19.908171898679917
20
58.941290279884448
10
19.837776389411811
20
58.496830526616634
10
23.689760917732848
20
57.886736112959738
10
24.722228386998381
20
64.405479160887651
10
20.870243858677338
20
65.015573574544561
0
LINE
5
102
100
AcDbEntity
8
0
100
AcDbLine
10
26.157744282932359
20
82.604244701470037
30
2.7755575615628914e-16
11
18.697230095790889
21
60.969033297726149
31
2.7755575615628914e-16
0
ARC
5
103
100
AcDbEntity
8
0
100
AcDbCircle
10
13.025000000000002
20
62.925000000000004
30
2.7755575615628914e-16
40
6.0000000000000009
210
0
220
0
230
1
100
AcDbArc
50
180
51
340.9741656538514
0
LINE
5
104
100
AcDbEntity
8
0
100
AcDbLine
10
7.0250000000000012
20
62.925000000000004
30
2.7755575615628914e-16
11
7.0249999999999968
21
88.14428546596605
31
2.7755575615628914e-16
0
LINE
5
105
100
AcDbEntity
8
0
100
AcDbLine
10
-7.0249999999999968
20
88.14428546596605
30
2.7755575615628914e-16
11
-7.0250000000000004
21
62.925000000000004
31
2.7755575615628914e-16
0
ARC
5
106
100
AcDbEntity
8
0
100
AcDbCircle
10
-13.025000000000002
20
62.925000000000004
30
2.7755575615628914e-16
40
5.9999999999999982
210
0
220
0
230
1
100
AcDbArc
50
-160.97416565385143
51
0
0
LINE
5
107
100
AcDbEntity
8
0
100
AcDbLine
10
-18.697230095790893
20
60.969033297726149
30
2.7755575615628914e-16
11
-26.157744282932359
21
82.604244701470037
31
2.7755575615628914e-16
0
LWPOLYLINE
5
108
100
AcDbEntity
8
0
100
AcDbPolyline
90
4
70
1
43
0.0
10
2.3321216758548386
20
67.50932271631595
10
2.222617550326675
20
66.817940877899332
10
2.5189240525052163
20
66.771010538387273
10
2.6284281780333787
20
67.462392376803862
0
LWPOLYLINE
5
109
100
AcDbEntity
8
0
100
AcDbPolyline
90
4
70
1
43
0.0
10
1.5499493506536821
20
62.570881013340241
10
1.44044522512552
20
61.879499174923652
10
1.73675172730406
20
61.832568835411578
10
1.8462558528322235
20
62.523950673828182
0
LWPOLYLINE
5
110
100
AcDbEntity
8
0
100
AcDbPolyline
90
4
70
1
43
0.0
10
4.5584096158313754
20
64.625550532471479
10
4.4489054903032139
20
63.934168694054883
10
4.7452119924817566
20
63.887238354542816
10
4.8547161180099172
20
64.578620192959406
0
LWPOLYLINE
5
111
100
AcDbEntity
8
0
100
AcDbPolyline
90
4
70
1
43
0.0
10
-1.44044522512552
20
61.879499174923652
10
-1.5499493506536821
20
62.570881013340241
10
-1.8462558528322235
20
62.523950673828182
10
-1.73675172730406
20
61.832568835411578
0
LWPOLYLINE
5
112
100
AcDbEntity
8
0
100
AcDbPolyline
90
4
70
1
43
0.0
10
-2.222617550326675
20
66.817940877899332
10
-2.3321216758548386
20
67.50932271631595
10
-2.6284281780333787
20
67.462392376803862
10
-2.5189240525052163
20
66.771010538387273
0
LWPOLYLINE
5
113
100
AcDbEntity
8
0
100
AcDbPolyline
90
4
70
1
43
0.0
10
-4.4489054903032139
20
63.934168694054883
10
-4.5584096158313754
20
64.625550532471479
10
-4.8547161180099172
20
64.578620192959406
10
-4.7452119924817566
20
63.887238354542816
0
LWPOLYLINE
5
114
100
AcDbEntity
8
0
100
AcDbPolyline
90
4
70
1
43
0.0
10
-22.91663216385761
20
60.995959799015679
10
-23.026136289385772
20
61.687341637432276
10
-23.322442791564313
20
61.640411297920195
10
-23.212938666036152
20
60.949029459503606
0
LWPOLYLINE
5
115
100
AcDbEntity
8
0
100
AcDbPolyline
90
4
70
1
43
0.0
10
-19.908171898679917
20
58.941290279884448
10
-20.017676024208079
20
59.632672118301038
10
-20.313982526386617
20
59.585741778788979
10
-20.204478400858456
20
58.894359940372368
0
LWPOLYLINE
5
116
100
AcDbEntity
8
0
100
AcDbPolyline
90
4
70
1
43
0.0
10
-20.69034422388107
20
63.879731982860129
10
-20.799848349409235
20
64.571113821276754
10
-21.096154851587773
20
64.524183481764666
10
-20.986650726059612
20
63.83280164334807
0
LWPOLYLINE
5
117
100
AcDbEntity
8
0
100
AcDbPolyline
90
4
70
1
43
0.0
10
20.799848349409235
20
64.571113821276754
10
20.69034422388107
20
63.879731982860129
10
20.986650726059612
20
63.83280164334807
10
21.096154851587773
20
64.524183481764666
0
LWPOLYLINE
5
118
100
AcDbEntity
8
0
100
AcDbPolyline
90
4
70
1
43
0.0
10
20.017676024208079
20
59.632672118301038
10
19.908171898679917
20
58.941290279884448
10
20.204478400858456
20
58.894359940372368
10
20.313982526386617
20
59.585741778788979
0
LWPOLYLINE
5
119
100
AcDbEntity
8
0
100
AcDbPolyline
90
4
70
1
43
0.0
10
23.026136289385772
20
61.687341637432276
10
22.91663216385761
20
60.995959799015679
10
23.212938666036152
20
60.949029459503606
10
23.322442791564313
20
61.640411297920195
0
LINE
5
120
100
AcDbEntity
8
0
100
AcDbLine
10
32.295422148906653
20
75.063567527947953
30
2.7755575615628914e-16
11
48.000000715255737
21
75.063567527947953
31
2.7755575615628914e-16
0
LINE
5
121
100
AcDbEntity
8
0
100
AcDbLine
10
48.000000715255737
20
75.063567527947953
30
2.7755575615628914e-16
11
48.000000715255737
21
50.00000074505806
31
2.7755575615628914e-16
0
LINE
5
122
100
AcDbEntity
8
0
100
AcDbLine
10
-28.070407046355925
20
75.063567527947967
30
2.7755575615628914e-16
11
-48.00047715432089
21
75.063567527947967
31
2.7755575615628914e-16
0
LINE
5
123
100
AcDbEntity
8
0
100
AcDbLine
10
48.000000715255744
20
75.063567527947967
30
2.7755575615628914e-16
11
48.000000715255737
21
50.00000074505806
31
2.7755575615628914e-16
0
LINE
5
124
100
AcDbEntity
8
0
100
AcDbLine
10
48.000000715255737
20
50.00000074505806
30
2.7755575615628914e-16
11
-48.00047715432089
21
50.00000074505806
31
2.7755575615628914e-16
0
LINE
5
125
100
AcDbEntity
8
0
100
AcDbLine
10
-48.00047715432089
20
50.00000074505806
30
2.7755575615628914e-16
11
-48.00047715432089
21
75.063567527947967
31
2.7755575615628914e-16
0
LINE
5
126
100
AcDbEntity
8
0
100
AcDbLine
10
-0.00023821953258007511
20
50.00000074505806
30
2.7755575615628914e-16
11
-5.9716264407139516e-05
21
68.780696578201017
31
2.7755575615628914e-16
0
LINE
5
127
100
AcDbEntity
8
0
100
AcDbLine
10
-4.4408920985006262e-15
20
68.780696577633435
30
2.7755575615628914e-16
11
-4.0513360642246345
21
68.780735084019696
31
2.7755575615628914e-16
0
LINE
5
128
100
AcDbEntity
8
0
100
AcDbLine
10
-4.0513360642246345
20
68.780735084019696
30
2.7755575615628914e-16
11
-7.0250000000000012
21
66.817940877899332
31
2.7755575615628914e-16
0
LINE
5
129
100
AcDbEntity
8
0
100
AcDbLine
10
-0.00011943252880983818
20
68.780696578768598
30
2.7755575615628914e-16
11
4.0512166316958202
21
68.780658072382337
31
2.7755575615628914e-16
0
LINE
5
130
100
AcDbEntity
8
0
100
AcDbLine
10
4.0512166316958202
20
68.780658072382337
30
2.7755575615628914e-16
11
7.024843255730584
21
66.817807339559721
31
2.7755575615628914e-16
0
LINE
5
131
100
AcDbEntity
8
0
100
AcDbLine
10
-20.337442710842847
20
65.725588380068729
30
2.7755575615628914e-16
11
-23.210451247606994
21
66.424707993141936
31
0
0
LINE
5
132
100
AcDbEntity
8
0
100
AcDbLine
10
-23.210451247606994
20
66.424707993141936
30
0
11
-28.070407046355925
21
75.063567527947967
31
2.7755575615628914e-16
0
LINE
5
133
100
AcDbEntity
8
0
100
AcDbLine
10
23.210287025359541
20
66.42426678193408
30
0
11
28.070407041284284
21
75.063033931169571
31
2.7755575615628914e-16
0
LINE
5
134
100
AcDbEntity
8
0
100
AcDbLine
10
20.337265199390092
20
65.725201782662623
30
2.7755575615628914e-16
11
23.210287025359541
21
66.42426678193408
31
0
0
SPLINE
5
135
100
AcDbEntity
8
0
100
AcDbSpline
70
2
71
3
72
23
73
19
74
0
42
0.000000001
43
0.0000000001
44
0.0000000001
40
-3.1415926535897931
40
-3.1415926535897931
40
-3.1415926535897931
40
-3.1415926535897931
40
-2.0279167471318051
40
-2.0279167471318051
40
-2.0279167471318051
40
-0.88669869698103387
40
-0.88669869698103387
40
-0.88669869698103387
40
-0.11023249327515217
40
-0.11023249327515217
40
-0.11023249327515217
40
0.93360759900336676
40
0.93360759900336676
40
0.93360759900336676
40
2.336891004060309
40
2.336891004060309
40
2.336891004060309
40
3.1415926535897931
40
3.1415926535897931
40
3.1415926535897931
40
3.1415926535897931
10
25.245488940764616
20
68.913166138468455
30
2.7755575615628914e-16
10
25.245488940764616
20
71.415224674977395
30
2.7755575615628914e-16
10
27.732801161243813
20
73.75621100816025
30
2.7755575615628914e-16
10
31.27036695079028
20
74.800219065513446
30
2.7755575615628914e-16
10
34.895419723518636
20
75.870046321939995
30
2.7755575615628914e-16
10
39.50120809680822
20
75.559140113624551
30
2.7755575615628914e-16
10
42.649865307524138
20
74.018575533781018
30
2.7755575615628914e-16
10
44.79216047263543
20
72.970400445140569
30
2.7755575615628914e-16
10
46.258289580807016
20
71.383877763051601
30
2.7755575615628914e-16
10
46.577389026256775
20
69.654047072769856
30
2.7755575615628914e-16
10
47.006369441623917
20
67.328554193940192
30
2.7755575615628914e-16
10
45.237178431847092
20
64.948042617197189
30
2.7755575615628914e-16
10
42.254610911743775
20
63.623454705689404
30
2.7755575615628914e-16
10
38.245004903713507
20
61.842748782907186
30
2.7755575615628914e-16
10
32.195862342334785
20
62.072156972674087
30
2.7755575615628914e-16
10
28.584911096610437
20
64.156657039495286
30
2.7755575615628914e-16
10
26.514239973917995
20
65.35199693745929
30
2.7755575615628914e-16
10
25.245488940764616
20
67.105269765858878
30
2.7755575615628914e-16
10
25.245488940764616
20
68.913166138468455
30
2.7755575615628914e-16
0
SPLINE
5
136
100
AcDbEntity
8
0
100
AcDbSpline
70
2
71
3
72
23
73
19
74
0
42
0.000000001
43
0.0000000001
44
0.0000000001
40
-3.1415926535897931
40
-3.1415926535897931
40
-3.1415926535897931
40
-3.1415926535897931
40
-2.0279167471318051
40
-2.0279167471318051
40
-2.0279167471318051
40
-0.88669869698103387
40
-0.88669869698103387
40
-0.88669869698103387
40
-0.11023249327515217
40
-0.11023249327515217
40
-0.11023249327515217
40
0.93360759900336676
40
0.93360759900336676
40
0.93360759900336676
40
2.336891004060309
40
2.336891004060309
40
2.336891004060309
40
3.1415926535897931
40
3.1415926535897931
40
3.1415926535897931
40
3.1415926535897931
10
-25.245488940764616
20
68.913166138468455
30
2.7755575615628914e-16
10
-25.245488940764616
20
71.415224674977395
30
2.7755575615628914e-16
10
-27.732801161243813
20
73.75621100816025
30
2.7755575615628914e-16
10
-31.27036695079028
20
74.800219065513446
30
2.7755575615628914e-16
10
-34.895419723518636
20
75.870046321939995
30
2.7755575615628914e-16
10
-39.50120809680822
20
75.559140113624551
30
2.7755575615628914e-16
10
-42.649865307524138
20
74.018575533781018
30
2.7755575615628914e-16
10
-44.79216047263543
20
72.970400445140569
30
2.7755575615628914e-16
10
-46.258289580807016
20
71.383877763051601
30
2.7755575615628914e-16
10
-46.577389026256775
20
69.654047072769856
30
2.7755575615628914e-16
10
-47.006369441623917
20
67.328554193940192
30
2.7755575615628914e-16
10
-45.237178431847092
20
64.948042617197189
30
2.7755575615628914e-16
10
-42.254610911743775
20
63.623454705689404
30
2.7755575615628914e-16
10
-38.245004903713507
20
61.842748782907186
30
2.7755575615628914e-16
10
-32.195862342334785
20
62.072156972674087
30
2.7755575615628914e-16
10
-28.584911096610437
20
64.156657039495286
30
2.7755575615628914e-16
10
-26.514239973917995
20
65.35199693745929
30
2.7755575615628914e-16
10
-25.245488940764616
20
67.105269765858878
30
2.7755575615628914e-16
10
-25.245488940764616
20
68.913166138468455
30
2.7755575615628914e-16
0
CIRCLE
5
137
100
AcDbEntity
8
0
100
AcDbCircle
10
35.945488940764605
20
68.913166138468455
30
0
40
2.4999999999999996
210
0
220
0
230
1
0
LINE
5
138
100
AcDbEntity
8
0
100
AcDbLine
10
32.295422148906653
20
75.063567527947953
30
2.7755575615628914e-16
11
48.000000715255744
21
75.063567527947967
31
2.7755575615628914e-16
0
LINE
5
139
100
AcDbEntity
8
0
100
AcDbLine
10
32.295422148906653
20
75.063567527947953
30
2.7755575615628914e-16
11
28.070407041284284
21
75.063033931169571
31
2.7755575615628914e-16
0
LINE
5
140
100
AcDbEntity
8
0
100
AcDbLine
10
-48.00047715432089
20
75.063567527947967
30
2.7755575615628914e-16
11
-28.070407046355925
21
75.063567527947967
31
2.7755575615628914e-16
0
CIRCLE
5
141
100
AcDbEntity
8
0
100
AcDbCircle
10
-35.945605848654822
20
68.913849435588361
30
0
40
2.4999999999999996
210
0
220
0
230
1
0
LWPOLYLINE
5
142
100
AcDbEntity
8
0
100
AcDbPolyline
90
4
70
1
43
0.0
10
22.91663216385761
20
60.995959799015679
10
23.212938666036152
20
60.949029459503606
10
23.32244279156431
20
61.640411297920195
10
23.026136289385768
20
61.687341637432269
0
LWPOLYLINE
5
143
100
AcDbEntity
8
0
100
AcDbPolyline
90
4
70
1
43
0.0
10
19.908171898679917
20
58.941290279884448
10
20.204478400858456
20
58.894359940372368
10
20.313982526386635
20
59.585741778788979
10
20.017676024208093
20
59.632672118301059
0
LWPOLYLINE
5
144
100
AcDbEntity
8
0
100
AcDbPolyline
90
4
70
1
43
0.0
10
20.69034422388107
20
63.879731982860129
10
20.986650726059612
20
63.83280164334807
10
21.096154851587748
20
64.524183481764666
10
20.799848349409203
20
64.571113821276725
0
LWPOLYLINE
5
145
100
AcDbEntity
8
0
100
AcDbPolyline
90
4
70
1
43
0.0
10
1.44044522512552
20
61.879499174923652
10
1.73675172730406
20
61.832568835411578
10
1.846255852832241
20
62.523950673828182
10
1.549949350653701
20
62.570881013340262
0
LWPOLYLINE
5
146
100
AcDbEntity
8
0
100
AcDbPolyline
90
4
70
1
43
0.0
10
4.4489054903032139
20
63.934168694054883
10
4.7452119924817566
20
63.887238354542816
10
4.8547161180099137
20
64.578620192959406
10
4.5584096158313709
20
64.625550532471465
0
LWPOLYLINE
5
147
100
AcDbEntity
8
0
100
AcDbPolyline
90
4
70
1
43
0.0
10
2.222617550326675
20
66.817940877899332
10
2.5189240525052163
20
66.771010538387273
10
2.6284281780333534
20
67.462392376803862
10
2.332121675854812
20
67.509322716315921
0
LWPOLYLINE
5
148
100
AcDbEntity
8
0
100
AcDbPolyline
90
4
70
1
43
0.0
10
-2.6284281780333787
20
67.462392376803862
10
-2.5189240525052163
20
66.771010538387273
10
-2.2226175503266763
20
66.817940877899346
10
-2.3321216758548386
20
67.509322716315936
0
LWPOLYLINE
5
149
100
AcDbEntity
8
0
100
AcDbPolyline
90
4
70
1
43
0.0
10
-4.8547161180099172
20
64.578620192959406
10
-4.7452119924817566
20
63.887238354542816
10
-4.4489054903032139
20
63.934168694054883
10
-4.5584096158313745
20
64.625550532471465
0
LWPOLYLINE
5
150
100
AcDbEntity
8
0
100
AcDbPolyline
90
4
70
1
43
0.0
10
-1.8462558528322235
20
62.523950673828182
10
-1.73675172730406
20
61.832568835411578
10
-1.4404452251255191
20
61.879499174923644
10
-1.5499493506536823
20
62.570881013340255
0
LWPOLYLINE
5
151
100
AcDbEntity
8
0
100
AcDbPolyline
90
4
70
1
43
0.0
10
-21.096154851587773
20
64.524183481764666
10
-20.986650726059612
20
63.83280164334807
10
-20.69034422388107
20
63.879731982860136
10
-20.799848349409231
20
64.571113821276725
0
LWPOLYLINE
5
152
100
AcDbEntity
8
0
100
AcDbPolyline
90
4
70
1
43
0.0
10
-23.322442791564313
20
61.640411297920195
10
-23.212938666036152
20
60.949029459503606
10
-22.91663216385761
20
60.995959799015679
10
-23.026136289385772
20
61.687341637432269
0
LWPOLYLINE
5
153
100
AcDbEntity
8
0
100
AcDbPolyline
90
4
70
1
43
0.0
10
-20.313982526386617
20
59.585741778788979
10
-20.204478400858456
20
58.894359940372368
10
-19.908171898679914
20
58.941290279884441
10
-20.017676024208075
20
59.632672118301045
0
ENDSEC
0
SECTION
2
OBJECTS
0
DICTIONARY
5
C
100
AcDbDictionary
3
ACAD_GROUP
350
D
3
ACAD_MLINESTYLE
350
17
0
DICTIONARY
5
D
100
AcDbDictionary
0
DICTIONARY
5
1A
330
C
100
AcDbDictionary
0
DICTIONARY
5
17
100
AcDbDictionary
0
ENDSEC
0
EOF
