0
SECTION
2
HEADER
9
$INSUNITS
70
4
9
$ACADVER
1
AC1014
9
$HANDSEED
5
FFFF
0
ENDSEC
0
SECTION
2
TABLES
0
TABLE
2
VPORT
5
8
100
AcDbSymbolTable
0
ENDTAB
0
TABLE
2
LTYPE
5
5
100
AcDbSymbolTable
0
LTYPE
5
14
100
AcDbSymbolTableRecord
100
AcDbLinetypeTableRecord
2
BYBLOCK
70
0
0
LTYPE
5
15
100
AcDbSymbolTableRecord
100
AcDbLinetypeTableRecord
2
BYLAYER
70
0
0
LTYPE
5
16
100
AcDbSymbolTableRecord
100
AcDbLinetypeTableRecord
2
DASHED
70
0
3
Dashed __ __ __ __ __ __ __ __ __ __ __ __ __ _
72
65
73
2
40
0.75
49
0.5
74
0
49
-0.25
74
0
0
ENDTAB
0
TABLE
2
LAYER
5
2
100
AcDbSymbolTable
70
2
0
LAYER
5
50
100
AcDbSymbolTableRecord
100
AcDbLayerTableRecord
2
0
70
0
62
7
6
CONTINUOUS
0
ENDTAB
0
TABLE
2
STYLE
5
3
100
AcDbSymbolTable
70
1
0
STYLE
5
11
100
AcDbSymbolTableRecord
100
AcDbTextStyleTableRecord
2
STANDARD
70
0
0
ENDTAB
0
TABLE
2
VIEW
5
6
100
AcDbSymbolTable
70
0
0
ENDTAB
0
TABLE
2
UCS
5
7
100
AcDbSymbolTable
70
0
0
ENDTAB
0
TABLE
2
APPID
5
9
100
AcDbSymbolTable
70
2
0
APPID
5
12
100
AcDbSymbolTableRecord
100
AcDbRegAppTableRecord
2
ACAD
70
0
0
ENDTAB
0
TABLE
2
DIMSTYLE
5
A
100
AcDbSymbolTable
70
1
0
ENDTAB
0
TABLE
2
BLOCK_RECORD
5
1
100
AcDbSymbolTable
70
1
0
BLOCK_RECORD
5
1F
100
AcDbSymbolTableRecord
100
AcDbBlockTableRecord
2
*MODEL_SPACE
0
BLOCK_RECORD
5
1B
100
AcDbSymbolTableRecord
100
AcDbBlockTableRecord
2
*PAPER_SPACE
0
ENDTAB
0
ENDSEC
0
SECTION
2
BLOCKS
0
BLOCK
5
20
100
AcDbEntity
100
AcDbBlockBegin
2
*MODEL_SPACE
0
ENDBLK
5
21
100
AcDbEntity
100
AcDbBlockEnd
0
BLOCK
5
1C
100
AcDbEntity
100
AcDbBlockBegin
2
*PAPER_SPACE
0
ENDBLK
5
1D
100
AcDbEntity
100
AcDbBlockEnd
0
ENDSEC
0
SECTION
2
ENTITIES
0
LWPOLYLINE
5
100
100
AcDbEntity
8
0
100
AcDbPolyline
90
18
70
1
43
0.0
10
31.824960999999984
20
62.563217000000051
10
47.866238999999979
20
62.563217000000051
10
47.866238999999986
20
75.126784000000043
10
27.936168999999996
20
75.126784000000043
10
23.076212999999989
20
66.487924000000049
10
20.20320499999999
20
65.788804000000056
10
6.8907619999999952
20
66.881157000000059
10
3.9170979999999957
20
68.843951000000047
10
-0.13187600000000133
20
68.843913000000057
10
-4.1854550000000001
20
68.843874000000056
10
-7.1590809999999996
20
66.881023000000056
10
-20.471502999999991
20
65.788418000000064
10
-23.344524999999994
20
66.487483000000054
10
-28.204644999999996
20
75.126250000000056
10
-40.134238999999994
20
75.126784000000043
10
-48.13423899999998
20
63.626784000000058
10
-48.13423899999998
20
56.563217000000058
10
31.824960999999981
20
56.563217000000058
0
CIRCLE
5
101
100
AcDbEntity
8
0
100
AcDbCircle
10
-2.6127260000000003
20
67.242360000000062
30
0
40
0.39999999999999986
210
1.3289523250567257e-64
220
6.1629758220391547e-33
230
1
0
CIRCLE
5
102
100
AcDbEntity
8
0
100
AcDbCircle
10
-21.103924999999997
20
64.295960000000051
30
0
40
0.39999999999999986
210
1.3289523250567257e-64
220
6.1629758220391547e-33
230
1
0
CIRCLE
5
103
100
AcDbEntity
8
0
100
AcDbCircle
10
-4.7241109999999997
20
64.336288000000053
30
0
40
0.39999999999999986
210
1.3289523250567257e-64
220
6.1629758220391547e-33
230
1
0
CIRCLE
5
104
100
AcDbEntity
8
0
100
AcDbCircle
10
2.3562479999999972
20
67.242360000000062
30
0
40
0.39999999999999986
210
0
220
0
230
1
0
CIRCLE
5
105
100
AcDbEntity
8
0
100
AcDbCircle
10
4.4676329999999966
20
64.336288000000053
30
0
40
0.39999999999999986
210
1.3289523250567257e-64
220
6.1629758220391547e-33
230
1
0
CIRCLE
5
106
100
AcDbEntity
8
0
100
AcDbCircle
10
20.79664799999999
20
64.295960000000051
30
0
40
0.39999999999999986
210
6.1629758220392095e-33
220
6.1629758220391007e-33
230
1
0
CIRCLE
5
107
100
AcDbEntity
8
0
100
AcDbCircle
10
-23.215309999999995
20
61.389888000000063
30
0
40
0.39999999999999986
210
6.1629758220392095e-33
220
6.1629758220391007e-33
230
1
0
CIRCLE
5
108
100
AcDbEntity
8
0
100
AcDbCircle
10
-1.8180390000000006
20
62.224903000000054
30
0
40
0.39999999999999986
210
1.3289523250567257e-64
220
6.1629758220391547e-33
230
1
0
CIRCLE
5
109
100
AcDbEntity
8
0
100
AcDbCircle
10
-20.309237999999997
20
59.278503000000057
30
0
40
0.39999999999999986
210
1.3289523250567257e-64
220
6.1629758220391547e-33
230
1
0
CIRCLE
5
110
100
AcDbEntity
8
0
100
AcDbCircle
10
1.561560999999998
20
62.224903000000054
30
0
40
0.39999999999999986
210
1.3289523250567257e-64
220
6.1629758220391547e-33
230
1
0
CIRCLE
5
111
100
AcDbEntity
8
0
100
AcDbCircle
10
22.908032999999989
20
61.389888000000063
30
0
40
0.39999999999999986
210
1.3289523250567257e-64
220
6.1629758220391547e-33
230
1
0
CIRCLE
5
112
100
AcDbEntity
8
0
100
AcDbCircle
10
20.001960999999994
20
59.278503000000057
30
0
40
0.39999999999999986
210
1.3289523250567257e-64
220
6.1629758220391547e-33
230
1
0
CIRCLE
5
113
100
AcDbEntity
8
0
100
AcDbCircle
10
28.000000000000004
20
69.5
30
0
40
1.25
210
2.020613391925597e-65
220
-1.2325951644078309e-32
230
1
0
CIRCLE
5
114
100
AcDbEntity
8
0
100
AcDbCircle
10
2.5960555781223889e-16
20
72
30
-2.7755575615628914e-16
40
1.25
210
2.020613391925597e-65
220
-1.2325951644078309e-32
230
1
0
CIRCLE
5
115
100
AcDbEntity
8
0
100
AcDbCircle
10
-28.000000000000004
20
69.5
30
0
40
1.25
210
2.020613391925597e-65
220
-1.2325951644078309e-32
230
1
0
ENDSEC
0
SECTION
2
OBJECTS
0
DICTIONARY
5
C
100
AcDbDictionary
3
ACAD_GROUP
350
D
3
ACAD_MLINESTYLE
350
17
0
DICTIONARY
5
D
100
AcDbDictionary
0
DICTIONARY
5
1A
330
C
100
AcDbDictionary
0
DICTIONARY
5
17
100
AcDbDictionary
0
ENDSEC
0
EOF
