<?xml version="1.0" encoding="UTF-8" standalone="no"?>
<svg
   xmlns:dc="http://purl.org/dc/elements/1.1/"
   xmlns:cc="http://creativecommons.org/ns#"
   xmlns:rdf="http://www.w3.org/1999/02/22-rdf-syntax-ns#"
   xmlns:svg="http://www.w3.org/2000/svg"
   xmlns="http://www.w3.org/2000/svg"
   xmlns:sodipodi="http://sodipodi.sourceforge.net/DTD/sodipodi-0.dtd"
   xmlns:inkscape="http://www.inkscape.org/namespaces/inkscape"
   width="19.562883mm"
   height="33.137817mm"
   viewBox="0 0 19.562883 33.137817"
   version="1.1"
   id="svg8"
   inkscape:version="1.0.1 (3bc2e813f5, 2020-09-07)"
   sodipodi:docname="crow2.svg">
  <defs
     id="defs2" />
  <sodipodi:namedview
     id="base"
     pagecolor="#ffffff"
     bordercolor="#666666"
     borderopacity="1.0"
     inkscape:pageopacity="0.0"
     inkscape:pageshadow="2"
     inkscape:zoom="0.35"
     inkscape:cx="351.25494"
     inkscape:cy="768.33693"
     inkscape:document-units="mm"
     inkscape:current-layer="layer1"
     inkscape:document-rotation="0"
     showgrid="false"
     fit-margin-top="0"
     fit-margin-left="0"
     fit-margin-right="0"
     fit-margin-bottom="0"
     inkscape:window-width="1267"
     inkscape:window-height="1032"
     inkscape:window-x="3194"
     inkscape:window-y="437"
     inkscape:window-maximized="0" />
  <metadata
     id="metadata5">
    <rdf:RDF>
      <cc:Work
         rdf:about="">
        <dc:format>image/svg+xml</dc:format>
        <dc:type
           rdf:resource="http://purl.org/dc/dcmitype/StillImage" />
        <dc:title></dc:title>
      </cc:Work>
    </rdf:RDF>
  </metadata>
  <g
     inkscape:label="Layer 1"
     inkscape:groupmode="layer"
     id="layer1"
     transform="translate(-12.897131,55.12248)">
    <path
       style="fill:#000000;stroke-width:0.249888"
       d="m 24.463942,-55.120606 c -1.297692,0.03696 -2.5351,0.620491 -3.440099,1.696022 -0.875152,1.040069 -2.409674,4.065767 -2.409674,4.751131 0,0.774322 -0.677754,1.936633 -1.231967,2.112534 -0.588928,0.18692 -2.148678,2.304206 -2.849438,3.868497 -0.386228,0.862179 -0.534215,1.832027 -0.617016,4.039547 -0.11566,3.084729 0.127601,4.397134 0.959631,5.172294 0.90765,0.845601 0.694388,2.192475 -0.735873,4.646745 -1.494819,2.565079 -1.62021,3.594948 -0.486791,3.990969 0.50396,0.17609 0.905695,0.109675 1.690336,-0.278535 0.566081,-0.280112 1.071329,-0.438201 1.122928,-0.351401 0.05157,0.08681 -0.02839,0.748117 -0.177765,1.469678 -0.20229,0.97713 -0.38295,1.312063 -0.707451,1.312063 -0.544161,0 -0.82618,0.41161 -0.404109,0.58963 h 5.29e-4 c 0.17266,0.0726 0.538507,0.0741 0.813388,0.0031 0.558019,-0.144171 0.577908,-0.143769 2.06189,0.06201 0.725548,0.10061 1.06195,0.05506 1.06195,-0.143661 0,-0.16623 0.133654,-0.210055 0.312126,-0.102836 0.203759,0.122442 0.190529,0.03745 -0.03824,-0.24443 -0.192839,-0.237623 -0.529836,-0.415193 -0.749308,-0.394294 -0.817239,0.07783 -0.978852,-0.04291 -1.371491,-1.024226 -0.221091,-0.552532 -0.402042,-1.098886 -0.402042,-1.214397 0,-0.11552 0.534178,-0.274884 1.187008,-0.353984 1.412208,-0.171079 2.490576,-0.676759 3.316076,-1.555459 0.492609,-0.524362 0.622932,-0.968298 0.703834,-2.399335 0.09174,-1.623463 0.148687,-1.775193 0.757057,-2.013831 0.361871,-0.141952 0.853273,-0.358458 1.091925,-0.481108 0.856869,-0.440381 0.958889,-0.268685 0.796851,1.338937 -0.136351,1.352828 -0.08879,1.639925 0.355015,2.147153 0.281792,0.322059 0.811384,1.347364 1.176673,2.278415 0.764919,1.949648 0.610717,2.784734 -0.475424,2.577102 -0.35065,-0.06703 -0.685649,0.02574 -0.798399,0.22066 -0.107341,0.184748 -0.10378,0.253394 0.0078,0.152445 0.111521,-0.100941 0.326461,-0.01923 0.47749,0.181901 0.42453,0.565359 3.559294,0.896229 5.009513,0.528651 0.57399,-0.145492 0.656566,-0.238107 0.374655,-0.419098 -0.19899,-0.127799 -0.675016,-0.166282 -1.057817,-0.08578 -0.57563,0.120992 -0.839354,-0.0105 -1.526006,-0.760158 -0.456639,-0.498541 -1.137026,-1.687666 -1.511535,-2.642217 -0.78477,-2.000271 -0.732293,-2.633571 0.388606,-4.695321 0.693881,-1.276329 1.022925,-2.342668 1.344105,-4.356838 0.125161,-0.784971 0.248049,-0.936895 0.75706,-0.936895 1.128501,0 1.497576,-1.010406 1.463477,-4.005955 -0.03069,-2.699481 -0.20737,-3.371671 -1.161169,-4.41937 -0.485478,-0.533223 -1.164161,-2.159739 -1.727591,-4.138769 -0.230529,-0.809742 -0.202131,-1.018093 0.199988,-1.462442 0.63808,-0.705059 1.45397,-1.077243 3.170348,-1.446424 2.20363,-0.47397 1.482376,-1.274538 -1.634524,-1.81436 -0.861071,-0.14914 -2.095749,-0.53708 -2.74402,-0.862478 -0.763307,-0.383151 -1.563878,-0.558062 -2.342491,-0.535887 z"
       id="path880" />
  </g>
</svg>
