<?xml version="1.0" encoding="UTF-8" standalone="no"?>
<svg
   viewBox="0 0 487.3619 647.67714"
   width="487.36191"
   height="647.67712"
   version="1.1"
   id="svg131"
   sodipodi:docname="front_panel_outline.svg"
   inkscape:version="1.4 (86a8ad7, 2024-10-11)"
   xmlns:inkscape="http://www.inkscape.org/namespaces/inkscape"
   xmlns:sodipodi="http://sodipodi.sourceforge.net/DTD/sodipodi-0.dtd"
   xmlns="http://www.w3.org/2000/svg"
   xmlns:svg="http://www.w3.org/2000/svg">
  <sodipodi:namedview
     id="namedview131"
     pagecolor="#ffffff"
     bordercolor="#999999"
     borderopacity="1"
     inkscape:showpageshadow="2"
     inkscape:pageopacity="0"
     inkscape:pagecheckerboard="0"
     inkscape:deskcolor="#d1d1d1"
     inkscape:zoom="9.7780025"
     inkscape:cx="228.42089"
     inkscape:cy="421.14941"
     inkscape:window-width="1600"
     inkscape:window-height="930"
     inkscape:window-x="-6"
     inkscape:window-y="-6"
     inkscape:window-maximized="1"
     inkscape:current-layer="g131"
     showgrid="false" />
  <desc
     id="desc1">front_panel_outline.dxf - scale = 1.000000, origin = (0.000000, 0.000000), method = auto</desc>
  <defs
     id="defs4">
    <marker
       id="DistanceX"
       orient="auto"
       refX="0"
       refY="0"
       style="overflow:visible">
      <path
         d="M 3,-3 -3,3 M 0,-5 V 5"
         style="stroke:#000000;stroke-width:0.5"
         id="path1" />
    </marker>
    <pattern
       id="Hatch"
       patternUnits="userSpaceOnUse"
       width="8"
       height="8"
       x="0"
       y="0">
      <path
         d="M8 4 l-4,4"
         stroke="#000000"
         stroke-width="0.25"
         linecap="square"
         id="path2" />
      <path
         d="M6 2 l-4,4"
         stroke="#000000"
         stroke-width="0.25"
         linecap="square"
         id="path3" />
      <path
         d="M4 0 l-4,4"
         stroke="#000000"
         stroke-width="0.25"
         linecap="square"
         id="path4" />
    </pattern>
    <symbol
       id="*MODEL_SPACE" />
    <symbol
       id="*PAPER_SPACE" />
  </defs>
  <g
     inkscape:groupmode="layer"
     inkscape:label="0"
     id="g131"
     transform="translate(-204.73522,-292.52581)">
    <path
       d="m 336.69952,878.71235 17.5748,-17.5748 17.5748,17.5748 v 30.3009 a 8.125984,8.125984 0 0 1 -8.126,8.1259 h -18.8976 a 8.125984,8.125984 0 0 1 -8.126,-8.1259 z"
       style="fill:none;stroke:#000000"
       id="path5" />
    <path
       d="M 234.93572,338.38013 H 662.02234 V 602.94705 H 234.93572 Z"
       style="fill:none;stroke:#000000"
       id="path6" />
    <path
       d="m 392.63652,753.82585 a 6.6141735,6.6141735 0 0 0 13.2283,0 6.6141735,6.6141735 0 0 0 -13.2283,0 z"
       style="fill:none;stroke:#000000"
       id="path7" />
    <path
       d="m 569.5184,697.96435 a 22.677165,22.677165 0 0 0 45.35433,0 22.677165,22.677165 0 0 0 -45.35433,0 z"
       style="fill:none;stroke:#000000"
       id="path8" />
    <path
       d="m 425.80182,706.88405 a 22.67719,22.67719 0 0 0 45.35438,0 22.67719,22.67719 0 0 0 -45.35438,0 z"
       style="fill:none;stroke:#000000"
       id="path9" />
    <path
       d="m 331.81302,838.67615 17.5748,17.5749 -17.5748,17.5748 h -30.3009 a 8.125984,8.125984 0 0 1 -8.126,-8.126 v -18.8977 a 8.125984,8.125984 0 0 1 8.126,-8.126 z"
       style="fill:none;stroke:#000000"
       id="path10" />
    <path
       d="m 586.35706,806.27705 a 22.677165,22.677165 0 1 0 -12.51977,-8.6"
       style="fill:none;stroke:#000000"
       id="path11" />
    <path
       d="m 573.83729,797.67705 c 1.50601,2.0768 3.3676,3.8953 5.47909,5.3523 2.13771,1.475 4.53101,2.579 7.04068,3.2477"
       style="fill:none;stroke:#000000"
       id="path12" />
    <path
       d="m 250.23732,741.16435 a 54.717164,54.717164 0 0 0 109.4343,0 54.717164,54.717164 0 0 0 -109.4343,0 z"
       style="fill:none;stroke:#000000"
       id="path13" />
    <path
       d="m 626.86783,878.60175 c 0.29917,-0.3388 0.53841,-0.6471 0.7201,-0.9785 0.17922,-0.327 0.29841,-0.6695 0.36888,-1.084 0.14138,-0.8317 0.0856,-1.952 -0.0924,-3.8011"
       style="fill:none;stroke:#000000"
       id="path14" />
    <path
       d="m 623.63146,884.81785 c 0.70251,-1.7732 1.622,-3.6686 2.38262,-4.9598 0.19901,-0.3378 0.55097,-0.9125 0.85375,-1.2563"
       style="fill:none;stroke:#000000"
       id="path15" />
    <path
       d="m 624.89994,891.86665 c -0.24646,0.046 -0.50315,0.078 -0.75404,0.081 -0.2087,0 -0.42167,-0.014 -0.62458,-0.064 -0.18177,-0.044 -0.35462,-0.1145 -0.50977,-0.2192 -0.1516,-0.1022 -0.27657,-0.2308 -0.37699,-0.3836 -0.13257,-0.2017 -0.21412,-0.4332 -0.26277,-0.6695 -0.083,-0.4031 -0.0761,-0.8505 -0.0361,-1.2587 0.11247,-1.1474 0.55198,-2.663 1.29576,-4.5347"
       style="fill:none;stroke:#000000"
       id="path16" />
    <path
       d="m 627.07797,892.48375 c -0.0439,-0.077 -0.0994,-0.1464 -0.16279,-0.2085 -0.0678,-0.066 -0.14444,-0.1238 -0.22549,-0.1732 -0.16907,-0.1031 -0.37374,-0.1811 -0.60162,-0.2301 -0.35563,-0.077 -0.7675,-0.083 -1.18813,-0.01"
       style="fill:none;stroke:#000000"
       id="path17" />
    <path
       d="m 627.05435,892.90025 c 0.0385,0.035 0.0905,0.08 0.1359,0.1059 0.0136,0.01 0.0297,0.016 0.0449,0.02 0.007,0 0.0136,0 0.0204,0 0.004,-2e-4 0.008,-10e-4 0.0122,0 0.004,-10e-4 0.007,0 0.009,-0.01 0.003,0 0.006,-0.01 0.007,-0.011 0.003,-0.01 0.004,-0.015 0.005,-0.022 0.002,-0.029 -0.008,-0.069 -0.018,-0.1004 -0.0419,-0.1335 -0.14391,-0.3171 -0.19291,-0.4025"
       style="fill:none;stroke:#000000"
       id="path18" />
    <path
       d="m 625.74706,893.39125 c 0.10081,-0.1329 0.21851,-0.2554 0.34985,-0.357 0.12366,-0.096 0.25096,-0.1659 0.3738,-0.2079 0.082,-0.028 0.16882,-0.046 0.25519,-0.046 0.0622,0 0.12382,0.01 0.18211,0.031 0.0544,0.02 0.10349,0.05 0.14633,0.089"
       style="fill:none;stroke:#000000"
       id="path19" />
    <path
       d="m 612.06263,894.89465 c 2.3237,0.5784 6.22361,0.4953 9.28818,0.016 1.30031,-0.2034 2.4477,-0.4778 3.26177,-0.8027 0.28434,-0.1134 0.60478,-0.2637 0.85154,-0.4459 0.10346,-0.076 0.20607,-0.1673 0.28294,-0.2706"
       style="fill:none;stroke:#000000"
       id="path20" />
    <path
       d="m 611.04444,893.74425 c -0.17583,0.1116 -0.30003,0.211 -0.36857,0.3027 -0.0209,0.028 -0.0395,0.059 -0.0508,0.092 -0.008,0.023 -0.0122,0.047 -0.0115,0.072 7.7e-4,0.025 0.007,0.05 0.0173,0.072 0.0149,0.033 0.0382,0.062 0.0639,0.087 0.0523,0.052 0.13023,0.1025 0.23506,0.1539 0.25254,0.1239 0.64875,0.2446 1.13285,0.3698"
       style="fill:none;stroke:#000000"
       id="path21" />
    <path
       d="m 613.93717,893.53265 c -0.41258,-0.09 -0.86126,-0.1291 -1.28427,-0.1239 -0.44044,0.01 -0.85806,0.059 -1.18635,0.1556 -0.14318,0.042 -0.29631,0.1005 -0.42211,0.1799"
       style="fill:none;stroke:#000000"
       id="path22" />
    <path
       d="m 618.1285,891.49755 c -0.87734,0.9386 -1.50386,1.5184 -2.07915,1.8363 -0.29988,0.1657 -0.58605,0.2606 -0.88889,0.2977 -0.36855,0.045 -0.75872,0 -1.22329,-0.099"
       style="fill:none;stroke:#000000"
       id="path23" />
    <path
       d="m 622.35211,884.33035 c -0.60758,1.4918 -1.476,3.1521 -2.32542,4.5374 -0.66993,1.0926 -1.34297,2.0391 -1.89819,2.6298"
       style="fill:none;stroke:#000000"
       id="path24" />
    <path
       d="m 621.42993,871.48745 c 0.83412,1.5749 1.47635,2.8999 1.88785,4.092 0.3864,1.1193 0.56608,2.1081 0.54337,3.1385 -0.035,1.5886 -0.55291,3.2513 -1.50904,5.6124"
       style="fill:none;stroke:#000000"
       id="path25" />
    <path
       d="m 617.85198,859.55135 c 0.41553,2.7471 0.84084,4.8526 1.40097,6.7212 0.56358,1.88 1.25754,3.4909 2.17698,5.2149"
       style="fill:none;stroke:#000000"
       id="path26" />
    <path
       d="m 615.79553,856.98085 c 0.39341,0 0.70216,0.037 0.95025,0.1339 0.13548,0.053 0.25544,0.126 0.36175,0.2256 0.11982,0.1123 0.22049,0.2568 0.30817,0.4418 0.18457,0.3893 0.31051,0.9549 0.43628,1.7692"
       style="fill:none;stroke:#000000"
       id="path27" />
    <path
       d="m 611.87658,846.00365 c -0.0526,2.8062 0.0216,5.1923 0.3454,6.9882 0.16021,0.8884 0.37689,1.6076 0.66013,2.1809 0.17999,0.3642 0.40603,0.7077 0.69684,0.9929 0.25895,0.254 0.55418,0.4472 0.89121,0.5816 0.39849,0.1589 0.84083,0.23 1.32537,0.2336"
       style="fill:none;stroke:#000000"
       id="path28" />
    <path
       d="m 615.27703,833.98765 c -0.65625,0.6941 -1.19026,1.3358 -1.62224,2.0275 -0.42756,0.6846 -0.74752,1.4063 -0.99198,2.2701 -0.48985,1.7309 -0.67479,4.0309 -0.78624,7.7184"
       style="fill:none;stroke:#000000"
       id="path29" />
    <path
       d="m 620.24455,822.78255 c -1.26519,4.1013 -2.70166,7.6379 -3.915,9.7175 -0.28363,0.4862 -0.66369,1.0789 -1.05252,1.4876"
       style="fill:none;stroke:#000000"
       id="path30" />
    <path
       d="m 619.73378,818.78105 c 0.29636,0.3334 0.5184,0.6191 0.6709,0.9046 0.13663,0.2557 0.21694,0.5107 0.24417,0.7995 0.0526,0.558 -0.0929,1.2397 -0.4043,2.2974"
       style="fill:none;stroke:#000000"
       id="path31" />
    <path
       d="m 611.0527,814.86475 c 2.32408,0.4896 4.12157,0.9967 5.556,1.6603 1.30481,0.6037 2.26917,1.3182 3.12508,2.256"
       style="fill:none;stroke:#000000"
       id="path32" />
    <path
       d="m 615.48299,809.87335 c -1.46313,0.2645 -4.94877,0.9493 -6.79185,1.9586 -0.26971,0.1477 -0.56332,0.3346 -0.78414,0.5496 -0.10001,0.097 -0.1943,0.2093 -0.26007,0.3325 -0.0422,0.079 -0.0731,0.1636 -0.0858,0.2523 -0.012,0.084 -0.007,0.1668 0.0144,0.2486 0.0264,0.1001 0.0759,0.1918 0.13799,0.2747 0.10453,0.1396 0.24849,0.2592 0.39235,0.3573 0.72492,0.4943 2.00825,0.8232 2.94687,1.0178"
       style="fill:none;stroke:#000000"
       id="path33" />
    <path
       d="m 622.95996,807.44645 c -0.88243,0.4533 -2.1647,0.9526 -3.51872,1.392 -1.35845,0.4409 -2.78267,0.82 -3.95825,1.0349"
       style="fill:none;stroke:#000000"
       id="path34" />
    <path
       d="m 629.35358,805.94595 c -1.08199,-0.025 -2.16011,0.09 -3.21485,0.3349 -1.10379,0.2562 -2.16822,0.6512 -3.17877,1.1656"
       style="fill:none;stroke:#000000"
       id="path35" />
    <path
       d="m 638.77076,810.54935 c -0.65222,-0.7698 -1.38328,-1.4662 -2.18912,-2.0725 -0.77446,-0.5827 -1.6096,-1.076 -2.49543,-1.4685 -1.49547,-0.6627 -3.09739,-1.0214 -4.73263,-1.0624"
       style="fill:none;stroke:#000000"
       id="path36" />
    <path
       d="m 645.22701,823.59875 c 0.004,-0.367 -0.15151,-0.9329 -0.29995,-1.3941 -0.22107,-0.6868 -0.52796,-1.4542 -0.81352,-2.1219 -0.716,-1.674 -1.64251,-3.533 -2.53977,-5.1579 -0.98061,-1.7758 -1.99196,-3.3919 -2.80301,-4.3755"
       style="fill:none;stroke:#000000"
       id="path37" />
    <path
       d="m 648.55029,829.39735 c -0.15543,-0.051 -0.30511,-0.1268 -0.44351,-0.2139 -0.15865,-0.1 -0.30988,-0.2187 -0.44957,-0.3439 -0.32258,-0.2891 -0.61806,-0.6422 -0.87102,-0.9968 -0.56599,-0.7935 -1.0479,-1.7754 -1.31984,-2.7139 -0.15573,-0.5374 -0.24288,-1.0604 -0.23934,-1.5301"
       style="fill:none;stroke:#000000"
       id="path38" />
    <path
       d="m 656.28285,840.00995 c -1.42792,-3.2323 -4.18716,-7.3314 -6.14643,-9.3732 -0.33086,-0.3448 -0.76598,-0.7634 -1.16571,-1.0253 -0.12674,-0.083 -0.27579,-0.1673 -0.42042,-0.2141"
       style="fill:none;stroke:#000000"
       id="path39" />
    <path
       d="m 657.8234,851.07105 c -0.073,-3.003 -0.20032,-5.1756 -0.44115,-6.9051 -0.22894,-1.6442 -0.5615,-2.9115 -1.0994,-4.156"
       style="fill:none;stroke:#000000"
       id="path40" />
    <path
       d="m 654.92481,865.15265 c 0.60758,-0.5442 1.07773,-1.1673 1.45075,-1.8888 0.39081,-0.756 0.6953,-1.6586 0.92331,-2.7664 0.454,-2.206 0.60015,-5.2065 0.52453,-9.4264"
       style="fill:none;stroke:#000000"
       id="path41" />
    <path
       d="m 656.78352,877.87525 c -1.62916,-2.8743 -2.66517,-5.1957 -3.12177,-7.0967 -0.21222,-0.8836 -0.31043,-1.7211 -0.25263,-2.5011 0.0432,-0.5827 0.17462,-1.1443 0.42364,-1.6735 0.26294,-0.5588 0.63555,-1.0361 1.09205,-1.4513"
       style="fill:none;stroke:#000000"
       id="path42" />
    <path
       d="m 657.99412,888.79625 c 0.34761,-0.1172 0.6938,-0.2704 0.99858,-0.4764 0.24985,-0.1689 0.46923,-0.3713 0.64434,-0.6171 0.18332,-0.2574 0.304,-0.5425 0.37409,-0.8503 0.0916,-0.4022 0.10189,-0.8642 0.0305,-1.3966 -0.22957,-1.7116 -1.30432,-4.1418 -3.25809,-7.5806"
       style="fill:none;stroke:#000000"
       id="path43" />
    <path
       d="m 653.38295,887.98555 c 0.61298,0.3115 1.16896,0.5647 1.68427,0.7444 0.48111,0.1677 0.91411,0.2669 1.33581,0.2957 0.54113,0.037 1.04379,-0.045 1.59109,-0.2294"
       style="fill:none;stroke:#000000"
       id="path44" />
    <path
       d="m 650.32273,886.99785 c 0.005,-0.01 0.0104,-0.014 0.017,-0.02 0.007,-0.01 0.0154,-0.012 0.024,-0.016 0.0208,-0.011 0.0453,-0.017 0.0684,-0.021 0.0633,-0.01 0.14182,-0.01 0.21254,0 0.22437,0.027 0.50636,0.1105 0.68426,0.1679 0.5546,0.179 1.28384,0.4849 2.054,0.8746"
       style="fill:none;stroke:#000000"
       id="path45" />
    <path
       d="m 650.77814,891.01795 c -0.20172,-1.013 -0.35242,-1.9713 -0.43432,-2.7122 -0.0281,-0.2543 -0.0809,-0.7798 -0.0629,-1.0923 0.003,-0.058 0.01,-0.1226 0.0235,-0.1705 0.005,-0.016 0.0105,-0.032 0.0183,-0.045"
       style="fill:none;stroke:#000000"
       id="path46" />
    <path
       d="m 652.68959,894.61555 c -0.12178,-8e-4 -0.24056,-0.019 -0.35525,-0.06 -0.11653,-0.042 -0.22039,-0.1051 -0.31462,-0.1853 -0.15025,-0.1278 -0.28783,-0.3093 -0.41723,-0.5528 -0.29987,-0.5644 -0.55601,-1.4621 -0.82435,-2.7995"
       style="fill:none;stroke:#000000"
       id="path47" />
    <path
       d="m 653.78415,896.23365 c 0.0818,-0.034 0.16243,-0.075 0.2363,-0.1233 0.0616,-0.041 0.11969,-0.088 0.16949,-0.1421 0.0498,-0.054 0.091,-0.1156 0.1184,-0.1839 0.0252,-0.063 0.0375,-0.1284 0.0365,-0.196 -10e-4,-0.075 -0.019,-0.1486 -0.049,-0.2178 -0.0399,-0.092 -0.10349,-0.1825 -0.18834,-0.2667 -0.1197,-0.1187 -0.28149,-0.2252 -0.47797,-0.3082 -0.25902,-0.1094 -0.57808,-0.1779 -0.93993,-0.1801"
       style="fill:none;stroke:#000000"
       id="path48" />
    <path
       d="m 651.55976,896.22485 c 0.55378,0.1476 1.24398,0.1883 1.75891,0.1208 0.18206,-0.024 0.34169,-0.061 0.46548,-0.112"
       style="fill:none;stroke:#000000"
       id="path49" />
    <path
       d="m 645.92336,896.34055 c 2.0306,-0.2619 3.0592,-0.3929 3.77055,-0.4075 0.71137,-0.014 1.10526,0.087 1.86585,0.2918"
       style="fill:none;stroke:#000000"
       id="path50" />
    <path
       d="m 643.02415,895.92605 c -3.5e-4,0.047 0.006,0.092 0.0213,0.1362 0.0149,0.043 0.0373,0.082 0.0665,0.1165 0.0426,0.051 0.0971,0.091 0.15535,0.1221 0.11446,0.062 0.26831,0.1061 0.46062,0.1336 0.47695,0.068 1.20249,0.036 2.19548,-0.094"
       style="fill:none;stroke:#000000"
       id="path51" />
    <path
       d="m 642.17295,895.63945 c 0.0953,-0.056 0.20047,-0.1058 0.30714,-0.1336 0.0656,-0.017 0.13485,-0.027 0.2023,-0.022 0.0458,0 0.0908,0.013 0.13266,0.032 0.0378,0.017 0.0714,0.041 0.0999,0.071 0.0328,0.035 0.057,0.076 0.0741,0.1203 0.0264,0.069 0.0355,0.1449 0.0351,0.2189"
       style="fill:none;stroke:#000000"
       id="path52" />
    <path
       d="m 642.28146,894.97215 c -0.17466,0.2125 -0.3646,0.4579 -0.45237,0.6237 -0.0185,0.035 -0.036,0.073 -0.0443,0.1058 -0.003,0.012 -0.005,0.026 -0.005,0.038 2.4e-4,0.01 10e-4,0.013 0.004,0.019 0.002,0 0.004,0.01 0.007,0.012 0.003,0 0.008,0.01 0.0123,0.01 0.007,0 0.0144,0 0.0219,0 0.0132,10e-4 0.0277,-7e-4 0.0406,0 0.074,-0.015 0.18757,-0.072 0.30738,-0.1433"
       style="fill:none;stroke:#000000"
       id="path53" />
    <path
       d="m 644.33509,893.90565 c -0.0959,-0.01 -0.19476,-0.01 -0.29033,0.01 -0.10779,0.015 -0.21588,0.041 -0.31973,0.074 -0.23173,0.074 -0.46122,0.1855 -0.66891,0.315 -0.28656,0.1787 -0.56098,0.4088 -0.77466,0.6692"
       style="fill:none;stroke:#000000"
       id="path54" />
    <path
       d="m 648.09786,891.12605 c -0.4171,1.0269 -0.73942,1.708 -1.10439,2.1448 -0.15466,0.1851 -0.3177,0.3275 -0.50155,0.4338 -0.20556,0.119 -0.43291,0.1904 -0.6969,0.2273 -0.38983,0.055 -0.86072,0.034 -1.45993,-0.026"
       style="fill:none;stroke:#000000"
       id="path55" />
    <path
       d="m 649.21696,887.81395 c -10e-4,0.2288 -0.26588,1.0192 -0.33022,1.2096 -0.22654,0.6704 -0.51254,1.424 -0.78888,2.1025"
       style="fill:none;stroke:#000000"
       id="path56" />
    <path
       d="m 645.97954,886.82465 c 1.16555,0.1493 2.19194,0.3913 2.76226,0.6293 0.1115,0.046 0.24692,0.1102 0.34466,0.1816 0.033,0.024 0.0677,0.053 0.0929,0.086 0.0123,0.016 0.0234,0.033 0.0302,0.052 0.005,0.013 0.008,0.027 0.007,0.041"
       style="fill:none;stroke:#000000"
       id="path57" />
    <path
       d="m 636.94662,882.51085 c 1.12332,1.2125 2.41876,2.1657 3.91015,2.8779 1.61289,0.7702 3.35441,1.2092 5.12277,1.4359"
       style="fill:none;stroke:#000000"
       id="path58" />
    <path
       d="m 635.06794,875.94055 c 0.11227,2.26 0.27552,3.6195 0.65146,4.644 0.27485,0.7489 0.66302,1.3174 1.22722,1.9263"
       style="fill:none;stroke:#000000"
       id="path59" />
    <path
       d="m 633.0367,870.42285 c 0.24451,0.098 0.46282,0.1927 0.65406,0.2986 0.20504,0.1136 0.37615,0.2383 0.51999,0.3947 0.15716,0.1709 0.28093,0.3788 0.38075,0.65 0.27301,0.7417 0.36628,1.9552 0.47644,4.1744"
       style="fill:none;stroke:#000000"
       id="path60" />
    <path
       d="m 630.06057,869.08985 c 0.3481,0.1816 0.85537,0.4191 1.3619,0.646 0.51433,0.2303 1.0985,0.4811 1.61423,0.687"
       style="fill:none;stroke:#000000"
       id="path61" />
    <path
       d="m 627.86444,872.73815 c -0.12973,-1.3555 -0.1933,-2.3404 -0.14893,-3.0178 0.0187,-0.285 0.0564,-0.5146 0.11626,-0.6939 0.0321,-0.096 0.0755,-0.1929 0.13591,-0.275 0.0429,-0.058 0.0938,-0.1087 0.15485,-0.1478 0.0645,-0.041 0.13517,-0.067 0.21055,-0.081 0.0997,-0.018 0.21256,-0.015 0.33981,0.01 0.34823,0.058 0.80373,0.2569 1.38768,0.5608"
       style="fill:none;stroke:#000000"
       id="path62" />
    <path
       d="m 359.16082,856.25105 17.5748,-17.5749 h 30.3009 a 8.125984,8.125984 0 0 1 8.126,8.126 v 18.8977 a 8.125984,8.125984 0 0 1 -8.126,8.126 h -30.3009 z"
       style="fill:none;stroke:#000000"
       id="path63" />
    <path
       style="fill:none;stroke:#000000"
       d="m 371.84912,833.78965 -17.5748,17.575"
       id="path64" />
    <path
       style="fill:none;stroke:#000000"
       d="m 354.27432,851.36465 -17.5753,-17.575"
       id="path65" />
    <path
       style="fill:none;stroke:#000000"
       d="m 336.69902,833.78965 v -30.301"
       id="path66" />
    <path
       d="m 338.25762,798.70395 a 8.125984,8.125984 0 0 0 -1.5581,4.7848"
       style="fill:none;stroke:#000000"
       id="path67" />
    <path
       d="m 343.23442,795.52005 c -0.6914,0.1381 -1.3647,0.3666 -1.9972,0.678 -0.7236,0.3561 -1.39361,0.8206 -1.9809,1.3733 -0.3671,0.3455 -0.7019,0.7252 -0.99871,1.1326"
       style="fill:none;stroke:#000000"
       id="path68" />
    <path
       d="m 344.82552,795.36285 a 8.125984,8.125984 0 0 0 -1.5911,0.1572"
       style="fill:none;stroke:#000000"
       id="path69" />
    <path
       style="fill:none;stroke:#000000"
       d="m 344.82502,795.36265 h 18.8981"
       id="path70" />
    <path
       d="m 371.84912,803.48875 a 8.125984,8.125984 0 0 0 -8.126,-8.1259"
       style="fill:none;stroke:#000000"
       id="path71" />
    <path
       style="fill:none;stroke:#000000"
       d="m 371.84912,803.48865 v 30.301"
       id="path72" />
    <path
       d="m 487.96659,856.44305 a 54.717168,54.717168 0 0 0 109.43433,0 54.717168,54.717168 0 0 0 -109.43433,0 z"
       style="fill:none;stroke:#000000"
       id="path73" />
    <path
       d="m 491.09321,753.84475 a 6.6141735,6.6141735 0 0 0 13.22834,0 6.6141735,6.6141735 0 0 0 -13.22834,0 z"
       style="fill:none;stroke:#000000"
       id="path74" />
    <path
       d="m 612.7184,741.16435 a 22.677165,22.677165 0 0 0 45.35433,0 22.677165,22.677165 0 0 0 -45.35433,0 z"
       style="fill:none;stroke:#000000"
       id="path75" />
    <path
       d="m 526.3184,741.16435 a 22.677168,22.677168 0 0 0 45.35433,0 22.677168,22.677168 0 0 0 -45.35433,0 z"
       style="fill:none;stroke:#000000"
       id="path76" />
    <path
       d="m 224.13292,319.4825 v 593.76375 a 7.559055,7.559055 0 0 0 7.559,7.5591 h 433.44853 a 7.559055,7.559055 0 0 0 7.55906,-7.5591 V 319.4825 a 7.559055,7.559055 0 0 0 -7.55906,-7.55905 H 231.69192 a 7.559055,7.559055 0 0 0 -7.559,7.55905 z"
       style="fill:none;stroke:#000000"
       id="path77" />
    <path
       d="m 267.33292,741.16435 a 37.621606,37.621606 0 0 0 75.2432,0 37.621606,37.621606 0 0 0 -75.2432,0 z"
       style="fill:none;stroke:#000000"
       id="path78" />
    <path
       d="m 505.06215,856.44305 a 37.621608,37.621608 0 0 0 75.24321,0 37.621608,37.621608 0 0 0 -75.24321,0 z"
       style="fill:none;stroke:#000000"
       id="path79" />
    <path
       d="m 442.15102,706.88405 c -0.026,-0.4056 -0.032,-0.857 -0.027,-1.3342"
       style="fill:none;stroke:#000000"
       id="path80" />
    <path
       d="m 443.35632,708.92265 c -0.1564,0 -0.2986,-0.023 -0.426,-0.076 -0.1035,-0.043 -0.1936,-0.1043 -0.2725,-0.1839 -0.1008,-0.1018 -0.1857,-0.2359 -0.2562,-0.4075 -0.1031,-0.2509 -0.1749,-0.5811 -0.2198,-1.0052 -0.012,-0.1172 -0.023,-0.2394 -0.031,-0.3662"
       style="fill:none;stroke:#000000"
       id="path82" />
    <path
       d="m 443.99382,709.71155 c -0.014,-0.089 -0.032,-0.1884 -0.052,-0.2781 -0.03,-0.1308 -0.063,-0.2295 -0.1048,-0.3036 -0.025,-0.044 -0.053,-0.079 -0.087,-0.1077 -0.033,-0.028 -0.071,-0.049 -0.1118,-0.063 -0.075,-0.027 -0.1667,-0.036 -0.2825,-0.036"
       style="fill:none;stroke:#000000"
       id="path83" />
    <path
       d="m 445.12542,713.37985 c -0.5784,-1.064 -0.8592,-1.9597 -1.1316,-3.6683"
       style="fill:none;stroke:#000000"
       id="path84" />
    <path
       d="m 445.45262,717.33305 c 0.2334,-0.5949 0.3759,-1.0392 0.426,-1.4432 0.043,-0.3473 0.018,-0.6656 -0.081,-1.0168 -0.1163,-0.4128 -0.3351,-0.8737 -0.672,-1.4932"
       style="fill:none;stroke:#000000"
       id="path85" />
    <path
       d="m 444.18002,719.55775 c 0.3825,-0.4177 0.9551,-1.4152 1.2726,-2.2247"
       style="fill:none;stroke:#000000"
       id="path86" />
    <path
       d="m 442.89512,720.19775 c 0.1064,0.022 0.202,0.035 0.2929,0.033 0.099,0 0.1884,-0.022 0.2782,-0.061 0.089,-0.039 0.18,-0.099 0.2812,-0.183 0.1258,-0.1049 0.2648,-0.2458 0.4326,-0.4289"
       style="fill:none;stroke:#000000"
       id="path87" />
    <path
       d="m 442.00452,720.26995 c 0.053,-0.034 0.1306,-0.061 0.2216,-0.079 0.1032,-0.021 0.2161,-0.029 0.3231,-0.028 0.1143,7e-4 0.234,0.012 0.3459,0.035"
       style="fill:none;stroke:#000000"
       id="path88" />
    <path
       d="m 442.32002,720.62285 c -0.1032,-0.026 -0.2122,-0.056 -0.2938,-0.088 -0.016,-0.01 -0.032,-0.013 -0.048,-0.02 -0.013,-0.01 -0.025,-0.012 -0.037,-0.019 -0.01,-0.01 -0.018,-0.011 -0.027,-0.018 -0.01,-0.01 -0.018,-0.015 -0.025,-0.024 -0.01,-0.01 -0.011,-0.016 -0.014,-0.025 0,-0.01 0,-0.015 0,-0.022 8e-4,-0.01 0,-0.017 0.01,-0.025 0.01,-0.013 0.017,-0.027 0.032,-0.041 0.022,-0.022 0.053,-0.045 0.093,-0.071"
       style="fill:none;stroke:#000000"
       id="path89" />
    <path
       d="m 446.53782,720.17775 c -0.025,0.034 -0.06,0.063 -0.094,0.088 -0.041,0.029 -0.087,0.055 -0.1326,0.077 -0.1047,0.051 -0.2261,0.094 -0.3381,0.1276 -0.7157,0.2152 -1.9336,0.3301 -2.8825,0.2644 -0.2505,-0.017 -0.528,-0.05 -0.7706,-0.1119"
       style="fill:none;stroke:#000000"
       id="path90" />
    <path
       d="m 446.93982,720.02455 c -0.01,-0.01 -0.015,-0.012 -0.023,-0.017 -0.01,0 -0.014,-0.01 -0.021,-0.01 -0.01,0 -0.011,0 -0.017,0 -0.01,-0.001 -0.011,0 -0.017,0 -0.01,-8e-4 -0.012,0 -0.018,0 -0.01,-2e-4 -0.017,10e-5 -0.025,9e-4 -0.021,0 -0.042,0.01 -0.061,0.014 -0.041,0.015 -0.084,0.04 -0.1258,0.074 -0.035,0.029 -0.067,0.063 -0.094,0.1002"
       style="fill:none;stroke:#000000"
       id="path91" />
    <path
       d="m 446.94632,719.89625 c 0.014,0.024 0.054,0.095 0.064,0.1373 0,0.01 0,0.011 0,0.015 0,0 -2e-4,0.01 -8e-4,0.01 -4e-4,10e-4 -9e-4,0 0,0 -4e-4,6e-4 -9e-4,10e-4 0,0 -7e-4,6e-4 0,0 0,0 -9e-4,4e-4 0,6e-4 0,8e-4 -7e-4,10e-5 0,10e-5 0,10e-5 -7e-4,0 0,0 0,-10e-5 -0.001,-10e-5 0,-3e-4 0,-6e-4 0,-5e-4 0,-10e-4 -0.01,0 -0.016,-0.01 -0.036,-0.024 -0.05,-0.036"
       style="fill:none;stroke:#000000"
       id="path92" />
    <path
       d="m 446.27412,719.71045 c 0.038,-0.01 0.077,-0.013 0.1166,-0.015 0.033,0 0.067,0 0.1005,0 0.029,8e-4 0.058,0 0.087,0.01 0.029,0 0.058,0.01 0.086,0.016 0.031,0.01 0.061,0.017 0.09,0.029 0.039,0.016 0.077,0.036 0.1105,0.062 0.033,0.025 0.061,0.055 0.081,0.09"
       style="fill:none;stroke:#000000"
       id="path93" />
    <path
       d="m 445.87382,717.54065 c -0.1265,0.3224 -0.2553,0.6904 -0.3316,1.0282 -0.039,0.1743 -0.071,0.3704 -0.07,0.5496 9e-4,0.086 0.01,0.1755 0.033,0.2584 0.015,0.052 0.036,0.1028 0.065,0.1487 0.024,0.037 0.053,0.071 0.087,0.099 0.029,0.024 0.062,0.044 0.096,0.06 0.023,0.01 0.046,0.019 0.07,0.026 0.024,0.01 0.048,0.012 0.072,0.016 0.035,0.01 0.071,0.01 0.1062,0.01 0.09,0 0.1838,-0.01 0.2723,-0.026"
       style="fill:none;stroke:#000000"
       id="path94" />
    <path
       d="m 446.86452,715.62225 c -0.236,0.2697 -0.6802,1.127 -0.9907,1.9184"
       style="fill:none;stroke:#000000"
       id="path95" />
    <path
       d="m 447.16342,713.81445 c 0.045,0.4455 0.066,0.75 0.053,0.9841 -0.01,0.1507 -0.03,0.2715 -0.068,0.3794 -0.056,0.1583 -0.148,0.2891 -0.2839,0.4443"
       style="fill:none;stroke:#000000"
       id="path96" />
    <path
       d="m 447.83432,712.68715 c -0.1378,-0.071 -0.2612,-0.1276 -0.3627,-0.1559 -0.051,-0.014 -0.096,-0.021 -0.1358,-0.02 -0.024,9e-4 -0.048,0 -0.07,0.014 -0.02,0.01 -0.038,0.02 -0.054,0.035 -0.021,0.021 -0.037,0.046 -0.049,0.073 -0.023,0.05 -0.037,0.1172 -0.046,0.2025 -0.02,0.2101 0,0.5298 0.047,0.9786"
       style="fill:none;stroke:#000000"
       id="path97" />
    <path
       d="m 448.75372,713.09225 c -0.1504,-0.059 -0.3188,-0.1299 -0.4691,-0.1957 -0.1681,-0.074 -0.3367,-0.151 -0.4503,-0.2094"
       style="fill:none;stroke:#000000"
       id="path98" />
    <path
       d="m 449.39112,714.78775 c -0.01,-0.171 -0.021,-0.3695 -0.035,-0.5438 -0.02,-0.2608 -0.044,-0.4539 -0.079,-0.6018 -0.021,-0.091 -0.047,-0.1636 -0.079,-0.224 -0.036,-0.067 -0.079,-0.119 -0.1324,-0.163 -0.079,-0.064 -0.18,-0.1113 -0.3117,-0.1629"
       style="fill:none;stroke:#000000"
       id="path99" />
    <path
       d="m 449.98372,716.80795 c -0.1408,-0.1499 -0.2467,-0.2921 -0.3278,-0.4626 -0.067,-0.1417 -0.1176,-0.3027 -0.1565,-0.5043 -0.051,-0.2636 -0.082,-0.5959 -0.1083,-1.0533"
       style="fill:none;stroke:#000000"
       id="path100" />
    <path
       d="m 452.77572,718.11755 c -0.5756,-0.07 -1.1413,-0.2123 -1.6617,-0.4702 -0.4286,-0.2124 -0.803,-0.4911 -1.1303,-0.8394"
       style="fill:none;stroke:#000000"
       id="path101" />
    <path
       d="m 453.77512,718.41555 c 0,0 -8e-4,-0.01 0,-0.012 0,0 0,-0.01 -0.01,-0.011 0,-0.01 -0.01,-0.013 -0.016,-0.019 -0.033,-0.031 -0.095,-0.058 -0.1395,-0.075 -0.1787,-0.07 -0.4866,-0.1392 -0.836,-0.1816"
       style="fill:none;stroke:#000000"
       id="path102" />
    <path
       d="m 453.43662,719.43805 c 0.1184,-0.2959 0.221,-0.5834 0.2822,-0.7844 0.017,-0.056 0.042,-0.1426 0.052,-0.1998 0,-0.013 0,-0.027 0,-0.038"
       style="fill:none;stroke:#000000"
       id="path103" />
    <path
       d="m 452.28192,720.30045 c 0.1659,0.016 0.3059,0.023 0.4237,0.01 0.025,0 0.05,-0.01 0.075,-0.012 0.022,0 0.044,-0.01 0.065,-0.017 0.018,-0.01 0.036,-0.013 0.054,-0.021 0.023,-0.01 0.045,-0.022 0.066,-0.036 0.051,-0.033 0.097,-0.076 0.1398,-0.1292 0.1092,-0.135 0.206,-0.3428 0.3313,-0.6558"
       style="fill:none;stroke:#000000"
       id="path104" />
    <path
       d="m 451.65102,720.63235 c 0.071,-0.087 0.1636,-0.1638 0.2606,-0.2215 0.031,-0.018 0.063,-0.035 0.095,-0.05 0.028,-0.013 0.057,-0.024 0.086,-0.034 0.02,-0.01 0.041,-0.012 0.061,-0.017 0.019,0 0.038,-0.01 0.058,-0.01 0.023,0 0.047,0 0.071,-7e-4"
       style="fill:none;stroke:#000000"
       id="path105" />
    <path
       d="m 451.61882,720.83815 c -0.025,0.015 -0.053,0.03 -0.075,0.039 0,10e-4 -0.01,0 -0.011,0 0,7e-4 0,10e-4 -0.01,0 0,5e-4 0,9e-4 -0.01,10e-4 0,2e-4 0,4e-4 -0.01,3e-4 0,-1e-4 0,-4e-4 -0.01,-0.001 0,-6e-4 0,-10e-4 0,0 0,-10e-4 0,0 0,0 -9e-4,0 0,0 0,0 -4e-4,0 0,-0.01 7e-4,-0.011 0,-0.01 0,-0.013 0.01,-0.018 0.021,-0.05 0.087,-0.1371 0.1463,-0.2099"
       style="fill:none;stroke:#000000"
       id="path106" />
    <path
       d="m 451.88162,720.92475 c 0,-0.014 0,-0.029 0,-0.043 0,-0.014 -0.01,-0.028 -0.015,-0.041 -0.01,-0.01 -0.013,-0.019 -0.022,-0.026 -0.01,-0.01 -0.022,-0.015 -0.035,-0.019 -0.01,0 -0.018,-0.01 -0.028,-0.01 -0.01,-6e-4 -0.014,-6e-4 -0.021,-3e-4 -0.01,4e-4 -0.015,10e-4 -0.023,0 -0.01,10e-4 -0.015,0 -0.022,0.01 -0.01,0 -0.02,0.01 -0.03,0.01 -0.022,0.01 -0.043,0.019 -0.063,0.032"
       style="fill:none;stroke:#000000"
       id="path107" />
    <path
       d="m 452.77572,721.04575 c -0.1444,0.02 -0.3117,0.039 -0.4588,0.043 -0.075,0 -0.1599,5e-4 -0.234,-0.011 -0.042,-0.01 -0.082,-0.017 -0.1158,-0.033 -0.018,-0.01 -0.036,-0.02 -0.05,-0.034 -0.011,-0.011 -0.02,-0.024 -0.026,-0.038 -0.01,-0.015 -0.01,-0.031 -0.01,-0.048"
       style="fill:none;stroke:#000000"
       id="path108" />
    <path
       d="m 454.51172,720.99355 c -0.2733,-0.071 -0.3964,-0.099 -0.6764,-0.079 -0.2613,0.018 -0.6598,0.076 -1.0596,0.1314"
       style="fill:none;stroke:#000000"
       id="path109" />
    <path
       d="m 455.19702,720.99095 c -0.01,0 -0.013,0 -0.02,0.01 -0.01,0 -0.019,0.01 -0.028,0.01 -0.036,0.01 -0.076,0.017 -0.1132,0.022 -0.1563,0.019 -0.3598,0.01 -0.5245,-0.035"
       style="fill:none;stroke:#000000"
       id="path110" />
    <path
       d="m 454.85682,720.49445 c 0.097,0 0.1844,0.016 0.2581,0.042 0.061,0.022 0.113,0.05 0.1536,0.083 0.027,0.022 0.051,0.047 0.069,0.076 0.012,0.019 0.022,0.041 0.027,0.063 0,0.018 0.01,0.037 0,0.055 0,0.019 -0.01,0.037 -0.017,0.053 -0.013,0.025 -0.031,0.046 -0.053,0.065 -0.012,0.01 -0.024,0.019 -0.037,0.027 -0.01,0.01 -0.021,0.012 -0.032,0.018 -0.011,0.01 -0.021,0.01 -0.032,0.015"
       style="fill:none;stroke:#000000"
       id="path111" />
    <path
       d="m 454.26112,719.38975 c 0.052,0.2497 0.1116,0.499 0.1834,0.6903 0.034,0.091 0.073,0.1733 0.1173,0.2395 0.025,0.037 0.055,0.073 0.09,0.1023 0.026,0.022 0.055,0.039 0.087,0.052 0.038,0.014 0.077,0.021 0.1175,0.021"
       style="fill:none;stroke:#000000"
       id="path112" />
    <path
       d="m 454.11152,718.15235 c 0,0.01 -0.01,0.015 -0.01,0.025 0,0.01 0,0.015 0,0.023 0,0.014 0,0.029 0,0.043 -4e-4,0.027 5e-4,0.056 0,0.083 0,0.052 0.01,0.1091 0.013,0.1613 0.011,0.1014 0.025,0.2096 0.041,0.3111 0.029,0.1941 0.067,0.3971 0.1068,0.5911"
       style="fill:none;stroke:#000000"
       id="path113" />
    <path
       d="m 455.05692,718.44825 c -0.1406,-0.07 -0.2901,-0.1369 -0.4352,-0.1931 -0.1346,-0.052 -0.2523,-0.09 -0.341,-0.1087 -0.041,-0.01 -0.096,-0.018 -0.1336,-0.012 -0.01,7e-4 -0.01,0 -0.015,0 0,7e-4 0,0 -0.01,0 0,7e-4 0,10e-4 0,0 0,10e-4 0,0 0,0 0,0 0,0 -0.01,0.01"
       style="fill:none;stroke:#000000"
       id="path114" />
    <path
       d="m 456.48012,718.68275 c -0.088,0.031 -0.1773,0.054 -0.2698,0.067 -0.1226,0.017 -0.2404,0.013 -0.3612,-0.01 -0.2179,-0.037 -0.4647,-0.132 -0.7922,-0.2941"
       style="fill:none;stroke:#000000"
       id="path115" />
    <path
       d="m 456.07032,715.32255 c 0.3437,0.5899 0.671,1.1998 0.8643,1.7205 0.083,0.2227 0.1444,0.4386 0.1695,0.6372 0.014,0.1091 0.018,0.2225 0,0.3321 -0.011,0.075 -0.03,0.1491 -0.062,0.2189 -0.028,0.062 -0.064,0.118 -0.1089,0.1692 -0.023,0.027 -0.048,0.052 -0.075,0.075 -0.023,0.02 -0.046,0.038 -0.071,0.055 -0.031,0.022 -0.063,0.041 -0.097,0.06 -0.068,0.037 -0.1397,0.067 -0.2123,0.093"
       style="fill:none;stroke:#000000"
       id="path116" />
    <path
       d="m 455.45072,711.41015 c -0.058,0.054 -0.1129,0.1127 -0.1623,0.1755 -0.049,0.062 -0.093,0.1284 -0.1305,0.1985 -0.046,0.085 -0.082,0.1748 -0.1083,0.2681 -0.043,0.1515 -0.06,0.308 -0.058,0.4652 0,0.3699 0.1123,0.8107 0.3337,1.3454 0.2036,0.4918 0.4787,1.0034 0.7446,1.4597"
       style="fill:none;stroke:#000000"
       id="path117" />
    <path
       d="m 456.25862,707.05525 c 0.052,1.3756 0.014,2.2543 -0.1012,2.8875 -0.076,0.4169 -0.1875,0.7416 -0.3401,1.0058 -0.1,0.173 -0.2202,0.3252 -0.3666,0.4616"
       style="fill:none;stroke:#000000"
       id="path118" />
    <path
       d="m 455.73912,703.65415 c 0.3037,0.6779 0.447,1.4657 0.5195,3.4011"
       style="fill:none;stroke:#000000"
       id="path119" />
    <path
       d="m 453.34002,700.39705 c 0.022,0.01 0.043,0.016 0.063,0.026 0.031,0.016 0.062,0.035 0.091,0.055 0.2413,0.1661 0.5812,0.5416 0.9341,1.0097 0.2974,0.3946 0.5919,0.8386 0.8432,1.2683 0.1675,0.2865 0.3333,0.5965 0.4683,0.8981"
       style="fill:none;stroke:#000000"
       id="path120" />
    <path
       d="m 452.30282,698.61835 c 0,0.1982 0.053,0.4267 0.1395,0.6533 0.087,0.2263 0.209,0.455 0.3506,0.6504 0.075,0.104 0.1623,0.207 0.257,0.2929 0.051,0.046 0.1063,0.09 0.165,0.1245 0.039,0.023 0.082,0.044 0.1251,0.058"
       style="fill:none;stroke:#000000"
       id="path121" />
    <path
       d="m 450.27392,694.61815 c 0.2515,0.2989 0.5693,0.7938 0.8862,1.3557 0.2653,0.4705 0.5355,0.9982 0.7529,1.4837 0.065,0.1452 0.13,0.2972 0.1881,0.445 0.065,0.1651 0.1449,0.3854 0.1816,0.5587 0.01,0.049 0.02,0.1071 0.02,0.1571"
       style="fill:none;stroke:#000000"
       id="path122" />
    <path
       d="m 447.37752,693.19015 c 0.2495,0.01 0.4973,0.038 0.7405,0.093 0.3618,0.082 0.7081,0.2158 1.0312,0.3971 0.43,0.2414 0.8073,0.5603 1.1247,0.9375"
       style="fill:none;stroke:#000000"
       id="path123" />
    <path
       d="m 445.40522,693.64135 c 0.2441,-0.1226 0.4986,-0.2228 0.7615,-0.2975 0.2028,-0.058 0.4095,-0.1 0.6187,-0.1257 0.1965,-0.024 0.3943,-0.034 0.5921,-0.028"
       style="fill:none;stroke:#000000"
       id="path124" />
    <path
       d="m 443.09492,694.36745 c 0.1851,-0.032 0.379,-0.075 0.5622,-0.1209 0.2066,-0.052 0.4175,-0.1111 0.6211,-0.1743 0.2053,-0.064 0.4161,-0.1353 0.6161,-0.2113 0.1678,-0.064 0.352,-0.1399 0.5109,-0.2196"
       style="fill:none;stroke:#000000"
       id="path125" />
    <path
       d="m 441.71872,695.89515 c -0.1614,-0.035 -0.3312,-0.077 -0.4875,-0.1289 -0.1255,-0.041 -0.2666,-0.097 -0.3788,-0.1658 -0.047,-0.029 -0.095,-0.064 -0.1332,-0.1052 -0.021,-0.023 -0.04,-0.049 -0.054,-0.077 -0.01,-0.021 -0.017,-0.044 -0.019,-0.067 0,-0.024 -2e-4,-0.049 0.01,-0.073 0.01,-0.037 0.03,-0.071 0.053,-0.1008 0.02,-0.026 0.044,-0.05 0.069,-0.072 0.026,-0.023 0.055,-0.045 0.084,-0.065 0.044,-0.031 0.092,-0.059 0.1391,-0.084 0.146,-0.079 0.3172,-0.1461 0.4738,-0.2001 0.406,-0.1401 0.95,-0.2715 1.624,-0.3883"
       style="fill:none;stroke:#000000"
       id="path126" />
    <path
       d="m 444.38802,697.11295 c -0.1549,-0.1711 -0.3209,-0.3175 -0.5118,-0.4469 -0.2042,-0.1385 -0.4239,-0.2484 -0.6509,-0.3406 -0.4301,-0.1747 -0.9468,-0.3099 -1.5066,-0.4303"
       style="fill:none;stroke:#000000"
       id="path127" />
    <path
       d="m 444.55632,698.34425 c 0.038,-0.1321 0.07,-0.255 0.092,-0.3645 0.024,-0.122 0.034,-0.2224 0.029,-0.3116 -0.01,-0.089 -0.026,-0.1692 -0.065,-0.2495 -0.047,-0.097 -0.1213,-0.192 -0.2241,-0.3057"
       style="fill:none;stroke:#000000"
       id="path128" />
    <path
       d="m 443.10182,701.82895 c 0.043,-0.047 0.084,-0.1008 0.1212,-0.153 0.056,-0.079 0.1089,-0.165 0.1571,-0.2487 0.1578,-0.2744 0.307,-0.6021 0.4296,-0.8966 0.2846,-0.6841 0.539,-1.4571 0.7466,-2.1864"
       style="fill:none;stroke:#000000"
       id="path129" />
    <path
       d="m 442.12422,705.54985 c 0.012,-1.0363 0.05,-1.681 0.1488,-2.1715 0.085,-0.4235 0.2173,-0.7386 0.4214,-1.0421 0.1138,-0.1693 0.2487,-0.333 0.4074,-0.5073"
       style="fill:none;stroke:#000000"
       id="path130" />
    <path
       d="m 205.23522,319.4825 v 593.76375 a 26.456693,26.456693 0 0 0 26.4567,26.4567 h 433.44853 a 26.456693,26.456693 0 0 0 26.45669,-26.4567 V 319.4825 A 26.456693,26.456693 0 0 0 665.14045,293.02581 H 231.69192 a 26.456693,26.456693 0 0 0 -26.4567,26.45669 z"
       style="fill:none;stroke:#000000"
       id="path131" />
  </g>
</svg>
